<svg width="24" height="24" viewBox="0 0 24 24" fill="none" xmlns="http://www.w3.org/2000/svg">
<g clip-path="url(#clip0_10_1201)">
<path d="M1.58496 17.0156C1.58496 18.8965 2.57812 19.8809 4.47656 19.8809H19.5146C21.4219 19.8809 22.415 18.8965 22.415 17.0156V6.31934C22.415 4.43848 21.4219 3.4541 19.5146 3.4541H13.7842C13.3096 3.4541 12.9141 3.84961 12.9141 4.32422C12.9141 4.80762 13.3096 5.20312 13.7842 5.20312H19.4004C20.209 5.20312 20.6572 5.625 20.6572 6.47754V16.8574C20.6572 17.71 20.209 18.1318 19.4004 18.1318H4.59082C3.78223 18.1318 3.33398 17.71 3.33398 16.8574V6.47754C3.33398 5.625 3.78223 5.20312 4.59082 5.20312H6.64746V6.53027C6.64746 7.20703 7.14844 7.3916 7.69336 7.00488L10.6641 4.89551C11.1123 4.5791 11.1123 4.08691 10.6641 3.76172L7.70215 1.65234C7.14844 1.25684 6.64746 1.44141 6.64746 2.11816V3.4541H4.47656C2.57812 3.4541 1.58496 4.42969 1.58496 6.31934V17.0156Z" fill="#1C1C1E"/>
</g>
<defs>
<clipPath id="clip0_10_1201">
<rect width="24" height="24" fill="white"/>
</clipPath>
</defs>
</svg>
