<svg width="24" height="24" viewBox="0 0 24 24" fill="none" xmlns="http://www.w3.org/2000/svg">
<g clip-path="url(#clip0_10_1249)">
<path d="M-1.51758 18.9668H0.547852C1.38281 18.9668 1.81348 18.5361 1.81348 17.7012V12.0059C1.77832 11.8916 1.76953 11.7773 1.76953 11.6455C1.76953 11.5225 1.77832 11.3994 1.81348 11.2939V5.60742C1.81348 4.75488 1.38281 4.35059 0.547852 4.3418H-1.51758C-2.35254 4.3418 -2.7832 4.77246 -2.7832 5.60742V17.7012C-2.79199 18.5361 -2.36133 18.9668 -1.51758 18.9668ZM12.8701 18.7295C13.6436 18.7295 14.2939 18.1494 14.2939 17.0771V12.0059C14.4082 12.4365 14.7334 12.7969 15.252 13.1045L24.2607 18.3955C24.6387 18.6152 24.9727 18.7295 25.3594 18.7295C26.1328 18.7295 26.7832 18.1494 26.7832 17.0771V6.23145C26.7832 5.15918 26.1328 4.5791 25.3594 4.5791C24.9727 4.5791 24.6387 4.69336 24.2607 4.91309L15.252 10.2041C14.7246 10.5205 14.4082 10.8633 14.2939 11.2939V6.23145C14.2939 5.15918 13.6523 4.5791 12.8789 4.5791C12.4922 4.5791 12.1582 4.69336 11.7715 4.91309L2.7627 10.2041C2.24414 10.5205 1.91895 10.8633 1.81348 11.2939V12.0059C1.92773 12.4365 2.24414 12.7969 2.7627 13.1045L11.7715 18.3955C12.1582 18.6152 12.4834 18.7295 12.8701 18.7295Z" fill="#1C1C1E"/>
</g>
<defs>
<clipPath id="clip0_10_1249">
<rect width="24" height="24" fill="white"/>
</clipPath>
</defs>
</svg>
