<svg width="24" height="24" viewBox="0 0 24 24" fill="none" xmlns="http://www.w3.org/2000/svg">
<g clip-path="url(#clip0_10_1240)">
<path d="M18.2227 19.0723C18.7764 19.0723 19.207 18.6592 19.207 18.1143V5.21191C19.207 4.66699 18.7764 4.25391 18.2227 4.25391C17.6689 4.25391 17.2383 4.66699 17.2383 5.21191V18.1143C17.2383 18.6592 17.6689 19.0723 18.2227 19.0723ZM13.1602 18.7383C13.9336 18.7383 14.584 18.1582 14.584 17.0859V6.24023C14.584 5.16797 13.9424 4.58789 13.1689 4.58789C12.7822 4.58789 12.4482 4.70215 12.0615 4.92188L3.05273 10.2129C2.38477 10.6084 2.05957 11.0654 2.05957 11.6543C2.05957 12.252 2.39355 12.7266 3.05273 13.1133L12.0615 18.4043C12.4482 18.624 12.7734 18.7383 13.1602 18.7383ZM12.6416 16.708C12.5889 16.708 12.5273 16.6904 12.457 16.6465L4.37988 11.874C4.27441 11.8213 4.22168 11.7598 4.22168 11.6631C4.22168 11.5576 4.27441 11.5049 4.37988 11.4521L12.457 6.67969C12.5273 6.63574 12.5889 6.61816 12.6416 6.61816C12.7559 6.61816 12.8438 6.68848 12.8438 6.84668V16.4795C12.8438 16.6377 12.7559 16.708 12.6416 16.708Z" fill="#1C1C1E"/>
</g>
<defs>
<clipPath id="clip0_10_1240">
<rect width="24" height="24" fill="white"/>
</clipPath>
</defs>
</svg>
