<svg width="24" height="24" viewBox="0 0 24 24" fill="none" xmlns="http://www.w3.org/2000/svg">
<g clip-path="url(#clip0_10_1256)">
<path d="M-0.489258 19.0723C0.0644531 19.0723 0.495117 18.6592 0.495117 18.1143V11.9971C0.46875 11.8916 0.451172 11.7773 0.451172 11.6543C0.451172 11.54 0.46875 11.4258 0.495117 11.3115V5.21191C0.495117 4.66699 0.0644531 4.25391 -0.489258 4.25391C-1.04297 4.25391 -1.47363 4.66699 -1.47363 5.21191V18.1143C-1.47363 18.6592 -1.04297 19.0723 -0.489258 19.0723ZM11.5605 18.7383C12.334 18.7383 12.9844 18.1582 12.9844 17.0859V12.0146C13.0986 12.4453 13.415 12.8057 13.9424 13.1133L22.9424 18.4043C23.3291 18.624 23.6631 18.7383 24.0498 18.7383C24.8232 18.7383 25.4648 18.1582 25.4648 17.0859V6.24023C25.4648 5.16797 24.8232 4.58789 24.0498 4.58789C23.6631 4.58789 23.3291 4.70215 22.9424 4.92188L13.9424 10.2129C13.415 10.5293 13.0986 10.8721 12.9844 11.3027V6.24023C12.9844 5.16797 12.3428 4.58789 11.5693 4.58789C11.1738 4.58789 10.8486 4.70215 10.4619 4.92188L1.45312 10.2129C0.925781 10.5293 0.600586 10.8809 0.495117 11.3115V11.9971C0.600586 12.4365 0.925781 12.7969 1.45312 13.1133L10.4619 18.4043C10.8398 18.624 11.1738 18.7383 11.5605 18.7383ZM11.042 16.708C10.9893 16.708 10.9277 16.6904 10.8486 16.6465L2.78027 11.874C2.6748 11.8213 2.62207 11.7598 2.62207 11.6631C2.62207 11.5576 2.6748 11.5049 2.78027 11.4521L10.8486 6.67969C10.9277 6.63574 10.9893 6.61816 11.042 6.61816C11.1562 6.61816 11.2441 6.68848 11.2441 6.84668V16.4795C11.2441 16.6377 11.1562 16.708 11.042 16.708ZM23.5312 16.708C23.4697 16.708 23.4082 16.6904 23.3379 16.6465L15.2607 11.874C15.1641 11.8213 15.1025 11.7598 15.1025 11.6631C15.1025 11.5576 15.1553 11.5049 15.2607 11.4521L23.3379 6.67969C23.417 6.63574 23.4697 6.61816 23.5225 6.61816C23.6367 6.61816 23.7334 6.68848 23.7334 6.84668V16.4795C23.7334 16.6377 23.6367 16.708 23.5312 16.708Z" fill="#1C1C1E"/>
</g>
<defs>
<clipPath id="clip0_10_1256">
<rect width="24" height="24" fill="white"/>
</clipPath>
</defs>
</svg>
