<svg width="24" height="24" viewBox="0 0 24 24" fill="none" xmlns="http://www.w3.org/2000/svg">
<g clip-path="url(#clip0_10_1222)">
<path d="M4.72266 18.9668H6.78809C7.62305 18.9668 8.05371 18.5361 8.05371 17.7012V12.0059C8.01855 11.8916 8.00977 11.7773 8.00977 11.6455C8.00977 11.5225 8.01855 11.3994 8.05371 11.2939V5.60742C8.05371 4.75488 7.62305 4.35059 6.78809 4.3418H4.72266C3.8877 4.3418 3.45703 4.77246 3.45703 5.60742V17.7012C3.44824 18.5361 3.87891 18.9668 4.72266 18.9668ZM19.1104 18.7295C19.8838 18.7295 20.5342 18.1494 20.5342 17.0771V6.23145C20.5342 5.15918 19.8926 4.5791 19.1191 4.5791C18.7324 4.5791 18.3984 4.69336 18.0117 4.91309L9.00293 10.2041C8.48438 10.5205 8.15918 10.8633 8.05371 11.2939V12.0059C8.16797 12.4365 8.48438 12.7969 9.00293 13.1045L18.0117 18.3955C18.3984 18.6152 18.7236 18.7295 19.1104 18.7295Z" fill="#1C1C1E"/>
</g>
<defs>
<clipPath id="clip0_10_1222">
<rect width="24" height="24" fill="white"/>
</clipPath>
</defs>
</svg>
