<svg width="24" height="24" viewBox="0 0 24 24" fill="none" xmlns="http://www.w3.org/2000/svg">
<g clip-path="url(#clip0_10_1230)">
<path d="M9.58301 18.7207C10.3564 18.7207 11.0068 18.1318 11.0068 17.0596V11.9971C11.1211 12.4189 11.4375 12.7793 11.9648 13.0869L20.9736 18.3779C21.3516 18.6064 21.6855 18.7207 22.0723 18.7207C22.8457 18.7207 23.4961 18.1318 23.4961 17.0596V6.22266C23.4961 5.15039 22.8457 4.56152 22.0723 4.56152C21.6855 4.56152 21.3516 4.67578 20.9736 4.9043L11.9648 10.1953C11.4375 10.5029 11.1211 10.8545 11.0068 11.2764V6.22266C11.0068 5.15039 10.3652 4.56152 9.5918 4.56152C9.19629 4.56152 8.87109 4.67578 8.48438 4.9043L-0.524414 10.1953C-1.19238 10.5908 -1.51758 11.0391 -1.51758 11.6367C-1.51758 12.2256 -1.18359 12.7002 -0.524414 13.0869L8.48438 18.3779C8.8623 18.6064 9.19629 18.7207 9.58301 18.7207Z" fill="#1C1C1E"/>
</g>
<defs>
<clipPath id="clip0_10_1230">
<rect width="24" height="24" fill="white"/>
</clipPath>
</defs>
</svg>
