<svg width="24" height="24" viewBox="0 0 24 24" fill="none" xmlns="http://www.w3.org/2000/svg">
<g clip-path="url(#clip0_10_1224)">
<path d="M5.75098 19.0723C6.30469 19.0723 6.73535 18.6592 6.73535 18.1143V12.0146C6.70898 11.9004 6.69141 11.7861 6.69141 11.6543C6.69141 11.5312 6.70898 11.417 6.73535 11.3027V5.21191C6.73535 4.66699 6.30469 4.25391 5.75098 4.25391C5.19727 4.25391 4.7666 4.66699 4.7666 5.21191V18.1143C4.7666 18.6592 5.19727 19.0723 5.75098 19.0723ZM17.8008 18.7383C18.5742 18.7383 19.2246 18.1582 19.2246 17.0859V6.24023C19.2246 5.16797 18.5742 4.58789 17.8008 4.58789C17.4141 4.58789 17.0801 4.70215 16.7021 4.92188L7.69336 10.2129C7.16602 10.5293 6.84961 10.8721 6.73535 11.3027V12.0146C6.84961 12.4453 7.16602 12.8057 7.69336 13.1133L16.7021 18.4043C17.0801 18.624 17.4141 18.7383 17.8008 18.7383ZM17.2822 16.708C17.2207 16.708 17.1592 16.6904 17.0889 16.6465L9.01172 11.874C8.91504 11.8213 8.85352 11.7598 8.85352 11.6631C8.85352 11.5576 8.90625 11.5049 9.01172 11.4521L17.0889 6.67969C17.168 6.63574 17.2207 6.61816 17.2734 6.61816C17.3877 6.61816 17.4844 6.68848 17.4844 6.84668V16.4795C17.4844 16.6377 17.3877 16.708 17.2822 16.708Z" fill="#1C1C1E"/>
</g>
<defs>
<clipPath id="clip0_10_1224">
<rect width="24" height="24" fill="white"/>
</clipPath>
</defs>
</svg>
