<svg width="24" height="24" viewBox="0 0 24 24" fill="none" xmlns="http://www.w3.org/2000/svg">
<g clip-path="url(#clip0_10_1237)">
<path d="M17.2471 18.9668H19.3037C20.1475 18.9668 20.5693 18.5361 20.5693 17.7012V5.60742C20.5693 4.75488 20.1475 4.3418 19.3037 4.3418H17.2471C16.4033 4.3418 15.9814 4.77246 15.9814 5.60742V17.7012C15.9814 18.5361 16.4033 18.9668 17.2471 18.9668ZM11.9297 18.7295C12.7031 18.7295 13.3535 18.1494 13.3535 17.0771V6.23145C13.3535 5.15918 12.7031 4.5791 11.9297 4.5791C11.543 4.5791 11.209 4.69336 10.8311 4.91309L1.82227 10.2041C1.1543 10.5996 0.820312 11.0566 0.820312 11.6455C0.820312 12.2432 1.16309 12.7178 1.82227 13.1045L10.8311 18.3955C11.209 18.6152 11.543 18.7295 11.9297 18.7295Z" fill="#1C1C1E"/>
</g>
<defs>
<clipPath id="clip0_10_1237">
<rect width="24" height="24" fill="white"/>
</clipPath>
</defs>
</svg>
