<svg width="24" height="24" viewBox="0 0 24 24" fill="none" xmlns="http://www.w3.org/2000/svg">
<g clip-path="url(#clip0_10_1235)">
<path d="M9.58301 18.7207C10.3564 18.7207 11.0068 18.1318 11.0068 17.0596V11.9971C11.1211 12.4189 11.4375 12.7793 11.9648 13.0869L20.9736 18.3779C21.3516 18.6064 21.6855 18.7207 22.0723 18.7207C22.8457 18.7207 23.4961 18.1318 23.4961 17.0596V6.22266C23.4961 5.15039 22.8457 4.56152 22.0723 4.56152C21.6855 4.56152 21.3516 4.67578 20.9736 4.9043L11.9648 10.1953C11.4375 10.5029 11.1211 10.8545 11.0068 11.2764V6.22266C11.0068 5.15039 10.3652 4.56152 9.5918 4.56152C9.19629 4.56152 8.87109 4.67578 8.48438 4.9043L-0.524414 10.1953C-1.19238 10.5908 -1.51758 11.0391 -1.51758 11.6367C-1.51758 12.2256 -1.18359 12.7002 -0.524414 13.0869L8.48438 18.3779C8.8623 18.6064 9.19629 18.7207 9.58301 18.7207ZM9.06445 16.6816C9.01172 16.6816 8.9502 16.6641 8.87109 16.6201L0.802734 11.8564C0.697266 11.7949 0.644531 11.7422 0.644531 11.6367C0.644531 11.5312 0.697266 11.4873 0.802734 11.4258L8.87109 6.66211C8.9502 6.61816 9.01172 6.5918 9.06445 6.5918C9.17871 6.5918 9.2666 6.6709 9.2666 6.82031V16.4619C9.2666 16.6113 9.17871 16.6816 9.06445 16.6816ZM21.5537 16.6816C21.4922 16.6816 21.4307 16.6641 21.3604 16.6201L13.2832 11.8564C13.1865 11.7949 13.125 11.7422 13.125 11.6367C13.125 11.5312 13.1777 11.4873 13.2832 11.4258L21.3604 6.66211C21.4395 6.61816 21.4922 6.5918 21.5449 6.5918C21.6592 6.5918 21.7559 6.6709 21.7559 6.82031V16.4619C21.7559 16.6113 21.6592 16.6816 21.5537 16.6816Z" fill="#1C1C1E"/>
</g>
<defs>
<clipPath id="clip0_10_1235">
<rect width="24" height="24" fill="white"/>
</clipPath>
</defs>
</svg>
