<svg width="24" height="24" viewBox="0 0 24 24" fill="none" xmlns="http://www.w3.org/2000/svg">
<g clip-path="url(#clip0_10_1253)">
<path d="M-1.35938 18.7031C-0.972656 18.7031 -0.638672 18.5889 -0.260742 18.3691L8.74805 13.0781C9.2666 12.7705 9.5918 12.4102 9.69727 11.9795V17.0508C9.69727 18.1143 10.3477 18.7031 11.1211 18.7031C11.5078 18.7031 11.8418 18.5889 12.2197 18.3691L21.2285 13.0781C21.7559 12.7705 22.0723 12.4102 22.1865 11.9795V17.7012C22.1865 18.5361 22.6084 18.9668 23.4521 18.9668H25.5176C26.3525 18.9668 26.7832 18.5361 26.7832 17.7012V5.60742C26.7832 4.75488 26.3525 4.3418 25.5176 4.3418H23.4521C22.6172 4.3418 22.1865 4.77246 22.1865 5.60742V11.2676C22.0723 10.8369 21.7559 10.4941 21.2285 10.1777L12.2197 4.88672C11.8418 4.66699 11.5078 4.55273 11.1211 4.55273C10.3477 4.55273 9.69727 5.13281 9.69727 6.20508V11.2676C9.5918 10.8369 9.27539 10.4941 8.74805 10.1777L-0.260742 4.88672C-0.647461 4.66699 -0.972656 4.55273 -1.36816 4.55273C-2.1416 4.55273 -2.7832 5.13281 -2.7832 6.20508V17.0508C-2.7832 18.1143 -2.13281 18.7031 -1.35938 18.7031Z" fill="#1C1C1E"/>
</g>
<defs>
<clipPath id="clip0_10_1253">
<rect width="24" height="24" fill="white"/>
</clipPath>
</defs>
</svg>
