<svg width="24" height="24" viewBox="0 0 24 24" fill="none" xmlns="http://www.w3.org/2000/svg">
<g clip-path="url(#clip0_10_1218)">
<path d="M4.88086 18.7295C5.26758 18.7295 5.60156 18.6152 5.97949 18.3955L14.9883 13.1045C15.5068 12.7969 15.832 12.4365 15.9375 12.0059V17.7012C15.9375 18.5361 16.3682 18.9668 17.2031 18.9668H19.2686C20.1035 18.9668 20.5342 18.5361 20.5342 17.7012V5.60742C20.5342 4.75488 20.1035 4.3418 19.2686 4.3418H17.2031C16.3682 4.3418 15.9375 4.77246 15.9375 5.60742V11.2939C15.832 10.8633 15.5156 10.5205 14.9883 10.2041L5.97949 4.91309C5.59277 4.69336 5.26758 4.5791 4.87207 4.5791C4.09863 4.5791 3.45703 5.15918 3.45703 6.23145V17.0771C3.45703 18.1494 4.10742 18.7295 4.88086 18.7295Z" fill="#1C1C1E"/>
</g>
<defs>
<clipPath id="clip0_10_1218">
<rect width="24" height="24" fill="white"/>
</clipPath>
</defs>
</svg>
