<svg width="24" height="24" viewBox="0 0 24 24" fill="none" xmlns="http://www.w3.org/2000/svg">
<g clip-path="url(#clip0_10_1228)">
<path d="M1.91895 18.7207C2.30566 18.7207 2.63965 18.6064 3.01758 18.3779L12.0264 13.0869C12.5449 12.7793 12.8701 12.4189 12.9844 11.9883V17.0596C12.9844 18.1318 13.6348 18.7207 14.4082 18.7207C14.7949 18.7207 15.1201 18.6064 15.5068 18.3779L24.5156 13.0869C25.1748 12.7002 25.5088 12.2256 25.5088 11.6367C25.5088 11.0391 25.1836 10.5908 24.5156 10.1953L15.5068 4.9043C15.1201 4.67578 14.7861 4.56152 14.3994 4.56152C13.626 4.56152 12.9844 5.15039 12.9844 6.22266V11.2764C12.8701 10.8545 12.5537 10.5029 12.0264 10.1953L3.01758 4.9043C2.63965 4.67578 2.30566 4.56152 1.91895 4.56152C1.14551 4.56152 0.495117 5.15039 0.495117 6.22266V17.0596C0.495117 18.1318 1.14551 18.7207 1.91895 18.7207ZM2.4375 16.6816C2.33203 16.6816 2.23535 16.6113 2.23535 16.4619V6.82031C2.23535 6.6709 2.33203 6.5918 2.4375 6.5918C2.49023 6.5918 2.55176 6.61816 2.63086 6.66211L10.6992 11.4258C10.8135 11.4873 10.8662 11.5312 10.8662 11.6367C10.8662 11.7422 10.8047 11.7949 10.6992 11.8564L2.63086 16.6201C2.56055 16.6641 2.49023 16.6816 2.4375 16.6816ZM14.9268 16.6816C14.8125 16.6816 14.7246 16.6113 14.7246 16.4619V6.82031C14.7246 6.6709 14.8125 6.5918 14.9268 6.5918C14.9795 6.5918 15.041 6.61816 15.1113 6.66211L23.1885 11.4258C23.2939 11.4873 23.3467 11.5312 23.3467 11.6367C23.3467 11.7422 23.2939 11.7949 23.1885 11.8564L15.1113 16.6201C15.041 16.6641 14.9795 16.6816 14.9268 16.6816Z" fill="#1C1C1E"/>
</g>
<defs>
<clipPath id="clip0_10_1228">
<rect width="24" height="24" fill="white"/>
</clipPath>
</defs>
</svg>
