<svg width="24" height="24" viewBox="0 0 24 24" fill="none" xmlns="http://www.w3.org/2000/svg">
<g clip-path="url(#clip0_10_1234)">
<path d="M5.77734 19.0723C6.33105 19.0723 6.76172 18.6592 6.76172 18.1143V5.21191C6.76172 4.66699 6.33105 4.25391 5.77734 4.25391C5.22363 4.25391 4.79297 4.66699 4.79297 5.21191V18.1143C4.79297 18.6592 5.22363 19.0723 5.77734 19.0723ZM10.8311 18.7383C11.2178 18.7383 11.5518 18.624 11.9297 18.4043L20.9385 13.1133C21.5977 12.7266 21.9404 12.252 21.9404 11.6543C21.9404 11.0654 21.6064 10.6084 20.9385 10.2129L11.9297 4.92188C11.543 4.70215 11.2178 4.58789 10.8223 4.58789C10.0488 4.58789 9.40723 5.16797 9.40723 6.24023V17.0859C9.40723 18.1582 10.0576 18.7383 10.8311 18.7383ZM11.3496 16.708C11.2354 16.708 11.1475 16.6377 11.1475 16.4795V6.84668C11.1475 6.68848 11.2354 6.61816 11.3496 6.61816C11.4023 6.61816 11.4639 6.63574 11.543 6.67969L19.6113 11.4521C19.7168 11.5049 19.7695 11.5576 19.7695 11.6631C19.7695 11.7598 19.7168 11.8213 19.6113 11.874L11.543 16.6465C11.4639 16.6904 11.4023 16.708 11.3496 16.708Z" fill="#1C1C1E"/>
</g>
<defs>
<clipPath id="clip0_10_1234">
<rect width="24" height="24" fill="white"/>
</clipPath>
</defs>
</svg>
