<svg width="24" height="24" viewBox="0 0 24 24" fill="none" xmlns="http://www.w3.org/2000/svg">
<g clip-path="url(#clip0_10_1226)">
<path d="M1.91895 18.7207C2.30566 18.7207 2.63965 18.6064 3.01758 18.3779L12.0264 13.0869C12.5449 12.7793 12.8701 12.4189 12.9844 11.9883V17.0596C12.9844 18.1318 13.6348 18.7207 14.4082 18.7207C14.7949 18.7207 15.1201 18.6064 15.5068 18.3779L24.5156 13.0869C25.1748 12.7002 25.5088 12.2256 25.5088 11.6367C25.5088 11.0391 25.1836 10.5908 24.5156 10.1953L15.5068 4.9043C15.1201 4.67578 14.7861 4.56152 14.3994 4.56152C13.626 4.56152 12.9844 5.15039 12.9844 6.22266V11.2764C12.8701 10.8545 12.5537 10.5029 12.0264 10.1953L3.01758 4.9043C2.63965 4.67578 2.30566 4.56152 1.91895 4.56152C1.14551 4.56152 0.495117 5.15039 0.495117 6.22266V17.0596C0.495117 18.1318 1.14551 18.7207 1.91895 18.7207Z" fill="#1C1C1E"/>
</g>
<defs>
<clipPath id="clip0_10_1226">
<rect width="24" height="24" fill="white"/>
</clipPath>
</defs>
</svg>
