<svg width="24" height="24" viewBox="0 0 24 24" fill="none" xmlns="http://www.w3.org/2000/svg">
<g clip-path="url(#clip0_10_1229)">
<path d="M6.75293 18.9668C7.59668 18.9668 8.01855 18.5361 8.01855 17.7012V5.60742C8.01855 4.77246 7.58789 4.3418 6.75293 4.3418H4.69629C3.85254 4.3418 3.43066 4.75488 3.43066 5.60742V17.7012C3.43066 18.5361 3.85254 18.9668 4.69629 18.9668H6.75293ZM12.0703 18.7295C12.457 18.7295 12.791 18.6152 13.1689 18.3955L22.1777 13.1045C22.8369 12.7178 23.1797 12.2432 23.1797 11.6455C23.1797 11.0566 22.8457 10.5996 22.1777 10.2041L13.1689 4.91309C12.791 4.69336 12.457 4.5791 12.0703 4.5791C11.2969 4.5791 10.6465 5.15918 10.6465 6.23145V17.0771C10.6465 18.1494 11.2969 18.7295 12.0703 18.7295Z" fill="#1C1C1E"/>
</g>
<defs>
<clipPath id="clip0_10_1229">
<rect width="24" height="24" fill="white"/>
</clipPath>
</defs>
</svg>
