<svg width="24" height="24" viewBox="0 0 24 24" fill="none" xmlns="http://www.w3.org/2000/svg">
<g clip-path="url(#clip0_10_1244)">
<path d="M-0.0498047 18.7383C0.336914 18.7383 0.670898 18.624 1.04883 18.4043L10.0576 13.1133C10.5762 12.8057 10.9014 12.4453 11.0068 12.0146V17.0859C11.0068 18.1582 11.6572 18.7383 12.4307 18.7383C12.8174 18.7383 13.1514 18.624 13.5293 18.4043L22.5381 13.1133C23.0654 12.8057 23.3818 12.4453 23.4961 12.0146V18.1143C23.4961 18.6592 23.9268 19.0723 24.4805 19.0723C25.0342 19.0723 25.4648 18.6592 25.4648 18.1143V5.21191C25.4648 4.66699 25.0342 4.25391 24.4805 4.25391C23.9268 4.25391 23.4961 4.66699 23.4961 5.21191V11.3027C23.3818 10.8721 23.0654 10.5293 22.5381 10.2129L13.5293 4.92188C13.1514 4.70215 12.8174 4.58789 12.4307 4.58789C11.6572 4.58789 11.0068 5.16797 11.0068 6.24023V11.3027C10.9014 10.8721 10.585 10.5293 10.0576 10.2129L1.04883 4.92188C0.662109 4.70215 0.336914 4.58789 -0.0585938 4.58789C-0.832031 4.58789 -1.47363 5.16797 -1.47363 6.24023V17.0859C-1.47363 18.1582 -0.823242 18.7383 -0.0498047 18.7383ZM0.46875 16.708C0.354492 16.708 0.266602 16.6377 0.266602 16.4795V6.84668C0.266602 6.68848 0.354492 6.61816 0.46875 6.61816C0.521484 6.61816 0.583008 6.63574 0.662109 6.67969L8.73047 11.4521C8.83594 11.5049 8.88867 11.5576 8.88867 11.6631C8.88867 11.7598 8.83594 11.8213 8.73047 11.874L0.662109 16.6465C0.583008 16.6904 0.521484 16.708 0.46875 16.708ZM12.9492 16.708C12.8438 16.708 12.7471 16.6377 12.7471 16.4795V6.84668C12.7471 6.68848 12.8438 6.61816 12.958 6.61816C13.0107 6.61816 13.0635 6.63574 13.1426 6.67969L21.2197 11.4521C21.3252 11.5049 21.3779 11.5576 21.3779 11.6631C21.3779 11.7598 21.3164 11.8213 21.2197 11.874L13.1426 16.6465C13.0723 16.6904 13.0107 16.708 12.9492 16.708Z" fill="#1C1C1E"/>
</g>
<defs>
<clipPath id="clip0_10_1244">
<rect width="24" height="24" fill="white"/>
</clipPath>
</defs>
</svg>
