<svg width="24" height="24" viewBox="0 0 24 24" fill="none" xmlns="http://www.w3.org/2000/svg">
<g clip-path="url(#clip0_10_1220)">
<path d="M6.19043 18.7383C6.57715 18.7383 6.91113 18.624 7.28906 18.4043L16.2979 13.1133C16.8164 12.8057 17.1416 12.4453 17.2471 12.0146V18.1143C17.2471 18.6592 17.6777 19.0723 18.2314 19.0723C18.7939 19.0723 19.2246 18.6592 19.2246 18.1143V5.21191C19.2246 4.66699 18.7939 4.25391 18.2314 4.25391C17.6777 4.25391 17.2471 4.66699 17.2471 5.21191V11.3027C17.1416 10.8721 16.8252 10.5293 16.2979 10.2129L7.28906 4.92188C6.90234 4.70215 6.57715 4.58789 6.18164 4.58789C5.4082 4.58789 4.7666 5.16797 4.7666 6.24023V17.0859C4.7666 18.1582 5.41699 18.7383 6.19043 18.7383ZM6.70898 16.708C6.59473 16.708 6.50684 16.6377 6.50684 16.4795V6.84668C6.50684 6.68848 6.59473 6.61816 6.70898 6.61816C6.76172 6.61816 6.82324 6.63574 6.90234 6.67969L14.9707 11.4521C15.0762 11.5049 15.1289 11.5576 15.1289 11.6631C15.1289 11.7598 15.0762 11.8213 14.9707 11.874L6.90234 16.6465C6.82324 16.6904 6.76172 16.708 6.70898 16.708Z" fill="#1C1C1E"/>
</g>
<defs>
<clipPath id="clip0_10_1220">
<rect width="24" height="24" fill="white"/>
</clipPath>
</defs>
</svg>
