<svg width="24" height="24" viewBox="0 0 24 24" fill="none" xmlns="http://www.w3.org/2000/svg">
<g clip-path="url(#clip0_10_1194)">
<path d="M11.9912 20.751C16.9746 20.751 21.0879 16.6377 21.0879 11.6543C21.0879 7.29492 17.9326 3.60352 13.8105 2.75098V1.45898C13.8105 0.791016 13.3096 0.597656 12.7646 0.993164L9.79395 3.09375C9.3457 3.41895 9.3457 3.91113 9.79395 4.22754L12.7559 6.33691C13.3008 6.73242 13.8105 6.55664 13.8105 5.87109V4.60547C16.957 5.40527 19.2598 8.24414 19.2598 11.6543C19.2598 15.6885 16.0254 18.9316 11.9912 18.9316C7.95703 18.9316 4.71387 15.6885 4.72266 11.6543C4.73145 9.30762 5.83008 7.25977 7.55273 5.93262C7.96582 5.57227 8.09766 5.05371 7.78125 4.62305C7.49121 4.20996 6.91992 4.13965 6.44531 4.52637C4.30957 6.12598 2.90332 8.81543 2.90332 11.6543C2.90332 16.6377 7.0166 20.751 11.9912 20.751ZM14.918 15.4072C16.3506 15.4072 17.3525 14.0361 17.3525 11.8828C17.3525 9.70312 16.3506 8.33203 14.918 8.33203C13.4766 8.33203 12.501 9.65918 12.501 11.8828C12.501 14.0977 13.4854 15.4072 14.918 15.4072ZM9.02051 15.4072C10.6553 15.4072 11.5693 14.0801 11.5693 11.6895C11.5693 10.5205 11.3145 9.62402 10.8135 9.07031C10.418 8.60449 9.83789 8.34082 9.12598 8.34082C7.71094 8.34082 6.79688 9.28125 6.79688 10.749C6.79688 12.0322 7.63184 12.9375 8.80957 12.9375C9.53027 12.9375 10.1104 12.5947 10.3828 12.0059C10.3828 12.0146 10.3828 12.0322 10.3828 12.0498C10.3828 13.3506 9.86426 14.2734 9.00293 14.2734C8.59863 14.2734 8.28223 14.0801 8.08008 13.7549C7.93945 13.5352 7.79004 13.4385 7.54395 13.4385C7.23633 13.4385 6.98145 13.6846 6.98145 13.9922C6.98145 14.124 6.99902 14.2119 7.07812 14.3525C7.25391 14.7305 7.87793 15.4072 9.02051 15.4072ZM9.16113 11.9004C8.50195 11.9004 8.04492 11.4082 8.04492 10.6787C8.04492 9.91406 8.49316 9.43066 9.16992 9.43066C9.82031 9.43066 10.2861 9.94922 10.2861 10.6963C10.2861 11.4082 9.82031 11.9004 9.16113 11.9004ZM14.9268 14.2119C14.2324 14.2119 13.793 13.3506 13.793 11.8828C13.793 10.3887 14.2236 9.52734 14.9268 9.52734C15.6299 9.52734 16.0518 10.3799 16.0518 11.8828C16.0518 13.3506 15.6211 14.2119 14.9268 14.2119Z" fill="#1C1C1E"/>
</g>
<defs>
<clipPath id="clip0_10_1194">
<rect width="24" height="24" fill="white"/>
</clipPath>
</defs>
</svg>
