<svg width="24" height="24" viewBox="0 0 24 24" fill="none" xmlns="http://www.w3.org/2000/svg">
<g clip-path="url(#clip0_10_1207)">
<path d="M11.9912 20.751C16.9746 20.751 21.0879 16.6377 21.0879 11.6543C21.0879 7.29492 17.9326 3.60352 13.8105 2.75098V1.45898C13.8105 0.791016 13.3096 0.597656 12.7646 0.993164L9.79395 3.09375C9.3457 3.41895 9.3457 3.91113 9.79395 4.22754L12.7559 6.33691C13.3008 6.73242 13.8105 6.55664 13.8105 5.87109V4.60547C16.957 5.40527 19.2598 8.24414 19.2598 11.6543C19.2598 15.6885 16.0254 18.9316 11.9912 18.9316C7.95703 18.9316 4.71387 15.6885 4.72266 11.6543C4.73145 9.30762 5.83008 7.25977 7.55273 5.93262C7.96582 5.57227 8.09766 5.05371 7.78125 4.62305C7.49121 4.20996 6.91992 4.13965 6.44531 4.52637C4.30957 6.12598 2.90332 8.81543 2.90332 11.6543C2.90332 16.6377 7.0166 20.751 11.9912 20.751ZM14.1182 15.4072C15.5508 15.4072 16.5439 14.0361 16.5439 11.8828C16.5439 9.70312 15.5508 8.33203 14.1182 8.33203C12.6768 8.33203 11.7012 9.65918 11.7012 11.8828C11.7012 14.0889 12.6768 15.4072 14.1182 15.4072ZM9.58301 15.3281C9.97852 15.3281 10.2334 15.0645 10.2334 14.6426V9.21094C10.2334 8.69238 9.94336 8.39355 9.48633 8.39355C9.20508 8.39355 9.00293 8.48145 8.66016 8.73633L7.51758 9.54492C7.28906 9.72949 7.18359 9.90527 7.18359 10.1514C7.18359 10.4678 7.42969 10.7314 7.74609 10.7314C7.93066 10.7314 8.04492 10.6875 8.2207 10.5293L8.95898 9.94043V14.6426C8.95898 15.0557 9.20508 15.3281 9.58301 15.3281ZM14.127 14.2119C13.4238 14.2119 12.9932 13.3506 12.9932 11.8828C12.9932 10.3887 13.415 9.52734 14.127 9.52734C14.8301 9.52734 15.2432 10.3799 15.2432 11.8828C15.2432 13.3506 14.8213 14.2119 14.127 14.2119Z" fill="#1C1C1E"/>
</g>
<defs>
<clipPath id="clip0_10_1207">
<rect width="24" height="24" fill="white"/>
</clipPath>
</defs>
</svg>
