<svg width="24" height="24" viewBox="0 0 24 24" fill="none" xmlns="http://www.w3.org/2000/svg">
<g clip-path="url(#clip0_10_1209)">
<path d="M11.9912 20.751C16.9746 20.751 21.0879 16.6377 21.0879 11.6543C21.0879 7.29492 17.9326 3.60352 13.8105 2.75098V1.45898C13.8105 0.791016 13.3096 0.597656 12.7646 0.993164L9.79395 3.09375C9.3457 3.41895 9.3457 3.91113 9.79395 4.22754L12.7559 6.33691C13.3008 6.73242 13.8105 6.55664 13.8105 5.87109V4.60547C16.957 5.40527 19.2598 8.24414 19.2598 11.6543C19.2598 15.6885 16.0254 18.9316 11.9912 18.9316C7.95703 18.9316 4.71387 15.6885 4.72266 11.6543C4.73145 9.30762 5.83008 7.25977 7.55273 5.93262C7.96582 5.57227 8.09766 5.05371 7.78125 4.62305C7.49121 4.20996 6.91992 4.13965 6.44531 4.52637C4.30957 6.12598 2.90332 8.81543 2.90332 11.6543C2.90332 16.6377 7.0166 20.751 11.9912 20.751Z" fill="#1C1C1E"/>
</g>
<defs>
<clipPath id="clip0_10_1209">
<rect width="24" height="24" fill="white"/>
</clipPath>
</defs>
</svg>
