<svg width="24" height="24" viewBox="0 0 24 24" fill="none" xmlns="http://www.w3.org/2000/svg">
<g clip-path="url(#clip0_10_1199)">
<path d="M11.9912 20.751C16.9746 20.751 21.0879 16.6377 21.0879 11.6543C21.0879 8.81543 19.6729 6.12598 17.5459 4.52637C17.0713 4.13965 16.4912 4.20996 16.2012 4.62305C15.8848 5.05371 16.0254 5.57227 16.4297 5.93262C18.1611 7.25977 19.2598 9.30762 19.2686 11.6543C19.2773 15.6885 16.0254 18.9316 11.9912 18.9316C7.95703 18.9316 4.73145 15.6885 4.73145 11.6543C4.73145 8.24414 7.03418 5.40527 10.1807 4.60547V5.87988C10.1807 6.55664 10.6816 6.74121 11.2266 6.3457L14.1973 4.24512C14.6367 3.91992 14.6455 3.42773 14.1973 3.11133L11.2354 1.00195C10.6816 0.606445 10.1807 0.782227 10.1807 1.46777V2.75098C6.0498 3.60352 2.90332 7.29492 2.90332 11.6543C2.90332 16.6377 7.0166 20.751 11.9912 20.751ZM14.918 15.4072C16.3594 15.4072 17.3525 14.0361 17.3525 11.8828C17.3525 9.70312 16.3594 8.33203 14.918 8.33203C13.4766 8.33203 12.501 9.65918 12.501 11.8828C12.501 14.0977 13.4854 15.4072 14.918 15.4072ZM9.24023 15.4072C10.6641 15.4072 11.5869 14.4492 11.5869 12.9814C11.5869 11.6982 10.6904 10.8193 9.54785 10.8193C8.79199 10.8193 8.21191 11.1885 7.94824 11.7334C7.94824 11.7246 7.94824 11.707 7.94824 11.6895C7.94824 10.3447 8.51074 9.47461 9.3457 9.47461C9.77637 9.47461 10.0488 9.65039 10.251 9.94922C10.4004 10.1689 10.5586 10.2656 10.8223 10.2656C11.1123 10.2656 11.3232 10.0459 11.3232 9.72949C11.3232 9.58887 11.2969 9.46582 11.2529 9.35156C11.0068 8.78027 10.3389 8.34082 9.40723 8.34082C7.74609 8.34082 6.75293 9.65039 6.75293 12.0146C6.75293 12.9199 6.89355 13.6846 7.19238 14.2471C7.60547 15.0117 8.33496 15.4072 9.24023 15.4072ZM14.9268 14.2119C14.2324 14.2119 13.8018 13.3506 13.8018 11.8828C13.8018 10.3887 14.2236 9.52734 14.9268 9.52734C15.6387 9.52734 16.0518 10.3799 16.0518 11.8828C16.0518 13.3506 15.6299 14.2119 14.9268 14.2119ZM9.17871 14.3086C8.52832 14.3086 8.05371 13.7988 8.05371 13.0605C8.05371 12.3398 8.51953 11.8477 9.1875 11.8477C9.85547 11.8477 10.3213 12.3398 10.3213 13.0605C10.3213 13.834 9.87305 14.3086 9.17871 14.3086Z" fill="#1C1C1E"/>
</g>
<defs>
<clipPath id="clip0_10_1199">
<rect width="24" height="24" fill="white"/>
</clipPath>
</defs>
</svg>
