<svg width="24" height="24" viewBox="0 0 24 24" fill="none" xmlns="http://www.w3.org/2000/svg">
<g clip-path="url(#clip0_10_1208)">
<path d="M11.9912 20.751C16.9746 20.751 21.0879 16.6377 21.0879 11.6543C21.0879 8.81543 19.6729 6.12598 17.5459 4.52637C17.0713 4.13965 16.4912 4.20996 16.2012 4.62305C15.8848 5.05371 16.0254 5.57227 16.4297 5.93262C18.1611 7.25977 19.2598 9.30762 19.2686 11.6543C19.2773 15.6885 16.0254 18.9316 11.9912 18.9316C7.95703 18.9316 4.73145 15.6885 4.73145 11.6543C4.73145 8.24414 7.03418 5.40527 10.1807 4.60547V5.87988C10.1807 6.55664 10.6816 6.74121 11.2266 6.3457L14.1973 4.24512C14.6367 3.91992 14.6455 3.42773 14.1973 3.11133L11.2354 1.00195C10.6816 0.606445 10.1807 0.782227 10.1807 1.46777V2.75098C6.0498 3.60352 2.90332 7.29492 2.90332 11.6543C2.90332 16.6377 7.0166 20.751 11.9912 20.751ZM14.1182 15.4072C15.5508 15.4072 16.5439 14.0361 16.5439 11.8828C16.5439 9.70312 15.5508 8.33203 14.1182 8.33203C12.6855 8.33203 11.7012 9.65918 11.7012 11.8828C11.7012 14.0889 12.6855 15.4072 14.1182 15.4072ZM9.60938 15.3281C10.0049 15.3281 10.2598 15.0645 10.2598 14.6426V9.21094C10.2598 8.69238 9.96973 8.39355 9.50391 8.39355C9.23145 8.39355 9.0293 8.48145 8.67773 8.73633L7.54395 9.54492C7.31543 9.72949 7.20996 9.90527 7.20996 10.1514C7.20996 10.4678 7.45605 10.7314 7.76367 10.7314C7.95703 10.7314 8.0625 10.6875 8.24707 10.5293L8.98535 9.94043V14.6426C8.98535 15.0557 9.23145 15.3281 9.60938 15.3281ZM14.127 14.2119C13.4238 14.2119 12.9932 13.3506 12.9932 11.8828C12.9932 10.3887 13.4238 9.52734 14.127 9.52734C14.8301 9.52734 15.252 10.3799 15.252 11.8828C15.252 13.3506 14.8213 14.2119 14.127 14.2119Z" fill="#1C1C1E"/>
</g>
<defs>
<clipPath id="clip0_10_1208">
<rect width="24" height="24" fill="white"/>
</clipPath>
</defs>
</svg>
