<svg width="24" height="24" viewBox="0 0 24 24" fill="none" xmlns="http://www.w3.org/2000/svg">
<g clip-path="url(#clip0_10_1195)">
<path d="M11.9912 20.751C16.9746 20.751 21.0879 16.6377 21.0879 11.6543C21.0879 8.81543 19.6729 6.12598 17.5459 4.52637C17.0713 4.13965 16.4912 4.20996 16.2012 4.62305C15.8848 5.05371 16.0254 5.57227 16.4297 5.93262C18.1611 7.25977 19.2598 9.30762 19.2686 11.6543C19.2773 15.6885 16.0254 18.9316 11.9912 18.9316C7.95703 18.9316 4.73145 15.6885 4.73145 11.6543C4.73145 8.24414 7.03418 5.40527 10.1807 4.60547V5.87988C10.1807 6.55664 10.6816 6.74121 11.2266 6.3457L14.1973 4.24512C14.6367 3.91992 14.6455 3.42773 14.1973 3.11133L11.2354 1.00195C10.6816 0.606445 10.1807 0.782227 10.1807 1.46777V2.75098C6.0498 3.60352 2.90332 7.29492 2.90332 11.6543C2.90332 16.6377 7.0166 20.751 11.9912 20.751ZM14.9355 15.4072C16.377 15.4072 17.3701 14.0361 17.3701 11.8828C17.3701 9.70312 16.377 8.33203 14.9355 8.33203C13.4941 8.33203 12.5186 9.65918 12.5186 11.8828C12.5186 14.0977 13.5029 15.4072 14.9355 15.4072ZM9.03809 15.4072C10.6816 15.4072 11.5869 14.0801 11.5869 11.6895C11.5869 10.5205 11.332 9.62402 10.8311 9.07031C10.4355 8.60449 9.86426 8.34082 9.14355 8.34082C7.72852 8.34082 6.82324 9.28125 6.82324 10.749C6.82324 12.0322 7.64941 12.9375 8.83594 12.9375C9.54785 12.9375 10.1367 12.5947 10.4004 12.0059C10.4004 12.0146 10.4004 12.0322 10.4004 12.0498C10.4004 13.3506 9.88184 14.2734 9.02051 14.2734C8.625 14.2734 8.2998 14.0801 8.10645 13.7549C7.95703 13.5352 7.80762 13.4385 7.56152 13.4385C7.2627 13.4385 7.00781 13.6846 7.00781 13.9922C7.00781 14.124 7.02539 14.2119 7.0957 14.3525C7.28027 14.7305 7.89551 15.4072 9.03809 15.4072ZM9.1875 11.9004C8.51953 11.9004 8.0625 11.4082 8.0625 10.6787C8.0625 9.91406 8.51074 9.43066 9.1875 9.43066C9.84668 9.43066 10.3037 9.94922 10.3037 10.6963C10.3037 11.4082 9.83789 11.9004 9.1875 11.9004ZM14.9443 14.2119C14.25 14.2119 13.8193 13.3506 13.8193 11.8828C13.8193 10.3887 14.2412 9.52734 14.9443 9.52734C15.6562 9.52734 16.0693 10.3799 16.0693 11.8828C16.0693 13.3506 15.6475 14.2119 14.9443 14.2119Z" fill="#1C1C1E"/>
</g>
<defs>
<clipPath id="clip0_10_1195">
<rect width="24" height="24" fill="white"/>
</clipPath>
</defs>
</svg>
