<svg width="24" height="24" viewBox="0 0 24 24" fill="none" xmlns="http://www.w3.org/2000/svg">
<g clip-path="url(#clip0_10_1193)">
<path d="M11.9912 20.751C16.9746 20.751 21.0879 16.6377 21.0879 11.6543C21.0879 8.81543 19.6729 6.12598 17.5459 4.52637C17.0713 4.13965 16.4912 4.20996 16.2012 4.62305C15.8848 5.05371 16.0254 5.57227 16.4297 5.93262C18.1611 7.25977 19.2598 9.30762 19.2686 11.6543C19.2773 15.6885 16.0254 18.9316 11.9912 18.9316C7.95703 18.9316 4.73145 15.6885 4.73145 11.6543C4.73145 8.24414 7.03418 5.40527 10.1807 4.60547V5.87988C10.1807 6.55664 10.6816 6.74121 11.2266 6.3457L14.1973 4.24512C14.6367 3.91992 14.6455 3.42773 14.1973 3.11133L11.2354 1.00195C10.6816 0.606445 10.1807 0.782227 10.1807 1.46777V2.75098C6.0498 3.60352 2.90332 7.29492 2.90332 11.6543C2.90332 16.6377 7.0166 20.751 11.9912 20.751ZM8.79199 12.4717H11.1738V14.8535C11.1738 15.3369 11.5078 15.6709 11.9824 15.6709C12.4658 15.6709 12.8086 15.3369 12.8086 14.8535V12.4717H15.1992C15.6738 12.4717 16.0078 12.1377 16.0078 11.6631C16.0078 11.1797 15.6738 10.8369 15.1992 10.8369H12.8086V8.45508C12.8086 7.97168 12.4658 7.62891 11.9824 7.62891C11.5078 7.62891 11.1738 7.97168 11.1738 8.45508V10.8369H8.79199C8.30859 10.8369 7.96582 11.1797 7.96582 11.6631C7.96582 12.1377 8.30859 12.4717 8.79199 12.4717Z" fill="#1C1C1E"/>
</g>
<defs>
<clipPath id="clip0_10_1193">
<rect width="24" height="24" fill="white"/>
</clipPath>
</defs>
</svg>
