<svg width="24" height="24" viewBox="0 0 24 24" fill="none" xmlns="http://www.w3.org/2000/svg">
<g clip-path="url(#clip0_10_1197)">
<path d="M11.9912 20.751C16.9746 20.751 21.0879 16.6377 21.0879 11.6543C21.0879 8.81543 19.6729 6.12598 17.5459 4.52637C17.0713 4.13965 16.4912 4.20996 16.2012 4.62305C15.8848 5.05371 16.0254 5.57227 16.4297 5.93262C18.1611 7.25977 19.2598 9.30762 19.2686 11.6543C19.2773 15.6885 16.0254 18.9316 11.9912 18.9316C7.95703 18.9316 4.73145 15.6885 4.73145 11.6543C4.73145 8.24414 7.03418 5.40527 10.1807 4.60547V5.87988C10.1807 6.55664 10.6816 6.74121 11.2266 6.3457L14.1973 4.24512C14.6367 3.91992 14.6455 3.42773 14.1973 3.11133L11.2354 1.00195C10.6816 0.606445 10.1807 0.782227 10.1807 1.46777V2.75098C6.0498 3.60352 2.90332 7.29492 2.90332 11.6543C2.90332 16.6377 7.0166 20.751 11.9912 20.751ZM14.3994 15.4248C15.8848 15.4248 16.8516 14.4756 16.8516 13.0166C16.8516 11.707 15.9727 10.8105 14.7686 10.8105C14.2324 10.8105 13.6699 11.0654 13.4238 11.4785L13.5645 9.63281H16.0869C16.4033 9.63281 16.6406 9.38672 16.6406 9.05273C16.6406 8.71875 16.4033 8.49902 16.0869 8.49902H13.292C12.8086 8.49902 12.5361 8.78906 12.501 9.29883L12.3252 11.8037C12.2812 12.2783 12.5361 12.5156 12.958 12.5156C13.2832 12.5156 13.4062 12.4541 13.6436 12.2695C13.9512 11.9971 14.2061 11.874 14.5488 11.874C15.1992 11.874 15.6123 12.3486 15.6123 13.043C15.6123 13.7637 15.1201 14.291 14.4521 14.291C13.9424 14.291 13.5469 14.0098 13.3184 13.5879C13.1865 13.377 13.0283 13.2539 12.7822 13.2539C12.457 13.2539 12.2285 13.4824 12.2285 13.8164C12.2285 13.9482 12.2549 14.0713 12.3076 14.2031C12.5449 14.8096 13.3271 15.4248 14.3994 15.4248ZM8.34375 15.3721C8.625 15.3721 8.82715 15.2314 8.97656 14.8975L11.3057 10.0547C11.4375 9.78223 11.499 9.58008 11.499 9.31641C11.499 8.83301 11.165 8.50781 10.6729 8.50781H7.5C7.1748 8.50781 6.94629 8.74512 6.94629 9.0791C6.94629 9.43066 7.19238 9.65039 7.5 9.65039H10.1016V9.65918L7.80762 14.291C7.72852 14.4492 7.68457 14.5635 7.68457 14.7305C7.68457 15.0996 7.96582 15.3721 8.34375 15.3721Z" fill="#1C1C1E"/>
</g>
<defs>
<clipPath id="clip0_10_1197">
<rect width="24" height="24" fill="white"/>
</clipPath>
</defs>
</svg>
