<svg width="24" height="24" viewBox="0 0 24 24" fill="none" xmlns="http://www.w3.org/2000/svg">
<g clip-path="url(#clip0_10_1206)">
<path d="M11.9912 20.751C16.9746 20.751 21.0879 16.6377 21.0879 11.6543C21.0879 8.81543 19.6729 6.12598 17.5459 4.52637C17.0713 4.13965 16.4912 4.20996 16.2012 4.62305C15.8848 5.05371 16.0254 5.57227 16.4297 5.93262C18.1611 7.25977 19.2598 9.30762 19.2686 11.6543C19.2773 15.6885 16.0254 18.9316 11.9912 18.9316C7.95703 18.9316 4.73145 15.6885 4.73145 11.6543C4.73145 8.24414 7.03418 5.40527 10.1807 4.60547V5.87988C10.1807 6.55664 10.6816 6.74121 11.2266 6.3457L14.1973 4.24512C14.6367 3.91992 14.6455 3.42773 14.1973 3.11133L11.2354 1.00195C10.6816 0.606445 10.1807 0.782227 10.1807 1.46777V2.75098C6.0498 3.60352 2.90332 7.29492 2.90332 11.6543C2.90332 16.6377 7.0166 20.751 11.9912 20.751ZM9.47754 15.3369C9.87305 15.3369 10.1191 15.0732 10.1191 14.6514V9.20215C10.1191 8.6748 9.83789 8.40234 9.37207 8.40234C9.09082 8.40234 8.87988 8.49023 8.53711 8.74512L7.40332 9.55371C7.16602 9.74707 7.06055 9.92285 7.06055 10.1602C7.06055 10.4766 7.31543 10.7402 7.62305 10.7402C7.8252 10.7402 7.93945 10.6875 8.10645 10.5293L8.84473 9.93164V14.6514C8.84473 15.0645 9.09082 15.3369 9.47754 15.3369ZM13.8896 15.4248C15.3662 15.4248 16.333 14.4756 16.333 13.0166C16.333 11.707 15.4541 10.8105 14.25 10.8105C13.7139 10.8105 13.1514 11.0654 12.9053 11.4785L13.0459 9.63281H15.5684C15.8848 9.63281 16.1221 9.38672 16.1221 9.05273C16.1221 8.71875 15.8848 8.49902 15.5684 8.49902H12.7734C12.29 8.49902 12.0176 8.78906 11.9824 9.29883L11.8066 11.8037C11.7627 12.2783 12.0264 12.5156 12.4395 12.5156C12.7646 12.5156 12.8877 12.4541 13.125 12.2695C13.4326 11.9971 13.6875 11.874 14.0303 11.874C14.6807 11.874 15.1025 12.3486 15.1025 13.043C15.1025 13.7637 14.6016 14.291 13.9336 14.291C13.4326 14.291 13.0283 14.0098 12.7998 13.5879C12.668 13.377 12.5098 13.2539 12.2637 13.2539C11.9385 13.2539 11.71 13.4824 11.71 13.8164C11.71 13.9482 11.7363 14.0713 11.7891 14.2031C12.0264 14.8096 12.8086 15.4248 13.8896 15.4248Z" fill="#1C1C1E"/>
</g>
<defs>
<clipPath id="clip0_10_1206">
<rect width="24" height="24" fill="white"/>
</clipPath>
</defs>
</svg>
