<svg width="24" height="24" viewBox="0 0 24 24" fill="none" xmlns="http://www.w3.org/2000/svg">
<g clip-path="url(#clip0_10_1211)">
<path d="M11.9912 20.7422C16.9746 20.7422 21.0879 16.6289 21.0879 11.6543C21.0879 6.67969 16.9658 2.56641 11.9824 2.56641C7.00781 2.56641 2.90332 6.67969 2.90332 11.6543C2.90332 16.6289 7.0166 20.7422 11.9912 20.7422ZM5.77734 11.6543C5.77734 9.86133 6.92871 8.63965 8.61621 8.63965C9.49512 8.63965 10.251 9.02637 11.0596 9.7998L11.9912 10.6963L12.9229 9.7998C13.749 9.00879 14.4961 8.63965 15.3662 8.63965C17.0537 8.63965 18.2051 9.86133 18.2051 11.6543C18.2051 13.4385 17.0537 14.6602 15.3662 14.6602C14.4961 14.6602 13.749 14.2998 12.9229 13.5088L11.9912 12.6123L11.0596 13.5088C10.251 14.2822 9.49512 14.6602 8.61621 14.6602C6.92871 14.6602 5.77734 13.4385 5.77734 11.6543ZM7.16602 11.6543C7.16602 12.6387 7.72852 13.2539 8.61621 13.2539C9.09082 13.2539 9.53027 13.0166 10.0928 12.498L10.9893 11.6543L10.0928 10.8105C9.5127 10.2744 9.08203 10.0547 8.61621 10.0547C7.72852 10.0547 7.16602 10.6699 7.16602 11.6543ZM12.9932 11.6543L13.8896 12.498C14.4521 13.0166 14.8916 13.2539 15.3662 13.2539C16.2451 13.2539 16.8164 12.6387 16.8164 11.6543C16.8164 10.6699 16.2451 10.0547 15.3662 10.0547C14.9004 10.0547 14.4609 10.2744 13.8896 10.8105L12.9932 11.6543Z" fill="#1C1C1E"/>
</g>
<defs>
<clipPath id="clip0_10_1211">
<rect width="24" height="24" fill="white"/>
</clipPath>
</defs>
</svg>
