<svg width="24" height="24" viewBox="0 0 24 24" fill="none" xmlns="http://www.w3.org/2000/svg">
<g clip-path="url(#clip0_10_1213)">
<path d="M23.6982 11.6543C23.6982 8.38477 21.624 6.24902 18.5566 6.24902C16.9482 6.24902 15.5684 6.92578 14.0918 8.3584L11.9912 10.3799L9.89941 8.3584C8.42285 6.92578 7.04297 6.24902 5.43457 6.24902C2.36719 6.24902 0.292969 8.38477 0.292969 11.6543C0.292969 14.9238 2.36719 17.0596 5.43457 17.0596C7.04297 17.0596 8.42285 16.374 9.89941 14.9502L11.9912 12.9199L14.0918 14.9502C15.5684 16.374 16.9482 17.0596 18.5566 17.0596C21.624 17.0596 23.6982 14.9238 23.6982 11.6543ZM10.6816 11.6543L8.58105 13.623C7.47363 14.6689 6.50684 15.1875 5.43457 15.1875C3.49219 15.1875 2.16504 13.7988 2.16504 11.6543C2.16504 9.50098 3.49219 8.12109 5.43457 8.12109C6.50684 8.12109 7.47363 8.63965 8.58984 9.68555L10.6816 11.6543ZM13.3096 11.6543L15.4014 9.68555C16.5176 8.63965 17.4756 8.12109 18.5566 8.12109C20.499 8.12109 21.8262 9.50098 21.8262 11.6543C21.8262 13.7988 20.499 15.1875 18.5566 15.1875C17.4844 15.1875 16.5176 14.6689 15.4102 13.623L13.3096 11.6543Z" fill="#1C1C1E"/>
</g>
<defs>
<clipPath id="clip0_10_1213">
<rect width="24" height="24" fill="white"/>
</clipPath>
</defs>
</svg>
