<svg width="24" height="24" viewBox="0 0 24 24" fill="none" xmlns="http://www.w3.org/2000/svg">
<g clip-path="url(#clip0_10_1212)">
<path d="M11.9912 20.7422C16.9746 20.7422 21.0879 16.6289 21.0879 11.6543C21.0879 6.67969 16.9658 2.56641 11.9824 2.56641C7.00781 2.56641 2.90332 6.67969 2.90332 11.6543C2.90332 16.6289 7.0166 20.7422 11.9912 20.7422ZM11.9912 18.9316C7.95703 18.9316 4.73145 15.6885 4.73145 11.6543C4.73145 7.62012 7.95703 4.38574 11.9824 4.38574C16.0166 4.38574 19.2598 7.62012 19.2686 11.6543C19.2773 15.6885 16.0254 18.9316 11.9912 18.9316ZM17.9766 11.6543C17.9766 9.93164 16.8691 8.7627 15.252 8.7627C14.417 8.7627 13.6875 9.10547 12.8965 9.87891L12 10.7402L11.1035 9.87891C10.3213 9.12305 9.5918 8.7627 8.74805 8.7627C7.12207 8.7627 6.01465 9.93164 6.01465 11.6543C6.01465 13.377 7.12207 14.5459 8.74805 14.5459C9.5918 14.5459 10.3213 14.1768 11.1035 13.4297L12 12.5596L12.8965 13.4297C13.6875 14.1943 14.417 14.5459 15.252 14.5459C16.8691 14.5459 17.9766 13.377 17.9766 11.6543ZM11.042 11.6543L10.1807 12.4717C9.63574 12.9727 9.21387 13.2012 8.74805 13.2012C7.89551 13.2012 7.35059 12.6035 7.35059 11.6543C7.35059 10.7051 7.89551 10.1074 8.74805 10.1074C9.19629 10.1074 9.61816 10.3184 10.1807 10.8369L11.042 11.6543ZM12.9492 11.6543L13.8193 10.8369C14.373 10.3184 14.7949 10.1074 15.252 10.1074C16.0957 10.1074 16.6406 10.7051 16.6406 11.6543C16.6406 12.6035 16.0957 13.2012 15.252 13.2012C14.7861 13.2012 14.3643 12.9727 13.8193 12.4717L12.9492 11.6543Z" fill="#1C1C1E"/>
</g>
<defs>
<clipPath id="clip0_10_1212">
<rect width="24" height="24" fill="white"/>
</clipPath>
</defs>
</svg>
