<svg width="24" height="24" viewBox="0 0 24 24" fill="none" xmlns="http://www.w3.org/2000/svg">
<g clip-path="url(#clip0_10_1202)">
<path d="M11.9912 20.751C16.9746 20.751 21.0879 16.6377 21.0879 11.6543C21.0879 8.81543 19.6729 6.12598 17.5459 4.52637C17.0713 4.13965 16.4912 4.20996 16.2012 4.62305C15.8848 5.05371 16.0254 5.57227 16.4297 5.93262C18.1611 7.25977 19.2598 9.30762 19.2686 11.6543C19.2773 15.6885 16.0254 18.9316 11.9912 18.9316C7.95703 18.9316 4.73145 15.6885 4.73145 11.6543C4.73145 8.24414 7.03418 5.40527 10.1807 4.60547V5.87988C10.1807 6.55664 10.6816 6.74121 11.2266 6.3457L14.1973 4.24512C14.6367 3.91992 14.6455 3.42773 14.1973 3.11133L11.2354 1.00195C10.6816 0.606445 10.1807 0.782227 10.1807 1.46777V2.75098C6.0498 3.60352 2.90332 7.29492 2.90332 11.6543C2.90332 16.6377 7.0166 20.751 11.9912 20.751ZM10.1631 15.3896C10.5586 15.3896 10.7959 15.1172 10.7959 14.6514V14.0098H11.1475C11.4727 14.0098 11.6748 13.79 11.6748 13.4473C11.6748 13.1133 11.4639 12.8936 11.1475 12.8936H10.7783V9.3252C10.7783 8.70117 10.3916 8.40234 9.78516 8.40234C9.2666 8.40234 8.94141 8.5957 8.67773 9.08789C8.08008 10.1074 7.36816 11.3818 6.80566 12.4277C6.65625 12.7266 6.59473 12.9287 6.59473 13.2451C6.59473 13.7021 6.90234 14.0098 7.41211 14.0098H9.54785V14.6514C9.54785 15.1172 9.77637 15.3896 10.1631 15.3896ZM14.6016 15.4248C16.0781 15.4248 17.0537 14.4756 17.0537 13.0166C17.0537 11.707 16.166 10.8105 14.9619 10.8105C14.4258 10.8105 13.8721 11.0654 13.6172 11.4785L13.7666 9.63281H16.2891C16.5967 9.63281 16.8428 9.38672 16.8428 9.05273C16.8428 8.71875 16.5967 8.49902 16.2891 8.49902H13.4941C13.002 8.49902 12.7295 8.78906 12.6943 9.29883L12.5186 11.8037C12.4834 12.2783 12.7383 12.5156 13.1602 12.5156C13.4766 12.5156 13.5996 12.4541 13.8369 12.2695C14.1533 11.9971 14.3994 11.874 14.7422 11.874C15.3926 11.874 15.8145 12.3486 15.8145 13.043C15.8145 13.7637 15.3135 14.291 14.6455 14.291C14.1445 14.291 13.749 14.0098 13.5117 13.5879C13.3799 13.377 13.2217 13.2539 12.9844 13.2539C12.6592 13.2539 12.4307 13.4824 12.4307 13.8164C12.4307 13.9482 12.4482 14.0713 12.5098 14.2031C12.7471 14.8096 13.5205 15.4248 14.6016 15.4248ZM7.87793 12.8936V12.8672C8.44043 11.7598 8.98535 10.6611 9.54785 9.55371H9.58301V12.8936H7.87793Z" fill="#1C1C1E"/>
</g>
<defs>
<clipPath id="clip0_10_1202">
<rect width="24" height="24" fill="white"/>
</clipPath>
</defs>
</svg>
