<svg width="24" height="24" viewBox="0 0 24 24" fill="none" xmlns="http://www.w3.org/2000/svg">
<g clip-path="url(#clip0_10_1242)">
<path d="M11.9912 20.7422C16.9746 20.7422 21.0879 16.6289 21.0879 11.6543C21.0879 6.67969 16.9658 2.56641 11.9824 2.56641C7.00781 2.56641 2.90332 6.67969 2.90332 11.6543C2.90332 16.6289 7.0166 20.7422 11.9912 20.7422ZM11.9912 18.9316C7.95703 18.9316 4.73145 15.6885 4.73145 11.6543C4.73145 7.62012 7.95703 4.38574 11.9824 4.38574C16.0166 4.38574 19.2598 7.62012 19.2686 11.6543C19.2773 15.6885 16.0254 18.9316 11.9912 18.9316ZM9.47754 15.1172H10.4004C10.8486 15.1172 11.0684 14.8711 11.0684 14.4932V8.81543C11.0684 8.44629 10.8486 8.19141 10.4004 8.19141H9.47754C9.0293 8.19141 8.80957 8.44629 8.80957 8.81543V14.4932C8.80957 14.8711 9.0293 15.1172 9.47754 15.1172ZM13.5908 15.1172H14.5049C14.9443 15.1172 15.1641 14.8711 15.1641 14.4932V8.81543C15.1641 8.44629 14.9443 8.19141 14.5049 8.19141H13.5908C13.1426 8.19141 12.9141 8.44629 12.9141 8.81543V14.4932C12.9141 14.8711 13.1426 15.1172 13.5908 15.1172Z" fill="#1C1C1E"/>
</g>
<defs>
<clipPath id="clip0_10_1242">
<rect width="24" height="24" fill="white"/>
</clipPath>
</defs>
</svg>
