<svg width="24" height="24" viewBox="0 0 24 24" fill="none" xmlns="http://www.w3.org/2000/svg">
<g clip-path="url(#clip0_10_1236)">
<path d="M4.47656 19.8809H19.5146C21.4219 19.8809 22.415 18.8965 22.415 17.0156V6.31934C22.415 4.43848 21.4219 3.4541 19.5146 3.4541H4.47656C2.57812 3.4541 1.58496 4.42969 1.58496 6.31934V17.0156C1.58496 18.8965 2.57812 19.8809 4.47656 19.8809ZM4.59082 18.1318C3.78223 18.1318 3.33398 17.71 3.33398 16.8574V6.47754C3.33398 5.625 3.78223 5.20312 4.59082 5.20312H19.4004C20.209 5.20312 20.6572 5.625 20.6572 6.47754V16.8574C20.6572 17.71 20.209 18.1318 19.4004 18.1318H4.59082ZM9.49512 15.1084H10.418C10.8662 15.1084 11.0859 14.8623 11.0859 14.4932V8.80664C11.0859 8.4375 10.8662 8.19141 10.418 8.19141H9.49512C9.04688 8.19141 8.82715 8.4375 8.82715 8.80664V14.4932C8.82715 14.8623 9.04688 15.1084 9.49512 15.1084ZM13.6084 15.1084H14.5225C14.9619 15.1084 15.1816 14.8623 15.1816 14.4932V8.80664C15.1816 8.4375 14.9619 8.19141 14.5225 8.19141H13.6084C13.1602 8.19141 12.9316 8.4375 12.9316 8.80664V14.4932C12.9316 14.8623 13.1602 15.1084 13.6084 15.1084Z" fill="#1C1C1E"/>
</g>
<defs>
<clipPath id="clip0_10_1236">
<rect width="24" height="24" fill="white"/>
</clipPath>
</defs>
</svg>
