<svg width="24" height="24" viewBox="0 0 24 24" fill="none" xmlns="http://www.w3.org/2000/svg">
<g clip-path="url(#clip0_10_1239)">
<path d="M11.9912 20.7422C16.9746 20.7422 21.0879 16.6289 21.0879 11.6543C21.0879 6.67969 16.9658 2.56641 11.9824 2.56641C7.00781 2.56641 2.90332 6.67969 2.90332 11.6543C2.90332 16.6289 7.0166 20.7422 11.9912 20.7422ZM9.38086 15.249C8.90625 15.249 8.67773 14.9854 8.67773 14.6074V8.69238C8.67773 8.31445 8.90625 8.05078 9.38086 8.05078H10.3301C10.8047 8.05078 11.0332 8.31445 11.0332 8.69238V14.6074C11.0332 14.9854 10.8047 15.249 10.3301 15.249H9.38086ZM13.6523 15.249C13.1865 15.249 12.9492 14.9854 12.9492 14.6074V8.69238C12.9492 8.31445 13.1865 8.05078 13.6523 8.05078H14.6104C15.0674 8.05078 15.2959 8.31445 15.2959 8.69238V14.6074C15.2959 14.9854 15.0674 15.249 14.6104 15.249H13.6523Z" fill="#1C1C1E"/>
</g>
<defs>
<clipPath id="clip0_10_1239">
<rect width="24" height="24" fill="white"/>
</clipPath>
</defs>
</svg>
