<svg width="24" height="24" viewBox="0 0 24 24" fill="none" xmlns="http://www.w3.org/2000/svg">
<g clip-path="url(#clip0_10_1246)">
<path d="M8.92383 19.0723C9.47754 19.0723 9.9082 18.6592 9.9082 18.1143V5.21191C9.9082 4.66699 9.47754 4.25391 8.92383 4.25391C8.37012 4.25391 7.93945 4.66699 7.93945 5.21191V18.1143C7.93945 18.6592 8.37012 19.0723 8.92383 19.0723ZM15.0674 19.0723C15.6211 19.0723 16.0518 18.6592 16.0518 18.1143V5.21191C16.0518 4.66699 15.6211 4.25391 15.0674 4.25391C14.5137 4.25391 14.083 4.66699 14.083 5.21191V18.1143C14.083 18.6592 14.5137 19.0723 15.0674 19.0723Z" fill="#1C1C1E"/>
</g>
<defs>
<clipPath id="clip0_10_1246">
<rect width="24" height="24" fill="white"/>
</clipPath>
</defs>
</svg>
