<svg width="24" height="24" viewBox="0 0 24 24" fill="none" xmlns="http://www.w3.org/2000/svg">
<g clip-path="url(#clip0_10_1233)">
<path d="M4.47656 19.8809H19.5146C21.4219 19.8809 22.415 18.8965 22.415 17.0156V6.31934C22.415 4.43848 21.4219 3.4541 19.5146 3.4541H4.47656C2.57812 3.4541 1.58496 4.42969 1.58496 6.31934V17.0156C1.58496 18.8965 2.57812 19.8809 4.47656 19.8809ZM9.39844 15.2666C8.92383 15.2666 8.69531 15.0029 8.69531 14.6162V8.70996C8.69531 8.32324 8.92383 8.05957 9.39844 8.05957H10.3477C10.8223 8.05957 11.042 8.32324 11.042 8.70996V14.6162C11.042 15.0029 10.8223 15.2666 10.3477 15.2666H9.39844ZM13.6699 15.2666C13.2041 15.2666 12.9668 15.0029 12.9668 14.6162V8.70996C12.9668 8.32324 13.2041 8.05957 13.6699 8.05957H14.6279C15.085 8.05957 15.3135 8.32324 15.3135 8.70996V14.6162C15.3135 15.0029 15.085 15.2666 14.6279 15.2666H13.6699Z" fill="#1C1C1E"/>
</g>
<defs>
<clipPath id="clip0_10_1233">
<rect width="24" height="24" fill="white"/>
</clipPath>
</defs>
</svg>
