<svg width="24" height="24" viewBox="0 0 24 24" fill="none" xmlns="http://www.w3.org/2000/svg">
<g clip-path="url(#clip0_10_1251)">
<path d="M17.8799 18.4482C18.1523 18.7207 18.6094 18.7207 18.873 18.4482C19.1367 18.167 19.1455 17.7275 18.873 17.4551L5.43457 4.02539C5.16211 3.75293 4.71387 3.75293 4.43262 4.02539C4.16895 4.28906 4.16895 4.75488 4.43262 5.01855L17.8799 18.4482ZM17.0186 14.0449L18.8203 12.999C19.5762 12.5596 19.8926 12.2168 19.8926 11.6631C19.8926 11.1094 19.5762 10.7754 18.8203 10.3271L8.44043 4.32422C8.07129 4.10449 7.77246 3.96387 7.44727 3.96387C7.30664 3.96387 7.18359 4.04297 7.12207 4.15723L17.0186 14.0449ZM13.7842 15.917L6.11133 8.24414V17.9473C6.11133 18.8262 6.62109 19.3711 7.3418 19.3711C7.71094 19.3711 8.03613 19.2393 8.44043 19.002L13.7842 15.917Z" fill="#1C1C1E"/>
</g>
<defs>
<clipPath id="clip0_10_1251">
<rect width="24" height="24" fill="white"/>
</clipPath>
</defs>
</svg>
