<svg width="24" height="24" viewBox="0 0 24 24" fill="none" xmlns="http://www.w3.org/2000/svg">
<g clip-path="url(#clip0_10_1260)">
<path d="M7.32422 19.3711C7.69336 19.3711 8.01855 19.2393 8.42285 19.002L18.8027 12.999C19.5586 12.5596 19.875 12.2168 19.875 11.6631C19.875 11.1094 19.5586 10.7754 18.8027 10.3271L8.42285 4.32422C8.01855 4.08691 7.69336 3.95508 7.32422 3.95508C6.60352 3.95508 6.09375 4.50879 6.09375 5.37891V17.9473C6.09375 18.8262 6.60352 19.3711 7.32422 19.3711ZM7.97461 17.1914C7.93066 17.1914 7.89551 17.1475 7.89551 17.0859V6.24023C7.89551 6.16992 7.93066 6.13477 7.97461 6.13477C8.00977 6.13477 8.04492 6.15234 8.08008 6.17871L17.4141 11.5664C17.4492 11.5928 17.4844 11.6191 17.4844 11.6631C17.4844 11.707 17.4492 11.7334 17.4141 11.7598L8.08008 17.1475C8.04492 17.1738 8.00977 17.1914 7.97461 17.1914Z" fill="#1C1C1E"/>
</g>
<defs>
<clipPath id="clip0_10_1260">
<rect width="24" height="24" fill="white"/>
</clipPath>
</defs>
</svg>
