<svg width="24" height="24" viewBox="0 0 24 24" fill="none" xmlns="http://www.w3.org/2000/svg">
<g clip-path="url(#clip0_10_1231)">
<path d="M16.7461 19.0723C17.2998 19.0723 17.7305 18.6592 17.7305 18.1143V5.21191C17.7305 4.66699 17.2998 4.25391 16.7461 4.25391C16.1836 4.25391 15.7529 4.66699 15.7529 5.21191V18.1143C15.7529 18.6592 16.1836 19.0723 16.7461 19.0723ZM22.8896 19.0723C23.4434 19.0723 23.874 18.6592 23.874 18.1143V5.21191C23.874 4.66699 23.4434 4.25391 22.8896 4.25391C22.3359 4.25391 21.9053 4.66699 21.9053 5.21191V18.1143C21.9053 18.6592 22.3359 19.0723 22.8896 19.0723ZM1.5498 18.7383C1.93652 18.7383 2.27051 18.624 2.64844 18.4043L11.6572 13.1133C12.3164 12.7266 12.6592 12.252 12.6592 11.6543C12.6592 11.0654 12.3252 10.6084 11.6572 10.2129L2.64844 4.92188C2.26172 4.70215 1.93652 4.58789 1.54102 4.58789C0.767578 4.58789 0.125977 5.16797 0.125977 6.24023V17.0859C0.125977 18.1582 0.776367 18.7383 1.5498 18.7383ZM2.06836 16.708C1.9541 16.708 1.86621 16.6377 1.86621 16.4795V6.84668C1.86621 6.68848 1.9541 6.61816 2.06836 6.61816C2.12109 6.61816 2.18262 6.63574 2.26172 6.67969L10.3301 11.4521C10.4355 11.5049 10.4883 11.5576 10.4883 11.6631C10.4883 11.7598 10.4355 11.8213 10.3301 11.874L2.26172 16.6465C2.18262 16.6904 2.12109 16.708 2.06836 16.708Z" fill="#1C1C1E"/>
</g>
<defs>
<clipPath id="clip0_10_1231">
<rect width="24" height="24" fill="white"/>
</clipPath>
</defs>
</svg>
