<svg width="24" height="24" viewBox="0 0 24 24" fill="none" xmlns="http://www.w3.org/2000/svg">
<g clip-path="url(#clip0_10_1258)">
<path d="M17.8623 18.4482C18.1348 18.7207 18.5918 18.7207 18.8555 18.4482C19.1191 18.167 19.1279 17.7275 18.8555 17.4551L5.41699 4.02539C5.14453 3.75293 4.69629 3.75293 4.41504 4.02539C4.15137 4.28906 4.15137 4.75488 4.41504 5.01855L17.8623 18.4482ZM17.001 14.0449L18.8027 12.999C19.5586 12.5596 19.875 12.2168 19.875 11.6631C19.875 11.1094 19.5586 10.7754 18.8027 10.3271L8.42285 4.32422C8.00977 4.08691 7.59668 3.95508 7.20117 4.00781L11.0684 7.90137L17.4141 11.5664C17.4492 11.5928 17.4844 11.6191 17.4844 11.6631C17.4844 11.707 17.4492 11.7334 17.4141 11.7598L15.709 12.7529L17.001 14.0449ZM13.7666 15.917L12.4658 14.6162L8.08008 17.1475C8.04492 17.1738 8.00977 17.1914 7.97461 17.1914C7.93066 17.1914 7.89551 17.1475 7.89551 17.0859V10.0459L6.09375 8.23535V17.9473C6.09375 18.8262 6.60352 19.3711 7.32422 19.3711C7.69336 19.3711 8.01855 19.2393 8.42285 19.002L13.7666 15.917Z" fill="#1C1C1E"/>
</g>
<defs>
<clipPath id="clip0_10_1258">
<rect width="24" height="24" fill="white"/>
</clipPath>
</defs>
</svg>
