<svg width="24" height="24" viewBox="0 0 24 24" fill="none" xmlns="http://www.w3.org/2000/svg">
<g clip-path="url(#clip0_10_1238)">
<path d="M15.0146 18.9668H17.0801C17.915 18.9668 18.3457 18.5361 18.3457 17.7012V5.60742C18.3457 4.75488 17.915 4.3418 17.0801 4.3418H15.0146C14.1797 4.3418 13.749 4.77246 13.749 5.60742V17.7012C13.749 18.5361 14.1709 18.9668 15.0146 18.9668ZM22.3271 18.9668H24.3926C25.2275 18.9668 25.6582 18.5361 25.6582 17.7012V5.60742C25.6582 4.75488 25.2275 4.3418 24.3926 4.3418H22.3271C21.4922 4.3418 21.0615 4.77246 21.0615 5.60742V17.7012C21.0615 18.5361 21.4834 18.9668 22.3271 18.9668ZM-0.234375 18.7295C0.152344 18.7295 0.486328 18.6152 0.864258 18.3955L9.87305 13.1045C10.5322 12.7178 10.875 12.2432 10.875 11.6455C10.875 11.0566 10.541 10.5996 9.87305 10.2041L0.864258 4.91309C0.477539 4.69336 0.152344 4.5791 -0.243164 4.5791C-1.0166 4.5791 -1.6582 5.15918 -1.6582 6.23145V17.0771C-1.6582 18.1494 -1.00781 18.7295 -0.234375 18.7295Z" fill="#1C1C1E"/>
</g>
<defs>
<clipPath id="clip0_10_1238">
<rect width="24" height="24" fill="white"/>
</clipPath>
</defs>
</svg>
