<svg width="24" height="24" viewBox="0 0 24 24" fill="none" xmlns="http://www.w3.org/2000/svg">
<g clip-path="url(#clip0_10_1254)">
<path d="M11.9912 20.7422C16.9746 20.7422 21.0879 16.6289 21.0879 11.6543C21.0879 6.67969 16.9658 2.56641 11.9824 2.56641C7.00781 2.56641 2.90332 6.67969 2.90332 11.6543C2.90332 16.6289 7.0166 20.7422 11.9912 20.7422ZM11.9912 18.9316C7.95703 18.9316 4.73145 15.6885 4.73145 11.6543C4.73145 7.62012 7.95703 4.38574 11.9824 4.38574C16.0166 4.38574 19.2598 7.62012 19.2686 11.6543C19.2773 15.6885 16.0254 18.9316 11.9912 18.9316ZM12 15.0996C13.9072 15.0996 15.4453 13.5615 15.4453 11.6455C15.4453 9.74707 13.9072 8.2002 12 8.2002C10.084 8.2002 8.5459 9.74707 8.5459 11.6455C8.5459 13.5615 10.084 15.0996 12 15.0996Z" fill="#1C1C1E"/>
</g>
<defs>
<clipPath id="clip0_10_1254">
<rect width="24" height="24" fill="white"/>
</clipPath>
</defs>
</svg>
