<svg width="24" height="24" viewBox="0 0 24 24" fill="none" xmlns="http://www.w3.org/2000/svg">
<g clip-path="url(#clip0_10_1214)">
<path d="M11.9912 20.7422C16.9746 20.7422 21.0879 16.6289 21.0879 11.6543C21.0879 6.67969 16.9658 2.56641 11.9824 2.56641C7.00781 2.56641 2.90332 6.67969 2.90332 11.6543C2.90332 16.6289 7.0166 20.7422 11.9912 20.7422ZM6.25195 11.2764V10.8545C6.25195 9.3252 7.33301 8.36719 9.0293 8.36719H10.8311V7.42676C10.8311 7.09277 11.042 6.88184 11.3848 6.88184C11.5342 6.88184 11.6836 6.92578 11.7891 7.01367L13.7139 8.63965C13.9863 8.86816 14.0039 9.22852 13.7139 9.46582L11.7803 11.083C11.6748 11.1709 11.5166 11.2236 11.3848 11.2236C11.042 11.2236 10.8311 11.0039 10.8311 10.6699V9.70312H8.92383C8.12402 9.70312 7.61426 10.2041 7.61426 10.9512V11.2764C7.61426 11.6631 7.31543 11.9531 6.9375 11.9531C6.55078 11.9531 6.25195 11.6631 6.25195 11.2764ZM14.6016 8.0332C14.6016 7.875 14.6719 7.76953 14.8125 7.65527L15.4365 7.18066C15.7178 6.96973 15.8936 6.89062 16.2188 6.89062C16.623 6.89062 16.8955 7.16309 16.8955 7.57617V9.83496C16.8955 10.2305 16.6758 10.4326 16.2979 10.4326C15.9375 10.4326 15.709 10.2305 15.709 9.83496V8.00684L15.3047 8.32324C15.208 8.40234 15.1289 8.4375 15.0146 8.4375C14.7773 8.4375 14.6016 8.26172 14.6016 8.0332ZM8.26465 14.6602C7.9834 14.4316 8.00098 14.0713 8.26465 13.8428L10.1982 12.2256C10.3125 12.1377 10.4531 12.0762 10.6113 12.0762C10.9365 12.0762 11.165 12.2959 11.165 12.6211V13.5967H14.3203C15.1201 13.5967 15.6299 13.1045 15.6299 12.3486V12.0146C15.6299 11.6367 15.9287 11.3467 16.3066 11.3467C16.6934 11.3467 16.9922 11.6367 16.9922 12.0146V12.4541C16.9922 13.9658 15.9111 14.9326 14.2148 14.9326H11.165V15.8818C11.165 16.2246 10.9453 16.4268 10.6113 16.4268C10.4619 16.4268 10.3213 16.3828 10.207 16.2861L8.26465 14.6602Z" fill="#1C1C1E"/>
</g>
<defs>
<clipPath id="clip0_10_1214">
<rect width="24" height="24" fill="white"/>
</clipPath>
</defs>
</svg>
