<svg width="24" height="24" viewBox="0 0 24 24" fill="none" xmlns="http://www.w3.org/2000/svg">
<g clip-path="url(#clip0_10_1221)">
<path d="M2.12988 10.8984C2.12988 11.5049 2.62207 11.9971 3.22852 11.9971C3.84375 11.9971 4.32715 11.5049 4.32715 10.8984V10.3271C4.32715 8.89453 5.31152 7.97168 6.80566 7.97168H13.4062V9.80859C13.4062 10.3359 13.7402 10.6699 14.2764 10.6699C14.5137 10.6699 14.7334 10.582 14.9092 10.4414L18.3721 7.55859C18.8027 7.21582 18.7939 6.63574 18.3721 6.28418L14.9092 3.39258C14.7334 3.24316 14.5137 3.15527 14.2764 3.15527C13.7402 3.15527 13.4062 3.48926 13.4062 4.0166V5.80957H6.98145C4.00195 5.80957 2.12988 7.4707 2.12988 10.1162V10.8984ZM10.5938 13.3066C10.5938 12.7793 10.2598 12.4365 9.73242 12.4365C9.49512 12.4365 9.2666 12.5332 9.09082 12.6738L5.63672 15.5566C5.20605 15.8994 5.20605 16.4707 5.63672 16.8311L9.09082 19.7227C9.2666 19.8721 9.49512 19.96 9.73242 19.96C10.2598 19.96 10.5938 19.626 10.5938 19.0986V17.2969H17.0273C20.0068 17.2969 21.8701 15.627 21.8701 12.9902V12.208C21.8701 11.5928 21.3867 11.1006 20.7715 11.1006C20.165 11.1006 19.6729 11.5928 19.6729 12.208V12.7793C19.6729 14.2031 18.6973 15.1348 17.1943 15.1348H10.5938V13.3066Z" fill="#1C1C1E"/>
</g>
<defs>
<clipPath id="clip0_10_1221">
<rect width="24" height="24" fill="white"/>
</clipPath>
</defs>
</svg>
