<svg width="24" height="24" viewBox="0 0 24 24" fill="none" xmlns="http://www.w3.org/2000/svg">
<g clip-path="url(#clip0_10_1217)">
<path d="M11.9912 20.7422C16.9746 20.7422 21.0879 16.6289 21.0879 11.6543C21.0879 6.67969 16.9658 2.56641 11.9824 2.56641C7.00781 2.56641 2.90332 6.67969 2.90332 11.6543C2.90332 16.6289 7.0166 20.7422 11.9912 20.7422ZM6.38379 11.3203V10.8809C6.38379 9.36035 7.47363 8.38477 9.17871 8.38477H12.668V7.48828C12.668 7.13672 12.8965 6.9082 13.2568 6.9082C13.3975 6.9082 13.5645 6.96973 13.6787 7.05762L15.5859 8.66602C15.8848 8.90332 15.8848 9.29004 15.5859 9.53613L13.6699 11.1357C13.5469 11.2324 13.3975 11.2939 13.2568 11.2939C12.8965 11.2939 12.668 11.0566 12.668 10.7139V9.77344H9.08203C8.30859 9.77344 7.80762 10.248 7.80762 10.9863V11.3203C7.80762 11.707 7.49121 12.0146 7.0957 12.0146C6.7002 12.0146 6.38379 11.707 6.38379 11.3203ZM8.39648 14.6953C8.09766 14.458 8.09766 14.0625 8.39648 13.8252L10.3125 12.2256C10.4355 12.1289 10.585 12.0674 10.7256 12.0674C11.0947 12.0674 11.3232 12.3047 11.3232 12.6475V13.5791H14.9004C15.6826 13.5791 16.1748 13.1045 16.1748 12.375V12.0322C16.1748 11.6455 16.4912 11.3379 16.8867 11.3379C17.2822 11.3379 17.6074 11.6455 17.6074 12.0322V12.4717C17.6074 13.9922 16.5176 14.9766 14.8125 14.9766H11.3232V15.873C11.3232 16.2246 11.0947 16.4531 10.7256 16.4531C10.585 16.4531 10.418 16.3916 10.3125 16.3037L8.39648 14.6953Z" fill="#1C1C1E"/>
</g>
<defs>
<clipPath id="clip0_10_1217">
<rect width="24" height="24" fill="white"/>
</clipPath>
</defs>
</svg>
