<svg width="24" height="24" viewBox="0 0 24 24" fill="none" xmlns="http://www.w3.org/2000/svg">
<g clip-path="url(#clip0_10_1219)">
<path d="M11.9912 20.7422C16.9746 20.7422 21.0879 16.6289 21.0879 11.6543C21.0879 6.67969 16.9658 2.56641 11.9824 2.56641C7.00781 2.56641 2.90332 6.67969 2.90332 11.6543C2.90332 16.6289 7.0166 20.7422 11.9912 20.7422ZM11.9912 18.9316C7.95703 18.9316 4.73145 15.6885 4.73145 11.6543C4.73145 7.62012 7.95703 4.38574 11.9824 4.38574C16.0166 4.38574 19.2598 7.62012 19.2686 11.6543C19.2773 15.6885 16.0254 18.9316 11.9912 18.9316ZM6.60352 11.3203C6.60352 11.707 6.90234 12.0059 7.28906 12.0059C7.66699 12.0059 7.95703 11.707 7.95703 11.3203V11.0215C7.95703 10.3096 8.44043 9.85254 9.1875 9.85254H12.6416V10.7402C12.6416 11.083 12.8613 11.2939 13.1953 11.2939C13.3447 11.2939 13.4854 11.25 13.6084 11.1445L15.4541 9.61523C15.7266 9.38672 15.7266 9.00879 15.4541 8.78027L13.6172 7.24219C13.5029 7.14551 13.3535 7.09277 13.1953 7.09277C12.8701 7.09277 12.6416 7.3125 12.6416 7.65527V8.5166H9.29297C7.64941 8.5166 6.60352 9.44824 6.60352 10.916V11.3203ZM11.3408 12.6211C11.3408 12.2783 11.1299 12.0674 10.7871 12.0674C10.6465 12.0674 10.5059 12.1113 10.3828 12.2168L8.53711 13.7461C8.25586 13.9746 8.24707 14.3525 8.53711 14.5811L10.374 16.1191C10.4883 16.2158 10.6377 16.2773 10.7871 16.2773C11.1211 16.2773 11.3408 16.0488 11.3408 15.7061V14.8447H14.6895C16.3418 14.8447 17.3877 13.9043 17.3877 12.4365V12.0322C17.3877 11.6455 17.0801 11.3467 16.7021 11.3467C16.3242 11.3467 16.0254 11.6455 16.0254 12.0322V12.3311C16.0254 13.0518 15.542 13.5088 14.7949 13.5088H11.3408V12.6211Z" fill="#1C1C1E"/>
</g>
<defs>
<clipPath id="clip0_10_1219">
<rect width="24" height="24" fill="white"/>
</clipPath>
</defs>
</svg>
