<svg width="24" height="24" viewBox="0 0 24 24" fill="none" xmlns="http://www.w3.org/2000/svg">
<g clip-path="url(#clip0_10_1215)">
<path d="M11.9912 20.7422C16.9746 20.7422 21.0879 16.6289 21.0879 11.6543C21.0879 6.67969 16.9658 2.56641 11.9824 2.56641C7.00781 2.56641 2.90332 6.67969 2.90332 11.6543C2.90332 16.6289 7.0166 20.7422 11.9912 20.7422ZM11.9912 18.9316C7.95703 18.9316 4.73145 15.6885 4.73145 11.6543C4.73145 7.62012 7.95703 4.38574 11.9824 4.38574C16.0166 4.38574 19.2598 7.62012 19.2686 11.6543C19.2773 15.6885 16.0254 18.9316 11.9912 18.9316ZM6.52441 11.3027C6.52441 11.6631 6.81445 11.9443 7.1748 11.9443C7.52637 11.9443 7.80762 11.6631 7.80762 11.3027V11.0039C7.80762 10.2744 8.2998 9.80859 9.06445 9.80859H10.8662V10.7314C10.8662 11.0391 11.0684 11.2412 11.3936 11.2412C11.5254 11.2412 11.6572 11.1973 11.7715 11.1182L13.6084 9.58887C13.8809 9.36035 13.8633 9.01758 13.6084 8.79785L11.7715 7.25098C11.6748 7.18066 11.5342 7.12793 11.3936 7.12793C11.0684 7.12793 10.8662 7.33008 10.8662 7.64648V8.54297H9.16113C7.55273 8.54297 6.52441 9.45703 6.52441 10.8984V11.3027ZM16.0693 10.5029C16.4209 10.5029 16.6318 10.3008 16.6318 9.93164V7.78711C16.6318 7.40039 16.3594 7.13672 15.9814 7.13672C15.6914 7.13672 15.5068 7.21582 15.252 7.41797L14.6631 7.86621C14.5225 7.98047 14.4521 8.06836 14.4521 8.22656C14.4521 8.4375 14.6279 8.60449 14.8477 8.60449C14.9531 8.60449 15.0322 8.56934 15.1289 8.49902L15.5068 8.19141V9.93164C15.5068 10.3008 15.7178 10.5029 16.0693 10.5029ZM11.1826 12.5859C11.1826 12.2783 10.9717 12.0762 10.6641 12.0762C10.5146 12.0762 10.374 12.1113 10.2773 12.208L8.44043 13.7373C8.18555 13.9482 8.16797 14.2998 8.44043 14.5195L10.2773 16.0576C10.3828 16.1455 10.5234 16.1895 10.6641 16.1895C10.9805 16.1895 11.1826 15.9873 11.1826 15.6797V14.7656H14.083C15.6914 14.7656 16.7197 13.8516 16.7197 12.4189V12.0059C16.7197 11.6455 16.4297 11.3643 16.0693 11.3643C15.7178 11.3643 15.4365 11.6455 15.4365 12.0059V12.3135C15.4365 13.043 14.9443 13.5088 14.1797 13.5088H11.1826V12.5859Z" fill="#1C1C1E"/>
</g>
<defs>
<clipPath id="clip0_10_1215">
<rect width="24" height="24" fill="white"/>
</clipPath>
</defs>
</svg>
