<svg width="24" height="24" viewBox="0 0 24 24" fill="none" xmlns="http://www.w3.org/2000/svg">
<g clip-path="url(#clip0_10_1216)">
<path d="M20.7979 9.36914C21.4131 9.36914 21.7734 9.03516 21.7734 8.36719V4.24512C21.7734 3.54199 21.3076 3.07617 20.6133 3.07617C20.0508 3.07617 19.708 3.25195 19.2598 3.58594L18.126 4.44727C17.8623 4.64941 17.7656 4.84277 17.7656 5.08008C17.7656 5.43164 18.0205 5.7041 18.416 5.7041C18.5918 5.7041 18.7412 5.64258 18.8906 5.52832L19.7344 4.84277H19.8047V8.36719C19.8047 9.03516 20.1738 9.36914 20.7979 9.36914ZM2.12109 10.8984C2.12109 11.5225 2.5957 11.9971 3.21973 11.9971C3.85254 11.9971 4.31836 11.5225 4.31836 10.8984V10.3271C4.31836 8.89453 5.30273 7.97168 6.79688 7.97168H11.2441V9.80859C11.2441 10.3359 11.5781 10.6699 12.1055 10.6699C12.3428 10.6699 12.5713 10.582 12.7471 10.4414L16.21 7.55859C16.6318 7.20703 16.6318 6.63574 16.21 6.28418L12.7471 3.39258C12.5713 3.24316 12.3428 3.15527 12.1055 3.15527C11.5781 3.15527 11.2441 3.48926 11.2441 4.0166V5.80957H6.97266C3.99316 5.80957 2.12109 7.4707 2.12109 10.1162V10.8984ZM10.585 13.3066C10.585 12.7793 10.251 12.4365 9.72363 12.4365C9.48633 12.4365 9.25781 12.5332 9.08203 12.6738L5.62793 15.5566C5.19727 15.8994 5.19727 16.4707 5.62793 16.8311L9.08203 19.7227C9.25781 19.8721 9.48633 19.96 9.72363 19.96C10.251 19.96 10.585 19.626 10.585 19.0986V17.2969H17.0186C19.998 17.2969 21.8613 15.627 21.8613 12.9902V12.208C21.8613 11.5752 21.3867 11.1006 20.7627 11.1006C20.1387 11.1006 19.6641 11.5752 19.6641 12.208V12.7793C19.6641 14.2031 18.6885 15.1348 17.1855 15.1348H10.585V13.3066Z" fill="#1C1C1E"/>
</g>
<defs>
<clipPath id="clip0_10_1216">
<rect width="24" height="24" fill="white"/>
</clipPath>
</defs>
</svg>
