<svg width="24" height="24" viewBox="0 0 24 24" fill="none" xmlns="http://www.w3.org/2000/svg">
<g clip-path="url(#clip0_10_1227)">
<path d="M1.33887 16.3564C1.33887 16.9805 1.80469 17.4199 2.47266 17.4199H4.54688C6.11133 17.4199 7.06055 16.9541 8.12402 15.6885L10.1191 13.3154L12.0791 15.6533C13.1689 16.9541 14.2412 17.4287 15.8145 17.4287H17.3789V19.3535C17.3789 19.8809 17.7129 20.2148 18.249 20.2148C18.4863 20.2148 18.7061 20.127 18.8818 19.9863L22.3447 17.1035C22.7754 16.752 22.7666 16.1807 22.3447 15.8291L18.8818 12.9375C18.7061 12.7881 18.4863 12.7002 18.249 12.7002C17.7129 12.7002 17.3789 13.0342 17.3789 13.5615V15.2842H15.8584C14.8652 15.2842 14.25 14.959 13.5293 14.1064L11.4902 11.6895L13.5381 9.25488C14.2676 8.38477 14.8301 8.08594 15.8057 8.08594H17.3789V9.83496C17.3789 10.3623 17.7129 10.6963 18.249 10.6963C18.4863 10.6963 18.7061 10.6084 18.8818 10.4678L22.3447 7.58496C22.7754 7.2334 22.7666 6.66211 22.3447 6.31055L18.8818 3.41895C18.7061 3.26953 18.4863 3.18164 18.249 3.18164C17.7129 3.18164 17.3789 3.51562 17.3789 4.04297V5.94141H15.8232C14.1973 5.94141 13.1689 6.39844 12.0176 7.78711L10.1191 10.0459L8.12402 7.68164C7.06055 6.41602 6.0498 5.94141 4.48535 5.94141H2.47266C1.80469 5.94141 1.33887 6.38965 1.33887 7.01367C1.33887 7.6377 1.81348 8.08594 2.47266 8.08594H4.40625C5.35547 8.08594 5.98828 8.40234 6.70898 9.26367L8.73926 11.6807L6.70898 14.1064C5.97949 14.9678 5.4082 15.2842 4.46777 15.2842H2.47266C1.81348 15.2842 1.33887 15.7324 1.33887 16.3564Z" fill="#1C1C1E"/>
</g>
<defs>
<clipPath id="clip0_10_1227">
<rect width="24" height="24" fill="white"/>
</clipPath>
</defs>
</svg>
