<svg width="24" height="24" viewBox="0 0 24 24" fill="none" xmlns="http://www.w3.org/2000/svg">
<g clip-path="url(#clip0_10_1225)">
<path d="M11.9912 20.7422C16.9746 20.7422 21.0879 16.6289 21.0879 11.6543C21.0879 6.67969 16.9658 2.56641 11.9824 2.56641C7.00781 2.56641 2.90332 6.67969 2.90332 11.6543C2.90332 16.6289 7.0166 20.7422 11.9912 20.7422ZM11.9912 18.9316C7.95703 18.9316 4.73145 15.6885 4.73145 11.6543C4.73145 7.62012 7.95703 4.38574 11.9824 4.38574C16.0166 4.38574 19.2598 7.62012 19.2686 11.6543C19.2773 15.6885 16.0254 18.9316 11.9912 18.9316ZM6.56836 13.9746C6.56836 14.3438 6.84961 14.5986 7.22754 14.5986H8.25586C9.06445 14.5986 9.56543 14.3525 10.1104 13.7109L11.0244 12.6211L11.9209 13.6934C12.4746 14.3525 13.0371 14.5986 13.8545 14.5986H14.5225V15.46C14.5225 15.7764 14.7422 15.9961 15.0586 15.9961C15.1904 15.9961 15.3223 15.9434 15.4365 15.8643L17.1504 14.4316C17.4141 14.2207 17.4141 13.8604 17.1504 13.6406L15.4453 12.208C15.3398 12.1201 15.1992 12.0674 15.0586 12.0674C14.7422 12.0674 14.5225 12.2783 14.5225 12.5947V13.3506H13.8809C13.415 13.3506 13.1426 13.21 12.791 12.7969L11.833 11.6631L12.791 10.5205C13.1426 10.0986 13.3975 9.9668 13.8545 9.9668H14.5225V10.7314C14.5225 11.0479 14.7422 11.2676 15.0586 11.2676C15.1992 11.2676 15.3398 11.2148 15.4453 11.1182L17.1504 9.70312C17.4141 9.49219 17.4141 9.12305 17.1504 8.91211L15.4453 7.47949C15.3398 7.38281 15.208 7.33887 15.0586 7.33887C14.7422 7.33887 14.5225 7.5498 14.5225 7.86621V8.70996H13.8545C13.0283 8.70996 12.501 8.95605 11.9033 9.65918L11.0244 10.6963L10.1104 9.61523C9.56543 8.95605 9.0293 8.70996 8.2207 8.70996H7.22754C6.84961 8.70996 6.56836 8.97363 6.56836 9.34277C6.56836 9.70312 6.84961 9.9668 7.22754 9.9668H8.19434C8.63379 9.9668 8.91504 10.1074 9.25781 10.5205L10.2158 11.6543L9.25781 12.7881C8.91504 13.2012 8.65137 13.3506 8.2207 13.3506H7.22754C6.84082 13.3506 6.56836 13.6143 6.56836 13.9746Z" fill="#1C1C1E"/>
</g>
<defs>
<clipPath id="clip0_10_1225">
<rect width="24" height="24" fill="white"/>
</clipPath>
</defs>
</svg>
