<svg width="24" height="24" viewBox="0 0 24 24" fill="none" xmlns="http://www.w3.org/2000/svg">
<g clip-path="url(#clip0_10_1223)">
<path d="M11.9912 20.7422C16.9746 20.7422 21.0879 16.6289 21.0879 11.6543C21.0879 6.67969 16.9658 2.56641 11.9824 2.56641C7.00781 2.56641 2.90332 6.67969 2.90332 11.6543C2.90332 16.6289 7.0166 20.7422 11.9912 20.7422ZM6.33984 14.0625C6.33984 13.6846 6.63867 13.4121 7.03418 13.4121H8.0625C8.51074 13.4121 8.79199 13.2539 9.14355 12.832L10.1367 11.6543L9.14355 10.4678C8.7832 10.0459 8.49316 9.89648 8.03613 9.89648H7.03418C6.64746 9.89648 6.33984 9.62402 6.33984 9.24609C6.33984 8.85938 6.63867 8.57812 7.03418 8.57812H8.07129C8.90625 8.57812 9.46875 8.8418 10.04 9.52734L10.9805 10.6523L11.8945 9.58008C12.5098 8.83301 13.0635 8.57812 13.9248 8.57812H14.6191V7.7168C14.6191 7.37402 14.8389 7.1543 15.1729 7.1543C15.3311 7.1543 15.4629 7.21582 15.5771 7.30371L17.3613 8.78906C17.625 9.01758 17.625 9.38672 17.3613 9.61523L15.5771 11.0918C15.4717 11.1973 15.3223 11.25 15.1729 11.25C14.8389 11.25 14.6191 11.0215 14.6191 10.6963V9.89648H13.9248C13.4414 9.89648 13.1865 10.0283 12.8174 10.4678L11.8242 11.6543L12.8174 12.832C13.1777 13.2627 13.4678 13.4121 13.9512 13.4121H14.6191V12.6211C14.6191 12.2959 14.8389 12.0674 15.1729 12.0674C15.3223 12.0674 15.4717 12.1201 15.5771 12.2256L17.3613 13.7109C17.625 13.9395 17.6162 14.3086 17.3613 14.5371L15.5684 16.0225C15.4541 16.1104 15.3223 16.1631 15.1729 16.1631C14.8389 16.1631 14.6191 15.9434 14.6191 15.6094V14.7217H13.9248C13.0723 14.7217 12.501 14.4492 11.9121 13.7637L10.9805 12.6562L10.04 13.7812C9.46875 14.458 8.94141 14.7129 8.09766 14.7129H7.03418C6.63867 14.7129 6.33984 14.4404 6.33984 14.0625Z" fill="#1C1C1E"/>
</g>
<defs>
<clipPath id="clip0_10_1223">
<rect width="24" height="24" fill="white"/>
</clipPath>
</defs>
</svg>
