<svg width="24" height="24" viewBox="0 0 24 24" fill="none" xmlns="http://www.w3.org/2000/svg">
<g clip-path="url(#clip0_10_1232)">
<path d="M4.67871 16.9014C4.67871 18.1934 5.46973 18.9668 6.79688 18.9668H17.1855C18.5215 18.9668 19.3125 18.1934 19.3125 16.9014V6.40723C19.3125 5.11523 18.5215 4.3418 17.1855 4.3418H6.79688C5.46973 4.3418 4.67871 5.11523 4.67871 6.40723V16.9014ZM6.42773 16.3916V6.91699C6.42773 6.38965 6.73535 6.07324 7.2627 6.07324H16.7549C17.2822 6.07324 17.5898 6.38965 17.5898 6.91699V16.3916C17.5898 16.9189 17.2822 17.2354 16.7549 17.2354H7.2627C6.73535 17.2354 6.42773 16.9189 6.42773 16.3916Z" fill="#1C1C1E"/>
</g>
<defs>
<clipPath id="clip0_10_1232">
<rect width="24" height="24" fill="white"/>
</clipPath>
</defs>
</svg>
