<svg width="24" height="24" viewBox="0 0 24 24" fill="none" xmlns="http://www.w3.org/2000/svg">
<g clip-path="url(#clip0_10_1245)">
<path d="M11.9912 20.7422C16.9746 20.7422 21.0879 16.6289 21.0879 11.6543C21.0879 6.67969 16.9658 2.56641 11.9824 2.56641C7.00781 2.56641 2.90332 6.67969 2.90332 11.6543C2.90332 16.6289 7.0166 20.7422 11.9912 20.7422ZM8.66895 14.0537V9.24609C8.66895 8.68359 9.0293 8.33203 9.61816 8.33203H14.3555C14.9443 8.33203 15.3047 8.68359 15.3047 9.24609V14.0537C15.3047 14.625 14.9443 14.9766 14.3555 14.9766H9.61816C9.0293 14.9766 8.66895 14.625 8.66895 14.0537Z" fill="#1C1C1E"/>
</g>
<defs>
<clipPath id="clip0_10_1245">
<rect width="24" height="24" fill="white"/>
</clipPath>
</defs>
</svg>
