<svg width="24" height="24" viewBox="0 0 24 24" fill="none" xmlns="http://www.w3.org/2000/svg">
<g clip-path="url(#clip0_10_861)">
<path d="M11.9912 20.7422C16.9746 20.7422 21.0879 16.6289 21.0879 11.6543C21.0879 6.67969 16.9658 2.56641 11.9824 2.56641C7.00781 2.56641 2.90332 6.67969 2.90332 11.6543C2.90332 16.6289 7.0166 20.7422 11.9912 20.7422ZM9.1084 15.8818C8.59863 15.8818 8.29102 15.583 8.29102 15.1172C8.29102 14.959 8.31738 14.8008 8.39648 14.5547L10.708 8.24414C10.9277 7.61133 11.3408 7.29492 11.9736 7.29492C12.6152 7.29492 13.0459 7.61133 13.2656 8.24414L15.5684 14.5547C15.6562 14.8008 15.6826 14.959 15.6826 15.1172C15.6826 15.583 15.3662 15.8818 14.8652 15.8818C14.4521 15.8818 14.1709 15.6797 14.0215 15.1611L13.4766 13.5527H10.4883L9.94336 15.1611C9.79395 15.6797 9.5127 15.8818 9.1084 15.8818ZM10.8574 12.2871H13.1074L12.0352 9H11.9385L10.8574 12.2871Z" fill="#1C1C1E"/>
</g>
<defs>
<clipPath id="clip0_10_861">
<rect width="24" height="24" fill="white"/>
</clipPath>
</defs>
</svg>
