<svg width="24" height="24" viewBox="0 0 24 24" fill="none" xmlns="http://www.w3.org/2000/svg">
<g clip-path="url(#clip0_10_912)">
<path d="M11.9912 20.7422C16.9746 20.7422 21.0879 16.6289 21.0879 11.6543C21.0879 6.67969 16.9658 2.56641 11.9824 2.56641C7.00781 2.56641 2.90332 6.67969 2.90332 11.6543C2.90332 16.6289 7.0166 20.7422 11.9912 20.7422ZM12.0615 16.4795C9.44238 16.4795 7.24512 14.2822 7.24512 11.6631C7.24512 9.03516 9.43359 6.84668 12.0615 6.84668C14.6807 6.84668 16.8691 9.04395 16.8691 11.6631C16.8691 14.291 14.6807 16.4795 12.0615 16.4795ZM12.0615 14.8447C13.793 14.8447 15.2256 13.3945 15.2256 11.6631C15.2256 9.94043 13.7842 8.48145 12.0615 8.48145C10.3213 8.48145 8.88867 9.93164 8.88867 11.6631C8.88867 13.3857 10.3389 14.8447 12.0615 14.8447Z" fill="#1C1C1E"/>
</g>
<defs>
<clipPath id="clip0_10_912">
<rect width="24" height="24" fill="white"/>
</clipPath>
</defs>
</svg>
