<svg width="24" height="24" viewBox="0 0 24 24" fill="none" xmlns="http://www.w3.org/2000/svg">
<g clip-path="url(#clip0_10_943)">
<path d="M12 8.89453C14.1182 8.89453 15.8496 7.1543 15.8496 5.03613C15.8496 2.92676 14.1182 1.18652 12 1.18652C9.86426 1.18652 8.13281 2.92676 8.13281 5.03613C8.13281 7.1543 9.86426 8.89453 12 8.89453ZM5.61035 15.5039C7.71973 15.5039 9.45996 13.7637 9.45996 11.6455C9.45996 9.53613 7.71973 7.7959 5.61035 7.7959C3.47461 7.7959 1.74316 9.53613 1.74316 11.6455C1.74316 13.7637 3.47461 15.5039 5.61035 15.5039ZM18.4072 15.5039C20.5166 15.5039 22.2568 13.7637 22.2568 11.6455C22.2568 9.53613 20.5166 7.7959 18.4072 7.7959C16.2715 7.7959 14.54 9.53613 14.54 11.6455C14.54 13.7637 16.2715 15.5039 18.4072 15.5039ZM12 22.1133C14.1182 22.1133 15.8496 20.3643 15.8496 18.2549C15.8496 16.1455 14.1182 14.4053 12 14.4053C9.86426 14.4053 8.13281 16.1455 8.13281 18.2549C8.13281 20.3643 9.86426 22.1133 12 22.1133Z" fill="#1C1C1E"/>
</g>
<defs>
<clipPath id="clip0_10_943">
<rect width="24" height="24" fill="white"/>
</clipPath>
</defs>
</svg>
