<svg width="24" height="24" viewBox="0 0 24 24" fill="none" xmlns="http://www.w3.org/2000/svg">
<g clip-path="url(#clip0_10_920)">
<path d="M11.9912 20.7422C16.9746 20.7422 21.0879 16.6289 21.0879 11.6543C21.0879 6.67969 16.9658 2.56641 11.9824 2.56641C7.00781 2.56641 2.90332 6.67969 2.90332 11.6543C2.90332 16.6289 7.0166 20.7422 11.9912 20.7422ZM11.9912 18.9316C7.95703 18.9316 4.73145 15.6885 4.73145 11.6543C4.73145 7.62012 7.95703 4.38574 11.9824 4.38574C16.0166 4.38574 19.2598 7.62012 19.2686 11.6543C19.2773 15.6885 16.0254 18.9316 11.9912 18.9316ZM12.0527 16.2949C14.584 16.2949 16.6846 14.1943 16.6846 11.6719C16.6846 9.14941 14.5752 7.04004 12.0527 7.04004C9.53027 7.04004 7.42969 9.14062 7.42969 11.6719C7.42969 14.1855 9.53906 16.2949 12.0527 16.2949ZM12.0527 14.7393C10.3916 14.7393 8.99414 13.333 8.99414 11.6719C8.99414 9.99316 10.3828 8.5957 12.0527 8.5957C13.7227 8.5957 15.1201 10.002 15.1201 11.6719C15.1201 13.3418 13.7314 14.7393 12.0527 14.7393Z" fill="#1C1C1E"/>
</g>
<defs>
<clipPath id="clip0_10_920">
<rect width="24" height="24" fill="white"/>
</clipPath>
</defs>
</svg>
