<svg width="24" height="24" viewBox="0 0 24 24" fill="none" xmlns="http://www.w3.org/2000/svg">
<g clip-path="url(#clip0_10_948)">
<path d="M6.67383 19.8809H17.3174C19.2246 19.8809 20.209 18.8965 20.209 17.0156V6.31934C20.209 4.43848 19.2246 3.4541 17.3174 3.4541H6.67383C4.77539 3.4541 3.78223 4.42969 3.78223 6.31934V17.0156C3.78223 18.8965 4.77539 19.8809 6.67383 19.8809ZM12.0615 16.084C9.66211 16.084 7.64941 14.0625 7.64941 11.6631C7.64941 9.25488 9.65332 7.24219 12.0615 7.24219C14.4697 7.24219 16.4824 9.25488 16.4824 11.6631C16.4824 14.0713 14.4785 16.084 12.0615 16.084Z" fill="#1C1C1E"/>
</g>
<defs>
<clipPath id="clip0_10_948">
<rect width="24" height="24" fill="white"/>
</clipPath>
</defs>
</svg>
