<svg width="24" height="24" viewBox="0 0 24 24" fill="none" xmlns="http://www.w3.org/2000/svg">
<g clip-path="url(#clip0_10_930)">
<path d="M8.45801 5.99414C8.45801 6.96973 8.55469 7.29492 9.19629 7.93652L10.9014 9.65039C11.5518 10.292 12.457 10.292 13.1074 9.65039L14.8125 7.93652C15.4541 7.29492 15.5508 6.96973 15.5508 5.99414V3.78809C15.5508 2.58398 14.8916 1.85449 13.8281 1.85449H10.1807C9.11719 1.85449 8.45801 2.58398 8.45801 3.78809V5.99414ZM6.33984 15.2051C7.31543 15.2051 7.64062 15.1084 8.28223 14.4668L9.99609 12.7529C10.6377 12.1025 10.6377 11.1973 9.99609 10.5557L8.28223 8.8418C7.64062 8.2002 7.31543 8.10352 6.33984 8.10352H4.13379C2.93848 8.10352 2.2002 8.7627 2.2002 9.83496V13.4736C2.2002 14.5459 2.93848 15.2051 4.13379 15.2051H6.33984ZM17.6602 8.10352C16.6846 8.10352 16.3594 8.2002 15.7178 8.8418L14.0127 10.5557C13.3623 11.2061 13.3623 12.1113 14.0127 12.7529L15.7178 14.4668C16.3594 15.1084 16.6846 15.2051 17.6602 15.2051H19.875C21.0703 15.2051 21.7998 14.5459 21.7998 13.4736V9.83496C21.7998 8.7627 21.0703 8.10352 19.875 8.10352H17.6602ZM15.5508 17.3057C15.5508 16.3301 15.4541 16.0049 14.8125 15.3633L13.1074 13.6582C12.457 13.0078 11.5518 13.0078 10.9014 13.6582L9.19629 15.3633C8.55469 16.0049 8.45801 16.3301 8.45801 17.3057V19.5205C8.45801 20.7158 9.11719 21.4453 10.1807 21.4453H13.8281C14.8916 21.4453 15.5508 20.7158 15.5508 19.5205V17.3057Z" fill="#1C1C1E"/>
</g>
<defs>
<clipPath id="clip0_10_930">
<rect width="24" height="24" fill="white"/>
</clipPath>
</defs>
</svg>
