<svg width="24" height="24" viewBox="0 0 24 24" fill="none" xmlns="http://www.w3.org/2000/svg">
<g clip-path="url(#clip0_10_899)">
<path d="M8.45801 5.99414C8.45801 6.96973 8.55469 7.29492 9.19629 7.93652L10.9014 9.65039C11.5518 10.292 12.457 10.292 13.1074 9.65039L14.8125 7.93652C15.4541 7.29492 15.5508 6.96973 15.5508 5.99414V3.78809C15.5508 2.58398 14.8916 1.85449 13.8281 1.85449H10.1807C9.11719 1.85449 8.45801 2.58398 8.45801 3.78809V5.99414ZM9.93457 6.02051V3.91992C9.93457 3.55078 10.1543 3.33105 10.5322 3.33105H13.4766C13.8545 3.33105 14.0742 3.55078 14.0742 3.91992V6.02051C14.0742 6.41602 14.0215 6.63574 13.749 6.89941L12.1934 8.45508C12.0615 8.58691 11.9385 8.58691 11.8066 8.45508L10.2598 6.89941C9.9873 6.63574 9.93457 6.41602 9.93457 6.02051ZM6.33984 15.2051C7.31543 15.2051 7.64062 15.1084 8.28223 14.4668L9.99609 12.7529C10.6377 12.1025 10.6377 11.1973 9.99609 10.5557L8.28223 8.8418C7.64062 8.2002 7.31543 8.10352 6.33984 8.10352H4.13379C2.93848 8.10352 2.2002 8.7627 2.2002 9.83496V13.4736C2.2002 14.5459 2.93848 15.2051 4.13379 15.2051H6.33984ZM17.6602 8.10352C16.6846 8.10352 16.3594 8.2002 15.7178 8.8418L14.0127 10.5557C13.3623 11.2061 13.3623 12.1113 14.0127 12.7529L15.7178 14.4668C16.3594 15.1084 16.6846 15.2051 17.6602 15.2051H19.875C21.0703 15.2051 21.7998 14.5459 21.7998 13.4736V9.83496C21.7998 8.7627 21.0703 8.10352 19.875 8.10352H17.6602ZM6.36621 13.7197H4.26562C3.89648 13.7197 3.67676 13.5088 3.67676 13.1309V10.1777C3.67676 9.7998 3.89648 9.58008 4.26562 9.58008H6.36621C6.76172 9.58008 6.98145 9.6416 7.25391 9.90527L8.80078 11.4609C8.93262 11.5928 8.93262 11.7158 8.80078 11.8477L7.25391 13.4033C6.98145 13.667 6.76172 13.7197 6.36621 13.7197ZM17.6426 9.58008H19.7344C20.1035 9.58008 20.3232 9.7998 20.3232 10.1777V13.1309C20.3232 13.5088 20.1035 13.7285 19.7344 13.7285H17.6426C17.2383 13.7285 17.0186 13.667 16.7549 13.4033L15.1992 11.8477C15.0674 11.7158 15.0762 11.584 15.1992 11.4609L16.7549 9.90527C17.0186 9.6416 17.2383 9.58008 17.6426 9.58008ZM15.5508 17.3057C15.5508 16.3301 15.4541 16.0049 14.8125 15.3633L13.1074 13.6582C12.457 13.0078 11.5518 13.0078 10.9014 13.6582L9.19629 15.3633C8.55469 16.0049 8.45801 16.3301 8.45801 17.3057V19.5205C8.45801 20.7158 9.11719 21.4453 10.1807 21.4453H13.8281C14.8916 21.4453 15.5508 20.7158 15.5508 19.5205V17.3057ZM14.0742 17.2881V19.3799C14.0742 19.749 13.8545 19.9688 13.4766 19.9688H10.5322C10.1543 19.9688 9.93457 19.749 9.93457 19.3799V17.2881C9.93457 16.8838 9.9873 16.6641 10.2598 16.4004L11.8154 14.8447C11.9473 14.7129 12.0703 14.7217 12.2021 14.8447L13.749 16.4004C14.0215 16.6641 14.0742 16.8838 14.0742 17.2881Z" fill="#1C1C1E"/>
</g>
<defs>
<clipPath id="clip0_10_899">
<rect width="24" height="24" fill="white"/>
</clipPath>
</defs>
</svg>
