<svg width="24" height="24" viewBox="0 0 24 24" fill="none" xmlns="http://www.w3.org/2000/svg">
<g clip-path="url(#clip0_10_940)">
<path d="M11.9912 20.7422C16.9746 20.7422 21.0879 16.6289 21.0879 11.6543C21.0879 6.67969 16.9658 2.56641 11.9824 2.56641C7.00781 2.56641 2.90332 6.67969 2.90332 11.6543C2.90332 16.6289 7.0166 20.7422 11.9912 20.7422ZM6.31348 10.9775C6.31348 10.8369 6.375 10.6963 6.49805 10.5908L11.2969 6.57422C11.7188 6.21387 12.2812 6.21387 12.7031 6.57422L14.8564 8.37598V7.59375C14.8564 7.38281 15.0059 7.25098 15.208 7.25098H15.8232C16.0342 7.25098 16.166 7.38281 16.166 7.59375V9.4834L17.4932 10.5908C17.6074 10.6963 17.6689 10.8281 17.6689 10.9863C17.6689 11.2588 17.458 11.4434 17.1855 11.4434C17.0361 11.4434 16.9131 11.3555 16.7812 11.2588L12.2285 7.43555C12.0791 7.3125 11.9209 7.30371 11.7627 7.43555L7.20117 11.2588C7.08691 11.3555 6.95508 11.4434 6.80566 11.4434C6.49805 11.4434 6.31348 11.2236 6.31348 10.9775ZM7.83398 15.1436V11.6104L11.7012 8.3584C11.8857 8.20898 12.0967 8.2002 12.2812 8.3584L16.1572 11.6104V15.1436C16.1572 15.8027 15.7354 16.207 15.0498 16.207H8.93262C8.24707 16.207 7.83398 15.8027 7.83398 15.1436ZM10.7783 15.2402H13.2041V12.3574C13.2041 12.1377 13.0811 11.9971 12.8438 11.9971H11.1387C10.9189 11.9971 10.7783 12.1377 10.7783 12.3574V15.2402Z" fill="#1C1C1E"/>
</g>
<defs>
<clipPath id="clip0_10_940">
<rect width="24" height="24" fill="white"/>
</clipPath>
</defs>
</svg>
