<svg width="24" height="24" viewBox="0 0 24 24" fill="none" xmlns="http://www.w3.org/2000/svg">
<g clip-path="url(#clip0_10_931)">
<path d="M11.9912 20.7422C16.9746 20.7422 21.0879 16.6289 21.0879 11.6543C21.0879 6.67969 16.9658 2.56641 11.9824 2.56641C7.00781 2.56641 2.90332 6.67969 2.90332 11.6543C2.90332 16.6289 7.0166 20.7422 11.9912 20.7422ZM11.9912 18.9316C7.95703 18.9316 4.73145 15.6885 4.73145 11.6543C4.73145 7.62012 7.95703 4.38574 11.9824 4.38574C16.0166 4.38574 19.2598 7.62012 19.2686 11.6543C19.2773 15.6885 16.0254 18.9316 11.9912 18.9316ZM6.5332 11.0039C6.5332 11.2412 6.71777 11.4521 7.00781 11.4521C7.14844 11.4521 7.27148 11.373 7.37695 11.2764L11.7715 7.60254C11.9209 7.4707 12.0703 7.47949 12.2197 7.60254L16.6055 11.2764C16.7197 11.373 16.8428 11.4521 16.9834 11.4521C17.2471 11.4521 17.4492 11.2764 17.4492 11.0215C17.4492 10.8633 17.3965 10.7402 17.2734 10.6348L16.0078 9.57129V7.76074C16.0078 7.55859 15.876 7.42676 15.6826 7.42676H15.085C14.8916 7.42676 14.751 7.55859 14.751 7.76074V8.52539L12.6768 6.77637C12.2637 6.4248 11.7363 6.4248 11.3232 6.77637L6.70898 10.6436C6.59473 10.7402 6.5332 10.8809 6.5332 11.0039ZM7.99219 15.0205C7.99219 15.6533 8.3877 16.04 9.05566 16.04H14.9355C15.5947 16.04 15.9902 15.6533 15.9902 15.0205V11.6016L12.2637 8.48145C12.0967 8.33203 11.8945 8.34082 11.7188 8.48145L7.99219 11.6016V15.0205ZM13.1602 15.1084H10.8311V12.3311C10.8311 12.1289 10.9629 11.9883 11.1738 11.9883H12.8174C13.0371 11.9883 13.1602 12.1289 13.1602 12.3311V15.1084Z" fill="#1C1C1E"/>
</g>
<defs>
<clipPath id="clip0_10_931">
<rect width="24" height="24" fill="white"/>
</clipPath>
</defs>
</svg>
