<svg width="24" height="24" viewBox="0 0 24 24" fill="none" xmlns="http://www.w3.org/2000/svg">
<g clip-path="url(#clip0_10_923)">
<path d="M1.25098 11.2148C1.25098 11.6719 1.60254 12.0674 2.16504 12.0674C2.4375 12.0674 2.68359 11.918 2.90332 11.7422L3.90527 10.8984V19.0723C3.90527 20.373 4.6875 21.1465 6.03223 21.1465H17.9238C19.2598 21.1465 20.0508 20.373 20.0508 19.0723V10.8545L21.1055 11.7422C21.3164 11.918 21.5625 12.0674 21.835 12.0674C22.3535 12.0674 22.749 11.7422 22.749 11.2324C22.749 10.9336 22.6348 10.6963 22.4062 10.5029L20.0508 8.5166V4.77246C20.0508 4.37695 19.7959 4.13086 19.4004 4.13086H18.1875C17.8008 4.13086 17.5371 4.37695 17.5371 4.77246V6.40723L13.2568 2.8125C12.4922 2.1709 11.5254 2.1709 10.7607 2.8125L1.60254 10.5029C1.36523 10.6963 1.25098 10.96 1.25098 11.2148ZM14.5312 13.6406C14.5312 13.2275 14.2676 12.9639 13.8545 12.9639H10.1631C9.75 12.9639 9.47754 13.2275 9.47754 13.6406V19.3975H6.49805C5.95312 19.3975 5.6543 19.0898 5.6543 18.5361V9.43066L11.6221 4.4209C11.8682 4.20996 12.1494 4.20996 12.3955 4.4209L18.293 9.37793V18.5361C18.293 19.0898 17.9941 19.3975 17.4492 19.3975H14.5312V13.6406Z" fill="#1C1C1E"/>
</g>
<defs>
<clipPath id="clip0_10_923">
<rect width="24" height="24" fill="white"/>
</clipPath>
</defs>
</svg>
