<svg width="24" height="24" viewBox="0 0 24 24" fill="none" xmlns="http://www.w3.org/2000/svg">
<g clip-path="url(#clip0_10_919)">
<path d="M1.25098 11.2148C1.25098 11.6719 1.60254 12.0674 2.16504 12.0674C2.4375 12.0674 2.68359 11.918 2.90332 11.7422L11.6221 4.4209C11.8682 4.20996 12.1494 4.20996 12.3955 4.4209L21.1055 11.7422C21.3164 11.918 21.5625 12.0674 21.835 12.0674C22.3535 12.0674 22.749 11.7422 22.749 11.2324C22.749 10.9336 22.6348 10.6963 22.4062 10.5029L19.9365 8.42871V4.77246C19.9365 4.37695 19.6816 4.13086 19.2861 4.13086H18.0732C17.6865 4.13086 17.4229 4.37695 17.4229 4.77246V6.31055L13.2568 2.8125C12.4922 2.1709 11.5254 2.1709 10.7607 2.8125L1.60254 10.5029C1.36523 10.6963 1.25098 10.96 1.25098 11.2148ZM4.10742 19.1162C4.10742 20.3818 4.89844 21.1465 6.20801 21.1465H17.8008C19.1016 21.1465 19.9014 20.3818 19.9014 19.1162V12.4365L12.5449 6.27539C12.2021 5.97656 11.7891 5.98535 11.4551 6.27539L4.10742 12.4365V19.1162ZM14.3115 19.4941H9.69727V13.8691C9.69727 13.4561 9.96973 13.1924 10.3828 13.1924H13.6348C14.0479 13.1924 14.3115 13.4561 14.3115 13.8691V19.4941Z" fill="#1C1C1E"/>
</g>
<defs>
<clipPath id="clip0_10_919">
<rect width="24" height="24" fill="white"/>
</clipPath>
</defs>
</svg>
