<svg width="24" height="24" viewBox="0 0 24 24" fill="none" xmlns="http://www.w3.org/2000/svg">
<g clip-path="url(#clip0_10_856)">
<path d="M11.9912 20.7422C16.9746 20.7422 21.0879 16.6289 21.0879 11.6543C21.0879 6.67969 16.9658 2.56641 11.9824 2.56641C7.00781 2.56641 2.90332 6.67969 2.90332 11.6543C2.90332 16.6289 7.0166 20.7422 11.9912 20.7422ZM10.3213 15.7236C9.73242 15.7236 9.40723 15.3105 9.40723 14.6865V8.36719C9.40723 7.74316 9.73242 7.33008 10.3213 7.33008C10.9189 7.33008 11.2529 7.72559 11.2529 8.36719V14.2383H14.373C14.8389 14.2383 15.1553 14.5107 15.1553 14.9766C15.1553 15.4424 14.8389 15.7236 14.373 15.7236H10.3213Z" fill="#1C1C1E"/>
</g>
<defs>
<clipPath id="clip0_10_856">
<rect width="24" height="24" fill="white"/>
</clipPath>
</defs>
</svg>
