<svg width="24" height="24" viewBox="0 0 24 24" fill="none" xmlns="http://www.w3.org/2000/svg">
<g clip-path="url(#clip0_10_913)">
<path d="M11.9912 16.6025C17.6777 16.6025 21.3164 14.0801 21.3164 10.5557C21.3164 7.03125 17.6689 4.50879 11.9824 4.50879C6.31348 4.50879 2.6748 7.03125 2.6748 10.5557C2.6748 14.0801 6.31348 16.6025 11.9912 16.6025ZM11.9912 14.8359C7.55273 14.8359 4.57324 13.1045 4.57324 10.5557C4.57324 8.00684 7.55273 6.27539 11.9824 6.27539C16.4297 6.27539 19.418 8.00684 19.418 10.5557C19.418 13.1045 16.4385 14.8359 11.9912 14.8359ZM10.8311 13.2891H13.4854C13.8896 13.2891 14.1533 13.0342 14.1533 12.6562C14.1533 12.2695 13.8896 12.0234 13.4854 12.0234H11.5869V8.31445C11.5869 7.80469 11.2969 7.48828 10.8311 7.48828C10.374 7.48828 10.0752 7.80469 10.0752 8.31445V12.4629C10.0752 12.9639 10.3652 13.2891 10.8311 13.2891ZM11.9912 20.5488C14.2676 20.5488 15.6475 19.4854 15.6475 17.6748V17.376C14.5312 17.6221 13.3096 17.7539 11.9912 17.7539C10.6816 17.7539 9.45996 17.6221 8.34375 17.376V17.6748C8.34375 19.4854 9.72363 20.5488 11.9912 20.5488Z" fill="#1C1C1E"/>
</g>
<defs>
<clipPath id="clip0_10_913">
<rect width="24" height="24" fill="white"/>
</clipPath>
</defs>
</svg>
