<svg width="24" height="24" viewBox="0 0 24 24" fill="none" xmlns="http://www.w3.org/2000/svg">
<g clip-path="url(#clip0_10_911)">
<path d="M12 16.3916C17.792 16.3916 21.2637 13.7812 21.2637 10.5557C21.2637 7.33008 17.792 4.71973 11.9912 4.71973C6.20801 4.71973 2.73633 7.33008 2.73633 10.5557C2.73633 13.7812 6.20801 16.3916 12 16.3916ZM10.8135 13.4824C10.3125 13.4824 9.99609 13.1221 9.99609 12.5771V8.2002C9.99609 7.64648 10.3213 7.30371 10.8135 7.30371C11.3232 7.30371 11.6396 7.64648 11.6396 8.2002V12.1025H13.6348C14.0654 12.1025 14.3555 12.375 14.3555 12.7881C14.3555 13.2012 14.0654 13.4824 13.6348 13.4824H10.8135ZM12 20.5488C14.2764 20.5488 15.6562 19.4854 15.6562 17.6748V17.3057C14.5225 17.543 13.3008 17.6836 12 17.6836C10.6992 17.6836 9.47754 17.543 8.34375 17.3057V17.6748C8.34375 19.4854 9.72363 20.5488 12 20.5488Z" fill="#1C1C1E"/>
</g>
<defs>
<clipPath id="clip0_10_911">
<rect width="24" height="24" fill="white"/>
</clipPath>
</defs>
</svg>
