<svg width="24" height="24" viewBox="0 0 24 24" fill="none" xmlns="http://www.w3.org/2000/svg">
<g clip-path="url(#clip0_10_946)">
<path d="M8.87988 19.8809H15.1201C20.376 19.8809 22.6699 17.5166 22.6699 12.4717V6.31934C22.6699 4.43848 21.6768 3.4541 19.7783 3.4541H4.22168C2.32324 3.4541 1.33008 4.42969 1.33008 6.31934V12.4717C1.33008 17.5166 3.61523 19.8809 8.87988 19.8809ZM10.3389 15.75C9.75 15.75 9.4248 15.3457 9.4248 14.7129V8.39355C9.4248 7.76953 9.75 7.36523 10.3389 7.36523C10.9365 7.36523 11.2705 7.76074 11.2705 8.39355V14.2734H14.3906C14.8564 14.2734 15.1729 14.5459 15.1729 15.0029C15.1729 15.4688 14.8564 15.75 14.3906 15.75H10.3389Z" fill="#1C1C1E"/>
</g>
<defs>
<clipPath id="clip0_10_946">
<rect width="24" height="24" fill="white"/>
</clipPath>
</defs>
</svg>
