<svg width="24" height="24" viewBox="0 0 24 24" fill="none" xmlns="http://www.w3.org/2000/svg">
<g clip-path="url(#clip0_10_896)">
<path d="M8.87988 19.8809H15.1201C20.376 19.8809 22.6699 17.5166 22.6699 12.4717V6.31934C22.6699 4.43848 21.6768 3.4541 19.7783 3.4541H4.22168C2.32324 3.4541 1.33008 4.42969 1.33008 6.31934V12.4717C1.33008 17.5166 3.61523 19.8809 8.87988 19.8809ZM8.91504 18.1143C4.8457 18.1143 3.0791 16.3477 3.0791 12.5332V6.47754C3.0791 5.64258 3.53613 5.20312 4.33594 5.20312H19.6641C20.4551 5.20312 20.9121 5.64258 20.9121 6.47754V12.5332C20.9121 16.3477 19.1543 18.1143 15.085 18.1143H8.91504ZM10.4092 15.5918H14.3115C14.7422 15.5918 15.041 15.3281 15.041 14.8887C15.041 14.4404 14.7422 14.1855 14.3115 14.1855H11.2881V8.5166C11.2881 7.90137 10.9717 7.53223 10.4092 7.53223C9.84668 7.53223 9.53906 7.91895 9.53906 8.5166V14.6162C9.53906 15.2051 9.84668 15.5918 10.4092 15.5918Z" fill="#1C1C1E"/>
</g>
<defs>
<clipPath id="clip0_10_896">
<rect width="24" height="24" fill="white"/>
</clipPath>
</defs>
</svg>
