<svg width="24" height="24" viewBox="0 0 24 24" fill="none" xmlns="http://www.w3.org/2000/svg">
<g clip-path="url(#clip0_10_895)">
<path d="M8.87988 19.8809H15.1201C20.376 19.8809 22.6699 17.5166 22.6699 12.4717V6.31934C22.6699 4.43848 21.6768 3.4541 19.7783 3.4541H4.22168C2.32324 3.4541 1.33008 4.42969 1.33008 6.31934V12.4717C1.33008 17.5166 3.61523 19.8809 8.87988 19.8809ZM8.91504 18.1143C4.8457 18.1143 3.0791 16.3477 3.0791 12.5332V6.47754C3.0791 5.64258 3.53613 5.20312 4.33594 5.20312H19.6641C20.4551 5.20312 20.9121 5.64258 20.9121 6.47754V12.5332C20.9121 16.3477 19.1543 18.1143 15.085 18.1143H8.91504ZM8.23828 15.5303H12.0879C12.5098 15.5303 12.7998 15.2754 12.7998 14.8447C12.7998 14.4141 12.5098 14.168 12.0879 14.168H9.09961V8.55176C9.09961 7.96289 8.79199 7.60254 8.23828 7.60254C7.69336 7.60254 7.39453 7.97168 7.39453 8.55176V14.5811C7.39453 15.1523 7.69336 15.5303 8.23828 15.5303ZM15.7793 15.7324C16.2979 15.7324 16.6143 15.416 16.6143 14.8271V8.5166C16.6143 7.94531 16.2627 7.61133 15.709 7.61133C15.3398 7.61133 15.0586 7.70801 14.6455 7.98926L13.1514 9C12.9141 9.14941 12.8174 9.31641 12.8174 9.58008C12.8174 9.89648 13.0635 10.1777 13.3887 10.1777C13.5381 10.1777 13.6436 10.1514 13.8545 10.002L14.8916 9.3252H14.9531V14.8271C14.9531 15.416 15.2695 15.7324 15.7793 15.7324Z" fill="#1C1C1E"/>
</g>
<defs>
<clipPath id="clip0_10_895">
<rect width="24" height="24" fill="white"/>
</clipPath>
</defs>
</svg>
