<svg width="24" height="24" viewBox="0 0 24 24" fill="none" xmlns="http://www.w3.org/2000/svg">
<g clip-path="url(#clip0_10_894)">
<path d="M8.87988 19.8809H15.1201C20.376 19.8809 22.6699 17.5166 22.6699 12.4717V6.31934C22.6699 4.43848 21.6768 3.4541 19.7783 3.4541H4.22168C2.32324 3.4541 1.33008 4.42969 1.33008 6.31934V12.4717C1.33008 17.5166 3.61523 19.8809 8.87988 19.8809ZM8.08887 15.6797C7.52637 15.6797 7.20996 15.293 7.20996 14.6865V8.4375C7.20996 7.83105 7.51758 7.44434 8.08887 7.44434C8.66895 7.44434 8.98535 7.81348 8.98535 8.4375V14.2471H12.0879C12.5273 14.2471 12.835 14.5107 12.835 14.9678C12.835 15.4072 12.5273 15.6797 12.0879 15.6797H8.08887ZM15.9287 15.8906C15.4014 15.8906 15.0762 15.5566 15.0762 14.9414V9.2373H14.9971L13.9336 9.94922C13.7051 10.1074 13.5996 10.125 13.4414 10.125C13.0986 10.125 12.8438 9.83496 12.8438 9.50098C12.8438 9.22852 12.9492 9.06152 13.1953 8.88574L14.7422 7.83984C15.1816 7.5498 15.4717 7.44434 15.8584 7.44434C16.4385 7.44434 16.8076 7.80469 16.8076 8.39355V14.9414C16.8076 15.5566 16.4736 15.8906 15.9287 15.8906Z" fill="#1C1C1E"/>
</g>
<defs>
<clipPath id="clip0_10_894">
<rect width="24" height="24" fill="white"/>
</clipPath>
</defs>
</svg>
