<svg width="24" height="24" viewBox="0 0 24 24" fill="none" xmlns="http://www.w3.org/2000/svg">
<g clip-path="url(#clip0_10_893)">
<path d="M8.87988 3.4541C3.61523 3.4541 1.33008 5.81836 1.33008 10.8545V17.0156C1.33008 18.8965 2.32324 19.8809 4.22168 19.8809H19.7783C21.6768 19.8809 22.6699 18.8965 22.6699 17.0156V10.8545C22.6699 5.81836 20.376 3.4541 15.1201 3.4541H8.87988ZM8.91504 5.2207H15.085C19.1543 5.2207 20.9121 6.9873 20.9121 10.8018V16.8574C20.9121 17.6924 20.4551 18.1318 19.6641 18.1318H4.33594C3.53613 18.1318 3.0791 17.6924 3.0791 16.8574V10.8018C3.0791 6.9873 4.8457 5.2207 8.91504 5.2207ZM7.37695 15.5391H11.0771C11.499 15.5391 11.7891 15.2754 11.7891 14.8535C11.7891 14.4229 11.499 14.168 11.0771 14.168H8.22949V8.56055C8.22949 7.97168 7.92188 7.61133 7.37695 7.61133C6.82324 7.61133 6.5332 7.98047 6.5332 8.56055V14.5898C6.5332 15.1611 6.83203 15.5391 7.37695 15.5391ZM13.2568 15.5391H17.5723C17.9941 15.5391 18.2754 15.2754 18.2754 14.8711C18.2754 14.4492 17.9941 14.2031 17.5723 14.2031H14.8125V14.1416L16.6494 12.2607C17.4668 11.4346 17.9854 10.749 17.9854 9.82617C17.9854 8.49902 16.8955 7.61133 15.2432 7.61133C13.9688 7.61133 12.8701 8.33203 12.5713 9.31641C12.5273 9.44824 12.5098 9.57129 12.5098 9.69434C12.5098 10.0898 12.7822 10.3359 13.1953 10.3359C13.5469 10.3359 13.7227 10.125 13.8896 9.87891C14.1182 9.4043 14.5137 8.90332 15.2695 8.90332C15.9902 8.90332 16.4736 9.3252 16.4736 9.95801C16.4736 10.5293 15.999 11.0127 15.4717 11.5488L12.8438 14.2471C12.6328 14.4492 12.5537 14.6602 12.5537 14.8799C12.5537 15.2754 12.8262 15.5391 13.2568 15.5391Z" fill="#1C1C1E"/>
</g>
<defs>
<clipPath id="clip0_10_893">
<rect width="24" height="24" fill="white"/>
</clipPath>
</defs>
</svg>
