<svg width="24" height="24" viewBox="0 0 24 24" fill="none" xmlns="http://www.w3.org/2000/svg">
<g clip-path="url(#clip0_10_892)">
<path d="M8.87988 3.4541C3.61523 3.4541 1.33008 5.81836 1.33008 10.8545V17.0156C1.33008 18.8965 2.32324 19.8809 4.22168 19.8809H19.7783C21.6768 19.8809 22.6699 18.8965 22.6699 17.0156V10.8545C22.6699 5.81836 20.376 3.4541 15.1201 3.4541H8.87988ZM7.18359 15.6885C6.6123 15.6885 6.30469 15.293 6.30469 14.6865V8.44629C6.30469 7.83984 6.6123 7.44434 7.18359 7.44434C7.76367 7.44434 8.08008 7.82227 8.08008 8.44629V14.2559H11.0244C11.4727 14.2559 11.7803 14.5195 11.7803 14.9678C11.7803 15.416 11.4814 15.6885 11.0244 15.6885H7.18359ZM13.3096 15.6885C12.8613 15.6885 12.5713 15.416 12.5713 14.9941C12.5713 14.7568 12.6504 14.5547 12.8789 14.3262L15.6035 11.54C16.1484 10.9863 16.6318 10.4766 16.6318 9.8877C16.6318 9.2373 16.1396 8.80664 15.3926 8.80664C14.6191 8.80664 14.2148 9.31641 13.9688 9.80859C13.8018 10.0635 13.6172 10.2832 13.2393 10.2832C12.8174 10.2832 12.5361 10.0283 12.5361 9.61523C12.5361 9.4834 12.5449 9.35156 12.5889 9.21973C12.8965 8.2002 14.0479 7.44434 15.375 7.44434C17.0889 7.44434 18.2227 8.37598 18.2227 9.75586C18.2227 10.7139 17.6865 11.4258 16.8428 12.2871L14.9443 14.2295V14.291H17.792C18.2314 14.291 18.5303 14.5547 18.5303 14.9854C18.5303 15.416 18.2314 15.6885 17.792 15.6885H13.3096Z" fill="#1C1C1E"/>
</g>
<defs>
<clipPath id="clip0_10_892">
<rect width="24" height="24" fill="white"/>
</clipPath>
</defs>
</svg>
