<svg width="24" height="24" viewBox="0 0 24 24" fill="none" xmlns="http://www.w3.org/2000/svg">
<g clip-path="url(#clip0_10_886)">
<path d="M8.87988 19.8809H15.1201C20.376 19.8809 22.6699 17.5166 22.6699 12.4717V6.31934C22.6699 4.43848 21.6768 3.4541 19.7783 3.4541H4.22168C2.32324 3.4541 1.33008 4.42969 1.33008 6.31934V12.4717C1.33008 17.5166 3.61523 19.8809 8.87988 19.8809ZM8.91504 18.1143C4.8457 18.1143 3.0791 16.3477 3.0791 12.5332V6.47754C3.0791 5.64258 3.53613 5.20312 4.33594 5.20312H19.6641C20.4551 5.20312 20.9121 5.64258 20.9121 6.47754V12.5332C20.9121 16.3477 19.1543 18.1143 15.085 18.1143H8.91504ZM6.88477 15.5303H10.7256C11.1475 15.5303 11.4375 15.2666 11.4375 14.8447C11.4375 14.4141 11.1475 14.1592 10.7256 14.1592H7.7373V8.55176C7.7373 7.96289 7.42969 7.60254 6.88477 7.60254C6.33105 7.60254 6.04102 7.97168 6.04102 8.55176V14.5811C6.04102 15.1523 6.33984 15.5303 6.88477 15.5303ZM13.5117 15.5391H16.0869C17.8184 15.5391 18.9521 14.6777 18.9521 13.3418C18.9521 12.2871 18.249 11.5576 17.0977 11.417V11.3555C17.9678 11.1621 18.5127 10.4941 18.5127 9.63281C18.5127 8.45508 17.5635 7.69922 16.0693 7.69922H13.5117C12.9229 7.69922 12.5977 8.0332 12.5977 8.62207V14.6074C12.5977 15.2051 12.9229 15.5391 13.5117 15.5391ZM14.1533 10.9775V8.83301H15.6738C16.4736 8.83301 16.9658 9.22852 16.9658 9.8877C16.9658 10.582 16.3945 10.9775 15.3486 10.9775H14.1533ZM14.1533 14.3789V12.0146H15.7969C16.7637 12.0146 17.3262 12.4541 17.3262 13.2188C17.3262 14.0098 16.7197 14.3789 15.4453 14.3789H14.1533Z" fill="#1C1C1E"/>
</g>
<defs>
<clipPath id="clip0_10_886">
<rect width="24" height="24" fill="white"/>
</clipPath>
</defs>
</svg>
