<svg width="24" height="24" viewBox="0 0 24 24" fill="none" xmlns="http://www.w3.org/2000/svg">
<g clip-path="url(#clip0_10_885)">
<path d="M8.87988 19.8809H15.1201C20.376 19.8809 22.6699 17.5166 22.6699 12.4717V6.31934C22.6699 4.43848 21.6768 3.4541 19.7783 3.4541H4.22168C2.32324 3.4541 1.33008 4.42969 1.33008 6.31934V12.4717C1.33008 17.5166 3.61523 19.8809 8.87988 19.8809ZM6.67383 15.6797C6.10254 15.6797 5.78613 15.2842 5.78613 14.6777V8.4375C5.78613 7.83105 6.10254 7.43555 6.67383 7.43555C7.25391 7.43555 7.5791 7.81348 7.5791 8.4375V14.2471H10.6641C11.1123 14.2471 11.4199 14.5107 11.4199 14.959C11.4199 15.4072 11.1123 15.6797 10.6641 15.6797H6.67383ZM13.582 15.6885C12.958 15.6885 12.6064 15.3369 12.6064 14.7129V8.5166C12.6064 7.89258 12.958 7.54102 13.582 7.54102H16.2363C17.7832 7.54102 18.7764 8.33203 18.7764 9.54492C18.7764 10.4414 18.2139 11.1357 17.3086 11.3379V11.3994C18.5039 11.5488 19.2334 12.3135 19.2334 13.4033C19.2334 14.792 18.0469 15.6885 16.2539 15.6885H13.582ZM14.25 10.9424H15.4893C16.5615 10.9424 17.1504 10.5293 17.1504 9.81738C17.1504 9.14062 16.6494 8.72754 15.8232 8.72754H14.25V10.9424ZM14.25 14.4756H15.5771C16.9043 14.4756 17.5283 14.0889 17.5283 13.2715C17.5283 12.4805 16.9395 12.0322 15.9463 12.0322H14.25V14.4756Z" fill="#1C1C1E"/>
</g>
<defs>
<clipPath id="clip0_10_885">
<rect width="24" height="24" fill="white"/>
</clipPath>
</defs>
</svg>
