<svg width="24" height="24" viewBox="0 0 24 24" fill="none" xmlns="http://www.w3.org/2000/svg">
<g clip-path="url(#clip0_10_873)">
<path d="M11.9912 20.7422C16.9746 20.7422 21.0879 16.6289 21.0879 11.6543C21.0879 6.67969 16.9658 2.56641 11.9824 2.56641C7.00781 2.56641 2.90332 6.67969 2.90332 11.6543C2.90332 16.6289 7.0166 20.7422 11.9912 20.7422ZM11.9912 18.9316C7.95703 18.9316 4.73145 15.6885 4.73145 11.6543C4.73145 7.62012 7.95703 4.38574 11.9824 4.38574C16.0166 4.38574 19.2598 7.62012 19.2686 11.6543C19.2773 15.6885 16.0254 18.9316 11.9912 18.9316ZM7.84277 9.44824H16.1572C16.5967 9.44824 16.9043 9.17578 16.9043 8.75391C16.9043 8.34082 16.5967 8.05957 16.1572 8.05957H7.84277C7.40332 8.05957 7.0957 8.34082 7.0957 8.75391C7.0957 9.17578 7.40332 9.44824 7.84277 9.44824ZM7.84277 12.3486H16.1572C16.5967 12.3486 16.9043 12.0762 16.9043 11.6543C16.9043 11.2412 16.5967 10.96 16.1572 10.96H7.84277C7.40332 10.96 7.0957 11.2412 7.0957 11.6543C7.0957 12.0762 7.40332 12.3486 7.84277 12.3486ZM7.84277 15.2578H16.1572C16.5967 15.2578 16.9043 14.9766 16.9043 14.5635C16.9043 14.1416 16.5967 13.8604 16.1572 13.8604H7.84277C7.40332 13.8604 7.0957 14.1416 7.0957 14.5635C7.0957 14.9766 7.40332 15.2578 7.84277 15.2578Z" fill="#1C1C1E"/>
</g>
<defs>
<clipPath id="clip0_10_873">
<rect width="24" height="24" fill="white"/>
</clipPath>
</defs>
</svg>
