<svg width="24" height="24" viewBox="0 0 24 24" fill="none" xmlns="http://www.w3.org/2000/svg">
<g clip-path="url(#clip0_10_872)">
<path d="M11.9912 20.7422C16.9746 20.7422 21.0879 16.6289 21.0879 11.6543C21.0879 6.67969 16.9658 2.56641 11.9824 2.56641C7.00781 2.56641 2.90332 6.67969 2.90332 11.6543C2.90332 16.6289 7.0166 20.7422 11.9912 20.7422ZM7.69336 9.36035C7.22754 9.36035 6.90234 9.07031 6.90234 8.63086C6.90234 8.19141 7.22754 7.90137 7.69336 7.90137H16.3066C16.7725 7.90137 17.0889 8.19141 17.0889 8.63086C17.0889 9.07031 16.7725 9.36035 16.3066 9.36035H7.69336ZM7.69336 12.3838C7.22754 12.3838 6.90234 12.0938 6.90234 11.6455C6.90234 11.2061 7.22754 10.916 7.69336 10.916H16.3066C16.7725 10.916 17.0889 11.2061 17.0889 11.6455C17.0889 12.0938 16.7725 12.3838 16.3066 12.3838H7.69336ZM7.69336 15.3984C7.22754 15.3984 6.90234 15.1084 6.90234 14.6689C6.90234 14.2383 7.22754 13.9395 7.69336 13.9395H16.3066C16.7725 13.9395 17.0889 14.2383 17.0889 14.6689C17.0889 15.1084 16.7725 15.3984 16.3066 15.3984H7.69336Z" fill="#1C1C1E"/>
</g>
<defs>
<clipPath id="clip0_10_872">
<rect width="24" height="24" fill="white"/>
</clipPath>
</defs>
</svg>
