<svg width="24" height="24" viewBox="0 0 24 24" fill="none" xmlns="http://www.w3.org/2000/svg">
<g clip-path="url(#clip0_10_882)">
<path d="M8.87988 3.4541C3.61523 3.4541 1.33008 5.81836 1.33008 10.8545V17.0156C1.33008 18.8965 2.32324 19.8809 4.22168 19.8809H19.7783C21.6768 19.8809 22.6699 18.8965 22.6699 17.0156V10.8545C22.6699 5.81836 20.376 3.4541 15.1201 3.4541H8.87988ZM8.91504 5.2207H15.085C19.1543 5.2207 20.9121 6.9873 20.9121 10.8018V16.8574C20.9121 17.6924 20.4551 18.1318 19.6641 18.1318H4.33594C3.53613 18.1318 3.0791 17.6924 3.0791 16.8574V10.8018C3.0791 6.9873 4.8457 5.2207 8.91504 5.2207ZM7.44727 15.5391H11.2881C11.7188 15.5391 12 15.2842 12 14.8535C12 14.4229 11.71 14.1768 11.2881 14.1768H8.2998V8.56055C8.2998 7.97168 7.99219 7.61133 7.44727 7.61133C6.90234 7.61133 6.60352 7.98047 6.60352 8.56055V14.5898C6.60352 15.1611 6.90234 15.5391 7.44727 15.5391ZM14.9795 15.6445C15.5332 15.6445 15.832 15.2842 15.832 14.6953V9.04395H17.748C18.1699 9.04395 18.4512 8.78027 18.4512 8.36719C18.4512 7.94531 18.1699 7.69043 17.748 7.69043H12.2373C11.8242 7.69043 11.5342 7.94531 11.5342 8.36719C11.5342 8.78027 11.8242 9.04395 12.2373 9.04395H14.1357V14.6953C14.1357 15.2754 14.4346 15.6445 14.9795 15.6445Z" fill="#1C1C1E"/>
</g>
<defs>
<clipPath id="clip0_10_882">
<rect width="24" height="24" fill="white"/>
</clipPath>
</defs>
</svg>
