<svg width="24" height="24" viewBox="0 0 24 24" fill="none" xmlns="http://www.w3.org/2000/svg">
<g clip-path="url(#clip0_10_881)">
<path d="M8.87988 3.4541C3.61523 3.4541 1.33008 5.81836 1.33008 10.8545V17.0156C1.33008 18.8965 2.32324 19.8809 4.22168 19.8809H19.7783C21.6768 19.8809 22.6699 18.8965 22.6699 17.0156V10.8545C22.6699 5.81836 20.376 3.4541 15.1201 3.4541H8.87988ZM7.25391 15.6885C6.68262 15.6885 6.375 15.3018 6.375 14.6953V8.45508C6.375 7.84863 6.68262 7.45312 7.25391 7.45312C7.83398 7.45312 8.15918 7.83105 8.15918 8.45508V14.2646H11.2529C11.6924 14.2646 12 14.5195 12 14.9766C12 15.416 11.7012 15.6885 11.2529 15.6885H7.25391ZM15.0938 15.8115C14.5225 15.8115 14.2061 15.416 14.2061 14.8096V8.94727H12.2461C11.8066 8.94727 11.5078 8.6748 11.5078 8.24414C11.5078 7.7959 11.8066 7.54102 12.2461 7.54102H17.9678C18.416 7.54102 18.7061 7.7959 18.7061 8.24414C18.7061 8.6748 18.416 8.94727 17.9678 8.94727H15.9902V14.8096C15.9902 15.4336 15.6738 15.8115 15.0938 15.8115Z" fill="#1C1C1E"/>
</g>
<defs>
<clipPath id="clip0_10_881">
<rect width="24" height="24" fill="white"/>
</clipPath>
</defs>
</svg>
