<svg width="24" height="24" viewBox="0 0 24 24" fill="none" xmlns="http://www.w3.org/2000/svg">
<g clip-path="url(#clip0_10_870)">
<path d="M11.9912 20.7422C16.9746 20.7422 21.0879 16.6289 21.0879 11.6543C21.0879 6.67969 16.9658 2.56641 11.9824 2.56641C7.00781 2.56641 2.90332 6.67969 2.90332 11.6543C2.90332 16.6289 7.0166 20.7422 11.9912 20.7422ZM11.9912 18.9316C7.95703 18.9316 4.73145 15.6885 4.73145 11.6543C4.73145 7.62012 7.95703 4.38574 11.9824 4.38574C16.0166 4.38574 19.2598 7.62012 19.2686 11.6543C19.2773 15.6885 16.0254 18.9316 11.9912 18.9316ZM8.74805 12.4893H11.1562V14.9062C11.1562 15.3896 11.499 15.7324 11.9736 15.7324C12.4658 15.7324 12.8174 15.3896 12.8174 14.9062V12.4893H15.2344C15.7178 12.4893 16.0693 12.1465 16.0693 11.6631C16.0693 11.1797 15.7266 10.8281 15.2344 10.8281H12.8174V8.41113C12.8174 7.91895 12.4658 7.57617 11.9736 7.57617C11.499 7.57617 11.1562 7.91895 11.1562 8.41113V10.8281H8.74805C8.24707 10.8281 7.9043 11.1797 7.9043 11.6631C7.9043 12.1465 8.25586 12.4893 8.74805 12.4893Z" fill="#1C1C1E"/>
</g>
<defs>
<clipPath id="clip0_10_870">
<rect width="24" height="24" fill="white"/>
</clipPath>
</defs>
</svg>
