<svg width="24" height="24" viewBox="0 0 24 24" fill="none" xmlns="http://www.w3.org/2000/svg">
<g clip-path="url(#clip0_10_854)">
<path d="M11.9912 20.7422C16.9746 20.7422 21.0879 16.6289 21.0879 11.6543C21.0879 6.67969 16.9658 2.56641 11.9824 2.56641C7.00781 2.56641 2.90332 6.67969 2.90332 11.6543C2.90332 16.6289 7.0166 20.7422 11.9912 20.7422ZM9.60938 15.8467C9.07324 15.8467 8.77441 15.4688 8.77441 14.8887V8.47266C8.77441 7.84863 9.08203 7.45312 9.68848 7.45312H12.2461C14.1709 7.45312 15.3486 8.48145 15.3486 10.1426C15.3486 11.2764 14.6807 12.2168 13.626 12.5508L14.9004 14.5107C15.0322 14.7129 15.085 14.8799 15.085 15.1084C15.085 15.5391 14.7598 15.8467 14.3027 15.8467C13.916 15.8467 13.7051 15.6885 13.4326 15.2578L11.9561 12.832H10.4795V14.8887C10.4795 15.4863 10.1719 15.8467 9.60938 15.8467ZM10.4795 11.5752H12.0088C12.9844 11.5752 13.5996 11.0742 13.5996 10.1865C13.5996 9.28125 12.9756 8.75391 12.0352 8.75391H10.4795V11.5752Z" fill="#1C1C1E"/>
</g>
<defs>
<clipPath id="clip0_10_854">
<rect width="24" height="24" fill="white"/>
</clipPath>
</defs>
</svg>
