<svg width="24" height="24" viewBox="0 0 24 24" fill="none" xmlns="http://www.w3.org/2000/svg">
<g clip-path="url(#clip0_10_904)">
<path d="M11.5078 3.46289C11.7627 3.80566 12.2285 3.79688 12.4746 3.46289L14.3027 1.03711C14.6807 0.544922 14.4785 -0.0878906 13.8105 -0.0878906H10.1719C9.53027 -0.0878906 9.30176 0.527344 9.68848 1.03711L11.5078 3.46289ZM11.9912 16.6025C17.6777 16.6025 21.3164 14.0801 21.3164 10.5557C21.3164 7.03125 17.6689 4.50879 11.9824 4.50879C6.31348 4.50879 2.6748 7.03125 2.6748 10.5557C2.6748 14.0801 6.31348 16.6025 11.9912 16.6025ZM11.9912 14.8359C7.55273 14.8359 4.57324 13.1045 4.57324 10.5557C4.57324 8.00684 7.55273 6.27539 11.9824 6.27539C16.4297 6.27539 19.418 8.00684 19.418 10.5557C19.418 13.1045 16.4385 14.8359 11.9912 14.8359ZM10.5586 13.2188C10.9365 13.2188 11.1738 12.9551 11.1738 12.542V11.3203H11.9736L12.8965 12.8232C13.0898 13.1221 13.248 13.2275 13.5029 13.2275C13.8281 13.2275 14.083 13.0078 14.083 12.6826C14.083 12.5244 14.0391 12.4014 13.9512 12.2695L13.1865 11.1094C13.8369 10.8633 14.2324 10.2656 14.2324 9.5625C14.2324 8.47266 13.4502 7.7959 12.2197 7.7959H10.6025C10.1895 7.7959 9.95215 8.05957 9.95215 8.5166V12.542C9.95215 12.9639 10.1807 13.2188 10.5586 13.2188ZM11.1738 10.3711V8.7627H12.0703C12.6328 8.7627 12.9756 9.0791 12.9756 9.58008C12.9756 10.0811 12.6416 10.3711 12.0615 10.3711H11.1738ZM11.9912 20.5488C14.2676 20.5488 15.6475 19.4854 15.6475 17.6748V17.376C14.5312 17.6221 13.3096 17.7539 11.9912 17.7539C10.6816 17.7539 9.45996 17.6221 8.34375 17.376V17.6748C8.34375 19.4854 9.72363 20.5488 11.9912 20.5488Z" fill="#1C1C1E"/>
</g>
<defs>
<clipPath id="clip0_10_904">
<rect width="24" height="24" fill="white"/>
</clipPath>
</defs>
</svg>
