<svg width="24" height="24" viewBox="0 0 24 24" fill="none" xmlns="http://www.w3.org/2000/svg">
<g clip-path="url(#clip0_10_945)">
<path d="M12 16.3916C17.792 16.3916 21.2637 13.7812 21.2637 10.5557C21.2637 7.33008 17.792 4.71973 11.9912 4.71973C6.20801 4.71973 2.73633 7.33008 2.73633 10.5557C2.73633 13.7812 6.20801 16.3916 12 16.3916ZM10.5146 13.3945C10.1016 13.3945 9.85547 13.1133 9.85547 12.6562V8.40234C9.85547 7.90137 10.1191 7.61133 10.5762 7.61133H12.29C13.6172 7.61133 14.4521 8.33203 14.4521 9.50098C14.4521 10.2568 14.0303 10.8809 13.3359 11.1445L14.1445 12.3662C14.2412 12.5156 14.2852 12.6475 14.2852 12.8232C14.2852 13.166 14.0127 13.4121 13.6611 13.4121C13.3711 13.4121 13.2041 13.2891 13.002 12.9639L12.0264 11.3818H11.1914V12.6562C11.1914 13.1133 10.9277 13.3945 10.5146 13.3945ZM11.1914 10.3535H12.123C12.7295 10.3535 13.0723 10.0459 13.0723 9.52734C13.0723 9 12.7207 8.66602 12.1318 8.66602H11.1914V10.3535ZM12 20.5488C14.2764 20.5488 15.6562 19.4854 15.6562 17.6748V17.3057C14.5225 17.543 13.3008 17.6836 12 17.6836C10.6992 17.6836 9.47754 17.543 8.34375 17.3057V17.6748C8.34375 19.4854 9.72363 20.5488 12 20.5488Z" fill="#1C1C1E"/>
</g>
<defs>
<clipPath id="clip0_10_945">
<rect width="24" height="24" fill="white"/>
</clipPath>
</defs>
</svg>
