<svg width="24" height="24" viewBox="0 0 24 24" fill="none" xmlns="http://www.w3.org/2000/svg">
<g clip-path="url(#clip0_10_890)">
<path d="M8.87988 19.8809H15.1201C20.376 19.8809 22.6699 17.5166 22.6699 12.4717V6.31934C22.6699 4.43848 21.6768 3.4541 19.7783 3.4541H4.22168C2.32324 3.4541 1.33008 4.42969 1.33008 6.31934V12.4717C1.33008 17.5166 3.61523 19.8809 8.87988 19.8809ZM9.63574 15.873C9.09082 15.873 8.79199 15.5039 8.79199 14.915V8.49902C8.79199 7.875 9.09961 7.47949 9.70605 7.47949H12.2637C14.1885 7.47949 15.3662 8.50781 15.3662 10.1777C15.3662 11.3027 14.6982 12.2432 13.6436 12.5859L14.918 14.5371C15.0498 14.7393 15.1025 14.9062 15.1025 15.1348C15.1025 15.5742 14.7773 15.873 14.3203 15.873C13.9336 15.873 13.7227 15.7148 13.4502 15.2842L11.9736 12.8672H10.4971V14.915C10.4971 15.5127 10.1895 15.873 9.63574 15.873ZM10.4971 11.6104H12.0264C13.002 11.6104 13.6172 11.1006 13.6172 10.2129C13.6172 9.30762 12.9932 8.78027 12.0527 8.78027H10.4971V11.6104Z" fill="#1C1C1E"/>
</g>
<defs>
<clipPath id="clip0_10_890">
<rect width="24" height="24" fill="white"/>
</clipPath>
</defs>
</svg>
