<svg width="24" height="24" viewBox="0 0 24 24" fill="none" xmlns="http://www.w3.org/2000/svg">
<g clip-path="url(#clip0_10_891)">
<path d="M8.87988 19.8809H15.1201C20.376 19.8809 22.6699 17.5166 22.6699 12.4717V6.31934C22.6699 4.43848 21.6768 3.4541 19.7783 3.4541H4.22168C2.32324 3.4541 1.33008 4.42969 1.33008 6.31934V12.4717C1.33008 17.5166 3.61523 19.8809 8.87988 19.8809ZM8.91504 18.1143C4.8457 18.1143 3.0791 16.3477 3.0791 12.5332V6.47754C3.0791 5.64258 3.53613 5.20312 4.33594 5.20312H19.6641C20.4551 5.20312 20.9121 5.64258 20.9121 6.47754V12.5332C20.9121 16.3477 19.1543 18.1143 15.085 18.1143H8.91504ZM9.73242 15.7061C10.2598 15.7061 10.5586 15.3633 10.5586 14.8008V12.8145H11.9824L13.4062 15.1436C13.6699 15.5566 13.8721 15.7061 14.2324 15.7061C14.6807 15.7061 14.9883 15.416 14.9883 15.0029C14.9883 14.792 14.9355 14.625 14.8037 14.4404L13.5732 12.542C14.584 12.2168 15.2344 11.3115 15.2344 10.2305C15.2344 8.63086 14.1006 7.64648 12.2549 7.64648H9.79395C9.22266 7.64648 8.92383 8.01562 8.92383 8.61328V14.8008C8.92383 15.3545 9.20508 15.7061 9.73242 15.7061ZM10.5586 11.6104V8.88574H12.0527C12.9668 8.88574 13.5645 9.38672 13.5645 10.2656C13.5645 11.127 12.9756 11.6104 12.0264 11.6104H10.5586Z" fill="#1C1C1E"/>
</g>
<defs>
<clipPath id="clip0_10_891">
<rect width="24" height="24" fill="white"/>
</clipPath>
</defs>
</svg>
