<svg width="24" height="24" viewBox="0 0 24 24" fill="none" xmlns="http://www.w3.org/2000/svg">
<g clip-path="url(#clip0_10_889)">
<path d="M8.87988 19.8809H15.1201C20.376 19.8809 22.6699 17.5166 22.6699 12.4717V6.31934C22.6699 4.43848 21.6768 3.4541 19.7783 3.4541H4.22168C2.32324 3.4541 1.33008 4.42969 1.33008 6.31934V12.4717C1.33008 17.5166 3.61523 19.8809 8.87988 19.8809ZM16.9658 15.8906C16.4297 15.8906 16.1045 15.5566 16.1045 14.9414V9.25488H16.0342L14.9707 9.9668C14.7422 10.1162 14.6279 10.1426 14.4785 10.1426C14.1357 10.1426 13.8809 9.85254 13.8809 9.51855C13.8809 9.2373 13.9863 9.07031 14.2324 8.90332L15.7793 7.85742C16.21 7.56738 16.5 7.46191 16.8867 7.46191C17.4756 7.46191 17.8447 7.82227 17.8447 8.41113V14.9414C17.8447 15.5566 17.5107 15.8906 16.9658 15.8906ZM7.13086 15.8027C6.59473 15.8027 6.2959 15.4336 6.2959 14.8711V8.54297C6.2959 7.93652 6.60352 7.5498 7.19238 7.5498H9.70605C11.5957 7.5498 12.7559 8.56934 12.7559 10.2041C12.7559 11.3115 12.0879 12.2344 11.0596 12.5684L12.3076 14.502C12.4482 14.7041 12.501 14.8623 12.501 15.082C12.501 15.5039 12.1846 15.8027 11.7275 15.8027C11.3672 15.8027 11.1475 15.6533 10.8838 15.2314L9.43359 12.8408H7.96582V14.8711C7.96582 15.4512 7.66699 15.8027 7.13086 15.8027ZM7.96582 11.6191H9.46875C10.4443 11.6191 11.0508 11.1094 11.0508 10.2393C11.0508 9.33398 10.4355 8.81543 9.50391 8.81543H7.96582V11.6191Z" fill="#1C1C1E"/>
</g>
<defs>
<clipPath id="clip0_10_889">
<rect width="24" height="24" fill="white"/>
</clipPath>
</defs>
</svg>
