<svg width="24" height="24" viewBox="0 0 24 24" fill="none" xmlns="http://www.w3.org/2000/svg">
<g clip-path="url(#clip0_10_880)">
<path d="M8.87988 19.8809H15.1201C20.376 19.8809 22.6699 17.5166 22.6699 12.4717V6.31934C22.6699 4.43848 21.6768 3.4541 19.7783 3.4541H4.22168C2.32324 3.4541 1.33008 4.42969 1.33008 6.31934V12.4717C1.33008 17.5166 3.61523 19.8809 8.87988 19.8809ZM8.91504 18.1143C4.8457 18.1143 3.0791 16.3477 3.0791 12.5332V6.47754C3.0791 5.64258 3.53613 5.20312 4.33594 5.20312H19.6641C20.4551 5.20312 20.9121 5.64258 20.9121 6.47754V12.5332C20.9121 16.3477 19.1543 18.1143 15.085 18.1143H8.91504ZM16.7725 15.7236C17.291 15.7236 17.6074 15.4072 17.6074 14.8184V8.52539C17.6074 7.96289 17.2559 7.62012 16.7021 7.62012C16.3242 7.62012 16.0518 7.7168 15.6387 7.99805L14.1445 9.00879C13.9072 9.16699 13.8105 9.33398 13.8105 9.58887C13.8105 9.91406 14.0566 10.1865 14.3818 10.1865C14.5312 10.1865 14.6279 10.1602 14.8477 10.0195L15.8848 9.33398H15.9463V14.8184C15.9463 15.4072 16.2627 15.7236 16.7725 15.7236ZM7.31543 15.6357C7.83398 15.6357 8.11523 15.3105 8.11523 14.7568V12.7881H9.53906L10.9453 15.0996C11.1914 15.4951 11.3936 15.6357 11.7451 15.6357C12.1758 15.6357 12.4834 15.3545 12.4834 14.959C12.4834 14.748 12.4219 14.5898 12.2988 14.4053L11.0859 12.5332C12.0791 12.208 12.7207 11.3203 12.7207 10.248C12.7207 8.68359 11.6045 7.70801 9.79395 7.70801H7.37695C6.81445 7.70801 6.52441 8.06836 6.52441 8.64844V14.7568C6.52441 15.293 6.80566 15.6357 7.31543 15.6357ZM8.11523 11.6191V8.91211H9.60059C10.5059 8.91211 11.1035 9.41309 11.1035 10.292C11.1035 11.1357 10.5146 11.6191 9.57422 11.6191H8.11523Z" fill="#1C1C1E"/>
</g>
<defs>
<clipPath id="clip0_10_880">
<rect width="24" height="24" fill="white"/>
</clipPath>
</defs>
</svg>
