<svg width="24" height="24" viewBox="0 0 24 24" fill="none" xmlns="http://www.w3.org/2000/svg">
<g clip-path="url(#clip0_10_887)">
<path d="M8.87988 3.4541C3.61523 3.4541 1.33008 5.81836 1.33008 10.8545V17.0156C1.33008 18.8965 2.32324 19.8809 4.22168 19.8809H19.7783C21.6768 19.8809 22.6699 18.8965 22.6699 17.0156V10.8545C22.6699 5.81836 20.376 3.4541 15.1201 3.4541H8.87988ZM13.8896 15.6885C13.4326 15.6885 13.1426 15.416 13.1426 15.0029C13.1426 14.7656 13.2217 14.5547 13.459 14.335L16.1836 11.5488C16.7197 10.9951 17.2119 10.4854 17.2119 9.89648C17.2119 9.2373 16.7197 8.81543 15.9727 8.81543C15.1904 8.81543 14.7861 9.3252 14.5488 9.81738C14.373 10.0723 14.1885 10.292 13.8193 10.292C13.3975 10.292 13.1074 10.0371 13.1074 9.62402C13.1074 9.4834 13.125 9.36035 13.1602 9.21973C13.4678 8.20898 14.6191 7.45312 15.9551 7.45312C17.6689 7.45312 18.8027 8.36719 18.8027 9.76465C18.8027 10.7227 18.2666 11.4346 17.4141 12.2871L15.5156 14.2295V14.2998H18.3721C18.8115 14.2998 19.1104 14.5459 19.1104 14.9941C19.1104 15.416 18.8115 15.6885 18.3721 15.6885H13.8896ZM6.46289 15.8115C5.93555 15.8115 5.64551 15.4424 5.64551 14.8799V8.55176C5.64551 7.94531 5.94434 7.56738 6.5332 7.56738H9.04688C10.9365 7.56738 12.0967 8.56934 12.0967 10.2041C12.0967 11.3203 11.4375 12.2432 10.3916 12.5859L11.6572 14.5107C11.7891 14.7129 11.8418 14.8711 11.8418 15.0908C11.8418 15.5127 11.5254 15.8115 11.0771 15.8115C10.708 15.8115 10.4971 15.6621 10.2334 15.2402L8.77441 12.8496H7.30664V14.8799C7.30664 15.46 7.00781 15.8115 6.46289 15.8115ZM7.30664 11.6279H8.80957C9.78516 11.6279 10.3916 11.127 10.3916 10.248C10.3916 9.35156 9.78516 8.82422 8.85352 8.82422H7.30664V11.6279Z" fill="#1C1C1E"/>
</g>
<defs>
<clipPath id="clip0_10_887">
<rect width="24" height="24" fill="white"/>
</clipPath>
</defs>
</svg>
