<svg width="24" height="24" viewBox="0 0 24 24" fill="none" xmlns="http://www.w3.org/2000/svg">
<g clip-path="url(#clip0_10_888)">
<path d="M8.87988 3.4541C3.61523 3.4541 1.33008 5.81836 1.33008 10.8545V17.0156C1.33008 18.8965 2.32324 19.8809 4.22168 19.8809H19.7783C21.6768 19.8809 22.6699 18.8965 22.6699 17.0156V10.8545C22.6699 5.81836 20.376 3.4541 15.1201 3.4541H8.87988ZM8.91504 5.2207H15.085C19.1543 5.2207 20.9121 6.9873 20.9121 10.8018V16.8574C20.9121 17.6924 20.4551 18.1318 19.6641 18.1318H4.33594C3.53613 18.1318 3.0791 17.6924 3.0791 16.8574V10.8018C3.0791 6.9873 4.8457 5.2207 8.91504 5.2207ZM13.7139 15.5391H18.0205C18.4424 15.5391 18.7236 15.2842 18.7236 14.8711C18.7236 14.4492 18.4424 14.2119 18.0205 14.2119H15.2607V14.1416L17.0977 12.2607C17.915 11.4346 18.4336 10.7578 18.4336 9.83496C18.4336 8.49902 17.3438 7.61133 15.6914 7.61133C14.417 7.61133 13.3096 8.33203 13.0195 9.31641C12.9756 9.44824 12.958 9.57129 12.958 9.69434C12.958 10.0898 13.2393 10.3359 13.6436 10.3359C13.9951 10.3359 14.1709 10.1338 14.3379 9.87891C14.5664 9.4043 14.9619 8.90332 15.7178 8.90332C16.4385 8.90332 16.9219 9.3252 16.9219 9.95801C16.9219 10.5293 16.4473 11.0127 15.9199 11.5488L13.292 14.2471C13.0811 14.458 13.002 14.6602 13.002 14.8799C13.002 15.2754 13.2744 15.5391 13.7139 15.5391ZM6.57715 15.6445C7.0957 15.6445 7.38574 15.3193 7.38574 14.7656V12.7969H8.80078L10.207 15.1084C10.4619 15.5127 10.6641 15.6445 11.0068 15.6445C11.4463 15.6445 11.7451 15.3721 11.7451 14.9678C11.7451 14.7568 11.6924 14.5986 11.5693 14.4141L10.3477 12.542C11.3496 12.2168 11.9912 11.3291 11.9912 10.2568C11.9912 8.69238 10.875 7.7168 9.06445 7.7168H6.63867C6.08496 7.7168 5.79492 8.07715 5.79492 8.65723V14.7656C5.79492 15.3018 6.06738 15.6445 6.57715 15.6445ZM7.38574 11.6279V8.9209H8.8623C9.76758 8.9209 10.3652 9.42188 10.3652 10.3008C10.3652 11.1445 9.77637 11.6279 8.83594 11.6279H7.38574Z" fill="#1C1C1E"/>
</g>
<defs>
<clipPath id="clip0_10_888">
<rect width="24" height="24" fill="white"/>
</clipPath>
</defs>
</svg>
