<svg width="24" height="24" viewBox="0 0 24 24" fill="none" xmlns="http://www.w3.org/2000/svg">
<g clip-path="url(#clip0_10_883)">
<path d="M8.87988 19.8809H15.1201C20.376 19.8809 22.6699 17.5166 22.6699 12.4717V6.31934C22.6699 4.43848 21.6768 3.4541 19.7783 3.4541H4.22168C2.32324 3.4541 1.33008 4.42969 1.33008 6.31934V12.4717C1.33008 17.5166 3.61523 19.8809 8.87988 19.8809ZM13.8809 15.6885C13.2656 15.6885 12.9229 15.3457 12.9229 14.7217V8.52539C12.9229 7.89258 13.2656 7.5498 13.8809 7.5498H16.5439C18.0996 7.5498 19.0928 8.33203 19.0928 9.55371C19.0928 10.4502 18.5215 11.1445 17.6162 11.3467V11.4082C18.8203 11.5576 19.5322 12.3135 19.5322 13.4121C19.5322 14.8008 18.3633 15.6885 16.5615 15.6885H13.8809ZM6.03223 15.8027C5.50488 15.8027 5.21484 15.4424 5.21484 14.8711V8.54297C5.21484 7.93652 5.52246 7.55859 6.10254 7.55859H8.625C10.5059 7.55859 11.6748 8.56055 11.6748 10.1953C11.6748 11.3115 10.998 12.2344 9.96973 12.5684L11.2266 14.502C11.3584 14.7041 11.4199 14.8623 11.4199 15.082C11.4199 15.5039 11.0947 15.8027 10.6465 15.8027C10.2773 15.8027 10.0664 15.6533 9.80273 15.2314L8.34375 12.8408H6.87598V14.8711C6.87598 15.4512 6.57715 15.8027 6.03223 15.8027ZM14.5576 10.9512H15.7969C16.8691 10.9512 17.458 10.5469 17.458 9.81738C17.458 9.14062 16.957 8.73633 16.1221 8.73633H14.5576V10.9512ZM6.87598 11.6191H8.3877C9.35449 11.6191 9.96973 11.1094 9.96973 10.2393C9.96973 9.34277 9.3457 8.81543 8.41406 8.81543H6.87598V11.6191ZM14.5576 14.4844H15.8936C17.2119 14.4844 17.8359 14.0977 17.8359 13.2803C17.8359 12.498 17.2471 12.0322 16.2539 12.0322H14.5576V14.4844Z" fill="#1C1C1E"/>
</g>
<defs>
<clipPath id="clip0_10_883">
<rect width="24" height="24" fill="white"/>
</clipPath>
</defs>
</svg>
