<svg width="24" height="24" viewBox="0 0 24 24" fill="none" xmlns="http://www.w3.org/2000/svg">
<g clip-path="url(#clip0_10_884)">
<path d="M8.87988 19.8809H15.1201C20.376 19.8809 22.6699 17.5166 22.6699 12.4717V6.31934C22.6699 4.43848 21.6768 3.4541 19.7783 3.4541H4.22168C2.32324 3.4541 1.33008 4.42969 1.33008 6.31934V12.4717C1.33008 17.5166 3.61523 19.8809 8.87988 19.8809ZM8.91504 18.1143C4.8457 18.1143 3.0791 16.3477 3.0791 12.5332V6.47754C3.0791 5.64258 3.53613 5.20312 4.33594 5.20312H19.6641C20.4551 5.20312 20.9121 5.64258 20.9121 6.47754V12.5332C20.9121 16.3477 19.1543 18.1143 15.085 18.1143H8.91504ZM13.8018 15.5391H16.377C18.1084 15.5391 19.2422 14.6777 19.2422 13.3506C19.2422 12.2871 18.5479 11.5576 17.3965 11.417V11.3555C18.2666 11.1621 18.8027 10.4941 18.8027 9.63281C18.8027 8.45508 17.8535 7.69922 16.3594 7.69922H13.8018C13.2129 7.69922 12.8877 8.0332 12.8877 8.63086V14.6162C12.8877 15.2051 13.2129 15.5391 13.8018 15.5391ZM6.26074 15.6357C6.7793 15.6357 7.06934 15.3105 7.06934 14.7568V12.7881H8.48438L9.89062 15.0996C10.1455 15.4951 10.3477 15.6357 10.6992 15.6357C11.1299 15.6357 11.4287 15.3545 11.4287 14.959C11.4287 14.748 11.376 14.5898 11.2529 14.4053L10.0312 12.5332C11.0332 12.208 11.6748 11.3203 11.6748 10.248C11.6748 8.68359 10.5586 7.7168 8.74805 7.7168H6.32227C5.76855 7.7168 5.47852 8.06836 5.47852 8.64844V14.7568C5.47852 15.3018 5.75977 15.6357 6.26074 15.6357ZM14.4521 10.9775V8.83301H15.9639C16.7637 8.83301 17.2559 9.2373 17.2559 9.8877C17.2559 10.5908 16.6846 10.9775 15.6387 10.9775H14.4521ZM7.06934 11.6191V8.91211H8.55469C9.45117 8.91211 10.0488 9.42188 10.0488 10.292C10.0488 11.1357 9.45996 11.6191 8.51953 11.6191H7.06934ZM14.4434 14.3877V12.0146H16.0869C17.0537 12.0146 17.6162 12.4629 17.6162 13.2188C17.6162 14.0098 17.0186 14.3877 15.7354 14.3877H14.4434Z" fill="#1C1C1E"/>
</g>
<defs>
<clipPath id="clip0_10_884">
<rect width="24" height="24" fill="white"/>
</clipPath>
</defs>
</svg>
