<svg width="24" height="24" viewBox="0 0 24 24" fill="none" xmlns="http://www.w3.org/2000/svg">
<g clip-path="url(#clip0_10_933)">
<path d="M0.398438 14.0537C0.398438 15.9434 1.38281 16.9189 3.29004 16.9189H3.7207V9.25488C3.7207 6.64453 5.1709 5.20312 7.79883 5.20312H19.0664V5.08887C19.0664 3.20801 18.0732 2.22363 16.1748 2.22363H3.29004C1.38281 2.22363 0.398438 3.20801 0.398438 5.08887V14.0537ZM7.9043 21.1113H20.7012C22.5996 21.1113 23.6016 20.127 23.6016 18.2461V9.36035C23.6016 7.47949 22.5996 6.49512 20.7012 6.49512H7.9043C5.99707 6.49512 5.0127 7.4707 5.0127 9.36035V18.2461C5.0127 20.127 5.99707 21.1113 7.9043 21.1113Z" fill="#1C1C1E"/>
</g>
<defs>
<clipPath id="clip0_10_933">
<rect width="24" height="24" fill="white"/>
</clipPath>
</defs>
</svg>
