<svg width="24" height="24" viewBox="0 0 24 24" fill="none" xmlns="http://www.w3.org/2000/svg">
<g clip-path="url(#clip0_10_925)">
<path d="M11.9912 20.7422C16.9746 20.7422 21.0879 16.6289 21.0879 11.6543C21.0879 6.67969 16.9658 2.56641 11.9824 2.56641C7.00781 2.56641 2.90332 6.67969 2.90332 11.6543C2.90332 16.6289 7.0166 20.7422 11.9912 20.7422ZM8.21191 10.4062V13.957H8.03613C7.21875 13.957 6.78809 13.5352 6.78809 12.7002V8.58691C6.78809 7.75195 7.21875 7.33008 8.05371 7.33008H13.9248C14.7598 7.33008 15.1904 7.75195 15.1904 8.56055V8.64844H9.97852C8.82715 8.64844 8.21191 9.25488 8.21191 10.4062ZM10.04 15.8643C9.19629 15.8643 8.77441 15.4512 8.77441 14.6074V10.459C8.77441 9.6416 9.19629 9.21094 10.04 9.21094H15.9111C16.7461 9.21094 17.1768 9.6416 17.1768 10.459V14.6074C17.1768 15.4512 16.7461 15.8643 15.9111 15.8643H10.04Z" fill="#1C1C1E"/>
</g>
<defs>
<clipPath id="clip0_10_925">
<rect width="24" height="24" fill="white"/>
</clipPath>
</defs>
</svg>
