<svg width="24" height="24" viewBox="0 0 24 24" fill="none" xmlns="http://www.w3.org/2000/svg">
<g clip-path="url(#clip0_10_917)">
<path d="M11.9912 20.7422C16.9746 20.7422 21.0879 16.6289 21.0879 11.6543C21.0879 6.67969 16.9658 2.56641 11.9824 2.56641C7.00781 2.56641 2.90332 6.67969 2.90332 11.6543C2.90332 16.6289 7.0166 20.7422 11.9912 20.7422ZM11.9912 18.9316C7.95703 18.9316 4.73145 15.6885 4.73145 11.6543C4.73145 7.62012 7.95703 4.38574 11.9824 4.38574C16.0166 4.38574 19.2598 7.62012 19.2686 11.6543C19.2773 15.6885 16.0254 18.9316 11.9912 18.9316ZM8.35254 10.4502C8.35254 9.35156 8.94141 8.7627 10.0488 8.7627H15.0674V8.68359C15.0674 7.91016 14.6543 7.49707 13.8545 7.49707H8.20312C7.39453 7.49707 6.98145 7.91016 6.98145 8.70996V12.665C6.98145 13.4648 7.39453 13.8691 8.18555 13.8691H8.35254V10.4502ZM10.1104 15.7061H15.7617C16.5615 15.7061 16.9746 15.3018 16.9746 14.502V10.5117C16.9746 9.7207 16.5615 9.30762 15.7617 9.30762H10.1104C9.30176 9.30762 8.88867 9.7207 8.88867 10.5117V14.502C8.88867 15.3018 9.30176 15.7061 10.1104 15.7061Z" fill="#1C1C1E"/>
</g>
<defs>
<clipPath id="clip0_10_917">
<rect width="24" height="24" fill="white"/>
</clipPath>
</defs>
</svg>
