<svg width="24" height="24" viewBox="0 0 24 24" fill="none" xmlns="http://www.w3.org/2000/svg">
<g clip-path="url(#clip0_10_879)">
<path d="M8.87988 3.4541C3.61523 3.4541 1.33008 5.81836 1.33008 10.8545V17.0156C1.33008 18.8965 2.32324 19.8809 4.22168 19.8809H19.7783C21.6768 19.8809 22.6699 18.8965 22.6699 17.0156V10.8545C22.6699 5.81836 20.376 3.4541 15.1201 3.4541H8.87988ZM8.91504 5.2207H15.085C19.1543 5.2207 20.9121 6.9873 20.9121 10.8018V16.8574C20.9121 17.6924 20.4551 18.1318 19.6641 18.1318H4.33594C3.53613 18.1318 3.0791 17.6924 3.0791 16.8574V10.8018C3.0791 6.9873 4.8457 5.2207 8.91504 5.2207ZM15.7793 15.6445C16.333 15.6445 16.6406 15.2842 16.6406 14.7041V9.07031H18.5127C18.9346 9.07031 19.2158 8.81543 19.2158 8.39355C19.2158 7.97168 18.9346 7.7168 18.5127 7.7168H13.0811C12.668 7.7168 12.3779 7.97168 12.3779 8.39355C12.3779 8.81543 12.668 9.07031 13.0811 9.07031H14.9355V14.7041C14.9355 15.2754 15.2344 15.6445 15.7793 15.6445ZM6.24316 15.6445C6.76172 15.6445 7.04297 15.3193 7.04297 14.7656V12.7969H8.4668L9.87305 15.1084C10.1279 15.5127 10.3301 15.6445 10.6729 15.6445C11.1123 15.6445 11.4111 15.3721 11.4111 14.9678C11.4111 14.7568 11.3584 14.5986 11.2354 14.4141L10.0137 12.542C11.0156 12.2168 11.6572 11.3291 11.6572 10.2656C11.6572 8.69238 10.541 7.72559 8.73047 7.72559H6.30469C5.75098 7.72559 5.46094 8.07715 5.46094 8.65723V14.7656C5.46094 15.3105 5.7334 15.6445 6.24316 15.6445ZM7.04297 11.6367V8.92969H8.53711C9.43359 8.92969 10.0312 9.43066 10.0312 10.3008C10.0312 11.1445 9.44238 11.6367 8.50195 11.6367H7.04297Z" fill="#1C1C1E"/>
</g>
<defs>
<clipPath id="clip0_10_879">
<rect width="24" height="24" fill="white"/>
</clipPath>
</defs>
</svg>
