<svg width="24" height="24" viewBox="0 0 24 24" fill="none" xmlns="http://www.w3.org/2000/svg">
<g clip-path="url(#clip0_10_878)">
<path d="M8.87988 3.4541C3.61523 3.4541 1.33008 5.81836 1.33008 10.8545V17.0156C1.33008 18.8965 2.32324 19.8809 4.22168 19.8809H19.7783C21.6768 19.8809 22.6699 18.8965 22.6699 17.0156V10.8545C22.6699 5.81836 20.376 3.4541 15.1201 3.4541H8.87988ZM15.9287 15.8115C15.3574 15.8115 15.0498 15.416 15.0498 14.8096V8.98242H13.125C12.6855 8.98242 12.3867 8.70996 12.3867 8.2793C12.3867 7.83105 12.6855 7.56738 13.125 7.56738H18.7676C19.2158 7.56738 19.5059 7.83105 19.5059 8.2793C19.5059 8.70996 19.2158 8.98242 18.7676 8.98242H16.834V14.8096C16.834 15.4248 16.5176 15.8115 15.9287 15.8115ZM6.01465 15.8115C5.47852 15.8115 5.18848 15.4512 5.18848 14.8799V8.55176C5.18848 7.94531 5.4873 7.56738 6.07617 7.56738H8.58984C10.4795 7.56738 11.6396 8.56934 11.6396 10.2129C11.6396 11.3203 10.9805 12.2432 9.94336 12.5771L11.2002 14.5107C11.332 14.7129 11.3848 14.8711 11.3848 15.0908C11.3848 15.5127 11.0684 15.8115 10.6201 15.8115C10.251 15.8115 10.04 15.6621 9.77637 15.2402L8.32617 12.8496H6.84961V14.8799C6.84961 15.46 6.55078 15.8115 6.01465 15.8115ZM6.84961 11.6279H8.35254C9.32812 11.6279 9.93457 11.127 9.93457 10.248C9.93457 9.35156 9.31934 8.83301 8.39648 8.83301H6.84961V11.6279Z" fill="#1C1C1E"/>
</g>
<defs>
<clipPath id="clip0_10_878">
<rect width="24" height="24" fill="white"/>
</clipPath>
</defs>
</svg>
