<svg width="24" height="24" viewBox="0 0 24 24" fill="none" xmlns="http://www.w3.org/2000/svg">
<g clip-path="url(#clip0_10_909)">
<path d="M11.9912 20.7422C16.9746 20.7422 21.0879 16.6289 21.0879 11.6543C21.0879 6.67969 16.9658 2.56641 11.9824 2.56641C7.00781 2.56641 2.90332 6.67969 2.90332 11.6543C2.90332 16.6289 7.0166 20.7422 11.9912 20.7422ZM11.9912 18.9316C7.95703 18.9316 4.73145 15.6885 4.73145 11.6543C4.73145 7.62012 7.95703 4.38574 11.9824 4.38574C16.0166 4.38574 19.2598 7.62012 19.2686 11.6543C19.2773 15.6885 16.0254 18.9316 11.9912 18.9316ZM8.87988 16.0049H15.1113C15.9375 16.0049 16.3418 15.5479 16.3418 14.6514V8.52539C16.3418 7.7168 15.9375 7.3125 15.1113 7.3125H8.87988C8.1416 7.3125 7.64941 7.80469 7.64941 8.52539V14.6514C7.64941 15.46 8.1416 16.0049 8.87988 16.0049ZM9.49512 14.5459C9.2666 14.5459 9.1084 14.3877 9.1084 14.1504V9.16699C9.1084 8.92969 9.2666 8.77148 9.49512 8.77148H14.4961C14.7246 8.77148 14.8828 8.92969 14.8828 9.16699V14.1504C14.8828 14.3877 14.7246 14.5459 14.4961 14.5459H9.49512Z" fill="#1C1C1E"/>
</g>
<defs>
<clipPath id="clip0_10_909">
<rect width="24" height="24" fill="white"/>
</clipPath>
</defs>
</svg>
