<svg width="24" height="24" viewBox="0 0 24 24" fill="none" xmlns="http://www.w3.org/2000/svg">
<g clip-path="url(#clip0_10_944)">
<path d="M11.9912 20.7861C16.9746 20.7861 21.0879 16.6729 21.0879 11.6982C21.0879 6.72363 16.9658 2.61035 11.9824 2.61035C7.00781 2.61035 2.90332 6.72363 2.90332 11.6982C2.90332 16.6729 7.0166 20.7861 11.9912 20.7861ZM8.75684 16.2158C7.9834 16.2158 7.47363 15.6533 7.47363 14.8096V8.4375C7.47363 7.69043 7.9834 7.18066 8.75684 7.18066H15.2344C16.0957 7.18066 16.5176 7.59375 16.5176 8.4375V14.8096C16.5176 15.7412 16.0957 16.2158 15.2344 16.2158H8.75684ZM9.40723 14.6865H14.584C14.8213 14.6865 14.9795 14.5283 14.9795 14.2822V9.11426C14.9795 8.86816 14.8213 8.70996 14.584 8.70996H9.40723C9.16992 8.70996 9.01172 8.86816 9.01172 9.11426V14.2822C9.01172 14.5283 9.16992 14.6865 9.40723 14.6865Z" fill="#1C1C1E"/>
</g>
<defs>
<clipPath id="clip0_10_944">
<rect width="24" height="24" fill="white"/>
</clipPath>
</defs>
</svg>
