<svg width="24" height="24" viewBox="0 0 24 24" fill="none" xmlns="http://www.w3.org/2000/svg">
<g clip-path="url(#clip0_10_907)">
<path d="M11.9912 20.7422C16.9746 20.7422 21.0879 16.6289 21.0879 11.6543C21.0879 6.67969 16.9658 2.56641 11.9824 2.56641C7.00781 2.56641 2.90332 6.67969 2.90332 11.6543C2.90332 16.6289 7.0166 20.7422 11.9912 20.7422ZM11.9912 18.9316C7.95703 18.9316 4.73145 15.6885 4.73145 11.6543C4.73145 7.62012 7.95703 4.38574 11.9824 4.38574C16.0166 4.38574 19.2598 7.62012 19.2686 11.6543C19.2773 15.6885 16.0254 18.9316 11.9912 18.9316ZM7.59668 13.2539C6.99023 14.3086 7.49121 15.3369 8.66016 15.3369H15.3311C16.5088 15.3369 17.001 14.3086 16.3945 13.2539L13.1689 7.64648C12.5977 6.65332 11.4111 6.62695 10.8223 7.65527L7.59668 13.2539ZM9.01172 13.6582L11.8506 8.70996C11.9209 8.58691 12.0615 8.58691 12.1318 8.70117L14.9795 13.6582C15.0586 13.79 15.0234 13.9131 14.8564 13.9131H9.14355C8.97656 13.9131 8.93262 13.79 9.01172 13.6582Z" fill="#1C1C1E"/>
</g>
<defs>
<clipPath id="clip0_10_907">
<rect width="24" height="24" fill="white"/>
</clipPath>
</defs>
</svg>
