<svg width="24" height="24" viewBox="0 0 24 24" fill="none" xmlns="http://www.w3.org/2000/svg">
<g clip-path="url(#clip0_10_905)">
<path d="M11.9912 20.7861C16.9746 20.7861 21.0879 16.6729 21.0879 11.6982C21.0879 6.72363 16.9658 2.61035 11.9824 2.61035C7.00781 2.61035 2.90332 6.72363 2.90332 11.6982C2.90332 16.6729 7.0166 20.7861 11.9912 20.7861ZM7.4209 13.3594L10.7695 7.53223C11.3848 6.46875 12.624 6.48633 13.2129 7.52344L16.5703 13.3594C17.2031 14.4492 16.6846 15.5303 15.4629 15.5303H8.53711C7.30664 15.5303 6.78809 14.4492 7.4209 13.3594ZM8.90625 13.7725C8.81836 13.9043 8.87109 14.0273 9.03809 14.0273H14.9531C15.1201 14.0273 15.1729 13.9043 15.085 13.7725L12.1318 8.64844C12.0615 8.5166 11.9209 8.5166 11.8418 8.64844L8.90625 13.7725Z" fill="#1C1C1E"/>
</g>
<defs>
<clipPath id="clip0_10_905">
<rect width="24" height="24" fill="white"/>
</clipPath>
</defs>
</svg>
