<svg width="24" height="24" viewBox="0 0 24 24" fill="none" xmlns="http://www.w3.org/2000/svg">
<g clip-path="url(#clip0_10_853)">
<path d="M11.9912 20.7422C16.9746 20.7422 21.0879 16.6289 21.0879 11.6543C21.0879 6.67969 16.9658 2.56641 11.9824 2.56641C7.00781 2.56641 2.90332 6.67969 2.90332 11.6543C2.90332 16.6289 7.0166 20.7422 11.9912 20.7422ZM11.9912 18.9316C7.95703 18.9316 4.73145 15.6885 4.73145 11.6543C4.73145 7.62012 7.95703 4.38574 11.9824 4.38574C16.0166 4.38574 19.2598 7.62012 19.2686 11.6543C19.2773 15.6885 16.0254 18.9316 11.9912 18.9316ZM9.43359 15.6797C9.77637 15.6797 9.96094 15.5654 10.2246 15.1787L11.9385 12.709H11.9824L13.6875 15.1787C13.9424 15.5566 14.127 15.6797 14.4697 15.6797C14.9355 15.6797 15.2695 15.3721 15.2695 14.9414C15.2695 14.7305 15.208 14.5635 15.0586 14.3701L13.0107 11.5928L15.0762 8.80664C15.2256 8.60449 15.2871 8.4375 15.2871 8.23535C15.2871 7.82227 14.9531 7.51465 14.5049 7.51465C14.1709 7.51465 13.9688 7.6377 13.7402 7.99805L12.0879 10.4854H12.0352L10.3389 7.98926C10.0928 7.62891 9.89941 7.51465 9.54785 7.51465C9.09961 7.51465 8.74805 7.83984 8.74805 8.26172C8.74805 8.49023 8.80957 8.64844 8.97656 8.86816L10.9453 11.5576L8.87109 14.4053C8.73047 14.6074 8.66895 14.7568 8.66895 14.9678C8.66895 15.3721 8.99414 15.6797 9.43359 15.6797Z" fill="#1C1C1E"/>
</g>
<defs>
<clipPath id="clip0_10_853">
<rect width="24" height="24" fill="white"/>
</clipPath>
</defs>
</svg>
