<svg width="24" height="24" viewBox="0 0 24 24" fill="none" xmlns="http://www.w3.org/2000/svg">
<g clip-path="url(#clip0_10_932)">
<path d="M11.9912 20.7422C16.9746 20.7422 21.0879 16.6289 21.0879 11.6543C21.0879 6.67969 16.9658 2.56641 11.9824 2.56641C7.00781 2.56641 2.90332 6.67969 2.90332 11.6543C2.90332 16.6289 7.0166 20.7422 11.9912 20.7422ZM9.33691 15.8467C8.87109 15.8467 8.52832 15.5215 8.52832 15.082C8.52832 14.8623 8.58984 14.7041 8.74805 14.4932L10.8926 11.5576L8.85352 8.7627C8.67773 8.52539 8.60742 8.36719 8.60742 8.12988C8.60742 7.68164 8.97656 7.33887 9.45117 7.33887C9.81152 7.33887 10.0225 7.4707 10.2773 7.84863L12.0352 10.4238H12.0879L13.8018 7.85742C14.0391 7.4707 14.25 7.33887 14.6104 7.33887C15.0762 7.33887 15.4277 7.66406 15.4277 8.10352C15.4277 8.30566 15.3662 8.49023 15.1992 8.70117L13.0723 11.5928L15.1816 14.458C15.3398 14.6689 15.4102 14.8359 15.4102 15.0557C15.4102 15.5215 15.0586 15.8467 14.5664 15.8467C14.2148 15.8467 14.0127 15.7061 13.749 15.3105L11.9912 12.7529H11.9385L10.1543 15.3105C9.88184 15.7148 9.69727 15.8467 9.33691 15.8467Z" fill="#1C1C1E"/>
</g>
<defs>
<clipPath id="clip0_10_932">
<rect width="24" height="24" fill="white"/>
</clipPath>
</defs>
</svg>
