<svg width="24" height="24" viewBox="0 0 24 24" fill="none" xmlns="http://www.w3.org/2000/svg">
<g clip-path="url(#clip0_10_910)">
<path d="M11.9912 20.7422C16.9746 20.7422 21.0879 16.6289 21.0879 11.6543C21.0879 6.67969 16.9658 2.56641 11.9824 2.56641C7.00781 2.56641 2.90332 6.67969 2.90332 11.6543C2.90332 16.6289 7.0166 20.7422 11.9912 20.7422ZM11.9912 18.9316C7.95703 18.9316 4.73145 15.6885 4.73145 11.6543C4.73145 7.62012 7.95703 4.38574 11.9824 4.38574C16.0166 4.38574 19.2598 7.62012 19.2686 11.6543C19.2773 15.6885 16.0254 18.9316 11.9912 18.9316ZM11.9824 15.6797C12.5449 15.6797 12.8613 15.3193 12.8613 14.7129V12.7441L15.2256 8.74512C15.3223 8.5957 15.3662 8.42871 15.3662 8.27051C15.3662 7.83105 15.041 7.51465 14.5752 7.51465C14.1973 7.51465 13.9951 7.65527 13.7842 8.07715L12.0264 11.1797H11.9648L10.207 8.07715C9.99609 7.64648 9.79395 7.51465 9.39844 7.51465C8.9502 7.51465 8.60742 7.83984 8.60742 8.26172C8.60742 8.41992 8.65137 8.57812 8.73926 8.74512L11.1211 12.7617V14.7129C11.1211 15.3018 11.4287 15.6797 11.9824 15.6797Z" fill="#1C1C1E"/>
</g>
<defs>
<clipPath id="clip0_10_910">
<rect width="24" height="24" fill="white"/>
</clipPath>
</defs>
</svg>
