<svg width="24" height="24" viewBox="0 0 24 24" fill="none" xmlns="http://www.w3.org/2000/svg">
<g clip-path="url(#clip0_10_876)">
<path d="M8.87988 3.4541C3.61523 3.4541 1.33008 5.81836 1.33008 10.8545V17.0156C1.33008 18.8965 2.32324 19.8809 4.22168 19.8809H19.7783C21.6768 19.8809 22.6699 18.8965 22.6699 17.0156V10.8545C22.6699 5.81836 20.376 3.4541 15.1201 3.4541H8.87988ZM14.3994 15.6885C13.8281 15.6885 13.5117 15.293 13.5117 14.6865V8.44629C13.5117 7.83984 13.8193 7.44434 14.3994 7.44434C14.9795 7.44434 15.2959 7.82227 15.2959 8.44629V14.2559H18.3896C18.8379 14.2559 19.1455 14.5195 19.1455 14.9678C19.1455 15.416 18.8379 15.6885 18.3896 15.6885H14.3994ZM6.40137 15.6885C5.94434 15.6885 5.61914 15.3809 5.61914 14.9502C5.61914 14.6865 5.69824 14.5195 5.93555 14.2031L9.75 9.03516V8.95605H6.30469C5.86523 8.95605 5.55762 8.69238 5.55762 8.25293C5.55762 7.83105 5.86523 7.55859 6.30469 7.55859H11.1387C11.6045 7.55859 11.9297 7.875 11.9297 8.31445C11.9297 8.5957 11.8682 8.74512 11.6484 9.04395L7.8252 14.2207V14.291H11.4727C11.9121 14.291 12.2197 14.5547 12.2197 14.9854C12.2197 15.416 11.9121 15.6885 11.4727 15.6885H6.40137Z" fill="#1C1C1E"/>
</g>
<defs>
<clipPath id="clip0_10_876">
<rect width="24" height="24" fill="white"/>
</clipPath>
</defs>
</svg>
