<svg width="24" height="24" viewBox="0 0 24 24" fill="none" xmlns="http://www.w3.org/2000/svg">
<g clip-path="url(#clip0_10_877)">
<path d="M8.87988 3.4541C3.61523 3.4541 1.33008 5.81836 1.33008 10.8545V17.0156C1.33008 18.8965 2.32324 19.8809 4.22168 19.8809H19.7783C21.6768 19.8809 22.6699 18.8965 22.6699 17.0156V10.8545C22.6699 5.81836 20.376 3.4541 15.1201 3.4541H8.87988ZM8.91504 5.2207H15.085C19.1543 5.2207 20.9121 6.9873 20.9121 10.8018V16.8574C20.9121 17.6924 20.4551 18.1318 19.6641 18.1318H4.33594C3.53613 18.1318 3.0791 17.6924 3.0791 16.8574V10.8018C3.0791 6.9873 4.8457 5.2207 8.91504 5.2207ZM14.3027 15.5391H18.1523C18.5742 15.5391 18.8643 15.2754 18.8643 14.8535C18.8643 14.4229 18.5742 14.168 18.1523 14.168H15.1641V8.56055C15.1641 7.97168 14.8564 7.61133 14.3027 7.61133C13.7578 7.61133 13.459 7.98047 13.459 8.56055V14.5898C13.459 15.1611 13.7578 15.5391 14.3027 15.5391ZM6.6123 15.5391H11.499C11.9121 15.5391 12.2021 15.2754 12.2021 14.8711C12.2021 14.458 11.9209 14.2031 11.499 14.2031H7.97461V14.1328L11.6572 9.12305C11.877 8.85059 11.9297 8.70996 11.9297 8.44629C11.9297 8.01562 11.6221 7.7168 11.1738 7.7168H6.52441C6.10254 7.7168 5.82129 7.97168 5.82129 8.38477C5.82129 8.79785 6.11133 9.05273 6.52441 9.05273H9.85547V9.12305L6.17285 14.124C5.94434 14.4229 5.87402 14.5898 5.87402 14.8359C5.87402 15.249 6.18164 15.5391 6.6123 15.5391Z" fill="#1C1C1E"/>
</g>
<defs>
<clipPath id="clip0_10_877">
<rect width="24" height="24" fill="white"/>
</clipPath>
</defs>
</svg>
