<svg width="24" height="24" viewBox="0 0 24 24" fill="none" xmlns="http://www.w3.org/2000/svg">
<g clip-path="url(#clip0_10_874)">
<path d="M8.87988 3.4541C3.61523 3.4541 1.33008 5.81836 1.33008 10.8545V17.0156C1.33008 18.8965 2.32324 19.8809 4.22168 19.8809H19.7783C21.6768 19.8809 22.6699 18.8965 22.6699 17.0156V10.8545C22.6699 5.81836 20.376 3.4541 15.1201 3.4541H8.87988ZM5.80371 15.6885C5.34668 15.6885 5.03027 15.3896 5.03027 14.959C5.03027 14.6953 5.10059 14.5283 5.33789 14.2119L9.15234 9.03516V8.96484H5.70703C5.27637 8.96484 4.96875 8.70117 4.96875 8.26172C4.96875 7.83105 5.26758 7.56738 5.70703 7.56738H10.541C11.0068 7.56738 11.332 7.875 11.332 8.32324C11.332 8.60449 11.2793 8.75391 11.042 9.04395L7.22754 14.2207V14.2998H10.875C11.3145 14.2998 11.6133 14.5547 11.6133 14.9941C11.6133 15.416 11.3057 15.6885 10.875 15.6885H5.80371ZM13.6084 15.8115C13.0723 15.8115 12.7822 15.4512 12.7822 14.8799V8.55176C12.7822 7.94531 13.0811 7.56738 13.6699 7.56738H16.1924C18.0732 7.56738 19.2422 8.56934 19.2422 10.2129C19.2422 11.3203 18.5742 12.2432 17.5459 12.5771L18.8027 14.5107C18.9258 14.7129 18.9785 14.8711 18.9785 15.0908C18.9785 15.5127 18.6621 15.8115 18.2139 15.8115C17.8447 15.8115 17.6426 15.6621 17.3701 15.2402L15.9199 12.8496H14.4434V14.8799C14.4434 15.46 14.1445 15.8115 13.6084 15.8115ZM14.4434 11.6279H15.9551C16.9219 11.6279 17.5371 11.127 17.5371 10.248C17.5371 9.35156 16.9131 8.83301 15.9902 8.83301H14.4434V11.6279Z" fill="#1C1C1E"/>
</g>
<defs>
<clipPath id="clip0_10_874">
<rect width="24" height="24" fill="white"/>
</clipPath>
</defs>
</svg>
