<svg width="24" height="24" viewBox="0 0 24 24" fill="none" xmlns="http://www.w3.org/2000/svg">
<g clip-path="url(#clip0_10_875)">
<path d="M8.87988 3.4541C3.61523 3.4541 1.33008 5.81836 1.33008 10.8545V17.0156C1.33008 18.8965 2.32324 19.8809 4.22168 19.8809H19.7783C21.6768 19.8809 22.6699 18.8965 22.6699 17.0156V10.8545C22.6699 5.81836 20.376 3.4541 15.1201 3.4541H8.87988ZM8.91504 5.2207H15.085C19.1543 5.2207 20.9121 6.9873 20.9121 10.8018V16.8574C20.9121 17.6924 20.4551 18.1318 19.6641 18.1318H4.33594C3.53613 18.1318 3.0791 17.6924 3.0791 16.8574V10.8018C3.0791 6.9873 4.8457 5.2207 8.91504 5.2207ZM6.04102 15.5391H10.9189C11.332 15.5391 11.6221 15.2842 11.6221 14.8711C11.6221 14.458 11.3408 14.2119 10.9189 14.2119H7.39453V14.1328L11.0771 9.13184C11.3057 8.85059 11.3496 8.70996 11.3496 8.44629C11.3496 8.01562 11.042 7.72559 10.6025 7.72559H5.94434C5.52246 7.72559 5.24121 7.97168 5.24121 8.38477C5.24121 8.79785 5.53125 9.05273 5.94434 9.05273H9.27539V9.12305L5.59277 14.124C5.36426 14.4229 5.29395 14.5898 5.29395 14.8359C5.29395 15.249 5.60156 15.5391 6.04102 15.5391ZM13.5381 15.6445C14.0566 15.6445 14.3467 15.3193 14.3467 14.7656V12.7969H15.7617L17.168 15.1084C17.4229 15.5127 17.625 15.6445 17.9766 15.6445C18.4072 15.6445 18.7061 15.3721 18.7061 14.9678C18.7061 14.7568 18.6533 14.5986 18.5303 14.4141L17.3086 12.542C18.3105 12.2168 18.9521 11.3291 18.9521 10.2656C18.9521 8.69238 17.8359 7.72559 16.0254 7.72559H13.5996C13.0459 7.72559 12.7559 8.07715 12.7559 8.65723V14.7656C12.7559 15.3105 13.0371 15.6445 13.5381 15.6445ZM14.3467 11.6367V8.92969H15.832C16.7285 8.92969 17.3262 9.43066 17.3262 10.3008C17.3262 11.1445 16.7373 11.6367 15.7969 11.6367H14.3467Z" fill="#1C1C1E"/>
</g>
<defs>
<clipPath id="clip0_10_875">
<rect width="24" height="24" fill="white"/>
</clipPath>
</defs>
</svg>
