<svg width="24" height="24" viewBox="0 0 24 24" fill="none" xmlns="http://www.w3.org/2000/svg">
<g clip-path="url(#clip0_2_91)">
<path d="M5.79492 21.2168C7.0166 21.2168 9.48633 20.0303 11.3496 18.7031C17.5547 18.8174 22.1953 15.2314 22.1953 10.5205C22.1953 5.97656 17.6514 2.32031 11.9912 2.32031C6.33105 2.32031 1.7959 5.97656 1.7959 10.5205C1.7959 13.4121 3.58887 15.9873 6.33984 17.332C5.96191 18.0439 5.29395 19.0195 4.91602 19.5293C4.35352 20.2764 4.74023 21.2168 5.79492 21.2168ZM6.8584 19.3975C6.74414 19.4414 6.7002 19.3799 6.7793 19.2832C7.22754 18.7383 7.88672 17.8682 8.21191 17.2529C8.47559 16.7695 8.3877 16.3477 7.8252 16.084C5.14453 14.8271 3.58887 12.8145 3.58887 10.5205C3.58887 6.9873 7.31543 4.11328 11.9912 4.11328C16.667 4.11328 20.3936 6.9873 20.3936 10.5205C20.3936 14.0537 16.667 16.9365 11.9912 16.9365C11.833 16.9365 11.5869 16.9277 11.2881 16.9277C10.9102 16.9189 10.6289 17.0332 10.2773 17.3057C9.21387 18.0967 7.64062 19.0811 6.8584 19.3975ZM12 15.0381C12.457 15.0381 12.791 14.7129 12.791 14.2734V10.1338L12.7119 8.32324L13.5117 9.3252L14.4873 10.3447C14.6104 10.4854 14.8037 10.5732 15.0146 10.5732C15.4365 10.5732 15.7441 10.2656 15.7441 9.86133C15.7441 9.65039 15.6738 9.47461 15.5332 9.3252L12.6328 6.38965C12.4395 6.1875 12.2461 6.09082 12 6.09082C11.7627 6.09082 11.5693 6.1875 11.376 6.38965L8.47559 9.3252C8.32617 9.47461 8.26465 9.65039 8.26465 9.86133C8.26465 10.2656 8.57227 10.5732 8.98535 10.5732C9.20508 10.5732 9.38965 10.4766 9.52148 10.3447L10.5059 9.31641L11.2881 8.33203L11.209 10.1338V14.2734C11.209 14.7129 11.5518 15.0381 12 15.0381Z" fill="#1C1C1E"/>
</g>
<defs>
<clipPath id="clip0_2_91">
<rect width="24" height="24" fill="white"/>
</clipPath>
</defs>
</svg>
