<svg width="24" height="24" viewBox="0 0 24 24" fill="none" xmlns="http://www.w3.org/2000/svg">
<g clip-path="url(#clip0_2_85)">
<path d="M4.69629 18.8877H13.9424C15.8408 18.8877 16.9307 17.8242 16.9307 15.9609V7.33008C16.9307 5.4668 15.9111 4.40332 14.0127 4.40332H4.69629C2.86816 4.40332 1.70801 5.4668 1.70801 7.33008V16.0225C1.70801 17.877 2.80664 18.8877 4.69629 18.8877ZM18.2227 14.4756L21.2285 17.0596C21.5889 17.376 21.9756 17.5781 22.3447 17.5781C23.0566 17.5781 23.54 17.0684 23.54 16.2949V7.04004C23.54 6.2666 23.0566 5.75684 22.3447 5.75684C21.9668 5.75684 21.5889 5.95898 21.2285 6.27539L18.2227 8.85938V14.4756ZM12.4922 7.93652C12.9404 7.93652 13.2744 8.24414 13.2744 8.66602C13.2744 8.88574 13.1953 9.0791 13.0195 9.24609L9.38965 12.8408L8.00977 14.0801L10.3125 13.9307H11.6045C12.0176 13.9307 12.3516 14.2383 12.3516 14.6514C12.3516 15.082 12.0264 15.4248 11.6133 15.4248H6.62109C6.02344 15.4248 5.71582 15.1172 5.71582 14.5195V9.58008C5.71582 9.16699 6.05859 8.85059 6.48926 8.85059C6.91113 8.85059 7.21875 9.18457 7.21875 9.58887V10.8281L7.06055 13.1133L8.30859 11.7598L11.9385 8.16504C12.0967 8.00684 12.2725 7.93652 12.4922 7.93652Z" fill="#1C1C1E"/>
</g>
<defs>
<clipPath id="clip0_2_85">
<rect width="24" height="24" fill="white"/>
</clipPath>
</defs>
</svg>
