<svg width="24" height="24" viewBox="0 0 24 24" fill="none" xmlns="http://www.w3.org/2000/svg">
<g clip-path="url(#clip0_2_76)">
<path d="M5.3291 21.1201C6.40137 21.1201 8.95898 20.0039 10.5586 18.8789C10.7256 18.7559 10.8662 18.7119 11.0068 18.7119C11.1211 18.7207 11.2266 18.7295 11.3232 18.7295C17.6602 18.7207 22.1953 15.2666 22.1953 10.5205C22.1953 5.97656 17.6514 2.32031 11.9912 2.32031C6.33105 2.32031 1.7959 5.97656 1.7959 10.5205C1.7959 13.3506 3.50098 15.8818 6.38379 17.4375C6.54199 17.5342 6.58594 17.666 6.50684 17.8242C5.99707 18.6768 5.14453 19.626 4.79297 20.0742C4.39746 20.5752 4.62598 21.1201 5.3291 21.1201ZM12 15.2227C11.5254 15.2227 11.1738 14.8887 11.1738 14.4141V10.1338L11.2617 8.26172L10.4443 9.28125L9.4248 10.3447C9.29297 10.4941 9.09082 10.582 8.87109 10.582C8.43164 10.582 8.10645 10.2656 8.10645 9.83496C8.10645 9.60645 8.17676 9.43945 8.32617 9.27246L11.3408 6.21387C11.5518 6.00293 11.7451 5.90625 12 5.90625C12.2637 5.90625 12.4658 6.01172 12.668 6.21387L15.6738 9.27246C15.832 9.43945 15.9023 9.60645 15.9023 9.83496C15.9023 10.2656 15.5771 10.582 15.1377 10.582C14.918 10.582 14.7158 10.4941 14.5752 10.3447L13.5732 9.29004L12.7471 8.25293L12.835 10.1338V14.4141C12.835 14.8887 12.4834 15.2227 12 15.2227Z" fill="#1C1C1E"/>
</g>
<defs>
<clipPath id="clip0_2_76">
<rect width="24" height="24" fill="white"/>
</clipPath>
</defs>
</svg>
