<svg width="24" height="24" viewBox="0 0 24 24" fill="none" xmlns="http://www.w3.org/2000/svg">
<g clip-path="url(#clip0_2_93)">
<path d="M4.69629 18.8877H13.9424C15.8408 18.8877 16.9307 17.8242 16.9307 15.9609V7.33008C16.9307 5.4668 15.9111 4.40332 14.0127 4.40332H4.69629C2.86816 4.40332 1.70801 5.4668 1.70801 7.33008V16.0225C1.70801 17.877 2.80664 18.8877 4.69629 18.8877ZM18.2227 14.4756L21.2285 17.0596C21.5889 17.376 21.9756 17.5781 22.3447 17.5781C23.0566 17.5781 23.54 17.0684 23.54 16.2949V7.04004C23.54 6.2666 23.0566 5.75684 22.3447 5.75684C21.9668 5.75684 21.5889 5.95898 21.2285 6.27539L18.2227 8.85938V14.4756ZM6.15527 15.4248C5.70703 15.4248 5.37305 15.1172 5.37305 14.6953C5.37305 14.4756 5.45215 14.2822 5.62793 14.1152L9.2666 10.5205L10.6465 9.28125L8.34375 9.43066H7.04297C6.63867 9.43066 6.30469 9.12305 6.30469 8.70996C6.30469 8.2793 6.62109 7.93652 7.04297 7.93652H12.0264C12.624 7.93652 12.9316 8.24414 12.9316 8.8418V13.7725C12.9316 14.1943 12.5889 14.5107 12.1582 14.5107C11.7451 14.5107 11.4375 14.1768 11.4375 13.7725V12.5332L11.5869 10.248L10.3477 11.6016L6.70898 15.1963C6.55078 15.3545 6.38379 15.4248 6.15527 15.4248Z" fill="#1C1C1E"/>
</g>
<defs>
<clipPath id="clip0_2_93">
<rect width="24" height="24" fill="white"/>
</clipPath>
</defs>
</svg>
