<svg width="24" height="24" viewBox="0 0 24 24" fill="none" xmlns="http://www.w3.org/2000/svg">
<g clip-path="url(#clip0_2_61)">
<path d="M12.0176 21.5332C12.5361 21.5332 12.9229 21.2783 13.3359 20.6104L14.918 18.0264H17.5986C20.2441 18.0264 21.7295 16.4971 21.7295 13.8867V7.05762C21.7295 4.44727 20.2441 2.91797 17.5986 2.91797H6.39258C3.75586 2.91797 2.26172 4.44727 2.26172 7.05762V13.8867C2.26172 16.5059 3.75586 18.0264 6.39258 18.0264H9.1084L10.6992 20.6104C11.1035 21.2783 11.499 21.5332 12.0176 21.5332ZM12.0176 19.7666L10.5059 17.0068C10.1982 16.4268 9.96094 16.2686 9.31934 16.2686H6.4541C4.80176 16.2686 4.01074 15.4336 4.01074 13.834V7.11035C4.01074 5.51074 4.80176 4.67578 6.4541 4.67578H17.5459C19.1895 4.67578 19.9805 5.51074 19.9805 7.11035V13.834C19.9805 15.4336 19.1895 16.2686 17.5459 16.2686H14.7158C14.0654 16.2686 13.8193 16.4268 13.5117 17.0068L12.0176 19.7666Z" fill="#1C1C1E"/>
</g>
<defs>
<clipPath id="clip0_2_61">
<rect width="24" height="24" fill="white"/>
</clipPath>
</defs>
</svg>
