<svg width="24" height="24" viewBox="0 0 24 24" fill="none" xmlns="http://www.w3.org/2000/svg">
<g clip-path="url(#clip0_2_52)">
<path d="M5.10938 21.4277C5.61035 21.4277 6.0498 21.2168 6.65625 20.6895L9.47754 18.1758C10.1279 18.8525 11.1035 19.2129 12.3252 19.2129H15.3311L18.2578 21.7266C18.8379 22.2188 19.251 22.4912 19.7256 22.4912C20.4287 22.4912 20.8418 21.9902 20.8418 21.2256V19.2129H21.2461C23.4609 19.2129 24.9375 17.8594 24.9375 15.583V10.2129C24.9375 7.90137 23.4346 6.5127 21.1758 6.5127H19.6465V5.94141C19.6465 3.55078 18.1787 2.13574 15.7705 2.13574H2.93848C0.600586 2.13574 -0.9375 3.55078 -0.9375 5.94141V14.168C-0.9375 16.5234 0.574219 17.9209 2.86816 17.9209H3.97559V20.1709C3.97559 20.9443 4.39746 21.4277 5.10938 21.4277ZM5.54883 17.0596C5.54883 16.5322 5.22363 16.2598 4.78418 16.2598H3.14941C1.69043 16.2598 0.811523 15.4424 0.811523 13.9219V6.13477C0.811523 4.61426 1.69922 3.78809 3.14941 3.78809H15.5508C17.0098 3.78809 17.8887 4.61426 17.8887 6.13477V6.5127H12.3252C9.9873 6.5127 8.56348 7.90137 8.56348 10.2129V15.583C8.56348 15.9521 8.59863 16.2861 8.66895 16.6025L5.54883 19.5205V17.0596ZM19.2773 20.584L16.5264 18.0879C16.1396 17.7363 15.8145 17.5781 15.2959 17.5781H12.5098C11.1299 17.5781 10.2949 16.8135 10.2949 15.3545V10.3799C10.2949 8.93848 11.1299 8.15625 12.5098 8.15625H20.9824C22.3711 8.15625 23.2061 8.93848 23.2061 10.3799V15.3545C23.2061 16.8047 22.3623 17.5781 20.9824 17.5781H20.0332C19.6025 17.5781 19.2773 17.8418 19.2773 18.3691V20.584Z" fill="#1C1C1E"/>
</g>
<defs>
<clipPath id="clip0_2_52">
<rect width="24" height="24" fill="white"/>
</clipPath>
</defs>
</svg>
