<svg width="24" height="24" viewBox="0 0 24 24" fill="none" xmlns="http://www.w3.org/2000/svg">
<g clip-path="url(#clip0_2_72)">
<path d="M16.1748 21.4629C16.8867 21.4629 17.3086 20.9619 17.3086 20.1797V18.0264H17.6602C20.2002 18.0264 21.7295 16.5059 21.7295 13.8867V7.05762C21.7295 4.44727 20.2441 2.91797 17.5986 2.91797H6.39258C3.75586 2.91797 2.26172 4.44727 2.26172 7.05762V13.8867C2.26172 16.4971 3.75586 18.0264 6.39258 18.0264H11.6836L14.6982 20.6807C15.3047 21.2168 15.6738 21.4629 16.1748 21.4629ZM15.7441 19.4941L12.958 16.7432C12.5801 16.3564 12.3252 16.2686 11.7891 16.2686H6.4541C4.81055 16.2686 4.01074 15.4336 4.01074 13.834V7.11035C4.01074 5.51074 4.81055 4.67578 6.4541 4.67578H17.5459C19.1982 4.67578 19.9805 5.51074 19.9805 7.11035V13.834C19.9805 15.4336 19.1982 16.2686 17.5459 16.2686H16.4648C15.9639 16.2686 15.7441 16.4707 15.7441 16.9893V19.4941Z" fill="#1C1C1E"/>
</g>
<defs>
<clipPath id="clip0_2_72">
<rect width="24" height="24" fill="white"/>
</clipPath>
</defs>
</svg>
