<svg width="24" height="24" viewBox="0 0 24 24" fill="none" xmlns="http://www.w3.org/2000/svg">
<g clip-path="url(#clip0_2_77)">
<path d="M12.0176 1.65234C11.499 1.65234 11.1035 1.91602 10.6992 2.5752L9.1084 5.16797H6.39258C3.75586 5.16797 2.26172 6.68848 2.26172 9.29883V16.1367C2.26172 18.7471 3.75586 20.2676 6.39258 20.2676H17.5986C20.2441 20.2676 21.7295 18.7471 21.7295 16.1367V9.29883C21.7295 6.68848 20.2441 5.16797 17.5986 5.16797H14.918L13.3359 2.58398C12.9229 1.90723 12.5361 1.65234 12.0176 1.65234ZM12.0176 3.42773L13.5117 6.17871C13.8193 6.76758 14.0654 6.91699 14.7158 6.91699H17.5459C19.1895 6.91699 19.9805 7.75195 19.9805 9.36035V16.0752C19.9805 17.6836 19.1895 18.5186 17.5459 18.5186H6.4541C4.80176 18.5186 4.01074 17.6836 4.01074 16.0752V9.36035C4.01074 7.75195 4.80176 6.91699 6.4541 6.91699H9.31934C9.96094 6.91699 10.1982 6.75879 10.5059 6.17871L12.0176 3.42773Z" fill="#1C1C1E"/>
</g>
<defs>
<clipPath id="clip0_2_77">
<rect width="24" height="24" fill="white"/>
</clipPath>
</defs>
</svg>
