<svg width="24" height="24" viewBox="0 0 24 24" fill="none" xmlns="http://www.w3.org/2000/svg">
<g clip-path="url(#clip0_2_38)">
<path d="M4.83691 21.3398C5.20605 21.3398 5.4873 21.1641 5.92676 20.7598L8.41406 18.4746C7.92188 18.0791 7.5 17.4111 7.5 16.0488V9.86133C7.5 7.09277 9.19629 5.43164 11.9648 5.43164H18.293L18.2842 5.15918C18.126 3.41016 16.9658 2.23242 14.874 2.23242H2.65723C0.547852 2.23242 -0.779297 3.46289 -0.779297 5.60742V14.4141C-0.779297 16.5322 0.521484 17.833 2.5957 17.833H4.00195V20.3818C4.00195 20.9619 4.30957 21.3398 4.83691 21.3398ZM19.6465 22.6055C20.1826 22.6055 20.4902 22.2275 20.4902 21.6475V19.0986H21.3955C23.4697 19.0986 24.7705 17.7979 24.7705 15.6797V10.0898C24.7705 7.94531 23.4434 6.71484 21.334 6.71484H12.2285C10.04 6.71484 8.79199 7.93652 8.79199 10.125V15.6797C8.79199 17.8154 10.0488 19.0986 12.2285 19.0986H15.3223L18.5654 22.0254C19.0049 22.4297 19.2773 22.6055 19.6465 22.6055Z" fill="#1C1C1E"/>
</g>
<defs>
<clipPath id="clip0_2_38">
<rect width="24" height="24" fill="white"/>
</clipPath>
</defs>
</svg>
