<svg width="24" height="24" viewBox="0 0 24 24" fill="none" xmlns="http://www.w3.org/2000/svg">
<g clip-path="url(#clip0_2_54)">
<path d="M7.81641 21.4629C8.31738 21.4629 8.68652 21.2168 9.29297 20.6807L12.3076 18.0264H17.5986C20.2441 18.0264 21.7295 16.4971 21.7295 13.8867V7.05762C21.7295 4.44727 20.2441 2.91797 17.5986 2.91797H6.39258C3.75586 2.91797 2.26172 4.44727 2.26172 7.05762V13.8867C2.26172 16.5059 3.7998 18.0264 6.33105 18.0264H6.69141V20.1797C6.69141 20.9619 7.10449 21.4629 7.81641 21.4629ZM8.25586 19.4941V16.9893C8.25586 16.4707 8.02734 16.2686 7.53516 16.2686H6.4541C4.80176 16.2686 4.01074 15.4336 4.01074 13.834V7.11035C4.01074 5.51074 4.80176 4.67578 6.4541 4.67578H17.5459C19.1895 4.67578 19.9805 5.51074 19.9805 7.11035V13.834C19.9805 15.4336 19.1895 16.2686 17.5459 16.2686H12.2109C11.6748 16.2686 11.4111 16.3564 11.042 16.7432L8.25586 19.4941ZM6.52441 11.5137H9.89941C10.2158 11.5137 10.4619 11.25 10.4619 10.9336C10.4619 10.626 10.2158 10.3623 9.89941 10.3623H6.52441C6.2168 10.3623 5.9707 10.626 5.9707 10.9336C5.9707 11.25 6.2168 11.5137 6.52441 11.5137ZM11.7451 11.5137H17.4756C17.792 11.5137 18.0381 11.25 18.0381 10.9336C18.0381 10.626 17.792 10.3623 17.4756 10.3623H11.7451C11.4287 10.3623 11.1826 10.626 11.1826 10.9336C11.1826 11.25 11.4375 11.5137 11.7451 11.5137ZM6.52441 13.8252H7.95703C8.27344 13.8252 8.52832 13.5615 8.52832 13.2539C8.52832 12.9287 8.27344 12.6738 7.95703 12.6738H6.52441C6.2168 12.6738 5.9707 12.9375 5.9707 13.2539C5.9707 13.5615 6.2168 13.8252 6.52441 13.8252ZM9.80273 13.8252H14.0039C14.3203 13.8252 14.5752 13.5615 14.5752 13.2539C14.5752 12.9287 14.3203 12.6738 14.0039 12.6738H9.80273C9.49512 12.6738 9.24023 12.9375 9.24023 13.2539C9.24023 13.5615 9.49512 13.8252 9.80273 13.8252ZM15.8496 13.8252H17.4756C17.7832 13.8252 18.0381 13.5615 18.0381 13.2539C18.0381 12.9287 17.7832 12.6738 17.4756 12.6738H15.8496C15.542 12.6738 15.2871 12.9375 15.2871 13.2539C15.2871 13.5615 15.542 13.8252 15.8496 13.8252Z" fill="#1C1C1E"/>
</g>
<defs>
<clipPath id="clip0_2_54">
<rect width="24" height="24" fill="white"/>
</clipPath>
</defs>
</svg>
