<svg width="24" height="24" viewBox="0 0 24 24" fill="none" xmlns="http://www.w3.org/2000/svg">
<g clip-path="url(#clip0_2_45)">
<path d="M7.52637 21.5156C7.89551 21.5156 8.16797 21.3398 8.60742 20.9443L11.8506 18.0176L17.5986 18.0264C20.2441 18.0264 21.7295 16.4971 21.7295 13.8867V7.05762C21.7295 4.44727 20.2441 2.91797 17.5986 2.91797H6.39258C3.75586 2.91797 2.26172 4.44727 2.26172 7.05762V13.8867C2.26172 16.5059 3.7998 18.0176 6.33105 18.0176H6.68262V20.5664C6.68262 21.1465 6.99023 21.5156 7.52637 21.5156ZM6.32227 11.4873C5.99707 11.4873 5.7334 11.2148 5.7334 10.8809C5.7334 10.5557 5.98828 10.2832 6.32227 10.2832H9.80273C10.1367 10.2832 10.4004 10.5557 10.4004 10.8809C10.4004 11.2148 10.1367 11.4873 9.80273 11.4873H6.32227ZM11.7275 11.4873C11.4023 11.4873 11.1387 11.2148 11.1387 10.8809C11.1387 10.5557 11.4023 10.2832 11.7275 10.2832H17.6865C18.0205 10.2832 18.2842 10.5557 18.2842 10.8809C18.2842 11.2148 18.0205 11.4873 17.6865 11.4873H11.7275ZM6.32227 13.8867C5.99707 13.8867 5.7334 13.6143 5.7334 13.2979C5.7334 12.9551 5.98828 12.6914 6.32227 12.6914H7.79883C8.13281 12.6914 8.39648 12.9551 8.39648 13.2979C8.39648 13.6143 8.13281 13.8867 7.79883 13.8867H6.32227ZM9.72363 13.8867C9.39844 13.8867 9.13477 13.6143 9.13477 13.2979C9.13477 12.9551 9.39844 12.6914 9.72363 12.6914H14.083C14.417 12.6914 14.6807 12.9551 14.6807 13.2979C14.6807 13.6143 14.417 13.8867 14.083 13.8867H9.72363ZM16.0078 13.8867C15.6826 13.8867 15.4189 13.6143 15.4189 13.2979C15.4189 12.9551 15.6826 12.6914 16.0078 12.6914H17.6865C18.0117 12.6914 18.2842 12.9551 18.2842 13.2979C18.2842 13.6143 18.0117 13.8867 17.6865 13.8867H16.0078Z" fill="#1C1C1E"/>
</g>
<defs>
<clipPath id="clip0_2_45">
<rect width="24" height="24" fill="white"/>
</clipPath>
</defs>
</svg>
