<svg width="24" height="24" viewBox="0 0 24 24" fill="none" xmlns="http://www.w3.org/2000/svg">
<g clip-path="url(#clip0_2_53)">
<path d="M7.52637 21.5156C7.89551 21.5156 8.16797 21.3398 8.60742 20.9443L11.8506 18.0176L17.5986 18.0264C20.2441 18.0264 21.7295 16.4971 21.7295 13.8867V7.05762C21.7295 4.44727 20.2441 2.91797 17.5986 2.91797H6.39258C3.75586 2.91797 2.26172 4.44727 2.26172 7.05762V13.8867C2.26172 16.5059 3.7998 18.0176 6.33105 18.0176H6.68262V20.5664C6.68262 21.1465 6.99023 21.5156 7.52637 21.5156ZM7.58789 11.8301C6.83203 11.8301 6.2168 11.2236 6.2168 10.4678C6.2168 9.71191 6.83203 9.09668 7.58789 9.09668C8.34375 9.09668 8.95898 9.71191 8.95898 10.4678C8.95898 11.2236 8.34375 11.8301 7.58789 11.8301ZM12.0088 11.8301C11.2441 11.8301 10.6377 11.2236 10.6377 10.4678C10.6377 9.71191 11.2441 9.09668 12.0088 9.09668C12.7646 9.09668 13.3711 9.71191 13.3711 10.4678C13.3711 11.2236 12.7646 11.8301 12.0088 11.8301ZM16.4209 11.8301C15.665 11.8301 15.0498 11.2236 15.0498 10.4678C15.0498 9.71191 15.665 9.09668 16.4209 9.09668C17.1768 9.09668 17.792 9.71191 17.792 10.4678C17.792 11.2236 17.1768 11.8301 16.4209 11.8301Z" fill="#1C1C1E"/>
</g>
<defs>
<clipPath id="clip0_2_53">
<rect width="24" height="24" fill="white"/>
</clipPath>
</defs>
</svg>
