<svg width="24" height="24" viewBox="0 0 24 24" fill="none" xmlns="http://www.w3.org/2000/svg">
<g clip-path="url(#clip0_2_56)">
<path d="M7.81641 21.4629C8.31738 21.4629 8.68652 21.2168 9.29297 20.6807L12.3076 18.0264H17.5986C20.2441 18.0264 21.7295 16.4971 21.7295 13.8867V7.05762C21.7295 4.44727 20.2441 2.91797 17.5986 2.91797H6.39258C3.75586 2.91797 2.26172 4.44727 2.26172 7.05762V13.8867C2.26172 16.5059 3.7998 18.0264 6.33105 18.0264H6.69141V20.1797C6.69141 20.9619 7.10449 21.4629 7.81641 21.4629ZM8.25586 19.4941V16.9893C8.25586 16.4707 8.02734 16.2686 7.53516 16.2686H6.4541C4.80176 16.2686 4.01074 15.4336 4.01074 13.834V7.11035C4.01074 5.51074 4.80176 4.67578 6.4541 4.67578H17.5459C19.1895 4.67578 19.9805 5.51074 19.9805 7.11035V13.834C19.9805 15.4336 19.1895 16.2686 17.5459 16.2686H12.2109C11.6748 16.2686 11.4111 16.3564 11.042 16.7432L8.25586 19.4941ZM7.76367 11.7861C8.48438 11.7861 9.06445 11.1973 9.06445 10.4678C9.06445 9.74707 8.48438 9.1582 7.76367 9.1582C7.03418 9.1582 6.44531 9.74707 6.44531 10.4678C6.44531 11.1973 7.03418 11.7861 7.76367 11.7861ZM12 11.7861C12.7207 11.7861 13.3096 11.1973 13.3096 10.4678C13.3096 9.74707 12.7207 9.1582 12 9.1582C11.2793 9.1582 10.6904 9.74707 10.6904 10.4678C10.6904 11.1973 11.2793 11.7861 12 11.7861ZM16.2451 11.7861C16.9658 11.7861 17.5547 11.1973 17.5547 10.4678C17.5547 9.74707 16.9658 9.1582 16.2451 9.1582C15.5244 9.1582 14.9355 9.74707 14.9355 10.4678C14.9355 11.1973 15.5244 11.7861 16.2451 11.7861Z" fill="#1C1C1E"/>
</g>
<defs>
<clipPath id="clip0_2_56">
<rect width="24" height="24" fill="white"/>
</clipPath>
</defs>
</svg>
