<svg width="24" height="24" viewBox="0 0 24 24" fill="none" xmlns="http://www.w3.org/2000/svg">
<g clip-path="url(#clip0_2_59)">
<path d="M11.9912 20.7598C16.9746 20.7598 21.0879 16.6465 21.0879 11.6631C21.0879 6.68848 16.9658 2.5752 11.9824 2.5752C7.00781 2.5752 2.90332 6.68848 2.90332 11.6631C2.90332 16.6465 7.0166 20.7598 11.9912 20.7598ZM11.9912 12.085C11.833 12.085 11.666 12.0234 11.4814 11.8477L7.64941 7.99805C7.77246 7.91016 8.03613 7.83105 8.40527 7.83105H15.5684C15.9463 7.83105 16.21 7.91016 16.333 7.99805L12.4922 11.8477C12.3164 12.0146 12.1582 12.085 11.9912 12.085ZM10.2422 11.6543L7.1748 14.7217C7.10449 14.6074 7.06934 14.3877 7.06934 14.0713V9.25488C7.06934 8.92969 7.11328 8.70996 7.1748 8.5957L10.2422 11.6543ZM13.7227 11.6543L16.79 8.5957C16.8516 8.70996 16.8867 8.92969 16.8867 9.25488V14.0713C16.8867 14.3877 16.8516 14.6074 16.79 14.7217L13.7227 11.6543ZM11.9824 12.8408C12.3164 12.8408 12.5713 12.7178 12.9053 12.4102L13.1689 12.1641L16.333 15.3281C16.21 15.4336 15.9463 15.4951 15.5684 15.4951H8.40527C8.01855 15.4951 7.76367 15.4336 7.64062 15.3281L10.7959 12.1641L11.0684 12.4102C11.4023 12.7178 11.6572 12.8408 11.9824 12.8408Z" fill="#1C1C1E"/>
</g>
<defs>
<clipPath id="clip0_2_59">
<rect width="24" height="24" fill="white"/>
</clipPath>
</defs>
</svg>
