<svg width="24" height="24" viewBox="0 0 24 24" fill="none" xmlns="http://www.w3.org/2000/svg">
<g clip-path="url(#clip0_2_63)">
<path d="M8.28223 4.33301L8.4668 3.41016C10.2861 3.71777 11.1826 4.79004 11.1826 6.11719V9.98438C11.1826 10.5117 11.5166 10.8721 12.0088 10.8721C12.501 10.8721 12.835 10.5117 12.835 9.98438V6.11719C12.835 4.79883 13.7314 3.72656 15.5244 3.41016L15.7178 4.33301C15.8232 4.88672 16.2715 4.9834 16.6758 4.56152L18.5654 2.53125C18.8906 2.18848 18.7939 1.7666 18.3721 1.58203L15.8408 0.457031C15.3135 0.228516 14.9443 0.492188 15.0498 1.03711L15.2432 2.0127C13.9512 2.27637 12.4482 3.07617 12.0088 4.06934C11.5693 3.06738 10.0488 2.26758 8.74805 2.0127L8.9502 1.03711C9.05566 0.492188 8.68652 0.228516 8.15039 0.457031L5.62793 1.58203C5.19727 1.7666 5.10938 2.18848 5.42578 2.53125L7.32422 4.56152C7.71973 4.9834 8.17676 4.88672 8.28223 4.33301ZM5.05664 20.5928H19.2158C20.877 20.5928 21.8438 19.6084 21.8438 17.7275V8.96484C21.8438 7.06641 20.8594 6.09082 18.9434 6.09082H14.1182V7.73438H18.9873C19.1279 7.73438 19.251 7.74316 19.374 7.76953L12.9932 13.3594C12.5889 13.7109 12.3164 13.8779 12.0088 13.8779C11.7012 13.8779 11.4111 13.6934 11.0244 13.3594L4.64355 7.76953C4.75781 7.74316 4.87207 7.73438 5.00391 7.73438H9.89941V6.09082H4.77539C3.11426 6.09082 2.14746 7.0752 2.14746 8.96484V17.7275C2.14746 19.626 3.13184 20.5928 5.05664 20.5928ZM3.79102 9.12305L8.29102 13.0605L3.79102 17.5166V9.12305ZM15.7266 13.0605L20.209 9.14062V17.499L15.7266 13.0605ZM12.0088 15.5215C12.6592 15.5215 13.248 15.2314 13.9424 14.6162L14.5312 14.0977L19.3828 18.9141C19.2598 18.9404 19.1279 18.9492 18.9873 18.9492H5.00391C4.87207 18.9492 4.74902 18.9404 4.63477 18.9141L9.48633 14.0977L10.0752 14.6162C10.7695 15.2314 11.3584 15.5215 12.0088 15.5215Z" fill="#1C1C1E"/>
</g>
<defs>
<clipPath id="clip0_2_63">
<rect width="24" height="24" fill="white"/>
</clipPath>
</defs>
</svg>
