<svg width="24" height="24" viewBox="0 0 24 24" fill="none" xmlns="http://www.w3.org/2000/svg">
<g clip-path="url(#clip0_2_10)">
<path d="M2.36719 18.9668L8.15918 13.2539L3.46582 8.66602C3.29883 8.50781 3.30762 8.30566 3.47461 8.18262L10.9717 2.46973C11.4111 2.13574 11.6484 1.97754 11.9912 1.97754C12.3428 1.97754 12.5713 2.12695 13.0195 2.46973L20.5166 8.18262C20.6836 8.30566 20.6836 8.50781 20.5166 8.6748L15.8584 13.2539L21.624 18.9492C21.7822 18.6768 21.8701 18.2109 21.8701 17.5693V8.88574C21.8701 7.80469 21.6768 7.26855 20.833 6.60059L13.9688 1.33594C13.2393 0.773438 12.7031 0.46582 11.9912 0.46582C11.2881 0.46582 10.752 0.773438 10.0225 1.33594L3.1582 6.60059C2.32324 7.25977 2.12109 7.80469 2.12109 8.88574V17.5693C2.12109 18.2197 2.20898 18.6855 2.36719 18.9668ZM4.80176 20.4346H18.9785C19.8311 20.4346 20.4375 20.2764 20.7891 19.9688L13.1162 12.3662C12.7207 11.9707 12.3867 11.7949 12.0088 11.7949C11.6309 11.7949 11.2881 11.9707 10.9014 12.3662L3.19336 20.0039C3.50977 20.2939 4.0459 20.4346 4.80176 20.4346Z" fill="#1C1C1E"/>
</g>
<defs>
<clipPath id="clip0_2_10">
<rect width="24" height="24" fill="white"/>
</clipPath>
</defs>
</svg>
