<svg width="24" height="24" viewBox="0 0 24 24" fill="none" xmlns="http://www.w3.org/2000/svg">
<g clip-path="url(#clip0_2_70)">
<path d="M11.9912 20.7422C16.9746 20.7422 21.0879 16.6289 21.0879 11.6543C21.0879 6.67969 16.9658 2.56641 11.9824 2.56641C7.00781 2.56641 2.90332 6.67969 2.90332 11.6543C2.90332 16.6289 7.0166 20.7422 11.9912 20.7422ZM11.9912 18.9316C7.95703 18.9316 4.73145 15.6885 4.73145 11.6543C4.73145 7.62012 7.95703 4.38574 11.9824 4.38574C16.0166 4.38574 19.2598 7.62012 19.2686 11.6543C19.2773 15.6885 16.0254 18.9316 11.9912 18.9316ZM11.9912 12.0674C12.1494 12.0674 12.3076 12.0059 12.4746 11.8389L16.1748 8.13867C16.0518 8.04199 15.7969 7.96289 15.4365 7.96289H8.53711C8.17676 7.96289 7.92188 8.04199 7.80762 8.13867L11.5078 11.8389C11.6836 12.0146 11.8418 12.0674 11.9912 12.0674ZM10.3037 11.6543L7.35938 8.70996C7.29785 8.81543 7.2627 9.03516 7.2627 9.34277V13.9746C7.2627 14.2822 7.28906 14.4932 7.35059 14.6074L10.3037 11.6543ZM13.6523 11.6543L16.6055 14.6074C16.667 14.4932 16.7021 14.2822 16.7021 13.9746V9.34277C16.7021 9.03516 16.667 8.81543 16.6055 8.70996L13.6523 11.6543ZM11.9824 12.7881C11.6748 12.7881 11.4199 12.6738 11.1035 12.375L10.8398 12.1377L7.79883 15.1787C7.92188 15.2842 8.16797 15.3545 8.53711 15.3545H15.4365C15.8057 15.3545 16.0518 15.2842 16.1748 15.1787L13.125 12.1377L12.8701 12.375C12.5449 12.6738 12.2988 12.7881 11.9824 12.7881Z" fill="#1C1C1E"/>
</g>
<defs>
<clipPath id="clip0_2_70">
<rect width="24" height="24" fill="white"/>
</clipPath>
</defs>
</svg>
