<svg width="24" height="24" viewBox="0 0 24 24" fill="none" xmlns="http://www.w3.org/2000/svg">
<g clip-path="url(#clip0_2_11)">
<path d="M5.0127 20.5049H18.9785C20.877 20.5049 21.8701 19.5205 21.8701 17.6396V8.99121C21.8701 7.4707 21.5713 6.9873 20.5605 6.23145L13.9775 1.17773C13.248 0.624023 12.7119 0.298828 11.9912 0.298828C11.2793 0.298828 10.7432 0.624023 10.0137 1.17773L3.43066 6.23145C2.42871 6.9873 2.12109 7.4707 2.12109 8.99121V17.6396C2.12109 19.5205 3.11426 20.5049 5.0127 20.5049ZM13.8896 11.7949C13.2568 11.1621 12.6416 10.8984 11.9824 10.8984C11.3232 10.8984 10.708 11.1621 10.0752 11.7949L9.57422 12.2783L4.58203 7.33887L10.9541 2.46094C11.3672 2.14453 11.6133 1.97754 11.9912 1.97754C12.3779 1.97754 12.6328 2.14453 13.0371 2.46094L19.3916 7.33008L14.3906 12.2783L13.8896 11.7949ZM20.2266 8.80664V17.5693C20.2266 17.7188 20.2178 17.8594 20.1826 17.9824L15.4629 13.3418L20.2266 8.63086C20.2266 8.68359 20.2266 8.74512 20.2266 8.80664ZM3.76465 17.5693V8.80664C3.76465 8.75391 3.76465 8.70117 3.76465 8.65723L8.50195 13.3418L3.7998 17.9561C3.77344 17.8418 3.76465 17.71 3.76465 17.5693ZM10.9805 12.9902C11.3496 12.6211 11.6572 12.4717 11.9824 12.4717C12.3076 12.4717 12.6152 12.6211 12.9844 12.9902L18.917 18.8438H5.04785L10.9805 12.9902Z" fill="#1C1C1E"/>
</g>
<defs>
<clipPath id="clip0_2_11">
<rect width="24" height="24" fill="white"/>
</clipPath>
</defs>
</svg>
