<svg width="24" height="24" viewBox="0 0 24 24" fill="none" xmlns="http://www.w3.org/2000/svg">
<g clip-path="url(#clip0_2_7)">
<path d="M5.0127 19.3887H19.1895C20.8857 19.3887 21.8701 18.4043 21.8701 16.5234V6.81152C21.8701 4.93066 20.877 3.94629 18.9785 3.94629H4.80176C3.10547 3.94629 2.12109 4.92188 2.12109 6.81152V16.5234C2.12109 18.4043 3.11426 19.3887 5.0127 19.3887ZM11.0068 11.9707L4.6084 5.64258C4.73145 5.61621 4.87207 5.59863 5.02148 5.59863H18.9697C19.1279 5.59863 19.2686 5.61621 19.4004 5.65137L13.0107 11.9707C12.6416 12.3311 12.334 12.4893 12.0088 12.4893C11.6836 12.4893 11.376 12.3223 11.0068 11.9707ZM3.76465 6.93457L8.5459 11.6367L3.76465 16.3652V6.93457ZM15.4717 11.6367L20.2266 6.96094V16.3477L15.4717 11.6367ZM5.02148 17.7275C4.86328 17.7275 4.71387 17.71 4.58203 17.6836L9.61816 12.6914L10.0928 13.166C10.7344 13.79 11.3496 14.0537 12.0088 14.0537C12.6592 14.0537 13.2832 13.79 13.916 13.166L14.3994 12.6914L19.4268 17.6748C19.2861 17.71 19.1367 17.7275 18.9697 17.7275H5.02148Z" fill="#1C1C1E"/>
</g>
<defs>
<clipPath id="clip0_2_7">
<rect width="24" height="24" fill="white"/>
</clipPath>
</defs>
</svg>
