<svg width="24" height="24" viewBox="0 0 24 24" fill="none" xmlns="http://www.w3.org/2000/svg">
<g clip-path="url(#clip0_2_64)">
<path d="M7.52637 21.5156C7.89551 21.5156 8.16797 21.3398 8.60742 20.9443L11.8506 18.0176L17.5986 18.0264C20.2441 18.0264 21.7295 16.4971 21.7295 13.8867V7.05762C21.7295 4.44727 20.2441 2.91797 17.5986 2.91797H6.39258C3.75586 2.91797 2.26172 4.44727 2.26172 7.05762V13.8867C2.26172 16.5059 3.7998 18.0176 6.33105 18.0176H6.68262V20.5664C6.68262 21.1465 6.99023 21.5156 7.52637 21.5156ZM12.0088 11.9707C11.4902 11.9707 11.1914 11.6807 11.1738 11.1533L11.0508 6.76758C11.0332 6.22266 11.4199 5.84473 12 5.84473C12.5625 5.84473 12.9756 6.23145 12.958 6.77637L12.8174 11.1533C12.7998 11.6895 12.5098 11.9707 12.0088 11.9707ZM12.0088 15.0117C11.4111 15.0117 10.9189 14.5811 10.9189 14.001C10.9189 13.4209 11.4111 12.9902 12.0088 12.9902C12.6064 12.9902 13.0898 13.4121 13.0898 14.001C13.0898 14.5898 12.5977 15.0117 12.0088 15.0117Z" fill="#1C1C1E"/>
</g>
<defs>
<clipPath id="clip0_2_64">
<rect width="24" height="24" fill="white"/>
</clipPath>
</defs>
</svg>
