<svg width="24" height="24" viewBox="0 0 24 24" fill="none" xmlns="http://www.w3.org/2000/svg">
<g clip-path="url(#clip0_2_80)">
<path d="M11.9912 20.7598C16.9746 20.7598 21.0879 16.6465 21.0879 11.6631C21.0879 6.68848 16.9658 2.5752 11.9824 2.5752C7.00781 2.5752 2.90332 6.68848 2.90332 11.6631C2.90332 16.6465 7.0166 20.7598 11.9912 20.7598ZM11.9912 7.14551C14.7422 7.14551 16.8955 8.93848 16.8955 11.1709C16.8955 13.3945 14.7422 15.1875 11.9912 15.1875C11.7891 15.1875 11.5957 15.1787 11.4287 15.1699C11.3232 15.1611 11.2705 15.1875 11.165 15.249C10.2686 15.7939 9.37207 16.1807 8.87988 16.1807C8.47559 16.1807 8.3877 15.8643 8.64258 15.5742C8.82715 15.3457 9.08203 15.0557 9.24023 14.748C9.29297 14.6426 9.30176 14.5459 9.1875 14.4756C7.93066 13.7197 7.08691 12.542 7.08691 11.1709C7.08691 8.93848 9.23145 7.14551 11.9912 7.14551Z" fill="#1C1C1E"/>
</g>
<defs>
<clipPath id="clip0_2_80">
<rect width="24" height="24" fill="white"/>
</clipPath>
</defs>
</svg>
