<svg width="24" height="24" viewBox="0 0 24 24" fill="none" xmlns="http://www.w3.org/2000/svg">
<g clip-path="url(#clip0_2_84)">
<path d="M5.79492 21.2168C7.0166 21.2168 9.48633 20.0303 11.3496 18.7031C17.5547 18.8174 22.1953 15.2314 22.1953 10.5205C22.1953 5.97656 17.6514 2.32031 11.9912 2.32031C6.33105 2.32031 1.7959 5.97656 1.7959 10.5205C1.7959 13.4121 3.58887 15.9873 6.33984 17.332C5.96191 18.0439 5.29395 19.0195 4.91602 19.5293C4.35352 20.2764 4.74023 21.2168 5.79492 21.2168ZM6.8584 19.3975C6.74414 19.4414 6.7002 19.3799 6.7793 19.2832C7.22754 18.7383 7.88672 17.8682 8.21191 17.2529C8.47559 16.7695 8.3877 16.3477 7.8252 16.084C5.14453 14.8271 3.58887 12.8145 3.58887 10.5205C3.58887 6.9873 7.31543 4.11328 11.9912 4.11328C16.667 4.11328 20.3936 6.9873 20.3936 10.5205C20.3936 14.0537 16.667 16.9365 11.9912 16.9365C11.833 16.9365 11.5869 16.9277 11.2881 16.9277C10.9102 16.9189 10.6289 17.0332 10.2773 17.3057C9.21387 18.0967 7.64062 19.0811 6.8584 19.3975Z" fill="#1C1C1E"/>
</g>
<defs>
<clipPath id="clip0_2_84">
<rect width="24" height="24" fill="white"/>
</clipPath>
</defs>
</svg>
