<svg width="24" height="24" viewBox="0 0 24 24" fill="none" xmlns="http://www.w3.org/2000/svg">
<g clip-path="url(#clip0_2_81)">
<path d="M11.9912 20.7422C16.9746 20.7422 21.0879 16.6289 21.0879 11.6543C21.0879 6.67969 16.9658 2.56641 11.9824 2.56641C7.00781 2.56641 2.90332 6.67969 2.90332 11.6543C2.90332 16.6289 7.0166 20.7422 11.9912 20.7422ZM11.9912 18.9316C7.95703 18.9316 4.73145 15.6885 4.73145 11.6543C4.73145 7.62012 7.95703 4.38574 11.9824 4.38574C16.0166 4.38574 19.2598 7.62012 19.2686 11.6543C19.2773 15.6885 16.0254 18.9316 11.9912 18.9316ZM11.9912 7.3125C9.33691 7.3125 7.2627 9.04395 7.2627 11.1797C7.2627 12.5068 8.08008 13.6406 9.30176 14.3701C9.39844 14.4316 9.39844 14.5195 9.3457 14.625C9.19629 14.9238 8.9502 15.2051 8.77441 15.416C8.52832 15.6973 8.61621 16.0049 9.00293 16.0049C9.47754 16.0049 10.3301 15.6357 11.2002 15.1084C11.2881 15.0557 11.3496 15.0293 11.4463 15.0381C11.6133 15.0469 11.7979 15.0557 11.9912 15.0557C14.6367 15.0557 16.7109 13.3242 16.7109 11.1797C16.7109 9.04395 14.6367 7.3125 11.9912 7.3125Z" fill="#1C1C1E"/>
</g>
<defs>
<clipPath id="clip0_2_81">
<rect width="24" height="24" fill="white"/>
</clipPath>
</defs>
</svg>
