<svg width="24" height="24" viewBox="0 0 24 24" fill="none" xmlns="http://www.w3.org/2000/svg">
<g clip-path="url(#clip0_2_94)">
<path d="M12 13.957C13.7842 13.957 15.1025 12.6211 15.1025 10.6699V4.74609C15.1025 2.79492 13.7842 1.45898 12 1.45898C10.2158 1.45898 8.89746 2.79492 8.89746 4.74609V10.6699C8.89746 12.6211 10.2158 13.957 12 13.957ZM5.28516 10.8721C5.28516 14.5107 7.70215 16.998 11.1826 17.332V19.1162H7.95703C7.49121 19.1162 7.10449 19.4854 7.10449 19.9512C7.10449 20.4082 7.49121 20.7861 7.95703 20.7861H16.043C16.5088 20.7861 16.8955 20.4082 16.8955 19.9512C16.8955 19.4854 16.5088 19.1162 16.043 19.1162H12.8174V17.332C16.2979 16.998 18.7148 14.5107 18.7148 10.8721V9.14062C18.7148 8.6748 18.3457 8.31445 17.8799 8.31445C17.4141 8.31445 17.0273 8.6748 17.0273 9.14062V10.8105C17.0273 13.8076 14.9971 15.7764 12 15.7764C9.00293 15.7764 6.97266 13.8076 6.97266 10.8105V9.14062C6.97266 8.6748 6.59473 8.31445 6.12891 8.31445C5.66309 8.31445 5.28516 8.6748 5.28516 9.14062V10.8721Z" fill="#1C1C1E"/>
</g>
<defs>
<clipPath id="clip0_2_94">
<rect width="24" height="24" fill="white"/>
</clipPath>
</defs>
</svg>
