<svg width="24" height="24" viewBox="0 0 24 24" fill="none" xmlns="http://www.w3.org/2000/svg">
<g clip-path="url(#clip0_2_89)">
<path d="M11.9912 20.7422C16.9746 20.7422 21.0879 16.6289 21.0879 11.6543C21.0879 6.67969 16.9658 2.56641 11.9824 2.56641C7.00781 2.56641 2.90332 6.67969 2.90332 11.6543C2.90332 16.6289 7.0166 20.7422 11.9912 20.7422ZM11.9912 18.9316C7.95703 18.9316 4.73145 15.6885 4.73145 11.6543C4.73145 7.62012 7.95703 4.38574 11.9824 4.38574C16.0166 4.38574 19.2598 7.62012 19.2686 11.6543C19.2773 15.6885 16.0254 18.9316 11.9912 18.9316ZM11.9912 13.2627C12.8438 13.2627 13.4854 12.5947 13.4854 11.6895V8.04199C13.4854 7.12793 12.8438 6.46875 11.9912 6.46875C11.1299 6.46875 10.4883 7.12793 10.4883 8.04199V11.6895C10.4883 12.5947 11.1299 13.2627 11.9912 13.2627ZM9.80273 16.8838H14.1797C14.4521 16.8838 14.6982 16.6465 14.6982 16.374C14.6982 16.0928 14.4609 15.8555 14.1797 15.8555H12.501V15.0469C14.2412 14.8359 15.4541 13.5264 15.4541 11.7422V10.6523C15.4541 10.3799 15.2168 10.1514 14.9443 10.1514C14.6631 10.1514 14.4258 10.3799 14.4258 10.6523V11.7334C14.4258 13.1221 13.3975 14.1152 11.9824 14.1152C10.5762 14.1152 9.54785 13.1221 9.54785 11.7334V10.6523C9.54785 10.3799 9.31055 10.1514 9.0293 10.1514C8.75684 10.1514 8.51953 10.3799 8.51953 10.6523V11.7422C8.51953 13.5264 9.74121 14.8447 11.4814 15.0469V15.8555H9.80273C9.52148 15.8555 9.27539 16.0928 9.27539 16.374C9.27539 16.6553 9.52148 16.8838 9.80273 16.8838Z" fill="#1C1C1E"/>
</g>
<defs>
<clipPath id="clip0_2_89">
<rect width="24" height="24" fill="white"/>
</clipPath>
</defs>
</svg>
