<svg width="24" height="24" viewBox="0 0 24 24" fill="none" xmlns="http://www.w3.org/2000/svg">
<g clip-path="url(#clip0_2_90)">
<path d="M15.375 5.00977C15.375 2.88281 13.9775 1.39746 12 1.39746C10.3037 1.39746 9.05566 2.51367 8.76562 4.16602V4.45605L10.3213 6.00293V4.97461C10.3213 3.81445 10.9717 3.02344 12 3.02344C13.0283 3.02344 13.6787 3.81445 13.6787 4.97461V9.1582C13.6787 9.22852 13.6699 9.29004 13.6699 9.35156L15.3311 11.0127C15.3574 10.8369 15.375 10.6611 15.375 10.4766V5.00977ZM18.7852 18C19.0664 18.2725 19.5146 18.2725 19.7783 18C20.042 17.7188 20.0508 17.2793 19.7783 17.0068L5.68945 2.93555C5.41699 2.66309 4.96875 2.6543 4.69629 2.93555C4.42383 3.19922 4.42383 3.65625 4.69629 3.91992L18.7852 18ZM7.95703 20.7861H16.043C16.5088 20.7861 16.8955 20.4082 16.8955 19.9512C16.8955 19.4854 16.5088 19.1162 16.043 19.1162H12.8174V17.332C13.8809 17.2266 14.8389 16.9277 15.665 16.4355L14.4521 15.2314C13.7578 15.583 12.9229 15.7764 12 15.7764C9.00293 15.7764 6.97266 13.8076 6.97266 10.8105V9.14062C6.97266 8.6748 6.58594 8.31445 6.12012 8.31445C5.6543 8.31445 5.27637 8.6748 5.27637 9.14062V10.8721C5.27637 14.5107 7.70215 16.998 11.1826 17.332V19.1162H7.95703C7.49121 19.1162 7.10449 19.4854 7.10449 19.9512C7.10449 20.4082 7.49121 20.7861 7.95703 20.7861ZM16.7637 12.4365L18.1084 13.7812C18.5039 12.9375 18.7148 11.9531 18.7148 10.8721V9.14062C18.7148 8.6748 18.3369 8.31445 17.8711 8.31445C17.4053 8.31445 17.0273 8.6748 17.0273 9.14062V10.8105C17.0273 11.3994 16.9395 11.9443 16.7637 12.4365ZM12 14.0889C12.4043 14.0889 12.7734 14.0186 13.1074 13.8867L11.5693 12.3486C11.5166 12.375 11.4463 12.375 11.376 12.375C10.9014 12.2695 10.541 11.8828 10.4268 11.3818L10.418 11.1973L8.625 9.4043V10.4766C8.625 12.6035 10.0137 14.0889 12 14.0889Z" fill="#1C1C1E"/>
</g>
<defs>
<clipPath id="clip0_2_90">
<rect width="24" height="24" fill="white"/>
</clipPath>
</defs>
</svg>
