<svg width="24" height="24" viewBox="0 0 24 24" fill="none" xmlns="http://www.w3.org/2000/svg">
<g clip-path="url(#clip0_2_88)">
<path d="M11.9912 20.7422C16.9746 20.7422 21.0879 16.6289 21.0879 11.6543C21.0879 6.67969 16.9658 2.56641 11.9824 2.56641C7.00781 2.56641 2.90332 6.67969 2.90332 11.6543C2.90332 16.6289 7.0166 20.7422 11.9912 20.7422ZM11.9912 13.3154C11.0947 13.3154 10.4268 12.6211 10.4268 11.6719V7.88379C10.4268 6.94336 11.0947 6.25781 11.9912 6.25781C12.8789 6.25781 13.5469 6.94336 13.5469 7.89258V11.6719C13.5469 12.6211 12.8789 13.3154 11.9912 13.3154ZM9.71484 17.0859C9.41602 17.0859 9.16113 16.8398 9.16113 16.5498C9.16113 16.2598 9.41602 16.0049 9.71484 16.0049H11.4551V15.1787C9.64453 14.959 8.37891 13.5967 8.37891 11.7334V10.5996C8.37891 10.3184 8.625 10.0723 8.91504 10.0723C9.20508 10.0723 9.45117 10.3184 9.45117 10.5996V11.7246C9.45117 13.166 10.5234 14.2031 11.9912 14.2031C13.459 14.2031 14.5225 13.166 14.5225 11.7246V10.5996C14.5225 10.3184 14.7686 10.0723 15.0586 10.0723C15.3486 10.0723 15.5947 10.3184 15.5947 10.5996V11.7334C15.5947 13.5967 14.3379 14.9502 12.5186 15.1787V16.0049H14.2676C14.5576 16.0049 14.8125 16.2598 14.8125 16.5498C14.8125 16.8311 14.5576 17.0859 14.2676 17.0859H9.71484Z" fill="#1C1C1E"/>
</g>
<defs>
<clipPath id="clip0_2_88">
<rect width="24" height="24" fill="white"/>
</clipPath>
</defs>
</svg>
