<svg width="24" height="24" viewBox="0 0 24 24" fill="none" xmlns="http://www.w3.org/2000/svg">
<g clip-path="url(#clip0_2_86)">
<path d="M12 1.50293C10.3389 1.50293 9.14355 2.66309 8.97656 4.37695V4.6582L15.0762 10.7578C15.0938 10.6963 15.0938 10.626 15.0938 10.5557V4.79004C15.0938 2.83887 13.7842 1.50293 12 1.50293ZM18.7852 18C19.0664 18.2725 19.5146 18.2725 19.7783 18C20.042 17.7188 20.0508 17.2793 19.7783 17.0068L5.68945 2.93555C5.41699 2.66309 4.96875 2.6543 4.69629 2.93555C4.42383 3.19922 4.42383 3.65625 4.69629 3.91992L18.7852 18ZM5.27637 10.8721C5.27637 14.5107 7.70215 16.998 11.1826 17.332V19.1162H7.95703C7.49121 19.1162 7.10449 19.4854 7.10449 19.9512C7.10449 20.4082 7.49121 20.7861 7.95703 20.7861H16.043C16.5088 20.7861 16.8955 20.4082 16.8955 19.9512C16.8955 19.4854 16.5088 19.1162 16.043 19.1162H12.8174V17.332C13.8809 17.2266 14.8389 16.9277 15.6562 16.4443L14.4521 15.2314C13.749 15.583 12.9229 15.7764 12 15.7764C9.00293 15.7764 6.97266 13.8076 6.97266 10.8105V9.14062C6.97266 8.6748 6.58594 8.31445 6.12012 8.31445C5.6543 8.31445 5.27637 8.6748 5.27637 9.14062V10.8721ZM16.7637 12.4453L18.1084 13.7812C18.5039 12.9375 18.7148 11.9531 18.7148 10.8721V9.14062C18.7148 8.6748 18.3369 8.31445 17.8711 8.31445C17.4053 8.31445 17.0273 8.6748 17.0273 9.14062V10.8105C17.0273 11.4082 16.9395 11.9531 16.7637 12.4453ZM12 13.957C12.3516 13.957 12.6943 13.8955 13.002 13.7812L8.88867 9.67676V10.6699C8.88867 12.6211 10.2158 13.957 12 13.957Z" fill="#1C1C1E"/>
</g>
<defs>
<clipPath id="clip0_2_86">
<rect width="24" height="24" fill="white"/>
</clipPath>
</defs>
</svg>
