<svg width="24" height="24" viewBox="0 0 24 24" fill="none" xmlns="http://www.w3.org/2000/svg">
<g clip-path="url(#clip0_2_12)">
<path d="M12.0088 13.9658C12.3604 13.9658 12.6504 13.7812 13.0547 13.4209L20.8682 6.57422C20.499 6.29297 19.9102 6.09082 19.1543 6.09082H12.835C12.835 4.79883 13.7314 3.72656 15.5244 3.41016L15.7178 4.33301C15.8232 4.88672 16.2715 4.9834 16.6758 4.56152L18.5654 2.53125C18.8906 2.18848 18.7939 1.7666 18.3721 1.58203L15.8408 0.457031C15.3135 0.228516 14.9443 0.492188 15.0498 1.03711L15.2432 2.0127C13.9512 2.27637 12.4482 3.07617 12.0088 4.06934C11.5693 3.06738 10.0488 2.26758 8.74805 2.0127L8.9502 1.03711C9.05566 0.492188 8.68652 0.228516 8.15039 0.457031L5.62793 1.58203C5.19727 1.7666 5.10938 2.18848 5.42578 2.53125L7.32422 4.56152C7.71973 4.9834 8.17676 4.88672 8.28223 4.33301L8.4668 3.41016C10.2686 3.71777 11.1738 4.77246 11.1826 6.09082H13.0547V9.83496C13.0547 10.3975 12.5713 10.8721 12.0088 10.8721C11.4375 10.8721 10.9541 10.3975 10.9541 9.83496V6.09082H4.77539C4.0459 6.09082 3.4834 6.28418 3.12305 6.55664L10.9541 13.4209C11.3584 13.7812 11.6484 13.9658 12.0088 13.9658ZM11.1826 6.11719V6.35449C11.1826 6.93457 11.499 7.28613 12.0088 7.28613C12.5186 7.28613 12.835 6.93457 12.835 6.35449V6.09082H11.1826C11.1826 6.09961 11.1826 6.1084 11.1826 6.11719ZM2.36719 19.0723L8.43164 13.043L2.33203 7.70801C2.21777 8.01562 2.14746 8.42871 2.14746 8.96484V17.7275C2.14746 18.3076 2.21777 18.7559 2.36719 19.0723ZM21.624 19.0547C21.7734 18.7383 21.8438 18.2988 21.8438 17.7275V8.96484C21.8438 8.4375 21.7734 8.0332 21.6592 7.72559L15.5859 13.043L21.624 19.0547ZM4.98633 20.5928H18.9961C19.7871 20.5928 20.3672 20.417 20.7539 20.1533L14.5312 13.9746L13.8721 14.5459C13.2129 15.1084 12.6592 15.4336 12.0088 15.4336C11.3496 15.4336 10.7959 15.1084 10.1367 14.5459L9.47754 13.9746L3.24609 20.1709C3.63281 20.4258 4.2041 20.5928 4.98633 20.5928Z" fill="#1C1C1E"/>
</g>
<defs>
<clipPath id="clip0_2_12">
<rect width="24" height="24" fill="white"/>
</clipPath>
</defs>
</svg>
