<svg width="24" height="24" viewBox="0 0 24 24" fill="none" xmlns="http://www.w3.org/2000/svg">
<g clip-path="url(#clip0_2_26)">
<path d="M11.9912 20.7422C16.9746 20.7422 21.0879 16.6289 21.0879 11.6543C21.0879 6.67969 16.9658 2.56641 11.9824 2.56641C7.00781 2.56641 2.90332 6.67969 2.90332 11.6543C2.90332 16.6289 7.0166 20.7422 11.9912 20.7422ZM11.9912 18.9316C7.95703 18.9316 4.73145 15.6885 4.73145 11.6543C4.73145 7.62012 7.95703 4.38574 11.9824 4.38574C16.0166 4.38574 19.2598 7.62012 19.2686 11.6543C19.2773 15.6885 16.0254 18.9316 11.9912 18.9316ZM6.07617 12.4717C6.07617 13.1396 6.41895 13.6582 7.0957 13.6582C7.5791 13.6582 8.15918 13.6406 9.12598 13.3418C9.70605 13.1572 9.95215 12.876 9.96973 12.252L9.97852 11.7598C9.97852 11.6543 10.0225 11.5928 10.1543 11.5488C10.4092 11.4609 11.0771 11.3379 11.9912 11.3379C12.8965 11.3379 13.5645 11.4609 13.8193 11.5488C13.9512 11.5928 14.0039 11.6543 14.0039 11.7598L14.0127 12.252C14.0215 12.876 14.2676 13.1572 14.8477 13.3418C15.8232 13.6406 16.3945 13.6582 16.8779 13.6582C17.5547 13.6582 17.8975 13.1396 17.8975 12.4717V12.3838C17.8975 10.1074 14.9443 8.95605 11.9912 8.95605C9.0293 8.95605 6.07617 10.1074 6.07617 12.3838V12.4717Z" fill="#1C1C1E"/>
</g>
<defs>
<clipPath id="clip0_2_26">
<rect width="24" height="24" fill="white"/>
</clipPath>
</defs>
</svg>
