<svg width="24" height="24" viewBox="0 0 24 24" fill="none" xmlns="http://www.w3.org/2000/svg">
<g clip-path="url(#clip0_2_25)">
<path d="M11.9912 20.7598C16.9746 20.7598 21.0879 16.6465 21.0879 11.6631C21.0879 6.68848 16.9658 2.5752 11.9824 2.5752C7.00781 2.5752 2.90332 6.68848 2.90332 11.6631C2.90332 16.6465 7.0166 20.7598 11.9912 20.7598ZM5.83887 12.5244V12.4365C5.83887 10.0635 8.91504 8.86816 11.9912 8.86816C15.0586 8.86816 18.1348 10.0635 18.1348 12.4365V12.5244C18.1348 13.2275 17.7744 13.7549 17.0713 13.7549C16.5703 13.7549 15.9727 13.7373 14.9531 13.4209C14.3555 13.2363 14.0918 12.9463 14.083 12.2871L14.0742 11.7773C14.0742 11.6807 14.0303 11.6104 13.8984 11.5664C13.626 11.4697 12.9316 11.3467 11.9912 11.3467C11.042 11.3467 10.3477 11.4697 10.0752 11.5664C9.94336 11.6104 9.89941 11.6807 9.89941 11.7773L9.89062 12.2871C9.88184 12.9463 9.61816 13.2363 9.02051 13.4209C8.00098 13.7373 7.40332 13.7549 6.90234 13.7549C6.19922 13.7549 5.83887 13.2275 5.83887 12.5244Z" fill="#1C1C1E"/>
</g>
<defs>
<clipPath id="clip0_2_25">
<rect width="24" height="24" fill="white"/>
</clipPath>
</defs>
</svg>
