<svg width="24" height="24" viewBox="0 0 24 24" fill="none" xmlns="http://www.w3.org/2000/svg">
<g clip-path="url(#clip0_2_55)">
<path d="M8.25586 15.6885C10.8486 18.29 14.0039 20.2939 16.5791 20.2939C17.7305 20.2939 18.7412 19.8896 19.5498 18.9932C20.0244 18.4658 20.3145 17.8594 20.3145 17.2529C20.3145 16.7871 20.1299 16.3301 19.6816 16.0137L16.9834 14.0977C16.5527 13.7988 16.2012 13.6582 15.8848 13.6582C15.4717 13.6582 15.1025 13.8867 14.6982 14.291L14.0654 14.9238C13.96 15.0205 13.8369 15.0645 13.7227 15.0645C13.582 15.0645 13.4502 15.0117 13.3623 14.959C12.8086 14.6602 11.8594 13.8516 10.9805 12.9727C10.1016 12.0938 9.28418 11.1533 8.99414 10.5908C8.94141 10.4941 8.89746 10.3711 8.89746 10.2305C8.89746 10.125 8.93262 10.002 9.0293 9.89648L9.66211 9.25488C10.0576 8.8418 10.2949 8.48145 10.2949 8.06836C10.2949 7.74316 10.1543 7.3916 9.85547 6.96973L7.94824 4.29785C7.62305 3.84082 7.16602 3.64746 6.66504 3.64746C6.06738 3.64746 5.46973 3.91113 4.95117 4.41211C4.07227 5.23828 3.68555 6.2666 3.68555 7.40039C3.68555 9.97559 5.66309 13.0957 8.25586 15.6885Z" fill="#1C1C1E"/>
</g>
<defs>
<clipPath id="clip0_2_55">
<rect width="24" height="24" fill="white"/>
</clipPath>
</defs>
</svg>
