<svg width="24" height="24" viewBox="0 0 24 24" fill="none" xmlns="http://www.w3.org/2000/svg">
<g clip-path="url(#clip0_2_24)">
<path d="M16.2275 20.4258C17.7656 20.4258 18.8027 19.9863 19.752 18.958C19.8135 18.8877 19.8838 18.8086 19.9453 18.7383C20.4551 18.1582 20.71 17.5518 20.71 16.9893C20.71 16.3301 20.3672 15.7324 19.5762 15.1963L16.957 13.3682C16.1309 12.7969 15.1729 12.7529 14.4346 13.4912L13.7842 14.1416C13.5557 14.3701 13.3447 14.3877 13.0723 14.2031C12.5977 13.8867 11.7012 13.0957 11.0859 12.4805C10.4619 11.8564 9.8291 11.1533 9.48633 10.6172C9.30176 10.3447 9.31934 10.1338 9.54785 9.90527L10.1982 9.25488C10.9365 8.5166 10.8926 7.55859 10.3213 6.73242L8.45801 4.06934C7.93066 3.31348 7.30664 2.96191 6.64746 2.95312C6.08496 2.94434 5.4873 3.19922 4.90723 3.70898C4.83691 3.77051 4.7666 3.83203 4.70508 3.89355C3.65918 4.85156 3.20215 5.87988 3.20215 7.47949C3.20215 10.0723 4.70508 13.1309 7.63184 16.04C10.541 18.9316 13.5645 20.4258 16.2275 20.4258ZM13.9512 10.4766C14.1621 10.4766 14.3379 10.4062 14.4873 10.2568L18.0293 6.71484L19.2334 5.39648L19.0928 7.67285V8.93848C19.0928 9.34277 19.4004 9.65039 19.8047 9.66797C20.2266 9.68555 20.5693 9.36035 20.5693 8.94727V3.99902C20.5693 3.41895 20.2617 3.11133 19.6816 3.11133H14.6982C14.2852 3.11133 13.96 3.4541 13.9775 3.87598C13.9951 4.28027 14.3027 4.58789 14.707 4.58789H16.0078L18.3018 4.43848L16.9658 5.64258L13.4238 9.19336C13.2656 9.36035 13.1865 9.54492 13.1865 9.76465C13.1865 10.1689 13.5117 10.4766 13.9512 10.4766ZM16.2188 18.958C13.9775 18.9932 11.1914 17.4023 8.74805 14.9766C6.28711 12.5508 4.65234 9.65918 4.6875 7.41797C4.70508 6.47754 5.03906 5.65137 5.70703 5.07129C5.76855 5.01855 5.83008 4.97461 5.8916 4.92188C6.1377 4.71094 6.40137 4.59668 6.64746 4.59668C6.90234 4.59668 7.13086 4.70215 7.30664 4.96582L8.95898 7.43555C9.16113 7.73438 9.16992 8.07715 8.8623 8.37598L8.15918 9.07031C7.49121 9.7207 7.55273 10.4854 7.97461 11.083C8.44922 11.7422 9.33691 12.7529 10.084 13.4912C10.8838 14.2822 11.9736 15.2578 12.6064 15.7148C13.2129 16.1367 13.9688 16.1982 14.6191 15.5303L15.3135 14.8271C15.6123 14.5195 15.9551 14.5283 16.2539 14.7305L18.6797 16.3477C18.9521 16.5234 19.0488 16.7432 19.0488 16.998C19.0488 17.2441 18.9434 17.5078 18.7236 17.7627C18.6709 17.8242 18.627 17.877 18.5742 17.9473C17.9941 18.6152 17.168 18.9492 16.2188 18.958Z" fill="#1C1C1E"/>
</g>
<defs>
<clipPath id="clip0_2_24">
<rect width="24" height="24" fill="white"/>
</clipPath>
</defs>
</svg>
