<svg width="24" height="24" viewBox="0 0 24 24" fill="none" xmlns="http://www.w3.org/2000/svg">
<g clip-path="url(#clip0_2_40)">
<path d="M11.9912 20.7422C16.9746 20.7422 21.0879 16.6289 21.0879 11.6543C21.0879 6.67969 16.9658 2.56641 11.9824 2.56641C7.00781 2.56641 2.90332 6.67969 2.90332 11.6543C2.90332 16.6289 7.0166 20.7422 11.9912 20.7422ZM11.9912 18.9316C7.95703 18.9316 4.73145 15.6885 4.73145 11.6543C4.73145 7.62012 7.95703 4.38574 11.9824 4.38574C16.0166 4.38574 19.2598 7.62012 19.2686 11.6543C19.2773 15.6885 16.0254 18.9316 11.9912 18.9316ZM9.87305 13.7021C11.9209 15.75 14.5049 17.042 16.0254 15.5127C16.0869 15.4512 16.1396 15.3896 16.1836 15.3281C16.5615 14.8887 16.6846 14.2998 16.166 13.9131C15.7441 13.6143 15.3135 13.3066 14.6279 12.832C14.1094 12.4629 13.7842 12.5596 13.3887 12.9463L13.0459 13.2891C12.9492 13.3857 12.7734 13.3682 12.6592 13.2979C12.3516 13.1133 11.8418 12.709 11.3584 12.2256C10.8838 11.7422 10.4531 11.2148 10.2773 10.9248C10.2246 10.8281 10.1807 10.6699 10.2949 10.5469L10.6377 10.1865C11.0244 9.77344 11.1211 9.47461 10.7432 8.94727L9.67969 7.43555C9.31934 6.92578 8.79199 7.01367 8.19434 7.45312C8.15039 7.48828 8.11523 7.52344 8.08008 7.5498C6.54199 9.08789 7.84277 11.6719 9.87305 13.7021Z" fill="#1C1C1E"/>
</g>
<defs>
<clipPath id="clip0_2_40">
<rect width="24" height="24" fill="white"/>
</clipPath>
</defs>
</svg>
