<svg width="24" height="24" viewBox="0 0 24 24" fill="none" xmlns="http://www.w3.org/2000/svg">
<g clip-path="url(#clip0_2_47)">
<path d="M7.52637 21.5156C7.89551 21.5156 8.16797 21.3398 8.60742 20.9443L11.8506 18.0176L17.5986 18.0264C20.2441 18.0264 21.7295 16.4971 21.7295 13.8867V7.05762C21.7295 4.44727 20.2441 2.91797 17.5986 2.91797H6.39258C3.75586 2.91797 2.26172 4.44727 2.26172 7.05762V13.8867C2.26172 16.5059 3.7998 18.0176 6.33105 18.0176H6.68262V20.5664C6.68262 21.1465 6.99023 21.5156 7.52637 21.5156ZM9.82031 12.5859C7.69336 10.4766 6.34863 7.7959 7.93945 6.19629C7.97461 6.16113 8.00977 6.12598 8.0625 6.09082C8.68652 5.63379 9.24023 5.5459 9.60938 6.07324L10.7168 7.64648C11.1035 8.19141 11.0156 8.50781 10.6025 8.93848L10.251 9.31641C10.1367 9.43945 10.1807 9.59766 10.2334 9.69434C10.418 10.002 10.8574 10.5557 11.3584 11.0479C11.8594 11.5576 12.3867 11.9795 12.7031 12.1729C12.8262 12.2432 13.0107 12.2607 13.1162 12.1553L13.4678 11.8037C13.8721 11.3994 14.2148 11.3115 14.7598 11.6807C15.4541 12.1729 15.9111 12.498 16.3506 12.8057C16.8955 13.21 16.7637 13.8252 16.3682 14.2822C16.3242 14.3438 16.2715 14.4053 16.21 14.4756C14.6191 16.0576 11.9385 14.7217 9.82031 12.5859Z" fill="#1C1C1E"/>
</g>
<defs>
<clipPath id="clip0_2_47">
<rect width="24" height="24" fill="white"/>
</clipPath>
</defs>
</svg>
