<svg width="24" height="24" viewBox="0 0 24 24" fill="none" xmlns="http://www.w3.org/2000/svg">
<g clip-path="url(#clip0_2_34)">
<path d="M17.0801 1.7666C16.7725 2.06543 16.7812 2.56641 17.0801 2.86523L20.0332 5.82715C20.332 6.12598 20.833 6.12598 21.1318 5.82715C21.4395 5.52832 21.4395 5.03613 21.1318 4.72852L18.1699 1.7666C17.8711 1.46777 17.3701 1.46777 17.0801 1.7666ZM7.20996 15.6885C9.80273 18.29 12.958 20.2939 15.5332 20.2939C16.6846 20.2939 17.6953 19.8896 18.5039 18.9932C18.9785 18.4658 19.2686 17.8594 19.2686 17.2529C19.2686 16.7871 19.084 16.3301 18.6357 16.0137L15.9287 14.0977C15.5068 13.7988 15.1553 13.6582 14.8389 13.6582C14.4258 13.6582 14.0566 13.8867 13.6523 14.291L13.0107 14.9238C12.9141 15.0205 12.791 15.0645 12.6768 15.0645C12.5361 15.0645 12.4043 15.0117 12.3076 14.959C11.7627 14.6602 10.8135 13.8516 9.93457 12.9727C9.05566 12.0938 8.23828 11.1533 7.94824 10.5908C7.89551 10.4941 7.84277 10.3711 7.84277 10.2305C7.84277 10.125 7.87793 10.002 7.9834 9.89648L8.61621 9.25488C9.01172 8.8418 9.24902 8.48145 9.24902 8.06836C9.24902 7.74316 9.1084 7.3916 8.80957 6.96973L6.90234 4.29785C6.57715 3.84082 6.11133 3.64746 5.61914 3.64746C5.02148 3.64746 4.42383 3.91113 3.89648 4.41211C3.02637 5.23828 2.63965 6.2666 2.63965 7.40039C2.63965 9.97559 4.6084 13.0957 7.20996 15.6885ZM16.1924 6.71484C16.6758 7.18066 17.4404 7.18066 17.9238 6.70605C18.3896 6.23145 18.3896 5.45801 17.9238 4.9834C17.4404 4.50879 16.667 4.50879 16.1924 4.97461C15.709 5.45801 15.709 6.22266 16.1924 6.71484ZM12.9756 5.8623C12.6768 6.16113 12.6768 6.65332 12.9756 6.95215L15.9375 9.91406C16.2451 10.2217 16.7373 10.2217 17.0361 9.91406C17.335 9.61523 17.335 9.12305 17.0361 8.82422L14.0742 5.8623C13.7754 5.56348 13.2744 5.56348 12.9756 5.8623ZM12.0967 10.8018C12.5801 11.2764 13.3447 11.2764 13.8281 10.8018C14.3027 10.3184 14.3027 9.54492 13.8281 9.0791C13.3447 8.5957 12.5801 8.5957 12.0967 9.07031C11.6221 9.54492 11.6221 10.3184 12.0967 10.8018Z" fill="#1C1C1E"/>
</g>
<defs>
<clipPath id="clip0_2_34">
<rect width="24" height="24" fill="white"/>
</clipPath>
</defs>
</svg>
