<svg width="24" height="24" viewBox="0 0 24 24" fill="none" xmlns="http://www.w3.org/2000/svg">
<g clip-path="url(#clip0_2_27)">
<path d="M11.9912 7.83105C8.0625 7.83984 4.41504 8.64844 2.5957 10.4678C1.77832 11.2852 1.35645 12.2783 1.40918 13.4912C1.44434 14.2031 1.67285 14.8271 2.09473 15.2578C2.42871 15.583 2.88574 15.7764 3.42188 15.6885L6.69141 15.1348C7.20117 15.0557 7.55273 14.8975 7.78125 14.6689C8.07129 14.3789 8.15918 13.957 8.15918 13.3857L8.16797 12.4805C8.16797 12.3398 8.22949 12.2344 8.30859 12.1465C8.40527 12.041 8.53711 11.9883 8.64258 11.9707C9.24902 11.8301 10.4883 11.6895 12 11.6895C13.5029 11.6895 14.7422 11.7949 15.3486 11.9707C15.4453 11.9971 15.5771 12.0498 15.6738 12.1465C15.7529 12.2344 15.8057 12.3398 15.8145 12.4717L15.8232 13.3857C15.832 13.957 15.9199 14.3789 16.21 14.6689C16.4385 14.8975 16.79 15.0557 17.2998 15.1348L20.5342 15.6797C21.0879 15.7764 21.5537 15.5742 21.9053 15.2227C22.3271 14.8184 22.5645 14.1943 22.582 13.4736C22.6172 12.2695 22.1602 11.2764 21.3516 10.4678C19.5322 8.64844 15.9287 7.83105 11.9912 7.83105Z" fill="#1C1C1E"/>
</g>
<defs>
<clipPath id="clip0_2_27">
<rect width="24" height="24" fill="white"/>
</clipPath>
</defs>
</svg>
