<svg width="24" height="24" viewBox="0 0 24 24" fill="none" xmlns="http://www.w3.org/2000/svg">
<g clip-path="url(#clip0_2_35)">
<path d="M17.1768 1.7666C16.8779 2.06543 16.8779 2.56641 17.1768 2.86523L20.1299 5.82715C20.4375 6.12598 20.9385 6.12598 21.2373 5.82715C21.5361 5.52832 21.5361 5.03613 21.2373 4.72852L18.2754 1.7666C17.9766 1.46777 17.4756 1.46777 17.1768 1.7666ZM15.5508 20.4258C17.0889 20.4258 18.1348 19.9863 19.084 18.958C19.1455 18.8877 19.207 18.8086 19.2686 18.7383C19.7871 18.1582 20.042 17.5518 20.042 16.9893C20.042 16.3301 19.6904 15.7324 18.9082 15.1963L16.2803 13.3682C15.4541 12.7969 14.5049 12.7529 13.7666 13.4912L13.1162 14.1416C12.8789 14.3701 12.668 14.3877 12.4043 14.2031C11.9297 13.8867 11.0332 13.0957 10.418 12.4805C9.79395 11.8564 9.16113 11.1533 8.81836 10.6172C8.63379 10.3447 8.64258 10.1338 8.87988 9.90527L9.53027 9.25488C10.2686 8.5166 10.2246 7.55859 9.64453 6.73242L7.78125 4.06934C7.2627 3.31348 6.63867 2.96191 5.97949 2.95312C5.4082 2.94434 4.81934 3.19922 4.23926 3.70898C4.16895 3.77051 4.09863 3.83203 4.02832 3.89355C2.98242 4.85156 2.53418 5.87988 2.53418 7.47949C2.53418 10.0723 4.03711 13.1309 6.96387 16.04C9.87305 18.9316 12.8965 20.4258 15.5508 20.4258ZM15.5508 18.958C13.3096 18.9932 10.5234 17.4023 8.07129 14.9766C5.61914 12.5508 3.98438 9.65918 4.01953 7.41797C4.02832 6.47754 4.3623 5.65137 5.03027 5.07129C5.10059 5.01855 5.15332 4.97461 5.21484 4.92188C5.46094 4.71094 5.7334 4.59668 5.9707 4.59668C6.23438 4.59668 6.4541 4.70215 6.62988 4.96582L8.28223 7.43555C8.49316 7.73438 8.50195 8.07715 8.19434 8.37598L7.49121 9.07031C6.82324 9.7207 6.87598 10.4854 7.30664 11.083C7.78125 11.7422 8.66016 12.7529 9.41602 13.4912C10.2158 14.2822 11.3057 15.2578 11.9385 15.7148C12.5361 16.1367 13.292 16.1982 13.9424 15.5303L14.6367 14.8271C14.9355 14.5195 15.2783 14.5283 15.5859 14.7305L18.0117 16.3477C18.2842 16.5234 18.3809 16.7432 18.3809 16.998C18.3809 17.2441 18.2666 17.5078 18.0557 17.7627C18.0029 17.8242 17.959 17.877 17.9062 17.9473C17.3174 18.6152 16.4912 18.9492 15.5508 18.958ZM16.2891 6.71484C16.7725 7.18066 17.5371 7.18066 18.0205 6.70605C18.4863 6.23145 18.4863 5.45801 18.0205 4.9834C17.5371 4.50879 16.7725 4.50879 16.2891 4.97461C15.8145 5.45801 15.8145 6.22266 16.2891 6.71484ZM13.0811 5.8623C12.7822 6.16113 12.7822 6.65332 13.0811 6.95215L16.043 9.91406C16.3418 10.2217 16.834 10.2217 17.1328 9.91406C17.4404 9.61523 17.4404 9.12305 17.1328 8.82422L14.1709 5.8623C13.8721 5.56348 13.3799 5.56348 13.0811 5.8623ZM12.1934 10.8018C12.6768 11.2764 13.4502 11.2764 13.9248 10.8018C14.4082 10.3184 14.4082 9.54492 13.9248 9.0791C13.4502 8.5957 12.6768 8.5957 12.1934 9.07031C11.7188 9.54492 11.7188 10.3184 12.1934 10.8018Z" fill="#1C1C1E"/>
</g>
<defs>
<clipPath id="clip0_2_35">
<rect width="24" height="24" fill="white"/>
</clipPath>
</defs>
</svg>
