<svg width="24" height="24" viewBox="0 0 24 24" fill="none" xmlns="http://www.w3.org/2000/svg">
<g clip-path="url(#clip0_2_29)">
<path d="M3.70312 11.6543C3.70312 15.0469 4.47656 18.3955 6.28711 20.1709C7.13086 20.9971 8.19434 21.4893 9.53027 21.4717C10.8486 21.4541 11.7891 20.6104 11.5781 19.3711L11.0332 16.1719C10.8574 15.0996 10.4004 14.7041 9.28418 14.7041H8.73047C7.77246 14.7041 7.61426 13.6758 7.61426 11.6543C7.61426 9.62402 7.77246 8.5957 8.73047 8.5957H9.28418C10.3828 8.5957 10.8486 8.22656 11.0332 7.12793L11.5781 3.92871C11.7891 2.68945 10.8486 1.85449 9.53027 1.83691C8.19434 1.81055 7.13086 2.30273 6.28711 3.1377C4.47656 4.91309 3.70312 8.26172 3.70312 11.6543ZM11.6045 12.4014H16.166L17.8359 12.3135L16.1221 13.8252L15.2432 14.7217C15.1025 14.8623 15.0146 15.0557 15.0146 15.2754C15.0146 15.6885 15.3223 15.9873 15.7354 15.9873C15.9463 15.9873 16.1221 15.9082 16.2627 15.7676L19.7695 12.2695C19.9717 12.0762 20.0684 11.8564 20.0684 11.6543C20.0684 11.4521 19.9717 11.2324 19.7695 11.0391L16.2627 7.54102C16.1221 7.40039 15.9463 7.32129 15.7354 7.32129C15.3223 7.32129 15.0146 7.62012 15.0146 8.0332C15.0146 8.24414 15.1025 8.4375 15.2432 8.57812L16.1221 9.4834L17.8359 10.9863L16.166 10.9072H11.6045C11.1475 10.9072 10.8486 11.25 10.8486 11.6543C10.8486 12.0498 11.1475 12.4014 11.6045 12.4014Z" fill="#1C1C1E"/>
</g>
<defs>
<clipPath id="clip0_2_29">
<rect width="24" height="24" fill="white"/>
</clipPath>
</defs>
</svg>
