<svg width="24" height="24" viewBox="0 0 24 24" fill="none" xmlns="http://www.w3.org/2000/svg">
<g clip-path="url(#clip0_2_28)">
<path d="M1.12793 14.2734C1.12793 15.3633 1.76953 16.1982 2.89453 16.207C3.09668 16.207 3.39551 16.1895 3.7998 16.1191L7.11328 15.6357C8.44922 15.4512 8.80078 14.9062 8.80078 13.7812C8.80078 13.4473 8.80078 13.1133 8.80078 12.7793C8.80957 12.5068 8.93262 12.3838 9.13477 12.3311C10.4268 12.0498 13.5732 12.0498 14.8652 12.3311C15.0674 12.3838 15.1904 12.5068 15.1992 12.7793C15.1992 13.1133 15.1992 13.4473 15.1992 13.7812C15.208 14.9062 15.5508 15.4512 16.8867 15.6357L20.2002 16.1191C20.6045 16.1895 20.9033 16.207 21.1055 16.207C22.2305 16.1982 22.8721 15.3633 22.8721 14.2734V13.5176C22.8721 9.33398 18.2402 7.25098 12 7.25098C5.76855 7.25098 1.12793 9.33398 1.12793 13.5176V14.2734ZM2.69238 14.0537V13.5879C2.69238 10.0107 7.30664 8.70117 12 8.70117C16.6934 8.70117 21.3076 10.0107 21.3076 13.5879V14.0537C21.3076 14.4492 21.1143 14.7832 20.71 14.7832C20.5957 14.7832 20.4727 14.7568 20.2705 14.7217L17.2119 14.1504C16.957 14.0977 16.7637 13.9658 16.7637 13.5879V12.4629C16.7637 11.5137 16.4297 11.1533 15.9375 10.9951C14.4785 10.5908 9.52148 10.5908 8.07129 10.9951C7.57031 11.1533 7.23633 11.5137 7.23633 12.4629V13.5879C7.23633 13.9658 7.04297 14.0977 6.78809 14.1504L3.72949 14.7217C3.52734 14.7568 3.4043 14.7832 3.29004 14.7832C2.88574 14.7832 2.69238 14.4492 2.69238 14.0537Z" fill="#1C1C1E"/>
</g>
<defs>
<clipPath id="clip0_2_28">
<rect width="24" height="24" fill="white"/>
</clipPath>
</defs>
</svg>
