<svg width="24" height="24" viewBox="0 0 24 24" fill="none" xmlns="http://www.w3.org/2000/svg">
<g clip-path="url(#clip0_2_46)">
<path d="M16.2627 20.4258C17.8008 20.4258 18.8467 19.9863 19.7959 18.958C19.8574 18.8877 19.9189 18.8086 19.9805 18.7383C20.499 18.1582 20.7539 17.5518 20.7539 16.9893C20.7539 16.3301 20.4023 15.7324 19.6201 15.1963L17.001 13.3682C16.1748 12.7969 15.2168 12.7529 14.4785 13.4912L13.8281 14.1416C13.5996 14.3701 13.3799 14.3877 13.1162 14.2031C12.6416 13.8867 11.7451 13.0957 11.1299 12.4805C10.5059 11.8564 9.87305 11.1533 9.53027 10.6172C9.3457 10.3447 9.36328 10.1338 9.5918 9.90527L10.2422 9.25488C10.9805 8.5166 10.9365 7.55859 10.3564 6.73242L8.49316 4.06934C7.97461 3.31348 7.35059 2.96191 6.69141 2.95312C6.12891 2.94434 5.53125 3.19922 4.95117 3.70898C4.88086 3.77051 4.81055 3.83203 4.74023 3.89355C3.69434 4.85156 3.24609 5.87988 3.24609 7.47949C3.24609 10.0723 4.74902 13.1309 7.67578 16.04C10.585 18.9316 13.6084 20.4258 16.2627 20.4258ZM16.2627 18.958C14.0215 18.9932 11.2354 17.4023 8.79199 14.9766C6.33105 12.5508 4.69629 9.65918 4.73145 7.41797C4.74902 6.47754 5.08301 5.65137 5.74219 5.07129C5.8125 5.01855 5.86523 4.97461 5.93555 4.92188C6.18164 4.71094 6.44531 4.59668 6.69141 4.59668C6.94629 4.59668 7.1748 4.70215 7.35059 4.96582L8.99414 7.43555C9.20508 7.73438 9.21387 8.07715 8.90625 8.37598L8.20312 9.07031C7.53516 9.7207 7.59668 10.4854 8.01855 11.083C8.49316 11.7422 9.38086 12.7529 10.1279 13.4912C10.9277 14.2822 12.0176 15.2578 12.6504 15.7148C13.248 16.1367 14.0127 16.1982 14.6631 15.5303L15.3574 14.8271C15.6475 14.5195 15.9902 14.5283 16.2979 14.7305L18.7236 16.3477C18.9961 16.5234 19.0928 16.7432 19.0928 16.998C19.0928 17.2441 18.9785 17.5078 18.7676 17.7627C18.7148 17.8242 18.6709 17.877 18.6182 17.9473C18.0381 18.6152 17.2119 18.9492 16.2627 18.958Z" fill="#1C1C1E"/>
</g>
<defs>
<clipPath id="clip0_2_46">
<rect width="24" height="24" fill="white"/>
</clipPath>
</defs>
</svg>
