<svg width="24" height="24" viewBox="0 0 24 24" fill="none" xmlns="http://www.w3.org/2000/svg">
<g clip-path="url(#clip0_2_30)">
<path d="M3.3252 11.6543C3.30762 15.2139 4.32715 18.4482 6.24316 20.373C7.27148 21.3926 8.32617 21.8672 9.81152 21.8584C11.5957 21.8496 12.6592 20.8828 12.3604 19.0635L11.8066 15.8643C11.6309 14.8799 10.9805 14.168 9.93457 14.168H9.09082C8.59863 14.168 8.3877 13.9219 8.32617 13.2891C8.2998 12.9902 8.29102 12.3662 8.29102 11.6543C8.29102 10.9512 8.2998 10.3184 8.32617 10.0283C8.3877 9.38672 8.59863 9.14941 9.09082 9.14062H9.93457C10.9805 9.14062 11.6309 8.42871 11.8066 7.44434L12.3604 4.24512C12.6592 2.43457 11.6221 1.45898 9.81152 1.4502C8.32617 1.4502 7.27148 1.91602 6.24316 2.93555C4.32715 4.86035 3.30762 8.10352 3.3252 11.6543ZM4.86328 11.6543C4.85449 8.38477 5.72461 5.51953 7.33301 3.94629C7.95703 3.33984 8.71289 2.98828 9.5918 2.98828C10.5234 2.98828 11.0859 3.32227 10.8926 4.20996L10.3477 6.97852C10.2773 7.33887 10.0752 7.57617 9.65332 7.57617H8.73926C7.71973 7.57617 7.23633 8.18262 7.04297 9.0791C6.91113 9.70312 6.8584 10.6436 6.8584 11.6543C6.8584 12.665 6.91113 13.6055 7.04297 14.2295C7.23633 15.1348 7.71973 15.7324 8.73926 15.7324H9.65332C10.0752 15.7324 10.2773 15.9697 10.3477 16.3389L10.8926 19.0986C11.0771 19.9688 10.5322 20.3203 9.5918 20.3203C8.71289 20.3203 7.95703 19.9688 7.33301 19.3623C5.72461 17.7891 4.85449 14.9238 4.86328 11.6543ZM11.9736 12.4014H16.5352L18.2139 12.3135L16.5 13.8252L15.6123 14.7217C15.4717 14.8623 15.3926 15.0557 15.3926 15.2754C15.3926 15.6885 15.6914 15.9873 16.1045 15.9873C16.3154 15.9873 16.5 15.9082 16.6406 15.7676L20.1475 12.2695C20.3408 12.0762 20.4463 11.8564 20.4463 11.6543C20.4463 11.4521 20.3408 11.2324 20.1475 11.0391L16.6406 7.54102C16.5 7.40039 16.3154 7.32129 16.1045 7.32129C15.6914 7.32129 15.3926 7.62012 15.3926 8.0332C15.3926 8.24414 15.4717 8.4375 15.6123 8.57812L16.5 9.4834L18.2139 10.9863L16.5352 10.9072H11.9736C11.5166 10.9072 11.2266 11.25 11.2266 11.6543C11.2266 12.0498 11.5166 12.4014 11.9736 12.4014Z" fill="#1C1C1E"/>
</g>
<defs>
<clipPath id="clip0_2_30">
<rect width="24" height="24" fill="white"/>
</clipPath>
</defs>
</svg>
