<svg width="24" height="24" viewBox="0 0 24 24" fill="none" xmlns="http://www.w3.org/2000/svg">
<g clip-path="url(#clip0_2_31)">
<path d="M19.6201 3.49805C19.4092 3.49805 19.2334 3.57715 19.0752 3.72656L15.542 7.26855L14.3379 8.58691L14.4785 6.31055V5.04492C14.4785 4.64062 14.1709 4.33301 13.7578 4.31543C13.3447 4.29785 13.002 4.62305 13.002 5.03613V9.98438C13.002 10.5645 13.3096 10.8721 13.8896 10.8721H18.8643C19.2861 10.8721 19.6025 10.5293 19.5938 10.1074C19.5762 9.70312 19.2686 9.39551 18.8643 9.39551H17.5635L15.2607 9.54492L16.6055 8.34082L20.1387 4.79004C20.3057 4.62305 20.3848 4.43848 20.3848 4.21875C20.3848 3.81445 20.0596 3.49805 19.6201 3.49805ZM8.08008 15.6885C10.6729 18.29 13.8281 20.2939 16.4033 20.2939C17.5547 20.2939 18.5654 19.8896 19.374 18.9932C19.8486 18.4658 20.1387 17.8594 20.1387 17.2529C20.1387 16.7871 19.9541 16.3301 19.5059 16.0137L16.7988 14.0977C16.377 13.7988 16.0254 13.6582 15.709 13.6582C15.2959 13.6582 14.9268 13.8867 14.5225 14.291L13.8809 14.9238C13.7842 15.0205 13.6611 15.0645 13.5469 15.0645C13.4062 15.0645 13.2744 15.0117 13.1777 14.959C12.6328 14.6602 11.6836 13.8516 10.8047 12.9727C9.92578 12.0938 9.1084 11.1533 8.81836 10.5908C8.76562 10.4941 8.71289 10.3711 8.71289 10.2305C8.71289 10.125 8.74805 10.002 8.85352 9.89648L9.48633 9.25488C9.88184 8.8418 10.1191 8.48145 10.1191 8.06836C10.1191 7.74316 9.97852 7.3916 9.67969 6.96973L7.77246 4.29785C7.44727 3.84082 6.98145 3.64746 6.48926 3.64746C5.8916 3.64746 5.29395 3.91113 4.7666 4.41211C3.89648 5.23828 3.50977 6.2666 3.50977 7.40039C3.50977 9.97559 5.47852 13.0957 8.08008 15.6885Z" fill="#1C1C1E"/>
</g>
<defs>
<clipPath id="clip0_2_31">
<rect width="24" height="24" fill="white"/>
</clipPath>
</defs>
</svg>
