<svg width="24" height="24" viewBox="0 0 24 24" fill="none" xmlns="http://www.w3.org/2000/svg">
<g clip-path="url(#clip0_2_49)">
<path d="M11.9912 20.7598C16.9746 20.7598 21.0879 16.6465 21.0879 11.6631C21.0879 6.68848 16.9658 2.5752 11.9824 2.5752C7.00781 2.5752 2.90332 6.68848 2.90332 11.6631C2.90332 16.6465 7.0166 20.7598 11.9912 20.7598ZM9.80273 13.79C7.67578 11.6719 6.33105 8.99121 7.92188 7.3916C7.95703 7.35645 7.99219 7.32129 8.04492 7.28613C8.66895 6.8291 9.22266 6.74121 9.5918 7.27734L10.6992 8.85059C11.0859 9.39551 10.998 9.70312 10.585 10.1426L10.2334 10.5117C10.1191 10.6348 10.1631 10.8018 10.2158 10.8984C10.4004 11.2061 10.8398 11.751 11.3408 12.252C11.8418 12.7529 12.3691 13.1748 12.6855 13.3682C12.8086 13.4385 12.9932 13.4561 13.0986 13.3594L13.4502 13.0078C13.8545 12.6035 14.1973 12.5068 14.7422 12.8848C15.4365 13.377 15.8936 13.6934 16.333 14.0098C16.8691 14.4053 16.7461 15.0205 16.3506 15.4863C16.3066 15.5479 16.2539 15.6094 16.1924 15.6709C14.6016 17.2529 11.9209 15.917 9.80273 13.79Z" fill="#1C1C1E"/>
</g>
<defs>
<clipPath id="clip0_2_49">
<rect width="24" height="24" fill="white"/>
</clipPath>
</defs>
</svg>
