<svg width="24" height="24" viewBox="0 0 24 24" fill="none" xmlns="http://www.w3.org/2000/svg">
<g clip-path="url(#clip0_2_39)">
<path d="M7.52637 21.5156C7.89551 21.5156 8.16797 21.3398 8.60742 20.9443L11.8506 18.0176L17.5986 18.0264C20.2441 18.0264 21.7295 16.4971 21.7295 13.8867V7.05762C21.7295 4.44727 20.2441 2.91797 17.5986 2.91797H6.39258C3.75586 2.91797 2.26172 4.44727 2.26172 7.05762V13.8867C2.26172 16.5059 3.7998 18.0176 6.33105 18.0176H6.68262V20.5664C6.68262 21.1465 6.99023 21.5156 7.52637 21.5156ZM7.76367 10.4766C7.76367 9.95801 8.12402 9.59766 8.63379 9.59766H11.1387V7.09277C11.1387 6.58301 11.4902 6.21387 12 6.21387C12.5098 6.21387 12.8789 6.58301 12.8789 7.09277V9.59766H15.3838C15.8848 9.59766 16.2539 9.95801 16.2539 10.4766C16.2539 10.9775 15.8848 11.3291 15.3838 11.3291H12.8789V13.8428C12.8789 14.3438 12.5098 14.7129 12 14.7129C11.4902 14.7129 11.1387 14.3438 11.1387 13.8428V11.3291H8.63379C8.12402 11.3291 7.76367 10.9775 7.76367 10.4766Z" fill="#1C1C1E"/>
</g>
<defs>
<clipPath id="clip0_2_39">
<rect width="24" height="24" fill="white"/>
</clipPath>
</defs>
</svg>
