<svg width="24" height="24" viewBox="0 0 24 24" fill="none" xmlns="http://www.w3.org/2000/svg">
<g clip-path="url(#clip0_2_48)">
<path d="M7.81641 21.4629C8.31738 21.4629 8.68652 21.2168 9.29297 20.6807L12.3076 18.0264H17.5986C20.2441 18.0264 21.7295 16.4971 21.7295 13.8867V7.05762C21.7295 4.44727 20.2441 2.91797 17.5986 2.91797H6.39258C3.75586 2.91797 2.26172 4.44727 2.26172 7.05762V13.8867C2.26172 16.5059 3.7998 18.0264 6.33105 18.0264H6.69141V20.1797C6.69141 20.9619 7.10449 21.4629 7.81641 21.4629ZM8.25586 19.4941V16.9893C8.25586 16.4707 8.02734 16.2686 7.53516 16.2686H6.4541C4.80176 16.2686 4.01074 15.4336 4.01074 13.834V7.11035C4.01074 5.51074 4.80176 4.67578 6.4541 4.67578H17.5459C19.1895 4.67578 19.9805 5.51074 19.9805 7.11035V13.834C19.9805 15.4336 19.1895 16.2686 17.5459 16.2686H12.2109C11.6748 16.2686 11.4111 16.3564 11.042 16.7432L8.25586 19.4941ZM8.75684 11.3027H11.1738V13.7197C11.1738 14.2031 11.5166 14.5459 11.9912 14.5459C12.4834 14.5459 12.835 14.2031 12.835 13.7197V11.3027H15.252C15.7354 11.3027 16.0781 10.96 16.0781 10.4766C16.0781 9.99316 15.7441 9.6416 15.252 9.6416H12.835V7.22461C12.835 6.73242 12.4834 6.38965 11.9912 6.38965C11.5166 6.38965 11.1738 6.73242 11.1738 7.22461V9.6416H8.75684C8.26465 9.6416 7.92188 9.99316 7.92188 10.4766C7.92188 10.96 8.26465 11.3027 8.75684 11.3027Z" fill="#1C1C1E"/>
</g>
<defs>
<clipPath id="clip0_2_48">
<rect width="24" height="24" fill="white"/>
</clipPath>
</defs>
</svg>
