<svg width="24" height="24" viewBox="0 0 24 24" fill="none" xmlns="http://www.w3.org/2000/svg">
<g clip-path="url(#clip0_2_79)">
<path d="M4.69629 18.8877H13.9424C15.8408 18.8877 16.9307 17.8242 16.9307 15.9609V7.33008C16.9307 5.4668 15.9111 4.40332 14.0127 4.40332H4.69629C2.86816 4.40332 1.70801 5.4668 1.70801 7.33008V16.0225C1.70801 17.877 2.80664 18.8877 4.69629 18.8877ZM18.2227 14.4756L21.2285 17.0596C21.5889 17.376 21.9756 17.5781 22.3447 17.5781C23.0566 17.5781 23.54 17.0684 23.54 16.2949V7.04004C23.54 6.2666 23.0566 5.75684 22.3447 5.75684C21.9668 5.75684 21.5889 5.95898 21.2285 6.27539L18.2227 8.85938V14.4756ZM9.22266 13.3594C8.7041 13.3594 8.42285 13.1045 8.42285 12.6299V12.542C8.42285 11.8037 8.85352 11.3818 9.44238 10.9688C10.1279 10.4854 10.4883 10.2129 10.4883 9.70312C10.4883 9.1582 10.0664 8.78906 9.41602 8.78906C8.93262 8.78906 8.58105 9.02637 8.31738 9.42188C8.0625 9.7207 7.94824 9.97559 7.45605 9.97559C7.07812 9.97559 6.75293 9.71191 6.75293 9.30762C6.75293 9.1582 6.7793 9.00879 6.84082 8.86816C7.11328 8.08594 8.0625 7.44434 9.48633 7.44434C10.9717 7.44434 12.2197 8.24414 12.2197 9.62402C12.2197 10.582 11.6924 11.0654 10.875 11.5928C10.3389 11.9443 10.04 12.2256 10.0137 12.6475C10.0137 12.6826 10.0137 12.7178 10.0137 12.7529C9.96973 13.0869 9.68848 13.3594 9.22266 13.3594ZM9.21387 15.9082C8.66895 15.9082 8.22949 15.5127 8.22949 14.9941C8.22949 14.4668 8.66895 14.0713 9.21387 14.0713C9.75 14.0713 10.1895 14.4668 10.1895 14.9941C10.1895 15.5215 9.75 15.9082 9.21387 15.9082Z" fill="#1C1C1E"/>
</g>
<defs>
<clipPath id="clip0_2_79">
<rect width="24" height="24" fill="white"/>
</clipPath>
</defs>
</svg>
