<svg width="24" height="24" viewBox="0 0 24 24" fill="none" xmlns="http://www.w3.org/2000/svg">
<g clip-path="url(#clip0_2_73)">
<path d="M5.16211 19.002H14.3027C16.5615 19.002 17.8711 17.7275 17.8711 15.5127V14.458L21.0264 17.1299C21.4395 17.4814 21.8701 17.7188 22.292 17.7188C23.0918 17.7188 23.6455 17.1387 23.6455 16.2686V7.08398C23.6455 6.21387 23.0918 5.63379 22.292 5.63379C21.8701 5.63379 21.4395 5.87109 21.0264 6.21387L17.8711 8.89453V7.7959C17.8711 5.58105 16.5615 4.29785 14.3027 4.29785H5.16211C2.98242 4.29785 1.60254 5.58105 1.60254 7.7959V15.5742C1.60254 17.7803 2.90332 19.002 5.16211 19.002ZM5.45215 17.4199C4.08105 17.4199 3.29883 16.6816 3.29883 15.2578V8.05078C3.29883 6.60059 4.08105 5.88867 5.45215 5.88867H14.0127C15.3838 5.88867 16.166 6.61816 16.166 8.05078V15.2578C16.166 16.6816 15.375 17.4199 14.0127 17.4199H5.45215ZM21.6855 15.6885L17.8711 12.5684V10.7842L21.6855 7.66406C21.7646 7.60254 21.8174 7.56738 21.8877 7.56738C21.9844 7.56738 22.0371 7.6377 22.0371 7.76074V15.5918C22.0371 15.7061 21.9844 15.7852 21.8877 15.7852C21.8174 15.7852 21.7646 15.7412 21.6855 15.6885ZM9.50391 13.2891C9.95215 13.2891 10.2158 13.0342 10.251 12.709C10.251 12.6826 10.2598 12.6387 10.2598 12.6123C10.2773 12.1992 10.5586 11.9355 11.0859 11.5928C11.877 11.083 12.3691 10.626 12.3691 9.69434C12.3691 8.37598 11.1826 7.61133 9.75879 7.61133C8.3877 7.61133 7.47363 8.23535 7.20996 8.97363C7.15723 9.12305 7.13965 9.25488 7.13965 9.4043C7.13965 9.79102 7.43848 10.0283 7.80762 10.0283C8.27344 10.0283 8.3877 9.79102 8.625 9.50977C8.87988 9.12305 9.22266 8.88574 9.68848 8.88574C10.3213 8.88574 10.7256 9.24609 10.7256 9.78223C10.7256 10.2656 10.3916 10.5293 9.72363 10.9951C9.16113 11.3906 8.74805 11.8037 8.74805 12.5156V12.6035C8.74805 13.0605 9.01172 13.2891 9.50391 13.2891ZM9.49512 15.7324C10.0049 15.7324 10.4268 15.3721 10.4268 14.8623C10.4268 14.3613 10.0137 13.9834 9.49512 13.9834C8.97656 13.9834 8.55469 14.3525 8.55469 14.8623C8.55469 15.3633 8.98535 15.7324 9.49512 15.7324Z" fill="#1C1C1E"/>
</g>
<defs>
<clipPath id="clip0_2_73">
<rect width="24" height="24" fill="white"/>
</clipPath>
</defs>
</svg>
