<svg width="24" height="24" viewBox="0 0 24 24" fill="none" xmlns="http://www.w3.org/2000/svg">
<g clip-path="url(#clip0_2_60)">
<path d="M7.52637 21.5156C7.89551 21.5156 8.16797 21.3398 8.60742 20.9443L11.8506 18.0176L17.5986 18.0264C20.2441 18.0264 21.7295 16.4971 21.7295 13.8867V7.05762C21.7295 4.44727 20.2441 2.91797 17.5986 2.91797H6.39258C3.75586 2.91797 2.26172 4.44727 2.26172 7.05762V13.8867C2.26172 16.5059 3.7998 18.0176 6.33105 18.0176H6.68262V20.5664C6.68262 21.1465 6.99023 21.5156 7.52637 21.5156ZM7.66699 9.55371C7.66699 8.47266 8.48438 7.69922 9.58301 7.69922C10.7871 7.69922 11.5781 8.6748 11.5781 9.92285C11.5781 12.0762 9.82031 13.2188 8.87109 13.2188C8.60742 13.2188 8.40527 13.043 8.40527 12.7969C8.40527 12.5859 8.51074 12.4365 8.82715 12.3574C9.49512 12.1904 10.1543 11.6982 10.4443 11.0127H10.3389C10.1016 11.2939 9.72363 11.3818 9.32812 11.3818C8.31738 11.3818 7.66699 10.5908 7.66699 9.55371ZM12.4834 9.55371C12.4834 8.47266 13.3008 7.69922 14.3906 7.69922C15.5947 7.69922 16.3945 8.6748 16.3945 9.92285C16.3945 12.0762 14.6455 13.2188 13.6875 13.2188C13.4238 13.2188 13.2305 13.043 13.2305 12.7969C13.2305 12.5859 13.3359 12.4365 13.6436 12.3574C14.3115 12.1904 14.9707 11.6982 15.2607 11.0127H15.1553C14.918 11.2939 14.54 11.3818 14.1357 11.3818C13.1338 11.3818 12.4834 10.5908 12.4834 9.55371Z" fill="#1C1C1E"/>
</g>
<defs>
<clipPath id="clip0_2_60">
<rect width="24" height="24" fill="white"/>
</clipPath>
</defs>
</svg>
