<svg width="24" height="24" viewBox="0 0 24 24" fill="none" xmlns="http://www.w3.org/2000/svg">
<g clip-path="url(#clip0_2_62)">
<path d="M7.81641 21.4629C8.31738 21.4629 8.68652 21.2168 9.29297 20.6807L12.3076 18.0264H17.5986C20.2441 18.0264 21.7295 16.4971 21.7295 13.8867V7.05762C21.7295 4.44727 20.2441 2.91797 17.5986 2.91797H6.39258C3.75586 2.91797 2.26172 4.44727 2.26172 7.05762V13.8867C2.26172 16.5059 3.7998 18.0264 6.33105 18.0264H6.69141V20.1797C6.69141 20.9619 7.10449 21.4629 7.81641 21.4629ZM8.25586 19.4941V16.9893C8.25586 16.4707 8.02734 16.2686 7.53516 16.2686H6.4541C4.80176 16.2686 4.01074 15.4336 4.01074 13.834V7.11035C4.01074 5.51074 4.80176 4.67578 6.4541 4.67578H17.5459C19.1895 4.67578 19.9805 5.51074 19.9805 7.11035V13.834C19.9805 15.4336 19.1895 16.2686 17.5459 16.2686H12.2109C11.6748 16.2686 11.4111 16.3564 11.042 16.7432L8.25586 19.4941ZM7.84277 9.58887C7.84277 10.5732 8.4668 11.3379 9.43359 11.3379C9.81152 11.3379 10.1719 11.25 10.4004 10.9775H10.5059C10.2246 11.6455 9.5918 12.1113 8.9502 12.2695C8.65137 12.3486 8.5459 12.4893 8.5459 12.7002C8.5459 12.9287 8.73926 13.0957 8.99414 13.0957C9.9082 13.0957 11.5957 12.0059 11.5957 9.94043C11.5957 8.73633 10.8311 7.80469 9.6709 7.80469C8.625 7.80469 7.84277 8.54297 7.84277 9.58887ZM12.4658 9.58887C12.4658 10.5732 13.0898 11.3379 14.0566 11.3379C14.4434 11.3379 14.8037 11.25 15.0322 10.9775H15.1289C14.8477 11.6455 14.2148 12.1113 13.5732 12.2695C13.2832 12.3486 13.1777 12.4893 13.1777 12.7002C13.1777 12.9287 13.3623 13.0957 13.6172 13.0957C14.5312 13.0957 16.2188 12.0059 16.2188 9.94043C16.2188 8.73633 15.4541 7.80469 14.2939 7.80469C13.248 7.80469 12.4658 8.54297 12.4658 9.58887Z" fill="#1C1C1E"/>
</g>
<defs>
<clipPath id="clip0_2_62">
<rect width="24" height="24" fill="white"/>
</clipPath>
</defs>
</svg>
