<svg width="24" height="24" viewBox="0 0 24 24" fill="none" xmlns="http://www.w3.org/2000/svg">
<g clip-path="url(#clip0_2_96)">
<path d="M7.52637 21.5156C7.89551 21.5156 8.16797 21.3398 8.60742 20.9443L11.8506 18.0176L17.5986 18.0264C20.2441 18.0264 21.7295 16.4971 21.7295 13.8867V7.05762C21.7295 4.44727 20.2441 2.91797 17.5986 2.91797H6.39258C3.75586 2.91797 2.26172 4.44727 2.26172 7.05762V13.8867C2.26172 16.5059 3.7998 18.0176 6.33105 18.0176H6.68262V20.5664C6.68262 21.1465 6.99023 21.5156 7.52637 21.5156ZM6.91113 10.2568C6.2168 10.2568 5.86523 9.92285 5.86523 9.22852V7.53223C5.86523 6.83789 6.2168 6.50391 6.91113 6.50391H10.7256C11.4199 6.50391 11.7715 6.83789 11.7715 7.53223V9.22852C11.7715 9.92285 11.4199 10.2568 10.7256 10.2568H6.91113ZM14.2939 13.8691C13.5996 13.8691 13.2568 13.5352 13.2568 12.832V8.14746C13.2568 7.45312 13.5996 7.11914 14.2939 7.11914H17.0098C17.7129 7.11914 18.0557 7.45312 18.0557 8.14746V12.832C18.0557 13.5352 17.7129 13.8691 17.0098 13.8691H14.2939ZM7.93066 14.4316C7.23633 14.4316 6.89355 14.0889 6.89355 13.3945V12.252C6.89355 11.5576 7.23633 11.2236 7.93066 11.2236H11.2441C11.9385 11.2236 12.2725 11.5576 12.2725 12.252V13.3945C12.2725 14.0889 11.9385 14.4316 11.2441 14.4316H7.93066Z" fill="#1C1C1E"/>
</g>
<defs>
<clipPath id="clip0_2_96">
<rect width="24" height="24" fill="white"/>
</clipPath>
</defs>
</svg>
