<svg width="24" height="24" viewBox="0 0 24 24" fill="none" xmlns="http://www.w3.org/2000/svg">
<g clip-path="url(#clip0_2_58)">
<path d="M7.81641 21.4629C8.31738 21.4629 8.68652 21.2168 9.29297 20.6807L12.3076 18.0264H17.5986C20.2441 18.0264 21.7295 16.4971 21.7295 13.8867V7.05762C21.7295 4.44727 20.2441 2.91797 17.5986 2.91797H6.39258C3.75586 2.91797 2.26172 4.44727 2.26172 7.05762V13.8867C2.26172 16.5059 3.7998 18.0264 6.33105 18.0264H6.69141V20.1797C6.69141 20.9619 7.10449 21.4629 7.81641 21.4629ZM8.25586 19.4941V16.9893C8.25586 16.4707 8.02734 16.2686 7.53516 16.2686H6.4541C4.80176 16.2686 4.01074 15.4336 4.01074 13.834V7.11035C4.01074 5.51074 4.80176 4.67578 6.4541 4.67578H17.5459C19.1895 4.67578 19.9805 5.51074 19.9805 7.11035V13.834C19.9805 15.4336 19.1895 16.2686 17.5459 16.2686H12.2109C11.6748 16.2686 11.4111 16.3564 11.042 16.7432L8.25586 19.4941ZM7.0957 10.2568H10.7783C11.4463 10.2568 11.7715 9.94043 11.7715 9.27246V7.62891C11.7715 6.96094 11.4463 6.65332 10.7783 6.65332H7.0957C6.42773 6.65332 6.09375 6.96094 6.09375 7.62891V9.27246C6.09375 9.94043 6.42773 10.2568 7.0957 10.2568ZM14.2061 13.7285H16.8252C17.4932 13.7285 17.8184 13.4121 17.8184 12.7441V8.22656C17.8184 7.55859 17.4932 7.24219 16.8252 7.24219H14.2061C13.5381 7.24219 13.2129 7.55859 13.2129 8.22656V12.7441C13.2129 13.4121 13.5381 13.7285 14.2061 13.7285ZM8.08887 14.2646H11.2705C11.9385 14.2646 12.2637 13.9482 12.2637 13.2803V12.1816C12.2637 11.5137 11.9385 11.1885 11.2705 11.1885H8.08887C7.4209 11.1885 7.08691 11.5137 7.08691 12.1816V13.2803C7.08691 13.9482 7.4209 14.2646 8.08887 14.2646Z" fill="#1C1C1E"/>
</g>
<defs>
<clipPath id="clip0_2_58">
<rect width="24" height="24" fill="white"/>
</clipPath>
</defs>
</svg>
