<svg width="24" height="24" viewBox="0 0 24 24" fill="none" xmlns="http://www.w3.org/2000/svg">
<g clip-path="url(#clip0_2_78)">
<path d="M7.52637 21.5156C7.89551 21.5156 8.16797 21.3398 8.60742 20.9443L11.8506 18.0176L17.5986 18.0264C20.2441 18.0264 21.7295 16.4971 21.7295 13.8867V7.05762C21.7295 4.44727 20.2441 2.91797 17.5986 2.91797H6.39258C3.75586 2.91797 2.26172 4.44727 2.26172 7.05762V13.8867C2.26172 16.5059 3.7998 18.0176 6.33105 18.0176H6.68262V20.5664C6.68262 21.1465 6.99023 21.5156 7.52637 21.5156ZM11.9824 14.6865C11.3936 14.6865 11.0684 14.2734 11.0684 13.6494V7.72559H9.09961C8.64258 7.72559 8.32617 7.44434 8.32617 6.99609C8.32617 6.53027 8.64258 6.25781 9.09961 6.25781H14.9092C15.3662 6.25781 15.6738 6.53027 15.6738 6.99609C15.6738 7.44434 15.3662 7.72559 14.9092 7.72559H12.9141V13.6494C12.9141 14.291 12.5889 14.6865 11.9824 14.6865Z" fill="#1C1C1E"/>
</g>
<defs>
<clipPath id="clip0_2_78">
<rect width="24" height="24" fill="white"/>
</clipPath>
</defs>
</svg>
