<svg width="24" height="24" viewBox="0 0 24 24" fill="none" xmlns="http://www.w3.org/2000/svg">
<g clip-path="url(#clip0_2_95)">
<path d="M11.9912 20.7422C16.9746 20.7422 21.0879 16.6289 21.0879 11.6543C21.0879 6.67969 16.9658 2.56641 11.9824 2.56641C7.00781 2.56641 2.90332 6.67969 2.90332 11.6543C2.90332 16.6289 7.0166 20.7422 11.9912 20.7422ZM11.9912 18.9316C7.95703 18.9316 4.73145 15.6885 4.73145 11.6543C4.73145 7.62012 7.95703 4.38574 11.9824 4.38574C16.0166 4.38574 19.2598 7.62012 19.2686 11.6543C19.2773 15.6885 16.0254 18.9316 11.9912 18.9316ZM11.9912 7.33887C9.00293 7.33887 6.75293 8.29688 6.75293 10.0811C6.75293 10.7402 7.12207 10.9424 7.75488 10.8721L9.3457 10.7051C9.93457 10.6436 10.0928 10.3447 10.0928 9.84375V9.70312C10.0928 9.34277 10.6289 9.17578 11.9912 9.17578C13.459 9.17578 13.916 9.31641 13.916 9.71191V9.84375C13.916 10.3447 14.0566 10.6436 14.6543 10.7051L16.2539 10.8721C16.8779 10.9424 17.2383 10.749 17.2383 10.0811C17.2383 8.29688 14.9971 7.33887 11.9912 7.33887ZM8.00977 13.3857H8.82715C9.14355 13.3857 9.32812 13.21 9.32812 12.8848V12.0586C9.32812 11.7422 9.14355 11.5488 8.82715 11.5488H8.00977C7.68457 11.5488 7.48242 11.7422 7.48242 12.0586V12.8848C7.48242 13.2188 7.67578 13.3857 8.00977 13.3857ZM10.3916 13.3857H11.2529C11.5693 13.3857 11.7627 13.2188 11.7627 12.8848V12.0586C11.7627 11.7422 11.5693 11.5488 11.2529 11.5488H10.3916C10.0576 11.5488 9.87305 11.7422 9.87305 12.0586V12.8848C9.87305 13.2188 10.0488 13.3857 10.3916 13.3857ZM12.7998 13.3857H13.6084C13.9512 13.3857 14.1357 13.2188 14.1357 12.8848V12.0586C14.1357 11.7422 13.9424 11.5488 13.6084 11.5488H12.7998C12.4834 11.5488 12.29 11.7422 12.29 12.0586V12.8848C12.29 13.2188 12.4834 13.3857 12.7998 13.3857ZM15.1816 13.3857H15.9902C16.3154 13.3857 16.5088 13.2188 16.5088 12.8848V12.0586C16.5088 11.7422 16.3154 11.5488 15.9902 11.5488H15.1816C14.8477 11.5488 14.6631 11.7422 14.6631 12.0586V12.8848C14.6631 13.2188 14.8477 13.3857 15.1816 13.3857ZM8.00098 15.7676H8.81836C9.14355 15.7676 9.32812 15.5918 9.32812 15.2578V14.4404C9.32812 14.124 9.14355 13.9219 8.81836 13.9219H8.00098C7.67578 13.9219 7.48242 14.124 7.48242 14.4404V15.2578C7.48242 15.5918 7.67578 15.7676 8.00098 15.7676ZM10.374 15.7676H13.6348C13.96 15.7676 14.1357 15.583 14.1357 15.2578V14.4404C14.1357 14.124 13.9512 13.9219 13.6348 13.9219H10.374C10.0488 13.9219 9.87305 14.124 9.87305 14.4404V15.2578C9.87305 15.5918 10.0488 15.7676 10.374 15.7676ZM15.1904 15.7676H16.0078C16.333 15.7676 16.5088 15.5918 16.5088 15.2578V14.4404C16.5088 14.124 16.3242 13.9219 16.0078 13.9219H15.1904C14.8652 13.9219 14.6631 14.124 14.6631 14.4404V15.2578C14.6631 15.5918 14.8652 15.7676 15.1904 15.7676Z" fill="#1C1C1E"/>
</g>
<defs>
<clipPath id="clip0_2_95">
<rect width="24" height="24" fill="white"/>
</clipPath>
</defs>
</svg>
