<svg width="24" height="24" viewBox="0 0 24 24" fill="none" xmlns="http://www.w3.org/2000/svg">
<g clip-path="url(#clip0_2_21)">
<path d="M15.1377 19.9863C16.0693 19.0547 15.8145 18.2812 14.8477 17.4814L12.3428 15.4512C11.4023 14.6777 10.7871 14.9854 10.1104 15.6357L9.91699 15.8115C9.31055 16.3916 8.4668 15.9697 6.35742 13.8604C4.3623 11.8652 3.83496 10.8633 4.39746 10.292L4.58203 10.1074C5.26758 9.42188 5.53125 8.81543 4.7666 7.86621L2.72754 5.36133C1.93652 4.39453 1.1543 4.13965 0.222656 5.07129C-2.2998 7.59375 -0.462891 12.1904 3.78223 16.4355C7.95703 20.6104 12.5889 22.5439 15.1377 19.9863ZM7.92188 8.56934H9.56543C10.1982 8.56934 10.5498 8.21777 10.5498 7.57617V5.92383C10.5498 5.29102 10.1982 4.93066 9.56543 4.93066H7.92188C7.28027 4.93066 6.91113 5.29102 6.91113 5.92383V7.57617C6.91113 8.21777 7.28027 8.56934 7.92188 8.56934ZM12.6328 8.56934H14.2764C14.9004 8.56934 15.2695 8.21777 15.2695 7.57617V5.92383C15.2695 5.29102 14.9004 4.93066 14.2764 4.93066H12.6328C11.9912 4.93066 11.6221 5.29102 11.6221 5.92383V7.57617C11.6221 8.21777 11.9912 8.56934 12.6328 8.56934ZM17.3262 8.56934H18.9697C19.6025 8.56934 19.9805 8.21777 19.9805 7.57617V5.92383C19.9805 5.29102 19.6025 4.93066 18.9697 4.93066H17.3262C16.6934 4.93066 16.333 5.29102 16.333 5.92383V7.57617C16.333 8.21777 16.6934 8.56934 17.3262 8.56934ZM22.0283 8.56934H23.6719C24.3135 8.56934 24.6914 8.21777 24.6914 7.57617V5.92383C24.6914 5.29102 24.3135 4.93066 23.6719 4.93066H22.0283C21.3955 4.93066 21.0439 5.29102 21.0439 5.92383V7.57617C21.0439 8.21777 21.3955 8.56934 22.0283 8.56934ZM7.89551 13.2891H9.54785C10.1807 13.2891 10.5498 12.9287 10.5498 12.2959V10.626C10.5498 10.002 10.1807 9.63281 9.54785 9.63281H7.89551C7.27148 9.63281 6.91113 10.002 6.91113 10.626V12.2959C6.91113 12.9287 7.27148 13.2891 7.89551 13.2891ZM12.6064 13.2891H18.9961C19.6377 13.2891 19.9893 12.9287 19.9893 12.2959V10.626C19.9893 10.002 19.6377 9.63281 18.9961 9.63281H12.6064C11.9736 9.63281 11.6221 10.002 11.6221 10.626V12.2959C11.6221 12.9287 11.9736 13.2891 12.6064 13.2891ZM22.0547 13.2891H23.707C24.3398 13.2891 24.6914 12.9287 24.6914 12.2959V10.626C24.6914 10.002 24.3398 9.63281 23.707 9.63281H22.0547C21.4219 9.63281 21.0527 10.002 21.0527 10.626V12.2959C21.0527 12.9287 21.4219 13.2891 22.0547 13.2891Z" fill="#1C1C1E"/>
</g>
<defs>
<clipPath id="clip0_2_21">
<rect width="24" height="24" fill="white"/>
</clipPath>
</defs>
</svg>
