<svg width="24" height="24" viewBox="0 0 24 24" fill="none" xmlns="http://www.w3.org/2000/svg">
<g clip-path="url(#clip0_2_22)">
<path d="M11.9912 20.7598C16.9746 20.7598 21.0879 16.6465 21.0879 11.6631C21.0879 6.68848 16.9658 2.5752 11.9824 2.5752C7.00781 2.5752 2.90332 6.68848 2.90332 11.6631C2.90332 16.6465 7.0166 20.7598 11.9912 20.7598ZM11.9912 7.17188C15.1025 7.17188 17.4492 8.17383 17.4492 10.0283C17.4492 10.7139 17.0625 10.9248 16.4121 10.8457L14.751 10.6787C14.1357 10.6172 13.9863 10.3008 13.9863 9.78223V9.6416C13.9863 9.2373 13.5205 9.08789 11.9912 9.08789C10.5674 9.08789 10.0137 9.26367 10.0137 9.63281V9.78223C10.0137 10.3008 9.86426 10.6172 9.24902 10.6787L7.58789 10.8457C6.92871 10.9248 6.55078 10.7139 6.55078 10.0283C6.55078 8.17383 8.89746 7.17188 11.9912 7.17188ZM7.86035 13.4736C7.50879 13.4736 7.30664 13.2891 7.30664 12.9375V12.085C7.30664 11.7598 7.50879 11.5576 7.86035 11.5576H8.7041C9.0293 11.5576 9.21387 11.7598 9.21387 12.085V12.9375C9.21387 13.2891 9.0293 13.4736 8.7041 13.4736H7.86035ZM10.3213 13.4736C9.96973 13.4736 9.78516 13.2891 9.78516 12.9375V12.085C9.78516 11.7598 9.97852 11.5576 10.3213 11.5576H11.2178C11.5518 11.5576 11.7539 11.7598 11.7539 12.085V12.9375C11.7539 13.2891 11.5518 13.4736 11.2178 13.4736H10.3213ZM12.835 13.4736C12.501 13.4736 12.3076 13.2891 12.3076 12.9375V12.085C12.3076 11.7598 12.501 11.5576 12.835 11.5576H13.6787C14.0303 11.5576 14.2148 11.7598 14.2148 12.085V12.9375C14.2148 13.2891 14.0303 13.4736 13.6787 13.4736H12.835ZM15.3047 13.4736C14.9619 13.4736 14.7686 13.2891 14.7686 12.9375V12.085C14.7686 11.7598 14.9619 11.5576 15.3047 11.5576H16.1484C16.4824 11.5576 16.6934 11.7598 16.6934 12.085V12.9375C16.6934 13.2891 16.4912 13.4736 16.1484 13.4736H15.3047ZM7.84277 15.9434C7.50879 15.9434 7.30664 15.7588 7.30664 15.4072V14.5547C7.30664 14.2295 7.50879 14.0186 7.84277 14.0186H8.69531C9.0293 14.0186 9.21387 14.2295 9.21387 14.5547V15.4072C9.21387 15.7588 9.0293 15.9434 8.69531 15.9434H7.84277ZM10.3125 15.9434C9.96973 15.9434 9.78516 15.7588 9.78516 15.4072V14.5547C9.78516 14.2295 9.96973 14.0186 10.3125 14.0186H13.6963C14.0391 14.0186 14.2148 14.2295 14.2148 14.5547V15.4072C14.2148 15.7588 14.0391 15.9434 13.6963 15.9434H10.3125ZM15.3223 15.9434C14.9795 15.9434 14.7686 15.7588 14.7686 15.4072V14.5547C14.7686 14.2295 14.9795 14.0186 15.3223 14.0186H16.166C16.5 14.0186 16.6934 14.2295 16.6934 14.5547V15.4072C16.6934 15.7588 16.5 15.9434 16.166 15.9434H15.3223Z" fill="#1C1C1E"/>
</g>
<defs>
<clipPath id="clip0_2_22">
<rect width="24" height="24" fill="white"/>
</clipPath>
</defs>
</svg>
