<svg width="24" height="24" viewBox="0 0 24 24" fill="none" xmlns="http://www.w3.org/2000/svg">
<g clip-path="url(#clip0_2_23)">
<path d="M12 2.90918C6.10254 2.90918 1.45312 4.81641 1.45312 8.42871V8.4375C1.45312 9.74707 2.18262 10.125 3.43066 9.99316L6.63867 9.65918C7.85156 9.52734 8.09766 8.9209 8.09766 7.9541V7.68164C8.09766 6.89062 9.17871 6.54785 12 6.54785C14.9883 6.54785 15.9023 6.84668 15.9023 7.69043V7.9541C15.9023 8.89453 16.1484 9.52734 17.3613 9.65918L20.5693 9.99316C21.8174 10.125 22.5469 9.74707 22.5469 8.42871C22.5469 4.81641 17.9062 2.90918 12 2.90918ZM4.13379 14.9854H5.77734C6.41016 14.9854 6.76172 14.6338 6.76172 13.9922V12.3398C6.76172 11.707 6.41016 11.3467 5.77734 11.3467H4.13379C3.49219 11.3467 3.12305 11.707 3.12305 12.3398V13.9922C3.12305 14.6338 3.49219 14.9854 4.13379 14.9854ZM8.84473 14.9854H10.4883C11.1123 14.9854 11.4814 14.6338 11.4814 13.9922V12.3398C11.4814 11.707 11.1123 11.3467 10.4883 11.3467H8.84473C8.20312 11.3467 7.8252 11.707 7.8252 12.3398V13.9922C7.8252 14.6338 8.20312 14.9854 8.84473 14.9854ZM13.5381 14.9854H15.1816C15.8145 14.9854 16.1836 14.6338 16.1836 13.9922V12.3398C16.1836 11.707 15.8145 11.3467 15.1816 11.3467H13.5381C12.9053 11.3467 12.5449 11.707 12.5449 12.3398V13.9922C12.5449 14.6338 12.9053 14.9854 13.5381 14.9854ZM18.2314 14.9854H19.8838C20.5254 14.9854 20.9033 14.6338 20.9033 13.9922V12.3398C20.9033 11.707 20.5254 11.3467 19.8838 11.3467H18.2314C17.6074 11.3467 17.2559 11.707 17.2559 12.3398V13.9922C17.2559 14.6338 17.6074 14.9854 18.2314 14.9854ZM4.10742 19.7051H5.75977C6.39258 19.7051 6.76172 19.3447 6.76172 18.7119V17.042C6.76172 16.418 6.39258 16.0488 5.75977 16.0488H4.10742C3.4834 16.0488 3.12305 16.418 3.12305 17.042V18.7119C3.12305 19.3447 3.4834 19.7051 4.10742 19.7051ZM8.81836 19.7051H15.208C15.8496 19.7051 16.2012 19.3447 16.2012 18.7119V17.042C16.2012 16.418 15.8496 16.0488 15.208 16.0488H8.81836C8.17676 16.0488 7.8252 16.418 7.8252 17.042V18.7119C7.8252 19.3447 8.17676 19.7051 8.81836 19.7051ZM18.2666 19.7051H19.9189C20.5518 19.7051 20.9033 19.3447 20.9033 18.7119V17.042C20.9033 16.418 20.5518 16.0488 19.9189 16.0488H18.2666C17.6338 16.0488 17.2646 16.418 17.2646 17.042V18.7119C17.2646 19.3447 17.6338 19.7051 18.2666 19.7051Z" fill="#1C1C1E"/>
</g>
<defs>
<clipPath id="clip0_2_23">
<rect width="24" height="24" fill="white"/>
</clipPath>
</defs>
</svg>
