<svg width="24" height="24" viewBox="0 0 24 24" fill="none" xmlns="http://www.w3.org/2000/svg">
<g clip-path="url(#clip0_2_37)">
<path d="M7.81641 21.4629C8.31738 21.4629 8.68652 21.2168 9.29297 20.6807L12.3076 18.0264H17.5986C20.2441 18.0264 21.7295 16.4971 21.7295 13.8867V7.05762C21.7295 4.44727 20.2441 2.91797 17.5986 2.91797H6.39258C3.75586 2.91797 2.26172 4.44727 2.26172 7.05762V13.8867C2.26172 16.5059 3.7998 18.0264 6.33105 18.0264H6.69141V20.1797C6.69141 20.9619 7.10449 21.4629 7.81641 21.4629ZM8.25586 19.4941V16.9893C8.25586 16.4707 8.02734 16.2686 7.53516 16.2686H6.4541C4.80176 16.2686 4.01074 15.4336 4.01074 13.834V7.11035C4.01074 5.51074 4.80176 4.67578 6.4541 4.67578H17.5459C19.1895 4.67578 19.9805 5.51074 19.9805 7.11035V13.834C19.9805 15.4336 19.1895 16.2686 17.5459 16.2686H12.2109C11.6748 16.2686 11.4111 16.3564 11.042 16.7432L8.25586 19.4941ZM7.52637 8.17383H16.377C16.6758 8.17383 16.9219 7.92773 16.9219 7.62012C16.9219 7.32129 16.6758 7.0752 16.377 7.0752H7.52637C7.22754 7.0752 6.99023 7.32129 6.99023 7.62012C6.99023 7.92773 7.22754 8.17383 7.52637 8.17383ZM7.52637 10.9688H16.377C16.6758 10.9688 16.9219 10.7139 16.9219 10.4062C16.9219 10.1162 16.6758 9.86133 16.377 9.86133H7.52637C7.22754 9.86133 6.99023 10.1162 6.99023 10.4062C6.99023 10.7139 7.22754 10.9688 7.52637 10.9688ZM7.52637 13.7549H13.292C13.5996 13.7549 13.8369 13.5088 13.8369 13.21C13.8369 12.9023 13.5996 12.6562 13.292 12.6562H7.52637C7.22754 12.6562 6.99023 12.9023 6.99023 13.21C6.99023 13.5088 7.22754 13.7549 7.52637 13.7549Z" fill="#1C1C1E"/>
</g>
<defs>
<clipPath id="clip0_2_37">
<rect width="24" height="24" fill="white"/>
</clipPath>
</defs>
</svg>
