<svg width="24" height="24" viewBox="0 0 24 24" fill="none" xmlns="http://www.w3.org/2000/svg">
<g clip-path="url(#clip0_2_51)">
<path d="M7.52637 21.5156C7.89551 21.5156 8.16797 21.3398 8.60742 20.9443L11.8506 18.0176L17.5986 18.0264C20.2441 18.0264 21.7295 16.4971 21.7295 13.8867V7.05762C21.7295 4.44727 20.2441 2.91797 17.5986 2.91797H6.39258C3.75586 2.91797 2.26172 4.44727 2.26172 7.05762V13.8867C2.26172 16.5059 3.7998 18.0176 6.33105 18.0176H6.68262V20.5664C6.68262 21.1465 6.99023 21.5156 7.52637 21.5156ZM7.35059 8.07715C7.04297 8.07715 6.78809 7.82227 6.78809 7.49707C6.78809 7.18945 7.04297 6.93457 7.35059 6.93457H16.5527C16.8691 6.93457 17.124 7.18945 17.124 7.49707C17.124 7.82227 16.8691 8.07715 16.5527 8.07715H7.35059ZM7.35059 10.9863C7.04297 10.9863 6.78809 10.7227 6.78809 10.3975C6.78809 10.0986 7.04297 9.83496 7.35059 9.83496H16.5527C16.8691 9.83496 17.124 10.0898 17.124 10.3975C17.124 10.7227 16.8691 10.9863 16.5527 10.9863H7.35059ZM7.35059 13.8867C7.04297 13.8867 6.78809 13.623 6.78809 13.3154C6.78809 12.9902 7.04297 12.7354 7.35059 12.7354H13.3535C13.6699 12.7354 13.9248 12.9902 13.9248 13.3154C13.9248 13.623 13.6699 13.8867 13.3535 13.8867H7.35059Z" fill="#1C1C1E"/>
</g>
<defs>
<clipPath id="clip0_2_51">
<rect width="24" height="24" fill="white"/>
</clipPath>
</defs>
</svg>
