<svg width="24" height="24" viewBox="0 0 24 24" fill="none" xmlns="http://www.w3.org/2000/svg">
<g clip-path="url(#clip0_2_20)">
<path d="M5.16211 19.002H14.3027C16.5615 19.002 17.8711 17.7275 17.8711 15.5127V14.458L21.0264 17.1299C21.4395 17.4814 21.8701 17.7188 22.292 17.7188C23.0918 17.7188 23.6455 17.1387 23.6455 16.2686V7.08398C23.6455 6.21387 23.0918 5.63379 22.292 5.63379C21.8701 5.63379 21.4395 5.87109 21.0264 6.21387L17.8711 8.89453V7.7959C17.8711 5.58105 16.5615 4.29785 14.3027 4.29785H5.16211C2.98242 4.29785 1.60254 5.58105 1.60254 7.7959V15.5742C1.60254 17.7803 2.90332 19.002 5.16211 19.002ZM5.45215 17.4199C4.08105 17.4199 3.29883 16.6816 3.29883 15.2578V8.05078C3.29883 6.60059 4.08105 5.88867 5.45215 5.88867H14.0127C15.3838 5.88867 16.166 6.61816 16.166 8.05078V15.2578C16.166 16.6816 15.375 17.4199 14.0127 17.4199H5.45215ZM21.6855 15.6885L17.8711 12.5684V10.7842L21.6855 7.66406C21.7646 7.60254 21.8174 7.56738 21.8877 7.56738C21.9844 7.56738 22.0371 7.6377 22.0371 7.76074V15.5918C22.0371 15.7061 21.9844 15.7852 21.8877 15.7852C21.8174 15.7852 21.7646 15.7412 21.6855 15.6885Z" fill="#1C1C1E"/>
</g>
<defs>
<clipPath id="clip0_2_20">
<rect width="24" height="24" fill="white"/>
</clipPath>
</defs>
</svg>
