<svg width="24" height="24" viewBox="0 0 24 24" fill="none" xmlns="http://www.w3.org/2000/svg">
<g clip-path="url(#clip0_2_41)">
<path d="M17.8975 20.7949C18.1699 21.0674 18.6182 21.0674 18.8906 20.7949C19.1543 20.5225 19.1631 20.083 18.8906 19.8018L1.62012 2.54883C1.35645 2.27637 0.899414 2.27637 0.626953 2.54883C0.363281 2.82129 0.363281 3.27832 0.626953 3.54199L17.8975 20.7949ZM14.0127 4.40332H5.03027L16.8516 16.2246C16.9043 15.9697 16.9307 15.6357 16.9307 15.3281V7.33008C16.9307 5.4668 15.9111 4.40332 14.0127 4.40332ZM18.2227 14.4756L21.2197 17.0596C21.5889 17.376 21.9668 17.5781 22.3447 17.5781C23.0566 17.5781 23.54 17.0684 23.54 16.2949V7.04004C23.54 6.2666 23.0566 5.75684 22.3447 5.75684C21.9668 5.75684 21.5889 5.95898 21.2197 6.27539L18.2227 8.85938V14.4756ZM4.69629 18.8877H14.4258L1.86621 6.32812C1.76953 6.57422 1.7168 6.96973 1.7168 7.35645V16.0049C1.7168 17.8594 2.79785 18.8877 4.69629 18.8877Z" fill="#1C1C1E"/>
</g>
<defs>
<clipPath id="clip0_2_41">
<rect width="24" height="24" fill="white"/>
</clipPath>
</defs>
</svg>
