<svg width="24" height="24" viewBox="0 0 24 24" fill="none" xmlns="http://www.w3.org/2000/svg">
<g clip-path="url(#clip0_2_44)">
<path d="M7.81641 21.4629C8.31738 21.4629 8.68652 21.2168 9.29297 20.6807L12.3076 18.0264H17.5986C20.2441 18.0264 21.7295 16.4971 21.7295 13.8867V7.05762C21.7295 4.44727 20.2441 2.91797 17.5986 2.91797H6.39258C3.75586 2.91797 2.26172 4.44727 2.26172 7.05762V13.8867C2.26172 16.5059 3.7998 18.0264 6.33105 18.0264H6.69141V20.1797C6.69141 20.9619 7.10449 21.4629 7.81641 21.4629ZM8.25586 19.4941V16.9893C8.25586 16.4707 8.02734 16.2686 7.53516 16.2686H6.4541C4.80176 16.2686 4.01074 15.4336 4.01074 13.834V7.11035C4.01074 5.51074 4.80176 4.67578 6.4541 4.67578H17.5459C19.1895 4.67578 19.9805 5.51074 19.9805 7.11035V13.834C19.9805 15.4336 19.1895 16.2686 17.5459 16.2686H12.2109C11.6748 16.2686 11.4111 16.3564 11.042 16.7432L8.25586 19.4941ZM8.4668 13.9395H12.9053C13.8018 13.9395 14.3203 13.4297 14.3203 12.5508V8.41992C14.3203 7.53223 13.8369 7.03125 12.9404 7.03125H8.4668C7.60547 7.03125 7.05176 7.53223 7.05176 8.41992V12.5771C7.05176 13.4561 7.5791 13.9395 8.4668 13.9395ZM14.8125 11.7422L16.377 13.0693C16.5527 13.21 16.7285 13.3154 16.9043 13.3154C17.2471 13.3154 17.4668 13.0693 17.4668 12.7002V8.2793C17.4668 7.91895 17.2471 7.67285 16.9043 7.67285C16.7285 7.67285 16.5439 7.76953 16.377 7.91016L14.8125 9.24609V11.7422Z" fill="#1C1C1E"/>
</g>
<defs>
<clipPath id="clip0_2_44">
<rect width="24" height="24" fill="white"/>
</clipPath>
</defs>
</svg>
