<svg width="24" height="24" viewBox="0 0 24 24" fill="none" xmlns="http://www.w3.org/2000/svg">
<g clip-path="url(#clip0_2_18)">
<path d="M11.9912 20.7422C16.9746 20.7422 21.0879 16.6289 21.0879 11.6543C21.0879 6.67969 16.9658 2.56641 11.9824 2.56641C7.00781 2.56641 2.90332 6.67969 2.90332 11.6543C2.90332 16.6289 7.0166 20.7422 11.9912 20.7422ZM11.9912 18.9316C7.95703 18.9316 4.73145 15.6885 4.73145 11.6543C4.73145 7.62012 7.95703 4.38574 11.9824 4.38574C16.0166 4.38574 19.2598 7.62012 19.2686 11.6543C19.2773 15.6885 16.0254 18.9316 11.9912 18.9316ZM8.44922 15.126H12.8877C13.7842 15.126 14.3027 14.6162 14.3027 13.7373V9.60645C14.3027 8.71875 13.8193 8.21777 12.9229 8.21777H8.44922C7.58789 8.21777 7.03418 8.71875 7.03418 9.60645V13.7637C7.03418 14.6426 7.56152 15.126 8.44922 15.126ZM14.7949 12.9287L16.3594 14.2559C16.5352 14.3965 16.7109 14.502 16.8867 14.502C17.2295 14.502 17.458 14.2559 17.458 13.8867V9.46582C17.458 9.10547 17.2295 8.85938 16.8867 8.85938C16.7109 8.85938 16.5264 8.95605 16.3594 9.09668L14.7949 10.4326V12.9287Z" fill="#1C1C1E"/>
</g>
<defs>
<clipPath id="clip0_2_18">
<rect width="24" height="24" fill="white"/>
</clipPath>
</defs>
</svg>
