<svg width="24" height="24" viewBox="0 0 24 24" fill="none" xmlns="http://www.w3.org/2000/svg">
<g clip-path="url(#clip0_2_17)">
<path d="M11.9912 20.7598C16.9746 20.7598 21.0879 16.6465 21.0879 11.6631C21.0879 6.68848 16.9658 2.5752 11.9824 2.5752C7.00781 2.5752 2.90332 6.68848 2.90332 11.6631C2.90332 16.6465 7.0166 20.7598 11.9912 20.7598ZM8.32617 15.2666C7.40332 15.2666 6.84961 14.7568 6.84961 13.8428V9.51855C6.84961 8.60449 7.42969 8.07715 8.32617 8.07715H12.9668C13.9072 8.07715 14.3994 8.60449 14.3994 9.51855V13.8252C14.3994 14.7305 13.8633 15.2666 12.9316 15.2666H8.32617ZM14.918 12.9814V10.3799L16.5352 9C16.7197 8.85059 16.9131 8.75391 17.0889 8.75391C17.4404 8.75391 17.6777 9 17.6777 9.37793V13.9746C17.6777 14.3613 17.4404 14.6074 17.0889 14.6074C16.9131 14.6074 16.7197 14.5107 16.5352 14.3613L14.918 12.9814Z" fill="#1C1C1E"/>
</g>
<defs>
<clipPath id="clip0_2_17">
<rect width="24" height="24" fill="white"/>
</clipPath>
</defs>
</svg>
