<svg width="24" height="24" viewBox="0 0 24 24" fill="none" xmlns="http://www.w3.org/2000/svg">
<g clip-path="url(#clip0_2_43)">
<path d="M17.915 20.7949C18.1963 21.0674 18.6445 21.0674 18.9082 20.7949C19.1719 20.5225 19.1807 20.083 18.9082 19.8018L1.64648 2.54883C1.37402 2.27637 0.925781 2.27637 0.644531 2.54883C0.380859 2.82129 0.380859 3.27832 0.644531 3.54199L17.915 20.7949ZM14.3027 4.29785H4.96875L6.55957 5.88867H14.0127C15.3838 5.88867 16.166 6.61816 16.166 8.05078V14.9941C16.166 15.1699 16.1484 15.3018 16.1133 15.4424L17.625 16.9541C17.7832 16.5586 17.8711 16.084 17.8711 15.6006V14.458L21.0264 17.1299C21.4395 17.4814 21.8701 17.7188 22.292 17.7188C23.0918 17.7188 23.6455 17.1387 23.6455 16.2686V7.08398C23.6455 6.21387 23.0918 5.63379 22.292 5.63379C21.8701 5.63379 21.4395 5.87109 21.0264 6.21387L17.8711 8.89453V7.7959C17.8711 5.58105 16.5615 4.29785 14.3027 4.29785ZM5.16211 19.002H14.5312L12.9492 17.4199H5.45215C4.08105 17.4199 3.29883 16.6816 3.29883 15.2578V7.82227L1.6377 6.15234C1.61133 6.56543 1.60254 6.96973 1.60254 7.40039V15.5742C1.60254 17.7803 2.90332 19.002 5.16211 19.002ZM21.6855 15.6885L17.8711 12.5684V10.7842L21.6855 7.66406C21.7646 7.60254 21.8174 7.56738 21.8877 7.56738C21.9844 7.56738 22.0371 7.6377 22.0371 7.76074V15.5918C22.0371 15.7061 21.9844 15.7852 21.8877 15.7852C21.8174 15.7852 21.7646 15.7412 21.6855 15.6885Z" fill="#1C1C1E"/>
</g>
<defs>
<clipPath id="clip0_2_43">
<rect width="24" height="24" fill="white"/>
</clipPath>
</defs>
</svg>
