<svg width="24" height="24" viewBox="0 0 24 24" fill="none" xmlns="http://www.w3.org/2000/svg">
<g clip-path="url(#clip0_2_42)">
<path d="M7.52637 21.5156C7.89551 21.5156 8.16797 21.3398 8.60742 20.9443L11.8506 18.0176L17.5986 18.0264C20.2441 18.0264 21.7295 16.4971 21.7295 13.8867V7.05762C21.7295 4.44727 20.2441 2.91797 17.5986 2.91797H6.39258C3.75586 2.91797 2.26172 4.44727 2.26172 7.05762V13.8867C2.26172 16.5059 3.7998 18.0176 6.33105 18.0176H6.68262V20.5664C6.68262 21.1465 6.99023 21.5156 7.52637 21.5156ZM8.34375 14.0713C7.4209 14.0713 6.86719 13.5615 6.86719 12.6475V8.32324C6.86719 7.40918 7.44727 6.88184 8.34375 6.88184H12.9844C13.9248 6.88184 14.417 7.40918 14.417 8.32324V12.6211C14.417 13.5352 13.8809 14.0713 12.9492 14.0713H8.34375ZM14.9355 11.7773V9.18457L16.5527 7.7959C16.7373 7.65527 16.9307 7.55859 17.1064 7.55859C17.458 7.55859 17.6953 7.80469 17.6953 8.18262V12.7705C17.6953 13.166 17.458 13.4121 17.1064 13.4121C16.9307 13.4121 16.7373 13.3066 16.5527 13.166L14.9355 11.7773Z" fill="#1C1C1E"/>
</g>
<defs>
<clipPath id="clip0_2_42">
<rect width="24" height="24" fill="white"/>
</clipPath>
</defs>
</svg>
