<svg width="24" height="24" viewBox="0 0 24 24" fill="none" xmlns="http://www.w3.org/2000/svg">
<g clip-path="url(#clip0_2_4)">
<path d="M11.9912 20.7598C16.9746 20.7598 21.0879 16.6465 21.0879 11.6631C21.0879 6.68848 16.9658 2.5752 11.9824 2.5752C7.00781 2.5752 2.90332 6.68848 2.90332 11.6631C2.90332 16.6465 7.0166 20.7598 11.9912 20.7598ZM11.0771 17.4375C10.7432 17.4375 10.5059 17.1914 10.5059 16.8574V6.46875C10.5059 6.13477 10.752 5.88867 11.0771 5.88867C11.3936 5.88867 11.6396 6.13477 11.6396 6.46875V16.8574C11.6396 17.1914 11.3936 17.4375 11.0771 17.4375ZM14.7334 16.2246C14.4082 16.2246 14.1621 15.9785 14.1621 15.6533V7.66406C14.1621 7.33887 14.4082 7.09277 14.7334 7.09277C15.0498 7.09277 15.3047 7.33887 15.3047 7.66406V15.6533C15.3047 15.9785 15.0498 16.2246 14.7334 16.2246ZM9.24023 15.2227C8.91504 15.2227 8.66895 14.9766 8.66895 14.6602V8.65723C8.66895 8.34082 8.91504 8.09473 9.24023 8.09473C9.55664 8.09473 9.81152 8.34082 9.81152 8.65723V14.6602C9.81152 14.9766 9.55664 15.2227 9.24023 15.2227ZM12.8965 14.5459C12.5801 14.5459 12.334 14.2998 12.334 13.9746V9.34277C12.334 9.01758 12.5801 8.77148 12.8965 8.77148C13.2217 8.77148 13.4678 9.01758 13.4678 9.34277V13.9746C13.4678 14.2998 13.2217 14.5459 12.8965 14.5459ZM16.5703 13.5088C16.2451 13.5088 15.999 13.2627 15.999 12.9463V10.3799C15.999 10.0635 16.2451 9.80859 16.5703 9.80859C16.8867 9.80859 17.1328 10.0547 17.1328 10.3799V12.9463C17.1328 13.2627 16.8867 13.5088 16.5703 13.5088ZM7.40332 13.0605C7.08691 13.0605 6.83203 12.8145 6.83203 12.4893V10.8193C6.83203 10.5029 7.08691 10.2568 7.40332 10.2568C7.71973 10.2568 7.97461 10.5029 7.97461 10.8193V12.4893C7.97461 12.8145 7.71973 13.0605 7.40332 13.0605Z" fill="#1C1C1E"/>
</g>
<defs>
<clipPath id="clip0_2_4">
<rect width="24" height="24" fill="white"/>
</clipPath>
</defs>
</svg>
