<svg width="24" height="24" viewBox="0 0 24 24" fill="none" xmlns="http://www.w3.org/2000/svg">
<g clip-path="url(#clip0_2_5)">
<path d="M11.9912 20.7422C16.9746 20.7422 21.0879 16.6289 21.0879 11.6543C21.0879 6.67969 16.9658 2.56641 11.9824 2.56641C7.00781 2.56641 2.90332 6.67969 2.90332 11.6543C2.90332 16.6289 7.0166 20.7422 11.9912 20.7422ZM11.9912 18.9316C7.95703 18.9316 4.73145 15.6885 4.73145 11.6543C4.73145 7.62012 7.95703 4.38574 11.9824 4.38574C16.0166 4.38574 19.2598 7.62012 19.2686 11.6543C19.2773 15.6885 16.0254 18.9316 11.9912 18.9316ZM11.1035 17.209C11.4111 17.209 11.6484 16.9717 11.6484 16.6641V6.65332C11.6484 6.33691 11.4111 6.09961 11.1035 6.09961C10.7959 6.09961 10.5586 6.33691 10.5586 6.65332V16.6641C10.5586 16.9805 10.7871 17.209 11.1035 17.209ZM14.6191 16.04C14.9355 16.04 15.1729 15.8027 15.1729 15.5039V7.80469C15.1729 7.50586 14.9355 7.26855 14.6191 7.26855C14.3203 7.26855 14.083 7.50586 14.083 7.80469V15.5039C14.083 15.8027 14.3203 16.04 14.6191 16.04ZM9.3457 15.082C9.65332 15.082 9.89062 14.8447 9.89062 14.5371V8.7627C9.89062 8.46387 9.65332 8.22656 9.3457 8.22656C9.03809 8.22656 8.80078 8.46387 8.80078 8.7627V14.5371C8.80078 14.8447 9.03809 15.082 9.3457 15.082ZM12.8613 14.4316C13.1689 14.4316 13.4062 14.1855 13.4062 13.8867V9.42188C13.4062 9.12305 13.1689 8.88574 12.8613 8.88574C12.5625 8.88574 12.3252 9.12305 12.3252 9.42188V13.8867C12.3252 14.1855 12.5625 14.4316 12.8613 14.4316ZM16.3945 13.4297C16.7021 13.4297 16.9307 13.2012 16.9307 12.8848V10.4238C16.9307 10.1074 16.7021 9.87891 16.3945 9.87891C16.0781 9.87891 15.8408 10.1162 15.8408 10.4238V12.8848C15.8408 13.1924 16.0781 13.4297 16.3945 13.4297ZM7.5791 12.999C7.88672 12.999 8.12402 12.7617 8.12402 12.4541V10.8545C8.12402 10.5469 7.88672 10.3096 7.5791 10.3096C7.27148 10.3096 7.03418 10.5469 7.03418 10.8545V12.4541C7.03418 12.7617 7.27148 12.999 7.5791 12.999Z" fill="#1C1C1E"/>
</g>
<defs>
<clipPath id="clip0_2_5">
<rect width="24" height="24" fill="white"/>
</clipPath>
</defs>
</svg>
