<svg width="24" height="24" viewBox="0 0 24 24" fill="none" xmlns="http://www.w3.org/2000/svg">
<g clip-path="url(#clip0_2_6)">
<path d="M10.6465 19.8369C11.0596 19.8369 11.3672 19.5117 11.3672 19.1162V4.20117C11.3672 3.79688 11.0508 3.48047 10.6465 3.48047C10.2422 3.48047 9.92578 3.79688 9.92578 4.20117V19.1162C9.92578 19.5117 10.2422 19.8369 10.6465 19.8369ZM16.0518 18.0879C16.4648 18.0879 16.7725 17.7715 16.7725 17.3672V5.9502C16.7725 5.5459 16.4561 5.22949 16.0518 5.22949C15.6387 5.22949 15.3311 5.5459 15.3311 5.9502V17.3672C15.3311 17.7715 15.6387 18.0879 16.0518 18.0879ZM7.93945 16.8311C8.35254 16.8311 8.66895 16.5146 8.66895 16.1104V7.20703C8.66895 6.80273 8.35254 6.48633 7.93945 6.48633C7.53516 6.48633 7.22754 6.80273 7.22754 7.20703V16.1104C7.22754 16.5146 7.53516 16.8311 7.93945 16.8311ZM13.3535 15.7236C13.7578 15.7236 14.0654 15.3984 14.0654 15.0029V8.31445C14.0654 7.91016 13.7578 7.59375 13.3535 7.59375C12.9404 7.59375 12.6328 7.91895 12.6328 8.31445V15.0029C12.6328 15.3984 12.9404 15.7236 13.3535 15.7236ZM18.75 14.2295C19.1631 14.2295 19.4707 13.9131 19.4707 13.5088V9.80859C19.4707 9.4043 19.1631 9.08789 18.75 9.08789C18.3369 9.08789 18.0293 9.4043 18.0293 9.80859V13.5088C18.0293 13.9131 18.3457 14.2295 18.75 14.2295ZM5.24121 13.5352C5.6543 13.5352 5.96191 13.2188 5.96191 12.8145V10.5029C5.96191 10.0986 5.64551 9.77344 5.24121 9.77344C4.82812 9.77344 4.52051 10.0986 4.52051 10.5029V12.8145C4.52051 13.2188 4.82812 13.5352 5.24121 13.5352Z" fill="#1C1C1E"/>
</g>
<defs>
<clipPath id="clip0_2_6">
<rect width="24" height="24" fill="white"/>
</clipPath>
</defs>
</svg>
