<svg width="24" height="24" viewBox="0 0 24 24" fill="none" xmlns="http://www.w3.org/2000/svg">
<g clip-path="url(#clip0_10_775)">
<path d="M3.24609 17.6309H20.7451C22.3447 17.6309 23.1797 16.8223 23.1797 15.1963V5.05371C23.1797 3.42773 22.3447 2.61914 20.7451 2.61914H3.24609C1.64648 2.61914 0.811523 3.42773 0.811523 5.05371V15.1963C0.811523 16.8223 1.64648 17.6309 3.24609 17.6309ZM9.29297 14.1943C8.84473 14.1943 8.56348 13.8955 8.56348 13.377V12.6299H5.66309C5.03027 12.6299 4.62598 12.2432 4.62598 11.6631C4.62598 11.3818 4.67871 11.127 4.87207 10.8018C5.49609 9.73828 6.4541 8.29688 7.27148 7.05762C7.66699 6.41602 8.08887 6.16992 8.80957 6.16992C9.53027 6.16992 10.04 6.61816 10.04 7.24219V11.3115H10.585C11.0068 11.3115 11.2793 11.5752 11.2793 11.9619C11.2793 12.375 10.998 12.6299 10.585 12.6299H10.04V13.377C10.04 13.9043 9.75879 14.1943 9.29297 14.1943ZM13.125 14.1504C12.6328 14.1504 12.3428 13.8252 12.3428 13.2803V7.10156C12.3428 6.54785 12.6328 6.22266 13.125 6.22266C13.6348 6.22266 13.916 6.53906 13.916 7.10156V9.82617H14.0215L17.124 6.57422C17.3525 6.31055 17.5107 6.22266 17.7744 6.22266C18.1611 6.22266 18.4775 6.49512 18.4775 6.87305C18.4775 7.08398 18.416 7.24219 18.2402 7.41797L16.0605 9.71191L18.4336 12.8232C18.583 13.0166 18.6445 13.2012 18.6445 13.4121C18.6445 13.8252 18.3281 14.1328 17.8975 14.1328C17.6162 14.1328 17.4141 14.0273 17.2031 13.7461L14.9092 10.6787L13.916 11.7422V13.2891C13.916 13.8428 13.626 14.1504 13.125 14.1504ZM8.56348 11.3115V7.43555H8.49316C7.68457 8.68359 6.7002 10.2217 6.11133 11.25V11.3115H8.56348ZM7.5 20.707H16.4912C16.9307 20.707 17.291 20.3467 17.291 19.9072C17.291 19.4678 16.9307 19.0986 16.4912 19.0986H7.5C7.06055 19.0986 6.7002 19.4678 6.7002 19.9072C6.7002 20.3467 7.06055 20.707 7.5 20.707Z" fill="#1C1C1E"/>
</g>
<defs>
<clipPath id="clip0_10_775">
<rect width="24" height="24" fill="white"/>
</clipPath>
</defs>
</svg>
