<svg width="24" height="24" viewBox="0 0 24 24" fill="none" xmlns="http://www.w3.org/2000/svg">
<g clip-path="url(#clip0_10_779)">
<path d="M3.24609 17.6309H20.7451C22.3447 17.6309 23.1797 16.8223 23.1797 15.1963V5.05371C23.1797 3.42773 22.3447 2.61914 20.7451 2.61914H3.24609C1.64648 2.61914 0.811523 3.42773 0.811523 5.05371V15.1963C0.811523 16.8223 1.64648 17.6309 3.24609 17.6309ZM3.36035 15.9258C2.78027 15.9258 2.5166 15.6885 2.5166 15.0908V5.15918C2.5166 4.56152 2.78027 4.32422 3.36035 4.32422H20.6309C21.2109 4.32422 21.4746 4.56152 21.4746 5.15918V15.0908C21.4746 15.6885 21.2109 15.9258 20.6309 15.9258H3.36035ZM9.38086 14.0361C9.8291 14.0361 10.0928 13.7637 10.0928 13.2627V12.5332H10.6201C11.0244 12.5332 11.2881 12.2783 11.2881 11.9004C11.2881 11.5225 11.0332 11.2764 10.6289 11.2764H10.0928V7.34766C10.0928 6.75 9.60938 6.32812 8.92383 6.32812C8.24707 6.32812 7.83398 6.55664 7.45605 7.17188C6.67383 8.36719 5.74219 9.75586 5.13574 10.793C4.95996 11.0918 4.89844 11.3467 4.89844 11.6104C4.89844 12.1641 5.28516 12.5332 5.8916 12.5332H8.68652V13.2627C8.68652 13.7549 8.95898 14.0361 9.38086 14.0361ZM13.0547 14.001C13.5293 14.001 13.8105 13.7021 13.8105 13.1836V11.6807L14.7686 10.6523L16.9922 13.6143C17.1855 13.8779 17.3877 13.9834 17.6514 13.9834C18.0645 13.9834 18.3633 13.6934 18.3633 13.2891C18.3633 13.0957 18.3018 12.9199 18.1611 12.7354L15.8672 9.73828L17.9766 7.51465C18.1436 7.34766 18.2051 7.19824 18.2051 6.9873C18.2051 6.64453 17.9062 6.37207 17.5283 6.37207C17.2822 6.37207 17.1328 6.45996 16.9131 6.70605L13.916 9.84375H13.8105V7.21582C13.8105 6.67969 13.5381 6.37207 13.0547 6.37207C12.5977 6.37207 12.3164 6.68848 12.3164 7.21582V13.166C12.3164 13.6934 12.5977 14.001 13.0547 14.001ZM8.68652 11.2764H6.32227V11.2236C6.88477 10.2217 7.85156 8.73633 8.625 7.53223H8.68652V11.2764ZM7.5 20.707H16.4912C16.9307 20.707 17.291 20.3467 17.291 19.9072C17.291 19.4678 16.9307 19.0986 16.4912 19.0986H7.5C7.06055 19.0986 6.7002 19.4678 6.7002 19.9072C6.7002 20.3467 7.06055 20.707 7.5 20.707Z" fill="#1C1C1E"/>
</g>
<defs>
<clipPath id="clip0_10_779">
<rect width="24" height="24" fill="white"/>
</clipPath>
</defs>
</svg>
