<svg width="24" height="24" viewBox="0 0 24 24" fill="none" xmlns="http://www.w3.org/2000/svg">
<g clip-path="url(#clip0_10_793)">
<path d="M7.45605 21.2168H16.5439C18.4775 21.2168 19.4707 20.2412 19.4707 18.334V5.0625C19.4707 3.14648 18.4775 2.1709 16.5439 2.1709H7.45605C5.52246 2.1709 4.5293 3.14648 4.5293 5.0625V18.334C4.5293 20.2412 5.52246 21.2168 7.45605 21.2168ZM7.48242 3.92871H9.09961V6.79395C9.09961 7.3916 8.77441 7.7168 8.19434 7.7168H6.27832V5.1416C6.27832 4.33301 6.70898 3.92871 7.48242 3.92871ZM7.48242 19.4678C6.70898 19.4678 6.27832 19.0547 6.27832 18.2549V8.93848H8.2207C9.61816 8.93848 10.3213 8.24414 10.3213 6.87305V3.92871H16.5264C17.291 3.92871 17.7217 4.33301 17.7217 5.1416V18.2549C17.7217 19.0547 17.291 19.4678 16.5264 19.4678H7.48242Z" fill="#1C1C1E"/>
</g>
<defs>
<clipPath id="clip0_10_793">
<rect width="24" height="24" fill="white"/>
</clipPath>
</defs>
</svg>
