<svg width="24" height="24" viewBox="0 0 24 24" fill="none" xmlns="http://www.w3.org/2000/svg">
<g clip-path="url(#clip0_10_763)">
<path d="M11.9736 10.3535C13.749 10.3535 14.9355 9.28125 15.5244 8.40234C15.7178 8.1123 15.7969 7.7959 15.7969 7.46191V6.19629C15.7969 5.85352 15.7002 5.53711 15.5244 5.25586C14.9355 4.3418 13.7402 3.31348 11.9736 3.2959C9.93457 3.28711 8.18555 4.87793 8.20312 6.82031C8.2207 8.77148 9.93457 10.3535 11.9736 10.3535ZM14.127 8.22656C13.8896 8.22656 13.6963 8.04199 13.6963 7.7959V5.85352C13.6963 5.60742 13.8896 5.42285 14.127 5.42285C14.373 5.42285 14.5576 5.60742 14.5576 5.85352V7.7959C14.5576 8.04199 14.373 8.22656 14.127 8.22656ZM9.04688 17.1211H11.6309V11.2324C10.6904 11.1709 9.79395 10.8545 9.04688 10.3447V17.1211ZM11.6309 18.0615H9.04688V19.1338C9.04688 19.6787 9.40723 19.9775 9.97852 19.9775H10.6992C11.2705 19.9775 11.6309 19.6787 11.6309 19.1338V18.0615Z" fill="#1C1C1E"/>
</g>
<defs>
<clipPath id="clip0_10_763">
<rect width="24" height="24" fill="white"/>
</clipPath>
</defs>
</svg>
