<svg width="24" height="24" viewBox="0 0 24 24" fill="none" xmlns="http://www.w3.org/2000/svg">
<g clip-path="url(#clip0_10_745)">
<path d="M7.92188 3.89355C6.43652 3.87598 4.80176 4.59668 3.74707 6.08203C3.62402 6.24902 3.50098 6.44238 3.38672 6.71484C5.29395 7.04883 6.84961 8.74512 6.84961 10.6523C6.84961 11.1885 6.74414 11.6807 6.55957 12.1201C7.5791 11.9531 8.25586 11.707 8.87109 11.3555C10.3037 10.5293 11.3672 9.19336 11.3672 7.34766C11.3672 5.15039 9.82031 3.91113 7.92188 3.89355ZM16.0869 3.89355C14.1973 3.90234 12.6504 5.15039 12.6504 7.34766C12.6504 9.19336 13.7051 10.5293 15.1465 11.3555C15.7529 11.707 16.4297 11.9531 17.4492 12.1201C17.2646 11.6807 17.168 11.1885 17.168 10.6523C17.168 8.74512 18.7148 7.04883 20.6221 6.71484C20.5078 6.44238 20.3936 6.24902 20.2705 6.08203C19.1982 4.59668 17.5723 3.87598 16.0869 3.89355ZM8.3877 7.53223C8.19434 7.69043 7.92188 7.67285 7.76367 7.4707C7.60547 7.27734 7.63184 7.00488 7.8252 6.85547L8.99414 5.87109C9.1875 5.71289 9.45996 5.73047 9.61816 5.93262C9.76758 6.12598 9.75879 6.38965 9.56543 6.54785L8.3877 7.53223ZM15.6211 7.53223L14.4434 6.54785C14.2588 6.38965 14.2412 6.12598 14.3994 5.93262C14.5576 5.73047 14.8301 5.71289 15.0234 5.87109L16.1924 6.85547C16.3857 7.00488 16.4033 7.27734 16.2539 7.4707C16.0957 7.67285 15.8145 7.69043 15.6211 7.53223ZM3.36035 13.1572C4.74023 13.1572 5.8916 12.2871 5.8916 10.6523C5.8916 9.14941 4.47656 7.60254 2.68359 7.60254C1.17188 7.60254 0.249023 8.78906 0.249023 10.0811C0.249023 11.9004 1.78711 13.1572 3.36035 13.1572ZM20.6309 13.1572C22.2041 13.1572 23.751 11.9004 23.751 10.0811C23.751 8.78906 22.8281 7.60254 21.3076 7.60254C19.5234 7.60254 18.1084 9.14941 18.1084 10.6523C18.1084 12.2871 19.2598 13.1572 20.6309 13.1572ZM21.0088 11.8564C20.7539 11.6367 20.9121 11.2061 21.3955 10.5996C21.8877 9.98438 22.3096 9.76465 22.582 9.99316C22.8281 10.2129 22.6787 10.6611 22.1953 11.25C21.7031 11.8652 21.2725 12.085 21.0088 11.8564ZM2.98242 11.8564C2.72754 12.085 2.30566 11.8564 1.80469 11.25C1.3125 10.6611 1.16309 10.2129 1.41797 9.99316C1.69043 9.76465 2.10352 9.98438 2.60449 10.5996C3.08789 11.2061 3.24609 11.6367 2.98242 11.8564ZM6.67383 19.0547H7.3418C7.93066 19.0547 8.30859 18.7383 8.30859 18.167V12.6387C7.48242 12.9814 6.63867 13.1748 5.70703 13.2451V18.167C5.70703 18.7383 6.09375 19.0547 6.67383 19.0547ZM17.335 19.0547C17.9238 19.0547 18.3018 18.7383 18.3018 18.167V13.2451C17.3701 13.1748 16.5264 12.9814 15.7002 12.6387V18.167C15.7002 18.7383 16.0869 19.0547 16.667 19.0547H17.335Z" fill="#1C1C1E"/>
</g>
<defs>
<clipPath id="clip0_10_745">
<rect width="24" height="24" fill="white"/>
</clipPath>
</defs>
</svg>
