<svg width="24" height="24" viewBox="0 0 24 24" fill="none" xmlns="http://www.w3.org/2000/svg">
<g clip-path="url(#clip0_10_765)">
<path d="M16.7197 10.3535C18.4951 10.3535 19.6816 9.28125 20.2705 8.40234C20.4639 8.1123 20.543 7.7959 20.543 7.46191V6.19629C20.543 5.85352 20.4551 5.53711 20.2705 5.25586C19.6816 4.3418 18.4951 3.31348 16.7197 3.2959C14.6895 3.28711 12.9316 4.87793 12.9492 6.82031C12.9668 8.77148 14.6807 10.3535 16.7197 10.3535ZM7.27148 10.3535C9.31055 10.3799 11.0684 8.77148 11.042 6.82031C11.0068 4.87793 9.30176 3.2959 7.27148 3.2959C5.49609 3.2959 4.33594 4.35059 3.7207 5.25586C3.53613 5.53711 3.44824 5.85352 3.44824 6.19629V7.46191C3.44824 7.7959 3.53613 8.1123 3.7207 8.40234C4.29199 9.29004 5.49609 10.3359 7.27148 10.3535ZM5.10938 8.22656C4.87207 8.22656 4.67871 8.04199 4.67871 7.7959V5.85352C4.67871 5.60742 4.87207 5.42285 5.10938 5.42285C5.35547 5.42285 5.54883 5.60742 5.54883 5.85352V7.7959C5.54883 8.04199 5.35547 8.22656 5.10938 8.22656ZM18.8818 8.22656C18.6357 8.22656 18.4424 8.04199 18.4424 7.7959V5.85352C18.4424 5.60742 18.6357 5.42285 18.8818 5.42285C19.1191 5.42285 19.3125 5.60742 19.3125 5.85352V7.7959C19.3125 8.04199 19.1191 8.22656 18.8818 8.22656ZM7.61426 17.1211H10.1895V10.3447C9.44238 10.8545 8.55469 11.1709 7.61426 11.2324V17.1211ZM13.8018 17.1211H16.377V11.2324C15.4365 11.1709 14.5488 10.8545 13.8018 10.3447V17.1211ZM10.1895 18.0615H7.61426V19.1338C7.61426 19.6787 7.97461 19.9775 8.53711 19.9775H9.2666C9.8291 19.9775 10.1895 19.6787 10.1895 19.1338V18.0615ZM16.377 18.0615H13.8018V19.1338C13.8018 19.6787 14.1621 19.9775 14.7246 19.9775H15.4541C16.0166 19.9775 16.377 19.6787 16.377 19.1338V18.0615Z" fill="#1C1C1E"/>
</g>
<defs>
<clipPath id="clip0_10_765">
<rect width="24" height="24" fill="white"/>
</clipPath>
</defs>
</svg>
