<svg width="24" height="24" viewBox="0 0 24 24" fill="none" xmlns="http://www.w3.org/2000/svg">
<g clip-path="url(#clip0_10_744)">
<path d="M14.1094 3.89355C12.624 3.87598 10.9893 4.59668 9.93457 6.08203C9.81152 6.24902 9.68848 6.44238 9.58301 6.71484C11.4814 7.04883 13.0371 8.74512 13.0371 10.6523C13.0371 11.1885 12.9404 11.6807 12.7471 12.1201C13.7754 11.9531 14.4434 11.707 15.0586 11.3555C16.4912 10.5293 17.5547 9.19336 17.5547 7.34766C17.5547 5.15039 16.0078 3.91113 14.1094 3.89355ZM14.5752 7.53223C14.3818 7.69043 14.1094 7.67285 13.9512 7.4707C13.793 7.27734 13.8193 7.00488 14.0127 6.85547L15.1816 5.87109C15.375 5.71289 15.6475 5.73047 15.8057 5.93262C15.9551 6.12598 15.9463 6.38965 15.7529 6.54785L14.5752 7.53223ZM9.55664 13.1572C10.9365 13.1572 12.0791 12.2871 12.0791 10.6523C12.0791 9.14941 10.6641 7.60254 8.87988 7.60254C7.36816 7.60254 6.44531 8.78906 6.44531 10.0811C6.44531 11.9004 7.9834 13.1572 9.55664 13.1572ZM9.17871 11.8564C8.91504 12.085 8.50195 11.8564 8.00098 11.25C7.50879 10.6611 7.35938 10.2129 7.61426 9.99316C7.88672 9.76465 8.2998 9.98438 8.79199 10.5996C9.28418 11.2061 9.44238 11.6367 9.17871 11.8564ZM12.8613 19.0547H13.5293C14.1182 19.0547 14.4961 18.7383 14.4961 18.167V12.6387C13.6699 12.9814 12.8262 13.1748 11.8945 13.2451V18.167C11.8945 18.7383 12.2812 19.0547 12.8613 19.0547Z" fill="#1C1C1E"/>
</g>
<defs>
<clipPath id="clip0_10_744">
<rect width="24" height="24" fill="white"/>
</clipPath>
</defs>
</svg>
