<svg width="24" height="24" viewBox="0 0 24 24" fill="none" xmlns="http://www.w3.org/2000/svg">
<g clip-path="url(#clip0_10_790)">
<path d="M3.94043 17.1123H20.0508C21.9492 17.1123 22.9424 16.1279 22.9424 14.2471V8.97363C22.9424 7.09277 21.9492 6.1084 20.0508 6.1084H3.94043C2.0332 6.1084 1.04883 7.08398 1.04883 8.97363V14.2471C1.04883 16.1367 2.0332 17.1123 3.94043 17.1123ZM2.79785 9.12305C2.79785 8.2793 3.24609 7.85742 4.05469 7.85742H19.9365C20.7363 7.85742 21.1846 8.2793 21.1846 9.12305V9.19336H2.79785V9.12305ZM4.05469 15.3633C3.24609 15.3633 2.79785 14.9414 2.79785 14.0889V10.3975H21.1846V14.0889C21.1846 14.9414 20.7363 15.3633 19.9365 15.3633H4.05469ZM18.3457 13.9043C18.9873 13.8955 19.5322 13.3594 19.5322 12.7178C19.5322 12.0586 18.9873 11.5137 18.3457 11.5137C17.7041 11.5137 17.1592 12.0586 17.1592 12.7178C17.1592 13.3594 17.7041 13.9219 18.3457 13.9043Z" fill="#1C1C1E"/>
</g>
<defs>
<clipPath id="clip0_10_790">
<rect width="24" height="24" fill="white"/>
</clipPath>
</defs>
</svg>
