<svg width="24" height="24" viewBox="0 0 24 24" fill="none" xmlns="http://www.w3.org/2000/svg">
<g clip-path="url(#clip0_10_743)">
<path d="M9.89062 3.89355C7.99219 3.90234 6.44531 5.15039 6.44531 7.34766C6.44531 9.19336 7.5 10.5293 8.94141 11.3555C9.55664 11.707 10.2246 11.9531 11.2441 12.1201C11.0596 11.6807 10.9629 11.1885 10.9629 10.6523C10.9629 8.74512 12.5098 7.04883 14.417 6.71484C14.3027 6.44238 14.1885 6.24902 14.0654 6.08203C13.002 4.59668 11.3672 3.87598 9.89062 3.89355ZM9.41602 7.53223L8.23828 6.54785C8.05371 6.38965 8.03613 6.12598 8.19434 5.93262C8.35254 5.73047 8.625 5.71289 8.81836 5.87109L9.9873 6.85547C10.1807 7.00488 10.1982 7.27734 10.0488 7.4707C9.89062 7.67285 9.60938 7.69043 9.41602 7.53223ZM14.4346 13.1572C16.0078 13.1572 17.5459 11.9004 17.5459 10.0811C17.5459 8.78906 16.6318 7.60254 15.1113 7.60254C13.3271 7.60254 11.9121 9.14941 11.9121 10.6523C11.9121 12.2871 13.0547 13.1572 14.4346 13.1572ZM14.8125 11.8564C14.5488 11.6367 14.7158 11.2061 15.1992 10.5996C15.6914 9.98438 16.1133 9.76465 16.377 9.99316C16.6318 10.2129 16.4824 10.6611 15.999 11.25C15.498 11.8652 15.0762 12.085 14.8125 11.8564ZM11.1299 19.0547C11.7188 19.0547 12.0967 18.7383 12.0967 18.167V13.2451C11.165 13.1748 10.3213 12.9814 9.50391 12.6387V18.167C9.50391 18.7383 9.88184 19.0547 10.4707 19.0547H11.1299Z" fill="#1C1C1E"/>
</g>
<defs>
<clipPath id="clip0_10_743">
<rect width="24" height="24" fill="white"/>
</clipPath>
</defs>
</svg>
