<svg width="24" height="24" viewBox="0 0 24 24" fill="none" xmlns="http://www.w3.org/2000/svg">
<g clip-path="url(#clip0_10_764)">
<path d="M12.0264 10.3535C14.0654 10.3799 15.8232 8.77148 15.7969 6.82031C15.7617 4.87793 14.0566 3.2959 12.0264 3.2959C10.251 3.2959 9.09082 4.35059 8.47559 5.25586C8.29102 5.53711 8.20312 5.85352 8.20312 6.19629V7.46191C8.20312 7.7959 8.29102 8.1123 8.47559 8.40234C9.04688 9.29004 10.251 10.3359 12.0264 10.3535ZM9.86426 8.22656C9.62695 8.22656 9.43359 8.04199 9.43359 7.7959V5.85352C9.43359 5.60742 9.62695 5.42285 9.86426 5.42285C10.1104 5.42285 10.3037 5.60742 10.3037 5.85352V7.7959C10.3037 8.04199 10.1104 8.22656 9.86426 8.22656ZM12.3691 17.1211H14.9443V10.3447C14.1973 10.8545 13.3096 11.1709 12.3691 11.2324V17.1211ZM14.9443 18.0615H12.3691V19.1338C12.3691 19.6787 12.7295 19.9775 13.292 19.9775H14.0215C14.584 19.9775 14.9443 19.6787 14.9443 19.1338V18.0615Z" fill="#1C1C1E"/>
</g>
<defs>
<clipPath id="clip0_10_764">
<rect width="24" height="24" fill="white"/>
</clipPath>
</defs>
</svg>
