<svg width="24" height="24" viewBox="0 0 24 24" fill="none" xmlns="http://www.w3.org/2000/svg">
<g clip-path="url(#clip0_10_791)">
<path d="M5.90039 19.3008C5.90039 21.0938 6.86719 22.043 8.66895 22.043H15.3223C17.1328 22.043 18.0908 21.0938 18.0908 19.3008V5.9502C18.0908 5.15918 17.9238 4.6582 17.4668 4.10449L16.1836 2.53125C15.5332 1.74023 14.9004 1.37988 14.0479 1.37988H9.94336C9.09082 1.37988 8.4668 1.74023 7.81641 2.53125L6.52441 4.10449C6.06738 4.6582 5.90039 5.15918 5.90039 5.9502V19.3008ZM8.08887 4.63184L9.09961 3.41016C9.45117 2.97949 9.66211 2.75098 10.1982 2.75098H13.793C14.3291 2.75098 14.54 2.97949 14.8916 3.41016L15.9023 4.63184C16.0693 4.83398 16.0254 5.20312 15.6035 5.20312H8.3877C7.96582 5.20312 7.93066 4.83398 8.08887 4.63184ZM7.64941 19.0459V6.77637C7.87793 6.89062 8.11523 6.93457 8.40527 6.93457H15.5947C15.876 6.93457 16.1133 6.89062 16.3418 6.77637V19.0459C16.3418 19.8545 15.8936 20.2852 15.1113 20.2852H8.87988C8.09766 20.2852 7.64941 19.8545 7.64941 19.0459ZM14.3994 19.1602C14.8564 19.1602 15.2168 18.7998 15.2168 18.3428C15.2168 17.8945 14.8564 17.5254 14.3994 17.5254C13.9424 17.5254 13.582 17.8945 13.582 18.3428C13.582 18.7998 13.9424 19.1602 14.3994 19.1602Z" fill="#1C1C1E"/>
</g>
<defs>
<clipPath id="clip0_10_791">
<rect width="24" height="24" fill="white"/>
</clipPath>
</defs>
</svg>
