<svg width="24" height="24" viewBox="0 0 24 24" fill="none" xmlns="http://www.w3.org/2000/svg">
<g clip-path="url(#clip0_10_758)">
<path d="M5.00391 5.05371V18.2637C5.00391 20.0215 5.91797 20.9443 7.6582 20.9443H16.3418C18.082 20.9443 18.9961 20.0215 18.9961 18.2637V5.05371C18.9961 3.28711 18.0908 2.37305 16.3418 2.37305H7.6582C5.91797 2.37305 5.00391 3.28711 5.00391 5.05371ZM6.75293 5.15918C6.75293 4.47363 7.10449 4.12207 7.79883 4.12207H16.2012C16.9043 4.12207 17.2471 4.47363 17.2471 5.15918V18.1494C17.2471 18.835 16.8955 19.1865 16.2012 19.1865H7.79883C7.10449 19.1865 6.75293 18.835 6.75293 18.1494V5.15918ZM12 9.49219C13.125 9.49219 14.0479 8.58691 14.0391 7.46191C14.0215 6.32812 13.125 5.44043 12 5.43164C10.875 5.42285 9.96973 6.32812 9.96973 7.46191C9.96973 8.5957 10.875 9.49219 12 9.49219ZM12 8.39355C11.4814 8.39355 11.0684 7.97168 11.0684 7.46191C11.0684 6.91699 11.4814 6.52148 12 6.52148C12.5098 6.52148 12.9316 6.94336 12.9316 7.46191C12.9316 7.97168 12.5186 8.39355 12 8.39355ZM12 17.8682C13.9688 17.8682 15.5508 16.2949 15.5508 14.3174C15.5508 12.3398 13.9688 10.7842 12 10.7754C10.04 10.7666 8.45801 12.3398 8.45801 14.3174C8.45801 16.2949 10.04 17.8682 12 17.8682ZM12 15.7324C11.2266 15.7324 10.5938 15.0996 10.5938 14.3174C10.5938 13.5088 11.209 12.9023 12 12.9023C12.791 12.9023 13.415 13.5088 13.415 14.3174C13.415 15.0996 12.791 15.7324 12 15.7324Z" fill="#1C1C1E"/>
</g>
<defs>
<clipPath id="clip0_10_758">
<rect width="24" height="24" fill="white"/>
</clipPath>
</defs>
</svg>
