<svg width="24" height="24" viewBox="0 0 24 24" fill="none" xmlns="http://www.w3.org/2000/svg">
<g clip-path="url(#clip0_10_813)">
<path d="M6.14648 15.0996C6.14648 16.5322 6.75293 17.4199 7.62305 17.9209C8.08008 18.1846 8.34375 18.501 8.51953 19.0283L8.84473 20.0039C9.04688 20.6104 9.50391 20.8389 10.0488 20.8389H13.9424C14.4873 20.8389 14.9443 20.6279 15.1465 20.0039L15.4717 19.0283C15.6475 18.501 15.9111 18.1846 16.3682 17.9209C17.2471 17.4199 17.8535 16.5322 17.8535 15.0996V11.1357H17.8799C18.3721 11.1357 18.7061 10.7842 18.7061 10.2568V9.11426C18.7061 8.58691 18.3721 8.23535 17.8799 8.23535H17.8535V8.20898C17.8535 6.77637 17.2471 5.88867 16.3682 5.3877C15.9111 5.12402 15.6475 4.80762 15.4717 4.28027L15.1465 3.30469C14.9531 2.69824 14.4873 2.46973 13.9424 2.46973H10.0488C9.50391 2.46973 9.04688 2.69824 8.84473 3.30469L8.51953 4.28027C8.34375 4.81641 8.07129 5.1416 7.62305 5.3877C6.74414 5.87109 6.14648 6.77637 6.14648 8.20898V15.0996ZM1.04883 17.6572C1.34766 17.3057 1.25098 16.8662 0.916992 16.4883C-0.225586 15.2227 -0.858398 13.5176 -0.858398 11.6543C-0.858398 9.79102 -0.225586 8.08594 0.916992 6.82031C1.25977 6.44238 1.34766 6.00293 1.04883 5.65137C0.741211 5.29102 0.196289 5.26465 -0.199219 5.69531C-1.62305 7.2334 -2.44043 9.36914 -2.44043 11.6543C-2.44043 13.9395 -1.64941 16.0576 -0.199219 17.6133C0.205078 18.0439 0.741211 18.0264 1.04883 17.6572ZM22.9424 17.6572C23.25 18.0264 23.7949 18.0439 24.1904 17.6133C25.6406 16.0576 26.4316 13.9395 26.4316 11.6543C26.4316 9.36914 25.6143 7.2334 24.1904 5.69531C23.7949 5.26465 23.2588 5.29102 22.9424 5.65137C22.6436 6.00293 22.7314 6.44238 23.0742 6.82031C24.2168 8.08594 24.8584 9.79102 24.8584 11.6543C24.8584 13.5176 24.2168 15.2227 23.0742 16.4883C22.7402 16.8662 22.6436 17.3057 22.9424 17.6572ZM7.69336 14.8271V8.48145C7.69336 7.28613 8.37891 6.58301 9.53027 6.58301H14.4609C15.6211 6.58301 16.2979 7.28613 16.2979 8.48145V14.8271C16.2979 16.0137 15.6211 16.7168 14.4609 16.7168H9.53027C8.37891 16.7168 7.69336 16.0137 7.69336 14.8271ZM3.62402 15.1348C3.91406 14.792 3.7998 14.3701 3.50977 13.9746C3.03516 13.3682 2.77148 12.5156 2.77148 11.6543C2.77148 10.793 3.03516 9.94043 3.50977 9.33398C3.7998 8.93848 3.91406 8.5166 3.62402 8.16504C3.31641 7.80469 2.73633 7.78711 2.36719 8.22656C1.61133 9.13184 1.18945 10.3535 1.18945 11.6543C1.18945 12.9551 1.61133 14.1768 2.36719 15.082C2.73633 15.5215 3.31641 15.5039 3.62402 15.1348ZM20.3672 15.1348C20.6748 15.5039 21.2637 15.5215 21.624 15.082C22.3799 14.1768 22.8018 12.9551 22.8018 11.6543C22.8018 10.3535 22.3799 9.13184 21.624 8.22656C21.2637 7.78711 20.6748 7.80469 20.3672 8.16504C20.0771 8.5166 20.1914 8.93848 20.4814 9.33398C20.9561 9.94043 21.2197 10.793 21.2197 11.6543C21.2197 12.5156 20.9561 13.3682 20.4814 13.9746C20.1914 14.3701 20.0771 14.792 20.3672 15.1348Z" fill="#1C1C1E"/>
</g>
<defs>
<clipPath id="clip0_10_813">
<rect width="24" height="24" fill="white"/>
</clipPath>
</defs>
</svg>
