<svg width="24" height="24" viewBox="0 0 24 24" fill="none" xmlns="http://www.w3.org/2000/svg">
<g clip-path="url(#clip0_10_812)">
<path d="M6.14648 15.0996C6.14648 16.5322 6.75293 17.4199 7.62305 17.9209C8.08008 18.1846 8.35254 18.501 8.51953 19.0283L8.85352 20.0039C9.04688 20.6104 9.5127 20.8389 10.0576 20.8389H13.9424C14.4873 20.8389 14.9443 20.6279 15.1465 20.0039L15.4805 19.0283C15.6475 18.501 15.9111 18.1846 16.377 17.9209C17.2471 17.4199 17.8535 16.5322 17.8535 15.0996V11.1357H17.8799C18.3809 11.1357 18.7061 10.7842 18.7061 10.2568V9.11426C18.7061 8.58691 18.3721 8.23535 17.8799 8.23535H17.8535V8.20898C17.8535 6.77637 17.2471 5.88867 16.377 5.3877C15.9111 5.12402 15.6475 4.80762 15.4805 4.28027L15.1465 3.30469C14.9531 2.69824 14.4873 2.46973 13.9424 2.46973H10.0576C9.5127 2.46973 9.04688 2.69824 8.85352 3.30469L8.51953 4.28027C8.34375 4.81641 8.07129 5.1416 7.62305 5.3877C6.74414 5.87109 6.14648 6.77637 6.14648 8.20898V15.0996ZM7.70215 14.8271V8.48145C7.70215 7.28613 8.37891 6.58301 9.53027 6.58301H14.4697C15.6211 6.58301 16.2979 7.28613 16.2979 8.48145V14.8271C16.2979 16.0137 15.6211 16.7168 14.4697 16.7168H9.53027C8.37891 16.7168 7.70215 16.0137 7.70215 14.8271ZM9.38086 9.76465C9.14355 10.0459 9.17871 10.4766 9.46875 10.7139L11.2266 12.1992C11.6396 12.5332 12.0439 12.5332 12.4219 12.1992L15.4277 9.58008C15.709 9.33398 15.709 8.89453 15.4365 8.61328C15.1816 8.36719 14.7773 8.36719 14.4961 8.61328L11.8154 10.9424L10.3213 9.67676C10.04 9.45703 9.63574 9.4834 9.38086 9.76465Z" fill="#1C1C1E"/>
</g>
<defs>
<clipPath id="clip0_10_812">
<rect width="24" height="24" fill="white"/>
</clipPath>
</defs>
</svg>
