<svg width="24" height="24" viewBox="0 0 24 24" fill="none" xmlns="http://www.w3.org/2000/svg">
<g clip-path="url(#clip0_10_830)">
<path d="M10.0488 2.46973C9.50391 2.46973 9.04688 2.69824 8.84473 3.30469L8.51953 4.28027C8.43164 4.57031 8.33496 4.77246 8.13281 4.95703L7.99219 5.09766L9.54785 6.65332C9.72363 6.60938 9.9082 6.58301 10.1104 6.58301H14.4697C15.6211 6.58301 16.2979 7.28613 16.2979 8.48145V13.4033L17.8535 14.9414V11.1357H17.9062C18.3984 11.1357 18.7324 10.7842 18.7324 10.2568V9.11426C18.7324 8.58691 18.3984 8.23535 17.9062 8.23535H17.8535V8.20898C17.8535 6.77637 17.2471 5.88867 16.3682 5.3877C15.9111 5.12402 15.6475 4.80762 15.4717 4.28027L15.1465 3.30469C14.9531 2.69824 14.4873 2.46973 13.9424 2.46973H10.0488ZM18.1787 18.8174C18.4512 19.0898 18.8994 19.0898 19.1719 18.8174C19.4355 18.5449 19.4443 18.0967 19.1719 17.8242L5.8125 4.47363C5.54004 4.20117 5.0918 4.20117 4.81934 4.47363C4.55566 4.7373 4.55566 5.20312 4.81934 5.4668L18.1787 18.8174ZM10.0488 20.8389H13.9424C14.4873 20.8389 14.9443 20.6279 15.1465 20.0039L15.4717 19.0283C15.5684 18.7295 15.6914 18.5361 15.8672 18.3516C15.9199 18.2988 15.9551 18.2549 15.999 18.2109L14.4434 16.6553C14.2852 16.6992 14.1094 16.7168 13.916 16.7168H9.53027C8.37891 16.7168 7.70215 16.0137 7.70215 14.8271V9.92285L6.14648 8.36719V15.0996C6.14648 16.5322 6.75293 17.4199 7.62305 17.9209C8.08008 18.1846 8.34375 18.501 8.51953 19.0283L8.84473 20.0039C9.04688 20.6104 9.50391 20.8389 10.0488 20.8389Z" fill="#1C1C1E"/>
</g>
<defs>
<clipPath id="clip0_10_830">
<rect width="24" height="24" fill="white"/>
</clipPath>
</defs>
</svg>
