<svg width="24" height="24" viewBox="0 0 24 24" fill="none" xmlns="http://www.w3.org/2000/svg">
<g clip-path="url(#clip0_10_753)">
<path d="M19.8047 3.90234C18.8994 2.99707 17.6514 2.82129 16.0342 2.82129H7.93945C6.34863 2.82129 5.10059 2.99707 4.19531 3.90234C3.29004 4.80762 3.12305 6.04688 3.12305 7.6377V15.6797C3.12305 17.2969 3.29004 18.5361 4.19531 19.4326C5.10059 20.3291 6.34863 20.5137 7.95703 20.5137H16.0342C17.6514 20.5137 18.8994 20.3291 19.8047 19.4326C20.7012 18.5273 20.877 17.2969 20.877 15.6797V7.65527C20.877 6.03809 20.7012 4.79883 19.8047 3.90234ZM19.1191 7.40918V15.917C19.1191 16.8398 19.0049 17.666 18.5215 18.1494C18.0381 18.6328 17.1943 18.7559 16.2803 18.7559H7.71973C6.80566 18.7559 5.96191 18.6328 5.47852 18.1494C4.99512 17.666 4.87207 16.8398 4.87207 15.917V7.43555C4.87207 6.50391 4.99512 5.66895 5.47852 5.18555C5.96191 4.69336 6.80566 4.57031 7.7373 4.57031H16.2803C17.1943 4.57031 18.0381 4.70215 18.5215 5.18555C19.0049 5.66895 19.1191 6.49512 19.1191 7.40918ZM8.16797 9.78223C8.85352 9.85254 9.39844 9.09668 9.3457 8.48145C8.66016 8.5166 8.1416 9.13184 8.16797 9.78223ZM12.8525 8.90332H11.9648V9.91406H11.3584V10.5996H11.9648V13.0781C11.9648 13.9307 12.3076 14.2471 13.1865 14.2471C13.3799 14.2471 13.5908 14.2207 13.6611 14.2119V13.4912C13.626 13.5088 13.4678 13.5088 13.3799 13.5088C13.0195 13.5088 12.8525 13.3682 12.8525 12.9727V10.5996H13.6787V9.91406H12.8525V8.90332ZM10.5234 12.7354C10.1895 12.5859 9.97852 12.375 9.85547 12.0674C9.72363 11.7246 9.75 11.3906 9.85547 11.1006C9.92578 10.9072 10.0488 10.6699 10.374 10.4766C10.1367 10.1074 9.74121 9.91406 9.28418 9.91406C8.75684 9.91406 8.45801 10.1865 8.19434 10.1865C7.97461 10.1865 7.72852 9.92285 7.30664 9.92285C6.8584 9.92285 6.48047 10.1074 6.24316 10.4238C5.96191 10.7754 5.83887 11.2236 5.83887 11.6631C5.83887 12.4102 6.16406 13.2803 6.65625 13.8252C6.91113 14.1152 7.11328 14.2559 7.3418 14.2559C7.69336 14.2559 7.87793 14.0098 8.2998 14.0098C8.48438 14.0098 8.63379 14.0801 8.74805 14.1152C8.91504 14.168 9.03809 14.2471 9.24023 14.2471C9.45117 14.2471 9.61816 14.168 9.73242 14.0537C10.1104 13.7021 10.4004 13.166 10.5234 12.7354ZM16.5791 14.2119L18.1348 9.91406H17.168L16.1221 13.3682L15.0146 9.91406H14.0742L15.6562 14.2119H16.5791Z" fill="#1C1C1E"/>
</g>
<defs>
<clipPath id="clip0_10_753">
<rect width="24" height="24" fill="white"/>
</clipPath>
</defs>
</svg>
