<svg width="24" height="24" viewBox="0 0 24 24" fill="none" xmlns="http://www.w3.org/2000/svg">
<g clip-path="url(#clip0_10_752)">
<path d="M19.8047 3.90234C18.8994 2.99707 17.6514 2.82129 16.0342 2.82129H7.93945C6.34863 2.82129 5.10059 2.99707 4.19531 3.90234C3.29004 4.80762 3.12305 6.04688 3.12305 7.6377V15.6797C3.12305 17.2969 3.29004 18.5361 4.19531 19.4326C5.10059 20.3291 6.34863 20.5137 7.95703 20.5137H16.0342C17.6514 20.5137 18.8994 20.3291 19.8047 19.4326C20.7012 18.5273 20.877 17.2969 20.877 15.6797V7.65527C20.877 6.03809 20.7012 4.79883 19.8047 3.90234ZM8.01855 9.7207C7.99219 9.04395 8.52832 8.41113 9.24023 8.36719C9.30176 9.00879 8.73047 9.79102 8.01855 9.7207ZM12.8877 8.80664V9.86133H13.749V10.5732H12.8877V13.043C12.8877 13.4473 13.0635 13.5967 13.4326 13.5967C13.5205 13.5967 13.6875 13.5967 13.7227 13.5703V14.3174C13.6523 14.335 13.4326 14.3525 13.2305 14.3525C12.3252 14.3525 11.9648 14.0361 11.9648 13.1484V10.5732H11.332V9.86133H11.9648V8.80664H12.8877ZM10.4707 12.7881C10.3301 13.2451 10.0312 13.79 9.64453 14.1592C9.52148 14.2734 9.3457 14.3525 9.12598 14.3525C8.92383 14.3525 8.80078 14.2734 8.625 14.2207C8.50195 14.1855 8.35254 14.1064 8.15918 14.1064C7.71973 14.1064 7.52637 14.3701 7.15723 14.3701C6.91992 14.3701 6.71777 14.2207 6.44531 13.9219C5.93555 13.3594 5.60156 12.4541 5.60156 11.6807C5.60156 11.2061 5.72461 10.7578 6.01465 10.3887C6.26953 10.0547 6.65625 9.87012 7.12207 9.87012C7.56152 9.87012 7.81641 10.1426 8.04492 10.1426C8.31738 10.1426 8.63379 9.86133 9.17871 9.86133C9.65332 9.86133 10.0576 10.0547 10.3125 10.4414C9.97852 10.6436 9.84668 10.8896 9.77637 11.0918C9.66211 11.3906 9.63574 11.7422 9.77637 12.1025C9.89941 12.4189 10.1191 12.6387 10.4707 12.7881ZM16.7637 14.3174H15.7969L14.1621 9.86133H15.1289L16.2803 13.4473L17.3701 9.86133H18.3721L16.7637 14.3174Z" fill="#1C1C1E"/>
</g>
<defs>
<clipPath id="clip0_10_752">
<rect width="24" height="24" fill="white"/>
</clipPath>
</defs>
</svg>
