<svg width="24" height="24" viewBox="0 0 24 24" fill="none" xmlns="http://www.w3.org/2000/svg">
<g clip-path="url(#clip0_10_771)">
<path d="M4.79297 17.6484H19.1982C20.666 17.6484 21.6416 16.6289 21.6416 15.0996V8.14746C21.6416 6.64453 20.666 5.65137 19.1982 5.65137H4.79297C3.3252 5.65137 2.34961 6.64453 2.34961 8.14746V15.0996C2.34961 16.6289 3.3252 17.6484 4.79297 17.6484ZM5.20605 15.8906C4.53809 15.8906 4.16016 15.4951 4.16016 14.8008V8.49023C4.16016 7.80469 4.53809 7.40039 5.20605 7.40039H18.7852C19.4531 7.40039 19.8398 7.80469 19.8398 8.49023L19.8311 14.8008C19.8311 15.4951 19.4619 15.8906 18.7852 15.8906H5.20605ZM5.67188 10.1074H6.5332C6.72656 10.1074 6.8584 9.97559 6.8584 9.78223V8.94727C6.8584 8.74512 6.72656 8.5957 6.5332 8.5957H5.67188C5.47852 8.5957 5.34668 8.74512 5.34668 8.94727V9.78223C5.34668 9.97559 5.47852 10.1074 5.67188 10.1074ZM8.08887 10.1074H8.9502C9.14355 10.1074 9.27539 9.97559 9.27539 9.78223V8.94727C9.27539 8.74512 9.14355 8.5957 8.9502 8.5957H8.08887C7.9043 8.5957 7.76367 8.74512 7.76367 8.94727V9.78223C7.76367 9.97559 7.89551 10.1074 8.08887 10.1074ZM10.5146 10.1074H11.376C11.5693 10.1074 11.7012 9.97559 11.7012 9.78223V8.94727C11.7012 8.74512 11.5693 8.5957 11.376 8.5957H10.5146C10.3213 8.5957 10.1895 8.74512 10.1895 8.94727V9.78223C10.1895 9.97559 10.3213 10.1074 10.5146 10.1074ZM12.9316 10.1074H13.8018C13.9951 10.1074 14.127 9.97559 14.127 9.78223V8.94727C14.127 8.74512 13.9951 8.5957 13.8018 8.5957H12.9404C12.7471 8.5957 12.6152 8.74512 12.6152 8.94727V9.78223C12.6152 9.97559 12.7471 10.1074 12.9316 10.1074ZM17.5107 10.1074H18.3721C18.5654 10.1074 18.6973 9.97559 18.6973 9.78223V8.94727C18.6973 8.74512 18.5654 8.5957 18.3721 8.5957H17.5107C17.3174 8.5957 17.1855 8.74512 17.1855 8.94727V9.78223C17.1855 9.97559 17.3174 10.1074 17.5107 10.1074ZM5.67188 12.4102H6.5332C6.72656 12.4102 6.8584 12.2783 6.8584 12.085V11.2412C6.8584 11.0391 6.72656 10.8984 6.5332 10.8984H5.67188C5.47852 10.8984 5.34668 11.0391 5.34668 11.2412V12.085C5.34668 12.2783 5.47852 12.4102 5.67188 12.4102ZM8.08887 12.4102H8.9502C9.14355 12.4102 9.27539 12.2783 9.27539 12.085V11.2412C9.27539 11.0391 9.14355 10.8984 8.9502 10.8984H8.08887C7.9043 10.8984 7.76367 11.0391 7.76367 11.2412V12.085C7.76367 12.2783 7.89551 12.4102 8.08887 12.4102ZM10.5234 12.4102H11.376C11.5781 12.4102 11.71 12.2783 11.71 12.085V11.2412C11.71 11.0391 11.5781 10.8984 11.376 10.8984H10.5234C10.3213 10.8984 10.1895 11.0391 10.1895 11.2412V12.085C10.1895 12.2783 10.3213 12.4102 10.5234 12.4102ZM17.5107 12.4102H18.3721C18.5654 12.4102 18.6973 12.2783 18.6973 12.085V11.2412C18.6973 11.0391 18.5654 10.8984 18.3721 10.8984H17.5107C17.3174 10.8984 17.1855 11.0391 17.1855 11.2412V12.085C17.1855 12.2783 17.3174 12.4102 17.5107 12.4102ZM17.5107 14.7041H18.3721C18.5654 14.7041 18.6973 14.5723 18.6973 14.3789V13.5439C18.6973 13.333 18.5654 13.1924 18.3721 13.1924H17.5107C17.3174 13.1924 17.1855 13.333 17.1855 13.5439V14.3789C17.1855 14.5723 17.3174 14.7041 17.5107 14.7041Z" fill="#1C1C1E"/>
</g>
<defs>
<clipPath id="clip0_10_771">
<rect width="24" height="24" fill="white"/>
</clipPath>
</defs>
</svg>
