<svg width="24" height="24" viewBox="0 0 24 24" fill="none" xmlns="http://www.w3.org/2000/svg">
<g clip-path="url(#clip0_10_842)">
<path d="M4.39746 19.8809H19.6025C21.5098 19.8809 22.4941 18.8965 22.4941 17.0156V6.31934C22.4941 4.43848 21.5098 3.4541 19.6025 3.4541H4.38867C2.49023 3.4541 1.49707 4.42969 1.49707 6.31934V17.0156C1.49707 18.8965 2.49023 19.8809 4.39746 19.8809ZM4.50293 18.1318C3.69434 18.1318 3.25488 17.71 3.25488 16.8574V6.47754C3.25488 5.625 3.69434 5.20312 4.50293 5.20312H19.4883C20.2969 5.20312 20.7451 5.625 20.7451 6.47754V16.8574C20.7451 17.71 20.2969 18.1318 19.4883 18.1318H4.50293ZM5.28516 8.5166H6.14648C6.41016 8.5166 6.60352 8.34082 6.60352 8.09473V7.20703C6.60352 6.95215 6.41016 6.77637 6.14648 6.77637H5.28516C5.04785 6.77637 4.86328 6.96094 4.86328 7.20703V8.09473C4.86328 8.33203 5.04785 8.5166 5.28516 8.5166ZM8.42285 8.5166H9.28418C9.54785 8.5166 9.74121 8.34082 9.74121 8.09473V7.20703C9.74121 6.95215 9.54785 6.77637 9.28418 6.77637H8.42285C8.18555 6.77637 8.00098 6.96094 8.00098 7.20703V8.09473C8.00098 8.33203 8.17676 8.5166 8.42285 8.5166ZM11.5518 8.5166H12.4131C12.668 8.5166 12.8701 8.34082 12.8701 8.09473V7.20703C12.8701 6.95215 12.668 6.77637 12.4131 6.77637H11.5518C11.3145 6.77637 11.1299 6.96094 11.1299 7.20703V8.09473C11.1299 8.33203 11.3057 8.5166 11.5518 8.5166ZM14.6807 8.5166H15.542C15.8057 8.5166 15.9902 8.34082 15.9902 8.09473V7.20703C15.9902 6.95215 15.8057 6.77637 15.542 6.77637H14.6807C14.4434 6.77637 14.2588 6.96094 14.2588 7.20703V8.09473C14.2588 8.33203 14.4434 8.5166 14.6807 8.5166ZM17.8096 8.5166H18.6709C18.9346 8.5166 19.1279 8.34082 19.1279 8.09473V7.20703C19.1279 6.95215 18.9346 6.77637 18.6709 6.77637H17.8096C17.5723 6.77637 17.3877 6.96094 17.3877 7.20703V8.09473C17.3877 8.33203 17.5723 8.5166 17.8096 8.5166ZM5.28516 11.3994H6.14648C6.41016 11.3994 6.60352 11.2236 6.60352 10.9775V10.0898C6.60352 9.83496 6.41016 9.65918 6.14648 9.65918H5.28516C5.04785 9.65918 4.86328 9.84375 4.86328 10.0898V10.9775C4.86328 11.2148 5.04785 11.3994 5.28516 11.3994ZM8.42285 11.3994H9.28418C9.54785 11.3994 9.74121 11.2236 9.74121 10.9775V10.0898C9.74121 9.83496 9.54785 9.65918 9.28418 9.65918H8.42285C8.18555 9.65918 8.00098 9.84375 8.00098 10.0898V10.9775C8.00098 11.2148 8.17676 11.3994 8.42285 11.3994ZM11.5518 11.3994H12.4131C12.668 11.3994 12.8701 11.2236 12.8701 10.9775V10.0898C12.8701 9.83496 12.668 9.65918 12.4131 9.65918H11.5518C11.3145 9.65918 11.1299 9.84375 11.1299 10.0898V10.9775C11.1299 11.2148 11.3057 11.3994 11.5518 11.3994ZM14.6807 11.3994H15.542C15.8057 11.3994 15.9902 11.2236 15.9902 10.9775V10.0898C15.9902 9.83496 15.8057 9.65918 15.542 9.65918H14.6807C14.4434 9.65918 14.2588 9.84375 14.2588 10.0898V10.9775C14.2588 11.2148 14.4434 11.3994 14.6807 11.3994ZM5.28516 16.5498H6.14648C6.41016 16.5498 6.60352 16.374 6.60352 16.1279V15.2314C6.60352 14.9854 6.41016 14.8096 6.14648 14.8096H5.28516C5.04785 14.8096 4.86328 14.9941 4.86328 15.2314V16.1279C4.86328 16.3652 5.04785 16.5498 5.28516 16.5498ZM8.42285 16.5498H9.28418C9.54785 16.5498 9.74121 16.374 9.74121 16.1279V15.2314C9.74121 14.9854 9.54785 14.8096 9.28418 14.8096H8.42285C8.18555 14.8096 8.00098 14.9941 8.00098 15.2314V16.1279C8.00098 16.3652 8.17676 16.5498 8.42285 16.5498ZM11.5518 16.5498H12.4131C12.668 16.5498 12.8701 16.374 12.8701 16.1279V15.2314C12.8701 14.9854 12.668 14.8096 12.4131 14.8096H11.5518C11.3145 14.8096 11.1299 14.9941 11.1299 15.2314V16.1279C11.1299 16.3652 11.3057 16.5498 11.5518 16.5498ZM14.6807 16.5498H15.542C15.8057 16.5498 15.9902 16.374 15.9902 16.1279V15.2314C15.9902 14.9854 15.8057 14.8096 15.542 14.8096H14.6807C14.4434 14.8096 14.2588 14.9941 14.2588 15.2314V16.1279C14.2588 16.3652 14.4434 16.5498 14.6807 16.5498ZM17.8096 16.5498H18.6709C18.9346 16.5498 19.1279 16.374 19.1279 16.1279V15.2314C19.1279 14.9854 18.9346 14.8096 18.6709 14.8096H17.8096C17.5723 14.8096 17.3877 14.9941 17.3877 15.2314V16.1279C17.3877 16.3652 17.5723 16.5498 17.8096 16.5498Z" fill="#1C1C1E"/>
</g>
<defs>
<clipPath id="clip0_10_842">
<rect width="24" height="24" fill="white"/>
</clipPath>
</defs>
</svg>
