<svg width="24" height="24" viewBox="0 0 24 24" fill="none" xmlns="http://www.w3.org/2000/svg">
<g clip-path="url(#clip0_10_837)">
<path d="M7.05176 21.7705H16.9395C18.5303 21.7705 19.5674 20.7686 19.5674 19.2305V4.07812C19.5674 2.53125 18.5303 1.5293 16.9395 1.5293H7.05176C5.46094 1.5293 4.42383 2.53125 4.42383 4.07812V19.2305C4.42383 20.7686 5.46094 21.7705 7.05176 21.7705ZM7.29785 20.0215C6.57715 20.0215 6.17285 19.626 6.17285 18.9404V4.35938C6.17285 3.67383 6.57715 3.27832 7.29785 3.27832H16.6934C17.4141 3.27832 17.8184 3.67383 17.8184 4.35938V18.9404C17.8184 19.626 17.4141 20.0215 16.6934 20.0215H7.29785ZM7.99219 6.31934H8.76562C9.00293 6.31934 9.17871 6.16113 9.17871 5.94141V5.13281C9.17871 4.91309 9.00293 4.75488 8.76562 4.75488H7.99219C7.77246 4.75488 7.61426 4.92188 7.61426 5.13281V5.94141C7.61426 6.15234 7.77246 6.31934 7.99219 6.31934ZM10.4004 6.31934H11.1738C11.4111 6.31934 11.5869 6.16113 11.5869 5.94141V5.13281C11.5869 4.91309 11.4111 4.75488 11.1738 4.75488H10.4004C10.1895 4.75488 10.0225 4.92188 10.0225 5.13281V5.94141C10.0225 6.15234 10.1807 6.31934 10.4004 6.31934ZM12.8086 6.31934H13.582C13.8193 6.31934 13.9951 6.16113 13.9951 5.94141V5.13281C13.9951 4.91309 13.8193 4.75488 13.582 4.75488H12.8086C12.5889 4.75488 12.4219 4.92188 12.4219 5.13281V5.94141C12.4219 6.15234 12.5889 6.31934 12.8086 6.31934ZM15.208 6.31934H15.9902C16.2275 6.31934 16.3945 6.16113 16.3945 5.94141V5.13281C16.3945 4.91309 16.2275 4.75488 15.9902 4.75488H15.208C14.9971 4.75488 14.8301 4.92188 14.8301 5.13281V5.94141C14.8301 6.15234 14.9971 6.31934 15.208 6.31934ZM7.99219 8.75391H8.76562C9.00293 8.75391 9.17871 8.58691 9.17871 8.36719V7.56738C9.17871 7.33887 9.00293 7.18066 8.76562 7.18066H7.99219C7.77246 7.18066 7.61426 7.34766 7.61426 7.56738V8.36719C7.61426 8.58691 7.77246 8.75391 7.99219 8.75391ZM10.4004 8.75391H11.1738C11.4111 8.75391 11.5869 8.58691 11.5869 8.36719V7.56738C11.5869 7.33887 11.4111 7.18066 11.1738 7.18066H10.4004C10.1895 7.18066 10.0137 7.34766 10.0137 7.56738V8.36719C10.0137 8.58691 10.1807 8.75391 10.4004 8.75391ZM12.8086 8.75391H13.582C13.8193 8.75391 13.9951 8.58691 13.9951 8.37598V7.56738C13.9951 7.33887 13.8193 7.18066 13.582 7.18066H12.8086C12.5889 7.18066 12.4219 7.34766 12.4219 7.56738V8.37598C12.4219 8.58691 12.5889 8.75391 12.8086 8.75391ZM15.208 8.75391H15.9902C16.2275 8.75391 16.3945 8.58691 16.3945 8.37598V7.56738C16.3945 7.33887 16.2275 7.18066 15.9902 7.18066H15.208C14.9971 7.18066 14.8301 7.34766 14.8301 7.56738V8.37598C14.8301 8.58691 14.9971 8.75391 15.208 8.75391ZM7.99219 11.1885H8.76562C9.00293 11.1885 9.17871 11.0303 9.17871 10.8018V10.0107C9.17871 9.78223 9.00293 9.61523 8.76562 9.61523H7.99219C7.77246 9.61523 7.61426 9.78223 7.61426 10.0107V10.8018C7.61426 11.0215 7.77246 11.1885 7.99219 11.1885ZM10.4004 11.1885H11.1738C11.4111 11.1885 11.5869 11.0303 11.5869 10.8018V10.0107C11.5869 9.78223 11.4111 9.61523 11.1738 9.61523H10.4004C10.1895 9.61523 10.0137 9.78223 10.0137 10.0107V10.8018C10.0137 11.0215 10.1807 11.1885 10.4004 11.1885ZM7.99219 18.5449H8.76562C9.00293 18.5449 9.17871 18.3867 9.17871 18.167V17.3584C9.17871 17.1387 9.00293 16.9805 8.76562 16.9805H7.99219C7.77246 16.9805 7.61426 17.1475 7.61426 17.3584V18.167C7.61426 18.3779 7.77246 18.5449 7.99219 18.5449ZM10.4004 18.5449H11.1738C11.4111 18.5449 11.5869 18.3867 11.5869 18.167V17.3584C11.5869 17.1387 11.4111 16.9805 11.1738 16.9805H10.4004C10.1895 16.9805 10.0137 17.1475 10.0137 17.3584V18.167C10.0137 18.3779 10.1807 18.5449 10.4004 18.5449ZM12.8086 18.5449H13.5908C13.8193 18.5449 13.9951 18.3867 13.9951 18.167V17.3584C13.9951 17.1387 13.8193 16.9805 13.5908 16.9805H12.8086C12.5889 16.9805 12.4219 17.1475 12.4219 17.3584V18.167C12.4219 18.3779 12.5889 18.5449 12.8086 18.5449ZM15.208 18.5449H15.9902C16.2275 18.5449 16.3945 18.3867 16.3945 18.167V17.3584C16.3945 17.1387 16.2275 16.9805 15.9902 16.9805H15.208C14.9971 16.9805 14.8389 17.1475 14.8389 17.3584V18.167C14.8389 18.3779 14.9971 18.5449 15.208 18.5449Z" fill="#1C1C1E"/>
</g>
<defs>
<clipPath id="clip0_10_837">
<rect width="24" height="24" fill="white"/>
</clipPath>
</defs>
</svg>
