<svg width="24" height="24" viewBox="0 0 24 24" fill="none" xmlns="http://www.w3.org/2000/svg">
<g clip-path="url(#clip0_10_849)">
<path d="M8.5459 21.2959H15.498C17.001 21.2959 18.0029 20.3115 18.0029 18.8525V4.43848C18.0029 2.97949 17.001 2.00391 15.498 2.00391H8.5459C7.0166 2.00391 5.99707 2.97949 5.99707 4.43848V18.8525C5.99707 20.3115 7.0166 21.2959 8.5459 21.2959ZM8.84473 19.5293C8.15039 19.5293 7.75488 19.1514 7.75488 18.4834V4.80762C7.75488 4.13965 8.15039 3.76172 8.84473 3.76172H15.1553C15.8496 3.76172 16.2451 4.14844 16.2451 4.81641V18.4834C16.2451 19.1514 15.8496 19.5293 15.1553 19.5293H8.84473ZM9.2666 6.50391H10.1104C10.3125 6.50391 10.4531 6.37207 10.4531 6.17871V5.31738C10.4531 5.12402 10.3125 4.99219 10.1104 4.99219H9.2666C9.07324 4.99219 8.94141 5.12402 8.94141 5.31738V6.17871C8.94141 6.37207 9.07324 6.50391 9.2666 6.50391ZM11.5693 6.50391H12.4043C12.6064 6.50391 12.7559 6.37207 12.7559 6.17871V5.31738C12.7559 5.12402 12.6064 4.99219 12.4043 4.99219H11.5693C11.376 4.99219 11.2441 5.12402 11.2441 5.31738V6.17871C11.2441 6.37207 11.376 6.50391 11.5693 6.50391ZM13.8633 6.50391H14.6982C14.9092 6.50391 15.0498 6.37207 15.0498 6.17871V5.31738C15.0498 5.12402 14.9092 4.99219 14.6982 4.99219H13.8633C13.6699 4.99219 13.5381 5.12402 13.5381 5.31738V6.17871C13.5381 6.37207 13.6699 6.50391 13.8633 6.50391ZM9.2666 8.91211H10.1104C10.3125 8.91211 10.4531 8.78027 10.4531 8.58691V7.72559C10.4531 7.53223 10.3125 7.40039 10.1104 7.40039H9.2666C9.07324 7.40039 8.94141 7.53223 8.94141 7.72559V8.58691C8.94141 8.78027 9.07324 8.91211 9.2666 8.91211ZM11.5693 8.91211H12.4043C12.6064 8.91211 12.7559 8.78027 12.7559 8.58691V7.72559C12.7559 7.53223 12.6064 7.40039 12.4043 7.40039H11.5693C11.376 7.40039 11.2441 7.53223 11.2441 7.72559V8.58691C11.2441 8.78027 11.376 8.91211 11.5693 8.91211ZM13.8633 8.91211H14.6982C14.9092 8.91211 15.0498 8.78027 15.0498 8.58691V7.72559C15.0498 7.53223 14.9092 7.40039 14.6982 7.40039H13.8633C13.6699 7.40039 13.5381 7.53223 13.5381 7.72559V8.58691C13.5381 8.78027 13.6699 8.91211 13.8633 8.91211ZM9.2666 11.3291H10.1104C10.3125 11.3291 10.4531 11.1885 10.4531 10.9951V10.1338C10.4531 9.94043 10.3125 9.80859 10.1104 9.80859H9.2666C9.07324 9.80859 8.94141 9.94043 8.94141 10.1338V10.9951C8.94141 11.1885 9.07324 11.3291 9.2666 11.3291ZM11.5693 11.3291H12.4043C12.6064 11.3291 12.7559 11.1885 12.7559 10.9951V10.1338C12.7559 9.94043 12.6064 9.80859 12.4043 9.80859H11.5693C11.376 9.80859 11.2441 9.94043 11.2441 10.1338V10.9951C11.2441 11.1885 11.376 11.3291 11.5693 11.3291ZM9.2666 18.3428H10.1104C10.3125 18.3428 10.4531 18.2109 10.4531 18.0264V17.1562C10.4531 16.9629 10.3125 16.8311 10.1104 16.8311H9.2666C9.07324 16.8311 8.94141 16.9629 8.94141 17.1562V18.0264C8.94141 18.2109 9.07324 18.3428 9.2666 18.3428ZM11.5693 18.3428H12.4043C12.6064 18.3428 12.7559 18.2109 12.7559 18.0264V17.1562C12.7559 16.9629 12.6064 16.8311 12.4043 16.8311H11.5693C11.376 16.8311 11.2441 16.9629 11.2441 17.1562V18.0264C11.2441 18.2109 11.376 18.3428 11.5693 18.3428ZM13.8633 18.3428H14.6982C14.9092 18.3428 15.0498 18.2109 15.0498 18.0264V17.1562C15.0498 16.9629 14.9092 16.8311 14.6982 16.8311H13.8633C13.6699 16.8311 13.5381 16.9629 13.5381 17.1562V18.0264C13.5381 18.2109 13.6699 18.3428 13.8633 18.3428Z" fill="#1C1C1E"/>
</g>
<defs>
<clipPath id="clip0_10_849">
<rect width="24" height="24" fill="white"/>
</clipPath>
</defs>
</svg>
