<svg width="24" height="24" viewBox="0 0 24 24" fill="none" xmlns="http://www.w3.org/2000/svg">
<g clip-path="url(#clip0_10_773)">
<path d="M15.1289 21.2959H22.0723C23.5752 21.2959 24.5771 20.3115 24.5771 18.8525V4.43848C24.5771 2.97949 23.5752 2.00391 22.0723 2.00391H15.1289C13.5996 2.00391 12.5801 2.97949 12.5801 4.43848V18.8525C12.5801 20.3115 13.5996 21.2959 15.1289 21.2959ZM15.4277 19.4854C14.7334 19.4854 14.3379 19.1074 14.3379 18.4395V4.85156C14.3379 4.18359 14.7334 3.80566 15.4277 3.80566H21.7295C22.4238 3.80566 22.8193 4.19238 22.8193 4.86035V18.4395C22.8193 19.1074 22.4238 19.4854 21.7295 19.4854H15.4277ZM0.389648 18.8701C0.960938 18.8701 1.37402 18.4746 1.37402 17.9033V16.5762C1.37402 13.667 3.21094 12.6211 5.56641 12.6211H6.12012L8.04492 12.542L6.34863 14.0449L5.4873 14.7832C5.25 14.9854 5.16211 15.249 5.16211 15.5303C5.16211 16.0664 5.55762 16.4619 6.10254 16.4619C6.36621 16.4619 6.60352 16.3652 6.83203 16.1455L10.5586 12.3926C10.7783 12.1816 10.9014 11.9268 10.9014 11.6455C10.9014 11.373 10.7783 11.1182 10.5586 10.8984L6.81445 7.13672C6.60352 6.93457 6.36621 6.83789 6.10254 6.83789C5.55762 6.83789 5.16211 7.2334 5.16211 7.76953C5.16211 8.05078 5.25 8.31445 5.4873 8.5166L6.34863 9.25488L8.04492 10.749L6.12012 10.6787H5.56641C2.36719 10.6787 -0.585938 12.3223 -0.585938 16.5762V17.9033C-0.585938 18.4746 -0.181641 18.8701 0.389648 18.8701Z" fill="#1C1C1E"/>
</g>
<defs>
<clipPath id="clip0_10_773">
<rect width="24" height="24" fill="white"/>
</clipPath>
</defs>
</svg>
