<svg width="24" height="24" viewBox="0 0 24 24" fill="none" xmlns="http://www.w3.org/2000/svg">
<g clip-path="url(#clip0_10_787)">
<path d="M8.96777 20.6719H15.0234C16.6055 20.6719 17.625 19.6875 17.625 18.167V5.1416C17.625 3.62109 16.6055 2.62793 15.0234 2.62793H8.96777C7.39453 2.62793 6.375 3.62109 6.375 5.1416V18.167C6.375 19.6875 7.39453 20.6719 8.96777 20.6719ZM9.21387 18.9229C8.51953 18.9229 8.12402 18.5449 8.12402 17.8857V5.42285C8.12402 4.76367 8.51953 4.38574 9.21387 4.38574H14.7861C15.4717 4.38574 15.8672 4.76367 15.8672 5.43164V17.8857C15.8672 18.5449 15.4717 18.9229 14.7861 18.9229H9.21387ZM9.67969 10.8545H14.3203C14.7686 10.8545 15.0498 10.5996 15.0498 10.1777V5.91504C15.0498 5.49316 14.7686 5.24707 14.3203 5.24707H9.67969C9.22266 5.24707 8.9502 5.49316 8.9502 5.91504V10.1865C8.9502 10.6084 9.22266 10.8545 9.67969 10.8545ZM9.54785 13.4297H10.374C10.5762 13.4297 10.7168 13.2979 10.7168 13.1045V12.252C10.7168 12.0674 10.5762 11.9355 10.374 11.9355H9.54785C9.35449 11.9355 9.22266 12.0674 9.22266 12.252V13.1045C9.22266 13.2979 9.35449 13.4297 9.54785 13.4297ZM11.5605 13.4297H12.3867C12.5889 13.4297 12.7295 13.2979 12.7295 13.1045V12.252C12.7295 12.0674 12.5889 11.9355 12.3867 11.9355H11.5605C11.376 11.9355 11.2441 12.0674 11.2441 12.252V13.1045C11.2441 13.2979 11.376 13.4297 11.5605 13.4297ZM13.5732 13.4297H14.3994C14.6016 13.4297 14.751 13.2979 14.751 13.1045V12.252C14.751 12.0674 14.6016 11.9355 14.3994 11.9355H13.5732C13.3887 11.9355 13.2568 12.0674 13.2568 12.252V13.1045C13.2568 13.2979 13.3887 13.4297 13.5732 13.4297ZM9.54785 15.583H10.374C10.5762 15.583 10.7168 15.4512 10.7168 15.2666V14.4141C10.7168 14.2295 10.5762 14.0977 10.374 14.0977H9.54785C9.35449 14.0977 9.22266 14.2295 9.22266 14.4141V15.2666C9.22266 15.4512 9.35449 15.583 9.54785 15.583ZM11.5605 15.583H12.3867C12.5889 15.583 12.7295 15.4512 12.7295 15.2666V14.4141C12.7295 14.2295 12.5889 14.0977 12.3867 14.0977H11.5605C11.376 14.0977 11.2441 14.2295 11.2441 14.4141V15.2666C11.2441 15.4512 11.376 15.583 11.5605 15.583ZM13.5732 15.583H14.3994C14.6016 15.583 14.751 15.4512 14.751 15.2666V14.4141C14.751 14.2295 14.6016 14.0977 14.3994 14.0977H13.5732C13.3887 14.0977 13.2568 14.2295 13.2568 14.4141V15.2666C13.2568 15.4512 13.3887 15.583 13.5732 15.583ZM9.54785 17.7451H10.374C10.5762 17.7451 10.7168 17.6133 10.7168 17.4287V16.5762C10.7168 16.3828 10.5762 16.251 10.374 16.251H9.54785C9.35449 16.251 9.22266 16.3828 9.22266 16.5762V17.4287C9.22266 17.6133 9.35449 17.7451 9.54785 17.7451ZM11.5605 17.7451H12.3867C12.5889 17.7451 12.7295 17.6133 12.7295 17.4287V16.5762C12.7295 16.3828 12.5889 16.251 12.3867 16.251H11.5605C11.376 16.251 11.2441 16.3828 11.2441 16.5762V17.4287C11.2441 17.6133 11.376 17.7451 11.5605 17.7451ZM13.5732 17.7451H14.3994C14.6016 17.7451 14.751 17.6133 14.751 17.4287V16.5762C14.751 16.3828 14.6016 16.251 14.3994 16.251H13.5732C13.3887 16.251 13.2568 16.3828 13.2568 16.5762V17.4287C13.2568 17.6133 13.3887 17.7451 13.5732 17.7451Z" fill="#1C1C1E"/>
</g>
<defs>
<clipPath id="clip0_10_787">
<rect width="24" height="24" fill="white"/>
</clipPath>
</defs>
</svg>
