<svg width="24" height="24" viewBox="0 0 24 24" fill="none" xmlns="http://www.w3.org/2000/svg">
<g clip-path="url(#clip0_10_807)">
<path d="M3.74707 17.5781H9.22266L8.98535 19.1689H8.05371C7.61426 19.1689 7.25391 19.5293 7.25391 19.9775C7.25391 20.4082 7.61426 20.7773 8.05371 20.7773H15.9375C16.377 20.7773 16.7373 20.4082 16.7373 19.9775C16.7373 19.5293 16.377 19.1689 15.9375 19.1689H15.0059L14.7686 17.5781H20.2441C21.8438 17.5781 22.6787 16.7695 22.6787 15.1348V5.00098C22.6787 3.36621 21.8438 2.55762 20.2441 2.55762H3.74707C2.14746 2.55762 1.3125 3.36621 1.3125 5.00098V15.1348C1.3125 16.7695 2.14746 17.5781 3.74707 17.5781ZM3.39551 13.4912C3.14062 13.4912 3.02637 13.3945 3.02637 13.1221V5.10645C3.02637 4.50879 3.28125 4.27148 3.86133 4.27148H20.1299C20.71 4.27148 20.9648 4.50879 20.9648 5.10645V13.1221C20.9648 13.3945 20.8506 13.4912 20.5957 13.4912H3.39551ZM12 16.6904C11.5254 16.6904 11.1299 16.3037 11.1299 15.8291C11.1299 15.3545 11.5254 14.959 12 14.959C12.4658 14.959 12.8613 15.3545 12.8613 15.8291C12.8613 16.3037 12.4658 16.6904 12 16.6904Z" fill="#1C1C1E"/>
</g>
<defs>
<clipPath id="clip0_10_807">
<rect width="24" height="24" fill="white"/>
</clipPath>
</defs>
</svg>
