<svg width="24" height="24" viewBox="0 0 24 24" fill="none" xmlns="http://www.w3.org/2000/svg">
<g clip-path="url(#clip0_10_828)">
<path d="M1.41797 14.9941C1.41797 16.6289 2.25293 17.4375 3.85254 17.4375H9.22266L8.98535 19.0283H8.05371C7.61426 19.0283 7.25391 19.3975 7.25391 19.8369C7.25391 20.2676 7.61426 20.6367 8.05371 20.6367H16.0078C16.4561 20.6367 16.8164 20.2676 16.8164 19.8369C16.8164 19.3975 16.4561 19.0283 16.0078 19.0283H15.0059L14.7773 17.4375H20.1387C21.7383 17.4375 22.582 16.6289 22.582 14.9941V5.10645C22.582 3.48047 21.7383 2.67188 20.1387 2.67188H3.85254C2.25293 2.67188 1.41797 3.48047 1.41797 5.10645V14.9941ZM3.13184 14.8887V5.2207C3.13184 4.61426 3.38672 4.38574 3.9668 4.38574H20.0244C20.6045 4.38574 20.8682 4.61426 20.8682 5.2207V14.8887C20.8682 15.4863 20.6045 15.7236 20.0244 15.7236H3.9668C3.38672 15.7236 3.13184 15.4863 3.13184 14.8887Z" fill="#1C1C1E"/>
</g>
<defs>
<clipPath id="clip0_10_828">
<rect width="24" height="24" fill="white"/>
</clipPath>
</defs>
</svg>
