<svg width="24" height="24" viewBox="0 0 24 24" fill="none" xmlns="http://www.w3.org/2000/svg">
<g clip-path="url(#clip0_10_825)">
<path d="M4.62598 20.7773H12.0791C12.5186 20.7773 12.8789 20.4082 12.8789 19.9775C12.8789 19.5293 12.5186 19.1689 12.0791 19.1689H11.2969L11.1562 18.1934C11.4463 18.2812 11.7891 18.334 12.1758 18.334H16.043L15.9199 19.1689H15.208C14.7598 19.1689 14.3994 19.5293 14.3994 19.9775C14.3994 20.4082 14.7598 20.7773 15.208 20.7773H20.8594C21.2988 20.7773 21.6592 20.4082 21.6592 19.9775C21.6592 19.5293 21.2988 19.1689 20.8594 19.1689H20.1475L20.0156 18.334H23.8916C25.4912 18.334 26.3262 17.5254 26.3262 15.8906V9.3252C26.3262 7.69922 25.4912 6.89062 23.8916 6.89062H19.0312V5.00098C19.0312 3.36621 18.1963 2.55762 16.5967 2.55762H0.0996094C-1.5 2.55762 -2.33496 3.36621 -2.33496 5.00098V15.1348C-2.33496 16.7695 -1.5 17.5781 0.0996094 17.5781H5.63672L5.39941 19.1689H4.62598C4.17773 19.1689 3.81738 19.5293 3.81738 19.9775C3.81738 20.4082 4.17773 20.7773 4.62598 20.7773ZM0.213867 15.8643C-0.366211 15.8643 -0.621094 15.627 -0.621094 15.0293V5.10645C-0.621094 4.50879 -0.366211 4.27148 0.213867 4.27148H16.4824C17.0625 4.27148 17.3174 4.50879 17.3174 5.10645V6.89062H12.1758C10.5762 6.89062 9.73242 7.69922 9.73242 9.3252V15.8643H0.213867ZM11.4463 15.7852V9.43945C11.4463 8.83301 11.71 8.5957 12.2812 8.5957H23.7773C24.3574 8.5957 24.6123 8.83301 24.6123 9.43945V15.7852C24.6123 16.3828 24.3574 16.6201 23.7773 16.6201H12.2812C11.71 16.6201 11.4463 16.3828 11.4463 15.7852Z" fill="#1C1C1E"/>
</g>
<defs>
<clipPath id="clip0_10_825">
<rect width="24" height="24" fill="white"/>
</clipPath>
</defs>
</svg>
