<svg width="24" height="24" viewBox="0 0 24 24" fill="none" xmlns="http://www.w3.org/2000/svg">
<g clip-path="url(#clip0_10_788)">
<path d="M12 21.1025C15.999 21.1025 18.46 18.7998 18.46 14.8271V7.40918C18.46 5.92383 17.4932 4.96582 15.9639 4.96582H7.28027V3.12891C7.28027 2.64551 6.88477 2.25 6.41016 2.25C5.92676 2.25 5.53125 2.64551 5.53125 3.12891V14.8271C5.53125 18.7998 7.99219 21.1025 12 21.1025ZM12 19.3711C9.09961 19.3711 7.28027 17.7451 7.28027 14.9238V6.71484H15.6123C16.2979 6.71484 16.7109 7.11035 16.7109 7.76953V14.9238C16.7109 17.7451 14.8916 19.3711 12 19.3711ZM8.87988 13.4824H15.1113C15.5771 13.4824 15.8672 13.2012 15.8672 12.7441V8.31445C15.8672 7.84863 15.5771 7.56738 15.1113 7.56738H8.87988C8.41406 7.56738 8.13281 7.83984 8.13281 8.31445V12.7441C8.13281 13.21 8.41406 13.4824 8.87988 13.4824ZM10.6992 17.8594H13.248C13.6084 17.8594 13.8984 17.5781 13.8984 17.2178C13.8984 16.8662 13.6084 16.5762 13.248 16.5762H10.6992C10.3477 16.5762 10.0576 16.8662 10.0576 17.2178C10.0576 17.5781 10.3477 17.8594 10.6992 17.8594Z" fill="#1C1C1E"/>
</g>
<defs>
<clipPath id="clip0_10_788">
<rect width="24" height="24" fill="white"/>
</clipPath>
</defs>
</svg>
