<svg width="24" height="24" viewBox="0 0 24 24" fill="none" xmlns="http://www.w3.org/2000/svg">
<g clip-path="url(#clip0_10_751)">
<path d="M-0.884766 16.2949C-0.884766 18.4395 0.521484 19.7842 2.55176 19.7842C3.71191 19.7842 4.75781 19.2832 5.54883 18.3779L7.11328 16.5586C7.33301 16.2949 7.56152 16.1807 7.83398 16.1807H16.1572C16.4297 16.1807 16.6582 16.2949 16.8779 16.5586L18.4424 18.3779C19.2334 19.2832 20.2793 19.7842 21.4395 19.7842C23.4697 19.7842 24.876 18.4395 24.876 16.2949C24.876 15.3721 24.6738 14.3262 24.3311 13.166C23.7861 11.3467 22.8457 8.89453 21.9492 7.00488C21.1846 5.40527 20.7715 4.62305 18.8379 4.18359C17.1416 3.79688 14.8213 3.54199 12 3.54199C9.17871 3.54199 6.84961 3.79688 5.15332 4.18359C3.22852 4.62305 2.80664 5.40527 2.04199 7.00488C1.14551 8.89453 0.205078 11.3467 -0.339844 13.166C-0.682617 14.3262 -0.884766 15.3721 -0.884766 16.2949ZM0.767578 16.2773C0.767578 15.7412 0.890625 15.0996 1.16309 14.168C1.75195 12.1377 2.77148 9.51855 3.65039 7.58496C4.07227 6.66211 4.31836 6.14355 5.35547 5.89746C6.97266 5.51953 9.23145 5.26465 12 5.26465C14.7598 5.26465 17.0273 5.51953 18.6445 5.89746C19.6816 6.14355 19.9102 6.66211 20.3408 7.58496C21.2373 9.51855 22.2217 12.1377 22.8369 14.168C23.1094 15.0996 23.2236 15.7412 23.2236 16.2773C23.2236 17.4111 22.4326 18.1055 21.3955 18.1055C20.7627 18.1055 20.1387 17.7715 19.6377 17.1914L17.8711 15.1875C17.4404 14.6865 17.0889 14.4492 16.333 14.4492H7.66699C6.90234 14.4492 6.55078 14.6865 6.12012 15.1875L4.3623 17.1914C3.86133 17.7715 3.22852 18.1055 2.60449 18.1055C1.55859 18.1055 0.767578 17.4111 0.767578 16.2773ZM4.81934 9.94922C4.81934 10.4414 5.12695 10.749 5.61914 10.749H7.0957V12.1816C7.0957 12.6738 7.39453 12.9902 7.87793 12.9902C8.35254 12.9902 8.65137 12.6738 8.65137 12.1816V10.749H10.04C10.5762 10.749 10.9014 10.4414 10.9014 9.94922C10.9014 9.47461 10.5762 9.16699 10.04 9.16699H8.65137V7.74316C8.65137 7.25098 8.35254 6.93457 7.87793 6.93457C7.39453 6.93457 7.0957 7.25098 7.0957 7.74316V9.16699H5.61914C5.12695 9.16699 4.81934 9.47461 4.81934 9.94922ZM17.4844 9.87012C18.2227 9.87012 18.7852 9.30762 18.7852 8.56934C18.7852 7.83105 18.2227 7.25977 17.4844 7.25977C16.7637 7.25977 16.1836 7.83105 16.1836 8.56934C16.1836 9.30762 16.7637 9.87012 17.4844 9.87012ZM14.874 12.5068C15.6123 12.5068 16.1748 11.9443 16.1748 11.2148C16.1748 10.4766 15.6123 9.90527 14.874 9.90527C14.1445 9.90527 13.5732 10.4766 13.5732 11.2148C13.5732 11.9443 14.1445 12.5068 14.874 12.5068Z" fill="#1C1C1E"/>
</g>
<defs>
<clipPath id="clip0_10_751">
<rect width="24" height="24" fill="white"/>
</clipPath>
</defs>
</svg>
