<svg width="24" height="24" viewBox="0 0 24 24" fill="none" xmlns="http://www.w3.org/2000/svg">
<g clip-path="url(#clip0_10_759)">
<path d="M3.24609 16.752H7.11328V14.6162C7.02539 14.625 6.94629 14.625 6.8584 14.625C5.06543 14.625 3.62402 13.1836 3.62402 11.3906C3.62402 9.58887 5.06543 8.17383 6.8584 8.15625C6.96387 8.15625 7.05176 8.16504 7.14844 8.17383C7.18359 7.68164 7.2627 7.21582 7.36816 6.78516C7.21875 6.83789 7.04297 6.86426 6.86719 6.86426C5.84766 6.86426 5.0127 6.05566 5.02148 5.02734C5.03027 4.00781 5.84766 3.19043 6.86719 3.19043C7.62305 3.19043 8.26465 3.65625 8.51074 4.30664C8.51953 4.3418 8.53711 4.38574 8.5459 4.41211C9.39844 3.46289 10.6377 2.80371 12.4658 2.44336V2.35547C12.1934 1.54688 11.5254 1.125 10.4707 1.125H3.24609C1.83105 1.125 1.08398 1.87207 1.08398 3.30469V14.5723C1.08398 16.0049 1.83105 16.752 3.24609 16.752ZM15.6475 5.83594C18.0205 5.83594 19.8486 5.34375 19.8486 4.70215C19.8486 4.03418 18.0205 3.55957 15.6475 3.55957C13.2656 3.55957 11.4375 4.03418 11.4375 4.70215C11.4375 5.34375 13.2656 5.83594 15.6475 5.83594ZM6.8584 5.87109C7.32422 5.87109 7.70215 5.49316 7.70215 5.02734C7.70215 4.56152 7.33301 4.19238 6.8584 4.19238C6.40137 4.19238 6.01465 4.56152 6.01465 5.02734C6.01465 5.49316 6.39258 5.87109 6.8584 5.87109ZM15.6475 22.0166C20.6396 22.0166 22.9072 20.2412 22.9072 16.2246V9.4043C22.9072 7.91895 22.6436 6.75879 22.0195 5.88867C21.8086 5.58105 21.4131 5.51953 21.0615 5.73926C19.9893 6.46875 17.8447 7.04004 15.6475 7.04004C13.4414 7.04004 11.2969 6.46875 10.2246 5.73926C9.87305 5.51953 9.47754 5.58105 9.2666 5.88867C8.65137 6.75879 8.37891 7.91895 8.37891 9.4043V16.2246C8.37891 20.2412 10.6465 22.0166 15.6475 22.0166ZM6.8584 12.6738C6.94629 12.6738 7.03418 12.665 7.11328 12.6475V10.125C7.03418 10.1074 6.94629 10.0986 6.8584 10.0986C6.14648 10.0986 5.56641 10.6611 5.56641 11.3906C5.56641 12.1025 6.14648 12.6738 6.8584 12.6738Z" fill="#1C1C1E"/>
</g>
<defs>
<clipPath id="clip0_10_759">
<rect width="24" height="24" fill="white"/>
</clipPath>
</defs>
</svg>
