<svg width="24" height="24" viewBox="0 0 24 24" fill="none" xmlns="http://www.w3.org/2000/svg">
<g clip-path="url(#clip0_10_756)">
<path d="M5.00391 5.05371V18.2637C5.00391 20.0215 5.91797 20.9443 7.6582 20.9443H16.3418C18.082 20.9443 18.9961 20.0215 18.9961 18.2637V5.05371C18.9961 3.28711 18.0908 2.37305 16.3418 2.37305H7.6582C5.91797 2.37305 5.00391 3.28711 5.00391 5.05371ZM12 9.28125C10.8223 9.28125 9.88184 8.34961 9.88184 7.17188C9.88184 5.98535 10.8311 5.05371 12 5.0625C13.1777 5.07129 14.1094 5.99414 14.1182 7.17188C14.1357 8.34961 13.1689 9.28125 12 9.28125ZM12 8.12988C12.5361 8.12988 12.9668 7.69922 12.9668 7.17188C12.9668 6.63574 12.5273 6.20508 12 6.20508C11.4639 6.20508 11.0332 6.60938 11.0332 7.17188C11.0332 7.69922 11.4639 8.12988 12 8.12988ZM12 18.2549C9.96094 18.2549 8.30859 16.6201 8.30859 14.5723C8.30859 12.5068 9.96094 10.8721 12 10.8809C14.0391 10.8896 15.6914 12.5068 15.6914 14.5723C15.6914 16.6201 14.0391 18.2549 12 18.2549ZM12 16.0312C12.8262 16.0312 13.459 15.3721 13.459 14.5723C13.459 13.7285 12.8262 13.0957 12 13.0957C11.1738 13.0957 10.541 13.7285 10.541 14.5723C10.541 15.3721 11.2002 16.0312 12 16.0312Z" fill="#1C1C1E"/>
</g>
<defs>
<clipPath id="clip0_10_756">
<rect width="24" height="24" fill="white"/>
</clipPath>
</defs>
</svg>
