<svg width="24" height="24" viewBox="0 0 24 24" fill="none" xmlns="http://www.w3.org/2000/svg">
<g clip-path="url(#clip0_10_760)">
<path d="M3.65039 16.7344H7.08691V15.126H3.79102C3.07031 15.126 2.69238 14.7305 2.69238 14.0449V3.82324C2.69238 3.12891 3.07031 2.7334 3.79102 2.7334H10.4004C10.6113 2.7334 10.7695 2.82129 10.8311 2.9707C10.8838 2.99707 10.8838 3.0498 10.9014 3.10254C11.4639 2.83887 12.1055 2.63672 12.8174 2.49609C12.791 2.39941 12.7646 2.30273 12.7295 2.24121C12.3604 1.52051 11.6133 1.125 10.5498 1.125H3.65039C1.97168 1.125 1.08398 2.03027 1.08398 3.70898V14.1504C1.08398 15.8379 1.97168 16.7344 3.65039 16.7344ZM15.6299 5.83594C18.0117 5.83594 19.8398 5.34375 19.8398 4.70215C19.8398 4.03418 18.0205 3.55957 15.6299 3.55957C13.2568 3.55957 11.4375 4.03418 11.4375 4.70215C11.4375 5.34375 13.2656 5.83594 15.6299 5.83594ZM5.51367 5.45801C5.51367 6.44238 6.2959 7.21582 7.32422 7.20703C7.41211 6.83789 7.51758 6.48633 7.6582 6.15234C7.53516 6.23145 7.41211 6.2666 7.2627 6.2666C6.81445 6.2666 6.44531 5.90625 6.44531 5.45801C6.44531 5.01855 6.82324 4.64062 7.2627 4.64062C7.69336 4.64062 8.03613 5.00098 8.04492 5.41406C8.22949 5.08887 8.44922 4.79883 8.69531 4.52637C8.42285 4.03418 7.88672 3.69141 7.2627 3.7002C6.28711 3.70898 5.51367 4.47363 5.51367 5.45801ZM15.6387 22.0166C20.6309 22.0166 22.9072 20.2412 22.9072 16.2246V9.4043C22.9072 7.91895 22.6348 6.75879 22.0107 5.88867C21.7998 5.58105 21.4043 5.51953 21.0527 5.73926C19.9805 6.46875 17.8623 7.04004 15.6387 7.04004C13.415 7.04004 11.2969 6.46875 10.2246 5.73926C9.87305 5.51953 9.47754 5.58105 9.2666 5.88867C8.64258 6.75879 8.37012 7.91895 8.37012 9.4043V16.2246C8.37012 20.2412 10.6465 22.0166 15.6387 22.0166ZM15.6387 20.2764C11.666 20.2764 10.1104 18.9844 10.1104 16.0928V9.47461C10.1104 8.83301 10.2158 8.23535 10.4092 7.76074C11.6133 8.46387 13.5029 8.80664 15.6387 8.80664C17.7744 8.80664 19.6641 8.46387 20.8682 7.76074C21.0615 8.23535 21.167 8.83301 21.167 9.47461V16.0928C21.167 18.9844 19.6113 20.2764 15.6387 20.2764ZM4.02832 11.1006C4.02832 12.8232 5.39941 14.1943 7.08691 14.2031V12.3311C6.46289 12.3135 5.8916 11.8213 5.8916 11.1006C5.8916 10.459 6.38379 9.90527 7.08691 9.87012C7.08691 9.02637 7.10449 8.53418 7.1748 8.01562C5.43457 7.98047 4.02832 9.37793 4.02832 11.1006Z" fill="#1C1C1E"/>
</g>
<defs>
<clipPath id="clip0_10_760">
<rect width="24" height="24" fill="white"/>
</clipPath>
</defs>
</svg>
