<svg width="24" height="24" viewBox="0 0 24 24" fill="none" xmlns="http://www.w3.org/2000/svg">
<g clip-path="url(#clip0_10_754)">
<path d="M3.37793 16.7432H7.54395V14.5635C5.56641 14.9326 3.72949 13.4297 3.72949 11.3994C3.72949 9.37793 5.59277 7.86621 7.54395 8.25293V6.84668C6.43652 7.20703 5.20605 6.3457 5.20605 5.10645C5.20605 3.54199 7.04297 2.71582 8.21191 3.70898C8.8623 2.69824 9.9873 2.13574 11.4902 2.13574H12.3779L12.3428 2.0127C12.0439 1.44141 11.4023 1.125 10.5322 1.125H3.37793C1.94531 1.125 1.17188 1.90723 1.17188 3.34863V14.5283C1.17188 15.9697 1.94531 16.7432 3.37793 16.7432ZM8.82715 6.1084V19.3184C8.82715 21.0762 9.74121 21.999 11.4902 21.999H20.165C21.9141 21.999 22.8281 21.0762 22.8281 19.3184V6.1084C22.8281 4.3418 21.9141 3.42773 20.165 3.42773H11.4902C9.74121 3.42773 8.82715 4.3418 8.82715 6.1084ZM6.19922 5.10645C6.19922 5.81836 7.06055 6.19629 7.56152 5.68652C7.58789 5.33496 7.64062 5.01855 7.76367 4.7373C7.38574 3.95508 6.19922 4.22754 6.19922 5.10645ZM15.8232 10.3359C14.6543 10.3359 13.7139 9.4043 13.7139 8.22656C13.7139 7.04004 14.6543 6.1084 15.8232 6.11719C17.001 6.12598 17.9326 7.04883 17.9414 8.22656C17.959 9.4043 17.001 10.3359 15.8232 10.3359ZM15.832 9.19336C16.3682 9.19336 16.79 8.75391 16.79 8.22656C16.79 7.69043 16.3506 7.25977 15.832 7.25977C15.2871 7.25977 14.8652 7.67285 14.8652 8.22656C14.8652 8.75391 15.2959 9.19336 15.832 9.19336ZM5.67188 11.3906C5.67188 12.375 6.73535 12.9639 7.54395 12.4805V10.3008C6.72656 9.82617 5.67188 10.415 5.67188 11.3906ZM15.832 19.3096C13.7842 19.3096 12.1406 17.6836 12.1406 15.627C12.1406 13.5703 13.7842 11.9268 15.832 11.9443C17.8711 11.9443 19.5146 13.5703 19.5146 15.627C19.5146 17.6836 17.8711 19.3096 15.832 19.3096ZM15.832 17.0859C16.6494 17.0859 17.291 16.4268 17.291 15.627C17.291 14.792 16.6494 14.1504 15.832 14.1504C15.0059 14.1504 14.3643 14.792 14.3643 15.627C14.3643 16.4268 15.0234 17.0859 15.832 17.0859Z" fill="#1C1C1E"/>
</g>
<defs>
<clipPath id="clip0_10_754">
<rect width="24" height="24" fill="white"/>
</clipPath>
</defs>
</svg>
