<svg width="24" height="24" viewBox="0 0 24 24" fill="none" xmlns="http://www.w3.org/2000/svg">
<g clip-path="url(#clip0_10_755)">
<path d="M3.75586 16.7344H7.52637V15.126H3.89648C3.17578 15.126 2.79785 14.7305 2.79785 14.0449V3.82324C2.79785 3.12891 3.17578 2.7334 3.89648 2.7334H8.99414C9.15234 2.7334 9.23145 2.82129 9.24023 2.95312C9.25781 2.97949 9.27539 3.01465 9.29297 3.02344C10.1455 2.26758 10.9717 2.10059 12.6855 2.13574C12.668 2.10059 12.6504 2.04785 12.6328 2.00391C12.2197 1.39746 11.5078 1.125 10.6553 1.125H3.75586C2.07715 1.125 1.18945 2.03027 1.18945 3.70898V14.1504C1.18945 15.8379 2.07715 16.7344 3.75586 16.7344ZM8.81836 6.1084V19.3184C8.81836 21.0762 9.73242 21.999 11.4727 21.999H20.1562C21.8965 21.999 22.8105 21.0762 22.8105 19.3184V6.1084C22.8105 4.3418 21.9053 3.42773 20.1562 3.42773H11.4727C9.72363 3.42773 8.81836 4.3418 8.81836 6.1084ZM5.41699 5.45801C5.41699 6.43359 6.20801 7.2334 7.19238 7.24219C7.30664 7.24219 7.41211 7.2334 7.52637 7.21582L7.53516 6.22266C7.42969 6.27539 7.32422 6.30176 7.20117 6.30176C6.73535 6.29297 6.36621 5.92383 6.36621 5.44922C6.36621 4.9834 6.73535 4.61426 7.20996 4.61426C7.41211 4.61426 7.58789 4.68457 7.72852 4.80762C7.79883 4.48242 7.91309 4.19238 8.0625 3.91992C7.81641 3.76172 7.52637 3.66504 7.20996 3.66504C6.22559 3.66504 5.41699 4.47363 5.41699 5.45801ZM10.5674 6.21387C10.5674 5.52832 10.9102 5.17676 11.6133 5.17676H20.0156C20.7188 5.17676 21.0615 5.52832 21.0615 6.21387V19.2041C21.0615 19.8896 20.71 20.25 20.0156 20.25H11.6133C10.9189 20.25 10.5674 19.8896 10.5674 19.2041V6.21387ZM15.8145 10.5469C16.9395 10.5469 17.8623 9.65039 17.8447 8.5166C17.8359 7.38281 16.9395 6.50391 15.8145 6.48633C14.6895 6.47754 13.7842 7.38281 13.7842 8.5166C13.7842 9.65039 14.6895 10.5469 15.8145 10.5469ZM15.8145 9.44824C15.2959 9.44824 14.8828 9.02637 14.8828 8.5166C14.8828 7.97168 15.2959 7.57617 15.8145 7.57617C16.3242 7.57617 16.7461 7.99805 16.7461 8.5166C16.7461 9.02637 16.333 9.44824 15.8145 9.44824ZM4.08105 11.0918C4.08105 12.8232 5.46973 14.2119 7.19238 14.2119C7.30664 14.2119 7.4209 14.2031 7.52637 14.1943V12.2871C7.4209 12.3135 7.30664 12.3311 7.18359 12.3311C6.50684 12.3311 5.96191 11.7861 5.96191 11.1006C5.96191 10.415 6.50684 9.87012 7.18359 9.87012C7.30664 9.87012 7.4209 9.8877 7.52637 9.92285V8.00684C7.41211 7.98926 7.30664 7.98047 7.19238 7.98047C5.46973 7.98047 4.08105 9.37793 4.08105 11.0918ZM15.8145 18.9229C17.7744 18.9229 19.3564 17.3496 19.3564 15.3809C19.3564 13.4033 17.7744 11.8389 15.8145 11.8301C13.8545 11.8213 12.2725 13.4033 12.2725 15.3809C12.2725 17.3496 13.8545 18.9229 15.8145 18.9229ZM15.8145 16.7871C15.041 16.7871 14.3994 16.1543 14.3994 15.3809C14.3994 14.5635 15.0234 13.957 15.8145 13.957C16.6055 13.957 17.2295 14.5635 17.2295 15.3809C17.2295 16.1543 16.6055 16.7871 15.8145 16.7871Z" fill="#1C1C1E"/>
</g>
<defs>
<clipPath id="clip0_10_755">
<rect width="24" height="24" fill="white"/>
</clipPath>
</defs>
</svg>
