<svg width="24" height="24" viewBox="0 0 24 24" fill="none" xmlns="http://www.w3.org/2000/svg">
<g clip-path="url(#clip0_10_742)">
<path d="M11.9912 4.72852C14.373 4.72852 16.2012 4.23633 16.2012 3.59473C16.2012 2.93555 14.373 2.45215 11.9912 2.45215C9.61816 2.45215 7.79883 2.93555 7.79883 3.59473C7.79883 4.23633 9.62695 4.72852 11.9912 4.72852ZM12 20.9092C16.9922 20.9092 19.2686 19.1338 19.2686 15.1172V8.29688C19.2686 6.82031 18.9961 5.65137 18.3721 4.78125C18.1611 4.47363 17.7656 4.41211 17.4141 4.63184C16.3418 5.36133 14.2236 5.93262 12 5.93262C9.77637 5.93262 7.6582 5.36133 6.58594 4.63184C6.23438 4.41211 5.83887 4.47363 5.62793 4.78125C5.00391 5.65137 4.73145 6.82031 4.73145 8.29688V15.1172C4.73145 19.1338 7.00781 20.9092 12 20.9092ZM12 19.1689C8.02734 19.1689 6.47168 17.877 6.47168 14.9854V8.36719C6.47168 7.72559 6.57715 7.13672 6.77051 6.65332C7.97461 7.35645 9.86426 7.69922 12 7.69922C14.1357 7.69922 16.0254 7.35645 17.2207 6.65332C17.4229 7.13672 17.5283 7.72559 17.5283 8.36719V14.9854C17.5283 17.877 15.9639 19.1689 12 19.1689Z" fill="#1C1C1E"/>
</g>
<defs>
<clipPath id="clip0_10_742">
<rect width="24" height="24" fill="white"/>
</clipPath>
</defs>
</svg>
