<svg width="24" height="24" viewBox="0 0 24 24" fill="none" xmlns="http://www.w3.org/2000/svg">
<g clip-path="url(#clip0_10_761)">
<path d="M7.76367 3.19043C9.9082 3.19043 11.5693 2.75098 11.5693 2.16211C11.5693 1.56445 9.91699 1.125 7.76367 1.125C5.59277 1.125 3.94043 1.56445 3.94043 2.16211C3.94043 2.75098 5.60156 3.19043 7.76367 3.19043ZM1.97168 3.24316C1.40039 4.02539 1.16309 5.08887 1.16309 6.4248V12.6123C1.16309 16.0752 3.01758 17.6924 7.06055 17.8506C7.03418 17.5693 7.02539 17.2793 7.02539 16.9805V8.96484C7.02539 6.89062 7.54395 5.34375 8.63379 4.25391C8.34375 4.28027 8.05371 4.28906 7.75488 4.28906C5.75977 4.28906 3.82617 3.73535 2.8418 3.10254C2.52539 2.90918 2.16504 2.9707 1.97168 3.24316ZM15.5859 5.83594C17.9502 5.83594 19.7783 5.34375 19.7783 4.70215C19.7783 4.03418 17.9502 3.55957 15.5859 3.55957C13.1953 3.55957 11.3672 4.03418 11.3672 4.70215C11.3672 5.34375 13.1953 5.83594 15.5859 5.83594ZM15.5771 22.0166C20.5693 22.0166 22.8369 20.2412 22.8369 16.2246V9.4043C22.8369 7.91895 22.5732 6.75879 21.9492 5.88867C21.7383 5.58105 21.3428 5.51953 20.9912 5.73926C19.9277 6.46875 17.7744 7.04004 15.5771 7.04004C13.3711 7.04004 11.2266 6.46875 10.1543 5.73926C9.80273 5.51953 9.40723 5.58105 9.20508 5.88867C8.58105 6.75879 8.30859 7.91895 8.30859 9.4043V16.2246C8.30859 20.2412 10.585 22.0166 15.5771 22.0166Z" fill="#1C1C1E"/>
</g>
<defs>
<clipPath id="clip0_10_761">
<rect width="24" height="24" fill="white"/>
</clipPath>
</defs>
</svg>
