<svg width="24" height="24" viewBox="0 0 24 24" fill="none" xmlns="http://www.w3.org/2000/svg">
<g clip-path="url(#clip0_10_762)">
<path d="M7.75488 3.19043C9.91699 3.19043 11.5693 2.75098 11.5693 2.16211C11.5693 1.56445 9.91699 1.125 7.75488 1.125C5.60156 1.125 3.94922 1.56445 3.94922 2.16211C3.94922 2.75098 5.60156 3.19043 7.75488 3.19043ZM1.16309 12.6123C1.16309 16.1016 3.05273 17.7188 7.15723 17.8506C7.07812 17.3848 7.03418 16.9541 7.02539 16.2598C3.97559 16.1104 2.75391 14.9238 2.75391 12.4893V6.49512C2.75391 5.91504 2.85059 5.3877 3.02637 4.94824C4.08984 5.58984 5.74219 5.87988 7.7373 5.88867C8.03613 5.18555 8.41406 4.58789 8.97656 4.20996C8.58984 4.25391 8.17676 4.28027 7.76367 4.28027C5.74219 4.28027 3.81738 3.77051 2.8418 3.10254C2.52539 2.90918 2.17383 2.96191 1.98047 3.24316C1.41797 4.03418 1.16309 5.08887 1.16309 6.4248V12.6123ZM15.5684 5.83594C17.9502 5.83594 19.7783 5.34375 19.7783 4.70215C19.7783 4.03418 17.9502 3.55957 15.5684 3.55957C13.1953 3.55957 11.3672 4.03418 11.3672 4.70215C11.3672 5.34375 13.1953 5.83594 15.5684 5.83594ZM15.5771 22.0166C20.5693 22.0166 22.8369 20.2412 22.8369 16.2246V9.4043C22.8369 7.91895 22.5732 6.75879 21.9492 5.88867C21.7383 5.58105 21.3428 5.51953 20.9912 5.73926C19.9189 6.46875 17.8008 7.04004 15.5771 7.04004C13.3447 7.04004 11.2354 6.46875 10.1543 5.73926C9.80273 5.51953 9.40723 5.58105 9.20508 5.88867C8.58105 6.75879 8.30859 7.91895 8.30859 9.4043V16.2246C8.30859 20.2412 10.585 22.0166 15.5771 22.0166ZM15.5771 20.2764C11.6045 20.2764 10.0488 18.9844 10.0488 16.0928V9.47461C10.0488 8.83301 10.1543 8.23535 10.3477 7.76074C11.543 8.46387 13.4414 8.80664 15.5771 8.80664C17.7041 8.80664 19.6025 8.46387 20.7979 7.76074C20.9912 8.23535 21.0967 8.83301 21.0967 9.47461V16.0928C21.0967 18.9844 19.541 20.2764 15.5771 20.2764Z" fill="#1C1C1E"/>
</g>
<defs>
<clipPath id="clip0_10_762">
<rect width="24" height="24" fill="white"/>
</clipPath>
</defs>
</svg>
