<svg width="24" height="24" viewBox="0 0 24 24" fill="none" xmlns="http://www.w3.org/2000/svg">
<g clip-path="url(#clip0_10_852)">
<path d="M4.42383 19.2305C4.42383 20.7686 5.46094 21.7705 7.05176 21.7705H16.9395C18.5303 21.7705 19.5674 20.7686 19.5674 19.2305V4.07812C19.5674 2.53125 18.5303 1.5293 16.9395 1.5293H7.05176C5.46094 1.5293 4.42383 2.53125 4.42383 4.07812V19.2305ZM6.17285 18.9404V4.35938C6.17285 3.67383 6.57715 3.28711 7.29785 3.28711H16.6934C17.4141 3.28711 17.8184 3.67383 17.8184 4.35938V18.9404C17.8184 19.626 17.4141 20.0215 16.6934 20.0215H7.29785C6.57715 20.0215 6.17285 19.626 6.17285 18.9404ZM9.41602 19.2832H14.584C14.8477 19.2832 15.0322 19.1074 15.0322 18.8438C15.0322 18.5713 14.8477 18.3955 14.584 18.3955H9.41602C9.16113 18.3955 8.96777 18.5713 8.96777 18.8438C8.96777 19.1074 9.16113 19.2832 9.41602 19.2832Z" fill="#1C1C1E"/>
</g>
<defs>
<clipPath id="clip0_10_852">
<rect width="24" height="24" fill="white"/>
</clipPath>
</defs>
</svg>
