<svg width="24" height="24" viewBox="0 0 24 24" fill="none" xmlns="http://www.w3.org/2000/svg">
<g clip-path="url(#clip0_10_846)">
<path d="M4.39746 19.8809H19.6025C21.5098 19.8809 22.4941 18.8965 22.4941 17.0156V6.31934C22.4941 4.43848 21.5098 3.4541 19.6025 3.4541H4.38867C2.49023 3.4541 1.49707 4.42969 1.49707 6.31934V17.0156C1.49707 18.8965 2.49023 19.8809 4.39746 19.8809ZM4.75781 18.1318V5.20312H19.2334V18.1318H4.75781ZM20.7188 12.4805C20.2705 12.4805 19.9102 12.1113 19.9102 11.6543C19.9102 11.2061 20.2793 10.8369 20.7275 10.8369C21.1846 10.8369 21.5449 11.2061 21.5449 11.6543C21.5449 12.1113 21.1846 12.4805 20.7188 12.4805ZM3.2373 12.1816C2.95605 12.1904 2.71875 11.9443 2.71875 11.6543C2.70996 11.373 2.95605 11.1357 3.22852 11.1357C3.52734 11.1357 3.75586 11.373 3.75586 11.6543C3.75586 11.9443 3.51855 12.1729 3.2373 12.1816Z" fill="#1C1C1E"/>
</g>
<defs>
<clipPath id="clip0_10_846">
<rect width="24" height="24" fill="white"/>
</clipPath>
</defs>
</svg>
