<svg width="24" height="24" viewBox="0 0 24 24" fill="none" xmlns="http://www.w3.org/2000/svg">
<g clip-path="url(#clip0_10_827)">
<path d="M4.39746 19.8809H19.6025C21.5098 19.8809 22.4941 18.8965 22.4941 17.0156V6.31934C22.4941 4.43848 21.5098 3.4541 19.6025 3.4541H4.38867C2.49023 3.4541 1.49707 4.42969 1.49707 6.31934V17.0156C1.49707 18.8965 2.49023 19.8809 4.39746 19.8809ZM4.50293 18.1318C3.69434 18.1318 3.25488 17.71 3.25488 16.8574V6.47754C3.25488 5.625 3.69434 5.20312 4.50293 5.20312H19.4883C20.2969 5.20312 20.7451 5.625 20.7451 6.47754V16.8574C20.7451 17.71 20.2969 18.1318 19.4883 18.1318H4.50293ZM8.58984 17.4287H15.4102C15.6562 17.4287 15.8408 17.2529 15.8408 16.9893C15.8408 16.7344 15.6562 16.5586 15.4102 16.5586H8.58984C8.33496 16.5586 8.15039 16.7344 8.15039 16.9893C8.15039 17.2529 8.33496 17.4287 8.58984 17.4287Z" fill="#1C1C1E"/>
</g>
<defs>
<clipPath id="clip0_10_827">
<rect width="24" height="24" fill="white"/>
</clipPath>
</defs>
</svg>
