<svg width="24" height="24" viewBox="0 0 24 24" fill="none" xmlns="http://www.w3.org/2000/svg">
<g clip-path="url(#clip0_10_845)">
<path d="M7.05176 21.7705H16.9395C18.5303 21.7705 19.5674 20.7686 19.5674 19.2305V4.07812C19.5674 2.53125 18.5303 1.5293 16.9395 1.5293H7.05176C5.46094 1.5293 4.42383 2.53125 4.42383 4.07812V19.2305C4.42383 20.7686 5.46094 21.7705 7.05176 21.7705ZM12 3.79688C11.71 3.79688 11.4814 3.55957 11.4814 3.26953C11.4814 2.99707 11.71 2.75977 12 2.75977C12.2812 2.75977 12.5186 2.99707 12.5186 3.26953C12.5186 3.55957 12.2812 3.79688 12 3.79688ZM6.17285 18.5098V4.79004H17.8184V18.5098H6.17285ZM12.0088 20.8301C11.5518 20.8301 11.1826 20.4609 11.1826 20.0039C11.1826 19.5557 11.5518 19.1865 12.0088 19.1865C12.457 19.1865 12.8262 19.5557 12.8262 20.0039C12.8262 20.4609 12.457 20.8301 12.0088 20.8301Z" fill="#1C1C1E"/>
</g>
<defs>
<clipPath id="clip0_10_845">
<rect width="24" height="24" fill="white"/>
</clipPath>
</defs>
</svg>
