<svg width="24" height="24" viewBox="0 0 24 24" fill="none" xmlns="http://www.w3.org/2000/svg">
<g clip-path="url(#clip0_10_786)">
<path d="M5.99707 18.8613C5.99707 20.3203 7.0166 21.2959 8.5459 21.2959H15.4893C16.9922 21.2959 17.9941 20.3203 17.9941 18.8613V4.43848C17.9941 2.97949 16.9922 2.00391 15.4893 2.00391H8.5459C7.0166 2.00391 5.99707 2.97949 5.99707 4.43848V18.8613ZM10.207 3.72656C10.207 3.49805 10.3652 3.34863 10.585 3.34863H13.415C13.6348 3.34863 13.793 3.49805 13.793 3.72656C13.793 3.95508 13.6348 4.10449 13.415 4.10449H10.585C10.3652 4.10449 10.207 3.95508 10.207 3.72656ZM7.75488 17.9561V5.34375H16.2363V17.9561H7.75488ZM12.0088 20.3115C11.5518 20.3115 11.1826 19.9424 11.1826 19.4854C11.1826 19.0371 11.5518 18.6768 12.0088 18.6768C12.457 18.6768 12.8174 19.0371 12.8174 19.4854C12.8174 19.9424 12.457 20.3115 12.0088 20.3115Z" fill="#1C1C1E"/>
</g>
<defs>
<clipPath id="clip0_10_786">
<rect width="24" height="24" fill="white"/>
</clipPath>
</defs>
</svg>
