<svg width="24" height="24" viewBox="0 0 24 24" fill="none" xmlns="http://www.w3.org/2000/svg">
<g clip-path="url(#clip0_10_785)">
<path d="M6.00586 18.8613C6.00586 20.3203 7.02539 21.2959 8.5459 21.2959H15.498C16.9922 21.2959 17.9941 20.3203 17.9941 18.8613V4.43848C17.9941 2.97949 16.9922 2.00391 15.498 2.00391H8.5459C7.02539 2.00391 6.00586 2.97949 6.00586 4.43848V18.8613ZM10.207 3.72656C10.207 3.49805 10.3652 3.34863 10.585 3.34863H13.4238C13.6436 3.34863 13.8018 3.49805 13.8018 3.72656C13.8018 3.95508 13.6436 4.10449 13.4238 4.10449H10.585C10.3652 4.10449 10.207 3.95508 10.207 3.72656ZM7.75488 17.9561V5.34375H16.2451V17.9561H7.75488ZM1.04883 17.6572C1.34766 17.3057 1.25098 16.8662 0.916992 16.4883C-0.225586 15.2227 -0.858398 13.5176 -0.858398 11.6543C-0.858398 9.79102 -0.225586 8.08594 0.916992 6.82031C1.25977 6.44238 1.34766 6.00293 1.04883 5.65137C0.741211 5.29102 0.196289 5.26465 -0.199219 5.69531C-1.62305 7.2334 -2.44043 9.36914 -2.44043 11.6543C-2.44043 13.9395 -1.64941 16.0576 -0.199219 17.6133C0.205078 18.0439 0.741211 18.0264 1.04883 17.6572ZM22.9424 17.6572C23.25 18.0264 23.7949 18.0439 24.1904 17.6133C25.6406 16.0576 26.4316 13.9395 26.4316 11.6543C26.4316 9.36914 25.6143 7.2334 24.1904 5.69531C23.7949 5.26465 23.2588 5.29102 22.9424 5.65137C22.6436 6.00293 22.7314 6.44238 23.0742 6.82031C24.2168 8.08594 24.8584 9.79102 24.8584 11.6543C24.8584 13.5176 24.2168 15.2227 23.0742 16.4883C22.7402 16.8662 22.6436 17.3057 22.9424 17.6572ZM3.62402 15.1348C3.91406 14.792 3.7998 14.3701 3.50977 13.9746C3.03516 13.3682 2.77148 12.5156 2.77148 11.6543C2.77148 10.793 3.03516 9.94043 3.50977 9.33398C3.7998 8.93848 3.91406 8.5166 3.62402 8.16504C3.31641 7.80469 2.73633 7.78711 2.36719 8.22656C1.61133 9.13184 1.18945 10.3535 1.18945 11.6543C1.18945 12.9551 1.61133 14.1768 2.36719 15.082C2.73633 15.5215 3.31641 15.5039 3.62402 15.1348ZM20.3672 15.1348C20.6748 15.5039 21.2637 15.5215 21.624 15.082C22.3799 14.1768 22.8018 12.9551 22.8018 11.6543C22.8018 10.3535 22.3799 9.13184 21.624 8.22656C21.2637 7.78711 20.6748 7.80469 20.3672 8.16504C20.0771 8.5166 20.1914 8.93848 20.4814 9.33398C20.9561 9.94043 21.2197 10.793 21.2197 11.6543C21.2197 12.5156 20.9561 13.3682 20.4814 13.9746C20.1914 14.3701 20.0771 14.792 20.3672 15.1348ZM12.0088 20.3115C11.5518 20.3115 11.1826 19.9424 11.1826 19.4854C11.1826 19.0371 11.5518 18.6768 12.0088 18.6768C12.457 18.6768 12.8262 19.0371 12.8262 19.4854C12.8262 19.9424 12.457 20.3115 12.0088 20.3115Z" fill="#1C1C1E"/>
</g>
<defs>
<clipPath id="clip0_10_785">
<rect width="24" height="24" fill="white"/>
</clipPath>
</defs>
</svg>
