<svg width="24" height="24" viewBox="0 0 24 24" fill="none" xmlns="http://www.w3.org/2000/svg">
<g clip-path="url(#clip0_10_784)">
<path d="M18.0205 15.1523V4.43848C18.0205 2.97949 17.0186 2.00391 15.5156 2.00391H8.56348C7.45605 2.00391 6.64746 2.51367 6.2959 3.375V3.41895L8.26465 5.40527V5.34375H16.2627V13.3945L18.0205 15.1523ZM10.3564 3.72656C10.3564 3.49805 10.5146 3.34863 10.7344 3.34863H13.5732C13.793 3.34863 13.9512 3.49805 13.9512 3.72656C13.9512 3.95508 13.793 4.10449 13.5732 4.10449H10.7344C10.5146 4.10449 10.3564 3.95508 10.3564 3.72656ZM19.0488 19.7227C19.3213 19.9951 19.7695 19.9951 20.0332 19.7227C20.3057 19.4502 20.3145 19.002 20.0332 18.7295L4.96875 3.67383C4.69629 3.40137 4.24805 3.39258 3.9668 3.67383C3.70312 3.9375 3.70312 4.39453 3.9668 4.6582L19.0488 19.7227ZM8.56348 21.2959H15.5156C16.5703 21.2959 17.3525 20.8125 17.7129 19.9863V19.9512L15.6475 17.8945V17.9561H7.76367V10.0195L6.01465 8.27051V18.8613C6.01465 20.3203 7.03418 21.2959 8.56348 21.2959ZM12.0264 20.3115C11.5605 20.3115 11.2002 19.9424 11.2002 19.4854C11.2002 19.0371 11.5605 18.6768 12.0264 18.6768C12.4746 18.6768 12.835 19.0371 12.835 19.4854C12.835 19.9424 12.4746 20.3115 12.0264 20.3115Z" fill="#1C1C1E"/>
</g>
<defs>
<clipPath id="clip0_10_784">
<rect width="24" height="24" fill="white"/>
</clipPath>
</defs>
</svg>
