<svg width="24" height="24" viewBox="0 0 24 24" fill="none" xmlns="http://www.w3.org/2000/svg">
<g clip-path="url(#clip0_10_783)">
<path d="M8.5459 21.2959H15.4893C16.9922 21.2959 17.9941 20.3115 17.9941 18.8525V4.43848C17.9941 2.97949 16.9922 2.00391 15.4893 2.00391H8.5459C7.0166 2.00391 5.99707 2.97949 5.99707 4.43848V18.8525C5.99707 20.3115 7.0166 21.2959 8.5459 21.2959ZM8.84473 19.4854C8.15039 19.4854 7.75488 19.1074 7.75488 18.4395V4.85156C7.75488 4.18359 8.15039 3.80566 8.84473 3.80566H9.20508V4.24512C9.20508 4.63184 9.45996 4.88672 9.83789 4.88672H14.1621C14.54 4.88672 14.7949 4.63184 14.7949 4.24512V3.80566H15.1465C15.8408 3.80566 16.2363 4.19238 16.2363 4.86035V18.4395C16.2363 19.1074 15.8408 19.4854 15.1465 19.4854H8.84473ZM9.65332 18.791H14.3467C14.6016 18.791 14.7949 18.6152 14.7949 18.3428C14.7949 18.0791 14.6016 17.9033 14.3467 17.9033H9.65332C9.39844 17.9033 9.20508 18.0791 9.20508 18.3428C9.20508 18.6152 9.39844 18.791 9.65332 18.791Z" fill="#1C1C1E"/>
</g>
<defs>
<clipPath id="clip0_10_783">
<rect width="24" height="24" fill="white"/>
</clipPath>
</defs>
</svg>
