<svg width="24" height="24" viewBox="0 0 24 24" fill="none" xmlns="http://www.w3.org/2000/svg">
<g clip-path="url(#clip0_10_824)">
<path d="M9.85547 4.87793H14.1709C14.5576 4.87793 14.8037 4.61426 14.8037 4.23633V3.79688H15.1553C15.8496 3.79688 16.2539 4.1748 16.2539 4.84277V13.3857L18.0029 15.1436V4.43848C18.0029 2.97949 17.001 2.00391 15.5068 2.00391H8.55469C7.5 2.00391 6.71777 2.46973 6.34863 3.27832C6.32227 3.33105 6.30469 3.375 6.28711 3.41895L7.78125 4.91309C7.78125 4.85156 7.78125 4.81641 7.79004 4.75488C7.81641 4.13965 8.20312 3.79688 8.8623 3.79688H9.22266V4.23633C9.22266 4.61426 9.46875 4.87793 9.85547 4.87793ZM19.0488 19.7227C19.3213 19.9951 19.7695 19.9951 20.0332 19.7227C20.3057 19.4502 20.3145 19.002 20.0332 18.7295L4.96875 3.67383C4.69629 3.40137 4.24805 3.39258 3.9668 3.67383C3.70312 3.9375 3.70312 4.39453 3.9668 4.6582L19.0488 19.7227ZM8.55469 21.2959H15.5068C16.5 21.2959 17.2559 20.8564 17.6162 20.1006C17.6426 20.0479 17.6689 19.9951 17.6953 19.9512L16.2275 18.4482C16.2275 18.5098 16.2275 18.5449 16.2188 18.5977C16.166 19.1777 15.7881 19.4854 15.1553 19.4854H8.8623C8.16797 19.4854 7.76367 19.1074 7.76367 18.4395V10.0195L6.01465 8.26172V18.8525C6.01465 20.3115 7.03418 21.2959 8.55469 21.2959ZM9.66211 18.791H14.3643C14.6191 18.791 14.8037 18.6152 14.8037 18.3428C14.8037 18.0791 14.6191 17.9033 14.3643 17.9033H9.66211C9.40723 17.9033 9.22266 18.0791 9.22266 18.3428C9.22266 18.6152 9.40723 18.791 9.66211 18.791Z" fill="#1C1C1E"/>
</g>
<defs>
<clipPath id="clip0_10_824">
<rect width="24" height="24" fill="white"/>
</clipPath>
</defs>
</svg>
