<svg width="24" height="24" viewBox="0 0 24 24" fill="none" xmlns="http://www.w3.org/2000/svg">
<g clip-path="url(#clip0_10_782)">
<path d="M21.6416 15.0908V8.14746C21.6416 6.64453 20.666 5.64258 19.1982 5.64258H4.79297C3.3252 5.64258 2.34082 6.64453 2.34961 8.14746V15.0908C2.34082 16.6201 3.3252 17.6396 4.79297 17.6396H19.1982C20.666 17.6396 21.6416 16.6201 21.6416 15.0908ZM5.24121 13.7988V9.47461C5.24121 9.09668 4.97754 8.8418 4.59961 8.8418H4.16016V8.49023C4.16016 7.7959 4.53809 7.40039 5.20605 7.40039H18.7852C19.4531 7.40039 19.8311 7.7959 19.8311 8.49023V14.792C19.8311 15.4863 19.4619 15.8818 18.7852 15.8818H5.20605C4.53809 15.8818 4.16016 15.4863 4.16016 14.792V14.4316H4.59961C4.97754 14.4316 5.24121 14.1768 5.24121 13.7988ZM9.22266 15.1875H14.7686C15.0322 15.1875 15.2168 15.0117 15.2168 14.748C15.2168 14.4756 15.0322 14.2998 14.7686 14.2998H9.22266C8.96777 14.2998 8.77441 14.4756 8.77441 14.748C8.77441 15.0117 8.96777 15.1875 9.22266 15.1875Z" fill="#1C1C1E"/>
</g>
<defs>
<clipPath id="clip0_10_782">
<rect width="24" height="24" fill="white"/>
</clipPath>
</defs>
</svg>
