<svg width="24" height="24" viewBox="0 0 24 24" fill="none" xmlns="http://www.w3.org/2000/svg">
<g clip-path="url(#clip0_10_776)">
<path d="M19.207 17.6572C20.6748 17.6572 21.6504 16.6377 21.6504 15.1084V8.16504C21.6504 6.66211 20.6748 5.66016 19.207 5.66016H4.79297C3.3252 5.66016 2.34961 6.66211 2.34961 8.16504V15.1084C2.34961 16.6377 3.3252 17.6572 4.79297 17.6572H19.207ZM18.3105 15.8994H5.68945V7.41797H18.3105V15.8994ZM4.07227 13.4473C3.84375 13.4473 3.70312 13.2891 3.70312 13.0693V10.2393C3.70312 10.0195 3.84375 9.86133 4.07227 9.86133C4.30957 9.86133 4.4502 10.0195 4.4502 10.2393V13.0693C4.4502 13.2891 4.30957 13.4473 4.07227 13.4473ZM20.666 11.6455C20.666 12.1025 20.2969 12.4717 19.8398 12.4717C19.3916 12.4717 19.0225 12.1025 19.0225 11.6455C19.0225 11.1973 19.3916 10.8281 19.8398 10.8281C20.2969 10.8281 20.666 11.1973 20.666 11.6455Z" fill="#1C1C1E"/>
</g>
<defs>
<clipPath id="clip0_10_776">
<rect width="24" height="24" fill="white"/>
</clipPath>
</defs>
</svg>
