<svg width="24" height="24" viewBox="0 0 24 24" fill="none" xmlns="http://www.w3.org/2000/svg">
<g clip-path="url(#clip0_10_767)">
<path d="M9.53027 21.2959H14.4961C16.0254 21.2959 17.001 20.3467 17.001 18.8613V4.43848C17.001 2.95312 16.0254 2.00391 14.4961 2.00391H9.53027C7.9834 2.00391 6.99023 2.95312 6.99023 4.43848V18.8613C6.99023 20.3467 7.9834 21.2959 9.53027 21.2959ZM9.83789 19.4941C9.15234 19.4941 8.73926 19.1074 8.73926 18.4482V4.85156C8.73926 4.19238 9.15234 3.80566 9.83789 3.80566H14.1533C14.8389 3.80566 15.2432 4.19238 15.2432 4.86035V18.4395C15.2432 19.1074 14.8389 19.4941 14.1533 19.4941H9.83789Z" fill="#1C1C1E"/>
</g>
<defs>
<clipPath id="clip0_10_767">
<rect width="24" height="24" fill="white"/>
</clipPath>
</defs>
</svg>
