<svg width="24" height="24" viewBox="0 0 24 24" fill="none" xmlns="http://www.w3.org/2000/svg">
<g clip-path="url(#clip0_10_835)">
<path d="M9.53027 21.2959H14.4961C16.0254 21.2959 17.001 20.3467 17.001 18.8613V4.43848C17.001 2.95312 16.0254 2.00391 14.4961 2.00391H9.53027C7.9834 2.00391 6.99023 2.95312 6.99023 4.43848V18.8613C6.99023 20.3467 7.9834 21.2959 9.53027 21.2959ZM9.83789 19.4941C9.15234 19.4941 8.73926 19.1074 8.73926 18.4482V4.85156C8.73926 4.19238 9.15234 3.80566 9.83789 3.80566H14.1533C14.8389 3.80566 15.2432 4.19238 15.2432 4.86035V18.4395C15.2432 19.1074 14.8389 19.4941 14.1533 19.4941H9.83789ZM11.9912 10.9775C13.4941 10.9775 14.7158 9.75586 14.7158 8.25293C14.7158 6.75 13.4941 5.52832 11.9912 5.52832C10.4883 5.52832 9.28418 6.75 9.28418 8.25293C9.28418 9.75586 10.4883 10.9775 11.9912 10.9775ZM11.9912 9.82617C11.1211 9.82617 10.4268 9.13184 10.4268 8.25293C10.4268 7.37402 11.1211 6.67969 11.9912 6.67969C12.8701 6.67969 13.5645 7.37402 13.5645 8.25293C13.5645 9.13184 12.8701 9.82617 11.9912 9.82617Z" fill="#1C1C1E"/>
</g>
<defs>
<clipPath id="clip0_10_835">
<rect width="24" height="24" fill="white"/>
</clipPath>
</defs>
</svg>
