<svg width="24" height="24" viewBox="0 0 24 24" fill="none" xmlns="http://www.w3.org/2000/svg">
<g clip-path="url(#clip0_10_768)">
<path d="M4.11621 15.5654C4.11621 16.9541 4.96875 17.8506 6.28711 17.8506H17.7041C19.0225 17.8506 19.875 16.9541 19.875 15.5654V7.75195C19.875 6.36328 19.0225 5.4668 17.7041 5.4668H6.28711C4.96875 5.4668 4.11621 6.36328 4.11621 7.75195V15.5654ZM5.92676 15.2666V8.05078C5.92676 7.53223 6.22559 7.21582 6.70898 7.21582H17.2822C17.7656 7.21582 18.0732 7.53223 18.0732 8.08594V15.2666C18.0732 15.7764 17.7656 16.0928 17.2822 16.0928H6.70898C6.22559 16.0928 5.92676 15.7764 5.92676 15.2666ZM13.5029 15.0996C15.4102 15.0996 16.9482 13.5615 16.9482 11.6543C16.9482 9.74707 15.4102 8.20898 13.5029 8.20898C11.5957 8.20898 10.0576 9.74707 10.0576 11.6543C10.0576 13.5615 11.5957 15.0996 13.5029 15.0996ZM13.5029 13.7637C12.3252 13.7637 11.3936 12.832 11.3936 11.6543C11.3936 10.4766 12.3252 9.54492 13.5029 9.54492C14.6807 9.54492 15.6123 10.4766 15.6123 11.6543C15.6123 12.832 14.6807 13.7637 13.5029 13.7637Z" fill="#1C1C1E"/>
</g>
<defs>
<clipPath id="clip0_10_768">
<rect width="24" height="24" fill="white"/>
</clipPath>
</defs>
</svg>
