<svg width="24" height="24" viewBox="0 0 24 24" fill="none" xmlns="http://www.w3.org/2000/svg">
<g clip-path="url(#clip0_10_789)">
<path d="M5.8125 18.2373C5.8125 19.6963 6.83203 20.6719 8.35254 20.6719H15.6914C17.1855 20.6719 18.1875 19.6963 18.1875 18.2373V5.07129C18.1875 3.6123 17.1855 2.62793 15.6914 2.62793H8.35254C6.83203 2.62793 5.8125 3.6123 5.8125 5.07129V18.2373ZM7.55273 9.47461V5.42285C7.55273 4.75488 7.94824 4.37695 8.64258 4.37695H15.3574C16.0518 4.37695 16.4473 4.75488 16.4473 5.42285V9.47461C16.4473 10.1426 16.0518 10.5205 15.3574 10.5205H8.64258C7.94824 10.5205 7.55273 10.1426 7.55273 9.47461ZM12.0088 18.8262C10.1016 18.8262 8.5459 17.2881 8.5459 15.3809C8.5459 13.4736 10.1016 11.9355 12.0088 11.9355C13.9072 11.9355 15.4541 13.4736 15.4541 15.3809C15.4541 17.2881 13.9072 18.8262 12.0088 18.8262ZM12.0088 17.4463C13.1426 17.4463 14.0742 16.5234 14.0742 15.3809C14.0742 14.2471 13.1426 13.3154 12.0088 13.3154C10.8574 13.3154 9.92578 14.2471 9.92578 15.3809C9.92578 16.5234 10.8574 17.4463 12.0088 17.4463Z" fill="#1C1C1E"/>
</g>
<defs>
<clipPath id="clip0_10_789">
<rect width="24" height="24" fill="white"/>
</clipPath>
</defs>
</svg>
