<svg width="24" height="24" viewBox="0 0 24 24" fill="none" xmlns="http://www.w3.org/2000/svg">
<g clip-path="url(#clip0_10_836)">
<path d="M19.207 17.6484C20.6748 17.6484 21.6504 16.6289 21.6504 15.0996V8.15625C21.6504 6.65332 20.6748 5.65137 19.207 5.65137H4.79297C3.3252 5.65137 2.34961 6.65332 2.34961 8.15625V15.0996C2.34961 16.6289 3.3252 17.6484 4.79297 17.6484H19.207ZM18.3105 15.8906H5.68945V7.40918H18.3105V15.8906ZM20.666 11.6367C20.666 12.0938 20.2969 12.4629 19.8398 12.4629C19.3916 12.4629 19.0225 12.0938 19.0225 11.6367C19.0225 11.1885 19.3916 10.8193 19.8398 10.8193C20.2969 10.8193 20.666 11.1885 20.666 11.6367ZM4.57324 11.6367C4.57324 11.9531 4.31836 12.1992 4.01074 12.1992C3.70312 12.1992 3.45703 11.9531 3.45703 11.6367C3.45703 11.3291 3.70312 11.083 4.01074 11.083C4.31836 11.083 4.57324 11.3291 4.57324 11.6367Z" fill="#1C1C1E"/>
</g>
<defs>
<clipPath id="clip0_10_836">
<rect width="24" height="24" fill="white"/>
</clipPath>
</defs>
</svg>
