<svg width="24" height="24" viewBox="0 0 24 24" fill="none" xmlns="http://www.w3.org/2000/svg">
<g clip-path="url(#clip0_10_833)">
<path d="M5.42578 15.4951C5.42578 16.8838 6.27832 17.7803 7.59668 17.7803H16.3945C17.7129 17.7803 18.5654 16.8838 18.5654 15.4951V7.82227C18.5654 6.43359 17.6865 5.53711 16.3945 5.53711H7.59668C6.27832 5.53711 5.42578 6.43359 5.42578 7.82227V15.4951ZM7.23633 15.1963V8.12109C7.23633 7.60254 7.53516 7.29492 8.01855 7.29492H15.9727C16.4561 7.29492 16.7637 7.60254 16.7637 8.16504V15.1963C16.7637 15.7061 16.4561 16.0225 15.9727 16.0225H8.01855C7.53516 16.0225 7.23633 15.7061 7.23633 15.1963ZM11.9912 15.0996C13.8984 15.0996 15.4453 13.5615 15.4453 11.6543C15.4453 9.74707 13.8984 8.20898 11.9912 8.20898C10.0928 8.20898 8.55469 9.74707 8.55469 11.6543C8.55469 13.5615 10.0928 15.0996 11.9912 15.0996ZM12 13.7637C10.8135 13.7637 9.89062 12.832 9.89062 11.6543C9.89062 10.4766 10.8135 9.54492 12 9.54492C13.1777 9.54492 14.1094 10.4766 14.1094 11.6543C14.1094 12.832 13.1777 13.7637 12 13.7637Z" fill="#1C1C1E"/>
</g>
<defs>
<clipPath id="clip0_10_833">
<rect width="24" height="24" fill="white"/>
</clipPath>
</defs>
</svg>
