<svg width="24" height="24" viewBox="0 0 24 24" fill="none" xmlns="http://www.w3.org/2000/svg">
<g clip-path="url(#clip0_10_848)">
<path d="M3.68555 18.7734H20.3057C22.2041 18.7734 23.1973 17.7891 23.1973 15.9082V7.3916C23.1973 5.51074 22.2041 4.52637 20.3057 4.52637H3.68555C1.77832 4.52637 0.793945 5.51074 0.793945 7.3916V15.9082C0.793945 17.7891 1.77832 18.7734 3.68555 18.7734ZM3.7998 17.0156C2.99121 17.0156 2.54297 16.5938 2.54297 15.75V7.5498C2.54297 6.69727 2.99121 6.27539 3.7998 6.27539H20.1914C21 6.27539 21.4482 6.69727 21.4482 7.5498V15.75C21.4482 16.5938 21 17.0156 20.1914 17.0156H3.7998ZM4.64355 9.66797H5.45215C5.70703 9.66797 5.86523 9.50977 5.86523 9.25488V8.44629C5.86523 8.19141 5.70703 8.0332 5.45215 8.0332H4.64355C4.38867 8.0332 4.23047 8.19141 4.23047 8.44629V9.25488C4.23047 9.50977 4.38867 9.66797 4.64355 9.66797ZM7.4209 9.66797H8.22949C8.48438 9.66797 8.64258 9.50977 8.64258 9.25488V8.44629C8.64258 8.19141 8.48438 8.0332 8.22949 8.0332H7.4209C7.16602 8.0332 7.00781 8.19141 7.00781 8.44629V9.25488C7.00781 9.50977 7.16602 9.66797 7.4209 9.66797ZM10.1895 9.66797H10.998C11.2529 9.66797 11.4111 9.50977 11.4111 9.25488V8.44629C11.4111 8.19141 11.2529 8.0332 10.998 8.0332H10.1895C9.93457 8.0332 9.77637 8.19141 9.77637 8.44629V9.25488C9.77637 9.50977 9.93457 9.66797 10.1895 9.66797ZM12.9668 9.66797H13.7754C14.0303 9.66797 14.1885 9.50977 14.1885 9.25488V8.44629C14.1885 8.19141 14.0303 8.0332 13.7754 8.0332H12.9668C12.7119 8.0332 12.5537 8.19141 12.5537 8.44629V9.25488C12.5537 9.50977 12.7119 9.66797 12.9668 9.66797ZM15.7617 9.66797H16.5439C16.7988 9.66797 16.957 9.50977 16.957 9.25488V8.44629C16.957 8.19141 16.7988 8.0332 16.5439 8.0332H15.7617C15.4893 8.0332 15.3311 8.19141 15.3311 8.44629V9.25488C15.3311 9.50977 15.4893 9.66797 15.7617 9.66797ZM18.5127 9.66797H19.3213C19.5762 9.66797 19.7344 9.50977 19.7344 9.25488V8.44629C19.7344 8.19141 19.5762 8.0332 19.3213 8.0332H18.5127C18.2578 8.0332 18.0996 8.19141 18.0996 8.44629V9.25488C18.0996 9.50977 18.2578 9.66797 18.5127 9.66797ZM4.64355 12.4629H5.45215C5.70703 12.4629 5.86523 12.3047 5.86523 12.0498V11.2412C5.86523 10.9863 5.70703 10.8281 5.45215 10.8281H4.64355C4.38867 10.8281 4.23047 10.9863 4.23047 11.2412V12.0498C4.23047 12.3047 4.38867 12.4629 4.64355 12.4629ZM7.4209 12.4629H8.22949C8.48438 12.4629 8.64258 12.3047 8.64258 12.0498V11.2412C8.64258 10.9863 8.48438 10.8281 8.22949 10.8281H7.4209C7.16602 10.8281 7.00781 10.9863 7.00781 11.2412V12.0498C7.00781 12.3047 7.16602 12.4629 7.4209 12.4629ZM10.1895 12.4629H10.998C11.2529 12.4629 11.4111 12.3047 11.4111 12.0498V11.2412C11.4111 10.9863 11.2529 10.8281 10.998 10.8281H10.1895C9.93457 10.8281 9.77637 10.9863 9.77637 11.2412V12.0498C9.77637 12.3047 9.93457 12.4629 10.1895 12.4629ZM12.9668 12.4629H13.7754C14.0303 12.4629 14.1885 12.3047 14.1885 12.0498V11.2412C14.1885 10.9863 14.0303 10.8281 13.7754 10.8281H12.9668C12.7119 10.8281 12.5537 10.9863 12.5537 11.2412V12.0498C12.5537 12.3047 12.7119 12.4629 12.9668 12.4629ZM15.7617 12.4629H16.5439C16.7988 12.4629 16.957 12.3047 16.957 12.0498V11.2412C16.957 10.9863 16.7988 10.8281 16.5439 10.8281H15.7617C15.4893 10.8281 15.3311 10.9863 15.3311 11.2412V12.0498C15.3311 12.3047 15.4893 12.4629 15.7617 12.4629ZM18.5127 12.4629H19.3213C19.5762 12.4629 19.7344 12.3047 19.7344 12.0498V11.2412C19.7344 10.9863 19.5762 10.8281 19.3213 10.8281H18.5127C18.2578 10.8281 18.0996 10.9863 18.0996 11.2412V12.0498C18.0996 12.3047 18.2578 12.4629 18.5127 12.4629ZM4.64355 15.2578H5.45215C5.70703 15.2578 5.86523 15.0996 5.86523 14.8447V14.0361C5.86523 13.7812 5.70703 13.623 5.45215 13.623H4.64355C4.38867 13.623 4.23047 13.7812 4.23047 14.0361V14.8447C4.23047 15.0996 4.38867 15.2578 4.64355 15.2578ZM7.49121 15.2578H16.4736C16.7812 15.2578 16.957 15.082 16.957 14.7744V14.1064C16.957 13.7988 16.7812 13.623 16.4736 13.623H7.49121C7.18359 13.623 7.00781 13.7988 7.00781 14.1064V14.7744C7.00781 15.082 7.18359 15.2578 7.49121 15.2578ZM18.5127 15.2578H19.3213C19.5762 15.2578 19.7344 15.0996 19.7344 14.8447V14.0361C19.7344 13.7812 19.5762 13.623 19.3213 13.623H18.5127C18.2578 13.623 18.0996 13.7812 18.0996 14.0361V14.8447C18.0996 15.0996 18.2578 15.2578 18.5127 15.2578ZM12 23.6338C12.3516 23.6338 12.7822 23.4492 13.1602 23.3174L17.5723 21.7266C17.9766 21.5859 18.1611 21.2256 18.1611 20.9619C18.1611 20.4609 17.8096 20.0654 17.2822 20.0654C17.0098 20.0654 16.7109 20.1885 16.4736 20.2764L12 21.9375L7.53516 20.2764C7.28906 20.1885 6.99902 20.0654 6.71777 20.0654C6.2168 20.0654 5.84766 20.4434 5.84766 20.9619C5.84766 21.2256 6.01465 21.5859 6.42773 21.7266L10.8486 23.3174C11.2266 23.458 11.6484 23.6338 12 23.6338Z" fill="#1C1C1E"/>
</g>
<defs>
<clipPath id="clip0_10_848">
<rect width="24" height="24" fill="white"/>
</clipPath>
</defs>
</svg>
