<svg width="24" height="24" viewBox="0 0 24 24" fill="none" xmlns="http://www.w3.org/2000/svg">
<g clip-path="url(#clip0_10_792)">
<path d="M3.68555 18.7734H20.3057C22.2041 18.7734 23.1973 17.7891 23.1973 15.9082V7.3916C23.1973 5.51074 22.2041 4.52637 20.3057 4.52637H3.68555C1.77832 4.52637 0.793945 5.51074 0.793945 7.3916V15.9082C0.793945 17.7891 1.77832 18.7734 3.68555 18.7734ZM3.7998 17.0156C2.99121 17.0156 2.54297 16.5938 2.54297 15.75V7.5498C2.54297 6.69727 2.99121 6.27539 3.7998 6.27539H20.1914C21 6.27539 21.4482 6.69727 21.4482 7.5498V15.75C21.4482 16.5938 21 17.0156 20.1914 17.0156H3.7998ZM4.5293 9.65039H5.16211C5.32031 9.65039 5.42578 9.53613 5.42578 9.36035V8.34082C5.42578 8.16504 5.32031 8.05078 5.16211 8.05078H4.5293C4.3623 8.05078 4.25684 8.16504 4.25684 8.34082V9.36035C4.25684 9.53613 4.3623 9.65039 4.5293 9.65039ZM6.41895 9.65039H7.05176C7.21875 9.65039 7.32422 9.53613 7.32422 9.36035V8.34082C7.32422 8.16504 7.21875 8.05078 7.05176 8.05078H6.41895C6.25195 8.05078 6.14648 8.16504 6.14648 8.34082V9.36035C6.14648 9.53613 6.25195 9.65039 6.41895 9.65039ZM8.31738 9.65039H8.9502C9.1084 9.65039 9.21387 9.53613 9.21387 9.36035V8.34082C9.21387 8.16504 9.1084 8.05078 8.9502 8.05078H8.31738C8.15039 8.05078 8.04492 8.16504 8.04492 8.34082V9.36035C8.04492 9.53613 8.15039 9.65039 8.31738 9.65039ZM10.207 9.65039H10.8311C10.998 9.65039 11.1123 9.53613 11.1123 9.36035V8.34082C11.1123 8.16504 10.998 8.05078 10.8311 8.05078H10.207C10.04 8.05078 9.93457 8.16504 9.93457 8.34082V9.36035C9.93457 9.53613 10.04 9.65039 10.207 9.65039ZM12.1055 9.65039H12.7383C12.8965 9.65039 13.002 9.53613 13.002 9.36035V8.34082C13.002 8.16504 12.8965 8.05078 12.7383 8.05078H12.1055C11.9385 8.05078 11.833 8.16504 11.833 8.34082V9.36035C11.833 9.53613 11.9385 9.65039 12.1055 9.65039ZM13.9951 9.65039H14.6191C14.7949 9.65039 14.9004 9.53613 14.9004 9.36035V8.34082C14.9004 8.16504 14.7949 8.05078 14.6191 8.05078H13.9951C13.8281 8.05078 13.7227 8.16504 13.7227 8.34082V9.36035C13.7227 9.53613 13.8281 9.65039 13.9951 9.65039ZM16.4121 11.1357C16.0693 11.4521 16.0693 11.8477 16.4121 12.1641L18.8906 14.4756C19.2246 14.7832 19.7432 14.6514 19.7432 14.1592V9.13184C19.7432 8.64844 19.2246 8.5166 18.8906 8.82422L16.4121 11.1357ZM4.5293 12.4453H5.16211C5.32031 12.4453 5.42578 12.3311 5.42578 12.1553V11.1357C5.42578 10.96 5.32031 10.8457 5.16211 10.8457H4.5293C4.3623 10.8457 4.25684 10.96 4.25684 11.1357V12.1553C4.25684 12.3311 4.3623 12.4453 4.5293 12.4453ZM6.41895 12.4453H7.05176C7.21875 12.4453 7.32422 12.3311 7.32422 12.1553V11.1357C7.32422 10.96 7.21875 10.8457 7.05176 10.8457H6.41895C6.25195 10.8457 6.14648 10.96 6.14648 11.1357V12.1553C6.14648 12.3311 6.25195 12.4453 6.41895 12.4453ZM8.31738 12.4453H8.9502C9.1084 12.4453 9.21387 12.3311 9.21387 12.1553V11.1357C9.21387 10.96 9.1084 10.8457 8.9502 10.8457H8.31738C8.15039 10.8457 8.04492 10.96 8.04492 11.1357V12.1553C8.04492 12.3311 8.15039 12.4453 8.31738 12.4453ZM10.207 12.4453H10.8311C10.998 12.4453 11.1123 12.3311 11.1123 12.1553V11.1357C11.1123 10.96 10.998 10.8457 10.8311 10.8457H10.207C10.04 10.8457 9.93457 10.96 9.93457 11.1357V12.1553C9.93457 12.3311 10.04 12.4453 10.207 12.4453ZM12.1055 12.4453H12.7383C12.8965 12.4453 13.002 12.3311 13.002 12.1553V11.1357C13.002 10.96 12.8965 10.8457 12.7383 10.8457H12.1055C11.9385 10.8457 11.833 10.96 11.833 11.1357V12.1553C11.833 12.3311 11.9385 12.4453 12.1055 12.4453ZM13.9951 12.4453H14.6191C14.7949 12.4453 14.9004 12.3311 14.9004 12.1553V11.1357C14.9004 10.96 14.7949 10.8457 14.6191 10.8457H13.9951C13.8281 10.8457 13.7227 10.96 13.7227 11.1357V12.1553C13.7227 12.3311 13.8281 12.4453 13.9951 12.4453ZM4.5293 15.2314H5.16211C5.32031 15.2314 5.42578 15.126 5.42578 14.9502V13.9307C5.42578 13.7549 5.32031 13.6406 5.16211 13.6406H4.5293C4.3623 13.6406 4.25684 13.7549 4.25684 13.9307V14.9502C4.25684 15.126 4.3623 15.2314 4.5293 15.2314ZM6.41895 15.2314H12.7383C12.8965 15.2314 13.002 15.126 13.002 14.9502V13.9307C13.002 13.7549 12.8965 13.6406 12.7383 13.6406H6.41895C6.25195 13.6406 6.14648 13.7549 6.14648 13.9307V14.9502C6.14648 15.126 6.25195 15.2314 6.41895 15.2314ZM13.9951 15.2314H14.6191C14.7949 15.2314 14.9004 15.126 14.9004 14.9502V13.9307C14.9004 13.7549 14.7949 13.6406 14.6191 13.6406H13.9951C13.8281 13.6406 13.7227 13.7549 13.7227 13.9307V14.9502C13.7227 15.126 13.8281 15.2314 13.9951 15.2314Z" fill="#1C1C1E"/>
</g>
<defs>
<clipPath id="clip0_10_792">
<rect width="24" height="24" fill="white"/>
</clipPath>
</defs>
</svg>
