<svg width="24" height="24" viewBox="0 0 24 24" fill="none" xmlns="http://www.w3.org/2000/svg">
<g clip-path="url(#clip0_10_797)">
<path d="M0.477539 19.0283H22.6084C23.8301 19.0283 24.6387 18.2461 24.6387 17.042V8.48145C24.6387 7.27734 23.8301 6.49512 22.6084 6.49512H22.3008V6.40723C22.3008 5.02734 21.5449 4.29785 20.1738 4.29785H4.45898C3.14062 4.29785 2.33203 5.02734 2.33203 6.40723V16.7695H0.477539C-0.137695 16.7695 -0.647461 17.2793 -0.647461 17.9033C-0.647461 18.5186 -0.137695 19.0283 0.477539 19.0283ZM16.5352 8.48145V16.7695H4.08105V6.87305C4.08105 6.31055 4.35352 6.04688 4.90723 6.04688H19.7256C20.1299 6.04688 20.3848 6.19629 20.4902 6.49512H18.6006C17.3613 6.49512 16.5352 7.27734 16.5352 8.48145ZM17.9326 8.69238C17.9326 8.19141 18.249 7.89258 18.7764 7.89258H18.8994V8.24414C18.8994 8.55176 19.1016 8.75391 19.4004 8.75391H21.7822C22.0898 8.75391 22.2832 8.55176 22.2832 8.24414V7.89258H22.3975C22.9248 7.89258 23.2412 8.2002 23.2412 8.70117V16.8311C23.2412 17.332 22.9248 17.6309 22.3975 17.6309H18.7764C18.249 17.6309 17.9326 17.332 17.9326 16.8311V8.69238ZM19.251 17.0508H21.9316C22.1338 17.0508 22.2832 16.9102 22.2832 16.708C22.2832 16.4971 22.1338 16.3564 21.9316 16.3564H19.251C19.0488 16.3564 18.8994 16.4971 18.8994 16.708C18.8994 16.9102 19.0488 17.0508 19.251 17.0508Z" fill="#1C1C1E"/>
</g>
<defs>
<clipPath id="clip0_10_797">
<rect width="24" height="24" fill="white"/>
</clipPath>
</defs>
</svg>
