<svg width="24" height="24" viewBox="0 0 24 24" fill="none" xmlns="http://www.w3.org/2000/svg">
<g clip-path="url(#clip0_10_800)">
<path d="M0.161133 19.0283H23.8389C24.4541 19.0283 24.9639 18.5186 24.9639 17.9033C24.9639 17.2793 24.4541 16.7695 23.8389 16.7695H21.9844V6.40723C21.9844 5.02734 21.2285 4.29785 19.8574 4.29785H4.14258C2.82422 4.29785 2.01562 5.02734 2.01562 6.40723V16.7695H0.161133C-0.454102 16.7695 -0.963867 17.2793 -0.963867 17.9033C-0.963867 18.5186 -0.454102 19.0283 0.161133 19.0283ZM3.76465 6.87305C3.76465 6.31055 4.03711 6.04688 4.59082 6.04688H19.4092C19.9541 6.04688 20.2354 6.31055 20.2354 6.87305V16.7695H3.76465V6.87305Z" fill="#1C1C1E"/>
</g>
<defs>
<clipPath id="clip0_10_800">
<rect width="24" height="24" fill="white"/>
</clipPath>
</defs>
</svg>
