<svg width="24" height="24" viewBox="0 0 24 24" fill="none" xmlns="http://www.w3.org/2000/svg">
<g clip-path="url(#clip0_10_794)">
<path d="M3.94043 17.1123H20.0508C21.9492 17.1123 22.9424 16.1279 22.9424 14.2471V8.97363C22.9424 7.09277 21.9492 6.1084 20.0508 6.1084H3.94043C2.0332 6.1084 1.04883 7.08398 1.04883 8.97363V14.2471C1.04883 16.1367 2.0332 17.1123 3.94043 17.1123ZM18.3457 13.957C17.6777 13.9658 17.1064 13.3857 17.1064 12.7178C17.1064 12.0322 17.6777 11.4609 18.3457 11.4609C19.0137 11.4609 19.585 12.0322 19.585 12.7178C19.585 13.3857 19.0137 13.9482 18.3457 13.957Z" fill="#1C1C1E"/>
</g>
<defs>
<clipPath id="clip0_10_794">
<rect width="24" height="24" fill="white"/>
</clipPath>
</defs>
</svg>
