<svg width="24" height="24" viewBox="0 0 24 24" fill="none" xmlns="http://www.w3.org/2000/svg">
<g clip-path="url(#clip0_10_806)">
<path d="M12 3.33105C14.0479 3.33105 15.709 2.8125 15.709 2.17969C15.709 1.54688 14.0479 1.02832 12 1.02832C9.96094 1.02832 8.29102 1.54688 8.29102 2.17969C8.29102 2.8125 9.96094 3.33105 12 3.33105ZM12 22.2979C16.1045 22.2979 18.5303 20.7422 18.5303 18.0967V5.61621C18.5303 4.59668 18.2051 3.72656 17.6426 3.12012C17.3086 2.66309 16.8428 2.5752 16.4561 2.93555C15.9111 3.84082 14.0742 4.39453 12 4.39453C9.93457 4.39453 8.08887 3.84082 7.54395 2.93555C7.16602 2.5752 6.69141 2.66309 6.35742 3.12012C5.79492 3.72656 5.46973 4.59668 5.46973 5.61621V18.0967C5.46973 20.7422 7.89551 22.2979 12 22.2979ZM12 20.5576C8.83594 20.5576 7.20117 19.5908 7.20117 17.9385V5.7041C7.20117 5.42285 7.28027 5.18555 7.4209 4.99219C8.45801 5.73926 10.1279 6.14355 12 6.14355C13.8721 6.14355 15.5508 5.73926 16.5879 4.99219C16.7285 5.18555 16.7988 5.42285 16.7988 5.7041V17.9385C16.7988 19.5908 15.1641 20.5576 12 20.5576Z" fill="#1C1C1E"/>
</g>
<defs>
<clipPath id="clip0_10_806">
<rect width="24" height="24" fill="white"/>
</clipPath>
</defs>
</svg>
