<svg width="24" height="24" viewBox="0 0 24 24" fill="none" xmlns="http://www.w3.org/2000/svg">
<g clip-path="url(#clip0_10_822)">
<path d="M4.66113 22.2275H5.97949C6.77051 22.2275 7.31543 21.8408 7.51758 21.1025L7.85156 19.9688H16.1396L16.4736 21.1025C16.6758 21.8408 17.2207 22.2275 18.0117 22.2275H19.3301C20.5693 22.2275 21.2637 21.498 21.2637 20.1973V3.12891C21.2637 1.82812 20.5693 1.09863 19.3301 1.09863H18.0117C17.2207 1.09863 16.6758 1.47656 16.4736 2.21484L16.1396 3.34863H7.85156L7.51758 2.21484C7.31543 1.47656 6.77051 1.09863 5.97949 1.09863H4.66113C3.42188 1.09863 2.72754 1.82812 2.72754 3.12891V20.1973C2.72754 21.498 3.42188 22.2275 4.66113 22.2275ZM4.87207 20.4697C4.62598 20.4697 4.47656 20.3203 4.47656 20.0742V3.24316C4.47656 2.99707 4.62598 2.84766 4.87207 2.84766H5.69824C5.85645 2.84766 5.97949 2.93555 6.02344 3.09375L6.41016 4.42969C6.5332 4.87793 6.83203 5.10645 7.35938 5.10645H16.6318C17.1592 5.10645 17.458 4.87793 17.5811 4.42969L17.9678 3.09375C18.0117 2.93555 18.1348 2.84766 18.293 2.84766H19.1191C19.3652 2.84766 19.5146 2.99707 19.5146 3.24316V20.0742C19.5146 20.3203 19.3652 20.4697 19.1191 20.4697H18.293C18.1348 20.4697 18.0117 20.3818 17.9678 20.2324L17.5811 18.8965C17.458 18.4395 17.1592 18.2197 16.6318 18.2197H7.35938C6.83203 18.2197 6.5332 18.4395 6.41016 18.8965L6.02344 20.2324C5.97949 20.3818 5.85645 20.4697 5.69824 20.4697H4.87207ZM12.0967 9.5625C12.3867 9.5625 12.7734 9.35156 12.9932 9.0791C13.1953 8.82422 13.3359 8.49023 13.3359 8.14746C13.3359 8.09473 13.3359 8.05078 13.3271 8.01562C12.9932 8.0332 12.5977 8.23535 12.3428 8.5166C12.1494 8.72754 11.9912 9.0791 11.9912 9.42188C11.9912 9.47461 11.9912 9.52734 12.0088 9.53613C12.0176 9.55371 12.0527 9.5625 12.0967 9.5625ZM11.0332 14.6514C11.4375 14.6514 11.6309 14.3877 12.1318 14.3877C12.6504 14.3877 12.7734 14.6514 13.2217 14.6514C13.6787 14.6514 13.9775 14.2295 14.2588 13.834C14.584 13.377 14.6982 12.9199 14.707 12.8848C14.6807 12.876 13.8193 12.5332 13.8193 11.5488C13.8193 10.6963 14.4961 10.3008 14.54 10.2832C14.083 9.6416 13.415 9.61523 13.2217 9.61523C12.7207 9.61523 12.3164 9.92285 12.0527 9.92285C11.7803 9.92285 11.4199 9.6416 10.9805 9.6416C10.1455 9.6416 9.31934 10.3184 9.31934 11.6191C9.31934 12.4189 9.62695 13.2627 10.0049 13.8076C10.3389 14.2734 10.6201 14.6514 11.0332 14.6514Z" fill="#1C1C1E"/>
</g>
<defs>
<clipPath id="clip0_10_822">
<rect width="24" height="24" fill="white"/>
</clipPath>
</defs>
</svg>
