<svg width="24" height="24" viewBox="0 0 24 24" fill="none" xmlns="http://www.w3.org/2000/svg">
<g clip-path="url(#clip0_10_798)">
<path d="M3.58887 18.668H20.4111C22.3096 18.668 23.3027 17.6836 23.3027 15.8027V7.48828C23.3027 5.60742 22.3096 4.62305 20.4111 4.62305H3.58887C1.68164 4.62305 0.697266 5.60742 0.697266 7.48828V15.8027C0.697266 17.6924 1.68164 18.668 3.58887 18.668ZM3.70312 16.9189C2.89453 16.9189 2.44629 16.4971 2.44629 15.6533V7.64648C2.44629 6.80273 2.89453 6.38086 3.70312 6.38086H20.2969C21.1055 6.38086 21.5537 6.80273 21.5537 7.64648V15.6533C21.5537 16.4971 21.0967 16.9189 20.2969 16.9189H3.70312ZM4.74902 15.46C5.13574 15.46 5.44336 15.1436 5.44336 14.7568V8.5166C5.44336 8.12988 5.13574 7.83105 4.74902 7.83105C4.3623 7.83105 4.05469 8.13867 4.05469 8.5166V14.7568C4.05469 15.1436 4.3623 15.46 4.74902 15.46ZM19.2246 15.46C19.6025 15.46 19.9102 15.1436 19.9102 14.7568V8.5166C19.9102 8.13867 19.6025 7.83105 19.2246 7.83105C18.8291 7.83105 18.5215 8.12988 18.5215 8.5166V14.7568C18.5215 15.1436 18.8291 15.46 19.2246 15.46ZM7.40332 9.74707C7.80762 9.74707 8.12402 9.42188 8.12402 9.01758C8.12402 8.62207 7.79883 8.28809 7.40332 8.28809C7.00781 8.28809 6.67383 8.62207 6.67383 9.01758C6.67383 9.42188 6.99902 9.74707 7.40332 9.74707ZM9.69727 9.74707C10.0928 9.74707 10.418 9.41309 10.418 9.01758C10.418 8.62207 10.0928 8.28809 9.69727 8.28809C9.30176 8.28809 8.96777 8.62207 8.96777 9.01758C8.96777 9.41309 9.30176 9.74707 9.69727 9.74707ZM12 9.74707C12.3867 9.74707 12.7207 9.41309 12.7207 9.01758C12.7207 8.62207 12.3867 8.28809 12 8.28809C11.6045 8.28809 11.2705 8.62207 11.2705 9.01758C11.2705 9.41309 11.6045 9.74707 12 9.74707ZM14.2852 9.74707C14.6807 9.74707 15.0059 9.41309 15.0059 9.01758C15.0059 8.62207 14.6807 8.28809 14.2852 8.28809C13.8896 8.28809 13.5645 8.62207 13.5645 9.01758C13.5645 9.41309 13.8896 9.74707 14.2852 9.74707ZM16.5703 9.74707C16.957 9.74707 17.291 9.41309 17.291 9.01758C17.291 8.62207 16.957 8.28809 16.5703 8.28809C16.1748 8.28809 15.8496 8.62207 15.8496 9.01758C15.8496 9.42188 16.1748 9.74707 16.5703 9.74707ZM8.5459 12.3662C8.9502 12.3662 9.2666 12.041 9.2666 11.6367C9.2666 11.2324 8.94141 10.9072 8.5459 10.9072C8.15039 10.9072 7.81641 11.2324 7.81641 11.6367C7.81641 12.041 8.15039 12.3662 8.5459 12.3662ZM10.8398 12.3662C11.2354 12.3662 11.5605 12.0322 11.5605 11.6367C11.5605 11.2324 11.2354 10.9072 10.8398 10.9072C10.4443 10.9072 10.1104 11.2324 10.1104 11.6367C10.1104 12.0322 10.4443 12.3662 10.8398 12.3662ZM13.1426 12.3662C13.5293 12.3662 13.8633 12.0322 13.8633 11.6367C13.8633 11.2412 13.5293 10.9072 13.1426 10.9072C12.7383 10.9072 12.4043 11.2412 12.4043 11.6367C12.4043 12.0322 12.7383 12.3662 13.1426 12.3662ZM15.4189 12.3662C15.8145 12.3662 16.1396 12.0322 16.1396 11.6367C16.1396 11.2324 15.8145 10.9072 15.4189 10.9072C15.0234 10.9072 14.707 11.2324 14.707 11.6367C14.707 12.0322 15.0234 12.3662 15.4189 12.3662ZM7.40332 14.9941C7.80762 14.9941 8.12402 14.6602 8.12402 14.2559C8.12402 13.8604 7.79883 13.5352 7.40332 13.5352C7.00781 13.5352 6.67383 13.8604 6.67383 14.2559C6.67383 14.6602 6.99902 14.9941 7.40332 14.9941ZM9.69727 14.9941C10.0928 14.9941 10.418 14.6602 10.418 14.2559C10.418 13.8604 10.0928 13.5352 9.69727 13.5352C9.30176 13.5352 8.96777 13.8604 8.96777 14.2559C8.96777 14.6602 9.30176 14.9941 9.69727 14.9941ZM12 14.9941C12.3867 14.9941 12.7207 14.6602 12.7207 14.2559C12.7207 13.8691 12.3867 13.5352 12 13.5352C11.6045 13.5352 11.2705 13.8604 11.2705 14.2559C11.2705 14.6602 11.6045 14.9941 12 14.9941ZM14.2852 14.9941C14.6807 14.9941 15.0059 14.6602 15.0059 14.2559C15.0059 13.8604 14.6807 13.5352 14.2852 13.5352C13.8896 13.5352 13.5645 13.8604 13.5645 14.2559C13.5645 14.6602 13.8896 14.9941 14.2852 14.9941ZM16.5703 14.9941C16.957 14.9941 17.291 14.6602 17.291 14.2559C17.291 13.8604 16.957 13.5352 16.5703 13.5352C16.1748 13.5352 15.8496 13.8604 15.8496 14.2559C15.8496 14.6602 16.1748 14.9941 16.5703 14.9941Z" fill="#1C1C1E"/>
</g>
<defs>
<clipPath id="clip0_10_798">
<rect width="24" height="24" fill="white"/>
</clipPath>
</defs>
</svg>
