<svg width="24" height="24" viewBox="0 0 24 24" fill="none" xmlns="http://www.w3.org/2000/svg">
<g clip-path="url(#clip0_10_804)">
<path d="M5.66309 19.7314H6.05859V20.9443H5.13574C4.71387 20.9443 4.37109 21.2871 4.37109 21.709C4.37109 22.1309 4.71387 22.4736 5.13574 22.4736H8.51953C8.94141 22.4736 9.28418 22.1309 9.28418 21.709C9.28418 21.2871 8.94141 20.9443 8.51953 20.9443H7.58789V19.7314H16.3857V20.9443H15.4541C15.0322 20.9443 14.6982 21.2871 14.6982 21.709C14.6982 22.1309 15.0322 22.4736 15.4541 22.4736H18.8467C19.2686 22.4736 19.6025 22.1309 19.6025 21.709C19.6025 21.2871 19.2686 20.9443 18.8467 20.9443H17.915V19.7314H18.3281C20.2354 19.7314 21.2285 18.7471 21.2285 16.8662V5.35254C21.2285 3.46289 20.2354 2.4873 18.3281 2.4873H17.915V0.738281C17.915 0.316406 17.5723 -0.0263672 17.1504 -0.0263672C16.7285 -0.0263672 16.3857 0.316406 16.3857 0.738281V2.4873H7.58789V0.738281C7.58789 0.316406 7.25391 -0.0263672 6.83203 -0.0263672C6.40137 -0.0263672 6.05859 0.316406 6.05859 0.738281V2.4873H5.66309C3.75586 2.4873 2.77148 3.46289 2.77148 5.35254V16.8662C2.77148 18.7471 3.75586 19.7314 5.66309 19.7314ZM5.77734 17.9824C4.96875 17.9824 4.52051 17.5605 4.52051 16.708V5.51074C4.52051 4.6582 4.96875 4.23633 5.77734 4.23633H18.2227C19.0312 4.23633 19.4707 4.6582 19.4707 5.51074V16.708C19.4707 17.5605 19.0225 17.9824 18.2227 17.9824H5.77734ZM12.0791 8.98242C12.3779 8.98242 12.7559 8.77148 12.9756 8.49902C13.1865 8.24414 13.3271 7.91016 13.3271 7.56738C13.3271 7.51465 13.3271 7.4707 13.3184 7.43555C12.9756 7.45312 12.5801 7.65527 12.334 7.92773C12.1406 8.14746 11.9824 8.49902 11.9824 8.8418C11.9824 8.89453 11.9824 8.94727 11.9912 8.95605C12.0088 8.96484 12.0352 8.98242 12.0791 8.98242ZM11.0244 14.0713C11.4287 14.0713 11.6221 13.8076 12.1143 13.8076C12.6416 13.8076 12.7559 14.0713 13.2041 14.0713C13.6699 14.0713 13.96 13.6494 14.25 13.2539C14.5752 12.7969 14.6807 12.3311 14.6982 12.3047C14.6719 12.2871 13.8105 11.9531 13.8105 10.9688C13.8105 10.1162 14.4873 9.7207 14.5312 9.70312C14.0742 9.05273 13.4062 9.03516 13.2041 9.03516C12.7031 9.03516 12.2988 9.34277 12.0352 9.34277C11.7627 9.34277 11.4023 9.05273 10.9717 9.05273C10.1367 9.05273 9.30176 9.73828 9.30176 11.0303C9.30176 11.8389 9.60938 12.6826 9.99609 13.2275C10.3213 13.6934 10.6113 14.0713 11.0244 14.0713Z" fill="#1C1C1E"/>
</g>
<defs>
<clipPath id="clip0_10_804">
<rect width="24" height="24" fill="white"/>
</clipPath>
</defs>
</svg>
