<svg width="24" height="24" viewBox="0 0 24 24" fill="none" xmlns="http://www.w3.org/2000/svg">
<g clip-path="url(#clip0_10_808)">
<path d="M3.29004 15.416C3.29004 17.0332 4.11621 17.8506 5.71582 17.8506H7.15723C7.44727 18.1143 7.87793 18.3428 8.40527 18.5273L7.21875 19.0723C6.56836 19.3447 6.65625 20.3643 7.53516 20.3643H16.4473C17.335 20.3643 17.4229 19.3359 16.7725 19.0723L15.5596 18.5186C16.0869 18.3428 16.5264 18.1143 16.8252 17.8506H18.2754C19.8662 17.8506 20.7012 17.0332 20.7012 15.416V5.00098C20.7012 3.36621 19.8574 2.55762 18.2578 2.55762H5.72461C4.125 2.55762 3.29004 3.36621 3.29004 5.00098V15.416ZM5.00391 14.1416V5.10645C5.00391 4.50879 5.25879 4.27148 5.83887 4.27148H18.1436C18.7236 4.27148 18.9873 4.50879 18.9873 5.10645V14.1416C18.9873 14.748 18.7236 14.9854 18.1436 14.9854H5.83887C5.25879 14.9854 5.00391 14.748 5.00391 14.1416ZM8.34375 7.91895C8.34375 8.47266 8.625 9.00879 8.91504 9.25488C8.99414 9.31641 9.08203 9.36035 9.17871 9.36035C9.3457 9.36035 9.47754 9.21973 9.47754 9.05273C9.47754 8.93848 9.41602 8.86816 9.32812 8.77148C9.09082 8.52539 8.96777 8.22656 8.96777 7.91895C8.96777 7.61133 9.09961 7.33008 9.32812 7.0752C9.41602 6.96973 9.47754 6.9082 9.47754 6.78516C9.47754 6.61816 9.3457 6.48633 9.17871 6.48633C9.08203 6.48633 8.99414 6.53027 8.91504 6.5918C8.56348 6.88184 8.34375 7.37402 8.34375 7.91895ZM7.28027 7.6377C7.54395 7.6377 7.75488 7.41797 7.75488 7.17188C7.75488 6.9082 7.54395 6.68848 7.28027 6.68848C7.02539 6.68848 6.81445 6.9082 6.81445 7.17188C6.81445 7.41797 7.02539 7.6377 7.28027 7.6377ZM7.28027 9.2373C7.54395 9.2373 7.75488 9.01758 7.75488 8.7627C7.75488 8.50781 7.54395 8.29688 7.28027 8.29688C7.02539 8.29688 6.81445 8.50781 6.81445 8.7627C6.81445 9.01758 7.02539 9.2373 7.28027 9.2373ZM7.18359 11.2148H12.958C13.1777 11.2148 13.3184 11.0742 13.3184 10.8457C13.3184 10.6348 13.1777 10.5029 12.958 10.5029H7.18359C6.96387 10.5029 6.81445 10.6348 6.81445 10.8457C6.81445 11.0742 6.96387 11.2148 7.18359 11.2148ZM7.18359 12.7617H11.3057C11.5078 12.7617 11.6572 12.6123 11.6572 12.3926C11.6572 12.1816 11.5078 12.041 11.3057 12.041H7.18359C6.96387 12.041 6.81445 12.1816 6.81445 12.3926C6.81445 12.6123 6.96387 12.7617 7.18359 12.7617ZM16.8164 16.9453C16.4912 16.9453 16.21 16.6641 16.21 16.3301C16.21 16.0049 16.4912 15.7236 16.8164 15.7236C17.1592 15.7236 17.4316 16.0049 17.4316 16.3301C17.4316 16.6641 17.1592 16.9453 16.8164 16.9453Z" fill="#1C1C1E"/>
</g>
<defs>
<clipPath id="clip0_10_808">
<rect width="24" height="24" fill="white"/>
</clipPath>
</defs>
</svg>
