<svg width="24" height="24" viewBox="0 0 24 24" fill="none" xmlns="http://www.w3.org/2000/svg">
<g clip-path="url(#clip0_10_850)">
<path d="M3.24609 17.6309H20.7451C22.3447 17.6309 23.1797 16.8223 23.1797 15.1963V5.05371C23.1797 3.42773 22.3447 2.61914 20.7451 2.61914H3.24609C1.64648 2.61914 0.811523 3.42773 0.811523 5.05371V15.1963C0.811523 16.8223 1.64648 17.6309 3.24609 17.6309ZM2.5166 5.15918C2.5166 4.56152 2.78027 4.32422 3.36035 4.32422H20.6309C21.2109 4.32422 21.4746 4.56152 21.4746 5.15918V14.3174L16.7373 9.87891C16.3506 9.51855 15.8936 9.34277 15.4189 9.34277C14.9443 9.34277 14.5049 9.50977 14.1006 9.87012L9.76758 13.7461L7.77246 11.9531C7.41211 11.6191 7.00781 11.4521 6.58594 11.4521C6.18164 11.4521 5.8125 11.6191 5.46094 11.9355L2.5166 14.5723V5.15918ZM8.34375 10.0898C9.48633 10.0898 10.4355 9.14062 10.4355 7.97168C10.4355 6.82031 9.48633 5.8623 8.34375 5.8623C7.1748 5.8623 6.2168 6.82031 6.2168 7.97168C6.2168 9.14062 7.1748 10.0898 8.34375 10.0898ZM7.5 20.707H16.4912C16.9307 20.707 17.291 20.3467 17.291 19.9072C17.291 19.4678 16.9307 19.0986 16.4912 19.0986H7.5C7.06055 19.0986 6.7002 19.4678 6.7002 19.9072C6.7002 20.3467 7.06055 20.707 7.5 20.707Z" fill="#1C1C1E"/>
</g>
<defs>
<clipPath id="clip0_10_850">
<rect width="24" height="24" fill="white"/>
</clipPath>
</defs>
</svg>
