<svg width="24" height="24" viewBox="0 0 24 24" fill="none" xmlns="http://www.w3.org/2000/svg">
<g clip-path="url(#clip0_10_781)">
<path d="M3.24609 17.6309H20.7451C22.3447 17.6309 23.1797 16.8223 23.1797 15.1963V5.05371C23.1797 3.42773 22.3447 2.61914 20.7451 2.61914H3.24609C1.64648 2.61914 0.811523 3.42773 0.811523 5.05371V15.1963C0.811523 16.8223 1.64648 17.6309 3.24609 17.6309ZM3.36035 15.9258C2.78027 15.9258 2.5166 15.6885 2.5166 15.0908V5.15918C2.5166 4.56152 2.78027 4.32422 3.36035 4.32422H20.6309C21.2109 4.32422 21.4746 4.56152 21.4746 5.15918V15.0908C21.4746 15.6885 21.2109 15.9258 20.6309 15.9258H3.36035ZM9.89062 14.124C10.1104 14.124 10.2949 14.0537 10.5059 13.9395L15.6123 10.9336C15.9814 10.7139 16.1748 10.4502 16.1748 10.1162C16.1748 9.79102 15.9902 9.53613 15.6123 9.31641L10.5059 6.31055C10.2949 6.19629 10.1104 6.12598 9.89062 6.12598C9.45117 6.12598 9.09082 6.45117 9.09082 7.04883V13.1924C9.09082 13.79 9.45996 14.124 9.89062 14.124ZM7.5 20.707H16.4912C16.9307 20.707 17.291 20.3467 17.291 19.9072C17.291 19.4678 16.9307 19.0986 16.4912 19.0986H7.5C7.06055 19.0986 6.7002 19.4678 6.7002 19.9072C6.7002 20.3467 7.06055 20.707 7.5 20.707Z" fill="#1C1C1E"/>
</g>
<defs>
<clipPath id="clip0_10_781">
<rect width="24" height="24" fill="white"/>
</clipPath>
</defs>
</svg>
