<svg width="24" height="24" viewBox="0 0 24 24" fill="none" xmlns="http://www.w3.org/2000/svg">
<g clip-path="url(#clip0_10_815)">
<path d="M3.24609 17.6309H20.7451C22.3447 17.6309 23.1797 16.8223 23.1797 15.1963V5.05371C23.1797 3.42773 22.3447 2.61914 20.7451 2.61914H3.24609C1.64648 2.61914 0.811523 3.42773 0.811523 5.05371V15.1963C0.811523 16.8223 1.64648 17.6309 3.24609 17.6309ZM9.78516 14.2822C9.32812 14.2822 8.95898 13.9395 8.95898 13.3154V6.92578C8.95898 6.30176 9.32812 5.96777 9.78516 5.96777C10.0137 5.96777 10.207 6.03809 10.4268 6.15234L15.7266 9.27246C16.1221 9.50977 16.3154 9.77344 16.3154 10.1162C16.3154 10.4678 16.1133 10.7402 15.7266 10.9688L10.4268 14.0889C10.207 14.2119 10.0137 14.2822 9.78516 14.2822ZM7.5 20.707H16.4912C16.9307 20.707 17.291 20.3467 17.291 19.9072C17.291 19.4678 16.9307 19.0986 16.4912 19.0986H7.5C7.06055 19.0986 6.7002 19.4678 6.7002 19.9072C6.7002 20.3467 7.06055 20.707 7.5 20.707Z" fill="#1C1C1E"/>
</g>
<defs>
<clipPath id="clip0_10_815">
<rect width="24" height="24" fill="white"/>
</clipPath>
</defs>
</svg>
