<svg width="24" height="24" viewBox="0 0 24 24" fill="none" xmlns="http://www.w3.org/2000/svg">
<g clip-path="url(#clip0_10_844)">
<path d="M5.59277 4.22754H18.3896V4.0957C18.3896 2.76855 17.3262 2.14453 15.8496 2.14453H8.1416C6.72656 2.14453 5.59277 2.76855 5.59277 4.0957V4.22754ZM7.28906 21.375H16.7021C17.959 21.375 18.583 20.8037 18.583 19.4941V18.0088H19.207C20.9912 18.0088 21.9668 17.0771 21.9668 15.2842V8.21777C21.9668 6.4248 20.9912 5.49316 19.207 5.49316H4.78418C3.06152 5.49316 2.02441 6.4248 2.02441 8.21777V15.2842C2.02441 17.0771 2.99121 18.0088 4.78418 18.0088H5.39941V19.4941C5.39941 20.8037 6.02344 21.375 7.28906 21.375ZM16.1748 8.54297C16.1748 7.91895 16.7109 7.37402 17.3525 7.37402C17.9854 7.37402 18.5215 7.91895 18.5215 8.54297C18.5215 9.19336 17.9854 9.70312 17.3525 9.71191C16.7109 9.71191 16.1748 9.19336 16.1748 8.54297ZM7.64941 19.8457C7.22754 19.8457 7.0166 19.6436 7.0166 19.2129V12.8408C7.0166 12.4189 7.22754 12.2168 7.64941 12.2168H16.3506C16.7725 12.2168 16.9746 12.4189 16.9746 12.8408V19.2129C16.9746 19.6436 16.7725 19.8457 16.3506 19.8457H7.64941ZM9.09961 15.1611H14.9004C15.2432 15.1611 15.5068 14.8887 15.5068 14.5459C15.5068 14.2207 15.2432 13.957 14.9004 13.957H9.09961C8.74805 13.957 8.49316 14.2207 8.49316 14.5459C8.49316 14.8887 8.75684 15.1611 9.09961 15.1611ZM9.09961 18.1406H14.9004C15.2432 18.1406 15.5068 17.877 15.5068 17.5518C15.5068 17.209 15.2432 16.9453 14.9004 16.9453H9.09961C8.75684 16.9453 8.49316 17.209 8.49316 17.5518C8.49316 17.877 8.74805 18.1406 9.09961 18.1406Z" fill="#1C1C1E"/>
</g>
<defs>
<clipPath id="clip0_10_844">
<rect width="24" height="24" fill="white"/>
</clipPath>
</defs>
</svg>
