<svg width="24" height="24" viewBox="0 0 24 24" fill="none" xmlns="http://www.w3.org/2000/svg">
<g clip-path="url(#clip0_10_801)">
<path d="M4.71387 18.6768H5.61914V19.4941C5.61914 20.8037 6.24316 21.3838 7.50879 21.3838H16.4912C17.748 21.3838 18.3809 20.8037 18.3809 19.4941V18.6768H19.2861C21.0791 18.6768 22.0547 17.7363 22.0547 15.9346V7.86621C22.0547 6.07324 21.0791 5.12402 19.2861 5.12402H18.4863V4.64941C18.4863 2.86523 17.5898 2.04785 15.8672 2.04785H8.13281C6.48047 2.04785 5.51367 2.86523 5.51367 4.64941V5.12402H4.71387C2.99121 5.12402 1.94531 6.07324 1.94531 7.86621V15.9346C1.94531 17.7363 2.9209 18.6768 4.71387 18.6768ZM7.14844 4.52637C7.14844 3.87598 7.48242 3.54199 8.13281 3.54199H15.8672C16.5176 3.54199 16.8516 3.87598 16.8516 4.52637V5.12402H7.14844V4.52637ZM16.4912 10.7139H7.50879C6.28711 10.7139 5.61914 11.2939 5.61914 12.6035V17.0947H4.71387C3.99316 17.0947 3.61523 16.7168 3.61523 16.0049V7.80469C3.61523 7.08398 3.99316 6.70605 4.71387 6.70605H19.2861C20.0068 6.70605 20.376 7.08398 20.376 7.80469V16.0049C20.376 16.7168 20.0068 17.0947 19.2861 17.0947H18.3809V12.6035C18.3809 11.2939 17.748 10.7139 16.4912 10.7139ZM16.1309 8.72754C16.1309 9.36914 16.6494 9.87012 17.2822 9.86133C17.8975 9.86133 18.416 9.36035 18.416 8.72754C18.416 8.1123 17.8975 7.58496 17.2822 7.58496C16.6582 7.58496 16.1309 8.1123 16.1309 8.72754ZM7.86914 19.8457C7.44727 19.8457 7.23633 19.6436 7.23633 19.2129V12.8848C7.23633 12.4541 7.44727 12.252 7.86914 12.252H16.1396C16.5615 12.252 16.7637 12.4541 16.7637 12.8848V19.2129C16.7637 19.6436 16.5615 19.8457 16.1396 19.8457H7.86914ZM9.1084 15.1611H14.9092C15.252 15.1611 15.5068 14.8975 15.5068 14.5547C15.5068 14.2295 15.252 13.9658 14.9092 13.9658H9.1084C8.75684 13.9658 8.50195 14.2295 8.50195 14.5547C8.50195 14.8975 8.75684 15.1611 9.1084 15.1611ZM9.1084 18.1406H14.9092C15.252 18.1406 15.5068 17.8857 15.5068 17.5518C15.5068 17.2178 15.252 16.9453 14.9092 16.9453H9.1084C8.75684 16.9453 8.50195 17.2178 8.50195 17.5518C8.50195 17.8857 8.75684 18.1406 9.1084 18.1406Z" fill="#1C1C1E"/>
</g>
<defs>
<clipPath id="clip0_10_801">
<rect width="24" height="24" fill="white"/>
</clipPath>
</defs>
</svg>
