<svg width="24" height="24" viewBox="0 0 24 24" fill="none" xmlns="http://www.w3.org/2000/svg">
<g clip-path="url(#clip0_10_811)">
<path d="M1.56738 17.1211C1.56738 19.0107 2.56055 19.9863 4.45898 19.9863H19.541C21.4395 19.9863 22.4326 19.002 22.4326 17.1211V14.0889C22.4326 13.4648 22.2305 12.7705 21.7559 12.2607L18.4512 8.74512C18.2227 8.50781 18.0117 8.29688 17.792 8.1123C17.9678 7.98047 18.1436 7.81348 18.3369 7.61133L21.1143 4.80762C21.6328 4.28906 21.3428 3.33984 20.4814 3.33984H3.51855C2.65723 3.33984 2.37598 4.28906 2.89453 4.80762L5.66309 7.61133C5.86523 7.80469 6.04102 7.97168 6.20801 8.1123C5.99707 8.29688 5.77734 8.50781 5.55762 8.74512L2.25293 12.2607C1.76953 12.7705 1.56738 13.4648 1.56738 14.0889V17.1211ZM3.73828 13.1309L6.87598 9.62402C7.31543 9.13184 7.62305 8.89453 8.09766 8.89453H15.9023C16.377 8.89453 16.6846 9.13184 17.1328 9.62402L20.2617 13.1309C20.4639 13.3506 20.3584 13.6846 19.9805 13.6846H4.01953C3.65039 13.6846 3.53613 13.3506 3.73828 13.1309ZM6.89355 10.9424C6.97266 11.1797 7.21875 11.2676 7.44727 11.1885L10.1279 10.2217C10.3652 10.1338 10.4883 9.89648 10.4004 9.66797C10.3213 9.43066 10.0752 9.33398 9.84668 9.42188L7.15723 10.3975C6.91992 10.4766 6.80566 10.7139 6.89355 10.9424ZM6.7793 12.5156C6.86719 12.7441 7.11328 12.8496 7.3418 12.7617L11.2441 11.3379C11.4814 11.2588 11.5957 11.0303 11.5166 10.793C11.4287 10.5645 11.2002 10.459 10.9541 10.5469L7.05176 11.9707C6.81445 12.0586 6.7002 12.2783 6.7793 12.5156ZM15.6035 16.7695C15.6035 16.4707 15.832 16.2598 16.1396 16.2598H18.6182C18.917 16.2598 19.1455 16.4707 19.1455 16.7695C19.1455 17.0596 18.917 17.2793 18.6182 17.2793H16.1396C15.8496 17.2793 15.6035 17.0684 15.6035 16.7695Z" fill="#1C1C1E"/>
</g>
<defs>
<clipPath id="clip0_10_811">
<rect width="24" height="24" fill="white"/>
</clipPath>
</defs>
</svg>
