<svg width="24" height="24" viewBox="0 0 24 24" fill="none" xmlns="http://www.w3.org/2000/svg">
<g clip-path="url(#clip0_10_803)">
<path d="M4.47656 19.8809H19.5146C21.4219 19.8809 22.415 18.8965 22.415 17.0156V6.31934C22.415 4.43848 21.4219 3.4541 19.5146 3.4541H4.47656C2.57812 3.4541 1.58496 4.42969 1.58496 6.31934V17.0156C1.58496 18.8965 2.57812 19.8809 4.47656 19.8809ZM3.33398 6.47754C3.33398 5.625 3.78223 5.20312 4.59082 5.20312H19.4004C20.209 5.20312 20.6572 5.625 20.6572 6.47754V8.53418H3.33398V6.47754ZM17.7393 7.94531C18.3193 7.93652 18.8027 7.45312 18.8027 6.87305C18.8027 6.28418 18.3193 5.79199 17.7393 5.79199C17.1592 5.79199 16.6582 6.28418 16.6582 6.87305C16.6582 7.45312 17.1592 7.9541 17.7393 7.94531ZM3.33398 13.333V10.002H20.6572V13.333H3.33398ZM17.7393 12.7266C18.3193 12.7178 18.8027 12.2344 18.8027 11.6543C18.8027 11.0654 18.3193 10.5645 17.7393 10.5645C17.1592 10.5645 16.6582 11.0654 16.6582 11.6543C16.6582 12.2344 17.1592 12.7354 17.7393 12.7266ZM4.59082 18.1318C3.78223 18.1318 3.33398 17.71 3.33398 16.8574V14.8008H20.6572V16.8574C20.6572 17.71 20.209 18.1318 19.4004 18.1318H4.59082ZM17.7393 17.499C18.3193 17.4902 18.8027 17.0068 18.8027 16.4268C18.8027 15.8379 18.3193 15.3457 17.7393 15.3457C17.1592 15.3457 16.6582 15.8467 16.6582 16.4268C16.6582 17.0068 17.1592 17.5166 17.7393 17.499Z" fill="#1C1C1E"/>
</g>
<defs>
<clipPath id="clip0_10_803">
<rect width="24" height="24" fill="white"/>
</clipPath>
</defs>
</svg>
