<svg width="24" height="24" viewBox="0 0 24 24" fill="none" xmlns="http://www.w3.org/2000/svg">
<g clip-path="url(#clip0_10_840)">
<path d="M1.68164 17.6309H9.53027V15.9258H1.7959C1.21582 15.9258 0.952148 15.6885 0.952148 15.0908V5.15918C0.952148 4.56152 1.21582 4.32422 1.7959 4.32422H19.0664C19.6465 4.32422 19.9102 4.56152 19.9102 5.15918V12.9287H21.6152V5.05371C21.6152 3.42773 20.7803 2.61914 19.1807 2.61914H1.68164C0.0820312 2.61914 -0.75293 3.42773 -0.75293 5.05371V15.1963C-0.75293 16.8223 0.0820312 17.6309 1.68164 17.6309ZM12.8877 21.6826H22.7842C24.0762 21.6826 24.7529 20.9971 24.7529 19.6875V16.3037C24.7529 14.9854 24.0762 14.3086 22.7842 14.3086H12.8877C11.5781 14.3086 10.9102 14.9854 10.9102 16.2686V19.6875C10.9102 20.9971 11.5781 21.6826 12.8877 21.6826ZM21.6416 18.5713C21.0264 18.5713 20.5254 18.0791 20.5254 17.4551C20.5254 16.8574 21.0264 16.3564 21.6416 16.3564C22.2393 16.3564 22.7402 16.8574 22.7402 17.4551C22.7402 18.0791 22.2393 18.5713 21.6416 18.5713ZM5.93555 20.707H9.65332C9.55664 20.3027 9.53027 19.8281 9.53027 19.0986H5.93555C5.49609 19.0986 5.13574 19.4678 5.13574 19.9072C5.13574 20.3467 5.49609 20.707 5.93555 20.707Z" fill="#1C1C1E"/>
</g>
<defs>
<clipPath id="clip0_10_840">
<rect width="24" height="24" fill="white"/>
</clipPath>
</defs>
</svg>
