<svg width="24" height="24" viewBox="0 0 24 24" fill="none" xmlns="http://www.w3.org/2000/svg">
<g clip-path="url(#clip0_10_843)">
<path d="M1.68164 17.6309H13.6699V15.9258H1.7959C1.21582 15.9258 0.952148 15.6885 0.952148 15.0908V5.15918C0.952148 4.56152 1.21582 4.32422 1.7959 4.32422H19.0664C19.6465 4.32422 19.9102 4.56152 19.9102 5.15918V7.85742H21.6152V5.05371C21.6152 3.42773 20.7803 2.61914 19.1807 2.61914H1.68164C0.0820312 2.61914 -0.75293 3.42773 -0.75293 5.05371V15.1963C-0.75293 16.8223 0.0820312 17.6309 1.68164 17.6309ZM17.0273 21.6826H22.7842C24.0762 21.6826 24.7529 20.9971 24.7529 19.6875V11.2324C24.7529 9.91406 24.0762 9.2373 22.7842 9.2373H17.0273C15.7178 9.2373 15.0586 9.91406 15.0586 11.2324V19.6875C15.0586 20.9971 15.7178 21.6826 17.0273 21.6826ZM19.9102 13.8867C19.0576 13.8867 18.3633 13.21 18.3721 12.3398C18.3721 11.4873 19.0576 10.8105 19.9102 10.8105C20.7715 10.8105 21.4395 11.4873 21.4395 12.3398C21.4395 13.21 20.7715 13.8867 19.9102 13.8867ZM19.9014 13.0342C20.2881 13.0342 20.5869 12.7354 20.5869 12.3398C20.5869 11.9531 20.2881 11.6543 19.9014 11.6543C19.5322 11.6543 19.2246 11.9707 19.2246 12.3398C19.2246 12.7354 19.5234 13.0342 19.9014 13.0342ZM19.9014 20.083C18.416 20.083 17.2295 18.8877 17.2295 17.3936C17.2295 15.8994 18.416 14.7129 19.9014 14.7041C21.3867 14.6953 22.582 15.8994 22.582 17.3936C22.582 18.8877 21.3867 20.083 19.9014 20.083ZM19.9014 18.4482C20.4902 18.4482 20.9648 17.9736 20.9648 17.3936C20.9648 16.7871 20.499 16.3213 19.9014 16.3213C19.3213 16.3213 18.8467 16.7871 18.8467 17.3936C18.8467 17.9736 19.3213 18.4482 19.9014 18.4482ZM5.4873 20.707H13.793C13.6963 20.3027 13.6787 19.8281 13.6787 19.0986H5.4873C5.04785 19.0986 4.6875 19.4678 4.6875 19.9072C4.6875 20.3467 5.04785 20.707 5.4873 20.707Z" fill="#1C1C1E"/>
</g>
<defs>
<clipPath id="clip0_10_843">
<rect width="24" height="24" fill="white"/>
</clipPath>
</defs>
</svg>
