<svg width="24" height="24" viewBox="0 0 24 24" fill="none" xmlns="http://www.w3.org/2000/svg">
<g clip-path="url(#clip0_10_829)">
<path d="M11.9912 20.7422C16.9746 20.7422 21.0879 16.6289 21.0879 11.6543C21.0879 6.67969 16.9658 2.56641 11.9824 2.56641C7.00781 2.56641 2.90332 6.67969 2.90332 11.6543C2.90332 16.6289 7.0166 20.7422 11.9912 20.7422ZM11.9912 18.9316C7.95703 18.9316 4.73145 15.6885 4.73145 11.6543C4.73145 7.62012 7.95703 4.38574 11.9824 4.38574C16.0166 4.38574 19.2598 7.62012 19.2686 11.6543C19.2773 15.6885 16.0254 18.9316 11.9912 18.9316ZM8.21191 14.7217H15.7617C16.5791 14.7217 17.0625 14.2383 17.0625 13.4297V9.0791C17.0625 8.26172 16.5879 7.78711 15.7617 7.78711H8.21191C7.38574 7.78711 6.91113 8.26172 6.91113 9.0791V13.4297C6.91113 14.2383 7.39453 14.7217 8.21191 14.7217ZM8.35254 13.5C8.18555 13.5 8.13281 13.4473 8.13281 13.2891V9.21973C8.13281 9.05273 8.18555 9 8.35254 9H15.6211C15.7793 9 15.8408 9.06152 15.8408 9.21973V13.2891C15.8408 13.4385 15.7793 13.5 15.6211 13.5H8.35254ZM9.70605 16.5234H14.2852C14.6104 16.5234 14.8652 16.251 14.8652 15.917C14.8652 15.6006 14.6104 15.3369 14.2852 15.3369H9.70605C9.38086 15.3369 9.1084 15.6006 9.1084 15.917C9.1084 16.251 9.37207 16.5234 9.70605 16.5234Z" fill="#1C1C1E"/>
</g>
<defs>
<clipPath id="clip0_10_829">
<rect width="24" height="24" fill="white"/>
</clipPath>
</defs>
</svg>
