<svg width="24" height="24" viewBox="0 0 24 24" fill="none" xmlns="http://www.w3.org/2000/svg">
<g clip-path="url(#clip0_10_817)">
<path d="M11.9912 20.7422C16.9746 20.7422 21.0879 16.6289 21.0879 11.6543C21.0879 6.67969 16.9658 2.56641 11.9824 2.56641C7.00781 2.56641 2.90332 6.67969 2.90332 11.6543C2.90332 16.6289 7.0166 20.7422 11.9912 20.7422ZM8.0625 14.8271C7.20996 14.8271 6.70898 14.3262 6.70898 13.4824V8.96484C6.70898 8.1123 7.20117 7.60254 8.0625 7.60254H15.9111C16.7637 7.60254 17.2646 8.1123 17.2646 8.96484V13.4824C17.2646 14.3262 16.7637 14.8271 15.9111 14.8271H8.0625ZM8.21191 13.5439H15.7529C15.9199 13.5439 15.9902 13.4912 15.9902 13.3242V9.10547C15.9902 8.94727 15.9199 8.88574 15.7529 8.88574H8.21191C8.04492 8.88574 7.99219 8.93848 7.99219 9.10547V13.3242C7.99219 13.4912 8.04492 13.5439 8.21191 13.5439ZM9.60938 16.6992C9.2666 16.6992 8.99414 16.4268 8.99414 16.0664C8.99414 15.7324 9.27539 15.46 9.60938 15.46H14.3818C14.7158 15.46 14.9795 15.7324 14.9795 16.0664C14.9795 16.4268 14.7158 16.6992 14.3818 16.6992H9.60938Z" fill="#1C1C1E"/>
</g>
<defs>
<clipPath id="clip0_10_817">
<rect width="24" height="24" fill="white"/>
</clipPath>
</defs>
</svg>
