<svg width="24" height="24" viewBox="0 0 24 24" fill="none" xmlns="http://www.w3.org/2000/svg">
<g clip-path="url(#clip0_10_820)">
<path d="M3.24609 17.6309H20.7451C22.3447 17.6309 23.1797 16.8223 23.1797 15.1963V5.05371C23.1797 3.42773 22.3447 2.61914 20.7451 2.61914H3.24609C1.64648 2.61914 0.811523 3.42773 0.811523 5.05371V15.1963C0.811523 16.8223 1.64648 17.6309 3.24609 17.6309ZM14.707 8.4375L12.5801 8.95605C12.3867 9.00879 12.3252 9.0791 12.3252 9.4043V12.4102C12.3252 13.7461 11.4199 14.6865 10.1016 14.6865C9.17871 14.6865 8.58105 14.124 8.58105 13.333C8.58105 12.4453 9.25781 11.9268 10.1191 11.6982L10.9541 11.4785C11.3936 11.3643 11.4287 11.3027 11.4287 10.8984V6.9082C11.4287 6.36328 11.5342 6.25781 11.9912 6.14355L14.6631 5.47559C15.1553 5.35254 15.3047 5.51074 15.3047 5.88867V7.68164C15.3047 8.21777 15.1729 8.33203 14.707 8.4375ZM7.5 20.707H16.4912C16.9307 20.707 17.291 20.3467 17.291 19.9072C17.291 19.4678 16.9307 19.0986 16.4912 19.0986H7.5C7.06055 19.0986 6.7002 19.4678 6.7002 19.9072C6.7002 20.3467 7.06055 20.707 7.5 20.707Z" fill="#1C1C1E"/>
</g>
<defs>
<clipPath id="clip0_10_820">
<rect width="24" height="24" fill="white"/>
</clipPath>
</defs>
</svg>
