<svg width="24" height="24" viewBox="0 0 24 24" fill="none" xmlns="http://www.w3.org/2000/svg">
<g clip-path="url(#clip0_10_809)">
<path d="M3.24609 17.6309H20.7451C22.3447 17.6309 23.1797 16.8223 23.1797 15.1963V5.05371C23.1797 3.42773 22.3447 2.61914 20.7451 2.61914H3.24609C1.64648 2.61914 0.811523 3.42773 0.811523 5.05371V15.1963C0.811523 16.8223 1.64648 17.6309 3.24609 17.6309ZM3.36035 15.9258C2.78027 15.9258 2.5166 15.6885 2.5166 15.0908V5.15918C2.5166 4.56152 2.78027 4.32422 3.36035 4.32422H20.6309C21.2109 4.32422 21.4746 4.56152 21.4746 5.15918V15.0908C21.4746 15.6885 21.2109 15.9258 20.6309 15.9258H3.36035ZM7.5 20.707H16.4912C16.9307 20.707 17.291 20.3467 17.291 19.9072C17.291 19.4678 16.9307 19.0986 16.4912 19.0986H7.5C7.06055 19.0986 6.7002 19.4678 6.7002 19.9072C6.7002 20.3467 7.06055 20.707 7.5 20.707Z" fill="#1C1C1E"/>
</g>
<defs>
<clipPath id="clip0_10_809">
<rect width="24" height="24" fill="white"/>
</clipPath>
</defs>
</svg>
