<svg width="24" height="24" viewBox="0 0 24 24" fill="none" xmlns="http://www.w3.org/2000/svg">
<g clip-path="url(#clip0_10_802)">
<path d="M4.39746 19.3535H19.6025C21.501 19.3535 22.4941 18.3691 22.4941 16.4883V11.1973C22.4941 9.94043 22.1689 9.03516 21.4395 8.29688L18.6182 5.39648C17.6602 4.41211 16.9834 3.98145 15.7178 3.98145H8.29102C7.02539 3.98145 6.34863 4.41211 5.39062 5.39648L2.56055 8.29688C1.82227 9.05273 1.50586 9.91406 1.50586 11.1973V16.4883C1.50586 18.3691 2.49902 19.3535 4.39746 19.3535ZM3.86133 10.0459C3.5625 10.0459 3.4834 9.77344 3.65918 9.58887L6.88477 6.17871C7.36816 5.66895 7.72852 5.47559 8.3877 5.47559H15.6123C16.2715 5.47559 16.6318 5.66895 17.124 6.17871L20.3496 9.58887C20.5254 9.77344 20.4463 10.0459 20.1387 10.0459H3.86133ZM4.48535 17.6396C3.68555 17.6396 3.2373 17.209 3.2373 16.374V12.3398C3.2373 11.8037 3.4834 11.5488 4.01074 11.5488H19.9893C20.5166 11.5488 20.7715 11.8037 20.7715 12.3398V16.374C20.7715 17.209 20.3232 17.6396 19.5146 17.6396H4.48535ZM12.0264 13.5703C12.3779 13.5703 12.6768 13.2803 12.6768 12.9111C12.6768 12.5596 12.3779 12.2607 12.0264 12.2607C11.6572 12.2607 11.3584 12.5596 11.3584 12.9111C11.3584 13.2891 11.6572 13.5703 12.0264 13.5703ZM5.32031 16.8486C5.61035 16.8486 5.85645 16.6289 5.85645 16.3301V12.8848C5.85645 12.5947 5.61035 12.3574 5.32031 12.3574C5.03027 12.3574 4.80176 12.5947 4.80176 12.8848V16.3301C4.80176 16.6289 5.03027 16.8486 5.32031 16.8486ZM7.35938 16.8486C7.64941 16.8486 7.89551 16.6289 7.89551 16.3301V12.8848C7.89551 12.5947 7.64941 12.3574 7.35938 12.3574C7.06934 12.3574 6.84082 12.5947 6.84082 12.8848V16.3301C6.84082 16.6289 7.06934 16.8486 7.35938 16.8486ZM9.39844 16.8486C9.68848 16.8486 9.93457 16.6289 9.93457 16.3301V12.8848C9.93457 12.5947 9.68848 12.3574 9.39844 12.3574C9.1084 12.3574 8.87988 12.5947 8.87988 12.8848V16.3301C8.87988 16.6289 9.1084 16.8486 9.39844 16.8486ZM14.54 16.8486C14.8301 16.8486 15.0762 16.6289 15.0762 16.3301V12.8848C15.0762 12.5947 14.8301 12.3574 14.54 12.3574C14.2412 12.3574 14.0215 12.5947 14.0215 12.8848V16.3301C14.0215 16.6289 14.2412 16.8486 14.54 16.8486ZM16.5791 16.8486C16.8691 16.8486 17.1152 16.6289 17.1152 16.3301V12.8848C17.1152 12.5947 16.8691 12.3574 16.5791 12.3574C16.2803 12.3574 16.0518 12.5947 16.0518 12.8848V16.3301C16.0518 16.6289 16.2803 16.8486 16.5791 16.8486ZM18.6182 16.8486C18.9082 16.8486 19.1543 16.6289 19.1543 16.3301V12.8848C19.1543 12.5947 18.9082 12.3574 18.6182 12.3574C18.3193 12.3574 18.0908 12.5947 18.0908 12.8848V16.3301C18.0908 16.6289 18.3193 16.8486 18.6182 16.8486ZM12.0264 15.2578C12.3779 15.249 12.6768 14.9678 12.6768 14.5986C12.6768 14.2471 12.3779 13.9482 12.0264 13.9482C11.6572 13.9482 11.3584 14.2471 11.3584 14.5986C11.3584 14.9678 11.6572 15.249 12.0264 15.2578ZM12.0264 16.9277C12.3779 16.9189 12.6768 16.6377 12.6768 16.2686C12.6768 15.917 12.3779 15.6182 12.0264 15.6182C11.6572 15.6182 11.3584 15.917 11.3584 16.2686C11.3584 16.6465 11.6572 16.9277 12.0264 16.9277Z" fill="#1C1C1E"/>
</g>
<defs>
<clipPath id="clip0_10_802">
<rect width="24" height="24" fill="white"/>
</clipPath>
</defs>
</svg>
