<svg width="24" height="24" viewBox="0 0 24 24" fill="none" xmlns="http://www.w3.org/2000/svg">
<g clip-path="url(#clip0_10_1165)">
<path d="M11.9912 20.7422C16.9746 20.7422 21.0879 16.6289 21.0879 11.6543C21.0879 6.67969 16.9658 2.56641 11.9824 2.56641C7.00781 2.56641 2.90332 6.67969 2.90332 11.6543C2.90332 16.6289 7.0166 20.7422 11.9912 20.7422ZM11.9912 18.9316C7.95703 18.9316 4.73145 15.6885 4.73145 11.6543C4.73145 7.62012 7.95703 4.38574 11.9824 4.38574C16.0166 4.38574 19.2598 7.62012 19.2686 11.6543C19.2773 15.6885 16.0254 18.9316 11.9912 18.9316ZM8.0625 14.0361L8.43164 16.418C8.47559 16.6816 8.59863 16.8486 8.85352 16.8486C9.1084 16.8486 9.29297 16.6553 9.24902 16.3564L8.92383 14.1855C8.87988 13.9219 8.95898 13.7988 9.25781 13.7109C9.36328 13.6846 9.45996 13.6582 9.56543 13.623C9.5127 13.7725 9.49512 13.9395 9.49512 14.1328C9.49512 15.6709 10.6465 17.1035 11.9912 17.1035C13.3359 17.1035 14.4873 15.6709 14.4873 14.1328C14.4873 13.9395 14.4697 13.7725 14.417 13.623C14.5225 13.6582 14.6191 13.6846 14.7246 13.7109C15.0234 13.7988 15.1025 13.9219 15.0586 14.1855L14.7334 16.3564C14.6807 16.6553 14.874 16.8486 15.1289 16.8486C15.3838 16.8486 15.5068 16.6816 15.5508 16.418L15.9199 14.0361C16.0166 13.4561 15.7793 13.1309 15.1377 12.9727L13.1074 12.5068C13.2568 12.4453 13.4238 12.2607 13.4941 12.0234L14.8564 11.8477C15.4893 11.7598 15.7705 11.3994 15.7705 10.7842V9.19336C15.7705 8.93848 15.6211 8.78027 15.3574 8.78027C15.1025 8.78027 14.9531 8.93848 14.9531 9.19336V10.6172C14.9531 10.9512 14.7686 11.0566 14.4609 11.1006L13.5029 11.2236C13.459 11.083 13.3623 10.9336 13.2656 10.8633C14.0391 10.7139 14.4346 10.2305 14.4346 9.50977C14.4346 8.94727 14.2412 8.42871 13.9072 8.01562L13.9512 7.98047C14.4258 7.6377 14.5225 7.12793 14.2061 6.57422L13.9424 6.13477C13.8457 5.9502 13.7314 5.87109 13.5645 5.87109C13.3447 5.87109 13.1865 6.0293 13.1865 6.23145C13.1865 6.32812 13.2041 6.38965 13.2568 6.47754L13.4854 6.83789C13.6172 7.05762 13.6523 7.25977 13.4854 7.3916L13.3711 7.47949C12.958 7.21582 12.457 7.05762 11.9912 7.05762C11.5254 7.05762 11.0244 7.21582 10.6113 7.47949L10.4971 7.3916C10.3301 7.25977 10.374 7.05762 10.4971 6.83789L10.7256 6.47754C10.7871 6.38965 10.7959 6.32812 10.7959 6.23145C10.7959 6.0293 10.6377 5.87109 10.418 5.87109C10.251 5.87109 10.1279 5.9502 10.04 6.13477L9.77637 6.57422C9.47754 7.13672 9.55664 7.6377 10.0312 7.98047L10.0752 8.01562C9.74121 8.42871 9.54785 8.94727 9.54785 9.50977C9.54785 10.2305 9.94336 10.7139 10.7168 10.8545C10.6201 10.9336 10.5234 11.083 10.4883 11.2236L9.52148 11.1006C9.21387 11.0654 9.0293 10.9512 9.0293 10.6172V9.19336C9.0293 8.93848 8.87988 8.78027 8.625 8.78027C8.36133 8.78027 8.21191 8.93848 8.21191 9.19336V10.7842C8.21191 11.3994 8.50195 11.7598 9.12598 11.8477L10.4883 12.0234C10.5586 12.2607 10.7256 12.4365 10.875 12.5068L8.84473 12.9727C8.20312 13.1221 7.96582 13.4561 8.0625 14.0361Z" fill="#1C1C1E"/>
</g>
<defs>
<clipPath id="clip0_10_1165">
<rect width="24" height="24" fill="white"/>
</clipPath>
</defs>
</svg>
