<svg width="24" height="24" viewBox="0 0 24 24" fill="none" xmlns="http://www.w3.org/2000/svg">
<g clip-path="url(#clip0_10_1176)">
<path d="M11.9912 20.7598C16.9746 20.7598 21.0879 16.6465 21.0879 11.6631C21.0879 6.68848 16.9658 2.5752 11.9824 2.5752C7.00781 2.5752 2.90332 6.68848 2.90332 11.6631C2.90332 16.6465 7.0166 20.7598 11.9912 20.7598ZM7.89551 14.1416C7.79883 13.5352 8.04492 13.1836 8.71289 13.0254L10.8311 12.542C10.6729 12.4717 10.5059 12.2871 10.4268 12.041L9.00293 11.8564C8.35254 11.7686 8.05371 11.3994 8.05371 10.749V9.09668C8.05371 8.83301 8.2207 8.66602 8.49316 8.66602C8.75684 8.66602 8.91504 8.83301 8.91504 9.09668V10.5732C8.91504 10.9336 9.1084 11.0479 9.4248 11.0742L10.418 11.2148C10.4619 11.0566 10.5674 10.9072 10.6641 10.8281C9.85547 10.6699 9.45117 10.1689 9.45117 9.43066C9.45117 8.85059 9.64453 8.30566 9.99609 7.875L9.95215 7.83105C9.45117 7.47949 9.36328 6.96094 9.68848 6.37207L9.94336 5.91504C10.0488 5.72168 10.1719 5.64258 10.3477 5.64258C10.5762 5.64258 10.7432 5.80957 10.7432 6.02051C10.7432 6.11719 10.7256 6.1875 10.6729 6.28418L10.4355 6.65332C10.3037 6.88184 10.2686 7.08398 10.4355 7.22461L10.5498 7.32129C10.9805 7.04004 11.5078 6.87305 11.9912 6.87305C12.4746 6.87305 13.002 7.04004 13.4238 7.32129L13.5469 7.22461C13.7139 7.08398 13.6875 6.88184 13.5381 6.65332L13.3096 6.28418C13.2568 6.1875 13.2393 6.11719 13.2393 6.02051C13.2393 5.80078 13.4062 5.64258 13.626 5.64258C13.8105 5.64258 13.9248 5.73047 14.0303 5.91504L14.2939 6.37207C14.6279 6.95215 14.5312 7.47949 14.0303 7.83105L13.9863 7.875C14.3291 8.30566 14.5312 8.85059 14.5312 9.43066C14.5312 10.1777 14.127 10.6787 13.3184 10.8281C13.415 10.9072 13.5205 11.0566 13.5645 11.2148L14.5576 11.0742C14.874 11.0391 15.0674 10.9336 15.0674 10.5732V9.09668C15.0674 8.83301 15.2256 8.66602 15.4893 8.66602C15.7617 8.66602 15.9287 8.83301 15.9287 9.09668V10.749C15.9287 11.3994 15.6299 11.7686 14.9795 11.8564L13.5557 12.041C13.4766 12.2871 13.3096 12.4717 13.1514 12.542L15.2695 13.0254C15.9287 13.1924 16.1836 13.5352 16.0781 14.1416L15.7002 16.6113C15.6562 16.8926 15.5244 17.0596 15.252 17.0596C14.9883 17.0596 14.7861 16.8662 14.8389 16.541L15.1816 14.2998C15.2256 14.0273 15.1377 13.8867 14.8389 13.7988C14.7246 13.7725 14.6191 13.7461 14.5137 13.7197C14.5664 13.8604 14.5928 14.0361 14.5928 14.2383C14.5928 15.8291 13.3887 17.3232 11.9912 17.3232C10.5938 17.3232 9.38965 15.8291 9.38965 14.2383C9.38965 14.0361 9.41602 13.8604 9.46875 13.7197C9.36328 13.7461 9.24902 13.7725 9.14355 13.7988C8.84473 13.8867 8.75684 14.0273 8.80078 14.2998L9.14355 16.541C9.1875 16.8662 8.98535 17.0596 8.72168 17.0596C8.45801 17.0596 8.32617 16.8926 8.28223 16.6113L7.89551 14.1416Z" fill="#1C1C1E"/>
</g>
<defs>
<clipPath id="clip0_10_1176">
<rect width="24" height="24" fill="white"/>
</clipPath>
</defs>
</svg>
