<svg width="24" height="24" viewBox="0 0 24 24" fill="none" xmlns="http://www.w3.org/2000/svg">
<g clip-path="url(#clip0_10_1173)">
<path d="M11.9912 22.1133C14.5312 22.1133 16.7373 19.3887 16.7373 16.4619C16.7373 16.0664 16.6758 15.7412 16.5439 15.4688C16.7637 15.5303 16.9834 15.583 17.2031 15.6445C17.7832 15.8203 17.959 16.0664 17.8799 16.5938L17.2471 20.7246C17.1592 21.2871 17.5107 21.6211 17.9766 21.6211C18.46 21.6211 18.6885 21.3223 18.7676 20.8301L19.4707 16.3037C19.6553 15.1875 19.207 14.5723 17.9766 14.291L13.9951 13.377V13.2803C14.3467 13.1221 14.584 12.7881 14.6982 12.4365L17.458 12.085C18.6445 11.9268 19.1895 11.2412 19.1895 10.0635V7.04883C19.1895 6.56543 18.8994 6.28418 18.4248 6.28418C17.9502 6.28418 17.6689 6.57422 17.6689 7.04883V9.74707C17.6689 10.415 17.3086 10.6348 16.7021 10.7051L14.7773 10.9512C14.6807 10.6875 14.5049 10.4502 14.2676 10.292V10.1953C15.7969 9.92285 16.6318 9 16.6318 7.6377C16.6318 6.55664 16.2451 5.56348 15.6123 4.78125L15.7266 4.70215C16.6406 4.05176 16.7988 3.10254 16.2188 2.04785L15.7002 1.19531C15.5244 0.861328 15.3047 0.711914 15.0059 0.711914C14.6104 0.711914 14.3115 1.01074 14.3115 1.38867C14.3115 1.55566 14.3379 1.65234 14.4346 1.83691L14.8828 2.52246C15.1553 2.98828 15.1377 3.39258 14.7686 3.70898C14.7246 3.74414 14.6807 3.7793 14.6279 3.82324C13.8721 3.2959 12.9668 2.98828 11.9912 2.98828C11.0332 2.98828 10.1279 3.2959 9.38086 3.81445C9.33691 3.7793 9.28418 3.74414 9.24023 3.7002C8.87988 3.39258 8.85352 2.98828 9.13477 2.52246L9.57422 1.83691C9.67969 1.65234 9.70605 1.55566 9.70605 1.38867C9.70605 1.01074 9.40723 0.711914 9.01172 0.711914C8.7041 0.711914 8.49316 0.861328 8.30859 1.19531L7.79883 2.04785C7.21875 3.10254 7.37695 4.05176 8.29102 4.70215L8.3877 4.77246C7.74609 5.5459 7.35059 6.55664 7.35059 7.6377C7.35059 9 8.18555 9.92285 9.72363 10.1953V10.292C9.47754 10.4502 9.31055 10.6875 9.21387 10.9512L7.28906 10.7051C6.67383 10.6348 6.31348 10.415 6.31348 9.74707V7.04883C6.31348 6.57422 6.04102 6.28418 5.55762 6.28418C5.08301 6.28418 4.80176 6.56543 4.80176 7.04883V10.0635C4.80176 11.2412 5.34668 11.9268 6.5332 12.085L9.28418 12.4365C9.40723 12.7881 9.64453 13.1221 9.99609 13.2803V13.377L6.00586 14.291C4.78418 14.5723 4.33594 15.1875 4.51172 16.3037L5.22363 20.8301C5.30273 21.3223 5.52246 21.6211 6.01465 21.6211C6.48047 21.6211 6.83203 21.2871 6.74414 20.7246L6.11133 16.5938C6.03223 16.0664 6.19922 15.8115 6.79688 15.6357C7.00781 15.583 7.22754 15.5303 7.43848 15.4688C7.31543 15.7412 7.24512 16.0664 7.24512 16.4619C7.24512 19.3887 9.45996 22.1133 11.9912 22.1133Z" fill="#1C1C1E"/>
</g>
<defs>
<clipPath id="clip0_10_1173">
<rect width="24" height="24" fill="white"/>
</clipPath>
</defs>
</svg>
