<svg width="24" height="24" viewBox="0 0 24 24" fill="none" xmlns="http://www.w3.org/2000/svg">
<g clip-path="url(#clip0_10_1169)">
<path d="M6.01465 21.6211C6.48047 21.6211 6.83203 21.2871 6.74414 20.7246L6.11133 16.5938C6.02344 16.04 6.2168 15.7939 6.86719 15.6182L7.36816 15.4863C7.28906 15.7764 7.24512 16.0928 7.24512 16.4619C7.24512 19.3887 9.45996 22.1133 11.9912 22.1133C14.5312 22.1133 16.7373 19.3887 16.7373 16.4619C16.7373 16.0928 16.7021 15.7764 16.623 15.4863L17.124 15.6182C17.7744 15.7939 17.959 16.04 17.8799 16.5938L17.2471 20.7246C17.1592 21.2871 17.5107 21.6211 17.9766 21.6211C18.46 21.6211 18.6885 21.3223 18.7676 20.8301L19.4707 16.3037C19.6553 15.1875 19.207 14.5811 17.9766 14.291L14.0654 13.377V13.2803C14.417 13.1133 14.6719 12.7969 14.8213 12.4277L17.458 12.085C18.6445 11.9268 19.1895 11.2412 19.1895 10.0635V7.04883C19.1895 6.56543 18.8994 6.28418 18.4248 6.28418C17.9502 6.28418 17.6689 6.57422 17.6689 7.04883V9.74707C17.6689 10.415 17.3086 10.626 16.7021 10.7051L14.8477 10.9512C14.751 10.6875 14.5752 10.4502 14.3379 10.292V10.1953C15.8672 9.92285 16.6318 9 16.6318 7.6377C16.6318 6.56543 16.2539 5.56348 15.6299 4.76367L15.7266 4.70215C16.6406 4.05176 16.7988 3.10254 16.2188 2.04785L15.7002 1.19531C15.5244 0.861328 15.3047 0.711914 15.0059 0.711914C14.6104 0.711914 14.3115 1.01074 14.3115 1.38867C14.3115 1.55566 14.3379 1.65234 14.4346 1.83691L14.8828 2.52246C15.1729 3.02344 15.1289 3.4541 14.6895 3.77051L14.6191 3.82324C13.8721 3.2959 12.9668 2.98828 11.9912 2.98828C11.0332 2.98828 10.1279 3.2959 9.38086 3.80566L9.31934 3.77051C8.88867 3.4541 8.84473 3.02344 9.13477 2.52246L9.57422 1.83691C9.67969 1.65234 9.70605 1.55566 9.70605 1.38867C9.70605 1.01074 9.40723 0.711914 9.01172 0.711914C8.7041 0.711914 8.49316 0.861328 8.30859 1.19531L7.79883 2.04785C7.21875 3.10254 7.37695 4.05176 8.29102 4.70215L8.37012 4.75488C7.7373 5.55469 7.35059 6.55664 7.35059 7.6377C7.35059 9 8.11523 9.92285 9.64453 10.1953V10.292C9.40723 10.4502 9.24023 10.6875 9.13477 10.9512L7.28906 10.7051C6.67383 10.626 6.31348 10.415 6.31348 9.74707V7.04883C6.31348 6.57422 6.04102 6.28418 5.55762 6.28418C5.08301 6.28418 4.80176 6.56543 4.80176 7.04883V10.0635C4.80176 11.2412 5.34668 11.9268 6.5332 12.085L9.16992 12.4277C9.31934 12.7969 9.57422 13.1133 9.92578 13.2803V13.377L6.00586 14.291C4.78418 14.5811 4.33594 15.1875 4.51172 16.3037L5.22363 20.8301C5.30273 21.3223 5.52246 21.6211 6.01465 21.6211ZM10.4443 8.81543C9.49512 8.81543 8.95898 8.36719 8.95898 7.57617C8.95898 5.98535 10.374 4.60547 11.9912 4.60547C13.6084 4.60547 15.0322 5.98535 15.0322 7.57617C15.0322 8.36719 14.4961 8.81543 13.5469 8.81543H10.4443ZM10.4619 11.5928C10.4619 10.8105 10.9453 10.3535 11.7891 10.3535H12.2109C13.0459 10.3535 13.5205 10.8105 13.5205 11.5928C13.5205 12.5771 12.8701 13.4033 12.0791 13.4033H11.9121C11.1211 13.4033 10.4619 12.5771 10.4619 11.5928ZM11.9912 20.417C10.2158 20.417 8.87109 18.3428 8.87109 16.6377C8.87109 15.5039 9.52148 14.8184 10.8047 14.8184H13.1777C14.4609 14.8184 15.1201 15.5039 15.1201 16.6377C15.1201 18.3428 13.7666 20.417 11.9912 20.417Z" fill="#1C1C1E"/>
</g>
<defs>
<clipPath id="clip0_10_1169">
<rect width="24" height="24" fill="white"/>
</clipPath>
</defs>
</svg>
