<svg width="24" height="24" viewBox="0 0 24 24" fill="none" xmlns="http://www.w3.org/2000/svg">
<g clip-path="url(#clip0_10_1177)">
<path d="M16.2275 13.3594L18.0908 11.0654C18.249 10.8633 18.3369 10.6787 18.3369 10.4678C18.3369 10.1074 18.0557 9.84375 17.6602 9.83496L12.7207 9.75586L15.2344 2.61914C15.5771 1.65234 14.6104 1.15137 13.9688 1.93359L9.87305 7.00488L16.2275 13.3594ZM18.2139 18.8701C18.4863 19.1426 18.9346 19.1426 19.1982 18.8701C19.4707 18.6064 19.4795 18.1494 19.1982 17.877L5.61914 4.29785C5.34668 4.03418 4.88965 4.02539 4.62598 4.29785C4.35352 4.56152 4.35352 5.02734 4.62598 5.29102L18.2139 18.8701ZM9.86426 21.2432L13.9512 16.1719L7.58789 9.81738L5.74219 12.1113C5.58398 12.3047 5.49609 12.4893 5.49609 12.7002C5.49609 13.0693 5.77734 13.333 6.17285 13.333L11.1035 13.4121L8.59863 20.5488C8.26465 21.5156 9.22266 22.0254 9.86426 21.2432Z" fill="#1C1C1E"/>
</g>
<defs>
<clipPath id="clip0_10_1177">
<rect width="24" height="24" fill="white"/>
</clipPath>
</defs>
</svg>
