<svg width="24" height="24" viewBox="0 0 24 24" fill="none" xmlns="http://www.w3.org/2000/svg">
<g clip-path="url(#clip0_10_1191)">
<path d="M11.9912 20.7598C16.9746 20.7598 21.0879 16.6465 21.0879 11.6631C21.0879 6.68848 16.9658 2.5752 11.9824 2.5752C7.00781 2.5752 2.90332 6.68848 2.90332 11.6631C2.90332 16.6465 7.0166 20.7598 11.9912 20.7598ZM13.9424 6.24902L12.3867 10.3799L10.7432 8.72754L13.1074 5.7832C13.5029 5.28223 14.1621 5.625 13.9424 6.24902ZM16.0957 16.4268L7.21875 7.55859C7.04297 7.38281 7.04297 7.08398 7.21875 6.9082C7.40332 6.72363 7.70215 6.72363 7.88672 6.9082L16.7549 15.7764C16.9307 15.9521 16.9307 16.2334 16.7549 16.4268C16.5703 16.6025 16.2715 16.5938 16.0957 16.4268ZM12.5361 10.5205H15.3311C15.5684 10.5205 15.7793 10.7051 15.7793 10.96C15.7793 11.0742 15.7178 11.2061 15.6211 11.3291L14.6016 12.5947L12.5361 10.5205ZM11.2617 12.6123H8.55469C8.2998 12.6123 8.09766 12.4277 8.09766 12.1816C8.09766 12.0586 8.15918 11.9268 8.25586 11.8037L9.23145 10.582L11.2617 12.6123ZM13.0986 14.458L10.7168 17.4287C10.3125 17.9297 9.64453 17.5781 9.87305 16.9629L11.4287 12.7793L13.0986 14.458Z" fill="#1C1C1E"/>
</g>
<defs>
<clipPath id="clip0_10_1191">
<rect width="24" height="24" fill="white"/>
</clipPath>
</defs>
</svg>
