<svg width="24" height="24" viewBox="0 0 24 24" fill="none" xmlns="http://www.w3.org/2000/svg">
<g clip-path="url(#clip0_10_1186)">
<path d="M11.9912 20.7422C16.9746 20.7422 21.0879 16.6289 21.0879 11.6543C21.0879 6.67969 16.9658 2.56641 11.9824 2.56641C7.00781 2.56641 2.90332 6.67969 2.90332 11.6543C2.90332 16.6289 7.0166 20.7422 11.9912 20.7422ZM11.9912 18.9316C7.95703 18.9316 4.73145 15.6885 4.73145 11.6543C4.73145 7.62012 7.95703 4.38574 11.9824 4.38574C16.0166 4.38574 19.2598 7.62012 19.2686 11.6543C19.2773 15.6885 16.0254 18.9316 11.9912 18.9316ZM8.18555 12.2432C8.18555 12.4805 8.37891 12.6562 8.625 12.6562H11.499L9.96973 16.752C9.74121 17.3496 10.374 17.6748 10.7695 17.2002L15.5068 11.3203C15.6035 11.2061 15.6562 11.0742 15.6562 10.9512C15.6562 10.7139 15.4629 10.5469 15.2256 10.5469H12.3428L13.8721 6.44238C14.1006 5.85352 13.4678 5.51953 13.0723 5.99414L8.34375 11.8828C8.23828 11.9971 8.18555 12.1289 8.18555 12.2432Z" fill="#1C1C1E"/>
</g>
<defs>
<clipPath id="clip0_10_1186">
<rect width="24" height="24" fill="white"/>
</clipPath>
</defs>
</svg>
