<svg width="24" height="24" viewBox="0 0 24 24" fill="none" xmlns="http://www.w3.org/2000/svg">
<g clip-path="url(#clip0_10_1181)">
<path d="M9.94336 21.2432L18.1787 10.749C18.3369 10.5469 18.416 10.3623 18.416 10.1514C18.416 9.79102 18.1348 9.51855 17.748 9.51855H12.7207L15.3223 2.61914C15.6826 1.65234 14.6719 1.14258 14.0566 1.93359L5.82129 12.4277C5.66309 12.6211 5.58398 12.8057 5.58398 13.0166C5.58398 13.3857 5.86523 13.6582 6.25195 13.6582H11.2793L8.67773 20.5488C8.31738 21.5156 9.32812 22.0342 9.94336 21.2432ZM13.4854 12.2256H8.01855L12.8789 5.80078L10.5059 10.9424H15.9814L11.1211 17.376L13.4854 12.2256Z" fill="#1C1C1E"/>
</g>
<defs>
<clipPath id="clip0_10_1181">
<rect width="24" height="24" fill="white"/>
</clipPath>
</defs>
</svg>
