<svg width="24" height="24" viewBox="0 0 24 24" fill="none" xmlns="http://www.w3.org/2000/svg">
<g clip-path="url(#clip0_10_1175)">
<path d="M11.9912 20.751C16.9746 20.751 21.0879 16.6377 21.0879 11.6631C21.0879 6.67969 16.9658 2.56641 11.9824 2.56641C7.00781 2.56641 2.90332 6.67969 2.90332 11.6631C2.90332 16.6377 7.0166 20.751 11.9912 20.751ZM11.9912 18.9316C7.95703 18.9316 4.73145 15.6885 4.73145 11.6631C4.73145 7.62891 7.95703 4.38574 11.9824 4.38574C16.0166 4.38574 19.2598 7.62891 19.2686 11.6631C19.2773 15.6885 16.0254 18.9316 11.9912 18.9316ZM13.8633 6.45117C14.083 5.85352 13.4502 5.51953 13.0635 6.00293L10.7783 8.8418L12.3691 10.4326L13.8633 6.45117ZM15.9463 16.2422C16.1133 16.4092 16.4033 16.4092 16.5703 16.2422C16.7461 16.0664 16.7461 15.7939 16.5703 15.6182L8.03613 7.08398C7.86035 6.9082 7.5791 6.9082 7.40332 7.08398C7.22754 7.25098 7.23633 7.53223 7.40332 7.70801L15.9463 16.2422ZM12.5098 10.5732L14.4961 12.5596L15.4717 11.3379C15.5684 11.2148 15.6299 11.1006 15.6299 10.9775C15.6299 10.7402 15.4365 10.5732 15.1904 10.5732H12.5098ZM11.2969 12.5684L9.3457 10.6172L8.39648 11.7949C8.30859 11.918 8.24707 12.041 8.24707 12.1553C8.24707 12.3926 8.44043 12.5684 8.67773 12.5684H11.2969ZM13.0635 14.335L11.4551 12.7266L9.95215 16.7607C9.73242 17.3496 10.374 17.6836 10.7607 17.209L13.0635 14.335Z" fill="#1C1C1E"/>
</g>
<defs>
<clipPath id="clip0_10_1175">
<rect width="24" height="24" fill="white"/>
</clipPath>
</defs>
</svg>
