<svg width="24" height="24" viewBox="0 0 24 24" fill="none" xmlns="http://www.w3.org/2000/svg">
<g clip-path="url(#clip0_10_1180)">
<path d="M11.9912 20.7598C16.9746 20.7598 21.0879 16.6465 21.0879 11.6631C21.0879 6.68848 16.9658 2.5752 11.9824 2.5752C7.00781 2.5752 2.90332 6.68848 2.90332 11.6631C2.90332 16.6465 7.0166 20.7598 11.9912 20.7598ZM8.04492 12.2695C8.04492 12.1553 8.09766 12.0146 8.19434 11.9004L13.1162 5.7832C13.5205 5.28223 14.1885 5.63379 13.9512 6.24902L12.3604 10.5029H15.3486C15.6035 10.5029 15.8057 10.6875 15.8057 10.9336C15.8057 11.0566 15.7441 11.1973 15.6475 11.3115L10.7256 17.4287C10.3213 17.9209 9.65332 17.5781 9.89062 16.9629L11.4814 12.709H8.49316C8.23828 12.709 8.04492 12.5244 8.04492 12.2695Z" fill="#1C1C1E"/>
</g>
<defs>
<clipPath id="clip0_10_1180">
<rect width="24" height="24" fill="white"/>
</clipPath>
</defs>
</svg>
