<svg width="24" height="24" viewBox="0 0 24 24" fill="none" xmlns="http://www.w3.org/2000/svg">
<g clip-path="url(#clip0_10_1179)">
<path d="M10.0137 7.06641L11.0947 8.14746L12.9053 5.74805L11.5957 8.64844L13.8896 10.9424H15.9727L15.0762 12.1289L16.2012 13.2539L18.1699 10.749C18.3281 10.5469 18.416 10.3623 18.416 10.1514C18.416 9.79102 18.1348 9.51855 17.7393 9.51855H12.7119L15.3135 2.61914C15.6826 1.65234 14.6631 1.14258 14.0479 1.93359L10.0137 7.06641ZM18.293 18.8701C18.5654 19.1426 19.0137 19.1426 19.2773 18.8701C19.5498 18.6064 19.5586 18.1494 19.2773 17.877L5.69824 4.29785C5.42578 4.03418 4.96875 4.02539 4.70508 4.29785C4.43262 4.56152 4.43262 5.02734 4.70508 5.29102L18.293 18.8701ZM5.5752 13.0166C5.5752 13.3857 5.85645 13.6582 6.25195 13.6582H11.2793L8.67773 20.5488C8.30859 21.5156 9.32812 22.0342 9.94336 21.2432L13.9688 16.1104L12.8877 15.0293L11.0859 17.4111L12.3867 14.5283L10.084 12.2256H8.00977L8.91504 11.0479L7.78125 9.92285L5.82129 12.4277C5.66309 12.6211 5.5752 12.8057 5.5752 13.0166Z" fill="#1C1C1E"/>
</g>
<defs>
<clipPath id="clip0_10_1179">
<rect width="24" height="24" fill="white"/>
</clipPath>
</defs>
</svg>
