<svg width="24" height="24" viewBox="0 0 24 24" fill="none" xmlns="http://www.w3.org/2000/svg">
<g clip-path="url(#clip0_10_1189)">
<path d="M5.25 20.1006H18.75C20.2881 20.1006 21.2725 18.9668 21.2725 17.5693C21.2725 17.1475 21.167 16.7168 20.9385 16.3213L14.1709 4.52637C13.6963 3.68262 12.8525 3.25195 12 3.25195C11.1475 3.25195 10.2949 3.69141 9.82031 4.52637L3.05273 16.3301C2.82422 16.7256 2.71875 17.1475 2.71875 17.5693C2.71875 18.9668 3.71191 20.1006 5.25 20.1006ZM5.41699 18.4131C4.87207 18.4131 4.51172 17.9648 4.51172 17.4814C4.51172 17.3408 4.5293 17.165 4.61719 17.0068L11.209 5.4668C11.3848 5.16797 11.6924 5.02734 12 5.02734C12.3076 5.02734 12.6064 5.16797 12.7734 5.4668L19.374 17.0244C19.4531 17.1738 19.4883 17.3408 19.4883 17.4814C19.4883 17.9648 19.1191 18.4131 18.5742 18.4131H5.41699ZM12.0088 16.5146C13.2832 16.5146 14.3379 15.5127 14.3379 14.2383C14.3379 13.5088 13.9775 12.8145 13.626 12.1641L12.2197 9.57129C12.1758 9.4834 12.0967 9.43066 12.0088 9.43066C11.9033 9.43066 11.8418 9.4834 11.7979 9.58008L10.3828 12.1641C10.0312 12.8145 9.67969 13.5088 9.67969 14.2383C9.67969 15.5127 10.7256 16.5146 12.0088 16.5146Z" fill="#1C1C1E"/>
</g>
<defs>
<clipPath id="clip0_10_1189">
<rect width="24" height="24" fill="white"/>
</clipPath>
</defs>
</svg>
