<svg width="24" height="24" viewBox="0 0 24 24" fill="none" xmlns="http://www.w3.org/2000/svg">
<g clip-path="url(#clip0_10_1182)">
<path d="M5.10059 20.1006H18.8906C20.2529 20.1006 21.1318 19.0898 21.1318 17.8506C21.1318 17.4814 21.0352 17.1035 20.8418 16.752L13.9336 4.41211C13.5117 3.64746 12.7559 3.26074 12 3.26074C11.2441 3.26074 10.4795 3.64746 10.0576 4.41211L3.1582 16.752C2.96484 17.1123 2.85938 17.4814 2.85938 17.8506C2.85938 19.0898 3.73828 20.1006 5.10059 20.1006ZM12.0264 16.5498C10.6904 16.5498 9.5918 15.4951 9.5918 14.168C9.5918 13.4033 9.96973 12.6738 10.3389 11.9883L11.7979 9.29004C11.8594 9.18457 11.9209 9.12305 12.0264 9.12305C12.1318 9.12305 12.2109 9.18457 12.2637 9.28125L13.7227 11.9883C14.0918 12.6738 14.4609 13.4033 14.4609 14.168C14.4609 15.4951 13.3623 16.5498 12.0264 16.5498Z" fill="#1C1C1E"/>
</g>
<defs>
<clipPath id="clip0_10_1182">
<rect width="24" height="24" fill="white"/>
</clipPath>
</defs>
</svg>
