<svg width="24" height="24" viewBox="0 0 24 24" fill="none" xmlns="http://www.w3.org/2000/svg">
<g clip-path="url(#clip0_10_1188)">
<path d="M11.9912 20.7158C15.4805 20.7158 18.2578 18 18.2578 14.5986C18.2578 12.7178 17.3174 10.8721 16.5264 9.37793L13.3271 3.41016C13.0195 2.85645 12.5713 2.58398 11.9912 2.58398C11.4111 2.58398 10.9541 2.86523 10.6641 3.41016L7.46484 9.37793C6.66504 10.8721 5.7334 12.7178 5.7334 14.5986C5.7334 18 8.51074 20.7158 11.9912 20.7158ZM11.9912 18.9404C9.50391 18.9404 7.50879 17.0244 7.50879 14.5986C7.50879 13.1133 8.25586 11.707 9.05566 10.2217L11.9121 4.9043C11.9473 4.80762 12.0527 4.80762 12.0967 4.9043L14.9355 10.2217C15.7354 11.707 16.4824 13.1133 16.4824 14.5986C16.4824 17.0244 14.4873 18.9404 11.9912 18.9404Z" fill="#1C1C1E"/>
</g>
<defs>
<clipPath id="clip0_10_1188">
<rect width="24" height="24" fill="white"/>
</clipPath>
</defs>
</svg>
