<svg width="24" height="24" viewBox="0 0 24 24" fill="none" xmlns="http://www.w3.org/2000/svg">
<g clip-path="url(#clip0_10_1178)">
<path d="M11.5781 20.4961C16.3154 20.4961 19.4795 17.3057 19.4795 12.498C19.4795 4.54395 12.6768 1.21289 7.9834 1.21289C7.06934 1.21289 6.48047 1.55566 6.48047 2.20605C6.48047 2.46094 6.59473 2.71582 6.79688 2.95312C7.88672 4.2627 8.87988 5.67773 8.89746 7.36523C8.89746 7.53223 8.88867 7.69043 8.85352 7.84863C8.33496 6.75879 7.47363 6.14355 6.69141 6.14355C6.26953 6.14355 5.98828 6.43359 5.98828 6.89062C5.98828 7.17188 6.05859 7.64648 6.05859 8.08594C6.05859 10.1074 4.52051 11.1357 4.52051 14.3789C4.52051 18.0527 7.33301 20.4961 11.5781 20.4961ZM11.7891 17.7627C10.1543 17.7627 9.07324 16.7871 9.07324 15.3193C9.07324 13.7988 10.1455 13.2979 10.2861 12.2344C10.2949 12.1201 10.3916 12.0762 10.4795 12.1553C10.8662 12.5068 11.1299 12.9551 11.332 13.4824C11.7803 12.7969 11.9473 11.5312 11.7891 10.1777C11.7715 10.0459 11.8594 9.98438 11.9736 10.0371C13.8721 10.8984 14.8828 12.7705 14.8828 14.5371C14.8828 16.2949 13.8281 17.7627 11.7891 17.7627Z" fill="#1C1C1E"/>
</g>
<defs>
<clipPath id="clip0_10_1178">
<rect width="24" height="24" fill="white"/>
</clipPath>
</defs>
</svg>
