<svg width="24" height="24" viewBox="0 0 24 24" fill="none" xmlns="http://www.w3.org/2000/svg">
<g clip-path="url(#clip0_10_1184)">
<path d="M11.5781 20.4961C16.3154 20.4961 19.4795 17.3057 19.4795 12.498C19.4795 4.54395 12.6768 1.21289 7.9834 1.21289C7.06934 1.21289 6.48047 1.55566 6.48047 2.20605C6.48047 2.46094 6.59473 2.71582 6.79688 2.95312C7.88672 4.2627 8.87988 5.67773 8.89746 7.36523C8.89746 7.53223 8.88867 7.69043 8.85352 7.84863C8.33496 6.75879 7.47363 6.14355 6.69141 6.14355C6.26953 6.14355 5.98828 6.43359 5.98828 6.89062C5.98828 7.17188 6.05859 7.64648 6.05859 8.08594C6.05859 10.1074 4.52051 11.1357 4.52051 14.3789C4.52051 18.0527 7.33301 20.4961 11.5781 20.4961ZM11.6748 18.9932C8.29102 18.9932 6.03223 17.1387 6.03223 14.3789C6.03223 11.6191 7.53516 10.7402 7.52637 8.22656C7.52637 8.15625 7.52637 8.09473 7.52637 8.04199C7.97461 8.56055 8.30859 9.28125 8.50195 10.1777C8.55469 10.4238 8.68652 10.5469 8.87988 10.5469C9.68848 10.5469 10.2334 8.72754 10.2334 7.44434C10.2334 5.67773 9.56543 3.96387 8.44922 2.68945C14.2148 3.17285 17.915 7.14551 17.915 12.4453C17.915 16.3652 15.4102 18.9932 11.6748 18.9932ZM11.7891 17.7627C13.8105 17.7627 14.8564 16.3037 14.8564 14.5635C14.8564 12.8145 13.8545 10.96 11.9736 10.0986C11.8682 10.0547 11.7715 10.1162 11.7979 10.2393C11.9473 11.5928 11.7803 12.8408 11.332 13.5176C11.1299 12.9902 10.875 12.5596 10.4971 12.208C10.4004 12.1289 10.3125 12.1729 10.2949 12.2783C10.1631 13.333 9.09961 13.834 9.09961 15.3457C9.09961 16.7959 10.1719 17.7627 11.7891 17.7627Z" fill="#1C1C1E"/>
</g>
<defs>
<clipPath id="clip0_10_1184">
<rect width="24" height="24" fill="white"/>
</clipPath>
</defs>
</svg>
