<svg width="24" height="24" viewBox="0 0 24 24" fill="none" xmlns="http://www.w3.org/2000/svg">
<g clip-path="url(#clip0_10_1172)">
<path d="M12.6416 19.9336C13.2568 19.9336 13.8369 19.6348 14.9971 19.6348C16.166 19.6348 16.5 19.9336 17.3701 19.9336C18.6621 19.9336 19.3828 19.3799 19.3828 18.457C19.3828 16.9102 17.7744 15.7852 15.1113 15.7852C13.7666 15.7852 13.1777 15.9521 12.4131 16.1279L11.4375 13.9219C10.4619 11.8037 8.82715 10.5381 6.70898 10.5381H5.66309C5.27637 10.5381 5.03027 10.3623 5.03027 9.99316C5.03027 9.39551 5.79492 9.24609 6.63867 9.24609C9.27539 9.24609 11.3057 10.6611 12.5361 13.5527L13.1338 14.9678C13.7227 14.8447 14.3643 14.792 15.0146 14.792C15.542 14.792 16.0254 14.8271 16.5352 14.915C17.0801 14.5547 17.6953 14.1768 18.4951 13.8076C19.4971 14.4756 20.6133 14.9854 22.002 14.9854C24.2871 14.9854 25.3945 14.3877 25.3945 12.0674C25.3945 9.28125 23.417 7.06641 20.5869 7.11914L18.3281 4.00781C17.0361 2.25879 15.4102 1.43262 13.8281 1.43262C12.5361 1.43262 10.4971 2.16211 10.4971 3.19922C10.4971 3.88477 11.9385 4.87793 13.0459 5.58105L18.0469 8.70996C17.6514 9.07031 17.3174 9.28125 16.834 9.28125C16.1221 9.28125 15.3662 8.83301 14.3467 8.24414C11.5869 6.60938 9.58301 5.15039 6.67383 5.15039C3.76465 5.15039 1.45312 6.79395 0.266602 10.1689C-0.691406 10.1689 -1.40332 10.7754 -1.40332 11.6807C-1.40332 12.6914 -0.594727 13.3242 0.521484 13.3242C1.82227 15.2754 3.85254 16.0137 6.43652 16.0137C6.57715 16.0137 6.72656 16.0137 6.86719 16.0049L10.4619 19.002C11.3408 19.793 11.9473 19.9336 12.6416 19.9336ZM21.5977 11.6982C21.1758 11.6982 20.833 11.3379 20.833 10.916C20.833 10.4766 21.1846 10.1074 21.6064 10.1074C22.0459 10.1074 22.3887 10.4502 22.3887 10.8721C22.3887 11.3115 22.0371 11.6982 21.5977 11.6982ZM6.05859 20.6367C7.71973 20.6367 8.75684 20.3291 9.61816 19.749L6.91113 17.4902C6.78809 17.5078 6.64746 17.5166 6.47168 17.5166C6.04102 17.5166 5.3291 17.3848 4.56445 17.3848C3.58887 17.3848 2.98242 17.9033 2.98242 18.6855C2.98242 19.8633 4.19531 20.6367 6.05859 20.6367Z" fill="#1C1C1E"/>
</g>
<defs>
<clipPath id="clip0_10_1172">
<rect width="24" height="24" fill="white"/>
</clipPath>
</defs>
</svg>
