<svg width="24" height="24" viewBox="0 0 24 24" fill="none" xmlns="http://www.w3.org/2000/svg">
<g clip-path="url(#clip0_10_1174)">
<path d="M6.07617 21.3047C7.77246 21.3047 9.37207 20.874 10.585 19.7666C11.0859 20.1357 11.6572 20.3115 12.4482 20.3115C13.1953 20.3115 13.8193 20.083 14.8213 20.083C15.7793 20.083 16.3154 20.3291 17.0977 20.3291C18.9258 20.3291 19.6729 19.3711 19.6729 18.2812C19.6729 16.6553 18.3809 15.5391 15.9463 15.293C16.7549 14.8799 17.5283 14.5635 18.0732 14.3438C19.1191 15.0205 20.6748 15.4424 21.791 15.4336C24.3047 15.416 25.7637 14.6074 25.7637 12.1904C25.7637 9.17578 23.5137 6.9082 20.7363 6.83789L18.8555 4.22754C17.4229 2.26758 15.832 1.16895 13.749 1.16895C12.1582 1.16895 10.0576 2.03906 10.0576 3.38379C10.0576 4.38574 11.0771 5.07129 12.2373 5.81836C13.4766 6.60938 15.4453 7.78711 16.9482 8.6748C16.7549 8.8418 16.5967 8.9209 16.3945 8.9209C16.0957 8.9209 15.6387 8.75391 15.1641 8.45508C11.71 6.54785 9.56543 4.85156 6.7793 4.85156C3.57129 4.85156 1.24219 6.5127 0.125977 9.72949C-1.0166 9.95801 -1.76367 10.7051 -1.76367 11.8389C-1.76367 13.2188 -0.665039 13.9658 0.547852 14.0098C1.41797 15.4336 3.73828 16.6113 6.66504 16.374L7.38574 16.998C7.13086 17.1123 6.88477 17.1387 6.62109 17.1387C5.93555 17.1299 5.39941 16.9541 4.72266 16.9541C3.45703 16.9541 2.57812 17.71 2.57812 18.835C2.57812 20.3994 3.97559 21.3047 6.07617 21.3047ZM14.7686 18.6416C13.7402 18.6416 12.9229 18.791 12.4834 18.791C12.0791 18.791 11.6836 18.7383 11.2969 18.4131L7.35059 14.9062C4.51172 15.0469 2.5166 14.3262 1.33887 12.6387C0.46875 12.7266 -0.164062 12.4014 -0.164062 11.7158C-0.164062 11.0742 0.442383 10.6523 1.36523 10.6875C2.27051 7.78711 4.13379 6.43359 6.76172 6.43359C9.60059 6.43359 12.3252 8.65723 14.6367 9.90527C15.3047 10.2744 16.0078 10.415 16.4824 10.415C17.5723 10.415 18.3896 9.73828 18.9521 8.42871L13.1689 4.72852C12.5801 4.36816 11.8506 3.79688 11.8506 3.56836C11.8506 3.06738 12.9404 2.71582 13.7666 2.71582C15.1201 2.71582 16.2275 3.49805 17.2646 4.72852L20.0508 8.0332C22.5381 7.94531 24.3486 9.81738 24.3486 12.1992C24.3486 13.6846 23.6719 14.124 21.835 14.124C20.7188 14.124 19.4355 13.6846 18.3018 12.9902C16.6494 13.4209 14.9443 14.2471 13.6611 15.2842C13.4766 15.3018 13.3359 15.3193 13.2041 15.3457L12.5801 13.7725C11.2969 10.6084 9.15234 9.43945 6.91113 9.43945C6.55078 9.43945 6.1377 9.44824 5.75977 9.52734C5.27637 9.6416 5.0918 9.87012 5.0918 10.1865C5.0918 10.5908 5.39062 10.8545 5.8125 10.8457C6.16406 10.8369 6.4541 10.7842 6.86719 10.7842C8.81836 10.7842 10.207 11.8477 11.4375 14.6777L12.3252 16.7783C13.0195 16.6377 13.7051 16.5234 14.8213 16.5234C16.5615 16.5234 18.126 17.0244 18.126 18.123C18.126 18.5449 17.7568 18.8613 17.0977 18.8613C16.2275 18.8613 15.5771 18.6416 14.7686 18.6416ZM21.2373 11.6543C21.6855 11.6543 22.0547 11.2852 22.0547 10.8457C22.0547 10.3975 21.6855 10.0283 21.2373 10.0283C20.7979 10.0283 20.4287 10.3975 20.4287 10.8457C20.4287 11.2852 20.7979 11.6543 21.2373 11.6543ZM4.08105 18.8525C4.08105 18.5098 4.30957 18.2549 4.78418 18.2549C5.30273 18.2549 5.84766 18.4043 6.48926 18.4043C7.30664 18.4043 7.93066 18.3164 8.49316 17.9648L9.5127 18.8525C8.73926 19.5645 7.5 19.9512 6.06738 19.9512C4.87207 19.9512 4.08105 19.5293 4.08105 18.8525Z" fill="#1C1C1E"/>
</g>
<defs>
<clipPath id="clip0_10_1174">
<rect width="24" height="24" fill="white"/>
</clipPath>
</defs>
</svg>
