<svg width="24" height="24" viewBox="0 0 24 24" fill="none" xmlns="http://www.w3.org/2000/svg">
<g clip-path="url(#clip0_10_1190)">
<path d="M7.20996 6.38086C7.20996 6.86426 7.39453 7.22461 8.01855 7.53223C8.98535 7.99805 10.4707 8.2793 12 8.2793C13.5293 8.2793 15.0146 7.99805 15.9902 7.53223C16.6143 7.22461 16.79 6.86426 16.79 6.38086C16.79 5.19434 16.1221 4.13965 14.9619 3.48926L14.9092 3.28711C14.8477 3.01465 14.9707 2.83008 15.3398 2.71582L15.9111 2.50488C16.8691 2.23242 16.4033 0.791016 15.4189 1.125L14.7334 1.38867C13.9424 1.66992 13.5117 2.21484 13.4854 2.95312C13.0283 2.84766 12.5273 2.79492 12 2.79492C11.4727 2.79492 10.9717 2.84766 10.5146 2.95312C10.4883 2.21484 10.0576 1.66992 9.2666 1.38867L8.58105 1.125C7.59668 0.791016 7.13086 2.23242 8.08887 2.50488L8.66016 2.71582C9.0293 2.83008 9.15234 3.01465 9.09082 3.28711L9.03809 3.49805C7.87793 4.14844 7.20996 5.19434 7.20996 6.38086ZM11.3672 21.5156V11.584C11.3672 11.2324 11.6484 10.9512 12 10.9512C12.3516 10.9512 12.6328 11.2324 12.6328 11.584V21.5156C12.6328 21.9902 12.9668 22.2188 13.5645 22.1396C15.4014 21.876 16.9307 21.0234 18.0293 19.7314L19.1719 20.6982C19.541 21.0146 20.0156 21.0322 20.3145 20.6719C20.6133 20.3203 20.5078 19.8369 20.1475 19.5293L18.8818 18.4658C19.4883 17.332 19.8398 15.9697 19.8838 14.458L21.334 14.4668C21.8262 14.4668 22.1514 14.1592 22.1514 13.7021C22.1514 13.2539 21.8262 12.9463 21.334 12.9463L19.7959 12.9375C19.6377 11.7861 19.2773 10.582 18.75 9.66797L20.209 8.47266C20.5781 8.17383 20.6748 7.68164 20.376 7.33008C20.0859 6.96973 19.6113 6.99609 19.2334 7.3125L17.792 8.49902C17.3613 8.18262 17.0537 8.19141 16.79 8.30566C15.4629 8.94727 13.7842 9.31641 12 9.31641C10.2158 9.31641 8.5459 8.94727 7.21875 8.30566C6.94629 8.19141 6.63867 8.18262 6.2168 8.49902L4.7666 7.3125C4.38867 6.99609 3.92285 6.96973 3.62402 7.33008C3.3252 7.68164 3.43066 8.17383 3.79102 8.47266L5.25 9.66797C4.72266 10.582 4.3623 11.7861 4.21289 12.9375L2.66602 12.9463C2.17383 12.9463 1.84863 13.2539 1.84863 13.7021C1.84863 14.1592 2.17383 14.4668 2.66602 14.4668L4.125 14.458C4.16016 15.9697 4.51172 17.332 5.11816 18.4658L3.86133 19.5293C3.49219 19.8369 3.39551 20.3203 3.69434 20.6719C3.98438 21.0322 4.46777 21.0146 4.83691 20.6982L5.97949 19.7314C7.06934 21.0234 8.59863 21.876 10.4355 22.1396C11.0332 22.2188 11.3672 21.9902 11.3672 21.5156ZM8.47559 12.5771C7.83398 12.5771 7.31543 12.041 7.31543 11.4082C7.31543 10.7754 7.83398 10.248 8.47559 10.248C9.1084 10.248 9.63574 10.7754 9.63574 11.4082C9.63574 12.041 9.1084 12.5771 8.47559 12.5771ZM15.5332 12.5771C14.8916 12.5771 14.373 12.041 14.373 11.4082C14.373 10.7754 14.8916 10.248 15.5332 10.248C16.166 10.248 16.6846 10.7754 16.6846 11.4082C16.6846 12.041 16.166 12.5771 15.5332 12.5771ZM7.55273 16.4004C6.80566 16.4004 6.19922 15.7939 6.19922 15.0381C6.19922 14.3086 6.80566 13.7109 7.55273 13.7109C8.29102 13.7109 8.89746 14.3086 8.89746 15.0381C8.89746 15.7939 8.29102 16.4004 7.55273 16.4004ZM16.4473 16.4004C15.709 16.4004 15.1025 15.7939 15.1025 15.0381C15.1025 14.3086 15.709 13.7109 16.4473 13.7109C17.1943 13.7109 17.8008 14.3086 17.8008 15.0381C17.8008 15.7939 17.1943 16.4004 16.4473 16.4004ZM8.67773 19.626C8.12402 19.626 7.67578 19.1777 7.67578 18.6328C7.67578 18.0703 8.12402 17.6221 8.67773 17.6221C9.23145 17.6221 9.67969 18.0703 9.67969 18.6328C9.67969 19.1777 9.23145 19.626 8.67773 19.626ZM15.3311 19.626C14.7686 19.626 14.3203 19.1777 14.3203 18.6328C14.3203 18.0703 14.7686 17.6221 15.3311 17.6221C15.876 17.6221 16.3242 18.0703 16.3242 18.6328C16.3242 19.1777 15.876 19.626 15.3311 19.626Z" fill="#1C1C1E"/>
</g>
<defs>
<clipPath id="clip0_10_1190">
<rect width="24" height="24" fill="white"/>
</clipPath>
</defs>
</svg>
