<svg width="24" height="24" viewBox="0 0 24 24" fill="none" xmlns="http://www.w3.org/2000/svg">
<g clip-path="url(#clip0_10_1185)">
<path d="M12 22.2803C14.5312 22.2803 16.6055 21.3574 17.9941 19.749L19.1719 20.751C19.541 21.0586 20.0156 21.085 20.3145 20.7246C20.6133 20.3643 20.5078 19.8896 20.1475 19.582L18.8555 18.501C19.4883 17.3496 19.8486 15.9785 19.8838 14.4316H21.334C21.8262 14.4316 22.1514 14.1328 22.1514 13.6758C22.1514 13.2188 21.8262 12.9111 21.334 12.9111L19.7959 12.9023C19.6377 11.7598 19.2861 10.6436 18.7588 9.62402L20.209 8.4375C20.5781 8.13867 20.6748 7.65527 20.376 7.30371C20.0859 6.94336 19.6113 6.96973 19.2334 7.27734L17.9502 8.33203C17.6162 7.88379 17.2383 7.46191 16.8252 7.10156C16.7988 5.63379 16.1396 4.50879 15.0059 3.83203L14.918 3.4541C14.8564 3.18164 14.9795 3.00586 15.3398 2.8916L15.9111 2.68066C16.8779 2.4082 16.4033 0.949219 15.4189 1.2832L14.7334 1.55566C13.8896 1.85449 13.459 2.45215 13.4766 3.25195C13.0195 3.15527 12.5273 3.10254 12 3.10254C11.4727 3.10254 10.9805 3.15527 10.5234 3.25195C10.5498 2.45215 10.1104 1.85449 9.2666 1.55566L8.58105 1.2832C7.59668 0.949219 7.12207 2.4082 8.08887 2.68066L8.66895 2.8916C9.0293 3.00586 9.15234 3.18164 9.09082 3.4541L9.00293 3.83203C7.86914 4.50879 7.20117 5.63379 7.1748 7.11035C6.77051 7.4707 6.39258 7.88379 6.05859 8.34082L4.7666 7.27734C4.38867 6.96973 3.92285 6.94336 3.62402 7.30371C3.3252 7.65527 3.42188 8.13867 3.79102 8.4375L5.25 9.62402C4.72266 10.6348 4.3623 11.7598 4.2041 12.9023L2.66602 12.9111C2.17383 12.9111 1.84863 13.2188 1.84863 13.6758C1.84863 14.1328 2.17383 14.4316 2.66602 14.4316H4.125C4.16016 15.9785 4.52051 17.3496 5.14453 18.501L3.86133 19.582C3.49219 19.8896 3.39551 20.3643 3.69434 20.7246C3.98438 21.085 4.46777 21.0586 4.83691 20.751L6.01465 19.749C7.40332 21.3574 9.47754 22.2803 12 22.2803ZM12 9.34277C13.5381 9.34277 15.0762 9.06152 16.1309 8.63086C17.2471 9.82617 18.3281 11.7949 18.3281 14.1768C18.3281 17.8945 16.0605 20.4346 12.6064 20.6982V11.0391C12.6064 10.6875 12.3252 10.4062 11.9736 10.4062C11.6221 10.4062 11.3408 10.6875 11.3408 11.0391V20.6895C7.91309 20.3994 5.68066 17.8682 5.68066 14.1768C5.68066 11.8037 6.73535 9.84375 7.86914 8.63086C8.92383 9.06152 10.4707 9.34277 12 9.34277ZM9.16992 12.3838C9.81152 12.3838 10.3301 11.8652 10.3301 11.2324C10.3301 10.5996 9.81152 10.0723 9.16992 10.0723C8.5459 10.0723 8.02734 10.5996 8.02734 11.2324C8.02734 11.8564 8.5459 12.3838 9.16992 12.3838ZM14.8301 12.3838C15.4629 12.3838 15.9727 11.8564 15.9727 11.2324C15.9727 10.5996 15.4629 10.0723 14.8301 10.0723C14.1885 10.0723 13.6787 10.5996 13.6787 11.2324C13.6787 11.8652 14.1885 12.3838 14.8301 12.3838ZM8.11523 15.8994C8.84473 15.8994 9.45117 15.293 9.45117 14.5547C9.45117 13.8252 8.84473 13.2188 8.11523 13.2188C7.37695 13.2188 6.77051 13.8164 6.77051 14.5547C6.77051 15.293 7.37695 15.8994 8.11523 15.8994ZM15.8848 15.8994C16.623 15.8994 17.2295 15.293 17.2295 14.5547C17.2295 13.8164 16.623 13.2188 15.8848 13.2188C15.1553 13.2188 14.5488 13.8252 14.5488 14.5547C14.5488 15.293 15.1553 15.8994 15.8848 15.8994ZM9.16992 18.9141C9.75879 18.9141 10.2334 18.4395 10.2334 17.8594C10.2334 17.2793 9.75879 16.8047 9.16992 16.8047C8.59863 16.8047 8.11523 17.2793 8.11523 17.8594C8.11523 18.4395 8.59863 18.9141 9.16992 18.9141ZM14.8301 18.9141C15.4102 18.9141 15.8848 18.4395 15.8848 17.8594C15.8848 17.2793 15.4102 16.8047 14.8301 16.8047C14.2412 16.8047 13.7666 17.2793 13.7666 17.8594C13.7666 18.4395 14.2412 18.9141 14.8301 18.9141Z" fill="#1C1C1E"/>
</g>
<defs>
<clipPath id="clip0_10_1185">
<rect width="24" height="24" fill="white"/>
</clipPath>
</defs>
</svg>
