<svg width="24" height="24" viewBox="0 0 24 24" fill="none" xmlns="http://www.w3.org/2000/svg">
<g clip-path="url(#clip0_10_1167)">
<path d="M2.62207 4.29785C2.42871 5.19434 2.3584 6.38086 2.3584 7.18066C2.3584 13.834 6.33105 18.2373 12.4043 18.2373C15.3926 18.2373 17.1592 16.9102 18.0381 15.9346C18.7588 16.9541 19.1543 18.0352 19.6201 19.4854C19.752 19.916 20.0596 20.0918 20.4023 20.0918C21.0879 20.0918 21.6416 19.5029 21.6416 18.6855C21.6416 17.4551 19.8574 15.3193 18.9346 14.4492C15.0234 10.8193 9.07324 12.999 7.58789 9.06152C7.48242 8.78027 7.78125 8.56055 8.02734 8.82422C11.0771 11.9619 15.0762 9.34277 18.8555 12.8145C19.1982 13.1221 19.6201 12.9727 19.6816 12.6035C19.7256 12.3486 19.752 11.9531 19.752 11.5488C19.752 7.2334 16.7637 5.0625 12.4395 5.0625C11.0068 5.0625 9.33691 5.42285 8.03613 5.42285C6.63867 5.42285 5.05664 5.31738 3.78223 3.97266C3.37793 3.55078 2.77148 3.63867 2.62207 4.29785Z" fill="#1C1C1E"/>
</g>
<defs>
<clipPath id="clip0_10_1167">
<rect width="24" height="24" fill="white"/>
</clipPath>
</defs>
</svg>
