<svg width="24" height="24" viewBox="0 0 24 24" fill="none" xmlns="http://www.w3.org/2000/svg">
<g clip-path="url(#clip0_10_1166)">
<path d="M11.9912 20.751C16.9746 20.751 21.0879 16.6377 21.0879 11.6543C21.0879 8.81543 19.6729 6.12598 17.5459 4.52637C17.0713 4.13965 16.4912 4.20996 16.2012 4.62305C15.8848 5.05371 16.0254 5.57227 16.4297 5.93262C18.1611 7.25977 19.2598 9.30762 19.2686 11.6543C19.2773 15.6885 16.0254 18.9316 11.9912 18.9316C7.95703 18.9316 4.73145 15.6885 4.73145 11.6543C4.73145 8.24414 7.03418 5.40527 10.1807 4.60547V5.87988C10.1807 6.55664 10.6816 6.74121 11.2266 6.3457L14.1973 4.24512C14.6367 3.91992 14.6455 3.42773 14.1973 3.11133L11.2354 1.00195C10.6816 0.606445 10.1807 0.782227 10.1807 1.46777V2.75098C6.0498 3.60352 2.90332 7.29492 2.90332 11.6543C2.90332 16.6377 7.0166 20.751 11.9912 20.751ZM7.74609 8.80664C7.67578 9.20215 7.62305 9.7207 7.62305 10.0723C7.62305 12.999 9.37207 14.9502 12.0439 14.9502C13.3535 14.9502 14.1357 14.3613 14.5225 13.9219C14.8389 14.3701 15.0146 14.8447 15.2256 15.4951C15.2783 15.6797 15.4189 15.7588 15.5596 15.7588C15.8584 15.7588 16.1133 15.4951 16.1133 15.1436C16.1133 14.5986 15.3223 13.6582 14.918 13.2803C13.1865 11.6895 10.5762 12.6387 9.92578 10.8984C9.88184 10.7754 10.0049 10.6787 10.1279 10.7842C11.5605 12.0059 13.2217 11.0303 14.8828 12.5508C15.0322 12.6914 15.208 12.6211 15.2432 12.4629C15.2607 12.3486 15.2783 12.1729 15.2783 11.9971C15.2783 10.0986 13.96 9.14941 12.0615 9.14941C11.4287 9.14941 10.6992 9.30762 10.1279 9.30762C9.50391 9.30762 8.81836 9.24609 8.24707 8.66602C8.0625 8.49023 7.80762 8.5166 7.74609 8.80664Z" fill="#1C1C1E"/>
</g>
<defs>
<clipPath id="clip0_10_1166">
<rect width="24" height="24" fill="white"/>
</clipPath>
</defs>
</svg>
