<svg width="24" height="24" viewBox="0 0 24 24" fill="none" xmlns="http://www.w3.org/2000/svg">
<g clip-path="url(#clip0_10_1168)">
<path d="M2.55176 7.28613C2.55176 13.9219 6.54199 18.29 12.6592 18.29C14.9707 18.29 16.9131 17.4814 18.2227 16.1279C18.6885 17.1035 18.9258 18.2109 19.3213 19.4766C19.4619 19.9336 19.7871 20.127 20.1562 20.127C20.8682 20.127 21.4482 19.4678 21.4482 18.668C21.4482 17.5957 20.3848 15.8291 19.4004 14.4141C19.7871 13.5615 19.998 12.6123 19.998 11.5752C19.998 7.7959 16.9307 5.0625 12.6943 5.0625C11.2441 5.0625 9.80273 5.4668 8.21191 5.4668C6.86719 5.4668 5.75098 5.0625 4.81934 4.00781C4.22168 3.30469 3.08789 3.33105 2.82422 4.42969C2.60449 5.29102 2.55176 6.80273 2.55176 7.28613ZM7.71094 9.43066C8.24707 11.0654 9.91699 11.8213 12.0615 12.3398C14.9092 13.0078 16.21 13.5615 17.291 14.7656C16.2891 15.9697 14.6631 16.6904 12.6592 16.6904C7.44727 16.6904 4.15137 13.043 4.15137 7.28613C4.15137 6.80273 4.16016 6.25781 4.22168 5.8623C4.23926 5.73047 4.30957 5.71289 4.40625 5.7832C5.39062 6.60938 6.8584 7.06641 8.21191 7.06641C9.16113 7.06641 10.04 6.94336 10.8135 6.83789C11.5078 6.74121 12.1143 6.66211 12.6943 6.66211C16.0518 6.66211 18.4072 8.70117 18.4072 11.5752C18.4072 12.1025 18.3369 12.5947 18.1963 13.0518C16.957 12.041 15.1377 11.4082 12.5713 11.0039C10.7695 10.7139 9.3457 10.2832 8.40527 9.07031C8.07129 8.65723 7.55273 8.94727 7.71094 9.43066Z" fill="#1C1C1E"/>
</g>
<defs>
<clipPath id="clip0_10_1168">
<rect width="24" height="24" fill="white"/>
</clipPath>
</defs>
</svg>
