<svg width="24" height="24" viewBox="0 0 24 24" fill="none" xmlns="http://www.w3.org/2000/svg">
<g clip-path="url(#clip0_10_1170)">
<path d="M7.9043 11.4082C10.3125 11.3994 12.3428 10.5293 13.9248 8.77148C12.2988 6.74121 10.5674 5.80957 7.97461 5.79199C5.38184 5.79199 3.61523 6.67969 1.9541 8.81543C3.55371 10.5732 5.63672 11.4082 7.9043 11.4082ZM18.9434 15.8203C20.1035 15.3809 21.0527 14.4932 22.8281 14.4932C25.2012 14.4932 26.7217 13.6758 26.7217 12.3486C26.7217 9.29004 25.0957 7.22461 22.6523 7.22461C20.5518 7.22461 19.2773 8.53418 18.7324 10.5205C18.3809 11.7334 17.8623 12.3223 17.2207 12.7002C17.6602 13.4473 18.3105 14.7217 18.9434 15.8203ZM13.6436 16.9365C14.417 16.7168 15.1816 16.5762 16.1572 16.541C16.9043 16.5234 17.6338 16.4092 18.0117 16.1982C17.1416 14.8711 15.4893 11.127 14.584 9.70312C13.6348 10.6963 12.2285 11.584 11.1475 12.0059C11.3057 13.7021 12.2285 15.5918 13.6436 16.9365ZM2.15625 16.9717C3.52734 15.7324 4.59082 13.6934 4.7666 12.0322C3.55371 11.5928 2.16504 10.7666 1.24219 9.7998C0.837891 10.4238 0.416016 11.1182 0.0205078 11.8828C-0.761719 13.4297 -1.64941 14.1855 -2.23828 14.748C-2.5459 15.0469 -2.72168 15.3105 -2.72168 15.6973C-2.72168 16.2773 -2.15039 16.5938 -1.13965 16.5938H-0.111328C0.811523 16.5938 1.48828 16.7432 2.15625 16.9717ZM22.8545 11.5049C22.3799 11.5049 22.002 11.127 22.002 10.6611C22.002 10.1953 22.3799 9.81738 22.8545 9.81738C23.3027 9.81738 23.6895 10.1953 23.6895 10.6611C23.6895 11.127 23.3027 11.5049 22.8545 11.5049ZM7.9043 18.958C9.92578 18.958 11.3672 17.9912 12.5625 17.4111C11.1123 16.1104 10.207 14.2031 10.0752 12.3486C9.37207 12.5332 8.66016 12.6211 7.93066 12.6211C7.20996 12.6211 6.50684 12.5332 5.83008 12.3662C5.68066 14.124 4.77539 16.084 3.35156 17.4463C4.51172 17.9121 5.90918 18.958 7.9043 18.958ZM-0.243164 20.3994C1.29492 20.3994 2.85938 19.7666 3.65918 18.7998C2.70117 18.2197 1.52344 17.6572 0.433594 17.5254C-0.0322266 17.666 -0.515625 17.7012 -1.05176 17.8154C-1.7373 17.9561 -2.37891 18.2725 -2.37891 18.9668C-2.37891 19.8809 -1.47363 20.3994 -0.243164 20.3994ZM15.9902 20.4258C17.2383 20.4258 18.1523 19.9072 18.1523 18.9844C18.1523 18.2373 17.458 17.7363 16.7197 17.6484C16.2188 17.6133 15.8145 17.5869 15.3047 17.543C14.2412 17.6484 12.958 18.2285 12.0527 18.7998C12.835 19.7842 14.4521 20.4258 15.9902 20.4258Z" fill="#1C1C1E"/>
</g>
<defs>
<clipPath id="clip0_10_1170">
<rect width="24" height="24" fill="white"/>
</clipPath>
</defs>
</svg>
