<svg width="24" height="24" viewBox="0 0 24 24" fill="none" xmlns="http://www.w3.org/2000/svg">
<g clip-path="url(#clip0_10_1171)">
<path d="M-0.216797 20.5137C1.48828 20.5137 3.2373 19.8018 4.62598 18.4395C5.60156 18.9404 6.6123 19.3711 8.02734 19.3711C9.53906 19.3711 10.5674 19.0107 11.4551 18.5625C12.8086 19.8281 14.5225 20.5312 16.1836 20.5312C17.625 20.5312 18.6973 19.9248 18.6973 18.835C18.6973 17.7363 17.8184 17.332 16.7461 17.042C16.6143 17.0156 16.4912 16.9805 16.3594 16.9453C19.5586 16.6816 20.0332 14.915 22.6172 14.915C25.1045 14.915 26.9062 14.0273 26.9062 12.3486C26.9062 8.81543 24.8936 6.84668 22.4502 6.84668C20.0244 6.84668 18.6621 8.34082 18.1436 10.4414C17.8799 11.4258 17.4316 12.0498 16.7373 12.4277L16.2539 11.5312C13.8896 7.18945 11.7012 5.44043 8.13281 5.43164C4.31836 5.44043 2.28809 7.12793 -0.480469 12.3662C-1.42969 14.168 -2.90625 14.502 -2.90625 15.6357C-2.90625 16.4443 -2.27344 16.9805 -1.07812 16.9805H-0.568359C-0.761719 17.0332 -0.946289 17.0859 -1.12207 17.1475C-2.02734 17.4375 -2.72168 17.8594 -2.72168 18.8174C-2.72168 19.8984 -1.6582 20.5137 -0.216797 20.5137ZM8.13281 7.08398C10.3828 7.09277 11.8506 8.04199 13.0811 9.58008C11.666 10.7402 9.96094 11.3818 8.02734 11.3818C6.12012 11.3818 4.44141 10.7666 3.05273 9.6416C4.50293 7.76074 5.95312 7.09277 8.13281 7.08398ZM18.6357 14.9062C18.2754 14.6162 17.8711 14.1328 17.6162 13.667C18.5654 13.3242 19.1807 12.6475 19.541 11.2061C19.9365 9.43066 20.8682 8.41992 22.4502 8.41992C24.0674 8.41992 25.3945 9.93164 25.3945 12.1201C25.3945 12.8584 24.1641 13.3857 22.8984 13.3857C20.7275 13.3857 19.7256 14.168 18.6357 14.9062ZM22.749 11.5752C23.1885 11.5752 23.5576 11.2061 23.5576 10.7578C23.5576 10.3184 23.1885 9.94922 22.749 9.94922C22.3008 9.94922 21.9316 10.3184 21.9316 10.7578C21.9316 11.2061 22.3008 11.5752 22.749 11.5752ZM14.9004 12.4189C15.5068 13.5088 16.1748 14.5898 16.9219 15.3018C16.5967 15.3105 16.2275 15.3105 15.8496 15.3193C14.6279 15.3457 13.6963 15.6182 12.8789 15.9697C12.0439 14.8623 11.4199 13.2451 11.2793 12.085C12.2637 11.7158 13.1162 11.1973 13.8281 10.6172C14.1973 11.1709 14.5488 11.7773 14.9004 12.4189ZM0.433594 15.3193C0.0380859 15.3193 -0.366211 15.3281 -0.761719 15.3457L-0.823242 15.2227C-0.234375 14.7129 0.442383 14.1152 0.969727 13.0781C1.44434 12.1641 1.88379 11.373 2.32324 10.6963C3.03516 11.2676 3.91406 11.7861 4.94238 12.1465C4.77539 13.2715 4.14258 14.8711 3.36035 15.9521C2.55176 15.5918 1.62012 15.3193 0.433594 15.3193ZM8.02734 17.7188C6.58594 17.7188 5.56641 17.1123 4.45898 16.4971C5.25879 15.3633 5.88281 13.7549 6.0498 12.4629C6.66504 12.5947 7.32422 12.665 8.02734 12.665C8.7832 12.665 9.49512 12.5771 10.1543 12.4277C10.2861 13.7637 10.9189 15.3896 11.7539 16.5234C10.6201 17.1211 9.57422 17.7188 8.02734 17.7188ZM-1.28027 18.6152C-1.28027 18.3164 -1.06055 18.123 -0.436523 17.9648C-0.0585938 17.8682 0.978516 17.5518 1.76953 17.1914C2.31445 17.332 2.80664 17.5254 3.27246 17.7451C1.99805 18.7734 0.864258 19.2393 -0.164062 19.2393C-0.902344 19.2393 -1.28027 19.002 -1.28027 18.6152ZM16.4121 17.9824C17.0273 18.1406 17.2559 18.3428 17.2559 18.6328C17.2559 19.0195 16.8691 19.2568 16.1396 19.2568C15.1289 19.2568 14.0215 18.8174 12.7822 17.833C13.2305 17.5957 13.6875 17.3672 14.2148 17.2178C14.9971 17.5693 16.0342 17.8857 16.4121 17.9824Z" fill="#1C1C1E"/>
</g>
<defs>
<clipPath id="clip0_10_1171">
<rect width="24" height="24" fill="white"/>
</clipPath>
</defs>
</svg>
