<svg width="24" height="24" viewBox="0 0 24 24" fill="none" xmlns="http://www.w3.org/2000/svg">
<g clip-path="url(#clip0_10_1468)">
<path d="M4.65234 5.40527C4.78418 5.40527 4.88086 5.37891 5.0127 5.28223L8.12402 3.00586C8.26465 2.90039 8.35254 2.75098 8.35254 2.60156C8.35254 2.4082 8.25586 2.24121 8.09766 2.10059C7.71973 1.78418 7.11328 1.6084 6.55078 1.6084C5.12695 1.6084 3.97559 2.7334 3.97559 4.13086C3.97559 4.49121 4.03711 4.8252 4.13379 5.04492C4.23047 5.26465 4.42383 5.40527 4.65234 5.40527ZM19.3389 5.40527C19.5674 5.40527 19.752 5.25586 19.8574 5.04492C19.9541 4.83398 20.0068 4.49121 20.0068 4.13086C20.0068 2.7334 18.8643 1.6084 17.4404 1.6084C16.8691 1.6084 16.2715 1.78418 15.8936 2.10059C15.7354 2.24121 15.6387 2.4082 15.6387 2.60156C15.6387 2.75098 15.7178 2.90039 15.8672 3.00586L18.9785 5.28223C19.1104 5.37891 19.207 5.40527 19.3389 5.40527ZM4.56445 19.9424C4.87207 20.25 5.35547 20.2412 5.66309 19.9248L7.08691 18.5098C8.4668 19.4941 10.1631 20.0742 11.9912 20.0742C13.8281 20.0742 15.5156 19.4941 16.9043 18.5098L18.3281 19.9248C18.6357 20.2412 19.1191 20.25 19.4268 19.9424C19.7168 19.6523 19.7256 19.1777 19.418 18.8789L18.0557 17.5254C19.541 15.9961 20.4639 13.9131 20.4639 11.6104C20.4639 6.93457 16.6758 3.14648 11.9912 3.14648C7.31543 3.14648 3.52734 6.93457 3.52734 11.6104C3.52734 13.9131 4.44141 15.9961 5.93555 17.5254L4.57324 18.8789C4.26562 19.1777 4.27441 19.6523 4.56445 19.9424ZM11.9912 18.3076C8.29102 18.3076 5.29395 15.3105 5.29395 11.6104C5.29395 7.91016 8.29102 4.91309 11.9912 4.91309C15.6914 4.91309 18.6885 7.91016 18.6885 11.6104C18.6885 15.3105 15.6914 18.3076 11.9912 18.3076ZM8.17676 12.7002H11.9912C12.3779 12.7002 12.6768 12.4014 12.6768 12.0146V6.9082C12.6768 6.52148 12.3779 6.22266 11.9912 6.22266C11.6045 6.22266 11.3057 6.52148 11.3057 6.9082V11.3291H8.17676C7.79004 11.3291 7.49121 11.6367 7.49121 12.0146C7.49121 12.4014 7.79004 12.7002 8.17676 12.7002Z" fill="#1C1C1E"/>
</g>
<defs>
<clipPath id="clip0_10_1468">
<rect width="24" height="24" fill="white"/>
</clipPath>
</defs>
</svg>
