<svg width="24" height="24" viewBox="0 0 24 24" fill="none" xmlns="http://www.w3.org/2000/svg">
<g clip-path="url(#clip0_10_1464)">
<path d="M2.72754 9.85254C2.0332 9.85254 1.85742 10.3799 2.23535 10.8984L4.37988 13.8691C4.67871 14.2822 5.13574 14.2734 5.42578 13.8691L7.57031 10.8896C7.93945 10.3887 7.77246 9.85254 7.08691 9.85254H5.8125C6.6123 6.69727 9.45117 4.38574 12.8701 4.38574C16.9043 4.38574 20.1387 7.62012 20.1387 11.6543C20.1387 15.6885 16.9043 18.9404 12.8701 18.9316C10.5234 18.9229 8.4668 17.8242 7.14844 16.0928C6.78809 15.6797 6.26074 15.5479 5.83008 15.8643C5.42578 16.1543 5.34668 16.7256 5.74219 17.209C7.35938 19.3184 10.0312 20.7422 12.8701 20.7422C17.8447 20.7422 21.958 16.6289 21.958 11.6543C21.958 6.67969 17.8447 2.56641 12.8701 2.56641C8.50195 2.56641 4.80176 5.72168 3.95801 9.85254H2.72754ZM12.5449 6.56543C12.1143 6.56543 11.7715 6.9082 11.7715 7.33008V12.0938C11.7715 12.3047 11.8418 12.498 11.9912 12.7002L14.083 15.46C14.3994 15.873 14.8564 15.9434 15.2344 15.6709C15.5947 15.416 15.6299 14.9502 15.3486 14.5723L13.3096 11.8301V7.33008C13.3096 6.9082 12.9668 6.56543 12.5449 6.56543Z" fill="#1C1C1E"/>
</g>
<defs>
<clipPath id="clip0_10_1464">
<rect width="24" height="24" fill="white"/>
</clipPath>
</defs>
</svg>
