<svg width="24" height="24" viewBox="0 0 24 24" fill="none" xmlns="http://www.w3.org/2000/svg">
<g clip-path="url(#clip0_10_1476)">
<path d="M11.9912 20.7422C16.9746 20.7422 21.0879 16.6289 21.0879 11.6543C21.0879 6.67969 16.9658 2.56641 11.9824 2.56641C7.00781 2.56641 2.90332 6.67969 2.90332 11.6543C2.90332 16.6289 7.0166 20.7422 11.9912 20.7422ZM11.9912 18.9316C7.95703 18.9316 4.73145 15.6885 4.73145 11.6543C4.73145 7.62012 7.95703 4.38574 11.9824 4.38574C16.0166 4.38574 19.2598 7.62012 19.2686 11.6543C19.2773 15.6885 16.0254 18.9316 11.9912 18.9316ZM7.56152 12.7617H11.9824C12.3867 12.7617 12.6943 12.4541 12.6943 12.0586V6.31055C12.6943 5.91504 12.3867 5.60742 11.9824 5.60742C11.5957 5.60742 11.2881 5.91504 11.2881 6.31055V11.3555H7.56152C7.16602 11.3555 6.8584 11.6631 6.8584 12.0586C6.8584 12.4541 7.16602 12.7617 7.56152 12.7617Z" fill="#1C1C1E"/>
</g>
<defs>
<clipPath id="clip0_10_1476">
<rect width="24" height="24" fill="white"/>
</clipPath>
</defs>
</svg>
