<svg width="24" height="24" viewBox="0 0 24 24" fill="none" xmlns="http://www.w3.org/2000/svg">
<g clip-path="url(#clip0_10_1463)">
<path d="M1.85742 9.85254C1.16309 9.85254 0.987305 10.3799 1.36523 10.8984L3.51855 13.8691C3.80859 14.2822 4.27441 14.2734 4.55566 13.8691L6.70898 10.8896C7.06934 10.3887 6.90234 9.85254 6.2168 9.85254H4.95117C5.74219 6.69727 8.58105 4.38574 12 4.38574C14.3467 4.39453 16.4033 5.48438 17.7217 7.21582C18.082 7.62891 18.6094 7.76074 19.04 7.44434C19.4443 7.1543 19.5234 6.58301 19.1279 6.1084C17.5107 3.99023 14.8389 2.56641 12 2.56641C7.63184 2.56641 3.93164 5.72168 3.08789 9.85254H1.85742ZM11.6748 6.56543C11.2441 6.56543 10.9014 6.9082 10.9014 7.33008V12.0938C10.9014 12.3047 10.9717 12.498 11.1211 12.7002L13.2217 15.46C13.5293 15.873 13.9863 15.9434 14.3643 15.6709C14.7246 15.416 14.7598 14.9502 14.4785 14.5723L12.4395 11.8301V7.33008C12.4395 6.9082 12.0967 6.56543 11.6748 6.56543ZM12 20.7422C16.3682 20.7422 20.0684 17.5869 20.9121 13.4561H22.1426C22.8369 13.4561 23.0127 12.9287 22.6348 12.4102L20.4902 9.43945C20.1914 9.03516 19.7256 9.03516 19.4443 9.43945L17.291 12.4189C16.9307 12.9287 17.0977 13.4561 17.7832 13.4561H19.0576C18.2578 16.6113 15.4189 18.9316 12 18.9316C9.65332 18.9229 7.59668 17.8242 6.27832 16.0928C5.91797 15.6797 5.39941 15.5479 4.95996 15.8643C4.55566 16.1543 4.47656 16.7256 4.87207 17.209C6.48926 19.3184 9.16113 20.7422 12 20.7422Z" fill="#1C1C1E"/>
</g>
<defs>
<clipPath id="clip0_10_1463">
<rect width="24" height="24" fill="white"/>
</clipPath>
</defs>
</svg>
