<svg width="24" height="24" viewBox="0 0 24 24" fill="none" xmlns="http://www.w3.org/2000/svg">
<g clip-path="url(#clip0_10_1469)">
<path d="M7.66699 19.8809H16.2539C17.2031 19.8809 17.7568 19.3623 17.7568 18.4043V18.1406C17.7656 15.6885 15.1113 13.6934 14.0391 12.6738C13.7227 12.3574 13.5381 12.0762 13.5381 11.6543C13.5381 11.2324 13.7139 10.9688 14.0391 10.6436C15.1025 9.60645 17.7568 7.70801 17.7568 5.17676V4.93066C17.7568 3.97266 17.2031 3.4541 16.2539 3.4541H7.66699C6.74414 3.4541 6.23438 3.97266 6.23438 4.86914V5.17676C6.23438 7.70801 8.88867 9.60645 9.94336 10.6436C10.2773 10.9688 10.4531 11.2324 10.4531 11.6543C10.4531 12.0762 10.2686 12.3574 9.94336 12.6738C8.87988 13.6934 6.23438 15.6885 6.23438 18.1406V18.4658C6.23438 19.3623 6.74414 19.8809 7.66699 19.8809ZM8.0625 6.11719H15.9287C16.2627 6.11719 16.3154 6.38086 16.1221 6.75C15.3486 8.14746 12.7031 10.4238 11.9912 10.4238C11.2881 10.4238 8.66016 8.15625 7.86914 6.75C7.66699 6.38965 7.72852 6.11719 8.0625 6.11719Z" fill="#1C1C1E"/>
</g>
<defs>
<clipPath id="clip0_10_1469">
<rect width="24" height="24" fill="white"/>
</clipPath>
</defs>
</svg>
