<svg width="24" height="24" viewBox="0 0 24 24" fill="none" xmlns="http://www.w3.org/2000/svg">
<g clip-path="url(#clip0_10_1473)">
<path d="M7.66699 19.8809H16.2539C17.2031 19.8809 17.7568 19.3623 17.7568 18.4043V18.1406C17.7656 15.6885 15.1113 13.6934 14.0391 12.6738C13.7227 12.3574 13.5381 12.0762 13.5381 11.6543C13.5381 11.2324 13.7139 10.9688 14.0391 10.6436C15.1025 9.60645 17.7568 7.70801 17.7568 5.17676V4.93066C17.7568 3.97266 17.2031 3.4541 16.2539 3.4541H7.66699C6.74414 3.4541 6.23438 3.97266 6.23438 4.86914V5.17676C6.23438 7.70801 8.88867 9.60645 9.94336 10.6436C10.2773 10.9688 10.4531 11.2324 10.4531 11.6543C10.4531 12.0762 10.2686 12.3574 9.94336 12.6738C8.87988 13.6934 6.23438 15.6885 6.23438 18.1406V18.4658C6.23438 19.3623 6.74414 19.8809 7.66699 19.8809ZM11.9912 14.4053C12.1934 14.4053 12.3516 14.5195 12.5449 14.7041L15.6914 17.7715C16.043 18.123 15.876 18.5889 15.4014 18.5889H8.58984C8.11523 18.5889 7.93945 18.1143 8.29102 17.7715L11.4551 14.6953C11.6396 14.5283 11.7979 14.4053 11.9912 14.4053Z" fill="#1C1C1E"/>
</g>
<defs>
<clipPath id="clip0_10_1473">
<rect width="24" height="24" fill="white"/>
</clipPath>
</defs>
</svg>
