<svg width="24" height="24" viewBox="0 0 24 24" fill="none" xmlns="http://www.w3.org/2000/svg">
<g clip-path="url(#clip0_10_1462)">
<path d="M7.66699 19.8809H16.2539C17.2031 19.8809 17.7568 19.3623 17.7568 18.4043V18.1406C17.7656 15.6885 15.1113 13.6934 14.0391 12.6738C13.7227 12.3574 13.5381 12.0762 13.5381 11.6543C13.5381 11.2324 13.7139 10.9688 14.0391 10.6436C15.1025 9.60645 17.7568 7.70801 17.7568 5.17676V4.93066C17.7568 3.97266 17.2031 3.4541 16.2539 3.4541H7.66699C6.74414 3.4541 6.23438 3.97266 6.23438 4.86914V5.17676C6.23438 7.70801 8.88867 9.60645 9.94336 10.6436C10.2773 10.9688 10.4531 11.2324 10.4531 11.6543C10.4531 12.0762 10.2686 12.3574 9.94336 12.6738C8.87988 13.6934 6.23438 15.6885 6.23438 18.1406V18.4658C6.23438 19.3623 6.74414 19.8809 7.66699 19.8809ZM8.66016 18.4922C8.20312 18.4922 8.05371 17.9736 8.47559 17.6572L11.4375 15.4336C11.5342 15.3633 11.5957 15.293 11.5957 15.1699V10.8457C11.5957 10.3799 11.4902 10.1426 11.1475 9.84375C10.6816 9.43945 9.70605 8.72754 9.24902 8.12109C9.07324 7.88379 9.09082 7.69043 9.30176 7.69043H14.6807C14.8916 7.69043 14.918 7.88379 14.7422 8.12109C14.2852 8.72754 13.3096 9.43945 12.835 9.84375C12.4922 10.1338 12.3955 10.3799 12.3955 10.8457V15.1699C12.3955 15.293 12.457 15.3633 12.5537 15.4336L15.5156 17.6572C15.9463 17.9736 15.7793 18.4922 15.3311 18.4922H8.66016Z" fill="#1C1C1E"/>
</g>
<defs>
<clipPath id="clip0_10_1462">
<rect width="24" height="24" fill="white"/>
</clipPath>
</defs>
</svg>
