<svg width="24" height="24" viewBox="0 0 24 24" fill="none" xmlns="http://www.w3.org/2000/svg">
<g clip-path="url(#clip0_10_247)">
<path d="M8.85352 3.52441C8.85352 3.76172 8.99414 3.92871 9.23145 3.95508C11.3057 4.24512 11.3057 4.24512 11.5605 6.27539C11.5957 6.5127 11.7627 6.66211 12 6.66211C12.2373 6.66211 12.3955 6.5127 12.4307 6.27539C12.6855 4.24512 12.6855 4.24512 14.7598 3.95508C14.9971 3.92871 15.1465 3.76172 15.1465 3.52441C15.1465 3.28711 14.9971 3.12012 14.7598 3.09375C12.6855 2.80371 12.6855 2.80371 12.4307 0.773438C12.3955 0.536133 12.2373 0.386719 12 0.386719C11.7627 0.386719 11.5957 0.536133 11.5605 0.773438C11.3057 2.80371 11.3057 2.80371 9.23145 3.09375C8.99414 3.12012 8.85352 3.28711 8.85352 3.52441ZM19.6465 8.85059C20.2178 8.85059 20.6836 8.38477 20.6836 7.81348C20.6836 7.25098 20.2178 6.77637 19.6465 6.77637C19.0752 6.77637 18.6094 7.25098 18.6094 7.81348C18.6094 8.38477 19.0752 8.85059 19.6465 8.85059ZM4.34473 8.85059C4.91602 8.85059 5.38184 8.38477 5.38184 7.81348C5.38184 7.25098 4.91602 6.77637 4.34473 6.77637C3.78223 6.77637 3.30762 7.25098 3.30762 7.81348C3.30762 8.38477 3.78223 8.85059 4.34473 8.85059ZM12 12.7002C12.5625 12.7002 13.0371 12.2256 13.0371 11.6631C13.0371 11.0918 12.5625 10.626 12 10.626C11.4287 10.626 10.9629 11.0918 10.9629 11.6631C10.9629 12.2256 11.4287 12.7002 12 12.7002ZM1.86621 15.6885C1.86621 15.9258 2.00684 16.0928 2.24414 16.1191C4.31836 16.4092 4.32715 16.4092 4.58203 18.4395C4.6084 18.6768 4.77539 18.8262 5.0127 18.8262C5.25 18.8262 5.41699 18.6768 5.44336 18.4395C5.69824 16.4092 5.70703 16.4092 7.78125 16.1191C8.01855 16.0928 8.15918 15.9258 8.15918 15.6885C8.15918 15.4512 8.01855 15.2842 7.78125 15.2578C5.70703 14.9678 5.69824 14.9678 5.44336 12.9375C5.41699 12.7002 5.25 12.5508 5.0127 12.5508C4.77539 12.5508 4.6084 12.7002 4.58203 12.9375C4.32715 14.9678 4.31836 14.9678 2.24414 15.2578C2.00684 15.2842 1.86621 15.4512 1.86621 15.6885ZM15.8232 15.6885C15.8232 15.9258 15.9727 16.0928 16.21 16.1191C18.2842 16.4092 18.2842 16.4092 18.5391 18.4395C18.5742 18.6768 18.7412 18.8262 18.9697 18.8262C19.207 18.8262 19.374 18.6768 19.4092 18.4395C19.6641 16.4092 19.6641 16.4092 21.7383 16.1191C21.9756 16.0928 22.125 15.9258 22.125 15.6885C22.125 15.4512 21.9756 15.2842 21.7383 15.2578C19.6641 14.9678 19.6641 14.9678 19.4092 12.9375C19.374 12.7002 19.207 12.5508 18.9697 12.5508C18.7412 12.5508 18.5742 12.7002 18.5391 12.9375C18.2842 14.9678 18.2842 14.9678 16.21 15.2578C15.9727 15.2842 15.8232 15.4512 15.8232 15.6885ZM12 21.3135C12.5625 21.3135 13.0371 20.8389 13.0371 20.2764C13.0371 19.7051 12.5625 19.2393 12 19.2393C11.4287 19.2393 10.9629 19.7051 10.9629 20.2764C10.9629 20.8389 11.4287 21.3135 12 21.3135Z" fill="#1C1C1E"/>
</g>
<defs>
<clipPath id="clip0_10_247">
<rect width="24" height="24" fill="white"/>
</clipPath>
</defs>
</svg>
