<svg width="24" height="24" viewBox="0 0 24 24" fill="none" xmlns="http://www.w3.org/2000/svg">
<g clip-path="url(#clip0_10_246)">
<path d="M12 6.20508C13.4854 6.20508 14.6807 4.99219 14.6807 3.51562C14.6807 2.03027 13.4854 0.834961 12 0.834961C10.5146 0.834961 9.31055 2.03027 9.31055 3.51562C9.31055 5.00098 10.5059 6.20508 12 6.20508ZM12 4.81641C11.2793 4.81641 10.6904 4.23633 10.6904 3.51562C10.6904 2.80371 11.2793 2.21484 12 2.21484C12.7119 2.21484 13.292 2.80371 13.292 3.51562C13.292 4.23633 12.7119 4.81641 12 4.81641ZM19.6465 9.22852C20.4287 9.22852 21.0615 8.5957 21.0615 7.81348C21.0615 7.04004 20.4287 6.39844 19.6465 6.39844C18.8643 6.39844 18.2314 7.04004 18.2314 7.81348C18.2314 8.5957 18.8643 9.22852 19.6465 9.22852ZM4.34473 9.22852C5.12695 9.22852 5.75977 8.5957 5.75977 7.81348C5.75977 7.04004 5.12695 6.39844 4.34473 6.39844C3.57129 6.39844 2.92969 7.04004 2.92969 7.81348C2.92969 8.5957 3.57129 9.22852 4.34473 9.22852ZM12 13.0781C12.7734 13.0781 13.415 12.4365 13.415 11.6631C13.415 10.8721 12.7822 10.248 12 10.248C11.2178 10.248 10.585 10.8809 10.585 11.6631C10.585 12.4365 11.2178 13.0781 12 13.0781ZM5.0127 18.3779C6.49805 18.3779 7.69336 17.1738 7.69336 15.6885C7.69336 14.2031 6.49805 13.0078 5.0127 13.0078C3.53613 13.0078 2.32324 14.2031 2.32324 15.6885C2.32324 17.1826 3.51855 18.3779 5.0127 18.3779ZM18.9873 18.3779C20.4639 18.3779 21.668 17.1738 21.668 15.6885C21.668 14.2031 20.4639 13.0078 18.9873 13.0078C17.502 13.0078 16.2891 14.2031 16.2891 15.6885C16.2891 17.1826 17.4932 18.3779 18.9873 18.3779ZM5.0127 16.998C4.29199 16.998 3.71191 16.4092 3.71191 15.6885C3.71191 14.9766 4.30078 14.3965 5.0127 14.3965C5.72461 14.3965 6.31348 14.9766 6.31348 15.6885C6.31348 16.4092 5.72461 16.998 5.0127 16.998ZM18.9873 16.998C18.2666 16.998 17.6777 16.4092 17.6777 15.6885C17.6777 14.9766 18.2666 14.3965 18.9873 14.3965C19.6904 14.3965 20.2793 14.9766 20.2793 15.6885C20.2793 16.4092 19.6904 16.998 18.9873 16.998ZM12 21.6914C12.7734 21.6914 13.415 21.0586 13.415 20.2764C13.415 19.4941 12.7734 18.8613 12 18.8613C11.2178 18.8613 10.585 19.4941 10.585 20.2764C10.585 21.0586 11.2178 21.6914 12 21.6914Z" fill="#1C1C1E"/>
</g>
<defs>
<clipPath id="clip0_10_246">
<rect width="24" height="24" fill="white"/>
</clipPath>
</defs>
</svg>
