<svg width="24" height="24" viewBox="0 0 24 24" fill="none" xmlns="http://www.w3.org/2000/svg">
<g clip-path="url(#clip0_10_245)">
<path d="M9.84668 2.37305L10.9893 3.51562L9.85547 4.64941C9.14355 5.36133 10.1719 6.38965 10.8838 5.67773L12.0176 4.54395L13.1602 5.67773C13.8721 6.38965 14.9004 5.36133 14.1797 4.64941L13.0459 3.51562L14.1885 2.37305C14.9092 1.65234 13.8721 0.624023 13.1602 1.33594L12.0176 2.4873L10.875 1.33594C10.1631 0.624023 9.13477 1.65234 9.84668 2.37305ZM19.6465 9.69434C20.6748 9.69434 21.5186 8.85059 21.5186 7.81348C21.5186 6.78516 20.6748 5.94141 19.6465 5.94141C18.6094 5.94141 17.7656 6.78516 17.7656 7.81348C17.7656 8.85059 18.6094 9.69434 19.6465 9.69434ZM4.34473 9.69434C5.37305 9.69434 6.2168 8.85059 6.2168 7.81348C6.2168 6.78516 5.37305 5.94141 4.34473 5.94141C3.30762 5.94141 2.46387 6.78516 2.46387 7.81348C2.46387 8.85059 3.30762 9.69434 4.34473 9.69434ZM11.9912 13.5352C13.0283 13.5352 13.8721 12.6914 13.8721 11.6631C13.8721 10.6172 13.0371 9.78223 11.9912 9.78223C10.9629 9.78223 10.1191 10.626 10.1191 11.6631C10.1191 12.6914 10.9629 13.5352 11.9912 13.5352ZM2.85059 14.5547L3.99316 15.6973L2.85059 16.8311C2.13867 17.5518 3.16699 18.5801 3.87891 17.8682L5.02148 16.7256L6.15527 17.8682C6.86719 18.5801 7.89551 17.5518 7.18359 16.8311L6.0498 15.6973L7.19238 14.5547C7.9043 13.8428 6.87598 12.8145 6.16406 13.5264L5.02148 14.6689L3.87012 13.5264C3.1582 12.8145 2.12988 13.8428 2.85059 14.5547ZM16.834 14.5547L17.9766 15.6973L16.8428 16.8398C16.1221 17.5518 17.1504 18.5801 17.8623 17.8682L19.0049 16.7344L20.1387 17.8682C20.8506 18.5801 21.8789 17.5518 21.167 16.8398L20.0332 15.6973L21.1758 14.5547C21.8877 13.8428 20.8594 12.8145 20.1475 13.5264L19.0049 14.6689L17.8623 13.5264C17.1504 12.8145 16.1133 13.8428 16.834 14.5547ZM11.9912 22.1572C13.0283 22.1572 13.8721 21.3135 13.8721 20.2764C13.8721 19.2393 13.0283 18.3955 11.9912 18.3955C10.9629 18.3955 10.1191 19.2393 10.1191 20.2764C10.1191 21.3135 10.9629 22.1572 11.9912 22.1572Z" fill="#1C1C1E"/>
</g>
<defs>
<clipPath id="clip0_10_245">
<rect width="24" height="24" fill="white"/>
</clipPath>
</defs>
</svg>
