<svg width="24" height="24" viewBox="0 0 24 24" fill="none" xmlns="http://www.w3.org/2000/svg">
<g clip-path="url(#clip0_10_267)">
<path d="M18.0293 2.42578C18.4688 2.42578 18.8203 2.05664 18.8203 1.62598V-0.18457C18.8203 -0.632812 18.4688 -0.993164 18.0293 -0.993164C17.5898 -0.993164 17.2295 -0.632812 17.2295 -0.18457V1.62598C17.2295 2.05664 17.5898 2.42578 18.0293 2.42578ZM12.7998 4.13086C13.1162 4.44727 13.6348 4.43848 13.9336 4.13086C14.2324 3.82324 14.2412 3.32227 13.9336 3.01465L12.6416 1.71387C12.334 1.40625 11.8242 1.40625 11.5166 1.71387C11.209 2.02148 11.209 2.53125 11.5166 2.83887L12.7998 4.13086ZM22.1162 4.13086C22.4238 4.43848 22.9424 4.44727 23.2588 4.13086L24.5332 2.84766C24.8496 2.53125 24.8496 2.02148 24.542 1.71387C24.2344 1.40625 23.7246 1.40625 23.417 1.72266L22.125 3.01465C21.8086 3.31348 21.8174 3.82324 22.1162 4.13086ZM20.376 11.9795C21.6416 11.1182 22.4238 9.77344 22.4238 8.21777C22.4238 5.7832 20.4727 3.81445 18.0293 3.81445C16.4209 3.81445 15.0234 4.67578 14.2939 5.94141C14.6719 6.32812 14.9971 6.75 15.2695 7.26855C18.1172 7.48828 20.0771 9.31641 20.376 11.9795ZM5.03906 17.0684H14.8213C17.3262 17.0684 19.2598 15.1611 19.2598 12.6738C19.2598 10.1689 17.2646 8.29688 14.584 8.28809C13.5908 6.38965 11.7891 5.15918 9.49512 5.15918C6.56836 5.15918 4.10742 7.40918 3.84375 10.3535C2.31445 10.793 1.33887 12.085 1.33887 13.667C1.33887 15.6885 2.8418 17.0684 5.03906 17.0684ZM24.6123 9.01758H26.4229C26.8623 9.01758 27.2227 8.66602 27.2227 8.22656C27.2227 7.78711 26.8623 7.42676 26.4229 7.42676H24.6123C24.1816 7.42676 23.8125 7.78711 23.8125 8.22656C23.8125 8.66602 24.1816 9.01758 24.6123 9.01758ZM23.417 14.7393C23.7246 15.0469 24.2256 15.0469 24.5332 14.7393C24.8408 14.4316 24.8408 13.9219 24.5332 13.6143L23.2412 12.3223C22.9336 12.0234 22.4238 12.0146 22.1162 12.3223C21.8086 12.6299 21.8174 13.1484 22.125 13.4473L23.417 14.7393ZM12.0703 21.3486L13.2041 19.3799C13.3799 19.0986 13.292 18.7559 13.002 18.5889C12.7119 18.4219 12.3955 18.5186 12.2197 18.8174L11.0771 20.7949C10.9189 21.0674 10.9893 21.4014 11.2881 21.5684C11.5693 21.7266 11.9121 21.6299 12.0703 21.3486ZM5.08301 21.3574L6.2168 19.3887C6.38379 19.1074 6.2959 18.7646 6.01465 18.5977C5.72461 18.4307 5.39941 18.5273 5.22363 18.8174L4.08105 20.7949C3.92285 21.0674 4.00195 21.4102 4.29199 21.5771C4.57324 21.7354 4.91602 21.6387 5.08301 21.3574ZM14.8301 23.8184L15.9639 21.8584C16.1309 21.5684 16.0518 21.2256 15.7617 21.0586C15.4717 20.8916 15.1465 20.9883 14.9795 21.2871L13.8369 23.2646C13.6699 23.5371 13.749 23.8711 14.0391 24.0381C14.3291 24.2051 14.6719 24.0996 14.8301 23.8184ZM7.84277 23.8271L8.97656 21.8584C9.14355 21.5771 9.05566 21.2344 8.76562 21.0674C8.47559 20.9004 8.15918 20.9971 7.9834 21.2959L6.84082 23.2734C6.68262 23.5459 6.75293 23.8799 7.05176 24.0469C7.33301 24.2051 7.67578 24.1084 7.84277 23.8271Z" fill="#1C1C1E"/>
</g>
<defs>
<clipPath id="clip0_10_267">
<rect width="24" height="24" fill="white"/>
</clipPath>
</defs>
</svg>
