<svg width="24" height="24" viewBox="0 0 24 24" fill="none" xmlns="http://www.w3.org/2000/svg">
<g clip-path="url(#clip0_10_272)">
<path d="M6.07617 15.917H17.0361C19.8926 15.917 22.0986 13.7549 22.0986 10.9775C22.0986 8.15625 19.8135 6.03809 16.7988 6.06445C15.665 3.78809 13.5996 2.50488 11.0947 2.50488C7.80762 2.50488 5.04785 5.03613 4.74023 8.34082C3.02637 8.8418 1.89258 10.292 1.89258 12.0762C1.89258 14.3438 3.59766 15.917 6.07617 15.917ZM14.2412 19.2744H12.3779L13.2129 17.666C13.3184 17.4727 13.2393 17.3232 13.0459 17.3232H10.9717C10.7168 17.3232 10.6289 17.4111 10.5498 17.5957L9.32812 20.3818C9.23145 20.6016 9.32812 20.7334 9.55664 20.7334H11.1123L9.92578 23.625C9.87305 23.7393 9.89941 23.8447 9.9873 23.8799C10.0664 23.9062 10.1631 23.8887 10.2598 23.792L14.3818 19.7139C14.5752 19.5205 14.4961 19.2744 14.2412 19.2744Z" fill="#1C1C1E"/>
</g>
<defs>
<clipPath id="clip0_10_272">
<rect width="24" height="24" fill="white"/>
</clipPath>
</defs>
</svg>
