<svg width="24" height="24" viewBox="0 0 24 24" fill="none" xmlns="http://www.w3.org/2000/svg">
<g clip-path="url(#clip0_10_286)">
<path d="M6.07617 15.917H17.0361C19.8926 15.917 22.0986 13.7549 22.0986 10.9775C22.0986 8.15625 19.8135 6.03809 16.7988 6.06445C15.665 3.78809 13.5996 2.50488 11.0947 2.50488C7.80762 2.50488 5.04785 5.03613 4.74023 8.34082C3.02637 8.8418 1.89258 10.292 1.89258 12.0762C1.89258 14.3438 3.59766 15.917 6.07617 15.917ZM14.2412 19.2744H12.3779L13.2129 17.666C13.3184 17.4727 13.2393 17.3232 13.0459 17.3232H10.9717C10.7168 17.3232 10.6289 17.4111 10.5498 17.5957L9.32812 20.3818C9.23145 20.6016 9.32812 20.7334 9.55664 20.7334H11.1123L9.92578 23.625C9.87305 23.7393 9.89941 23.8447 9.9873 23.8799C10.0664 23.9062 10.1631 23.8887 10.2598 23.792L14.3818 19.7139C14.5752 19.5205 14.4961 19.2744 14.2412 19.2744ZM4.13379 20.4609C4.41504 20.6191 4.75781 20.5137 4.91602 20.2324L6.0498 18.2725C6.22559 17.9824 6.1377 17.6484 5.84766 17.4727C5.55762 17.3145 5.24121 17.4111 5.06543 17.7012L3.92285 19.6787C3.76465 19.9512 3.83496 20.2939 4.13379 20.4609ZM16.3945 20.4609C16.6758 20.6191 17.0186 20.5137 17.1768 20.2324L18.3105 18.2725C18.4863 17.9824 18.3984 17.6484 18.1084 17.4727C17.8184 17.3145 17.502 17.4111 17.3262 17.7012L16.1836 19.6787C16.0254 19.9512 16.0957 20.2939 16.3945 20.4609ZM5.83008 22.9131C6.11133 23.0713 6.4541 22.9746 6.62109 22.6934L7.75488 20.7246C7.92188 20.4434 7.83398 20.1006 7.55273 19.9336C7.25391 19.7666 6.9375 19.8633 6.76172 20.1621L5.61914 22.1396C5.46094 22.4121 5.54004 22.7461 5.83008 22.9131ZM18.0908 22.9131C18.3721 23.0713 18.7148 22.9746 18.8818 22.6934L20.0156 20.7246C20.1826 20.4434 20.0947 20.1006 19.8135 19.9336C19.5146 19.7666 19.1982 19.8633 19.0225 20.1621L17.8799 22.1396C17.7217 22.4121 17.8008 22.7461 18.0908 22.9131Z" fill="#1C1C1E"/>
</g>
<defs>
<clipPath id="clip0_10_286">
<rect width="24" height="24" fill="white"/>
</clipPath>
</defs>
</svg>
