<svg width="24" height="24" viewBox="0 0 24 24" fill="none" xmlns="http://www.w3.org/2000/svg">
<g clip-path="url(#clip0_10_287)">
<path d="M6.07617 16.0225H17.0361C19.9805 16.0225 22.1953 13.7812 22.1953 10.9863C22.1953 8.12109 19.875 5.98535 16.8604 5.98535C15.7793 3.86719 13.7842 2.42578 11.1035 2.42578C7.72852 2.42578 4.99512 5.01855 4.66113 8.28809C3.03516 8.78906 1.80469 10.1953 1.80469 12.0938C1.80469 14.2822 3.41309 16.0225 6.07617 16.0225ZM6.08496 14.3525C4.34473 14.3525 3.47461 13.3945 3.47461 12.1377C3.47461 11.0918 4.09863 10.1953 5.56641 9.80859C6.07617 9.66797 6.24316 9.43945 6.28711 8.9209C6.55078 6.03809 8.61621 4.0957 11.1035 4.0957C13.0107 4.0957 14.54 5.15918 15.4893 7.0752C15.709 7.51465 15.9727 7.66406 16.5088 7.66406C19.1191 7.66406 20.5254 9.18457 20.5254 11.0303C20.5254 12.876 19.0664 14.3525 17.0889 14.3525H6.08496ZM13.3447 20.2676L14.4785 18.3076C14.6543 18.0176 14.5664 17.6748 14.2764 17.5078C13.9863 17.3408 13.6611 17.4375 13.4941 17.7363L12.3516 19.7139C12.1934 19.9863 12.2637 20.3203 12.5625 20.4873C12.8438 20.6543 13.1865 20.5488 13.3447 20.2676ZM6.35742 20.2764L7.49121 18.3076C7.6582 18.0264 7.57031 17.6836 7.28906 17.5166C6.99902 17.3496 6.67383 17.4463 6.49805 17.7451L5.35547 19.7139C5.19727 19.9951 5.27637 20.3291 5.56641 20.4961C5.84766 20.6543 6.19043 20.5576 6.35742 20.2764ZM16.1045 22.7373L17.2383 20.7773C17.4053 20.4873 17.3174 20.1445 17.0361 19.9775C16.7461 19.8105 16.4209 19.9072 16.2451 20.2061L15.1113 22.1836C14.9443 22.4561 15.0234 22.79 15.3135 22.957C15.6035 23.124 15.9463 23.0186 16.1045 22.7373ZM9.1084 22.7461L10.2422 20.7861C10.418 20.4961 10.3301 20.1533 10.04 19.9863C9.75 19.8193 9.43359 19.916 9.25781 20.2148L8.11523 22.1924C7.95703 22.4648 8.02734 22.7988 8.32617 22.9658C8.60742 23.1328 8.9502 23.0273 9.1084 22.7461Z" fill="#1C1C1E"/>
</g>
<defs>
<clipPath id="clip0_10_287">
<rect width="24" height="24" fill="white"/>
</clipPath>
</defs>
</svg>
