<svg width="24" height="24" viewBox="0 0 24 24" fill="none" xmlns="http://www.w3.org/2000/svg">
<g clip-path="url(#clip0_10_270)">
<path d="M18.0205 3.62988C18.46 3.62988 18.8203 3.26074 18.8203 2.83008V1.01953C18.8203 0.571289 18.46 0.210938 18.0205 0.210938C17.5811 0.210938 17.2207 0.571289 17.2207 1.01953V2.83008C17.2207 3.26074 17.5811 3.62988 18.0205 3.62988ZM12.791 5.33496C13.1074 5.65137 13.626 5.64258 13.9248 5.33496C14.2324 5.02734 14.2324 4.52637 13.9248 4.20996L12.6328 2.91797C12.3252 2.60156 11.8154 2.61035 11.5078 2.91797C11.2002 3.22559 11.209 3.73535 11.5166 4.04297L12.791 5.33496ZM22.1162 5.33496C22.415 5.64258 22.9336 5.65137 23.25 5.33496L24.5332 4.04297C24.8408 3.73535 24.8408 3.22559 24.5332 2.91797C24.2256 2.61035 23.7246 2.61035 23.4082 2.92676L22.1162 4.20996C21.8086 4.51758 21.8174 5.02734 22.1162 5.33496ZM5.10938 18.3955H14.6631C17.2822 18.3955 19.3037 16.418 19.3037 13.8691C19.3037 13.79 19.3037 13.7197 19.3037 13.6406C21.1143 13.0957 22.4238 11.417 22.4238 9.43066C22.4238 6.97852 20.4639 5.01855 18.0293 5.01855C16.0078 5.01855 14.3291 6.3457 13.8018 8.18262C12.7295 6.96094 11.2266 6.25781 9.49512 6.25781C6.54199 6.25781 4.08105 8.49023 3.73828 11.4258C2.24414 11.8916 1.24219 13.2012 1.24219 14.8359C1.24219 16.9102 2.80664 18.3955 5.10938 18.3955ZM18.0205 6.50391C19.6465 6.50391 20.9297 7.78711 20.9297 9.42188C20.9297 10.6963 20.1211 11.7861 18.9873 12.1816C18.3721 10.6611 16.9219 9.58887 15.1201 9.38672C15.1201 7.78711 16.3945 6.50391 18.0205 6.50391ZM5.10059 16.752C3.65039 16.752 2.88574 15.9346 2.88574 14.8711C2.88574 13.957 3.43066 13.1748 4.70508 12.832C5.14453 12.7178 5.29395 12.5156 5.34668 12.0586C5.59277 9.57129 7.35059 7.90137 9.49512 7.90137C11.1475 7.90137 12.4482 8.82422 13.2744 10.4502C13.4766 10.8281 13.6963 10.9688 14.1621 10.9688C16.4385 10.9688 17.6602 12.2959 17.6602 13.9043C17.6602 15.4951 16.3857 16.752 14.6719 16.752H5.10059ZM24.6035 10.2217H26.4229C26.8535 10.2217 27.2139 9.87012 27.2139 9.43066C27.2139 8.99121 26.8535 8.63086 26.4229 8.63086H24.6035C24.1729 8.63086 23.8037 8.99121 23.8037 9.43066C23.8037 9.87012 24.1729 10.2217 24.6035 10.2217ZM23.4082 15.9434C23.7246 16.251 24.2256 16.251 24.5332 15.9434C24.8408 15.6357 24.8408 15.126 24.5244 14.8184L23.2324 13.5264C22.9336 13.2275 22.4238 13.2188 22.1162 13.5264C21.8086 13.834 21.8086 14.3438 22.1162 14.6514L23.4082 15.9434Z" fill="#1C1C1E"/>
</g>
<defs>
<clipPath id="clip0_10_270">
<rect width="24" height="24" fill="white"/>
</clipPath>
</defs>
</svg>
