<svg width="24" height="24" viewBox="0 0 24 24" fill="none" xmlns="http://www.w3.org/2000/svg">
<g clip-path="url(#clip0_10_260)">
<path d="M5.10938 17.2002H14.6631C17.2822 17.2002 19.3037 15.2139 19.3037 12.665C19.3037 12.6299 19.3037 12.5947 19.3037 12.5684C22.1514 12.5068 24.0234 10.8896 24.7178 9.03516C25.0254 8.25293 24.6299 7.57617 23.8828 7.57617C23.3027 7.57617 22.8457 7.82227 21.9053 7.82227C19.7344 7.82227 18.6094 6.61816 18.6094 4.58789C18.6094 3.56836 18.9258 2.98828 18.9258 2.49609C18.9258 1.72266 18.2402 1.34473 17.4316 1.61719C15.4717 2.26758 13.8545 4.32422 13.8545 6.78516C13.8545 6.87305 13.8545 6.96094 13.8545 7.04883C12.7822 5.7832 11.2617 5.05371 9.49512 5.05371C6.54199 5.05371 4.08105 7.28613 3.73828 10.2217C2.24414 10.6963 1.24219 11.9971 1.24219 13.6318C1.24219 15.7061 2.80664 17.2002 5.10938 17.2002ZM15.2959 6.75879C15.2959 5.11523 16.2451 3.80566 17.3877 3.15527L17.4844 3.2168C17.3438 3.64746 17.2119 4.24512 17.2119 4.93066C17.2119 7.44434 19.0137 9.20215 21.5713 9.20215C22.2129 9.20215 22.7666 9.08789 23.1621 8.95605L23.2236 9.02637C22.6611 10.0723 21.2461 11.1357 19.0312 11.1094C18.4951 9.6416 17.1943 8.56934 15.542 8.25293C15.3838 7.78711 15.2959 7.27734 15.2959 6.75879ZM5.10059 15.5566C3.65039 15.5566 2.88574 14.7305 2.88574 13.667C2.88574 12.7529 3.43066 11.9707 4.70508 11.6279C5.14453 11.5137 5.29395 11.3115 5.34668 10.8545C5.59277 8.36719 7.35059 6.69727 9.49512 6.69727C11.1475 6.69727 12.4482 7.62012 13.2744 9.24609C13.4766 9.63281 13.6963 9.76465 14.1621 9.76465C16.4385 9.76465 17.6602 11.0918 17.6602 12.7002C17.6602 14.291 16.3857 15.5566 14.6719 15.5566H5.10059ZM12.4922 20.2676H10.6729L11.4551 18.7734C11.5605 18.5889 11.4814 18.4395 11.2881 18.4395H9.29297C9.04688 18.4395 8.96777 18.5361 8.88867 18.7119L7.7373 21.3135C7.64941 21.5244 7.7373 21.665 7.96582 21.665H9.47754L8.33496 24.4336C8.28223 24.5479 8.30859 24.6445 8.3877 24.6797C8.47559 24.7061 8.56348 24.6885 8.66016 24.5918L12.624 20.6982C12.8086 20.5137 12.7383 20.2676 12.4922 20.2676Z" fill="#1C1C1E"/>
</g>
<defs>
<clipPath id="clip0_10_260">
<rect width="24" height="24" fill="white"/>
</clipPath>
</defs>
</svg>
