<svg width="24" height="24" viewBox="0 0 24 24" fill="none" xmlns="http://www.w3.org/2000/svg">
<g clip-path="url(#clip0_10_274)">
<path d="M6.07617 15.917H17.0361C19.8926 15.917 22.0986 13.7549 22.0986 10.9775C22.0986 8.15625 19.8135 6.03809 16.7988 6.06445C15.665 3.78809 13.5996 2.50488 11.0947 2.50488C7.80762 2.50488 5.04785 5.03613 4.74023 8.34082C3.02637 8.8418 1.89258 10.292 1.89258 12.0762C1.89258 14.3438 3.59766 15.917 6.07617 15.917ZM7.28027 19.1953L7.8252 18.2373C7.99219 17.9561 7.91309 17.6133 7.62305 17.4463C7.33301 17.2793 7.00781 17.3848 6.84082 17.6748L6.28711 18.6416C6.12891 18.9141 6.19922 19.248 6.48926 19.4238C6.7793 19.582 7.12207 19.4766 7.28027 19.1953ZM11.1211 20.54L12.4395 18.2549C12.5977 17.9648 12.5186 17.6221 12.2373 17.4551C11.9473 17.2881 11.6133 17.3848 11.4463 17.6836L10.1191 19.9863C9.96094 20.2588 10.04 20.6016 10.3301 20.7686C10.6113 20.9268 10.9541 20.8213 11.1211 20.54ZM16.4912 19.2305L17.0361 18.2725C17.2031 17.9912 17.124 17.6484 16.834 17.4814C16.5439 17.3145 16.2188 17.4199 16.0518 17.7012L15.498 18.6768C15.3398 18.9492 15.4102 19.2832 15.7002 19.4502C15.9902 19.6172 16.333 19.5117 16.4912 19.2305ZM5.51367 23.0186C5.68945 23.0186 5.8125 22.8604 5.79492 22.6758L5.72461 21.8408L6.41016 22.3242C6.55078 22.4297 6.76172 22.3945 6.84961 22.2451C6.94629 22.0957 6.88477 21.8848 6.7002 21.8057L5.94434 21.4541L6.70898 21.0938C6.88477 21.0146 6.9375 20.8125 6.8584 20.6631C6.7793 20.5049 6.55078 20.4785 6.41016 20.584L5.72461 21.0674L5.80371 20.2324C5.83008 20.0479 5.68945 19.8896 5.51367 19.8896C5.32031 19.8896 5.19727 20.0479 5.20605 20.2324L5.28516 21.0674L4.59082 20.5752C4.4502 20.4785 4.24805 20.4961 4.15137 20.6631C4.06348 20.8125 4.11621 21.0059 4.30078 21.0938L5.05664 21.4541L4.30078 21.8057C4.11621 21.8848 4.06348 22.0957 4.14258 22.2451C4.23926 22.4033 4.4502 22.4297 4.59082 22.3242L5.28516 21.8496L5.21484 22.6758C5.20605 22.8604 5.32031 23.0186 5.51367 23.0186ZM14.7598 23.0537C14.9443 23.0537 15.0674 22.8867 15.0498 22.7109L14.9707 21.876L15.665 22.3594C15.8057 22.4648 16.0078 22.4297 16.1045 22.2803C16.1924 22.1309 16.1396 21.9199 15.9551 21.8408L15.1992 21.4893L15.9639 21.1289C16.1396 21.041 16.1924 20.8477 16.1133 20.6982C16.0254 20.54 15.8057 20.5137 15.665 20.6191L14.9707 21.1025L15.0586 20.2676C15.0762 20.083 14.9443 19.9248 14.7598 19.9248C14.5664 19.9248 14.4434 20.083 14.4609 20.2676L14.5312 21.1025L13.8457 20.6104C13.6963 20.5049 13.4941 20.5312 13.4062 20.6982C13.3184 20.8477 13.3711 21.041 13.5557 21.1289L14.3115 21.4893L13.5469 21.8408C13.3623 21.9199 13.3096 22.1221 13.3975 22.2803C13.4854 22.4385 13.6963 22.4648 13.8457 22.3594L14.5312 21.876L14.4697 22.7109C14.4521 22.8867 14.5664 23.0537 14.7598 23.0537ZM9.75 24.3633C9.92578 24.3633 10.0488 24.2051 10.0312 24.0205L9.96094 23.1855L10.6465 23.6689C10.7871 23.7744 10.998 23.748 11.0859 23.5986C11.1826 23.4492 11.1211 23.2295 10.9365 23.1504L10.1807 22.7988L10.9453 22.4385C11.1211 22.3594 11.1826 22.1572 11.1035 22.0078C11.0156 21.8496 10.7871 21.8232 10.6465 21.9287L9.96094 22.4121L10.04 21.5771C10.0664 21.3926 9.92578 21.2344 9.75 21.2344C9.55664 21.2344 9.43359 21.3926 9.45117 21.5771L9.52148 22.4121L8.82715 21.9287C8.68652 21.8232 8.48438 21.8496 8.3877 22.0078C8.2998 22.1572 8.35254 22.3506 8.53711 22.4385L9.30176 22.7988L8.53711 23.1504C8.35254 23.2383 8.2998 23.4404 8.3877 23.5986C8.47559 23.7568 8.68652 23.7744 8.82715 23.6777L9.52148 23.1943L9.45117 24.0205C9.44238 24.2051 9.55664 24.3633 9.75 24.3633Z" fill="#1C1C1E"/>
</g>
<defs>
<clipPath id="clip0_10_274">
<rect width="24" height="24" fill="white"/>
</clipPath>
</defs>
</svg>
