<svg width="24" height="24" viewBox="0 0 24 24" fill="none" xmlns="http://www.w3.org/2000/svg">
<g clip-path="url(#clip0_10_278)">
<path d="M6.07617 15.917H17.0361C19.8926 15.917 22.0986 13.7549 22.0986 10.9775C22.0986 8.15625 19.8135 6.03809 16.7988 6.06445C15.665 3.78809 13.5996 2.50488 11.0947 2.50488C7.80762 2.50488 5.04785 5.03613 4.74023 8.34082C3.02637 8.8418 1.89258 10.292 1.89258 12.0762C1.89258 14.3438 3.59766 15.917 6.07617 15.917ZM7.28027 19.1953L7.8252 18.2373C7.99219 17.9561 7.91309 17.6133 7.62305 17.4463C7.33301 17.2793 7.00781 17.3848 6.84082 17.6748L6.28711 18.6416C6.12891 18.9141 6.19922 19.248 6.48926 19.4238C6.7793 19.582 7.12207 19.4766 7.28027 19.1953ZM11.1211 20.54L12.4395 18.2549C12.5977 17.9648 12.5186 17.6221 12.2373 17.4551C11.9473 17.2881 11.6133 17.3848 11.4463 17.6836L10.1191 19.9863C9.96094 20.2588 10.04 20.6016 10.3301 20.7686C10.6113 20.9268 10.9541 20.8213 11.1211 20.54ZM16.4912 19.2305L17.0361 18.2725C17.2031 17.9912 17.124 17.6484 16.834 17.4814C16.5439 17.3145 16.2188 17.4199 16.0518 17.7012L15.498 18.6768C15.3398 18.9492 15.4102 19.2832 15.7002 19.4502C15.9902 19.6172 16.333 19.5117 16.4912 19.2305ZM5.62793 21.9111C6.17285 21.9111 6.62109 21.4629 6.62109 20.9092C6.62109 20.373 6.17285 19.9248 5.62793 19.9248C5.08301 19.9248 4.63477 20.373 4.63477 20.9092C4.63477 21.4629 5.08301 21.9111 5.62793 21.9111ZM14.8389 21.9463C15.375 21.9463 15.832 21.4893 15.832 20.9443C15.832 20.4082 15.3838 19.96 14.8389 19.96C14.2939 19.96 13.8457 20.4082 13.8457 20.9443C13.8457 21.4893 14.2939 21.9463 14.8389 21.9463ZM9.46875 23.2559C10.0049 23.2559 10.4531 22.8076 10.4531 22.2539C10.4531 21.7266 10.0049 21.2695 9.46875 21.2695C8.92383 21.2695 8.4668 21.7266 8.4668 22.2539C8.4668 22.8076 8.92383 23.2559 9.46875 23.2559Z" fill="#1C1C1E"/>
</g>
<defs>
<clipPath id="clip0_10_278">
<rect width="24" height="24" fill="white"/>
</clipPath>
</defs>
</svg>
