<svg width="24" height="24" viewBox="0 0 24 24" fill="none" xmlns="http://www.w3.org/2000/svg">
<g clip-path="url(#clip0_10_284)">
<path d="M6.07617 16.0225H17.0361C19.9805 16.0225 22.1953 13.7812 22.1953 10.9863C22.1953 8.12109 19.875 5.98535 16.8604 5.98535C15.7793 3.86719 13.7842 2.42578 11.1035 2.42578C7.72852 2.42578 4.99512 5.01855 4.66113 8.28809C3.03516 8.78906 1.80469 10.1953 1.80469 12.0938C1.80469 14.2822 3.41309 16.0225 6.07617 16.0225ZM6.08496 14.3525C4.34473 14.3525 3.47461 13.3945 3.47461 12.1377C3.47461 11.0918 4.09863 10.1953 5.56641 9.80859C6.07617 9.66797 6.24316 9.43945 6.28711 8.9209C6.55078 6.03809 8.61621 4.0957 11.1035 4.0957C13.0107 4.0957 14.54 5.15918 15.4893 7.0752C15.709 7.51465 15.9727 7.66406 16.5088 7.66406C19.1191 7.66406 20.5254 9.18457 20.5254 11.0303C20.5254 12.876 19.0664 14.3525 17.0889 14.3525H6.08496ZM8.12402 22.7637L10.6992 18.3164C10.8662 18.0176 10.7783 17.6836 10.4971 17.5166C10.1982 17.3496 9.88184 17.4463 9.70605 17.7451L7.13086 22.21C6.97266 22.4824 7.04297 22.8252 7.33301 22.9922C7.62305 23.1504 7.96582 23.0449 8.12402 22.7637ZM4.61719 22.7725L7.19238 18.3164C7.35938 18.0176 7.27148 17.6924 6.99023 17.5254C6.7002 17.3584 6.375 17.4463 6.19922 17.7451L3.62402 22.21C3.46582 22.4912 3.53613 22.8252 3.82617 22.9922C4.11621 23.1504 4.45898 23.0537 4.61719 22.7725ZM11.6221 22.7725L14.1885 18.3164C14.3555 18.0176 14.2764 17.6924 13.9863 17.5254C13.6963 17.3584 13.3711 17.4463 13.2041 17.7451L10.6201 22.21C10.4707 22.4912 10.5322 22.8252 10.8311 22.9922C11.1123 23.1504 11.4551 23.0537 11.6221 22.7725ZM15.1025 22.7725L17.6865 18.2988C17.8535 18.0176 17.7744 17.6748 17.4844 17.5166C17.2031 17.3672 16.8691 17.4463 16.7109 17.7363L14.1357 22.2012C13.9688 22.4824 14.0391 22.8252 14.3291 22.9922C14.6016 23.1504 14.9531 23.0449 15.1025 22.7725Z" fill="#1C1C1E"/>
</g>
<defs>
<clipPath id="clip0_10_284">
<rect width="24" height="24" fill="white"/>
</clipPath>
</defs>
</svg>
