<svg width="24" height="24" viewBox="0 0 24 24" fill="none" xmlns="http://www.w3.org/2000/svg">
<g clip-path="url(#clip0_10_288)">
<path d="M6.07617 18.5713H17.0361C19.9805 18.5713 22.1953 16.3389 22.1953 13.5439C22.1953 10.6699 19.875 8.54297 16.8604 8.54297C15.7793 6.41602 13.7842 4.97461 11.1035 4.97461C7.72852 4.97461 4.99512 7.56738 4.66113 10.8457C3.03516 11.3379 1.80469 12.7441 1.80469 14.6426C1.80469 16.8311 3.41309 18.5713 6.07617 18.5713ZM6.08496 16.9014C4.34473 16.9014 3.47461 15.9434 3.47461 14.6865C3.47461 13.6406 4.09863 12.7441 5.56641 12.3574C6.07617 12.2256 6.24316 11.9883 6.28711 11.4697C6.55078 8.58691 8.61621 6.65332 11.1035 6.65332C13.0107 6.65332 14.54 7.70801 15.4893 9.62402C15.709 10.0635 15.9727 10.2217 16.5088 10.2217C19.1191 10.2217 20.5254 11.7334 20.5254 13.5879C20.5254 15.4336 19.0664 16.9014 17.0889 16.9014H6.08496Z" fill="#1C1C1E"/>
</g>
<defs>
<clipPath id="clip0_10_288">
<rect width="24" height="24" fill="white"/>
</clipPath>
</defs>
</svg>
