<svg width="24" height="24" viewBox="0 0 24 24" fill="none" xmlns="http://www.w3.org/2000/svg">
<g clip-path="url(#clip0_10_263)">
<path d="M20.4463 13.5615C23.1621 13.0078 24.7881 10.7754 24.7881 9.30762C24.7881 8.94727 24.6387 8.69238 24.3486 8.69238C23.9004 8.69238 23.2412 9.24609 22.0107 9.24609C19.8838 9.25488 18.5479 7.96289 18.5479 6.02051C18.5479 4.8252 19.1455 3.96387 19.1455 3.48047C19.1455 3.19922 18.9521 3.01465 18.6006 3.02344C17.001 3.08496 14.8652 4.87793 14.3818 7.25977C14.6807 7.5498 14.9531 7.91016 15.1904 8.39355C18.082 8.5957 20.3232 10.8018 20.4463 13.5615ZM5.03906 18.2725H14.8213C17.3262 18.2725 19.2598 16.3652 19.2598 13.8779C19.2598 11.3818 17.2646 9.50098 14.584 9.49219C13.5908 7.60254 11.7891 6.36328 9.49512 6.36328C6.56836 6.36328 4.10742 8.61328 3.84375 11.5576C2.31445 11.9971 1.33887 13.2891 1.33887 14.8799C1.33887 16.8926 2.8418 18.2725 5.03906 18.2725Z" fill="#1C1C1E"/>
</g>
<defs>
<clipPath id="clip0_10_263">
<rect width="24" height="24" fill="white"/>
</clipPath>
</defs>
</svg>
