<svg width="24" height="24" viewBox="0 0 24 24" fill="none" xmlns="http://www.w3.org/2000/svg">
<g clip-path="url(#clip0_10_281)">
<path d="M6.07617 15.917H17.0361C19.8926 15.917 22.0986 13.7549 22.0986 10.9775C22.0986 8.15625 19.8135 6.03809 16.7988 6.06445C15.665 3.78809 13.5996 2.50488 11.0947 2.50488C7.80762 2.50488 5.04785 5.03613 4.74023 8.34082C3.02637 8.8418 1.89258 10.292 1.89258 12.0762C1.89258 14.3438 3.59766 15.917 6.07617 15.917ZM17.748 18.0791H6.41895C6.07617 18.0791 5.8125 18.334 5.8125 18.668C5.8125 19.0107 6.07617 19.2656 6.41895 19.2656H17.748C18.0908 19.2656 18.3545 19.0107 18.3545 18.668C18.3545 18.334 18.0908 18.0791 17.748 18.0791ZM17.748 21.0586H6.41895C6.07617 21.0586 5.8125 21.3135 5.8125 21.6562C5.8125 21.9902 6.07617 22.2451 6.41895 22.2451H17.748C18.0908 22.2451 18.3545 21.9902 18.3545 21.6562C18.3545 21.3135 18.0908 21.0586 17.748 21.0586Z" fill="#1C1C1E"/>
</g>
<defs>
<clipPath id="clip0_10_281">
<rect width="24" height="24" fill="white"/>
</clipPath>
</defs>
</svg>
