<svg width="24" height="24" viewBox="0 0 24 24" fill="none" xmlns="http://www.w3.org/2000/svg">
<g clip-path="url(#clip0_10_262)">
<path d="M5.10938 17.2002H14.6631C17.2822 17.2002 19.3037 15.2139 19.3037 12.665C19.3037 12.6299 19.3037 12.5947 19.3037 12.5684C22.1514 12.5068 24.0234 10.8896 24.7178 9.03516C25.0254 8.25293 24.6299 7.57617 23.8828 7.57617C23.3027 7.57617 22.8457 7.82227 21.9053 7.82227C19.7344 7.82227 18.6094 6.61816 18.6094 4.58789C18.6094 3.56836 18.9258 2.98828 18.9258 2.49609C18.9258 1.72266 18.2402 1.34473 17.4316 1.61719C15.4717 2.26758 13.8545 4.32422 13.8545 6.78516C13.8545 6.87305 13.8545 6.96094 13.8545 7.04883C12.7822 5.7832 11.2617 5.05371 9.49512 5.05371C6.54199 5.05371 4.08105 7.28613 3.73828 10.2217C2.24414 10.6963 1.24219 11.9971 1.24219 13.6318C1.24219 15.7061 2.80664 17.2002 5.10938 17.2002ZM15.2959 6.75879C15.2959 5.11523 16.2451 3.80566 17.3877 3.15527L17.4844 3.2168C17.3438 3.64746 17.2119 4.24512 17.2119 4.93066C17.2119 7.44434 19.0137 9.20215 21.5713 9.20215C22.2129 9.20215 22.7666 9.08789 23.1621 8.95605L23.2236 9.02637C22.6611 10.0723 21.2461 11.1357 19.0312 11.1094C18.4951 9.6416 17.1943 8.56934 15.542 8.25293C15.3838 7.78711 15.2959 7.27734 15.2959 6.75879ZM5.10059 15.5566C3.65039 15.5566 2.88574 14.7305 2.88574 13.667C2.88574 12.7529 3.43066 11.9707 4.70508 11.6279C5.14453 11.5137 5.29395 11.3115 5.34668 10.8545C5.59277 8.36719 7.35059 6.69727 9.49512 6.69727C11.1475 6.69727 12.4482 7.62012 13.2744 9.24609C13.4766 9.63281 13.6963 9.76465 14.1621 9.76465C16.4385 9.76465 17.6602 11.0918 17.6602 12.7002C17.6602 14.291 16.3857 15.5566 14.6719 15.5566H5.10059ZM11.9912 21.3486L13.125 19.3799C13.3008 19.0986 13.2129 18.7559 12.9229 18.5889C12.6328 18.4219 12.3164 18.5186 12.1406 18.8174L10.998 20.7949C10.8398 21.0674 10.9102 21.4014 11.209 21.5684C11.4902 21.7266 11.833 21.6299 11.9912 21.3486ZM5.00391 21.3574L6.1377 19.3887C6.30469 19.1074 6.2168 18.7646 5.93555 18.5977C5.64551 18.4307 5.32031 18.5273 5.14453 18.8174L4.00195 20.7949C3.84375 21.0674 3.92285 21.4102 4.21289 21.5771C4.50293 21.7354 4.8457 21.6387 5.00391 21.3574ZM14.751 23.8184L15.8848 21.8584C16.0605 21.5684 15.9727 21.2256 15.6826 21.0586C15.3926 20.8916 15.0674 20.9883 14.9004 21.2871L13.7578 23.2646C13.5996 23.5371 13.6699 23.8711 13.96 24.0381C14.25 24.2051 14.5928 24.0996 14.751 23.8184ZM7.76367 23.8271L8.89746 21.8584C9.06445 21.5771 8.97656 21.2344 8.68652 21.0674C8.39648 20.9004 8.08008 20.9971 7.9043 21.2959L6.76172 23.2734C6.60352 23.5459 6.67383 23.8799 6.97266 24.0469C7.25391 24.2051 7.59668 24.1084 7.76367 23.8271Z" fill="#1C1C1E"/>
</g>
<defs>
<clipPath id="clip0_10_262">
<rect width="24" height="24" fill="white"/>
</clipPath>
</defs>
</svg>
