<svg width="24" height="24" viewBox="0 0 24 24" fill="none" xmlns="http://www.w3.org/2000/svg">
<g clip-path="url(#clip0_10_275)">
<path d="M6.07617 16.0225H17.0361C19.9805 16.0225 22.1953 13.7812 22.1953 10.9863C22.1953 8.12109 19.875 5.98535 16.8604 5.98535C15.7793 3.86719 13.7842 2.42578 11.1035 2.42578C7.72852 2.42578 4.99512 5.01855 4.66113 8.28809C3.03516 8.78906 1.80469 10.1953 1.80469 12.0938C1.80469 14.2822 3.41309 16.0225 6.07617 16.0225ZM6.08496 14.3525C4.34473 14.3525 3.47461 13.3945 3.47461 12.1377C3.47461 11.0918 4.09863 10.1953 5.56641 9.80859C6.07617 9.66797 6.24316 9.43945 6.28711 8.9209C6.55078 6.03809 8.61621 4.0957 11.1035 4.0957C13.0107 4.0957 14.54 5.15918 15.4893 7.0752C15.709 7.51465 15.9727 7.66406 16.5088 7.66406C19.1191 7.66406 20.5254 9.18457 20.5254 11.0303C20.5254 12.876 19.0664 14.3525 17.0889 14.3525H6.08496ZM7.28906 19.1953L7.83398 18.2373C8.00098 17.9561 7.92188 17.6133 7.63184 17.4463C7.3418 17.2793 7.0166 17.3848 6.84961 17.6748L6.2959 18.6416C6.1377 18.9141 6.20801 19.248 6.49805 19.4238C6.78809 19.582 7.13086 19.4766 7.28906 19.1953ZM11.1299 20.54L12.4482 18.2549C12.6064 17.9648 12.5273 17.6221 12.2461 17.4551C11.9561 17.2881 11.6221 17.3848 11.4551 17.6836L10.1279 19.9863C9.96973 20.2588 10.0488 20.6016 10.3389 20.7686C10.6201 20.9268 10.9629 20.8213 11.1299 20.54ZM16.5 19.2305L17.0449 18.2725C17.2119 17.9912 17.1328 17.6484 16.8428 17.4814C16.5527 17.3145 16.2275 17.4199 16.0605 17.7012L15.5068 18.6768C15.3486 18.9492 15.4189 19.2832 15.709 19.4502C15.999 19.6172 16.3418 19.5117 16.5 19.2305ZM5.52246 23.0186C5.69824 23.0186 5.82129 22.8604 5.80371 22.6758L5.7334 21.8408L6.41895 22.3242C6.55957 22.4297 6.77051 22.3945 6.8584 22.2451C6.95508 22.0957 6.89355 21.8848 6.70898 21.8057L5.95312 21.4541L6.71777 21.0938C6.89355 21.0146 6.94629 20.8125 6.86719 20.6631C6.78809 20.5049 6.55957 20.4785 6.41895 20.584L5.7334 21.0674L5.8125 20.2324C5.83887 20.0479 5.69824 19.8896 5.52246 19.8896C5.3291 19.8896 5.20605 20.0479 5.21484 20.2324L5.29395 21.0674L4.59961 20.5752C4.45898 20.4785 4.25684 20.4961 4.16016 20.6631C4.07227 20.8125 4.125 21.0059 4.30957 21.0938L5.06543 21.4541L4.30957 21.8057C4.125 21.8848 4.07227 22.0957 4.15137 22.2451C4.24805 22.4033 4.45898 22.4297 4.59961 22.3242L5.29395 21.8496L5.22363 22.6758C5.21484 22.8604 5.3291 23.0186 5.52246 23.0186ZM14.7686 23.0537C14.9531 23.0537 15.0762 22.8867 15.0586 22.7109L14.9795 21.876L15.6738 22.3594C15.8145 22.4648 16.0166 22.4297 16.1133 22.2803C16.2012 22.1309 16.1484 21.9199 15.9639 21.8408L15.208 21.4893L15.9727 21.1289C16.1484 21.041 16.2012 20.8477 16.1221 20.6982C16.0342 20.54 15.8145 20.5137 15.6738 20.6191L14.9795 21.1025L15.0674 20.2676C15.085 20.083 14.9531 19.9248 14.7686 19.9248C14.5752 19.9248 14.4521 20.083 14.4697 20.2676L14.54 21.1025L13.8545 20.6104C13.7051 20.5049 13.5029 20.5312 13.415 20.6982C13.3271 20.8477 13.3799 21.041 13.5645 21.1289L14.3203 21.4893L13.5557 21.8408C13.3711 21.9199 13.3184 22.1221 13.4062 22.2803C13.4941 22.4385 13.7051 22.4648 13.8545 22.3594L14.54 21.876L14.4785 22.7109C14.4609 22.8867 14.5752 23.0537 14.7686 23.0537ZM9.75879 24.3633C9.93457 24.3633 10.0576 24.2051 10.04 24.0205L9.96973 23.1855L10.6553 23.6689C10.7959 23.7744 11.0068 23.748 11.0947 23.5986C11.1914 23.4492 11.1299 23.2295 10.9453 23.1504L10.1895 22.7988L10.9541 22.4385C11.1299 22.3594 11.1914 22.1572 11.1123 22.0078C11.0244 21.8496 10.7959 21.8232 10.6553 21.9287L9.96973 22.4121L10.0488 21.5771C10.0752 21.3926 9.93457 21.2344 9.75879 21.2344C9.56543 21.2344 9.44238 21.3926 9.45996 21.5771L9.53027 22.4121L8.83594 21.9287C8.69531 21.8232 8.49316 21.8496 8.39648 22.0078C8.30859 22.1572 8.36133 22.3506 8.5459 22.4385L9.31055 22.7988L8.5459 23.1504C8.36133 23.2383 8.30859 23.4404 8.39648 23.5986C8.48438 23.7568 8.69531 23.7744 8.83594 23.6777L9.53027 23.1943L9.45996 24.0205C9.45117 24.2051 9.56543 24.3633 9.75879 24.3633Z" fill="#1C1C1E"/>
</g>
<defs>
<clipPath id="clip0_10_275">
<rect width="24" height="24" fill="white"/>
</clipPath>
</defs>
</svg>
