<svg width="24" height="24" viewBox="0 0 24 24" fill="none" xmlns="http://www.w3.org/2000/svg">
<g clip-path="url(#clip0_10_283)">
<path d="M6.07617 15.917H17.0361C19.8926 15.917 22.0986 13.7549 22.0986 10.9775C22.0986 8.15625 19.8135 6.03809 16.7988 6.06445C15.665 3.78809 13.5996 2.50488 11.0947 2.50488C7.80762 2.50488 5.04785 5.03613 4.74023 8.34082C3.02637 8.8418 1.89258 10.292 1.89258 12.0762C1.89258 14.3438 3.59766 15.917 6.07617 15.917ZM8.11523 22.7637L10.6904 18.3164C10.8574 18.0176 10.7695 17.6836 10.4883 17.5166C10.1895 17.3496 9.87305 17.4463 9.69727 17.7451L7.12207 22.21C6.96387 22.4824 7.03418 22.8252 7.32422 22.9922C7.61426 23.1504 7.95703 23.0449 8.11523 22.7637ZM4.6084 22.7725L7.18359 18.3164C7.35059 18.0176 7.2627 17.6924 6.98145 17.5254C6.69141 17.3584 6.36621 17.4463 6.19043 17.7451L3.61523 22.21C3.45703 22.4912 3.52734 22.8252 3.81738 22.9922C4.10742 23.1504 4.4502 23.0537 4.6084 22.7725ZM11.6133 22.7725L14.1797 18.3164C14.3467 18.0176 14.2676 17.6924 13.9775 17.5254C13.6875 17.3584 13.3623 17.4463 13.1953 17.7451L10.6113 22.21C10.4619 22.4912 10.5234 22.8252 10.8223 22.9922C11.1035 23.1504 11.4463 23.0537 11.6133 22.7725ZM15.0938 22.7725L17.6777 18.2988C17.8447 18.0176 17.7656 17.6748 17.4756 17.5166C17.1943 17.3672 16.8604 17.4463 16.7021 17.7363L14.127 22.2012C13.96 22.4824 14.0303 22.8252 14.3203 22.9922C14.5928 23.1504 14.9443 23.0449 15.0938 22.7725Z" fill="#1C1C1E"/>
</g>
<defs>
<clipPath id="clip0_10_283">
<rect width="24" height="24" fill="white"/>
</clipPath>
</defs>
</svg>
