<svg width="24" height="24" viewBox="0 0 24 24" fill="none" xmlns="http://www.w3.org/2000/svg">
<g clip-path="url(#clip0_10_266)">
<path d="M17.9502 2.42578C18.3896 2.42578 18.75 2.05664 18.75 1.62598V-0.18457C18.75 -0.632812 18.3896 -0.993164 17.9502 -0.993164C17.5107 -0.993164 17.1504 -0.632812 17.1504 -0.18457V1.62598C17.1504 2.05664 17.5107 2.42578 17.9502 2.42578ZM12.7207 4.13086C13.0371 4.44727 13.5557 4.43848 13.8545 4.13086C14.1533 3.82324 14.1621 3.32227 13.8545 3.01465L12.5625 1.71387C12.2549 1.40625 11.7451 1.40625 11.4375 1.71387C11.1299 2.02148 11.1299 2.53125 11.4463 2.83887L12.7207 4.13086ZM22.0459 4.13086C22.3447 4.43848 22.8633 4.44727 23.1797 4.13086L24.4629 2.84766C24.7705 2.53125 24.7705 2.02148 24.4629 1.71387C24.1553 1.40625 23.6543 1.40625 23.3379 1.72266L22.0459 3.01465C21.7383 3.31348 21.7471 3.82324 22.0459 4.13086ZM5.10938 17.2002H14.6631C17.2822 17.2002 19.3037 15.2139 19.3037 12.665C19.3037 12.5771 19.3037 12.498 19.3037 12.4189C21.0791 11.8477 22.3447 10.1865 22.3447 8.22656C22.3447 5.77441 20.3936 3.81445 17.9502 3.81445C15.9639 3.81445 14.2939 5.11523 13.7402 6.91699C12.6768 5.73047 11.2002 5.05371 9.49512 5.05371C6.54199 5.05371 4.08105 7.28613 3.73828 10.2217C2.24414 10.6963 1.24219 11.9971 1.24219 13.6318C1.24219 15.7061 2.80664 17.2002 5.10938 17.2002ZM17.9502 5.30859C19.5762 5.30859 20.8594 6.58301 20.8594 8.21777C20.8594 9.47461 20.0771 10.5381 18.9785 10.96C18.3457 9.43066 16.8779 8.3584 15.0498 8.18262C15.041 6.58301 16.3242 5.30859 17.9502 5.30859ZM5.10059 15.5566C3.65039 15.5566 2.88574 14.7305 2.88574 13.667C2.88574 12.7529 3.43066 11.9707 4.70508 11.6279C5.14453 11.5137 5.29395 11.3115 5.34668 10.8545C5.59277 8.36719 7.35059 6.69727 9.49512 6.69727C11.1475 6.69727 12.4482 7.62012 13.2744 9.24609C13.4766 9.63281 13.6963 9.76465 14.1621 9.76465C16.4385 9.76465 17.6602 11.0918 17.6602 12.7002C17.6602 14.291 16.3857 15.5566 14.6719 15.5566H5.10059ZM24.5332 9.01758H26.3525C26.7832 9.01758 27.1436 8.66602 27.1436 8.22656C27.1436 7.78711 26.7832 7.42676 26.3525 7.42676H24.5332C24.1025 7.42676 23.7334 7.78711 23.7334 8.22656C23.7334 8.66602 24.1025 9.01758 24.5332 9.01758ZM23.3379 14.7393C23.6543 15.0469 24.1553 15.0469 24.4629 14.7393C24.7705 14.4316 24.7617 13.9219 24.4541 13.6143L23.1621 12.3223C22.8633 12.0234 22.3447 12.0146 22.0371 12.3223C21.7383 12.6299 21.7383 13.1484 22.0459 13.4473L23.3379 14.7393ZM12.4922 20.2676H10.6729L11.4551 18.7734C11.5605 18.5889 11.4814 18.4395 11.2881 18.4395H9.29297C9.04688 18.4395 8.96777 18.5361 8.88867 18.7119L7.7373 21.3135C7.64941 21.5244 7.7373 21.665 7.96582 21.665H9.47754L8.33496 24.4336C8.28223 24.5479 8.30859 24.6445 8.3877 24.6797C8.47559 24.7061 8.56348 24.6885 8.66016 24.5918L12.624 20.6982C12.8086 20.5137 12.7383 20.2676 12.4922 20.2676Z" fill="#1C1C1E"/>
</g>
<defs>
<clipPath id="clip0_10_266">
<rect width="24" height="24" fill="white"/>
</clipPath>
</defs>
</svg>
