<svg width="24" height="24" viewBox="0 0 24 24" fill="none" xmlns="http://www.w3.org/2000/svg">
<g clip-path="url(#clip0_10_306)">
<path d="M6.07617 15.917H17.0361C19.8926 15.917 22.0986 13.7549 22.0986 10.9775C22.0986 8.15625 19.8135 6.03809 16.7988 6.06445C15.665 3.78809 13.5996 2.50488 11.0947 2.50488C7.80762 2.50488 5.04785 5.03613 4.74023 8.34082C3.02637 8.8418 1.89258 10.292 1.89258 12.0762C1.89258 14.3438 3.59766 15.917 6.07617 15.917ZM13.3359 20.2676L14.4697 18.3076C14.6455 18.0176 14.5576 17.6748 14.2676 17.5078C13.9775 17.3408 13.6523 17.4375 13.4854 17.7363L12.3428 19.7139C12.1846 19.9863 12.2549 20.3203 12.5537 20.4873C12.835 20.6543 13.1777 20.5488 13.3359 20.2676ZM15.3838 22.7637L17.9766 18.29C18.1348 18.0088 18.0557 17.6836 17.7744 17.5078C17.502 17.3496 17.1592 17.4375 16.9922 17.7275L14.417 22.1924C14.2588 22.4736 14.3379 22.8164 14.6191 22.9834C14.9004 23.1416 15.2256 23.0449 15.3838 22.7637ZM6.34863 20.2764L7.48242 18.3076C7.64941 18.0264 7.56152 17.6836 7.28027 17.5166C6.99023 17.3496 6.66504 17.4463 6.48926 17.7451L5.34668 19.7139C5.18848 19.9951 5.26758 20.3291 5.55762 20.4961C5.83887 20.6543 6.18164 20.5576 6.34863 20.2764ZM8.39648 22.7725L10.9805 18.2988C11.1387 18.0176 11.0596 17.6836 10.7871 17.5166C10.5059 17.3496 10.1631 17.4463 9.99609 17.7363L7.42969 22.2012C7.2627 22.4824 7.3418 22.8252 7.62305 22.9922C7.9043 23.1504 8.22949 23.0537 8.39648 22.7725Z" fill="#1C1C1E"/>
</g>
<defs>
<clipPath id="clip0_10_306">
<rect width="24" height="24" fill="white"/>
</clipPath>
</defs>
</svg>
