<svg width="24" height="24" viewBox="0 0 24 24" fill="none" xmlns="http://www.w3.org/2000/svg">
<g clip-path="url(#clip0_10_280)">
<path d="M6.07617 16.0225H17.0361C19.9805 16.0225 22.1953 13.7812 22.1953 10.9863C22.1953 8.12109 19.875 5.98535 16.8604 5.98535C15.7793 3.86719 13.7842 2.42578 11.1035 2.42578C7.72852 2.42578 4.99512 5.01855 4.66113 8.28809C3.03516 8.78906 1.80469 10.1953 1.80469 12.0938C1.80469 14.2822 3.41309 16.0225 6.07617 16.0225ZM6.08496 14.3525C4.34473 14.3525 3.47461 13.3945 3.47461 12.1377C3.47461 11.0918 4.09863 10.1953 5.56641 9.80859C6.07617 9.66797 6.24316 9.43945 6.28711 8.9209C6.55078 6.03809 8.61621 4.0957 11.1035 4.0957C13.0107 4.0957 14.54 5.15918 15.4893 7.0752C15.709 7.51465 15.9727 7.66406 16.5088 7.66406C19.1191 7.66406 20.5254 9.18457 20.5254 11.0303C20.5254 12.876 19.0664 14.3525 17.0889 14.3525H6.08496ZM7.28906 19.1953L7.83398 18.2373C8.00098 17.9561 7.92188 17.6133 7.63184 17.4463C7.3418 17.2793 7.0166 17.3848 6.84961 17.6748L6.2959 18.6416C6.1377 18.9141 6.20801 19.248 6.49805 19.4238C6.78809 19.582 7.13086 19.4766 7.28906 19.1953ZM11.1299 20.54L12.4482 18.2549C12.6064 17.9648 12.5273 17.6221 12.2461 17.4551C11.9561 17.2881 11.6221 17.3848 11.4551 17.6836L10.1279 19.9863C9.96973 20.2588 10.0488 20.6016 10.3389 20.7686C10.6201 20.9268 10.9629 20.8213 11.1299 20.54ZM16.5 19.2305L17.0449 18.2725C17.2119 17.9912 17.1328 17.6484 16.8428 17.4814C16.5527 17.3145 16.2275 17.4199 16.0605 17.7012L15.5068 18.6768C15.3486 18.9492 15.4189 19.2832 15.709 19.4502C15.999 19.6172 16.3418 19.5117 16.5 19.2305ZM5.63672 21.9111C6.18164 21.9111 6.62988 21.4629 6.62988 20.9092C6.62988 20.373 6.18164 19.9248 5.63672 19.9248C5.0918 19.9248 4.64355 20.373 4.64355 20.9092C4.64355 21.4629 5.0918 21.9111 5.63672 21.9111ZM14.8477 21.9463C15.3838 21.9463 15.8408 21.4893 15.8408 20.9443C15.8408 20.4082 15.3926 19.96 14.8477 19.96C14.3027 19.96 13.8545 20.4082 13.8545 20.9443C13.8545 21.4893 14.3027 21.9463 14.8477 21.9463ZM9.47754 23.2559C10.0137 23.2559 10.4619 22.8076 10.4619 22.2539C10.4619 21.7266 10.0137 21.2695 9.47754 21.2695C8.93262 21.2695 8.47559 21.7266 8.47559 22.2539C8.47559 22.8076 8.93262 23.2559 9.47754 23.2559Z" fill="#1C1C1E"/>
</g>
<defs>
<clipPath id="clip0_10_280">
<rect width="24" height="24" fill="white"/>
</clipPath>
</defs>
</svg>
