<svg width="24" height="24" viewBox="0 0 24 24" fill="none" xmlns="http://www.w3.org/2000/svg">
<g clip-path="url(#clip0_10_250)">
<path d="M20.4814 12.375C23.2061 11.8301 24.832 9.59766 24.832 8.12109C24.832 7.76953 24.6738 7.51465 24.3838 7.51465C23.9355 7.51465 23.2764 8.06836 22.0459 8.06836C19.9277 8.06836 18.5918 6.78516 18.5918 4.83398C18.5918 3.63867 19.1807 2.78613 19.1807 2.29395C19.1807 2.0127 18.9873 1.82812 18.6357 1.83691C17.0361 1.89844 14.9092 3.69141 14.417 6.08203C14.7158 6.36328 14.9971 6.73242 15.2256 7.21582C18.1172 7.41797 20.3584 9.61523 20.4814 12.375ZM5.03906 17.0684H14.8213C17.3262 17.0684 19.2598 15.1611 19.2598 12.6738C19.2598 10.1689 17.2646 8.29688 14.584 8.28809C13.5908 6.38965 11.7891 5.15918 9.49512 5.15918C6.56836 5.15918 4.10742 7.40918 3.84375 10.3535C2.31445 10.793 1.33887 12.085 1.33887 13.667C1.33887 15.6885 2.8418 17.0684 5.03906 17.0684ZM12.5713 20.2676H10.752L11.5342 18.7734C11.6396 18.5889 11.5605 18.4395 11.3672 18.4395H9.37207C9.12598 18.4395 9.04688 18.5361 8.96777 18.7119L7.81641 21.3135C7.72852 21.5244 7.81641 21.665 8.04492 21.665H9.55664L8.41406 24.4336C8.36133 24.5479 8.3877 24.6445 8.4668 24.6797C8.55469 24.7061 8.64258 24.6885 8.73926 24.5918L12.7031 20.6982C12.8877 20.5137 12.8174 20.2676 12.5713 20.2676Z" fill="#1C1C1E"/>
</g>
<defs>
<clipPath id="clip0_10_250">
<rect width="24" height="24" fill="white"/>
</clipPath>
</defs>
</svg>
