<svg width="24" height="24" viewBox="0 0 24 24" fill="none" xmlns="http://www.w3.org/2000/svg">
<g clip-path="url(#clip0_10_269)">
<path d="M18.0557 3.58594C18.4951 3.58594 18.8555 3.2168 18.8555 2.78613V0.966797C18.8555 0.527344 18.4951 0.166992 18.0557 0.166992C17.6162 0.166992 17.2559 0.527344 17.2559 0.966797V2.78613C17.2559 3.2168 17.6162 3.58594 18.0557 3.58594ZM12.835 5.28223C13.1514 5.59863 13.6699 5.59863 13.9688 5.29102C14.2676 4.9834 14.2676 4.48242 13.96 4.16602L12.668 2.87402C12.3604 2.55762 11.8506 2.56641 11.5518 2.87402C11.2441 3.17285 11.2441 3.68262 11.5518 3.99902L12.835 5.28223ZM22.1514 5.29102C22.4502 5.59863 22.9775 5.59863 23.2852 5.28223L24.5684 3.99902C24.876 3.69141 24.876 3.18164 24.5684 2.87402C24.2607 2.56641 23.7598 2.56641 23.4521 2.87402L22.1514 4.16602C21.8438 4.47363 21.8525 4.9834 22.1514 5.29102ZM20.4111 13.1309C21.668 12.2783 22.459 10.9248 22.459 9.37793C22.459 6.93457 20.499 4.97461 18.0645 4.97461C16.4561 4.97461 15.0586 5.83594 14.3291 7.10156C14.707 7.47949 15.0322 7.91016 15.3047 8.42871C18.1523 8.63965 20.1123 10.4766 20.4111 13.1309ZM5.03906 18.2725H14.8213C17.3262 18.2725 19.2598 16.3652 19.2598 13.8779C19.2598 11.3818 17.2646 9.50098 14.584 9.49219C13.5908 7.60254 11.7891 6.36328 9.49512 6.36328C6.56836 6.36328 4.10742 8.61328 3.84375 11.5576C2.31445 11.9971 1.33887 13.2891 1.33887 14.8799C1.33887 16.8926 2.8418 18.2725 5.03906 18.2725ZM24.6387 10.1777H26.458C26.8975 10.1777 27.249 9.81738 27.249 9.37793C27.2578 8.93848 26.8975 8.57812 26.458 8.57812H24.6387C24.208 8.57812 23.8389 8.93848 23.8389 9.37793C23.8389 9.81738 24.208 10.1777 24.6387 10.1777ZM23.4434 15.8994C23.7598 16.207 24.2607 16.1982 24.5684 15.8906C24.876 15.583 24.876 15.082 24.5684 14.7744L23.2764 13.4824C22.9688 13.1836 22.459 13.1748 22.1514 13.4824C21.8438 13.79 21.8438 14.2998 22.1514 14.6074L23.4434 15.8994Z" fill="#1C1C1E"/>
</g>
<defs>
<clipPath id="clip0_10_269">
<rect width="24" height="24" fill="white"/>
</clipPath>
</defs>
</svg>
