<svg width="24" height="24" viewBox="0 0 24 24" fill="none" xmlns="http://www.w3.org/2000/svg">
<g clip-path="url(#clip0_10_261)">
<path d="M20.4814 12.375C23.2061 11.8301 24.832 9.59766 24.832 8.12109C24.832 7.76953 24.6738 7.51465 24.3838 7.51465C23.9355 7.51465 23.2764 8.06836 22.0459 8.06836C19.9277 8.06836 18.5918 6.78516 18.5918 4.83398C18.5918 3.63867 19.1807 2.78613 19.1807 2.29395C19.1807 2.0127 18.9873 1.82812 18.6357 1.83691C17.0361 1.89844 14.9092 3.69141 14.417 6.08203C14.7158 6.36328 14.9971 6.73242 15.2256 7.21582C18.1172 7.41797 20.3584 9.61523 20.4814 12.375ZM5.03906 17.0684H14.8213C17.3262 17.0684 19.2598 15.1611 19.2598 12.6738C19.2598 10.1689 17.2646 8.29688 14.584 8.28809C13.5908 6.38965 11.7891 5.15918 9.49512 5.15918C6.56836 5.15918 4.10742 7.40918 3.84375 10.3535C2.31445 10.793 1.33887 12.085 1.33887 13.667C1.33887 15.6885 2.8418 17.0684 5.03906 17.0684ZM12.0703 21.3486L13.2041 19.3799C13.3799 19.0986 13.292 18.7559 13.002 18.5889C12.7119 18.4219 12.3955 18.5186 12.2197 18.8174L11.0771 20.7949C10.9189 21.0674 10.9893 21.4014 11.2881 21.5684C11.5693 21.7266 11.9121 21.6299 12.0703 21.3486ZM5.08301 21.3574L6.2168 19.3887C6.38379 19.1074 6.2959 18.7646 6.01465 18.5977C5.72461 18.4307 5.39941 18.5273 5.22363 18.8174L4.08105 20.7949C3.92285 21.0674 4.00195 21.4102 4.29199 21.5771C4.57324 21.7354 4.91602 21.6387 5.08301 21.3574ZM14.8301 23.8184L15.9639 21.8584C16.1309 21.5684 16.0518 21.2256 15.7617 21.0586C15.4717 20.8916 15.1465 20.9883 14.9795 21.2871L13.8369 23.2646C13.6699 23.5371 13.749 23.8711 14.0391 24.0381C14.3291 24.2051 14.6719 24.0996 14.8301 23.8184ZM7.84277 23.8271L8.97656 21.8584C9.14355 21.5771 9.05566 21.2344 8.76562 21.0674C8.47559 20.9004 8.15918 20.9971 7.9834 21.2959L6.84082 23.2734C6.68262 23.5459 6.75293 23.8799 7.05176 24.0469C7.33301 24.2051 7.67578 24.1084 7.84277 23.8271Z" fill="#1C1C1E"/>
</g>
<defs>
<clipPath id="clip0_10_261">
<rect width="24" height="24" fill="white"/>
</clipPath>
</defs>
</svg>
