<svg width="24" height="24" viewBox="0 0 24 24" fill="none" xmlns="http://www.w3.org/2000/svg">
<g clip-path="url(#clip0_10_282)">
<path d="M6.07617 16.0225H17.0361C19.9805 16.0225 22.1953 13.7812 22.1953 10.9863C22.1953 8.12109 19.875 5.98535 16.8604 5.98535C15.7793 3.86719 13.7842 2.42578 11.1035 2.42578C7.72852 2.42578 4.99512 5.01855 4.66113 8.28809C3.03516 8.78906 1.80469 10.1953 1.80469 12.0938C1.80469 14.2822 3.41309 16.0225 6.07617 16.0225ZM6.08496 14.3525C4.34473 14.3525 3.47461 13.3945 3.47461 12.1377C3.47461 11.0918 4.09863 10.1953 5.56641 9.80859C6.07617 9.66797 6.24316 9.43945 6.28711 8.9209C6.55078 6.03809 8.61621 4.0957 11.1035 4.0957C13.0107 4.0957 14.54 5.15918 15.4893 7.0752C15.709 7.51465 15.9727 7.66406 16.5088 7.66406C19.1191 7.66406 20.5254 9.18457 20.5254 11.0303C20.5254 12.876 19.0664 14.3525 17.0889 14.3525H6.08496ZM17.7568 18.0791H6.42773C6.08496 18.0791 5.82129 18.334 5.82129 18.668C5.82129 19.0107 6.08496 19.2656 6.42773 19.2656H17.7568C18.0996 19.2656 18.3633 19.0107 18.3633 18.668C18.3633 18.334 18.0996 18.0791 17.7568 18.0791ZM17.7568 21.0586H6.42773C6.08496 21.0586 5.82129 21.3135 5.82129 21.6562C5.82129 21.9902 6.08496 22.2451 6.42773 22.2451H17.7568C18.0996 22.2451 18.3633 21.9902 18.3633 21.6562C18.3633 21.3135 18.0996 21.0586 17.7568 21.0586Z" fill="#1C1C1E"/>
</g>
<defs>
<clipPath id="clip0_10_282">
<rect width="24" height="24" fill="white"/>
</clipPath>
</defs>
</svg>
