<svg width="24" height="24" viewBox="0 0 24 24" fill="none" xmlns="http://www.w3.org/2000/svg">
<g clip-path="url(#clip0_10_264)">
<path d="M5.10938 18.3955H14.6631C17.2822 18.3955 19.3037 16.418 19.3037 13.8691C19.3037 13.834 19.3037 13.7988 19.3037 13.7725C22.1514 13.7109 24.0234 12.0938 24.7178 10.2393C25.0254 9.45703 24.6299 8.78027 23.8828 8.78027C23.3027 8.78027 22.8457 9.02637 21.9053 9.02637C19.7344 9.02637 18.6094 7.82227 18.6094 5.79199C18.6094 4.77246 18.9258 4.19238 18.9258 3.7002C18.9258 2.92676 18.2402 2.54883 17.4316 2.82129C15.4717 3.47168 13.8545 5.52832 13.8545 7.98926C13.8545 8.07715 13.8545 8.16504 13.8545 8.25293C12.7822 6.9873 11.2617 6.25781 9.49512 6.25781C6.54199 6.25781 4.08105 8.49023 3.73828 11.4258C2.24414 11.8916 1.24219 13.2012 1.24219 14.8359C1.24219 16.9102 2.80664 18.3955 5.10938 18.3955ZM15.2959 7.96289C15.2959 6.31934 16.2451 5.00977 17.3877 4.35938L17.4844 4.4209C17.3438 4.85156 17.2119 5.44922 17.2119 6.13477C17.2119 8.64844 19.0137 10.4062 21.5713 10.4062C22.2129 10.4062 22.7666 10.292 23.1621 10.1602L23.2236 10.2305C22.6611 11.2764 21.2461 12.3398 19.0312 12.3135C18.4951 10.8457 17.1943 9.76465 15.542 9.45703C15.375 8.98242 15.2959 8.48145 15.2959 7.96289ZM5.10059 16.752C3.65039 16.752 2.88574 15.9346 2.88574 14.8711C2.88574 13.957 3.43066 13.1748 4.70508 12.832C5.14453 12.7178 5.29395 12.5156 5.34668 12.0586C5.59277 9.57129 7.35059 7.90137 9.49512 7.90137C11.1475 7.90137 12.4482 8.82422 13.2744 10.4502C13.4766 10.8281 13.6963 10.9688 14.1621 10.9688C16.4385 10.9688 17.6602 12.2959 17.6602 13.9043C17.6602 15.4951 16.3857 16.752 14.6719 16.752H5.10059Z" fill="#1C1C1E"/>
</g>
<defs>
<clipPath id="clip0_10_264">
<rect width="24" height="24" fill="white"/>
</clipPath>
</defs>
</svg>
