<svg width="24" height="24" viewBox="0 0 24 24" fill="none" xmlns="http://www.w3.org/2000/svg">
<g clip-path="url(#clip0_10_277)">
<path d="M6.07617 16.0225H17.0361C19.9805 16.0225 22.1953 13.7812 22.1953 10.9863C22.1953 8.12109 19.875 5.98535 16.8604 5.98535C15.7793 3.86719 13.7842 2.42578 11.1035 2.42578C7.72852 2.42578 4.99512 5.01855 4.66113 8.28809C3.03516 8.78906 1.80469 10.1953 1.80469 12.0938C1.80469 14.2822 3.41309 16.0225 6.07617 16.0225ZM6.08496 14.3525C4.34473 14.3525 3.47461 13.3945 3.47461 12.1377C3.47461 11.0918 4.09863 10.1953 5.56641 9.80859C6.07617 9.66797 6.24316 9.43945 6.28711 8.9209C6.55078 6.03809 8.61621 4.0957 11.1035 4.0957C13.0107 4.0957 14.54 5.15918 15.4893 7.0752C15.709 7.51465 15.9727 7.66406 16.5088 7.66406C19.1191 7.66406 20.5254 9.18457 20.5254 11.0303C20.5254 12.876 19.0664 14.3525 17.0889 14.3525H6.08496ZM6.50684 20.54C6.68262 20.54 6.80566 20.373 6.78809 20.1973L6.70898 19.3623L7.40332 19.8457C7.54395 19.9512 7.75488 19.916 7.84277 19.7666C7.93945 19.6172 7.87793 19.4062 7.69336 19.3271L6.9375 18.9756L7.70215 18.6152C7.87793 18.5273 7.93066 18.334 7.85156 18.1846C7.76367 18.0264 7.54395 18 7.40332 18.1055L6.71777 18.5889L6.79688 17.7539C6.82324 17.5605 6.68262 17.4111 6.50684 17.4111C6.30469 17.4111 6.19043 17.5605 6.19922 17.7539L6.27832 18.5889L5.58398 18.0967C5.44336 18 5.24121 18.0176 5.14453 18.1846C5.05664 18.334 5.10938 18.5273 5.29395 18.6152L6.0498 18.9756L5.29395 19.3271C5.10938 19.4062 5.05664 19.6084 5.13574 19.7666C5.22363 19.9248 5.44336 19.9512 5.58398 19.8457L6.27832 19.3623L6.20801 20.1973C6.19043 20.373 6.30469 20.54 6.50684 20.54ZM16.2451 20.54C16.4209 20.54 16.5439 20.373 16.5264 20.1973L16.4473 19.3623L17.1416 19.8457C17.2822 19.9512 17.4932 19.916 17.5811 19.7666C17.6777 19.6172 17.6162 19.4062 17.4316 19.3271L16.6758 18.9756L17.4404 18.6152C17.6162 18.5273 17.6689 18.334 17.5898 18.1846C17.502 18.0264 17.2822 18 17.1416 18.1055L16.4561 18.5889L16.5352 17.7539C16.5527 17.5605 16.4209 17.4111 16.2451 17.4111C16.043 17.4111 15.9287 17.5605 15.9375 17.7539L16.0078 18.5889L15.3223 18.0967C15.1816 18 14.9795 18.0176 14.8828 18.1846C14.7949 18.334 14.8477 18.5273 15.0322 18.6152L15.7881 18.9756L15.0322 19.3271C14.8477 19.4062 14.7861 19.6084 14.874 19.7666C14.9619 19.9248 15.1816 19.9512 15.3223 19.8457L16.0078 19.3623L15.9463 20.1973C15.9287 20.373 16.043 20.54 16.2451 20.54ZM11.376 20.54C11.5518 20.54 11.6748 20.373 11.6572 20.1973L11.5781 19.3623L12.2725 19.8457C12.4131 19.9512 12.624 19.916 12.7119 19.7666C12.8086 19.6172 12.7471 19.4062 12.5625 19.3271L11.8066 18.9756L12.5713 18.6152C12.7471 18.5273 12.7998 18.334 12.7207 18.1846C12.6328 18.0264 12.4131 18 12.2725 18.1055L11.5869 18.5889L11.666 17.7539C11.6836 17.5605 11.5518 17.4111 11.376 17.4111C11.1738 17.4111 11.0596 17.5605 11.0684 17.7539L11.1475 18.5889L10.4531 18.0967C10.3125 18 10.1104 18.0176 10.0137 18.1846C9.92578 18.334 9.97852 18.5273 10.1631 18.6152L10.9189 18.9756L10.1631 19.3271C9.97852 19.4062 9.91699 19.6084 10.0049 19.7666C10.0928 19.9248 10.3125 19.9512 10.4531 19.8457L11.1475 19.3623L11.0771 20.1973C11.0596 20.373 11.1738 20.54 11.376 20.54ZM9.46875 23.8359C9.64453 23.8359 9.76758 23.6777 9.75 23.4932L9.6709 22.6582L10.3652 23.1416C10.5059 23.2471 10.7168 23.2119 10.8047 23.0625C10.9014 22.9131 10.8398 22.7021 10.6553 22.623L9.89941 22.2715L10.6641 21.9111C10.8398 21.832 10.8926 21.6299 10.8135 21.4805C10.7256 21.3223 10.5059 21.2959 10.3652 21.4014L9.67969 21.8848L9.75879 21.0498C9.77637 20.8652 9.64453 20.707 9.46875 20.707C9.2666 20.707 9.15234 20.8652 9.16113 21.0498L9.24023 21.8848L8.5459 21.4014C8.40527 21.2959 8.20312 21.3135 8.10645 21.4805C8.01855 21.6299 8.07129 21.8232 8.25586 21.9111L9.01172 22.2715L8.25586 22.623C8.07129 22.7109 8.00977 22.9131 8.09766 23.0625C8.18555 23.2207 8.40527 23.2471 8.5459 23.1416L9.24023 22.667L9.16992 23.4932C9.15234 23.6777 9.2666 23.8359 9.46875 23.8359ZM4.59961 23.8359C4.77539 23.8359 4.89844 23.6777 4.88086 23.4932L4.81055 22.6582L5.49609 23.1416C5.63672 23.2471 5.84766 23.2119 5.93555 23.0625C6.03223 22.9131 5.9707 22.7021 5.78613 22.623L5.03027 22.2715L5.79492 21.9111C5.9707 21.832 6.02344 21.6299 5.94434 21.4805C5.86523 21.3223 5.63672 21.2959 5.49609 21.4014L4.81055 21.8848L4.88965 21.0498C4.91602 20.8652 4.77539 20.707 4.59961 20.707C4.40625 20.707 4.2832 20.8652 4.29199 21.0498L4.37109 21.8848L3.67676 21.4014C3.53613 21.2959 3.33398 21.3135 3.2373 21.4805C3.14941 21.6299 3.20215 21.8232 3.38672 21.9111L4.14258 22.2715L3.38672 22.623C3.20215 22.7109 3.14941 22.9131 3.22852 23.0625C3.31641 23.2207 3.53613 23.2471 3.67676 23.1416L4.37109 22.667L4.30078 23.4932C4.2832 23.6777 4.40625 23.8359 4.59961 23.8359ZM14.3379 23.8359C14.5137 23.8359 14.6367 23.6777 14.6191 23.4932L14.54 22.6582L15.2344 23.1416C15.375 23.2471 15.5859 23.2119 15.6738 23.0625C15.7705 22.9131 15.709 22.7021 15.5244 22.623L14.7686 22.2715L15.5332 21.9111C15.709 21.832 15.7617 21.6299 15.6826 21.4805C15.5947 21.3223 15.375 21.2959 15.2344 21.4014L14.5488 21.8848L14.6279 21.0498C14.6455 20.8652 14.5137 20.707 14.3379 20.707C14.1357 20.707 14.0215 20.8652 14.0303 21.0498L14.1006 21.8848L13.415 21.4014C13.2744 21.2959 13.0723 21.3135 12.9756 21.4805C12.8877 21.6299 12.9404 21.8232 13.125 21.9111L13.8809 22.2715L13.125 22.623C12.9404 22.7109 12.8789 22.9131 12.9668 23.0625C13.0547 23.2207 13.2744 23.2471 13.415 23.1416L14.1006 22.667L14.0391 23.4932C14.0215 23.6777 14.1357 23.8359 14.3379 23.8359Z" fill="#1C1C1E"/>
</g>
<defs>
<clipPath id="clip0_10_277">
<rect width="24" height="24" fill="white"/>
</clipPath>
</defs>
</svg>
