<svg width="24" height="24" viewBox="0 0 24 24" fill="none" xmlns="http://www.w3.org/2000/svg">
<g clip-path="url(#clip0_10_292)">
<path d="M11.9912 20.7422C16.9746 20.7422 21.0879 16.6289 21.0879 11.6543C21.0879 6.67969 16.9658 2.56641 11.9824 2.56641C7.00781 2.56641 2.90332 6.67969 2.90332 11.6543C2.90332 16.6289 7.0166 20.7422 11.9912 20.7422ZM11.9912 18.9316C7.95703 18.9316 4.73145 15.6885 4.73145 11.6543C4.73145 7.62012 7.95703 4.38574 11.9824 4.38574C16.0166 4.38574 19.2598 7.62012 19.2686 11.6543C19.2773 15.6885 16.0254 18.9316 11.9912 18.9316ZM14.6279 13.5176C12.0879 13.5176 10.4619 11.9268 10.4619 9.39551C10.4619 8.8418 10.6025 8.10352 10.7695 7.70801C10.8223 7.58496 10.8311 7.49707 10.8311 7.44434C10.8311 7.29492 10.7256 7.13672 10.5322 7.13672C10.4619 7.13672 10.3477 7.1543 10.2246 7.20703C8.44043 7.91016 7.25391 9.81738 7.25391 11.8125C7.25391 14.6338 9.38965 16.6553 12.2021 16.6553C14.2412 16.6553 15.999 15.4072 16.6494 13.8252C16.7021 13.6934 16.7197 13.5791 16.7197 13.5176C16.7197 13.3242 16.5703 13.21 16.4209 13.21C16.3506 13.21 16.2715 13.2275 16.1572 13.2627C15.8057 13.3945 15.2168 13.5176 14.6279 13.5176Z" fill="#1C1C1E"/>
</g>
<defs>
<clipPath id="clip0_10_292">
<rect width="24" height="24" fill="white"/>
</clipPath>
</defs>
</svg>
