<svg width="24" height="24" viewBox="0 0 24 24" fill="none" xmlns="http://www.w3.org/2000/svg">
<g clip-path="url(#clip0_10_298)">
<path d="M16.8604 14.4492C12.2109 14.4492 9.31934 11.6631 9.31934 7.1543C9.31934 5.88867 9.53027 4.74609 9.85547 4.12207C10.0049 3.83203 10.0488 3.65625 10.0488 3.43652C10.0488 3.06738 9.74121 2.68066 9.28418 2.68066C9.16992 2.68066 8.96777 2.71582 8.68652 2.82129C5.39062 4.16602 3.09668 7.60254 3.09668 11.3203C3.09668 16.6641 6.99023 20.5664 12.334 20.5664C16.1484 20.5664 19.2949 18.5273 20.7363 15.2227C20.8594 14.9502 20.8945 14.7217 20.8945 14.5811C20.8945 14.1328 20.5518 13.8516 20.1914 13.8516C20.0068 13.8516 19.8398 13.8779 19.585 13.9922C18.9082 14.2734 17.8711 14.4492 16.8604 14.4492ZM4.81934 11.2676C4.81934 8.78906 6.05859 6.38965 8.08008 5.02734C7.84277 5.73047 7.71973 6.5127 7.71973 7.36523C7.71973 12.7705 11.042 16.0225 16.5703 16.0225C17.3086 16.0225 17.9502 15.9346 18.5566 15.7236C17.2734 17.6748 14.9268 18.8525 12.3867 18.8525C8.00977 18.8525 4.81934 15.6533 4.81934 11.2676Z" fill="#1C1C1E"/>
</g>
<defs>
<clipPath id="clip0_10_298">
<rect width="24" height="24" fill="white"/>
</clipPath>
</defs>
</svg>
