<svg width="24" height="24" viewBox="0 0 24 24" fill="none" xmlns="http://www.w3.org/2000/svg">
<g clip-path="url(#clip0_10_289)">
<path d="M13.3711 5.00977C13.4854 5.00977 13.5557 4.93066 13.5732 4.8252C13.8369 3.36621 13.8281 3.33984 15.3398 3.05859C15.4541 3.03223 15.5332 2.9707 15.5332 2.84766C15.5332 2.7334 15.4541 2.66309 15.3486 2.63672C13.8281 2.33789 13.8633 2.31152 13.5732 0.878906C13.5557 0.764648 13.4854 0.685547 13.3711 0.685547C13.2568 0.685547 13.1865 0.764648 13.1689 0.870117C12.8789 2.32031 12.9229 2.35547 11.4023 2.63672C11.2881 2.66309 11.209 2.7334 11.209 2.84766C11.209 2.9707 11.2881 3.03223 11.3936 3.05859C12.9229 3.36621 12.9053 3.375 13.1689 4.8252C13.1865 4.93066 13.2568 5.00977 13.3711 5.00977ZM17.5986 11.0742C17.7744 11.0742 17.9062 10.9512 17.9326 10.7578C18.2139 8.42871 18.3193 8.3584 20.6924 7.98926C20.9033 7.9541 21.0264 7.83984 21.0264 7.64648C21.0264 7.4707 20.9033 7.34766 20.7275 7.3125C18.3281 6.84668 18.2139 6.87305 17.9326 4.54395C17.9062 4.35059 17.7744 4.22754 17.5986 4.22754C17.4141 4.22754 17.2822 4.35059 17.2559 4.53516C16.957 6.9082 16.8779 6.97852 14.4609 7.3125C14.2852 7.33887 14.1621 7.4707 14.1621 7.64648C14.1621 7.83105 14.2852 7.9541 14.4609 7.98926C16.8867 8.46387 16.9482 8.44629 17.2559 10.7754C17.2822 10.9512 17.4141 11.0742 17.5986 11.0742ZM10.7959 19.6084C14.0654 19.6084 16.7725 17.9033 17.9854 15.0645C18.1436 14.6777 18.126 14.3613 17.9326 14.168C17.7744 14.0098 17.4756 13.9834 17.1592 14.124C16.4297 14.4229 15.5508 14.5811 14.5752 14.5811C10.6377 14.5811 8.05371 12.085 8.05371 8.23535C8.05371 7.21582 8.25586 6.08203 8.58105 5.41406C8.75684 5.04492 8.74805 4.7373 8.58984 4.54395C8.41406 4.3418 8.08887 4.31543 7.68457 4.47363C4.85449 5.59863 2.93848 8.52539 2.93848 11.8389C2.93848 16.2861 6.20801 19.6084 10.7959 19.6084Z" fill="#1C1C1E"/>
</g>
<defs>
<clipPath id="clip0_10_289">
<rect width="24" height="24" fill="white"/>
</clipPath>
</defs>
</svg>
