<svg width="24" height="24" viewBox="0 0 24 24" fill="none" xmlns="http://www.w3.org/2000/svg">
<g clip-path="url(#clip0_10_305)">
<path d="M11.9912 20.7598C16.9746 20.7598 21.0879 16.6465 21.0879 11.6631C21.0879 6.68848 16.9658 2.5752 11.9824 2.5752C7.00781 2.5752 2.90332 6.68848 2.90332 11.6631C2.90332 16.6465 7.0166 20.7598 11.9912 20.7598ZM14.7334 13.5791C15.3398 13.5791 15.9551 13.4473 16.3154 13.3154C16.4385 13.2803 16.5176 13.2627 16.5879 13.2627C16.7549 13.2627 16.9043 13.3857 16.9043 13.5791C16.9043 13.6406 16.8867 13.7725 16.834 13.9043C16.1572 15.5566 14.3291 16.8486 12.2109 16.8486C9.29297 16.8486 7.06934 14.748 7.06934 11.8213C7.06934 9.73828 8.2998 7.76074 10.1631 7.03125C10.2861 6.97852 10.4092 6.96094 10.4795 6.96094C10.6816 6.96094 10.7959 7.11914 10.7959 7.27734C10.7959 7.33887 10.7871 7.42676 10.7256 7.55859C10.5586 7.96289 10.4092 8.72754 10.4092 9.30762C10.4092 11.9355 12.0967 13.5791 14.7334 13.5791Z" fill="#1C1C1E"/>
</g>
<defs>
<clipPath id="clip0_10_305">
<rect width="24" height="24" fill="white"/>
</clipPath>
</defs>
</svg>
