<svg width="24" height="24" viewBox="0 0 24 24" fill="none" xmlns="http://www.w3.org/2000/svg">
<g clip-path="url(#clip0_10_290)">
<path d="M13.3711 5.00977C13.4854 5.00977 13.5557 4.93066 13.5732 4.8252C13.8369 3.36621 13.8281 3.33984 15.3398 3.05859C15.4541 3.03223 15.5332 2.9707 15.5332 2.84766C15.5332 2.7334 15.4541 2.66309 15.3486 2.63672C13.8281 2.33789 13.8633 2.31152 13.5732 0.878906C13.5557 0.764648 13.4854 0.685547 13.3711 0.685547C13.2568 0.685547 13.1865 0.764648 13.1689 0.870117C12.8789 2.32031 12.9229 2.35547 11.4023 2.63672C11.2881 2.66309 11.209 2.7334 11.209 2.84766C11.209 2.9707 11.2881 3.03223 11.3936 3.05859C12.9229 3.36621 12.9053 3.375 13.1689 4.8252C13.1865 4.93066 13.2568 5.00977 13.3711 5.00977ZM10.9277 19.6084C14.2412 19.6084 16.9834 17.8857 18.2314 15.0117C18.4424 14.5371 18.3721 14.1592 18.1523 13.9482C17.9502 13.7461 17.5986 13.7021 17.2031 13.8691C16.5439 14.1416 15.7266 14.2998 14.751 14.2998C10.8398 14.2998 8.34375 11.8828 8.34375 8.05957C8.34375 7.00488 8.55469 5.95898 8.83594 5.36133C9.03809 4.92188 9.02051 4.56152 8.81836 4.33301C8.60742 4.08691 8.2207 4.02539 7.7373 4.22754C4.88086 5.37891 2.93848 8.32324 2.93848 11.6982C2.93848 16.1895 6.24316 19.6084 10.9277 19.6084ZM17.5986 11.0742C17.7744 11.0742 17.9062 10.9512 17.9326 10.7578C18.2139 8.42871 18.3193 8.3584 20.6924 7.98926C20.9033 7.9541 21.0264 7.83984 21.0264 7.64648C21.0264 7.4707 20.9033 7.34766 20.7275 7.3125C18.3281 6.84668 18.2139 6.87305 17.9326 4.54395C17.9062 4.35059 17.7744 4.22754 17.5986 4.22754C17.4141 4.22754 17.2822 4.35059 17.2559 4.53516C16.957 6.9082 16.8779 6.97852 14.4609 7.3125C14.2852 7.33887 14.1621 7.4707 14.1621 7.64648C14.1621 7.83105 14.2852 7.9541 14.4609 7.98926C16.8867 8.46387 16.9482 8.44629 17.2559 10.7754C17.2822 10.9512 17.4141 11.0742 17.5986 11.0742ZM10.9453 17.9209C7.23633 17.9209 4.62598 15.2051 4.62598 11.6191C4.62598 9.57129 5.54883 7.69922 7.03418 6.47754C6.8584 6.9873 6.76172 7.74316 6.76172 8.47266C6.76172 12.9287 9.78516 15.8818 14.3467 15.8818C14.9971 15.8818 15.5947 15.7939 15.9111 15.6885C14.8301 17.0771 12.9844 17.9209 10.9453 17.9209Z" fill="#1C1C1E"/>
</g>
<defs>
<clipPath id="clip0_10_290">
<rect width="24" height="24" fill="white"/>
</clipPath>
</defs>
</svg>
