<svg width="24" height="24" viewBox="0 0 24 24" fill="none" xmlns="http://www.w3.org/2000/svg">
<g clip-path="url(#clip0_10_259)">
<path d="M1.77832 11.4873C1.77832 13.2188 2.97363 14.6602 4.81055 15.0293C4.72266 15.3193 4.67871 15.627 4.67871 15.9521C4.67871 17.8418 6.10254 19.3184 8.15918 19.3184H18.2754C20.6133 19.3184 22.1865 17.7012 22.1865 15.6357C22.1865 13.9658 21.0703 12.5156 19.4707 12.0762C19.251 10.3184 17.9678 8.89453 16.3066 8.48145C16.0078 6.91699 14.6807 5.75684 13.0898 5.75684C12.6768 5.75684 12.3076 5.80957 11.9912 5.90625C11.1738 4.87793 10.1191 4.21875 8.66895 4.21875C6.55078 4.21875 4.74902 5.82715 4.50293 7.92773C2.89453 8.37598 1.77832 9.80859 1.77832 11.4873ZM3.36914 11.4873C3.36914 10.3799 4.21289 9.46582 5.27637 9.3252C5.79492 9.25488 5.99707 9.01758 5.99707 8.49902C6.01465 7.01367 7.19238 5.80078 8.66895 5.80078C9.69727 5.80078 10.4619 6.33691 11.0244 7.19824C11.2441 7.54102 11.5693 7.62891 12.0088 7.48828C12.2549 7.41797 12.5889 7.34766 12.9316 7.34766C13.6875 7.34766 14.3203 7.77832 14.6016 8.42871C13.5557 8.60449 12.6328 9.17578 11.9912 10.0371C11.6836 9.94922 11.3936 9.91406 11.0859 9.91406C9.45117 9.91406 8.03613 11.0479 7.69336 12.6211C6.92871 12.7178 6.24316 13.0518 5.71582 13.5439C4.22168 13.4736 3.36914 12.5684 3.36914 11.4873ZM8.15918 17.7363C6.98145 17.7363 6.26953 16.9629 6.26953 15.9521C6.26953 14.8799 7.12207 14.1592 8.18555 14.0977C8.75684 14.0713 9.00293 13.9043 9.06445 13.377C9.20508 12.252 10.0137 11.4785 11.1387 11.4785C11.4639 11.4785 11.6748 11.5312 12.0176 11.6543C12.4834 11.8301 12.7471 11.751 12.958 11.373C13.4326 10.5117 14.3027 9.94922 15.3398 9.94922C16.7549 9.94922 17.8975 11.0742 17.959 12.6035C17.9766 13.1924 18.1699 13.3857 18.7148 13.4648C19.8662 13.6494 20.6045 14.5635 20.6045 15.6357C20.6045 16.8398 19.7432 17.7363 18.2754 17.7363H8.15918Z" fill="#1C1C1E"/>
</g>
<defs>
<clipPath id="clip0_10_259">
<rect width="24" height="24" fill="white"/>
</clipPath>
</defs>
</svg>
