<svg width="24" height="24" viewBox="0 0 24 24" fill="none" xmlns="http://www.w3.org/2000/svg">
<g clip-path="url(#clip0_10_256)">
<path d="M12 20.6719C12.4395 20.6719 12.7031 20.373 12.7031 19.9248V18.123L14.0303 18.9141C14.3818 19.1426 14.7598 19.125 14.9883 18.7734C15.1816 18.457 15.0938 18.0791 14.7246 17.8594L12.7031 16.6904V15.6006L12.5098 12.5771L15.0674 14.2471L16.0078 14.7832L16.0166 17.1123C16.0166 17.543 16.3066 17.8242 16.667 17.8066C17.0889 17.7891 17.291 17.4727 17.2646 17.0508L17.2383 15.4951L18.8115 16.4092C19.1982 16.6377 19.5938 16.541 19.8047 16.1719C20.0068 15.7939 19.8926 15.3896 19.5234 15.1787L17.9502 14.2734L19.3125 13.5088C19.6816 13.333 19.8574 12.9814 19.6641 12.6211C19.4795 12.2959 19.1104 12.1904 18.7324 12.3926L16.7109 13.5527L15.7705 13.0078L13.0283 11.6543L15.7705 10.3008L16.7109 9.75586L18.7324 10.916C19.1016 11.127 19.4883 11.0127 19.6641 10.6875C19.8574 10.3271 19.6816 9.97559 19.3037 9.79102L17.959 9.03516L19.5234 8.12988C19.9102 7.91016 20.0156 7.52344 19.8047 7.13672C19.5938 6.78516 19.1982 6.6709 18.8115 6.89941L17.2383 7.80469L17.2646 6.25781C17.291 5.83594 17.0801 5.51074 16.667 5.50195C16.3066 5.49316 16.0166 5.76562 16.0166 6.1875L16.0078 8.52539L15.0674 9.06152L12.5098 10.7402L12.7031 7.70801V6.61816L14.7246 5.44922C15.0938 5.22949 15.1729 4.84277 14.9883 4.53516C14.7686 4.18359 14.3818 4.15723 14.0303 4.39453L12.7031 5.18555V3.38379C12.7031 2.93555 12.4395 2.62793 12 2.62793C11.5781 2.62793 11.2881 2.93555 11.2881 3.38379V5.18555L9.95215 4.39453C9.60059 4.15723 9.23145 4.18359 9.00293 4.53516C8.80957 4.84277 8.89746 5.22949 9.27539 5.44922L11.2881 6.61816V7.70801L11.4814 10.749L8.93262 9.06152L7.99219 8.5166L7.9834 6.1875C7.9834 5.76562 7.69336 5.49316 7.33301 5.50195C6.91113 5.51953 6.7002 5.83594 6.73535 6.25781L6.75293 7.80469L5.17969 6.89941C4.81055 6.67969 4.39746 6.78516 4.18652 7.13672C3.9668 7.52344 4.09863 7.91895 4.46777 8.12988L6.04102 9.03516L4.6875 9.79102C4.31836 9.97559 4.14258 10.3096 4.33594 10.6963C4.50293 11.0127 4.88965 11.127 5.26758 10.916L7.28906 9.75586L8.2207 10.3008L10.9717 11.6543L8.22949 13.0078L7.28027 13.5527L5.25879 12.3926C4.88965 12.1816 4.51172 12.2959 4.34473 12.6123C4.15137 12.999 4.31836 13.3242 4.6875 13.5088L6.04102 14.2734L4.47656 15.1787C4.09863 15.3896 3.97559 15.8027 4.18652 16.1631C4.40625 16.5498 4.81055 16.6289 5.17969 16.4092L6.75293 15.5127L6.72656 17.0508C6.7002 17.4727 6.91113 17.7979 7.33301 17.8066C7.69336 17.8154 7.9834 17.543 7.9834 17.1123L8.00098 14.7832L8.93262 14.2471L11.4814 12.5684L11.2881 15.6006V16.6904L9.27539 17.8594C8.89746 18.0791 8.80957 18.457 9.00293 18.7734C9.23145 19.125 9.60059 19.1426 9.95215 18.9141L11.2881 18.1143V19.9248C11.2881 20.3643 11.5781 20.6719 12 20.6719Z" fill="#1C1C1E"/>
</g>
<defs>
<clipPath id="clip0_10_256">
<rect width="24" height="24" fill="white"/>
</clipPath>
</defs>
</svg>
