<svg width="24" height="24" viewBox="0 0 24 24" fill="none" xmlns="http://www.w3.org/2000/svg">
<g clip-path="url(#clip0_10_291)">
<path d="M11.4463 5.26465C11.5605 5.26465 11.6309 5.19434 11.6484 5.08008C11.9121 3.62988 11.8945 3.6123 13.415 3.31348C13.5293 3.2959 13.6084 3.22559 13.6084 3.10254C13.6084 2.98828 13.5293 2.91797 13.415 2.90039C11.9033 2.61035 11.9385 2.58398 11.6484 1.13379C11.6309 1.01953 11.5605 0.949219 11.4463 0.949219C11.332 0.949219 11.2617 1.01953 11.2354 1.13379C10.9541 2.56641 10.998 2.59277 9.46875 2.90039C9.35449 2.91797 9.28418 2.98828 9.28418 3.10254C9.28418 3.22559 9.35449 3.2959 9.47754 3.31348C10.9893 3.6123 10.9805 3.62988 11.2354 5.08008C11.2617 5.19434 11.332 5.26465 11.4463 5.26465ZM7.18359 11.417C7.35938 11.417 7.49121 11.2939 7.51758 11.1182C7.8252 8.78906 7.89551 8.78027 10.3213 8.32324C10.4883 8.29688 10.6201 8.17383 10.6201 7.98926C10.6201 7.81348 10.4883 7.68164 10.3125 7.65527C7.9043 7.32129 7.81641 7.25098 7.51758 4.87793C7.49121 4.69336 7.35938 4.57031 7.18359 4.57031C6.99902 4.57031 6.86719 4.69336 6.84961 4.88672C6.55957 7.20703 6.4541 7.20703 4.0459 7.65527C3.87012 7.69043 3.74707 7.81348 3.74707 7.98926C3.74707 8.18262 3.87012 8.29688 4.08105 8.32324C6.46289 8.70117 6.55957 8.77148 6.84961 11.1006C6.86719 11.2939 6.99902 11.417 7.18359 11.417ZM13.2744 21.1289C13.5293 21.1289 13.7227 20.9443 13.7578 20.6807C14.3906 15.917 15.0674 15.1699 19.7783 14.6514C20.0508 14.6162 20.2441 14.4141 20.2441 14.1592C20.2441 13.9043 20.0508 13.7021 19.7783 13.667C15.085 13.1221 14.417 12.4189 13.7578 7.6377C13.7139 7.37402 13.5293 7.18945 13.2744 7.18945C13.0195 7.18945 12.8262 7.37402 12.791 7.6377C12.1582 12.4014 11.4814 13.1484 6.77051 13.667C6.48926 13.7021 6.30469 13.9043 6.30469 14.1592C6.30469 14.4141 6.48926 14.6162 6.77051 14.6514C11.4463 15.2754 12.0967 15.8994 12.791 20.6807C12.835 20.9443 13.0195 21.1289 13.2744 21.1289Z" fill="#1C1C1E"/>
</g>
<defs>
<clipPath id="clip0_10_291">
<rect width="24" height="24" fill="white"/>
</clipPath>
</defs>
</svg>
