<svg width="24" height="24" viewBox="0 0 24 24" fill="none" xmlns="http://www.w3.org/2000/svg">
<g clip-path="url(#clip0_10_293)">
<path d="M12 5.73926C12.4307 5.73047 12.7822 5.37012 12.7822 4.88672V2.85645C12.7822 2.37305 12.4307 2.0127 12 2.0127C11.5693 2.0127 11.2178 2.37305 11.2178 2.85645V4.88672C11.2178 5.37012 11.5693 5.74805 12 5.73926ZM16.5352 7.62012C16.8428 7.91895 17.3525 7.91016 17.6953 7.57617L19.1279 6.13477C19.4795 5.79199 19.4707 5.29102 19.1631 4.9834C18.873 4.67578 18.3633 4.67578 18.0205 5.02734L16.5791 6.45996C16.2363 6.80273 16.2275 7.32129 16.5352 7.62012ZM7.45605 7.62012C7.76367 7.3125 7.75488 6.80273 7.4209 6.45996L5.97949 5.02734C5.63672 4.67578 5.13574 4.68457 4.82812 4.9834C4.52051 5.29102 4.52051 5.79199 4.86328 6.13477L6.30469 7.57617C6.64746 7.91016 7.15723 7.92773 7.45605 7.62012ZM16.7637 12.1377C16.7637 9.52734 14.6104 7.35645 12 7.35645C9.38965 7.35645 7.22754 9.52734 7.22754 12.1377C7.22754 12.7178 7.35059 13.2803 7.55273 13.7812H16.4473C16.6494 13.2803 16.7637 12.7178 16.7637 12.1377ZM2.70117 12.6738H4.73145C5.21484 12.6738 5.59277 12.3223 5.58398 11.8916C5.5752 11.4609 5.21484 11.1094 4.73145 11.1094H2.70117C2.21777 11.1094 1.85742 11.4609 1.85742 11.8916C1.85742 12.3223 2.22656 12.6738 2.70117 12.6738ZM19.2686 12.6738H21.2988C21.7822 12.6738 22.1426 12.3223 22.1426 11.8916C22.1426 11.4609 21.7822 11.1094 21.2988 11.1094H19.2686C18.7852 11.1094 18.4072 11.4609 18.416 11.8916C18.4248 12.3223 18.7852 12.6738 19.2686 12.6738ZM3.11426 16.0752H20.8682C21.2021 16.0752 21.4658 15.8203 21.4658 15.4775C21.4658 15.1436 21.2021 14.8887 20.8682 14.8887H3.11426C2.77148 14.8887 2.50781 15.1436 2.50781 15.4775C2.50781 15.8203 2.77148 16.0752 3.11426 16.0752ZM3.85254 18.9141C4.10742 18.9141 4.31836 18.7031 4.31836 18.4395C4.31836 18.1846 4.10742 17.9736 3.85254 17.9736C3.58008 17.9736 3.36914 18.1846 3.36914 18.4395C3.36914 18.7031 3.58008 18.9141 3.85254 18.9141ZM7.56152 18.9141C7.81641 18.9141 8.02734 18.7031 8.02734 18.4395C8.02734 18.1846 7.81641 17.9736 7.56152 17.9736C7.29785 17.9736 7.08691 18.1846 7.08691 18.4395C7.08691 18.7031 7.29785 18.9141 7.56152 18.9141ZM11.2705 18.9141C11.5342 18.9141 11.7451 18.7031 11.7451 18.4395C11.7451 18.1846 11.5342 17.9736 11.2705 17.9736C11.0068 17.9736 10.7959 18.1846 10.7959 18.4395C10.7959 18.7031 11.0068 18.9141 11.2705 18.9141ZM14.9883 18.9141C15.2432 18.9141 15.4541 18.7031 15.4541 18.4395C15.4541 18.1846 15.2432 17.9736 14.9883 17.9736C14.7246 17.9736 14.5137 18.1846 14.5137 18.4395C14.5137 18.7031 14.7246 18.9141 14.9883 18.9141ZM18.6973 18.9141C18.9609 18.9141 19.1719 18.7031 19.1719 18.4395C19.1719 18.1846 18.9609 17.9736 18.6973 17.9736C18.4336 17.9736 18.2227 18.1846 18.2227 18.4395C18.2227 18.7031 18.4336 18.9141 18.6973 18.9141ZM2.72754 21.0498C2.98242 21.0498 3.19336 20.8389 3.19336 20.5664C3.19336 20.3115 2.98242 20.1006 2.72754 20.1006C2.45508 20.1006 2.25293 20.3115 2.25293 20.5664C2.25293 20.8389 2.45508 21.0498 2.72754 21.0498ZM6.43652 21.0498C6.7002 21.0498 6.91113 20.8389 6.91113 20.5664C6.91113 20.3115 6.7002 20.1006 6.43652 20.1006C6.17285 20.1006 5.96191 20.3115 5.96191 20.5664C5.96191 20.8389 6.17285 21.0498 6.43652 21.0498ZM10.1543 21.0498C10.4092 21.0498 10.6201 20.8389 10.6201 20.5664C10.6201 20.3115 10.4092 20.1006 10.1543 20.1006C9.88184 20.1006 9.67969 20.3115 9.67969 20.5664C9.67969 20.8389 9.88184 21.0498 10.1543 21.0498ZM13.8633 21.0498C14.127 21.0498 14.3379 20.8389 14.3379 20.5664C14.3379 20.3115 14.127 20.1006 13.8633 20.1006C13.5996 20.1006 13.3887 20.3115 13.3887 20.5664C13.3887 20.8389 13.5996 21.0498 13.8633 21.0498ZM17.5811 21.0498C17.8359 21.0498 18.0469 20.8389 18.0469 20.5664C18.0469 20.3115 17.8359 20.1006 17.5811 20.1006C17.3086 20.1006 17.1064 20.3115 17.1064 20.5664C17.1064 20.8389 17.3086 21.0498 17.5811 21.0498ZM21.29 21.0498C21.5449 21.0498 21.7646 20.8389 21.7646 20.5664C21.7646 20.3115 21.5449 20.1006 21.29 20.1006C21.0264 20.1006 20.8154 20.3115 20.8154 20.5664C20.8154 20.8389 21.0264 21.0498 21.29 21.0498ZM5.32031 23.168C5.5752 23.168 5.78613 22.957 5.78613 22.6934C5.78613 22.4297 5.5752 22.2275 5.32031 22.2275C5.04785 22.2275 4.83691 22.4297 4.83691 22.6934C4.83691 22.957 5.04785 23.168 5.32031 23.168ZM9.0293 23.168C9.28418 23.168 9.49512 22.957 9.49512 22.6934C9.49512 22.4297 9.28418 22.2275 9.0293 22.2275C8.76562 22.2275 8.55469 22.4297 8.55469 22.6934C8.55469 22.957 8.76562 23.168 9.0293 23.168ZM12.7471 23.168C13.002 23.168 13.2129 22.957 13.2129 22.6934C13.2129 22.4297 13.002 22.2275 12.7471 22.2275C12.4746 22.2275 12.2637 22.4297 12.2637 22.6934C12.2637 22.957 12.4746 23.168 12.7471 23.168ZM16.4561 23.168C16.7109 23.168 16.9219 22.957 16.9219 22.6934C16.9219 22.4297 16.7109 22.2275 16.4561 22.2275C16.1924 22.2275 15.9814 22.4297 15.9814 22.6934C15.9814 22.957 16.1924 23.168 16.4561 23.168ZM20.1738 23.168C20.4287 23.168 20.6396 22.957 20.6396 22.6934C20.6396 22.4297 20.4287 22.2275 20.1738 22.2275C19.9014 22.2275 19.6904 22.4297 19.6904 22.6934C19.6904 22.957 19.9014 23.168 20.1738 23.168Z" fill="#1C1C1E"/>
</g>
<defs>
<clipPath id="clip0_10_293">
<rect width="24" height="24" fill="white"/>
</clipPath>
</defs>
</svg>
