<svg width="24" height="24" viewBox="0 0 24 24" fill="none" xmlns="http://www.w3.org/2000/svg">
<g clip-path="url(#clip0_10_300)">
<path d="M12 5.73926C12.4307 5.73047 12.7822 5.37012 12.7822 4.88672V2.85645C12.7822 2.37305 12.4307 2.0127 12 2.0127C11.5693 2.0127 11.2178 2.37305 11.2178 2.85645V4.88672C11.2178 5.37012 11.5693 5.74805 12 5.73926ZM16.5352 7.62012C16.8428 7.91895 17.3525 7.91016 17.6953 7.57617L19.1279 6.13477C19.4795 5.79199 19.4707 5.29102 19.1631 4.9834C18.873 4.67578 18.3633 4.67578 18.0205 5.02734L16.5791 6.45996C16.2363 6.80273 16.2275 7.32129 16.5352 7.62012ZM7.45605 7.62012C7.76367 7.3125 7.75488 6.80273 7.4209 6.45996L5.97949 5.02734C5.63672 4.67578 5.13574 4.68457 4.82812 4.9834C4.52051 5.29102 4.52051 5.79199 4.86328 6.13477L6.30469 7.57617C6.64746 7.91016 7.15723 7.92773 7.45605 7.62012ZM3.78223 16.0752H21.5361C21.8789 16.0752 22.1426 15.8203 22.1426 15.4775C22.1426 15.1436 21.8789 14.8887 21.5361 14.8887H15.9199C16.4912 14.1152 16.8164 13.166 16.8164 12.1553C16.8164 9.50098 14.6367 7.33008 12 7.33008C9.36328 7.33008 7.18359 9.50098 7.18359 12.1553C7.18359 13.166 7.50879 14.1152 8.08008 14.8887H3.78223C3.44824 14.8887 3.18457 15.1436 3.18457 15.4775C3.18457 15.8203 3.44824 16.0752 3.78223 16.0752ZM8.75684 12.1553C8.75684 10.3711 10.2246 8.91211 12 8.91211C13.7754 8.91211 15.2344 10.3711 15.2344 12.1553C15.2344 13.3066 14.6191 14.3262 13.7051 14.8887H10.2949C9.38086 14.3262 8.75684 13.3066 8.75684 12.1553ZM2.70117 12.6738H4.73145C5.21484 12.6738 5.59277 12.3223 5.58398 11.8916C5.5752 11.4609 5.21484 11.1094 4.73145 11.1094H2.70117C2.21777 11.1094 1.85742 11.4609 1.85742 11.8916C1.85742 12.3223 2.22656 12.6738 2.70117 12.6738ZM19.2686 12.6738H21.2988C21.7822 12.6826 22.1426 12.3223 22.1426 11.8916C22.1426 11.4609 21.7822 11.1094 21.2988 11.1094H19.2686C18.7852 11.1094 18.4072 11.4609 18.416 11.8916C18.4248 12.3223 18.7852 12.6738 19.2686 12.6738ZM2.46387 19.4502H20.209C20.5518 19.4502 20.8154 19.1953 20.8154 18.8525C20.8154 18.5186 20.5518 18.2637 20.209 18.2637H2.46387C2.12109 18.2637 1.85742 18.5186 1.85742 18.8525C1.85742 19.1953 2.12109 19.4502 2.46387 19.4502ZM3.78223 22.8252H21.5361C21.8789 22.8252 22.1426 22.5703 22.1426 22.2275C22.1426 21.8936 21.8789 21.6387 21.5361 21.6387H3.78223C3.44824 21.6387 3.18457 21.8936 3.18457 22.2275C3.18457 22.5703 3.44824 22.8252 3.78223 22.8252Z" fill="#1C1C1E"/>
</g>
<defs>
<clipPath id="clip0_10_300">
<rect width="24" height="24" fill="white"/>
</clipPath>
</defs>
</svg>
