<svg width="24" height="24" viewBox="0 0 24 24" fill="none" xmlns="http://www.w3.org/2000/svg">
<g clip-path="url(#clip0_10_307)">
<path d="M12 7.66406C12.4219 7.66406 12.7822 7.28613 12.7822 6.82031V3.71777L12.6504 2.3291L13.2744 3.10254L14.2852 4.13965C14.4258 4.29785 14.6191 4.40332 14.8301 4.40332C15.2344 4.40332 15.5156 4.12207 15.5156 3.73535C15.5156 3.51562 15.4189 3.34863 15.2432 3.18164L12.5449 0.650391C12.3428 0.46582 12.1934 0.395508 12 0.395508C11.7979 0.395508 11.6484 0.46582 11.4463 0.650391L8.74805 3.18164C8.57227 3.34863 8.47559 3.51562 8.47559 3.73535C8.47559 4.12207 8.75684 4.40332 9.16113 4.40332C9.37207 4.40332 9.56543 4.29785 9.70605 4.13965L10.7871 3.03223L11.3408 2.3291L11.209 3.71777V6.82031C11.209 7.28613 11.5693 7.66406 12 7.66406ZM16.5352 10.0283C16.8428 10.3359 17.3525 10.3271 17.6953 9.98438L19.1279 8.55176C19.4795 8.20898 19.4707 7.70801 19.1631 7.40039C18.873 7.09277 18.3633 7.09277 18.0205 7.43555L16.5791 8.87695C16.2363 9.21973 16.2275 9.72949 16.5352 10.0283ZM7.45605 10.0283C7.76367 9.7207 7.75488 9.21973 7.4209 8.87695L5.97949 7.43555C5.63672 7.09277 5.13574 7.10156 4.82812 7.40039C4.52051 7.69922 4.52051 8.20898 4.86328 8.55176L6.30469 9.98438C6.64746 10.3271 7.15723 10.3359 7.45605 10.0283ZM1.61133 18.9316H22.3799C22.8633 18.9316 23.2588 18.5449 23.2588 18.0879C23.2588 17.6221 22.8633 17.2441 22.3799 17.2441H15.9639C16.5088 16.4795 16.8164 15.5566 16.8164 14.5723C16.8164 11.918 14.6367 9.73828 12 9.73828C9.36328 9.73828 7.18359 11.918 7.18359 14.5723C7.18359 15.5566 7.49121 16.4795 8.03613 17.2441H1.61133C1.12793 17.2441 0.732422 17.6309 0.732422 18.0879C0.732422 18.5361 1.13672 18.9316 1.61133 18.9316ZM8.79199 14.5723C8.79199 12.7969 10.2422 11.3643 12 11.3643C13.7578 11.3643 15.1992 12.7969 15.1992 14.5723C15.1992 15.6797 14.6279 16.6641 13.8018 17.2441H10.1982C9.36328 16.6729 8.79199 15.6797 8.79199 14.5723ZM2.70117 15.0029H4.73145C5.21484 15.0029 5.59277 14.6514 5.58398 14.2207C5.5752 13.79 5.21484 13.4385 4.73145 13.4385H2.70117C2.21777 13.4385 1.85742 13.79 1.85742 14.2207C1.85742 14.6514 2.22656 15.0029 2.70117 15.0029ZM19.2686 15.0029H21.2988C21.7822 15.0029 22.1426 14.6514 22.1426 14.2207C22.1426 13.79 21.7822 13.4385 21.2988 13.4385H19.2686C18.7852 13.4385 18.4072 13.79 18.416 14.2207C18.4248 14.6514 18.7852 15.0029 19.2686 15.0029Z" fill="#1C1C1E"/>
</g>
<defs>
<clipPath id="clip0_10_307">
<rect width="24" height="24" fill="white"/>
</clipPath>
</defs>
</svg>
