<svg width="24" height="24" viewBox="0 0 24 24" fill="none" xmlns="http://www.w3.org/2000/svg">
<g clip-path="url(#clip0_10_296)">
<path d="M12 7.66406C12.1934 7.66406 12.3428 7.59375 12.5449 7.40918L15.2432 4.87793C15.4189 4.71094 15.5156 4.53516 15.5156 4.31543C15.5156 3.9375 15.2344 3.64746 14.8301 3.64746C14.6191 3.64746 14.4258 3.75293 14.2852 3.91113L13.2744 4.95703L12.6504 5.73047L12.7822 4.33301V1.23047C12.7822 0.773438 12.4219 0.395508 12 0.395508C11.5693 0.395508 11.209 0.773438 11.209 1.23047V4.33301L11.3408 5.73047L10.7871 5.02734L9.70605 3.91113C9.56543 3.75293 9.37207 3.64746 9.16113 3.64746C8.75684 3.64746 8.47559 3.9375 8.47559 4.31543C8.47559 4.53516 8.57227 4.71094 8.74805 4.87793L11.4463 7.40918C11.6484 7.59375 11.7979 7.66406 12 7.66406ZM16.5352 10.002C16.8428 10.3008 17.3525 10.3008 17.6953 9.95801L19.1279 8.52539C19.4795 8.18262 19.4707 7.68164 19.1631 7.37402C18.873 7.06641 18.3633 7.06641 18.0205 7.40918L16.5791 8.85059C16.2363 9.18457 16.2275 9.70312 16.5352 10.002ZM6.30469 9.95801C6.64746 10.3008 7.15723 10.3096 7.45605 10.002C7.76367 9.69434 7.75488 9.18457 7.4209 8.85059L5.97949 7.40918C5.63672 7.06641 5.13574 7.0752 4.82812 7.37402C4.52051 7.67285 4.52051 8.18262 4.86328 8.52539L6.30469 9.95801ZM16.7637 14.5283C16.7637 11.9092 14.6104 9.74707 12 9.74707C9.38965 9.74707 7.22754 11.9092 7.22754 14.5283C7.22754 15.0908 7.3418 15.627 7.55273 16.1191H16.4473C16.6494 15.627 16.7637 15.0908 16.7637 14.5283ZM2.70117 14.9766H4.73145C5.21484 14.9766 5.59277 14.625 5.58398 14.1943C5.5752 13.7637 5.21484 13.4121 4.73145 13.4121H2.70117C2.21777 13.4121 1.85742 13.7637 1.85742 14.1943C1.85742 14.625 2.22656 14.9766 2.70117 14.9766ZM19.2686 14.9766H21.2988C21.7822 14.9766 22.1426 14.625 22.1426 14.1943C22.1426 13.7637 21.7822 13.4121 21.2988 13.4121H19.2686C18.7852 13.4121 18.4072 13.7637 18.416 14.1943C18.4248 14.625 18.7852 14.9766 19.2686 14.9766ZM1.61133 18.9316H22.3799C22.8633 18.9316 23.2588 18.5449 23.2588 18.0879C23.2588 17.6221 22.8633 17.2441 22.3799 17.2441H1.61133C1.12793 17.2441 0.732422 17.6309 0.732422 18.0879C0.732422 18.5361 1.13672 18.9316 1.61133 18.9316Z" fill="#1C1C1E"/>
</g>
<defs>
<clipPath id="clip0_10_296">
<rect width="24" height="24" fill="white"/>
</clipPath>
</defs>
</svg>
