<svg width="24" height="24" viewBox="0 0 24 24" fill="none" xmlns="http://www.w3.org/2000/svg">
<g clip-path="url(#clip0_10_251)">
<path d="M12.0088 2.59277C12.4482 2.59277 12.8086 2.22363 12.8086 1.79297V-0.0263672C12.8086 -0.46582 12.4482 -0.826172 12.0088 -0.826172C11.5693 -0.826172 11.209 -0.46582 11.209 -0.0263672V1.79297C11.209 2.22363 11.5693 2.59277 12.0088 2.59277ZM16.1045 4.29785C16.4033 4.60547 16.9219 4.60547 17.2383 4.29785L18.5215 3.00586C18.8291 2.69824 18.8291 2.18848 18.5215 1.88086C18.2139 1.57324 17.7129 1.57324 17.3965 1.88086L16.1045 3.17285C15.7969 3.48047 15.8057 3.99023 16.1045 4.29785ZM7.64062 22.21C10.2949 22.21 12.4482 20.0654 12.4482 17.4023C12.4482 16.04 11.8945 14.8447 10.8486 13.8779C10.6641 13.7109 10.6201 13.6055 10.6201 13.3594L10.6289 5.66016C10.6289 3.69141 9.4248 2.38184 7.64062 2.38184C5.83887 2.38184 4.61719 3.69141 4.61719 5.66016L4.63477 13.3594C4.63477 13.6055 4.59082 13.7109 4.40625 13.8779C3.35156 14.8359 2.80664 16.04 2.80664 17.4023C2.80664 20.0654 4.95996 22.21 7.64062 22.21ZM7.64062 20.6807C5.8125 20.6807 4.34473 19.2041 4.34473 17.3848C4.34473 16.2686 4.87207 15.3018 5.79492 14.6777C6.06738 14.502 6.17285 14.335 6.17285 13.9834V5.72168C6.17285 4.62305 6.76172 3.91992 7.64062 3.91992C8.49316 3.91992 9.08203 4.62305 9.08203 5.72168V13.9834C9.08203 14.335 9.1875 14.502 9.45996 14.6777C10.3828 15.3018 10.9102 16.2686 10.9102 17.3848C10.9102 19.2041 9.44238 20.6807 7.64062 20.6807ZM12.0439 12.8408C14.4961 12.8408 16.4473 10.8457 16.4473 8.38477C16.4473 5.91504 14.4785 3.9375 12.0088 3.9375C11.8154 3.9375 11.6221 3.96387 11.4287 3.99902C11.6133 4.5 11.7188 5.05371 11.7188 5.66016L11.71 12.8057C11.8154 12.832 11.9297 12.8408 12.0439 12.8408ZM7.62305 19.4941C8.79199 19.4941 9.73242 18.5449 9.73242 17.376C9.73242 16.5674 9.27539 15.8906 8.59863 15.5303C8.31738 15.3809 8.22949 15.2754 8.22949 14.8535V6.44238C8.22949 5.99414 7.96582 5.72168 7.62305 5.72168C7.28906 5.72168 7.02539 5.99414 7.02539 6.44238V14.8535C7.02539 15.2754 6.9375 15.3809 6.65625 15.5303C5.97949 15.8906 5.52246 16.5674 5.52246 17.376C5.52246 18.5537 6.46289 19.4941 7.62305 19.4941ZM18.583 9.18457H20.4023C20.833 9.18457 21.1934 8.82422 21.1934 8.38477C21.1934 7.94531 20.833 7.59375 20.4023 7.59375L18.583 7.58496C18.1523 7.58496 17.7832 7.94531 17.7832 8.38477C17.7832 8.82422 18.1523 9.18457 18.583 9.18457ZM17.3965 14.9062C17.7129 15.2139 18.2139 15.2051 18.5215 14.8975C18.8291 14.5986 18.8203 14.0889 18.5127 13.7812L17.2207 12.4893C16.9219 12.1904 16.4033 12.1816 16.0957 12.4893C15.7969 12.7969 15.7969 13.3066 16.1045 13.6143L17.3965 14.9062Z" fill="#1C1C1E"/>
</g>
<defs>
<clipPath id="clip0_10_251">
<rect width="24" height="24" fill="white"/>
</clipPath>
</defs>
</svg>
