<svg width="24" height="24" viewBox="0 0 24 24" fill="none" xmlns="http://www.w3.org/2000/svg">
<g clip-path="url(#clip0_10_252)">
<path d="M12 2.59277C12.4395 2.59277 12.7998 2.22363 12.7998 1.79297V-0.0263672C12.7998 -0.46582 12.4395 -0.826172 12 -0.826172C11.5605 -0.826172 11.2002 -0.46582 11.2002 -0.0263672V1.79297C11.2002 2.22363 11.5605 2.59277 12 2.59277ZM16.0957 4.29785C16.3945 4.60547 16.9131 4.60547 17.2295 4.29785L18.5127 3.00586C18.8203 2.69824 18.8203 2.18848 18.5127 1.88086C18.2051 1.57324 17.7041 1.57324 17.3965 1.88086L16.0957 3.17285C15.7881 3.48047 15.7969 3.99023 16.0957 4.29785ZM7.63184 22.21C10.2861 22.21 12.4395 20.0654 12.4395 17.4023C12.4395 16.04 11.8857 14.8447 10.8398 13.8779C10.6553 13.7109 10.6113 13.6055 10.6113 13.3594V12.6123C11.0508 12.7617 11.5166 12.8408 12 12.8408C14.4697 12.8408 16.4385 10.8633 16.4385 8.38477C16.4385 5.91504 14.4697 3.9375 12 3.9375C11.4375 3.9375 10.8926 4.04297 10.3828 4.25391C9.94336 3.09375 8.94141 2.38184 7.63184 2.38184C5.83008 2.38184 4.6084 3.69141 4.6084 5.66016L4.62598 13.3594C4.62598 13.6055 4.58203 13.7109 4.39746 13.8779C3.34277 14.8359 2.79785 16.04 2.79785 17.4023C2.79785 20.0654 4.95117 22.21 7.63184 22.21ZM7.63184 20.6807C5.80371 20.6807 4.33594 19.2041 4.33594 17.3848C4.33594 16.2686 4.86328 15.3018 5.78613 14.6777C6.05859 14.502 6.16406 14.335 6.16406 13.9834V5.72168C6.16406 4.62305 6.75293 3.91992 7.63184 3.91992C8.48438 3.91992 9.07324 4.62305 9.07324 5.72168V13.9834C9.07324 14.335 9.17871 14.502 9.45117 14.6777C10.374 15.3018 10.9014 16.2686 10.9014 17.3848C10.9014 19.2041 9.43359 20.6807 7.63184 20.6807ZM12 5.41406C13.6611 5.41406 14.9707 6.71484 14.9707 8.38477C14.9707 10.0635 13.6611 11.3643 12 11.3643C11.5078 11.3643 11.0332 11.2412 10.6201 11.0215V5.7832C11.0332 5.5459 11.5078 5.41406 12 5.41406ZM7.61426 19.4941C8.7832 19.4941 9.72363 18.5449 9.72363 17.376C9.72363 16.5674 9.2666 15.8906 8.58984 15.5303C8.30859 15.3809 8.2207 15.2754 8.2207 14.8535V6.44238C8.2207 5.99414 7.95703 5.72168 7.61426 5.72168C7.28027 5.72168 7.0166 5.99414 7.0166 6.44238V14.8535C7.0166 15.2754 6.92871 15.3809 6.64746 15.5303C5.9707 15.8906 5.51367 16.5674 5.51367 17.376C5.51367 18.5537 6.4541 19.4941 7.61426 19.4941ZM18.5742 9.18457H20.3936C20.833 9.18457 21.1846 8.82422 21.1934 8.38477C21.1934 7.94531 20.833 7.59375 20.3936 7.59375L18.5742 7.58496C18.1436 7.58496 17.7744 7.94531 17.7744 8.38477C17.7744 8.82422 18.1436 9.18457 18.5742 9.18457ZM17.3877 14.9062C17.7041 15.2139 18.2051 15.2051 18.5127 14.8975C18.8203 14.5986 18.8203 14.0889 18.5039 13.7812L17.2207 12.4893C16.9131 12.1904 16.4033 12.1816 16.0957 12.4893C15.7881 12.7969 15.7881 13.3066 16.0957 13.6143L17.3877 14.9062Z" fill="#1C1C1E"/>
</g>
<defs>
<clipPath id="clip0_10_252">
<rect width="24" height="24" fill="white"/>
</clipPath>
</defs>
</svg>
