<svg width="24" height="24" viewBox="0 0 24 24" fill="none" xmlns="http://www.w3.org/2000/svg">
<g clip-path="url(#clip0_10_248)">
<path d="M10.8486 22.21C13.5029 22.21 15.6562 20.0654 15.6562 17.4023C15.6562 16.04 15.1025 14.8447 14.0566 13.8779C13.8721 13.7109 13.8281 13.6055 13.8281 13.3594L13.8369 5.66016C13.8369 3.69141 12.6328 2.38184 10.8486 2.38184C9.04688 2.38184 7.8252 3.69141 7.8252 5.66016L7.84277 13.3594C7.84277 13.6055 7.79883 13.7109 7.61426 13.8779C6.55957 14.8359 6.01465 16.04 6.01465 17.4023C6.01465 20.0654 8.16797 22.21 10.8486 22.21ZM10.8486 20.6807C9.02051 20.6807 7.55273 19.2041 7.55273 17.3848C7.55273 16.2686 8.08008 15.3018 9.00293 14.6777C9.27539 14.502 9.38086 14.335 9.38086 13.9834V5.72168C9.38086 4.62305 9.96973 3.91992 10.8486 3.91992C11.7012 3.91992 12.29 4.62305 12.29 5.72168V13.9834C12.29 14.335 12.3955 14.502 12.668 14.6777C13.5908 15.3018 14.1182 16.2686 14.1182 17.3848C14.1182 19.2041 12.6504 20.6807 10.8486 20.6807ZM15.5156 5.81836H17.4404C17.7744 5.81836 17.9854 5.57227 17.9854 5.28223C17.9854 4.99219 17.7744 4.74609 17.4404 4.74609H15.5156C15.1816 4.74609 14.9619 4.99219 14.9619 5.28223C14.9619 5.57227 15.1816 5.81836 15.5156 5.81836ZM15.5156 8.25293H17.4404C17.7744 8.25293 17.9854 8.00684 17.9854 7.7168C17.9854 7.42676 17.7744 7.18066 17.4404 7.18066H15.5156C15.1816 7.18066 14.9619 7.42676 14.9619 7.7168C14.9619 8.00684 15.1816 8.25293 15.5156 8.25293ZM15.5156 10.7051H17.4404C17.7744 10.7051 17.9854 10.459 17.9854 10.1689C17.9854 9.87891 17.7744 9.63281 17.4404 9.63281H15.5156C15.1816 9.63281 14.9619 9.87891 14.9619 10.1689C14.9619 10.459 15.1816 10.7051 15.5156 10.7051ZM10.8311 19.4941C12 19.4941 12.9404 18.5537 12.9404 17.376C12.9404 16.5674 12.4834 15.8906 11.8066 15.5303C11.5254 15.3809 11.4375 15.2754 11.4375 14.8535V10.3623C11.4375 9.91406 11.1738 9.63281 10.8311 9.63281C10.4971 9.63281 10.2334 9.91406 10.2334 10.3623V14.8535C10.2334 15.2754 10.1455 15.3809 9.86426 15.5303C9.1875 15.8906 8.73047 16.5674 8.73047 17.376C8.73047 18.5537 9.6709 19.4941 10.8311 19.4941ZM15.5156 13.1484H17.4404C17.7744 13.1484 17.9854 12.9023 17.9854 12.6123C17.9854 12.3223 17.7744 12.0762 17.4404 12.0762H15.5156C15.1816 12.0762 14.9619 12.3223 14.9619 12.6123C14.9619 12.9023 15.1816 13.1484 15.5156 13.1484Z" fill="#1C1C1E"/>
</g>
<defs>
<clipPath id="clip0_10_248">
<rect width="24" height="24" fill="white"/>
</clipPath>
</defs>
</svg>
