<svg width="24" height="24" viewBox="0 0 24 24" fill="none" xmlns="http://www.w3.org/2000/svg">
<g clip-path="url(#clip0_10_249)">
<path d="M20.0596 11.1006L18.9258 10.459L19.9277 9.87891C20.165 9.73828 20.2529 9.45703 20.1211 9.22852C19.9805 8.97363 19.6904 8.9209 19.4268 9.0791L17.9678 9.91406L15.4805 8.50781L17.9941 7.09277L19.4531 7.93652C19.708 8.08594 19.998 8.0332 20.1562 7.78711C20.2793 7.55859 20.1826 7.26855 19.9453 7.12793L18.9521 6.55664L20.0596 5.93262C20.3584 5.76562 20.4551 5.4668 20.2969 5.18555C20.1475 4.92188 19.8311 4.86035 19.5674 5.01855L18.4424 5.67773V4.53516C18.4424 4.24512 18.249 4.03418 17.9854 4.03418C17.6865 4.03418 17.5107 4.24512 17.5107 4.56152L17.4932 6.23145L15.0146 7.69922L15.041 4.79883L16.5 3.95508C16.7637 3.79688 16.8604 3.52441 16.7197 3.27832C16.5879 3.04102 16.2979 2.97949 16.0518 3.12012L15.0586 3.7002L15.0674 2.44336C15.0674 2.12695 14.8652 1.87207 14.5488 1.87207C14.2324 1.87207 14.0303 2.12695 14.0303 2.44336L14.0391 3.7002L13.0459 3.12012C12.7998 2.97949 12.5186 3.04102 12.3779 3.27832C12.2373 3.52441 12.334 3.79688 12.5977 3.95508L14.0566 4.79883L14.083 7.69922L12.5361 6.77637V7.89258L13.6084 8.50781L12.5361 9.11426V10.2393L14.083 9.31641L14.0566 12.1992L12.7822 12.9375C12.8965 13.2012 13.1074 13.5088 13.3271 13.7109L14.0391 13.2979L14.0303 14.5723C14.0303 14.8975 14.2324 15.1436 14.5488 15.1436C14.8652 15.1436 15.0674 14.8887 15.0674 14.5723L15.0586 13.3066L16.043 13.8779C16.2891 14.0186 16.5703 13.957 16.7109 13.7197C16.8604 13.4736 16.7549 13.2012 16.4912 13.043L15.041 12.1992L15.0146 9.31641L17.4756 10.7754L17.4844 12.4541C17.4844 12.7441 17.6689 12.9727 17.959 12.9814C18.2227 12.9814 18.4248 12.7529 18.4248 12.4805V11.3379L19.541 11.9883C19.8223 12.1553 20.1387 12.1025 20.2969 11.8389C20.4551 11.5576 20.332 11.25 20.0596 11.1006ZM8.45801 22.21C11.1123 22.21 13.2656 20.0654 13.2656 17.4023C13.2656 16.04 12.7119 14.8447 11.666 13.8779C11.4814 13.7109 11.4375 13.6055 11.4375 13.3594L11.4463 5.66016C11.4463 3.69141 10.2422 2.38184 8.45801 2.38184C6.65625 2.38184 5.43457 3.69141 5.43457 5.66016L5.45215 13.3594C5.45215 13.6055 5.4082 13.7109 5.22363 13.8779C4.16895 14.8359 3.62402 16.04 3.62402 17.4023C3.62402 20.0654 5.77734 22.21 8.45801 22.21ZM8.45801 20.6807C6.62988 20.6807 5.16211 19.2041 5.16211 17.3848C5.16211 16.2686 5.68945 15.3018 6.6123 14.6777C6.88477 14.502 6.99023 14.335 6.99023 13.9834V5.72168C6.99023 4.62305 7.5791 3.91992 8.45801 3.91992C9.31055 3.91992 9.89941 4.62305 9.89941 5.72168V13.9834C9.89941 14.335 10.0049 14.502 10.2773 14.6777C11.2002 15.3018 11.7275 16.2686 11.7275 17.3848C11.7275 19.2041 10.2598 20.6807 8.45801 20.6807ZM8.44043 19.4941C9.60938 19.4941 10.5498 18.5537 10.5498 17.376C10.5498 16.5674 10.0928 15.8906 9.41602 15.5303C9.13477 15.3809 9.04688 15.2754 9.04688 14.8535V13.0693C9.04688 12.6211 8.7832 12.3486 8.44043 12.3486C8.10645 12.3486 7.84277 12.6211 7.84277 13.0693V14.8535C7.84277 15.2754 7.75488 15.3809 7.47363 15.5303C6.79688 15.8906 6.33984 16.5674 6.33984 17.376C6.33984 18.5537 7.28027 19.4941 8.44043 19.4941Z" fill="#1C1C1E"/>
</g>
<defs>
<clipPath id="clip0_10_249">
<rect width="24" height="24" fill="white"/>
</clipPath>
</defs>
</svg>
