<svg width="24" height="24" viewBox="0 0 24 24" fill="none" xmlns="http://www.w3.org/2000/svg">
<g clip-path="url(#clip0_10_255)">
<path d="M11.8682 9.7207C17.3525 9.7207 20.5605 8.34961 20.5605 6.41602C20.5605 4.64941 18.0996 3.57715 14.4258 3.57715C11.7715 3.57715 9.66211 4.06055 8.03613 4.78125C7.56152 4.99219 7.45605 5.47559 7.61426 5.80957C7.79883 6.1875 8.26465 6.31055 8.7041 6.14355C10.1279 5.57227 11.9121 5.02734 14.3379 5.02734C17.1855 5.02734 18.9785 5.66895 18.9785 6.40723C18.9785 7.29492 16.0957 8.22656 11.7979 8.22656C7.35059 8.22656 5.02148 7.36523 5.02148 5.72168C5.02148 4.69336 5.9707 3.7002 8.44922 2.92676C8.94141 2.77734 9.13477 2.38184 9.00293 1.96875C8.8623 1.56445 8.50195 1.40625 7.94824 1.55566C4.91602 2.42578 3.43945 4.05176 3.43945 5.75684C3.43945 8.32324 6.35742 9.7207 11.8682 9.7207ZM12.1318 12.7178C14.9355 12.7178 17.5195 12.2607 19.3389 11.5312C19.7344 11.373 19.9102 10.9688 19.7256 10.626C19.5498 10.2832 19.1895 10.2129 18.7412 10.3711C17.0889 10.9863 14.6895 11.4082 12.1318 11.4082C10.2158 11.4082 8.03613 11.1709 6.31348 10.6699C5.87402 10.5381 5.50488 10.6787 5.39941 11.0566C5.28516 11.4258 5.4873 11.7861 5.94434 11.918C7.79883 12.4453 10.1191 12.7178 12.1318 12.7178ZM12.7559 15.6709C15.0938 15.6445 17.2734 15.3105 19.2949 14.6514C19.7959 14.4844 19.9102 14.0713 19.7783 13.7373C19.6465 13.3945 19.3037 13.2715 18.8115 13.4297C16.834 14.0537 14.8564 14.3613 12.7383 14.3613C11.8418 14.3613 10.8926 14.2998 10.1719 14.2031C9.69727 14.1416 9.39844 14.3438 9.33691 14.6953C9.2666 15.0557 9.45996 15.4072 9.96973 15.4863C10.6641 15.6006 11.6221 15.6797 12.7559 15.6709ZM11.9121 18.4658C13.5293 18.6504 15.5596 18.5889 17.2031 18.1494C17.6426 18.0352 17.8184 17.6484 17.7129 17.2881C17.5986 16.9189 17.2471 16.7783 16.7812 16.8838C15.3662 17.2441 13.6699 17.3584 12.1143 17.1826C11.6396 17.1387 11.3145 17.3672 11.2705 17.7275C11.2266 18.0791 11.4111 18.4043 11.9121 18.4658ZM11.3057 21.3398C11.8857 21.4102 12.5361 21.4102 13.1426 21.3311C13.5732 21.2871 13.8018 21.0059 13.7666 20.6279C13.7402 20.2852 13.459 20.0391 12.9932 20.1006C12.4922 20.1621 11.9121 20.1621 11.4287 20.1006C10.9805 20.0479 10.6992 20.2939 10.6553 20.6279C10.6113 20.9883 10.8398 21.2871 11.3057 21.3398Z" fill="#1C1C1E"/>
</g>
<defs>
<clipPath id="clip0_10_255">
<rect width="24" height="24" fill="white"/>
</clipPath>
</defs>
</svg>
