<svg width="24" height="24" viewBox="0 0 24 24" fill="none" xmlns="http://www.w3.org/2000/svg">
<g clip-path="url(#clip0_10_254)">
<path d="M7.02539 21.2695C12.3691 21.2695 16.6318 17.5078 16.6318 11.8301C16.6318 9.29004 14.5312 7.19824 12 7.19824C11.1826 7.19824 10.4092 7.41797 9.74121 7.7959C11.1299 5.34375 13.8281 3.91992 16.9746 3.91992C17.4229 3.91992 17.748 3.57715 17.748 3.15527C17.748 2.7334 17.4229 2.39941 16.9746 2.39941C11.6309 2.39941 7.37695 6.16113 7.37695 11.8301C7.37695 14.3701 9.46875 16.4707 12 16.4707C12.8174 16.4707 13.5908 16.251 14.2588 15.873C12.8701 18.3164 10.1719 19.749 7.02539 19.749C6.57715 19.749 6.25195 20.083 6.25195 20.5049C6.25195 20.9268 6.57715 21.2695 7.02539 21.2695ZM12 14.9326C10.3125 14.9326 8.89746 13.5264 8.89746 11.8301C8.89746 10.1426 10.3125 8.72754 12 8.72754C13.6963 8.72754 15.1025 10.1426 15.1025 11.8301C15.1025 13.5264 13.6963 14.9326 12 14.9326ZM11.9912 13.1221C12.7031 13.1221 13.2832 12.5332 13.2832 11.8301C13.2832 11.127 12.7031 10.5469 11.9912 10.5469C11.2881 10.5469 10.708 11.127 10.708 11.8301C10.708 12.542 11.2881 13.1221 11.9912 13.1221Z" fill="#1C1C1E"/>
</g>
<defs>
<clipPath id="clip0_10_254">
<rect width="24" height="24" fill="white"/>
</clipPath>
</defs>
</svg>
