<svg width="24" height="24" viewBox="0 0 24 24" fill="none" xmlns="http://www.w3.org/2000/svg">
<g clip-path="url(#clip0_10_258)">
<path d="M3.77344 9.87012C5.03906 9.47461 6.34863 9.27246 7.59668 9.27246C9.20508 9.27246 10.3916 9.52734 11.9209 9.52734C13.5293 9.52734 14.5664 8.41992 14.5664 6.97852C14.5664 5.50195 13.4502 4.43848 12.0352 4.43848C11.0244 4.43848 10.1191 5.0625 9.72363 5.92383C9.55664 6.25781 9.62695 6.63574 9.96973 6.81152C10.2861 6.9873 10.6816 6.88184 10.8926 6.48633C11.0771 6.07324 11.5254 5.74805 12.0352 5.74805C12.7295 5.74805 13.2656 6.22266 13.2656 6.97852C13.2656 7.73438 12.7383 8.21777 11.9209 8.21777C10.4795 8.21777 9.2666 7.96289 7.59668 7.96289C6.16406 7.96289 4.70508 8.21777 3.37793 8.62207C2.96484 8.73633 2.79785 9.09668 2.89453 9.44824C3 9.7998 3.33398 9.99316 3.77344 9.87012ZM17.5635 14.0889C19.6465 14.0889 21.1318 12.7529 21.1318 10.8896C21.1318 9.06152 19.7256 7.7168 17.959 7.7168C16.3945 7.7168 15.1816 8.78027 14.918 10.2129C14.8301 10.6084 15.041 10.96 15.3926 11.0303C15.7529 11.1094 16.0957 10.8984 16.2012 10.4502C16.3594 9.59766 17.0977 9.01758 17.959 9.01758C18.9961 9.01758 19.8223 9.78223 19.8223 10.8896C19.8223 12.0146 18.9346 12.7881 17.5635 12.7881C14.8828 12.7881 11.9648 11.2588 8.44043 11.2588C6.62109 11.2588 4.95996 11.5488 3.36914 12.0938C2.97363 12.2256 2.79785 12.5771 2.89453 12.9287C3 13.2803 3.35156 13.4824 3.77344 13.333C5.22363 12.8057 6.72656 12.5684 8.44043 12.5684C11.9297 12.5684 14.5664 14.0889 17.5635 14.0889ZM11.9385 20.3818C13.3271 20.3818 14.417 19.3359 14.417 17.8594C14.417 15.7324 12.2461 14.5547 8.28223 14.5547C6.65625 14.5547 4.88086 14.8623 3.37793 15.3721C2.97363 15.5127 2.79785 15.8643 2.89453 16.207C3 16.5674 3.35156 16.7695 3.77344 16.6201C5.1709 16.1279 6.71777 15.8555 8.28223 15.8555C11.4111 15.8555 13.1074 16.6377 13.1074 17.8594C13.1074 18.6152 12.5889 19.0723 11.9385 19.0723C11.2969 19.0723 10.9014 18.6504 10.7695 17.9736C10.6729 17.6133 10.374 17.3584 9.96973 17.4287C9.55664 17.4902 9.38965 17.877 9.47754 18.2725C9.70605 19.459 10.6201 20.3818 11.9385 20.3818Z" fill="#1C1C1E"/>
</g>
<defs>
<clipPath id="clip0_10_258">
<rect width="24" height="24" fill="white"/>
</clipPath>
</defs>
</svg>
