<svg width="24" height="24" viewBox="0 0 24 24" fill="none" xmlns="http://www.w3.org/2000/svg">
<g clip-path="url(#clip0_10_257)">
<path d="M18.3105 6.24902C18.5303 6.24902 18.6973 6.05566 18.6709 5.82715L18.6006 5.10645L19.207 5.52832C19.374 5.65137 19.6201 5.60742 19.7344 5.42285C19.8574 5.23828 19.7695 4.97461 19.5498 4.88672L18.9082 4.5791L19.5674 4.2627C19.7695 4.1748 19.8574 3.9375 19.7432 3.74414C19.6465 3.55078 19.374 3.50684 19.1895 3.63867L18.6094 4.05176L18.6709 3.34863C18.6973 3.12012 18.5391 2.91797 18.3105 2.91797C18.082 2.91797 17.915 3.10254 17.9414 3.33984L18.0029 4.06055L17.4053 3.63867C17.2207 3.50684 16.9746 3.55078 16.8691 3.74414C16.7549 3.9375 16.834 4.1748 17.0449 4.27148L17.7041 4.5791L17.0537 4.88672C16.834 4.97461 16.7461 5.2207 16.8691 5.42285C16.9658 5.60742 17.2207 5.65137 17.4053 5.51953L18.0029 5.10645L17.9502 5.82715C17.9326 6.06445 18.0908 6.24902 18.3105 6.24902ZM3.74707 9.87012C5.0127 9.47461 6.32227 9.27246 7.57031 9.27246C9.17871 9.27246 10.3652 9.52734 11.8945 9.52734C13.5029 9.52734 14.54 8.41992 14.54 6.97852C14.54 5.50195 13.4238 4.43848 12.0088 4.43848C10.998 4.43848 10.0928 5.0625 9.69727 5.92383C9.53027 6.25781 9.60059 6.63574 9.94336 6.81152C10.2598 6.9873 10.6553 6.88184 10.8662 6.48633C11.0508 6.07324 11.499 5.74805 12.0088 5.74805C12.7031 5.74805 13.2393 6.22266 13.2393 6.97852C13.2393 7.73438 12.7119 8.21777 11.8945 8.21777C10.4531 8.21777 9.24023 7.96289 7.57031 7.96289C6.1377 7.96289 4.67871 8.21777 3.35156 8.62207C2.93848 8.73633 2.77148 9.09668 2.86816 9.44824C2.97363 9.7998 3.30762 9.99316 3.74707 9.87012ZM17.5371 14.0889C19.6201 14.0889 21.1055 12.7529 21.1055 10.8896C21.1055 9.06152 19.6992 7.7168 17.9326 7.7168C16.3682 7.7168 15.1553 8.78027 14.8916 10.2129C14.8037 10.6084 15.0146 10.96 15.3662 11.0303C15.7266 11.1094 16.0693 10.8984 16.1748 10.4502C16.333 9.59766 17.0713 9.01758 17.9326 9.01758C18.9697 9.01758 19.7959 9.78223 19.7959 10.8896C19.7959 12.0146 18.9082 12.7881 17.5371 12.7881C14.8564 12.7881 11.9385 11.2588 8.41406 11.2588C6.59473 11.2588 4.93359 11.5488 3.34277 12.0938C2.94727 12.2256 2.77148 12.5771 2.86816 12.9287C2.97363 13.2803 3.3252 13.4824 3.74707 13.333C5.19727 12.8057 6.7002 12.5684 8.41406 12.5684C11.9033 12.5684 14.54 14.0889 17.5371 14.0889ZM11.9121 20.3818C13.3008 20.3818 14.3906 19.3359 14.3906 17.8594C14.3906 15.7324 12.2197 14.5547 8.25586 14.5547C6.62988 14.5547 4.85449 14.8623 3.35156 15.3721C2.94727 15.5127 2.77148 15.8643 2.86816 16.207C2.97363 16.5674 3.3252 16.7695 3.74707 16.6201C5.14453 16.1279 6.69141 15.8555 8.25586 15.8555C11.3848 15.8555 13.0811 16.6377 13.0811 17.8594C13.0811 18.6152 12.5625 19.0723 11.9121 19.0723C11.2705 19.0723 10.875 18.6504 10.7432 17.9736C10.6465 17.6133 10.3477 17.3584 9.94336 17.4287C9.53027 17.4902 9.36328 17.877 9.45117 18.2725C9.67969 19.459 10.5938 20.3818 11.9121 20.3818ZM18.3105 19.1514C18.5303 19.1514 18.6973 18.9668 18.6709 18.7383L18.6006 18.0176L19.207 18.4307C19.374 18.5537 19.6201 18.5186 19.7344 18.334C19.8574 18.1406 19.7695 17.8857 19.5498 17.7979L18.9082 17.4902L19.5674 17.1738C19.7695 17.0859 19.8574 16.8486 19.7432 16.6465C19.6465 16.4619 19.374 16.4092 19.1895 16.5498L18.6094 16.9629L18.6709 16.251C18.6973 16.0225 18.5391 15.8291 18.3105 15.8291C18.082 15.8291 17.915 16.0137 17.9414 16.251L18.0029 16.9717L17.4053 16.5498C17.2207 16.418 16.9746 16.4531 16.8691 16.6465C16.7549 16.8486 16.834 17.0859 17.0449 17.1738L17.7041 17.4902L17.0537 17.7979C16.834 17.8857 16.7461 18.1318 16.8691 18.334C16.9658 18.5186 17.2207 18.5625 17.4053 18.4307L18.0029 18.0176L17.9502 18.7383C17.9326 18.9668 18.0908 19.1514 18.3105 19.1514Z" fill="#1C1C1E"/>
</g>
<defs>
<clipPath id="clip0_10_257">
<rect width="24" height="24" fill="white"/>
</clipPath>
</defs>
</svg>
