<svg width="24" height="24" viewBox="0 0 24 24" fill="none" xmlns="http://www.w3.org/2000/svg">
<g clip-path="url(#clip0_10_1295)">
<path d="M3.94043 19.7227H8.10645C8.94141 19.7227 9.60938 19.2744 9.96094 18.5186L15.665 5.92383C15.7881 5.66016 15.9902 5.53711 16.3066 5.53711H20.0596C20.6221 5.53711 21.0703 5.10645 21.0703 4.57031C21.0703 4.02539 20.6221 3.59473 20.0596 3.59473H15.8408C14.9531 3.59473 14.3818 3.96387 14.0127 4.78125L8.28223 17.3936C8.15918 17.6484 7.94824 17.7803 7.66699 17.7803H3.94043C3.36914 17.7803 2.92969 18.2021 2.92969 18.7471C2.92969 19.3008 3.36914 19.7227 3.94043 19.7227ZM14.5225 19.7227H20.0596C20.6309 19.7227 21.0615 19.3096 21.0615 18.7559C21.0615 18.2109 20.6309 17.7891 20.0596 17.7891H14.5225C13.9512 17.7891 13.5205 18.2109 13.5205 18.7559C13.5205 19.3096 13.96 19.7227 14.5225 19.7227Z" fill="#1C1C1E"/>
</g>
<defs>
<clipPath id="clip0_10_1295">
<rect width="24" height="24" fill="white"/>
</clipPath>
</defs>
</svg>
