<svg width="24" height="24" viewBox="0 0 24 24" fill="none" xmlns="http://www.w3.org/2000/svg">
<g clip-path="url(#clip0_10_1277)">
<path d="M18.8203 20.0215C18.8203 19.4766 18.4248 19.0635 17.8799 19.0635H12.0879C12.3252 19.0371 12.5537 18.9316 12.7295 18.7471L18.5127 12.9551C18.7236 12.7441 18.8203 12.5068 18.8203 12.2432C18.8203 11.6982 18.416 11.2939 17.8799 11.2939C17.6074 11.2939 17.3613 11.4082 17.1855 11.584L15.1816 13.5615L12.9053 16.1104L12.9756 14.2119V3.35742C12.9756 2.76855 12.5801 2.36426 12 2.36426C11.4199 2.36426 11.0244 2.76855 11.0244 3.35742V14.2119L11.0947 16.1016L8.81836 13.5615L6.81445 11.584C6.63867 11.4082 6.39258 11.2939 6.11133 11.2939C5.5752 11.2939 5.17969 11.6982 5.17969 12.2432C5.17969 12.5068 5.27637 12.7441 5.4873 12.9551L11.2705 18.7471C11.4463 18.9316 11.6748 19.0371 11.9121 19.0635H6.1377C5.58398 19.0635 5.17969 19.4766 5.17969 20.0215C5.17969 20.5664 5.58398 20.9795 6.1377 20.9795H17.8799C18.4248 20.9795 18.8203 20.5664 18.8203 20.0215Z" fill="#1C1C1E"/>
</g>
<defs>
<clipPath id="clip0_10_1277">
<rect width="24" height="24" fill="white"/>
</clipPath>
</defs>
</svg>
