<svg width="24" height="24" viewBox="0 0 24 24" fill="none" xmlns="http://www.w3.org/2000/svg">
<g clip-path="url(#clip0_10_1261)">
<path d="M12.5713 18.3164C12.8262 18.3164 13.0635 18.2197 13.2744 18.0176L19.0664 12.2256C19.251 12.0586 19.3564 11.8301 19.3828 11.584V17.376C19.3828 17.9209 19.7959 18.3164 20.3408 18.3164C20.8945 18.3164 21.3076 17.9209 21.3076 17.376V5.63379C21.3076 5.08887 20.8945 4.68457 20.3408 4.68457C19.7959 4.68457 19.3828 5.08887 19.3828 5.63379V11.417C19.3564 11.1797 19.251 10.9512 19.0664 10.7754L13.2744 4.9834C13.0635 4.78125 12.8262 4.68457 12.5713 4.68457C12.0176 4.68457 11.6133 5.08008 11.6133 5.61621C11.6133 5.89746 11.7275 6.13477 11.9033 6.31055L13.8809 8.31445L16.4297 10.5996L14.5312 10.5205H3.67676C3.08789 10.5205 2.68359 10.9248 2.68359 11.5049C2.68359 12.0762 3.08789 12.4805 3.67676 12.4805H14.5312L16.4297 12.4102L13.8809 14.6865L11.9033 16.6904C11.7275 16.8662 11.6133 17.1035 11.6133 17.3848C11.6133 17.9209 12.0176 18.3164 12.5713 18.3164Z" fill="#1C1C1E"/>
</g>
<defs>
<clipPath id="clip0_10_1261">
<rect width="24" height="24" fill="white"/>
</clipPath>
</defs>
</svg>
