<svg width="24" height="24" viewBox="0 0 24 24" fill="none" xmlns="http://www.w3.org/2000/svg">
<g clip-path="url(#clip0_10_1279)">
<path d="M12 19.5469C12.5801 19.5469 12.9756 19.1514 12.9756 18.5537V10.4414L12.8877 8.5957L15.1992 11.127L17.001 12.9023C17.1768 13.0781 17.4229 13.1924 17.7041 13.1924C18.2402 13.1924 18.6445 12.7881 18.6445 12.2344C18.6445 11.9795 18.5391 11.7334 18.3281 11.5225L12.7295 5.98535C12.5801 5.83594 12.4043 5.73047 12.2021 5.68652H17.7832C18.3369 5.68652 18.7412 5.28223 18.7412 4.72852C18.7412 4.1748 18.3369 3.77051 17.7832 3.77051H6.19922C5.6543 3.77051 5.25879 4.1748 5.25879 4.72852C5.25879 5.28223 5.6543 5.68652 6.19922 5.68652H11.7979C11.5957 5.73047 11.4199 5.83594 11.2705 5.98535L5.68066 11.5225C5.46973 11.7334 5.36426 11.9795 5.36426 12.2344C5.36426 12.7881 5.75977 13.1924 6.30469 13.1924C6.57715 13.1924 6.82324 13.0781 7.00781 12.9023L8.80078 11.127L11.1123 8.58691L11.0156 10.4414V18.5537C11.0156 19.1514 11.4199 19.5469 12 19.5469Z" fill="#1C1C1E"/>
</g>
<defs>
<clipPath id="clip0_10_1279">
<rect width="24" height="24" fill="white"/>
</clipPath>
</defs>
</svg>
