<svg width="24" height="24" viewBox="0 0 24 24" fill="none" xmlns="http://www.w3.org/2000/svg">
<g clip-path="url(#clip0_10_1281)">
<path d="M18.8203 11.1006C18.8203 10.8457 18.7236 10.6084 18.5127 10.3975L12.7295 4.59668C12.5537 4.4209 12.3252 4.30664 12.0879 4.28906H17.8799C18.4248 4.28906 18.8203 3.87598 18.8203 3.32227C18.8203 2.77734 18.4248 2.36426 17.8799 2.36426H6.1377C5.58398 2.36426 5.17969 2.77734 5.17969 3.32227C5.17969 3.87598 5.58398 4.28906 6.1377 4.28906H11.9121C11.6748 4.30664 11.4463 4.4209 11.2705 4.59668L5.4873 10.3975C5.27637 10.6084 5.17969 10.8457 5.17969 11.1006C5.17969 11.6455 5.5752 12.0498 6.11133 12.0498C6.39258 12.0498 6.63867 11.9443 6.81445 11.7686L8.81836 9.78223L11.0947 7.24219L11.0244 9.13184V19.9951C11.0244 20.584 11.4199 20.9883 12 20.9883C12.5801 20.9883 12.9756 20.584 12.9756 19.9951V9.13184L12.9053 7.2334L15.1816 9.78223L17.1855 11.7686C17.3613 11.9443 17.6074 12.0498 17.8799 12.0498C18.416 12.0498 18.8203 11.6455 18.8203 11.1006Z" fill="#1C1C1E"/>
</g>
<defs>
<clipPath id="clip0_10_1281">
<rect width="24" height="24" fill="white"/>
</clipPath>
</defs>
</svg>
