<svg width="24" height="24" viewBox="0 0 24 24" fill="none" xmlns="http://www.w3.org/2000/svg">
<g clip-path="url(#clip0_10_1265)">
<path d="M3.6416 18.3164C4.19531 18.3164 4.6084 17.9209 4.6084 17.376V11.584C4.62598 11.8301 4.74023 12.0586 4.91602 12.2256L10.7168 18.0176C10.9277 18.2197 11.165 18.3164 11.4199 18.3164C11.9648 18.3164 12.3691 17.9209 12.3691 17.3848C12.3691 17.1035 12.2637 16.8662 12.0791 16.6904L10.1016 14.6865L7.55273 12.4102L9.45117 12.4805H20.3145C20.9033 12.4805 21.3076 12.0762 21.3076 11.5049C21.3076 10.9248 20.9033 10.5205 20.3145 10.5205H9.45117L7.56152 10.5996L10.1016 8.31445L12.0791 6.31055C12.2637 6.13477 12.3691 5.89746 12.3691 5.61621C12.3691 5.08008 11.9648 4.68457 11.4199 4.68457C11.165 4.68457 10.9277 4.78125 10.7168 4.9834L4.91602 10.7754C4.74023 10.9512 4.62598 11.1797 4.6084 11.417V5.63379C4.6084 5.08887 4.19531 4.68457 3.6416 4.68457C3.09668 4.68457 2.68359 5.08887 2.68359 5.63379V17.376C2.68359 17.9209 3.09668 18.3164 3.6416 18.3164Z" fill="#1C1C1E"/>
</g>
<defs>
<clipPath id="clip0_10_1265">
<rect width="24" height="24" fill="white"/>
</clipPath>
</defs>
</svg>
