<svg width="24" height="24" viewBox="0 0 24 24" fill="none" xmlns="http://www.w3.org/2000/svg">
<g clip-path="url(#clip0_10_1290)">
<path d="M9.05566 15.3809H14.9355C16.1924 15.3809 16.8691 14.6602 16.8691 13.4736V12.0498H19.9893C20.7627 12.0498 21.3691 11.584 21.3691 10.8721C21.3691 10.4502 21.1582 10.0898 20.7451 9.73828L13.2305 3.18164C12.7822 2.79492 12.4307 2.58398 12 2.58398C11.5693 2.58398 11.209 2.79492 10.7607 3.18164L3.24609 9.73828C2.82422 10.1074 2.62207 10.4502 2.62207 10.8721C2.62207 11.584 3.22852 12.0498 4.00195 12.0498H7.13086V13.4736C7.13086 14.6602 7.80762 15.3809 9.05566 15.3809ZM9.38086 13.8252C9.09082 13.8252 8.88867 13.6318 8.88867 13.3418V10.793C8.88867 10.582 8.81836 10.5029 8.59863 10.5029H5.0918C5.03027 10.5029 5.00391 10.4766 5.00391 10.4326C5.00391 10.3975 5.02148 10.3711 5.06543 10.3271L11.833 4.54395C11.8945 4.48242 11.9473 4.45605 12 4.45605C12.0527 4.45605 12.1055 4.48242 12.167 4.54395L18.9346 10.3271C18.9785 10.3711 18.9961 10.3975 18.9961 10.4326C18.9961 10.4766 18.9697 10.5029 18.9082 10.5029H15.4014C15.1816 10.5029 15.1113 10.582 15.1113 10.793V13.3418C15.1113 13.623 14.9004 13.8252 14.6191 13.8252H9.38086ZM8.75684 21.252H15.1816C16.2451 21.252 16.8779 20.6455 16.8779 19.5645V18.2637C16.8779 17.2002 16.2451 16.5586 15.1816 16.5586H8.75684C7.69336 16.5586 7.05176 17.209 7.05176 18.2637V19.5645C7.05176 20.6367 7.69336 21.252 8.75684 21.252ZM9.12598 19.7666C8.8623 19.7666 8.71289 19.6172 8.71289 19.3535V18.4746C8.71289 18.2109 8.8623 18.0439 9.12598 18.0439H14.8037C15.0674 18.0439 15.2168 18.2109 15.2168 18.4746V19.3535C15.2168 19.6172 15.0674 19.7666 14.8037 19.7666H9.12598Z" fill="#1C1C1E"/>
</g>
<defs>
<clipPath id="clip0_10_1290">
<rect width="24" height="24" fill="white"/>
</clipPath>
</defs>
</svg>
