<svg width="24" height="24" viewBox="0 0 24 24" fill="none" xmlns="http://www.w3.org/2000/svg">
<g clip-path="url(#clip0_10_1289)">
<path d="M8.67773 15.3984H15.3223C16.3506 15.3984 16.8691 14.8887 16.8691 13.8604V12.0498H19.9893C20.7627 12.0498 21.3691 11.584 21.3691 10.8721C21.3691 10.4502 21.1582 10.0898 20.7451 9.73828L13.2305 3.18164C12.7822 2.79492 12.4307 2.58398 12 2.58398C11.5693 2.58398 11.209 2.79492 10.7607 3.18164L3.24609 9.73828C2.82422 10.1074 2.62207 10.4502 2.62207 10.8721C2.62207 11.584 3.22852 12.0498 4.00195 12.0498H7.12207V13.8604C7.12207 14.8887 7.64062 15.3984 8.67773 15.3984ZM8.60742 21.252H15.3926C16.3154 21.252 16.8691 20.707 16.8691 19.7842V18.2988C16.8691 17.3848 16.3154 16.8398 15.3926 16.8398H8.60742C7.67578 16.8398 7.12207 17.3848 7.12207 18.2988V19.7842C7.12207 20.707 7.67578 21.252 8.60742 21.252Z" fill="#1C1C1E"/>
</g>
<defs>
<clipPath id="clip0_10_1289">
<rect width="24" height="24" fill="white"/>
</clipPath>
</defs>
</svg>
