<svg width="24" height="24" viewBox="0 0 24 24" fill="none" xmlns="http://www.w3.org/2000/svg">
<g clip-path="url(#clip0_10_1304)">
<path d="M6.67383 19.8809H17.3174C19.2246 19.8809 20.209 18.8965 20.209 17.0156V6.31934C20.209 4.43848 19.2246 3.4541 17.3174 3.4541H6.67383C4.77539 3.4541 3.78223 4.42969 3.78223 6.31934V17.0156C3.78223 18.8965 4.77539 19.8809 6.67383 19.8809ZM9.0293 15.4863C8.56348 15.4863 8.19434 15.1172 8.19434 14.6426C8.19434 14.4316 8.28223 14.2207 8.44922 14.0625L10.8398 11.6631L8.44922 9.27246C8.28223 9.11426 8.19434 8.90332 8.19434 8.69238C8.19434 8.21777 8.56348 7.85742 9.0293 7.85742C9.27539 7.85742 9.46875 7.93652 9.62695 8.09473L12.0264 10.4854L14.4346 8.08594C14.6104 7.91895 14.7949 7.83984 15.0322 7.83984C15.498 7.83984 15.8672 8.20898 15.8672 8.6748C15.8672 8.89453 15.7793 9.08789 15.6123 9.26367L13.2217 11.6631L15.6123 14.0537C15.7705 14.2207 15.8584 14.4229 15.8584 14.6426C15.8584 15.1172 15.4893 15.4863 15.0146 15.4863C14.7773 15.4863 14.5752 15.3984 14.4082 15.2402L12.0264 12.8584L9.64453 15.2402C9.48633 15.4072 9.27539 15.4863 9.0293 15.4863Z" fill="#1C1C1E"/>
</g>
<defs>
<clipPath id="clip0_10_1304">
<rect width="24" height="24" fill="white"/>
</clipPath>
</defs>
</svg>
