<svg width="24" height="24" viewBox="0 0 24 24" fill="none" xmlns="http://www.w3.org/2000/svg">
<g clip-path="url(#clip0_10_1293)">
<path d="M6.67383 19.8809H17.3174C19.2246 19.8809 20.209 18.8965 20.209 17.0156V6.31934C20.209 4.43848 19.2246 3.4541 17.3174 3.4541H6.67383C4.77539 3.4541 3.78223 4.42969 3.78223 6.31934V17.0156C3.78223 18.8965 4.77539 19.8809 6.67383 19.8809ZM6.78809 18.1318C5.97949 18.1318 5.53125 17.71 5.53125 16.8574V6.47754C5.53125 5.625 5.97949 5.20312 6.78809 5.20312H17.2031C18.0029 5.20312 18.46 5.625 18.46 6.47754V16.8574C18.46 17.71 18.0029 18.1318 17.2031 18.1318H6.78809ZM9.12598 15.3457C9.35449 15.3457 9.54785 15.2578 9.70605 15.0996L12 12.7969L14.3115 15.0996C14.4609 15.2578 14.6543 15.3457 14.8916 15.3457C15.3398 15.3457 15.6914 14.9854 15.6914 14.5371C15.6914 14.3174 15.6035 14.1328 15.4453 13.9746L13.1426 11.6631L15.4541 9.34277C15.6211 9.18457 15.7002 9 15.7002 8.78906C15.7002 8.34082 15.3398 7.98926 14.9004 7.98926C14.6719 7.98926 14.4961 8.05957 14.3291 8.22656L12 10.5469L9.68848 8.23535C9.53906 8.07715 9.35449 8.00684 9.12598 8.00684C8.67773 8.00684 8.32617 8.34961 8.32617 8.79785C8.32617 9.00879 8.41406 9.20215 8.56348 9.35156L10.875 11.6631L8.56348 13.9834C8.41406 14.1328 8.32617 14.3262 8.32617 14.5371C8.32617 14.9854 8.67773 15.3457 9.12598 15.3457Z" fill="#1C1C1E"/>
</g>
<defs>
<clipPath id="clip0_10_1293">
<rect width="24" height="24" fill="white"/>
</clipPath>
</defs>
</svg>
