<svg width="24" height="24" viewBox="0 0 24 24" fill="none" xmlns="http://www.w3.org/2000/svg">
<g clip-path="url(#clip0_10_1303)">
<path d="M6.67383 19.8809H17.3174C19.2246 19.8809 20.209 18.8965 20.209 17.0156V6.31934C20.209 4.43848 19.2246 3.4541 17.3174 3.4541H6.67383C4.77539 3.4541 3.78223 4.42969 3.78223 6.31934V17.0156C3.78223 18.8965 4.77539 19.8809 6.67383 19.8809ZM9.89941 10.916H9.27539C8.19434 10.916 7.31543 10.0459 7.31543 8.97363C7.31543 7.88379 8.19434 7.00488 9.27539 7.00488C10.3564 7.00488 11.2354 7.89258 11.2354 8.97363V9.58887H12.7031V8.97363C12.7031 7.89258 13.582 7.00488 14.6631 7.00488C15.7441 7.00488 16.623 7.88379 16.623 8.97363C16.623 10.0459 15.7441 10.916 14.6631 10.916H14.0391V12.4014H14.6631C15.7441 12.4014 16.623 13.2715 16.623 14.3525C16.623 15.4336 15.7441 16.3125 14.6631 16.3125C13.582 16.3125 12.7031 15.4248 12.7031 14.3525V13.7285H11.2354V14.3525C11.2354 15.4248 10.3564 16.3125 9.27539 16.3125C8.19434 16.3125 7.31543 15.4336 7.31543 14.3525C7.31543 13.2715 8.19434 12.4014 9.27539 12.4014H9.89941V10.916ZM9.29297 9.62402H9.91699V8.99121C9.91699 8.63086 9.62695 8.32324 9.27539 8.32324C8.92383 8.32324 8.625 8.62207 8.625 8.97363C8.625 9.33398 8.92383 9.62402 9.29297 9.62402ZM14.6455 9.62402C15.0146 9.62402 15.3135 9.33398 15.3135 8.97363C15.3135 8.62207 15.0146 8.32324 14.6631 8.32324C14.3115 8.32324 14.0215 8.63086 14.0215 8.99121V9.62402H14.6455ZM11.2178 12.4365H12.7207V10.8896H11.2178V12.4365ZM9.29297 13.6934C8.93262 13.6934 8.625 13.9922 8.625 14.3438C8.625 14.7041 8.92383 14.9941 9.27539 14.9941C9.62695 14.9941 9.91699 14.6953 9.91699 14.3262V13.6934H9.29297ZM14.6455 13.6934H14.0215V14.3262C14.0215 14.6953 14.3115 14.9941 14.6631 14.9941C15.0146 14.9941 15.3135 14.7041 15.3135 14.3438C15.3135 13.9922 15.0059 13.6934 14.6455 13.6934Z" fill="#1C1C1E"/>
</g>
<defs>
<clipPath id="clip0_10_1303">
<rect width="24" height="24" fill="white"/>
</clipPath>
</defs>
</svg>
