<svg width="24" height="24" viewBox="0 0 24 24" fill="none" xmlns="http://www.w3.org/2000/svg">
<g clip-path="url(#clip0_10_1301)">
<path d="M11.9912 20.7598C16.9746 20.7598 21.0879 16.6465 21.0879 11.6631C21.0879 6.68848 16.9658 2.5752 11.9824 2.5752C7.00781 2.5752 2.90332 6.68848 2.90332 11.6631C2.90332 16.6465 7.0166 20.7598 11.9912 20.7598ZM9.86426 10.9336H9.24023C8.15918 10.9336 7.28027 10.0635 7.28027 8.98242C7.28027 7.89258 8.15918 7.02246 9.24023 7.02246C10.3213 7.02246 11.2002 7.91016 11.2002 8.98242V9.59766H12.668V8.98242C12.668 7.91016 13.5469 7.02246 14.6279 7.02246C15.709 7.02246 16.5879 7.89258 16.5879 8.98242C16.5879 10.0635 15.709 10.9336 14.6279 10.9336H14.0039V12.4102H14.6279C15.709 12.4102 16.5879 13.2803 16.5879 14.3613C16.5879 15.4512 15.709 16.3213 14.6279 16.3213C13.5469 16.3213 12.668 15.4336 12.668 14.3613V13.7461H11.2002V14.3613C11.2002 15.4336 10.3213 16.3213 9.24023 16.3213C8.15918 16.3213 7.28027 15.4512 7.28027 14.3613C7.28027 13.2803 8.15918 12.4102 9.24023 12.4102H9.86426V10.9336ZM9.25781 9.63281H9.88184V9C9.88184 8.63965 9.5918 8.33203 9.24023 8.33203C8.88867 8.33203 8.58984 8.63086 8.58984 8.98242C8.58984 9.34277 8.88867 9.63281 9.25781 9.63281ZM14.6104 9.63281C14.9795 9.63281 15.2783 9.34277 15.2783 8.98242C15.2783 8.63086 14.9795 8.33203 14.6279 8.33203C14.2764 8.33203 13.9863 8.63965 13.9863 9V9.63281H14.6104ZM11.1826 12.4453H12.6855V10.8984H11.1826V12.4453ZM9.25781 13.7021C8.89746 13.7021 8.58984 14.001 8.58984 14.3525C8.58984 14.7129 8.87988 15.0029 9.24023 15.0029C9.5918 15.0029 9.88184 14.7041 9.88184 14.335V13.7021H9.25781ZM14.6104 13.7021H13.9863V14.335C13.9863 14.7041 14.2764 15.0029 14.6279 15.0029C14.9795 15.0029 15.2783 14.7129 15.2783 14.3525C15.2783 14.001 14.9707 13.7021 14.6104 13.7021Z" fill="#1C1C1E"/>
</g>
<defs>
<clipPath id="clip0_10_1301">
<rect width="24" height="24" fill="white"/>
</clipPath>
</defs>
</svg>
