<svg width="24" height="24" viewBox="0 0 24 24" fill="none" xmlns="http://www.w3.org/2000/svg">
<g clip-path="url(#clip0_10_1307)">
<path d="M6.67383 19.8809H17.3174C19.2246 19.8809 20.209 18.8965 20.209 17.0156V6.31934C20.209 4.43848 19.2246 3.4541 17.3174 3.4541H6.67383C4.77539 3.4541 3.78223 4.42969 3.78223 6.31934V17.0156C3.78223 18.8965 4.77539 19.8809 6.67383 19.8809ZM6.78809 18.1318C5.97949 18.1318 5.53125 17.71 5.53125 16.8574V6.47754C5.53125 5.625 5.97949 5.20312 6.78809 5.20312H17.2031C18.0029 5.20312 18.46 5.625 18.46 6.47754V16.8574C18.46 17.71 18.0029 18.1318 17.2031 18.1318H6.78809ZM9.96094 10.9336V12.3838H9.35449C8.31738 12.3838 7.47363 13.2188 7.47363 14.2471C7.47363 15.293 8.31738 16.1367 9.35449 16.1367C10.3916 16.1367 11.2354 15.2842 11.2354 14.2471V13.6494H12.6592V14.2471C12.6592 15.2842 13.5117 16.1367 14.54 16.1367C15.5859 16.1367 16.4209 15.293 16.4209 14.2471C16.4209 13.2188 15.5859 12.3838 14.54 12.3838H13.9424V10.9336H14.54C15.5859 10.9336 16.4209 10.0986 16.4209 9.07031C16.4209 8.02441 15.5859 7.18945 14.54 7.18945C13.5117 7.18945 12.6592 8.04199 12.6592 9.07031V9.66797H11.2354V9.07031C11.2354 8.04199 10.3916 7.18945 9.35449 7.18945C8.31738 7.18945 7.47363 8.02441 7.47363 9.07031C7.47363 10.0986 8.31738 10.9336 9.35449 10.9336H9.96094ZM9.37207 9.70312C9.01172 9.70312 8.73047 9.42188 8.73047 9.07031C8.73047 8.72754 9.01172 8.44629 9.35449 8.44629C9.69727 8.44629 9.97852 8.73633 9.97852 9.08789V9.70312H9.37207ZM14.5225 9.70312H13.9248V9.08789C13.9248 8.73633 14.1973 8.44629 14.54 8.44629C14.8828 8.44629 15.1729 8.72754 15.1729 9.07031C15.1729 9.42188 14.8828 9.70312 14.5225 9.70312ZM11.2178 12.4102V10.9072H12.6768V12.4102H11.2178ZM9.37207 13.6143H9.97852V14.2295C9.97852 14.5898 9.69727 14.8711 9.35449 14.8711C9.01172 14.8711 8.73047 14.5898 8.73047 14.2471C8.73047 13.9043 9.02051 13.6143 9.37207 13.6143ZM14.5225 13.6143C14.874 13.6143 15.1729 13.9043 15.1729 14.2471C15.1729 14.5898 14.8916 14.8711 14.54 14.8711C14.1973 14.8711 13.9248 14.5898 13.9248 14.2295V13.6143H14.5225Z" fill="#1C1C1E"/>
</g>
<defs>
<clipPath id="clip0_10_1307">
<rect width="24" height="24" fill="white"/>
</clipPath>
</defs>
</svg>
