<svg width="24" height="24" viewBox="0 0 24 24" fill="none" xmlns="http://www.w3.org/2000/svg">
<g clip-path="url(#clip0_10_1305)">
<path d="M11.9912 20.7422C16.9746 20.7422 21.0879 16.6289 21.0879 11.6543C21.0879 6.67969 16.9658 2.56641 11.9824 2.56641C7.00781 2.56641 2.90332 6.67969 2.90332 11.6543C2.90332 16.6289 7.0166 20.7422 11.9912 20.7422ZM11.9912 18.9316C7.95703 18.9316 4.73145 15.6885 4.73145 11.6543C4.73145 7.62012 7.95703 4.38574 11.9824 4.38574C16.0166 4.38574 19.2598 7.62012 19.2686 11.6543C19.2773 15.6885 16.0254 18.9316 11.9912 18.9316ZM9.94336 10.9424V12.3926H9.3457C8.2998 12.3926 7.45605 13.2275 7.45605 14.2559C7.45605 15.3018 8.2998 16.1367 9.3457 16.1367C10.374 16.1367 11.2178 15.293 11.2178 14.2559V13.6582H12.6504V14.2559C12.6504 15.293 13.4941 16.1367 14.5225 16.1367C15.5684 16.1367 16.4121 15.3018 16.4121 14.2559C16.4121 13.2275 15.5684 12.3926 14.5225 12.3926H13.9248V10.9424H14.5225C15.5684 10.9424 16.4121 10.1074 16.4121 9.0791C16.4121 8.0332 15.5684 7.18945 14.5225 7.18945C13.4941 7.18945 12.6504 8.04199 12.6504 9.0791V9.67676H11.2178V9.0791C11.2178 8.04199 10.374 7.18945 9.3457 7.18945C8.2998 7.18945 7.45605 8.0332 7.45605 9.0791C7.45605 10.1074 8.2998 10.9424 9.3457 10.9424H9.94336ZM9.35449 9.70312C8.99414 9.70312 8.71289 9.42188 8.71289 9.0791C8.71289 8.73633 9.00293 8.44629 9.3457 8.44629C9.67969 8.44629 9.96094 8.74512 9.96094 9.08789V9.70312H9.35449ZM14.5137 9.70312H13.9072V9.08789C13.9072 8.74512 14.1885 8.44629 14.5225 8.44629C14.8652 8.44629 15.1553 8.73633 15.1553 9.0791C15.1553 9.42188 14.874 9.70312 14.5137 9.70312ZM11.2002 12.4189V10.916H12.668V12.4189H11.2002ZM9.35449 13.623H9.96094V14.2383C9.96094 14.5898 9.67969 14.8799 9.3457 14.8799C8.99414 14.8799 8.71289 14.5986 8.71289 14.2471C8.71289 13.9043 9.00293 13.623 9.35449 13.623ZM14.5137 13.623C14.8652 13.623 15.1553 13.9043 15.1553 14.2471C15.1553 14.5986 14.874 14.8799 14.5225 14.8799C14.1885 14.8799 13.9072 14.5898 13.9072 14.2383V13.623H14.5137Z" fill="#1C1C1E"/>
</g>
<defs>
<clipPath id="clip0_10_1305">
<rect width="24" height="24" fill="white"/>
</clipPath>
</defs>
</svg>
