<svg width="24" height="24" viewBox="0 0 24 24" fill="none" xmlns="http://www.w3.org/2000/svg">
<g clip-path="url(#clip0_10_1292)">
<path d="M8.51953 9.7998V13.5264H6.88477C5.08301 13.5264 3.61523 14.9502 3.61523 16.7607C3.61523 18.5713 5.07422 20.0391 6.88477 20.0391C8.67773 20.0391 10.1455 18.5713 10.1455 16.7607V15.1436H13.8457V16.7607C13.8457 18.5713 15.3135 20.0391 17.1064 20.0391C18.917 20.0391 20.376 18.5713 20.376 16.7607C20.376 14.9502 18.9082 13.5264 17.1064 13.5264H15.4717V9.7998H17.1064C18.9082 9.79102 20.376 8.36719 20.376 6.55664C20.376 4.75488 18.917 3.27832 17.1064 3.27832C15.3135 3.27832 13.8457 4.75488 13.8457 6.55664V8.18262H10.1455V6.55664C10.1455 4.75488 8.67773 3.27832 6.88477 3.27832C5.07422 3.27832 3.61523 4.75488 3.61523 6.55664C3.61523 8.36719 5.08301 9.79102 6.88477 9.7998H8.51953ZM6.91113 8.2002C5.99707 8.2002 5.25879 7.46191 5.25879 6.55664C5.25879 5.66016 5.99707 4.92188 6.88477 4.92188C7.77246 4.92188 8.51074 5.66016 8.51074 6.58301V8.2002H6.91113ZM17.0889 8.2002H15.4805V6.58301C15.4805 5.66016 16.2188 4.92188 17.1064 4.92188C18.0029 4.92188 18.7324 5.66016 18.7324 6.55664C18.7324 7.46191 17.9941 8.2002 17.0889 8.2002ZM10.1543 13.5352V9.78223H13.8457V13.5352H10.1543ZM6.91113 15.1172H8.51074V16.7344C8.51074 17.6484 7.77246 18.3867 6.88477 18.3867C5.99707 18.3867 5.25879 17.6572 5.25879 16.752C5.25879 15.8555 5.99707 15.1172 6.91113 15.1172ZM17.0889 15.1172C17.9941 15.1172 18.7324 15.8555 18.7324 16.752C18.7324 17.6572 18.0029 18.3867 17.1064 18.3867C16.2188 18.3867 15.4805 17.6484 15.4805 16.7344V15.1172H17.0889Z" fill="#1C1C1E"/>
</g>
<defs>
<clipPath id="clip0_10_1292">
<rect width="24" height="24" fill="white"/>
</clipPath>
</defs>
</svg>
