<svg width="24" height="24" viewBox="0 0 24 24" fill="none" xmlns="http://www.w3.org/2000/svg">
<g clip-path="url(#clip0_10_1264)">
<path d="M4.50293 10.5469L11.1914 3.70898C11.4287 3.46289 11.6924 3.34863 12 3.34863C12.3076 3.34863 12.5889 3.47168 12.8174 3.70898L19.4971 10.5469C19.6904 10.749 19.7959 10.9863 19.7959 11.2764C19.7959 11.8652 19.3389 12.3223 18.7588 12.3223C18.4775 12.3223 18.2051 12.208 18.0029 12.0059L12.0088 5.84473L5.99707 12.0059C5.79492 12.208 5.53125 12.3223 5.24121 12.3223C4.66113 12.3223 4.2041 11.8652 4.2041 11.2764C4.2041 10.9951 4.30957 10.749 4.50293 10.5469Z" fill="#1C1C1E"/>
</g>
<defs>
<clipPath id="clip0_10_1264">
<rect width="24" height="24" fill="white"/>
</clipPath>
</defs>
</svg>
