<svg width="24" height="24" viewBox="0 0 24 24" fill="none" xmlns="http://www.w3.org/2000/svg">
<g clip-path="url(#clip0_10_1291)">
<path d="M18.4775 19.8809C20.376 19.8809 21.3691 18.9756 21.3691 17.0947V6.31934C21.3691 4.42969 20.376 3.4541 18.4775 3.4541H10.875C9.67969 3.4541 8.82715 3.74414 8.02734 4.61426L3.07031 9.8877C2.42871 10.5908 2.18262 11.1006 2.18262 11.6543C2.18262 12.208 2.42871 12.7266 3.07031 13.4209L8.03613 18.668C8.83594 19.5381 9.68848 19.8721 10.8838 19.8721L18.4775 19.8809ZM18.3633 18.1318H10.8047C10.1982 18.1318 9.80273 17.9736 9.37207 17.5254L4.44141 12.3135C4.18652 12.041 4.10742 11.8564 4.10742 11.6543C4.10742 11.4521 4.19531 11.2676 4.44141 10.9951L9.36328 5.76562C9.78516 5.31738 10.1982 5.20312 10.7959 5.20312H18.3633C19.1719 5.20312 19.6201 5.625 19.6201 6.47754V16.8574C19.6201 17.71 19.1719 18.1318 18.3633 18.1318ZM10.5234 15.3545C10.752 15.3545 10.9541 15.2666 11.1035 15.1084L13.3975 12.8057L15.709 15.1084C15.8584 15.2666 16.0518 15.3545 16.2891 15.3545C16.7373 15.3545 17.0889 14.9941 17.0889 14.5459C17.0889 14.3262 17.001 14.1416 16.8428 13.9834L14.54 11.6719L16.8516 9.35156C17.0186 9.19336 17.0977 9.00879 17.0977 8.79785C17.0977 8.34961 16.7461 7.99805 16.2979 7.99805C16.0781 7.99805 15.8936 8.06836 15.7266 8.23535L13.3975 10.5469L11.0859 8.24414C10.9365 8.08594 10.752 8.01562 10.5234 8.01562C10.0752 8.01562 9.72363 8.3584 9.72363 8.80664C9.72363 9.01758 9.81152 9.21094 9.96094 9.36035L12.2725 11.6719L9.96094 13.9922C9.81152 14.1416 9.72363 14.335 9.72363 14.5459C9.72363 14.9941 10.0752 15.3545 10.5234 15.3545Z" fill="#1C1C1E"/>
</g>
<defs>
<clipPath id="clip0_10_1291">
<rect width="24" height="24" fill="white"/>
</clipPath>
</defs>
</svg>
