<svg width="24" height="24" viewBox="0 0 24 24" fill="none" xmlns="http://www.w3.org/2000/svg">
<g clip-path="url(#clip0_10_1294)">
<path d="M5.53125 19.8809L13.125 19.8721C14.3115 19.8721 15.1641 19.5381 15.9639 18.668L20.9297 13.4209C21.5713 12.7266 21.8174 12.208 21.8174 11.6543C21.8174 11.1006 21.5801 10.5908 20.9297 9.8877L15.9727 4.61426C15.1729 3.74414 14.3203 3.4541 13.125 3.4541H5.53125C3.62402 3.4541 2.63086 4.42969 2.63086 6.31934V17.0947C2.63086 18.9756 3.62402 19.8809 5.53125 19.8809ZM7.62305 15.4951C7.15723 15.4951 6.78809 15.126 6.78809 14.6514C6.78809 14.4316 6.87598 14.2295 7.03418 14.0713L9.43359 11.6719L7.03418 9.28125C6.87598 9.12305 6.78809 8.91211 6.78809 8.69238C6.78809 8.22656 7.15723 7.86621 7.62305 7.86621C7.86914 7.86621 8.0625 7.94531 8.2207 8.10352L10.6113 10.4941L13.0283 8.09473C13.1953 7.92773 13.3887 7.84863 13.626 7.84863C14.0918 7.84863 14.4521 8.21777 14.4521 8.68359C14.4521 8.90332 14.373 9.09668 14.2061 9.27246L11.8066 11.6719L14.1973 14.0625C14.3643 14.2295 14.4521 14.4316 14.4521 14.6514C14.4521 15.126 14.083 15.4951 13.6084 15.4951C13.3711 15.4951 13.1602 15.4072 13.002 15.249L10.6113 12.8584L8.23828 15.249C8.07129 15.416 7.86914 15.4951 7.62305 15.4951Z" fill="#1C1C1E"/>
</g>
<defs>
<clipPath id="clip0_10_1294">
<rect width="24" height="24" fill="white"/>
</clipPath>
</defs>
</svg>
