<svg width="24" height="24" viewBox="0 0 24 24" fill="none" xmlns="http://www.w3.org/2000/svg">
<g clip-path="url(#clip0_10_1306)">
<path d="M18.4775 19.8809C20.376 19.8809 21.3691 18.9756 21.3691 17.0947V6.31934C21.3691 4.42969 20.376 3.4541 18.4775 3.4541H10.875C9.67969 3.4541 8.82715 3.74414 8.02734 4.61426L3.07031 9.8877C2.42871 10.5908 2.18262 11.1006 2.18262 11.6543C2.18262 12.208 2.42871 12.7266 3.07031 13.4209L8.03613 18.668C8.83594 19.5381 9.68848 19.8721 10.8838 19.8721L18.4775 19.8809ZM10.4092 15.4951C9.94336 15.4951 9.57422 15.126 9.57422 14.6514C9.57422 14.4316 9.66211 14.2295 9.82031 14.0713L12.2197 11.6719L9.82031 9.28125C9.66211 9.12305 9.57422 8.91211 9.57422 8.69238C9.57422 8.22656 9.94336 7.86621 10.4092 7.86621C10.6553 7.86621 10.8486 7.94531 11.0068 8.10352L13.3975 10.4941L15.8145 8.09473C15.9814 7.92773 16.1748 7.84863 16.4121 7.84863C16.8779 7.84863 17.2383 8.21777 17.2383 8.68359C17.2383 8.90332 17.1592 9.09668 16.9922 9.27246L14.5928 11.6719L16.9834 14.0625C17.1504 14.2295 17.2383 14.4316 17.2383 14.6514C17.2383 15.126 16.8691 15.4951 16.3945 15.4951C16.1572 15.4951 15.9463 15.4072 15.7881 15.249L13.3975 12.8584L11.0244 15.249C10.8574 15.416 10.6553 15.4951 10.4092 15.4951Z" fill="#1C1C1E"/>
</g>
<defs>
<clipPath id="clip0_10_1306">
<rect width="24" height="24" fill="white"/>
</clipPath>
</defs>
</svg>
