<svg width="24" height="24" viewBox="0 0 24 24" fill="none" xmlns="http://www.w3.org/2000/svg">
<g clip-path="url(#clip0_10_1296)">
<path d="M5.53125 19.8809L13.125 19.8721C14.3115 19.8721 15.1641 19.5381 15.9639 18.668L20.9297 13.4209C21.5713 12.7266 21.8174 12.208 21.8174 11.6543C21.8174 11.1006 21.5801 10.5908 20.9297 9.8877L15.9727 4.61426C15.1729 3.74414 14.3203 3.4541 13.125 3.4541H5.53125C3.62402 3.4541 2.63086 4.42969 2.63086 6.31934V17.0947C2.63086 18.9756 3.62402 19.8809 5.53125 19.8809ZM5.63672 18.1318C4.82812 18.1318 4.38867 17.71 4.38867 16.8574V6.47754C4.38867 5.625 4.82812 5.20312 5.63672 5.20312H13.2041C13.8105 5.20312 14.2148 5.31738 14.6367 5.76562L19.5586 10.9951C19.8047 11.2676 19.8926 11.4521 19.8926 11.6543C19.8926 11.8564 19.8135 12.041 19.5586 12.3135L14.6279 17.5254C14.1973 17.9736 13.8105 18.1318 13.1953 18.1318H5.63672ZM7.72852 15.3545C7.95703 15.3545 8.15918 15.2666 8.30859 15.1084L10.6113 12.8057L12.9141 15.1084C13.0635 15.2666 13.2568 15.3545 13.4941 15.3545C13.9424 15.3545 14.2939 14.9941 14.2939 14.5459C14.2939 14.3262 14.2061 14.1416 14.0566 13.9834L11.7451 11.6719L14.0566 9.35156C14.2236 9.19336 14.3027 9.00879 14.3027 8.79785C14.3027 8.34961 13.9512 7.99805 13.5029 7.99805C13.2832 7.99805 13.1074 8.06836 12.9404 8.23535L10.6113 10.5469L8.29102 8.24414C8.1416 8.08594 7.95703 8.01562 7.72852 8.01562C7.28027 8.01562 6.92871 8.3584 6.92871 8.80664C6.92871 9.01758 7.0166 9.21094 7.1748 9.36035L9.47754 11.6719L7.1748 13.9922C7.0166 14.1416 6.92871 14.335 6.92871 14.5459C6.92871 14.9941 7.28027 15.3545 7.72852 15.3545Z" fill="#1C1C1E"/>
</g>
<defs>
<clipPath id="clip0_10_1296">
<rect width="24" height="24" fill="white"/>
</clipPath>
</defs>
</svg>
