<svg width="24" height="24" viewBox="0 0 24 24" fill="none" xmlns="http://www.w3.org/2000/svg">
<g clip-path="url(#clip0_10_1271)">
<path d="M4.91602 13.166H19.0752C19.8574 13.166 20.332 12.7178 20.332 12.0234C20.332 11.6895 20.165 11.3203 19.875 11.0303L13.2832 4.05176C12.8438 3.62109 12.4746 3.38379 11.9912 3.38379C11.5166 3.38379 11.1387 3.63867 10.708 4.05176L4.11621 11.0303C3.81738 11.3291 3.65039 11.6895 3.65039 12.0234C3.65918 12.7178 4.13379 13.166 4.91602 13.166ZM5.07422 19.9424H18.9346C19.875 19.9424 20.4375 19.3799 20.4375 18.4395V16.5674C20.4375 15.6357 19.875 15.0645 18.9346 15.0645H5.07422C4.125 15.0645 3.5625 15.6357 3.5625 16.5674V18.4395C3.5625 19.3799 4.125 19.9424 5.07422 19.9424Z" fill="#1C1C1E"/>
</g>
<defs>
<clipPath id="clip0_10_1271">
<rect width="24" height="24" fill="white"/>
</clipPath>
</defs>
</svg>
