<svg width="24" height="24" viewBox="0 0 24 24" fill="none" xmlns="http://www.w3.org/2000/svg">
<g clip-path="url(#clip0_10_1273)">
<path d="M5.00391 13.3066H19.0137C19.9014 13.3066 20.4287 12.7969 20.4463 12.0146C20.4463 11.6367 20.2441 11.2236 19.9189 10.8984L13.459 4.06055C12.9756 3.59473 12.5537 3.31348 12.0088 3.31348C11.4639 3.31348 11.042 3.57715 10.5498 4.06055L4.08984 10.8984C3.77344 11.2324 3.57129 11.6367 3.57129 12.0146C3.57129 12.7969 4.11621 13.3066 5.00391 13.3066ZM6.22559 11.6895C6.08496 11.6895 6.01465 11.6191 6.01465 11.5049C6.01465 11.4521 6.03223 11.3994 6.07617 11.3555L11.7451 5.43164C11.833 5.34375 11.8945 5.28223 12.0088 5.28223C12.1143 5.28223 12.1846 5.34375 12.2637 5.43164L17.9326 11.3555C17.9854 11.4082 18.0029 11.4521 18.0029 11.5049C18.0029 11.6191 17.9238 11.6895 17.792 11.6895H6.22559ZM5.38184 20.0654H18.627C19.8486 20.0654 20.5605 19.4062 20.5605 18.1934V16.8223C20.5605 15.6357 19.8486 14.9502 18.627 14.9502H5.38184C4.15137 14.9502 3.43945 15.627 3.43945 16.8223V18.1934C3.43945 19.4062 4.15137 20.0654 5.38184 20.0654ZM5.74219 18.4746C5.4082 18.4746 5.23242 18.2725 5.23242 17.9473V17.0684C5.23242 16.7432 5.4082 16.541 5.74219 16.541H18.2578C18.5918 16.541 18.7676 16.7432 18.7676 17.0684V17.9473C18.7676 18.2725 18.5918 18.4746 18.2578 18.4746H5.74219Z" fill="#1C1C1E"/>
</g>
<defs>
<clipPath id="clip0_10_1273">
<rect width="24" height="24" fill="white"/>
</clipPath>
</defs>
</svg>
