<svg width="24" height="24" viewBox="0 0 24 24" fill="none" xmlns="http://www.w3.org/2000/svg">
<g clip-path="url(#clip0_10_1269)">
<path d="M11.9912 20.7422C16.9746 20.7422 21.0879 16.6289 21.0879 11.6543C21.0879 6.67969 16.9658 2.56641 11.9824 2.56641C7.00781 2.56641 2.90332 6.67969 2.90332 11.6543C2.90332 16.6289 7.0166 20.7422 11.9912 20.7422ZM15.6914 11.8828H8.27344C7.86914 11.8828 7.64062 11.6455 7.62305 11.2852C7.61426 11.1006 7.70215 10.9248 7.86035 10.7666L11.3145 7.10156C11.5254 6.89062 11.7363 6.75 11.9824 6.75C12.2373 6.75 12.4395 6.87305 12.6592 7.10156L16.0957 10.7666C16.2539 10.9248 16.3506 11.1006 16.3506 11.2852C16.3506 11.6455 16.0957 11.8828 15.6914 11.8828ZM15.498 12.9902C16.0605 12.9902 16.3945 13.3154 16.3945 13.8604V14.5459C16.3945 15.1172 16.0605 15.4248 15.498 15.4248H8.47559C7.91309 15.4248 7.5791 15.1172 7.5791 14.5459V13.8604C7.5791 13.3154 7.91309 12.9902 8.47559 12.9902H15.498Z" fill="#1C1C1E"/>
</g>
<defs>
<clipPath id="clip0_10_1269">
<rect width="24" height="24" fill="white"/>
</clipPath>
</defs>
</svg>
