<svg width="24" height="24" viewBox="0 0 24 24" fill="none" xmlns="http://www.w3.org/2000/svg">
<g clip-path="url(#clip0_10_1270)">
<path d="M11.9912 20.7422C16.9746 20.7422 21.0879 16.6289 21.0879 11.6543C21.0879 6.67969 16.9658 2.56641 11.9824 2.56641C7.00781 2.56641 2.90332 6.67969 2.90332 11.6543C2.90332 16.6289 7.0166 20.7422 11.9912 20.7422ZM11.9912 18.9316C7.95703 18.9316 4.73145 15.6885 4.73145 11.6543C4.73145 7.62012 7.95703 4.38574 11.9824 4.38574C16.0166 4.38574 19.2598 7.62012 19.2686 11.6543C19.2773 15.6885 16.0254 18.9316 11.9912 18.9316ZM15.5508 11.8652C15.9375 11.8652 16.1836 11.6455 16.1836 11.2939C16.1836 11.127 16.0869 10.96 15.9463 10.8105L12.624 7.26855C12.4131 7.04883 12.2285 6.93457 11.9824 6.93457C11.7451 6.93457 11.5518 7.06641 11.3496 7.26855L8.00977 10.8105C7.86914 10.9512 7.78125 11.127 7.79004 11.2939C7.81641 11.6455 8.01855 11.8652 8.41406 11.8652H15.5508ZM15.3662 12.9463H8.60742C8.0625 12.9463 7.74609 13.2451 7.74609 13.7812V14.4316C7.74609 14.9766 8.0625 15.2754 8.60742 15.2754H15.3662C15.9111 15.2754 16.2275 14.9766 16.2275 14.4316V13.7812C16.2275 13.2451 15.9111 12.9463 15.3662 12.9463Z" fill="#1C1C1E"/>
</g>
<defs>
<clipPath id="clip0_10_1270">
<rect width="24" height="24" fill="white"/>
</clipPath>
</defs>
</svg>
