<svg width="24" height="24" viewBox="0 0 24 24" fill="none" xmlns="http://www.w3.org/2000/svg">
<g clip-path="url(#clip0_10_1288)">
<path d="M11.9824 20.7422C16.9658 20.7422 21.0791 16.6289 21.0791 11.6543C21.0791 6.64453 16.9922 2.75098 12.3516 2.58398C11.7188 2.54883 11.2705 2.90918 11.2705 3.46289C11.2705 3.96387 11.6221 4.35059 12.2021 4.38574C16.0781 4.53516 19.251 7.59375 19.2598 11.6543C19.2686 15.6885 16.0166 18.9316 11.9824 18.9316C7.78125 18.9316 4.77539 15.5391 4.73145 11.7598C4.71387 11.1797 4.30078 10.8281 3.80859 10.8281C3.25488 10.8281 2.89453 11.2676 2.91211 11.9092C3 16.6025 6.97266 20.7422 11.9824 20.7422ZM11.2705 12.0146C11.7979 12.0234 12.1758 11.6279 12.1758 11.1094C12.1758 10.8721 12.0703 10.6348 11.8857 10.4502L7.41211 5.97656L5.83887 4.59668C6.7002 4.70215 7.77246 4.70215 8.20312 4.70215C8.65137 4.70215 9.01172 4.32422 9.01172 3.88477C9.01172 3.42773 8.65137 3.05859 8.20312 3.05859H4.26562C3.58887 3.05859 3.22852 3.41895 3.22852 4.08691V8.01562C3.22852 8.47266 3.59766 8.83301 4.0459 8.83301C4.49414 8.83301 4.86328 8.47266 4.86328 8.01562C4.86328 7.61133 4.85449 6.45996 4.78418 5.66895L6.1377 7.24219L10.6201 11.7246C10.8135 11.918 11.0332 12.0146 11.2705 12.0146Z" fill="#1C1C1E"/>
</g>
<defs>
<clipPath id="clip0_10_1288">
<rect width="24" height="24" fill="white"/>
</clipPath>
</defs>
</svg>
