<svg width="24" height="24" viewBox="0 0 24 24" fill="none" xmlns="http://www.w3.org/2000/svg">
<g clip-path="url(#clip0_10_1300)">
<path d="M6.8584 18.7734H23.4785C25.377 18.7734 26.3701 17.7891 26.3701 15.9082V7.3916C26.3701 5.51074 25.377 4.52637 23.4785 4.52637H6.8584C4.95117 4.52637 3.95801 5.51074 3.95801 7.3916V15.9082C3.95801 17.7891 4.95117 18.7734 6.8584 18.7734ZM6.97266 17.0156C6.15527 17.0156 5.71582 16.5938 5.71582 15.75V7.5498C5.71582 6.69727 6.15527 6.27539 6.97266 6.27539H23.3643C24.1641 6.27539 24.6211 6.69727 24.6211 7.5498V15.75C24.6211 16.5938 24.1641 17.0156 23.3643 17.0156H6.97266ZM0.301758 15.7676C1.02246 16.7783 2.30566 15.8291 1.70801 14.9678L-0.647461 11.6455L1.70801 8.33203C2.31445 7.47949 1.02246 6.52148 0.301758 7.53223L-2.15039 10.9688C-2.44043 11.3818 -2.44043 11.918 -2.15039 12.3398L0.301758 15.7676ZM7.81641 9.66797H8.625C8.87988 9.66797 9.0293 9.50977 9.0293 9.25488V8.44629C9.0293 8.19141 8.87988 8.0332 8.625 8.0332H7.81641C7.56152 8.0332 7.40332 8.19141 7.40332 8.44629V9.25488C7.40332 9.50977 7.56152 9.66797 7.81641 9.66797ZM10.585 9.66797H11.3936C11.6484 9.66797 11.8066 9.50977 11.8066 9.25488V8.44629C11.8066 8.19141 11.6484 8.0332 11.3936 8.0332H10.585C10.3301 8.0332 10.1719 8.19141 10.1719 8.44629V9.25488C10.1719 9.50977 10.3301 9.66797 10.585 9.66797ZM13.3623 9.66797H14.1709C14.4258 9.66797 14.584 9.50977 14.584 9.25488V8.44629C14.584 8.19141 14.4258 8.0332 14.1709 8.0332H13.3623C13.1074 8.0332 12.9492 8.19141 12.9492 8.44629V9.25488C12.9492 9.50977 13.1074 9.66797 13.3623 9.66797ZM16.1309 9.66797H16.9395C17.1943 9.66797 17.3525 9.50977 17.3525 9.25488V8.44629C17.3525 8.19141 17.1943 8.0332 16.9395 8.0332H16.1309C15.876 8.0332 15.7178 8.19141 15.7178 8.44629V9.25488C15.7178 9.50977 15.876 9.66797 16.1309 9.66797ZM18.9258 9.66797H19.7168C19.9717 9.66797 20.1299 9.50977 20.1299 9.25488V8.44629C20.1299 8.19141 19.9717 8.0332 19.7168 8.0332H18.9258C18.6621 8.0332 18.4951 8.19141 18.4951 8.44629V9.25488C18.4951 9.50977 18.6621 9.66797 18.9258 9.66797ZM21.6768 9.66797H22.4854C22.7402 9.66797 22.8984 9.50977 22.8984 9.25488V8.44629C22.8984 8.19141 22.7402 8.0332 22.4854 8.0332H21.6768C21.4219 8.0332 21.2725 8.19141 21.2725 8.44629V9.25488C21.2725 9.50977 21.4219 9.66797 21.6768 9.66797ZM7.81641 12.4629H8.625C8.87988 12.4629 9.0293 12.3047 9.0293 12.0498V11.2412C9.0293 10.9863 8.87988 10.8281 8.625 10.8281H7.81641C7.56152 10.8281 7.40332 10.9863 7.40332 11.2412V12.0498C7.40332 12.3047 7.56152 12.4629 7.81641 12.4629ZM10.585 12.4629H11.3936C11.6484 12.4629 11.8066 12.3047 11.8066 12.0498V11.2412C11.8066 10.9863 11.6484 10.8281 11.3936 10.8281H10.585C10.3301 10.8281 10.1719 10.9863 10.1719 11.2412V12.0498C10.1719 12.3047 10.3301 12.4629 10.585 12.4629ZM13.3623 12.4629H14.1709C14.4258 12.4629 14.584 12.3047 14.584 12.0498V11.2412C14.584 10.9863 14.4258 10.8281 14.1709 10.8281H13.3623C13.1074 10.8281 12.9492 10.9863 12.9492 11.2412V12.0498C12.9492 12.3047 13.1074 12.4629 13.3623 12.4629ZM16.1309 12.4629H16.9395C17.1943 12.4629 17.3525 12.3047 17.3525 12.0498V11.2412C17.3525 10.9863 17.1943 10.8281 16.9395 10.8281H16.1309C15.876 10.8281 15.7178 10.9863 15.7178 11.2412V12.0498C15.7178 12.3047 15.876 12.4629 16.1309 12.4629ZM18.9258 12.4629H19.7168C19.9717 12.4629 20.1299 12.3047 20.1299 12.0498V11.2412C20.1299 10.9863 19.9717 10.8281 19.7168 10.8281H18.9258C18.6621 10.8281 18.4951 10.9863 18.4951 11.2412V12.0498C18.4951 12.3047 18.6621 12.4629 18.9258 12.4629ZM21.6768 12.4629H22.4854C22.7402 12.4629 22.8984 12.3047 22.8984 12.0498V11.2412C22.8984 10.9863 22.7402 10.8281 22.4854 10.8281H21.6768C21.4219 10.8281 21.2725 10.9863 21.2725 11.2412V12.0498C21.2725 12.3047 21.4219 12.4629 21.6768 12.4629ZM7.81641 15.2578H8.625C8.87988 15.2578 9.0293 15.0996 9.0293 14.8447V14.0361C9.0293 13.7812 8.87988 13.623 8.625 13.623H7.81641C7.56152 13.623 7.40332 13.7812 7.40332 14.0361V14.8447C7.40332 15.0996 7.56152 15.2578 7.81641 15.2578ZM10.6553 15.2578H19.6465C19.9541 15.2578 20.1299 15.082 20.1299 14.7744V14.1064C20.1299 13.7988 19.9541 13.623 19.6465 13.623H10.6553C10.3564 13.623 10.1719 13.7988 10.1719 14.1064V14.7744C10.1719 15.082 10.3564 15.2578 10.6553 15.2578ZM21.6768 15.2578H22.4854C22.7402 15.2578 22.8984 15.0996 22.8984 14.8447V14.0361C22.8984 13.7812 22.7402 13.623 22.4854 13.623H21.6768C21.4219 13.623 21.2725 13.7812 21.2725 14.0361V14.8447C21.2725 15.0996 21.4219 15.2578 21.6768 15.2578Z" fill="#1C1C1E"/>
</g>
<defs>
<clipPath id="clip0_10_1300">
<rect width="24" height="24" fill="white"/>
</clipPath>
</defs>
</svg>
