<svg width="24" height="24" viewBox="0 0 24 24" fill="none" xmlns="http://www.w3.org/2000/svg">
<g clip-path="url(#clip0_10_1274)">
<path d="M3.68555 18.7734H20.3057C22.2041 18.7734 23.1973 17.7891 23.1973 15.9082V7.3916C23.1973 5.51074 22.2041 4.52637 20.3057 4.52637H3.68555C1.77832 4.52637 0.793945 5.51074 0.793945 7.3916V15.9082C0.793945 17.7891 1.77832 18.7734 3.68555 18.7734ZM3.7998 17.0156C2.99121 17.0156 2.54297 16.5938 2.54297 15.75V7.5498C2.54297 6.69727 2.99121 6.27539 3.7998 6.27539H20.1914C21 6.27539 21.4482 6.69727 21.4482 7.5498V15.75C21.4482 16.5938 21 17.0156 20.1914 17.0156H3.7998ZM9.37207 9.65039H10.0049C10.1631 9.65039 10.2686 9.53613 10.2686 9.36035V8.34082C10.2686 8.16504 10.1631 8.05078 10.0049 8.05078H9.37207C9.20508 8.05078 9.09961 8.16504 9.09961 8.34082V9.36035C9.09961 9.53613 9.20508 9.65039 9.37207 9.65039ZM11.2705 9.65039H11.8945C12.0615 9.65039 12.167 9.53613 12.167 9.36035V8.34082C12.167 8.16504 12.0615 8.05078 11.8945 8.05078H11.2705C11.0947 8.05078 10.9893 8.16504 10.9893 8.34082V9.36035C10.9893 9.53613 11.0947 9.65039 11.2705 9.65039ZM13.1602 9.65039H13.793C13.9512 9.65039 14.0566 9.53613 14.0566 9.36035V8.34082C14.0566 8.16504 13.9512 8.05078 13.793 8.05078H13.1602C12.9932 8.05078 12.8877 8.16504 12.8877 8.34082V9.36035C12.8877 9.53613 12.9932 9.65039 13.1602 9.65039ZM15.0586 9.65039H15.6738C15.8496 9.65039 15.9551 9.53613 15.9551 9.36035V8.34082C15.9551 8.16504 15.8496 8.05078 15.6738 8.05078H15.0586C14.8828 8.05078 14.7773 8.16504 14.7773 8.34082V9.36035C14.7773 9.53613 14.8828 9.65039 15.0586 9.65039ZM16.957 9.65039H17.5811C17.7393 9.65039 17.8447 9.53613 17.8447 9.36035V8.34082C17.8447 8.16504 17.7393 8.05078 17.5811 8.05078H16.957C16.7812 8.05078 16.6758 8.16504 16.6758 8.34082V9.36035C16.6758 9.53613 16.7812 9.65039 16.957 9.65039ZM18.8467 9.65039H19.4707C19.6377 9.65039 19.7432 9.53613 19.7432 9.36035V8.34082C19.7432 8.16504 19.6377 8.05078 19.4707 8.05078H18.8467C18.6709 8.05078 18.5654 8.16504 18.5654 8.34082V9.36035C18.5654 9.53613 18.6709 9.65039 18.8467 9.65039ZM7.58789 11.1357L5.10938 8.82422C4.77539 8.5166 4.25684 8.64844 4.25684 9.13184V14.1592C4.25684 14.6514 4.77539 14.7832 5.10938 14.4756L7.58789 12.1641C7.92188 11.8477 7.92188 11.4521 7.58789 11.1357ZM9.37207 12.4453H10.0049C10.1631 12.4453 10.2686 12.3311 10.2686 12.1553V11.1357C10.2686 10.96 10.1631 10.8457 10.0049 10.8457H9.37207C9.20508 10.8457 9.09961 10.96 9.09961 11.1357V12.1553C9.09961 12.3311 9.20508 12.4453 9.37207 12.4453ZM11.2705 12.4453H11.8945C12.0615 12.4453 12.167 12.3311 12.167 12.1553V11.1357C12.167 10.96 12.0615 10.8457 11.8945 10.8457H11.2705C11.0947 10.8457 10.9893 10.96 10.9893 11.1357V12.1553C10.9893 12.3311 11.0947 12.4453 11.2705 12.4453ZM13.1602 12.4453H13.793C13.9512 12.4453 14.0566 12.3311 14.0566 12.1553V11.1357C14.0566 10.96 13.9512 10.8457 13.793 10.8457H13.1602C12.9932 10.8457 12.8877 10.96 12.8877 11.1357V12.1553C12.8877 12.3311 12.9932 12.4453 13.1602 12.4453ZM15.0586 12.4453H15.6738C15.8496 12.4453 15.9551 12.3311 15.9551 12.1553V11.1357C15.9551 10.96 15.8496 10.8457 15.6738 10.8457H15.0586C14.8828 10.8457 14.7773 10.96 14.7773 11.1357V12.1553C14.7773 12.3311 14.8828 12.4453 15.0586 12.4453ZM16.957 12.4453H17.5811C17.7393 12.4453 17.8447 12.3311 17.8447 12.1553V11.1357C17.8447 10.96 17.7393 10.8457 17.5811 10.8457H16.957C16.7812 10.8457 16.6758 10.96 16.6758 11.1357V12.1553C16.6758 12.3311 16.7812 12.4453 16.957 12.4453ZM18.8467 12.4453H19.4707C19.6377 12.4453 19.7432 12.3311 19.7432 12.1553V11.1357C19.7432 10.96 19.6377 10.8457 19.4707 10.8457H18.8467C18.6709 10.8457 18.5654 10.96 18.5654 11.1357V12.1553C18.5654 12.3311 18.6709 12.4453 18.8467 12.4453ZM9.37207 15.2314H10.0049C10.1631 15.2314 10.2686 15.126 10.2686 14.9502V13.9307C10.2686 13.7549 10.1631 13.6406 10.0049 13.6406H9.37207C9.20508 13.6406 9.09961 13.7549 9.09961 13.9307V14.9502C9.09961 15.126 9.20508 15.2314 9.37207 15.2314ZM11.2705 15.2314H17.5811C17.7393 15.2314 17.8447 15.126 17.8447 14.9502V13.9307C17.8447 13.7549 17.7393 13.6406 17.5811 13.6406H11.2705C11.0947 13.6406 10.9893 13.7549 10.9893 13.9307V14.9502C10.9893 15.126 11.0947 15.2314 11.2705 15.2314ZM18.8467 15.2314H19.4707C19.6377 15.2314 19.7432 15.126 19.7432 14.9502V13.9307C19.7432 13.7549 19.6377 13.6406 19.4707 13.6406H18.8467C18.6709 13.6406 18.5654 13.7549 18.5654 13.9307V14.9502C18.5654 15.126 18.6709 15.2314 18.8467 15.2314Z" fill="#1C1C1E"/>
</g>
<defs>
<clipPath id="clip0_10_1274">
<rect width="24" height="24" fill="white"/>
</clipPath>
</defs>
</svg>
