<svg width="24" height="24" viewBox="0 0 24 24" fill="none" xmlns="http://www.w3.org/2000/svg">
<g clip-path="url(#clip0_10_1283)">
<path d="M12 8.86816C12.6416 8.86816 13.1777 8.33203 13.1777 7.68164C13.1777 7.04004 12.6504 6.50391 12 6.50391C11.3408 6.50391 10.8223 7.02246 10.8223 7.68164C10.8223 8.32324 11.3672 8.86816 12 8.86816ZM5.63672 11.6367C6.27832 11.6367 6.82324 11.0918 6.82324 10.459C6.82324 9.7998 6.2959 9.27246 5.63672 9.27246C4.98633 9.27246 4.45898 9.80859 4.45898 10.459C4.45898 11.1006 4.99512 11.6367 5.63672 11.6367ZM18.3809 11.6367C19.0225 11.6367 19.5674 11.0918 19.5674 10.459C19.5674 9.7998 19.04 9.27246 18.3809 9.27246C17.7305 9.27246 17.2031 9.80859 17.2031 10.459C17.2031 11.1006 17.7393 11.6367 18.3809 11.6367ZM20.6045 17.5254C21.2549 17.5254 21.7822 17.0068 21.7822 16.3477C21.7822 15.7061 21.2373 15.1699 20.6045 15.1699C19.9541 15.1699 19.418 15.7061 19.418 16.3477C19.418 16.998 19.9453 17.5254 20.6045 17.5254ZM3.39551 17.5254C4.03711 17.5254 4.58203 16.998 4.58203 16.3477C4.58203 15.6973 4.06348 15.1699 3.39551 15.1699C2.75391 15.1699 2.21777 15.7061 2.21777 16.3477C2.21777 16.998 2.75391 17.5254 3.39551 17.5254ZM8.77441 17.3936H15.1641C15.7178 17.3936 16.1748 16.9453 16.1748 16.4004C16.1748 15.8643 15.7178 15.4072 15.1641 15.4072H8.77441C8.22949 15.4072 7.77246 15.8643 7.77246 16.4004C7.77246 16.9453 8.22949 17.3936 8.77441 17.3936Z" fill="#1C1C1E"/>
</g>
<defs>
<clipPath id="clip0_10_1283">
<rect width="24" height="24" fill="white"/>
</clipPath>
</defs>
</svg>
