<svg width="24" height="24" viewBox="0 0 24 24" fill="none" xmlns="http://www.w3.org/2000/svg">
<g clip-path="url(#clip0_10_1282)">
<path d="M12.958 6.57422C12.958 6.05566 12.5186 5.61621 12 5.61621C11.4814 5.61621 11.042 6.05566 11.042 6.57422V9.25488C11.042 9.77344 11.4814 10.2041 12 10.2041C12.5186 10.2041 12.958 9.77344 12.958 9.25488V6.57422ZM7.43848 11.9531C7.80762 11.584 7.79883 10.9775 7.43848 10.6084L5.54883 8.70117C5.18848 8.34082 4.57324 8.33203 4.2041 8.69238C3.83496 9.06152 3.84375 9.67676 4.21289 10.0459L6.09375 11.9531C6.46289 12.3223 7.07812 12.3135 7.43848 11.9531ZM16.4736 12.0322C16.834 12.3926 17.458 12.3926 17.8184 12.0234L19.7168 10.125C20.0859 9.74707 20.0947 9.14062 19.7168 8.77148C19.3564 8.41113 18.75 8.40234 18.3721 8.77148L16.4736 10.6787C16.1045 11.0479 16.1045 11.6543 16.4736 12.0322ZM8.80078 17.3936H15.1904C15.7441 17.3936 16.2012 16.9453 16.2012 16.4004C16.2012 15.8643 15.7441 15.4072 15.1904 15.4072H8.80078C8.25586 15.4072 7.79004 15.8643 7.79004 16.4004C7.79004 16.9453 8.25586 17.3936 8.80078 17.3936ZM2.07715 15.4336C1.56738 15.4336 1.12793 15.873 1.12793 16.3828C1.12793 16.9014 1.56738 17.3408 2.07715 17.3408H4.7666C5.29395 17.3408 5.7334 16.9014 5.7334 16.3828C5.7334 15.873 5.29395 15.4336 4.7666 15.4336H2.07715ZM18.2754 16.3828C18.2754 16.9014 18.7148 17.3408 19.2334 17.3408H21.9229C22.4326 17.3408 22.8721 16.9014 22.8721 16.3828C22.8721 15.873 22.4326 15.4336 21.9229 15.4336H19.2334C18.7148 15.4336 18.2754 15.873 18.2754 16.3828Z" fill="#1C1C1E"/>
</g>
<defs>
<clipPath id="clip0_10_1282">
<rect width="24" height="24" fill="white"/>
</clipPath>
</defs>
</svg>
