<svg width="24" height="24" viewBox="0 0 24 24" fill="none" xmlns="http://www.w3.org/2000/svg">
<g clip-path="url(#clip0_10_1266)">
<path d="M3.66797 7.55859C3.66797 8.14746 4.08105 8.69238 4.87207 8.69238H19.1367C19.9277 8.69238 20.3408 8.14746 20.3408 7.55859C20.3408 7.16309 20.1562 6.73242 19.7432 6.44238L13.3008 1.59082C12.8613 1.27441 12.4395 1.11621 12 1.11621C11.5693 1.11621 11.1475 1.27441 10.708 1.59082L4.26562 6.44238C3.85254 6.73242 3.66797 7.16309 3.66797 7.55859ZM3.59766 11.6543C3.59766 12.1816 3.99316 12.5859 4.54688 12.5859H19.4619C20.0156 12.5859 20.4111 12.1904 20.4111 11.6543C20.4111 11.1094 20.0244 10.7139 19.4619 10.7139H4.54688C3.99316 10.7139 3.59766 11.1094 3.59766 11.6543ZM3.65039 15.7412C3.65039 16.1455 3.83496 16.5674 4.23926 16.8662L10.6816 21.709C11.1211 22.0254 11.543 22.1836 11.9824 22.1836C12.4219 22.1836 12.8438 22.0254 13.2832 21.709L19.7256 16.8662C20.1299 16.5674 20.3145 16.1455 20.3145 15.7412C20.3145 15.1523 19.9102 14.6074 19.1191 14.6074H4.8457C4.05469 14.6074 3.65039 15.1523 3.65039 15.7412Z" fill="#1C1C1E"/>
</g>
<defs>
<clipPath id="clip0_10_1266">
<rect width="24" height="24" fill="white"/>
</clipPath>
</defs>
</svg>
