<svg width="24" height="24" viewBox="0 0 24 24" fill="none" xmlns="http://www.w3.org/2000/svg">
<g clip-path="url(#clip0_10_1268)">
<path d="M4.87207 8.69238H19.1191C20.4902 8.69238 20.6748 7.11035 19.7695 6.45117L13.3975 1.6875C12.3779 0.94043 11.6133 0.94043 10.5938 1.6875L4.22168 6.45117C3.3252 7.11035 3.50098 8.69238 4.87207 8.69238ZM6.92871 7.04883C6.74414 7.04883 6.68262 6.8291 6.84082 6.71484L11.5254 3.15527C11.7891 2.95312 12.2021 2.96191 12.4658 3.15527L17.1504 6.71484C17.3086 6.8291 17.2471 7.04883 17.0625 7.04883H6.92871ZM4.30078 12.5859H19.6904C20.1914 12.5859 20.6045 12.1553 20.6045 11.6543C20.6045 11.1445 20.1914 10.7139 19.6904 10.7139H4.30078C3.7998 10.7139 3.38672 11.1445 3.38672 11.6543C3.38672 12.1465 3.80859 12.5859 4.30078 12.5859ZM4.87207 14.6074C3.50098 14.6074 3.31641 16.1895 4.22168 16.8486L10.5938 21.6123C11.6133 22.3594 12.3779 22.3594 13.3975 21.6123L19.7695 16.8486C20.666 16.1982 20.4902 14.6074 19.1191 14.6074H4.87207ZM6.92871 16.2598H17.0625C17.2471 16.2598 17.3086 16.4707 17.1504 16.5938L12.4658 20.1445C12.2021 20.3379 11.7891 20.3467 11.5254 20.1445L6.84082 16.5938C6.68262 16.4707 6.74414 16.2598 6.92871 16.2598Z" fill="#1C1C1E"/>
</g>
<defs>
<clipPath id="clip0_10_1268">
<rect width="24" height="24" fill="white"/>
</clipPath>
</defs>
</svg>
