<svg width="24" height="24" viewBox="0 0 24 24" fill="none" xmlns="http://www.w3.org/2000/svg">
<g clip-path="url(#clip0_10_1298)">
<path d="M8.10645 3.59473C8.94141 3.59473 9.60938 4.04297 9.96094 4.79883L15.665 17.3936C15.7881 17.6572 15.9902 17.7803 16.3066 17.7803H20.0596C20.6221 17.7803 21.0703 18.2109 21.0703 18.7471C21.0703 19.292 20.6221 19.7227 20.0596 19.7227H15.8408C14.9531 19.7227 14.3818 19.3535 14.0127 18.5361L8.28223 5.92383C8.15918 5.66895 7.94824 5.53711 7.66699 5.53711H3.94043C3.36914 5.53711 2.92969 5.11523 2.92969 4.57031C2.92969 4.0166 3.36914 3.59473 3.94043 3.59473H8.10645ZM20.0596 3.59473C20.6309 3.59473 21.0615 4.00781 21.0615 4.56152C21.0615 5.10645 20.6309 5.52832 20.0596 5.52832H14.5225C13.9512 5.52832 13.5205 5.10645 13.5205 4.56152C13.5205 4.00781 13.96 3.59473 14.5225 3.59473H20.0596Z" fill="#1C1C1E"/>
</g>
<defs>
<clipPath id="clip0_10_1298">
<rect width="24" height="24" fill="white"/>
</clipPath>
</defs>
</svg>
