<svg width="24" height="24" viewBox="0 0 24 24" fill="none" xmlns="http://www.w3.org/2000/svg">
<g clip-path="url(#clip0_10_1287)">
<path d="M11.9912 11.6895C12.5449 11.6895 12.9053 11.3027 12.9053 10.7227V3.00586C12.9053 2.42578 12.5449 2.03027 11.9912 2.03027C11.4463 2.03027 11.0771 2.42578 11.0771 3.00586V10.7227C11.0771 11.3027 11.4463 11.6895 11.9912 11.6895ZM11.9912 20.7422C16.9746 20.7422 21.0879 16.6289 21.0879 11.6543C21.0879 9 19.9102 6.67969 18.2666 5.13281C17.3525 4.23633 16.0605 5.44043 17.001 6.38965C18.3984 7.70801 19.2598 9.57129 19.2686 11.6543C19.2773 15.6885 16.0254 18.9316 11.9912 18.9316C7.95703 18.9316 4.73145 15.6885 4.73145 11.6543C4.73145 9.5625 5.59277 7.69922 6.99023 6.38086C7.93066 5.42285 6.63867 4.22754 5.72461 5.12402C4.07227 6.6709 2.90332 9 2.90332 11.6543C2.90332 16.6289 7.0166 20.7422 11.9912 20.7422Z" fill="#1C1C1E"/>
</g>
<defs>
<clipPath id="clip0_10_1287">
<rect width="24" height="24" fill="white"/>
</clipPath>
</defs>
</svg>
