<svg width="24" height="24" viewBox="0 0 24 24" fill="none" xmlns="http://www.w3.org/2000/svg">
<g clip-path="url(#clip0_10_1262)">
<path d="M5.26758 14.4492C5.56641 14.4492 5.82129 14.335 6.01465 14.124L12 7.91895L17.9678 14.124C18.1611 14.335 18.4248 14.4492 18.7236 14.4492C19.3125 14.4492 19.7607 13.9834 19.7607 13.4033C19.7607 13.1309 19.6729 12.9111 19.4619 12.6826L12.7822 5.73047C12.624 5.55469 12.4307 5.44922 12.2197 5.40527H18.4863C19.0752 5.40527 19.4883 4.97461 19.4883 4.40332C19.4883 3.82324 19.0752 3.40137 18.4863 3.40137H5.49609C4.90723 3.40137 4.50293 3.83203 4.50293 4.40332C4.50293 4.97461 4.90723 5.40527 5.49609 5.40527H11.7715C11.5605 5.44922 11.376 5.55469 11.209 5.73926L4.5293 12.6738C4.30957 12.9023 4.23047 13.1309 4.23047 13.4033C4.23047 13.9834 4.67871 14.4492 5.26758 14.4492Z" fill="#1C1C1E"/>
</g>
<defs>
<clipPath id="clip0_10_1262">
<rect width="24" height="24" fill="white"/>
</clipPath>
</defs>
</svg>
