<svg width="24" height="24" viewBox="0 0 24 24" fill="none" xmlns="http://www.w3.org/2000/svg">
<g clip-path="url(#clip0_10_1302)">
<path d="M9.21387 19.8896H14.7773C16.0781 19.8896 16.7812 19.125 16.7812 17.8857V14.0625H20.2354C21.0176 14.0625 21.6064 13.5967 21.6064 12.8672C21.6064 12.4189 21.3955 12.1113 21.0176 11.7246L13.1514 3.84082C12.791 3.48047 12.4131 3.28711 12 3.28711C11.5869 3.28711 11.2002 3.48047 10.8486 3.84082L2.98242 11.7246C2.58691 12.1201 2.39355 12.4189 2.39355 12.8672C2.39355 13.5967 2.98242 14.0625 3.75586 14.0625H7.21875V17.8857C7.21875 19.125 7.92188 19.8896 9.21387 19.8896ZM9.57422 18.1494C9.2666 18.1494 9.04688 17.9385 9.04688 17.6309V12.7529C9.04688 12.5508 8.96777 12.4629 8.75684 12.4629H4.94238C4.88086 12.4629 4.85449 12.4365 4.85449 12.4014C4.85449 12.3662 4.86328 12.3398 4.89844 12.3047L11.833 5.39648C11.8945 5.33496 11.9473 5.31738 12 5.31738C12.0527 5.31738 12.1055 5.33496 12.167 5.39648L19.1016 12.3047C19.1367 12.3398 19.1455 12.3662 19.1455 12.4014C19.1455 12.4365 19.1191 12.4629 19.0576 12.4629H15.2344C15.0322 12.4629 14.9443 12.5508 14.9443 12.7529V17.6309C14.9443 17.9297 14.7246 18.1494 14.4258 18.1494H9.57422Z" fill="#1C1C1E"/>
</g>
<defs>
<clipPath id="clip0_10_1302">
<rect width="24" height="24" fill="white"/>
</clipPath>
</defs>
</svg>
