<svg width="24" height="24" viewBox="0 0 24 24" fill="none" xmlns="http://www.w3.org/2000/svg">
<g clip-path="url(#clip0_10_1275)">
<path d="M11.9912 4.88672C12.5977 4.88672 13.0986 4.38574 13.0986 3.78809C13.0986 3.18164 12.5977 2.68945 11.9912 2.68945C11.3848 2.68945 10.8926 3.17285 10.8926 3.78809C10.8926 4.38574 11.4023 4.88672 11.9912 4.88672ZM16.7812 6.87305C17.2031 7.29492 17.915 7.29492 18.3369 6.87305C18.7764 6.44238 18.7764 5.74805 18.3369 5.31738C17.8975 4.87793 17.2207 4.87793 16.7812 5.31738C16.3594 5.73926 16.3594 6.45117 16.7812 6.87305ZM5.64551 6.88184C6.06738 7.30371 6.7793 7.30371 7.20117 6.88184C7.64062 6.43359 7.64062 5.76562 7.20117 5.32617C6.77051 4.88672 6.07617 4.88672 5.64551 5.32617C5.22363 5.74805 5.22363 6.45117 5.64551 6.88184ZM11.9912 16.2773C14.5137 16.2773 16.5967 14.1943 16.5967 11.6719C16.5967 9.1582 14.5137 7.0752 11.9912 7.0752C9.47754 7.0752 7.39453 9.1582 7.39453 11.6719C7.39453 14.1943 9.47754 16.2773 11.9912 16.2773ZM11.9912 14.6338C10.3828 14.6338 9.03809 13.2891 9.03809 11.6719C9.03809 10.0723 10.3828 8.71875 11.9912 8.71875C13.6084 8.71875 14.9531 10.0635 14.9531 11.6719C14.9531 13.2891 13.6084 14.6338 11.9912 14.6338ZM4.125 12.7705C4.72266 12.7705 5.22363 12.2607 5.22363 11.6719C5.22363 11.0566 4.74023 10.5645 4.125 10.5645C3.51855 10.5645 3.02637 11.0654 3.02637 11.6719C3.02637 12.2695 3.52734 12.7705 4.125 12.7705ZM19.8662 12.8145C20.4814 12.8145 20.9648 12.3311 20.9648 11.7158C20.9648 11.127 20.4639 10.6172 19.8662 10.6172C19.2598 10.6172 18.7676 11.1182 18.7676 11.7158C18.7676 12.3223 19.2598 12.8145 19.8662 12.8145ZM5.6543 18C6.08496 18.4395 6.7793 18.4395 7.20996 18C7.63184 17.5781 7.63184 16.875 7.20996 16.4443C6.78809 16.0225 6.07617 16.0225 5.6543 16.4443C5.21484 16.8838 5.21484 17.5693 5.6543 18ZM16.7373 18.0439C17.1855 18.4746 17.8535 18.4746 18.3018 18.0439C18.7236 17.6221 18.7236 16.9102 18.3018 16.4883C17.8623 16.0576 17.168 16.0576 16.7373 16.4883C16.3066 16.9189 16.3066 17.6133 16.7373 18.0439ZM11.9912 20.6279C12.5977 20.6279 13.0986 20.1357 13.0986 19.5293C13.0986 18.9316 12.5977 18.4307 11.9912 18.4307C11.4023 18.4307 10.8926 18.9316 10.8926 19.5293C10.8926 20.1445 11.3848 20.6279 11.9912 20.6279Z" fill="#1C1C1E"/>
</g>
<defs>
<clipPath id="clip0_10_1275">
<rect width="24" height="24" fill="white"/>
</clipPath>
</defs>
</svg>
