<svg width="24" height="24" viewBox="0 0 24 24" fill="none" xmlns="http://www.w3.org/2000/svg">
<g clip-path="url(#clip0_10_1009)">
<path d="M11.9912 20.7598C16.9746 20.7598 21.0879 16.6465 21.0879 11.6631C21.0879 6.68848 16.9658 2.5752 11.9824 2.5752C7.00781 2.5752 2.90332 6.68848 2.90332 11.6631C2.90332 16.6465 7.0166 20.7598 11.9912 20.7598ZM17.8623 11.6719C17.8623 12.2959 17.0449 12.7793 16.0605 12.7793H14.127C13.9072 12.7793 13.8457 12.8145 13.6963 12.9639L10.5146 16.4004C10.4004 16.5322 10.2422 16.6113 10.0752 16.6113H9.47754C9.2666 16.6113 9.14355 16.4092 9.23145 16.1982L10.8135 12.7617L8.65137 12.5156L7.8252 13.9834C7.7373 14.1416 7.59668 14.2119 7.41211 14.2119H7.19238C6.99902 14.2119 6.86719 14.0801 6.86719 13.8867V9.45703C6.86719 9.26367 6.99902 9.13184 7.19238 9.13184H7.41211C7.59668 9.13184 7.7373 9.21094 7.8252 9.36035L8.65137 10.8281L10.8135 10.582L9.23145 7.14551C9.14355 6.94336 9.2666 6.74121 9.47754 6.74121H10.0752C10.2422 6.74121 10.4004 6.82031 10.5146 6.94336L13.6963 10.3799C13.8457 10.5381 13.9072 10.5645 14.127 10.5645H16.0605C17.0449 10.5645 17.8623 11.0479 17.8623 11.6719Z" fill="#1C1C1E"/>
</g>
<defs>
<clipPath id="clip0_10_1009">
<rect width="24" height="24" fill="white"/>
</clipPath>
</defs>
</svg>
