<svg width="24" height="24" viewBox="0 0 24 24" fill="none" xmlns="http://www.w3.org/2000/svg">
<g clip-path="url(#clip0_10_1010)">
<path d="M11.9912 20.7422C16.9746 20.7422 21.0879 16.6289 21.0879 11.6543C21.0879 6.67969 16.9658 2.56641 11.9824 2.56641C7.00781 2.56641 2.90332 6.67969 2.90332 11.6543C2.90332 16.6289 7.0166 20.7422 11.9912 20.7422ZM11.9912 18.9316C7.95703 18.9316 4.73145 15.6885 4.73145 11.6543C4.73145 7.62012 7.95703 4.38574 11.9824 4.38574C16.0166 4.38574 19.2598 7.62012 19.2686 11.6543C19.2773 15.6885 16.0254 18.9316 11.9912 18.9316ZM17.6426 11.6719C17.6426 11.0742 16.8691 10.6084 15.9111 10.6084H14.0566C13.8457 10.6084 13.7842 10.582 13.6436 10.4238L10.585 7.12793C10.4707 6.99609 10.3213 6.92578 10.1543 6.92578H9.58301C9.38086 6.92578 9.2666 7.11914 9.35449 7.3125L10.8662 10.626L8.7832 10.8545L8.00098 9.44824C7.91309 9.29883 7.78125 9.22852 7.59668 9.22852H7.38574C7.20996 9.22852 7.06934 9.36035 7.06934 9.53613V13.7988C7.06934 13.9746 7.20996 14.1064 7.38574 14.1064H7.59668C7.78125 14.1064 7.91309 14.0361 8.00098 13.8867L8.7832 12.4805L10.8662 12.709L9.35449 16.0225C9.2666 16.2158 9.38086 16.4092 9.58301 16.4092H10.1543C10.3213 16.4092 10.4707 16.3389 10.585 16.207L13.6436 12.9111C13.7842 12.7617 13.8457 12.7266 14.0566 12.7266H15.9111C16.8691 12.7266 17.6426 12.2695 17.6426 11.6719Z" fill="#1C1C1E"/>
</g>
<defs>
<clipPath id="clip0_10_1010">
<rect width="24" height="24" fill="white"/>
</clipPath>
</defs>
</svg>
