<svg width="24" height="24" viewBox="0 0 24 24" fill="none" xmlns="http://www.w3.org/2000/svg">
<g clip-path="url(#clip0_10_1011)">
<path d="M23.0391 11.6543C23.0303 10.6172 21.6152 9.7998 19.8838 9.7998H16.2715C15.7793 9.7998 15.5947 9.71191 15.2959 9.38672L9.33691 2.94434C9.14355 2.7334 8.91504 2.62793 8.66016 2.62793H7.52637C7.29785 2.62793 7.16602 2.83887 7.27148 3.07617L10.3564 9.79102L5.84766 10.292L4.23926 7.42676C4.11621 7.20703 3.93164 7.11035 3.6416 7.11035H3.24609C3.00879 7.11035 2.85059 7.26855 2.85059 7.50586V15.8027C2.85059 16.04 3.00879 16.1982 3.24609 16.1982H3.6416C3.93164 16.1982 4.11621 16.1016 4.23926 15.8818L5.84766 13.0078L10.3564 13.5176L7.27148 20.2324C7.16602 20.4697 7.29785 20.6807 7.52637 20.6807H8.66016C8.91504 20.6807 9.14355 20.5664 9.33691 20.3643L15.2959 13.9219C15.5947 13.5967 15.7793 13.5088 16.2715 13.5088H19.8838C21.6152 13.5088 23.0303 12.6826 23.0391 11.6543Z" fill="#1C1C1E"/>
</g>
<defs>
<clipPath id="clip0_10_1011">
<rect width="24" height="24" fill="white"/>
</clipPath>
</defs>
</svg>
