<svg width="24" height="24" viewBox="0 0 24 24" fill="none" xmlns="http://www.w3.org/2000/svg">
<g clip-path="url(#clip0_10_1015)">
<path d="M11.9912 20.7598C16.9746 20.7598 21.0879 16.6465 21.0879 11.6631C21.0879 6.68848 16.9658 2.5752 11.9824 2.5752C7.00781 2.5752 2.90332 6.68848 2.90332 11.6631C2.90332 16.6465 7.0166 20.7598 11.9912 20.7598ZM5.51367 12.7529C5.51367 11.3555 6.63867 10.2393 8.03613 10.2393C8.53711 10.2393 8.99414 10.3799 9.38086 10.626L10.0225 9.89648L9.38965 8.7627H8.88867C8.67773 8.7627 8.50195 8.58691 8.50195 8.38477C8.50195 8.15625 8.67773 7.98926 8.88867 7.98926H10.5674C10.7959 7.98926 10.9717 8.16504 10.9717 8.38477C10.9717 8.58691 10.7783 8.7627 10.5674 8.7627H10.2686L10.7783 9.68555L14.1094 9.26367L13.5908 7.96289H12.6152C12.3867 7.96289 12.2197 7.78711 12.2197 7.57617C12.2197 7.35645 12.3955 7.18945 12.6152 7.18945H13.7139C13.9775 7.18945 14.1182 7.26855 14.2148 7.49707L15.3662 10.3096C15.5508 10.2568 15.7529 10.2393 15.9551 10.2393C17.3438 10.2393 18.4775 11.3555 18.4775 12.7529C18.4775 14.1504 17.3438 15.2754 15.9551 15.2754C14.5576 15.2754 13.4326 14.1504 13.4326 12.7529C13.4326 11.8301 13.9248 11.0303 14.6543 10.5908L14.4434 10.0723L12.2197 12.665C12.0088 12.8848 11.833 12.9727 11.4639 12.9727H10.5498C10.4355 14.2646 9.35449 15.2754 8.03613 15.2754C6.63867 15.2754 5.51367 14.1504 5.51367 12.7529ZM11.1826 10.415L11.9648 11.8037L13.5293 10.002L11.1826 10.415ZM9.9873 11.1621C10.2422 11.4609 10.418 11.8301 10.5059 12.2344H11.3232L10.4443 10.6523L9.9873 11.1621ZM6.30469 12.7441C6.30469 13.7197 7.07812 14.4844 8.04492 14.4844C9.00293 14.4844 9.77637 13.7197 9.77637 12.7441C9.77637 12.3662 9.66211 12.0234 9.45996 11.7334L8.64258 12.6299C8.65137 12.6475 8.66016 12.7002 8.66016 12.7441C8.66016 13.0957 8.37891 13.3682 8.04492 13.3682C7.69336 13.3682 7.41211 13.0957 7.41211 12.7441C7.41211 12.4102 7.68457 12.1289 8.0625 12.1377L8.8623 11.2236C8.61621 11.083 8.34375 11.0039 8.04492 11.0039C7.07812 11.0039 6.30469 11.7861 6.30469 12.7441ZM14.2236 12.7441C14.2236 13.7197 14.9971 14.4844 15.9639 14.4844C16.9219 14.4844 17.6953 13.7197 17.6953 12.7441C17.6953 11.7861 16.9219 11.0039 15.9639 11.0039C15.8584 11.0039 15.7617 11.0215 15.665 11.0391L16.1133 12.1465C16.377 12.2168 16.5791 12.4541 16.5791 12.7441C16.5791 13.0957 16.3066 13.3682 15.9639 13.3682C15.6123 13.3682 15.3398 13.0957 15.3398 12.7441C15.3398 12.6387 15.3662 12.5508 15.4102 12.4717L14.9531 11.3291C14.5137 11.6455 14.2236 12.1553 14.2236 12.7441Z" fill="#1C1C1E"/>
</g>
<defs>
<clipPath id="clip0_10_1015">
<rect width="24" height="24" fill="white"/>
</clipPath>
</defs>
</svg>
