<svg width="24" height="24" viewBox="0 0 24 24" fill="none" xmlns="http://www.w3.org/2000/svg">
<g clip-path="url(#clip0_10_1018)">
<path d="M3.12305 20.7598C5.9707 20.7598 8.34375 18.6768 8.77441 15.9434H10.1719C10.4883 16.5762 11.1562 17.0156 11.9297 17.0156C13.0107 17.0156 13.8809 16.1455 13.8809 15.0732C13.8809 14.5986 13.7051 14.1592 13.415 13.8164L17.7305 9.20215L18.0645 10.0547C16.3242 11.0303 15.1465 12.9023 15.1465 15.0381C15.1465 18.2021 17.7129 20.7686 20.8857 20.7686C24.041 20.7686 26.5986 18.2021 26.5986 15.0381C26.5986 11.874 24.041 9.31641 20.8857 9.31641C20.4023 9.31641 19.9277 9.37793 19.4795 9.49219L16.9922 3.19043C16.8164 2.7334 16.5 2.54004 15.9463 2.54004H13.3096C12.8789 2.54004 12.5273 2.8916 12.5273 3.32227C12.5273 3.74414 12.8789 4.0957 13.3096 4.0957H15.6387C15.7178 4.0957 15.7354 4.11328 15.7617 4.16602L17.168 7.75195L9.35449 8.85938L8.20312 6.70605H9.16992C9.60059 6.70605 9.94336 6.36328 9.94336 5.93262C9.94336 5.50195 9.5918 5.15039 9.16992 5.15039H5.4082C4.98633 5.15039 4.63477 5.50195 4.63477 5.93262C4.63477 6.36328 4.97754 6.70605 5.4082 6.70605H6.52441L7.75488 9.07031L6.48926 10.4062C5.54883 9.7207 4.37988 9.31641 3.12305 9.31641C-0.0498047 9.31641 -2.60742 11.874 -2.60742 15.0381C-2.60742 18.2021 -0.0410156 20.7598 3.12305 20.7598ZM11.9297 13.1309C11.833 13.1309 11.7451 13.1396 11.6484 13.1484L10.0752 10.2041L15.6211 9.42188L12.0791 13.1309C12.0264 13.1309 11.9824 13.1309 11.9297 13.1309ZM8.82715 14.4932C8.71289 13.333 8.25586 12.2695 7.56152 11.417L8.48438 10.459L10.3213 13.9746C10.207 14.1328 10.1279 14.3086 10.0664 14.4932H8.82715ZM3.12305 19.1953C0.820312 19.1953 -1.02539 17.3496 -1.02539 15.0381C-1.02539 12.7441 0.829102 10.8896 3.12305 10.8896C3.9668 10.8896 4.74023 11.1357 5.39062 11.5576L3.26367 13.7988C3.21973 13.79 3.17578 13.79 3.12305 13.79C2.42871 13.79 1.88379 14.3262 1.875 15.0381C1.86621 15.7324 2.41992 16.2861 3.12305 16.2861C3.45703 16.2861 3.76465 16.1543 3.98438 15.9434H7.1748C6.77051 17.8066 5.10938 19.1953 3.12305 19.1953ZM20.8857 19.1953C18.583 19.1953 16.7285 17.3496 16.7285 15.0381C16.7285 13.5703 17.4932 12.2783 18.6445 11.54L19.7783 14.4404C19.6904 14.6162 19.6289 14.8184 19.6289 15.0381C19.6201 15.7324 20.1738 16.2861 20.8857 16.2861C21.5801 16.2861 22.125 15.7324 22.125 15.0381C22.125 14.4492 21.7383 13.9658 21.1934 13.8252L20.0684 10.9688C20.332 10.916 20.6045 10.8896 20.8857 10.8896C23.1709 10.8896 25.0342 12.7529 25.0342 15.0381C25.0342 17.3408 23.1709 19.1953 20.8857 19.1953ZM4.6084 14.4932L6.46289 12.5684C6.86719 13.1133 7.14844 13.7725 7.24512 14.4932H4.6084ZM11.9385 15.6973C11.5781 15.6973 11.2969 15.416 11.2969 15.0908C11.2969 14.7393 11.5869 14.4404 11.9385 14.4404C12.29 14.4404 12.5625 14.7305 12.5625 15.0908C12.5625 15.4248 12.29 15.6973 11.9385 15.6973Z" fill="#1C1C1E"/>
</g>
<defs>
<clipPath id="clip0_10_1018">
<rect width="24" height="24" fill="white"/>
</clipPath>
</defs>
</svg>
