<svg width="24" height="24" viewBox="0 0 24 24" fill="none" xmlns="http://www.w3.org/2000/svg">
<g clip-path="url(#clip0_10_1016)">
<path d="M11.9912 20.7422C16.9746 20.7422 21.0879 16.6289 21.0879 11.6543C21.0879 6.67969 16.9658 2.56641 11.9824 2.56641C7.00781 2.56641 2.90332 6.67969 2.90332 11.6543C2.90332 16.6289 7.0166 20.7422 11.9912 20.7422ZM11.9912 18.9316C7.95703 18.9316 4.73145 15.6885 4.73145 11.6543C4.73145 7.62012 7.95703 4.38574 11.9824 4.38574C16.0166 4.38574 19.2598 7.62012 19.2686 11.6543C19.2773 15.6885 16.0254 18.9316 11.9912 18.9316ZM8.18555 15.1172C9.45117 15.1172 10.4971 14.1416 10.6025 12.9023H11.4902C11.8418 12.9023 12.0088 12.8145 12.2021 12.5947L14.3467 10.0986L14.5488 10.6084C13.8457 11.0303 13.3799 11.8037 13.3799 12.6914C13.3799 14.0273 14.4609 15.1172 15.8057 15.1172C17.1416 15.1172 18.2314 14.0273 18.2314 12.6914C18.2314 11.3467 17.1416 10.2656 15.8057 10.2656C15.6035 10.2656 15.4102 10.2832 15.2256 10.3271L14.127 7.6377C14.0303 7.40918 13.8984 7.33008 13.6436 7.33008H12.5977C12.3867 7.33008 12.2109 7.49707 12.2109 7.70801C12.2109 7.91016 12.3779 8.07715 12.5977 8.07715H13.5293L14.0303 9.3252L10.8223 9.73828L10.3301 8.85059H10.6289C10.8311 8.85059 11.0068 8.6748 11.0068 8.48145C11.0068 8.27051 10.8398 8.10352 10.6289 8.10352H9.01172C8.80078 8.10352 8.63379 8.27051 8.63379 8.48145C8.63379 8.68359 8.80078 8.85059 9.01172 8.85059H9.48633L10.0928 9.94043L9.48633 10.6348C9.1084 10.3975 8.66895 10.2656 8.18555 10.2656C6.84961 10.2656 5.75977 11.3467 5.75977 12.6914C5.75977 14.0273 6.84961 15.1172 8.18555 15.1172ZM11.209 10.4326L13.4766 10.0371L11.9648 11.7773L11.209 10.4326ZM11.3496 12.1904H10.5586C10.4795 11.8037 10.3037 11.4434 10.0576 11.1445L10.4971 10.6611L11.3496 12.1904ZM8.19434 14.3613C7.2627 14.3613 6.51562 13.6143 6.51562 12.6738C6.51562 11.751 7.2627 11.0039 8.19434 11.0039C8.48438 11.0039 8.75684 11.0742 8.98535 11.2061L8.2207 12.085H8.19434C7.85156 12.085 7.58789 12.3486 7.58789 12.6738C7.58789 13.0166 7.85156 13.2803 8.19434 13.2803C8.51953 13.2803 8.7832 13.0166 8.7832 12.6738C8.7832 12.6387 8.7832 12.6035 8.77441 12.5684L9.55664 11.707C9.75 11.9795 9.86426 12.3135 9.86426 12.6738C9.86426 13.6143 9.11719 14.3613 8.19434 14.3613ZM15.8145 14.3613C14.8828 14.3613 14.1357 13.6143 14.1357 12.6738C14.1357 12.1113 14.4082 11.6104 14.8389 11.3115L15.2783 12.4014C15.2344 12.4893 15.208 12.5771 15.208 12.6738C15.208 13.0166 15.4717 13.2803 15.8145 13.2803C16.1396 13.2803 16.4033 13.0166 16.4033 12.6738C16.4033 12.4014 16.21 12.1641 15.9551 12.1025L15.5156 11.0303C15.6123 11.0127 15.709 11.0039 15.8145 11.0039C16.7373 11.0039 17.4844 11.751 17.4844 12.6738C17.4844 13.6143 16.7373 14.3613 15.8145 14.3613Z" fill="#1C1C1E"/>
</g>
<defs>
<clipPath id="clip0_10_1016">
<rect width="24" height="24" fill="white"/>
</clipPath>
</defs>
</svg>
