<svg width="24" height="24" viewBox="0 0 24 24" fill="none" xmlns="http://www.w3.org/2000/svg">
<g clip-path="url(#clip0_10_1028)">
<path d="M3.01758 20.0566H4.08105C4.74902 20.0566 5.26758 19.5381 5.26758 18.8701V17.4375C7.20117 17.5518 9.83789 17.6221 12 17.6221C14.1533 17.6221 16.79 17.5518 18.7236 17.4375V18.8701C18.7236 19.5381 19.2422 20.0566 19.9189 20.0566H20.9736C21.6504 20.0566 22.1689 19.5381 22.1689 18.8701V16.5586C22.459 16.2158 22.6172 15.7588 22.6172 15.1963V13.6494C22.6172 12.1025 22.3447 11.2324 21.5098 10.1777L20.7275 9.19336C20.4023 7.61133 19.8223 5.9502 19.5146 5.2998C19.0225 4.2627 18.0732 3.64746 16.8604 3.48047C16.2188 3.39258 14.3379 3.34863 12 3.34863C9.66211 3.34863 7.77246 3.40137 7.13965 3.48047C5.92676 3.62988 4.96875 4.2627 4.48535 5.2998C4.17773 5.9502 3.59766 7.61133 3.27246 9.19336L2.49023 10.1777C1.65527 11.2324 1.38281 12.1025 1.38281 13.6494V15.1963C1.38281 15.7588 1.54102 16.2158 1.83105 16.5586V18.8701C1.83105 19.5381 2.34961 20.0566 3.01758 20.0566ZM12 16.1982C8.98535 16.1982 5.24121 16.0576 3.81738 15.8906C3.06152 15.8027 2.78027 15.416 2.78027 14.748V13.5703C2.78027 12.3838 3.00879 11.8213 3.62402 11.0039L4.57324 9.76465C4.79297 8.58691 5.36426 6.75879 5.72461 5.97656C6.02344 5.35254 6.58594 4.99219 7.35059 4.89551C7.95703 4.81641 9.6709 4.74609 12 4.74609C14.3291 4.74609 16.0693 4.8252 16.6318 4.89551C17.4229 4.99219 17.9678 5.36133 18.2666 5.98535C18.6445 6.75 19.1982 8.56934 19.418 9.76465L20.3672 11.0039C20.9912 11.8213 21.2109 12.3838 21.2109 13.5703V14.748C21.2109 15.416 20.9297 15.8027 20.1826 15.8906C18.7588 16.0576 15.0146 16.1982 12 16.1982ZM9.28418 10.9775C9.28418 11.1533 9.4248 11.2764 9.60059 11.2764H11.71L10.5762 14.2734C10.418 14.7129 10.8838 14.9502 11.1738 14.5986L14.6191 10.3008C14.6982 10.2217 14.7422 10.125 14.7422 10.0371C14.7422 9.86133 14.5928 9.73828 14.417 9.73828H12.3164L13.4326 6.74121C13.5996 6.30176 13.1338 6.06445 12.8525 6.41602L9.38965 10.7139C9.31934 10.8018 9.28418 10.8896 9.28418 10.9775Z" fill="#1C1C1E"/>
</g>
<defs>
<clipPath id="clip0_10_1028">
<rect width="24" height="24" fill="white"/>
</clipPath>
</defs>
</svg>
