<svg width="24" height="24" viewBox="0 0 24 24" fill="none" xmlns="http://www.w3.org/2000/svg">
<g clip-path="url(#clip0_10_1025)">
<path d="M1.38281 18.8701C1.38281 19.5381 1.90137 20.0566 2.56934 20.0566H3.63281C4.30078 20.0566 4.81934 19.5381 4.81934 18.8701V17.3408C6.7793 17.4727 9.66211 17.5605 12 17.5605C14.3379 17.5605 17.2207 17.4727 19.1719 17.3408V18.8701C19.1719 19.5381 19.6904 20.0566 20.3672 20.0566H21.4219C22.0986 20.0566 22.6172 19.5381 22.6172 18.8701V13.6494C22.6172 12.1025 22.3271 11.2412 21.5098 10.1777L20.7275 9.19336C20.4023 7.61133 19.8223 5.9502 19.5146 5.2998C19.0225 4.2627 18.0732 3.64746 16.8604 3.48047C16.2188 3.39258 14.3379 3.34863 12 3.34863C9.66211 3.34863 7.77246 3.40137 7.13965 3.48047C5.92676 3.62988 4.96875 4.2627 4.48535 5.2998C4.17773 5.9502 3.59766 7.61133 3.27246 9.19336L2.49023 10.1777C1.66406 11.2412 1.38281 12.1025 1.38281 13.6494V18.8701ZM9.16992 11.0127C9.16992 10.916 9.21387 10.8281 9.28418 10.7402L12.8789 6.2666C13.1777 5.89746 13.6699 6.15234 13.4941 6.60938L12.3252 9.71191H14.5137C14.6982 9.71191 14.8477 9.85254 14.8477 10.0283C14.8477 10.125 14.8125 10.2217 14.7246 10.3008L11.1387 14.7744C10.8398 15.1436 10.3477 14.8887 10.5234 14.4404L11.6924 11.3291H9.49512C9.31934 11.3291 9.16992 11.1885 9.16992 11.0127Z" fill="#1C1C1E"/>
</g>
<defs>
<clipPath id="clip0_10_1025">
<rect width="24" height="24" fill="white"/>
</clipPath>
</defs>
</svg>
