<svg width="24" height="24" viewBox="0 0 24 24" fill="none" xmlns="http://www.w3.org/2000/svg">
<g clip-path="url(#clip0_10_1024)">
<path d="M4.94238 22.1133H5.99707C6.76172 22.1133 7.28027 21.5947 7.28027 20.8301V19.4854C8.69531 19.5908 10.2861 19.6348 11.9912 19.6348C13.6963 19.6348 15.2871 19.5908 16.7021 19.4854V20.8301C16.7021 21.5947 17.2207 22.1133 17.9941 22.1133H19.0488C19.8135 22.1133 20.332 21.5859 20.332 20.8301V18.5449C20.6309 18.1846 20.7803 17.7188 20.7803 17.1475V9.97559H21.1846C21.7471 9.97559 22.1514 9.61523 22.1514 9.0791V5.29102C22.1514 4.75488 21.7471 4.39453 21.1846 4.39453H20.7803V3.47168C20.7803 2.24121 20.0771 1.50293 18.7852 1.32715C16.9746 1.09863 14.5312 0.984375 11.9912 0.984375C9.45117 0.984375 7.00781 1.09863 5.19727 1.32715C3.91406 1.50293 3.20215 2.25 3.20215 3.47168V4.39453H2.80664C2.24414 4.39453 1.83984 4.75488 1.83984 5.29102V9.0791C1.83984 9.61523 2.24414 9.97559 2.80664 9.97559H3.20215V17.1475C3.20215 17.7188 3.36035 18.1846 3.65039 18.5361V20.8301C3.65039 21.5859 4.16895 22.1133 4.94238 22.1133ZM11.9912 18.2197C9.32812 18.2197 7.13965 18.1055 5.61035 17.9033C4.88965 17.7979 4.62598 17.4111 4.62598 16.7344V3.88477C4.62598 3.2168 4.95996 2.8125 5.61035 2.71582C7.11328 2.51367 9.4248 2.39941 11.9912 2.39941C14.54 2.4082 16.8516 2.52246 18.3721 2.71582C19.0928 2.8125 19.3652 3.19922 19.3652 3.88477V16.7344C19.3652 17.4199 19.0928 17.8066 18.3721 17.9033C16.8252 18.0967 14.6279 18.2197 11.9912 18.2197ZM6.38379 13.333C9.71484 13.8779 14.2676 13.8779 17.6162 13.333C18.1963 13.2363 18.4863 12.8936 18.4863 12.2783V4.74609C18.4863 4.05176 18.1523 3.65625 17.4932 3.59473C14.1445 3.26074 9.87305 3.26953 6.51562 3.59473C5.85645 3.65625 5.51367 4.05176 5.51367 4.74609V12.2783C5.51367 12.8936 5.80371 13.2363 6.38379 13.333ZM6.99023 16.9014C7.60547 16.9014 8.08008 16.4268 8.08008 15.8115C8.08008 15.1963 7.60547 14.7217 6.99023 14.7217C6.36621 14.7217 5.8916 15.1963 5.8916 15.8115C5.8916 16.4268 6.36621 16.9014 6.99023 16.9014ZM17.001 16.9014C17.6162 16.9014 18.0996 16.4268 18.0996 15.8115C18.0996 15.1963 17.6162 14.7217 17.001 14.7217C16.3857 14.7217 15.9111 15.1963 15.9111 15.8115C15.9111 16.4268 16.3857 16.9014 17.001 16.9014ZM9.97852 16.6025H14.0391C14.5137 16.6025 14.8477 16.2686 14.8477 15.7939C14.8477 15.3193 14.5137 14.9941 14.0391 14.9941H9.97852C9.45996 14.9941 9.12598 15.3193 9.12598 15.7939C9.12598 16.2686 9.45996 16.6025 9.97852 16.6025Z" fill="#1C1C1E"/>
</g>
<defs>
<clipPath id="clip0_10_1024">
<rect width="24" height="24" fill="white"/>
</clipPath>
</defs>
</svg>
