<svg width="24" height="24" viewBox="0 0 24 24" fill="none" xmlns="http://www.w3.org/2000/svg">
<g clip-path="url(#clip0_10_1026)">
<path d="M5.35547 22.1924H6.41016C7.1748 22.1924 7.69336 21.6738 7.69336 20.918L7.70215 19.5732C9.08203 19.6699 10.6025 19.7227 12 19.7227C13.3887 19.7227 14.918 19.6699 16.3066 19.5732V20.918C16.3066 21.6738 16.8252 22.1924 17.5898 22.1924H18.6445C19.418 22.1924 19.9277 21.6738 19.9277 20.918V18.624C20.2266 18.2725 20.3848 17.8066 20.3848 17.2266V11.1621H20.7803C21.3428 11.1621 21.7471 10.8018 21.7471 10.2656V7.18066C21.7471 6.64453 21.3428 6.28418 20.7803 6.28418H20.3848V2.75098C20.3848 1.52051 19.6729 0.782227 18.3896 0.606445C16.6055 0.386719 14.1445 0.263672 12 0.263672C9.84668 0.263672 7.38574 0.386719 5.61035 0.606445C4.32715 0.782227 3.61523 1.52051 3.61523 2.75098V6.28418H3.21973C2.65723 6.28418 2.25293 6.64453 2.25293 7.18066V10.2656C2.25293 10.8018 2.65723 11.1621 3.21973 11.1621H3.61523V17.2266C3.61523 17.7979 3.77344 18.2725 4.06348 18.624V20.918C4.06348 21.6738 4.58203 22.1924 5.35547 22.1924ZM12 18.2988C9.79395 18.2988 7.48242 18.1846 6.02344 17.9824C5.30273 17.8857 5.03906 17.499 5.03906 16.8135V3.16406C5.03906 2.4873 5.30273 2.10059 6.02344 1.99512C7.48242 1.79297 9.79395 1.67871 12 1.67871C14.1797 1.67871 16.4912 1.81055 17.9766 1.99512C18.6973 2.0918 18.9609 2.47852 18.9609 3.16406V16.8135C18.9609 17.499 18.6973 17.8945 17.9766 17.9824C16.4912 18.167 14.1797 18.2988 12 18.2988ZM5.92676 7.64648H18.0732V4.0957C18.0732 3.40137 17.7393 3.00586 17.001 2.92676C14.0215 2.61035 9.99609 2.61035 7.00781 2.92676C6.26953 3.00586 5.92676 3.40137 5.92676 4.0957V7.64648ZM5.92676 8.97363V12.4277C5.92676 13.043 6.22559 13.3857 6.80566 13.4912C9.52148 13.957 14.4082 13.9658 17.1943 13.4912C17.7305 13.3945 18.0732 13.043 18.0732 12.4277V8.97363H5.92676ZM7.30664 16.9893C7.88672 16.9893 8.34375 16.5322 8.34375 15.9521C8.34375 15.3721 7.88672 14.915 7.30664 14.915C6.72656 14.915 6.26953 15.3721 6.26953 15.9521C6.26953 16.5322 6.72656 16.9893 7.30664 16.9893ZM16.6934 16.9893C17.2734 16.9893 17.7305 16.5322 17.7305 15.9521C17.7305 15.3721 17.2734 14.915 16.6934 14.915C16.1045 14.915 15.6562 15.3721 15.6562 15.9521C15.6562 16.5322 16.1045 16.9893 16.6934 16.9893ZM10.3652 16.7344H13.6611C14.1182 16.7344 14.4521 16.3916 14.4521 15.9434C14.4521 15.4863 14.127 15.1611 13.6611 15.1611H10.3652C9.86426 15.1611 9.53027 15.4863 9.53027 15.9434C9.53027 16.3916 9.87305 16.7344 10.3652 16.7344Z" fill="#1C1C1E"/>
</g>
<defs>
<clipPath id="clip0_10_1026">
<rect width="24" height="24" fill="white"/>
</clipPath>
</defs>
</svg>
