<svg width="24" height="24" viewBox="0 0 24 24" fill="none" xmlns="http://www.w3.org/2000/svg">
<g clip-path="url(#clip0_10_1023)">
<path d="M4.64355 22.2539H5.69824C6.46289 22.2539 6.98145 21.7354 6.98145 20.9795V19.5908C8.66895 19.7139 10.3652 19.7754 12 19.7754C13.6348 19.7754 15.3311 19.7227 17.0186 19.5908V20.9795C17.0186 21.7354 17.5371 22.2539 18.3018 22.2539H19.3652C20.1299 22.2539 20.6484 21.7354 20.6484 20.9795V10.125H21.0439C21.6064 10.125 22.0107 9.75586 22.0107 9.22852V5.57227C22.0107 5.03613 21.6064 4.67578 21.0439 4.67578H20.6484V3.76172C20.6484 2.53125 19.9453 1.78418 18.6533 1.61719C16.8164 1.38867 14.3994 1.26562 12 1.26562C9.60059 1.26562 7.20117 1.37988 5.34668 1.61719C4.06348 1.79297 3.35156 2.53125 3.35156 3.76172V4.67578H2.95605C2.39355 4.67578 1.98926 5.03613 1.98926 5.57227V9.22852C1.98926 9.75586 2.39355 10.125 2.95605 10.125H3.35156V20.9795C3.35156 21.7354 3.87012 22.2539 4.64355 22.2539ZM6.07617 13.623C5.49609 13.5264 5.20605 13.1836 5.20605 12.542V4.52637C5.20605 3.81445 5.53125 3.43652 6.18164 3.35742C9.5918 2.94434 14.3818 2.96191 17.8359 3.35742C18.4863 3.43652 18.8027 3.81445 18.8027 4.52637V12.542C18.8027 13.1924 18.5127 13.5352 17.9326 13.623C14.4697 14.1504 9.45996 14.168 6.07617 13.623ZM6.64746 17.6133C5.98828 17.6133 5.49609 17.1211 5.49609 16.4707C5.49609 15.8115 5.98828 15.3193 6.64746 15.3193C7.29785 15.3193 7.79004 15.8115 7.79004 16.4707C7.79004 17.1211 7.29785 17.6133 6.64746 17.6133ZM17.3613 17.6133C16.7021 17.6133 16.21 17.1211 16.21 16.4707C16.21 15.8115 16.7021 15.3193 17.3613 15.3193C18.0117 15.3193 18.5127 15.8115 18.5127 16.4707C18.5127 17.1211 18.0117 17.6133 17.3613 17.6133ZM10.084 17.2617C9.60938 17.2617 9.27539 16.9277 9.27539 16.4531C9.27539 15.9785 9.60938 15.6533 10.084 15.6533H13.8984C14.373 15.6533 14.7158 15.9785 14.7158 16.4531C14.7158 16.9277 14.373 17.2617 13.8984 17.2617H10.084Z" fill="#1C1C1E"/>
</g>
<defs>
<clipPath id="clip0_10_1023">
<rect width="24" height="24" fill="white"/>
</clipPath>
</defs>
</svg>
