<svg width="24" height="24" viewBox="0 0 24 24" fill="none" xmlns="http://www.w3.org/2000/svg">
<g clip-path="url(#clip0_10_1032)">
<path d="M3.75586 21.1289C3.75586 21.8848 4.27441 22.4033 5.04785 22.4033H6.10254C6.86719 22.4033 7.38574 21.8848 7.38574 21.1289V19.749C9.03809 19.8633 10.5234 19.9248 11.9912 19.9248C13.4766 19.9248 14.9531 19.8721 16.6055 19.749V21.1289C16.6055 21.8848 17.124 22.4033 17.8887 22.4033H18.9434C19.7168 22.4033 20.2354 21.8848 20.2354 21.1289V11.2324H20.6309C21.1934 11.2324 21.5977 10.8721 21.5977 10.3359V7.25098C21.5977 6.71484 21.1934 6.35449 20.6309 6.35449H20.2354V2.8916C20.2354 1.66113 19.5234 0.922852 18.2402 0.74707C16.4385 0.518555 14.2324 0.404297 11.9912 0.404297C9.77637 0.404297 7.57031 0.518555 5.75098 0.74707C4.46777 0.922852 3.75586 1.66113 3.75586 2.8916V6.35449H3.36035C2.79785 6.35449 2.39355 6.71484 2.39355 7.25098V10.3359C2.39355 10.8721 2.79785 11.2324 3.36035 11.2324H3.75586V21.1289ZM5.55762 7.74316V3.58594C5.55762 2.9707 5.86523 2.58398 6.42773 2.51367C8.11523 2.29395 10.0225 2.18848 11.9912 2.18848C13.9688 2.18848 15.8848 2.30273 17.5723 2.51367C18.126 2.58398 18.4424 2.9707 18.4424 3.58594V7.74316H5.55762ZM5.55762 9.14941H18.4424V12.9814C18.4424 13.6055 18.126 13.9922 17.5723 14.0625C15.9287 14.2734 14.0127 14.3789 11.9912 14.3789C9.97852 14.3789 8.07129 14.2734 6.42773 14.0625C5.86523 13.9922 5.55762 13.6055 5.55762 12.9814V9.14941ZM7.11328 17.9385C6.49805 17.9385 6.02344 17.4639 6.02344 16.8574C6.02344 16.2422 6.49805 15.7676 7.11328 15.7676C7.71973 15.7676 8.19434 16.2422 8.19434 16.8574C8.19434 17.4639 7.71973 17.9385 7.11328 17.9385ZM16.8867 17.9385C16.2803 17.9385 15.8057 17.4639 15.8057 16.8574C15.8057 16.2422 16.2803 15.7676 16.8867 15.7676C17.4932 15.7676 17.9766 16.2422 17.9766 16.8574C17.9766 17.4639 17.4932 17.9385 16.8867 17.9385ZM10.4092 17.6309C9.95215 17.6309 9.61816 17.2969 9.61816 16.8398C9.61816 16.3916 9.94336 16.0664 10.4092 16.0664H13.582C14.0479 16.0664 14.373 16.3916 14.373 16.8398C14.373 17.2969 14.0391 17.6309 13.582 17.6309H10.4092Z" fill="#1C1C1E"/>
</g>
<defs>
<clipPath id="clip0_10_1032">
<rect width="24" height="24" fill="white"/>
</clipPath>
</defs>
</svg>
