<svg width="24" height="24" viewBox="0 0 24 24" fill="none" xmlns="http://www.w3.org/2000/svg">
<g clip-path="url(#clip0_10_1036)">
<path d="M-0.779297 20.0566H0.28418C0.952148 20.0566 1.4707 19.5381 1.4707 18.8701V17.4375C2.6748 17.5078 4.15137 17.5605 5.61914 17.5957V18.8701C5.61914 19.5381 6.1377 20.0566 6.81445 20.0566H7.86914C8.53711 20.0566 9.05566 19.5381 9.05566 18.8701V17.4375C10.9893 17.5518 13.626 17.6221 15.7881 17.6221C17.9502 17.6221 20.5781 17.5518 22.5117 17.4375V18.8701C22.5117 19.5381 23.0303 20.0566 23.707 20.0566H24.7617C25.4385 20.0566 25.957 19.5381 25.957 18.8701V16.5586C26.2471 16.2158 26.4053 15.7588 26.4053 15.1963V13.6494C26.4053 12.1025 26.1328 11.2324 25.2979 10.1777L24.5156 9.19336C24.1904 7.61133 23.6104 5.9502 23.3027 5.2998C22.8105 4.2627 21.8613 3.64746 20.6484 3.48047C20.0068 3.39258 18.126 3.34863 15.7881 3.34863C14.2324 3.34863 12.8701 3.36621 11.9473 3.41016C11.0596 3.36621 9.75 3.34863 8.20312 3.34863C5.86523 3.34863 3.97559 3.40137 3.34277 3.48047C2.12988 3.62988 1.17188 4.2627 0.688477 5.2998C0.380859 5.9502 -0.199219 7.61133 -0.524414 9.19336L-1.30664 10.1777C-2.1416 11.2324 -2.41406 12.1025 -2.41406 13.6494V15.0117C-2.41406 15.6445 -2.26465 16.1543 -1.96582 16.5234V18.8701C-1.96582 19.5381 -1.44727 20.0566 -0.779297 20.0566ZM0.0556641 15.8906C-0.700195 15.8115 -1.0166 15.3984 -1.0166 14.7041V13.5703C-1.0166 12.3838 -0.788086 11.8213 -0.172852 11.0039L0.776367 9.76465C0.996094 8.58691 1.56738 6.75879 1.92773 5.97656C2.22656 5.35254 2.78906 4.99219 3.55371 4.89551C4.16016 4.81641 5.87402 4.74609 8.20312 4.74609C8.33496 4.74609 8.47559 4.74609 8.60742 4.74609C8.47559 4.91309 8.37012 5.09766 8.27344 5.2998C8.22949 5.40527 8.17676 5.51953 8.11523 5.66895C5.82129 5.66895 4.41504 5.72168 3.82617 5.80078C3.30762 5.87109 3.02637 6.05566 2.79785 6.45996C2.53418 6.92578 2.16504 8.04199 1.97168 8.88574C1.88379 9.24609 2.04199 9.41309 2.41992 9.39551C3.47461 9.3252 5.10938 9.26367 7.02539 9.2373L6.27832 10.1777C5.44336 11.2324 5.1709 12.1025 5.1709 13.6494V15.1963C5.1709 15.5654 5.24121 15.8906 5.36426 16.1631C3.14062 16.1104 1.02246 15.9961 0.0556641 15.8906ZM15.7881 16.1982C12.7734 16.1982 9.0293 16.0576 7.60547 15.8906C6.8584 15.8027 6.57715 15.416 6.57715 14.748V13.5703C6.57715 12.3838 6.79688 11.8213 7.41211 11.0039L8.37012 9.76465C8.58105 8.58691 9.15234 6.75879 9.52148 5.97656C9.81152 5.35254 10.374 4.99219 11.1387 4.89551C11.7451 4.81641 13.459 4.74609 15.7881 4.74609C18.1172 4.74609 19.8574 4.8252 20.4199 4.89551C21.2109 4.99219 21.7559 5.36133 22.0635 5.98535C22.4326 6.75 22.9863 8.56934 23.2061 9.76465L24.1641 11.0039C24.7793 11.8213 24.999 12.3838 24.999 13.5703V14.748C24.999 15.416 24.7178 15.8027 23.9707 15.8906C22.5469 16.0576 18.8027 16.1982 15.7881 16.1982ZM9.55664 8.88574C9.46875 9.24609 9.62695 9.41309 10.0049 9.39551C11.2969 9.31641 12.9229 9.2373 15.7881 9.2373C18.6533 9.2373 20.2793 9.31641 21.5713 9.39551C21.9492 9.41309 22.0986 9.24609 22.0195 8.88574C21.8262 8.04199 21.4658 6.93457 21.2109 6.49512C20.9648 6.05566 20.6836 5.87109 20.165 5.80078C19.5674 5.72168 18.1348 5.66016 15.7881 5.66016C13.4414 5.66016 12 5.72168 11.4111 5.80078C10.8926 5.87109 10.6025 6.05566 10.3652 6.49512C10.1104 6.93457 9.75 8.04199 9.55664 8.88574ZM1.83984 15.0645C2.68359 15.0645 3.31641 14.4316 3.31641 13.5967C3.31641 12.7529 2.68359 12.1201 1.83984 12.1201C1.00488 12.1201 0.37207 12.7529 0.37207 13.5967C0.37207 14.4316 1.00488 15.0645 1.83984 15.0645ZM9.4248 15.0645C10.2686 15.0645 10.9014 14.4316 10.9014 13.5967C10.9014 12.7529 10.2686 12.1201 9.4248 12.1201C8.58984 12.1201 7.95703 12.7529 7.95703 13.5967C7.95703 14.4316 8.58984 15.0645 9.4248 15.0645ZM22.1426 15.0645C22.9863 15.0645 23.6191 14.4316 23.6191 13.5967C23.6191 12.7529 22.9863 12.1201 22.1426 12.1201C21.3076 12.1201 20.6748 12.7529 20.6748 13.5967C20.6748 14.4316 21.3076 15.0645 22.1426 15.0645ZM13.415 14.6953H18.1611C18.7852 14.6953 19.2246 14.2559 19.2246 13.6318C19.2246 13.0078 18.7852 12.5684 18.1611 12.5684H13.415C12.7822 12.5684 12.3428 13.0078 12.3428 13.6318C12.3428 14.2559 12.7822 14.6953 13.415 14.6953Z" fill="#1C1C1E"/>
</g>
<defs>
<clipPath id="clip0_10_1036">
<rect width="24" height="24" fill="white"/>
</clipPath>
</defs>
</svg>
