<svg width="24" height="24" viewBox="0 0 24 24" fill="none" xmlns="http://www.w3.org/2000/svg">
<g clip-path="url(#clip0_10_1022)">
<path d="M3.01758 20.0566H4.08105C4.74902 20.0566 5.26758 19.5381 5.26758 18.8701V17.4375C7.20117 17.5518 9.83789 17.6221 12 17.6221C14.1533 17.6221 16.79 17.5518 18.7236 17.4375V18.8701C18.7236 19.5381 19.2422 20.0566 19.9189 20.0566H20.9736C21.6504 20.0566 22.1689 19.5381 22.1689 18.8701V16.5586C22.459 16.2158 22.6172 15.7588 22.6172 15.1963V13.6494C22.6172 12.1025 22.3447 11.2324 21.5098 10.1777L20.7275 9.19336C20.4023 7.61133 19.8223 5.9502 19.5146 5.2998C19.0225 4.2627 18.0732 3.64746 16.8604 3.48047C16.2188 3.39258 14.3379 3.34863 12 3.34863C9.66211 3.34863 7.77246 3.40137 7.13965 3.48047C5.92676 3.62988 4.96875 4.2627 4.48535 5.2998C4.17773 5.9502 3.59766 7.61133 3.27246 9.19336L2.49023 10.1777C1.65527 11.2324 1.38281 12.1025 1.38281 13.6494V15.1963C1.38281 15.7588 1.54102 16.2158 1.83105 16.5586V18.8701C1.83105 19.5381 2.34961 20.0566 3.01758 20.0566ZM12 16.1982C8.98535 16.1982 5.24121 16.0576 3.81738 15.8906C3.06152 15.8027 2.78027 15.416 2.78027 14.748V13.5703C2.78027 12.3838 3.00879 11.8213 3.62402 11.0039L4.57324 9.76465C4.79297 8.58691 5.36426 6.75879 5.72461 5.97656C6.02344 5.35254 6.58594 4.99219 7.35059 4.89551C7.95703 4.81641 9.6709 4.74609 12 4.74609C14.3291 4.74609 16.0693 4.8252 16.6318 4.89551C17.4229 4.99219 17.9678 5.36133 18.2666 5.98535C18.6445 6.75 19.1982 8.56934 19.418 9.76465L20.3672 11.0039C20.9912 11.8213 21.2109 12.3838 21.2109 13.5703V14.748C21.2109 15.416 20.9297 15.8027 20.1826 15.8906C18.7588 16.0576 15.0146 16.1982 12 16.1982ZM5.76855 8.88574C5.68066 9.24609 5.83887 9.41309 6.2168 9.39551C7.50879 9.31641 9.13477 9.2373 12 9.2373C14.8652 9.2373 16.4912 9.31641 17.7744 9.39551C18.1611 9.41309 18.3105 9.24609 18.2314 8.88574C18.0381 8.04199 17.6777 6.93457 17.4229 6.49512C17.1768 6.05566 16.8955 5.87109 16.377 5.80078C15.7793 5.72168 14.3467 5.66016 12 5.66016C9.65332 5.66016 8.21191 5.72168 7.62305 5.80078C7.10449 5.87109 6.81445 6.05566 6.57715 6.49512C6.32227 6.93457 5.96191 8.04199 5.76855 8.88574ZM5.63672 15.0645C6.48047 15.0645 7.11328 14.4316 7.11328 13.5967C7.11328 12.7529 6.48047 12.1201 5.63672 12.1201C4.80176 12.1201 4.16895 12.7529 4.16895 13.5967C4.16895 14.4316 4.80176 15.0645 5.63672 15.0645ZM18.3545 15.0645C19.1982 15.0645 19.8311 14.4316 19.8311 13.5967C19.8311 12.7529 19.1982 12.1201 18.3545 12.1201C17.5195 12.1201 16.8867 12.7529 16.8867 13.5967C16.8867 14.4316 17.5195 15.0645 18.3545 15.0645ZM9.62695 14.6953H14.373C14.9971 14.6953 15.4365 14.2559 15.4365 13.6318C15.4365 13.0078 14.9971 12.5684 14.373 12.5684H9.62695C8.99414 12.5684 8.55469 13.0078 8.55469 13.6318C8.55469 14.2559 8.99414 14.6953 9.62695 14.6953Z" fill="#1C1C1E"/>
</g>
<defs>
<clipPath id="clip0_10_1022">
<rect width="24" height="24" fill="white"/>
</clipPath>
</defs>
</svg>
