<svg width="24" height="24" viewBox="0 0 24 24" fill="none" xmlns="http://www.w3.org/2000/svg">
<g clip-path="url(#clip0_10_1034)">
<path d="M-1.18359 20.0566H-0.120117C0.547852 20.0566 1.05762 19.5381 1.05762 18.8701V17.3408C1.86621 17.3936 2.83301 17.4463 3.85254 17.4727V13.6582C3.85254 12.1113 4.13379 11.2412 4.95996 10.1777L5.7334 9.19336L5.84766 8.8418C4.06348 8.86816 3.00879 8.9209 1.9541 8.98242C1.5498 9 1.3916 8.82422 1.47949 8.44629C1.67285 7.57617 2.06836 6.40723 2.34082 5.91504C2.56934 5.48438 2.87695 5.29102 3.42188 5.2207C3.95801 5.1416 5.08301 5.09766 7.04297 5.08008C7.27148 4.37695 7.56152 3.82324 8.08887 3.33105C5.53125 3.34863 3.94043 3.40137 3.35156 3.47168C2.13867 3.6123 1.18945 4.2627 0.697266 5.2998C0.398438 5.9502 -0.181641 7.61133 -0.506836 9.19336L-1.28027 10.1777C-2.09766 11.25 -2.39648 12.1113 -2.3877 13.6582L-2.37891 15.1436V18.8789C-2.37891 19.5469 -1.85156 20.0566 -1.18359 20.0566ZM6.33984 20.1973H7.39453C8.07129 20.1973 8.58984 19.6787 8.58984 19.0107V17.4902C10.541 17.6133 13.4326 17.71 15.7617 17.71C18.0908 17.71 20.9824 17.6221 22.9424 17.4902V19.0107C22.9424 19.6787 23.4609 20.1973 24.1289 20.1973H25.1924C25.8604 20.1973 26.3789 19.6787 26.3789 19.0107V13.7988C26.3789 12.2432 26.0977 11.3818 25.2715 10.3184L24.4893 9.33398C24.1641 7.76074 23.584 6.09961 23.2764 5.44922C22.793 4.40332 21.835 3.78809 20.6221 3.62109C19.9893 3.5332 18.0996 3.48926 15.7617 3.48926C13.4238 3.48926 11.543 3.54199 10.9014 3.62109C9.68848 3.77051 8.73926 4.40332 8.24707 5.44922C7.93945 6.09961 7.35938 7.76074 7.03418 9.33398L6.25195 10.3184C5.43457 11.3818 5.14453 12.2432 5.14453 13.7988V19.0107C5.14453 19.6787 5.66309 20.1973 6.33984 20.1973ZM9.01172 8.52539C9.20508 7.65527 9.5918 6.49512 9.85547 6.0293C10.1104 5.56348 10.4004 5.37012 10.9541 5.2998C11.5693 5.21191 13.0811 5.15918 15.7617 5.15918C18.4512 5.15918 19.9541 5.19434 20.5781 5.2998C21.123 5.37891 21.4043 5.56348 21.668 6.0293C21.9404 6.48633 22.3096 7.65527 22.5117 8.52539C22.6084 8.90332 22.4502 9.0791 22.0459 9.06152C20.7012 8.98242 18.9873 8.89453 15.7617 8.89453C12.5361 8.89453 10.8311 8.98242 9.47754 9.06152C9.08203 9.0791 8.92383 8.90332 9.01172 8.52539ZM1.04883 14.6426C0.292969 14.6426 -0.27832 14.0625 -0.27832 13.3066C-0.27832 12.5508 0.292969 11.9795 1.04883 11.9795C1.80469 11.9795 2.38477 12.5508 2.38477 13.3066C2.38477 14.0625 1.80469 14.6426 1.04883 14.6426ZM9.31934 15.249C8.48438 15.249 7.85156 14.6162 7.85156 13.7812C7.85156 12.9375 8.48438 12.3047 9.31934 12.3047C10.1543 12.3047 10.7959 12.9375 10.7959 13.7812C10.7959 14.6162 10.1543 15.249 9.31934 15.249ZM22.2041 15.249C21.3691 15.249 20.7275 14.6162 20.7275 13.7812C20.7275 12.9375 21.3691 12.3047 22.2041 12.3047C23.0391 12.3047 23.6807 12.9375 23.6807 13.7812C23.6807 14.6162 23.0391 15.249 22.2041 15.249ZM13.3887 14.8799C12.7646 14.8799 12.3252 14.4404 12.3252 13.8164C12.3252 13.1924 12.7646 12.7529 13.3887 12.7529H18.1348C18.7676 12.7529 19.207 13.1924 19.207 13.8164C19.207 14.4404 18.7676 14.8799 18.1348 14.8799H13.3887Z" fill="#1C1C1E"/>
</g>
<defs>
<clipPath id="clip0_10_1034">
<rect width="24" height="24" fill="white"/>
</clipPath>
</defs>
</svg>
