<svg width="24" height="24" viewBox="0 0 24 24" fill="none" xmlns="http://www.w3.org/2000/svg">
<g clip-path="url(#clip0_10_1035)">
<path d="M2.56934 20.1973H3.63281C4.30078 20.1973 4.81934 19.6787 4.81934 19.0107V17.4902C6.7793 17.6133 9.6709 17.71 12 17.71C14.3291 17.71 17.2207 17.6221 19.1719 17.4902V19.0107C19.1719 19.6787 19.6904 20.1973 20.3672 20.1973H21.4219C22.0986 20.1973 22.6172 19.6787 22.6172 19.0107V13.7988C22.6172 12.2432 22.3271 11.3818 21.5098 10.3184L20.7275 9.33398C20.4023 7.76074 19.8223 6.09961 19.5146 5.44922C19.0225 4.40332 18.0732 3.78809 16.8604 3.62109C16.2188 3.5332 14.3379 3.48926 12 3.48926C9.66211 3.48926 7.77246 3.54199 7.13965 3.62109C5.92676 3.77051 4.96875 4.40332 4.48535 5.44922C4.17773 6.09961 3.59766 7.76074 3.27246 9.33398L2.49023 10.3184C1.66406 11.3818 1.38281 12.2432 1.38281 13.7988V19.0107C1.38281 19.6787 1.90137 20.1973 2.56934 20.1973ZM5.24121 8.52539C5.44336 7.65527 5.83008 6.49512 6.09375 6.0293C6.34863 5.56348 6.63867 5.37012 7.18359 5.2998C7.80762 5.21191 9.31055 5.15918 12 5.15918C14.6807 5.15918 16.1924 5.19434 16.8164 5.2998C17.3613 5.37891 17.6426 5.56348 17.9062 6.0293C18.1787 6.48633 18.5391 7.65527 18.75 8.52539C18.8467 8.90332 18.6797 9.0791 18.2842 9.06152C16.9307 8.98242 15.2256 8.89453 12 8.89453C8.77441 8.89453 7.06934 8.98242 5.71582 9.06152C5.31152 9.0791 5.16211 8.90332 5.24121 8.52539ZM5.55762 15.249C4.72266 15.249 4.08105 14.6162 4.08105 13.7812C4.08105 12.9375 4.72266 12.3047 5.55762 12.3047C6.39258 12.3047 7.02539 12.9375 7.02539 13.7812C7.02539 14.6162 6.39258 15.249 5.55762 15.249ZM18.4424 15.249C17.5986 15.249 16.9658 14.6162 16.9658 13.7812C16.9658 12.9375 17.5986 12.3047 18.4424 12.3047C19.2773 12.3047 19.9102 12.9375 19.9102 13.7812C19.9102 14.6162 19.2773 15.249 18.4424 15.249ZM9.62695 14.8799C8.99414 14.8799 8.55469 14.4404 8.55469 13.8164C8.55469 13.1924 8.99414 12.7529 9.62695 12.7529H14.373C14.9971 12.7529 15.4365 13.1924 15.4365 13.8164C15.4365 14.4404 14.9971 14.8799 14.373 14.8799H9.62695Z" fill="#1C1C1E"/>
</g>
<defs>
<clipPath id="clip0_10_1035">
<rect width="24" height="24" fill="white"/>
</clipPath>
</defs>
</svg>
