<svg width="24" height="24" viewBox="0 0 24 24" fill="none" xmlns="http://www.w3.org/2000/svg">
<g clip-path="url(#clip0_10_1033)">
<path d="M11.9912 20.7422C16.9746 20.7422 21.0879 16.6289 21.0879 11.6543C21.0879 6.67969 16.9658 2.56641 11.9824 2.56641C7.00781 2.56641 2.90332 6.67969 2.90332 11.6543C2.90332 16.6289 7.0166 20.7422 11.9912 20.7422ZM11.9912 18.9316C7.95703 18.9316 4.73145 15.6885 4.73145 11.6543C4.73145 7.62012 7.95703 4.38574 11.9824 4.38574C16.0166 4.38574 19.2598 7.62012 19.2686 11.6543C19.2773 15.6885 16.0254 18.9316 11.9912 18.9316ZM7.28906 14.5107C7.28906 14.8008 7.51758 15.0293 7.81641 15.0293H8.29102C8.58105 15.0293 8.80957 14.8008 8.80957 14.5107V13.834C9.68848 13.8867 10.9629 13.9307 11.9912 13.9307C13.0283 13.9307 14.3027 13.8955 15.1729 13.834V14.5107C15.1729 14.8008 15.4014 15.0293 15.7002 15.0293H16.166C16.4648 15.0293 16.6934 14.8008 16.6934 14.5107V12.1992C16.6934 11.5225 16.5703 11.1357 16.2012 10.6699L15.8584 10.2305C15.709 9.51855 15.4541 8.78027 15.3223 8.49902C15.1025 8.04199 14.6807 7.76953 14.1445 7.69922C13.8633 7.66406 13.0283 7.6377 11.9912 7.6377C10.9629 7.6377 10.1191 7.66406 9.83789 7.69922C9.30176 7.76074 8.87988 8.04199 8.66895 8.49902C8.52832 8.78027 8.27344 9.51855 8.13281 10.2305L7.78125 10.6699C7.4209 11.1357 7.28906 11.5225 7.28906 12.1992V14.5107ZM9.23145 9.83496C9.31055 9.45703 9.47754 8.98242 9.58301 8.78906C9.68848 8.5957 9.80273 8.5166 10.0225 8.49023C10.2861 8.44629 10.9014 8.42871 11.9912 8.42871C13.0811 8.42871 13.6963 8.44629 13.96 8.49023C14.1885 8.5166 14.2939 8.5957 14.4082 8.78906C14.5225 8.97363 14.6719 9.45703 14.751 9.83496C14.7949 9.97559 14.7334 10.0459 14.5752 10.0371C14.0127 10.002 13.3096 9.9668 11.9912 9.9668C10.6816 9.9668 9.97852 10.002 9.41602 10.0371C9.24902 10.0459 9.19629 9.97559 9.23145 9.83496ZM8.48438 12.1992C8.48438 11.8213 8.76562 11.5488 9.13477 11.5488C9.49512 11.5488 9.78516 11.8213 9.78516 12.1992C9.78516 12.5684 9.49512 12.8408 9.13477 12.8408C8.76562 12.8408 8.48438 12.5684 8.48438 12.1992ZM14.1973 12.1992C14.1973 11.8213 14.4873 11.5488 14.8477 11.5488C15.2168 11.5488 15.498 11.8213 15.498 12.1992C15.498 12.5684 15.2168 12.8408 14.8477 12.8408C14.4873 12.8408 14.1973 12.5684 14.1973 12.1992ZM10.4707 12.2168C10.4707 11.9443 10.6641 11.751 10.9453 11.751H13.0371C13.3184 11.751 13.5117 11.9443 13.5117 12.2168C13.5117 12.498 13.3184 12.6826 13.0371 12.6826H10.9453C10.6641 12.6826 10.4707 12.498 10.4707 12.2168Z" fill="#1C1C1E"/>
</g>
<defs>
<clipPath id="clip0_10_1033">
<rect width="24" height="24" fill="white"/>
</clipPath>
</defs>
</svg>
