<svg width="24" height="24" viewBox="0 0 24 24" fill="none" xmlns="http://www.w3.org/2000/svg">
<g clip-path="url(#clip0_10_1031)">
<path d="M11.9912 20.7598C16.9746 20.7598 21.0879 16.6465 21.0879 11.6631C21.0879 6.68848 16.9658 2.5752 11.9824 2.5752C7.00781 2.5752 2.90332 6.68848 2.90332 11.6631C2.90332 16.6465 7.0166 20.7598 11.9912 20.7598ZM7.10449 14.6338V12.2432C7.10449 11.54 7.23633 11.1357 7.62305 10.6523L7.97461 10.1953C8.13281 9.45703 8.3877 8.69238 8.53711 8.39355C8.75684 7.91895 9.19629 7.62891 9.75 7.56738C10.0488 7.52344 10.9189 7.50586 11.9912 7.50586C13.0723 7.50586 13.9424 7.52344 14.2324 7.56738C14.7949 7.6377 15.2256 7.91895 15.4541 8.39355C15.5947 8.69238 15.8496 9.45703 16.0166 10.1953L16.3682 10.6523C16.7549 11.1357 16.8779 11.54 16.8779 12.2432V14.6338C16.8779 14.9414 16.6406 15.1875 16.333 15.1875H15.8408C15.5332 15.1875 15.2959 14.9414 15.2959 14.6338V13.9395C14.3906 14.001 13.0723 14.0361 11.9912 14.0361C10.9189 14.0361 9.5918 14.001 8.69531 13.9395V14.6338C8.69531 14.9414 8.44922 15.1875 8.1416 15.1875H7.64941C7.3418 15.1875 7.10449 14.9414 7.10449 14.6338ZM9.12598 9.78223C9.09082 9.93164 9.15234 10.002 9.31934 9.99316C9.9082 9.95801 10.6289 9.92285 11.9912 9.92285C13.3623 9.92285 14.083 9.95801 14.6631 9.99316C14.8389 10.002 14.9004 9.93164 14.8564 9.78223C14.7773 9.39551 14.6104 8.88574 14.4961 8.70117C14.3818 8.49902 14.2676 8.41992 14.0303 8.39355C13.7578 8.34961 13.125 8.33203 11.9912 8.33203C10.8662 8.33203 10.2246 8.34961 9.95215 8.39355C9.72363 8.41992 9.60059 8.49902 9.48633 8.70117C9.38086 8.89453 9.21387 9.39551 9.12598 9.78223ZM8.34375 12.2344C8.34375 12.6211 8.64258 12.9111 9.0293 12.9111C9.39844 12.9111 9.69727 12.6211 9.69727 12.2344C9.69727 11.8564 9.39844 11.5664 9.0293 11.5664C8.64258 11.5664 8.34375 11.8564 8.34375 12.2344ZM14.2852 12.2344C14.2852 12.6211 14.584 12.9111 14.9619 12.9111C15.3486 12.9111 15.6387 12.6211 15.6387 12.2344C15.6387 11.8564 15.3486 11.5664 14.9619 11.5664C14.584 11.5664 14.2852 11.8564 14.2852 12.2344ZM10.4092 12.2607C10.4092 12.5508 10.6113 12.7441 10.9014 12.7441H13.0811C13.3711 12.7441 13.5732 12.5508 13.5732 12.2607C13.5732 11.9707 13.3711 11.7686 13.0811 11.7686H10.9014C10.6113 11.7686 10.4092 11.9707 10.4092 12.2607Z" fill="#1C1C1E"/>
</g>
<defs>
<clipPath id="clip0_10_1031">
<rect width="24" height="24" fill="white"/>
</clipPath>
</defs>
</svg>
