<svg width="24" height="24" viewBox="0 0 24 24" fill="none" xmlns="http://www.w3.org/2000/svg">
<g clip-path="url(#clip0_10_1017)">
<path d="M11.165 22.3066C11.7451 22.3066 12.167 21.9375 12.167 21.2432V14.502C12.167 14.2031 12.3076 14.0273 12.5449 14.0273C12.7822 14.0273 12.9316 14.2031 12.9316 14.502V21.2432C12.9316 21.9375 13.3535 22.3066 13.9336 22.3066C14.5049 22.3066 14.9268 21.9375 14.9268 21.2432V9.85254C14.9268 9.61523 15.041 9.47461 15.2344 9.47461C15.4189 9.47461 15.542 9.61523 15.542 9.85254V14.5283C15.542 15.1523 15.9111 15.5039 16.4385 15.5039C16.9658 15.5039 17.3262 15.1523 17.3262 14.5283V9.95801C17.3262 7.17188 15.7529 6.45117 12.6328 6.45117H11.2793C10.6729 6.45117 10.3652 6.36328 9.88184 6.01172L8.72168 5.19434L8.51074 1.90723C8.4668 1.27441 8.0625 0.94043 7.53516 0.975586C6.99902 1.00195 6.62988 1.38867 6.66504 2.0127L6.87598 5.27344C6.91992 5.98535 7.20117 6.39844 7.64062 6.72363L9.75 8.26172C10.0576 8.48145 10.1631 8.75391 10.1631 9.10547V21.2432C10.1631 21.9375 10.5938 22.3066 11.165 22.3066ZM12.6328 5.57227C13.8018 5.57227 14.7422 4.60547 14.7422 3.47168C14.7422 2.30273 13.8018 1.35352 12.6328 1.35352C11.4551 1.35352 10.5322 2.30273 10.5322 3.47168C10.5322 4.62305 11.4551 5.57227 12.6328 5.57227Z" fill="#1C1C1E"/>
</g>
<defs>
<clipPath id="clip0_10_1017">
<rect width="24" height="24" fill="white"/>
</clipPath>
</defs>
</svg>
