<svg width="24" height="24" viewBox="0 0 24 24" fill="none" xmlns="http://www.w3.org/2000/svg">
<g clip-path="url(#clip0_10_1013)">
<path d="M11.9912 20.7422C16.9746 20.7422 21.0879 16.6289 21.0879 11.6543C21.0879 6.67969 16.9658 2.56641 11.9824 2.56641C7.00781 2.56641 2.90332 6.67969 2.90332 11.6543C2.90332 16.6289 7.0166 20.7422 11.9912 20.7422ZM12.4395 7.72559C11.8242 7.72559 11.3057 7.21582 11.3057 6.5918C11.3057 5.9502 11.8154 5.43164 12.4395 5.43164C13.0811 5.43164 13.5996 5.9502 13.5996 6.5918C13.5996 7.20703 13.0723 7.72559 12.4395 7.72559ZM14.083 17.0859C13.8457 17.0859 13.6699 16.9629 13.5557 16.7344L12.4307 14.4668C12.3691 14.3613 12.334 14.291 12.2285 14.1768L11.1914 12.876C10.9014 12.5068 10.6113 12.085 10.6641 11.4873L10.752 10.3271C10.7607 10.1514 10.6025 10.0547 10.4619 10.1777L9.92578 10.6348L9.82031 11.9355C9.79395 12.2871 9.5918 12.4805 9.28418 12.4629C8.96777 12.4365 8.77441 12.208 8.80078 11.8652L8.90625 10.6611C8.94141 10.3184 9.02051 10.0986 9.29297 9.85254L10.1543 9.05273C10.708 8.54297 11.2002 8.24414 11.7539 8.24414C12.5537 8.24414 13.0283 8.80664 12.9756 9.63281L12.8789 11.0566C12.8438 11.5752 12.7383 11.9268 12.5625 12.4805L12.501 12.6475L13.1338 13.5439C13.2393 13.6934 13.3535 13.8516 13.4502 14.0889L14.5137 16.1895C14.584 16.3389 14.6191 16.4531 14.6191 16.585C14.6191 16.875 14.3818 17.0859 14.083 17.0859ZM14.3906 11.3555C14.083 11.3555 13.9424 11.3027 13.7666 11.1357L13.4326 10.8018L13.5205 9.47461L14.3027 10.3359H15.665C16.0166 10.3359 16.2363 10.5381 16.2363 10.8457C16.2363 11.1621 16.0166 11.3555 15.665 11.3555H14.3906ZM9.19629 17.0947C8.90625 17.0947 8.71289 16.8838 8.71289 16.5938C8.71289 16.3916 8.81836 16.2598 8.94141 16.1104L10.4619 14.3525L10.6992 13.166L11.5693 14.2559L11.4902 14.5723C11.4551 14.7568 11.4375 14.7744 11.2529 14.9941L9.60938 16.9014C9.50391 17.0244 9.35449 17.0947 9.19629 17.0947Z" fill="#1C1C1E"/>
</g>
<defs>
<clipPath id="clip0_10_1013">
<rect width="24" height="24" fill="white"/>
</clipPath>
</defs>
</svg>
