<svg width="24" height="24" viewBox="0 0 24 24" fill="none" xmlns="http://www.w3.org/2000/svg">
<g clip-path="url(#clip0_10_1008)">
<path d="M11.9648 4.64941C13.1338 4.64941 14.083 3.68262 14.083 2.55762C14.083 1.37988 13.1338 0.430664 11.9648 0.430664C10.7959 0.430664 9.87305 1.37988 9.87305 2.55762C9.87305 3.68262 10.7959 4.64941 11.9648 4.64941ZM14.9619 21.3926C15.4629 21.3926 15.9111 21.0234 15.9111 20.4082C15.9111 20.1797 15.8496 19.9688 15.7266 19.7227L13.8457 15.9082C13.6787 15.5654 13.4854 15.2578 13.3096 15.0117L12.1582 13.377L12.2285 13.1572C12.5449 12.1465 12.668 11.5312 12.7383 10.5645L12.9316 7.84863C13.0283 6.5127 12.2549 5.42285 10.8574 5.42285C9.83789 5.42285 9.09961 5.97656 8.15039 6.89941L6.70898 8.33203C6.2168 8.81543 6.05859 9.21094 6.01465 9.82617L5.83008 12.0586C5.78613 12.665 6.12891 13.0605 6.67383 13.0957C7.19238 13.1309 7.5791 12.8232 7.64062 12.1729L7.84277 9.72949L8.69531 8.97363C8.85352 8.83301 9.08203 8.91211 9.06445 9.14941L8.90625 11.3467C8.82715 12.4102 9.29297 13.1836 9.82031 13.8428L11.7012 16.207C11.8857 16.4355 11.9121 16.5234 12 16.6904L14.0039 20.7598C14.2412 21.2344 14.5928 21.3926 14.9619 21.3926ZM15.375 11.0127H17.502C18.1172 11.0127 18.5039 10.6523 18.5039 10.1074C18.5039 9.5625 18.1084 9.20215 17.4932 9.20215H15.2695L13.7227 7.52344L13.5557 9.94043L14.2148 10.5996C14.5312 10.916 14.8301 11.0127 15.375 11.0127ZM6.43652 21.3926C6.74414 21.3926 7.0166 21.252 7.20996 21.0234L10.04 17.6572C10.3301 17.3057 10.3652 17.2178 10.4883 16.875C10.5586 16.6465 10.6201 16.4268 10.6729 16.2158L9.05566 14.1943L8.58105 16.4004L5.90039 19.582C5.6543 19.8633 5.4873 20.1094 5.4873 20.4609C5.4873 21.0059 5.90039 21.3926 6.43652 21.3926Z" fill="#1C1C1E"/>
</g>
<defs>
<clipPath id="clip0_10_1008">
<rect width="24" height="24" fill="white"/>
</clipPath>
</defs>
</svg>
