<svg width="24" height="24" viewBox="0 0 24 24" fill="none" xmlns="http://www.w3.org/2000/svg">
<g clip-path="url(#clip0_10_1027)">
<path d="M6.99902 19.1074H7.10449L5.20605 22.1572C4.95996 22.5527 5.1709 23.0273 5.6543 23.0273H6.20801C6.48926 23.0273 6.64746 22.9307 6.79688 22.6934L7.28906 21.8936H16.667L17.1592 22.6934C17.3086 22.9307 17.4756 23.0273 17.7568 23.0273H18.2666C18.75 23.0273 18.9785 22.5439 18.7148 22.1309L16.8516 19.1074H16.9922C18.7676 19.1074 19.7959 17.9297 19.7959 16.2158V9.72949C19.7959 7.33008 19.5234 5.30859 19.1895 3.90234C18.7852 2.03906 17.6865 0.852539 15.8232 0.624023C15.1641 0.544922 13.7314 0.430664 12 0.430664C10.2686 0.430664 8.82715 0.544922 8.17676 0.624023C6.31348 0.852539 5.21484 2.03906 4.80176 3.90234C4.46777 5.30859 4.2041 7.33008 4.2041 9.72949V16.2158C4.2041 17.9297 5.22363 19.1074 6.99902 19.1074ZM9.71484 3.48926C9.3457 3.48926 9.09961 3.23438 9.09961 2.86523C9.09961 2.49609 9.3457 2.25 9.71484 2.25H14.2852C14.6543 2.25 14.9004 2.49609 14.9004 2.86523C14.9004 3.23438 14.6543 3.48926 14.2852 3.48926H9.71484ZM12 13.1133C9.89941 13.0957 8.0625 13.0078 7.12207 12.8936C6.55078 12.8232 6.30469 12.4541 6.30469 11.918V9.78223C6.30469 8.0332 6.49805 6.54785 6.62988 5.94141C6.71777 5.51953 6.99023 5.21191 7.41211 5.15918C8.39648 5.03613 9.67969 4.97461 12 4.96582C14.3027 4.95703 15.5947 5.03613 16.5615 5.15918C16.9922 5.21191 17.2734 5.51953 17.3613 5.94141C17.4932 6.54785 17.6865 8.0332 17.6865 9.78223V11.918C17.6865 12.4629 17.4404 12.832 16.8779 12.8936C15.542 13.043 13.7139 13.1133 12 13.1133ZM16.1748 17.1211C15.4717 17.1211 14.9355 16.585 14.9355 15.8818C14.9355 15.1787 15.4717 14.6426 16.1748 14.6426C16.8779 14.6426 17.4141 15.1787 17.4141 15.8818C17.4141 16.585 16.8691 17.1211 16.1748 17.1211ZM7.80762 17.1123C7.10449 17.1123 6.58594 16.5938 6.58594 15.8818C6.58594 15.1699 7.10449 14.6514 7.80762 14.6514C8.51953 14.6514 9.04688 15.1699 9.04688 15.8818C9.04688 16.5938 8.51074 17.1123 7.80762 17.1123ZM8.20312 20.4258L9.02051 19.1074H14.9355L15.7529 20.4258H8.20312Z" fill="#1C1C1E"/>
</g>
<defs>
<clipPath id="clip0_10_1027">
<rect width="24" height="24" fill="white"/>
</clipPath>
</defs>
</svg>
