<svg width="24" height="24" viewBox="0 0 24 24" fill="none" xmlns="http://www.w3.org/2000/svg">
<g clip-path="url(#clip0_10_1020)">
<path d="M11.9912 20.7422C16.9746 20.7422 21.0879 16.6289 21.0879 11.6543C21.0879 6.67969 16.9658 2.56641 11.9824 2.56641C7.00781 2.56641 2.90332 6.67969 2.90332 11.6543C2.90332 16.6289 7.0166 20.7422 11.9912 20.7422ZM11.9912 18.9316C7.95703 18.9316 4.73145 15.6885 4.73145 11.6543C4.73145 7.62012 7.95703 4.38574 11.9824 4.38574C16.0166 4.38574 19.2598 7.62012 19.2686 11.6543C19.2773 15.6885 16.0254 18.9316 11.9912 18.9316ZM9.05566 16.9629H9.30176C9.43359 16.9629 9.5127 16.9189 9.57422 16.8135L9.81152 16.4355H14.1533L14.3906 16.8135C14.4521 16.9189 14.5312 16.9629 14.6631 16.9629H14.8916C15.1113 16.9629 15.2168 16.7432 15.0938 16.5498L14.2236 15.1436H14.3027C15.1201 15.1436 15.5859 14.6074 15.5859 13.8164V10.8193C15.5859 9.70312 15.4541 8.72754 15.2959 8.06836C15.1113 7.2334 14.6104 6.69727 13.7666 6.5918C13.4678 6.55664 12.7998 6.50391 11.9912 6.50391C11.1738 6.50391 10.5059 6.55664 10.207 6.5918C9.36328 6.69727 8.8623 7.2334 8.67773 8.06836C8.51953 8.72754 8.3877 9.70312 8.3877 10.8193V13.8164C8.3877 14.6074 8.85352 15.1436 9.6709 15.1436H9.74121L8.85352 16.5586C8.73926 16.7432 8.83594 16.9629 9.05566 16.9629ZM10.9277 7.90137C10.7607 7.90137 10.6465 7.77832 10.6465 7.61133C10.6465 7.45312 10.7607 7.33887 10.9277 7.33887H13.0459C13.2129 7.33887 13.3359 7.45312 13.3359 7.61133C13.3359 7.77832 13.2129 7.90137 13.0459 7.90137H10.9277ZM11.9912 12.3662C11.0068 12.3574 10.1543 12.3135 9.71484 12.2607C9.45117 12.2344 9.33691 12.0586 9.33691 11.8125V10.8281C9.33691 10.0107 9.43359 9.3252 9.49512 9.03516C9.53906 8.8418 9.66211 8.70117 9.85547 8.6748C10.3125 8.62207 10.9102 8.58691 11.9912 8.58691C13.0635 8.58691 13.6611 8.62207 14.1094 8.6748C14.3027 8.70117 14.4346 8.8418 14.4785 9.03516C14.54 9.3252 14.6279 10.0107 14.6279 10.8281V11.8125C14.6279 12.0586 14.5137 12.2344 14.2588 12.2607C13.626 12.3311 12.7734 12.3662 11.9912 12.3662ZM13.9248 14.2295C13.5996 14.2295 13.3447 13.9834 13.3447 13.6494C13.3447 13.3242 13.5996 13.0781 13.9248 13.0781C14.25 13.0781 14.5049 13.3242 14.5049 13.6494C14.5049 13.9834 14.2412 14.2295 13.9248 14.2295ZM10.04 14.2207C9.71484 14.2207 9.47754 13.9834 9.47754 13.6494C9.47754 13.3242 9.71484 13.0869 10.04 13.0869C10.374 13.0869 10.6113 13.3242 10.6113 13.6494C10.6113 13.9834 10.3652 14.2207 10.04 14.2207ZM10.2246 15.7588L10.6113 15.1436H13.3535L13.7402 15.7588H10.2246Z" fill="#1C1C1E"/>
</g>
<defs>
<clipPath id="clip0_10_1020">
<rect width="24" height="24" fill="white"/>
</clipPath>
</defs>
</svg>
