<svg width="24" height="24" viewBox="0 0 24 24" fill="none" xmlns="http://www.w3.org/2000/svg">
<g clip-path="url(#clip0_10_1029)">
<path d="M1.73438 22.4912C1.73438 22.9307 2.10352 23.2998 2.55176 23.2998C3 23.2998 3.36914 22.9307 3.36914 22.4912V8.91211C3.36914 3.96387 6.36621 1.34473 12 1.34473C17.6338 1.34473 20.6309 3.96387 20.6309 8.91211V22.4912C20.6309 22.9307 21 23.2998 21.4482 23.2998C21.8965 23.2998 22.2656 22.9307 22.2656 22.4912V8.91211C22.2656 2.91797 18.6885 -0.290039 12 -0.290039C5.31152 -0.290039 1.73438 2.91797 1.73438 8.91211V22.4912ZM7.96582 19.3887H8.00098L6.52441 21.7705C6.31348 22.1045 6.48926 22.5088 6.90234 22.5088H7.3418C7.57031 22.5088 7.71094 22.4297 7.84277 22.2188L8.22949 21.5947H15.7441L16.1309 22.2188C16.2627 22.4297 16.4121 22.5088 16.6406 22.5088H17.0449C17.4492 22.5088 17.6602 22.0957 17.4404 21.7529L15.9727 19.3887H16.0342C17.4844 19.3887 18.3369 18.4131 18.3369 17.0068V11.7861C18.3369 9.84375 18.1084 8.16504 17.8359 7.02246C17.4932 5.48438 16.5439 4.57031 15.1025 4.38574C14.5752 4.31543 13.4062 4.22754 12 4.22754C10.5938 4.22754 9.4248 4.31543 8.89746 4.38574C7.45605 4.57031 6.50684 5.48438 6.16406 7.02246C5.90039 8.16504 5.67188 9.84375 5.67188 11.7861V17.0068C5.67188 18.4131 6.51562 19.3887 7.96582 19.3887ZM10.1982 6.81152C9.86426 6.81152 9.64453 6.58301 9.64453 6.24902C9.64453 5.92383 9.86426 5.7041 10.1982 5.7041H13.8018C14.1357 5.7041 14.3643 5.92383 14.3643 6.24902C14.3643 6.58301 14.1357 6.81152 13.8018 6.81152H10.1982ZM12 14.4229C10.3125 14.4141 8.83594 14.3438 8.07129 14.2471C7.68457 14.2031 7.48242 13.957 7.48242 13.5352V11.8213C7.48242 10.4062 7.64062 9.21973 7.74609 8.72754C7.80762 8.39355 8.00977 8.19141 8.30859 8.15625C9.1084 8.05078 10.1279 8.00684 12 8.00684C13.8633 8.00684 14.8916 8.05078 15.6738 8.15625C15.9814 8.19141 16.1924 8.39355 16.2539 8.72754C16.3594 9.21973 16.5088 10.4062 16.5088 11.8213V13.5352C16.5088 13.9658 16.3154 14.2031 15.9287 14.2471C14.8477 14.3877 13.3799 14.4141 12 14.4229ZM8.625 17.7715C8.02734 17.7715 7.58789 17.332 7.58789 16.7256C7.58789 16.1191 8.02734 15.6797 8.625 15.6797C9.23145 15.6797 9.6709 16.1191 9.6709 16.7256C9.6709 17.332 9.21387 17.7715 8.625 17.7715ZM15.3662 17.7715C14.7686 17.7715 14.3291 17.332 14.3291 16.7256C14.3291 16.1191 14.7686 15.6797 15.3662 15.6797C15.9727 15.6797 16.4121 16.1191 16.4121 16.7256C16.4121 17.332 15.9551 17.7715 15.3662 17.7715ZM9.00293 20.3555L9.60059 19.3887H14.373L14.9795 20.3555H9.00293Z" fill="#1C1C1E"/>
</g>
<defs>
<clipPath id="clip0_10_1029">
<rect width="24" height="24" fill="white"/>
</clipPath>
</defs>
</svg>
