<svg width="24" height="24" viewBox="0 0 24 24" fill="none" xmlns="http://www.w3.org/2000/svg">
<g clip-path="url(#clip0_10_1021)">
<path d="M5.64551 23.0273H6.19922C6.48047 23.0273 6.64746 22.9307 6.79688 22.6934L7.28906 21.8936H16.667L17.1592 22.6934C17.3086 22.9307 17.4668 23.0273 17.748 23.0273H18.2578C18.7412 23.0273 18.9697 22.5439 18.7148 22.1309L17.0273 19.3975C19.0664 19.3184 20.2705 17.9121 20.2705 15.8818V10.1514C20.2705 7.73438 19.998 5.59863 19.6289 4.06934C19.1543 1.90723 17.8359 0.641602 15.8057 0.386719C15.1377 0.307617 13.6436 0.193359 11.9912 0.193359C10.1982 0.193359 8.84473 0.307617 8.17676 0.386719C6.15527 0.641602 4.82812 1.90723 4.35352 4.06934C3.98438 5.59863 3.7207 7.67285 3.7207 10.0811V15.8818C3.7207 17.9033 4.90723 19.3008 6.91992 19.3975L5.20605 22.1572C4.95996 22.5527 5.1709 23.0273 5.64551 23.0273ZM7.37695 17.9824C5.85645 17.9824 5.13574 17.0771 5.13574 15.7939V10.0811C5.13574 7.73438 5.4082 5.79199 5.75098 4.32422C6.08496 2.79492 6.97266 1.95117 8.37012 1.79297C9.02051 1.71387 10.2861 1.62598 11.9912 1.62598C13.5557 1.62598 14.9707 1.71387 15.6211 1.79297C17.0186 1.95117 17.9062 2.79492 18.2402 4.32422C18.583 5.79199 18.8467 7.7959 18.8467 10.1514V15.7939C18.8467 17.0771 18.1348 17.9824 16.6143 17.9824H7.37695ZM9.74121 4.00781H14.2412C14.6104 4.00781 14.8477 3.76172 14.8477 3.40137C14.8477 3.04102 14.6104 2.79492 14.2412 2.79492H9.74121C9.38086 2.79492 9.14355 3.04102 9.14355 3.40137C9.14355 3.76172 9.38086 4.00781 9.74121 4.00781ZM11.9912 13.0518C14.1973 13.043 15.8672 12.9551 16.7988 12.8408C17.3525 12.7705 17.5986 12.4014 17.5986 11.8828V9.78223C17.5986 8.05078 17.4053 6.5918 17.2734 5.99414C17.1855 5.57227 16.9131 5.27344 16.4912 5.2207C15.5332 5.10645 14.417 5.04492 11.9912 5.03613C9.56543 5.04492 8.44922 5.10645 7.47363 5.22949C7.06055 5.27344 6.79688 5.57227 6.70898 5.99414C6.57715 6.5918 6.39258 8.05078 6.39258 9.78223V11.8828C6.39258 12.4014 6.62988 12.7705 7.18359 12.8408C8.11523 12.9551 9.78516 13.043 11.9912 13.0518ZM16.1133 16.6729C16.79 16.6729 17.3262 16.1455 17.3262 15.4512C17.3262 14.7656 16.7988 14.2383 16.1133 14.2383C15.4102 14.2383 14.8828 14.7656 14.8828 15.4512C14.8828 16.1455 15.4102 16.6729 16.1133 16.6729ZM7.86914 16.6641C8.55469 16.6641 9.08203 16.1543 9.08203 15.4512C9.08203 14.7568 8.57227 14.2471 7.86914 14.2471C7.1748 14.2471 6.66504 14.7568 6.66504 15.4512C6.66504 16.1543 7.1748 16.6641 7.86914 16.6641ZM8.20312 20.4258L8.83594 19.4062H15.1201L15.7441 20.4258H8.20312Z" fill="#1C1C1E"/>
</g>
<defs>
<clipPath id="clip0_10_1021">
<rect width="24" height="24" fill="white"/>
</clipPath>
</defs>
</svg>
