<svg width="24" height="24" viewBox="0 0 24 24" fill="none" xmlns="http://www.w3.org/2000/svg">
<g clip-path="url(#clip0_10_1019)">
<path d="M11.9912 20.7598C16.9746 20.7598 21.0879 16.6465 21.0879 11.6631C21.0879 6.68848 16.9658 2.5752 11.9824 2.5752C7.00781 2.5752 2.90332 6.68848 2.90332 11.6631C2.90332 16.6465 7.0166 20.7598 11.9912 20.7598ZM8.23828 13.9131V10.7842C8.23828 9.63281 8.37891 8.63086 8.53711 7.93652C8.73926 7.0752 9.2666 6.50391 10.1367 6.39844C10.4443 6.35449 11.1475 6.30176 11.9912 6.30176C12.8262 6.30176 13.5293 6.35449 13.8369 6.39844C14.707 6.50391 15.2344 7.0752 15.4365 7.93652C15.5947 8.63086 15.7354 9.63281 15.7354 10.7842V13.9131C15.7354 14.7832 15.2607 15.249 14.3115 15.2842L15.2168 16.7432C15.3486 16.9541 15.2344 17.1826 15.0146 17.1826H14.7686C14.6279 17.1826 14.5488 17.1387 14.4873 17.0156L14.2324 16.6289H9.72363L9.47754 17.0156C9.41602 17.1387 9.33691 17.1826 9.19629 17.1826H8.94141C8.7041 17.1826 8.60742 16.9541 8.73047 16.7607L9.65332 15.2754C8.74805 15.2402 8.23828 14.8184 8.23828 13.9131ZM10.585 7.46191C10.585 7.62891 10.7168 7.76074 10.8838 7.76074H13.0898C13.2568 7.76074 13.3887 7.62891 13.3887 7.46191C13.3887 7.28613 13.2568 7.17188 13.0898 7.17188H10.8838C10.7168 7.17188 10.585 7.28613 10.585 7.46191ZM9.23145 11.8301C9.23145 12.085 9.36328 12.2607 9.62695 12.2871C10.084 12.3398 10.9717 12.3926 11.9912 12.4014C12.8086 12.4014 13.6963 12.3662 14.3467 12.2871C14.6104 12.2607 14.7422 12.085 14.7422 11.8301V10.8018C14.7422 9.94922 14.6367 9.2373 14.5752 8.93848C14.5312 8.72754 14.3994 8.58691 14.1973 8.56934C13.7227 8.5166 13.1074 8.46387 11.9912 8.47266C10.8662 8.47266 10.251 8.5166 9.76758 8.56934C9.56543 8.58691 9.44238 8.72754 9.39844 8.93848C9.33691 9.2373 9.23145 9.94922 9.23145 10.8018V11.8301ZM13.4062 13.7373C13.4062 14.0801 13.6611 14.335 14.0039 14.335C14.3291 14.335 14.6016 14.0801 14.6016 13.7373C14.6016 13.3945 14.3379 13.1396 14.0039 13.1396C13.6611 13.1396 13.4062 13.3945 13.4062 13.7373ZM9.38086 13.7373C9.38086 14.0889 9.62695 14.335 9.96973 14.335C10.3037 14.335 10.5586 14.0889 10.5586 13.7373C10.5586 13.3945 10.3125 13.1396 9.96973 13.1396C9.62695 13.1396 9.38086 13.3945 9.38086 13.7373ZM10.1543 15.9258H13.8018L13.4062 15.2842H10.5586L10.1543 15.9258Z" fill="#1C1C1E"/>
</g>
<defs>
<clipPath id="clip0_10_1019">
<rect width="24" height="24" fill="white"/>
</clipPath>
</defs>
</svg>
