<svg width="24" height="24" viewBox="0 0 24 24" fill="none" xmlns="http://www.w3.org/2000/svg">
<g clip-path="url(#clip0_10_1970)">
<path d="M11.9912 20.7422C16.9746 20.7422 21.0879 16.6289 21.0879 11.6543C21.0879 6.67969 16.9658 2.56641 11.9824 2.56641C7.00781 2.56641 2.90332 6.67969 2.90332 11.6543C2.90332 16.6289 7.0166 20.7422 11.9912 20.7422ZM11.9912 18.9316C7.95703 18.9316 4.73145 15.6885 4.73145 11.6543C4.73145 7.62012 7.95703 4.38574 11.9824 4.38574C16.0166 4.38574 19.2598 7.62012 19.2686 11.6543C19.2773 15.6885 16.0254 18.9316 11.9912 18.9316ZM11.9736 15.8115C13.8896 15.8115 15.1729 14.1592 15.1729 11.6631C15.1729 9.1582 13.8896 7.50586 11.9736 7.50586C10.0664 7.50586 8.79199 9.1582 8.79199 11.6631C8.79199 14.1592 10.0664 15.8115 11.9736 15.8115ZM11.9824 14.4756C11.0508 14.4756 10.4268 13.4033 10.4268 11.6631C10.4268 9.91406 11.0508 8.8418 11.9824 8.8418C12.9141 8.8418 13.5469 9.91406 13.5469 11.6631C13.5469 13.4033 12.9141 14.4756 11.9824 14.4756Z" fill="#1C1C1E"/>
</g>
<defs>
<clipPath id="clip0_10_1970">
<rect width="24" height="24" fill="white"/>
</clipPath>
</defs>
</svg>
