<svg width="24" height="24" viewBox="0 0 24 24" fill="none" xmlns="http://www.w3.org/2000/svg">
<g clip-path="url(#clip0_10_1968)">
<path d="M11.9912 20.7422C16.9746 20.7422 21.0879 16.6289 21.0879 11.6543C21.0879 6.67969 16.9658 2.56641 11.9824 2.56641C7.00781 2.56641 2.90332 6.67969 2.90332 11.6543C2.90332 16.6289 7.0166 20.7422 11.9912 20.7422ZM11.9736 15.9082C10.0137 15.9082 8.72168 14.2207 8.72168 11.6543C8.72168 9.08789 10.0137 7.40039 11.9736 7.40039C13.9424 7.40039 15.252 9.08789 15.252 11.6543C15.252 14.2207 13.9424 15.9082 11.9736 15.9082ZM11.9824 14.5371C12.9404 14.5371 13.5908 13.4385 13.5908 11.6543C13.5908 9.86133 12.9404 8.7627 11.9824 8.7627C11.0332 8.7627 10.3828 9.86133 10.3828 11.6543C10.3828 13.4385 11.0332 14.5371 11.9824 14.5371Z" fill="#1C1C1E"/>
</g>
<defs>
<clipPath id="clip0_10_1968">
<rect width="24" height="24" fill="white"/>
</clipPath>
</defs>
</svg>
