<svg width="24" height="24" viewBox="0 0 24 24" fill="none" xmlns="http://www.w3.org/2000/svg">
<g clip-path="url(#clip0_10_1964)">
<path d="M6.67383 19.8809H17.3174C19.2246 19.8809 20.209 18.8965 20.209 17.0156V6.31934C20.209 4.43848 19.2246 3.4541 17.3174 3.4541H6.67383C4.77539 3.4541 3.78223 4.42969 3.78223 6.31934V17.0156C3.78223 18.8965 4.77539 19.8809 6.67383 19.8809ZM12.0088 15.9082C10.0488 15.9082 8.75684 14.2207 8.75684 11.6543C8.75684 9.08789 10.0488 7.40039 12.0088 7.40039C13.9775 7.40039 15.2871 9.08789 15.2871 11.6543C15.2871 14.2207 13.9775 15.9082 12.0088 15.9082ZM12.0176 14.5371C12.9756 14.5371 13.626 13.4385 13.626 11.6543C13.626 9.86133 12.9756 8.7627 12.0176 8.7627C11.0684 8.7627 10.418 9.86133 10.418 11.6543C10.418 13.4385 11.0684 14.5371 12.0176 14.5371Z" fill="#1C1C1E"/>
</g>
<defs>
<clipPath id="clip0_10_1964">
<rect width="24" height="24" fill="white"/>
</clipPath>
</defs>
</svg>
