<svg width="24" height="24" viewBox="0 0 24 24" fill="none" xmlns="http://www.w3.org/2000/svg">
<g clip-path="url(#clip0_10_1966)">
<path d="M6.67383 19.8809H17.3174C19.2246 19.8809 20.209 18.8965 20.209 17.0156V6.31934C20.209 4.43848 19.2246 3.4541 17.3174 3.4541H6.67383C4.77539 3.4541 3.78223 4.42969 3.78223 6.31934V17.0156C3.78223 18.8965 4.77539 19.8809 6.67383 19.8809ZM6.78809 18.1318C5.97949 18.1318 5.53125 17.71 5.53125 16.8574V6.47754C5.53125 5.625 5.97949 5.20312 6.78809 5.20312H17.2031C18.0029 5.20312 18.46 5.625 18.46 6.47754V16.8574C18.46 17.71 18.0029 18.1318 17.2031 18.1318H6.78809ZM11.9912 15.8027C13.9072 15.8027 15.1904 14.1504 15.1904 11.6543C15.1904 9.14941 13.9072 7.50586 11.9912 7.50586C10.0752 7.50586 8.80957 9.14941 8.80957 11.6543C8.80957 14.1504 10.0752 15.8027 11.9912 15.8027ZM12 14.4668C11.0684 14.4668 10.4355 13.4033 10.4355 11.6543C10.4355 9.90527 11.0684 8.83301 12 8.83301C12.9316 8.83301 13.5557 9.90527 13.5557 11.6543C13.5557 13.4033 12.9316 14.4668 12 14.4668Z" fill="#1C1C1E"/>
</g>
<defs>
<clipPath id="clip0_10_1966">
<rect width="24" height="24" fill="white"/>
</clipPath>
</defs>
</svg>
