<svg width="24" height="24" viewBox="0 0 24 24" fill="none" xmlns="http://www.w3.org/2000/svg">
<g clip-path="url(#clip0_10_2105)">
<path d="M11.9912 20.7422C16.9746 20.7422 21.0879 16.6289 21.0879 11.6543C21.0879 6.67969 16.9658 2.56641 11.9824 2.56641C7.00781 2.56641 2.90332 6.67969 2.90332 11.6543C2.90332 16.6289 7.0166 20.7422 11.9912 20.7422ZM8.91504 15.4951C7.38574 15.4951 6.36621 14.0977 6.36621 11.6543C6.36621 9.21094 7.38574 7.81348 8.91504 7.81348C10.4443 7.81348 11.4727 9.21094 11.4727 11.6543C11.4727 14.0977 10.4443 15.4951 8.91504 15.4951ZM15.041 15.4951C13.5117 15.4951 12.501 14.0977 12.501 11.6543C12.501 9.21094 13.5117 7.81348 15.041 7.81348C16.5703 7.81348 17.5986 9.21094 17.5986 11.6543C17.5986 14.0977 16.5703 15.4951 15.041 15.4951ZM8.91504 14.2471C9.67969 14.2471 10.1367 13.3154 10.1367 11.6543C10.1367 9.99316 9.6709 9.06152 8.91504 9.06152C8.15918 9.06152 7.69336 9.99316 7.69336 11.6543C7.69336 13.3154 8.15918 14.2471 8.91504 14.2471ZM15.0498 14.2471C15.8145 14.2471 16.2715 13.3154 16.2715 11.6543C16.2715 9.99316 15.8057 9.06152 15.0498 9.06152C14.2939 9.06152 13.8281 9.99316 13.8281 11.6543C13.8281 13.3154 14.2939 14.2471 15.0498 14.2471Z" fill="#1C1C1E"/>
</g>
<defs>
<clipPath id="clip0_10_2105">
<rect width="24" height="24" fill="white"/>
</clipPath>
</defs>
</svg>
