<svg width="24" height="24" viewBox="0 0 24 24" fill="none" xmlns="http://www.w3.org/2000/svg">
<g clip-path="url(#clip0_10_2096)">
<path d="M11.9912 20.7422C16.9746 20.7422 21.0879 16.6289 21.0879 11.6543C21.0879 6.67969 16.9658 2.56641 11.9824 2.56641C7.00781 2.56641 2.90332 6.67969 2.90332 11.6543C2.90332 16.6289 7.0166 20.7422 11.9912 20.7422ZM11.9912 18.9316C7.95703 18.9316 4.73145 15.6885 4.73145 11.6543C4.73145 7.62012 7.95703 4.38574 11.9824 4.38574C16.0166 4.38574 19.2598 7.62012 19.2686 11.6543C19.2773 15.6885 16.0254 18.9316 11.9912 18.9316ZM9.0293 15.3545C10.4971 15.3545 11.4902 14.001 11.4902 11.6631C11.4902 9.31641 10.4971 7.96289 9.0293 7.96289C7.55273 7.96289 6.57715 9.31641 6.57715 11.6631C6.57715 14.001 7.55273 15.3545 9.0293 15.3545ZM14.9268 15.3545C16.3945 15.3545 17.3877 14.001 17.3877 11.6631C17.3877 9.31641 16.3945 7.96289 14.9268 7.96289C13.459 7.96289 12.4834 9.31641 12.4834 11.6631C12.4834 14.001 13.459 15.3545 14.9268 15.3545ZM9.03809 14.168C8.30859 14.168 7.84277 13.2627 7.84277 11.6631C7.84277 10.0547 8.30859 9.1582 9.03809 9.1582C9.76758 9.1582 10.2246 10.0547 10.2246 11.6631C10.2246 13.2627 9.76758 14.168 9.03809 14.168ZM14.9355 14.168C14.2061 14.168 13.749 13.2627 13.749 11.6631C13.749 10.0547 14.2061 9.1582 14.9355 9.1582C15.665 9.1582 16.1221 10.0547 16.1221 11.6631C16.1221 13.2627 15.6738 14.168 14.9355 14.168Z" fill="#1C1C1E"/>
</g>
<defs>
<clipPath id="clip0_10_2096">
<rect width="24" height="24" fill="white"/>
</clipPath>
</defs>
</svg>
