<svg width="24" height="24" viewBox="0 0 24 24" fill="none" xmlns="http://www.w3.org/2000/svg">
<g clip-path="url(#clip0_10_2099)">
<path d="M6.67383 19.8809H17.3174C19.2246 19.8809 20.209 18.8965 20.209 17.0156V6.31934C20.209 4.43848 19.2246 3.4541 17.3174 3.4541H6.67383C4.77539 3.4541 3.78223 4.42969 3.78223 6.31934V17.0156C3.78223 18.8965 4.77539 19.8809 6.67383 19.8809ZM8.9502 15.4951C7.4209 15.4951 6.40137 14.0977 6.40137 11.6543C6.40137 9.21094 7.4209 7.81348 8.9502 7.81348C10.4795 7.81348 11.5078 9.21094 11.5078 11.6543C11.5078 14.0977 10.4795 15.4951 8.9502 15.4951ZM15.0762 15.4951C13.5469 15.4951 12.5361 14.0977 12.5361 11.6543C12.5361 9.21094 13.5469 7.81348 15.0762 7.81348C16.6055 7.81348 17.6338 9.21094 17.6338 11.6543C17.6338 14.0977 16.6055 15.4951 15.0762 15.4951ZM8.9502 14.2471C9.71484 14.2471 10.1719 13.3154 10.1719 11.6543C10.1719 9.99316 9.70605 9.06152 8.9502 9.06152C8.20312 9.06152 7.72852 9.99316 7.72852 11.6543C7.72852 13.3154 8.20312 14.2471 8.9502 14.2471ZM15.085 14.2471C15.8496 14.2471 16.3066 13.3154 16.3066 11.6543C16.3066 9.99316 15.8408 9.06152 15.085 9.06152C14.3291 9.06152 13.8633 9.99316 13.8633 11.6543C13.8633 13.3154 14.3291 14.2471 15.085 14.2471Z" fill="#1C1C1E"/>
</g>
<defs>
<clipPath id="clip0_10_2099">
<rect width="24" height="24" fill="white"/>
</clipPath>
</defs>
</svg>
