<svg width="24" height="24" viewBox="0 0 24 24" fill="none" xmlns="http://www.w3.org/2000/svg">
<g clip-path="url(#clip0_10_2075)">
<path d="M6.67383 19.8809H17.3174C19.2246 19.8809 20.209 18.8965 20.209 17.0156V6.31934C20.209 4.43848 19.2246 3.4541 17.3174 3.4541H6.67383C4.77539 3.4541 3.78223 4.42969 3.78223 6.31934V17.0156C3.78223 18.8965 4.77539 19.8809 6.67383 19.8809ZM6.78809 18.1318C5.97949 18.1318 5.53125 17.71 5.53125 16.8574V6.47754C5.53125 5.625 5.97949 5.20312 6.78809 5.20312H17.2031C18.0029 5.20312 18.46 5.625 18.46 6.47754V16.8574C18.46 17.71 18.0029 18.1318 17.2031 18.1318H6.78809ZM9.04688 15.3457C10.5146 15.3457 11.499 13.9922 11.499 11.6543C11.499 9.30762 10.5146 7.96289 9.04688 7.96289C7.57031 7.96289 6.59473 9.30762 6.59473 11.6543C6.59473 13.9922 7.57031 15.3457 9.04688 15.3457ZM14.9443 15.3457C16.4121 15.3457 17.4053 13.9922 17.4053 11.6543C17.4053 9.30762 16.4121 7.96289 14.9443 7.96289C13.4678 7.96289 12.4922 9.30762 12.4922 11.6543C12.4922 13.9922 13.4678 15.3457 14.9443 15.3457ZM9.04688 14.1592C8.31738 14.1592 7.86035 13.2539 7.86035 11.6543C7.86035 10.0547 8.31738 9.14941 9.04688 9.14941C9.77637 9.14941 10.2334 10.0547 10.2334 11.6543C10.2334 13.2539 9.78516 14.1592 9.04688 14.1592ZM14.9531 14.1592C14.2236 14.1592 13.7578 13.2539 13.7578 11.6543C13.7578 10.0547 14.2236 9.14941 14.9531 9.14941C15.6738 9.14941 16.1396 10.0547 16.1396 11.6543C16.1396 13.2539 15.6826 14.1592 14.9531 14.1592Z" fill="#1C1C1E"/>
</g>
<defs>
<clipPath id="clip0_10_2075">
<rect width="24" height="24" fill="white"/>
</clipPath>
</defs>
</svg>
