<svg width="24" height="24" viewBox="0 0 24 24" fill="none" xmlns="http://www.w3.org/2000/svg">
<g clip-path="url(#clip0_10_2284)">
<path d="M11.9912 20.7422C16.9746 20.7422 21.0879 16.6289 21.0879 11.6543C21.0879 6.67969 16.9658 2.56641 11.9824 2.56641C7.00781 2.56641 2.90332 6.67969 2.90332 11.6543C2.90332 16.6289 7.0166 20.7422 11.9912 20.7422ZM11.9912 18.9316C7.95703 18.9316 4.73145 15.6885 4.73145 11.6543C4.73145 7.62012 7.95703 4.38574 11.9824 4.38574C16.0166 4.38574 19.2598 7.62012 19.2686 11.6543C19.2773 15.6885 16.0254 18.9316 11.9912 18.9316ZM9.68848 15.3545C11.1562 15.3545 12.1494 14.001 12.1494 11.6631C12.1494 9.31641 11.1562 7.96289 9.68848 7.96289C8.2207 7.96289 7.24512 9.31641 7.24512 11.6631C7.24512 14.001 8.2207 15.3545 9.68848 15.3545ZM15.6562 15.2666C16.043 15.2666 16.2715 15.0293 16.2715 14.6162V8.75391C16.2715 8.30566 15.999 8.01562 15.5596 8.01562C15.2607 8.01562 15.0586 8.09473 14.7246 8.34961L13.5029 9.21973C13.292 9.39551 13.1689 9.5625 13.1689 9.81738C13.1689 10.125 13.4326 10.3799 13.7139 10.3799C13.8809 10.3799 13.9863 10.3447 14.1885 10.1777L15.0059 9.54492H15.0498V14.6162C15.0498 15.0293 15.2783 15.2666 15.6562 15.2666ZM9.69727 14.168C8.96777 14.168 8.51074 13.2627 8.51074 11.6631C8.51074 10.0547 8.96777 9.1582 9.69727 9.1582C10.4268 9.1582 10.8838 10.0547 10.8838 11.6631C10.8838 13.2627 10.4355 14.168 9.69727 14.168Z" fill="#1C1C1E"/>
</g>
<defs>
<clipPath id="clip0_10_2284">
<rect width="24" height="24" fill="white"/>
</clipPath>
</defs>
</svg>
