<svg width="24" height="24" viewBox="0 0 24 24" fill="none" xmlns="http://www.w3.org/2000/svg">
<g clip-path="url(#clip0_10_2287)">
<path d="M11.9912 20.7422C16.9746 20.7422 21.0879 16.6289 21.0879 11.6543C21.0879 6.67969 16.9658 2.56641 11.9824 2.56641C7.00781 2.56641 2.90332 6.67969 2.90332 11.6543C2.90332 16.6289 7.0166 20.7422 11.9912 20.7422ZM9.5918 15.4951C8.0625 15.4951 7.05176 14.0977 7.05176 11.6543C7.05176 9.21094 8.0625 7.81348 9.5918 7.81348C11.1211 7.81348 12.1494 9.21094 12.1494 11.6543C12.1494 14.0977 11.1211 15.4951 9.5918 15.4951ZM15.7969 15.4072C15.4014 15.4072 15.1641 15.1523 15.1641 14.7217V9.46582H15.1113L14.2764 10.1162C14.0654 10.292 13.96 10.3271 13.7754 10.3271C13.4854 10.3271 13.2129 10.0635 13.2129 9.73828C13.2129 9.4834 13.3359 9.29883 13.5557 9.12305L14.8213 8.21777C15.1729 7.9541 15.3838 7.86621 15.6914 7.86621C16.1572 7.86621 16.4473 8.16504 16.4473 8.63086V14.7217C16.4473 15.1523 16.2012 15.4072 15.7969 15.4072ZM9.60059 14.2471C10.3564 14.2471 10.8311 13.3154 10.8311 11.6543C10.8311 9.99316 10.3564 9.06152 9.60059 9.06152C8.85352 9.06152 8.37891 9.99316 8.37891 11.6543C8.37891 13.3154 8.85352 14.2471 9.60059 14.2471Z" fill="#1C1C1E"/>
</g>
<defs>
<clipPath id="clip0_10_2287">
<rect width="24" height="24" fill="white"/>
</clipPath>
</defs>
</svg>
