<svg width="24" height="24" viewBox="0 0 24 24" fill="none" xmlns="http://www.w3.org/2000/svg">
<g clip-path="url(#clip0_10_2290)">
<path d="M6.67383 19.8809H17.3174C19.2246 19.8809 20.209 18.8965 20.209 17.0156V6.31934C20.209 4.43848 19.2246 3.4541 17.3174 3.4541H6.67383C4.77539 3.4541 3.78223 4.42969 3.78223 6.31934V17.0156C3.78223 18.8965 4.77539 19.8809 6.67383 19.8809ZM6.78809 18.1318C5.97949 18.1318 5.53125 17.71 5.53125 16.8574V6.47754C5.53125 5.625 5.97949 5.20312 6.78809 5.20312H17.2031C18.0029 5.20312 18.46 5.625 18.46 6.47754V16.8574C18.46 17.71 18.0029 18.1318 17.2031 18.1318H6.78809ZM9.70605 15.3457C11.1738 15.3457 12.167 13.9922 12.167 11.6543C12.167 9.30762 11.1738 7.96289 9.70605 7.96289C8.22949 7.96289 7.25391 9.30762 7.25391 11.6543C7.25391 13.9922 8.22949 15.3457 9.70605 15.3457ZM15.6738 15.2666C16.0518 15.2666 16.2891 15.0205 16.2891 14.6074V8.74512C16.2891 8.29688 16.0078 8.00684 15.5771 8.00684C15.2695 8.00684 15.0762 8.09473 14.7422 8.34961L13.5205 9.21094C13.3008 9.38672 13.1865 9.5625 13.1865 9.80859C13.1865 10.1162 13.4502 10.3711 13.7227 10.3711C13.8984 10.3711 14.0039 10.3359 14.2061 10.1689L15.0146 9.54492H15.0674V14.6074C15.0674 15.0205 15.2959 15.2666 15.6738 15.2666ZM9.71484 14.1592C8.98535 14.1592 8.52832 13.2539 8.52832 11.6543C8.52832 10.0547 8.98535 9.14941 9.71484 9.14941C10.4443 9.14941 10.9014 10.0547 10.9014 11.6543C10.9014 13.2539 10.4443 14.1592 9.71484 14.1592Z" fill="#1C1C1E"/>
</g>
<defs>
<clipPath id="clip0_10_2290">
<rect width="24" height="24" fill="white"/>
</clipPath>
</defs>
</svg>
