<svg width="24" height="24" viewBox="0 0 24 24" fill="none" xmlns="http://www.w3.org/2000/svg">
<g clip-path="url(#clip0_10_2285)">
<path d="M6.67383 19.8809H17.3174C19.2246 19.8809 20.209 18.8965 20.209 17.0156V6.31934C20.209 4.43848 19.2246 3.4541 17.3174 3.4541H6.67383C4.77539 3.4541 3.78223 4.42969 3.78223 6.31934V17.0156C3.78223 18.8965 4.77539 19.8809 6.67383 19.8809ZM9.62695 15.4951C8.09766 15.4951 7.08691 14.0977 7.08691 11.6543C7.08691 9.21094 8.09766 7.81348 9.62695 7.81348C11.1562 7.81348 12.1846 9.21094 12.1846 11.6543C12.1846 14.0977 11.1562 15.4951 9.62695 15.4951ZM15.832 15.4072C15.4365 15.4072 15.1992 15.1523 15.1992 14.7217V9.46582H15.1465L14.3115 10.1162C14.1006 10.292 13.9951 10.3271 13.8105 10.3271C13.5205 10.3271 13.248 10.0635 13.248 9.73828C13.248 9.4834 13.3711 9.29883 13.5908 9.12305L14.8564 8.21777C15.208 7.9541 15.4189 7.86621 15.7266 7.86621C16.1924 7.86621 16.4824 8.16504 16.4824 8.63086V14.7217C16.4824 15.1523 16.2363 15.4072 15.832 15.4072ZM9.63574 14.2471C10.4004 14.2471 10.8662 13.3154 10.8662 11.6543C10.8662 9.99316 10.3916 9.06152 9.63574 9.06152C8.88867 9.06152 8.41406 9.99316 8.41406 11.6543C8.41406 13.3154 8.88867 14.2471 9.63574 14.2471Z" fill="#1C1C1E"/>
</g>
<defs>
<clipPath id="clip0_10_2285">
<rect width="24" height="24" fill="white"/>
</clipPath>
</defs>
</svg>
