<svg width="24" height="24" viewBox="0 0 24 24" fill="none" xmlns="http://www.w3.org/2000/svg">
<g clip-path="url(#clip0_10_2261)">
<path d="M11.9912 20.7422C16.9746 20.7422 21.0879 16.6289 21.0879 11.6543C21.0879 6.67969 16.9658 2.56641 11.9824 2.56641C7.00781 2.56641 2.90332 6.67969 2.90332 11.6543C2.90332 16.6289 7.0166 20.7422 11.9912 20.7422ZM11.9912 18.9316C7.95703 18.9316 4.73145 15.6885 4.73145 11.6543C4.73145 7.62012 7.95703 4.38574 11.9824 4.38574C16.0166 4.38574 19.2598 7.62012 19.2686 11.6543C19.2773 15.6885 16.0254 18.9316 11.9912 18.9316ZM9.19629 15.3545C10.6729 15.3545 11.6572 14.001 11.6572 11.6631C11.6572 9.31641 10.6729 7.96289 9.19629 7.96289C7.72852 7.96289 6.75293 9.31641 6.75293 11.6631C6.75293 14.001 7.72852 15.3545 9.19629 15.3545ZM13.2656 15.1699H16.667C16.9922 15.1699 17.2207 14.9414 17.2207 14.5811C17.2207 14.2207 16.9922 14.0098 16.667 14.0098H14.4082V13.957L15.9375 12.1729C16.5879 11.417 17.0361 10.793 17.0361 9.94922C17.0273 8.75391 16.166 7.96289 14.8213 7.96289C13.7842 7.96289 12.8789 8.61328 12.6504 9.50098C12.624 9.61523 12.6064 9.7207 12.6064 9.83496C12.6064 10.1777 12.8086 10.4062 13.1426 10.4062C13.4326 10.4062 13.5732 10.2393 13.6875 9.9668C13.8809 9.38672 14.2764 9.08789 14.8389 9.08789C15.4629 9.08789 15.876 9.4834 15.876 10.0547C15.876 10.582 15.4541 11.0303 15.0498 11.5137L12.9229 14.0098C12.7559 14.1943 12.6855 14.3789 12.6855 14.5811C12.6855 14.9414 12.9229 15.1699 13.2656 15.1699ZM9.20508 14.168C8.47559 14.168 8.01855 13.2627 8.01855 11.6631C8.01855 10.0547 8.47559 9.1582 9.20508 9.1582C9.93457 9.1582 10.3916 10.0547 10.3916 11.6631C10.3916 13.2627 9.94336 14.168 9.20508 14.168Z" fill="#1C1C1E"/>
</g>
<defs>
<clipPath id="clip0_10_2261">
<rect width="24" height="24" fill="white"/>
</clipPath>
</defs>
</svg>
