<svg width="24" height="24" viewBox="0 0 24 24" fill="none" xmlns="http://www.w3.org/2000/svg">
<g clip-path="url(#clip0_10_2286)">
<path d="M11.9912 20.7422C16.9746 20.7422 21.0879 16.6289 21.0879 11.6543C21.0879 6.67969 16.9658 2.56641 11.9824 2.56641C7.00781 2.56641 2.90332 6.67969 2.90332 11.6543C2.90332 16.6289 7.0166 20.7422 11.9912 20.7422ZM9.09082 15.4951C7.55273 15.4951 6.55078 14.0977 6.55078 11.6543C6.55078 9.21094 7.55273 7.81348 9.09082 7.81348C10.6201 7.81348 11.6484 9.21094 11.6484 11.6543C11.6484 14.0977 10.6201 15.4951 9.09082 15.4951ZM13.3184 15.3018C12.958 15.3018 12.7119 15.0645 12.7119 14.6865C12.7119 14.4668 12.7822 14.2822 12.9668 14.0801L15.1553 11.4961C15.5859 11.0039 16.0254 10.5381 16.0254 9.99316C16.0254 9.39551 15.6035 8.99121 14.9531 8.99121C14.373 8.99121 13.9688 9.29004 13.7666 9.90527C13.6523 10.1777 13.4941 10.3535 13.1953 10.3535C12.8438 10.3535 12.624 10.1162 12.624 9.75586C12.624 9.6416 12.6504 9.52734 12.6768 9.4043C12.9141 8.48145 13.8633 7.81348 14.9268 7.81348C16.333 7.81348 17.2295 8.63086 17.2295 9.87891C17.2383 10.7578 16.7725 11.3994 16.0869 12.1904L14.5137 14.0273V14.0977H16.8516C17.1855 14.0977 17.4316 14.3086 17.4316 14.6953C17.4316 15.0645 17.1855 15.3018 16.8516 15.3018H13.3184ZM9.09961 14.2471C9.86426 14.2471 10.3213 13.3154 10.3213 11.6543C10.3213 9.99316 9.85547 9.06152 9.09961 9.06152C8.34375 9.06152 7.87793 9.99316 7.87793 11.6543C7.87793 13.3154 8.34375 14.2471 9.09961 14.2471Z" fill="#1C1C1E"/>
</g>
<defs>
<clipPath id="clip0_10_2286">
<rect width="24" height="24" fill="white"/>
</clipPath>
</defs>
</svg>
