<svg width="24" height="24" viewBox="0 0 24 24" fill="none" xmlns="http://www.w3.org/2000/svg">
<g clip-path="url(#clip0_10_2279)">
<path d="M6.67383 19.8809H17.3174C19.2246 19.8809 20.209 18.8965 20.209 17.0156V6.31934C20.209 4.43848 19.2246 3.4541 17.3174 3.4541H6.67383C4.77539 3.4541 3.78223 4.42969 3.78223 6.31934V17.0156C3.78223 18.8965 4.77539 19.8809 6.67383 19.8809ZM9.12598 15.4951C7.59668 15.4951 6.58594 14.0977 6.58594 11.6543C6.58594 9.21094 7.59668 7.81348 9.12598 7.81348C10.6553 7.81348 11.6836 9.21094 11.6836 11.6543C11.6836 14.0977 10.6553 15.4951 9.12598 15.4951ZM13.3535 15.3018C12.9932 15.3018 12.7471 15.0645 12.7471 14.6865C12.7471 14.4668 12.8174 14.2822 13.002 14.0801L15.1992 11.4961C15.6211 11.0039 16.0605 10.5381 16.0605 9.99316C16.0605 9.39551 15.6387 8.99121 14.9883 8.99121C14.4082 8.99121 14.0039 9.29004 13.8018 9.90527C13.6875 10.1777 13.5293 10.3535 13.2305 10.3535C12.8789 10.3535 12.668 10.1162 12.668 9.75586C12.668 9.6416 12.6855 9.52734 12.7119 9.4043C12.9492 8.48145 13.8984 7.81348 14.9619 7.81348C16.3682 7.81348 17.2646 8.63086 17.2646 9.87891C17.2734 10.7578 16.8076 11.3994 16.1221 12.1904L14.5488 14.0273V14.0977H16.8867C17.2207 14.0977 17.4668 14.3086 17.4668 14.6953C17.4668 15.0645 17.2207 15.3018 16.8867 15.3018H13.3535ZM9.13477 14.2471C9.89941 14.2471 10.3564 13.3154 10.3564 11.6543C10.3564 9.99316 9.89062 9.06152 9.13477 9.06152C8.37891 9.06152 7.91309 9.99316 7.91309 11.6543C7.91309 13.3154 8.37891 14.2471 9.13477 14.2471Z" fill="#1C1C1E"/>
</g>
<defs>
<clipPath id="clip0_10_2279">
<rect width="24" height="24" fill="white"/>
</clipPath>
</defs>
</svg>
