<svg width="24" height="24" viewBox="0 0 24 24" fill="none" xmlns="http://www.w3.org/2000/svg">
<g clip-path="url(#clip0_10_2262)">
<path d="M6.67383 19.8809H17.3174C19.2246 19.8809 20.209 18.8965 20.209 17.0156V6.31934C20.209 4.43848 19.2246 3.4541 17.3174 3.4541H6.67383C4.77539 3.4541 3.78223 4.42969 3.78223 6.31934V17.0156C3.78223 18.8965 4.77539 19.8809 6.67383 19.8809ZM6.78809 18.1318C5.97949 18.1318 5.53125 17.71 5.53125 16.8574V6.47754C5.53125 5.625 5.97949 5.20312 6.78809 5.20312H17.2031C18.0029 5.20312 18.46 5.625 18.46 6.47754V16.8574C18.46 17.71 18.0029 18.1318 17.2031 18.1318H6.78809ZM9.21387 15.3457C10.6816 15.3457 11.6748 13.9922 11.6748 11.6543C11.6748 9.30762 10.6816 7.96289 9.21387 7.96289C7.74609 7.96289 6.77051 9.30762 6.77051 11.6543C6.77051 13.9922 7.74609 15.3457 9.21387 15.3457ZM13.2832 15.1611H16.6846C17.0098 15.1611 17.2383 14.9326 17.2383 14.5811C17.2383 14.2207 17.0098 14.0098 16.6846 14.0098H14.417V13.9482L15.9463 12.1641C16.5967 11.4082 17.0537 10.793 17.0449 9.94922C17.0449 8.74512 16.1836 7.96289 14.8301 7.96289C13.8018 7.96289 12.8965 8.60449 12.668 9.49219C12.6416 9.60645 12.624 9.71191 12.624 9.82617C12.624 10.1689 12.8262 10.3975 13.1602 10.3975C13.4414 10.3975 13.5908 10.2305 13.7051 9.9668C13.8984 9.37793 14.2939 9.08789 14.8564 9.08789C15.4805 9.08789 15.8936 9.47461 15.8936 10.0547C15.8936 10.582 15.4717 11.0215 15.0586 11.5137L12.9404 14.001C12.7734 14.1943 12.7031 14.3701 12.7031 14.5723C12.7031 14.9326 12.9316 15.1611 13.2832 15.1611ZM9.22266 14.1592C8.49316 14.1592 8.03613 13.2539 8.03613 11.6543C8.03613 10.0547 8.49316 9.14941 9.22266 9.14941C9.95215 9.14941 10.4092 10.0547 10.4092 11.6543C10.4092 13.2539 9.96094 14.1592 9.22266 14.1592Z" fill="#1C1C1E"/>
</g>
<defs>
<clipPath id="clip0_10_2262">
<rect width="24" height="24" fill="white"/>
</clipPath>
</defs>
</svg>
