<svg width="24" height="24" viewBox="0 0 24 24" fill="none" xmlns="http://www.w3.org/2000/svg">
<g clip-path="url(#clip0_10_2283)">
<path d="M11.9912 20.7334C16.9746 20.7334 21.0879 16.6201 21.0879 11.6455C21.0879 6.6709 16.9658 2.55762 11.9824 2.55762C7.00781 2.55762 2.90332 6.6709 2.90332 11.6455C2.90332 16.6201 7.0166 20.7334 11.9912 20.7334ZM9.00293 15.4863C7.47363 15.4863 6.46289 14.0889 6.46289 11.6455C6.46289 9.20215 7.47363 7.80469 9.00293 7.80469C10.5322 7.80469 11.5605 9.20215 11.5605 11.6455C11.5605 14.0889 10.5322 15.4863 9.00293 15.4863ZM14.9619 15.4863C13.7666 15.4863 12.8086 14.7568 12.5713 13.9482C12.5361 13.8252 12.5186 13.7197 12.5186 13.5879C12.5186 13.2275 12.7822 12.9902 13.0986 12.9902C13.3711 12.9902 13.5381 13.1309 13.6611 13.4121C13.8984 13.9922 14.3467 14.2998 14.9795 14.2998C15.7354 14.2998 16.2627 13.8252 16.2627 13.2188C16.2627 12.5596 15.7793 12.1377 15.0234 12.1377H14.584C14.2236 12.1377 14.0127 11.8828 14.0127 11.5488C14.0127 11.1797 14.2412 10.9424 14.584 10.9424H14.9795C15.6299 10.9424 16.0605 10.5117 16.0605 9.93164C16.0605 9.36035 15.6211 8.97363 14.9883 8.97363C14.3643 8.97363 13.9775 9.28125 13.7754 9.86133C13.6699 10.1426 13.5029 10.2832 13.2217 10.2832C12.8789 10.2832 12.6592 10.0459 12.6592 9.68555C12.6592 9.55371 12.668 9.44824 12.7031 9.31641C12.9316 8.50781 13.8105 7.80469 15.0146 7.80469C16.3857 7.80469 17.3262 8.60449 17.3262 9.75586C17.3262 10.5732 16.7637 11.3115 16.0342 11.4258V11.4873C16.9131 11.5752 17.5547 12.3311 17.5547 13.2803C17.5547 14.5811 16.5 15.4863 14.9619 15.4863ZM9.01172 14.2383C9.77637 14.2383 10.2422 13.3066 10.2422 11.6455C10.2422 9.98438 9.76758 9.05273 9.01172 9.05273C8.26465 9.05273 7.79004 9.98438 7.79004 11.6455C7.79004 13.3066 8.26465 14.2383 9.01172 14.2383Z" fill="#1C1C1E"/>
</g>
<defs>
<clipPath id="clip0_10_2283">
<rect width="24" height="24" fill="white"/>
</clipPath>
</defs>
</svg>
