<svg width="24" height="24" viewBox="0 0 24 24" fill="none" xmlns="http://www.w3.org/2000/svg">
<g clip-path="url(#clip0_10_2282)">
<path d="M11.9912 20.7422C16.9746 20.7422 21.0879 16.6289 21.0879 11.6543C21.0879 6.67969 16.9658 2.56641 11.9824 2.56641C7.00781 2.56641 2.90332 6.67969 2.90332 11.6543C2.90332 16.6289 7.0166 20.7422 11.9912 20.7422ZM11.9912 18.9316C7.95703 18.9316 4.73145 15.6885 4.73145 11.6543C4.73145 7.62012 7.95703 4.38574 11.9824 4.38574C16.0166 4.38574 19.2598 7.62012 19.2686 11.6543C19.2773 15.6885 16.0254 18.9316 11.9912 18.9316ZM9.11719 15.3545C10.5938 15.3545 11.5781 14.001 11.5781 11.6631C11.5781 9.31641 10.5938 7.96289 9.11719 7.96289C7.64941 7.96289 6.67383 9.31641 6.67383 11.6631C6.67383 14.001 7.64941 15.3545 9.11719 15.3545ZM14.8564 15.3545C16.333 15.3545 17.3438 14.4844 17.3438 13.2363C17.3438 12.3311 16.7285 11.5928 15.8848 11.5137V11.4521C16.5791 11.3379 17.124 10.6348 17.124 9.84375C17.124 8.73633 16.2188 7.96289 14.9004 7.96289C13.749 7.96289 12.9053 8.63965 12.6768 9.42188C12.6416 9.55371 12.6328 9.65039 12.6328 9.77344C12.6328 10.125 12.8525 10.3447 13.1689 10.3447C13.4502 10.3447 13.6084 10.2041 13.7051 9.93164C13.8984 9.37793 14.2764 9.0791 14.874 9.0791C15.4893 9.0791 15.9199 9.45703 15.9199 10.0107C15.9199 10.5732 15.498 10.9951 14.874 10.9951H14.4873C14.1533 10.9951 13.9424 11.2148 13.9424 11.5576C13.9424 11.8828 14.1445 12.1289 14.4873 12.1289H14.9092C15.6475 12.1289 16.1045 12.542 16.1045 13.166C16.1045 13.7637 15.6035 14.2207 14.8652 14.2207C14.2588 14.2207 13.8193 13.9219 13.5996 13.3682C13.4766 13.0957 13.3184 12.9639 13.0547 12.9639C12.7471 12.9639 12.501 13.1836 12.501 13.5264C12.501 13.6582 12.5186 13.7549 12.5537 13.8691C12.7822 14.6426 13.7051 15.3545 14.8564 15.3545ZM9.12598 14.168C8.39648 14.168 7.93945 13.2627 7.93945 11.6631C7.93945 10.0547 8.39648 9.1582 9.12598 9.1582C9.85547 9.1582 10.3125 10.0547 10.3125 11.6631C10.3125 13.2627 9.86426 14.168 9.12598 14.168Z" fill="#1C1C1E"/>
</g>
<defs>
<clipPath id="clip0_10_2282">
<rect width="24" height="24" fill="white"/>
</clipPath>
</defs>
</svg>
