<svg width="24" height="24" viewBox="0 0 24 24" fill="none" xmlns="http://www.w3.org/2000/svg">
<g clip-path="url(#clip0_10_2288)">
<path d="M6.67383 19.8809H17.3174C19.2246 19.8809 20.209 18.8965 20.209 17.0156V6.31934C20.209 4.43848 19.2246 3.4541 17.3174 3.4541H6.67383C4.77539 3.4541 3.78223 4.42969 3.78223 6.31934V17.0156C3.78223 18.8965 4.77539 19.8809 6.67383 19.8809ZM9.03809 15.4951C7.50879 15.4951 6.49805 14.0977 6.49805 11.6543C6.49805 9.21094 7.50879 7.81348 9.03809 7.81348C10.5762 7.81348 11.5957 9.21094 11.5957 11.6543C11.5957 14.0977 10.5762 15.4951 9.03809 15.4951ZM14.9971 15.4951C13.8018 15.4951 12.8438 14.7568 12.6152 13.957C12.5713 13.834 12.5537 13.7285 12.5537 13.5967C12.5537 13.2363 12.8174 12.999 13.1338 12.999C13.4062 12.999 13.5732 13.1396 13.7051 13.4209C13.9336 14.001 14.3818 14.3086 15.0146 14.3086C15.7705 14.3086 16.2979 13.834 16.2979 13.2275C16.2979 12.5684 15.8145 12.1465 15.0586 12.1465H14.6191C14.2588 12.1465 14.0479 11.8916 14.0479 11.5576C14.0479 11.1885 14.2764 10.9512 14.6191 10.9512H15.0146C15.665 10.9512 16.0957 10.5205 16.0957 9.94043C16.0957 9.36914 15.6562 8.98242 15.0234 8.98242C14.3994 8.98242 14.0127 9.29004 13.8105 9.87012C13.7051 10.1514 13.5381 10.292 13.2568 10.292C12.9229 10.292 12.6943 10.0547 12.6943 9.69434C12.6943 9.5625 12.7031 9.45703 12.7383 9.3252C12.9668 8.5166 13.8457 7.81348 15.0498 7.81348C16.4209 7.81348 17.3613 8.60449 17.3613 9.76465C17.3613 10.582 16.7988 11.3203 16.0693 11.4346V11.4961C16.9482 11.584 17.5898 12.3398 17.5898 13.2891C17.5898 14.5898 16.5352 15.4951 14.9971 15.4951ZM9.04688 14.2471C9.81152 14.2471 10.2773 13.3154 10.2773 11.6543C10.2773 9.99316 9.80273 9.06152 9.04688 9.06152C8.2998 9.06152 7.8252 9.99316 7.8252 11.6543C7.8252 13.3154 8.2998 14.2471 9.04688 14.2471Z" fill="#1C1C1E"/>
</g>
<defs>
<clipPath id="clip0_10_2288">
<rect width="24" height="24" fill="white"/>
</clipPath>
</defs>
</svg>
