<svg width="24" height="24" viewBox="0 0 24 24" fill="none" xmlns="http://www.w3.org/2000/svg">
<g clip-path="url(#clip0_10_2280)">
<path d="M6.67383 19.8809H17.3174C19.2246 19.8809 20.209 18.8965 20.209 17.0156V6.31934C20.209 4.43848 19.2246 3.4541 17.3174 3.4541H6.67383C4.77539 3.4541 3.78223 4.42969 3.78223 6.31934V17.0156C3.78223 18.8965 4.77539 19.8809 6.67383 19.8809ZM6.78809 18.1318C5.97949 18.1318 5.53125 17.71 5.53125 16.8574V6.47754C5.53125 5.625 5.97949 5.20312 6.78809 5.20312H17.2031C18.0029 5.20312 18.46 5.625 18.46 6.47754V16.8574C18.46 17.71 18.0029 18.1318 17.2031 18.1318H6.78809ZM9.13477 15.3457C10.6025 15.3457 11.5957 13.9922 11.5957 11.6543C11.5957 9.30762 10.6025 7.96289 9.13477 7.96289C7.66699 7.96289 6.69141 9.30762 6.69141 11.6543C6.69141 13.9922 7.66699 15.3457 9.13477 15.3457ZM14.874 15.3457C16.3418 15.3457 17.3525 14.4756 17.3525 13.2275C17.3525 12.3223 16.7461 11.584 15.8936 11.5049V11.4521C16.5967 11.3291 17.1416 10.626 17.1416 9.83496C17.1416 8.72754 16.2363 7.96289 14.918 7.96289C13.7578 7.96289 12.9141 8.63086 12.6943 9.41309C12.6592 9.54492 12.6504 9.6416 12.6504 9.77344C12.6504 10.1162 12.8701 10.3447 13.1865 10.3447C13.4678 10.3447 13.6172 10.2041 13.7227 9.93164C13.916 9.36914 14.2939 9.07031 14.8916 9.07031C15.5068 9.07031 15.9287 9.44824 15.9287 10.002C15.9287 10.5645 15.5156 10.9863 14.8916 10.9863H14.4961C14.1709 10.9863 13.9512 11.2148 13.9512 11.5576C13.9512 11.874 14.1533 12.1201 14.4961 12.1201H14.918C15.6562 12.1201 16.1221 12.5332 16.1221 13.166C16.1221 13.7549 15.6211 14.2207 14.8828 14.2207C14.2764 14.2207 13.8369 13.9219 13.6084 13.3594C13.4941 13.0957 13.3271 12.9551 13.0635 12.9551C12.7646 12.9551 12.5186 13.1748 12.5186 13.5264C12.5186 13.6494 12.5361 13.7461 12.5713 13.8691C12.791 14.6426 13.7139 15.3457 14.874 15.3457ZM9.14355 14.1592C8.41406 14.1592 7.95703 13.2539 7.95703 11.6543C7.95703 10.0547 8.41406 9.14941 9.14355 9.14941C9.87305 9.14941 10.3301 10.0547 10.3301 11.6543C10.3301 13.2539 9.88184 14.1592 9.14355 14.1592Z" fill="#1C1C1E"/>
</g>
<defs>
<clipPath id="clip0_10_2280">
<rect width="24" height="24" fill="white"/>
</clipPath>
</defs>
</svg>
