<svg width="24" height="24" viewBox="0 0 24 24" fill="none" xmlns="http://www.w3.org/2000/svg">
<g clip-path="url(#clip0_10_2281)">
<path d="M11.9912 20.7422C16.9746 20.7422 21.0879 16.6289 21.0879 11.6543C21.0879 6.67969 16.9658 2.56641 11.9824 2.56641C7.00781 2.56641 2.90332 6.67969 2.90332 11.6543C2.90332 16.6289 7.0166 20.7422 11.9912 20.7422ZM8.92383 15.4951C7.39453 15.4951 6.375 14.0977 6.375 11.6543C6.375 9.21094 7.39453 7.81348 8.92383 7.81348C10.4531 7.81348 11.4814 9.21094 11.4814 11.6543C11.4814 14.0977 10.4531 15.4951 8.92383 15.4951ZM16.2451 15.4863C15.8584 15.4863 15.6475 15.2051 15.6475 14.8271V13.8779H13.2217C12.7031 13.8779 12.3779 13.5703 12.3779 13.043C12.3779 12.7529 12.4395 12.5156 12.5889 12.2168C13.1162 11.2148 13.9336 9.75586 14.6191 8.58691C14.9268 8.04199 15.2783 7.81348 15.8584 7.81348C16.4736 7.81348 16.8604 8.2002 16.8604 8.78906V12.7441H17.2734C17.6162 12.7441 17.8271 12.9639 17.8271 13.3242C17.8271 13.667 17.6162 13.8779 17.2734 13.8779H16.8604V14.8271C16.8604 15.2139 16.6406 15.4863 16.2451 15.4863ZM8.93262 14.2471C9.68848 14.2471 10.1543 13.3154 10.1543 11.6543C10.1543 9.99316 9.68848 9.06152 8.93262 9.06152C8.17676 9.06152 7.71094 9.99316 7.71094 11.6543C7.71094 13.3154 8.17676 14.2471 8.93262 14.2471ZM15.6475 12.7529V9.14062H15.6035C14.9707 10.2656 14.1445 11.7773 13.6787 12.709V12.7529H15.6475Z" fill="#1C1C1E"/>
</g>
<defs>
<clipPath id="clip0_10_2281">
<rect width="24" height="24" fill="white"/>
</clipPath>
</defs>
</svg>
