<svg width="24" height="24" viewBox="0 0 24 24" fill="none" xmlns="http://www.w3.org/2000/svg">
<g clip-path="url(#clip0_10_2291)">
<path d="M11.9912 20.7422C16.9746 20.7422 21.0879 16.6289 21.0879 11.6543C21.0879 6.67969 16.9658 2.56641 11.9824 2.56641C7.00781 2.56641 2.90332 6.67969 2.90332 11.6543C2.90332 16.6289 7.0166 20.7422 11.9912 20.7422ZM11.9912 18.9316C7.95703 18.9316 4.73145 15.6885 4.73145 11.6543C4.73145 7.62012 7.95703 4.38574 11.9824 4.38574C16.0166 4.38574 19.2598 7.62012 19.2686 11.6543C19.2773 15.6885 16.0254 18.9316 11.9912 18.9316ZM9.03809 15.3545C10.5146 15.3545 11.499 14.001 11.499 11.6631C11.499 9.31641 10.5146 7.96289 9.03809 7.96289C7.57031 7.96289 6.59473 9.31641 6.59473 11.6631C6.59473 14.001 7.57031 15.3545 9.03809 15.3545ZM16.0869 15.3457C16.4648 15.3457 16.6758 15.082 16.6758 14.7217V13.79H17.0801C17.4053 13.79 17.6074 13.5967 17.6074 13.2627C17.6074 12.9199 17.4053 12.7178 17.0801 12.7178H16.6758V8.89453C16.6758 8.33203 16.3066 7.96289 15.7266 7.96289C15.1641 7.96289 14.8213 8.18262 14.5312 8.70996C13.8721 9.83496 13.0811 11.25 12.5625 12.208C12.4307 12.498 12.3691 12.7178 12.3691 12.9902C12.3691 13.5 12.6768 13.7988 13.1777 13.7988H15.5156V14.7217C15.5156 15.0732 15.7266 15.3457 16.0869 15.3457ZM9.04688 14.168C8.31738 14.168 7.86035 13.2627 7.86035 11.6631C7.86035 10.0547 8.31738 9.1582 9.04688 9.1582C9.77637 9.1582 10.2334 10.0547 10.2334 11.6631C10.2334 13.2627 9.78516 14.168 9.04688 14.168ZM15.5156 12.7178H13.6084V12.6826C14.0566 11.7773 14.8652 10.3184 15.4717 9.2373H15.5156V12.7178Z" fill="#1C1C1E"/>
</g>
<defs>
<clipPath id="clip0_10_2291">
<rect width="24" height="24" fill="white"/>
</clipPath>
</defs>
</svg>
