<svg width="24" height="24" viewBox="0 0 24 24" fill="none" xmlns="http://www.w3.org/2000/svg">
<g clip-path="url(#clip0_10_2289)">
<path d="M6.67383 19.8809H17.3174C19.2246 19.8809 20.209 18.8965 20.209 17.0156V6.31934C20.209 4.43848 19.2246 3.4541 17.3174 3.4541H6.67383C4.77539 3.4541 3.78223 4.42969 3.78223 6.31934V17.0156C3.78223 18.8965 4.77539 19.8809 6.67383 19.8809ZM6.78809 18.1318C5.97949 18.1318 5.53125 17.71 5.53125 16.8574V6.47754C5.53125 5.625 5.97949 5.20312 6.78809 5.20312H17.2031C18.0029 5.20312 18.46 5.625 18.46 6.47754V16.8574C18.46 17.71 18.0029 18.1318 17.2031 18.1318H6.78809ZM9.05566 15.3457C10.5234 15.3457 11.5166 13.9922 11.5166 11.6543C11.5166 9.30762 10.5234 7.96289 9.05566 7.96289C7.58789 7.96289 6.6123 9.30762 6.6123 11.6543C6.6123 13.9922 7.58789 15.3457 9.05566 15.3457ZM16.1045 15.3369C16.4824 15.3369 16.6846 15.0732 16.6846 14.7129V13.79H17.0889C17.4229 13.79 17.625 13.5879 17.625 13.2539C17.625 12.9111 17.4229 12.709 17.0889 12.709H16.6846V8.89453C16.6846 8.32324 16.3242 7.96289 15.7354 7.96289C15.1816 7.96289 14.8389 8.17383 14.5488 8.70117C13.8896 9.82617 13.0898 11.2412 12.5801 12.208C12.4395 12.4893 12.3779 12.7178 12.3779 12.9902C12.3779 13.4912 12.6943 13.79 13.1865 13.79H15.5332V14.7129C15.5332 15.0732 15.7354 15.3369 16.1045 15.3369ZM9.06445 14.1592C8.33496 14.1592 7.87793 13.2539 7.87793 11.6543C7.87793 10.0547 8.33496 9.14941 9.06445 9.14941C9.79395 9.14941 10.251 10.0547 10.251 11.6543C10.251 13.2539 9.80273 14.1592 9.06445 14.1592ZM15.5332 12.7178H13.626V12.6738C14.0742 11.7773 14.874 10.3096 15.4893 9.22852H15.5332V12.7178Z" fill="#1C1C1E"/>
</g>
<defs>
<clipPath id="clip0_10_2289">
<rect width="24" height="24" fill="white"/>
</clipPath>
</defs>
</svg>
