<svg width="24" height="24" viewBox="0 0 24 24" fill="none" xmlns="http://www.w3.org/2000/svg">
<g clip-path="url(#clip0_10_2266)">
<path d="M6.67383 19.8809H17.3174C19.2246 19.8809 20.209 18.8965 20.209 17.0156V6.31934C20.209 4.43848 19.2246 3.4541 17.3174 3.4541H6.67383C4.77539 3.4541 3.78223 4.42969 3.78223 6.31934V17.0156C3.78223 18.8965 4.77539 19.8809 6.67383 19.8809ZM8.95898 15.4951C7.42969 15.4951 6.41016 14.0977 6.41016 11.6543C6.41016 9.21094 7.42969 7.81348 8.95898 7.81348C10.4883 7.81348 11.5166 9.21094 11.5166 11.6543C11.5166 14.0977 10.4883 15.4951 8.95898 15.4951ZM16.2803 15.4863C15.8936 15.4863 15.6826 15.2051 15.6826 14.8271V13.8779H13.2568C12.7383 13.8779 12.4131 13.5703 12.4131 13.043C12.4131 12.7529 12.4746 12.5156 12.624 12.2168C13.1514 11.2148 13.9688 9.75586 14.6543 8.58691C14.9619 8.04199 15.3135 7.81348 15.8936 7.81348C16.5088 7.81348 16.8955 8.2002 16.8955 8.78906V12.7441H17.3086C17.6514 12.7441 17.8623 12.9639 17.8623 13.3242C17.8623 13.667 17.6514 13.8779 17.3086 13.8779H16.8955V14.8271C16.8955 15.2139 16.6758 15.4863 16.2803 15.4863ZM8.96777 14.2471C9.72363 14.2471 10.1895 13.3154 10.1895 11.6543C10.1895 9.99316 9.72363 9.06152 8.96777 9.06152C8.21191 9.06152 7.74609 9.99316 7.74609 11.6543C7.74609 13.3154 8.21191 14.2471 8.96777 14.2471ZM15.6826 12.7529V9.14062H15.6387C15.0059 10.2656 14.1797 11.7773 13.7139 12.709V12.7529H15.6826Z" fill="#1C1C1E"/>
</g>
<defs>
<clipPath id="clip0_10_2266">
<rect width="24" height="24" fill="white"/>
</clipPath>
</defs>
</svg>
