<svg width="24" height="24" viewBox="0 0 24 24" fill="none" xmlns="http://www.w3.org/2000/svg">
<g clip-path="url(#clip0_10_2274)">
<path d="M11.9912 20.7422C16.9746 20.7422 21.0879 16.6289 21.0879 11.6543C21.0879 6.67969 16.9658 2.56641 11.9824 2.56641C7.00781 2.56641 2.90332 6.67969 2.90332 11.6543C2.90332 16.6289 7.0166 20.7422 11.9912 20.7422ZM11.9912 18.9316C7.95703 18.9316 4.73145 15.6885 4.73145 11.6543C4.73145 7.62012 7.95703 4.38574 11.9824 4.38574C16.0166 4.38574 19.2598 7.62012 19.2686 11.6543C19.2773 15.6885 16.0254 18.9316 11.9912 18.9316ZM9.09082 15.3545C10.5674 15.3545 11.5518 14.001 11.5518 11.6631C11.5518 9.31641 10.5674 7.96289 9.09082 7.96289C7.62305 7.96289 6.64746 9.31641 6.64746 11.6631C6.64746 14.001 7.62305 15.3545 9.09082 15.3545ZM14.874 15.3545C16.4121 15.3545 17.4053 14.4141 17.4053 12.8848C17.4053 11.5488 16.5088 10.626 15.2432 10.626C14.6807 10.626 14.0918 10.8984 13.8281 11.2939H13.793L13.9424 9.21973H16.6406C16.9307 9.21973 17.1416 9 17.1416 8.6748C17.1416 8.34961 16.9395 8.13867 16.6406 8.13867H13.7402C13.2568 8.13867 12.958 8.4375 12.9316 8.92969L12.7295 11.5488C12.7031 12.0234 12.9668 12.3311 13.3887 12.3311C13.6875 12.3311 13.8545 12.252 14.1094 12.0498C14.4434 11.7598 14.6982 11.6455 15.0586 11.6455C15.7441 11.6455 16.2188 12.1992 16.2188 12.9199C16.2188 13.7461 15.7002 14.2559 14.9355 14.2559C14.3906 14.2559 13.9512 13.9658 13.7051 13.5088C13.5732 13.2803 13.4062 13.1396 13.1689 13.1396C12.8613 13.1396 12.6328 13.377 12.6328 13.6934C12.6328 13.8428 12.6592 13.9746 12.7119 14.1064C12.9668 14.7744 13.793 15.3545 14.874 15.3545ZM9.09961 14.168C8.37012 14.168 7.91309 13.2627 7.91309 11.6631C7.91309 10.0547 8.37012 9.1582 9.09961 9.1582C9.8291 9.1582 10.2861 10.0547 10.2861 11.6631C10.2861 13.2627 9.83789 14.168 9.09961 14.168Z" fill="#1C1C1E"/>
</g>
<defs>
<clipPath id="clip0_10_2274">
<rect width="24" height="24" fill="white"/>
</clipPath>
</defs>
</svg>
