<svg width="24" height="24" viewBox="0 0 24 24" fill="none" xmlns="http://www.w3.org/2000/svg">
<g clip-path="url(#clip0_10_2277)">
<path d="M11.9912 20.7422C16.9746 20.7422 21.0879 16.6289 21.0879 11.6543C21.0879 6.67969 16.9658 2.56641 11.9824 2.56641C7.00781 2.56641 2.90332 6.67969 2.90332 11.6543C2.90332 16.6289 7.0166 20.7422 11.9912 20.7422ZM8.97656 15.4951C7.44727 15.4951 6.42773 14.0977 6.42773 11.6543C6.42773 9.21094 7.44727 7.81348 8.97656 7.81348C10.5059 7.81348 11.5342 9.21094 11.5342 11.6543C11.5342 14.0977 10.5059 15.4951 8.97656 15.4951ZM14.9795 15.4951C13.8633 15.4951 13.002 14.8975 12.7383 14.2031C12.6855 14.0625 12.6504 13.9219 12.6504 13.7637C12.6504 13.4297 12.8965 13.1836 13.2217 13.1836C13.4678 13.1836 13.6436 13.333 13.7754 13.5703C14.0303 14.0449 14.4873 14.3525 15.0586 14.3525C15.832 14.3525 16.377 13.8252 16.377 12.9639C16.377 12.2168 15.8848 11.6455 15.1729 11.6455C14.8037 11.6455 14.54 11.7598 14.1973 12.0586C13.9336 12.2695 13.749 12.3574 13.4414 12.3574C13.002 12.3574 12.7295 12.0322 12.7646 11.5312L12.958 8.82422C12.9844 8.30566 13.3096 7.99805 13.8105 7.99805H16.8164C17.1328 7.99805 17.3438 8.21777 17.3438 8.55176C17.3438 8.89453 17.124 9.12305 16.8164 9.12305H14.0215L13.8633 11.2764H13.9072C14.1709 10.8633 14.7861 10.582 15.375 10.582C16.6934 10.582 17.625 11.54 17.625 12.9287C17.625 14.5107 16.5791 15.4951 14.9795 15.4951ZM8.98535 14.2471C9.74121 14.2471 10.207 13.3154 10.207 11.6543C10.207 9.99316 9.74121 9.06152 8.98535 9.06152C8.23828 9.06152 7.76367 9.99316 7.76367 11.6543C7.76367 13.3154 8.23828 14.2471 8.98535 14.2471Z" fill="#1C1C1E"/>
</g>
<defs>
<clipPath id="clip0_10_2277">
<rect width="24" height="24" fill="white"/>
</clipPath>
</defs>
</svg>
