<svg width="24" height="24" viewBox="0 0 24 24" fill="none" xmlns="http://www.w3.org/2000/svg">
<g clip-path="url(#clip0_10_2268)">
<path d="M6.67383 19.8809H17.3174C19.2246 19.8809 20.209 18.8965 20.209 17.0156V6.31934C20.209 4.43848 19.2246 3.4541 17.3174 3.4541H6.67383C4.77539 3.4541 3.78223 4.42969 3.78223 6.31934V17.0156C3.78223 18.8965 4.77539 19.8809 6.67383 19.8809ZM6.78809 18.1318C5.97949 18.1318 5.53125 17.71 5.53125 16.8574V6.47754C5.53125 5.625 5.97949 5.20312 6.78809 5.20312H17.2031C18.0029 5.20312 18.46 5.625 18.46 6.47754V16.8574C18.46 17.71 18.0029 18.1318 17.2031 18.1318H6.78809ZM9.1084 15.3457C10.5762 15.3457 11.5693 13.9922 11.5693 11.6543C11.5693 9.30762 10.5762 7.96289 9.1084 7.96289C7.64062 7.96289 6.66504 9.30762 6.66504 11.6543C6.66504 13.9922 7.64062 15.3457 9.1084 15.3457ZM14.8916 15.3457C16.4209 15.3457 17.4229 14.4053 17.4229 12.876C17.4229 11.5488 16.5264 10.6172 15.2607 10.6172C14.6895 10.6172 14.1006 10.8896 13.8457 11.2852H13.8105L13.96 9.21094H16.6494C16.9482 9.21094 17.1504 9 17.1504 8.66602C17.1504 8.34961 16.957 8.13867 16.6494 8.13867H13.7578C13.2744 8.13867 12.9756 8.42871 12.9404 8.92969L12.7471 11.54C12.7207 12.0234 12.9844 12.3223 13.4062 12.3223C13.6963 12.3223 13.8721 12.2432 14.127 12.041C14.4609 11.7598 14.7158 11.6367 15.0674 11.6367C15.7617 11.6367 16.2363 12.1904 16.2363 12.9111C16.2363 13.7461 15.7178 14.2559 14.9531 14.2559C14.4082 14.2559 13.96 13.957 13.7227 13.5C13.5908 13.2715 13.4238 13.1309 13.1865 13.1309C12.8701 13.1309 12.6504 13.3682 12.6504 13.6934C12.6504 13.834 12.6768 13.9658 12.7295 14.0977C12.9844 14.7744 13.8105 15.3457 14.8916 15.3457ZM9.11719 14.1592C8.3877 14.1592 7.93066 13.2539 7.93066 11.6543C7.93066 10.0547 8.3877 9.14941 9.11719 9.14941C9.84668 9.14941 10.3037 10.0547 10.3037 11.6543C10.3037 13.2539 9.85547 14.1592 9.11719 14.1592Z" fill="#1C1C1E"/>
</g>
<defs>
<clipPath id="clip0_10_2268">
<rect width="24" height="24" fill="white"/>
</clipPath>
</defs>
</svg>
