<svg width="24" height="24" viewBox="0 0 24 24" fill="none" xmlns="http://www.w3.org/2000/svg">
<g clip-path="url(#clip0_10_2225)">
<path d="M6.67383 19.8809H17.3174C19.2246 19.8809 20.209 18.8965 20.209 17.0156V6.31934C20.209 4.43848 19.2246 3.4541 17.3174 3.4541H6.67383C4.77539 3.4541 3.78223 4.42969 3.78223 6.31934V17.0156C3.78223 18.8965 4.77539 19.8809 6.67383 19.8809ZM9.01172 15.4951C7.48242 15.4951 6.46289 14.0977 6.46289 11.6543C6.46289 9.21094 7.48242 7.81348 9.01172 7.81348C10.541 7.81348 11.5693 9.21094 11.5693 11.6543C11.5693 14.0977 10.541 15.4951 9.01172 15.4951ZM15.0146 15.4951C13.8984 15.4951 13.0371 14.8975 12.7734 14.2031C12.7207 14.0625 12.6855 13.9219 12.6855 13.7637C12.6855 13.4297 12.9316 13.1836 13.2568 13.1836C13.5029 13.1836 13.6787 13.333 13.8105 13.5703C14.0654 14.0449 14.5225 14.3525 15.0938 14.3525C15.8672 14.3525 16.4121 13.8252 16.4121 12.9639C16.4121 12.2168 15.9199 11.6455 15.208 11.6455C14.8389 11.6455 14.5752 11.7598 14.2324 12.0586C13.9688 12.2695 13.7842 12.3574 13.4766 12.3574C13.0371 12.3574 12.7646 12.0322 12.7998 11.5312L12.9932 8.82422C13.0195 8.30566 13.3447 7.99805 13.8457 7.99805H16.8516C17.168 7.99805 17.3789 8.21777 17.3789 8.55176C17.3789 8.89453 17.1592 9.12305 16.8516 9.12305H14.0654L13.8984 11.2764H13.9424C14.2061 10.8633 14.8213 10.582 15.4102 10.582C16.7285 10.582 17.6602 11.54 17.6602 12.9287C17.6602 14.5107 16.6143 15.4951 15.0146 15.4951ZM9.02051 14.2471C9.77637 14.2471 10.2422 13.3154 10.2422 11.6543C10.2422 9.99316 9.77637 9.06152 9.02051 9.06152C8.27344 9.06152 7.79883 9.99316 7.79883 11.6543C7.79883 13.3154 8.27344 14.2471 9.02051 14.2471Z" fill="#1C1C1E"/>
</g>
<defs>
<clipPath id="clip0_10_2225">
<rect width="24" height="24" fill="white"/>
</clipPath>
</defs>
</svg>
