<svg width="24" height="24" viewBox="0 0 24 24" fill="none" xmlns="http://www.w3.org/2000/svg">
<g clip-path="url(#clip0_10_2271)">
<path d="M11.9912 20.7422C16.9746 20.7422 21.0879 16.6289 21.0879 11.6543C21.0879 6.67969 16.9658 2.56641 11.9824 2.56641C7.00781 2.56641 2.90332 6.67969 2.90332 11.6543C2.90332 16.6289 7.0166 20.7422 11.9912 20.7422ZM8.97656 15.4951C7.44727 15.4951 6.42773 14.0889 6.42773 11.6543C6.42773 9.21094 7.44727 7.81348 8.97656 7.81348C10.5059 7.81348 11.5342 9.21094 11.5342 11.6543C11.5342 14.0889 10.5059 15.4951 8.97656 15.4951ZM15.1729 15.5039C14.2412 15.5039 13.4502 15.1348 13.002 14.2471C12.7031 13.6758 12.5361 12.8672 12.5361 11.8213C12.5361 9.14941 13.6348 7.81348 15.3398 7.81348C16.3418 7.81348 17.0537 8.32324 17.2822 8.90332C17.3525 9.04395 17.3789 9.1582 17.3789 9.30762C17.3789 9.63281 17.1416 9.84375 16.8691 9.84375C16.6055 9.84375 16.4561 9.72949 16.3066 9.51855C16.0869 9.20215 15.7617 8.97363 15.2871 8.97363C14.373 8.97363 13.7402 9.93164 13.7402 11.4521C13.7402 11.5225 13.7402 11.5664 13.7402 11.6104H13.8018C14.0215 11.0479 14.5928 10.5381 15.498 10.5381C16.6318 10.5381 17.6514 11.3818 17.6514 12.8848C17.6514 14.5283 16.623 15.5039 15.1729 15.5039ZM8.97656 14.2471C9.74121 14.2471 10.1982 13.3154 10.1982 11.6543C10.1982 9.99316 9.73242 9.06152 8.97656 9.06152C8.23828 9.06152 7.75488 9.99316 7.75488 11.6543C7.75488 13.3154 8.23828 14.2471 8.97656 14.2471ZM15.1113 14.3877C15.8848 14.3877 16.377 13.834 16.377 12.9727C16.377 12.1465 15.8584 11.584 15.1113 11.584C14.3555 11.584 13.8281 12.1553 13.8281 12.9639C13.8281 13.8076 14.3555 14.3877 15.1113 14.3877Z" fill="#1C1C1E"/>
</g>
<defs>
<clipPath id="clip0_10_2271">
<rect width="24" height="24" fill="white"/>
</clipPath>
</defs>
</svg>
