<svg width="24" height="24" viewBox="0 0 24 24" fill="none" xmlns="http://www.w3.org/2000/svg">
<g clip-path="url(#clip0_10_2324)">
<path d="M11.9912 20.7422C16.9746 20.7422 21.0879 16.6289 21.0879 11.6543C21.0879 6.67969 16.9658 2.56641 11.9824 2.56641C7.00781 2.56641 2.90332 6.67969 2.90332 11.6543C2.90332 16.6289 7.0166 20.7422 11.9912 20.7422ZM11.9912 18.9316C7.95703 18.9316 4.73145 15.6885 4.73145 11.6543C4.73145 7.62012 7.95703 4.38574 11.9824 4.38574C16.0166 4.38574 19.2598 7.62012 19.2686 11.6543C19.2773 15.6885 16.0254 18.9316 11.9912 18.9316ZM9.09082 15.3545C10.5586 15.3545 11.5518 14.001 11.5518 11.6631C11.5518 9.31641 10.5586 7.96289 9.09082 7.96289C7.62305 7.96289 6.64746 9.31641 6.64746 11.6631C6.64746 14.001 7.62305 15.3545 9.09082 15.3545ZM15.0498 15.3545C16.4473 15.3545 17.4316 14.4229 17.4316 12.8496C17.4316 11.3994 16.4561 10.5908 15.3662 10.5908C14.4873 10.5908 13.9424 11.083 13.7314 11.6191H13.6699C13.6699 11.5752 13.6699 11.54 13.6699 11.4785C13.6699 10.002 14.2764 9.07031 15.1641 9.07031C15.6299 9.07031 15.9375 9.29883 16.1484 9.59766C16.2979 9.80859 16.4385 9.90527 16.6934 9.90527C16.9482 9.90527 17.1768 9.71191 17.1768 9.39551C17.1768 9.26367 17.1504 9.14941 17.0889 9.02637C16.8604 8.45508 16.1836 7.96289 15.208 7.96289C13.5732 7.96289 12.5186 9.25488 12.5186 11.8213C12.5186 12.832 12.6768 13.6055 12.9668 14.1592C13.4062 15.0029 14.1533 15.3545 15.0498 15.3545ZM9.09961 14.168C8.37012 14.168 7.91309 13.2627 7.91309 11.6631C7.91309 10.0547 8.37012 9.1582 9.09961 9.1582C9.8291 9.1582 10.2861 10.0547 10.2861 11.6631C10.2861 13.2627 9.83789 14.168 9.09961 14.168ZM14.9971 14.2998C14.2676 14.2998 13.7578 13.7285 13.7578 12.9111C13.7578 12.1377 14.2588 11.584 14.9971 11.584C15.7266 11.584 16.2275 12.1289 16.2275 12.9199C16.2275 13.7637 15.7441 14.2998 14.9971 14.2998Z" fill="#1C1C1E"/>
</g>
<defs>
<clipPath id="clip0_10_2324">
<rect width="24" height="24" fill="white"/>
</clipPath>
</defs>
</svg>
