<svg width="24" height="24" viewBox="0 0 24 24" fill="none" xmlns="http://www.w3.org/2000/svg">
<g clip-path="url(#clip0_10_2257)">
<path d="M6.67383 19.8809H17.3174C19.2246 19.8809 20.209 18.8965 20.209 17.0156V6.31934C20.209 4.43848 19.2246 3.4541 17.3174 3.4541H6.67383C4.77539 3.4541 3.78223 4.42969 3.78223 6.31934V17.0156C3.78223 18.8965 4.77539 19.8809 6.67383 19.8809ZM9.01172 15.4951C7.48242 15.4951 6.46289 14.0889 6.46289 11.6543C6.46289 9.21094 7.48242 7.81348 9.01172 7.81348C10.541 7.81348 11.5693 9.21094 11.5693 11.6543C11.5693 14.0889 10.541 15.4951 9.01172 15.4951ZM15.208 15.5039C14.2764 15.5039 13.4854 15.1348 13.0371 14.2471C12.7383 13.6758 12.5713 12.8672 12.5713 11.8213C12.5713 9.14941 13.6699 7.81348 15.375 7.81348C16.377 7.81348 17.0889 8.32324 17.3262 8.90332C17.3877 9.04395 17.4141 9.1582 17.4141 9.30762C17.4141 9.63281 17.1768 9.84375 16.9043 9.84375C16.6406 9.84375 16.4912 9.72949 16.3418 9.51855C16.1221 9.20215 15.8057 8.97363 15.3223 8.97363C14.4082 8.97363 13.7754 9.93164 13.7754 11.4521C13.7754 11.5225 13.7754 11.5664 13.7754 11.6104H13.8369C14.0566 11.0479 14.6279 10.5381 15.5332 10.5381C16.667 10.5381 17.6865 11.3818 17.6865 12.8848C17.6865 14.5283 16.6582 15.5039 15.208 15.5039ZM9.01172 14.2471C9.77637 14.2471 10.2334 13.3154 10.2334 11.6543C10.2334 9.99316 9.76758 9.06152 9.01172 9.06152C8.27344 9.06152 7.79004 9.99316 7.79004 11.6543C7.79004 13.3154 8.27344 14.2471 9.01172 14.2471ZM15.1465 14.3877C15.9199 14.3877 16.4121 13.834 16.4121 12.9727C16.4121 12.1465 15.8936 11.584 15.1465 11.584C14.3906 11.584 13.8633 12.1553 13.8633 12.9639C13.8633 13.8076 14.3906 14.3877 15.1465 14.3877Z" fill="#1C1C1E"/>
</g>
<defs>
<clipPath id="clip0_10_2257">
<rect width="24" height="24" fill="white"/>
</clipPath>
</defs>
</svg>
