<svg width="24" height="24" viewBox="0 0 24 24" fill="none" xmlns="http://www.w3.org/2000/svg">
<g clip-path="url(#clip0_10_2227)">
<path d="M6.67383 19.8809H17.3174C19.2246 19.8809 20.209 18.8965 20.209 17.0156V6.31934C20.209 4.43848 19.2246 3.4541 17.3174 3.4541H6.67383C4.77539 3.4541 3.78223 4.42969 3.78223 6.31934V17.0156C3.78223 18.8965 4.77539 19.8809 6.67383 19.8809ZM6.78809 18.1318C5.97949 18.1318 5.53125 17.71 5.53125 16.8574V6.47754C5.53125 5.625 5.97949 5.20312 6.78809 5.20312H17.2031C18.0029 5.20312 18.46 5.625 18.46 6.47754V16.8574C18.46 17.71 18.0029 18.1318 17.2031 18.1318H6.78809ZM9.1084 15.3457C10.5762 15.3457 11.5693 13.9922 11.5693 11.6543C11.5693 9.30762 10.5762 7.96289 9.1084 7.96289C7.63184 7.96289 6.65625 9.30762 6.65625 11.6543C6.65625 13.9922 7.63184 15.3457 9.1084 15.3457ZM15.0674 15.3545C16.4648 15.3545 17.4492 14.4141 17.4492 12.8408C17.4492 11.3906 16.4736 10.582 15.375 10.582C14.5049 10.582 13.96 11.0742 13.749 11.6104H13.6875C13.6787 11.5752 13.6787 11.5312 13.6787 11.4697C13.6787 10.002 14.2939 9.06152 15.1816 9.06152C15.6387 9.06152 15.9551 9.29004 16.166 9.59766C16.3066 9.7998 16.4473 9.90527 16.7021 9.90527C16.9658 9.90527 17.1855 9.70312 17.1855 9.39551C17.1855 9.25488 17.1592 9.14062 17.1064 9.01758C16.8779 8.45508 16.2012 7.96289 15.2256 7.96289C13.5908 7.96289 12.5273 9.24609 12.5273 11.8125C12.5273 12.8232 12.6943 13.5967 12.9844 14.1504C13.415 15.0029 14.1709 15.3545 15.0674 15.3545ZM9.11719 14.1592C8.3877 14.1592 7.92188 13.2539 7.92188 11.6543C7.92188 10.0547 8.3877 9.14941 9.11719 9.14941C9.83789 9.14941 10.3037 10.0547 10.3037 11.6543C10.3037 13.2539 9.84668 14.1592 9.11719 14.1592ZM15.0059 14.291C14.2852 14.291 13.7754 13.7285 13.7754 12.9111C13.7754 12.1289 14.2764 11.5752 15.0059 11.5752C15.7441 11.5752 16.2363 12.1201 16.2363 12.9199C16.2363 13.7549 15.7529 14.291 15.0059 14.291Z" fill="#1C1C1E"/>
</g>
<defs>
<clipPath id="clip0_10_2227">
<rect width="24" height="24" fill="white"/>
</clipPath>
</defs>
</svg>
