<svg width="24" height="24" viewBox="0 0 24 24" fill="none" xmlns="http://www.w3.org/2000/svg">
<g clip-path="url(#clip0_10_2234)">
<path d="M11.9912 20.7334C16.9746 20.7334 21.0879 16.6201 21.0879 11.6367C21.0879 6.66211 16.9658 2.54883 11.9824 2.54883C7.00781 2.54883 2.90332 6.66211 2.90332 11.6367C2.90332 16.6201 7.0166 20.7334 11.9912 20.7334ZM9.22266 15.4775C7.68457 15.4775 6.67383 14.0801 6.67383 11.6367C6.67383 9.19336 7.68457 7.7959 9.22266 7.7959C10.7432 7.7959 11.7803 9.19336 11.7803 11.6367C11.7803 14.0801 10.7432 15.4775 9.22266 15.4775ZM14.0303 15.3984C13.6348 15.3984 13.3359 15.1172 13.3359 14.7217C13.3359 14.5371 13.3623 14.4141 13.4502 14.2559L16.043 9.20215V9.14062H13.1602C12.7998 9.14062 12.5449 8.91211 12.5449 8.56055C12.5449 8.2002 12.791 7.97168 13.1602 7.97168H16.5879C17.1592 7.97168 17.4844 8.3584 17.4844 8.83301C17.4844 9.03516 17.4492 9.21973 17.3174 9.50098L14.6895 14.8799C14.5137 15.2402 14.3291 15.3984 14.0303 15.3984ZM9.23145 14.2295C9.9873 14.2295 10.4531 13.3066 10.4531 11.6367C10.4531 9.97559 9.96973 9.04395 9.23145 9.04395C8.47559 9.04395 8.00977 9.97559 8.00977 11.6367C8.00977 13.3066 8.47559 14.2295 9.23145 14.2295Z" fill="#1C1C1E"/>
</g>
<defs>
<clipPath id="clip0_10_2234">
<rect width="24" height="24" fill="white"/>
</clipPath>
</defs>
</svg>
