<svg width="24" height="24" viewBox="0 0 24 24" fill="none" xmlns="http://www.w3.org/2000/svg">
<g clip-path="url(#clip0_10_2260)">
<path d="M11.9912 20.7422C16.9746 20.7422 21.0879 16.6289 21.0879 11.6543C21.0879 6.67969 16.9658 2.56641 11.9824 2.56641C7.00781 2.56641 2.90332 6.67969 2.90332 11.6543C2.90332 16.6289 7.0166 20.7422 11.9912 20.7422ZM11.9912 18.9316C7.95703 18.9316 4.73145 15.6885 4.73145 11.6543C4.73145 7.62012 7.95703 4.38574 11.9824 4.38574C16.0166 4.38574 19.2598 7.62012 19.2686 11.6543C19.2773 15.6885 16.0254 18.9316 11.9912 18.9316ZM9.32812 15.3545C10.7959 15.3545 11.7891 14.001 11.7891 11.6631C11.7891 9.31641 10.7959 7.96289 9.32812 7.96289C7.85156 7.96289 6.87598 9.31641 6.87598 11.6631C6.87598 14.001 7.85156 15.3545 9.32812 15.3545ZM13.9424 15.2754C14.2412 15.2754 14.417 15.1172 14.584 14.7832L17.1152 9.59766C17.2471 9.3252 17.2822 9.14941 17.2822 8.95605C17.2822 8.49902 16.9658 8.12988 16.4209 8.12988H13.1162C12.7646 8.12988 12.5273 8.34961 12.5273 8.69238C12.5273 9.03516 12.7734 9.24609 13.1162 9.24609H15.9023V9.30762L13.3975 14.1855C13.3184 14.335 13.292 14.458 13.292 14.6338C13.292 15.0117 13.5732 15.2754 13.9424 15.2754ZM9.32812 14.168C8.59863 14.168 8.1416 13.2627 8.1416 11.6631C8.1416 10.0547 8.59863 9.1582 9.32812 9.1582C10.0576 9.1582 10.5146 10.0547 10.5146 11.6631C10.5146 13.2627 10.0664 14.168 9.32812 14.168Z" fill="#1C1C1E"/>
</g>
<defs>
<clipPath id="clip0_10_2260">
<rect width="24" height="24" fill="white"/>
</clipPath>
</defs>
</svg>
