<svg width="24" height="24" viewBox="0 0 24 24" fill="none" xmlns="http://www.w3.org/2000/svg">
<g clip-path="url(#clip0_10_2258)">
<path d="M6.67383 19.8809H17.3174C19.2246 19.8809 20.209 18.8965 20.209 17.0156V6.31934C20.209 4.43848 19.2246 3.4541 17.3174 3.4541H6.67383C4.77539 3.4541 3.78223 4.42969 3.78223 6.31934V17.0156C3.78223 18.8965 4.77539 19.8809 6.67383 19.8809ZM9.25781 15.4951C7.71973 15.4951 6.70898 14.0977 6.70898 11.6543C6.70898 9.21094 7.71973 7.81348 9.25781 7.81348C10.7783 7.81348 11.8154 9.21094 11.8154 11.6543C11.8154 14.0977 10.7783 15.4951 9.25781 15.4951ZM14.0654 15.416C13.6699 15.416 13.3711 15.1348 13.3711 14.7393C13.3711 14.5547 13.3975 14.4316 13.4854 14.2734L16.0781 9.21973V9.14941H13.1953C12.835 9.14941 12.5801 8.92969 12.5801 8.56934C12.5801 8.20898 12.8262 7.98926 13.1953 7.98926H16.623C17.1943 7.98926 17.5195 8.37598 17.5195 8.85059C17.5195 9.05273 17.4844 9.2373 17.3525 9.51855L14.7246 14.8975C14.5488 15.2578 14.3643 15.416 14.0654 15.416ZM9.2666 14.2471C10.0225 14.2471 10.4883 13.3154 10.4883 11.6543C10.4883 9.99316 10.0049 9.06152 9.2666 9.06152C8.51074 9.06152 8.04492 9.99316 8.04492 11.6543C8.04492 13.3154 8.51074 14.2471 9.2666 14.2471Z" fill="#1C1C1E"/>
</g>
<defs>
<clipPath id="clip0_10_2258">
<rect width="24" height="24" fill="white"/>
</clipPath>
</defs>
</svg>
