<svg width="24" height="24" viewBox="0 0 24 24" fill="none" xmlns="http://www.w3.org/2000/svg">
<g clip-path="url(#clip0_10_2263)">
<path d="M6.67383 19.8809H17.3174C19.2246 19.8809 20.209 18.8965 20.209 17.0156V6.31934C20.209 4.43848 19.2246 3.4541 17.3174 3.4541H6.67383C4.77539 3.4541 3.78223 4.42969 3.78223 6.31934V17.0156C3.78223 18.8965 4.77539 19.8809 6.67383 19.8809ZM6.78809 18.1318C5.97949 18.1318 5.53125 17.71 5.53125 16.8574V6.47754C5.53125 5.625 5.97949 5.20312 6.78809 5.20312H17.2031C18.0029 5.20312 18.46 5.625 18.46 6.47754V16.8574C18.46 17.71 18.0029 18.1318 17.2031 18.1318H6.78809ZM9.33691 15.3457C10.8135 15.3457 11.7979 13.9922 11.7979 11.6543C11.7979 9.30762 10.8135 7.96289 9.33691 7.96289C7.86914 7.96289 6.89355 9.30762 6.89355 11.6543C6.89355 13.9922 7.86914 15.3457 9.33691 15.3457ZM13.96 15.2666C14.25 15.2666 14.4346 15.1172 14.5928 14.7744L17.1328 9.58887C17.2559 9.31641 17.2998 9.14062 17.2998 8.95605C17.2998 8.49902 16.9834 8.12988 16.4297 8.12988H13.125C12.7822 8.12988 12.5361 8.34082 12.5361 8.68359C12.5361 9.02637 12.791 9.2373 13.125 9.2373H15.9199V9.30762L13.415 14.1855C13.3359 14.335 13.3096 14.4492 13.3096 14.625C13.3096 15.0029 13.5908 15.2666 13.96 15.2666ZM9.3457 14.1592C8.61621 14.1592 8.15918 13.2539 8.15918 11.6543C8.15918 10.0547 8.61621 9.14941 9.3457 9.14941C10.0752 9.14941 10.5322 10.0547 10.5322 11.6543C10.5322 13.2539 10.084 14.1592 9.3457 14.1592Z" fill="#1C1C1E"/>
</g>
<defs>
<clipPath id="clip0_10_2263">
<rect width="24" height="24" fill="white"/>
</clipPath>
</defs>
</svg>
