<svg width="24" height="24" viewBox="0 0 24 24" fill="none" xmlns="http://www.w3.org/2000/svg">
<g clip-path="url(#clip0_10_2278)">
<path d="M11.9912 20.7422C16.9746 20.7422 21.0879 16.6289 21.0879 11.6543C21.0879 6.67969 16.9658 2.56641 11.9824 2.56641C7.00781 2.56641 2.90332 6.67969 2.90332 11.6543C2.90332 16.6289 7.0166 20.7422 11.9912 20.7422ZM9.00293 15.4951C7.47363 15.4951 6.46289 14.0977 6.46289 11.6543C6.46289 9.21094 7.47363 7.81348 9.00293 7.81348C10.541 7.81348 11.5605 9.21094 11.5605 11.6543C11.5605 14.0977 10.541 15.4951 9.00293 15.4951ZM15.0674 15.4951C13.5117 15.4951 12.4658 14.625 12.4658 13.3154C12.4658 12.4014 13.0283 11.6719 13.96 11.4697V11.4082C13.1777 11.1885 12.7295 10.5732 12.7295 9.78223C12.7295 8.61328 13.7051 7.81348 15.085 7.81348C16.4648 7.81348 17.4316 8.61328 17.4316 9.78223C17.4316 10.5732 16.9746 11.2061 16.2012 11.4082V11.4697C17.1328 11.6719 17.6953 12.3926 17.6953 13.3066C17.6953 14.6162 16.6318 15.4951 15.0674 15.4951ZM15.085 10.9775C15.7178 10.9775 16.166 10.5293 16.166 9.91406C16.166 9.29004 15.7178 8.85938 15.085 8.85938C14.4434 8.85938 14.0039 9.29004 14.0039 9.91406C14.0039 10.5293 14.4434 10.9775 15.085 10.9775ZM9.01172 14.2471C9.77637 14.2471 10.2334 13.3154 10.2334 11.6543C10.2334 9.99316 9.76758 9.06152 9.01172 9.06152C8.26465 9.06152 7.79004 9.99316 7.79004 11.6543C7.79004 13.3154 8.26465 14.2471 9.01172 14.2471ZM15.0938 14.4404C15.8496 14.4404 16.4033 13.9395 16.4033 13.2275C16.4033 12.5068 15.8672 12.0059 15.0938 12.0059C14.3203 12.0059 13.7666 12.5156 13.7666 13.2275C13.7666 13.9395 14.3203 14.4404 15.0938 14.4404Z" fill="#1C1C1E"/>
</g>
<defs>
<clipPath id="clip0_10_2278">
<rect width="24" height="24" fill="white"/>
</clipPath>
</defs>
</svg>
