<svg width="24" height="24" viewBox="0 0 24 24" fill="none" xmlns="http://www.w3.org/2000/svg">
<g clip-path="url(#clip0_10_2275)">
<path d="M11.9912 20.7422C16.9746 20.7422 21.0879 16.6289 21.0879 11.6543C21.0879 6.67969 16.9658 2.56641 11.9824 2.56641C7.00781 2.56641 2.90332 6.67969 2.90332 11.6543C2.90332 16.6289 7.0166 20.7422 11.9912 20.7422ZM11.9912 18.9316C7.95703 18.9316 4.73145 15.6885 4.73145 11.6543C4.73145 7.62012 7.95703 4.38574 11.9824 4.38574C16.0166 4.38574 19.2598 7.62012 19.2686 11.6543C19.2773 15.6885 16.0254 18.9316 11.9912 18.9316ZM9.12598 15.3545C10.5938 15.3545 11.5781 14.001 11.5781 11.6631C11.5781 9.31641 10.5938 7.96289 9.12598 7.96289C7.64941 7.96289 6.67383 9.31641 6.67383 11.6631C6.67383 14.001 7.64941 15.3545 9.12598 15.3545ZM14.9531 15.3545C16.4561 15.3545 17.4844 14.502 17.4844 13.2539C17.4844 12.3662 16.9395 11.6719 16.043 11.4873V11.4258C16.79 11.2236 17.2207 10.6172 17.2207 9.86133C17.2207 8.73633 16.2979 7.96289 14.9707 7.96289C13.6348 7.96289 12.7119 8.73633 12.7119 9.86133C12.7119 10.6172 13.1338 11.2061 13.8896 11.4258V11.4873C12.9932 11.6719 12.457 12.375 12.457 13.2627C12.457 14.5107 13.459 15.3545 14.9531 15.3545ZM14.9707 11.0127C14.3555 11.0127 13.9248 10.582 13.9248 9.98438C13.9248 9.37793 14.3555 8.96484 14.9707 8.96484C15.5859 8.96484 16.0166 9.37793 16.0166 9.98438C16.0166 10.582 15.5859 11.0127 14.9707 11.0127ZM9.12598 14.168C8.39648 14.168 7.93945 13.2627 7.93945 11.6631C7.93945 10.0547 8.39648 9.1582 9.12598 9.1582C9.85547 9.1582 10.3125 10.0547 10.3125 11.6631C10.3125 13.2627 9.86426 14.168 9.12598 14.168ZM14.9707 14.3438C14.2324 14.3438 13.6963 13.8604 13.6963 13.166C13.6963 12.4893 14.2324 11.9883 14.9707 11.9883C15.7266 11.9883 16.2539 12.4805 16.2539 13.166C16.2539 13.8604 15.7178 14.3438 14.9707 14.3438Z" fill="#1C1C1E"/>
</g>
<defs>
<clipPath id="clip0_10_2275">
<rect width="24" height="24" fill="white"/>
</clipPath>
</defs>
</svg>
