<svg width="24" height="24" viewBox="0 0 24 24" fill="none" xmlns="http://www.w3.org/2000/svg">
<g clip-path="url(#clip0_10_2259)">
<path d="M6.67383 19.8809H17.3174C19.2246 19.8809 20.209 18.8965 20.209 17.0156V6.31934C20.209 4.43848 19.2246 3.4541 17.3174 3.4541H6.67383C4.77539 3.4541 3.78223 4.42969 3.78223 6.31934V17.0156C3.78223 18.8965 4.77539 19.8809 6.67383 19.8809ZM6.78809 18.1318C5.97949 18.1318 5.53125 17.71 5.53125 16.8574V6.47754C5.53125 5.625 5.97949 5.20312 6.78809 5.20312H17.2031C18.0029 5.20312 18.46 5.625 18.46 6.47754V16.8574C18.46 17.71 18.0029 18.1318 17.2031 18.1318H6.78809ZM9.13477 15.3457C10.6113 15.3457 11.5957 13.9922 11.5957 11.6543C11.5957 9.30762 10.6113 7.96289 9.13477 7.96289C7.66699 7.96289 6.69141 9.30762 6.69141 11.6543C6.69141 13.9922 7.66699 15.3457 9.13477 15.3457ZM14.9707 15.3457C16.4736 15.3457 17.4932 14.4932 17.4932 13.2451C17.4932 12.3574 16.9482 11.6719 16.0605 11.4785V11.4258C16.8076 11.2236 17.2383 10.6084 17.2383 9.85254C17.2383 8.72754 16.3154 7.96289 14.9795 7.96289C13.6523 7.96289 12.7295 8.72754 12.7295 9.85254C12.7295 10.6084 13.1514 11.2061 13.9072 11.4258V11.4785C13.0107 11.6719 12.4658 12.3662 12.4658 13.2539C12.4658 14.502 13.4678 15.3457 14.9707 15.3457ZM14.9795 11.0039C14.3643 11.0039 13.9336 10.5732 13.9336 9.97559C13.9336 9.37793 14.3643 8.96484 14.9795 8.96484C15.6035 8.96484 16.0342 9.37793 16.0342 9.97559C16.0342 10.5732 15.6035 11.0039 14.9795 11.0039ZM9.14355 14.1592C8.41406 14.1592 7.95703 13.2539 7.95703 11.6543C7.95703 10.0547 8.41406 9.14941 9.14355 9.14941C9.87305 9.14941 10.3301 10.0547 10.3301 11.6543C10.3301 13.2539 9.88184 14.1592 9.14355 14.1592ZM14.9883 14.3438C14.2412 14.3438 13.7051 13.8604 13.7051 13.166C13.7051 12.4805 14.2412 11.9883 14.9883 11.9883C15.7441 11.9883 16.2627 12.4717 16.2627 13.166C16.2627 13.8604 15.7266 14.3438 14.9883 14.3438Z" fill="#1C1C1E"/>
</g>
<defs>
<clipPath id="clip0_10_2259">
<rect width="24" height="24" fill="white"/>
</clipPath>
</defs>
</svg>
