<svg width="24" height="24" viewBox="0 0 24 24" fill="none" xmlns="http://www.w3.org/2000/svg">
<g clip-path="url(#clip0_10_2276)">
<path d="M6.67383 19.8809H17.3174C19.2246 19.8809 20.209 18.8965 20.209 17.0156V6.31934C20.209 4.43848 19.2246 3.4541 17.3174 3.4541H6.67383C4.77539 3.4541 3.78223 4.42969 3.78223 6.31934V17.0156C3.78223 18.8965 4.77539 19.8809 6.67383 19.8809ZM9.03809 15.4951C7.50879 15.4951 6.49805 14.0977 6.49805 11.6543C6.49805 9.21094 7.50879 7.81348 9.03809 7.81348C10.5762 7.81348 11.5957 9.21094 11.5957 11.6543C11.5957 14.0977 10.5762 15.4951 9.03809 15.4951ZM15.1113 15.4951C13.5469 15.4951 12.501 14.625 12.501 13.3154C12.501 12.4014 13.0635 11.6719 14.0039 11.4697V11.4082C13.2129 11.1885 12.7734 10.5732 12.7734 9.78223C12.7734 8.61328 13.7402 7.81348 15.1201 7.81348C16.5 7.81348 17.4668 8.61328 17.4668 9.78223C17.4668 10.5732 17.0098 11.2061 16.2363 11.4082V11.4697C17.168 11.6719 17.7305 12.3926 17.7305 13.3066C17.7305 14.6162 16.667 15.4951 15.1113 15.4951ZM15.1201 10.9775C15.7529 10.9775 16.2012 10.5293 16.2012 9.91406C16.2012 9.29004 15.7529 8.85938 15.1201 8.85938C14.4785 8.85938 14.0391 9.29004 14.0391 9.91406C14.0391 10.5293 14.4785 10.9775 15.1201 10.9775ZM9.04688 14.2471C9.81152 14.2471 10.2686 13.3154 10.2686 11.6543C10.2686 9.99316 9.80273 9.06152 9.04688 9.06152C8.2998 9.06152 7.8252 9.99316 7.8252 11.6543C7.8252 13.3154 8.2998 14.2471 9.04688 14.2471ZM15.1289 14.4404C15.8848 14.4404 16.4385 13.9395 16.4385 13.2275C16.4385 12.5068 15.9023 12.0059 15.1289 12.0059C14.3555 12.0059 13.8018 12.5156 13.8018 13.2275C13.8018 13.9395 14.3555 14.4404 15.1289 14.4404Z" fill="#1C1C1E"/>
</g>
<defs>
<clipPath id="clip0_10_2276">
<rect width="24" height="24" fill="white"/>
</clipPath>
</defs>
</svg>
