<svg width="24" height="24" viewBox="0 0 24 24" fill="none" xmlns="http://www.w3.org/2000/svg">
<g clip-path="url(#clip0_10_2242)">
<path d="M11.9912 20.7422C16.9746 20.7422 21.0879 16.6289 21.0879 11.6543C21.0879 6.67969 16.9658 2.56641 11.9824 2.56641C7.00781 2.56641 2.90332 6.67969 2.90332 11.6543C2.90332 16.6289 7.0166 20.7422 11.9912 20.7422ZM9.0293 15.4951C7.5 15.4951 6.48926 14.0977 6.48926 11.6543C6.48926 9.21094 7.5 7.81348 9.0293 7.81348C10.5586 7.81348 11.5869 9.21094 11.5869 11.6543C11.5869 14.0977 10.5586 15.4951 9.0293 15.4951ZM14.9004 15.4951C13.6875 15.4951 12.9668 14.8447 12.7998 14.3438C12.7559 14.2207 12.7207 14.0889 12.7207 13.9746C12.7207 13.6406 12.9404 13.3945 13.2568 13.3945C13.4941 13.3945 13.6787 13.5 13.8369 13.7461C14.0479 14.1064 14.4082 14.335 14.8828 14.335C15.8672 14.335 16.4561 13.2891 16.4473 11.6719H16.3945C16.166 12.2871 15.6035 12.7705 14.6807 12.7705C13.5029 12.7705 12.5098 11.9004 12.5098 10.4062C12.5098 8.81543 13.5029 7.81348 14.9971 7.81348C16.7021 7.81348 17.6514 9.09668 17.6514 11.3994C17.6514 14.0713 16.6758 15.4951 14.9004 15.4951ZM15.0586 11.7334C15.8145 11.7334 16.3418 11.1533 16.3418 10.3447C16.3418 9.50098 15.8057 8.91211 15.0674 8.91211C14.2939 8.91211 13.7842 9.4834 13.7842 10.3359C13.7842 11.1533 14.3027 11.7334 15.0586 11.7334ZM9.03809 14.2471C9.79395 14.2471 10.2598 13.3154 10.2598 11.6543C10.2598 9.99316 9.79395 9.06152 9.03809 9.06152C8.29102 9.06152 7.81641 9.99316 7.81641 11.6543C7.81641 13.3154 8.29102 14.2471 9.03809 14.2471Z" fill="#1C1C1E"/>
</g>
<defs>
<clipPath id="clip0_10_2242">
<rect width="24" height="24" fill="white"/>
</clipPath>
</defs>
</svg>
