<svg width="24" height="24" viewBox="0 0 24 24" fill="none" xmlns="http://www.w3.org/2000/svg">
<g clip-path="url(#clip0_10_2232)">
<path d="M11.9912 20.7422C16.9746 20.7422 21.0879 16.6289 21.0879 11.6543C21.0879 6.67969 16.9658 2.56641 11.9824 2.56641C7.00781 2.56641 2.90332 6.67969 2.90332 11.6543C2.90332 16.6289 7.0166 20.7422 11.9912 20.7422ZM11.9912 18.9316C7.95703 18.9316 4.73145 15.6885 4.73145 11.6543C4.73145 7.62012 7.95703 4.38574 11.9824 4.38574C16.0166 4.38574 19.2598 7.62012 19.2686 11.6543C19.2773 15.6885 16.0254 18.9316 11.9912 18.9316ZM9.14355 15.3545C10.6113 15.3545 11.6045 14.001 11.6045 11.6631C11.6045 9.31641 10.6113 7.96289 9.14355 7.96289C7.67578 7.96289 6.7002 9.31641 6.7002 11.6631C6.7002 14.001 7.67578 15.3545 9.14355 15.3545ZM14.7861 15.3545C16.5088 15.3545 17.4316 13.9834 17.4316 11.417C17.4316 9.20215 16.5264 7.96289 14.8828 7.96289C13.4414 7.96289 12.4922 8.93848 12.4922 10.4502C12.4922 11.9004 13.4502 12.7354 14.584 12.7354C15.4717 12.7354 16.0166 12.2695 16.2363 11.6807H16.2891C16.2979 13.2363 15.7266 14.2471 14.7686 14.2471C14.3203 14.2471 13.9688 14.0186 13.7666 13.6846C13.6084 13.4385 13.4326 13.3418 13.2129 13.3418C12.9053 13.3418 12.6943 13.5703 12.6943 13.8955C12.6943 14.001 12.7295 14.1328 12.7734 14.2471C12.9316 14.7305 13.626 15.3545 14.7861 15.3545ZM14.9443 11.751C14.2061 11.751 13.7051 11.1885 13.7051 10.3887C13.7051 9.5625 14.1973 9.01758 14.9443 9.01758C15.665 9.01758 16.1836 9.58887 16.1836 10.4062C16.1836 11.1885 15.6738 11.751 14.9443 11.751ZM9.15234 14.168C8.42285 14.168 7.96582 13.2627 7.96582 11.6631C7.96582 10.0547 8.42285 9.1582 9.15234 9.1582C9.88184 9.1582 10.3389 10.0547 10.3389 11.6631C10.3389 13.2627 9.89062 14.168 9.15234 14.168Z" fill="#1C1C1E"/>
</g>
<defs>
<clipPath id="clip0_10_2232">
<rect width="24" height="24" fill="white"/>
</clipPath>
</defs>
</svg>
