<svg width="24" height="24" viewBox="0 0 24 24" fill="none" xmlns="http://www.w3.org/2000/svg">
<g clip-path="url(#clip0_10_2248)">
<path d="M6.67383 19.8809H17.3174C19.2246 19.8809 20.209 18.8965 20.209 17.0156V6.31934C20.209 4.43848 19.2246 3.4541 17.3174 3.4541H6.67383C4.77539 3.4541 3.78223 4.42969 3.78223 6.31934V17.0156C3.78223 18.8965 4.77539 19.8809 6.67383 19.8809ZM6.78809 18.1318C5.97949 18.1318 5.53125 17.71 5.53125 16.8574V6.47754C5.53125 5.625 5.97949 5.20312 6.78809 5.20312H17.2031C18.0029 5.20312 18.46 5.625 18.46 6.47754V16.8574C18.46 17.71 18.0029 18.1318 17.2031 18.1318H6.78809ZM9.16113 15.3457C10.6289 15.3457 11.6221 13.9922 11.6221 11.6543C11.6221 9.30762 10.6289 7.96289 9.16113 7.96289C7.68457 7.96289 6.70898 9.30762 6.70898 11.6543C6.70898 13.9922 7.68457 15.3457 9.16113 15.3457ZM14.8037 15.3457C16.5176 15.3457 17.4492 13.9746 17.4492 11.4082C17.4492 9.19336 16.5439 7.96289 14.9004 7.96289C13.459 7.96289 12.501 8.92969 12.501 10.4502C12.501 11.8916 13.4678 12.7354 14.6016 12.7354C15.4893 12.7354 16.0342 12.2607 16.2539 11.6719H16.3066C16.3154 13.2363 15.7354 14.2471 14.7861 14.2471C14.3291 14.2471 13.9775 14.0186 13.7754 13.6758C13.626 13.4297 13.4502 13.333 13.2217 13.333C12.9229 13.333 12.7119 13.5703 12.7119 13.8867C12.7119 13.9922 12.7471 14.124 12.791 14.2471C12.9492 14.7217 13.6436 15.3457 14.8037 15.3457ZM14.9619 11.7422C14.2236 11.7422 13.7227 11.1797 13.7227 10.3887C13.7227 9.5625 14.2148 9.00879 14.9619 9.00879C15.6826 9.00879 16.2012 9.58008 16.2012 10.3975C16.2012 11.1797 15.6914 11.7422 14.9619 11.7422ZM9.16992 14.1592C8.44043 14.1592 7.97461 13.2539 7.97461 11.6543C7.97461 10.0547 8.44043 9.14941 9.16992 9.14941C9.89941 9.14941 10.3564 10.0547 10.3564 11.6543C10.3564 13.2539 9.89941 14.1592 9.16992 14.1592Z" fill="#1C1C1E"/>
</g>
<defs>
<clipPath id="clip0_10_2248">
<rect width="24" height="24" fill="white"/>
</clipPath>
</defs>
</svg>
