<svg width="24" height="24" viewBox="0 0 24 24" fill="none" xmlns="http://www.w3.org/2000/svg">
<g clip-path="url(#clip0_10_1934)">
<path d="M6.67383 19.8809H17.3174C19.2246 19.8809 20.209 18.8965 20.209 17.0156V6.31934C20.209 4.43848 19.2246 3.4541 17.3174 3.4541H6.67383C4.77539 3.4541 3.78223 4.42969 3.78223 6.31934V17.0156C3.78223 18.8965 4.77539 19.8809 6.67383 19.8809ZM9.06445 15.4951C7.53516 15.4951 6.52441 14.0977 6.52441 11.6543C6.52441 9.21094 7.53516 7.81348 9.06445 7.81348C10.6025 7.81348 11.6221 9.21094 11.6221 11.6543C11.6221 14.0977 10.6025 15.4951 9.06445 15.4951ZM14.9355 15.4951C13.7227 15.4951 13.002 14.8447 12.835 14.3438C12.791 14.2207 12.7559 14.0889 12.7559 13.9746C12.7559 13.6406 12.9756 13.3945 13.292 13.3945C13.5293 13.3945 13.7139 13.5 13.8721 13.7461C14.083 14.1064 14.4434 14.335 14.918 14.335C15.9023 14.335 16.4912 13.2891 16.4824 11.6719H16.4297C16.2012 12.2871 15.6387 12.7705 14.7158 12.7705C13.5381 12.7705 12.5449 11.9004 12.5449 10.4062C12.5449 8.81543 13.5381 7.81348 15.0322 7.81348C16.7373 7.81348 17.6865 9.09668 17.6865 11.3994C17.6865 14.0713 16.7109 15.4951 14.9355 15.4951ZM15.0938 11.7334C15.8496 11.7334 16.377 11.1533 16.377 10.3447C16.377 9.50098 15.8408 8.91211 15.1025 8.91211C14.3291 8.91211 13.8193 9.4834 13.8193 10.3359C13.8193 11.1533 14.3379 11.7334 15.0938 11.7334ZM9.07324 14.2471C9.8291 14.2471 10.2949 13.3154 10.2949 11.6543C10.2949 9.99316 9.8291 9.06152 9.07324 9.06152C8.32617 9.06152 7.85156 9.99316 7.85156 11.6543C7.85156 13.3154 8.32617 14.2471 9.07324 14.2471Z" fill="#1C1C1E"/>
</g>
<defs>
<clipPath id="clip0_10_1934">
<rect width="24" height="24" fill="white"/>
</clipPath>
</defs>
</svg>
