<svg width="24" height="24" viewBox="0 0 24 24" fill="none" xmlns="http://www.w3.org/2000/svg">
<g clip-path="url(#clip0_10_1960)">
<path d="M11.9912 20.7422C16.9746 20.7422 21.0879 16.6289 21.0879 11.6543C21.0879 6.67969 16.9658 2.56641 11.9824 2.56641C7.00781 2.56641 2.90332 6.67969 2.90332 11.6543C2.90332 16.6289 7.0166 20.7422 11.9912 20.7422ZM12.501 15.8115C11.9473 15.8115 11.6133 15.4688 11.6133 14.8359V9.33398H11.543L10.4531 10.0459C10.2246 10.2041 10.1191 10.2305 9.95215 10.2305C9.60059 10.2305 9.33691 9.93164 9.33691 9.58887C9.33691 9.29883 9.45117 9.12305 9.69727 8.95605L11.2705 7.89258C11.7188 7.59375 12.0176 7.48828 12.4219 7.48828C13.0283 7.48828 13.4062 7.85742 13.4062 8.46387V14.8359C13.4062 15.4688 13.0635 15.8115 12.501 15.8115Z" fill="#1C1C1E"/>
</g>
<defs>
<clipPath id="clip0_10_1960">
<rect width="24" height="24" fill="white"/>
</clipPath>
</defs>
</svg>
