<svg width="24" height="24" viewBox="0 0 24 24" fill="none" xmlns="http://www.w3.org/2000/svg">
<g clip-path="url(#clip0_10_1962)">
<path d="M11.9912 20.7422C16.9746 20.7422 21.0879 16.6289 21.0879 11.6543C21.0879 6.67969 16.9658 2.56641 11.9824 2.56641C7.00781 2.56641 2.90332 6.67969 2.90332 11.6543C2.90332 16.6289 7.0166 20.7422 11.9912 20.7422ZM11.9912 18.9316C7.95703 18.9316 4.73145 15.6885 4.73145 11.6543C4.73145 7.62012 7.95703 4.38574 11.9824 4.38574C16.0166 4.38574 19.2598 7.62012 19.2686 11.6543C19.2773 15.6885 16.0254 18.9316 11.9912 18.9316ZM12.4746 15.6533C13.0107 15.6533 13.3359 15.3281 13.3359 14.7217V8.58691C13.3359 8.00684 12.9756 7.65527 12.4043 7.65527C12.0176 7.65527 11.7363 7.75195 11.3057 8.04199L9.79395 9.06152C9.55664 9.22852 9.45117 9.39551 9.45117 9.66797C9.45117 9.99316 9.69727 10.2744 10.04 10.2744C10.1895 10.2744 10.2949 10.2568 10.5146 10.1074L11.5605 9.41309H11.6309V14.7217C11.6309 15.3281 11.9561 15.6533 12.4746 15.6533Z" fill="#1C1C1E"/>
</g>
<defs>
<clipPath id="clip0_10_1962">
<rect width="24" height="24" fill="white"/>
</clipPath>
</defs>
</svg>
