<svg width="24" height="24" viewBox="0 0 24 24" fill="none" xmlns="http://www.w3.org/2000/svg">
<g clip-path="url(#clip0_10_1958)">
<path d="M6.67383 19.8809H17.3174C19.2246 19.8809 20.209 18.8965 20.209 17.0156V6.31934C20.209 4.43848 19.2246 3.4541 17.3174 3.4541H6.67383C4.77539 3.4541 3.78223 4.42969 3.78223 6.31934V17.0156C3.78223 18.8965 4.77539 19.8809 6.67383 19.8809ZM6.78809 18.1318C5.97949 18.1318 5.53125 17.71 5.53125 16.8574V6.47754C5.53125 5.625 5.97949 5.20312 6.78809 5.20312H17.2031C18.0029 5.20312 18.46 5.625 18.46 6.47754V16.8574C18.46 17.71 18.0029 18.1318 17.2031 18.1318H6.78809ZM12.4922 15.6533C13.0283 15.6533 13.3535 15.3281 13.3535 14.7217V8.57812C13.3535 7.99805 12.9932 7.64648 12.4131 7.64648C12.0352 7.64648 11.7539 7.75195 11.3232 8.0332L9.81152 9.06152C9.56543 9.21973 9.46875 9.38672 9.46875 9.65918C9.46875 9.98438 9.71484 10.2744 10.0488 10.2744C10.207 10.2744 10.3125 10.248 10.5322 10.0986L11.5781 9.4043H11.6484V14.7217C11.6484 15.3281 11.9736 15.6533 12.4922 15.6533Z" fill="#1C1C1E"/>
</g>
<defs>
<clipPath id="clip0_10_1958">
<rect width="24" height="24" fill="white"/>
</clipPath>
</defs>
</svg>
