<svg width="24" height="24" viewBox="0 0 24 24" fill="none" xmlns="http://www.w3.org/2000/svg">
<g clip-path="url(#clip0_10_1956)">
<path d="M6.67383 19.8809H17.3174C19.2246 19.8809 20.209 18.8965 20.209 17.0156V6.31934C20.209 4.43848 19.2246 3.4541 17.3174 3.4541H6.67383C4.77539 3.4541 3.78223 4.42969 3.78223 6.31934V17.0156C3.78223 18.8965 4.77539 19.8809 6.67383 19.8809ZM12.5361 15.8115C11.9824 15.8115 11.6484 15.4688 11.6484 14.8359V9.33398H11.5781L10.4883 10.0459C10.2598 10.2041 10.1543 10.2305 9.9873 10.2305C9.63574 10.2305 9.37207 9.93164 9.37207 9.58887C9.37207 9.29883 9.48633 9.12305 9.73242 8.95605L11.3145 7.89258C11.7539 7.59375 12.0527 7.48828 12.457 7.48828C13.0635 7.48828 13.4414 7.85742 13.4414 8.46387V14.8359C13.4414 15.4688 13.0986 15.8115 12.5361 15.8115Z" fill="#1C1C1E"/>
</g>
<defs>
<clipPath id="clip0_10_1956">
<rect width="24" height="24" fill="white"/>
</clipPath>
</defs>
</svg>
