<svg width="24" height="24" viewBox="0 0 24 24" fill="none" xmlns="http://www.w3.org/2000/svg">
<g clip-path="url(#clip0_10_2237)">
<path d="M11.9912 20.7422C16.9746 20.7422 21.0879 16.6289 21.0879 11.6543C21.0879 6.67969 16.9658 2.56641 11.9824 2.56641C7.00781 2.56641 2.90332 6.67969 2.90332 11.6543C2.90332 16.6289 7.0166 20.7422 11.9912 20.7422ZM14.3555 15.4951C12.8262 15.4951 11.8066 14.0977 11.8066 11.6543C11.8066 9.21094 12.8262 7.81348 14.3555 7.81348C15.8848 7.81348 16.9131 9.21094 16.9131 11.6543C16.9131 14.0977 15.8848 15.4951 14.3555 15.4951ZM9.62695 15.4072C9.23145 15.4072 8.99414 15.1523 8.99414 14.7217V9.46582H8.94141L8.10645 10.1162C7.89551 10.292 7.78125 10.3271 7.60547 10.3271C7.31543 10.3271 7.04297 10.0635 7.04297 9.73828C7.04297 9.4834 7.16602 9.29883 7.38574 9.12305L8.65137 8.21777C9.00293 7.9541 9.20508 7.86621 9.52148 7.86621C9.9873 7.86621 10.2773 8.16504 10.2773 8.63086V14.7217C10.2773 15.1523 10.0312 15.4072 9.62695 15.4072ZM14.3555 14.2471C15.1201 14.2471 15.5859 13.3154 15.5859 11.6543C15.5859 9.99316 15.1113 9.06152 14.3555 9.06152C13.6172 9.06152 13.1338 9.99316 13.1338 11.6543C13.1338 13.3154 13.6172 14.2471 14.3555 14.2471Z" fill="#1C1C1E"/>
</g>
<defs>
<clipPath id="clip0_10_2237">
<rect width="24" height="24" fill="white"/>
</clipPath>
</defs>
</svg>
