<svg width="24" height="24" viewBox="0 0 24 24" fill="none" xmlns="http://www.w3.org/2000/svg">
<g clip-path="url(#clip0_10_1933)">
<path d="M11.9912 20.7422C16.9746 20.7422 21.0879 16.6289 21.0879 11.6543C21.0879 6.67969 16.9658 2.56641 11.9824 2.56641C7.00781 2.56641 2.90332 6.67969 2.90332 11.6543C2.90332 16.6289 7.0166 20.7422 11.9912 20.7422ZM11.9912 18.9316C7.95703 18.9316 4.73145 15.6885 4.73145 11.6543C4.73145 7.62012 7.95703 4.38574 11.9824 4.38574C16.0166 4.38574 19.2598 7.62012 19.2686 11.6543C19.2773 15.6885 16.0254 18.9316 11.9912 18.9316ZM14.2588 15.3545C15.7354 15.3545 16.7197 14.001 16.7197 11.6631C16.7197 9.31641 15.7354 7.96289 14.2588 7.96289C12.791 7.96289 11.8154 9.31641 11.8154 11.6631C11.8154 14.001 12.791 15.3545 14.2588 15.3545ZM9.71484 15.2666C10.1016 15.2666 10.3301 15.0293 10.3301 14.6162V8.75391C10.3301 8.30566 10.0576 8.01562 9.61816 8.01562C9.31934 8.01562 9.11719 8.09473 8.7832 8.34961L7.56152 9.21973C7.35059 9.39551 7.23633 9.5625 7.23633 9.81738C7.23633 10.125 7.49121 10.3799 7.77246 10.3799C7.94824 10.3799 8.04492 10.3447 8.24707 10.1777L9.06445 9.54492H9.1084V14.6162C9.1084 15.0293 9.33691 15.2666 9.71484 15.2666ZM14.2676 14.168C13.5381 14.168 13.0811 13.2627 13.0811 11.6631C13.0811 10.0547 13.5381 9.1582 14.2676 9.1582C14.9971 9.1582 15.4541 10.0547 15.4541 11.6631C15.4541 13.2627 15.0059 14.168 14.2676 14.168Z" fill="#1C1C1E"/>
</g>
<defs>
<clipPath id="clip0_10_1933">
<rect width="24" height="24" fill="white"/>
</clipPath>
</defs>
</svg>
