<svg width="24" height="24" viewBox="0 0 24 24" fill="none" xmlns="http://www.w3.org/2000/svg">
<g clip-path="url(#clip0_10_2216)">
<path d="M6.67383 19.8809H17.3174C19.2246 19.8809 20.209 18.8965 20.209 17.0156V6.31934C20.209 4.43848 19.2246 3.4541 17.3174 3.4541H6.67383C4.77539 3.4541 3.78223 4.42969 3.78223 6.31934V17.0156C3.78223 18.8965 4.77539 19.8809 6.67383 19.8809ZM14.3906 15.4951C12.8613 15.4951 11.8418 14.0977 11.8418 11.6543C11.8418 9.21094 12.8613 7.81348 14.3906 7.81348C15.9199 7.81348 16.9482 9.21094 16.9482 11.6543C16.9482 14.0977 15.9199 15.4951 14.3906 15.4951ZM9.66211 15.4072C9.2666 15.4072 9.0293 15.1523 9.0293 14.7217V9.46582H8.97656L8.1416 10.1162C7.93066 10.292 7.8252 10.3271 7.64062 10.3271C7.35059 10.3271 7.07812 10.0635 7.07812 9.73828C7.07812 9.4834 7.20117 9.29883 7.4209 9.12305L8.68652 8.21777C9.03809 7.9541 9.24023 7.86621 9.55664 7.86621C10.0225 7.86621 10.3125 8.16504 10.3125 8.63086V14.7217C10.3125 15.1523 10.0664 15.4072 9.66211 15.4072ZM14.3994 14.2471C15.1553 14.2471 15.6211 13.3154 15.6211 11.6543C15.6211 9.99316 15.1465 9.06152 14.3994 9.06152C13.6523 9.06152 13.1689 9.99316 13.1689 11.6543C13.1689 13.3154 13.6523 14.2471 14.3994 14.2471Z" fill="#1C1C1E"/>
</g>
<defs>
<clipPath id="clip0_10_2216">
<rect width="24" height="24" fill="white"/>
</clipPath>
</defs>
</svg>
