<svg width="24" height="24" viewBox="0 0 24 24" fill="none" xmlns="http://www.w3.org/2000/svg">
<g clip-path="url(#clip0_10_1932)">
<path d="M6.67383 19.8809H17.3174C19.2246 19.8809 20.209 18.8965 20.209 17.0156V6.31934C20.209 4.43848 19.2246 3.4541 17.3174 3.4541H6.67383C4.77539 3.4541 3.78223 4.42969 3.78223 6.31934V17.0156C3.78223 18.8965 4.77539 19.8809 6.67383 19.8809ZM6.78809 18.1318C5.97949 18.1318 5.53125 17.71 5.53125 16.8574V6.47754C5.53125 5.625 5.97949 5.20312 6.78809 5.20312H17.2031C18.0029 5.20312 18.46 5.625 18.46 6.47754V16.8574C18.46 17.71 18.0029 18.1318 17.2031 18.1318H6.78809ZM14.2764 15.3457C15.7441 15.3457 16.7373 13.9922 16.7373 11.6543C16.7373 9.30762 15.7441 7.96289 14.2764 7.96289C12.8086 7.96289 11.833 9.30762 11.833 11.6543C11.833 13.9922 12.8086 15.3457 14.2764 15.3457ZM9.73242 15.2666C10.1191 15.2666 10.3477 15.0205 10.3477 14.6074V8.74512C10.3477 8.29688 10.0752 8.00684 9.63574 8.00684C9.33691 8.00684 9.13477 8.09473 8.80078 8.34961L7.5791 9.21094C7.35938 9.38672 7.24512 9.5625 7.24512 9.80859C7.24512 10.1162 7.50879 10.3711 7.79004 10.3711C7.95703 10.3711 8.0625 10.3359 8.26465 10.1689L9.08203 9.54492H9.12598V14.6074C9.12598 15.0205 9.35449 15.2666 9.73242 15.2666ZM14.2852 14.1592C13.5557 14.1592 13.0986 13.2539 13.0986 11.6543C13.0986 10.0547 13.5557 9.14941 14.2852 9.14941C15.0146 9.14941 15.4717 10.0547 15.4717 11.6543C15.4717 13.2539 15.0234 14.1592 14.2852 14.1592Z" fill="#1C1C1E"/>
</g>
<defs>
<clipPath id="clip0_10_1932">
<rect width="24" height="24" fill="white"/>
</clipPath>
</defs>
</svg>
