<svg width="24" height="24" viewBox="0 0 24 24" fill="none" xmlns="http://www.w3.org/2000/svg">
<g clip-path="url(#clip0_10_2230)">
<path d="M11.9912 20.7422C16.9746 20.7422 21.0879 16.6289 21.0879 11.6543C21.0879 6.67969 16.9658 2.56641 11.9824 2.56641C7.00781 2.56641 2.90332 6.67969 2.90332 11.6543C2.90332 16.6289 7.0166 20.7422 11.9912 20.7422ZM10.1279 15.4072C9.73242 15.4072 9.49512 15.1523 9.49512 14.7217V9.46582H9.44238L8.60742 10.1162C8.39648 10.292 8.29102 10.3271 8.10645 10.3271C7.80762 10.3271 7.54395 10.0635 7.54395 9.73828C7.54395 9.4834 7.66699 9.29883 7.88672 9.12305L9.15234 8.21777C9.50391 7.9541 9.71484 7.86621 10.0225 7.86621C10.4883 7.86621 10.7695 8.16504 10.7695 8.63086V14.7217C10.7695 15.1523 10.5322 15.4072 10.1279 15.4072ZM14.9004 15.4072C14.4961 15.4072 14.2588 15.1523 14.2588 14.7217V9.46582H14.2148L13.3799 10.1162C13.1689 10.292 13.0547 10.3271 12.8789 10.3271C12.5889 10.3271 12.3164 10.0635 12.3164 9.73828C12.3164 9.4834 12.4307 9.29883 12.6592 9.12305L13.916 8.21777C14.2676 7.9541 14.4785 7.86621 14.7949 7.86621C15.2607 7.86621 15.542 8.16504 15.542 8.63086V14.7217C15.542 15.1523 15.3047 15.4072 14.9004 15.4072Z" fill="#1C1C1E"/>
</g>
<defs>
<clipPath id="clip0_10_2230">
<rect width="24" height="24" fill="white"/>
</clipPath>
</defs>
</svg>
