<svg width="24" height="24" viewBox="0 0 24 24" fill="none" xmlns="http://www.w3.org/2000/svg">
<g clip-path="url(#clip0_10_2223)">
<path d="M11.9912 20.7422C16.9746 20.7422 21.0879 16.6289 21.0879 11.6543C21.0879 6.67969 16.9658 2.56641 11.9824 2.56641C7.00781 2.56641 2.90332 6.67969 2.90332 11.6543C2.90332 16.6289 7.0166 20.7422 11.9912 20.7422ZM11.9912 18.9316C7.95703 18.9316 4.73145 15.6885 4.73145 11.6543C4.73145 7.62012 7.95703 4.38574 11.9824 4.38574C16.0166 4.38574 19.2598 7.62012 19.2686 11.6543C19.2773 15.6885 16.0254 18.9316 11.9912 18.9316ZM10.1982 15.2666C10.585 15.2666 10.8135 15.0293 10.8135 14.6162V8.75391C10.8135 8.30566 10.541 8.01562 10.1016 8.01562C9.80273 8.01562 9.60059 8.09473 9.2666 8.34961L8.04492 9.21973C7.83398 9.39551 7.71973 9.5625 7.71973 9.81738C7.71973 10.125 7.97461 10.3799 8.25586 10.3799C8.43164 10.3799 8.52832 10.3447 8.73047 10.1777L9.54785 9.54492H9.5918V14.6162C9.5918 15.0293 9.82031 15.2666 10.1982 15.2666ZM14.7861 15.2666C15.1729 15.2666 15.4014 15.0293 15.4014 14.6162V8.75391C15.4014 8.30566 15.1289 8.01562 14.6895 8.01562C14.3906 8.01562 14.1885 8.09473 13.8545 8.34961L12.6328 9.21973C12.4131 9.39551 12.2988 9.5625 12.2988 9.81738C12.2988 10.125 12.5625 10.3799 12.8438 10.3799C13.0107 10.3799 13.1162 10.3447 13.3184 10.1777L14.1357 9.54492H14.1797V14.6162C14.1797 15.0293 14.4082 15.2666 14.7861 15.2666Z" fill="#1C1C1E"/>
</g>
<defs>
<clipPath id="clip0_10_2223">
<rect width="24" height="24" fill="white"/>
</clipPath>
</defs>
</svg>
