<svg width="24" height="24" viewBox="0 0 24 24" fill="none" xmlns="http://www.w3.org/2000/svg">
<g clip-path="url(#clip0_10_2219)">
<path d="M6.67383 19.8809H17.3174C19.2246 19.8809 20.209 18.8965 20.209 17.0156V6.31934C20.209 4.43848 19.2246 3.4541 17.3174 3.4541H6.67383C4.77539 3.4541 3.78223 4.42969 3.78223 6.31934V17.0156C3.78223 18.8965 4.77539 19.8809 6.67383 19.8809ZM6.78809 18.1318C5.97949 18.1318 5.53125 17.71 5.53125 16.8574V6.47754C5.53125 5.625 5.97949 5.20312 6.78809 5.20312H17.2031C18.0029 5.20312 18.46 5.625 18.46 6.47754V16.8574C18.46 17.71 18.0029 18.1318 17.2031 18.1318H6.78809ZM10.2158 15.2666C10.6025 15.2666 10.8311 15.0205 10.8311 14.6074V8.74512C10.8311 8.29688 10.5586 8.00684 10.1191 8.00684C9.82031 8.00684 9.61816 8.09473 9.28418 8.34961L8.0625 9.21094C7.85156 9.38672 7.72852 9.5625 7.72852 9.80859C7.72852 10.1162 7.99219 10.3711 8.27344 10.3711C8.44043 10.3711 8.5459 10.3359 8.74805 10.1689L9.56543 9.54492H9.60938V14.6074C9.60938 15.0205 9.83789 15.2666 10.2158 15.2666ZM14.7949 15.2666C15.1816 15.2666 15.4189 15.0205 15.4189 14.6074V8.74512C15.4189 8.29688 15.1377 8.00684 14.707 8.00684C14.3994 8.00684 14.2061 8.09473 13.8721 8.34961L12.6504 9.21094C12.4307 9.38672 12.3164 9.5625 12.3164 9.80859C12.3164 10.1162 12.5713 10.3711 12.8525 10.3711C13.0283 10.3711 13.1338 10.3359 13.3359 10.1689L14.1445 9.54492H14.1973V14.6074C14.1973 15.0205 14.4258 15.2666 14.7949 15.2666Z" fill="#1C1C1E"/>
</g>
<defs>
<clipPath id="clip0_10_2219">
<rect width="24" height="24" fill="white"/>
</clipPath>
</defs>
</svg>
