<svg width="24" height="24" viewBox="0 0 24 24" fill="none" xmlns="http://www.w3.org/2000/svg">
<g clip-path="url(#clip0_10_2246)">
<path d="M6.67383 19.8809H17.3174C19.2246 19.8809 20.209 18.8965 20.209 17.0156V6.31934C20.209 4.43848 19.2246 3.4541 17.3174 3.4541H6.67383C4.77539 3.4541 3.78223 4.42969 3.78223 6.31934V17.0156C3.78223 18.8965 4.77539 19.8809 6.67383 19.8809ZM10.1631 15.4072C9.76758 15.4072 9.53027 15.1523 9.53027 14.7217V9.46582H9.47754L8.64258 10.1162C8.43164 10.292 8.32617 10.3271 8.1416 10.3271C7.84277 10.3271 7.5791 10.0635 7.5791 9.73828C7.5791 9.4834 7.70215 9.29883 7.92188 9.12305L9.1875 8.21777C9.53906 7.9541 9.75 7.86621 10.0576 7.86621C10.5234 7.86621 10.8047 8.16504 10.8047 8.63086V14.7217C10.8047 15.1523 10.5674 15.4072 10.1631 15.4072ZM14.9355 15.4072C14.5312 15.4072 14.2939 15.1523 14.2939 14.7217V9.46582H14.25L13.415 10.1162C13.2041 10.292 13.0898 10.3271 12.9141 10.3271C12.624 10.3271 12.3516 10.0635 12.3516 9.73828C12.3516 9.4834 12.4658 9.29883 12.6943 9.12305L13.9512 8.21777C14.3027 7.9541 14.5137 7.86621 14.8301 7.86621C15.2959 7.86621 15.5771 8.16504 15.5771 8.63086V14.7217C15.5771 15.1523 15.3398 15.4072 14.9355 15.4072Z" fill="#1C1C1E"/>
</g>
<defs>
<clipPath id="clip0_10_2246">
<rect width="24" height="24" fill="white"/>
</clipPath>
</defs>
</svg>
