<svg width="24" height="24" viewBox="0 0 24 24" fill="none" xmlns="http://www.w3.org/2000/svg">
<g clip-path="url(#clip0_10_2221)">
<path d="M11.9912 20.7422C16.9746 20.7422 21.0879 16.6289 21.0879 11.6543C21.0879 6.67969 16.9658 2.56641 11.9824 2.56641C7.00781 2.56641 2.90332 6.67969 2.90332 11.6543C2.90332 16.6289 7.0166 20.7422 11.9912 20.7422ZM12.6152 15.3018C12.2549 15.3018 12 15.0645 12 14.6865C12 14.4668 12.0791 14.291 12.2549 14.0801L14.4521 11.5049C14.8828 11.0039 15.3223 10.5381 15.3223 9.99316C15.3223 9.39551 14.8916 8.99121 14.2412 8.99121C13.6699 8.99121 13.2568 9.29883 13.0547 9.90527C12.9404 10.1777 12.7822 10.3535 12.4834 10.3535C12.1406 10.3535 11.9209 10.1162 11.9209 9.75586C11.9209 9.6416 11.9473 9.52734 11.9648 9.4043C12.2109 8.48145 13.1514 7.82227 14.2236 7.82227C15.6211 7.82227 16.5176 8.63086 16.5264 9.87891C16.5264 10.7578 16.0605 11.3994 15.3838 12.1904L13.8105 14.0273V14.0977H16.1396C16.4824 14.0977 16.7285 14.3174 16.7285 14.6953C16.7285 15.0645 16.4824 15.3018 16.1396 15.3018H12.6152ZM9.62695 15.4072C9.23145 15.4072 8.99414 15.1611 8.99414 14.7217V9.47461H8.94141L8.10645 10.1162C7.88672 10.292 7.79004 10.3271 7.59668 10.3271C7.30664 10.3271 7.03418 10.0635 7.03418 9.73828C7.03418 9.4834 7.15723 9.29883 7.38574 9.12305L8.65137 8.21777C9.00293 7.9541 9.21387 7.86621 9.52148 7.86621C9.97852 7.86621 10.2686 8.16504 10.2686 8.63086V14.7217C10.2686 15.1611 10.0225 15.4072 9.62695 15.4072Z" fill="#1C1C1E"/>
</g>
<defs>
<clipPath id="clip0_10_2221">
<rect width="24" height="24" fill="white"/>
</clipPath>
</defs>
</svg>
