<svg width="24" height="24" viewBox="0 0 24 24" fill="none" xmlns="http://www.w3.org/2000/svg">
<g clip-path="url(#clip0_10_2253)">
<path d="M11.9912 20.7422C16.9746 20.7422 21.0879 16.6289 21.0879 11.6543C21.0879 6.67969 16.9658 2.56641 11.9824 2.56641C7.00781 2.56641 2.90332 6.67969 2.90332 11.6543C2.90332 16.6289 7.0166 20.7422 11.9912 20.7422ZM11.9912 18.9316C7.95703 18.9316 4.73145 15.6885 4.73145 11.6543C4.73145 7.62012 7.95703 4.38574 11.9824 4.38574C16.0166 4.38574 19.2598 7.62012 19.2686 11.6543C19.2773 15.6885 16.0254 18.9316 11.9912 18.9316ZM12.5801 15.1699H15.9814C16.3066 15.1699 16.5352 14.9414 16.5352 14.5811C16.5352 14.2207 16.3066 14.0098 15.9814 14.0098H13.7227V13.957L15.252 12.1729C15.9023 11.417 16.3506 10.793 16.3506 9.94922C16.3418 8.75391 15.4805 7.96289 14.1357 7.96289C13.0986 7.96289 12.1934 8.61328 11.9648 9.50098C11.9385 9.61523 11.9209 9.7207 11.9209 9.83496C11.9209 10.1777 12.123 10.4062 12.457 10.4062C12.7471 10.4062 12.8965 10.2393 13.002 9.9668C13.1953 9.38672 13.5908 9.08789 14.1533 9.08789C14.7773 9.08789 15.1904 9.4834 15.1904 10.0547C15.1904 10.582 14.7686 11.0303 14.3643 11.5137L12.2373 14.0098C12.0703 14.1943 12 14.3789 12 14.5811C12 14.9414 12.2373 15.1699 12.5801 15.1699ZM9.70605 15.2666C10.0928 15.2666 10.3213 15.0293 10.3213 14.6162V8.75391C10.3213 8.30566 10.0488 8.01562 9.60938 8.01562C9.31055 8.01562 9.1084 8.09473 8.77441 8.34961L7.55273 9.21973C7.3418 9.39551 7.22754 9.5625 7.22754 9.81738C7.22754 10.125 7.48242 10.3799 7.76367 10.3799C7.93945 10.3799 8.03613 10.3447 8.23828 10.1777L9.05566 9.54492H9.09961V14.6162C9.09961 15.0293 9.32812 15.2666 9.70605 15.2666Z" fill="#1C1C1E"/>
</g>
<defs>
<clipPath id="clip0_10_2253">
<rect width="24" height="24" fill="white"/>
</clipPath>
</defs>
</svg>
