<svg width="24" height="24" viewBox="0 0 24 24" fill="none" xmlns="http://www.w3.org/2000/svg">
<g clip-path="url(#clip0_10_1931)">
<path d="M6.67383 19.8809H17.3174C19.2246 19.8809 20.209 18.8965 20.209 17.0156V6.31934C20.209 4.43848 19.2246 3.4541 17.3174 3.4541H6.67383C4.77539 3.4541 3.78223 4.42969 3.78223 6.31934V17.0156C3.78223 18.8965 4.77539 19.8809 6.67383 19.8809ZM12.6504 15.3018C12.29 15.3018 12.0352 15.0645 12.0352 14.6865C12.0352 14.4668 12.1143 14.291 12.2988 14.0801L14.4873 11.5049C14.918 11.0039 15.3574 10.5381 15.3574 9.99316C15.3574 9.39551 14.9268 8.99121 14.2764 8.99121C13.7051 8.99121 13.292 9.29883 13.0898 9.90527C12.9756 10.1777 12.8174 10.3535 12.5186 10.3535C12.1758 10.3535 11.9561 10.1162 11.9561 9.75586C11.9561 9.6416 11.9824 9.52734 12 9.4043C12.2461 8.48145 13.1865 7.82227 14.2588 7.82227C15.665 7.82227 16.5527 8.63086 16.5615 9.87891C16.5615 10.7578 16.0957 11.3994 15.4189 12.1904L13.8457 14.0273V14.0977H16.1748C16.5176 14.0977 16.7637 14.3174 16.7637 14.6953C16.7637 15.0645 16.5176 15.3018 16.1748 15.3018H12.6504ZM9.66211 15.4072C9.2666 15.4072 9.0293 15.1611 9.0293 14.7217V9.47461H8.97656L8.1416 10.1162C7.93066 10.292 7.8252 10.3271 7.64062 10.3271C7.3418 10.3271 7.06934 10.0635 7.06934 9.73828C7.06934 9.4834 7.19238 9.29883 7.4209 9.12305L8.68652 8.21777C9.03809 7.9541 9.24902 7.86621 9.55664 7.86621C10.0137 7.86621 10.3037 8.16504 10.3037 8.63086V14.7217C10.3037 15.1611 10.0576 15.4072 9.66211 15.4072Z" fill="#1C1C1E"/>
</g>
<defs>
<clipPath id="clip0_10_1931">
<rect width="24" height="24" fill="white"/>
</clipPath>
</defs>
</svg>
