<svg width="24" height="24" viewBox="0 0 24 24" fill="none" xmlns="http://www.w3.org/2000/svg">
<g clip-path="url(#clip0_10_2315)">
<path d="M6.67383 19.8809H17.3174C19.2246 19.8809 20.209 18.8965 20.209 17.0156V6.31934C20.209 4.43848 19.2246 3.4541 17.3174 3.4541H6.67383C4.77539 3.4541 3.78223 4.42969 3.78223 6.31934V17.0156C3.78223 18.8965 4.77539 19.8809 6.67383 19.8809ZM6.78809 18.1318C5.97949 18.1318 5.53125 17.71 5.53125 16.8574V6.47754C5.53125 5.625 5.97949 5.20312 6.78809 5.20312H17.2031C18.0029 5.20312 18.46 5.625 18.46 6.47754V16.8574C18.46 17.71 18.0029 18.1318 17.2031 18.1318H6.78809ZM12.5977 15.1611H15.999C16.3242 15.1611 16.5527 14.9326 16.5527 14.5811C16.5527 14.2207 16.3242 14.0098 15.999 14.0098H13.7314V13.9482L15.2607 12.1641C15.9111 11.4082 16.3682 10.793 16.3594 9.94922C16.3594 8.74512 15.498 7.96289 14.1445 7.96289C13.1162 7.96289 12.2109 8.60449 11.9824 9.49219C11.9561 9.60645 11.9385 9.71191 11.9385 9.82617C11.9385 10.1689 12.1406 10.3975 12.4746 10.3975C12.7559 10.3975 12.9053 10.2305 13.0195 9.9668C13.2129 9.37793 13.6084 9.08789 14.1709 9.08789C14.7949 9.08789 15.208 9.47461 15.208 10.0547C15.208 10.582 14.7861 11.0215 14.373 11.5137L12.2549 14.001C12.0879 14.1943 12.0176 14.3701 12.0176 14.5723C12.0176 14.9326 12.2461 15.1611 12.5977 15.1611ZM9.72363 15.2666C10.1104 15.2666 10.3389 15.0205 10.3389 14.6074V8.74512C10.3389 8.29688 10.0664 8.00684 9.62695 8.00684C9.32812 8.00684 9.12598 8.09473 8.79199 8.34961L7.57031 9.21094C7.35938 9.38672 7.24512 9.5625 7.24512 9.80859C7.24512 10.1162 7.5 10.3711 7.78125 10.3711C7.94824 10.3711 8.05371 10.3359 8.25586 10.1689L9.07324 9.54492H9.11719V14.6074C9.11719 15.0205 9.3457 15.2666 9.72363 15.2666Z" fill="#1C1C1E"/>
</g>
<defs>
<clipPath id="clip0_10_2315">
<rect width="24" height="24" fill="white"/>
</clipPath>
</defs>
</svg>
