<svg width="24" height="24" viewBox="0 0 24 24" fill="none" xmlns="http://www.w3.org/2000/svg">
<g clip-path="url(#clip0_10_1930)">
<path d="M11.9912 20.7422C16.9746 20.7422 21.0879 16.6289 21.0879 11.6543C21.0879 6.67969 16.9658 2.56641 11.9824 2.56641C7.00781 2.56641 2.90332 6.67969 2.90332 11.6543C2.90332 16.6289 7.0166 20.7422 11.9912 20.7422ZM11.9912 18.9316C7.95703 18.9316 4.73145 15.6885 4.73145 11.6543C4.73145 7.62012 7.95703 4.38574 11.9824 4.38574C16.0166 4.38574 19.2598 7.62012 19.2686 11.6543C19.2773 15.6885 16.0254 18.9316 11.9912 18.9316ZM14.0215 15.3545C15.4893 15.3545 16.5088 14.4844 16.5088 13.2363C16.5088 12.3311 15.8936 11.5928 15.0498 11.5137V11.4521C15.7441 11.3379 16.2891 10.6348 16.2891 9.84375C16.2891 8.73633 15.3838 7.96289 14.0654 7.96289C12.9053 7.96289 12.0615 8.63965 11.8418 9.42188C11.8066 9.55371 11.7979 9.65039 11.7979 9.77344C11.7979 10.125 12.0176 10.3447 12.334 10.3447C12.6152 10.3447 12.7646 10.2041 12.8701 9.93164C13.0635 9.37793 13.4414 9.0791 14.0391 9.0791C14.6543 9.0791 15.085 9.45703 15.085 10.0107C15.085 10.5732 14.6631 10.9951 14.0391 10.9951H13.6436C13.3184 10.9951 13.0986 11.2148 13.0986 11.5576C13.0986 11.8828 13.3008 12.1289 13.6436 12.1289H14.0742C14.8037 12.1289 15.2695 12.542 15.2695 13.166C15.2695 13.7637 14.7686 14.2207 14.0303 14.2207C13.4238 14.2207 12.9844 13.9219 12.7559 13.3682C12.6416 13.0957 12.4746 12.9639 12.2109 12.9639C11.9121 12.9639 11.666 13.1836 11.666 13.5264C11.666 13.6582 11.6836 13.7549 11.7188 13.8691C11.9385 14.6426 12.8613 15.3545 14.0215 15.3545ZM9.68848 15.2666C10.0752 15.2666 10.3037 15.0293 10.3037 14.6162V8.75391C10.3037 8.30566 10.0312 8.01562 9.5918 8.01562C9.29297 8.01562 9.09082 8.09473 8.75684 8.34961L7.53516 9.21973C7.32422 9.39551 7.20996 9.5625 7.20996 9.81738C7.20996 10.125 7.46484 10.3799 7.74609 10.3799C7.92188 10.3799 8.01855 10.3447 8.2207 10.1777L9.03809 9.54492H9.09082V14.6162C9.09082 15.0293 9.31055 15.2666 9.68848 15.2666Z" fill="#1C1C1E"/>
</g>
<defs>
<clipPath id="clip0_10_1930">
<rect width="24" height="24" fill="white"/>
</clipPath>
</defs>
</svg>
