<svg width="24" height="24" viewBox="0 0 24 24" fill="none" xmlns="http://www.w3.org/2000/svg">
<g clip-path="url(#clip0_10_1929)">
<path d="M11.9912 20.7422C16.9746 20.7422 21.0879 16.6289 21.0879 11.6543C21.0879 6.67969 16.9658 2.56641 11.9824 2.56641C7.00781 2.56641 2.90332 6.67969 2.90332 11.6543C2.90332 16.6289 7.0166 20.7422 11.9912 20.7422ZM14.1094 15.4951C12.9053 15.4951 11.9473 14.7568 11.71 13.957C11.6748 13.834 11.6572 13.7285 11.6572 13.5967C11.6572 13.2363 11.9209 12.999 12.2285 12.999C12.5098 12.999 12.6768 13.1396 12.7998 13.4209C13.0371 14.001 13.4854 14.3086 14.1182 14.3086C14.8828 14.3086 15.3926 13.834 15.3926 13.2275C15.3926 12.5684 14.918 12.1465 14.1621 12.1465H13.7227C13.3623 12.1465 13.1514 11.8916 13.1514 11.5576C13.1514 11.1885 13.3799 10.9512 13.7227 10.9512H14.127C14.7686 10.9512 15.208 10.5205 15.208 9.94043C15.208 9.36914 14.7598 8.98242 14.127 8.98242C13.5117 8.98242 13.1162 9.29004 12.9141 9.87012C12.8086 10.1514 12.6504 10.292 12.3604 10.292C12.0176 10.292 11.7979 10.0547 11.7979 9.69434C11.7979 9.5625 11.8066 9.45703 11.8418 9.3252C12.0703 8.5166 12.9492 7.81348 14.1533 7.81348C15.5244 7.81348 16.4648 8.60449 16.4648 9.76465C16.4648 10.582 15.9023 11.3203 15.1816 11.4346V11.4961C16.0605 11.584 16.6934 12.3398 16.6934 13.2891C16.6934 14.5898 15.6387 15.4951 14.1094 15.4951ZM9.60938 15.4072C9.21387 15.4072 8.97656 15.1523 8.97656 14.7217V9.46582H8.92383L8.08887 10.1162C7.87793 10.292 7.77246 10.3271 7.58789 10.3271C7.28906 10.3271 7.0166 10.0635 7.0166 9.73828C7.0166 9.4834 7.14844 9.29883 7.36816 9.12305L8.63379 8.21777C8.98535 7.9541 9.1875 7.86621 9.50391 7.86621C9.96094 7.86621 10.251 8.16504 10.251 8.63086V14.7217C10.251 15.1523 10.0049 15.4072 9.60938 15.4072Z" fill="#1C1C1E"/>
</g>
<defs>
<clipPath id="clip0_10_1929">
<rect width="24" height="24" fill="white"/>
</clipPath>
</defs>
</svg>
