<svg width="24" height="24" viewBox="0 0 24 24" fill="none" xmlns="http://www.w3.org/2000/svg">
<g clip-path="url(#clip0_10_1927)">
<path d="M6.67383 19.8809H17.3174C19.2246 19.8809 20.209 18.8965 20.209 17.0156V6.31934C20.209 4.43848 19.2246 3.4541 17.3174 3.4541H6.67383C4.77539 3.4541 3.78223 4.42969 3.78223 6.31934V17.0156C3.78223 18.8965 4.77539 19.8809 6.67383 19.8809ZM14.1445 15.4951C12.9404 15.4951 11.9824 14.7568 11.7451 13.957C11.71 13.834 11.6924 13.7285 11.6924 13.5967C11.6924 13.2363 11.9561 12.999 12.2725 12.999C12.5449 12.999 12.7119 13.1396 12.835 13.4209C13.0723 14.001 13.5205 14.3086 14.1533 14.3086C14.918 14.3086 15.4277 13.834 15.4277 13.2275C15.4277 12.5684 14.9531 12.1465 14.1973 12.1465H13.7578C13.3975 12.1465 13.1865 11.8916 13.1865 11.5576C13.1865 11.1885 13.415 10.9512 13.7578 10.9512H14.1621C14.8037 10.9512 15.2432 10.5205 15.2432 9.94043C15.2432 9.36914 14.7949 8.98242 14.1621 8.98242C13.5469 8.98242 13.1514 9.29004 12.958 9.87012C12.8438 10.1514 12.6855 10.292 12.3955 10.292C12.0527 10.292 11.833 10.0547 11.833 9.69434C11.833 9.5625 11.8418 9.45703 11.877 9.3252C12.1055 8.5166 12.9932 7.81348 14.1885 7.81348C15.5596 7.81348 16.5 8.60449 16.5 9.76465C16.5 10.582 15.9375 11.3203 15.2168 11.4346V11.4961C16.0957 11.584 16.7285 12.3398 16.7285 13.2891C16.7285 14.5898 15.6738 15.4951 14.1445 15.4951ZM9.64453 15.4072C9.24902 15.4072 9.01172 15.1523 9.01172 14.7217V9.46582H8.95898L8.12402 10.1162C7.91309 10.292 7.80762 10.3271 7.62305 10.3271C7.32422 10.3271 7.06055 10.0635 7.06055 9.73828C7.06055 9.4834 7.18359 9.29883 7.40332 9.12305L8.66895 8.21777C9.02051 7.9541 9.23145 7.86621 9.53906 7.86621C9.99609 7.86621 10.2861 8.16504 10.2861 8.63086V14.7217C10.2861 15.1523 10.04 15.4072 9.64453 15.4072Z" fill="#1C1C1E"/>
</g>
<defs>
<clipPath id="clip0_10_1927">
<rect width="24" height="24" fill="white"/>
</clipPath>
</defs>
</svg>
