<svg width="24" height="24" viewBox="0 0 24 24" fill="none" xmlns="http://www.w3.org/2000/svg">
<g clip-path="url(#clip0_10_1928)">
<path d="M6.67383 19.8809H17.3174C19.2246 19.8809 20.209 18.8965 20.209 17.0156V6.31934C20.209 4.43848 19.2246 3.4541 17.3174 3.4541H6.67383C4.77539 3.4541 3.78223 4.42969 3.78223 6.31934V17.0156C3.78223 18.8965 4.77539 19.8809 6.67383 19.8809ZM6.78809 18.1318C5.97949 18.1318 5.53125 17.71 5.53125 16.8574V6.47754C5.53125 5.625 5.97949 5.20312 6.78809 5.20312H17.2031C18.0029 5.20312 18.46 5.625 18.46 6.47754V16.8574C18.46 17.71 18.0029 18.1318 17.2031 18.1318H6.78809ZM14.0303 15.3457C15.5068 15.3457 16.5176 14.4756 16.5176 13.2275C16.5176 12.3223 15.9111 11.584 15.0586 11.5049V11.4521C15.7617 11.3291 16.3066 10.626 16.3066 9.83496C16.3066 8.72754 15.3926 7.96289 14.083 7.96289C12.9229 7.96289 12.0791 8.63086 11.8594 9.41309C11.8242 9.54492 11.8154 9.6416 11.8154 9.77344C11.8154 10.1162 12.0264 10.3447 12.3516 10.3447C12.624 10.3447 12.7822 10.2041 12.8789 9.93164C13.0723 9.36914 13.4502 9.07031 14.0566 9.07031C14.6631 9.07031 15.0938 9.44824 15.0938 10.002C15.0938 10.5645 14.6807 10.9863 14.0479 10.9863H13.6611C13.3359 10.9863 13.1162 11.2148 13.1162 11.5576C13.1162 11.874 13.3184 12.1201 13.6611 12.1201H14.083C14.8213 12.1201 15.2871 12.5332 15.2871 13.166C15.2871 13.7549 14.7773 14.2207 14.0479 14.2207C13.4414 14.2207 13.002 13.9219 12.7734 13.3594C12.6592 13.0957 12.4922 12.9551 12.2285 12.9551C11.9297 12.9551 11.6836 13.1748 11.6836 13.5264C11.6836 13.6494 11.7012 13.7461 11.7363 13.8691C11.9561 14.6426 12.8789 15.3457 14.0303 15.3457ZM9.70605 15.2666C10.0928 15.2666 10.3213 15.0205 10.3213 14.6074V8.74512C10.3213 8.29688 10.0488 8.00684 9.60938 8.00684C9.31055 8.00684 9.1084 8.09473 8.77441 8.34961L7.55273 9.21094C7.3418 9.38672 7.22754 9.5625 7.22754 9.80859C7.22754 10.1162 7.48242 10.3711 7.76367 10.3711C7.93945 10.3711 8.03613 10.3359 8.23828 10.1689L9.05566 9.54492H9.09961V14.6074C9.09961 15.0205 9.32812 15.2666 9.70605 15.2666Z" fill="#1C1C1E"/>
</g>
<defs>
<clipPath id="clip0_10_1928">
<rect width="24" height="24" fill="white"/>
</clipPath>
</defs>
</svg>
