<svg width="24" height="24" viewBox="0 0 24 24" fill="none" xmlns="http://www.w3.org/2000/svg">
<g clip-path="url(#clip0_10_1926)">
<path d="M11.9912 20.7422C16.9746 20.7422 21.0879 16.6289 21.0879 11.6543C21.0879 6.67969 16.9658 2.56641 11.9824 2.56641C7.00781 2.56641 2.90332 6.67969 2.90332 11.6543C2.90332 16.6289 7.0166 20.7422 11.9912 20.7422ZM11.9912 18.9316C7.95703 18.9316 4.73145 15.6885 4.73145 11.6543C4.73145 7.62012 7.95703 4.38574 11.9824 4.38574C16.0166 4.38574 19.2598 7.62012 19.2686 11.6543C19.2773 15.6885 16.0254 18.9316 11.9912 18.9316ZM15.2432 15.3457C15.6211 15.3457 15.832 15.082 15.832 14.7217V13.79H16.2363C16.5615 13.79 16.7637 13.5967 16.7637 13.2627C16.7637 12.9199 16.5615 12.7178 16.2363 12.7178H15.832V8.89453C15.832 8.33203 15.4629 7.96289 14.874 7.96289C14.3203 7.96289 13.9775 8.18262 13.6875 8.70996C13.0283 9.83496 12.2373 11.25 11.7188 12.208C11.5869 12.498 11.5166 12.7178 11.5166 12.9902C11.5166 13.5 11.833 13.7988 12.334 13.7988H14.6719V14.7217C14.6719 15.0732 14.8828 15.3457 15.2432 15.3457ZM9.62695 15.2666C10.0137 15.2666 10.2422 15.0293 10.2422 14.6162V8.75391C10.2422 8.30566 9.96973 8.01562 9.53027 8.01562C9.23145 8.01562 9.03809 8.09473 8.69531 8.34961L7.48242 9.21973C7.2627 9.39551 7.14844 9.5625 7.14844 9.81738C7.14844 10.125 7.40332 10.3799 7.68457 10.3799C7.86035 10.3799 7.96582 10.3447 8.16797 10.1777L8.97656 9.54492H9.0293V14.6162C9.0293 15.0293 9.24902 15.2666 9.62695 15.2666ZM14.6719 12.7178H12.7646V12.6826C13.2129 11.7773 14.0215 10.3184 14.6279 9.2373H14.6719V12.7178Z" fill="#1C1C1E"/>
</g>
<defs>
<clipPath id="clip0_10_1926">
<rect width="24" height="24" fill="white"/>
</clipPath>
</defs>
</svg>
