<svg width="24" height="24" viewBox="0 0 24 24" fill="none" xmlns="http://www.w3.org/2000/svg">
<g clip-path="url(#clip0_10_1925)">
<path d="M11.9912 20.7422C16.9746 20.7422 21.0879 16.6289 21.0879 11.6543C21.0879 6.67969 16.9658 2.56641 11.9824 2.56641C7.00781 2.56641 2.90332 6.67969 2.90332 11.6543C2.90332 16.6289 7.0166 20.7422 11.9912 20.7422ZM15.375 15.4863C14.9883 15.4863 14.7773 15.2051 14.7773 14.8271V13.8779H12.3516C11.833 13.8779 11.499 13.5703 11.499 13.043C11.499 12.7529 11.5605 12.5156 11.71 12.2168C12.2373 11.2148 13.0635 9.75586 13.7402 8.58691C14.0479 8.04199 14.4082 7.81348 14.9883 7.81348C15.6035 7.81348 15.9814 8.2002 15.9814 8.78906V12.7441H16.4033C16.7461 12.7441 16.957 12.9639 16.957 13.3242C16.957 13.667 16.7461 13.8779 16.4033 13.8779H15.9814V14.8271C15.9814 15.2139 15.7705 15.4863 15.375 15.4863ZM9.53906 15.4072C9.14355 15.4072 8.90625 15.1523 8.90625 14.7217V9.46582H8.85352L8.01855 10.1162C7.79883 10.292 7.69336 10.3271 7.51758 10.3271C7.21875 10.3271 6.94629 10.0635 6.94629 9.73828C6.94629 9.4834 7.06934 9.29883 7.29785 9.12305L8.56348 8.21777C8.90625 7.9541 9.11719 7.86621 9.43359 7.86621C9.89941 7.86621 10.1807 8.16504 10.1807 8.63086V14.7217C10.1807 15.1523 9.94336 15.4072 9.53906 15.4072ZM14.7773 12.7529V9.14062H14.7334C14.0918 10.2656 13.2744 11.7773 12.8086 12.709V12.7529H14.7773Z" fill="#1C1C1E"/>
</g>
<defs>
<clipPath id="clip0_10_1925">
<rect width="24" height="24" fill="white"/>
</clipPath>
</defs>
</svg>
