<svg width="24" height="24" viewBox="0 0 24 24" fill="none" xmlns="http://www.w3.org/2000/svg">
<g clip-path="url(#clip0_10_1924)">
<path d="M6.67383 19.8809H17.3174C19.2246 19.8809 20.209 18.8965 20.209 17.0156V6.31934C20.209 4.43848 19.2246 3.4541 17.3174 3.4541H6.67383C4.77539 3.4541 3.78223 4.42969 3.78223 6.31934V17.0156C3.78223 18.8965 4.77539 19.8809 6.67383 19.8809ZM6.78809 18.1318C5.97949 18.1318 5.53125 17.71 5.53125 16.8574V6.47754C5.53125 5.625 5.97949 5.20312 6.78809 5.20312H17.2031C18.0029 5.20312 18.46 5.625 18.46 6.47754V16.8574C18.46 17.71 18.0029 18.1318 17.2031 18.1318H6.78809ZM15.2607 15.3369C15.6387 15.3369 15.8408 15.0732 15.8408 14.7129V13.79H16.2451C16.5791 13.79 16.7812 13.5879 16.7812 13.2539C16.7812 12.9111 16.5703 12.709 16.2451 12.709H15.8408V8.89453C15.8408 8.32324 15.4717 7.96289 14.8916 7.96289C14.3291 7.96289 13.9951 8.17383 13.6963 8.70117C13.0459 9.82617 12.2461 11.2412 11.7363 12.208C11.5957 12.4893 11.5342 12.7178 11.5342 12.9902C11.5342 13.4912 11.8506 13.79 12.3428 13.79H14.6895V14.7129C14.6895 15.0732 14.8916 15.3369 15.2607 15.3369ZM9.64453 15.2666C10.0312 15.2666 10.2598 15.0205 10.2598 14.6074V8.74512C10.2598 8.29688 9.9873 8.00684 9.54785 8.00684C9.24902 8.00684 9.04688 8.09473 8.71289 8.34961L7.49121 9.21094C7.28027 9.38672 7.16602 9.5625 7.16602 9.80859C7.16602 10.1162 7.4209 10.3711 7.70215 10.3711C7.87793 10.3711 7.97461 10.3359 8.17676 10.1689L8.99414 9.54492H9.03809V14.6074C9.03809 15.0205 9.2666 15.2666 9.64453 15.2666ZM14.6895 12.7178H12.7734V12.6738C13.2305 11.7773 14.0303 10.3096 14.6455 9.22852H14.6895V12.7178Z" fill="#1C1C1E"/>
</g>
<defs>
<clipPath id="clip0_10_1924">
<rect width="24" height="24" fill="white"/>
</clipPath>
</defs>
</svg>
