<svg width="24" height="24" viewBox="0 0 24 24" fill="none" xmlns="http://www.w3.org/2000/svg">
<g clip-path="url(#clip0_10_1922)">
<path d="M6.67383 19.8809H17.3174C19.2246 19.8809 20.209 18.8965 20.209 17.0156V6.31934C20.209 4.43848 19.2246 3.4541 17.3174 3.4541H6.67383C4.77539 3.4541 3.78223 4.42969 3.78223 6.31934V17.0156C3.78223 18.8965 4.77539 19.8809 6.67383 19.8809ZM15.4102 15.4863C15.0322 15.4863 14.8125 15.2051 14.8125 14.8271V13.8779H12.3867C11.8682 13.8779 11.5342 13.5703 11.5342 13.043C11.5342 12.7529 11.5957 12.5156 11.7451 12.2168C12.2812 11.2148 13.0986 9.75586 13.7754 8.58691C14.083 8.04199 14.4434 7.81348 15.0234 7.81348C15.6387 7.81348 16.0166 8.2002 16.0166 8.78906V12.7441H16.4385C16.7812 12.7441 16.9922 12.9639 16.9922 13.3242C16.9922 13.667 16.7812 13.8779 16.4385 13.8779H16.0166V14.8271C16.0166 15.2139 15.8057 15.4863 15.4102 15.4863ZM9.57422 15.4072C9.17871 15.4072 8.94141 15.1523 8.94141 14.7217V9.46582H8.88867L8.05371 10.1162C7.83398 10.292 7.72852 10.3271 7.55273 10.3271C7.25391 10.3271 6.98145 10.0635 6.98145 9.73828C6.98145 9.4834 7.11328 9.29883 7.33301 9.12305L8.59863 8.21777C8.94141 7.9541 9.15234 7.86621 9.46875 7.86621C9.93457 7.86621 10.2246 8.16504 10.2246 8.63086V14.7217C10.2246 15.1523 9.97852 15.4072 9.57422 15.4072ZM14.8125 12.7529V9.14062H14.7686C14.127 10.2656 13.3096 11.7773 12.8438 12.709V12.7529H14.8125Z" fill="#1C1C1E"/>
</g>
<defs>
<clipPath id="clip0_10_1922">
<rect width="24" height="24" fill="white"/>
</clipPath>
</defs>
</svg>
