<svg width="24" height="24" viewBox="0 0 24 24" fill="none" xmlns="http://www.w3.org/2000/svg">
<g clip-path="url(#clip0_10_1923)">
<path d="M11.9912 20.7422C16.9746 20.7422 21.0879 16.6289 21.0879 11.6543C21.0879 6.67969 16.9658 2.56641 11.9824 2.56641C7.00781 2.56641 2.90332 6.67969 2.90332 11.6543C2.90332 16.6289 7.0166 20.7422 11.9912 20.7422ZM11.9912 18.9316C7.95703 18.9316 4.73145 15.6885 4.73145 11.6543C4.73145 7.62012 7.95703 4.38574 11.9824 4.38574C16.0166 4.38574 19.2598 7.62012 19.2686 11.6543C19.2773 15.6885 16.0254 18.9316 11.9912 18.9316ZM9.57422 15.2666C9.96094 15.2666 10.1895 15.0293 10.1895 14.6162V8.75391C10.1895 8.30566 9.91699 8.01562 9.47754 8.01562C9.17871 8.01562 8.97656 8.09473 8.64258 8.34961L7.42969 9.21973C7.20996 9.39551 7.0957 9.5625 7.0957 9.81738C7.0957 10.125 7.35059 10.3799 7.63184 10.3799C7.80762 10.3799 7.9043 10.3447 8.10645 10.1777L8.92383 9.54492H8.97656V14.6162C8.97656 15.0293 9.19629 15.2666 9.57422 15.2666ZM14.0742 15.3545C15.6123 15.3545 16.6055 14.4141 16.6055 12.8848C16.6055 11.5488 15.709 10.626 14.4434 10.626C13.8809 10.626 13.292 10.8984 13.0283 11.2939H12.9932L13.1426 9.21973H15.8408C16.1309 9.21973 16.3418 9 16.3418 8.6748C16.3418 8.34961 16.1396 8.13867 15.8408 8.13867H12.9404C12.4658 8.13867 12.1582 8.4375 12.1318 8.92969L11.9385 11.5488C11.9033 12.0234 12.167 12.3311 12.5889 12.3311C12.8877 12.3311 13.0547 12.252 13.3096 12.0498C13.6436 11.7598 13.8984 11.6455 14.2588 11.6455C14.9443 11.6455 15.4189 12.1992 15.4189 12.9199C15.4189 13.7461 14.9004 14.2559 14.1357 14.2559C13.5908 14.2559 13.1514 13.9658 12.9053 13.5088C12.7734 13.2803 12.6064 13.1396 12.3779 13.1396C12.0615 13.1396 11.833 13.377 11.833 13.6934C11.833 13.8428 11.8594 13.9746 11.9209 14.1064C12.167 14.7744 12.9932 15.3545 14.0742 15.3545Z" fill="#1C1C1E"/>
</g>
<defs>
<clipPath id="clip0_10_1923">
<rect width="24" height="24" fill="white"/>
</clipPath>
</defs>
</svg>
