<svg width="24" height="24" viewBox="0 0 24 24" fill="none" xmlns="http://www.w3.org/2000/svg">
<g clip-path="url(#clip0_10_1853)">
<path d="M11.9912 20.7422C16.9746 20.7422 21.0879 16.6289 21.0879 11.6543C21.0879 6.67969 16.9658 2.56641 11.9824 2.56641C7.00781 2.56641 2.90332 6.67969 2.90332 11.6543C2.90332 16.6289 7.0166 20.7422 11.9912 20.7422ZM9.58301 15.4072C9.17871 15.4072 8.94141 15.1523 8.94141 14.7217V9.46582H8.89746L8.0625 10.1162C7.85156 10.292 7.7373 10.3271 7.56152 10.3271C7.2627 10.3271 6.99902 10.0635 6.99902 9.73828C6.99902 9.4834 7.11328 9.29883 7.3418 9.12305L8.59863 8.21777C8.95898 7.9541 9.16113 7.85742 9.47754 7.85742C9.93457 7.85742 10.2246 8.16504 10.2246 8.63086V14.7217C10.2246 15.1523 9.97852 15.4072 9.58301 15.4072ZM14.2588 15.4951C13.1338 15.4951 12.2725 14.8975 12.0088 14.2031C11.9561 14.0625 11.9297 13.9219 11.9297 13.7637C11.9297 13.4297 12.1582 13.1836 12.4922 13.1836C12.7383 13.1836 12.9053 13.333 13.0547 13.5703C13.3008 14.0361 13.7578 14.3438 14.3203 14.3438C15.1113 14.3438 15.6475 13.8252 15.6475 12.9639C15.6475 12.2168 15.1553 11.6455 14.4434 11.6455C14.0742 11.6455 13.8193 11.7598 13.4766 12.0586C13.2041 12.2695 13.0283 12.3486 12.7119 12.3486C12.2725 12.3486 12 12.0322 12.0264 11.5312L12.2285 8.82422C12.2637 8.30566 12.5713 7.99805 13.0723 7.99805H16.0869C16.4033 7.99805 16.6055 8.21777 16.6055 8.55176C16.6055 8.89453 16.3945 9.12305 16.0869 9.12305H13.3008L13.1426 11.2676H13.1777C13.4414 10.8633 14.0566 10.582 14.6455 10.582C15.9551 10.582 16.8867 11.54 16.8867 12.9287C16.8867 14.5107 15.8584 15.4951 14.2588 15.4951Z" fill="#1C1C1E"/>
</g>
<defs>
<clipPath id="clip0_10_1853">
<rect width="24" height="24" fill="white"/>
</clipPath>
</defs>
</svg>
