<svg width="24" height="24" viewBox="0 0 24 24" fill="none" xmlns="http://www.w3.org/2000/svg">
<g clip-path="url(#clip0_10_2325)">
<path d="M6.67383 19.8809H17.3174C19.2246 19.8809 20.209 18.8965 20.209 17.0156V6.31934C20.209 4.43848 19.2246 3.4541 17.3174 3.4541H6.67383C4.77539 3.4541 3.78223 4.42969 3.78223 6.31934V17.0156C3.78223 18.8965 4.77539 19.8809 6.67383 19.8809ZM6.78809 18.1318C5.97949 18.1318 5.53125 17.71 5.53125 16.8574V6.47754C5.53125 5.625 5.97949 5.20312 6.78809 5.20312H17.2031C18.0029 5.20312 18.46 5.625 18.46 6.47754V16.8574C18.46 17.71 18.0029 18.1318 17.2031 18.1318H6.78809ZM9.5918 15.2666C9.97852 15.2666 10.207 15.0205 10.207 14.6074V8.74512C10.207 8.29688 9.93457 8.00684 9.49512 8.00684C9.19629 8.00684 8.99414 8.09473 8.66016 8.34961L7.43848 9.21094C7.22754 9.38672 7.11328 9.5625 7.11328 9.80859C7.11328 10.1162 7.36816 10.3711 7.64941 10.3711C7.8252 10.3711 7.92188 10.3359 8.12402 10.1689L8.94141 9.54492H8.98535V14.6074C8.98535 15.0205 9.21387 15.2666 9.5918 15.2666ZM14.0918 15.3457C15.6299 15.3457 16.623 14.4053 16.623 12.876C16.623 11.5488 15.7266 10.6172 14.4609 10.6172C13.8984 10.6172 13.3008 10.8896 13.0459 11.2852H13.0107L13.1602 9.21094H15.8496C16.1484 9.21094 16.3594 9 16.3594 8.66602C16.3594 8.34961 16.1572 8.13867 15.8496 8.13867H12.958C12.4746 8.13867 12.1758 8.42871 12.1406 8.92969L11.9473 11.54C11.9209 12.0234 12.1846 12.3223 12.6064 12.3223C12.8965 12.3223 13.0723 12.2432 13.3271 12.041C13.6611 11.7598 13.916 11.6367 14.2676 11.6367C14.9619 11.6367 15.4365 12.1904 15.4365 12.9111C15.4365 13.7461 14.918 14.2559 14.1533 14.2559C13.6084 14.2559 13.1602 13.957 12.9229 13.5C12.791 13.2715 12.624 13.1309 12.3867 13.1309C12.0791 13.1309 11.8506 13.3682 11.8506 13.6934C11.8506 13.834 11.877 13.9658 11.9297 14.0977C12.1846 14.7744 13.0107 15.3457 14.0918 15.3457Z" fill="#1C1C1E"/>
</g>
<defs>
<clipPath id="clip0_10_2325">
<rect width="24" height="24" fill="white"/>
</clipPath>
</defs>
</svg>
