<svg width="24" height="24" viewBox="0 0 24 24" fill="none" xmlns="http://www.w3.org/2000/svg">
<g clip-path="url(#clip0_10_2080)">
<path d="M6.67383 19.8809H17.3174C19.2246 19.8809 20.209 18.8965 20.209 17.0156V6.31934C20.209 4.43848 19.2246 3.4541 17.3174 3.4541H6.67383C4.77539 3.4541 3.78223 4.42969 3.78223 6.31934V17.0156C3.78223 18.8965 4.77539 19.8809 6.67383 19.8809ZM9.61816 15.4072C9.21387 15.4072 8.97656 15.1523 8.97656 14.7217V9.46582H8.93262L8.09766 10.1162C7.88672 10.292 7.77246 10.3271 7.59668 10.3271C7.29785 10.3271 7.03418 10.0635 7.03418 9.73828C7.03418 9.4834 7.14844 9.29883 7.37695 9.12305L8.63379 8.21777C8.99414 7.9541 9.19629 7.85742 9.5127 7.85742C9.97852 7.85742 10.2598 8.16504 10.2598 8.63086V14.7217C10.2598 15.1523 10.0225 15.4072 9.61816 15.4072ZM14.2939 15.4951C13.1689 15.4951 12.3076 14.8975 12.0439 14.2031C11.9912 14.0625 11.9648 13.9219 11.9648 13.7637C11.9648 13.4297 12.1934 13.1836 12.5273 13.1836C12.7822 13.1836 12.9404 13.333 13.0898 13.5703C13.3359 14.0361 13.793 14.3438 14.3555 14.3438C15.1465 14.3438 15.6826 13.8252 15.6826 12.9639C15.6826 12.2168 15.1904 11.6455 14.4785 11.6455C14.1094 11.6455 13.8545 11.7598 13.5117 12.0586C13.248 12.2695 13.0635 12.3486 12.7471 12.3486C12.3076 12.3486 12.0352 12.0322 12.0615 11.5312L12.2637 8.82422C12.2988 8.30566 12.6152 7.99805 13.1162 7.99805H16.1221C16.4473 7.99805 16.6494 8.21777 16.6494 8.55176C16.6494 8.89453 16.4297 9.12305 16.1221 9.12305H13.3359L13.1777 11.2676H13.2129C13.4766 10.8633 14.0918 10.582 14.6807 10.582C15.9902 10.582 16.9219 11.54 16.9219 12.9287C16.9219 14.5107 15.8936 15.4951 14.2939 15.4951Z" fill="#1C1C1E"/>
</g>
<defs>
<clipPath id="clip0_10_2080">
<rect width="24" height="24" fill="white"/>
</clipPath>
</defs>
</svg>
