<svg width="24" height="24" viewBox="0 0 24 24" fill="none" xmlns="http://www.w3.org/2000/svg">
<g clip-path="url(#clip0_10_1921)">
<path d="M11.9912 20.7422C16.9746 20.7422 21.0879 16.6289 21.0879 11.6543C21.0879 6.67969 16.9658 2.56641 11.9824 2.56641C7.00781 2.56641 2.90332 6.67969 2.90332 11.6543C2.90332 16.6289 7.0166 20.7422 11.9912 20.7422ZM11.9912 18.9316C7.95703 18.9316 4.73145 15.6885 4.73145 11.6543C4.73145 7.62012 7.95703 4.38574 11.9824 4.38574C16.0166 4.38574 19.2598 7.62012 19.2686 11.6543C19.2773 15.6885 16.0254 18.9316 11.9912 18.9316ZM14.1797 15.3545C15.5771 15.3545 16.5615 14.4229 16.5615 12.8496C16.5615 11.3994 15.5859 10.5908 14.4961 10.5908C13.6172 10.5908 13.0723 11.083 12.8613 11.6191H12.7998C12.7998 11.5752 12.791 11.54 12.791 11.4785C12.791 10.002 13.4062 9.07031 14.2939 9.07031C14.7598 9.07031 15.0674 9.29883 15.2783 9.59766C15.4189 9.80859 15.5684 9.90527 15.8145 9.90527C16.0781 9.90527 16.2979 9.71191 16.2979 9.39551C16.2979 9.26367 16.2803 9.14941 16.2188 9.02637C15.9902 8.45508 15.3135 7.96289 14.3379 7.96289C12.7031 7.96289 11.6484 9.25488 11.6484 11.8213C11.6484 12.832 11.8066 13.6055 12.0967 14.1592C12.5273 15.0029 13.2832 15.3545 14.1797 15.3545ZM9.47754 15.2666C9.86426 15.2666 10.1016 15.0293 10.1016 14.6162V8.75391C10.1016 8.30566 9.82031 8.01562 9.38086 8.01562C9.08203 8.01562 8.88867 8.09473 8.55469 8.34961L7.33301 9.21973C7.11328 9.39551 6.99902 9.5625 6.99902 9.81738C6.99902 10.125 7.25391 10.3799 7.53516 10.3799C7.71094 10.3799 7.81641 10.3447 8.01855 10.1777L8.82715 9.54492H8.87988V14.6162C8.87988 15.0293 9.1084 15.2666 9.47754 15.2666ZM14.1182 14.2998C13.3975 14.2998 12.8877 13.7285 12.8877 12.9111C12.8877 12.1377 13.3887 11.584 14.127 11.584C14.8564 11.584 15.3486 12.1289 15.3486 12.9199C15.3486 13.7637 14.8652 14.2998 14.1182 14.2998Z" fill="#1C1C1E"/>
</g>
<defs>
<clipPath id="clip0_10_1921">
<rect width="24" height="24" fill="white"/>
</clipPath>
</defs>
</svg>
