<svg width="24" height="24" viewBox="0 0 24 24" fill="none" xmlns="http://www.w3.org/2000/svg">
<g clip-path="url(#clip0_10_1920)">
<path d="M11.9912 20.7422C16.9746 20.7422 21.0879 16.6289 21.0879 11.6543C21.0879 6.67969 16.9658 2.56641 11.9824 2.56641C7.00781 2.56641 2.90332 6.67969 2.90332 11.6543C2.90332 16.6289 7.0166 20.7422 11.9912 20.7422ZM14.2676 15.5039C13.3359 15.5039 12.5537 15.1348 12.0967 14.2471C11.7979 13.6758 11.6309 12.8672 11.6309 11.8213C11.6309 9.14941 12.7295 7.81348 14.4346 7.81348C15.4453 7.81348 16.1484 8.32324 16.3857 8.90332C16.4473 9.04395 16.4736 9.1582 16.4736 9.30762C16.4736 9.63281 16.2451 9.84375 15.9727 9.84375C15.709 9.84375 15.5508 9.72949 15.3926 9.51855C15.1904 9.20215 14.8652 8.97363 14.3906 8.97363C13.4678 8.97363 12.835 9.93164 12.835 11.4521C12.835 11.5225 12.8438 11.5664 12.8438 11.6104H12.9053C13.125 11.0479 13.6875 10.5381 14.6016 10.5381C15.7266 10.5381 16.7461 11.3818 16.7461 12.8848C16.7461 14.5283 15.7266 15.5039 14.2676 15.5039ZM9.38965 15.4072C8.98535 15.4072 8.74805 15.1523 8.74805 14.7217V9.46582H8.7041L7.86914 10.1162C7.64941 10.292 7.54395 10.3271 7.36816 10.3271C7.06934 10.3271 6.80566 10.0635 6.80566 9.73828C6.80566 9.4834 6.91992 9.29883 7.14844 9.12305L8.40527 8.21777C8.75684 7.9541 8.96777 7.86621 9.27539 7.86621C9.74121 7.86621 10.0312 8.16504 10.0312 8.63086V14.7217C10.0312 15.1523 9.78516 15.4072 9.38965 15.4072ZM14.2061 14.3877C14.9795 14.3877 15.4805 13.834 15.4805 12.9727C15.4805 12.1465 14.9619 11.584 14.2061 11.584C13.4502 11.584 12.9316 12.1553 12.9316 12.9639C12.9316 13.8076 13.459 14.3877 14.2061 14.3877Z" fill="#1C1C1E"/>
</g>
<defs>
<clipPath id="clip0_10_1920">
<rect width="24" height="24" fill="white"/>
</clipPath>
</defs>
</svg>
