<svg width="24" height="24" viewBox="0 0 24 24" fill="none" xmlns="http://www.w3.org/2000/svg">
<g clip-path="url(#clip0_10_1918)">
<path d="M6.67383 19.8809H17.3174C19.2246 19.8809 20.209 18.8965 20.209 17.0156V6.31934C20.209 4.43848 19.2246 3.4541 17.3174 3.4541H6.67383C4.77539 3.4541 3.78223 4.42969 3.78223 6.31934V17.0156C3.78223 18.8965 4.77539 19.8809 6.67383 19.8809ZM14.3027 15.5039C13.3711 15.5039 12.5889 15.1348 12.1318 14.2471C11.8418 13.6758 11.666 12.8672 11.666 11.8213C11.666 9.14941 12.7646 7.81348 14.4697 7.81348C15.4805 7.81348 16.1836 8.32324 16.4209 8.90332C16.4824 9.04395 16.5088 9.1582 16.5088 9.30762C16.5088 9.63281 16.2803 9.84375 16.0078 9.84375C15.7441 9.84375 15.5859 9.72949 15.4277 9.51855C15.2256 9.20215 14.9004 8.97363 14.4258 8.97363C13.5029 8.97363 12.8701 9.93164 12.8701 11.4521C12.8701 11.5225 12.8789 11.5664 12.8789 11.6104H12.9404C13.1602 11.0479 13.7227 10.5381 14.6367 10.5381C15.7617 10.5381 16.7812 11.3818 16.7812 12.8848C16.7812 14.5283 15.7617 15.5039 14.3027 15.5039ZM9.4248 15.4072C9.02051 15.4072 8.7832 15.1523 8.7832 14.7217V9.46582H8.73926L7.9043 10.1162C7.69336 10.292 7.5791 10.3271 7.40332 10.3271C7.10449 10.3271 6.84082 10.0635 6.84082 9.73828C6.84082 9.4834 6.95508 9.29883 7.18359 9.12305L8.44043 8.21777C8.79199 7.9541 9.00293 7.86621 9.31055 7.86621C9.77637 7.86621 10.0664 8.16504 10.0664 8.63086V14.7217C10.0664 15.1523 9.8291 15.4072 9.4248 15.4072ZM14.2412 14.3877C15.0146 14.3877 15.5156 13.834 15.5156 12.9727C15.5156 12.1465 14.9971 11.584 14.2412 11.584C13.4854 11.584 12.9668 12.1553 12.9668 12.9639C12.9668 13.8076 13.4941 14.3877 14.2412 14.3877Z" fill="#1C1C1E"/>
</g>
<defs>
<clipPath id="clip0_10_1918">
<rect width="24" height="24" fill="white"/>
</clipPath>
</defs>
</svg>
