<svg width="24" height="24" viewBox="0 0 24 24" fill="none" xmlns="http://www.w3.org/2000/svg">
<g clip-path="url(#clip0_10_1919)">
<path d="M6.67383 19.8809H17.3174C19.2246 19.8809 20.209 18.8965 20.209 17.0156V6.31934C20.209 4.43848 19.2246 3.4541 17.3174 3.4541H6.67383C4.77539 3.4541 3.78223 4.42969 3.78223 6.31934V17.0156C3.78223 18.8965 4.77539 19.8809 6.67383 19.8809ZM6.78809 18.1318C5.97949 18.1318 5.53125 17.71 5.53125 16.8574V6.47754C5.53125 5.625 5.97949 5.20312 6.78809 5.20312H17.2031C18.0029 5.20312 18.46 5.625 18.46 6.47754V16.8574C18.46 17.71 18.0029 18.1318 17.2031 18.1318H6.78809ZM14.1973 15.3545C15.5947 15.3545 16.5791 14.4141 16.5791 12.8408C16.5791 11.3906 15.5947 10.582 14.5049 10.582C13.6348 10.582 13.0811 11.0742 12.8701 11.6104H12.8174C12.8086 11.5752 12.8086 11.5312 12.8086 11.4697C12.8086 10.002 13.4238 9.06152 14.3115 9.06152C14.7686 9.06152 15.085 9.29004 15.2871 9.59766C15.4365 9.7998 15.5771 9.90527 15.832 9.90527C16.0957 9.90527 16.3154 9.70312 16.3154 9.39551C16.3154 9.25488 16.2891 9.14062 16.2363 9.01758C16.0078 8.45508 15.3311 7.96289 14.3555 7.96289C12.7119 7.96289 11.6572 9.24609 11.6572 11.8125C11.6572 12.8232 11.8242 13.5967 12.1143 14.1504C12.5449 15.0029 13.3008 15.3545 14.1973 15.3545ZM9.49512 15.2666C9.88184 15.2666 10.1104 15.0205 10.1104 14.6074V8.74512C10.1104 8.29688 9.83789 8.00684 9.39844 8.00684C9.09961 8.00684 8.89746 8.09473 8.56348 8.34961L7.3418 9.21094C7.13086 9.38672 7.0166 9.5625 7.0166 9.80859C7.0166 10.1162 7.27148 10.3711 7.55273 10.3711C7.72852 10.3711 7.8252 10.3359 8.02734 10.1689L8.84473 9.54492H8.88867V14.6074C8.88867 15.0205 9.11719 15.2666 9.49512 15.2666ZM14.1357 14.291C13.4062 14.291 12.8965 13.7285 12.8965 12.9111C12.8965 12.1289 13.4062 11.5752 14.1357 11.5752C14.8652 11.5752 15.3662 12.1201 15.3662 12.9199C15.3662 13.7549 14.8828 14.291 14.1357 14.291Z" fill="#1C1C1E"/>
</g>
<defs>
<clipPath id="clip0_10_1919">
<rect width="24" height="24" fill="white"/>
</clipPath>
</defs>
</svg>
