<svg width="24" height="24" viewBox="0 0 24 24" fill="none" xmlns="http://www.w3.org/2000/svg">
<g clip-path="url(#clip0_10_1917)">
<path d="M11.9912 20.7422C16.9746 20.7422 21.0879 16.6289 21.0879 11.6543C21.0879 6.67969 16.9658 2.56641 11.9824 2.56641C7.00781 2.56641 2.90332 6.67969 2.90332 11.6543C2.90332 16.6289 7.0166 20.7422 11.9912 20.7422ZM11.9912 18.9316C7.95703 18.9316 4.73145 15.6885 4.73145 11.6543C4.73145 7.62012 7.95703 4.38574 11.9824 4.38574C16.0166 4.38574 19.2598 7.62012 19.2686 11.6543C19.2773 15.6885 16.0254 18.9316 11.9912 18.9316ZM9.8291 15.2666C10.2158 15.2666 10.4443 15.0293 10.4443 14.6162V8.75391C10.4443 8.30566 10.1719 8.01562 9.73242 8.01562C9.43359 8.01562 9.23145 8.09473 8.89746 8.34961L7.67578 9.21973C7.46484 9.39551 7.3418 9.5625 7.3418 9.81738C7.3418 10.125 7.60547 10.3799 7.88672 10.3799C8.05371 10.3799 8.15918 10.3447 8.36133 10.1777L9.17871 9.54492H9.22266V14.6162C9.22266 15.0293 9.45117 15.2666 9.8291 15.2666ZM13.1865 15.2754C13.4766 15.2754 13.6523 15.1172 13.8193 14.7832L16.3594 9.59766C16.4824 9.3252 16.5176 9.14941 16.5176 8.95605C16.5176 8.49902 16.2012 8.12988 15.6562 8.12988H12.3516C12.0088 8.12988 11.7627 8.34961 11.7627 8.69238C11.7627 9.03516 12.0176 9.24609 12.3516 9.24609H15.1377V9.30762L12.6416 14.1855C12.5537 14.335 12.5273 14.458 12.5273 14.6338C12.5273 15.0117 12.8086 15.2754 13.1865 15.2754Z" fill="#1C1C1E"/>
</g>
<defs>
<clipPath id="clip0_10_1917">
<rect width="24" height="24" fill="white"/>
</clipPath>
</defs>
</svg>
