<svg width="24" height="24" viewBox="0 0 24 24" fill="none" xmlns="http://www.w3.org/2000/svg">
<g clip-path="url(#clip0_10_1916)">
<path d="M11.9912 20.7422C16.9746 20.7422 21.0879 16.6289 21.0879 11.6543C21.0879 6.67969 16.9658 2.56641 11.9824 2.56641C7.00781 2.56641 2.90332 6.67969 2.90332 11.6543C2.90332 16.6289 7.0166 20.7422 11.9912 20.7422ZM9.75 15.4072C9.35449 15.4072 9.11719 15.1523 9.11719 14.7217V9.46582H9.06445L8.2207 10.1162C8.00977 10.292 7.9043 10.3271 7.71973 10.3271C7.42969 10.3271 7.15723 10.0635 7.15723 9.73828C7.15723 9.4834 7.28027 9.29883 7.5 9.12305L8.77441 8.21777C9.11719 7.9541 9.32812 7.86621 9.64453 7.86621C10.1104 7.86621 10.3916 8.16504 10.3916 8.63086V14.7217C10.3916 15.1523 10.1543 15.4072 9.75 15.4072ZM13.2393 15.416C12.8525 15.416 12.5537 15.1348 12.5537 14.7393C12.5537 14.5547 12.5801 14.4316 12.668 14.2734L15.2607 9.22852V9.14941H12.3691C12.0176 9.14941 11.7539 8.92969 11.7539 8.56934C11.7539 8.20898 12.0088 7.98926 12.3691 7.98926H15.8057C16.377 7.98926 16.7021 8.37598 16.7021 8.85059C16.7021 9.05273 16.667 9.2373 16.5352 9.51855L13.9072 14.8975C13.7314 15.2578 13.5469 15.416 13.2393 15.416Z" fill="#1C1C1E"/>
</g>
<defs>
<clipPath id="clip0_10_1916">
<rect width="24" height="24" fill="white"/>
</clipPath>
</defs>
</svg>
