<svg width="24" height="24" viewBox="0 0 24 24" fill="none" xmlns="http://www.w3.org/2000/svg">
<g clip-path="url(#clip0_10_1915)">
<path d="M6.67383 19.8809H17.3174C19.2246 19.8809 20.209 18.8965 20.209 17.0156V6.31934C20.209 4.43848 19.2246 3.4541 17.3174 3.4541H6.67383C4.77539 3.4541 3.78223 4.42969 3.78223 6.31934V17.0156C3.78223 18.8965 4.77539 19.8809 6.67383 19.8809ZM6.78809 18.1318C5.97949 18.1318 5.53125 17.71 5.53125 16.8574V6.47754C5.53125 5.625 5.97949 5.20312 6.78809 5.20312H17.2031C18.0029 5.20312 18.46 5.625 18.46 6.47754V16.8574C18.46 17.71 18.0029 18.1318 17.2031 18.1318H6.78809ZM9.84668 15.2666C10.2246 15.2666 10.4619 15.0205 10.4619 14.6074V8.74512C10.4619 8.29688 10.1807 8.00684 9.75 8.00684C9.44238 8.00684 9.24902 8.09473 8.91504 8.34961L7.69336 9.21094C7.47363 9.38672 7.35938 9.5625 7.35938 9.80859C7.35938 10.1162 7.62305 10.3711 7.89551 10.3711C8.07129 10.3711 8.17676 10.3359 8.37891 10.1689L9.1875 9.54492H9.24023V14.6074C9.24023 15.0205 9.46875 15.2666 9.84668 15.2666ZM13.2041 15.2666C13.4941 15.2666 13.6699 15.1172 13.8369 14.7744L16.3682 9.58887C16.5 9.31641 16.5352 9.14062 16.5352 8.95605C16.5352 8.49902 16.2188 8.12988 15.6738 8.12988H12.3691C12.0264 8.12988 11.7803 8.34082 11.7803 8.68359C11.7803 9.02637 12.0264 9.2373 12.3691 9.2373H15.1553V9.30762L12.6504 14.1855C12.5713 14.335 12.5449 14.4492 12.5449 14.625C12.5449 15.0029 12.8262 15.2666 13.2041 15.2666Z" fill="#1C1C1E"/>
</g>
<defs>
<clipPath id="clip0_10_1915">
<rect width="24" height="24" fill="white"/>
</clipPath>
</defs>
</svg>
