<svg width="24" height="24" viewBox="0 0 24 24" fill="none" xmlns="http://www.w3.org/2000/svg">
<g clip-path="url(#clip0_10_1914)">
<path d="M6.67383 19.8809H17.3174C19.2246 19.8809 20.209 18.8965 20.209 17.0156V6.31934C20.209 4.43848 19.2246 3.4541 17.3174 3.4541H6.67383C4.77539 3.4541 3.78223 4.42969 3.78223 6.31934V17.0156C3.78223 18.8965 4.77539 19.8809 6.67383 19.8809ZM9.78516 15.4072C9.38965 15.4072 9.15234 15.1523 9.15234 14.7217V9.46582H9.09961L8.26465 10.1162C8.04492 10.292 7.93945 10.3271 7.75488 10.3271C7.46484 10.3271 7.19238 10.0635 7.19238 9.73828C7.19238 9.4834 7.32422 9.29883 7.54395 9.12305L8.80957 8.21777C9.15234 7.9541 9.36328 7.86621 9.67969 7.86621C10.1455 7.86621 10.4355 8.16504 10.4355 8.63086V14.7217C10.4355 15.1523 10.1895 15.4072 9.78516 15.4072ZM13.2744 15.416C12.8877 15.416 12.5889 15.1348 12.5889 14.7393C12.5889 14.5547 12.6152 14.4316 12.7031 14.2734L15.2959 9.22852V9.14941H12.4043C12.0527 9.14941 11.7891 8.92969 11.7891 8.56934C11.7891 8.20898 12.0439 7.98926 12.4043 7.98926H15.8408C16.4121 7.98926 16.7373 8.37598 16.7373 8.85059C16.7373 9.05273 16.7021 9.2373 16.5703 9.51855L13.9424 14.8975C13.7666 15.2578 13.582 15.416 13.2744 15.416Z" fill="#1C1C1E"/>
</g>
<defs>
<clipPath id="clip0_10_1914">
<rect width="24" height="24" fill="white"/>
</clipPath>
</defs>
</svg>
