<svg width="24" height="24" viewBox="0 0 24 24" fill="none" xmlns="http://www.w3.org/2000/svg">
<g clip-path="url(#clip0_10_1913)">
<path d="M11.9912 20.7422C16.9746 20.7422 21.0879 16.6289 21.0879 11.6543C21.0879 6.67969 16.9658 2.56641 11.9824 2.56641C7.00781 2.56641 2.90332 6.67969 2.90332 11.6543C2.90332 16.6289 7.0166 20.7422 11.9912 20.7422ZM11.9912 18.9316C7.95703 18.9316 4.73145 15.6885 4.73145 11.6543C4.73145 7.62012 7.95703 4.38574 11.9824 4.38574C16.0166 4.38574 19.2598 7.62012 19.2686 11.6543C19.2773 15.6885 16.0254 18.9316 11.9912 18.9316ZM14.2324 15.3545C15.7354 15.3545 16.7637 14.502 16.7637 13.2539C16.7637 12.3662 16.2188 11.6719 15.3223 11.4873V11.4258C16.0693 11.2236 16.5088 10.6172 16.5088 9.86133C16.5088 8.73633 15.5771 7.96289 14.25 7.96289C12.9141 7.96289 11.9912 8.73633 11.9912 9.86133C11.9912 10.6172 12.4131 11.2061 13.1689 11.4258V11.4873C12.2725 11.6719 11.7363 12.375 11.7363 13.2627C11.7363 14.5107 12.7383 15.3545 14.2324 15.3545ZM9.55664 15.2666C9.94336 15.2666 10.1719 15.0293 10.1719 14.6162V8.75391C10.1719 8.30566 9.89941 8.01562 9.45996 8.01562C9.16113 8.01562 8.95898 8.09473 8.625 8.34961L7.40332 9.21973C7.19238 9.39551 7.07812 9.5625 7.07812 9.81738C7.07812 10.125 7.33301 10.3799 7.61426 10.3799C7.78125 10.3799 7.88672 10.3447 8.08887 10.1777L8.90625 9.54492H8.9502V14.6162C8.9502 15.0293 9.17871 15.2666 9.55664 15.2666ZM14.25 11.0127C13.6348 11.0127 13.2041 10.582 13.2041 9.98438C13.2041 9.37793 13.6348 8.96484 14.25 8.96484C14.8652 8.96484 15.2959 9.37793 15.2959 9.98438C15.2959 10.582 14.8652 11.0127 14.25 11.0127ZM14.2588 14.3438C13.5117 14.3438 12.9756 13.8604 12.9756 13.166C12.9756 12.4893 13.5117 11.9883 14.2588 11.9883C15.0059 11.9883 15.5332 12.4805 15.5332 13.166C15.5332 13.8604 14.9971 14.3438 14.2588 14.3438Z" fill="#1C1C1E"/>
</g>
<defs>
<clipPath id="clip0_10_1913">
<rect width="24" height="24" fill="white"/>
</clipPath>
</defs>
</svg>
