<svg width="24" height="24" viewBox="0 0 24 24" fill="none" xmlns="http://www.w3.org/2000/svg">
<g clip-path="url(#clip0_10_2196)">
<path d="M11.9912 20.7422C16.9746 20.7422 21.0879 16.6289 21.0879 11.6543C21.0879 6.67969 16.9658 2.56641 11.9824 2.56641C7.00781 2.56641 2.90332 6.67969 2.90332 11.6543C2.90332 16.6289 7.0166 20.7422 11.9912 20.7422ZM14.3203 15.4951C12.7734 15.4951 11.7275 14.625 11.7275 13.3154C11.7275 12.4014 12.29 11.6719 13.2217 11.4697V11.4082C12.4395 11.1885 11.9912 10.5732 11.9912 9.78223C11.9912 8.61328 12.958 7.81348 14.3379 7.81348C15.7266 7.81348 16.6934 8.61328 16.6934 9.78223C16.6934 10.5732 16.2363 11.2061 15.4629 11.4082V11.4697C16.3945 11.6719 16.957 12.3926 16.957 13.3066C16.957 14.6162 15.8936 15.4951 14.3203 15.4951ZM9.45996 15.4072C9.06445 15.4072 8.82715 15.1523 8.82715 14.7217V9.46582H8.7832L7.93945 10.1162C7.72852 10.292 7.62305 10.3271 7.43848 10.3271C7.14844 10.3271 6.87598 10.0635 6.87598 9.73828C6.87598 9.4834 6.99902 9.29883 7.22754 9.12305L8.48438 8.21777C8.83594 7.9541 9.04688 7.86621 9.36328 7.86621C9.8291 7.86621 10.1104 8.16504 10.1104 8.63086V14.7217C10.1104 15.1523 9.87305 15.4072 9.45996 15.4072ZM14.3379 10.9775C14.9795 10.9775 15.4189 10.5293 15.4189 9.91406C15.4189 9.29004 14.9795 8.85938 14.3379 8.85938C13.7051 8.85938 13.2656 9.29004 13.2656 9.91406C13.2656 10.5293 13.7051 10.9775 14.3379 10.9775ZM14.3467 14.4404C15.1113 14.4404 15.665 13.9395 15.665 13.2275C15.665 12.5068 15.1289 12.0059 14.3467 12.0059C13.582 12.0059 13.0283 12.5156 13.0283 13.2275C13.0283 13.9395 13.582 14.4404 14.3467 14.4404Z" fill="#1C1C1E"/>
</g>
<defs>
<clipPath id="clip0_10_2196">
<rect width="24" height="24" fill="white"/>
</clipPath>
</defs>
</svg>
