<svg width="24" height="24" viewBox="0 0 24 24" fill="none" xmlns="http://www.w3.org/2000/svg">
<g clip-path="url(#clip0_10_1912)">
<path d="M6.67383 19.8809H17.3174C19.2246 19.8809 20.209 18.8965 20.209 17.0156V6.31934C20.209 4.43848 19.2246 3.4541 17.3174 3.4541H6.67383C4.77539 3.4541 3.78223 4.42969 3.78223 6.31934V17.0156C3.78223 18.8965 4.77539 19.8809 6.67383 19.8809ZM6.78809 18.1318C5.97949 18.1318 5.53125 17.71 5.53125 16.8574V6.47754C5.53125 5.625 5.97949 5.20312 6.78809 5.20312H17.2031C18.0029 5.20312 18.46 5.625 18.46 6.47754V16.8574C18.46 17.71 18.0029 18.1318 17.2031 18.1318H6.78809ZM14.25 15.3457C15.7529 15.3457 16.7725 14.4932 16.7725 13.2451C16.7725 12.3574 16.2275 11.6719 15.3398 11.4785V11.4258C16.0869 11.2236 16.5176 10.6084 16.5176 9.85254C16.5176 8.72754 15.5947 7.96289 14.2676 7.96289C12.9316 7.96289 12.0088 8.72754 12.0088 9.85254C12.0088 10.6084 12.4307 11.2061 13.1865 11.4258V11.4785C12.29 11.6719 11.7539 12.3662 11.7539 13.2539C11.7539 14.502 12.7559 15.3457 14.25 15.3457ZM9.57422 15.2666C9.96094 15.2666 10.1895 15.0205 10.1895 14.6074V8.74512C10.1895 8.29688 9.91699 8.00684 9.47754 8.00684C9.16992 8.00684 8.97656 8.09473 8.64258 8.34961L7.4209 9.21094C7.20117 9.38672 7.08691 9.5625 7.08691 9.80859C7.08691 10.1162 7.35059 10.3711 7.62305 10.3711C7.79883 10.3711 7.9043 10.3359 8.10645 10.1689L8.91504 9.54492H8.96777V14.6074C8.96777 15.0205 9.19629 15.2666 9.57422 15.2666ZM14.2676 11.0039C13.6436 11.0039 13.2129 10.5732 13.2129 9.97559C13.2129 9.37793 13.6436 8.96484 14.2676 8.96484C14.8828 8.96484 15.3135 9.37793 15.3135 9.97559C15.3135 10.5732 14.8828 11.0039 14.2676 11.0039ZM14.2676 14.3438C13.5205 14.3438 12.9844 13.8604 12.9844 13.166C12.9844 12.4805 13.5205 11.9883 14.2676 11.9883C15.0234 11.9883 15.542 12.4717 15.542 13.166C15.542 13.8604 15.0059 14.3438 14.2676 14.3438Z" fill="#1C1C1E"/>
</g>
<defs>
<clipPath id="clip0_10_1912">
<rect width="24" height="24" fill="white"/>
</clipPath>
</defs>
</svg>
