<svg width="24" height="24" viewBox="0 0 24 24" fill="none" xmlns="http://www.w3.org/2000/svg">
<g clip-path="url(#clip0_10_2208)">
<path d="M6.67383 19.8809H17.3174C19.2246 19.8809 20.209 18.8965 20.209 17.0156V6.31934C20.209 4.43848 19.2246 3.4541 17.3174 3.4541H6.67383C4.77539 3.4541 3.78223 4.42969 3.78223 6.31934V17.0156C3.78223 18.8965 4.77539 19.8809 6.67383 19.8809ZM14.3643 15.4951C12.8086 15.4951 11.7627 14.625 11.7627 13.3154C11.7627 12.4014 12.3252 11.6719 13.2568 11.4697V11.4082C12.4746 11.1885 12.0264 10.5732 12.0264 9.78223C12.0264 8.61328 12.9932 7.81348 14.373 7.81348C15.7617 7.81348 16.7285 8.61328 16.7285 9.78223C16.7285 10.5732 16.2715 11.2061 15.498 11.4082V11.4697C16.4297 11.6719 16.9922 12.3926 16.9922 13.3066C16.9922 14.6162 15.9287 15.4951 14.3643 15.4951ZM9.49512 15.4072C9.09961 15.4072 8.8623 15.1523 8.8623 14.7217V9.46582H8.81836L7.97461 10.1162C7.76367 10.292 7.6582 10.3271 7.47363 10.3271C7.18359 10.3271 6.91113 10.0635 6.91113 9.73828C6.91113 9.4834 7.03418 9.29883 7.2627 9.12305L8.51953 8.21777C8.87109 7.9541 9.08203 7.86621 9.39844 7.86621C9.86426 7.86621 10.1455 8.16504 10.1455 8.63086V14.7217C10.1455 15.1523 9.9082 15.4072 9.49512 15.4072ZM14.373 10.9775C15.0146 10.9775 15.4541 10.5293 15.4541 9.91406C15.4541 9.29004 15.0146 8.85938 14.373 8.85938C13.7402 8.85938 13.3008 9.29004 13.3008 9.91406C13.3008 10.5293 13.7402 10.9775 14.373 10.9775ZM14.3818 14.4404C15.1465 14.4404 15.7002 13.9395 15.7002 13.2275C15.7002 12.5068 15.1641 12.0059 14.3818 12.0059C13.6172 12.0059 13.0635 12.5156 13.0635 13.2275C13.0635 13.9395 13.6172 14.4404 14.3818 14.4404Z" fill="#1C1C1E"/>
</g>
<defs>
<clipPath id="clip0_10_2208">
<rect width="24" height="24" fill="white"/>
</clipPath>
</defs>
</svg>
