<svg width="24" height="24" viewBox="0 0 24 24" fill="none" xmlns="http://www.w3.org/2000/svg">
<g clip-path="url(#clip0_10_1911)">
<path d="M11.9912 20.7422C16.9746 20.7422 21.0879 16.6289 21.0879 11.6543C21.0879 6.67969 16.9658 2.56641 11.9824 2.56641C7.00781 2.56641 2.90332 6.67969 2.90332 11.6543C2.90332 16.6289 7.0166 20.7422 11.9912 20.7422ZM11.9912 18.9316C7.95703 18.9316 4.73145 15.6885 4.73145 11.6543C4.73145 7.62012 7.95703 4.38574 11.9824 4.38574C16.0166 4.38574 19.2598 7.62012 19.2686 11.6543C19.2773 15.6885 16.0254 18.9316 11.9912 18.9316ZM14.127 15.3545C15.8408 15.3545 16.7637 13.9834 16.7637 11.417C16.7637 9.20215 15.8584 7.96289 14.2148 7.96289C12.7822 7.96289 11.8242 8.93848 11.8242 10.4502C11.8242 11.9004 12.7822 12.7354 13.916 12.7354C14.8037 12.7354 15.3486 12.2695 15.5684 11.6807H15.6211C15.6387 13.2363 15.0586 14.2471 14.1094 14.2471C13.6523 14.2471 13.3008 14.0186 13.0986 13.6846C12.9492 13.4385 12.7646 13.3418 12.5449 13.3418C12.2373 13.3418 12.0264 13.5703 12.0264 13.8955C12.0264 14.001 12.0615 14.1328 12.1143 14.2471C12.2725 14.7305 12.958 15.3545 14.127 15.3545ZM9.44238 15.2666C9.8291 15.2666 10.0664 15.0293 10.0664 14.6162V8.75391C10.0664 8.30566 9.78516 8.01562 9.35449 8.01562C9.04688 8.01562 8.85352 8.09473 8.51953 8.34961L7.29785 9.21973C7.07812 9.39551 6.96387 9.5625 6.96387 9.81738C6.96387 10.125 7.21875 10.3799 7.5 10.3799C7.67578 10.3799 7.78125 10.3447 7.9834 10.1777L8.79199 9.54492H8.84473V14.6162C8.84473 15.0293 9.07324 15.2666 9.44238 15.2666ZM14.2764 11.751C13.5381 11.751 13.0371 11.1885 13.0371 10.3887C13.0371 9.5625 13.5293 9.01758 14.2852 9.01758C14.9971 9.01758 15.5156 9.58887 15.5156 10.4062C15.5156 11.1885 15.0059 11.751 14.2764 11.751Z" fill="#1C1C1E"/>
</g>
<defs>
<clipPath id="clip0_10_1911">
<rect width="24" height="24" fill="white"/>
</clipPath>
</defs>
</svg>
