<svg width="24" height="24" viewBox="0 0 24 24" fill="none" xmlns="http://www.w3.org/2000/svg">
<g clip-path="url(#clip0_10_1910)">
<path d="M11.9912 20.7422C16.9746 20.7422 21.0879 16.6289 21.0879 11.6543C21.0879 6.67969 16.9658 2.56641 11.9824 2.56641C7.00781 2.56641 2.90332 6.67969 2.90332 11.6543C2.90332 16.6289 7.0166 20.7422 11.9912 20.7422ZM14.2061 15.4951C13.002 15.4951 12.2812 14.8447 12.123 14.3438C12.0703 14.2207 12.0352 14.0889 12.0352 13.9746C12.0352 13.6406 12.2549 13.3945 12.5713 13.3945C12.7998 13.3945 12.9932 13.5 13.1514 13.7461C13.3623 14.1064 13.7314 14.335 14.1885 14.335C15.1729 14.335 15.7793 13.2891 15.7617 11.6719H15.709C15.4805 12.2871 14.918 12.7705 13.9951 12.7705C12.8262 12.7705 11.8242 11.9004 11.8242 10.4062C11.8242 8.81543 12.8086 7.81348 14.3115 7.81348C16.0254 7.81348 16.957 9.09668 16.957 11.3994C16.957 14.0713 15.999 15.4951 14.2061 15.4951ZM9.35449 15.4072C8.95898 15.4072 8.72168 15.1523 8.72168 14.7217V9.46582H8.66895L7.83398 10.1162C7.62305 10.292 7.51758 10.3271 7.33301 10.3271C7.03418 10.3271 6.76172 10.0635 6.76172 9.73828C6.76172 9.4834 6.89355 9.29883 7.11328 9.12305L8.37891 8.21777C8.73047 7.9541 8.93262 7.86621 9.24902 7.86621C9.70605 7.86621 9.99609 8.16504 9.99609 8.63086V14.7217C9.99609 15.1523 9.75879 15.4072 9.35449 15.4072ZM14.373 11.7334C15.1289 11.7334 15.6475 11.1533 15.6475 10.3447C15.6475 9.50098 15.1201 8.91211 14.373 8.91211C13.5996 8.91211 13.0898 9.4834 13.0898 10.3359C13.0898 11.1533 13.6084 11.7334 14.373 11.7334Z" fill="#1C1C1E"/>
</g>
<defs>
<clipPath id="clip0_10_1910">
<rect width="24" height="24" fill="white"/>
</clipPath>
</defs>
</svg>
