<svg width="24" height="24" viewBox="0 0 24 24" fill="none" xmlns="http://www.w3.org/2000/svg">
<g clip-path="url(#clip0_10_1909)">
<path d="M6.67383 19.8809H17.3174C19.2246 19.8809 20.209 18.8965 20.209 17.0156V6.31934C20.209 4.43848 19.2246 3.4541 17.3174 3.4541H6.67383C4.77539 3.4541 3.78223 4.42969 3.78223 6.31934V17.0156C3.78223 18.8965 4.77539 19.8809 6.67383 19.8809ZM6.78809 18.1318C5.97949 18.1318 5.53125 17.71 5.53125 16.8574V6.47754C5.53125 5.625 5.97949 5.20312 6.78809 5.20312H17.2031C18.0029 5.20312 18.46 5.625 18.46 6.47754V16.8574C18.46 17.71 18.0029 18.1318 17.2031 18.1318H6.78809ZM14.1357 15.3457C15.8496 15.3457 16.7812 13.9746 16.7812 11.4082C16.7812 9.19336 15.876 7.96289 14.2324 7.96289C12.791 7.96289 11.8418 8.92969 11.8418 10.4502C11.8418 11.8916 12.7998 12.7354 13.9336 12.7354C14.8213 12.7354 15.3662 12.2607 15.5859 11.6719H15.6387C15.6475 13.2363 15.0762 14.2471 14.1182 14.2471C13.6699 14.2471 13.3184 14.0186 13.1162 13.6758C12.958 13.4297 12.7822 13.333 12.5537 13.333C12.2549 13.333 12.0439 13.5703 12.0439 13.8867C12.0439 13.9922 12.0791 14.124 12.123 14.2471C12.2812 14.7217 12.9756 15.3457 14.1357 15.3457ZM9.45996 15.2666C9.84668 15.2666 10.0752 15.0205 10.0752 14.6074V8.74512C10.0752 8.29688 9.80273 8.00684 9.36328 8.00684C9.06445 8.00684 8.8623 8.09473 8.52832 8.34961L7.30664 9.21094C7.0957 9.38672 6.98145 9.5625 6.98145 9.80859C6.98145 10.1162 7.23633 10.3711 7.51758 10.3711C7.69336 10.3711 7.79004 10.3359 7.99219 10.1689L8.80957 9.54492H8.85352V14.6074C8.85352 15.0205 9.08203 15.2666 9.45996 15.2666ZM14.2939 11.7422C13.5557 11.7422 13.0547 11.1797 13.0547 10.3887C13.0547 9.5625 13.5469 9.00879 14.2939 9.00879C15.0146 9.00879 15.5332 9.58008 15.5332 10.3975C15.5332 11.1797 15.0234 11.7422 14.2939 11.7422Z" fill="#1C1C1E"/>
</g>
<defs>
<clipPath id="clip0_10_1909">
<rect width="24" height="24" fill="white"/>
</clipPath>
</defs>
</svg>
