<svg width="24" height="24" viewBox="0 0 24 24" fill="none" xmlns="http://www.w3.org/2000/svg">
<g clip-path="url(#clip0_10_1908)">
<path d="M6.67383 19.8809H17.3174C19.2246 19.8809 20.209 18.8965 20.209 17.0156V6.31934C20.209 4.43848 19.2246 3.4541 17.3174 3.4541H6.67383C4.77539 3.4541 3.78223 4.42969 3.78223 6.31934V17.0156C3.78223 18.8965 4.77539 19.8809 6.67383 19.8809ZM14.2412 15.4951C13.0371 15.4951 12.3164 14.8447 12.1582 14.3438C12.1055 14.2207 12.0703 14.0889 12.0703 13.9746C12.0703 13.6406 12.29 13.3945 12.6064 13.3945C12.835 13.3945 13.0283 13.5 13.1865 13.7461C13.3975 14.1064 13.7666 14.335 14.2236 14.335C15.208 14.335 15.8145 13.2891 15.7969 11.6719H15.7441C15.5156 12.2871 14.9531 12.7705 14.0303 12.7705C12.8613 12.7705 11.8594 11.9004 11.8594 10.4062C11.8594 8.81543 12.8438 7.81348 14.3467 7.81348C16.0605 7.81348 16.9922 9.09668 16.9922 11.3994C16.9922 14.0713 16.0342 15.4951 14.2412 15.4951ZM9.38965 15.4072C8.99414 15.4072 8.75684 15.1523 8.75684 14.7217V9.46582H8.7041L7.86914 10.1162C7.6582 10.292 7.55273 10.3271 7.36816 10.3271C7.06934 10.3271 6.80566 10.0635 6.80566 9.73828C6.80566 9.4834 6.92871 9.29883 7.14844 9.12305L8.41406 8.21777C8.76562 7.9541 8.96777 7.86621 9.28418 7.86621C9.74121 7.86621 10.0312 8.16504 10.0312 8.63086V14.7217C10.0312 15.1523 9.79395 15.4072 9.38965 15.4072ZM14.4082 11.7334C15.1641 11.7334 15.6826 11.1533 15.6826 10.3447C15.6826 9.50098 15.1553 8.91211 14.417 8.91211C13.6348 8.91211 13.125 9.4834 13.125 10.3359C13.125 11.1533 13.6436 11.7334 14.4082 11.7334Z" fill="#1C1C1E"/>
</g>
<defs>
<clipPath id="clip0_10_1908">
<rect width="24" height="24" fill="white"/>
</clipPath>
</defs>
</svg>
