<svg width="24" height="24" viewBox="0 0 24 24" fill="none" xmlns="http://www.w3.org/2000/svg">
<g clip-path="url(#clip0_10_1954)">
<path d="M11.9912 20.7422C16.9746 20.7422 21.0879 16.6289 21.0879 11.6543C21.0879 6.67969 16.9658 2.56641 11.9824 2.56641C7.00781 2.56641 2.90332 6.67969 2.90332 11.6543C2.90332 16.6289 7.0166 20.7422 11.9912 20.7422ZM11.9912 18.9316C7.95703 18.9316 4.73145 15.6885 4.73145 11.6543C4.73145 7.62012 7.95703 4.38574 11.9824 4.38574C16.0166 4.38574 19.2598 7.62012 19.2686 11.6543C19.2773 15.6885 16.0254 18.9316 11.9912 18.9316ZM9.99609 15.6006H14.4521C14.8828 15.6006 15.1729 15.3369 15.1729 14.915C15.1729 14.4844 14.8828 14.2383 14.4521 14.2383H11.5957V14.168L13.4414 12.2432C14.2852 11.3994 14.8125 10.7051 14.8125 9.77344C14.8125 8.41113 13.6963 7.50586 12.0176 7.50586C10.7168 7.50586 9.5918 8.24414 9.28418 9.24609C9.24023 9.37793 9.23145 9.50098 9.23145 9.63281C9.23145 10.0371 9.5127 10.292 9.92578 10.292C10.2949 10.292 10.4795 10.0811 10.6377 9.82617C10.8662 9.34277 11.2793 8.8418 12.0352 8.8418C12.7646 8.8418 13.2393 9.26367 13.2393 9.90527C13.2393 10.4766 12.7734 10.9688 12.2373 11.5137L9.57422 14.2734C9.3457 14.4844 9.2666 14.6953 9.2666 14.9326C9.2666 15.3369 9.54785 15.6006 9.99609 15.6006Z" fill="#1C1C1E"/>
</g>
<defs>
<clipPath id="clip0_10_1954">
<rect width="24" height="24" fill="white"/>
</clipPath>
</defs>
</svg>
