<svg width="24" height="24" viewBox="0 0 24 24" fill="none" xmlns="http://www.w3.org/2000/svg">
<g clip-path="url(#clip0_10_1951)">
<path d="M11.9912 20.7422C16.9746 20.7422 21.0879 16.6289 21.0879 11.6543C21.0879 6.67969 16.9658 2.56641 11.9824 2.56641C7.00781 2.56641 2.90332 6.67969 2.90332 11.6543C2.90332 16.6289 7.0166 20.7422 11.9912 20.7422ZM9.91699 15.7588C9.44238 15.7588 9.14355 15.4775 9.14355 15.0469C9.14355 14.8096 9.23145 14.5898 9.46875 14.3525L12.2373 11.5049C12.7998 10.9424 13.2832 10.4238 13.2832 9.83496C13.2832 9.17578 12.7822 8.73633 12.0264 8.73633C11.2529 8.73633 10.8311 9.26367 10.5938 9.74707C10.4268 10.0195 10.2334 10.2393 9.84668 10.2393C9.40723 10.2393 9.1084 9.97559 9.1084 9.54492C9.1084 9.41309 9.12598 9.28125 9.16992 9.14062C9.48633 8.10352 10.6641 7.33887 12.0176 7.33887C13.7666 7.33887 14.9268 8.2793 14.9268 9.68555C14.9268 10.6699 14.3818 11.3906 13.5029 12.2607L11.6045 14.2559V14.3174H14.5488C15.0059 14.3174 15.3135 14.5898 15.3135 15.0381C15.3135 15.4863 15.0059 15.7588 14.5488 15.7588H9.91699Z" fill="#1C1C1E"/>
</g>
<defs>
<clipPath id="clip0_10_1951">
<rect width="24" height="24" fill="white"/>
</clipPath>
</defs>
</svg>
