<svg width="24" height="24" viewBox="0 0 24 24" fill="none" xmlns="http://www.w3.org/2000/svg">
<g clip-path="url(#clip0_10_2125)">
<path d="M6.67383 19.8809H17.3174C19.2246 19.8809 20.209 18.8965 20.209 17.0156V6.31934C20.209 4.43848 19.2246 3.4541 17.3174 3.4541H6.67383C4.77539 3.4541 3.78223 4.42969 3.78223 6.31934V17.0156C3.78223 18.8965 4.77539 19.8809 6.67383 19.8809ZM6.78809 18.1318C5.97949 18.1318 5.53125 17.71 5.53125 16.8574V6.47754C5.53125 5.625 5.97949 5.20312 6.78809 5.20312H17.2031C18.0029 5.20312 18.46 5.625 18.46 6.47754V16.8574C18.46 17.71 18.0029 18.1318 17.2031 18.1318H6.78809ZM10.0137 15.6006H14.4697C14.9004 15.6006 15.1904 15.3369 15.1904 14.915C15.1904 14.4844 14.9004 14.2295 14.4697 14.2295H11.6133V14.1592L13.459 12.2344C14.3027 11.3906 14.8213 10.6963 14.8213 9.76465C14.8213 8.41113 13.7051 7.50586 12.0352 7.50586C10.7256 7.50586 9.60059 8.24414 9.30176 9.2373C9.25781 9.36914 9.24023 9.50098 9.24023 9.62402C9.24023 10.0371 9.52148 10.2832 9.94336 10.2832C10.3125 10.2832 10.4883 10.0723 10.6553 9.81738C10.8838 9.34277 11.2881 8.8418 12.0439 8.8418C12.7822 8.8418 13.2568 9.25488 13.2568 9.89648C13.2568 10.4678 12.791 10.9688 12.2461 11.5049L9.5918 14.2646C9.36328 14.4844 9.28418 14.6953 9.28418 14.9238C9.28418 15.3281 9.56543 15.6006 10.0137 15.6006Z" fill="#1C1C1E"/>
</g>
<defs>
<clipPath id="clip0_10_2125">
<rect width="24" height="24" fill="white"/>
</clipPath>
</defs>
</svg>
