<svg width="24" height="24" viewBox="0 0 24 24" fill="none" xmlns="http://www.w3.org/2000/svg">
<g clip-path="url(#clip0_10_2138)">
<path d="M6.67383 19.8809H17.3174C19.2246 19.8809 20.209 18.8965 20.209 17.0156V6.31934C20.209 4.43848 19.2246 3.4541 17.3174 3.4541H6.67383C4.77539 3.4541 3.78223 4.42969 3.78223 6.31934V17.0156C3.78223 18.8965 4.77539 19.8809 6.67383 19.8809ZM9.95215 15.7588C9.47754 15.7588 9.17871 15.4775 9.17871 15.0469C9.17871 14.8096 9.2666 14.5898 9.50391 14.3525L12.2725 11.5049C12.835 10.9424 13.3184 10.4238 13.3184 9.83496C13.3184 9.17578 12.8262 8.73633 12.0615 8.73633C11.2881 8.73633 10.8662 9.26367 10.6289 9.74707C10.4619 10.0195 10.2686 10.2393 9.88184 10.2393C9.44238 10.2393 9.14355 9.97559 9.14355 9.54492C9.14355 9.41309 9.16113 9.28125 9.20508 9.14062C9.52148 8.10352 10.6992 7.33887 12.0527 7.33887C13.8018 7.33887 14.9619 8.2793 14.9619 9.68555C14.9619 10.6699 14.417 11.3906 13.5381 12.2607L11.6396 14.2559V14.3174H14.584C15.0498 14.3174 15.3486 14.5898 15.3486 15.0381C15.3486 15.4863 15.041 15.7588 14.584 15.7588H9.95215Z" fill="#1C1C1E"/>
</g>
<defs>
<clipPath id="clip0_10_2138">
<rect width="24" height="24" fill="white"/>
</clipPath>
</defs>
</svg>
