<svg width="24" height="24" viewBox="0 0 24 24" fill="none" xmlns="http://www.w3.org/2000/svg">
<g clip-path="url(#clip0_10_1907)">
<path d="M11.9912 20.7422C16.9746 20.7422 21.0879 16.6289 21.0879 11.6543C21.0879 6.67969 16.9658 2.56641 11.9824 2.56641C7.00781 2.56641 2.90332 6.67969 2.90332 11.6543C2.90332 16.6289 7.0166 20.7422 11.9912 20.7422ZM11.9912 18.9316C7.95703 18.9316 4.73145 15.6885 4.73145 11.6543C4.73145 7.62012 7.95703 4.38574 11.9824 4.38574C16.0166 4.38574 19.2598 7.62012 19.2686 11.6543C19.2773 15.6885 16.0254 18.9316 11.9912 18.9316ZM7.67578 15.1699H11.0771C11.4023 15.1699 11.6309 14.9414 11.6309 14.5811C11.6309 14.2207 11.4023 14.0098 11.0771 14.0098H8.80957V13.957L10.3389 12.1729C10.9893 11.417 11.4463 10.793 11.4375 9.94922C11.4375 8.75391 10.5762 7.96289 9.22266 7.96289C8.19434 7.96289 7.28906 8.61328 7.06055 9.50098C7.03418 9.61523 7.0166 9.7207 7.0166 9.83496C7.0166 10.1777 7.21875 10.4062 7.55273 10.4062C7.83398 10.4062 7.9834 10.2393 8.09766 9.9668C8.29102 9.38672 8.68652 9.08789 9.24902 9.08789C9.87305 9.08789 10.2861 9.4834 10.2861 10.0547C10.2861 10.582 9.86426 11.0303 9.45117 11.5137L7.33301 14.0098C7.15723 14.1943 7.0957 14.3789 7.0957 14.5811C7.0957 14.9414 7.32422 15.1699 7.67578 15.1699ZM14.8213 15.3545C16.2979 15.3545 17.2822 14.001 17.2822 11.6631C17.2822 9.31641 16.2979 7.96289 14.8213 7.96289C13.3535 7.96289 12.3779 9.31641 12.3779 11.6631C12.3779 14.001 13.3535 15.3545 14.8213 15.3545ZM14.8301 14.168C14.1006 14.168 13.6436 13.2627 13.6436 11.6631C13.6436 10.0547 14.1006 9.1582 14.8301 9.1582C15.5596 9.1582 16.0166 10.0547 16.0166 11.6631C16.0166 13.2627 15.5684 14.168 14.8301 14.168Z" fill="#1C1C1E"/>
</g>
<defs>
<clipPath id="clip0_10_1907">
<rect width="24" height="24" fill="white"/>
</clipPath>
</defs>
</svg>
