<svg width="24" height="24" viewBox="0 0 24 24" fill="none" xmlns="http://www.w3.org/2000/svg">
<g clip-path="url(#clip0_10_1906)">
<path d="M11.9912 20.7422C16.9746 20.7422 21.0879 16.6289 21.0879 11.6543C21.0879 6.67969 16.9658 2.56641 11.9824 2.56641C7.00781 2.56641 2.90332 6.67969 2.90332 11.6543C2.90332 16.6289 7.0166 20.7422 11.9912 20.7422ZM7.50879 15.3018C7.14844 15.3018 6.90234 15.0645 6.90234 14.6865C6.90234 14.4668 6.98145 14.2822 7.15723 14.0801L9.3457 11.4961C9.77637 11.0039 10.2158 10.5381 10.2158 9.99316C10.2158 9.39551 9.78516 8.99121 9.13477 8.99121C8.57227 8.99121 8.15039 9.29004 7.94824 9.90527C7.84277 10.1777 7.67578 10.3535 7.37695 10.3535C7.03418 10.3535 6.81445 10.1162 6.81445 9.75586C6.81445 9.6416 6.84082 9.52734 6.8584 9.4043C7.10449 8.48145 8.05371 7.81348 9.11719 7.81348C10.5234 7.81348 11.4199 8.63086 11.4287 9.87891C11.4287 10.7578 10.9629 11.3994 10.2773 12.1904L8.7041 14.0273V14.0977H11.0332C11.376 14.0977 11.6221 14.3086 11.6221 14.6953C11.6221 15.0645 11.376 15.3018 11.0332 15.3018H7.50879ZM14.9355 15.4951C13.4062 15.4951 12.3955 14.0977 12.3955 11.6543C12.3955 9.21094 13.4062 7.81348 14.9355 7.81348C16.4648 7.81348 17.4932 9.21094 17.4932 11.6543C17.4932 14.0977 16.4648 15.4951 14.9355 15.4951ZM14.9443 14.2471C15.7002 14.2471 16.166 13.3154 16.166 11.6543C16.166 9.99316 15.6914 9.06152 14.9443 9.06152C14.1885 9.06152 13.7227 9.99316 13.7227 11.6543C13.7227 13.3154 14.1885 14.2471 14.9443 14.2471Z" fill="#1C1C1E"/>
</g>
<defs>
<clipPath id="clip0_10_1906">
<rect width="24" height="24" fill="white"/>
</clipPath>
</defs>
</svg>
