<svg width="24" height="24" viewBox="0 0 24 24" fill="none" xmlns="http://www.w3.org/2000/svg">
<g clip-path="url(#clip0_10_1905)">
<path d="M6.67383 19.8809H17.3174C19.2246 19.8809 20.209 18.8965 20.209 17.0156V6.31934C20.209 4.43848 19.2246 3.4541 17.3174 3.4541H6.67383C4.77539 3.4541 3.78223 4.42969 3.78223 6.31934V17.0156C3.78223 18.8965 4.77539 19.8809 6.67383 19.8809ZM6.78809 18.1318C5.97949 18.1318 5.53125 17.71 5.53125 16.8574V6.47754C5.53125 5.625 5.97949 5.20312 6.78809 5.20312H17.2031C18.0029 5.20312 18.46 5.625 18.46 6.47754V16.8574C18.46 17.71 18.0029 18.1318 17.2031 18.1318H6.78809ZM7.68457 15.1611H11.0859C11.4111 15.1611 11.6484 14.9326 11.6484 14.5811C11.6484 14.2207 11.4111 14.0098 11.0859 14.0098H8.82715V13.9482L10.3564 12.1641C11.0068 11.4082 11.4551 10.793 11.4551 9.94922C11.4551 8.74512 10.585 7.96289 9.24023 7.96289C8.21191 7.96289 7.29785 8.60449 7.06934 9.49219C7.05176 9.60645 7.02539 9.71191 7.02539 9.82617C7.02539 10.1689 7.23633 10.3975 7.56152 10.3975C7.85156 10.3975 8.00098 10.2305 8.11523 9.9668C8.30859 9.37793 8.7041 9.08789 9.25781 9.08789C9.89062 9.08789 10.3037 9.47461 10.3037 10.0547C10.3037 10.582 9.88184 11.0215 9.46875 11.5137L7.35059 14.001C7.1748 14.1943 7.10449 14.3701 7.10449 14.5723C7.10449 14.9326 7.3418 15.1611 7.68457 15.1611ZM14.8389 15.3457C16.3066 15.3457 17.2998 13.9922 17.2998 11.6543C17.2998 9.30762 16.3066 7.96289 14.8389 7.96289C13.3623 7.96289 12.3867 9.30762 12.3867 11.6543C12.3867 13.9922 13.3623 15.3457 14.8389 15.3457ZM14.8477 14.1592C14.1182 14.1592 13.6611 13.2539 13.6611 11.6543C13.6611 10.0547 14.1182 9.14941 14.8477 9.14941C15.5771 9.14941 16.0342 10.0547 16.0342 11.6543C16.0342 13.2539 15.5771 14.1592 14.8477 14.1592Z" fill="#1C1C1E"/>
</g>
<defs>
<clipPath id="clip0_10_1905">
<rect width="24" height="24" fill="white"/>
</clipPath>
</defs>
</svg>
