<svg width="24" height="24" viewBox="0 0 24 24" fill="none" xmlns="http://www.w3.org/2000/svg">
<g clip-path="url(#clip0_10_1904)">
<path d="M6.67383 19.8809H17.3174C19.2246 19.8809 20.209 18.8965 20.209 17.0156V6.31934C20.209 4.43848 19.2246 3.4541 17.3174 3.4541H6.67383C4.77539 3.4541 3.78223 4.42969 3.78223 6.31934V17.0156C3.78223 18.8965 4.77539 19.8809 6.67383 19.8809ZM7.54395 15.3018C7.18359 15.3018 6.9375 15.0645 6.9375 14.6865C6.9375 14.4668 7.0166 14.2822 7.19238 14.0801L9.38086 11.4961C9.81152 11.0039 10.251 10.5381 10.251 9.99316C10.251 9.39551 9.82031 8.99121 9.16992 8.99121C8.60742 8.99121 8.18555 9.29004 7.99219 9.90527C7.87793 10.1777 7.71094 10.3535 7.41211 10.3535C7.06934 10.3535 6.84961 10.1162 6.84961 9.75586C6.84961 9.6416 6.87598 9.52734 6.90234 9.4043C7.13965 8.48145 8.08887 7.81348 9.15234 7.81348C10.5586 7.81348 11.4551 8.63086 11.4639 9.87891C11.4639 10.7578 10.998 11.3994 10.3125 12.1904L8.73926 14.0273V14.0977H11.0684C11.4111 14.0977 11.6572 14.3086 11.6572 14.6953C11.6572 15.0645 11.4111 15.3018 11.0684 15.3018H7.54395ZM14.9795 15.4951C13.4414 15.4951 12.4307 14.0977 12.4307 11.6543C12.4307 9.21094 13.4414 7.81348 14.9795 7.81348C16.5 7.81348 17.5371 9.21094 17.5371 11.6543C17.5371 14.0977 16.5 15.4951 14.9795 15.4951ZM14.9795 14.2471C15.7354 14.2471 16.2012 13.3154 16.2012 11.6543C16.2012 9.99316 15.7266 9.06152 14.9795 9.06152C14.2236 9.06152 13.7578 9.99316 13.7578 11.6543C13.7578 13.3154 14.2236 14.2471 14.9795 14.2471Z" fill="#1C1C1E"/>
</g>
<defs>
<clipPath id="clip0_10_1904">
<rect width="24" height="24" fill="white"/>
</clipPath>
</defs>
</svg>
