<svg width="24" height="24" viewBox="0 0 24 24" fill="none" xmlns="http://www.w3.org/2000/svg">
<g clip-path="url(#clip0_10_1903)">
<path d="M11.9912 20.7422C16.9746 20.7422 21.0879 16.6289 21.0879 11.6543C21.0879 6.67969 16.9658 2.56641 11.9824 2.56641C7.00781 2.56641 2.90332 6.67969 2.90332 11.6543C2.90332 16.6289 7.0166 20.7422 11.9912 20.7422ZM11.9912 18.9316C7.95703 18.9316 4.73145 15.6885 4.73145 11.6543C4.73145 7.62012 7.95703 4.38574 11.9824 4.38574C16.0166 4.38574 19.2598 7.62012 19.2686 11.6543C19.2773 15.6885 16.0254 18.9316 11.9912 18.9316ZM8.19434 15.1699H11.5957C11.9209 15.1699 12.1494 14.9414 12.1494 14.5811C12.1494 14.2207 11.9209 14.0098 11.5957 14.0098H9.33691V13.957L10.8662 12.1729C11.5166 11.417 11.9648 10.793 11.9648 9.94922C11.9561 8.75391 11.0947 7.96289 9.75 7.96289C8.72168 7.96289 7.80762 8.61328 7.5791 9.50098C7.55273 9.61523 7.53516 9.7207 7.53516 9.83496C7.53516 10.1777 7.7373 10.4062 8.07129 10.4062C8.36133 10.4062 8.51074 10.2393 8.61621 9.9668C8.80957 9.38672 9.21387 9.08789 9.76758 9.08789C10.3916 9.08789 10.8047 9.4834 10.8047 10.0547C10.8047 10.582 10.3916 11.0303 9.97852 11.5137L7.86035 14.0098C7.68457 14.1943 7.61426 14.3789 7.61426 14.5811C7.61426 14.9414 7.85156 15.1699 8.19434 15.1699ZM15.5859 15.2666C15.9727 15.2666 16.2012 15.0293 16.2012 14.6162V8.75391C16.2012 8.30566 15.9287 8.01562 15.4893 8.01562C15.1904 8.01562 14.9883 8.09473 14.6543 8.34961L13.4326 9.21973C13.2217 9.39551 13.1074 9.5625 13.1074 9.81738C13.1074 10.125 13.3623 10.3799 13.6436 10.3799C13.8193 10.3799 13.916 10.3447 14.1182 10.1777L14.9355 9.54492H14.9795V14.6162C14.9795 15.0293 15.208 15.2666 15.5859 15.2666Z" fill="#1C1C1E"/>
</g>
<defs>
<clipPath id="clip0_10_1903">
<rect width="24" height="24" fill="white"/>
</clipPath>
</defs>
</svg>
