<svg width="24" height="24" viewBox="0 0 24 24" fill="none" xmlns="http://www.w3.org/2000/svg">
<g clip-path="url(#clip0_10_1902)">
<path d="M11.9912 20.7422C16.9746 20.7422 21.0879 16.6289 21.0879 11.6543C21.0879 6.67969 16.9658 2.56641 11.9824 2.56641C7.00781 2.56641 2.90332 6.67969 2.90332 11.6543C2.90332 16.6289 7.0166 20.7422 11.9912 20.7422ZM8.05371 15.3018C7.68457 15.3018 7.43848 15.0645 7.43848 14.6865C7.43848 14.4668 7.50879 14.291 7.69336 14.0801L9.89062 11.5049C10.3213 11.0039 10.752 10.5381 10.752 9.99316C10.752 9.39551 10.3301 8.99121 9.67969 8.99121C9.09961 8.99121 8.69531 9.29883 8.49316 9.90527C8.37891 10.1777 8.2207 10.3535 7.92188 10.3535C7.5791 10.3535 7.35938 10.1162 7.35938 9.75586C7.35938 9.6416 7.38574 9.52734 7.40332 9.4043C7.64941 8.48145 8.58984 7.82227 9.66211 7.82227C11.0596 7.82227 11.9561 8.63086 11.9648 9.87891C11.9648 10.7578 11.499 11.3994 10.8223 12.1904L9.24902 14.0273V14.0977H11.5781C11.9209 14.0977 12.1582 14.3174 12.1582 14.6953C12.1582 15.0645 11.9209 15.3018 11.5781 15.3018H8.05371ZM15.7354 15.4072C15.3311 15.4072 15.0938 15.1611 15.0938 14.7217V9.47461H15.0498L14.2061 10.1162C14.0039 10.292 13.8896 10.3271 13.7139 10.3271C13.4238 10.3271 13.1514 10.0635 13.1514 9.73828C13.1514 9.4834 13.2656 9.29883 13.4941 9.12305L14.751 8.21777C15.1025 7.9541 15.3135 7.86621 15.6299 7.86621C16.0869 7.86621 16.377 8.16504 16.377 8.63086V14.7217C16.377 15.1611 16.1309 15.4072 15.7354 15.4072Z" fill="#1C1C1E"/>
</g>
<defs>
<clipPath id="clip0_10_1902">
<rect width="24" height="24" fill="white"/>
</clipPath>
</defs>
</svg>
