<svg width="24" height="24" viewBox="0 0 24 24" fill="none" xmlns="http://www.w3.org/2000/svg">
<g clip-path="url(#clip0_10_1901)">
<path d="M6.67383 19.8809H17.3174C19.2246 19.8809 20.209 18.8965 20.209 17.0156V6.31934C20.209 4.43848 19.2246 3.4541 17.3174 3.4541H6.67383C4.77539 3.4541 3.78223 4.42969 3.78223 6.31934V17.0156C3.78223 18.8965 4.77539 19.8809 6.67383 19.8809ZM6.78809 18.1318C5.97949 18.1318 5.53125 17.71 5.53125 16.8574V6.47754C5.53125 5.625 5.97949 5.20312 6.78809 5.20312H17.2031C18.0029 5.20312 18.46 5.625 18.46 6.47754V16.8574C18.46 17.71 18.0029 18.1318 17.2031 18.1318H6.78809ZM8.21191 15.1611H11.6133C11.9385 15.1611 12.167 14.9326 12.167 14.5811C12.167 14.2207 11.9385 14.0098 11.6133 14.0098H9.3457V13.9482L10.875 12.1641C11.5254 11.4082 11.9824 10.793 11.9824 9.94922C11.9736 8.74512 11.1123 7.96289 9.75879 7.96289C8.73047 7.96289 7.8252 8.60449 7.59668 9.49219C7.57031 9.60645 7.55273 9.71191 7.55273 9.82617C7.55273 10.1689 7.75488 10.3975 8.08887 10.3975C8.37012 10.3975 8.51953 10.2305 8.63379 9.9668C8.82715 9.37793 9.22266 9.08789 9.78516 9.08789C10.4092 9.08789 10.8223 9.47461 10.8223 10.0547C10.8223 10.582 10.4004 11.0215 9.9873 11.5137L7.86914 14.001C7.70215 14.1943 7.63184 14.3701 7.63184 14.5723C7.63184 14.9326 7.86914 15.1611 8.21191 15.1611ZM15.6035 15.2666C15.9902 15.2666 16.2188 15.0205 16.2188 14.6074V8.74512C16.2188 8.29688 15.9463 8.00684 15.5068 8.00684C15.208 8.00684 15.0059 8.09473 14.6719 8.34961L13.4502 9.21094C13.2305 9.38672 13.1162 9.5625 13.1162 9.80859C13.1162 10.1162 13.3799 10.3711 13.6611 10.3711C13.8281 10.3711 13.9336 10.3359 14.1357 10.1689L14.9531 9.54492H14.9971V14.6074C14.9971 15.0205 15.2256 15.2666 15.6035 15.2666Z" fill="#1C1C1E"/>
</g>
<defs>
<clipPath id="clip0_10_1901">
<rect width="24" height="24" fill="white"/>
</clipPath>
</defs>
</svg>
