<svg width="24" height="24" viewBox="0 0 24 24" fill="none" xmlns="http://www.w3.org/2000/svg">
<g clip-path="url(#clip0_10_1900)">
<path d="M6.67383 19.8809H17.3174C19.2246 19.8809 20.209 18.8965 20.209 17.0156V6.31934C20.209 4.43848 19.2246 3.4541 17.3174 3.4541H6.67383C4.77539 3.4541 3.78223 4.42969 3.78223 6.31934V17.0156C3.78223 18.8965 4.77539 19.8809 6.67383 19.8809ZM8.08887 15.3018C7.72852 15.3018 7.47363 15.0645 7.47363 14.6865C7.47363 14.4668 7.54395 14.291 7.7373 14.0801L9.92578 11.5049C10.3564 11.0039 10.7871 10.5381 10.7871 9.99316C10.7871 9.39551 10.3652 8.99121 9.71484 8.99121C9.13477 8.99121 8.73047 9.29883 8.52832 9.90527C8.41406 10.1777 8.25586 10.3535 7.95703 10.3535C7.61426 10.3535 7.39453 10.1162 7.39453 9.75586C7.39453 9.6416 7.4209 9.52734 7.43848 9.4043C7.68457 8.48145 8.625 7.82227 9.69727 7.82227C11.0947 7.82227 11.9912 8.63086 12 9.87891C12 10.7578 11.5342 11.3994 10.8574 12.1904L9.28418 14.0273V14.0977H11.6133C11.9561 14.0977 12.2021 14.3174 12.2021 14.6953C12.2021 15.0645 11.9561 15.3018 11.6133 15.3018H8.08887ZM15.7705 15.4072C15.3662 15.4072 15.1289 15.1611 15.1289 14.7217V9.47461H15.085L14.2412 10.1162C14.0391 10.292 13.9248 10.3271 13.749 10.3271C13.459 10.3271 13.1865 10.0635 13.1865 9.73828C13.1865 9.4834 13.3008 9.29883 13.5293 9.12305L14.7861 8.21777C15.1377 7.9541 15.3486 7.86621 15.665 7.86621C16.1309 7.86621 16.4121 8.16504 16.4121 8.63086V14.7217C16.4121 15.1611 16.1748 15.4072 15.7705 15.4072Z" fill="#1C1C1E"/>
</g>
<defs>
<clipPath id="clip0_10_1900">
<rect width="24" height="24" fill="white"/>
</clipPath>
</defs>
</svg>
