<svg width="24" height="24" viewBox="0 0 24 24" fill="none" xmlns="http://www.w3.org/2000/svg">
<g clip-path="url(#clip0_10_2202)">
<path d="M11.9912 20.7422C16.9746 20.7422 21.0879 16.6289 21.0879 11.6543C21.0879 6.67969 16.9658 2.56641 11.9824 2.56641C7.00781 2.56641 2.90332 6.67969 2.90332 11.6543C2.90332 16.6289 7.0166 20.7422 11.9912 20.7422ZM7.51758 15.3018C7.15723 15.3018 6.91113 15.0645 6.91113 14.6865C6.91113 14.4668 6.98145 14.291 7.16602 14.0801L9.35449 11.5049C9.78516 11.0039 10.2246 10.5469 10.2246 9.99316C10.2246 9.39551 9.79395 8.99121 9.14355 8.99121C8.57227 8.99121 8.15918 9.29883 7.95703 9.90527C7.85156 10.1865 7.69336 10.3623 7.38574 10.3623C7.04297 10.3623 6.82324 10.1162 6.82324 9.75586C6.82324 9.6416 6.84961 9.53613 6.87598 9.4043C7.11328 8.48145 8.05371 7.82227 9.12598 7.82227C10.5322 7.82227 11.4287 8.63965 11.4287 9.87891C11.4287 10.7578 10.9717 11.4082 10.2861 12.1904L8.71289 14.0361V14.0977H11.042C11.3848 14.0977 11.6309 14.3174 11.6309 14.6953C11.6309 15.0645 11.3848 15.3018 11.042 15.3018H7.51758ZM13.3975 15.3018C13.0283 15.3018 12.7822 15.0645 12.7822 14.6865C12.7822 14.4668 12.8525 14.291 13.0371 14.0801L15.2344 11.5049C15.6562 11.0039 16.0957 10.5469 16.0957 9.99316C16.0957 9.39551 15.665 8.99121 15.0234 8.99121C14.4434 8.99121 14.0391 9.29883 13.8369 9.90527C13.7139 10.1865 13.5645 10.3623 13.2656 10.3623C12.9229 10.3623 12.7031 10.1162 12.7031 9.75586C12.7031 9.6416 12.7207 9.53613 12.7471 9.4043C12.9844 8.48145 13.9336 7.82227 15.0059 7.82227C16.4033 7.82227 17.2998 8.63965 17.3086 9.87891C17.3086 10.7578 16.834 11.4082 16.166 12.1904L14.5928 14.0361V14.0977H16.9219C17.2646 14.0977 17.502 14.3174 17.502 14.6953C17.502 15.0645 17.2646 15.3018 16.9219 15.3018H13.3975Z" fill="#1C1C1E"/>
</g>
<defs>
<clipPath id="clip0_10_2202">
<rect width="24" height="24" fill="white"/>
</clipPath>
</defs>
</svg>
