<svg width="24" height="24" viewBox="0 0 24 24" fill="none" xmlns="http://www.w3.org/2000/svg">
<g clip-path="url(#clip0_10_1899)">
<path d="M11.9912 20.7422C16.9746 20.7422 21.0879 16.6289 21.0879 11.6543C21.0879 6.67969 16.9658 2.56641 11.9824 2.56641C7.00781 2.56641 2.90332 6.67969 2.90332 11.6543C2.90332 16.6289 7.0166 20.7422 11.9912 20.7422ZM11.9912 18.9316C7.95703 18.9316 4.73145 15.6885 4.73145 11.6543C4.73145 7.62012 7.95703 4.38574 11.9824 4.38574C16.0166 4.38574 19.2598 7.62012 19.2686 11.6543C19.2773 15.6885 16.0254 18.9316 11.9912 18.9316ZM7.68457 15.1699H11.0859C11.4111 15.1699 11.6396 14.9414 11.6396 14.5811C11.6396 14.2207 11.4111 14.0098 11.0859 14.0098H8.81836V13.957L10.3477 12.1729C10.998 11.417 11.4551 10.793 11.4463 9.94922C11.4463 8.75391 10.585 7.96289 9.23145 7.96289C8.20312 7.96289 7.29785 8.61328 7.06934 9.50098C7.04297 9.61523 7.02539 9.7207 7.02539 9.83496C7.02539 10.1777 7.22754 10.4062 7.56152 10.4062C7.84277 10.4062 7.99219 10.2393 8.10645 9.9668C8.2998 9.38672 8.69531 9.08789 9.25781 9.08789C9.88184 9.08789 10.2949 9.4834 10.2949 10.0547C10.2949 10.582 9.87305 11.0303 9.45996 11.5137L7.3418 14.0098C7.16602 14.1943 7.10449 14.3789 7.10449 14.5811C7.10449 14.9414 7.33301 15.1699 7.68457 15.1699ZM13.3359 15.1699H16.7373C17.0625 15.1699 17.291 14.9414 17.291 14.5811C17.291 14.2207 17.0625 14.0098 16.7373 14.0098H14.4785V13.957L15.999 12.1729C16.6494 11.417 17.1064 10.793 17.1064 9.94922C17.0977 8.75391 16.2363 7.96289 14.8828 7.96289C13.8545 7.96289 12.9492 8.61328 12.7207 9.50098C12.6943 9.61523 12.6768 9.7207 12.6768 9.83496C12.6768 10.1777 12.8789 10.4062 13.2129 10.4062C13.5029 10.4062 13.6436 10.2393 13.7578 9.9668C13.9512 9.38672 14.3467 9.08789 14.9092 9.08789C15.5332 9.08789 15.9463 9.4834 15.9463 10.0547C15.9463 10.582 15.5244 11.0303 15.1113 11.5137L12.9932 14.0098C12.8262 14.1943 12.7559 14.3789 12.7559 14.5811C12.7559 14.9414 12.9932 15.1699 13.3359 15.1699Z" fill="#1C1C1E"/>
</g>
<defs>
<clipPath id="clip0_10_1899">
<rect width="24" height="24" fill="white"/>
</clipPath>
</defs>
</svg>
