<svg width="24" height="24" viewBox="0 0 24 24" fill="none" xmlns="http://www.w3.org/2000/svg">
<g clip-path="url(#clip0_10_1897)">
<path d="M6.67383 19.8809H17.3174C19.2246 19.8809 20.209 18.8965 20.209 17.0156V6.31934C20.209 4.43848 19.2246 3.4541 17.3174 3.4541H6.67383C4.77539 3.4541 3.78223 4.42969 3.78223 6.31934V17.0156C3.78223 18.8965 4.77539 19.8809 6.67383 19.8809ZM7.55273 15.3018C7.19238 15.3018 6.94629 15.0645 6.94629 14.6865C6.94629 14.4668 7.0166 14.291 7.20117 14.0801L9.38965 11.5049C9.82031 11.0039 10.2598 10.5469 10.2598 9.99316C10.2598 9.39551 9.8291 8.99121 9.17871 8.99121C8.60742 8.99121 8.19434 9.29883 8.00098 9.90527C7.88672 10.1865 7.72852 10.3623 7.4209 10.3623C7.07812 10.3623 6.8584 10.1162 6.8584 9.75586C6.8584 9.6416 6.88477 9.53613 6.91113 9.4043C7.14844 8.48145 8.08887 7.82227 9.16113 7.82227C10.5674 7.82227 11.4639 8.63965 11.4639 9.87891C11.4639 10.7578 11.0068 11.4082 10.3213 12.1904L8.74805 14.0361V14.0977H11.0771C11.4199 14.0977 11.666 14.3174 11.666 14.6953C11.666 15.0645 11.4199 15.3018 11.0771 15.3018H7.55273ZM13.4326 15.3018C13.0723 15.3018 12.8174 15.0645 12.8174 14.6865C12.8174 14.4668 12.8877 14.291 13.0811 14.0801L15.2695 11.5049C15.6914 11.0039 16.1309 10.5469 16.1309 9.99316C16.1309 9.39551 15.7002 8.99121 15.0586 8.99121C14.4785 8.99121 14.0742 9.29883 13.8721 9.90527C13.749 10.1865 13.5996 10.3623 13.3008 10.3623C12.958 10.3623 12.7383 10.1162 12.7383 9.75586C12.7383 9.6416 12.7559 9.53613 12.7822 9.4043C13.0195 8.48145 13.9688 7.82227 15.041 7.82227C16.4385 7.82227 17.335 8.63965 17.3438 9.87891C17.3438 10.7578 16.8691 11.4082 16.2012 12.1904L14.6279 14.0361V14.0977H16.957C17.2998 14.0977 17.5459 14.3174 17.5459 14.6953C17.5459 15.0645 17.2998 15.3018 16.957 15.3018H13.4326Z" fill="#1C1C1E"/>
</g>
<defs>
<clipPath id="clip0_10_1897">
<rect width="24" height="24" fill="white"/>
</clipPath>
</defs>
</svg>
