<svg width="24" height="24" viewBox="0 0 24 24" fill="none" xmlns="http://www.w3.org/2000/svg">
<g clip-path="url(#clip0_10_1898)">
<path d="M6.67383 19.8809H17.3174C19.2246 19.8809 20.209 18.8965 20.209 17.0156V6.31934C20.209 4.43848 19.2246 3.4541 17.3174 3.4541H6.67383C4.77539 3.4541 3.78223 4.42969 3.78223 6.31934V17.0156C3.78223 18.8965 4.77539 19.8809 6.67383 19.8809ZM6.78809 18.1318C5.97949 18.1318 5.53125 17.71 5.53125 16.8574V6.47754C5.53125 5.625 5.97949 5.20312 6.78809 5.20312H17.2031C18.0029 5.20312 18.46 5.625 18.46 6.47754V16.8574C18.46 17.71 18.0029 18.1318 17.2031 18.1318H6.78809ZM7.69336 15.1611H11.0947C11.4199 15.1611 11.6572 14.9326 11.6572 14.5811C11.6572 14.2207 11.4199 14.0098 11.0947 14.0098H8.83594V13.9482L10.3652 12.1641C11.0156 11.4082 11.4639 10.793 11.4639 9.94922C11.4639 8.74512 10.5938 7.96289 9.24902 7.96289C8.2207 7.96289 7.30664 8.60449 7.07812 9.49219C7.06055 9.60645 7.03418 9.71191 7.03418 9.82617C7.03418 10.1689 7.24512 10.3975 7.57031 10.3975C7.86035 10.3975 8.00977 10.2305 8.12402 9.9668C8.31738 9.37793 8.71289 9.08789 9.2666 9.08789C9.89941 9.08789 10.3125 9.47461 10.3125 10.0547C10.3125 10.582 9.89062 11.0215 9.47754 11.5137L7.35938 14.001C7.18359 14.1943 7.11328 14.3701 7.11328 14.5723C7.11328 14.9326 7.35059 15.1611 7.69336 15.1611ZM13.3535 15.1611H16.7549C17.0801 15.1611 17.3086 14.9326 17.3086 14.5811C17.3086 14.2207 17.0801 14.0098 16.7549 14.0098H14.4873V13.9482L16.0166 12.1641C16.667 11.4082 17.124 10.793 17.1152 9.94922C17.1152 8.74512 16.2539 7.96289 14.9004 7.96289C13.8721 7.96289 12.9668 8.60449 12.7383 9.49219C12.7119 9.60645 12.6943 9.71191 12.6943 9.82617C12.6943 10.1689 12.8965 10.3975 13.2305 10.3975C13.5117 10.3975 13.6611 10.2305 13.7754 9.9668C13.9688 9.37793 14.3643 9.08789 14.9268 9.08789C15.5508 9.08789 15.9639 9.47461 15.9639 10.0547C15.9639 10.582 15.542 11.0215 15.1289 11.5137L13.0107 14.001C12.835 14.1943 12.7734 14.3701 12.7734 14.5723C12.7734 14.9326 13.002 15.1611 13.3535 15.1611Z" fill="#1C1C1E"/>
</g>
<defs>
<clipPath id="clip0_10_1898">
<rect width="24" height="24" fill="white"/>
</clipPath>
</defs>
</svg>
