<svg width="24" height="24" viewBox="0 0 24 24" fill="none" xmlns="http://www.w3.org/2000/svg">
<g clip-path="url(#clip0_10_1896)">
<path d="M11.9912 20.7422C16.9746 20.7422 21.0879 16.6289 21.0879 11.6543C21.0879 6.67969 16.9658 2.56641 11.9824 2.56641C7.00781 2.56641 2.90332 6.67969 2.90332 11.6543C2.90332 16.6289 7.0166 20.7422 11.9912 20.7422ZM11.9912 18.9316C7.95703 18.9316 4.73145 15.6885 4.73145 11.6543C4.73145 7.62012 7.95703 4.38574 11.9824 4.38574C16.0166 4.38574 19.2598 7.62012 19.2686 11.6543C19.2773 15.6885 16.0254 18.9316 11.9912 18.9316ZM7.6582 15.1699H11.0596C11.3848 15.1699 11.6133 14.9414 11.6133 14.5811C11.6133 14.2207 11.3848 14.0098 11.0596 14.0098H8.80078V13.957L10.3301 12.1729C10.9805 11.417 11.4287 10.793 11.4287 9.94922C11.4199 8.75391 10.5586 7.96289 9.21387 7.96289C8.17676 7.96289 7.27148 8.61328 7.04297 9.50098C7.0166 9.61523 6.99902 9.7207 6.99902 9.83496C6.99902 10.1777 7.20117 10.4062 7.53516 10.4062C7.8252 10.4062 7.97461 10.2393 8.08008 9.9668C8.27344 9.38672 8.67773 9.08789 9.23145 9.08789C9.85547 9.08789 10.2686 9.4834 10.2686 10.0547C10.2686 10.582 9.85547 11.0303 9.44238 11.5137L7.32422 14.0098C7.14844 14.1943 7.07812 14.3789 7.07812 14.5811C7.07812 14.9414 7.31543 15.1699 7.6582 15.1699ZM14.9268 15.3545C16.4033 15.3545 17.4141 14.4844 17.4141 13.2363C17.4141 12.3311 16.7988 11.5928 15.9551 11.5137V11.4521C16.6494 11.3379 17.1943 10.6348 17.1943 9.84375C17.1943 8.73633 16.2891 7.96289 14.9795 7.96289C13.8193 7.96289 12.9756 8.63965 12.7471 9.42188C12.7119 9.55371 12.7031 9.65039 12.7031 9.77344C12.7031 10.125 12.9229 10.3447 13.248 10.3447C13.5205 10.3447 13.6787 10.2041 13.7754 9.93164C13.9688 9.37793 14.3467 9.0791 14.9531 9.0791C15.5596 9.0791 15.9902 9.45703 15.9902 10.0107C15.9902 10.5732 15.5684 10.9951 14.9443 10.9951H14.5576C14.2236 10.9951 14.0127 11.2148 14.0127 11.5576C14.0127 11.8828 14.2148 12.1289 14.5576 12.1289H14.9795C15.7178 12.1289 16.1836 12.542 16.1836 13.166C16.1836 13.7637 15.6738 14.2207 14.9443 14.2207C14.3291 14.2207 13.8984 13.9219 13.6699 13.3682C13.5469 13.0957 13.3887 12.9639 13.125 12.9639C12.8174 12.9639 12.5713 13.1836 12.5713 13.5264C12.5713 13.6582 12.5889 13.7549 12.624 13.8691C12.8525 14.6426 13.7754 15.3545 14.9268 15.3545Z" fill="#1C1C1E"/>
</g>
<defs>
<clipPath id="clip0_10_1896">
<rect width="24" height="24" fill="white"/>
</clipPath>
</defs>
</svg>
