<svg width="24" height="24" viewBox="0 0 24 24" fill="none" xmlns="http://www.w3.org/2000/svg">
<g clip-path="url(#clip0_10_1895)">
<path d="M11.9912 20.7422C16.9746 20.7422 21.0879 16.6289 21.0879 11.6543C21.0879 6.67969 16.9658 2.56641 11.9824 2.56641C7.00781 2.56641 2.90332 6.67969 2.90332 11.6543C2.90332 16.6289 7.0166 20.7422 11.9912 20.7422ZM7.49121 15.3018C7.13086 15.3018 6.88477 15.0645 6.88477 14.6865C6.88477 14.4668 6.95508 14.2822 7.13965 14.0801L9.33691 11.4961C9.75879 11.0039 10.1982 10.5381 10.1982 9.99316C10.1982 9.39551 9.76758 8.99121 9.12598 8.99121C8.5459 8.99121 8.1416 9.29004 7.93945 9.90527C7.81641 10.1777 7.66699 10.3535 7.36816 10.3535C7.0166 10.3535 6.80566 10.1162 6.80566 9.75586C6.80566 9.6416 6.82324 9.52734 6.84961 9.4043C7.08691 8.48145 8.02734 7.81348 9.09961 7.81348C10.5059 7.81348 11.4023 8.63086 11.4023 9.87891C11.4111 10.7578 10.9365 11.3994 10.2598 12.1904L8.68652 14.0273V14.0977H11.0244C11.3584 14.0977 11.6045 14.3086 11.6045 14.6953C11.6045 15.0645 11.3584 15.3018 11.0244 15.3018H7.49121ZM15.041 15.4951C13.8457 15.4951 12.8789 14.7568 12.6504 13.957C12.6152 13.834 12.5977 13.7285 12.5977 13.5967C12.5977 13.2363 12.8525 12.999 13.1689 12.999C13.4414 12.999 13.6172 13.1396 13.7402 13.4209C13.9775 14.001 14.4258 14.3086 15.0586 14.3086C15.8145 14.3086 16.3418 13.834 16.3418 13.2275C16.3418 12.5684 15.8584 12.1465 15.0938 12.1465H14.6631C14.2939 12.1465 14.0918 11.8916 14.0918 11.5576C14.0918 11.1885 14.3115 10.9512 14.6631 10.9512H15.0586C15.709 10.9512 16.1396 10.5205 16.1396 9.94043C16.1396 9.36914 15.6914 8.98242 15.0674 8.98242C14.4434 8.98242 14.0566 9.29004 13.8545 9.87012C13.7402 10.1514 13.582 10.292 13.292 10.292C12.958 10.292 12.7383 10.0547 12.7383 9.69434C12.7383 9.5625 12.7471 9.45703 12.7822 9.3252C13.0107 8.5166 13.8896 7.81348 15.0938 7.81348C16.4648 7.81348 17.4053 8.60449 17.4053 9.76465C17.4053 10.582 16.834 11.3203 16.1133 11.4346V11.4961C16.9922 11.584 17.625 12.3398 17.625 13.2891C17.625 14.5898 16.5703 15.4951 15.041 15.4951Z" fill="#1C1C1E"/>
</g>
<defs>
<clipPath id="clip0_10_1895">
<rect width="24" height="24" fill="white"/>
</clipPath>
</defs>
</svg>
