<svg width="24" height="24" viewBox="0 0 24 24" fill="none" xmlns="http://www.w3.org/2000/svg">
<g clip-path="url(#clip0_10_1894)">
<path d="M6.67383 19.8809H17.3174C19.2246 19.8809 20.209 18.8965 20.209 17.0156V6.31934C20.209 4.43848 19.2246 3.4541 17.3174 3.4541H6.67383C4.77539 3.4541 3.78223 4.42969 3.78223 6.31934V17.0156C3.78223 18.8965 4.77539 19.8809 6.67383 19.8809ZM6.78809 18.1318C5.97949 18.1318 5.53125 17.71 5.53125 16.8574V6.47754C5.53125 5.625 5.97949 5.20312 6.78809 5.20312H17.2031C18.0029 5.20312 18.46 5.625 18.46 6.47754V16.8574C18.46 17.71 18.0029 18.1318 17.2031 18.1318H6.78809ZM7.67578 15.1611H11.0771C11.4023 15.1611 11.6309 14.9326 11.6309 14.5811C11.6309 14.2207 11.4023 14.0098 11.0771 14.0098H8.80957V13.9482L10.3389 12.1641C10.9893 11.4082 11.4463 10.793 11.4375 9.94922C11.4375 8.74512 10.5762 7.96289 9.22266 7.96289C8.19434 7.96289 7.28906 8.60449 7.06055 9.49219C7.03418 9.60645 7.0166 9.71191 7.0166 9.82617C7.0166 10.1689 7.21875 10.3975 7.55273 10.3975C7.83398 10.3975 7.9834 10.2305 8.09766 9.9668C8.29102 9.37793 8.68652 9.08789 9.24902 9.08789C9.87305 9.08789 10.2861 9.47461 10.2861 10.0547C10.2861 10.582 9.86426 11.0215 9.45117 11.5137L7.33301 14.001C7.16602 14.1943 7.0957 14.3701 7.0957 14.5723C7.0957 14.9326 7.32422 15.1611 7.67578 15.1611ZM14.9443 15.3457C16.4209 15.3457 17.4316 14.4756 17.4316 13.2275C17.4316 12.3223 16.8164 11.584 15.9727 11.5049V11.4521C16.667 11.3291 17.2119 10.626 17.2119 9.83496C17.2119 8.72754 16.3066 7.96289 14.9883 7.96289C13.8281 7.96289 12.9844 8.63086 12.7646 9.41309C12.7295 9.54492 12.7207 9.6416 12.7207 9.77344C12.7207 10.1162 12.9404 10.3447 13.2568 10.3447C13.5381 10.3447 13.6875 10.2041 13.793 9.93164C13.9863 9.36914 14.3643 9.07031 14.9619 9.07031C15.5771 9.07031 16.0078 9.44824 16.0078 10.002C16.0078 10.5645 15.5859 10.9863 14.9619 10.9863H14.5664C14.2412 10.9863 14.0303 11.2148 14.0303 11.5576C14.0303 11.874 14.2324 12.1201 14.5664 12.1201H14.9971C15.7266 12.1201 16.1924 12.5332 16.1924 13.166C16.1924 13.7549 15.6914 14.2207 14.9531 14.2207C14.3467 14.2207 13.9072 13.9219 13.6787 13.3594C13.5645 13.0957 13.3975 12.9551 13.1426 12.9551C12.835 12.9551 12.5889 13.1748 12.5889 13.5264C12.5889 13.6494 12.6064 13.7461 12.6416 13.8691C12.8701 14.6426 13.793 15.3457 14.9443 15.3457Z" fill="#1C1C1E"/>
</g>
<defs>
<clipPath id="clip0_10_1894">
<rect width="24" height="24" fill="white"/>
</clipPath>
</defs>
</svg>
