<svg width="24" height="24" viewBox="0 0 24 24" fill="none" xmlns="http://www.w3.org/2000/svg">
<g clip-path="url(#clip0_10_2210)">
<path d="M6.67383 19.8809H17.3174C19.2246 19.8809 20.209 18.8965 20.209 17.0156V6.31934C20.209 4.43848 19.2246 3.4541 17.3174 3.4541H6.67383C4.77539 3.4541 3.78223 4.42969 3.78223 6.31934V17.0156C3.78223 18.8965 4.77539 19.8809 6.67383 19.8809ZM7.52637 15.3018C7.16602 15.3018 6.91992 15.0645 6.91992 14.6865C6.91992 14.4668 6.99023 14.2822 7.1748 14.0801L9.37207 11.4961C9.79395 11.0039 10.2334 10.5381 10.2334 9.99316C10.2334 9.39551 9.80273 8.99121 9.16113 8.99121C8.58105 8.99121 8.17676 9.29004 7.97461 9.90527C7.85156 10.1777 7.70215 10.3535 7.40332 10.3535C7.06055 10.3535 6.84082 10.1162 6.84082 9.75586C6.84082 9.6416 6.8584 9.52734 6.88477 9.4043C7.12207 8.48145 8.07129 7.81348 9.14355 7.81348C10.541 7.81348 11.4375 8.63086 11.4375 9.87891C11.4463 10.7578 10.9717 11.3994 10.2949 12.1904L8.72168 14.0273V14.0977H11.0596C11.4023 14.0977 11.6396 14.3086 11.6396 14.6953C11.6396 15.0645 11.4023 15.3018 11.0596 15.3018H7.52637ZM15.0762 15.4951C13.8809 15.4951 12.9141 14.7568 12.6855 13.957C12.6504 13.834 12.6328 13.7285 12.6328 13.5967C12.6328 13.2363 12.8877 12.999 13.2041 12.999C13.4766 12.999 13.6523 13.1396 13.7754 13.4209C14.0127 14.001 14.4609 14.3086 15.0938 14.3086C15.8496 14.3086 16.377 13.834 16.377 13.2275C16.377 12.5684 15.8936 12.1465 15.1289 12.1465H14.6982C14.3379 12.1465 14.127 11.8916 14.127 11.5576C14.127 11.1885 14.3467 10.9512 14.6982 10.9512H15.0938C15.7441 10.9512 16.1748 10.5205 16.1748 9.94043C16.1748 9.36914 15.7266 8.98242 15.1025 8.98242C14.4785 8.98242 14.0918 9.29004 13.8896 9.87012C13.7842 10.1514 13.6172 10.292 13.3359 10.292C13.002 10.292 12.7734 10.0547 12.7734 9.69434C12.7734 9.5625 12.7822 9.45703 12.8174 9.3252C13.0459 8.5166 13.9248 7.81348 15.1289 7.81348C16.5 7.81348 17.4404 8.60449 17.4404 9.76465C17.4404 10.582 16.8691 11.3203 16.1484 11.4346V11.4961C17.0273 11.584 17.6602 12.3398 17.6602 13.2891C17.6602 14.5898 16.6143 15.4951 15.0762 15.4951Z" fill="#1C1C1E"/>
</g>
<defs>
<clipPath id="clip0_10_2210">
<rect width="24" height="24" fill="white"/>
</clipPath>
</defs>
</svg>
