<svg width="24" height="24" viewBox="0 0 24 24" fill="none" xmlns="http://www.w3.org/2000/svg">
<g clip-path="url(#clip0_10_2200)">
<path d="M11.9912 20.7422C16.9746 20.7422 21.0879 16.6289 21.0879 11.6543C21.0879 6.67969 16.9658 2.56641 11.9824 2.56641C7.00781 2.56641 2.90332 6.67969 2.90332 11.6543C2.90332 16.6289 7.0166 20.7422 11.9912 20.7422ZM11.9912 18.9316C7.95703 18.9316 4.73145 15.6885 4.73145 11.6543C4.73145 7.62012 7.95703 4.38574 11.9824 4.38574C16.0166 4.38574 19.2598 7.62012 19.2686 11.6543C19.2773 15.6885 16.0254 18.9316 11.9912 18.9316ZM7.6582 15.1699H11.0596C11.3848 15.1699 11.6221 14.9414 11.6221 14.5811C11.6221 14.2207 11.3848 14.0098 11.0596 14.0098H8.80078V13.957L10.3301 12.1729C10.9805 11.417 11.4287 10.793 11.4287 9.94922C11.4287 8.75391 10.5586 7.96289 9.21387 7.96289C8.18555 7.96289 7.27148 8.61328 7.04297 9.50098C7.02539 9.61523 6.99902 9.7207 6.99902 9.83496C6.99902 10.1777 7.20996 10.4062 7.53516 10.4062C7.8252 10.4062 7.97461 10.2393 8.08008 9.9668C8.28223 9.38672 8.67773 9.08789 9.23145 9.08789C9.85547 9.08789 10.2773 9.4834 10.2773 10.0547C10.2773 10.582 9.85547 11.0303 9.44238 11.5137L7.32422 14.0098C7.14844 14.1943 7.07812 14.3789 7.07812 14.5811C7.07812 14.9414 7.31543 15.1699 7.6582 15.1699ZM15.9639 15.3457C16.3418 15.3457 16.5527 15.082 16.5527 14.7217V13.79H16.957C17.2822 13.79 17.4844 13.5967 17.4844 13.2627C17.4844 12.9199 17.2822 12.7178 16.957 12.7178H16.5527V8.89453C16.5527 8.33203 16.1836 7.96289 15.5947 7.96289C15.041 7.96289 14.6982 8.18262 14.4082 8.70996C13.749 9.83496 12.958 11.25 12.4395 12.208C12.3076 12.498 12.2373 12.7178 12.2373 12.9902C12.2373 13.5 12.5537 13.7988 13.0547 13.7988H15.3926V14.7217C15.3926 15.0732 15.5947 15.3457 15.9639 15.3457ZM15.3926 12.7178H13.4854V12.6826C13.9336 11.7773 14.7422 10.3184 15.3486 9.2373H15.3926V12.7178Z" fill="#1C1C1E"/>
</g>
<defs>
<clipPath id="clip0_10_2200">
<rect width="24" height="24" fill="white"/>
</clipPath>
</defs>
</svg>
