<svg width="24" height="24" viewBox="0 0 24 24" fill="none" xmlns="http://www.w3.org/2000/svg">
<g clip-path="url(#clip0_10_2206)">
<path d="M11.9912 20.7422C16.9746 20.7422 21.0879 16.6289 21.0879 11.6543C21.0879 6.67969 16.9658 2.56641 11.9824 2.56641C7.00781 2.56641 2.90332 6.67969 2.90332 11.6543C2.90332 16.6289 7.0166 20.7422 11.9912 20.7422ZM7.49121 15.3018C7.13086 15.3018 6.88477 15.0645 6.88477 14.6865C6.88477 14.4668 6.95508 14.2822 7.13965 14.0801L9.33691 11.4961C9.75879 11.0039 10.1982 10.5381 10.1982 9.99316C10.1982 9.39551 9.76758 8.99121 9.12598 8.99121C8.5459 8.99121 8.1416 9.29004 7.93945 9.90527C7.81641 10.1777 7.66699 10.3535 7.36816 10.3535C7.0166 10.3535 6.80566 10.1162 6.80566 9.75586C6.80566 9.6416 6.82324 9.52734 6.84961 9.4043C7.08691 8.48145 8.02734 7.81348 9.09961 7.81348C10.5059 7.81348 11.4023 8.63086 11.4023 9.87891C11.4111 10.7578 10.9365 11.3994 10.2598 12.1904L8.68652 14.0273V14.0977H11.0244C11.3584 14.0977 11.6045 14.3086 11.6045 14.6953C11.6045 15.0645 11.3584 15.3018 11.0244 15.3018H7.49121ZM16.1221 15.4863C15.7354 15.4863 15.5244 15.2051 15.5244 14.8271V13.8779H13.0986C12.5801 13.8779 12.2461 13.5703 12.2461 13.043C12.2461 12.7529 12.3164 12.5156 12.457 12.2168C12.9932 11.2148 13.8018 9.75586 14.4873 8.58691C14.7949 8.04199 15.1465 7.81348 15.7354 7.81348C16.3506 7.81348 16.7285 8.2002 16.7285 8.78906V12.7441H17.1416C17.4844 12.7441 17.7041 12.9639 17.7041 13.3242C17.7041 13.667 17.4844 13.8779 17.1416 13.8779H16.7285V14.8271C16.7285 15.2139 16.5088 15.4863 16.1221 15.4863ZM15.5244 12.7529V9.14062H15.4717C14.8477 10.2656 14.0215 11.7773 13.5557 12.709V12.7529H15.5244Z" fill="#1C1C1E"/>
</g>
<defs>
<clipPath id="clip0_10_2206">
<rect width="24" height="24" fill="white"/>
</clipPath>
</defs>
</svg>
