<svg width="24" height="24" viewBox="0 0 24 24" fill="none" xmlns="http://www.w3.org/2000/svg">
<g clip-path="url(#clip0_10_1893)">
<path d="M6.67383 19.8809H17.3174C19.2246 19.8809 20.209 18.8965 20.209 17.0156V6.31934C20.209 4.43848 19.2246 3.4541 17.3174 3.4541H6.67383C4.77539 3.4541 3.78223 4.42969 3.78223 6.31934V17.0156C3.78223 18.8965 4.77539 19.8809 6.67383 19.8809ZM7.52637 15.3018C7.16602 15.3018 6.91992 15.0645 6.91992 14.6865C6.91992 14.4668 6.99023 14.2822 7.1748 14.0801L9.37207 11.4961C9.79395 11.0039 10.2334 10.5381 10.2334 9.99316C10.2334 9.39551 9.80273 8.99121 9.16113 8.99121C8.58105 8.99121 8.17676 9.29004 7.97461 9.90527C7.85156 10.1777 7.70215 10.3535 7.40332 10.3535C7.06055 10.3535 6.84082 10.1162 6.84082 9.75586C6.84082 9.6416 6.8584 9.52734 6.88477 9.4043C7.12207 8.48145 8.0625 7.81348 9.14355 7.81348C10.541 7.81348 11.4375 8.63086 11.4375 9.87891C11.4463 10.7578 10.9717 11.3994 10.2949 12.1904L8.72168 14.0273V14.0977H11.0596C11.4023 14.0977 11.6396 14.3086 11.6396 14.6953C11.6396 15.0645 11.4023 15.3018 11.0596 15.3018H7.52637ZM16.1572 15.4863C15.7705 15.4863 15.5596 15.2051 15.5596 14.8271V13.8779H13.1338C12.6152 13.8779 12.2812 13.5703 12.2812 13.043C12.2812 12.7529 12.3516 12.5156 12.4922 12.2168C13.0283 11.2148 13.8369 9.75586 14.5225 8.58691C14.8301 8.04199 15.1816 7.81348 15.7705 7.81348C16.3857 7.81348 16.7637 8.2002 16.7637 8.78906V12.7441H17.1768C17.5195 12.7441 17.7393 12.9639 17.7393 13.3242C17.7393 13.667 17.5195 13.8779 17.1768 13.8779H16.7637V14.8271C16.7637 15.2139 16.5439 15.4863 16.1572 15.4863ZM15.5596 12.7529V9.14062H15.5068C14.8828 10.2656 14.0566 11.7773 13.5908 12.709V12.7529H15.5596Z" fill="#1C1C1E"/>
</g>
<defs>
<clipPath id="clip0_10_1893">
<rect width="24" height="24" fill="white"/>
</clipPath>
</defs>
</svg>
