<svg width="24" height="24" viewBox="0 0 24 24" fill="none" xmlns="http://www.w3.org/2000/svg">
<g clip-path="url(#clip0_10_2212)">
<path d="M6.67383 19.8809H17.3174C19.2246 19.8809 20.209 18.8965 20.209 17.0156V6.31934C20.209 4.43848 19.2246 3.4541 17.3174 3.4541H6.67383C4.77539 3.4541 3.78223 4.42969 3.78223 6.31934V17.0156C3.78223 18.8965 4.77539 19.8809 6.67383 19.8809ZM6.78809 18.1318C5.97949 18.1318 5.53125 17.71 5.53125 16.8574V6.47754C5.53125 5.625 5.97949 5.20312 6.78809 5.20312H17.2031C18.0029 5.20312 18.46 5.625 18.46 6.47754V16.8574C18.46 17.71 18.0029 18.1318 17.2031 18.1318H6.78809ZM7.67578 15.1611H11.0771C11.4023 15.1611 11.6309 14.9326 11.6309 14.5811C11.6309 14.2207 11.4023 14.0098 11.0771 14.0098H8.81836V13.9482L10.3477 12.1641C10.998 11.4082 11.4463 10.793 11.4463 9.94922C11.4375 8.74512 10.5762 7.96289 9.23145 7.96289C8.19434 7.96289 7.28906 8.60449 7.06055 9.49219C7.03418 9.60645 7.0166 9.71191 7.0166 9.82617C7.0166 10.1689 7.21875 10.3975 7.55273 10.3975C7.84277 10.3975 7.99219 10.2305 8.09766 9.9668C8.29102 9.37793 8.68652 9.08789 9.24902 9.08789C9.87305 9.08789 10.2861 9.47461 10.2861 10.0547C10.2861 10.582 9.86426 11.0215 9.45996 11.5137L7.33301 14.001C7.16602 14.1943 7.0957 14.3701 7.0957 14.5723C7.0957 14.9326 7.33301 15.1611 7.67578 15.1611ZM15.9814 15.3369C16.3594 15.3369 16.5615 15.0732 16.5615 14.7129V13.79H16.9658C17.2998 13.79 17.502 13.5879 17.502 13.2539C17.502 12.9111 17.291 12.709 16.9658 12.709H16.5615V8.89453C16.5615 8.32324 16.1924 7.96289 15.6123 7.96289C15.0498 7.96289 14.7158 8.17383 14.417 8.70117C13.7666 9.82617 12.9668 11.2412 12.457 12.208C12.3164 12.4893 12.2549 12.7178 12.2549 12.9902C12.2549 13.4912 12.5713 13.79 13.0635 13.79H15.4102V14.7129C15.4102 15.0732 15.6123 15.3369 15.9814 15.3369ZM15.4102 12.7178H13.4941V12.6738C13.9512 11.7773 14.751 10.3096 15.3662 9.22852H15.4102V12.7178Z" fill="#1C1C1E"/>
</g>
<defs>
<clipPath id="clip0_10_2212">
<rect width="24" height="24" fill="white"/>
</clipPath>
</defs>
</svg>
