<svg width="24" height="24" viewBox="0 0 24 24" fill="none" xmlns="http://www.w3.org/2000/svg">
<g clip-path="url(#clip0_10_2204)">
<path d="M11.9912 20.7422C16.9746 20.7422 21.0879 16.6289 21.0879 11.6543C21.0879 6.67969 16.9658 2.56641 11.9824 2.56641C7.00781 2.56641 2.90332 6.67969 2.90332 11.6543C2.90332 16.6289 7.0166 20.7422 11.9912 20.7422ZM7.44727 15.3018C7.08691 15.3018 6.84082 15.0645 6.84082 14.6865C6.84082 14.4668 6.91113 14.2822 7.0957 14.0801L9.28418 11.4961C9.71484 11.0039 10.1543 10.5381 10.1543 9.99316C10.1543 9.39551 9.71484 8.99121 9.07324 8.99121C8.50195 8.99121 8.08887 9.29004 7.88672 9.90527C7.77246 10.1777 7.61426 10.3535 7.31543 10.3535C6.97266 10.3535 6.75293 10.1162 6.75293 9.75586C6.75293 9.6416 6.7793 9.52734 6.79688 9.4043C7.04297 8.48145 7.9834 7.81348 9.05566 7.81348C10.4619 7.81348 11.3496 8.63086 11.3584 9.87891C11.3584 10.7578 10.8926 11.3994 10.2158 12.1904L8.64258 14.0273V14.0977H10.9717C11.3145 14.0977 11.5605 14.3086 11.5605 14.6953C11.5605 15.0645 11.3145 15.3018 10.9717 15.3018H7.44727ZM14.9092 15.4951C13.7842 15.4951 12.9229 14.8975 12.6592 14.2031C12.5977 14.0625 12.5713 13.9219 12.5713 13.7637C12.5713 13.4297 12.8086 13.1836 13.1338 13.1836C13.3887 13.1836 13.5557 13.333 13.6963 13.5703C13.9424 14.0449 14.4082 14.3525 14.9707 14.3525C15.7617 14.3525 16.2891 13.8252 16.2891 12.9639C16.2891 12.2168 15.8057 11.6455 15.085 11.6455C14.7246 11.6455 14.4609 11.7598 14.1182 12.0586C13.8545 12.2695 13.6699 12.3574 13.3623 12.3574C12.9229 12.3574 12.6504 12.0322 12.6768 11.5312L12.8789 8.82422C12.9141 8.30566 13.2305 7.99805 13.7314 7.99805H16.7285C17.0537 7.99805 17.2646 8.21777 17.2646 8.55176C17.2646 8.89453 17.0361 9.12305 16.7285 9.12305H13.9424L13.793 11.2764H13.8281C14.1006 10.8633 14.707 10.582 15.2871 10.582C16.6055 10.582 17.5371 11.54 17.5371 12.9287C17.5371 14.5107 16.5 15.4951 14.9092 15.4951Z" fill="#1C1C1E"/>
</g>
<defs>
<clipPath id="clip0_10_2204">
<rect width="24" height="24" fill="white"/>
</clipPath>
</defs>
</svg>
