<svg width="24" height="24" viewBox="0 0 24 24" fill="none" xmlns="http://www.w3.org/2000/svg">
<g clip-path="url(#clip0_10_2198)">
<path d="M11.9912 20.7422C16.9746 20.7422 21.0879 16.6289 21.0879 11.6543C21.0879 6.67969 16.9658 2.56641 11.9824 2.56641C7.00781 2.56641 2.90332 6.67969 2.90332 11.6543C2.90332 16.6289 7.0166 20.7422 11.9912 20.7422ZM11.9912 18.9316C7.95703 18.9316 4.73145 15.6885 4.73145 11.6543C4.73145 7.62012 7.95703 4.38574 11.9824 4.38574C16.0166 4.38574 19.2598 7.62012 19.2686 11.6543C19.2773 15.6885 16.0254 18.9316 11.9912 18.9316ZM7.61426 15.1699H11.0068C11.3408 15.1699 11.5693 14.9414 11.5693 14.5811C11.5693 14.2207 11.3408 14.0098 11.0068 14.0098H8.74805V13.957L10.2773 12.1729C10.9277 11.417 11.3848 10.793 11.376 9.94922C11.376 8.75391 10.5146 7.96289 9.16113 7.96289C8.13281 7.96289 7.22754 8.61328 6.99902 9.50098C6.97266 9.61523 6.94629 9.7207 6.94629 9.83496C6.94629 10.1777 7.15723 10.4062 7.48242 10.4062C7.77246 10.4062 7.92188 10.2393 8.03613 9.9668C8.22949 9.38672 8.625 9.08789 9.1875 9.08789C9.81152 9.08789 10.2246 9.4834 10.2246 10.0547C10.2246 10.582 9.80273 11.0303 9.38965 11.5137L7.27148 14.0098C7.0957 14.1943 7.02539 14.3789 7.02539 14.5811C7.02539 14.9414 7.2627 15.1699 7.61426 15.1699ZM14.7949 15.3545C16.3242 15.3545 17.3262 14.4141 17.3262 12.8848C17.3262 11.5488 16.4297 10.626 15.1641 10.626C14.5928 10.626 14.0039 10.8984 13.749 11.2939H13.7139L13.8633 9.21973H16.5527C16.8516 9.21973 17.0537 9 17.0537 8.6748C17.0537 8.34961 16.8604 8.13867 16.5527 8.13867H13.6611C13.1777 8.13867 12.8789 8.4375 12.8438 8.92969L12.6504 11.5488C12.624 12.0234 12.8877 12.3311 13.3096 12.3311C13.5996 12.3311 13.7754 12.252 14.0303 12.0498C14.3643 11.7598 14.6104 11.6455 14.9707 11.6455C15.665 11.6455 16.1396 12.1992 16.1396 12.9199C16.1396 13.7461 15.6211 14.2559 14.8564 14.2559C14.3115 14.2559 13.8633 13.9658 13.626 13.5088C13.4854 13.2803 13.3271 13.1396 13.0898 13.1396C12.7734 13.1396 12.5537 13.377 12.5537 13.6934C12.5537 13.8428 12.5801 13.9746 12.6328 14.1064C12.8877 14.7744 13.7139 15.3545 14.7949 15.3545Z" fill="#1C1C1E"/>
</g>
<defs>
<clipPath id="clip0_10_2198">
<rect width="24" height="24" fill="white"/>
</clipPath>
</defs>
</svg>
