<svg width="24" height="24" viewBox="0 0 24 24" fill="none" xmlns="http://www.w3.org/2000/svg">
<g clip-path="url(#clip0_10_1892)">
<path d="M6.67383 19.8809H17.3174C19.2246 19.8809 20.209 18.8965 20.209 17.0156V6.31934C20.209 4.43848 19.2246 3.4541 17.3174 3.4541H6.67383C4.77539 3.4541 3.78223 4.42969 3.78223 6.31934V17.0156C3.78223 18.8965 4.77539 19.8809 6.67383 19.8809ZM6.78809 18.1318C5.97949 18.1318 5.53125 17.71 5.53125 16.8574V6.47754C5.53125 5.625 5.97949 5.20312 6.78809 5.20312H17.2031C18.0029 5.20312 18.46 5.625 18.46 6.47754V16.8574C18.46 17.71 18.0029 18.1318 17.2031 18.1318H6.78809ZM7.62305 15.1611H11.0244C11.3496 15.1611 11.5869 14.9326 11.5869 14.5811C11.5869 14.2207 11.3496 14.0098 11.0244 14.0098H8.76562V13.9482L10.2949 12.1641C10.9453 11.4082 11.3936 10.793 11.3936 9.94922C11.3936 8.74512 10.5234 7.96289 9.17871 7.96289C8.15039 7.96289 7.23633 8.60449 7.00781 9.49219C6.99023 9.60645 6.96387 9.71191 6.96387 9.82617C6.96387 10.1689 7.1748 10.3975 7.5 10.3975C7.79004 10.3975 7.93945 10.2305 8.04492 9.9668C8.24707 9.37793 8.64258 9.08789 9.19629 9.08789C9.82031 9.08789 10.2422 9.47461 10.2422 10.0547C10.2422 10.582 9.82031 11.0215 9.40723 11.5137L7.28906 14.001C7.11328 14.1943 7.04297 14.3701 7.04297 14.5723C7.04297 14.9326 7.28027 15.1611 7.62305 15.1611ZM14.8037 15.3457C16.3418 15.3457 17.3438 14.4053 17.3438 12.876C17.3438 11.5488 16.4385 10.6172 15.1729 10.6172C14.6104 10.6172 14.0215 10.8896 13.7578 11.2852H13.7227L13.8809 9.21094H16.5703C16.8604 9.21094 17.0713 9 17.0713 8.66602C17.0713 8.34961 16.8691 8.13867 16.5703 8.13867H13.6699C13.1953 8.13867 12.8877 8.42871 12.8613 8.92969L12.668 11.54C12.6416 12.0234 12.8965 12.3223 13.3184 12.3223C13.6172 12.3223 13.7842 12.2432 14.0479 12.041C14.373 11.7598 14.6279 11.6367 14.9883 11.6367C15.6738 11.6367 16.1484 12.1904 16.1484 12.9111C16.1484 13.7461 15.6299 14.2559 14.874 14.2559C14.3291 14.2559 13.8809 13.957 13.6436 13.5C13.5029 13.2715 13.3447 13.1309 13.1074 13.1309C12.791 13.1309 12.5625 13.3682 12.5625 13.6934C12.5625 13.834 12.5889 13.9658 12.6504 14.0977C12.8965 14.7744 13.7314 15.3457 14.8037 15.3457Z" fill="#1C1C1E"/>
</g>
<defs>
<clipPath id="clip0_10_1892">
<rect width="24" height="24" fill="white"/>
</clipPath>
</defs>
</svg>
