<svg width="24" height="24" viewBox="0 0 24 24" fill="none" xmlns="http://www.w3.org/2000/svg">
<g clip-path="url(#clip0_10_1891)">
<path d="M6.67383 19.8809H17.3174C19.2246 19.8809 20.209 18.8965 20.209 17.0156V6.31934C20.209 4.43848 19.2246 3.4541 17.3174 3.4541H6.67383C4.77539 3.4541 3.78223 4.42969 3.78223 6.31934V17.0156C3.78223 18.8965 4.77539 19.8809 6.67383 19.8809ZM7.48242 15.3018C7.12207 15.3018 6.87598 15.0645 6.87598 14.6865C6.87598 14.4668 6.94629 14.2822 7.13086 14.0801L9.31934 11.4961C9.75 11.0039 10.1895 10.5381 10.1895 9.99316C10.1895 9.39551 9.75879 8.99121 9.1084 8.99121C8.53711 8.99121 8.12402 9.29004 7.92188 9.90527C7.81641 10.1777 7.64941 10.3535 7.35059 10.3535C7.00781 10.3535 6.78809 10.1162 6.78809 9.75586C6.78809 9.6416 6.81445 9.52734 6.83203 9.4043C7.07812 8.48145 8.01855 7.81348 9.09082 7.81348C10.4971 7.81348 11.3936 8.63086 11.3936 9.87891C11.3936 10.7578 10.9277 11.3994 10.251 12.1904L8.67773 14.0273V14.0977H11.0068C11.3496 14.0977 11.5957 14.3086 11.5957 14.6953C11.5957 15.0645 11.3496 15.3018 11.0068 15.3018H7.48242ZM14.9443 15.4951C13.8193 15.4951 12.958 14.8975 12.6943 14.2031C12.6328 14.0625 12.6064 13.9219 12.6064 13.7637C12.6064 13.4297 12.8438 13.1836 13.1689 13.1836C13.4238 13.1836 13.5908 13.333 13.7314 13.5703C13.9863 14.0449 14.4434 14.3525 15.0059 14.3525C15.7969 14.3525 16.3242 13.8252 16.3242 12.9639C16.3242 12.2168 15.8408 11.6455 15.1289 11.6455C14.7598 11.6455 14.4961 11.7598 14.1533 12.0586C13.8896 12.2695 13.7051 12.3574 13.3975 12.3574C12.958 12.3574 12.6855 12.0322 12.7119 11.5312L12.9141 8.82422C12.9492 8.30566 13.2656 7.99805 13.7666 7.99805H16.7725C17.0889 7.99805 17.2998 8.21777 17.2998 8.55176C17.2998 8.89453 17.0713 9.12305 16.7725 9.12305H13.9775L13.8281 11.2764H13.8633C14.1357 10.8633 14.7422 10.582 15.3311 10.582C16.6406 10.582 17.5723 11.54 17.5723 12.9287C17.5723 14.5107 16.5352 15.4951 14.9443 15.4951Z" fill="#1C1C1E"/>
</g>
<defs>
<clipPath id="clip0_10_1891">
<rect width="24" height="24" fill="white"/>
</clipPath>
</defs>
</svg>
