<svg width="24" height="24" viewBox="0 0 24 24" fill="none" xmlns="http://www.w3.org/2000/svg">
<g clip-path="url(#clip0_10_1890)">
<path d="M11.9912 20.7422C16.9746 20.7422 21.0879 16.6289 21.0879 11.6543C21.0879 6.67969 16.9658 2.56641 11.9824 2.56641C7.00781 2.56641 2.90332 6.67969 2.90332 11.6543C2.90332 16.6289 7.0166 20.7422 11.9912 20.7422ZM11.9912 18.9316C7.95703 18.9316 4.73145 15.6885 4.73145 11.6543C4.73145 7.62012 7.95703 4.38574 11.9824 4.38574C16.0166 4.38574 19.2598 7.62012 19.2686 11.6543C19.2773 15.6885 16.0254 18.9316 11.9912 18.9316ZM7.53516 15.1699H10.9365C11.2617 15.1699 11.4902 14.9414 11.4902 14.5811C11.4902 14.2207 11.2617 14.0098 10.9365 14.0098H8.66895V13.957L10.1982 12.1729C10.8486 11.417 11.3057 10.793 11.3057 9.94922C11.2969 8.75391 10.4355 7.96289 9.08203 7.96289C8.05371 7.96289 7.14844 8.61328 6.91992 9.50098C6.89355 9.61523 6.87598 9.7207 6.87598 9.83496C6.87598 10.1777 7.07812 10.4062 7.41211 10.4062C7.69336 10.4062 7.84277 10.2393 7.95703 9.9668C8.15039 9.38672 8.5459 9.08789 9.1084 9.08789C9.73242 9.08789 10.1455 9.4834 10.1455 10.0547C10.1455 10.582 9.72363 11.0303 9.31055 11.5137L7.19238 14.0098C7.02539 14.1943 6.95508 14.3789 6.95508 14.5811C6.95508 14.9414 7.19238 15.1699 7.53516 15.1699ZM14.9268 15.3545C16.3242 15.3545 17.3086 14.4229 17.3086 12.8496C17.3086 11.3994 16.3242 10.5908 15.2344 10.5908C14.3643 10.5908 13.8105 11.083 13.5996 11.6191H13.5381C13.5381 11.5752 13.5381 11.54 13.5381 11.4785C13.5381 10.002 14.1533 9.07031 15.041 9.07031C15.498 9.07031 15.8145 9.29883 16.0166 9.59766C16.166 9.80859 16.3066 9.90527 16.5615 9.90527C16.8252 9.90527 17.0449 9.71191 17.0449 9.39551C17.0449 9.26367 17.0186 9.14941 16.9658 9.02637C16.7373 8.45508 16.0518 7.96289 15.085 7.96289C13.4414 7.96289 12.3867 9.25488 12.3867 11.8213C12.3867 12.832 12.5537 13.6055 12.8438 14.1592C13.2744 15.0029 14.0303 15.3545 14.9268 15.3545ZM14.8652 14.2998C14.1357 14.2998 13.626 13.7285 13.626 12.9111C13.626 12.1377 14.1357 11.584 14.8652 11.584C15.5947 11.584 16.0957 12.1289 16.0957 12.9199C16.0957 13.7637 15.6123 14.2998 14.8652 14.2998Z" fill="#1C1C1E"/>
</g>
<defs>
<clipPath id="clip0_10_1890">
<rect width="24" height="24" fill="white"/>
</clipPath>
</defs>
</svg>
