<svg width="24" height="24" viewBox="0 0 24 24" fill="none" xmlns="http://www.w3.org/2000/svg">
<g clip-path="url(#clip0_10_1889)">
<path d="M11.9912 20.7422C16.9746 20.7422 21.0879 16.6289 21.0879 11.6543C21.0879 6.67969 16.9658 2.56641 11.9824 2.56641C7.00781 2.56641 2.90332 6.67969 2.90332 11.6543C2.90332 16.6289 7.0166 20.7422 11.9912 20.7422ZM7.35938 15.3018C6.99902 15.3018 6.75293 15.0645 6.75293 14.6865C6.75293 14.4668 6.82324 14.2822 7.00781 14.0801L9.20508 11.4961C9.62695 11.0039 10.0664 10.5381 10.0664 9.99316C10.0664 9.39551 9.63574 8.99121 8.99414 8.99121C8.41406 8.99121 8.00977 9.29004 7.80762 9.90527C7.68457 10.1777 7.53516 10.3535 7.23633 10.3535C6.88477 10.3535 6.67383 10.1162 6.67383 9.75586C6.67383 9.6416 6.69141 9.52734 6.71777 9.4043C6.95508 8.48145 7.89551 7.81348 8.96777 7.81348C10.374 7.81348 11.2705 8.63086 11.2705 9.87891C11.2793 10.7578 10.8047 11.3994 10.1279 12.1904L8.55469 14.0273V14.0977H10.8926C11.2266 14.0977 11.4727 14.3086 11.4727 14.6953C11.4727 15.0645 11.2266 15.3018 10.8926 15.3018H7.35938ZM15.0322 15.5039C14.1006 15.5039 13.3271 15.1348 12.8701 14.2471C12.5713 13.6758 12.4043 12.8672 12.4043 11.8213C12.4043 9.14941 13.5029 7.81348 15.1992 7.81348C16.21 7.81348 16.9219 8.32324 17.1592 8.90332C17.2207 9.04395 17.2383 9.1582 17.2383 9.30762C17.2383 9.63281 17.0098 9.84375 16.7373 9.84375C16.4736 9.84375 16.3242 9.72949 16.166 9.51855C15.9551 9.20215 15.6299 8.97363 15.1553 8.97363C14.2412 8.97363 13.5996 9.93164 13.5996 11.4521C13.5996 11.5225 13.6084 11.5664 13.6084 11.6104H13.6787C13.8896 11.0479 14.4609 10.5381 15.3662 10.5381C16.4912 10.5381 17.5195 11.3818 17.5195 12.8848C17.5195 14.5283 16.4912 15.5039 15.0322 15.5039ZM14.9795 14.3877C15.7529 14.3877 16.2539 13.834 16.2539 12.9727C16.2539 12.1465 15.7354 11.584 14.9795 11.584C14.2236 11.584 13.7051 12.1553 13.7051 12.9639C13.7051 13.8076 14.2324 14.3877 14.9795 14.3877Z" fill="#1C1C1E"/>
</g>
<defs>
<clipPath id="clip0_10_1889">
<rect width="24" height="24" fill="white"/>
</clipPath>
</defs>
</svg>
