<svg width="24" height="24" viewBox="0 0 24 24" fill="none" xmlns="http://www.w3.org/2000/svg">
<g clip-path="url(#clip0_10_1887)">
<path d="M6.67383 19.8809H17.3174C19.2246 19.8809 20.209 18.8965 20.209 17.0156V6.31934C20.209 4.43848 19.2246 3.4541 17.3174 3.4541H6.67383C4.77539 3.4541 3.78223 4.42969 3.78223 6.31934V17.0156C3.78223 18.8965 4.77539 19.8809 6.67383 19.8809ZM7.39453 15.3018C7.03418 15.3018 6.78809 15.0645 6.78809 14.6865C6.78809 14.4668 6.8584 14.2822 7.04297 14.0801L9.24023 11.4961C9.66211 11.0039 10.1016 10.5381 10.1016 9.99316C10.1016 9.39551 9.6709 8.99121 9.0293 8.99121C8.44922 8.99121 8.04492 9.29004 7.84277 9.90527C7.71973 10.1777 7.57031 10.3535 7.27148 10.3535C6.91992 10.3535 6.70898 10.1162 6.70898 9.75586C6.70898 9.6416 6.72656 9.52734 6.75293 9.4043C6.99023 8.48145 7.93066 7.81348 9.00293 7.81348C10.4092 7.81348 11.3057 8.63086 11.3057 9.87891C11.3145 10.7578 10.8398 11.3994 10.1631 12.1904L8.58984 14.0273V14.0977H10.9277C11.2617 14.0977 11.5078 14.3086 11.5078 14.6953C11.5078 15.0645 11.2617 15.3018 10.9277 15.3018H7.39453ZM15.0674 15.5039C14.1357 15.5039 13.3623 15.1348 12.9053 14.2471C12.6064 13.6758 12.4395 12.8672 12.4395 11.8213C12.4395 9.14941 13.5381 7.81348 15.2344 7.81348C16.2451 7.81348 16.957 8.32324 17.1943 8.90332C17.2559 9.04395 17.2734 9.1582 17.2734 9.30762C17.2734 9.63281 17.0449 9.84375 16.7725 9.84375C16.5088 9.84375 16.3594 9.72949 16.21 9.51855C15.9902 9.20215 15.665 8.97363 15.1904 8.97363C14.2764 8.97363 13.6348 9.93164 13.6348 11.4521C13.6348 11.5225 13.6436 11.5664 13.6436 11.6104H13.7139C13.9248 11.0479 14.4961 10.5381 15.4014 10.5381C16.5264 10.5381 17.5547 11.3818 17.5547 12.8848C17.5547 14.5283 16.5264 15.5039 15.0674 15.5039ZM15.0146 14.3877C15.7881 14.3877 16.2891 13.834 16.2891 12.9727C16.2891 12.1465 15.7705 11.584 15.0146 11.584C14.2588 11.584 13.7402 12.1553 13.7402 12.9639C13.7402 13.8076 14.2676 14.3877 15.0146 14.3877Z" fill="#1C1C1E"/>
</g>
<defs>
<clipPath id="clip0_10_1887">
<rect width="24" height="24" fill="white"/>
</clipPath>
</defs>
</svg>
