<svg width="24" height="24" viewBox="0 0 24 24" fill="none" xmlns="http://www.w3.org/2000/svg">
<g clip-path="url(#clip0_10_1888)">
<path d="M6.67383 19.8809H17.3174C19.2246 19.8809 20.209 18.8965 20.209 17.0156V6.31934C20.209 4.43848 19.2246 3.4541 17.3174 3.4541H6.67383C4.77539 3.4541 3.78223 4.42969 3.78223 6.31934V17.0156C3.78223 18.8965 4.77539 19.8809 6.67383 19.8809ZM6.78809 18.1318C5.97949 18.1318 5.53125 17.71 5.53125 16.8574V6.47754C5.53125 5.625 5.97949 5.20312 6.78809 5.20312H17.2031C18.0029 5.20312 18.46 5.625 18.46 6.47754V16.8574C18.46 17.71 18.0029 18.1318 17.2031 18.1318H6.78809ZM7.55273 15.1611H10.9453C11.2705 15.1611 11.5078 14.9326 11.5078 14.5811C11.5078 14.2207 11.2705 14.0098 10.9453 14.0098H8.68652V13.9482L10.2158 12.1641C10.8662 11.4082 11.3145 10.793 11.3145 9.94922C11.3145 8.74512 10.4443 7.96289 9.09961 7.96289C8.07129 7.96289 7.16602 8.60449 6.9375 9.49219C6.91113 9.60645 6.88477 9.71191 6.88477 9.82617C6.88477 10.1689 7.0957 10.3975 7.4209 10.3975C7.71094 10.3975 7.86035 10.2305 7.97461 9.9668C8.16797 9.37793 8.56348 9.08789 9.12598 9.08789C9.75 9.08789 10.1631 9.47461 10.1631 10.0547C10.1631 10.582 9.74121 11.0215 9.32812 11.5137L7.20996 14.001C7.03418 14.1943 6.96387 14.3701 6.96387 14.5723C6.96387 14.9326 7.20117 15.1611 7.55273 15.1611ZM14.9355 15.3545C16.3418 15.3545 17.3262 14.4141 17.3262 12.8408C17.3262 11.3906 16.3418 10.582 15.252 10.582C14.3818 10.582 13.8281 11.0742 13.6172 11.6104H13.5557C13.5557 11.5752 13.5557 11.5312 13.5557 11.4697C13.5557 10.002 14.1621 9.06152 15.0498 9.06152C15.5156 9.06152 15.832 9.29004 16.0342 9.59766C16.1836 9.7998 16.3242 9.90527 16.5791 9.90527C16.834 9.90527 17.0625 9.70312 17.0625 9.39551C17.0625 9.25488 17.0361 9.14062 16.9746 9.01758C16.7549 8.45508 16.0693 7.96289 15.0938 7.96289C13.459 7.96289 12.4043 9.24609 12.4043 11.8125C12.4043 12.8232 12.5713 13.5967 12.8525 14.1504C13.292 15.0029 14.0391 15.3545 14.9355 15.3545ZM14.8828 14.291C14.1533 14.291 13.6436 13.7285 13.6436 12.9111C13.6436 12.1289 14.1445 11.5752 14.8828 11.5752C15.6123 11.5752 16.1133 12.1201 16.1133 12.9199C16.1133 13.7549 15.6299 14.291 14.8828 14.291Z" fill="#1C1C1E"/>
</g>
<defs>
<clipPath id="clip0_10_1888">
<rect width="24" height="24" fill="white"/>
</clipPath>
</defs>
</svg>
