<svg width="24" height="24" viewBox="0 0 24 24" fill="none" xmlns="http://www.w3.org/2000/svg">
<g clip-path="url(#clip0_10_1885)">
<path d="M11.9912 20.7334C16.9746 20.7334 21.0879 16.6201 21.0879 11.6367C21.0879 6.66211 16.9658 2.54883 11.9824 2.54883C7.00781 2.54883 2.90332 6.66211 2.90332 11.6367C2.90332 16.6201 7.0166 20.7334 11.9912 20.7334ZM7.61426 15.2842C7.25391 15.2842 7.00781 15.0469 7.00781 14.6777C7.00781 14.458 7.08691 14.2734 7.2627 14.0713L9.45996 11.4961C9.88184 10.9863 10.3213 10.5205 10.3213 9.97559C10.3213 9.38672 9.89941 8.98242 9.24902 8.98242C8.67773 8.98242 8.26465 9.29004 8.0625 9.8877C7.94824 10.1689 7.79004 10.3359 7.49121 10.3359C7.13965 10.3359 6.92871 10.1074 6.92871 9.73828C6.92871 9.62402 6.94629 9.50977 6.97266 9.39551C7.20996 8.47266 8.15918 7.80469 9.22266 7.80469C10.6289 7.80469 11.5254 8.61328 11.5342 9.87012C11.5342 10.7402 11.0684 11.3906 10.3916 12.1729L8.80957 14.0098V14.0801H11.1475C11.4814 14.0801 11.7275 14.291 11.7275 14.6777C11.7275 15.0469 11.4814 15.2842 11.1475 15.2842H7.61426ZM14.0391 15.3984C13.6523 15.3984 13.3535 15.1172 13.3535 14.7217C13.3535 14.5371 13.3799 14.4141 13.4678 14.2559L16.0605 9.21094V9.14062H13.1689C12.8174 9.14062 12.5537 8.9209 12.5537 8.56055C12.5537 8.2002 12.8086 7.97168 13.1689 7.97168H16.6055C17.1768 7.97168 17.502 8.3584 17.502 8.83301C17.502 9.03516 17.4668 9.21973 17.335 9.50098L14.707 14.8887C14.5312 15.2402 14.3467 15.3984 14.0391 15.3984Z" fill="#1C1C1E"/>
</g>
<defs>
<clipPath id="clip0_10_1885">
<rect width="24" height="24" fill="white"/>
</clipPath>
</defs>
</svg>
