<svg width="24" height="24" viewBox="0 0 24 24" fill="none" xmlns="http://www.w3.org/2000/svg">
<g clip-path="url(#clip0_10_1886)">
<path d="M11.9912 20.7422C16.9746 20.7422 21.0879 16.6289 21.0879 11.6543C21.0879 6.67969 16.9658 2.56641 11.9824 2.56641C7.00781 2.56641 2.90332 6.67969 2.90332 11.6543C2.90332 16.6289 7.0166 20.7422 11.9912 20.7422ZM11.9912 18.9316C7.95703 18.9316 4.73145 15.6885 4.73145 11.6543C4.73145 7.62012 7.95703 4.38574 11.9824 4.38574C16.0166 4.38574 19.2598 7.62012 19.2686 11.6543C19.2773 15.6885 16.0254 18.9316 11.9912 18.9316ZM7.78125 15.1699H11.1826C11.5078 15.1699 11.7363 14.9414 11.7363 14.5811C11.7363 14.2207 11.5078 14.0098 11.1826 14.0098H8.91504V13.957L10.4443 12.1729C11.0947 11.417 11.5518 10.793 11.543 9.94922C11.543 8.75391 10.6816 7.96289 9.32812 7.96289C8.2998 7.96289 7.39453 8.61328 7.16602 9.50098C7.13965 9.61523 7.12207 9.7207 7.12207 9.83496C7.12207 10.1777 7.32422 10.4062 7.6582 10.4062C7.93945 10.4062 8.08887 10.2393 8.20312 9.9668C8.39648 9.38672 8.79199 9.08789 9.35449 9.08789C9.97852 9.08789 10.3916 9.4834 10.3916 10.0547C10.3916 10.582 9.96973 11.0303 9.55664 11.5137L7.43848 14.0098C7.27148 14.1943 7.20117 14.3789 7.20117 14.5811C7.20117 14.9414 7.42969 15.1699 7.78125 15.1699ZM13.96 15.2754C14.25 15.2754 14.4258 15.1172 14.5928 14.7832L17.1328 9.59766C17.2559 9.3252 17.291 9.14941 17.291 8.95605C17.291 8.49902 16.9746 8.12988 16.4297 8.12988H13.125C12.7822 8.12988 12.5361 8.34961 12.5361 8.69238C12.5361 9.03516 12.791 9.24609 13.125 9.24609H15.9111V9.30762L13.415 14.1855C13.3271 14.335 13.3008 14.458 13.3008 14.6338C13.3008 15.0117 13.5908 15.2754 13.96 15.2754Z" fill="#1C1C1E"/>
</g>
<defs>
<clipPath id="clip0_10_1886">
<rect width="24" height="24" fill="white"/>
</clipPath>
</defs>
</svg>
