<svg width="24" height="24" viewBox="0 0 24 24" fill="none" xmlns="http://www.w3.org/2000/svg">
<g clip-path="url(#clip0_10_1884)">
<path d="M6.67383 19.8809H17.3174C19.2246 19.8809 20.209 18.8965 20.209 17.0156V6.31934C20.209 4.43848 19.2246 3.4541 17.3174 3.4541H6.67383C4.77539 3.4541 3.78223 4.42969 3.78223 6.31934V17.0156C3.78223 18.8965 4.77539 19.8809 6.67383 19.8809ZM6.78809 18.1318C5.97949 18.1318 5.53125 17.71 5.53125 16.8574V6.47754C5.53125 5.625 5.97949 5.20312 6.78809 5.20312H17.2031C18.0029 5.20312 18.46 5.625 18.46 6.47754V16.8574C18.46 17.71 18.0029 18.1318 17.2031 18.1318H6.78809ZM7.79883 15.1611H11.1914C11.5166 15.1611 11.7539 14.9326 11.7539 14.5811C11.7539 14.2207 11.5166 14.0098 11.1914 14.0098H8.93262V13.9482L10.4619 12.1641C11.1123 11.4082 11.5605 10.793 11.5605 9.94922C11.5605 8.74512 10.6904 7.96289 9.3457 7.96289C8.31738 7.96289 7.41211 8.60449 7.18359 9.49219C7.15723 9.60645 7.13086 9.71191 7.13086 9.82617C7.13086 10.1689 7.3418 10.3975 7.66699 10.3975C7.95703 10.3975 8.10645 10.2305 8.2207 9.9668C8.41406 9.37793 8.80957 9.08789 9.36328 9.08789C9.99609 9.08789 10.4092 9.47461 10.4092 10.0547C10.4092 10.582 9.9873 11.0215 9.57422 11.5137L7.45605 14.001C7.28027 14.1943 7.20996 14.3701 7.20996 14.5723C7.20996 14.9326 7.44727 15.1611 7.79883 15.1611ZM13.9775 15.2666C14.2676 15.2666 14.4434 15.1172 14.6104 14.7744L17.1416 9.58887C17.2734 9.31641 17.3086 9.14062 17.3086 8.95605C17.3086 8.49902 16.9922 8.12988 16.4473 8.12988H13.1426C12.7998 8.12988 12.5537 8.34082 12.5537 8.68359C12.5537 9.02637 12.7998 9.2373 13.1426 9.2373H15.9287V9.30762L13.4238 14.1855C13.3447 14.335 13.3184 14.4492 13.3184 14.625C13.3184 15.0029 13.5996 15.2666 13.9775 15.2666Z" fill="#1C1C1E"/>
</g>
<defs>
<clipPath id="clip0_10_1884">
<rect width="24" height="24" fill="white"/>
</clipPath>
</defs>
</svg>
