<svg width="24" height="24" viewBox="0 0 24 24" fill="none" xmlns="http://www.w3.org/2000/svg">
<g clip-path="url(#clip0_10_1883)">
<path d="M6.67383 19.8809H17.3174C19.2246 19.8809 20.209 18.8965 20.209 17.0156V6.31934C20.209 4.43848 19.2246 3.4541 17.3174 3.4541H6.67383C4.77539 3.4541 3.78223 4.42969 3.78223 6.31934V17.0156C3.78223 18.8965 4.77539 19.8809 6.67383 19.8809ZM7.64941 15.3018C7.28906 15.3018 7.04297 15.0645 7.04297 14.6865C7.04297 14.4668 7.12207 14.291 7.29785 14.0801L9.49512 11.5049C9.91699 11.0039 10.3564 10.5381 10.3564 9.99316C10.3564 9.39551 9.93457 8.99121 9.28418 8.99121C8.71289 8.99121 8.2998 9.29883 8.09766 9.90527C7.9834 10.1777 7.8252 10.3535 7.52637 10.3535C7.1748 10.3535 6.96387 10.1162 6.96387 9.75586C6.96387 9.6416 6.98145 9.52734 7.00781 9.4043C7.24512 8.48145 8.19434 7.82227 9.25781 7.82227C10.6641 7.82227 11.5693 8.63086 11.5693 9.87891C11.5693 10.7578 11.1035 11.3994 10.4268 12.1904L8.84473 14.0273V14.0977H11.1826C11.5166 14.0977 11.7627 14.3086 11.7627 14.6953C11.7627 15.0645 11.5166 15.3018 11.1826 15.3018H7.64941ZM14.0742 15.416C13.6875 15.416 13.3887 15.1348 13.3887 14.7393C13.3887 14.5547 13.415 14.4316 13.5029 14.2734L16.0957 9.22852V9.14941H13.2129C12.8525 9.14941 12.5889 8.93848 12.5889 8.56934C12.5889 8.20898 12.8525 7.98926 13.2129 7.98926H16.6406C17.2119 7.98926 17.5459 8.37598 17.5459 8.85059C17.5459 9.05273 17.502 9.2373 17.3701 9.51855L14.7422 14.8975C14.5664 15.2578 14.3818 15.416 14.0742 15.416Z" fill="#1C1C1E"/>
</g>
<defs>
<clipPath id="clip0_10_1883">
<rect width="24" height="24" fill="white"/>
</clipPath>
</defs>
</svg>
