<svg width="24" height="24" viewBox="0 0 24 24" fill="none" xmlns="http://www.w3.org/2000/svg">
<g clip-path="url(#clip0_10_1882)">
<path d="M11.9912 20.7422C16.9746 20.7422 21.0879 16.6289 21.0879 11.6543C21.0879 6.67969 16.9658 2.56641 11.9824 2.56641C7.00781 2.56641 2.90332 6.67969 2.90332 11.6543C2.90332 16.6289 7.0166 20.7422 11.9912 20.7422ZM11.9912 18.9316C7.95703 18.9316 4.73145 15.6885 4.73145 11.6543C4.73145 7.62012 7.95703 4.38574 11.9824 4.38574C16.0166 4.38574 19.2598 7.62012 19.2686 11.6543C19.2773 15.6885 16.0254 18.9316 11.9912 18.9316ZM7.52637 15.1699H10.9277C11.2529 15.1699 11.4902 14.9414 11.4902 14.5811C11.4902 14.2207 11.2529 14.0098 10.9277 14.0098H8.66895V13.957L10.1982 12.1729C10.8486 11.417 11.2969 10.793 11.2969 9.94922C11.2969 8.75391 10.4268 7.96289 9.08203 7.96289C8.05371 7.96289 7.13965 8.61328 6.91113 9.50098C6.89355 9.61523 6.86719 9.7207 6.86719 9.83496C6.86719 10.1777 7.07812 10.4062 7.40332 10.4062C7.69336 10.4062 7.84277 10.2393 7.95703 9.9668C8.15039 9.38672 8.5459 9.08789 9.09961 9.08789C9.73242 9.08789 10.1455 9.4834 10.1455 10.0547C10.1455 10.582 9.72363 11.0303 9.31055 11.5137L7.19238 14.0098C7.0166 14.1943 6.94629 14.3789 6.94629 14.5811C6.94629 14.9414 7.18359 15.1699 7.52637 15.1699ZM14.8564 15.3545C16.3594 15.3545 17.3789 14.502 17.3789 13.2539C17.3789 12.3662 16.834 11.6719 15.9463 11.4873V11.4258C16.6934 11.2236 17.124 10.6172 17.124 9.86133C17.124 8.73633 16.2012 7.96289 14.874 7.96289C13.5381 7.96289 12.6152 8.73633 12.6152 9.86133C12.6152 10.6172 13.0371 11.2061 13.793 11.4258V11.4873C12.8965 11.6719 12.3604 12.375 12.3604 13.2627C12.3604 14.5107 13.3623 15.3545 14.8564 15.3545ZM14.874 11.0127C14.25 11.0127 13.8193 10.582 13.8193 9.98438C13.8193 9.37793 14.25 8.96484 14.874 8.96484C15.4893 8.96484 15.9199 9.37793 15.9199 9.98438C15.9199 10.582 15.4893 11.0127 14.874 11.0127ZM14.874 14.3438C14.1357 14.3438 13.5996 13.8604 13.5996 13.166C13.5996 12.4893 14.1357 11.9883 14.874 11.9883C15.6299 11.9883 16.1484 12.4805 16.1484 13.166C16.1484 13.8604 15.6123 14.3438 14.874 14.3438Z" fill="#1C1C1E"/>
</g>
<defs>
<clipPath id="clip0_10_1882">
<rect width="24" height="24" fill="white"/>
</clipPath>
</defs>
</svg>
