<svg width="24" height="24" viewBox="0 0 24 24" fill="none" xmlns="http://www.w3.org/2000/svg">
<g clip-path="url(#clip0_10_1881)">
<path d="M11.9912 20.7422C16.9746 20.7422 21.0879 16.6289 21.0879 11.6543C21.0879 6.67969 16.9658 2.56641 11.9824 2.56641C7.00781 2.56641 2.90332 6.67969 2.90332 11.6543C2.90332 16.6289 7.0166 20.7422 11.9912 20.7422ZM7.35938 15.3018C6.99902 15.3018 6.75293 15.0645 6.75293 14.6865C6.75293 14.4668 6.82324 14.2822 7.00781 14.0801L9.20508 11.4961C9.62695 11.0039 10.0664 10.5381 10.0664 9.99316C10.0664 9.39551 9.63574 8.99121 8.99414 8.99121C8.41406 8.99121 8.00977 9.29004 7.80762 9.90527C7.68457 10.1777 7.53516 10.3535 7.23633 10.3535C6.89355 10.3535 6.67383 10.1162 6.67383 9.75586C6.67383 9.6416 6.69141 9.52734 6.71777 9.4043C6.95508 8.48145 7.9043 7.81348 8.96777 7.81348C10.374 7.81348 11.2705 8.63086 11.2793 9.87891C11.2793 10.7578 10.8047 11.3994 10.1279 12.1904L8.5459 14.0273V14.0977H10.8926C11.2354 14.0977 11.4727 14.3086 11.4727 14.6953C11.4727 15.0645 11.2354 15.3018 10.8926 15.3018H7.35938ZM14.9707 15.4951C13.415 15.4951 12.3779 14.625 12.3779 13.3154C12.3779 12.4014 12.9316 11.6719 13.8633 11.4697V11.4082C13.0811 11.1885 12.6416 10.5732 12.6416 9.78223C12.6416 8.61328 13.5996 7.81348 14.9883 7.81348C16.377 7.81348 17.335 8.61328 17.335 9.78223C17.335 10.5732 16.8867 11.2061 16.1133 11.4082V11.4697C17.0361 11.6719 17.5986 12.3926 17.5986 13.3066C17.5986 14.6162 16.5439 15.4951 14.9707 15.4951ZM14.9883 10.9775C15.6211 10.9775 16.0693 10.5293 16.0693 9.91406C16.0693 9.29004 15.6211 8.85938 14.9883 8.85938C14.3555 8.85938 13.9072 9.29004 13.9072 9.91406C13.9072 10.5293 14.3555 10.9775 14.9883 10.9775ZM14.9971 14.4404C15.7617 14.4404 16.3154 13.9395 16.3154 13.2275C16.3154 12.5068 15.7705 12.0059 14.9971 12.0059C14.2236 12.0059 13.6787 12.5156 13.6787 13.2275C13.6787 13.9395 14.2236 14.4404 14.9971 14.4404Z" fill="#1C1C1E"/>
</g>
<defs>
<clipPath id="clip0_10_1881">
<rect width="24" height="24" fill="white"/>
</clipPath>
</defs>
</svg>
