<svg width="24" height="24" viewBox="0 0 24 24" fill="none" xmlns="http://www.w3.org/2000/svg">
<g clip-path="url(#clip0_10_1880)">
<path d="M6.67383 19.8809H17.3174C19.2246 19.8809 20.209 18.8965 20.209 17.0156V6.31934C20.209 4.43848 19.2246 3.4541 17.3174 3.4541H6.67383C4.77539 3.4541 3.78223 4.42969 3.78223 6.31934V17.0156C3.78223 18.8965 4.77539 19.8809 6.67383 19.8809ZM6.78809 18.1318C5.97949 18.1318 5.53125 17.71 5.53125 16.8574V6.47754C5.53125 5.625 5.97949 5.20312 6.78809 5.20312H17.2031C18.0029 5.20312 18.46 5.625 18.46 6.47754V16.8574C18.46 17.71 18.0029 18.1318 17.2031 18.1318H6.78809ZM7.54395 15.1611H10.9453C11.2705 15.1611 11.499 14.9326 11.499 14.5811C11.499 14.2207 11.2705 14.0098 10.9453 14.0098H8.68652V13.9482L10.2158 12.1641C10.8662 11.4082 11.3145 10.793 11.3145 9.94922C11.3057 8.74512 10.4443 7.96289 9.09961 7.96289C8.0625 7.96289 7.15723 8.60449 6.92871 9.49219C6.90234 9.60645 6.88477 9.71191 6.88477 9.82617C6.88477 10.1689 7.08691 10.3975 7.4209 10.3975C7.71094 10.3975 7.86035 10.2305 7.96582 9.9668C8.15918 9.37793 8.56348 9.08789 9.11719 9.08789C9.74121 9.08789 10.1543 9.47461 10.1543 10.0547C10.1543 10.582 9.74121 11.0215 9.32812 11.5137L7.20996 14.001C7.03418 14.1943 6.96387 14.3701 6.96387 14.5723C6.96387 14.9326 7.20117 15.1611 7.54395 15.1611ZM14.874 15.3457C16.377 15.3457 17.3965 14.4932 17.3965 13.2451C17.3965 12.3574 16.8516 11.6719 15.9639 11.4785V11.4258C16.7109 11.2236 17.1416 10.6084 17.1416 9.85254C17.1416 8.72754 16.2188 7.96289 14.8828 7.96289C13.5557 7.96289 12.6328 8.72754 12.6328 9.85254C12.6328 10.6084 13.0547 11.2061 13.8105 11.4258V11.4785C12.9141 11.6719 12.3691 12.3662 12.3691 13.2539C12.3691 14.502 13.3711 15.3457 14.874 15.3457ZM14.8828 11.0039C14.2676 11.0039 13.8369 10.5732 13.8369 9.97559C13.8369 9.37793 14.2676 8.96484 14.8828 8.96484C15.498 8.96484 15.9287 9.37793 15.9287 9.97559C15.9287 10.5732 15.498 11.0039 14.8828 11.0039ZM14.8916 14.3438C14.1445 14.3438 13.6084 13.8604 13.6084 13.166C13.6084 12.4805 14.1445 11.9883 14.8916 11.9883C15.6475 11.9883 16.166 12.4717 16.166 13.166C16.166 13.8604 15.6299 14.3438 14.8916 14.3438Z" fill="#1C1C1E"/>
</g>
<defs>
<clipPath id="clip0_10_1880">
<rect width="24" height="24" fill="white"/>
</clipPath>
</defs>
</svg>
