<svg width="24" height="24" viewBox="0 0 24 24" fill="none" xmlns="http://www.w3.org/2000/svg">
<g clip-path="url(#clip0_10_1879)">
<path d="M6.67383 19.8809H17.3174C19.2246 19.8809 20.209 18.8965 20.209 17.0156V6.31934C20.209 4.43848 19.2246 3.4541 17.3174 3.4541H6.67383C4.77539 3.4541 3.78223 4.42969 3.78223 6.31934V17.0156C3.78223 18.8965 4.77539 19.8809 6.67383 19.8809ZM7.39453 15.3018C7.03418 15.3018 6.78809 15.0645 6.78809 14.6865C6.78809 14.4668 6.8584 14.2822 7.04297 14.0801L9.24023 11.4961C9.66211 11.0039 10.1016 10.5381 10.1016 9.99316C10.1016 9.39551 9.6709 8.99121 9.0293 8.99121C8.44922 8.99121 8.04492 9.29004 7.84277 9.90527C7.71973 10.1777 7.57031 10.3535 7.27148 10.3535C6.92871 10.3535 6.70898 10.1162 6.70898 9.75586C6.70898 9.6416 6.72656 9.52734 6.75293 9.4043C6.99023 8.48145 7.93945 7.81348 9.00293 7.81348C10.4092 7.81348 11.3057 8.63086 11.3145 9.87891C11.3145 10.7578 10.8398 11.3994 10.1719 12.1904L8.58984 14.0273V14.0977H10.9277C11.2705 14.0977 11.5078 14.3086 11.5078 14.6953C11.5078 15.0645 11.2705 15.3018 10.9277 15.3018H7.39453ZM15.0059 15.4951C13.4502 15.4951 12.4131 14.625 12.4131 13.3154C12.4131 12.4014 12.9668 11.6719 13.8984 11.4697V11.4082C13.1162 11.1885 12.6768 10.5732 12.6768 9.78223C12.6768 8.61328 13.6348 7.81348 15.0234 7.81348C16.4121 7.81348 17.3701 8.61328 17.3701 9.78223C17.3701 10.5732 16.9219 11.2061 16.1484 11.4082V11.4697C17.0713 11.6719 17.6338 12.3926 17.6338 13.3066C17.6338 14.6162 16.5791 15.4951 15.0059 15.4951ZM15.0234 10.9775C15.6562 10.9775 16.1045 10.5293 16.1045 9.91406C16.1045 9.29004 15.6562 8.85938 15.0234 8.85938C14.3906 8.85938 13.9424 9.29004 13.9424 9.91406C13.9424 10.5293 14.3906 10.9775 15.0234 10.9775ZM15.0322 14.4404C15.7969 14.4404 16.3506 13.9395 16.3506 13.2275C16.3506 12.5068 15.8057 12.0059 15.0322 12.0059C14.2588 12.0059 13.7139 12.5156 13.7139 13.2275C13.7139 13.9395 14.2588 14.4404 15.0322 14.4404Z" fill="#1C1C1E"/>
</g>
<defs>
<clipPath id="clip0_10_1879">
<rect width="24" height="24" fill="white"/>
</clipPath>
</defs>
</svg>
