<svg width="24" height="24" viewBox="0 0 24 24" fill="none" xmlns="http://www.w3.org/2000/svg">
<g clip-path="url(#clip0_10_1877)">
<path d="M11.9912 20.7422C16.9746 20.7422 21.0879 16.6289 21.0879 11.6543C21.0879 6.67969 16.9658 2.56641 11.9824 2.56641C7.00781 2.56641 2.90332 6.67969 2.90332 11.6543C2.90332 16.6289 7.0166 20.7422 11.9912 20.7422ZM7.44727 15.3018C7.08691 15.3018 6.84082 15.0645 6.84082 14.6865C6.84082 14.4668 6.91113 14.2822 7.0957 14.0801L9.29297 11.4961C9.71484 11.0039 10.1543 10.5381 10.1543 9.99316C10.1543 9.39551 9.72363 8.99121 9.08203 8.99121C8.50195 8.99121 8.09766 9.29004 7.89551 9.90527C7.77246 10.1777 7.62305 10.3535 7.32422 10.3535C6.98145 10.3535 6.76172 10.1162 6.76172 9.75586C6.76172 9.6416 6.7793 9.52734 6.80566 9.4043C7.04297 8.48145 7.9834 7.81348 9.05566 7.81348C10.4619 7.81348 11.3584 8.63086 11.3672 9.87891C11.3672 10.7578 10.8926 11.3994 10.2246 12.1904L8.64258 14.0273V14.0977H10.9805C11.3232 14.0977 11.5605 14.3086 11.5605 14.6953C11.5605 15.0645 11.3232 15.3018 10.9805 15.3018H7.44727ZM14.8652 15.4951C13.6611 15.4951 12.9404 14.8447 12.7734 14.3438C12.7295 14.2207 12.6943 14.0889 12.6943 13.9746C12.6943 13.6406 12.9141 13.3945 13.2305 13.3945C13.4678 13.3945 13.6523 13.5 13.8105 13.7461C14.0215 14.1064 14.3818 14.335 14.8477 14.335C15.8408 14.335 16.4385 13.2891 16.4209 11.6719H16.3682C16.1396 12.2871 15.5771 12.7705 14.6543 12.7705C13.4766 12.7705 12.4746 11.9004 12.4746 10.4062C12.4746 8.81543 13.4678 7.81348 14.9707 7.81348C16.6846 7.81348 17.6162 9.09668 17.6162 11.3994C17.6162 14.0713 16.6582 15.4951 14.8652 15.4951ZM15.0322 11.7334C15.7881 11.7334 16.3154 11.1533 16.3154 10.3447C16.3154 9.50098 15.7793 8.91211 15.0322 8.91211C14.2588 8.91211 13.7578 9.4834 13.7578 10.3359C13.7578 11.1533 14.2676 11.7334 15.0322 11.7334Z" fill="#1C1C1E"/>
</g>
<defs>
<clipPath id="clip0_10_1877">
<rect width="24" height="24" fill="white"/>
</clipPath>
</defs>
</svg>
