<svg width="24" height="24" viewBox="0 0 24 24" fill="none" xmlns="http://www.w3.org/2000/svg">
<g clip-path="url(#clip0_10_1878)">
<path d="M11.9912 20.7422C16.9746 20.7422 21.0879 16.6289 21.0879 11.6543C21.0879 6.67969 16.9658 2.56641 11.9824 2.56641C7.00781 2.56641 2.90332 6.67969 2.90332 11.6543C2.90332 16.6289 7.0166 20.7422 11.9912 20.7422ZM11.9912 18.9316C7.95703 18.9316 4.73145 15.6885 4.73145 11.6543C4.73145 7.62012 7.95703 4.38574 11.9824 4.38574C16.0166 4.38574 19.2598 7.62012 19.2686 11.6543C19.2773 15.6885 16.0254 18.9316 11.9912 18.9316ZM7.61426 15.1699H11.0156C11.3408 15.1699 11.5781 14.9414 11.5781 14.5811C11.5781 14.2207 11.3408 14.0098 11.0156 14.0098H8.75684V13.957L10.2861 12.1729C10.9365 11.417 11.3848 10.793 11.3848 9.94922C11.3848 8.75391 10.5146 7.96289 9.16992 7.96289C8.1416 7.96289 7.22754 8.61328 6.99902 9.50098C6.98145 9.61523 6.95508 9.7207 6.95508 9.83496C6.95508 10.1777 7.16602 10.4062 7.49121 10.4062C7.78125 10.4062 7.93066 10.2393 8.03613 9.9668C8.23828 9.38672 8.63379 9.08789 9.1875 9.08789C9.81152 9.08789 10.2334 9.4834 10.2334 10.0547C10.2334 10.582 9.81152 11.0303 9.39844 11.5137L7.28027 14.0098C7.10449 14.1943 7.03418 14.3789 7.03418 14.5811C7.03418 14.9414 7.27148 15.1699 7.61426 15.1699ZM14.7598 15.3545C16.4736 15.3545 17.4053 13.9834 17.4053 11.417C17.4053 9.20215 16.5 7.96289 14.8564 7.96289C13.415 7.96289 12.457 8.93848 12.457 10.4502C12.457 11.9004 13.4238 12.7354 14.5576 12.7354C15.4453 12.7354 15.9902 12.2695 16.21 11.6807H16.2627C16.2715 13.2363 15.6914 14.2471 14.7422 14.2471C14.2852 14.2471 13.9336 14.0186 13.7314 13.6846C13.582 13.4385 13.4062 13.3418 13.1777 13.3418C12.8789 13.3418 12.668 13.5703 12.668 13.8955C12.668 14.001 12.7031 14.1328 12.7471 14.2471C12.9053 14.7305 13.5996 15.3545 14.7598 15.3545ZM14.918 11.751C14.1797 11.751 13.6787 11.1885 13.6787 10.3887C13.6787 9.5625 14.1709 9.01758 14.918 9.01758C15.6387 9.01758 16.1572 9.58887 16.1572 10.4062C16.1572 11.1885 15.6475 11.751 14.918 11.751Z" fill="#1C1C1E"/>
</g>
<defs>
<clipPath id="clip0_10_1878">
<rect width="24" height="24" fill="white"/>
</clipPath>
</defs>
</svg>
