<svg width="24" height="24" viewBox="0 0 24 24" fill="none" xmlns="http://www.w3.org/2000/svg">
<g clip-path="url(#clip0_10_1876)">
<path d="M6.67383 19.8809H17.3174C19.2246 19.8809 20.209 18.8965 20.209 17.0156V6.31934C20.209 4.43848 19.2246 3.4541 17.3174 3.4541H6.67383C4.77539 3.4541 3.78223 4.42969 3.78223 6.31934V17.0156C3.78223 18.8965 4.77539 19.8809 6.67383 19.8809ZM6.78809 18.1318C5.97949 18.1318 5.53125 17.71 5.53125 16.8574V6.47754C5.53125 5.625 5.97949 5.20312 6.78809 5.20312H17.2031C18.0029 5.20312 18.46 5.625 18.46 6.47754V16.8574C18.46 17.71 18.0029 18.1318 17.2031 18.1318H6.78809ZM7.63184 15.1611H11.0332C11.3584 15.1611 11.5869 14.9326 11.5869 14.5811C11.5869 14.2207 11.3584 14.0098 11.0332 14.0098H8.77441V13.9482L10.3037 12.1641C10.9453 11.4082 11.4023 10.793 11.4023 9.94922C11.3936 8.74512 10.5322 7.96289 9.1875 7.96289C8.15039 7.96289 7.24512 8.60449 7.0166 9.49219C6.99023 9.60645 6.97266 9.71191 6.97266 9.82617C6.97266 10.1689 7.1748 10.3975 7.50879 10.3975C7.79883 10.3975 7.93945 10.2305 8.05371 9.9668C8.24707 9.37793 8.64258 9.08789 9.20508 9.08789C9.8291 9.08789 10.2422 9.47461 10.2422 10.0547C10.2422 10.582 9.82031 11.0215 9.40723 11.5137L7.28906 14.001C7.12207 14.1943 7.05176 14.3701 7.05176 14.5723C7.05176 14.9326 7.28906 15.1611 7.63184 15.1611ZM14.7773 15.3457C16.4912 15.3457 17.4141 13.9746 17.4141 11.4082C17.4141 9.19336 16.5176 7.96289 14.874 7.96289C13.4326 7.96289 12.4746 8.92969 12.4746 10.4502C12.4746 11.8916 13.4414 12.7354 14.5664 12.7354C15.4541 12.7354 16.0078 12.2607 16.2275 11.6719H16.2715C16.2891 13.2363 15.709 14.2471 14.7598 14.2471C14.3027 14.2471 13.9512 14.0186 13.749 13.6758C13.5996 13.4297 13.415 13.333 13.1953 13.333C12.8877 13.333 12.6768 13.5703 12.6768 13.8867C12.6768 13.9922 12.7119 14.124 12.7646 14.2471C12.9229 14.7217 13.6084 15.3457 14.7773 15.3457ZM14.9268 11.7422C14.1973 11.7422 13.6963 11.1797 13.6963 10.3887C13.6963 9.5625 14.1885 9.00879 14.9355 9.00879C15.6562 9.00879 16.166 9.58008 16.166 10.3975C16.166 11.1797 15.665 11.7422 14.9268 11.7422Z" fill="#1C1C1E"/>
</g>
<defs>
<clipPath id="clip0_10_1876">
<rect width="24" height="24" fill="white"/>
</clipPath>
</defs>
</svg>
