<svg width="24" height="24" viewBox="0 0 24 24" fill="none" xmlns="http://www.w3.org/2000/svg">
<g clip-path="url(#clip0_10_1875)">
<path d="M6.67383 19.8809H17.3174C19.2246 19.8809 20.209 18.8965 20.209 17.0156V6.31934C20.209 4.43848 19.2246 3.4541 17.3174 3.4541H6.67383C4.77539 3.4541 3.78223 4.42969 3.78223 6.31934V17.0156C3.78223 18.8965 4.77539 19.8809 6.67383 19.8809ZM7.48242 15.3018C7.12207 15.3018 6.87598 15.0645 6.87598 14.6865C6.87598 14.4668 6.94629 14.2822 7.13086 14.0801L9.32812 11.4961C9.75 11.0039 10.1895 10.5381 10.1895 9.99316C10.1895 9.39551 9.75879 8.99121 9.11719 8.99121C8.53711 8.99121 8.13281 9.29004 7.93066 9.90527C7.80762 10.1777 7.6582 10.3535 7.35938 10.3535C7.0166 10.3535 6.79688 10.1162 6.79688 9.75586C6.79688 9.6416 6.81445 9.52734 6.84082 9.4043C7.07812 8.48145 8.01855 7.81348 9.09961 7.81348C10.4971 7.81348 11.3936 8.63086 11.4023 9.87891C11.4023 10.7578 10.9277 11.3994 10.2598 12.1904L8.67773 14.0273V14.0977H11.0156C11.3584 14.0977 11.5957 14.3086 11.5957 14.6953C11.5957 15.0645 11.3584 15.3018 11.0156 15.3018H7.48242ZM14.9004 15.4951C13.6963 15.4951 12.9756 14.8447 12.8174 14.3438C12.7646 14.2207 12.7295 14.0889 12.7295 13.9746C12.7295 13.6406 12.9492 13.3945 13.2656 13.3945C13.5029 13.3945 13.6875 13.5 13.8457 13.7461C14.0566 14.1064 14.417 14.335 14.8828 14.335C15.876 14.335 16.4736 13.2891 16.4561 11.6719H16.4033C16.1748 12.2871 15.6123 12.7705 14.6895 12.7705C13.5117 12.7705 12.5186 11.9004 12.5186 10.4062C12.5186 8.81543 13.5029 7.81348 15.0059 7.81348C16.7197 7.81348 17.6514 9.09668 17.6514 11.3994C17.6514 14.0713 16.6934 15.4951 14.9004 15.4951ZM15.0674 11.7334C15.8232 11.7334 16.3506 11.1533 16.3506 10.3447C16.3506 9.50098 15.8145 8.91211 15.0674 8.91211C14.2939 8.91211 13.793 9.4834 13.793 10.3359C13.793 11.1533 14.3027 11.7334 15.0674 11.7334Z" fill="#1C1C1E"/>
</g>
<defs>
<clipPath id="clip0_10_1875">
<rect width="24" height="24" fill="white"/>
</clipPath>
</defs>
</svg>
