<svg width="24" height="24" viewBox="0 0 24 24" fill="none" xmlns="http://www.w3.org/2000/svg">
<g clip-path="url(#clip0_10_2129)">
<path d="M11.9912 20.7422C16.9746 20.7422 21.0879 16.6289 21.0879 11.6543C21.0879 6.67969 16.9658 2.56641 11.9824 2.56641C7.00781 2.56641 2.90332 6.67969 2.90332 11.6543C2.90332 16.6289 7.0166 20.7422 11.9912 20.7422ZM11.9561 15.9697C10.4443 15.9697 9.22266 15.2666 8.93262 14.2383C8.89746 14.0977 8.87988 14.001 8.87988 13.8516C8.87988 13.4209 9.1875 13.1309 9.64453 13.1309C9.9873 13.1309 10.2158 13.2803 10.374 13.6143C10.6025 14.1768 11.1035 14.5898 11.9912 14.5898C12.9141 14.5898 13.5381 14.124 13.5381 13.4209C13.5381 12.7002 12.9229 12.2168 12 12.2168H11.4902C11.0684 12.2168 10.7783 11.9355 10.7783 11.5488C10.7783 11.1357 11.0684 10.8721 11.4902 10.8721H11.9561C12.7383 10.8721 13.292 10.3975 13.292 9.7207C13.292 9.08789 12.7998 8.69238 11.9912 8.69238C11.2441 8.69238 10.7256 9.06152 10.5146 9.67676C10.374 10.002 10.1455 10.1602 9.79395 10.1602C9.33691 10.1602 9.0293 9.87891 9.0293 9.44824C9.0293 9.30762 9.04688 9.19336 9.08203 9.05273C9.35449 7.99805 10.4883 7.33887 12.0176 7.33887C13.749 7.33887 14.9531 8.23535 14.9531 9.53613C14.9531 10.459 14.25 11.2852 13.3447 11.4082V11.4873C14.4258 11.5928 15.2256 12.4453 15.2256 13.5C15.2256 14.959 13.9775 15.9697 11.9561 15.9697Z" fill="#1C1C1E"/>
</g>
<defs>
<clipPath id="clip0_10_2129">
<rect width="24" height="24" fill="white"/>
</clipPath>
</defs>
</svg>
