<svg width="24" height="24" viewBox="0 0 24 24" fill="none" xmlns="http://www.w3.org/2000/svg">
<g clip-path="url(#clip0_10_1948)">
<path d="M11.9912 20.751C16.9746 20.751 21.0879 16.6377 21.0879 11.6631C21.0879 6.67969 16.9658 2.56641 11.9824 2.56641C7.00781 2.56641 2.90332 6.67969 2.90332 11.6631C2.90332 16.6377 7.0166 20.751 11.9912 20.751ZM11.9912 18.9316C7.95703 18.9316 4.73145 15.6973 4.73145 11.6631C4.73145 7.62891 7.95703 4.38574 11.9824 4.38574C16.0166 4.38574 19.2598 7.62891 19.2686 11.6631C19.2773 15.6973 16.0254 18.9316 11.9912 18.9316ZM11.9473 15.8115C13.8896 15.8115 15.085 14.8359 15.085 13.4385C15.085 12.4189 14.3291 11.6016 13.2832 11.5137V11.4346C14.1445 11.3027 14.8301 10.5117 14.8301 9.62402C14.8301 8.38477 13.6787 7.51465 12.0176 7.51465C10.5498 7.51465 9.45996 8.15625 9.20508 9.16699C9.16113 9.29883 9.15234 9.4043 9.15234 9.54492C9.15234 9.95801 9.44238 10.2217 9.87305 10.2217C10.2158 10.2217 10.4268 10.0723 10.5674 9.75586C10.7695 9.16699 11.2705 8.80664 11.9912 8.80664C12.7646 8.80664 13.248 9.18457 13.248 9.80859C13.248 10.4502 12.7119 10.916 11.9561 10.916H11.5078C11.0947 10.916 10.8223 11.1709 10.8223 11.5576C10.8223 11.9355 11.1035 12.1992 11.5078 12.1992H12C12.8877 12.1992 13.4854 12.665 13.4854 13.3594C13.4854 14.0449 12.8789 14.502 11.9824 14.502C11.1299 14.502 10.6465 14.0977 10.4268 13.5527C10.2773 13.2363 10.0576 13.0869 9.73242 13.0869C9.29297 13.0869 9.00293 13.3682 9.00293 13.7812C9.00293 13.9219 9.02051 14.0098 9.05566 14.1416C9.33691 15.1348 10.5059 15.8115 11.9473 15.8115Z" fill="#1C1C1E"/>
</g>
<defs>
<clipPath id="clip0_10_1948">
<rect width="24" height="24" fill="white"/>
</clipPath>
</defs>
</svg>
