<svg width="24" height="24" viewBox="0 0 24 24" fill="none" xmlns="http://www.w3.org/2000/svg">
<g clip-path="url(#clip0_10_2174)">
<path d="M6.67383 19.8809H17.3174C19.2246 19.8809 20.209 18.8965 20.209 17.0156V6.31934C20.209 4.43848 19.2246 3.4541 17.3174 3.4541H6.67383C4.77539 3.4541 3.78223 4.42969 3.78223 6.31934V17.0156C3.78223 18.8965 4.77539 19.8809 6.67383 19.8809ZM6.78809 18.1318C5.97949 18.1318 5.53125 17.71 5.53125 16.8574V6.47754C5.53125 5.625 5.97949 5.20312 6.78809 5.20312H17.2031C18.0029 5.20312 18.46 5.625 18.46 6.47754V16.8574C18.46 17.71 18.0029 18.1318 17.2031 18.1318H6.78809ZM11.9648 15.8027C13.9072 15.8027 15.1025 14.8271 15.1025 13.4297C15.1025 12.4102 14.3379 11.5928 13.3008 11.4961V11.4258C14.1621 11.2939 14.8477 10.5029 14.8477 9.61523C14.8477 8.37598 13.6875 7.50586 12.0264 7.50586C10.5674 7.50586 9.46875 8.14746 9.21387 9.1582C9.17871 9.29004 9.16113 9.39551 9.16113 9.53613C9.16113 9.94043 9.45996 10.2129 9.89062 10.2129C10.2246 10.2129 10.4443 10.0635 10.5762 9.74707C10.7871 9.1582 11.2881 8.79785 12.0088 8.79785C12.7822 8.79785 13.2656 9.17578 13.2656 9.7998C13.2656 10.4414 12.7207 10.9072 11.9736 10.9072H11.5166C11.1123 10.9072 10.8398 11.1621 10.8398 11.5488C10.8398 11.918 11.1123 12.1816 11.5166 12.1816H12.0176C12.9053 12.1816 13.4941 12.6562 13.4941 13.3506C13.4941 14.0361 12.8965 14.4932 12 14.4932C11.1475 14.4932 10.6641 14.0889 10.4443 13.5439C10.2861 13.2188 10.0752 13.0781 9.74121 13.0781C9.31055 13.0781 9.02051 13.3594 9.02051 13.7637C9.02051 13.9043 9.03809 14.001 9.07324 14.1328C9.3457 15.126 10.5146 15.8027 11.9648 15.8027Z" fill="#1C1C1E"/>
</g>
<defs>
<clipPath id="clip0_10_2174">
<rect width="24" height="24" fill="white"/>
</clipPath>
</defs>
</svg>
