<svg width="24" height="24" viewBox="0 0 24 24" fill="none" xmlns="http://www.w3.org/2000/svg">
<g clip-path="url(#clip0_10_2186)">
<path d="M6.67383 19.8809H17.3174C19.2246 19.8809 20.209 18.8965 20.209 17.0156V6.31934C20.209 4.43848 19.2246 3.4541 17.3174 3.4541H6.67383C4.77539 3.4541 3.78223 4.42969 3.78223 6.31934V17.0156C3.78223 18.8965 4.77539 19.8809 6.67383 19.8809ZM11.9912 15.9697C10.4795 15.9697 9.25781 15.2666 8.96777 14.2383C8.93262 14.0977 8.91504 14.001 8.91504 13.8516C8.91504 13.4209 9.22266 13.1309 9.67969 13.1309C10.0225 13.1309 10.251 13.2803 10.4092 13.6143C10.6377 14.1768 11.1387 14.5898 12.0264 14.5898C12.9492 14.5898 13.5732 14.124 13.5732 13.4209C13.5732 12.7002 12.958 12.2168 12.0352 12.2168H11.5254C11.1035 12.2168 10.8135 11.9355 10.8135 11.5488C10.8135 11.1357 11.1035 10.8721 11.5254 10.8721H12C12.7734 10.8721 13.3271 10.3975 13.3271 9.7207C13.3271 9.08789 12.835 8.69238 12.0264 8.69238C11.2793 8.69238 10.7607 9.06152 10.5498 9.67676C10.4092 10.002 10.1807 10.1602 9.8291 10.1602C9.37207 10.1602 9.06445 9.87891 9.06445 9.44824C9.06445 9.30762 9.08203 9.19336 9.11719 9.05273C9.38965 7.99805 10.5234 7.33887 12.0527 7.33887C13.7842 7.33887 14.9883 8.23535 14.9883 9.53613C14.9883 10.459 14.2852 11.2852 13.3799 11.4082V11.4873C14.4609 11.5928 15.2607 12.4453 15.2607 13.5C15.2607 14.959 14.0127 15.9697 11.9912 15.9697Z" fill="#1C1C1E"/>
</g>
<defs>
<clipPath id="clip0_10_2186">
<rect width="24" height="24" fill="white"/>
</clipPath>
</defs>
</svg>
