<svg width="24" height="24" viewBox="0 0 24 24" fill="none" xmlns="http://www.w3.org/2000/svg">
<g clip-path="url(#clip0_10_1873)">
<path d="M11.9912 20.7422C16.9746 20.7422 21.0879 16.6289 21.0879 11.6543C21.0879 6.67969 16.9658 2.56641 11.9824 2.56641C7.00781 2.56641 2.90332 6.67969 2.90332 11.6543C2.90332 16.6289 7.0166 20.7422 11.9912 20.7422ZM14.9531 15.4863C13.4238 15.4863 12.4043 14.0889 12.4043 11.6455C12.4043 9.20215 13.4238 7.80469 14.9531 7.80469C16.4824 7.80469 17.5107 9.20215 17.5107 11.6455C17.5107 14.0889 16.4824 15.4863 14.9531 15.4863ZM8.97656 15.4863C7.78125 15.4863 6.82324 14.748 6.58594 13.9482C6.55078 13.8252 6.5332 13.7197 6.5332 13.5879C6.5332 13.2275 6.78809 12.9902 7.10449 12.9902C7.38574 12.9902 7.55273 13.1309 7.67578 13.4121C7.91309 13.9922 8.36133 14.2998 8.99414 14.2998C9.75 14.2998 10.2686 13.8252 10.2686 13.2188C10.2686 12.5596 9.78516 12.1377 9.03809 12.1377H8.59863C8.23828 12.1377 8.02734 11.8828 8.02734 11.5488C8.02734 11.1797 8.25586 10.9424 8.59863 10.9424H8.99414C9.64453 10.9424 10.0752 10.5117 10.0752 9.93164C10.0752 9.36035 9.63574 8.97363 8.99414 8.97363C8.37891 8.97363 7.99219 9.28125 7.79004 9.85254C7.68457 10.1426 7.51758 10.2832 7.22754 10.2832C6.89355 10.2832 6.66504 10.0459 6.66504 9.68555C6.66504 9.55371 6.67383 9.44824 6.70898 9.31641C6.94629 8.49902 7.8252 7.80469 9.0293 7.80469C10.3916 7.80469 11.3408 8.5957 11.3408 9.75586C11.3408 10.5732 10.7783 11.3115 10.0488 11.4258V11.4873C10.9277 11.5752 11.5693 12.3311 11.5693 13.2803C11.5693 14.5811 10.5146 15.4863 8.97656 15.4863ZM14.9531 14.2383C15.7178 14.2383 16.1836 13.3066 16.1836 11.6455C16.1836 9.98438 15.709 9.05273 14.9531 9.05273C14.2061 9.05273 13.7314 9.98438 13.7314 11.6455C13.7314 13.3066 14.2061 14.2383 14.9531 14.2383Z" fill="#1C1C1E"/>
</g>
<defs>
<clipPath id="clip0_10_1873">
<rect width="24" height="24" fill="white"/>
</clipPath>
</defs>
</svg>
