<svg width="24" height="24" viewBox="0 0 24 24" fill="none" xmlns="http://www.w3.org/2000/svg">
<g clip-path="url(#clip0_10_1874)">
<path d="M11.9912 20.7422C16.9746 20.7422 21.0879 16.6289 21.0879 11.6543C21.0879 6.67969 16.9658 2.56641 11.9824 2.56641C7.00781 2.56641 2.90332 6.67969 2.90332 11.6543C2.90332 16.6289 7.0166 20.7422 11.9912 20.7422ZM11.9912 18.9316C7.95703 18.9316 4.73145 15.6885 4.73145 11.6543C4.73145 7.62012 7.95703 4.38574 11.9824 4.38574C16.0166 4.38574 19.2598 7.62012 19.2686 11.6543C19.2773 15.6885 16.0254 18.9316 11.9912 18.9316ZM14.8389 15.3457C16.3066 15.3457 17.2998 13.9922 17.2998 11.6543C17.2998 9.30762 16.3066 7.9541 14.8389 7.9541C13.3711 7.9541 12.3955 9.30762 12.3955 11.6543C12.3955 13.9922 13.3711 15.3457 14.8389 15.3457ZM9.09082 15.3457C10.5674 15.3457 11.5781 14.4756 11.5781 13.2188C11.5781 12.3135 10.9717 11.584 10.1191 11.5049V11.4434C10.8223 11.3291 11.3672 10.626 11.3672 9.83496C11.3672 8.72754 10.4531 7.9541 9.14355 7.9541C7.9834 7.9541 7.13965 8.63086 6.91992 9.41309C6.88477 9.54492 6.87598 9.6416 6.87598 9.76465C6.87598 10.1162 7.08691 10.3359 7.41211 10.3359C7.68457 10.3359 7.84277 10.1953 7.93945 9.92285C8.13281 9.36914 8.51074 9.07031 9.11719 9.07031C9.72363 9.07031 10.1543 9.44824 10.1543 10.002C10.1543 10.5645 9.74121 10.9863 9.1084 10.9863H8.72168C8.39648 10.9863 8.17676 11.2061 8.17676 11.5488C8.17676 11.874 8.37891 12.1201 8.72168 12.1201H9.14355C9.88184 12.1201 10.3477 12.5332 10.3477 13.1572C10.3477 13.7549 9.83789 14.2119 9.1084 14.2119C8.50195 14.2119 8.0625 13.9131 7.83398 13.3594C7.71973 13.0869 7.55273 12.9463 7.28906 12.9463C6.99023 12.9463 6.74414 13.1748 6.74414 13.5176C6.74414 13.6494 6.76172 13.7461 6.79688 13.8604C7.0166 14.6338 7.93945 15.3457 9.09082 15.3457ZM14.8477 14.1504C14.1182 14.1504 13.6611 13.2539 13.6611 11.6543C13.6611 10.0459 14.1182 9.14941 14.8477 9.14941C15.5771 9.14941 16.0342 10.0459 16.0342 11.6543C16.0342 13.2539 15.5859 14.1504 14.8477 14.1504Z" fill="#1C1C1E"/>
</g>
<defs>
<clipPath id="clip0_10_1874">
<rect width="24" height="24" fill="white"/>
</clipPath>
</defs>
</svg>
