<svg width="24" height="24" viewBox="0 0 24 24" fill="none" xmlns="http://www.w3.org/2000/svg">
<g clip-path="url(#clip0_10_1872)">
<path d="M6.67383 19.8809H17.3174C19.2246 19.8809 20.209 18.8965 20.209 17.0156V6.31934C20.209 4.43848 19.2246 3.4541 17.3174 3.4541H6.67383C4.77539 3.4541 3.78223 4.42969 3.78223 6.31934V17.0156C3.78223 18.8965 4.77539 19.8809 6.67383 19.8809ZM6.78809 18.1318C5.97949 18.1318 5.53125 17.71 5.53125 16.8574V6.47754C5.53125 5.625 5.97949 5.20312 6.78809 5.20312H17.2031C18.0029 5.20312 18.46 5.625 18.46 6.47754V16.8574C18.46 17.71 18.0029 18.1318 17.2031 18.1318H6.78809ZM14.8564 15.3369C16.3242 15.3369 17.3174 13.9834 17.3174 11.6455C17.3174 9.29883 16.3242 7.9541 14.8564 7.9541C13.3799 7.9541 12.4043 9.29883 12.4043 11.6455C12.4043 13.9834 13.3799 15.3369 14.8564 15.3369ZM9.1084 15.3369C10.585 15.3369 11.5957 14.4668 11.5957 13.2188C11.5957 12.3135 10.9805 11.5752 10.1367 11.4961V11.4346C10.8311 11.3203 11.376 10.6172 11.376 9.82617C11.376 8.71875 10.4707 7.9541 9.15234 7.9541C8.00098 7.9541 7.15723 8.62207 6.92871 9.4043C6.89355 9.53613 6.88477 9.63281 6.88477 9.75586C6.88477 10.1074 7.10449 10.3359 7.42969 10.3359C7.70215 10.3359 7.86035 10.1953 7.95703 9.92285C8.15039 9.36035 8.52832 9.06152 9.13477 9.06152C9.74121 9.06152 10.1719 9.43945 10.1719 9.99316C10.1719 10.5557 9.75 10.9775 9.12598 10.9775H8.73926C8.40527 10.9775 8.19434 11.2061 8.19434 11.5488C8.19434 11.8652 8.39648 12.1113 8.73926 12.1113H9.16113C9.89941 12.1113 10.3652 12.5244 10.3652 13.1572C10.3652 13.7461 9.85547 14.2119 9.12598 14.2119C8.51074 14.2119 8.08008 13.9043 7.85156 13.3506C7.72852 13.0869 7.57031 12.9463 7.30664 12.9463C6.99902 12.9463 6.75293 13.166 6.75293 13.5176C6.75293 13.6406 6.77051 13.7373 6.80566 13.8516C7.03418 14.6338 7.95703 15.3369 9.1084 15.3369ZM14.8652 14.1504C14.1357 14.1504 13.6699 13.2451 13.6699 11.6455C13.6699 10.0459 14.1357 9.14062 14.8652 9.14062C15.5947 9.14062 16.0518 10.0459 16.0518 11.6455C16.0518 13.2451 15.5947 14.1504 14.8652 14.1504Z" fill="#1C1C1E"/>
</g>
<defs>
<clipPath id="clip0_10_1872">
<rect width="24" height="24" fill="white"/>
</clipPath>
</defs>
</svg>
