<svg width="24" height="24" viewBox="0 0 24 24" fill="none" xmlns="http://www.w3.org/2000/svg">
<g clip-path="url(#clip0_10_1871)">
<path d="M6.67383 19.8809H17.3174C19.2246 19.8809 20.209 18.8965 20.209 17.0156V6.31934C20.209 4.43848 19.2246 3.4541 17.3174 3.4541H6.67383C4.77539 3.4541 3.78223 4.42969 3.78223 6.31934V17.0156C3.78223 18.8965 4.77539 19.8809 6.67383 19.8809ZM14.9883 15.4863C13.459 15.4863 12.4395 14.0889 12.4395 11.6455C12.4395 9.20215 13.459 7.80469 14.9883 7.80469C16.5176 7.80469 17.5459 9.20215 17.5459 11.6455C17.5459 14.0889 16.5176 15.4863 14.9883 15.4863ZM9.01172 15.4863C7.81641 15.4863 6.8584 14.748 6.62109 13.9482C6.58594 13.8252 6.56836 13.7197 6.56836 13.5879C6.56836 13.2275 6.82324 12.9902 7.14844 12.9902C7.4209 12.9902 7.58789 13.1309 7.71094 13.4121C7.94824 13.9922 8.39648 14.2998 9.0293 14.2998C9.78516 14.2998 10.3125 13.8252 10.3125 13.2188C10.3125 12.5596 9.82031 12.1377 9.07324 12.1377H8.63379C8.27344 12.1377 8.0625 11.8828 8.0625 11.5488C8.0625 11.1797 8.29102 10.9424 8.63379 10.9424H9.0293C9.67969 10.9424 10.1104 10.5117 10.1104 9.93164C10.1104 9.36035 9.6709 8.97363 9.03809 8.97363C8.41406 8.97363 8.02734 9.28125 7.8252 9.85254C7.71973 10.1426 7.55273 10.2832 7.2627 10.2832C6.92871 10.2832 6.70898 10.0459 6.70898 9.68555C6.70898 9.55371 6.70898 9.44824 6.74414 9.31641C6.98145 8.49902 7.86035 7.80469 9.06445 7.80469C10.4268 7.80469 11.376 8.5957 11.376 9.75586C11.376 10.5732 10.8135 11.3115 10.084 11.4258V11.4873C10.9629 11.5752 11.6045 12.3311 11.6045 13.2803C11.6045 14.5811 10.5498 15.4863 9.01172 15.4863ZM14.9883 14.2383C15.7529 14.2383 16.2188 13.3066 16.2188 11.6455C16.2188 9.98438 15.7441 9.05273 14.9883 9.05273C14.2412 9.05273 13.7666 9.98438 13.7666 11.6455C13.7666 13.3066 14.2412 14.2383 14.9883 14.2383Z" fill="#1C1C1E"/>
</g>
<defs>
<clipPath id="clip0_10_1871">
<rect width="24" height="24" fill="white"/>
</clipPath>
</defs>
</svg>
