<svg width="24" height="24" viewBox="0 0 24 24" fill="none" xmlns="http://www.w3.org/2000/svg">
<g clip-path="url(#clip0_10_1870)">
<path d="M11.9912 20.7422C16.9746 20.7422 21.0879 16.6289 21.0879 11.6543C21.0879 6.67969 16.9658 2.56641 11.9824 2.56641C7.00781 2.56641 2.90332 6.67969 2.90332 11.6543C2.90332 16.6289 7.0166 20.7422 11.9912 20.7422ZM11.9912 18.9316C7.95703 18.9316 4.73145 15.6885 4.73145 11.6543C4.73145 7.62012 7.95703 4.38574 11.9824 4.38574C16.0166 4.38574 19.2598 7.62012 19.2686 11.6543C19.2773 15.6885 16.0254 18.9316 11.9912 18.9316ZM9.73242 15.3545C11.2002 15.3545 12.2197 14.4844 12.2197 13.2363C12.2197 12.3311 11.6045 11.5928 10.7607 11.5137V11.4521C11.4551 11.3379 12 10.6348 12 9.84375C12 8.73633 11.0947 7.96289 9.77637 7.96289C8.61621 7.96289 7.77246 8.63965 7.55273 9.42188C7.51758 9.55371 7.50879 9.65039 7.50879 9.77344C7.50879 10.125 7.72852 10.3447 8.04492 10.3447C8.32617 10.3447 8.47559 10.2041 8.58105 9.93164C8.77441 9.37793 9.15234 9.0791 9.75 9.0791C10.3652 9.0791 10.7959 9.45703 10.7959 10.0107C10.7959 10.5732 10.374 10.9951 9.75 10.9951H9.35449C9.0293 10.9951 8.80957 11.2148 8.80957 11.5576C8.80957 11.8828 9.02051 12.1289 9.35449 12.1289H9.78516C10.5146 12.1289 10.9805 12.542 10.9805 13.166C10.9805 13.7637 10.4795 14.2207 9.74121 14.2207C9.13477 14.2207 8.69531 13.9219 8.4668 13.3682C8.35254 13.0957 8.18555 12.9639 7.92188 12.9639C7.62305 12.9639 7.37695 13.1836 7.37695 13.5264C7.37695 13.6582 7.39453 13.7549 7.42969 13.8691C7.64941 14.6426 8.57227 15.3545 9.73242 15.3545ZM15.709 15.2666C16.0957 15.2666 16.3242 15.0293 16.3242 14.6162V8.75391C16.3242 8.30566 16.0518 8.01562 15.6123 8.01562C15.3135 8.01562 15.1113 8.09473 14.7773 8.34961L13.5557 9.21973C13.3447 9.39551 13.2305 9.5625 13.2305 9.81738C13.2305 10.125 13.4854 10.3799 13.7666 10.3799C13.9424 10.3799 14.0391 10.3447 14.2412 10.1777L15.0586 9.54492H15.1025V14.6162C15.1025 15.0293 15.3311 15.2666 15.709 15.2666Z" fill="#1C1C1E"/>
</g>
<defs>
<clipPath id="clip0_10_1870">
<rect width="24" height="24" fill="white"/>
</clipPath>
</defs>
</svg>
