<svg width="24" height="24" viewBox="0 0 24 24" fill="none" xmlns="http://www.w3.org/2000/svg">
<g clip-path="url(#clip0_10_1869)">
<path d="M11.9912 20.7422C16.9746 20.7422 21.0879 16.6289 21.0879 11.6543C21.0879 6.67969 16.9658 2.56641 11.9824 2.56641C7.00781 2.56641 2.90332 6.67969 2.90332 11.6543C2.90332 16.6289 7.0166 20.7422 11.9912 20.7422ZM9.64453 15.4951C8.44922 15.4951 7.48242 14.7568 7.25391 13.957C7.21875 13.834 7.20117 13.7285 7.20117 13.5967C7.20117 13.2363 7.44727 12.999 7.77246 12.999C8.04492 12.999 8.21191 13.1396 8.34375 13.4209C8.57227 14.001 9.0293 14.3086 9.65332 14.3086C10.418 14.3086 10.9365 13.834 10.9365 13.2275C10.9365 12.5684 10.4531 12.1465 9.68848 12.1465H9.25781C8.90625 12.1465 8.69531 11.8916 8.69531 11.5576C8.69531 11.1885 8.91504 10.9512 9.25781 10.9512H9.66211C10.3125 10.9512 10.7344 10.5205 10.7344 9.94043C10.7344 9.36914 10.2949 8.98242 9.66211 8.98242C9.04688 8.98242 8.65137 9.29004 8.44922 9.87012C8.35254 10.1514 8.18555 10.292 7.89551 10.292C7.56152 10.292 7.33301 10.0547 7.33301 9.69434C7.33301 9.5625 7.3418 9.45703 7.37695 9.3252C7.61426 8.5166 8.48438 7.81348 9.69727 7.81348C11.0596 7.81348 12.0088 8.60449 12.0088 9.76465C12.0088 10.582 11.4375 11.3203 10.7168 11.4346V11.4961C11.5957 11.584 12.2285 12.3398 12.2285 13.2891C12.2285 14.5898 11.1826 15.4951 9.64453 15.4951ZM15.8584 15.4072C15.4717 15.4072 15.2256 15.1523 15.2256 14.7217V9.46582H15.1816L14.3379 10.1162C14.127 10.292 14.0215 10.3271 13.8369 10.3271C13.5469 10.3271 13.2744 10.0635 13.2744 9.73828C13.2744 9.4834 13.3975 9.29883 13.6172 9.12305L14.8916 8.21777C15.2344 7.9541 15.4453 7.86621 15.7617 7.86621C16.2188 7.86621 16.5 8.16504 16.5 8.63086V14.7217C16.5 15.1523 16.2715 15.4072 15.8584 15.4072Z" fill="#1C1C1E"/>
</g>
<defs>
<clipPath id="clip0_10_1869">
<rect width="24" height="24" fill="white"/>
</clipPath>
</defs>
</svg>
