<svg width="24" height="24" viewBox="0 0 24 24" fill="none" xmlns="http://www.w3.org/2000/svg">
<g clip-path="url(#clip0_10_1868)">
<path d="M6.67383 19.8809H17.3174C19.2246 19.8809 20.209 18.8965 20.209 17.0156V6.31934C20.209 4.43848 19.2246 3.4541 17.3174 3.4541H6.67383C4.77539 3.4541 3.78223 4.42969 3.78223 6.31934V17.0156C3.78223 18.8965 4.77539 19.8809 6.67383 19.8809ZM6.78809 18.1318C5.97949 18.1318 5.53125 17.71 5.53125 16.8574V6.47754C5.53125 5.625 5.97949 5.20312 6.78809 5.20312H17.2031C18.0029 5.20312 18.46 5.625 18.46 6.47754V16.8574C18.46 17.71 18.0029 18.1318 17.2031 18.1318H6.78809ZM9.74121 15.3457C11.2178 15.3457 12.2285 14.4756 12.2285 13.2275C12.2285 12.3223 11.6221 11.584 10.7695 11.5049V11.4521C11.4727 11.3291 12.0176 10.626 12.0176 9.83496C12.0176 8.72754 11.1035 7.96289 9.79395 7.96289C8.63379 7.96289 7.79004 8.63086 7.57031 9.41309C7.53516 9.54492 7.52637 9.6416 7.52637 9.77344C7.52637 10.1162 7.7373 10.3447 8.0625 10.3447C8.33496 10.3447 8.49316 10.2041 8.58984 9.93164C8.7832 9.36914 9.16113 9.07031 9.76758 9.07031C10.374 9.07031 10.8047 9.44824 10.8047 10.002C10.8047 10.5645 10.3916 10.9863 9.75879 10.9863H9.37207C9.04688 10.9863 8.82715 11.2148 8.82715 11.5576C8.82715 11.874 9.0293 12.1201 9.37207 12.1201H9.79395C10.5322 12.1201 10.998 12.5332 10.998 13.166C10.998 13.7549 10.4883 14.2207 9.75879 14.2207C9.15234 14.2207 8.71289 13.9219 8.48438 13.3594C8.37012 13.0957 8.20312 12.9551 7.93945 12.9551C7.64062 12.9551 7.39453 13.1748 7.39453 13.5264C7.39453 13.6494 7.41211 13.7461 7.44727 13.8691C7.66699 14.6426 8.58984 15.3457 9.74121 15.3457ZM15.7266 15.2666C16.1133 15.2666 16.3418 15.0205 16.3418 14.6074V8.74512C16.3418 8.29688 16.0693 8.00684 15.6299 8.00684C15.3311 8.00684 15.1289 8.09473 14.7949 8.34961L13.5732 9.21094C13.3623 9.38672 13.248 9.5625 13.248 9.80859C13.248 10.1162 13.5029 10.3711 13.7842 10.3711C13.9512 10.3711 14.0566 10.3359 14.2588 10.1689L15.0762 9.54492H15.1201V14.6074C15.1201 15.0205 15.3486 15.2666 15.7266 15.2666Z" fill="#1C1C1E"/>
</g>
<defs>
<clipPath id="clip0_10_1868">
<rect width="24" height="24" fill="white"/>
</clipPath>
</defs>
</svg>
