<svg width="24" height="24" viewBox="0 0 24 24" fill="none" xmlns="http://www.w3.org/2000/svg">
<g clip-path="url(#clip0_10_1867)">
<path d="M6.67383 19.8809H17.3174C19.2246 19.8809 20.209 18.8965 20.209 17.0156V6.31934C20.209 4.43848 19.2246 3.4541 17.3174 3.4541H6.67383C4.77539 3.4541 3.78223 4.42969 3.78223 6.31934V17.0156C3.78223 18.8965 4.77539 19.8809 6.67383 19.8809ZM9.67969 15.4951C8.48438 15.4951 7.51758 14.7568 7.28906 13.957C7.25391 13.834 7.23633 13.7285 7.23633 13.5967C7.23633 13.2363 7.49121 12.999 7.80762 12.999C8.08008 12.999 8.24707 13.1396 8.37891 13.4209C8.60742 14.001 9.06445 14.3086 9.68848 14.3086C10.4531 14.3086 10.9717 13.834 10.9717 13.2275C10.9717 12.5684 10.4883 12.1465 9.73242 12.1465H9.29297C8.94141 12.1465 8.73047 11.8916 8.73047 11.5576C8.73047 11.1885 8.9502 10.9512 9.29297 10.9512H9.69727C10.3477 10.9512 10.7783 10.5205 10.7783 9.94043C10.7783 9.36914 10.3301 8.98242 9.69727 8.98242C9.08203 8.98242 8.69531 9.29004 8.48438 9.87012C8.3877 10.1514 8.2207 10.292 7.93066 10.292C7.59668 10.292 7.36816 10.0547 7.36816 9.69434C7.36816 9.5625 7.37695 9.45703 7.41211 9.3252C7.64941 8.5166 8.51953 7.81348 9.73242 7.81348C11.0947 7.81348 12.0439 8.60449 12.0439 9.76465C12.0439 10.582 11.4814 11.3203 10.752 11.4346V11.4961C11.6309 11.584 12.2637 12.3398 12.2637 13.2891C12.2637 14.5898 11.2178 15.4951 9.67969 15.4951ZM15.8936 15.4072C15.5068 15.4072 15.2695 15.1523 15.2695 14.7217V9.46582H15.2168L14.373 10.1162C14.1621 10.292 14.0566 10.3271 13.8721 10.3271C13.582 10.3271 13.3096 10.0635 13.3096 9.73828C13.3096 9.4834 13.4326 9.29883 13.6523 9.12305L14.9268 8.21777C15.2695 7.9541 15.4805 7.86621 15.7969 7.86621C16.2539 7.86621 16.5352 8.16504 16.5352 8.63086V14.7217C16.5352 15.1523 16.3066 15.4072 15.8936 15.4072Z" fill="#1C1C1E"/>
</g>
<defs>
<clipPath id="clip0_10_1867">
<rect width="24" height="24" fill="white"/>
</clipPath>
</defs>
</svg>
