<svg width="24" height="24" viewBox="0 0 24 24" fill="none" xmlns="http://www.w3.org/2000/svg">
<g clip-path="url(#clip0_10_2114)">
<path d="M11.9912 20.7422C16.9746 20.7422 21.0879 16.6289 21.0879 11.6543C21.0879 6.67969 16.9658 2.56641 11.9824 2.56641C7.00781 2.56641 2.90332 6.67969 2.90332 11.6543C2.90332 16.6289 7.0166 20.7422 11.9912 20.7422ZM9.03809 15.4951C7.84277 15.4951 6.87598 14.7568 6.64746 13.957C6.6123 13.834 6.59473 13.7285 6.59473 13.5967C6.59473 13.2363 6.84961 12.999 7.16602 12.999C7.43848 12.999 7.60547 13.1396 7.7373 13.4209C7.97461 14.001 8.42285 14.3086 9.04688 14.3086C9.81152 14.3086 10.3301 13.834 10.3301 13.2275C10.3301 12.5684 9.84668 12.1465 9.09082 12.1465H8.65137C8.2998 12.1465 8.08008 11.8916 8.08008 11.5576C8.08008 11.1885 8.30859 10.9512 8.65137 10.9512H9.05566C9.70605 10.9512 10.1279 10.5205 10.1279 9.94043C10.1279 9.36914 9.68848 8.98242 9.06445 8.98242C8.44043 8.98242 8.04492 9.29004 7.84277 9.87012C7.74609 10.1514 7.5791 10.292 7.28906 10.292C6.95508 10.292 6.72656 10.0547 6.72656 9.69434C6.72656 9.5625 6.73535 9.45703 6.77051 9.3252C7.00781 8.5166 7.87793 7.81348 9.09082 7.81348C10.4531 7.81348 11.4023 8.60449 11.4023 9.76465C11.4023 10.582 10.8398 11.3203 10.1104 11.4346V11.4961C10.9893 11.584 11.6309 12.3398 11.6309 13.2891C11.6309 14.5898 10.5762 15.4951 9.03809 15.4951ZM13.3799 15.3018C13.0195 15.3018 12.7734 15.0645 12.7734 14.6865C12.7734 14.4668 12.8525 14.2822 13.0283 14.0801L15.2256 11.4961C15.6475 11.0039 16.0869 10.5381 16.0869 9.99316C16.0869 9.39551 15.665 8.99121 15.0146 8.99121C14.4434 8.99121 14.0303 9.29004 13.8281 9.90527C13.7139 10.1777 13.5557 10.3535 13.248 10.3535C12.9053 10.3535 12.6943 10.1162 12.6943 9.75586C12.6943 9.6416 12.7119 9.52734 12.7383 9.4043C12.9756 8.48145 13.9248 7.81348 14.9883 7.81348C16.3945 7.81348 17.291 8.63086 17.2998 9.87891C17.2998 10.7578 16.834 11.3994 16.1572 12.1904L14.5752 14.0273V14.0977H16.9043C17.2471 14.0977 17.4932 14.3086 17.4932 14.6953C17.4932 15.0645 17.2471 15.3018 16.9043 15.3018H13.3799Z" fill="#1C1C1E"/>
</g>
<defs>
<clipPath id="clip0_10_2114">
<rect width="24" height="24" fill="white"/>
</clipPath>
</defs>
</svg>
