<svg width="24" height="24" viewBox="0 0 24 24" fill="none" xmlns="http://www.w3.org/2000/svg">
<g clip-path="url(#clip0_10_1866)">
<path d="M11.9912 20.7422C16.9746 20.7422 21.0879 16.6289 21.0879 11.6543C21.0879 6.67969 16.9658 2.56641 11.9824 2.56641C7.00781 2.56641 2.90332 6.67969 2.90332 11.6543C2.90332 16.6289 7.0166 20.7422 11.9912 20.7422ZM11.9912 18.9316C7.95703 18.9316 4.73145 15.6885 4.73145 11.6543C4.73145 7.62012 7.95703 4.38574 11.9824 4.38574C16.0166 4.38574 19.2598 7.62012 19.2686 11.6543C19.2773 15.6885 16.0254 18.9316 11.9912 18.9316ZM9.15234 15.3545C10.6201 15.3545 11.6396 14.4844 11.6396 13.2363C11.6396 12.3311 11.0244 11.5928 10.1807 11.5137V11.4521C10.875 11.3379 11.4199 10.6348 11.4199 9.84375C11.4199 8.73633 10.5146 7.96289 9.19629 7.96289C8.03613 7.96289 7.19238 8.63965 6.97266 9.42188C6.9375 9.55371 6.92871 9.65039 6.92871 9.77344C6.92871 10.125 7.14844 10.3447 7.46484 10.3447C7.74609 10.3447 7.89551 10.2041 8.00098 9.93164C8.19434 9.37793 8.57227 9.0791 9.16992 9.0791C9.78516 9.0791 10.2158 9.45703 10.2158 10.0107C10.2158 10.5732 9.79395 10.9951 9.16992 10.9951H8.77441C8.44922 10.9951 8.22949 11.2148 8.22949 11.5576C8.22949 11.8828 8.43164 12.1289 8.77441 12.1289H9.20508C9.93457 12.1289 10.4004 12.542 10.4004 13.166C10.4004 13.7637 9.89941 14.2207 9.16113 14.2207C8.55469 14.2207 8.11523 13.9219 7.88672 13.3682C7.77246 13.0957 7.60547 12.9639 7.3418 12.9639C7.04297 12.9639 6.79688 13.1836 6.79688 13.5264C6.79688 13.6582 6.81445 13.7549 6.84961 13.8691C7.06934 14.6426 7.99219 15.3545 9.15234 15.3545ZM13.3271 15.1699H16.7285C17.0537 15.1699 17.2822 14.9414 17.2822 14.5811C17.2822 14.2207 17.0537 14.0098 16.7285 14.0098H14.4697V13.957L15.999 12.1729C16.6494 11.417 17.0977 10.793 17.0977 9.94922C17.0889 8.75391 16.2275 7.96289 14.8828 7.96289C13.8457 7.96289 12.9404 8.61328 12.7119 9.50098C12.6855 9.61523 12.668 9.7207 12.668 9.83496C12.668 10.1777 12.8701 10.4062 13.2041 10.4062C13.4941 10.4062 13.6436 10.2393 13.749 9.9668C13.9424 9.38672 14.3379 9.08789 14.9004 9.08789C15.5244 9.08789 15.9375 9.4834 15.9375 10.0547C15.9375 10.582 15.5156 11.0303 15.1113 11.5137L12.9844 14.0098C12.8174 14.1943 12.7471 14.3789 12.7471 14.5811C12.7471 14.9414 12.9844 15.1699 13.3271 15.1699Z" fill="#1C1C1E"/>
</g>
<defs>
<clipPath id="clip0_10_1866">
<rect width="24" height="24" fill="white"/>
</clipPath>
</defs>
</svg>
