<svg width="24" height="24" viewBox="0 0 24 24" fill="none" xmlns="http://www.w3.org/2000/svg">
<g clip-path="url(#clip0_10_1865)">
<path d="M6.67383 19.8809H17.3174C19.2246 19.8809 20.209 18.8965 20.209 17.0156V6.31934C20.209 4.43848 19.2246 3.4541 17.3174 3.4541H6.67383C4.77539 3.4541 3.78223 4.42969 3.78223 6.31934V17.0156C3.78223 18.8965 4.77539 19.8809 6.67383 19.8809ZM6.78809 18.1318C5.97949 18.1318 5.53125 17.71 5.53125 16.8574V6.47754C5.53125 5.625 5.97949 5.20312 6.78809 5.20312H17.2031C18.0029 5.20312 18.46 5.625 18.46 6.47754V16.8574C18.46 17.71 18.0029 18.1318 17.2031 18.1318H6.78809ZM9.16113 15.3457C10.6377 15.3457 11.6484 14.4756 11.6484 13.2275C11.6484 12.3223 11.042 11.584 10.1895 11.5049V11.4521C10.8926 11.3291 11.4375 10.626 11.4375 9.83496C11.4375 8.72754 10.5234 7.96289 9.21387 7.96289C8.05371 7.96289 7.20996 8.63086 6.99023 9.41309C6.95508 9.54492 6.94629 9.6416 6.94629 9.77344C6.94629 10.1162 7.15723 10.3447 7.48242 10.3447C7.75488 10.3447 7.91309 10.2041 8.00977 9.93164C8.20312 9.36914 8.58105 9.07031 9.1875 9.07031C9.79395 9.07031 10.2246 9.44824 10.2246 10.002C10.2246 10.5645 9.81152 10.9863 9.17871 10.9863H8.79199C8.4668 10.9863 8.24707 11.2148 8.24707 11.5576C8.24707 11.874 8.44922 12.1201 8.79199 12.1201H9.21387C9.95215 12.1201 10.418 12.5332 10.418 13.166C10.418 13.7549 9.9082 14.2207 9.17871 14.2207C8.57227 14.2207 8.13281 13.9219 7.9043 13.3594C7.79004 13.0957 7.62305 12.9551 7.35938 12.9551C7.06055 12.9551 6.81445 13.1748 6.81445 13.5264C6.81445 13.6494 6.83203 13.7461 6.86719 13.8691C7.08691 14.6426 8.00977 15.3457 9.16113 15.3457ZM13.3447 15.1611H16.7461C17.0713 15.1611 17.2998 14.9326 17.2998 14.5811C17.2998 14.2207 17.0713 14.0098 16.7461 14.0098H14.4785V13.9482L16.0078 12.1641C16.6582 11.4082 17.1152 10.793 17.1064 9.94922C17.1064 8.74512 16.2451 7.96289 14.8916 7.96289C13.8633 7.96289 12.958 8.60449 12.7295 9.49219C12.7031 9.60645 12.6855 9.71191 12.6855 9.82617C12.6855 10.1689 12.8877 10.3975 13.2217 10.3975C13.5029 10.3975 13.6523 10.2305 13.7666 9.9668C13.96 9.37793 14.3555 9.08789 14.918 9.08789C15.542 9.08789 15.9551 9.47461 15.9551 10.0547C15.9551 10.582 15.5332 11.0215 15.1201 11.5137L13.002 14.001C12.835 14.1943 12.7646 14.3701 12.7646 14.5723C12.7646 14.9326 12.9932 15.1611 13.3447 15.1611Z" fill="#1C1C1E"/>
</g>
<defs>
<clipPath id="clip0_10_1865">
<rect width="24" height="24" fill="white"/>
</clipPath>
</defs>
</svg>
