<svg width="24" height="24" viewBox="0 0 24 24" fill="none" xmlns="http://www.w3.org/2000/svg">
<g clip-path="url(#clip0_10_1864)">
<path d="M6.67383 19.8809H17.3174C19.2246 19.8809 20.209 18.8965 20.209 17.0156V6.31934C20.209 4.43848 19.2246 3.4541 17.3174 3.4541H6.67383C4.77539 3.4541 3.78223 4.42969 3.78223 6.31934V17.0156C3.78223 18.8965 4.77539 19.8809 6.67383 19.8809ZM9.07324 15.4951C7.87793 15.4951 6.91992 14.7568 6.68262 13.957C6.64746 13.834 6.62988 13.7285 6.62988 13.5967C6.62988 13.2363 6.88477 12.999 7.20117 12.999C7.48242 12.999 7.64941 13.1396 7.77246 13.4209C8.00977 14.001 8.45801 14.3086 9.08203 14.3086C9.84668 14.3086 10.3652 13.834 10.3652 13.2275C10.3652 12.5684 9.88184 12.1465 9.12598 12.1465H8.68652C8.33496 12.1465 8.11523 11.8916 8.11523 11.5576C8.11523 11.1885 8.34375 10.9512 8.68652 10.9512H9.09082C9.74121 10.9512 10.1631 10.5205 10.1631 9.94043C10.1631 9.36914 9.72363 8.98242 9.09961 8.98242C8.47559 8.98242 8.08008 9.29004 7.87793 9.87012C7.78125 10.1514 7.61426 10.292 7.32422 10.292C6.99023 10.292 6.76172 10.0547 6.76172 9.69434C6.76172 9.5625 6.77051 9.45703 6.80566 9.3252C7.04297 8.5166 7.91309 7.81348 9.12598 7.81348C10.4883 7.81348 11.4375 8.60449 11.4375 9.76465C11.4375 10.582 10.875 11.3203 10.1455 11.4346V11.4961C11.0244 11.584 11.666 12.3398 11.666 13.2891C11.666 14.5898 10.6113 15.4951 9.07324 15.4951ZM13.415 15.3018C13.0547 15.3018 12.8086 15.0645 12.8086 14.6865C12.8086 14.4668 12.8877 14.2822 13.0635 14.0801L15.2607 11.4961C15.6826 11.0039 16.1221 10.5381 16.1221 9.99316C16.1221 9.39551 15.7002 8.99121 15.0498 8.99121C14.4785 8.99121 14.0654 9.29004 13.8633 9.90527C13.749 10.1777 13.5908 10.3535 13.2832 10.3535C12.9404 10.3535 12.7295 10.1162 12.7295 9.75586C12.7295 9.6416 12.7471 9.52734 12.7734 9.4043C13.0107 8.48145 13.96 7.81348 15.0234 7.81348C16.4297 7.81348 17.335 8.63086 17.335 9.87891C17.335 10.7578 16.8691 11.3994 16.1924 12.1904L14.6104 14.0273V14.0977H16.9395C17.2822 14.0977 17.5283 14.3086 17.5283 14.6953C17.5283 15.0645 17.2822 15.3018 16.9395 15.3018H13.415Z" fill="#1C1C1E"/>
</g>
<defs>
<clipPath id="clip0_10_1864">
<rect width="24" height="24" fill="white"/>
</clipPath>
</defs>
</svg>
