<svg width="24" height="24" viewBox="0 0 24 24" fill="none" xmlns="http://www.w3.org/2000/svg">
<g clip-path="url(#clip0_10_1862)">
<path d="M11.9912 20.7422C16.9746 20.7422 21.0879 16.6289 21.0879 11.6543C21.0879 6.67969 16.9658 2.56641 11.9824 2.56641C7.00781 2.56641 2.90332 6.67969 2.90332 11.6543C2.90332 16.6289 7.0166 20.7422 11.9912 20.7422ZM8.9502 15.4951C7.74609 15.4951 6.78809 14.7568 6.55078 13.957C6.51562 13.834 6.49805 13.7285 6.49805 13.5967C6.49805 13.2363 6.75293 12.999 7.06934 12.999C7.35059 12.999 7.51758 13.1396 7.64062 13.4209C7.87793 14.001 8.33496 14.3086 8.95898 14.3086C9.71484 14.3086 10.2422 13.834 10.2422 13.2275C10.2422 12.5684 9.75879 12.1465 8.99414 12.1465H8.56348C8.20312 12.1465 7.99219 11.8916 7.99219 11.5576C7.99219 11.1885 8.21191 10.9512 8.56348 10.9512H8.95898C9.60938 10.9512 10.04 10.5205 10.04 9.94043C10.04 9.36914 9.5918 8.98242 8.96777 8.98242C8.35254 8.98242 7.95703 9.29004 7.75488 9.87012C7.64941 10.1514 7.49121 10.292 7.20117 10.292C6.86719 10.292 6.63867 10.0547 6.63867 9.69434C6.63867 9.5625 6.64746 9.45703 6.68262 9.3252C6.91992 8.5166 7.79004 7.81348 8.99414 7.81348C10.3652 7.81348 11.3057 8.60449 11.3057 9.76465C11.3057 10.582 10.7432 11.3203 10.0225 11.4346V11.4961C10.9014 11.584 11.5342 12.3398 11.5342 13.2891C11.5342 14.5898 10.4795 15.4951 8.9502 15.4951ZM15.0938 15.4951C13.8896 15.4951 12.9316 14.7568 12.6943 13.957C12.6592 13.834 12.6416 13.7285 12.6416 13.5967C12.6416 13.2363 12.9053 12.999 13.2217 12.999C13.4941 12.999 13.6699 13.1396 13.7842 13.4209C14.0215 14.001 14.4697 14.3086 15.1025 14.3086C15.8584 14.3086 16.377 13.834 16.377 13.2275C16.377 12.5684 15.9023 12.1465 15.1465 12.1465H14.707C14.3467 12.1465 14.1357 11.8916 14.1357 11.5576C14.1357 11.1885 14.3643 10.9512 14.707 10.9512H15.1113C15.7529 10.9512 16.1836 10.5205 16.1836 9.94043C16.1836 9.36914 15.7441 8.98242 15.1113 8.98242C14.4873 8.98242 14.1006 9.29004 13.8984 9.87012C13.793 10.1514 13.626 10.292 13.3359 10.292C13.002 10.292 12.7734 10.0547 12.7734 9.69434C12.7734 9.5625 12.791 9.45703 12.8262 9.3252C13.0547 8.5166 13.9336 7.81348 15.1377 7.81348C16.5088 7.81348 17.4492 8.60449 17.4492 9.76465C17.4492 10.582 16.8867 11.3203 16.1572 11.4346V11.4961C17.0449 11.584 17.6777 12.3398 17.6777 13.2891C17.6777 14.5898 16.623 15.4951 15.0938 15.4951Z" fill="#1C1C1E"/>
</g>
<defs>
<clipPath id="clip0_10_1862">
<rect width="24" height="24" fill="white"/>
</clipPath>
</defs>
</svg>
