<svg width="24" height="24" viewBox="0 0 24 24" fill="none" xmlns="http://www.w3.org/2000/svg">
<g clip-path="url(#clip0_10_1863)">
<path d="M11.9912 20.7422C16.9746 20.7422 21.0879 16.6289 21.0879 11.6543C21.0879 6.67969 16.9658 2.56641 11.9824 2.56641C7.00781 2.56641 2.90332 6.67969 2.90332 11.6543C2.90332 16.6289 7.0166 20.7422 11.9912 20.7422ZM11.9912 18.9316C7.95703 18.9316 4.73145 15.6885 4.73145 11.6543C4.73145 7.62012 7.95703 4.38574 11.9824 4.38574C16.0166 4.38574 19.2598 7.62012 19.2686 11.6543C19.2773 15.6885 16.0254 18.9316 11.9912 18.9316ZM9.06445 15.3545C10.541 15.3545 11.5518 14.4844 11.5518 13.2363C11.5518 12.3311 10.9365 11.5928 10.0928 11.5137V11.4521C10.7871 11.3379 11.332 10.6348 11.332 9.84375C11.332 8.73633 10.4268 7.96289 9.1084 7.96289C7.94824 7.96289 7.10449 8.63965 6.88477 9.42188C6.84961 9.55371 6.84082 9.65039 6.84082 9.77344C6.84082 10.125 7.06055 10.3447 7.37695 10.3447C7.6582 10.3447 7.80762 10.2041 7.91309 9.93164C8.10645 9.37793 8.48438 9.0791 9.08203 9.0791C9.69727 9.0791 10.1279 9.45703 10.1279 10.0107C10.1279 10.5732 9.70605 10.9951 9.08203 10.9951H8.68652C8.36133 10.9951 8.15039 11.2148 8.15039 11.5576C8.15039 11.8828 8.35254 12.1289 8.68652 12.1289H9.11719C9.84668 12.1289 10.3125 12.542 10.3125 13.166C10.3125 13.7637 9.81152 14.2207 9.07324 14.2207C8.4668 14.2207 8.02734 13.9219 7.79883 13.3682C7.68457 13.0957 7.52637 12.9639 7.2627 12.9639C6.95508 12.9639 6.70898 13.1836 6.70898 13.5264C6.70898 13.6582 6.72656 13.7549 6.76172 13.8691C6.99023 14.6426 7.91309 15.3545 9.06445 15.3545ZM14.9707 15.3545C16.4473 15.3545 17.458 14.4844 17.458 13.2363C17.458 12.3311 16.8516 11.5928 15.999 11.5137V11.4521C16.7021 11.3379 17.2471 10.6348 17.2471 9.84375C17.2471 8.73633 16.3418 7.96289 15.0234 7.96289C13.8633 7.96289 13.0195 8.63965 12.7998 9.42188C12.7646 9.55371 12.7559 9.65039 12.7559 9.77344C12.7559 10.125 12.9668 10.3447 13.292 10.3447C13.5645 10.3447 13.7227 10.2041 13.8193 9.93164C14.0127 9.37793 14.3994 9.0791 14.9971 9.0791C15.6035 9.0791 16.0342 9.45703 16.0342 10.0107C16.0342 10.5732 15.6211 10.9951 14.9971 10.9951H14.6016C14.2764 10.9951 14.0566 11.2148 14.0566 11.5576C14.0566 11.8828 14.2588 12.1289 14.6016 12.1289H15.0234C15.7617 12.1289 16.2275 12.542 16.2275 13.166C16.2275 13.7637 15.7178 14.2207 14.9883 14.2207C14.3818 14.2207 13.9424 13.9219 13.7139 13.3682C13.5996 13.0957 13.4326 12.9639 13.1689 12.9639C12.8701 12.9639 12.624 13.1836 12.624 13.5264C12.624 13.6582 12.6416 13.7549 12.6768 13.8691C12.8965 14.6426 13.8193 15.3545 14.9707 15.3545Z" fill="#1C1C1E"/>
</g>
<defs>
<clipPath id="clip0_10_1863">
<rect width="24" height="24" fill="white"/>
</clipPath>
</defs>
</svg>
