<svg width="24" height="24" viewBox="0 0 24 24" fill="none" xmlns="http://www.w3.org/2000/svg">
<g clip-path="url(#clip0_10_2130)">
<path d="M6.67383 19.8809H17.3174C19.2246 19.8809 20.209 18.8965 20.209 17.0156V6.31934C20.209 4.43848 19.2246 3.4541 17.3174 3.4541H6.67383C4.77539 3.4541 3.78223 4.42969 3.78223 6.31934V17.0156C3.78223 18.8965 4.77539 19.8809 6.67383 19.8809ZM8.98535 15.4951C7.79004 15.4951 6.82324 14.7568 6.58594 13.957C6.55078 13.834 6.5332 13.7285 6.5332 13.5967C6.5332 13.2363 6.78809 12.999 7.10449 12.999C7.38574 12.999 7.55273 13.1396 7.67578 13.4209C7.91309 14.001 8.37012 14.3086 8.99414 14.3086C9.75879 14.3086 10.2773 13.834 10.2773 13.2275C10.2773 12.5684 9.79395 12.1465 9.0293 12.1465H8.59863C8.23828 12.1465 8.02734 11.8916 8.02734 11.5576C8.02734 11.1885 8.24707 10.9512 8.59863 10.9512H8.99414C9.64453 10.9512 10.0752 10.5205 10.0752 9.94043C10.0752 9.36914 9.63574 8.98242 9.00293 8.98242C8.3877 8.98242 7.99219 9.29004 7.79004 9.87012C7.68457 10.1514 7.52637 10.292 7.23633 10.292C6.90234 10.292 6.67383 10.0547 6.67383 9.69434C6.67383 9.5625 6.68262 9.45703 6.71777 9.3252C6.95508 8.5166 7.8252 7.81348 9.0293 7.81348C10.4004 7.81348 11.3408 8.60449 11.3408 9.76465C11.3408 10.582 10.7783 11.3203 10.0576 11.4346V11.4961C10.9365 11.584 11.5693 12.3398 11.5693 13.2891C11.5693 14.5898 10.5146 15.4951 8.98535 15.4951ZM15.1289 15.4951C13.9248 15.4951 12.9668 14.7568 12.7295 13.957C12.7031 13.834 12.6855 13.7285 12.6855 13.5967C12.6855 13.2363 12.9404 12.999 13.2568 12.999C13.5293 12.999 13.7051 13.1396 13.8193 13.4209C14.0566 14.001 14.5049 14.3086 15.1377 14.3086C15.8936 14.3086 16.4121 13.834 16.4121 13.2275C16.4121 12.5684 15.9375 12.1465 15.1816 12.1465H14.7422C14.3818 12.1465 14.1709 11.8916 14.1709 11.5576C14.1709 11.1885 14.3994 10.9512 14.7422 10.9512H15.1465C15.7881 10.9512 16.2188 10.5205 16.2188 9.94043C16.2188 9.36914 15.7793 8.98242 15.1465 8.98242C14.5225 8.98242 14.1357 9.29004 13.9336 9.87012C13.8281 10.1514 13.6611 10.292 13.3711 10.292C13.0371 10.292 12.8086 10.0547 12.8086 9.69434C12.8086 9.5625 12.8262 9.45703 12.8613 9.3252C13.0898 8.5166 13.9688 7.81348 15.1729 7.81348C16.5439 7.81348 17.4844 8.60449 17.4844 9.76465C17.4844 10.582 16.9219 11.3203 16.1924 11.4346V11.4961C17.0801 11.584 17.7129 12.3398 17.7129 13.2891C17.7129 14.5898 16.6582 15.4951 15.1289 15.4951Z" fill="#1C1C1E"/>
</g>
<defs>
<clipPath id="clip0_10_2130">
<rect width="24" height="24" fill="white"/>
</clipPath>
</defs>
</svg>
