<svg width="24" height="24" viewBox="0 0 24 24" fill="none" xmlns="http://www.w3.org/2000/svg">
<g clip-path="url(#clip0_10_1861)">
<path d="M6.67383 19.8809H17.3174C19.2246 19.8809 20.209 18.8965 20.209 17.0156V6.31934C20.209 4.43848 19.2246 3.4541 17.3174 3.4541H6.67383C4.77539 3.4541 3.78223 4.42969 3.78223 6.31934V17.0156C3.78223 18.8965 4.77539 19.8809 6.67383 19.8809ZM6.78809 18.1318C5.97949 18.1318 5.53125 17.71 5.53125 16.8574V6.47754C5.53125 5.625 5.97949 5.20312 6.78809 5.20312H17.2031C18.0029 5.20312 18.46 5.625 18.46 6.47754V16.8574C18.46 17.71 18.0029 18.1318 17.2031 18.1318H6.78809ZM9.07324 15.3457C10.5498 15.3457 11.5605 14.4756 11.5605 13.2275C11.5605 12.3223 10.9541 11.584 10.1016 11.5049V11.4521C10.8047 11.3291 11.3496 10.626 11.3496 9.83496C11.3496 8.72754 10.4443 7.96289 9.12598 7.96289C7.96582 7.96289 7.12207 8.63086 6.90234 9.41309C6.86719 9.54492 6.8584 9.6416 6.8584 9.77344C6.8584 10.1162 7.06934 10.3447 7.39453 10.3447C7.66699 10.3447 7.8252 10.2041 7.92188 9.93164C8.11523 9.36914 8.50195 9.07031 9.09961 9.07031C9.70605 9.07031 10.1367 9.44824 10.1367 10.002C10.1367 10.5645 9.72363 10.9863 9.09961 10.9863H8.7041C8.37891 10.9863 8.15918 11.2148 8.15918 11.5576C8.15918 11.874 8.36133 12.1201 8.7041 12.1201H9.12598C9.86426 12.1201 10.3301 12.5332 10.3301 13.166C10.3301 13.7549 9.82031 14.2207 9.09082 14.2207C8.48438 14.2207 8.04492 13.9219 7.81641 13.3594C7.70215 13.0957 7.53516 12.9551 7.27148 12.9551C6.97266 12.9551 6.72656 13.1748 6.72656 13.5264C6.72656 13.6494 6.74414 13.7461 6.7793 13.8691C6.99902 14.6426 7.92188 15.3457 9.07324 15.3457ZM14.9883 15.3457C16.4648 15.3457 17.4756 14.4756 17.4756 13.2275C17.4756 12.3223 16.8691 11.584 16.0166 11.5049V11.4521C16.7109 11.3291 17.2559 10.626 17.2559 9.83496C17.2559 8.72754 16.3506 7.96289 15.041 7.96289C13.8809 7.96289 13.0371 8.63086 12.8086 9.41309C12.7734 9.54492 12.7734 9.6416 12.7734 9.77344C12.7734 10.1162 12.9844 10.3447 13.3096 10.3447C13.582 10.3447 13.7402 10.2041 13.8369 9.93164C14.0303 9.36914 14.4082 9.07031 15.0146 9.07031C15.6211 9.07031 16.0518 9.44824 16.0518 10.002C16.0518 10.5645 15.6299 10.9863 15.0059 10.9863H14.6191C14.2852 10.9863 14.0742 11.2148 14.0742 11.5576C14.0742 11.874 14.2764 12.1201 14.6191 12.1201H15.041C15.7793 12.1201 16.2451 12.5332 16.2451 13.166C16.2451 13.7549 15.7354 14.2207 15.0059 14.2207C14.3906 14.2207 13.96 13.9219 13.7314 13.3594C13.6084 13.0957 13.4502 12.9551 13.1865 12.9551C12.8877 12.9551 12.6416 13.1748 12.6416 13.5264C12.6416 13.6494 12.6592 13.7461 12.6855 13.8691C12.9141 14.6426 13.8369 15.3457 14.9883 15.3457Z" fill="#1C1C1E"/>
</g>
<defs>
<clipPath id="clip0_10_1861">
<rect width="24" height="24" fill="white"/>
</clipPath>
</defs>
</svg>
