<svg width="24" height="24" viewBox="0 0 24 24" fill="none" xmlns="http://www.w3.org/2000/svg">
<g clip-path="url(#clip0_10_1860)">
<path d="M11.9912 20.7422C16.9746 20.7422 21.0879 16.6289 21.0879 11.6543C21.0879 6.67969 16.9658 2.56641 11.9824 2.56641C7.00781 2.56641 2.90332 6.67969 2.90332 11.6543C2.90332 16.6289 7.0166 20.7422 11.9912 20.7422ZM8.93262 15.4951C7.72852 15.4951 6.77051 14.7568 6.54199 13.957C6.50684 13.834 6.48926 13.7285 6.48926 13.5967C6.48926 13.2363 6.74414 12.999 7.06055 12.999C7.33301 12.999 7.50879 13.1396 7.63184 13.4209C7.86914 14.001 8.31738 14.3086 8.9502 14.3086C9.69727 14.3086 10.2246 13.834 10.2246 13.2275C10.2246 12.5684 9.75 12.1465 8.98535 12.1465H8.5459C8.19434 12.1465 7.97461 11.8916 7.97461 11.5576C7.97461 11.1885 8.20312 10.9512 8.5459 10.9512H8.9502C9.60059 10.9512 10.0312 10.5205 10.0312 9.94043C10.0312 9.36914 9.58301 8.98242 8.95898 8.98242C8.33496 8.98242 7.93945 9.29004 7.74609 9.87012C7.64062 10.1514 7.48242 10.292 7.19238 10.292C6.84961 10.292 6.62109 10.0547 6.62109 9.69434C6.62109 9.5625 6.62988 9.45703 6.67383 9.3252C6.89355 8.5166 7.78125 7.81348 8.98535 7.81348C10.3564 7.81348 11.2969 8.60449 11.2969 9.76465C11.2969 10.582 10.7256 11.3203 10.0049 11.4346V11.4961C10.8838 11.584 11.5166 12.3398 11.5166 13.2891C11.5166 14.5898 10.4707 15.4951 8.93262 15.4951ZM16.2363 15.4863C15.8496 15.4863 15.6387 15.2051 15.6387 14.8271V13.8779H13.2129C12.6943 13.8779 12.3691 13.5703 12.3691 13.043C12.3691 12.7529 12.4307 12.5156 12.5713 12.2168C13.1074 11.2148 13.9248 9.75586 14.6016 8.58691C14.9092 8.04199 15.2607 7.81348 15.8496 7.81348C16.4648 7.81348 16.8516 8.2002 16.8516 8.78906V12.7441H17.2646C17.6074 12.7441 17.8184 12.9639 17.8184 13.3242C17.8184 13.667 17.6074 13.8779 17.2646 13.8779H16.8516V14.8271C16.8516 15.2139 16.6318 15.4863 16.2363 15.4863ZM15.6387 12.7529V9.14062H15.5947C14.9619 10.2656 14.1357 11.7773 13.6611 12.709V12.7529H15.6387Z" fill="#1C1C1E"/>
</g>
<defs>
<clipPath id="clip0_10_1860">
<rect width="24" height="24" fill="white"/>
</clipPath>
</defs>
</svg>
