<svg width="24" height="24" viewBox="0 0 24 24" fill="none" xmlns="http://www.w3.org/2000/svg">
<g clip-path="url(#clip0_10_2126)">
<path d="M11.9912 20.7422C16.9746 20.7422 21.0879 16.6289 21.0879 11.6543C21.0879 6.67969 16.9658 2.56641 11.9824 2.56641C7.00781 2.56641 2.90332 6.67969 2.90332 11.6543C2.90332 16.6289 7.0166 20.7422 11.9912 20.7422ZM11.9912 18.9316C7.95703 18.9316 4.73145 15.6885 4.73145 11.6543C4.73145 7.62012 7.95703 4.38574 11.9824 4.38574C16.0166 4.38574 19.2598 7.62012 19.2686 11.6543C19.2773 15.6885 16.0254 18.9316 11.9912 18.9316ZM9.05566 15.3545C10.5322 15.3545 11.543 14.4844 11.543 13.2363C11.543 12.3311 10.9277 11.5928 10.084 11.5137V11.4521C10.7783 11.3379 11.3232 10.6348 11.3232 9.84375C11.3232 8.73633 10.418 7.96289 9.09961 7.96289C7.93945 7.96289 7.0957 8.63965 6.87598 9.42188C6.84082 9.55371 6.83203 9.65039 6.83203 9.77344C6.83203 10.125 7.05176 10.3447 7.36816 10.3447C7.64941 10.3447 7.79883 10.2041 7.9043 9.93164C8.09766 9.37793 8.47559 9.0791 9.07324 9.0791C9.68848 9.0791 10.1191 9.45703 10.1191 10.0107C10.1191 10.5732 9.69727 10.9951 9.07324 10.9951H8.67773C8.35254 10.9951 8.1416 11.2148 8.1416 11.5576C8.1416 11.8828 8.34375 12.1289 8.67773 12.1289H9.1084C9.83789 12.1289 10.3037 12.542 10.3037 13.166C10.3037 13.7637 9.80273 14.2207 9.06445 14.2207C8.45801 14.2207 8.01855 13.9219 7.79004 13.3682C7.67578 13.0957 7.50879 12.9639 7.25391 12.9639C6.94629 12.9639 6.7002 13.1836 6.7002 13.5264C6.7002 13.6582 6.71777 13.7549 6.75293 13.8691C6.97266 14.6426 7.9043 15.3545 9.05566 15.3545ZM16.0781 15.3457C16.4561 15.3457 16.667 15.082 16.667 14.7217V13.79H17.0713C17.3965 13.79 17.5986 13.5967 17.5986 13.2627C17.5986 12.9199 17.3965 12.7178 17.0713 12.7178H16.667V8.89453C16.667 8.33203 16.2979 7.96289 15.7178 7.96289C15.1553 7.96289 14.8125 8.18262 14.5225 8.70996C13.8633 9.83496 13.0723 11.25 12.5537 12.208C12.4219 12.498 12.3516 12.7178 12.3516 12.9902C12.3516 13.5 12.668 13.7988 13.1689 13.7988H15.5068V14.7217C15.5068 15.0732 15.7178 15.3457 16.0781 15.3457ZM15.5068 12.7178H13.5996V12.6826C14.0479 11.7773 14.8564 10.3184 15.4629 9.2373H15.5068V12.7178Z" fill="#1C1C1E"/>
</g>
<defs>
<clipPath id="clip0_10_2126">
<rect width="24" height="24" fill="white"/>
</clipPath>
</defs>
</svg>
