<svg width="24" height="24" viewBox="0 0 24 24" fill="none" xmlns="http://www.w3.org/2000/svg">
<g clip-path="url(#clip0_10_2153)">
<path d="M6.67383 19.8809H17.3174C19.2246 19.8809 20.209 18.8965 20.209 17.0156V6.31934C20.209 4.43848 19.2246 3.4541 17.3174 3.4541H6.67383C4.77539 3.4541 3.78223 4.42969 3.78223 6.31934V17.0156C3.78223 18.8965 4.77539 19.8809 6.67383 19.8809ZM8.96777 15.4951C7.76367 15.4951 6.81445 14.7568 6.57715 13.957C6.54199 13.834 6.52441 13.7285 6.52441 13.5967C6.52441 13.2363 6.7793 12.999 7.0957 12.999C7.36816 12.999 7.54395 13.1396 7.66699 13.4209C7.9043 14.001 8.35254 14.3086 8.98535 14.3086C9.73242 14.3086 10.2598 13.834 10.2598 13.2275C10.2598 12.5684 9.78516 12.1465 9.02051 12.1465H8.58105C8.22949 12.1465 8.00977 11.8916 8.00977 11.5576C8.00977 11.1885 8.23828 10.9512 8.58105 10.9512H8.98535C9.63574 10.9512 10.0664 10.5205 10.0664 9.94043C10.0664 9.36914 9.61816 8.98242 8.99414 8.98242C8.37012 8.98242 7.97461 9.29004 7.78125 9.87012C7.67578 10.1514 7.51758 10.292 7.22754 10.292C6.88477 10.292 6.65625 10.0547 6.65625 9.69434C6.65625 9.5625 6.66504 9.45703 6.70898 9.3252C6.92871 8.5166 7.81641 7.81348 9.02051 7.81348C10.3916 7.81348 11.332 8.60449 11.332 9.76465C11.332 10.582 10.7607 11.3203 10.04 11.4346V11.4961C10.9189 11.584 11.5518 12.3398 11.5518 13.2891C11.5518 14.5898 10.5059 15.4951 8.96777 15.4951ZM16.2715 15.4863C15.8848 15.4863 15.6738 15.2051 15.6738 14.8271V13.8779H13.248C12.7295 13.8779 12.4043 13.5703 12.4043 13.043C12.4043 12.7529 12.4658 12.5156 12.6064 12.2168C13.1426 11.2148 13.96 9.75586 14.6455 8.58691C14.9443 8.04199 15.2959 7.81348 15.8848 7.81348C16.5 7.81348 16.8867 8.2002 16.8867 8.78906V12.7441H17.2998C17.6426 12.7441 17.8535 12.9639 17.8535 13.3242C17.8535 13.667 17.6426 13.8779 17.2998 13.8779H16.8867V14.8271C16.8867 15.2139 16.667 15.4863 16.2715 15.4863ZM15.6738 12.7529V9.14062H15.6299C14.9971 10.2656 14.1709 11.7773 13.6963 12.709V12.7529H15.6738Z" fill="#1C1C1E"/>
</g>
<defs>
<clipPath id="clip0_10_2153">
<rect width="24" height="24" fill="white"/>
</clipPath>
</defs>
</svg>
