<svg width="24" height="24" viewBox="0 0 24 24" fill="none" xmlns="http://www.w3.org/2000/svg">
<g clip-path="url(#clip0_10_1859)">
<path d="M6.67383 19.8809H17.3174C19.2246 19.8809 20.209 18.8965 20.209 17.0156V6.31934C20.209 4.43848 19.2246 3.4541 17.3174 3.4541H6.67383C4.77539 3.4541 3.78223 4.42969 3.78223 6.31934V17.0156C3.78223 18.8965 4.77539 19.8809 6.67383 19.8809ZM6.78809 18.1318C5.97949 18.1318 5.53125 17.71 5.53125 16.8574V6.47754C5.53125 5.625 5.97949 5.20312 6.78809 5.20312H17.2031C18.0029 5.20312 18.46 5.625 18.46 6.47754V16.8574C18.46 17.71 18.0029 18.1318 17.2031 18.1318H6.78809ZM9.06445 15.3457C10.541 15.3457 11.5518 14.4756 11.5518 13.2275C11.5518 12.3223 10.9453 11.584 10.0928 11.5049V11.4521C10.7959 11.3291 11.3408 10.626 11.3408 9.83496C11.3408 8.72754 10.4268 7.96289 9.11719 7.96289C7.95703 7.96289 7.11328 8.63086 6.89355 9.41309C6.8584 9.54492 6.84961 9.6416 6.84961 9.77344C6.84961 10.1162 7.06055 10.3447 7.38574 10.3447C7.6582 10.3447 7.81641 10.2041 7.91309 9.93164C8.10645 9.36914 8.49316 9.07031 9.09082 9.07031C9.69727 9.07031 10.1279 9.44824 10.1279 10.002C10.1279 10.5645 9.71484 10.9863 9.08203 10.9863H8.69531C8.37012 10.9863 8.15039 11.2148 8.15039 11.5576C8.15039 11.874 8.35254 12.1201 8.69531 12.1201H9.11719C9.85547 12.1201 10.3213 12.5332 10.3213 13.166C10.3213 13.7549 9.81152 14.2207 9.08203 14.2207C8.47559 14.2207 8.03613 13.9219 7.80762 13.3594C7.69336 13.0957 7.52637 12.9551 7.2627 12.9551C6.96387 12.9551 6.71777 13.1748 6.71777 13.5264C6.71777 13.6494 6.73535 13.7461 6.77051 13.8691C6.99023 14.6426 7.91309 15.3457 9.06445 15.3457ZM16.0957 15.3369C16.4736 15.3369 16.6758 15.0732 16.6758 14.7129V13.79H17.0801C17.4141 13.79 17.6162 13.5879 17.6162 13.2539C17.6162 12.9111 17.4053 12.709 17.0801 12.709H16.6758V8.89453C16.6758 8.32324 16.3154 7.96289 15.7266 7.96289C15.1729 7.96289 14.8301 8.17383 14.54 8.70117C13.8809 9.82617 13.0811 11.2412 12.5713 12.208C12.4307 12.4893 12.3691 12.7178 12.3691 12.9902C12.3691 13.4912 12.6855 13.79 13.1777 13.79H15.5244V14.7129C15.5244 15.0732 15.7266 15.3369 16.0957 15.3369ZM15.5244 12.7178H13.6172V12.6738C14.0654 11.7773 14.8652 10.3096 15.4805 9.22852H15.5244V12.7178Z" fill="#1C1C1E"/>
</g>
<defs>
<clipPath id="clip0_10_1859">
<rect width="24" height="24" fill="white"/>
</clipPath>
</defs>
</svg>
