<svg width="24" height="24" viewBox="0 0 24 24" fill="none" xmlns="http://www.w3.org/2000/svg">
<g clip-path="url(#clip0_10_2332)">
<path d="M11.9912 20.7422C16.9746 20.7422 21.0879 16.6289 21.0879 11.6543C21.0879 6.67969 16.9658 2.56641 11.9824 2.56641C7.00781 2.56641 2.90332 6.67969 2.90332 11.6543C2.90332 16.6289 7.0166 20.7422 11.9912 20.7422ZM9.0293 15.4951C7.83398 15.4951 6.86719 14.7568 6.63867 13.957C6.60352 13.834 6.57715 13.7285 6.57715 13.5967C6.57715 13.2363 6.84082 12.999 7.15723 12.999C7.43848 12.999 7.60547 13.1396 7.72852 13.4209C7.95703 14.001 8.41406 14.3086 9.03809 14.3086C9.80273 14.3086 10.3213 13.834 10.3213 13.2275C10.3213 12.5684 9.83789 12.1465 9.08203 12.1465H8.65137C8.29102 12.1465 8.08008 11.8916 8.08008 11.5576C8.08008 11.1885 8.2998 10.9512 8.65137 10.9512H9.04688C9.69727 10.9512 10.1279 10.5205 10.1279 9.94043C10.1279 9.36914 9.67969 8.98242 9.04688 8.98242C8.43164 8.98242 8.04492 9.29004 7.83398 9.87012C7.7373 10.1514 7.57031 10.292 7.28027 10.292C6.94629 10.292 6.71777 10.0547 6.71777 9.69434C6.71777 9.5625 6.72656 9.45703 6.76172 9.3252C6.99902 8.5166 7.87793 7.81348 9.07324 7.81348C10.4443 7.81348 11.3936 8.60449 11.3936 9.76465C11.3936 10.582 10.8311 11.3203 10.1016 11.4346V11.4961C10.9805 11.584 11.6133 12.3398 11.6133 13.2891C11.6133 14.5898 10.5674 15.4951 9.0293 15.4951ZM14.9795 15.4951C13.8545 15.4951 12.9932 14.8975 12.7383 14.2031C12.6768 14.0625 12.6504 13.9219 12.6504 13.7637C12.6504 13.4297 12.8877 13.1836 13.2129 13.1836C13.459 13.1836 13.626 13.333 13.7754 13.5703C14.0215 14.0449 14.4873 14.3525 15.041 14.3525C15.832 14.3525 16.3682 13.8252 16.3682 12.9639C16.3682 12.2168 15.876 11.6455 15.1641 11.6455C14.8037 11.6455 14.54 11.7598 14.1973 12.0586C13.9248 12.2695 13.749 12.3574 13.4414 12.3574C12.9932 12.3574 12.7207 12.0322 12.7471 11.5312L12.958 8.82422C12.9844 8.30566 13.3008 7.99805 13.8018 7.99805H16.8076C17.1328 7.99805 17.335 8.21777 17.335 8.55176C17.335 8.89453 17.1152 9.12305 16.8076 9.12305H14.0215L13.8633 11.2764H13.8984C14.1709 10.8633 14.7773 10.582 15.3662 10.582C16.6758 10.582 17.6162 11.54 17.6162 12.9287C17.6162 14.5107 16.5791 15.4951 14.9795 15.4951Z" fill="#1C1C1E"/>
</g>
<defs>
<clipPath id="clip0_10_2332">
<rect width="24" height="24" fill="white"/>
</clipPath>
</defs>
</svg>
