<svg width="24" height="24" viewBox="0 0 24 24" fill="none" xmlns="http://www.w3.org/2000/svg">
<g clip-path="url(#clip0_10_2341)">
<path d="M11.9912 20.7422C16.9746 20.7422 21.0879 16.6289 21.0879 11.6543C21.0879 6.67969 16.9658 2.56641 11.9824 2.56641C7.00781 2.56641 2.90332 6.67969 2.90332 11.6543C2.90332 16.6289 7.0166 20.7422 11.9912 20.7422ZM11.9912 18.9316C7.95703 18.9316 4.73145 15.6885 4.73145 11.6543C4.73145 7.62012 7.95703 4.38574 11.9824 4.38574C16.0166 4.38574 19.2598 7.62012 19.2686 11.6543C19.2773 15.6885 16.0254 18.9316 11.9912 18.9316ZM9.14355 15.3545C10.6201 15.3545 11.6309 14.4844 11.6309 13.2363C11.6309 12.3311 11.0244 11.5928 10.1719 11.5137V11.4521C10.875 11.3379 11.4111 10.6348 11.4111 9.84375C11.4111 8.73633 10.5059 7.96289 9.19629 7.96289C8.03613 7.96289 7.19238 8.63965 6.97266 9.42188C6.9375 9.55371 6.92871 9.65039 6.92871 9.77344C6.92871 10.125 7.13965 10.3447 7.46484 10.3447C7.7373 10.3447 7.89551 10.2041 7.99219 9.93164C8.18555 9.37793 8.56348 9.0791 9.16992 9.0791C9.77637 9.0791 10.207 9.45703 10.207 10.0107C10.207 10.5732 9.78516 10.9951 9.16113 10.9951H8.77441C8.44043 10.9951 8.22949 11.2148 8.22949 11.5576C8.22949 11.8828 8.43164 12.1289 8.77441 12.1289H9.19629C9.93457 12.1289 10.4004 12.542 10.4004 13.166C10.4004 13.7637 9.89062 14.2207 9.16113 14.2207C8.5459 14.2207 8.11523 13.9219 7.88672 13.3682C7.76367 13.0957 7.60547 12.9639 7.3418 12.9639C7.04297 12.9639 6.79688 13.1836 6.79688 13.5264C6.79688 13.6582 6.81445 13.7549 6.84082 13.8691C7.06934 14.6426 7.99219 15.3545 9.14355 15.3545ZM14.874 15.3545C16.4033 15.3545 17.4053 14.4141 17.4053 12.8848C17.4053 11.5488 16.5088 10.626 15.2344 10.626C14.6719 10.626 14.083 10.8984 13.8281 11.2939H13.793L13.9424 9.21973H16.6318C16.9219 9.21973 17.1328 9 17.1328 8.6748C17.1328 8.34961 16.9395 8.13867 16.6318 8.13867H13.7314C13.2568 8.13867 12.958 8.4375 12.9229 8.92969L12.7295 11.5488C12.7031 12.0234 12.958 12.3311 13.3799 12.3311C13.6787 12.3311 13.8545 12.252 14.1094 12.0498C14.4434 11.7598 14.6895 11.6455 15.0498 11.6455C15.7354 11.6455 16.2188 12.1992 16.2188 12.9199C16.2188 13.7461 15.6914 14.2559 14.9355 14.2559C14.3906 14.2559 13.9424 13.9658 13.7051 13.5088C13.5645 13.2803 13.4062 13.1396 13.1689 13.1396C12.8525 13.1396 12.6328 13.377 12.6328 13.6934C12.6328 13.8428 12.6592 13.9746 12.7119 14.1064C12.9668 14.7744 13.793 15.3545 14.874 15.3545Z" fill="#1C1C1E"/>
</g>
<defs>
<clipPath id="clip0_10_2341">
<rect width="24" height="24" fill="white"/>
</clipPath>
</defs>
</svg>
