<svg width="24" height="24" viewBox="0 0 24 24" fill="none" xmlns="http://www.w3.org/2000/svg">
<g clip-path="url(#clip0_10_2085)">
<path d="M6.67383 19.8809H17.3174C19.2246 19.8809 20.209 18.8965 20.209 17.0156V6.31934C20.209 4.43848 19.2246 3.4541 17.3174 3.4541H6.67383C4.77539 3.4541 3.78223 4.42969 3.78223 6.31934V17.0156C3.78223 18.8965 4.77539 19.8809 6.67383 19.8809ZM9.06445 15.4951C7.86914 15.4951 6.90234 14.7568 6.67383 13.957C6.63867 13.834 6.6123 13.7285 6.6123 13.5967C6.6123 13.2363 6.87598 12.999 7.19238 12.999C7.47363 12.999 7.64062 13.1396 7.76367 13.4209C7.99219 14.001 8.44922 14.3086 9.07324 14.3086C9.83789 14.3086 10.3564 13.834 10.3564 13.2275C10.3564 12.5684 9.87305 12.1465 9.11719 12.1465H8.68652C8.32617 12.1465 8.11523 11.8916 8.11523 11.5576C8.11523 11.1885 8.34375 10.9512 8.68652 10.9512H9.08203C9.73242 10.9512 10.1631 10.5205 10.1631 9.94043C10.1631 9.36914 9.72363 8.98242 9.08203 8.98242C8.4668 8.98242 8.08008 9.29004 7.86914 9.87012C7.77246 10.1514 7.60547 10.292 7.31543 10.292C6.98145 10.292 6.75293 10.0547 6.75293 9.69434C6.75293 9.5625 6.76172 9.45703 6.79688 9.3252C7.03418 8.5166 7.91309 7.81348 9.1084 7.81348C10.4795 7.81348 11.4287 8.60449 11.4287 9.76465C11.4287 10.582 10.8662 11.3203 10.1367 11.4346V11.4961C11.0156 11.584 11.6484 12.3398 11.6484 13.2891C11.6484 14.5898 10.6025 15.4951 9.06445 15.4951ZM15.0146 15.4951C13.8896 15.4951 13.0283 14.8975 12.7734 14.2031C12.7119 14.0625 12.6855 13.9219 12.6855 13.7637C12.6855 13.4297 12.9229 13.1836 13.248 13.1836C13.4941 13.1836 13.6611 13.333 13.8105 13.5703C14.0566 14.0449 14.5225 14.3525 15.0762 14.3525C15.8672 14.3525 16.4033 13.8252 16.4033 12.9639C16.4033 12.2168 15.9111 11.6455 15.1992 11.6455C14.8389 11.6455 14.5752 11.7598 14.2324 12.0586C13.96 12.2695 13.7842 12.3574 13.4766 12.3574C13.0283 12.3574 12.7559 12.0322 12.7822 11.5312L12.9932 8.82422C13.0195 8.30566 13.3359 7.99805 13.8369 7.99805H16.8428C17.168 7.99805 17.3789 8.21777 17.3789 8.55176C17.3789 8.89453 17.1504 9.12305 16.8428 9.12305H14.0566L13.8984 11.2764H13.9336C14.2061 10.8633 14.8125 10.582 15.4014 10.582C16.7109 10.582 17.6514 11.54 17.6514 12.9287C17.6514 14.5107 16.6143 15.4951 15.0146 15.4951Z" fill="#1C1C1E"/>
</g>
<defs>
<clipPath id="clip0_10_2085">
<rect width="24" height="24" fill="white"/>
</clipPath>
</defs>
</svg>
