<svg width="24" height="24" viewBox="0 0 24 24" fill="none" xmlns="http://www.w3.org/2000/svg">
<g clip-path="url(#clip0_10_2338)">
<path d="M6.67383 19.8809H17.3174C19.2246 19.8809 20.209 18.8965 20.209 17.0156V6.31934C20.209 4.43848 19.2246 3.4541 17.3174 3.4541H6.67383C4.77539 3.4541 3.78223 4.42969 3.78223 6.31934V17.0156C3.78223 18.8965 4.77539 19.8809 6.67383 19.8809ZM6.78809 18.1318C5.97949 18.1318 5.53125 17.71 5.53125 16.8574V6.47754C5.53125 5.625 5.97949 5.20312 6.78809 5.20312H17.2031C18.0029 5.20312 18.46 5.625 18.46 6.47754V16.8574C18.46 17.71 18.0029 18.1318 17.2031 18.1318H6.78809ZM9.16113 15.3457C10.6377 15.3457 11.6484 14.4756 11.6484 13.2275C11.6484 12.3223 11.0332 11.584 10.1895 11.5049V11.4521C10.8838 11.3291 11.4287 10.626 11.4287 9.83496C11.4287 8.72754 10.5234 7.96289 9.20508 7.96289C8.05371 7.96289 7.20996 8.63086 6.98145 9.41309C6.94629 9.54492 6.9375 9.6416 6.9375 9.77344C6.9375 10.1162 7.15723 10.3447 7.47363 10.3447C7.75488 10.3447 7.91309 10.2041 8.00977 9.93164C8.20312 9.36914 8.58105 9.07031 9.17871 9.07031C9.79395 9.07031 10.2246 9.44824 10.2246 10.002C10.2246 10.5645 9.80273 10.9863 9.17871 10.9863H8.79199C8.45801 10.9863 8.24707 11.2148 8.24707 11.5576C8.24707 11.874 8.44922 12.1201 8.79199 12.1201H9.21387C9.95215 12.1201 10.4092 12.5332 10.4092 13.166C10.4092 13.7549 9.9082 14.2207 9.16992 14.2207C8.56348 14.2207 8.12402 13.9219 7.9043 13.3594C7.78125 13.0957 7.62305 12.9551 7.35938 12.9551C7.05176 12.9551 6.80566 13.1748 6.80566 13.5264C6.80566 13.6494 6.82324 13.7461 6.8584 13.8691C7.08691 14.6426 8.00977 15.3457 9.16113 15.3457ZM14.8828 15.3457C16.4209 15.3457 17.4229 14.4053 17.4229 12.876C17.4229 11.5488 16.5176 10.6172 15.252 10.6172C14.6895 10.6172 14.1006 10.8896 13.8369 11.2852H13.8018L13.9512 9.21094H16.6494C16.9395 9.21094 17.1504 9 17.1504 8.66602C17.1504 8.34961 16.9482 8.13867 16.6494 8.13867H13.749C13.2744 8.13867 12.9668 8.42871 12.9404 8.92969L12.7471 11.54C12.7119 12.0234 12.9756 12.3223 13.3975 12.3223C13.6963 12.3223 13.8633 12.2432 14.1182 12.041C14.4521 11.7598 14.707 11.6367 15.0674 11.6367C15.7529 11.6367 16.2275 12.1904 16.2275 12.9111C16.2275 13.7461 15.709 14.2559 14.9531 14.2559C14.3994 14.2559 13.96 13.957 13.7139 13.5C13.582 13.2715 13.415 13.1309 13.1865 13.1309C12.8701 13.1309 12.6416 13.3682 12.6416 13.6934C12.6416 13.834 12.668 13.9658 12.7295 14.0977C12.9756 14.7744 13.8018 15.3457 14.8828 15.3457Z" fill="#1C1C1E"/>
</g>
<defs>
<clipPath id="clip0_10_2338">
<rect width="24" height="24" fill="white"/>
</clipPath>
</defs>
</svg>
