<svg width="24" height="24" viewBox="0 0 24 24" fill="none" xmlns="http://www.w3.org/2000/svg">
<g clip-path="url(#clip0_10_2328)">
<path d="M11.9912 20.7422C16.9746 20.7422 21.0879 16.6289 21.0879 11.6543C21.0879 6.67969 16.9658 2.56641 11.9824 2.56641C7.00781 2.56641 2.90332 6.67969 2.90332 11.6543C2.90332 16.6289 7.0166 20.7422 11.9912 20.7422ZM11.9912 18.9316C7.95703 18.9316 4.73145 15.6885 4.73145 11.6543C4.73145 7.62012 7.95703 4.38574 11.9824 4.38574C16.0166 4.38574 19.2598 7.62012 19.2686 11.6543C19.2773 15.6885 16.0254 18.9316 11.9912 18.9316ZM9.0293 15.3545C10.4971 15.3545 11.5078 14.4844 11.5078 13.2363C11.5078 12.3311 10.9014 11.5928 10.0488 11.5137V11.4521C10.752 11.3379 11.2969 10.6348 11.2969 9.84375C11.2969 8.73633 10.3916 7.96289 9.07324 7.96289C7.91309 7.96289 7.06934 8.63965 6.84961 9.42188C6.81445 9.55371 6.80566 9.65039 6.80566 9.77344C6.80566 10.125 7.0166 10.3447 7.3418 10.3447C7.62305 10.3447 7.77246 10.2041 7.87793 9.93164C8.0625 9.37793 8.44922 9.0791 9.04688 9.0791C9.66211 9.0791 10.084 9.45703 10.084 10.0107C10.084 10.5732 9.6709 10.9951 9.04688 10.9951H8.65137C8.32617 10.9951 8.10645 11.2148 8.10645 11.5576C8.10645 11.8828 8.30859 12.1289 8.65137 12.1289H9.07324C9.81152 12.1289 10.2773 12.542 10.2773 13.166C10.2773 13.7637 9.76758 14.2207 9.03809 14.2207C8.43164 14.2207 7.99219 13.9219 7.76367 13.3682C7.64941 13.0957 7.48242 12.9639 7.21875 12.9639C6.91992 12.9639 6.67383 13.1836 6.67383 13.5264C6.67383 13.6582 6.69141 13.7549 6.72656 13.8691C6.94629 14.6426 7.86914 15.3545 9.0293 15.3545ZM15.0146 15.3545C16.4121 15.3545 17.3965 14.4229 17.3965 12.8496C17.3965 11.3994 16.4121 10.5908 15.3223 10.5908C14.4521 10.5908 13.9072 11.083 13.6875 11.6191H13.6348C13.626 11.5752 13.626 11.54 13.626 11.4785C13.626 10.002 14.2412 9.07031 15.1289 9.07031C15.5859 9.07031 15.9023 9.29883 16.1133 9.59766C16.2539 9.80859 16.3945 9.90527 16.6494 9.90527C16.9131 9.90527 17.1328 9.71191 17.1328 9.39551C17.1328 9.26367 17.1064 9.14941 17.0537 9.02637C16.8252 8.45508 16.1484 7.96289 15.1729 7.96289C13.5381 7.96289 12.4746 9.25488 12.4746 11.8213C12.4746 12.832 12.6416 13.6055 12.9316 14.1592C13.3623 15.0029 14.1182 15.3545 15.0146 15.3545ZM14.9531 14.2998C14.2236 14.2998 13.7227 13.7285 13.7227 12.9111C13.7227 12.1377 14.2236 11.584 14.9531 11.584C15.6826 11.584 16.1836 12.1289 16.1836 12.9199C16.1836 13.7637 15.7002 14.2998 14.9531 14.2998Z" fill="#1C1C1E"/>
</g>
<defs>
<clipPath id="clip0_10_2328">
<rect width="24" height="24" fill="white"/>
</clipPath>
</defs>
</svg>
