<svg width="24" height="24" viewBox="0 0 24 24" fill="none" xmlns="http://www.w3.org/2000/svg">
<g clip-path="url(#clip0_10_2162)">
<path d="M11.9912 20.7422C16.9746 20.7422 21.0879 16.6289 21.0879 11.6543C21.0879 6.67969 16.9658 2.56641 11.9824 2.56641C7.00781 2.56641 2.90332 6.67969 2.90332 11.6543C2.90332 16.6289 7.0166 20.7422 11.9912 20.7422ZM8.90625 15.4951C7.71094 15.4951 6.74414 14.7568 6.51562 13.957C6.48047 13.834 6.46289 13.7285 6.46289 13.5967C6.46289 13.2275 6.71777 12.999 7.03418 12.999C7.30664 12.999 7.48242 13.1396 7.60547 13.4209C7.84277 14.001 8.29102 14.3086 8.92383 14.3086C9.67969 14.3086 10.207 13.834 10.207 13.2275C10.207 12.5684 9.72363 12.1465 8.95898 12.1465H8.52832C8.16797 12.1465 7.95703 11.8916 7.95703 11.5576C7.95703 11.1885 8.17676 10.9512 8.52832 10.9512H8.92383C9.57422 10.9512 10.0049 10.5205 10.0049 9.94043C10.0049 9.36914 9.55664 8.98242 8.93262 8.98242C8.30859 8.98242 7.92188 9.29004 7.71973 9.87012C7.61426 10.1514 7.45605 10.292 7.16602 10.292C6.83203 10.292 6.60352 10.0547 6.60352 9.69434C6.60352 9.5625 6.6123 9.45703 6.64746 9.3252C6.87598 8.5166 7.75488 7.81348 8.95898 7.81348C10.3301 7.81348 11.2705 8.60449 11.2705 9.76465C11.2705 10.582 10.6992 11.3203 9.97852 11.4346V11.4961C10.8574 11.584 11.4902 12.3398 11.4902 13.2891C11.4902 14.5898 10.4443 15.4951 8.90625 15.4951ZM15.1289 15.5039C14.1973 15.5039 13.415 15.1348 12.958 14.2471C12.668 13.6758 12.501 12.8672 12.501 11.8213C12.501 9.14941 13.5908 7.81348 15.3047 7.81348C16.3066 7.81348 17.0098 8.32324 17.2471 8.90332C17.3174 9.04395 17.3438 9.1582 17.3438 9.30762C17.3438 9.63281 17.1064 9.84375 16.834 9.84375C16.5703 9.84375 16.4121 9.72949 16.2715 9.51855C16.0518 9.20215 15.7266 8.97363 15.252 8.97363C14.3379 8.97363 13.7051 9.93164 13.7051 11.4521C13.7051 11.5225 13.7051 11.5664 13.7051 11.6104H13.7666C13.9863 11.0479 14.5576 10.5381 15.4629 10.5381C16.5967 10.5381 17.6162 11.3818 17.6162 12.8848C17.6162 14.5283 16.5879 15.5039 15.1289 15.5039ZM15.0762 14.3877C15.8408 14.3877 16.3418 13.834 16.3418 12.9727C16.3418 12.1465 15.8232 11.584 15.0762 11.584C14.3115 11.584 13.793 12.1553 13.793 12.9639C13.793 13.8076 14.3203 14.3877 15.0762 14.3877Z" fill="#1C1C1E"/>
</g>
<defs>
<clipPath id="clip0_10_2162">
<rect width="24" height="24" fill="white"/>
</clipPath>
</defs>
</svg>
