<svg width="24" height="24" viewBox="0 0 24 24" fill="none" xmlns="http://www.w3.org/2000/svg">
<g clip-path="url(#clip0_10_2122)">
<path d="M6.67383 19.8809H17.3174C19.2246 19.8809 20.209 18.8965 20.209 17.0156V6.31934C20.209 4.43848 19.2246 3.4541 17.3174 3.4541H6.67383C4.77539 3.4541 3.78223 4.42969 3.78223 6.31934V17.0156C3.78223 18.8965 4.77539 19.8809 6.67383 19.8809ZM8.94141 15.4951C7.74609 15.4951 6.7793 14.7568 6.55078 13.957C6.51562 13.834 6.49805 13.7285 6.49805 13.5967C6.49805 13.2275 6.75293 12.999 7.06934 12.999C7.3418 12.999 7.51758 13.1396 7.64062 13.4209C7.87793 14.001 8.32617 14.3086 8.95898 14.3086C9.71484 14.3086 10.2422 13.834 10.2422 13.2275C10.2422 12.5684 9.75879 12.1465 8.99414 12.1465H8.56348C8.20312 12.1465 7.99219 11.8916 7.99219 11.5576C7.99219 11.1885 8.21191 10.9512 8.56348 10.9512H8.95898C9.60938 10.9512 10.04 10.5205 10.04 9.94043C10.04 9.36914 9.5918 8.98242 8.96777 8.98242C8.34375 8.98242 7.95703 9.29004 7.75488 9.87012C7.64941 10.1514 7.49121 10.292 7.20117 10.292C6.86719 10.292 6.63867 10.0547 6.63867 9.69434C6.63867 9.5625 6.64746 9.45703 6.68262 9.3252C6.91113 8.5166 7.79004 7.81348 8.99414 7.81348C10.3652 7.81348 11.3057 8.60449 11.3057 9.76465C11.3057 10.582 10.7344 11.3203 10.0137 11.4346V11.4961C10.9014 11.584 11.5254 12.3398 11.5254 13.2891C11.5254 14.5898 10.4795 15.4951 8.94141 15.4951ZM15.1641 15.5039C14.2324 15.5039 13.4502 15.1348 12.9932 14.2471C12.7031 13.6758 12.5361 12.8672 12.5361 11.8213C12.5361 9.14941 13.626 7.81348 15.3398 7.81348C16.3418 7.81348 17.0449 8.32324 17.2822 8.90332C17.3525 9.04395 17.3789 9.1582 17.3789 9.30762C17.3789 9.63281 17.1416 9.84375 16.8691 9.84375C16.6055 9.84375 16.4473 9.72949 16.3066 9.51855C16.0869 9.20215 15.7617 8.97363 15.2871 8.97363C14.373 8.97363 13.7402 9.93164 13.7402 11.4521C13.7402 11.5225 13.7402 11.5664 13.7402 11.6104H13.8018C14.0215 11.0479 14.5928 10.5381 15.498 10.5381C16.6318 10.5381 17.6514 11.3818 17.6514 12.8848C17.6514 14.5283 16.623 15.5039 15.1641 15.5039ZM15.1113 14.3877C15.876 14.3877 16.377 13.834 16.377 12.9727C16.377 12.1465 15.8584 11.584 15.1113 11.584C14.3467 11.584 13.8281 12.1553 13.8281 12.9639C13.8281 13.8076 14.3555 14.3877 15.1113 14.3877Z" fill="#1C1C1E"/>
</g>
<defs>
<clipPath id="clip0_10_2122">
<rect width="24" height="24" fill="white"/>
</clipPath>
</defs>
</svg>
