<svg width="24" height="24" viewBox="0 0 24 24" fill="none" xmlns="http://www.w3.org/2000/svg">
<g clip-path="url(#clip0_10_2157)">
<path d="M6.67383 19.8809H17.3174C19.2246 19.8809 20.209 18.8965 20.209 17.0156V6.31934C20.209 4.43848 19.2246 3.4541 17.3174 3.4541H6.67383C4.77539 3.4541 3.78223 4.42969 3.78223 6.31934V17.0156C3.78223 18.8965 4.77539 19.8809 6.67383 19.8809ZM6.78809 18.1318C5.97949 18.1318 5.53125 17.71 5.53125 16.8574V6.47754C5.53125 5.625 5.97949 5.20312 6.78809 5.20312H17.2031C18.0029 5.20312 18.46 5.625 18.46 6.47754V16.8574C18.46 17.71 18.0029 18.1318 17.2031 18.1318H6.78809ZM9.03809 15.3457C10.5146 15.3457 11.5254 14.4756 11.5254 13.2275C11.5254 12.3223 10.9189 11.584 10.0664 11.5049V11.4521C10.7695 11.3291 11.3057 10.626 11.3057 9.83496C11.3057 8.72754 10.4004 7.96289 9.09082 7.96289C7.93066 7.96289 7.08691 8.63086 6.86719 9.41309C6.83203 9.54492 6.82324 9.6416 6.82324 9.77344C6.82324 10.1162 7.03418 10.3447 7.35938 10.3447C7.63184 10.3447 7.79004 10.2041 7.88672 9.93164C8.08008 9.36914 8.45801 9.07031 9.06445 9.07031C9.6709 9.07031 10.1016 9.44824 10.1016 10.002C10.1016 10.5645 9.67969 10.9863 9.05566 10.9863H8.66895C8.33496 10.9863 8.12402 11.2148 8.12402 11.5576C8.12402 11.874 8.32617 12.1201 8.66895 12.1201H9.09082C9.8291 12.1201 10.2949 12.5332 10.2949 13.166C10.2949 13.7549 9.78516 14.2207 9.05566 14.2207C8.44043 14.2207 8.00977 13.9219 7.78125 13.3594C7.6582 13.0957 7.5 12.9551 7.23633 12.9551C6.9375 12.9551 6.69141 13.1748 6.69141 13.5264C6.69141 13.6494 6.70898 13.7461 6.73535 13.8691C6.96387 14.6426 7.88672 15.3457 9.03809 15.3457ZM15.0234 15.3545C16.4297 15.3545 17.4141 14.4141 17.4141 12.8408C17.4141 11.3906 16.4297 10.582 15.3398 10.582C14.4697 10.582 13.916 11.0742 13.7051 11.6104H13.6436C13.6436 11.5752 13.6436 11.5312 13.6436 11.4697C13.6436 10.002 14.2588 9.06152 15.1465 9.06152C15.6035 9.06152 15.9199 9.29004 16.1221 9.59766C16.2715 9.7998 16.4121 9.90527 16.667 9.90527C16.9307 9.90527 17.1504 9.70312 17.1504 9.39551C17.1504 9.25488 17.124 9.14062 17.0713 9.01758C16.8428 8.45508 16.1572 7.96289 15.1904 7.96289C13.5469 7.96289 12.4922 9.24609 12.4922 11.8125C12.4922 12.8232 12.6592 13.5967 12.9404 14.1504C13.3799 15.0029 14.127 15.3545 15.0234 15.3545ZM14.9707 14.291C14.2412 14.291 13.7314 13.7285 13.7314 12.9111C13.7314 12.1289 14.2412 11.5752 14.9707 11.5752C15.7002 11.5752 16.2012 12.1201 16.2012 12.9199C16.2012 13.7549 15.7178 14.291 14.9707 14.291Z" fill="#1C1C1E"/>
</g>
<defs>
<clipPath id="clip0_10_2157">
<rect width="24" height="24" fill="white"/>
</clipPath>
</defs>
</svg>
