<svg width="24" height="24" viewBox="0 0 24 24" fill="none" xmlns="http://www.w3.org/2000/svg">
<g clip-path="url(#clip0_10_2118)">
<path d="M11.9912 20.7422C16.9746 20.7422 21.0879 16.6289 21.0879 11.6543C21.0879 6.67969 16.9658 2.56641 11.9824 2.56641C7.00781 2.56641 2.90332 6.67969 2.90332 11.6543C2.90332 16.6289 7.0166 20.7422 11.9912 20.7422ZM11.9912 18.9316C7.95703 18.9316 4.73145 15.6885 4.73145 11.6543C4.73145 7.62012 7.95703 4.38574 11.9824 4.38574C16.0166 4.38574 19.2598 7.62012 19.2686 11.6543C19.2773 15.6885 16.0254 18.9316 11.9912 18.9316ZM9.27539 15.3545C10.752 15.3545 11.7627 14.4844 11.7627 13.2363C11.7627 12.3311 11.1475 11.5928 10.3037 11.5137V11.4521C10.998 11.3379 11.543 10.6348 11.543 9.84375C11.543 8.73633 10.6377 7.96289 9.31934 7.96289C8.16797 7.96289 7.32422 8.63965 7.0957 9.42188C7.06055 9.55371 7.05176 9.65039 7.05176 9.77344C7.05176 10.125 7.27148 10.3447 7.58789 10.3447C7.86914 10.3447 8.02734 10.2041 8.12402 9.93164C8.31738 9.37793 8.69531 9.0791 9.29297 9.0791C9.9082 9.0791 10.3389 9.45703 10.3389 10.0107C10.3389 10.5732 9.91699 10.9951 9.29297 10.9951H8.90625C8.57227 10.9951 8.36133 11.2148 8.36133 11.5576C8.36133 11.8828 8.56348 12.1289 8.90625 12.1289H9.32812C10.0664 12.1289 10.5234 12.542 10.5234 13.166C10.5234 13.7637 10.0225 14.2207 9.28418 14.2207C8.67773 14.2207 8.23828 13.9219 8.01855 13.3682C7.89551 13.0957 7.7373 12.9639 7.47363 12.9639C7.16602 12.9639 6.91992 13.1836 6.91992 13.5264C6.91992 13.6582 6.9375 13.7549 6.97266 13.8691C7.20117 14.6426 8.12402 15.3545 9.27539 15.3545ZM13.9775 15.2754C14.2764 15.2754 14.4521 15.1172 14.6191 14.7832L17.1504 9.59766C17.2822 9.3252 17.3174 9.14941 17.3174 8.95605C17.3174 8.49902 17.001 8.12988 16.4561 8.12988H13.1514C12.7998 8.12988 12.5625 8.34961 12.5625 8.69238C12.5625 9.03516 12.8086 9.24609 13.1514 9.24609H15.9375V9.30762L13.4326 14.1855C13.3535 14.335 13.3271 14.458 13.3271 14.6338C13.3271 15.0117 13.6084 15.2754 13.9775 15.2754Z" fill="#1C1C1E"/>
</g>
<defs>
<clipPath id="clip0_10_2118">
<rect width="24" height="24" fill="white"/>
</clipPath>
</defs>
</svg>
