<svg width="24" height="24" viewBox="0 0 24 24" fill="none" xmlns="http://www.w3.org/2000/svg">
<g clip-path="url(#clip0_10_2148)">
<path d="M11.9912 20.7422C16.9746 20.7422 21.0879 16.6289 21.0879 11.6543C21.0879 6.67969 16.9658 2.56641 11.9824 2.56641C7.00781 2.56641 2.90332 6.67969 2.90332 11.6543C2.90332 16.6289 7.0166 20.7422 11.9912 20.7422ZM9.19629 15.4424C8.00977 15.4424 7.06934 14.7217 6.84082 13.9219C6.80566 13.8076 6.78809 13.7021 6.78809 13.5703C6.78809 13.2188 7.04297 12.9902 7.35059 12.9902C7.62305 12.9902 7.78125 13.1309 7.9043 13.4033C8.1416 13.9746 8.58984 14.2822 9.21387 14.2822C9.96094 14.2822 10.4883 13.8164 10.4883 13.2012C10.4883 12.5596 10.0049 12.1377 9.25781 12.1377H8.81836C8.4668 12.1377 8.25586 11.8828 8.25586 11.5576C8.25586 11.1973 8.48438 10.96 8.81836 10.96H9.22266C9.86426 10.96 10.2861 10.5381 10.2861 9.95801C10.2861 9.39551 9.84668 9.00879 9.22266 9.00879C8.59863 9.00879 8.21191 9.31641 8.01855 9.8877C7.91309 10.1689 7.75488 10.3096 7.47363 10.3096C7.13965 10.3096 6.91992 10.0723 6.91992 9.7207C6.91992 9.58887 6.92871 9.4834 6.96387 9.36035C7.19238 8.55176 8.05371 7.85742 9.24902 7.85742C10.6025 7.85742 11.5254 8.64844 11.5254 9.79102C11.5254 10.5996 10.9717 11.3203 10.251 11.4434V11.4961C11.1211 11.584 11.7539 12.3311 11.7539 13.2715C11.7539 14.5459 10.7168 15.4424 9.19629 15.4424ZM14.0303 15.3633C13.6523 15.3633 13.3535 15.0908 13.3535 14.7041C13.3535 14.5195 13.3887 14.4053 13.4678 14.2471L16.0342 9.2373V9.17578H13.1777C12.835 9.17578 12.5713 8.95605 12.5713 8.60449C12.5713 8.25293 12.8262 8.0332 13.1777 8.0332H16.5703C17.124 8.0332 17.4492 8.41992 17.4492 8.88574C17.4492 9.0791 17.4141 9.26367 17.291 9.53613L14.6807 14.8535C14.5137 15.2051 14.3291 15.3633 14.0303 15.3633Z" fill="#1C1C1E"/>
</g>
<defs>
<clipPath id="clip0_10_2148">
<rect width="24" height="24" fill="white"/>
</clipPath>
</defs>
</svg>
