<svg width="24" height="24" viewBox="0 0 24 24" fill="none" xmlns="http://www.w3.org/2000/svg">
<g clip-path="url(#clip0_10_2144)">
<path d="M6.67383 19.8809H17.3174C19.2246 19.8809 20.209 18.8965 20.209 17.0156V6.31934C20.209 4.43848 19.2246 3.4541 17.3174 3.4541H6.67383C4.77539 3.4541 3.78223 4.42969 3.78223 6.31934V17.0156C3.78223 18.8965 4.77539 19.8809 6.67383 19.8809ZM6.78809 18.1318C5.97949 18.1318 5.53125 17.71 5.53125 16.8574V6.47754C5.53125 5.625 5.97949 5.20312 6.78809 5.20312H17.2031C18.0029 5.20312 18.46 5.625 18.46 6.47754V16.8574C18.46 17.71 18.0029 18.1318 17.2031 18.1318H6.78809ZM9.29297 15.3457C10.7607 15.3457 11.7715 14.4756 11.7715 13.2275C11.7715 12.3223 11.165 11.584 10.3213 11.5049V11.4521C11.0156 11.3291 11.5605 10.626 11.5605 9.83496C11.5605 8.72754 10.6553 7.96289 9.33691 7.96289C8.17676 7.96289 7.33301 8.63086 7.11328 9.41309C7.07812 9.54492 7.06934 9.6416 7.06934 9.77344C7.06934 10.1162 7.28906 10.3447 7.60547 10.3447C7.88672 10.3447 8.03613 10.2041 8.1416 9.93164C8.33496 9.36914 8.71289 9.07031 9.31055 9.07031C9.92578 9.07031 10.3564 9.44824 10.3564 10.002C10.3564 10.5645 9.93457 10.9863 9.31055 10.9863H8.91504C8.58984 10.9863 8.37012 11.2148 8.37012 11.5576C8.37012 11.874 8.57227 12.1201 8.91504 12.1201H9.33691C10.0752 12.1201 10.541 12.5332 10.541 13.166C10.541 13.7549 10.04 14.2207 9.30176 14.2207C8.69531 14.2207 8.25586 13.9219 8.02734 13.3594C7.91309 13.0957 7.74609 12.9551 7.48242 12.9551C7.18359 12.9551 6.9375 13.1748 6.9375 13.5264C6.9375 13.6494 6.95508 13.7461 6.99023 13.8691C7.20996 14.6426 8.13281 15.3457 9.29297 15.3457ZM13.9951 15.2666C14.2852 15.2666 14.4697 15.1172 14.6279 14.7744L17.168 9.58887C17.291 9.31641 17.3262 9.14062 17.3262 8.95605C17.3262 8.49902 17.0186 8.12988 16.4648 8.12988H13.1602C12.8174 8.12988 12.5713 8.34082 12.5713 8.68359C12.5713 9.02637 12.8262 9.2373 13.1602 9.2373H15.9551V9.30762L13.4502 14.1855C13.3711 14.335 13.3359 14.4492 13.3359 14.625C13.3359 15.0029 13.626 15.2666 13.9951 15.2666Z" fill="#1C1C1E"/>
</g>
<defs>
<clipPath id="clip0_10_2144">
<rect width="24" height="24" fill="white"/>
</clipPath>
</defs>
</svg>
