<svg width="24" height="24" viewBox="0 0 24 24" fill="none" xmlns="http://www.w3.org/2000/svg">
<g clip-path="url(#clip0_10_2170)">
<path d="M6.67383 19.8809H17.3174C19.2246 19.8809 20.209 18.8965 20.209 17.0156V6.31934C20.209 4.43848 19.2246 3.4541 17.3174 3.4541H6.67383C4.77539 3.4541 3.78223 4.42969 3.78223 6.31934V17.0156C3.78223 18.8965 4.77539 19.8809 6.67383 19.8809ZM9.23145 15.4424C8.05371 15.4424 7.10449 14.7217 6.87598 13.9219C6.84082 13.8076 6.82324 13.7021 6.82324 13.5703C6.82324 13.2188 7.07812 12.9902 7.38574 12.9902C7.6582 12.9902 7.81641 13.1309 7.93945 13.4033C8.17676 13.9746 8.625 14.2822 9.24902 14.2822C9.99609 14.2822 10.5234 13.8164 10.5234 13.2012C10.5234 12.5596 10.04 12.1377 9.29297 12.1377H8.85352C8.50195 12.1377 8.29102 11.8828 8.29102 11.5576C8.29102 11.1973 8.51953 10.96 8.85352 10.96H9.25781C9.89941 10.96 10.3213 10.5381 10.3213 9.95801C10.3213 9.39551 9.88184 9.00879 9.25781 9.00879C8.63379 9.00879 8.25586 9.31641 8.05371 9.8877C7.94824 10.1689 7.79004 10.3096 7.50879 10.3096C7.1748 10.3096 6.95508 10.0723 6.95508 9.7207C6.95508 9.58887 6.96387 9.4834 6.99902 9.36035C7.22754 8.55176 8.08887 7.85742 9.28418 7.85742C10.6377 7.85742 11.5693 8.64844 11.5693 9.79102C11.5693 10.5996 11.0068 11.3203 10.2861 11.4434V11.4961C11.1562 11.584 11.7891 12.3311 11.7891 13.2715C11.7891 14.5459 10.752 15.4424 9.23145 15.4424ZM14.0654 15.3633C13.6875 15.3633 13.3887 15.0908 13.3887 14.7041C13.3887 14.5195 13.4238 14.4053 13.5029 14.2471L16.0693 9.2373V9.17578H13.2129C12.8701 9.17578 12.6064 8.95605 12.6064 8.60449C12.6064 8.25293 12.8613 8.0332 13.2129 8.0332H16.6055C17.168 8.0332 17.4844 8.41992 17.4844 8.88574C17.4844 9.0791 17.4492 9.26367 17.3262 9.53613L14.7158 14.8535C14.5488 15.2051 14.3643 15.3633 14.0654 15.3633Z" fill="#1C1C1E"/>
</g>
<defs>
<clipPath id="clip0_10_2170">
<rect width="24" height="24" fill="white"/>
</clipPath>
</defs>
</svg>
