<svg width="24" height="24" viewBox="0 0 24 24" fill="none" xmlns="http://www.w3.org/2000/svg">
<g clip-path="url(#clip0_10_2301)">
<path d="M11.9912 20.7422C16.9746 20.7422 21.0879 16.6289 21.0879 11.6543C21.0879 6.67969 16.9658 2.56641 11.9824 2.56641C7.00781 2.56641 2.90332 6.67969 2.90332 11.6543C2.90332 16.6289 7.0166 20.7422 11.9912 20.7422ZM9.06445 15.3984C7.9043 15.3984 6.96387 14.6777 6.73535 13.8955C6.7002 13.7725 6.68262 13.6758 6.68262 13.5439C6.68262 13.1924 6.9375 12.9639 7.24512 12.9639C7.51758 12.9639 7.68457 13.1045 7.79883 13.377C8.02734 13.9395 8.4668 14.2383 9.08203 14.2383C9.82031 14.2383 10.3301 13.7812 10.3301 13.1836C10.3301 12.5508 9.86426 12.1289 9.11719 12.1289H8.69531C8.34375 12.1289 8.1416 11.8828 8.1416 11.5576C8.1416 11.2061 8.36133 10.9688 8.69531 10.9688H9.09082C9.71484 10.9688 10.1367 10.5469 10.1367 9.98438C10.1367 9.42188 9.70605 9.05273 9.09082 9.05273C8.48438 9.05273 8.10645 9.35156 7.91309 9.90527C7.80762 10.1865 7.64941 10.3271 7.36816 10.3271C7.04297 10.3271 6.82324 10.0986 6.82324 9.74707C6.82324 9.61523 6.83203 9.51855 6.86719 9.37793C7.08691 8.58691 7.94824 7.91016 9.11719 7.91016C10.4531 7.91016 11.3672 8.68359 11.3672 9.81738C11.3672 10.6084 10.8223 11.3291 10.1191 11.4434V11.5049C10.9717 11.584 11.5869 12.3311 11.5869 13.2451C11.5869 14.5107 10.5674 15.3984 9.06445 15.3984ZM15.041 15.3984C13.5293 15.3984 12.5098 14.5459 12.5098 13.2715C12.5098 12.375 13.0547 11.6719 13.9688 11.4785V11.417C13.2041 11.1973 12.7734 10.5996 12.7734 9.82617C12.7734 8.69238 13.7139 7.91016 15.0586 7.91016C16.4033 7.91016 17.3438 8.69238 17.3438 9.82617C17.3438 10.5996 16.9043 11.2148 16.1484 11.417V11.4785C17.0537 11.6719 17.6074 12.3662 17.6074 13.2715C17.6074 14.5371 16.5703 15.3984 15.041 15.3984ZM15.0586 10.9951C15.6826 10.9951 16.1133 10.5557 16.1133 9.95801C16.1133 9.35156 15.6826 8.92969 15.0586 8.92969C14.4346 8.92969 14.0039 9.35156 14.0039 9.95801C14.0039 10.5557 14.4346 10.9951 15.0586 10.9951ZM15.0674 14.3701C15.8057 14.3701 16.3506 13.8779 16.3506 13.1836C16.3506 12.4893 15.8232 11.9971 15.0674 11.9971C14.3115 11.9971 13.7754 12.498 13.7754 13.1836C13.7754 13.8779 14.3115 14.3701 15.0674 14.3701Z" fill="#1C1C1E"/>
</g>
<defs>
<clipPath id="clip0_10_2301">
<rect width="24" height="24" fill="white"/>
</clipPath>
</defs>
</svg>
