<svg width="24" height="24" viewBox="0 0 24 24" fill="none" xmlns="http://www.w3.org/2000/svg">
<g clip-path="url(#clip0_10_2166)">
<path d="M11.9912 20.7422C16.9746 20.7422 21.0879 16.6289 21.0879 11.6543C21.0879 6.67969 16.9658 2.56641 11.9824 2.56641C7.00781 2.56641 2.90332 6.67969 2.90332 11.6543C2.90332 16.6289 7.0166 20.7422 11.9912 20.7422ZM11.9912 18.9316C7.95703 18.9316 4.73145 15.6885 4.73145 11.6543C4.73145 7.62012 7.95703 4.38574 11.9824 4.38574C16.0166 4.38574 19.2598 7.62012 19.2686 11.6543C19.2773 15.6885 16.0254 18.9316 11.9912 18.9316ZM9.1084 15.3545C10.585 15.3545 11.5957 14.4844 11.5957 13.2363C11.5957 12.3311 10.9805 11.5928 10.1367 11.5137V11.4521C10.8311 11.3379 11.376 10.6348 11.376 9.84375C11.376 8.73633 10.4707 7.96289 9.15234 7.96289C8.00098 7.96289 7.15723 8.63965 6.92871 9.42188C6.89355 9.55371 6.88477 9.65039 6.88477 9.77344C6.88477 10.125 7.10449 10.3447 7.4209 10.3447C7.70215 10.3447 7.86035 10.2041 7.95703 9.93164C8.15039 9.37793 8.52832 9.0791 9.13477 9.0791C9.74121 9.0791 10.1719 9.45703 10.1719 10.0107C10.1719 10.5732 9.75 10.9951 9.12598 10.9951H8.73926C8.40527 10.9951 8.19434 11.2148 8.19434 11.5576C8.19434 11.8828 8.39648 12.1289 8.73926 12.1289H9.16113C9.89941 12.1289 10.3652 12.542 10.3652 13.166C10.3652 13.7637 9.85547 14.2207 9.11719 14.2207C8.51074 14.2207 8.07129 13.9219 7.85156 13.3682C7.72852 13.0957 7.57031 12.9639 7.30664 12.9639C6.99902 12.9639 6.75293 13.1836 6.75293 13.5264C6.75293 13.6582 6.77051 13.7549 6.80566 13.8691C7.03418 14.6426 7.95703 15.3545 9.1084 15.3545ZM15.0059 15.3545C16.5088 15.3545 17.5283 14.502 17.5283 13.2539C17.5283 12.3662 16.9834 11.6719 16.0957 11.4873V11.4258C16.8428 11.2236 17.2734 10.6172 17.2734 9.86133C17.2734 8.73633 16.3506 7.96289 15.0146 7.96289C13.6875 7.96289 12.7646 8.73633 12.7646 9.86133C12.7646 10.6172 13.1865 11.2061 13.9424 11.4258V11.4873C13.0459 11.6719 12.5098 12.375 12.5098 13.2627C12.5098 14.5107 13.5117 15.3545 15.0059 15.3545ZM15.0146 11.0127C14.3994 11.0127 13.9688 10.582 13.9688 9.98438C13.9688 9.37793 14.3994 8.96484 15.0146 8.96484C15.6387 8.96484 16.0693 9.37793 16.0693 9.98438C16.0693 10.582 15.6387 11.0127 15.0146 11.0127ZM15.0234 14.3438C14.2764 14.3438 13.7402 13.8604 13.7402 13.166C13.7402 12.4893 14.2764 11.9883 15.0234 11.9883C15.7793 11.9883 16.2979 12.4805 16.2979 13.166C16.2979 13.8604 15.7617 14.3438 15.0234 14.3438Z" fill="#1C1C1E"/>
</g>
<defs>
<clipPath id="clip0_10_2166">
<rect width="24" height="24" fill="white"/>
</clipPath>
</defs>
</svg>
