<svg width="24" height="24" viewBox="0 0 24 24" fill="none" xmlns="http://www.w3.org/2000/svg">
<g clip-path="url(#clip0_10_2310)">
<path d="M6.67383 19.8809H17.3174C19.2246 19.8809 20.209 18.8965 20.209 17.0156V6.31934C20.209 4.43848 19.2246 3.4541 17.3174 3.4541H6.67383C4.77539 3.4541 3.78223 4.42969 3.78223 6.31934V17.0156C3.78223 18.8965 4.77539 19.8809 6.67383 19.8809ZM6.78809 18.1318C5.97949 18.1318 5.53125 17.71 5.53125 16.8574V6.47754C5.53125 5.625 5.97949 5.20312 6.78809 5.20312H17.2031C18.0029 5.20312 18.46 5.625 18.46 6.47754V16.8574C18.46 17.71 18.0029 18.1318 17.2031 18.1318H6.78809ZM9.12598 15.3457C10.5938 15.3457 11.6133 14.4756 11.6133 13.2275C11.6133 12.3223 10.998 11.584 10.1543 11.5049V11.4521C10.8486 11.3291 11.3936 10.626 11.3936 9.83496C11.3936 8.72754 10.4883 7.96289 9.16992 7.96289C8.00977 7.96289 7.16602 8.63086 6.94629 9.41309C6.91113 9.54492 6.90234 9.6416 6.90234 9.77344C6.90234 10.1162 7.12207 10.3447 7.43848 10.3447C7.71973 10.3447 7.86914 10.2041 7.97461 9.93164C8.16797 9.36914 8.5459 9.07031 9.14355 9.07031C9.75879 9.07031 10.1895 9.44824 10.1895 10.002C10.1895 10.5645 9.76758 10.9863 9.14355 10.9863H8.74805C8.42285 10.9863 8.20312 11.2148 8.20312 11.5576C8.20312 11.874 8.41406 12.1201 8.74805 12.1201H9.17871C9.9082 12.1201 10.374 12.5332 10.374 13.166C10.374 13.7549 9.87305 14.2207 9.13477 14.2207C8.52832 14.2207 8.08887 13.9219 7.86035 13.3594C7.74609 13.0957 7.5791 12.9551 7.32422 12.9551C7.0166 12.9551 6.77051 13.1748 6.77051 13.5264C6.77051 13.6494 6.78809 13.7461 6.82324 13.8691C7.04297 14.6426 7.96582 15.3457 9.12598 15.3457ZM15.0234 15.3457C16.5176 15.3457 17.5459 14.4932 17.5459 13.2451C17.5459 12.3574 17.001 11.6719 16.1133 11.4785V11.4258C16.8604 11.2236 17.291 10.6084 17.291 9.85254C17.291 8.72754 16.3682 7.96289 15.0322 7.96289C13.7051 7.96289 12.7734 8.72754 12.7734 9.85254C12.7734 10.6084 13.2041 11.2061 13.96 11.4258V11.4785C13.0635 11.6719 12.5186 12.3662 12.5186 13.2539C12.5186 14.502 13.5205 15.3457 15.0234 15.3457ZM15.0322 11.0039C14.417 11.0039 13.9863 10.5732 13.9863 9.97559C13.9863 9.37793 14.417 8.96484 15.0322 8.96484C15.6475 8.96484 16.0781 9.37793 16.0781 9.97559C16.0781 10.5732 15.6475 11.0039 15.0322 11.0039ZM15.041 14.3438C14.2939 14.3438 13.7578 13.8604 13.7578 13.166C13.7578 12.4805 14.2939 11.9883 15.041 11.9883C15.7969 11.9883 16.3154 12.4717 16.3154 13.166C16.3154 13.8604 15.7793 14.3438 15.041 14.3438Z" fill="#1C1C1E"/>
</g>
<defs>
<clipPath id="clip0_10_2310">
<rect width="24" height="24" fill="white"/>
</clipPath>
</defs>
</svg>
