<svg width="24" height="24" viewBox="0 0 24 24" fill="none" xmlns="http://www.w3.org/2000/svg">
<g clip-path="url(#clip0_10_2094)">
<path d="M6.67383 19.8809H17.3174C19.2246 19.8809 20.209 18.8965 20.209 17.0156V6.31934C20.209 4.43848 19.2246 3.4541 17.3174 3.4541H6.67383C4.77539 3.4541 3.78223 4.42969 3.78223 6.31934V17.0156C3.78223 18.8965 4.77539 19.8809 6.67383 19.8809ZM9.1084 15.3984C7.93945 15.3984 6.99902 14.6777 6.7793 13.8955C6.73535 13.7725 6.71777 13.6758 6.71777 13.5439C6.71777 13.1924 6.97266 12.9639 7.28027 12.9639C7.55273 12.9639 7.71973 13.1045 7.83398 13.377C8.0625 13.9395 8.51074 14.2383 9.11719 14.2383C9.85547 14.2383 10.3652 13.7812 10.3652 13.1836C10.3652 12.5508 9.89941 12.1289 9.15234 12.1289H8.73047C8.37891 12.1289 8.17676 11.8828 8.17676 11.5576C8.17676 11.2061 8.39648 10.9688 8.73047 10.9688H9.12598C9.75 10.9688 10.1719 10.5469 10.1719 9.98438C10.1719 9.42188 9.74121 9.05273 9.12598 9.05273C8.51953 9.05273 8.1416 9.35156 7.94824 9.90527C7.84277 10.1865 7.68457 10.3271 7.40332 10.3271C7.07812 10.3271 6.8584 10.0986 6.8584 9.74707C6.8584 9.61523 6.86719 9.51855 6.90234 9.37793C7.12207 8.58691 7.9834 7.91016 9.15234 7.91016C10.4883 7.91016 11.4111 8.68359 11.4111 9.81738C11.4111 10.6084 10.8574 11.3291 10.1543 11.4434V11.5049C11.0068 11.584 11.6221 12.3311 11.6221 13.2451C11.6221 14.5107 10.6025 15.3984 9.1084 15.3984ZM15.0762 15.3984C13.5645 15.3984 12.5449 14.5459 12.5449 13.2715C12.5449 12.375 13.0898 11.6719 14.0039 11.4785V11.417C13.2393 11.1973 12.8086 10.5996 12.8086 9.82617C12.8086 8.69238 13.749 7.91016 15.0938 7.91016C16.4385 7.91016 17.3789 8.69238 17.3789 9.82617C17.3789 10.5996 16.9395 11.2148 16.1836 11.417V11.4785C17.0889 11.6719 17.6426 12.3662 17.6426 13.2715C17.6426 14.5371 16.6055 15.3984 15.0762 15.3984ZM15.0938 10.9951C15.7178 10.9951 16.1484 10.5557 16.1484 9.95801C16.1484 9.35156 15.7178 8.92969 15.0938 8.92969C14.4697 8.92969 14.0391 9.35156 14.0391 9.95801C14.0391 10.5557 14.4697 10.9951 15.0938 10.9951ZM15.1025 14.3701C15.8408 14.3701 16.3857 13.8779 16.3857 13.1836C16.3857 12.4893 15.8584 11.9971 15.1025 11.9971C14.3467 11.9971 13.8105 12.498 13.8105 13.1836C13.8105 13.8779 14.3467 14.3701 15.1025 14.3701Z" fill="#1C1C1E"/>
</g>
<defs>
<clipPath id="clip0_10_2094">
<rect width="24" height="24" fill="white"/>
</clipPath>
</defs>
</svg>
