<svg width="24" height="24" viewBox="0 0 24 24" fill="none" xmlns="http://www.w3.org/2000/svg">
<g clip-path="url(#clip0_10_2294)">
<path d="M11.9912 20.7422C16.9746 20.7422 21.0879 16.6289 21.0879 11.6543C21.0879 6.67969 16.9658 2.56641 11.9824 2.56641C7.00781 2.56641 2.90332 6.67969 2.90332 11.6543C2.90332 16.6289 7.0166 20.7422 11.9912 20.7422ZM9.04688 15.3984C7.87793 15.3984 6.9375 14.6777 6.71777 13.8955C6.68262 13.7725 6.66504 13.6758 6.66504 13.5439C6.66504 13.1924 6.91113 12.9639 7.21875 12.9639C7.49121 12.9639 7.6582 13.1045 7.77246 13.377C8.00977 13.9395 8.44922 14.2383 9.06445 14.2383C9.79395 14.2383 10.3037 13.7812 10.3037 13.1836C10.3037 12.5508 9.83789 12.1289 9.09961 12.1289H8.66895C8.32617 12.1289 8.11523 11.8828 8.11523 11.5576C8.11523 11.2061 8.33496 10.9688 8.66895 10.9688H9.06445C9.69727 10.9688 10.1104 10.5469 10.1104 9.98438C10.1104 9.42188 9.67969 9.05273 9.06445 9.05273C8.4668 9.05273 8.08008 9.35156 7.88672 9.90527C7.78125 10.1865 7.62305 10.3271 7.3418 10.3271C7.0166 10.3271 6.79688 10.0986 6.79688 9.74707C6.79688 9.61523 6.80566 9.51855 6.84082 9.37793C7.06934 8.58691 7.92188 7.91016 9.09082 7.91016C10.4268 7.91016 11.3496 8.68359 11.3496 9.81738C11.3496 10.6084 10.7959 11.3291 10.0928 11.4434V11.5049C10.9453 11.584 11.5693 12.3311 11.5693 13.2451C11.5693 14.5107 10.541 15.3984 9.04688 15.3984ZM14.8125 15.3984C13.6348 15.3984 12.9316 14.7656 12.7734 14.2822C12.7207 14.1592 12.6855 14.0273 12.6855 13.9219C12.6855 13.5879 12.8965 13.3594 13.2129 13.3594C13.4414 13.3594 13.626 13.4561 13.7754 13.7021C13.9775 14.0361 14.3379 14.2734 14.7949 14.2734C15.7529 14.2734 16.333 13.2451 16.3242 11.6719H16.2715C16.0518 12.2695 15.498 12.7441 14.6016 12.7441C13.4502 12.7441 12.4834 11.8916 12.4834 10.4326C12.4834 8.89453 13.4502 7.91016 14.9092 7.91016C16.5791 7.91016 17.4932 9.16699 17.4932 11.4082C17.4932 14.0098 16.5527 15.3984 14.8125 15.3984ZM14.9707 11.7334C15.7002 11.7334 16.2188 11.1709 16.2188 10.3799C16.2188 9.5625 15.6914 8.98242 14.9707 8.98242C14.2148 8.98242 13.7227 9.53613 13.7227 10.3711C13.7227 11.1709 14.2236 11.7334 14.9707 11.7334Z" fill="#1C1C1E"/>
</g>
<defs>
<clipPath id="clip0_10_2294">
<rect width="24" height="24" fill="white"/>
</clipPath>
</defs>
</svg>
