<svg width="24" height="24" viewBox="0 0 24 24" fill="none" xmlns="http://www.w3.org/2000/svg">
<g clip-path="url(#clip0_10_2304)">
<path d="M11.9912 20.7422C16.9746 20.7422 21.0879 16.6289 21.0879 11.6543C21.0879 6.67969 16.9658 2.56641 11.9824 2.56641C7.00781 2.56641 2.90332 6.67969 2.90332 11.6543C2.90332 16.6289 7.0166 20.7422 11.9912 20.7422ZM11.9912 18.9316C7.95703 18.9316 4.73145 15.6885 4.73145 11.6543C4.73145 7.62012 7.95703 4.38574 11.9824 4.38574C16.0166 4.38574 19.2598 7.62012 19.2686 11.6543C19.2773 15.6885 16.0254 18.9316 11.9912 18.9316ZM9.08203 15.3545C10.5586 15.3545 11.5693 14.4844 11.5693 13.2363C11.5693 12.3311 10.9629 11.5928 10.1104 11.5137V11.4521C10.8135 11.3379 11.3496 10.6348 11.3496 9.84375C11.3496 8.73633 10.4443 7.96289 9.13477 7.96289C7.97461 7.96289 7.13086 8.63965 6.91113 9.42188C6.87598 9.55371 6.86719 9.65039 6.86719 9.77344C6.86719 10.125 7.07812 10.3447 7.40332 10.3447C7.67578 10.3447 7.83398 10.2041 7.93066 9.93164C8.12402 9.37793 8.50195 9.0791 9.1084 9.0791C9.71484 9.0791 10.1455 9.45703 10.1455 10.0107C10.1455 10.5732 9.72363 10.9951 9.09961 10.9951H8.71289C8.37891 10.9951 8.16797 11.2148 8.16797 11.5576C8.16797 11.8828 8.37012 12.1289 8.71289 12.1289H9.13477C9.87305 12.1289 10.3389 12.542 10.3389 13.166C10.3389 13.7637 9.8291 14.2207 9.09961 14.2207C8.48438 14.2207 8.05371 13.9219 7.8252 13.3682C7.70215 13.0957 7.54395 12.9639 7.28027 12.9639C6.98145 12.9639 6.73535 13.1836 6.73535 13.5264C6.73535 13.6582 6.75293 13.7549 6.7793 13.8691C7.00781 14.6426 7.93066 15.3545 9.08203 15.3545ZM14.7686 15.3545C16.4912 15.3545 17.4141 13.9834 17.4141 11.417C17.4141 9.20215 16.5088 7.96289 14.8652 7.96289C13.4238 7.96289 12.4746 8.93848 12.4746 10.4502C12.4746 11.9004 13.4326 12.7354 14.5664 12.7354C15.4541 12.7354 15.999 12.2695 16.2188 11.6807H16.2715C16.2891 13.2363 15.709 14.2471 14.7598 14.2471C14.3027 14.2471 13.9512 14.0186 13.749 13.6846C13.5996 13.4385 13.415 13.3418 13.1953 13.3418C12.8877 13.3418 12.6768 13.5703 12.6768 13.8955C12.6768 14.001 12.7119 14.1328 12.7646 14.2471C12.9141 14.7305 13.6084 15.3545 14.7686 15.3545ZM14.9268 11.751C14.1885 11.751 13.6875 11.1885 13.6875 10.3887C13.6875 9.5625 14.1797 9.01758 14.9355 9.01758C15.6475 9.01758 16.166 9.58887 16.166 10.4062C16.166 11.1885 15.6562 11.751 14.9268 11.751Z" fill="#1C1C1E"/>
</g>
<defs>
<clipPath id="clip0_10_2304">
<rect width="24" height="24" fill="white"/>
</clipPath>
</defs>
</svg>
