<svg width="24" height="24" viewBox="0 0 24 24" fill="none" xmlns="http://www.w3.org/2000/svg">
<g clip-path="url(#clip0_10_2298)">
<path d="M6.67383 19.8809H17.3174C19.2246 19.8809 20.209 18.8965 20.209 17.0156V6.31934C20.209 4.43848 19.2246 3.4541 17.3174 3.4541H6.67383C4.77539 3.4541 3.78223 4.42969 3.78223 6.31934V17.0156C3.78223 18.8965 4.77539 19.8809 6.67383 19.8809ZM6.78809 18.1318C5.97949 18.1318 5.53125 17.71 5.53125 16.8574V6.47754C5.53125 5.625 5.97949 5.20312 6.78809 5.20312H17.2031C18.0029 5.20312 18.46 5.625 18.46 6.47754V16.8574C18.46 17.71 18.0029 18.1318 17.2031 18.1318H6.78809ZM9.09961 15.3457C10.5762 15.3457 11.5869 14.4756 11.5869 13.2275C11.5869 12.3223 10.9717 11.584 10.1279 11.5049V11.4521C10.8223 11.3291 11.3672 10.626 11.3672 9.83496C11.3672 8.72754 10.4619 7.96289 9.14355 7.96289C7.99219 7.96289 7.14844 8.63086 6.91992 9.41309C6.88477 9.54492 6.87598 9.6416 6.87598 9.77344C6.87598 10.1162 7.0957 10.3447 7.41211 10.3447C7.69336 10.3447 7.85156 10.2041 7.94824 9.93164C8.1416 9.36914 8.51953 9.07031 9.11719 9.07031C9.73242 9.07031 10.1631 9.44824 10.1631 10.002C10.1631 10.5645 9.74121 10.9863 9.11719 10.9863H8.73047C8.39648 10.9863 8.18555 11.2148 8.18555 11.5576C8.18555 11.874 8.3877 12.1201 8.73047 12.1201H9.15234C9.89062 12.1201 10.3477 12.5332 10.3477 13.166C10.3477 13.7549 9.84668 14.2207 9.1084 14.2207C8.50195 14.2207 8.0625 13.9219 7.84277 13.3594C7.71973 13.0957 7.56152 12.9551 7.29785 12.9551C6.99023 12.9551 6.74414 13.1748 6.74414 13.5264C6.74414 13.6494 6.76172 13.7461 6.79688 13.8691C7.02539 14.6426 7.94824 15.3457 9.09961 15.3457ZM14.7861 15.3457C16.5 15.3457 17.4316 13.9746 17.4316 11.4082C17.4316 9.19336 16.5264 7.96289 14.8828 7.96289C13.4414 7.96289 12.4922 8.92969 12.4922 10.4502C12.4922 11.8916 13.4502 12.7354 14.584 12.7354C15.4717 12.7354 16.0166 12.2607 16.2363 11.6719H16.2891C16.2979 13.2363 15.7178 14.2471 14.7686 14.2471C14.3115 14.2471 13.9688 14.0186 13.7666 13.6758C13.6084 13.4297 13.4326 13.333 13.2041 13.333C12.9053 13.333 12.6943 13.5703 12.6943 13.8867C12.6943 13.9922 12.7295 14.124 12.7734 14.2471C12.9316 14.7217 13.626 15.3457 14.7861 15.3457ZM14.9443 11.7422C14.2061 11.7422 13.7051 11.1797 13.7051 10.3887C13.7051 9.5625 14.1973 9.00879 14.9443 9.00879C15.665 9.00879 16.1836 9.58008 16.1836 10.3975C16.1836 11.1797 15.6738 11.7422 14.9443 11.7422Z" fill="#1C1C1E"/>
</g>
<defs>
<clipPath id="clip0_10_2298">
<rect width="24" height="24" fill="white"/>
</clipPath>
</defs>
</svg>
