<svg width="24" height="24" viewBox="0 0 24 24" fill="none" xmlns="http://www.w3.org/2000/svg">
<g clip-path="url(#clip0_10_2103)">
<path d="M6.67383 19.8809H17.3174C19.2246 19.8809 20.209 18.8965 20.209 17.0156V6.31934C20.209 4.43848 19.2246 3.4541 17.3174 3.4541H6.67383C4.77539 3.4541 3.78223 4.42969 3.78223 6.31934V17.0156C3.78223 18.8965 4.77539 19.8809 6.67383 19.8809ZM9.08203 15.3984C7.91309 15.3984 6.98145 14.6777 6.75293 13.8955C6.71777 13.7725 6.7002 13.6758 6.7002 13.5439C6.7002 13.1924 6.94629 12.9639 7.2627 12.9639C7.52637 12.9639 7.69336 13.1045 7.81641 13.377C8.04492 13.9395 8.48438 14.2383 9.09961 14.2383C9.8291 14.2383 10.3389 13.7812 10.3389 13.1836C10.3389 12.5508 9.87305 12.1289 9.13477 12.1289H8.7041C8.36133 12.1289 8.15039 11.8828 8.15039 11.5576C8.15039 11.2061 8.37012 10.9688 8.7041 10.9688H9.09961C9.73242 10.9688 10.1455 10.5469 10.1455 9.98438C10.1455 9.42188 9.71484 9.05273 9.09961 9.05273C8.50195 9.05273 8.11523 9.35156 7.92188 9.90527C7.81641 10.1865 7.6582 10.3271 7.37695 10.3271C7.05176 10.3271 6.83203 10.0986 6.83203 9.74707C6.83203 9.61523 6.84082 9.51855 6.87598 9.37793C7.10449 8.58691 7.95703 7.91016 9.13477 7.91016C10.4619 7.91016 11.3848 8.68359 11.3848 9.81738C11.3848 10.6084 10.8311 11.3291 10.1279 11.4434V11.5049C10.9805 11.584 11.6045 12.3311 11.6045 13.2451C11.6045 14.5107 10.5762 15.3984 9.08203 15.3984ZM14.8477 15.3984C13.6699 15.3984 12.9668 14.7656 12.8086 14.2822C12.7559 14.1592 12.7207 14.0273 12.7207 13.9219C12.7207 13.5879 12.9316 13.3594 13.248 13.3594C13.4766 13.3594 13.6611 13.4561 13.8105 13.7021C14.0127 14.0361 14.373 14.2734 14.8301 14.2734C15.7881 14.2734 16.3682 13.2451 16.3594 11.6719H16.3066C16.0869 12.2695 15.5332 12.7441 14.6367 12.7441C13.4854 12.7441 12.5186 11.8916 12.5186 10.4326C12.5186 8.89453 13.4854 7.91016 14.9443 7.91016C16.6143 7.91016 17.5283 9.16699 17.5283 11.4082C17.5283 14.0098 16.5879 15.3984 14.8477 15.3984ZM15.0059 11.7334C15.7354 11.7334 16.2539 11.1709 16.2539 10.3799C16.2539 9.5625 15.7266 8.98242 15.0059 8.98242C14.25 8.98242 13.7578 9.53613 13.7578 10.3711C13.7578 11.1709 14.2588 11.7334 15.0059 11.7334Z" fill="#1C1C1E"/>
</g>
<defs>
<clipPath id="clip0_10_2103">
<rect width="24" height="24" fill="white"/>
</clipPath>
</defs>
</svg>
