<svg width="24" height="24" viewBox="0 0 24 24" fill="none" xmlns="http://www.w3.org/2000/svg">
<g clip-path="url(#clip0_10_2250)">
<path d="M11.9912 20.7422C16.9746 20.7422 21.0879 16.6289 21.0879 11.6543C21.0879 6.67969 16.9658 2.56641 11.9824 2.56641C7.00781 2.56641 2.90332 6.67969 2.90332 11.6543C2.90332 16.6289 7.0166 20.7422 11.9912 20.7422ZM11.9912 18.9316C7.95703 18.9316 4.73145 15.6885 4.73145 11.6543C4.73145 7.62012 7.95703 4.38574 11.9824 4.38574C16.0166 4.38574 19.2598 7.62012 19.2686 11.6543C19.2773 15.6885 16.0254 18.9316 11.9912 18.9316ZM8.57227 13.2363C8.57227 13.7637 8.91504 14.0801 9.45996 14.0801H12.5977V14.8271C12.5977 15.3633 12.8789 15.6533 13.3359 15.6533C13.8105 15.6533 14.0918 15.3633 14.0918 14.8271V14.0801H14.584C15.0498 14.0801 15.3311 13.8164 15.3311 13.3945C15.3311 12.999 15.0498 12.7441 14.584 12.7441H14.0918V11.1182C14.0918 10.6084 13.8105 10.3096 13.3359 10.3096C12.8789 10.3096 12.5977 10.6172 12.5977 11.1182V12.7441H10.4443C11.1562 11.3994 11.8857 10.0898 12.5889 8.75391C12.6855 8.56055 12.7295 8.41113 12.7295 8.25293C12.7295 7.85742 12.457 7.53223 12 7.53223C11.6748 7.53223 11.4551 7.69043 11.2793 8.01562C10.418 9.54492 9.62695 10.9688 8.77441 12.5156C8.64258 12.7705 8.57227 12.999 8.57227 13.2363Z" fill="#1C1C1E"/>
</g>
<defs>
<clipPath id="clip0_10_2250">
<rect width="24" height="24" fill="white"/>
</clipPath>
</defs>
</svg>
