<svg width="24" height="24" viewBox="0 0 24 24" fill="none" xmlns="http://www.w3.org/2000/svg">
<g clip-path="url(#clip0_10_1938)">
<path d="M6.67383 19.8809H17.3174C19.2246 19.8809 20.209 18.8965 20.209 17.0156V6.31934C20.209 4.43848 19.2246 3.4541 17.3174 3.4541H6.67383C4.77539 3.4541 3.78223 4.42969 3.78223 6.31934V17.0156C3.78223 18.8965 4.77539 19.8809 6.67383 19.8809ZM6.78809 18.1318C5.97949 18.1318 5.53125 17.71 5.53125 16.8574V6.47754C5.53125 5.625 5.97949 5.20312 6.78809 5.20312H17.2031C18.0029 5.20312 18.46 5.625 18.46 6.47754V16.8574C18.46 17.71 18.0029 18.1318 17.2031 18.1318H6.78809ZM8.58105 13.2275C8.58105 13.7637 8.93262 14.0801 9.47754 14.0801H12.6152V14.8184C12.6152 15.3545 12.8965 15.6533 13.3535 15.6533C13.8281 15.6533 14.1094 15.3633 14.1094 14.8184V14.0801H14.6016C15.0674 14.0801 15.3486 13.8076 15.3486 13.3857C15.3486 12.9902 15.0674 12.7354 14.6016 12.7354H14.1094V11.1182C14.1094 10.6084 13.8193 10.3096 13.3535 10.3096C12.8877 10.3096 12.6152 10.6172 12.6152 11.1182V12.7354H10.4619C11.165 11.3994 11.8945 10.0898 12.6064 8.74512C12.7031 8.55176 12.7471 8.41113 12.7471 8.24414C12.7471 7.84863 12.4746 7.52344 12.0176 7.52344C11.6924 7.52344 11.4727 7.68164 11.2969 8.00684C10.4355 9.54492 9.64453 10.96 8.7832 12.5068C8.65137 12.7617 8.58105 12.9902 8.58105 13.2275Z" fill="#1C1C1E"/>
</g>
<defs>
<clipPath id="clip0_10_1938">
<rect width="24" height="24" fill="white"/>
</clipPath>
</defs>
</svg>
