<svg width="24" height="24" viewBox="0 0 24 24" fill="none" xmlns="http://www.w3.org/2000/svg">
<g clip-path="url(#clip0_10_2143)">
<path d="M6.67383 19.8809H17.3174C19.2246 19.8809 20.209 18.8965 20.209 17.0156V6.31934C20.209 4.43848 19.2246 3.4541 17.3174 3.4541H6.67383C4.77539 3.4541 3.78223 4.42969 3.78223 6.31934V17.0156C3.78223 18.8965 4.77539 19.8809 6.67383 19.8809ZM8.4668 13.2979C8.4668 13.043 8.53711 12.8057 8.66895 12.5332C9.56543 10.9336 10.3828 9.45703 11.2705 7.86621C11.4639 7.52344 11.6836 7.35645 12.0352 7.35645C12.5098 7.35645 12.7998 7.70801 12.7998 8.1123C12.7998 8.28809 12.7471 8.4375 12.6504 8.64844C11.9209 10.0283 11.165 11.3906 10.4268 12.7705H12.6504V11.1006C12.6504 10.582 12.9492 10.2568 13.4238 10.2568C13.9248 10.2568 14.2236 10.5732 14.2236 11.1006V12.7705H14.7334C15.2168 12.7705 15.5068 13.043 15.5068 13.4561C15.5068 13.8955 15.2168 14.1855 14.7334 14.1855H14.2236V14.9502C14.2236 15.5127 13.9248 15.8203 13.4238 15.8203C12.9492 15.8203 12.6504 15.5039 12.6504 14.9502V14.1855H9.39844C8.82715 14.1855 8.4668 13.8516 8.4668 13.2979Z" fill="#1C1C1E"/>
</g>
<defs>
<clipPath id="clip0_10_2143">
<rect width="24" height="24" fill="white"/>
</clipPath>
</defs>
</svg>
