<svg width="24" height="24" viewBox="0 0 24 24" fill="none" xmlns="http://www.w3.org/2000/svg">
<g clip-path="url(#clip0_10_2181)">
<path d="M11.9912 20.7422C16.9746 20.7422 21.0879 16.6289 21.0879 11.6543C21.0879 6.67969 16.9658 2.56641 11.9824 2.56641C7.00781 2.56641 2.90332 6.67969 2.90332 11.6543C2.90332 16.6289 7.0166 20.7422 11.9912 20.7422ZM8.43164 13.2979C8.43164 13.043 8.50195 12.8057 8.63379 12.5332C9.53027 10.9336 10.3477 9.45703 11.2354 7.86621C11.4287 7.52344 11.6484 7.35645 12 7.35645C12.4746 7.35645 12.7646 7.70801 12.7646 8.1123C12.7646 8.28809 12.7119 8.4375 12.6152 8.64844C11.8857 10.0283 11.1299 11.3906 10.3916 12.7705H12.6152V11.1006C12.6152 10.582 12.9141 10.2568 13.3887 10.2568C13.8896 10.2568 14.1885 10.5732 14.1885 11.1006V12.7705H14.6982C15.1816 12.7705 15.4717 13.043 15.4717 13.4561C15.4717 13.8955 15.1816 14.1855 14.6982 14.1855H14.1885V14.9502C14.1885 15.5127 13.8896 15.8203 13.3887 15.8203C12.9141 15.8203 12.6152 15.5039 12.6152 14.9502V14.1855H9.36328C8.79199 14.1855 8.43164 13.8516 8.43164 13.2979Z" fill="#1C1C1E"/>
</g>
<defs>
<clipPath id="clip0_10_2181">
<rect width="24" height="24" fill="white"/>
</clipPath>
</defs>
</svg>
