<svg width="24" height="24" viewBox="0 0 24 24" fill="none" xmlns="http://www.w3.org/2000/svg">
<g clip-path="url(#clip0_10_1946)">
<path d="M11.9912 20.7422C16.9746 20.7422 21.0879 16.6289 21.0879 11.6543C21.0879 6.67969 16.9658 2.56641 11.9824 2.56641C7.00781 2.56641 2.90332 6.67969 2.90332 11.6543C2.90332 16.6289 7.0166 20.7422 11.9912 20.7422ZM11.9912 18.9316C7.95703 18.9316 4.73145 15.6885 4.73145 11.6543C4.73145 7.62012 7.95703 4.38574 11.9824 4.38574C16.0166 4.38574 19.2598 7.62012 19.2686 11.6543C19.2773 15.6885 16.0254 18.9316 11.9912 18.9316ZM13.1338 15.6533C13.6084 15.6533 13.8896 15.3633 13.8896 14.8271V14.0977H14.4521C14.874 14.0977 15.1553 13.834 15.1553 13.4297C15.1553 13.0254 14.8828 12.7529 14.4521 12.7529H13.8896V8.5957C13.8896 7.9541 13.3799 7.50586 12.6504 7.50586C11.9121 7.50586 11.4814 7.76074 11.0771 8.41113C10.251 9.67676 9.2666 11.1533 8.625 12.2344C8.44043 12.5684 8.37012 12.832 8.37012 13.1133C8.37012 13.7109 8.7832 14.0977 9.4248 14.0977H12.3955V14.8271C12.3955 15.3545 12.6768 15.6533 13.1338 15.6533ZM12.3955 12.7529H9.88184V12.7002C10.4795 11.6367 11.499 10.0811 12.3252 8.78906H12.3955V12.7529Z" fill="#1C1C1E"/>
</g>
<defs>
<clipPath id="clip0_10_1946">
<rect width="24" height="24" fill="white"/>
</clipPath>
</defs>
</svg>
