<svg width="24" height="24" viewBox="0 0 24 24" fill="none" xmlns="http://www.w3.org/2000/svg">
<g clip-path="url(#clip0_10_2177)">
<path d="M11.9912 20.7422C16.9746 20.7422 21.0879 16.6289 21.0879 11.6543C21.0879 6.67969 16.9658 2.56641 11.9824 2.56641C7.00781 2.56641 2.90332 6.67969 2.90332 11.6543C2.90332 16.6289 7.0166 20.7422 11.9912 20.7422ZM13.1777 15.8203C12.6943 15.8203 12.3955 15.5039 12.3955 14.9502V14.1943H9.32812C8.65137 14.1943 8.2207 13.79 8.2207 13.166C8.2207 12.8672 8.29102 12.5947 8.48438 12.2432C9.15234 11.127 10.1543 9.59766 11.0156 8.2793C11.4463 7.60254 11.9033 7.33887 12.668 7.33887C13.4326 7.33887 13.9688 7.81348 13.9688 8.48145V12.7881H14.5488C15.0059 12.7881 15.2871 13.0693 15.2871 13.4912C15.2871 13.9131 14.9971 14.1943 14.5488 14.1943H13.9688V14.9502C13.9688 15.5127 13.6787 15.8203 13.1777 15.8203ZM12.3955 12.7881V8.68359H12.334C11.4727 10.0195 10.4355 11.6279 9.81152 12.7354V12.7881H12.3955Z" fill="#1C1C1E"/>
</g>
<defs>
<clipPath id="clip0_10_2177">
<rect width="24" height="24" fill="white"/>
</clipPath>
</defs>
</svg>
