<svg width="24" height="24" viewBox="0 0 24 24" fill="none" xmlns="http://www.w3.org/2000/svg">
<g clip-path="url(#clip0_10_1944)">
<path d="M6.67383 19.8809H17.3174C19.2246 19.8809 20.209 18.8965 20.209 17.0156V6.31934C20.209 4.43848 19.2246 3.4541 17.3174 3.4541H6.67383C4.77539 3.4541 3.78223 4.42969 3.78223 6.31934V17.0156C3.78223 18.8965 4.77539 19.8809 6.67383 19.8809ZM6.78809 18.1318C5.97949 18.1318 5.53125 17.71 5.53125 16.8574V6.47754C5.53125 5.625 5.97949 5.20312 6.78809 5.20312H17.2031C18.0029 5.20312 18.46 5.625 18.46 6.47754V16.8574C18.46 17.71 18.0029 18.1318 17.2031 18.1318H6.78809ZM13.1514 15.6533C13.6172 15.6533 13.8984 15.3545 13.8984 14.8184V14.0889H14.4609C14.8916 14.0889 15.1729 13.8252 15.1729 13.4209C15.1729 13.0166 14.9004 12.7529 14.4697 12.7529H13.8984V8.58691C13.8984 7.9541 13.3887 7.50586 12.6592 7.50586C11.9297 7.50586 11.499 7.76074 11.0859 8.40234C10.2598 9.66797 9.28418 11.1533 8.64258 12.2344C8.45801 12.5596 8.3877 12.8232 8.3877 13.1045C8.3877 13.7021 8.80078 14.0889 9.44238 14.0889H12.4043V14.8184C12.4043 15.3457 12.6943 15.6533 13.1514 15.6533ZM12.4043 12.7529H9.89941V12.6914C10.4971 11.6367 11.5166 10.0723 12.3428 8.78906H12.4043V12.7529Z" fill="#1C1C1E"/>
</g>
<defs>
<clipPath id="clip0_10_1944">
<rect width="24" height="24" fill="white"/>
</clipPath>
</defs>
</svg>
