<svg width="24" height="24" viewBox="0 0 24 24" fill="none" xmlns="http://www.w3.org/2000/svg">
<g clip-path="url(#clip0_10_1941)">
<path d="M6.67383 19.8809H17.3174C19.2246 19.8809 20.209 18.8965 20.209 17.0156V6.31934C20.209 4.43848 19.2246 3.4541 17.3174 3.4541H6.67383C4.77539 3.4541 3.78223 4.42969 3.78223 6.31934V17.0156C3.78223 18.8965 4.77539 19.8809 6.67383 19.8809ZM13.2129 15.8203C12.7295 15.8203 12.4307 15.5039 12.4307 14.9502V14.1943H9.36328C8.68652 14.1943 8.25586 13.79 8.25586 13.166C8.25586 12.8672 8.32617 12.5947 8.51953 12.2432C9.1875 11.127 10.1895 9.59766 11.0508 8.2793C11.4814 7.60254 11.9385 7.33887 12.7031 7.33887C13.4678 7.33887 14.0127 7.81348 14.0127 8.48145V12.7881H14.584C15.041 12.7881 15.3223 13.0693 15.3223 13.4912C15.3223 13.9131 15.0322 14.1943 14.584 14.1943H14.0127V14.9502C14.0127 15.5127 13.7139 15.8203 13.2129 15.8203ZM12.4307 12.7881V8.68359H12.3691C11.5078 10.0195 10.4707 11.6279 9.84668 12.7354V12.7881H12.4307Z" fill="#1C1C1E"/>
</g>
<defs>
<clipPath id="clip0_10_1941">
<rect width="24" height="24" fill="white"/>
</clipPath>
</defs>
</svg>
