<svg width="24" height="24" viewBox="0 0 24 24" fill="none" xmlns="http://www.w3.org/2000/svg">
<g clip-path="url(#clip0_10_2307)">
<path d="M11.9912 20.7422C16.9746 20.7422 21.0879 16.6289 21.0879 11.6543C21.0879 6.67969 16.9658 2.56641 11.9824 2.56641C7.00781 2.56641 2.90332 6.67969 2.90332 11.6543C2.90332 16.6289 7.0166 20.7422 11.9912 20.7422ZM11.9912 18.9316C7.95703 18.9316 4.73145 15.6885 4.73145 11.6543C4.73145 7.62012 7.95703 4.38574 11.9824 4.38574C16.0166 4.38574 19.2598 7.62012 19.2686 11.6543C19.2773 15.6885 16.0254 18.9316 11.9912 18.9316ZM10.2598 15.3457C10.6377 15.3457 10.8398 15.082 10.8398 14.7217V13.79H11.2441C11.5781 13.79 11.7803 13.5967 11.7803 13.2627C11.7803 12.9199 11.5781 12.7178 11.2441 12.7178H10.8398V8.89453C10.8398 8.33203 10.4795 7.96289 9.89062 7.96289C9.33691 7.96289 8.99414 8.18262 8.7041 8.70996C8.04492 9.83496 7.25391 11.25 6.73535 12.208C6.59473 12.498 6.5332 12.7178 6.5332 12.9902C6.5332 13.5 6.84961 13.7988 7.3418 13.7988H9.68848V14.7217C9.68848 15.0732 9.89062 15.3457 10.2598 15.3457ZM15.0234 15.3545C16.4912 15.3545 17.4844 14.001 17.4844 11.6631C17.4844 9.31641 16.4912 7.96289 15.0234 7.96289C13.5469 7.96289 12.5713 9.31641 12.5713 11.6631C12.5713 14.001 13.5469 15.3545 15.0234 15.3545ZM15.0322 14.168C14.3027 14.168 13.8457 13.2627 13.8457 11.6631C13.8457 10.0547 14.3027 9.1582 15.0322 9.1582C15.7617 9.1582 16.2188 10.0547 16.2188 11.6631C16.2188 13.2627 15.7617 14.168 15.0322 14.168ZM9.68848 12.7178H7.78125V12.6826C8.22949 11.7773 9.03809 10.3184 9.64453 9.2373H9.68848V12.7178Z" fill="#1C1C1E"/>
</g>
<defs>
<clipPath id="clip0_10_2307">
<rect width="24" height="24" fill="white"/>
</clipPath>
</defs>
</svg>
