<svg width="24" height="24" viewBox="0 0 24 24" fill="none" xmlns="http://www.w3.org/2000/svg">
<g clip-path="url(#clip0_10_2296)">
<path d="M11.9912 20.7422C16.9746 20.7422 21.0879 16.6289 21.0879 11.6543C21.0879 6.67969 16.9658 2.56641 11.9824 2.56641C7.00781 2.56641 2.90332 6.67969 2.90332 11.6543C2.90332 16.6289 7.0166 20.7422 11.9912 20.7422ZM10.1895 15.4863C9.81152 15.4863 9.60059 15.2051 9.60059 14.8271V13.8779H7.1748C6.65625 13.8779 6.32227 13.5703 6.32227 13.043C6.32227 12.7529 6.38379 12.5156 6.5332 12.2168C7.06055 11.2148 7.87793 9.75586 8.56348 8.58691C8.87109 8.04199 9.22266 7.81348 9.80273 7.81348C10.418 7.81348 10.8047 8.2002 10.8047 8.78906V12.7441H11.2178C11.5605 12.7441 11.7715 12.9639 11.7715 13.3242C11.7715 13.667 11.5605 13.8779 11.2178 13.8779H10.8047V14.8271C10.8047 15.2139 10.585 15.4863 10.1895 15.4863ZM15.1465 15.4951C13.6172 15.4951 12.5977 14.0977 12.5977 11.6543C12.5977 9.21094 13.6172 7.81348 15.1465 7.81348C16.6758 7.81348 17.7041 9.21094 17.7041 11.6543C17.7041 14.0977 16.6758 15.4951 15.1465 15.4951ZM15.1465 14.2471C15.9111 14.2471 16.3682 13.3154 16.3682 11.6543C16.3682 9.99316 15.9023 9.06152 15.1465 9.06152C14.3906 9.06152 13.9248 9.99316 13.9248 11.6543C13.9248 13.3154 14.3906 14.2471 15.1465 14.2471ZM9.60059 12.7529V9.14062H9.54785C8.91504 10.2656 8.09766 11.7773 7.62305 12.709V12.7529H9.60059Z" fill="#1C1C1E"/>
</g>
<defs>
<clipPath id="clip0_10_2296">
<rect width="24" height="24" fill="white"/>
</clipPath>
</defs>
</svg>
