<svg width="24" height="24" viewBox="0 0 24 24" fill="none" xmlns="http://www.w3.org/2000/svg">
<g clip-path="url(#clip0_10_2100)">
<path d="M6.67383 19.8809H17.3174C19.2246 19.8809 20.209 18.8965 20.209 17.0156V6.31934C20.209 4.43848 19.2246 3.4541 17.3174 3.4541H6.67383C4.77539 3.4541 3.78223 4.42969 3.78223 6.31934V17.0156C3.78223 18.8965 4.77539 19.8809 6.67383 19.8809ZM6.78809 18.1318C5.97949 18.1318 5.53125 17.71 5.53125 16.8574V6.47754C5.53125 5.625 5.97949 5.20312 6.78809 5.20312H17.2031C18.0029 5.20312 18.46 5.625 18.46 6.47754V16.8574C18.46 17.71 18.0029 18.1318 17.2031 18.1318H6.78809ZM10.2773 15.3369C10.6465 15.3369 10.8574 15.0732 10.8574 14.7129V13.79H11.2617C11.5957 13.79 11.7979 13.5879 11.7979 13.2539C11.7979 12.9111 11.5869 12.709 11.2617 12.709H10.8574V8.89453C10.8574 8.32324 10.4883 7.96289 9.9082 7.96289C9.3457 7.96289 9.01172 8.17383 8.71289 8.70117C8.0625 9.82617 7.2627 11.2412 6.75293 12.208C6.6123 12.4893 6.55078 12.7178 6.55078 12.9902C6.55078 13.4912 6.86719 13.79 7.35938 13.79H9.70605V14.7129C9.70605 15.0732 9.9082 15.3369 10.2773 15.3369ZM15.041 15.3457C16.5088 15.3457 17.502 13.9922 17.502 11.6543C17.502 9.30762 16.5088 7.96289 15.041 7.96289C13.5645 7.96289 12.5889 9.30762 12.5889 11.6543C12.5889 13.9922 13.5645 15.3457 15.041 15.3457ZM15.041 14.1592C14.3115 14.1592 13.8545 13.2539 13.8545 11.6543C13.8545 10.0547 14.3115 9.14941 15.041 9.14941C15.7705 9.14941 16.2275 10.0547 16.2275 11.6543C16.2275 13.2539 15.7793 14.1592 15.041 14.1592ZM9.70605 12.7178H7.79004V12.6738C8.24707 11.7773 9.04688 10.3096 9.66211 9.22852H9.70605V12.7178Z" fill="#1C1C1E"/>
</g>
<defs>
<clipPath id="clip0_10_2100">
<rect width="24" height="24" fill="white"/>
</clipPath>
</defs>
</svg>
