<svg width="24" height="24" viewBox="0 0 24 24" fill="none" xmlns="http://www.w3.org/2000/svg">
<g clip-path="url(#clip0_10_2097)">
<path d="M6.67383 19.8809H17.3174C19.2246 19.8809 20.209 18.8965 20.209 17.0156V6.31934C20.209 4.43848 19.2246 3.4541 17.3174 3.4541H6.67383C4.77539 3.4541 3.78223 4.42969 3.78223 6.31934V17.0156C3.78223 18.8965 4.77539 19.8809 6.67383 19.8809ZM10.2246 15.4863C9.84668 15.4863 9.63574 15.2051 9.63574 14.8271V13.8779H7.20996C6.69141 13.8779 6.35742 13.5703 6.35742 13.043C6.35742 12.7529 6.41895 12.5156 6.56836 12.2168C7.0957 11.2148 7.91309 9.75586 8.59863 8.58691C8.90625 8.04199 9.25781 7.81348 9.83789 7.81348C10.4531 7.81348 10.8398 8.2002 10.8398 8.78906V12.7441H11.2529C11.5957 12.7441 11.8066 12.9639 11.8066 13.3242C11.8066 13.667 11.5957 13.8779 11.2529 13.8779H10.8398V14.8271C10.8398 15.2139 10.6201 15.4863 10.2246 15.4863ZM15.1816 15.4951C13.6523 15.4951 12.6328 14.0977 12.6328 11.6543C12.6328 9.21094 13.6523 7.81348 15.1816 7.81348C16.7109 7.81348 17.7393 9.21094 17.7393 11.6543C17.7393 14.0977 16.7109 15.4951 15.1816 15.4951ZM15.1816 14.2471C15.9463 14.2471 16.4033 13.3154 16.4033 11.6543C16.4033 9.99316 15.9375 9.06152 15.1816 9.06152C14.4258 9.06152 13.96 9.99316 13.96 11.6543C13.96 13.3154 14.4258 14.2471 15.1816 14.2471ZM9.63574 12.7529V9.14062H9.58301C8.9502 10.2656 8.13281 11.7773 7.6582 12.709V12.7529H9.63574Z" fill="#1C1C1E"/>
</g>
<defs>
<clipPath id="clip0_10_2097">
<rect width="24" height="24" fill="white"/>
</clipPath>
</defs>
</svg>
