<svg width="24" height="24" viewBox="0 0 24 24" fill="none" xmlns="http://www.w3.org/2000/svg">
<g clip-path="url(#clip0_10_2317)">
<path d="M11.9912 20.7422C16.9746 20.7422 21.0879 16.6289 21.0879 11.6543C21.0879 6.67969 16.9658 2.56641 11.9824 2.56641C7.00781 2.56641 2.90332 6.67969 2.90332 11.6543C2.90332 16.6289 7.0166 20.7422 11.9912 20.7422ZM11.9912 18.9316C7.95703 18.9316 4.73145 15.6885 4.73145 11.6543C4.73145 7.62012 7.95703 4.38574 11.9824 4.38574C16.0166 4.38574 19.2598 7.62012 19.2686 11.6543C19.2773 15.6885 16.0254 18.9316 11.9912 18.9316ZM10.6904 15.3457C11.0684 15.3457 11.2793 15.082 11.2793 14.7217V13.79H11.6836C12.0088 13.79 12.2109 13.5967 12.2109 13.2627C12.2109 12.9199 12.0088 12.7178 11.6836 12.7178H11.2793V8.89453C11.2793 8.33203 10.9102 7.96289 10.3301 7.96289C9.76758 7.96289 9.4248 8.18262 9.13477 8.70996C8.47559 9.83496 7.68457 11.25 7.16602 12.208C7.03418 12.498 6.97266 12.7178 6.97266 12.9902C6.97266 13.5 7.28027 13.7988 7.78125 13.7988H10.1191V14.7217C10.1191 15.0732 10.3301 15.3457 10.6904 15.3457ZM15.4541 15.2666C15.8408 15.2666 16.0781 15.0293 16.0781 14.6162V8.75391C16.0781 8.30566 15.7969 8.01562 15.3574 8.01562C15.0586 8.01562 14.8652 8.09473 14.5312 8.34961L13.3096 9.21973C13.0898 9.39551 12.9756 9.5625 12.9756 9.81738C12.9756 10.125 13.2305 10.3799 13.5117 10.3799C13.6875 10.3799 13.793 10.3447 13.9951 10.1777L14.8037 9.54492H14.8564V14.6162C14.8564 15.0293 15.085 15.2666 15.4541 15.2666ZM10.1191 12.7178H8.21191V12.6826C8.66016 11.7773 9.46875 10.3184 10.0752 9.2373H10.1191V12.7178Z" fill="#1C1C1E"/>
</g>
<defs>
<clipPath id="clip0_10_2317">
<rect width="24" height="24" fill="white"/>
</clipPath>
</defs>
</svg>
