<svg width="24" height="24" viewBox="0 0 24 24" fill="none" xmlns="http://www.w3.org/2000/svg">
<g clip-path="url(#clip0_10_2076)">
<path d="M11.9912 20.7422C16.9746 20.7422 21.0879 16.6289 21.0879 11.6543C21.0879 6.67969 16.9658 2.56641 11.9824 2.56641C7.00781 2.56641 2.90332 6.67969 2.90332 11.6543C2.90332 16.6289 7.0166 20.7422 11.9912 20.7422ZM10.6377 15.4863C10.2598 15.4863 10.04 15.2051 10.04 14.8271V13.8779H7.61426C7.0957 13.8779 6.77051 13.5703 6.77051 13.043C6.77051 12.7529 6.83203 12.5156 6.97266 12.2168C7.50879 11.2148 8.31738 9.76465 9.00293 8.58691C9.31055 8.04199 9.6709 7.81348 10.2598 7.81348C10.8662 7.81348 11.2441 8.2002 11.2441 8.78906V12.7441H11.6572C12.0088 12.7441 12.2197 12.9639 12.2197 13.3242C12.2197 13.667 12.0088 13.8779 11.6572 13.8779H11.2441V14.8271C11.2441 15.2139 11.0332 15.4863 10.6377 15.4863ZM15.5859 15.4072C15.1992 15.4072 14.9619 15.1523 14.9619 14.7217V9.46582H14.9092L14.0742 10.1162C13.8545 10.292 13.7578 10.3271 13.5732 10.3271C13.2744 10.3271 13.002 10.0635 13.002 9.73828C13.002 9.4834 13.1338 9.29883 13.3535 9.12305L14.6191 8.21777C14.9707 7.9541 15.1729 7.86621 15.4893 7.86621C15.9551 7.86621 16.2363 8.16504 16.2363 8.63086V14.7217C16.2363 15.1523 15.999 15.4072 15.5859 15.4072ZM10.04 12.7529V9.14062H9.99609C9.36328 10.2656 8.53711 11.7773 8.07129 12.709V12.7529H10.04Z" fill="#1C1C1E"/>
</g>
<defs>
<clipPath id="clip0_10_2076">
<rect width="24" height="24" fill="white"/>
</clipPath>
</defs>
</svg>
