<svg width="24" height="24" viewBox="0 0 24 24" fill="none" xmlns="http://www.w3.org/2000/svg">
<g clip-path="url(#clip0_10_2088)">
<path d="M6.67383 19.8809H17.3174C19.2246 19.8809 20.209 18.8965 20.209 17.0156V6.31934C20.209 4.43848 19.2246 3.4541 17.3174 3.4541H6.67383C4.77539 3.4541 3.78223 4.42969 3.78223 6.31934V17.0156C3.78223 18.8965 4.77539 19.8809 6.67383 19.8809ZM10.6729 15.4863C10.2949 15.4863 10.0752 15.2051 10.0752 14.8271V13.8779H7.64941C7.13086 13.8779 6.80566 13.5703 6.80566 13.043C6.80566 12.7529 6.86719 12.5156 7.00781 12.2168C7.54395 11.2148 8.36133 9.76465 9.03809 8.58691C9.3457 8.04199 9.70605 7.81348 10.2949 7.81348C10.9014 7.81348 11.2793 8.2002 11.2793 8.78906V12.7441H11.6924C12.0439 12.7441 12.2549 12.9639 12.2549 13.3242C12.2549 13.667 12.0439 13.8779 11.6924 13.8779H11.2793V14.8271C11.2793 15.2139 11.0684 15.4863 10.6729 15.4863ZM15.6211 15.4072C15.2344 15.4072 14.9971 15.1523 14.9971 14.7217V9.46582H14.9443L14.1094 10.1162C13.8896 10.292 13.793 10.3271 13.6084 10.3271C13.3096 10.3271 13.0459 10.0635 13.0459 9.73828C13.0459 9.4834 13.1689 9.29883 13.3975 9.12305L14.6543 8.21777C15.0059 7.9541 15.2168 7.86621 15.5244 7.86621C15.9902 7.86621 16.2715 8.16504 16.2715 8.63086V14.7217C16.2715 15.1523 16.0342 15.4072 15.6211 15.4072ZM10.0752 12.7529V9.14062H10.0312C9.39844 10.2656 8.57227 11.7773 8.10645 12.709V12.7529H10.0752Z" fill="#1C1C1E"/>
</g>
<defs>
<clipPath id="clip0_10_2088">
<rect width="24" height="24" fill="white"/>
</clipPath>
</defs>
</svg>
