<svg width="24" height="24" viewBox="0 0 24 24" fill="none" xmlns="http://www.w3.org/2000/svg">
<g clip-path="url(#clip0_10_2091)">
<path d="M6.67383 19.8809H17.3174C19.2246 19.8809 20.209 18.8965 20.209 17.0156V6.31934C20.209 4.43848 19.2246 3.4541 17.3174 3.4541H6.67383C4.77539 3.4541 3.78223 4.42969 3.78223 6.31934V17.0156C3.78223 18.8965 4.77539 19.8809 6.67383 19.8809ZM6.78809 18.1318C5.97949 18.1318 5.53125 17.71 5.53125 16.8574V6.47754C5.53125 5.625 5.97949 5.20312 6.78809 5.20312H17.2031C18.0029 5.20312 18.46 5.625 18.46 6.47754V16.8574C18.46 17.71 18.0029 18.1318 17.2031 18.1318H6.78809ZM10.708 15.3369C11.0859 15.3369 11.2881 15.0732 11.2881 14.7129V13.79H11.6924C12.0264 13.79 12.2285 13.5879 12.2285 13.2539C12.2285 12.9111 12.0264 12.709 11.6924 12.709H11.2881V8.89453C11.2881 8.32324 10.9277 7.96289 10.3389 7.96289C9.78516 7.96289 9.44238 8.17383 9.15234 8.70117C8.49316 9.82617 7.69336 11.2412 7.18359 12.208C7.04297 12.4893 6.98145 12.7178 6.98145 12.9902C6.98145 13.4912 7.29785 13.79 7.79004 13.79H10.1367V14.7129C10.1367 15.0732 10.3389 15.3369 10.708 15.3369ZM15.4717 15.2666C15.8584 15.2666 16.0869 15.0205 16.0869 14.6074V8.74512C16.0869 8.29688 15.8145 8.00684 15.375 8.00684C15.0762 8.00684 14.874 8.09473 14.54 8.34961L13.3184 9.21094C13.1074 9.38672 12.9932 9.5625 12.9932 9.80859C12.9932 10.1162 13.248 10.3711 13.5293 10.3711C13.7051 10.3711 13.8018 10.3359 14.0039 10.1689L14.8213 9.54492H14.8652V14.6074C14.8652 15.0205 15.0938 15.2666 15.4717 15.2666ZM10.1367 12.7178H8.22949V12.6738C8.67773 11.7773 9.47754 10.3096 10.0928 9.22852H10.1367V12.7178Z" fill="#1C1C1E"/>
</g>
<defs>
<clipPath id="clip0_10_2091">
<rect width="24" height="24" fill="white"/>
</clipPath>
</defs>
</svg>
