<svg width="24" height="24" viewBox="0 0 24 24" fill="none" xmlns="http://www.w3.org/2000/svg">
<g clip-path="url(#clip0_10_2106)">
<path d="M11.9912 20.7422C16.9746 20.7422 21.0879 16.6289 21.0879 11.6543C21.0879 6.67969 16.9658 2.56641 11.9824 2.56641C7.00781 2.56641 2.90332 6.67969 2.90332 11.6543C2.90332 16.6289 7.0166 20.7422 11.9912 20.7422ZM11.9912 18.9316C7.95703 18.9316 4.73145 15.6885 4.73145 11.6543C4.73145 7.62012 7.95703 4.38574 11.9824 4.38574C16.0166 4.38574 19.2598 7.62012 19.2686 11.6543C19.2773 15.6885 16.0254 18.9316 11.9912 18.9316ZM10.3037 15.3457C10.6816 15.3457 10.8838 15.082 10.8838 14.7217V13.79H11.2881C11.6221 13.79 11.8242 13.5967 11.8242 13.2627C11.8242 12.9199 11.6221 12.7178 11.2881 12.7178H10.8838V8.89453C10.8838 8.33203 10.5234 7.96289 9.93457 7.96289C9.38086 7.96289 9.03809 8.18262 8.74805 8.70996C8.08887 9.83496 7.28906 11.25 6.7793 12.208C6.63867 12.498 6.57715 12.7178 6.57715 12.9902C6.57715 13.5 6.89355 13.7988 7.38574 13.7988H9.73242V14.7217C9.73242 15.0732 9.93457 15.3457 10.3037 15.3457ZM13.248 15.1699H16.6494C16.9746 15.1699 17.2031 14.9414 17.2031 14.5811C17.2031 14.2207 16.9746 14.0098 16.6494 14.0098H14.3906V13.957L15.9111 12.1729C16.5615 11.417 17.0186 10.793 17.0186 9.94922C17.0098 8.75391 16.1484 7.96289 14.7949 7.96289C13.7666 7.96289 12.8613 8.61328 12.6328 9.50098C12.6064 9.61523 12.5889 9.7207 12.5889 9.83496C12.5889 10.1777 12.791 10.4062 13.125 10.4062C13.415 10.4062 13.5557 10.2393 13.6699 9.9668C13.8633 9.38672 14.2588 9.08789 14.8213 9.08789C15.4453 9.08789 15.8584 9.4834 15.8584 10.0547C15.8584 10.582 15.4365 11.0303 15.0234 11.5137L12.9053 14.0098C12.7383 14.1943 12.668 14.3789 12.668 14.5811C12.668 14.9414 12.9053 15.1699 13.248 15.1699ZM9.73242 12.7178H7.8252V12.6826C8.27344 11.7773 9.07324 10.3184 9.68848 9.2373H9.73242V12.7178Z" fill="#1C1C1E"/>
</g>
<defs>
<clipPath id="clip0_10_2106">
<rect width="24" height="24" fill="white"/>
</clipPath>
</defs>
</svg>
