<svg width="24" height="24" viewBox="0 0 24 24" fill="none" xmlns="http://www.w3.org/2000/svg">
<g clip-path="url(#clip0_10_1852)">
<path d="M11.9912 20.7422C16.9746 20.7422 21.0879 16.6289 21.0879 11.6543C21.0879 6.67969 16.9658 2.56641 11.9824 2.56641C7.00781 2.56641 2.90332 6.67969 2.90332 11.6543C2.90332 16.6289 7.0166 20.7422 11.9912 20.7422ZM10.2334 15.4863C9.85547 15.4863 9.64453 15.2051 9.64453 14.8271V13.8779H7.20996C6.7002 13.8779 6.36621 13.5703 6.36621 13.043C6.36621 12.7529 6.43652 12.5156 6.57715 12.2168C7.11328 11.2148 7.93066 9.76465 8.60742 8.58691C8.91504 8.04199 9.27539 7.81348 9.85547 7.81348C10.4707 7.81348 10.8486 8.2002 10.8486 8.78906V12.7441H11.2705C11.6045 12.7441 11.8242 12.9639 11.8242 13.3242C11.8242 13.667 11.6133 13.8779 11.2705 13.8779H10.8486V14.8271C10.8486 15.2139 10.6377 15.4863 10.2334 15.4863ZM13.3008 15.3018C12.9404 15.3018 12.6943 15.0645 12.6943 14.6865C12.6943 14.4668 12.7646 14.2822 12.9404 14.0801L15.1377 11.4961C15.5684 11.0039 16.0078 10.5381 16.0078 9.99316C16.0078 9.39551 15.5771 8.99121 14.9355 8.99121C14.3555 8.99121 13.9512 9.29004 13.749 9.90527C13.626 10.1777 13.4766 10.3535 13.1777 10.3535C12.8262 10.3535 12.6152 10.1162 12.6152 9.75586C12.6152 9.6416 12.6328 9.52734 12.6592 9.4043C12.8965 8.48145 13.8457 7.81348 14.918 7.81348C16.3154 7.81348 17.2119 8.63086 17.2207 9.87891C17.2207 10.7578 16.7461 11.3994 16.0781 12.1904L14.4961 14.0273V14.0977H16.834C17.1768 14.0977 17.4141 14.3086 17.4141 14.6865C17.4141 15.0645 17.1768 15.3018 16.834 15.3018H13.3008ZM9.64453 12.7529V9.14062H9.60059C8.95898 10.2656 8.1416 11.7773 7.66699 12.709V12.7529H9.64453Z" fill="#1C1C1E"/>
</g>
<defs>
<clipPath id="clip0_10_1852">
<rect width="24" height="24" fill="white"/>
</clipPath>
</defs>
</svg>
