<svg width="24" height="24" viewBox="0 0 24 24" fill="none" xmlns="http://www.w3.org/2000/svg">
<g clip-path="url(#clip0_10_2312)">
<path d="M6.67383 19.8809H17.3174C19.2246 19.8809 20.209 18.8965 20.209 17.0156V6.31934C20.209 4.43848 19.2246 3.4541 17.3174 3.4541H6.67383C4.77539 3.4541 3.78223 4.42969 3.78223 6.31934V17.0156C3.78223 18.8965 4.77539 19.8809 6.67383 19.8809ZM10.2773 15.4863C9.89062 15.4863 9.67969 15.2051 9.67969 14.8271V13.8779H7.24512C6.73535 13.8779 6.40137 13.5703 6.40137 13.043C6.40137 12.7529 6.47168 12.5156 6.6123 12.2168C7.14844 11.2148 7.96582 9.76465 8.64258 8.58691C8.9502 8.04199 9.31055 7.81348 9.89062 7.81348C10.5059 7.81348 10.8838 8.2002 10.8838 8.78906V12.7441H11.3057C11.6484 12.7441 11.8594 12.9639 11.8594 13.3242C11.8594 13.667 11.6484 13.8779 11.3057 13.8779H10.8838V14.8271C10.8838 15.2139 10.6729 15.4863 10.2773 15.4863ZM13.3359 15.3018C12.9756 15.3018 12.7295 15.0645 12.7295 14.6865C12.7295 14.4668 12.7998 14.2822 12.9756 14.0801L15.1729 11.4961C15.6035 11.0039 16.043 10.5381 16.043 9.99316C16.043 9.39551 15.6123 8.99121 14.9707 8.99121C14.3906 8.99121 13.9863 9.29004 13.7842 9.90527C13.6611 10.1777 13.5117 10.3535 13.2129 10.3535C12.8613 10.3535 12.6504 10.1162 12.6504 9.75586C12.6504 9.6416 12.668 9.52734 12.6943 9.4043C12.9316 8.48145 13.8809 7.81348 14.9531 7.81348C16.3506 7.81348 17.2471 8.63086 17.2559 9.87891C17.2559 10.7578 16.7812 11.3994 16.1133 12.1904L14.5312 14.0273V14.0977H16.8691C17.2119 14.0977 17.4492 14.3086 17.4492 14.6865C17.4492 15.0645 17.2119 15.3018 16.8691 15.3018H13.3359ZM9.67969 12.7529V9.14062H9.63574C8.99414 10.2656 8.17676 11.7773 7.70215 12.709V12.7529H9.67969Z" fill="#1C1C1E"/>
</g>
<defs>
<clipPath id="clip0_10_2312">
<rect width="24" height="24" fill="white"/>
</clipPath>
</defs>
</svg>
