<svg width="24" height="24" viewBox="0 0 24 24" fill="none" xmlns="http://www.w3.org/2000/svg">
<g clip-path="url(#clip0_10_1851)">
<path d="M6.67383 19.8809H17.3174C19.2246 19.8809 20.209 18.8965 20.209 17.0156V6.31934C20.209 4.43848 19.2246 3.4541 17.3174 3.4541H6.67383C4.77539 3.4541 3.78223 4.42969 3.78223 6.31934V17.0156C3.78223 18.8965 4.77539 19.8809 6.67383 19.8809ZM6.78809 18.1318C5.97949 18.1318 5.53125 17.71 5.53125 16.8574V6.47754C5.53125 5.625 5.97949 5.20312 6.78809 5.20312H17.2031C18.0029 5.20312 18.46 5.625 18.46 6.47754V16.8574C18.46 17.71 18.0029 18.1318 17.2031 18.1318H6.78809ZM10.3125 15.3369C10.6904 15.3369 10.9014 15.0732 10.9014 14.7129V13.79H11.3057C11.6309 13.79 11.833 13.5879 11.833 13.2539C11.833 12.9111 11.6309 12.709 11.3057 12.709H10.9014V8.89453C10.9014 8.32324 10.5322 7.96289 9.95215 7.96289C9.38965 7.96289 9.05566 8.17383 8.75684 8.70117C8.10645 9.82617 7.30664 11.2412 6.78809 12.208C6.65625 12.4893 6.59473 12.7178 6.59473 12.9902C6.59473 13.4912 6.91113 13.79 7.40332 13.79H9.75V14.7129C9.75 15.0732 9.95215 15.3369 10.3125 15.3369ZM13.2656 15.1611H16.667C16.9922 15.1611 17.2207 14.9326 17.2207 14.5811C17.2207 14.2207 16.9922 14.0098 16.667 14.0098H14.3994V13.9482L15.9287 12.1641C16.5791 11.4082 17.0361 10.793 17.0273 9.94922C17.0273 8.74512 16.166 7.96289 14.8125 7.96289C13.7842 7.96289 12.8789 8.60449 12.6504 9.49219C12.624 9.60645 12.6064 9.71191 12.6064 9.82617C12.6064 10.1689 12.8086 10.3975 13.1426 10.3975C13.4238 10.3975 13.5732 10.2305 13.6875 9.9668C13.8809 9.37793 14.2764 9.08789 14.8389 9.08789C15.4629 9.08789 15.876 9.47461 15.876 10.0547C15.876 10.582 15.4541 11.0215 15.041 11.5137L12.9229 14.001C12.7471 14.1943 12.6855 14.3701 12.6855 14.5723C12.6855 14.9326 12.9141 15.1611 13.2656 15.1611ZM9.75 12.7178H7.83398V12.6738C8.29102 11.7773 9.09082 10.3096 9.70605 9.22852H9.75V12.7178Z" fill="#1C1C1E"/>
</g>
<defs>
<clipPath id="clip0_10_1851">
<rect width="24" height="24" fill="white"/>
</clipPath>
</defs>
</svg>
