<svg width="24" height="24" viewBox="0 0 24 24" fill="none" xmlns="http://www.w3.org/2000/svg">
<g clip-path="url(#clip0_10_2292)">
<path d="M11.9912 20.7422C16.9746 20.7422 21.0879 16.6289 21.0879 11.6543C21.0879 6.67969 16.9658 2.56641 11.9824 2.56641C7.00781 2.56641 2.90332 6.67969 2.90332 11.6543C2.90332 16.6289 7.0166 20.7422 11.9912 20.7422ZM11.9912 18.9316C7.95703 18.9316 4.73145 15.6885 4.73145 11.6543C4.73145 7.62012 7.95703 4.38574 11.9824 4.38574C16.0166 4.38574 19.2598 7.62012 19.2686 11.6543C19.2773 15.6885 16.0254 18.9316 11.9912 18.9316ZM10.3213 15.3457C10.6904 15.3457 10.9014 15.082 10.9014 14.7217V13.79H11.3057C11.6396 13.79 11.8418 13.5967 11.8418 13.2627C11.8418 12.9199 11.6309 12.7178 11.3057 12.7178H10.9014V8.89453C10.9014 8.33203 10.5322 7.96289 9.95215 7.96289C9.38965 7.96289 9.05566 8.18262 8.75684 8.70996C8.10645 9.83496 7.30664 11.25 6.79688 12.208C6.65625 12.498 6.59473 12.7178 6.59473 12.9902C6.59473 13.5 6.91113 13.7988 7.40332 13.7988H9.75V14.7217C9.75 15.0732 9.95215 15.3457 10.3213 15.3457ZM14.9092 15.3545C16.3857 15.3545 17.3965 14.4844 17.3965 13.2363C17.3965 12.3311 16.7812 11.5928 15.9375 11.5137V11.4521C16.6318 11.3379 17.1768 10.6348 17.1768 9.84375C17.1768 8.73633 16.2715 7.96289 14.9531 7.96289C13.8018 7.96289 12.958 8.63965 12.7295 9.42188C12.6943 9.55371 12.6855 9.65039 12.6855 9.77344C12.6855 10.125 12.9053 10.3447 13.2217 10.3447C13.5029 10.3447 13.6611 10.2041 13.7578 9.93164C13.9512 9.37793 14.3291 9.0791 14.9268 9.0791C15.542 9.0791 15.9727 9.45703 15.9727 10.0107C15.9727 10.5732 15.5508 10.9951 14.9268 10.9951H14.5312C14.2061 10.9951 13.9951 11.2148 13.9951 11.5576C13.9951 11.8828 14.1973 12.1289 14.5312 12.1289H14.9619C15.6914 12.1289 16.1572 12.542 16.1572 13.166C16.1572 13.7637 15.6562 14.2207 14.918 14.2207C14.3115 14.2207 13.8721 13.9219 13.6436 13.3682C13.5293 13.0957 13.3711 12.9639 13.1074 12.9639C12.7998 12.9639 12.5537 13.1836 12.5537 13.5264C12.5537 13.6582 12.5713 13.7549 12.6064 13.8691C12.835 14.6426 13.7578 15.3545 14.9092 15.3545ZM9.75 12.7178H7.83398V12.6826C8.29102 11.7773 9.09082 10.3184 9.70605 9.2373H9.75V12.7178Z" fill="#1C1C1E"/>
</g>
<defs>
<clipPath id="clip0_10_2292">
<rect width="24" height="24" fill="white"/>
</clipPath>
</defs>
</svg>
