<svg width="24" height="24" viewBox="0 0 24 24" fill="none" xmlns="http://www.w3.org/2000/svg">
<g clip-path="url(#clip0_10_1850)">
<path d="M11.9912 20.7422C16.9746 20.7422 21.0879 16.6289 21.0879 11.6543C21.0879 6.67969 16.9658 2.56641 11.9824 2.56641C7.00781 2.56641 2.90332 6.67969 2.90332 11.6543C2.90332 16.6289 7.0166 20.7422 11.9912 20.7422ZM10.251 15.4863C9.86426 15.4863 9.65332 15.2051 9.65332 14.8271V13.8779H7.22754C6.70898 13.8779 6.38379 13.5703 6.38379 13.043C6.38379 12.7529 6.44531 12.5156 6.59473 12.2168C7.12207 11.2148 7.93945 9.76465 8.61621 8.58691C8.92383 8.04199 9.28418 7.81348 9.87305 7.81348C10.4795 7.81348 10.8574 8.2002 10.8574 8.78906V12.7441H11.2793C11.6221 12.7441 11.833 12.9639 11.833 13.3242C11.833 13.667 11.6221 13.8779 11.2793 13.8779H10.8574V14.8271C10.8574 15.2139 10.6465 15.4863 10.251 15.4863ZM15.0234 15.4951C13.8193 15.4951 12.8613 14.7568 12.624 13.957C12.5977 13.834 12.5801 13.7285 12.5801 13.5967C12.5801 13.2363 12.835 12.999 13.1514 12.999C13.4238 12.999 13.5996 13.1396 13.7139 13.4209C13.9512 14.001 14.3994 14.3086 15.041 14.3086C15.7881 14.3086 16.3154 13.834 16.3154 13.2275C16.3154 12.5684 15.8408 12.1465 15.0762 12.1465H14.6367C14.2764 12.1465 14.0654 11.8916 14.0654 11.5576C14.0654 11.1885 14.2939 10.9512 14.6367 10.9512H15.041C15.6826 10.9512 16.1221 10.5205 16.1221 9.94043C16.1221 9.36914 15.6738 8.98242 15.0498 8.98242C14.4258 8.98242 14.0303 9.29004 13.8369 9.87012C13.7227 10.1514 13.5645 10.292 13.2744 10.292C12.9316 10.292 12.7119 10.0547 12.7119 9.69434C12.7119 9.5625 12.7207 9.45703 12.7646 9.3252C12.9844 8.5166 13.8721 7.81348 15.0762 7.81348C16.4385 7.81348 17.3789 8.61328 17.3789 9.76465C17.3789 10.582 16.8164 11.3203 16.0957 11.4346V11.4961C16.9746 11.584 17.6074 12.3398 17.6074 13.2891C17.6074 14.5898 16.5527 15.4951 15.0234 15.4951ZM9.65332 12.7529V9.14062H9.60938C8.97656 10.2656 8.15039 11.7773 7.68457 12.709V12.7529H9.65332Z" fill="#1C1C1E"/>
</g>
<defs>
<clipPath id="clip0_10_1850">
<rect width="24" height="24" fill="white"/>
</clipPath>
</defs>
</svg>
