<svg width="24" height="24" viewBox="0 0 24 24" fill="none" xmlns="http://www.w3.org/2000/svg">
<g clip-path="url(#clip0_10_1849)">
<path d="M6.67383 19.8809H17.3174C19.2246 19.8809 20.209 18.8965 20.209 17.0156V6.31934C20.209 4.43848 19.2246 3.4541 17.3174 3.4541H6.67383C4.77539 3.4541 3.78223 4.42969 3.78223 6.31934V17.0156C3.78223 18.8965 4.77539 19.8809 6.67383 19.8809ZM6.78809 18.1318C5.97949 18.1318 5.53125 17.71 5.53125 16.8574V6.47754C5.53125 5.625 5.97949 5.20312 6.78809 5.20312H17.2031C18.0029 5.20312 18.46 5.625 18.46 6.47754V16.8574C18.46 17.71 18.0029 18.1318 17.2031 18.1318H6.78809ZM10.3301 15.3369C10.708 15.3369 10.9189 15.0732 10.9189 14.7129V13.79H11.3232C11.6484 13.79 11.8506 13.5879 11.8506 13.2539C11.8506 12.9111 11.6484 12.709 11.3232 12.709H10.9189V8.89453C10.9189 8.32324 10.5498 7.96289 9.96973 7.96289C9.40723 7.96289 9.07324 8.17383 8.77441 8.70117C8.11523 9.82617 7.32422 11.2412 6.80566 12.208C6.67383 12.4893 6.6123 12.7178 6.6123 12.9902C6.6123 13.4912 6.92871 13.79 7.4209 13.79H9.75879V14.7129C9.75879 15.0732 9.96973 15.3369 10.3301 15.3369ZM14.9268 15.3457C16.3945 15.3457 17.4053 14.4756 17.4053 13.2275C17.4053 12.3223 16.7988 11.584 15.9463 11.5049V11.4521C16.6494 11.3291 17.1943 10.626 17.1943 9.83496C17.1943 8.72754 16.2891 7.96289 14.9707 7.96289C13.8105 7.96289 12.9668 8.63086 12.7471 9.41309C12.7119 9.54492 12.7031 9.6416 12.7031 9.77344C12.7031 10.1162 12.9229 10.3447 13.2393 10.3447C13.5205 10.3447 13.6699 10.2041 13.7754 9.93164C13.9688 9.36914 14.3467 9.07031 14.9443 9.07031C15.5596 9.07031 15.9814 9.44824 15.9814 10.002C15.9814 10.5645 15.5684 10.9863 14.9443 10.9863H14.5488C14.2236 10.9863 14.0039 11.2148 14.0039 11.5576C14.0039 11.874 14.2061 12.1201 14.5488 12.1201H14.9707C15.709 12.1201 16.1748 12.5332 16.1748 13.166C16.1748 13.7549 15.6738 14.2207 14.9355 14.2207C14.3291 14.2207 13.8896 13.9219 13.6611 13.3594C13.5469 13.0957 13.3799 12.9551 13.1162 12.9551C12.8174 12.9551 12.5713 13.1748 12.5713 13.5264C12.5713 13.6494 12.5889 13.7461 12.624 13.8691C12.8438 14.6426 13.7666 15.3457 14.9268 15.3457ZM9.75879 12.7178H7.85156V12.6738C8.30859 11.7773 9.1084 10.3096 9.71484 9.22852H9.75879V12.7178Z" fill="#1C1C1E"/>
</g>
<defs>
<clipPath id="clip0_10_1849">
<rect width="24" height="24" fill="white"/>
</clipPath>
</defs>
</svg>
