<svg width="24" height="24" viewBox="0 0 24 24" fill="none" xmlns="http://www.w3.org/2000/svg">
<g clip-path="url(#clip0_10_1848)">
<path d="M6.67383 19.8809H17.3174C19.2246 19.8809 20.209 18.8965 20.209 17.0156V6.31934C20.209 4.43848 19.2246 3.4541 17.3174 3.4541H6.67383C4.77539 3.4541 3.78223 4.42969 3.78223 6.31934V17.0156C3.78223 18.8965 4.77539 19.8809 6.67383 19.8809ZM10.2861 15.4863C9.89941 15.4863 9.68848 15.2051 9.68848 14.8271V13.8779H7.2627C6.74414 13.8779 6.41895 13.5703 6.41895 13.043C6.41895 12.7529 6.48047 12.5156 6.62988 12.2168C7.15723 11.2148 7.97461 9.76465 8.65137 8.58691C8.95898 8.04199 9.31934 7.81348 9.9082 7.81348C10.5146 7.81348 10.9014 8.2002 10.9014 8.78906V12.7441H11.3145C11.6572 12.7441 11.8682 12.9639 11.8682 13.3242C11.8682 13.667 11.6572 13.8779 11.3145 13.8779H10.9014V14.8271C10.9014 15.2139 10.6816 15.4863 10.2861 15.4863ZM15.0586 15.4951C13.8545 15.4951 12.8965 14.7568 12.6592 13.957C12.6328 13.834 12.6152 13.7285 12.6152 13.5967C12.6152 13.2363 12.8701 12.999 13.1865 12.999C13.459 12.999 13.6348 13.1396 13.749 13.4209C13.9863 14.001 14.4346 14.3086 15.0762 14.3086C15.8232 14.3086 16.3506 13.834 16.3506 13.2275C16.3506 12.5684 15.876 12.1465 15.1113 12.1465H14.6719C14.3115 12.1465 14.1006 11.8916 14.1006 11.5576C14.1006 11.1885 14.3291 10.9512 14.6719 10.9512H15.0762C15.7178 10.9512 16.1572 10.5205 16.1572 9.94043C16.1572 9.36914 15.709 8.98242 15.085 8.98242C14.4609 8.98242 14.0654 9.29004 13.8721 9.87012C13.7578 10.1514 13.5996 10.292 13.3096 10.292C12.9668 10.292 12.7471 10.0547 12.7471 9.69434C12.7471 9.5625 12.7559 9.45703 12.7998 9.3252C13.0195 8.5166 13.9072 7.81348 15.1113 7.81348C16.4736 7.81348 17.4141 8.61328 17.4141 9.76465C17.4141 10.582 16.8516 11.3203 16.1309 11.4346V11.4961C17.0098 11.584 17.6426 12.3398 17.6426 13.2891C17.6426 14.5898 16.5879 15.4951 15.0586 15.4951ZM9.68848 12.7529V9.14062H9.64453C9.01172 10.2656 8.18555 11.7773 7.71973 12.709V12.7529H9.68848Z" fill="#1C1C1E"/>
</g>
<defs>
<clipPath id="clip0_10_1848">
<rect width="24" height="24" fill="white"/>
</clipPath>
</defs>
</svg>
