<svg width="24" height="24" viewBox="0 0 24 24" fill="none" xmlns="http://www.w3.org/2000/svg">
<g clip-path="url(#clip0_10_2320)">
<path d="M11.9912 20.7422C16.9746 20.7422 21.0879 16.6289 21.0879 11.6543C21.0879 6.67969 16.9658 2.56641 11.9824 2.56641C7.00781 2.56641 2.90332 6.67969 2.90332 11.6543C2.90332 16.6289 7.0166 20.7422 11.9912 20.7422ZM10.0137 15.4863C9.63574 15.4863 9.4248 15.2051 9.4248 14.8271V13.8779H6.99902C6.48047 13.8779 6.15527 13.5703 6.15527 13.043C6.15527 12.7529 6.2168 12.5156 6.35742 12.2168C6.88477 11.2148 7.71094 9.76465 8.3877 8.58691C8.7041 8.04199 9.04688 7.81348 9.63574 7.81348C10.251 7.81348 10.6377 8.2002 10.6377 8.78906V12.7441H11.0508C11.3848 12.7441 11.6045 12.9639 11.6045 13.3242C11.6045 13.667 11.3936 13.8779 11.0508 13.8779H10.6377V14.8271C10.6377 15.2139 10.418 15.4863 10.0137 15.4863ZM16.1484 15.4863C15.7705 15.4863 15.5596 15.2051 15.5596 14.8271V13.8779H13.125C12.6064 13.8779 12.2812 13.5703 12.2812 13.043C12.2812 12.7529 12.3428 12.5156 12.4922 12.2168C13.0195 11.2148 13.8369 9.76465 14.5225 8.58691C14.8301 8.04199 15.1816 7.81348 15.7705 7.81348C16.3857 7.81348 16.7637 8.2002 16.7637 8.78906V12.7441H17.1768C17.5195 12.7441 17.7305 12.9639 17.7305 13.3242C17.7305 13.667 17.5283 13.8779 17.1768 13.8779H16.7637V14.8271C16.7637 15.2139 16.5439 15.4863 16.1484 15.4863ZM9.4248 12.7529V9.14062H9.38086C8.73926 10.2656 7.92188 11.7773 7.44727 12.709V12.7529H9.4248ZM15.5596 12.7529V9.14062H15.5156C14.874 10.2656 14.0566 11.7773 13.582 12.709V12.7529H15.5596Z" fill="#1C1C1E"/>
</g>
<defs>
<clipPath id="clip0_10_2320">
<rect width="24" height="24" fill="white"/>
</clipPath>
</defs>
</svg>
