<svg width="24" height="24" viewBox="0 0 24 24" fill="none" xmlns="http://www.w3.org/2000/svg">
<g clip-path="url(#clip0_10_1847)">
<path d="M11.9912 20.7422C16.9746 20.7422 21.0879 16.6289 21.0879 11.6543C21.0879 6.67969 16.9658 2.56641 11.9824 2.56641C7.00781 2.56641 2.90332 6.67969 2.90332 11.6543C2.90332 16.6289 7.0166 20.7422 11.9912 20.7422ZM11.9912 18.9316C7.95703 18.9316 4.73145 15.6885 4.73145 11.6543C4.73145 7.62012 7.95703 4.38574 11.9824 4.38574C16.0166 4.38574 19.2598 7.62012 19.2686 11.6543C19.2773 15.6885 16.0254 18.9316 11.9912 18.9316ZM10.0928 15.3457C10.4707 15.3457 10.6729 15.082 10.6729 14.7217V13.79H11.0771C11.4111 13.79 11.6133 13.5967 11.6133 13.2627C11.6133 12.9199 11.4111 12.7178 11.0771 12.7178H10.6729V8.89453C10.6729 8.33203 10.3125 7.96289 9.72363 7.96289C9.16992 7.96289 8.82715 8.18262 8.53711 8.70996C7.87793 9.83496 7.07812 11.25 6.56836 12.208C6.42773 12.498 6.36621 12.7178 6.36621 12.9902C6.36621 13.5 6.68262 13.7988 7.1748 13.7988H9.52148V14.7217C9.52148 15.0732 9.72363 15.3457 10.0928 15.3457ZM15.9902 15.3457C16.3682 15.3457 16.5791 15.082 16.5791 14.7217V13.79H16.9834C17.3086 13.79 17.5107 13.5967 17.5107 13.2627C17.5107 12.9199 17.3086 12.7178 16.9834 12.7178H16.5791V8.89453C16.5791 8.33203 16.21 7.96289 15.6299 7.96289C15.0674 7.96289 14.7334 8.18262 14.4346 8.70996C13.7754 9.83496 12.9844 11.25 12.4658 12.208C12.334 12.498 12.2725 12.7178 12.2725 12.9902C12.2725 13.5 12.5889 13.7988 13.0811 13.7988H15.4189V14.7217C15.4189 15.0732 15.6299 15.3457 15.9902 15.3457ZM9.52148 12.7178H7.61426V12.6826C8.0625 11.7773 8.8623 10.3184 9.47754 9.2373H9.52148V12.7178ZM15.4189 12.7178H13.5117V12.6826C13.96 11.7773 14.7686 10.3184 15.375 9.2373H15.4189V12.7178Z" fill="#1C1C1E"/>
</g>
<defs>
<clipPath id="clip0_10_1847">
<rect width="24" height="24" fill="white"/>
</clipPath>
</defs>
</svg>
