<svg width="24" height="24" viewBox="0 0 24 24" fill="none" xmlns="http://www.w3.org/2000/svg">
<g clip-path="url(#clip0_10_2334)">
<path d="M6.67383 19.8809H17.3174C19.2246 19.8809 20.209 18.8965 20.209 17.0156V6.31934C20.209 4.43848 19.2246 3.4541 17.3174 3.4541H6.67383C4.77539 3.4541 3.78223 4.42969 3.78223 6.31934V17.0156C3.78223 18.8965 4.77539 19.8809 6.67383 19.8809ZM6.78809 18.1318C5.97949 18.1318 5.53125 17.71 5.53125 16.8574V6.47754C5.53125 5.625 5.97949 5.20312 6.78809 5.20312H17.2031C18.0029 5.20312 18.46 5.625 18.46 6.47754V16.8574C18.46 17.71 18.0029 18.1318 17.2031 18.1318H6.78809ZM10.1016 15.3369C10.4795 15.3369 10.6904 15.0732 10.6904 14.7129V13.79H11.0947C11.4199 13.79 11.6221 13.5879 11.6221 13.2539C11.6221 12.9111 11.4199 12.709 11.0947 12.709H10.6904V8.89453C10.6904 8.32324 10.3213 7.96289 9.74121 7.96289C9.17871 7.96289 8.84473 8.17383 8.5459 8.70117C7.89551 9.82617 7.0957 11.2412 6.57715 12.208C6.44531 12.4893 6.38379 12.7178 6.38379 12.9902C6.38379 13.4912 6.7002 13.79 7.19238 13.79H9.53906V14.7129C9.53906 15.0732 9.74121 15.3369 10.1016 15.3369ZM16.0078 15.3369C16.3857 15.3369 16.5879 15.0732 16.5879 14.7129V13.79H16.9922C17.3262 13.79 17.5283 13.5879 17.5283 13.2539C17.5283 12.9111 17.3262 12.709 16.9922 12.709H16.5879V8.89453C16.5879 8.32324 16.2275 7.96289 15.6387 7.96289C15.085 7.96289 14.7422 8.17383 14.4521 8.70117C13.793 9.82617 13.002 11.2412 12.4834 12.208C12.3428 12.4893 12.2812 12.7178 12.2812 12.9902C12.2812 13.4912 12.5977 13.79 13.0898 13.79H15.4365V14.7129C15.4365 15.0732 15.6387 15.3369 16.0078 15.3369ZM9.53906 12.7178H7.62305V12.6738C8.08008 11.7773 8.87988 10.3096 9.49512 9.22852H9.53906V12.7178ZM15.4365 12.7178H13.5293V12.6738C13.9775 11.7773 14.7861 10.3096 15.3926 9.22852H15.4365V12.7178Z" fill="#1C1C1E"/>
</g>
<defs>
<clipPath id="clip0_10_2334">
<rect width="24" height="24" fill="white"/>
</clipPath>
</defs>
</svg>
