<svg width="24" height="24" viewBox="0 0 24 24" fill="none" xmlns="http://www.w3.org/2000/svg">
<g clip-path="url(#clip0_10_2110)">
<path d="M6.67383 19.8809H17.3174C19.2246 19.8809 20.209 18.8965 20.209 17.0156V6.31934C20.209 4.43848 19.2246 3.4541 17.3174 3.4541H6.67383C4.77539 3.4541 3.78223 4.42969 3.78223 6.31934V17.0156C3.78223 18.8965 4.77539 19.8809 6.67383 19.8809ZM10.0488 15.4863C9.6709 15.4863 9.45996 15.2051 9.45996 14.8271V13.8779H7.03418C6.51562 13.8779 6.19043 13.5703 6.19043 13.043C6.19043 12.7529 6.25195 12.5156 6.39258 12.2168C6.91992 11.2148 7.74609 9.76465 8.42285 8.58691C8.73926 8.04199 9.09082 7.81348 9.6709 7.81348C10.2861 7.81348 10.6729 8.2002 10.6729 8.78906V12.7441H11.0859C11.4199 12.7441 11.6396 12.9639 11.6396 13.3242C11.6396 13.667 11.4287 13.8779 11.0859 13.8779H10.6729V14.8271C10.6729 15.2139 10.4531 15.4863 10.0488 15.4863ZM16.1836 15.4863C15.8057 15.4863 15.5947 15.2051 15.5947 14.8271V13.8779H13.1602C12.6416 13.8779 12.3164 13.5703 12.3164 13.043C12.3164 12.7529 12.3779 12.5156 12.5273 12.2168C13.0547 11.2148 13.8721 9.76465 14.5576 8.58691C14.8652 8.04199 15.2168 7.81348 15.8057 7.81348C16.4209 7.81348 16.7988 8.2002 16.7988 8.78906V12.7441H17.2119C17.5547 12.7441 17.7656 12.9639 17.7656 13.3242C17.7656 13.667 17.5635 13.8779 17.2119 13.8779H16.7988V14.8271C16.7988 15.2139 16.5791 15.4863 16.1836 15.4863ZM9.45996 12.7529V9.14062H9.41602C8.77441 10.2656 7.95703 11.7773 7.48242 12.709V12.7529H9.45996ZM15.5947 12.7529V9.14062H15.5508C14.9092 10.2656 14.0918 11.7773 13.6172 12.709V12.7529H15.5947Z" fill="#1C1C1E"/>
</g>
<defs>
<clipPath id="clip0_10_2110">
<rect width="24" height="24" fill="white"/>
</clipPath>
</defs>
</svg>
