<svg width="24" height="24" viewBox="0 0 24 24" fill="none" xmlns="http://www.w3.org/2000/svg">
<g clip-path="url(#clip0_10_2135)">
<path d="M11.9912 20.7422C16.9746 20.7422 21.0879 16.6289 21.0879 11.6543C21.0879 6.67969 16.9658 2.56641 11.9824 2.56641C7.00781 2.56641 2.90332 6.67969 2.90332 11.6543C2.90332 16.6289 7.0166 20.7422 11.9912 20.7422ZM10.1367 15.4863C9.75 15.4863 9.54785 15.2051 9.54785 14.8271V13.8779H7.11328C6.59473 13.8779 6.26953 13.5703 6.26953 13.043C6.26953 12.7529 6.33105 12.5156 6.48047 12.2168C7.0166 11.2148 7.8252 9.76465 8.51074 8.58691C8.81836 8.04199 9.16992 7.81348 9.75 7.81348C10.374 7.81348 10.752 8.2002 10.752 8.78906V12.7441H11.165C11.5078 12.7441 11.7188 12.9639 11.7188 13.3242C11.7188 13.667 11.5166 13.8779 11.165 13.8779H10.752V14.8271C10.752 15.2139 10.5322 15.4863 10.1367 15.4863ZM14.9004 15.4951C13.7754 15.4951 12.9141 14.8975 12.6504 14.1943C12.5889 14.0625 12.5625 13.9219 12.5625 13.7637C12.5625 13.4297 12.7998 13.1836 13.1338 13.1836C13.3799 13.1836 13.5469 13.333 13.6875 13.5703C13.9424 14.0449 14.3994 14.3525 14.9619 14.3525C15.7529 14.3525 16.2803 13.8252 16.2803 12.9639C16.2803 12.2168 15.7969 11.6455 15.085 11.6455C14.7158 11.6455 14.4521 11.7598 14.1094 12.0586C13.8457 12.2695 13.6611 12.3574 13.3535 12.3574C12.9141 12.3574 12.6416 12.0322 12.668 11.5312L12.8701 8.82422C12.9053 8.30566 13.2217 7.99805 13.7227 7.99805H16.7285C17.0449 7.99805 17.2559 8.21777 17.2559 8.55176C17.2559 8.89453 17.0361 9.12305 16.7285 9.12305H13.9336L13.7842 11.2764H13.8193C14.0918 10.8633 14.6982 10.582 15.2871 10.582C16.5967 10.582 17.5283 11.54 17.5283 12.9287C17.5283 14.5107 16.4912 15.4951 14.9004 15.4951ZM9.54785 12.7529V9.14062H9.49512C8.8623 10.2656 8.04492 11.7773 7.57031 12.709V12.7529H9.54785Z" fill="#1C1C1E"/>
</g>
<defs>
<clipPath id="clip0_10_2135">
<rect width="24" height="24" fill="white"/>
</clipPath>
</defs>
</svg>
