<svg width="24" height="24" viewBox="0 0 24 24" fill="none" xmlns="http://www.w3.org/2000/svg">
<g clip-path="url(#clip0_10_1857)">
<path d="M6.67383 19.8809H17.3174C19.2246 19.8809 20.209 18.8965 20.209 17.0156V6.31934C20.209 4.43848 19.2246 3.4541 17.3174 3.4541H6.67383C4.77539 3.4541 3.78223 4.42969 3.78223 6.31934V17.0156C3.78223 18.8965 4.77539 19.8809 6.67383 19.8809ZM10.1807 15.4863C9.79395 15.4863 9.58301 15.2051 9.58301 14.8271V13.8779H7.14844C6.62988 13.8779 6.30469 13.5703 6.30469 13.043C6.30469 12.7529 6.375 12.5156 6.51562 12.2168C7.05176 11.2148 7.86035 9.76465 8.5459 8.58691C8.85352 8.04199 9.20508 7.81348 9.78516 7.81348C10.4092 7.81348 10.7871 8.2002 10.7871 8.78906V12.7441H11.2002C11.5518 12.7441 11.7539 12.9639 11.7539 13.3242C11.7539 13.667 11.5518 13.8779 11.2002 13.8779H10.7871V14.8271C10.7871 15.2139 10.5674 15.4863 10.1807 15.4863ZM14.9355 15.4951C13.8105 15.4951 12.9492 14.8975 12.6943 14.1943C12.624 14.0625 12.5977 13.9219 12.5977 13.7637C12.5977 13.4297 12.835 13.1836 13.1689 13.1836C13.415 13.1836 13.5908 13.333 13.7227 13.5703C13.9775 14.0449 14.4346 14.3525 14.9971 14.3525C15.7881 14.3525 16.3242 13.8252 16.3242 12.9639C16.3242 12.2168 15.832 11.6455 15.1201 11.6455C14.751 11.6455 14.4873 11.7598 14.1445 12.0586C13.8809 12.2695 13.6963 12.3574 13.3887 12.3574C12.9492 12.3574 12.6768 12.0322 12.7031 11.5312L12.9053 8.82422C12.9404 8.30566 13.2568 7.99805 13.7578 7.99805H16.7637C17.0801 7.99805 17.291 8.21777 17.291 8.55176C17.291 8.89453 17.0713 9.12305 16.7637 9.12305H13.9688L13.8193 11.2764H13.8545C14.127 10.8633 14.7334 10.582 15.3223 10.582C16.6318 10.582 17.5635 11.54 17.5635 12.9287C17.5635 14.5107 16.5264 15.4951 14.9355 15.4951ZM9.58301 12.7529V9.14062H9.53027C8.89746 10.2656 8.08008 11.7773 7.60547 12.709V12.7529H9.58301Z" fill="#1C1C1E"/>
</g>
<defs>
<clipPath id="clip0_10_1857">
<rect width="24" height="24" fill="white"/>
</clipPath>
</defs>
</svg>
