<svg width="24" height="24" viewBox="0 0 24 24" fill="none" xmlns="http://www.w3.org/2000/svg">
<g clip-path="url(#clip0_10_1858)">
<path d="M6.67383 19.8809H17.3174C19.2246 19.8809 20.209 18.8965 20.209 17.0156V6.31934C20.209 4.43848 19.2246 3.4541 17.3174 3.4541H6.67383C4.77539 3.4541 3.78223 4.42969 3.78223 6.31934V17.0156C3.78223 18.8965 4.77539 19.8809 6.67383 19.8809ZM6.78809 18.1318C5.97949 18.1318 5.53125 17.71 5.53125 16.8574V6.47754C5.53125 5.625 5.97949 5.20312 6.78809 5.20312H17.2031C18.0029 5.20312 18.46 5.625 18.46 6.47754V16.8574C18.46 17.71 18.0029 18.1318 17.2031 18.1318H6.78809ZM10.2246 15.3369C10.6025 15.3369 10.8047 15.0732 10.8047 14.7129V13.79H11.209C11.543 13.79 11.7451 13.5879 11.7451 13.2539C11.7451 12.9111 11.5342 12.709 11.209 12.709H10.8047V8.89453C10.8047 8.32324 10.4355 7.96289 9.85547 7.96289C9.29297 7.96289 8.95898 8.17383 8.66016 8.70117C8.00977 9.82617 7.20996 11.2412 6.7002 12.208C6.55957 12.4893 6.49805 12.7178 6.49805 12.9902C6.49805 13.4912 6.81445 13.79 7.30664 13.79H9.65332V14.7129C9.65332 15.0732 9.85547 15.3369 10.2246 15.3369ZM14.7949 15.3457C16.333 15.3457 17.335 14.4053 17.335 12.876C17.335 11.5488 16.4385 10.6172 15.1641 10.6172C14.6016 10.6172 14.0127 10.8896 13.749 11.2852H13.7139L13.8721 9.21094H16.5615C16.8516 9.21094 17.0625 9 17.0625 8.66602C17.0625 8.34961 16.8691 8.13867 16.5615 8.13867H13.6611C13.1865 8.13867 12.8789 8.42871 12.8525 8.92969L12.6592 11.54C12.6328 12.0234 12.8877 12.3223 13.3096 12.3223C13.6084 12.3223 13.7842 12.2432 14.0391 12.041C14.3643 11.7598 14.6191 11.6367 14.9795 11.6367C15.665 11.6367 16.1484 12.1904 16.1484 12.9111C16.1484 13.7461 15.6211 14.2559 14.8652 14.2559C14.3203 14.2559 13.8721 13.957 13.6348 13.5C13.4941 13.2715 13.3359 13.1309 13.0986 13.1309C12.7822 13.1309 12.5537 13.3682 12.5537 13.6934C12.5537 13.834 12.5801 13.9658 12.6416 14.0977C12.8877 14.7744 13.7227 15.3457 14.7949 15.3457ZM9.65332 12.7178H7.7373V12.6738C8.19434 11.7773 8.99414 10.3096 9.60938 9.22852H9.65332V12.7178Z" fill="#1C1C1E"/>
</g>
<defs>
<clipPath id="clip0_10_1858">
<rect width="24" height="24" fill="white"/>
</clipPath>
</defs>
</svg>
