<svg width="24" height="24" viewBox="0 0 24 24" fill="none" xmlns="http://www.w3.org/2000/svg">
<g clip-path="url(#clip0_10_2187)">
<path d="M11.9912 20.7422C16.9746 20.7422 21.0879 16.6289 21.0879 11.6543C21.0879 6.67969 16.9658 2.56641 11.9824 2.56641C7.00781 2.56641 2.90332 6.67969 2.90332 11.6543C2.90332 16.6289 7.0166 20.7422 11.9912 20.7422ZM11.9912 18.9316C7.95703 18.9316 4.73145 15.6885 4.73145 11.6543C4.73145 7.62012 7.95703 4.38574 11.9824 4.38574C16.0166 4.38574 19.2598 7.62012 19.2686 11.6543C19.2773 15.6885 16.0254 18.9316 11.9912 18.9316ZM10.2598 15.3457C10.6377 15.3457 10.8398 15.082 10.8398 14.7217V13.79H11.2441C11.5781 13.79 11.7803 13.5967 11.7803 13.2627C11.7803 12.9199 11.5693 12.7178 11.2441 12.7178H10.8398V8.89453C10.8398 8.33203 10.4707 7.96289 9.89062 7.96289C9.32812 7.96289 8.99414 8.18262 8.69531 8.70996C8.04492 9.83496 7.24512 11.25 6.73535 12.208C6.59473 12.498 6.5332 12.7178 6.5332 12.9902C6.5332 13.5 6.84961 13.7988 7.3418 13.7988H9.68848V14.7217C9.68848 15.0732 9.89062 15.3457 10.2598 15.3457ZM14.9971 15.3545C16.3945 15.3545 17.3789 14.4229 17.3789 12.8496C17.3789 11.3994 16.4033 10.5908 15.3135 10.5908C14.4346 10.5908 13.8896 11.083 13.6787 11.6191H13.6172C13.6172 11.5752 13.6084 11.54 13.6084 11.4785C13.6084 10.002 14.2236 9.07031 15.1113 9.07031C15.5771 9.07031 15.8848 9.29883 16.0957 9.59766C16.2363 9.80859 16.3857 9.90527 16.6318 9.90527C16.8955 9.90527 17.1152 9.71191 17.1152 9.39551C17.1152 9.26367 17.0977 9.14941 17.0361 9.02637C16.8076 8.45508 16.1309 7.96289 15.1553 7.96289C13.5205 7.96289 12.4658 9.25488 12.4658 11.8213C12.4658 12.832 12.624 13.6055 12.9141 14.1592C13.3447 15.0029 14.1006 15.3545 14.9971 15.3545ZM9.68848 12.7178H7.77246V12.6826C8.22949 11.7773 9.0293 10.3184 9.64453 9.2373H9.68848V12.7178ZM14.9355 14.2998C14.2148 14.2998 13.7051 13.7285 13.7051 12.9111C13.7051 12.1377 14.2061 11.584 14.9443 11.584C15.6738 11.584 16.1748 12.1289 16.1748 12.9199C16.1748 13.7637 15.6914 14.2998 14.9355 14.2998Z" fill="#1C1C1E"/>
</g>
<defs>
<clipPath id="clip0_10_2187">
<rect width="24" height="24" fill="white"/>
</clipPath>
</defs>
</svg>
