<svg width="24" height="24" viewBox="0 0 24 24" fill="none" xmlns="http://www.w3.org/2000/svg">
<g clip-path="url(#clip0_10_2182)">
<path d="M11.9912 20.7422C16.9746 20.7422 21.0879 16.6289 21.0879 11.6543C21.0879 6.67969 16.9658 2.56641 11.9824 2.56641C7.00781 2.56641 2.90332 6.67969 2.90332 11.6543C2.90332 16.6289 7.0166 20.7422 11.9912 20.7422ZM10.1895 15.4863C9.80273 15.4863 9.5918 15.2051 9.5918 14.8271V13.8779H7.16602C6.64746 13.8779 6.32227 13.5703 6.32227 13.043C6.32227 12.7529 6.38379 12.5156 6.52441 12.2168C7.06055 11.2148 7.87793 9.76465 8.56348 8.58691C8.8623 8.04199 9.21387 7.81348 9.81152 7.81348C10.418 7.81348 10.8047 8.2002 10.8047 8.78906V12.7441H11.2178C11.5605 12.7441 11.7715 12.9639 11.7715 13.3242C11.7715 13.667 11.5605 13.8779 11.2178 13.8779H10.8047V14.8271C10.8047 15.2139 10.585 15.4863 10.1895 15.4863ZM15.1113 15.5039C14.1885 15.5039 13.3975 15.1348 12.9492 14.2471C12.6504 13.6758 12.4834 12.8672 12.4834 11.8213C12.4834 9.14941 13.582 7.81348 15.2871 7.81348C16.2891 7.81348 17.001 8.32324 17.2383 8.90332C17.2998 9.04395 17.3262 9.1582 17.3262 9.30762C17.3262 9.63281 17.0889 9.84375 16.8164 9.84375C16.5527 9.84375 16.4033 9.72949 16.2451 9.51855C16.0342 9.20215 15.709 8.97363 15.2432 8.97363C14.3203 8.97363 13.6875 9.94043 13.6875 11.4521C13.6875 11.5225 13.6875 11.5664 13.6875 11.6104H13.749C13.9688 11.0479 14.54 10.5381 15.4453 10.5381C16.5791 10.5381 17.5986 11.3818 17.5986 12.8848C17.5986 14.5283 16.5703 15.5039 15.1113 15.5039ZM9.5918 12.7529V9.14062H9.54785C8.91504 10.2656 8.08887 11.7773 7.62305 12.709V12.7529H9.5918ZM15.0586 14.3877C15.832 14.3877 16.3242 13.834 16.3242 12.9727C16.3242 12.1465 15.8145 11.584 15.0586 11.584C14.2939 11.584 13.7754 12.1553 13.7754 12.9639C13.7754 13.8076 14.3027 14.3877 15.0586 14.3877Z" fill="#1C1C1E"/>
</g>
<defs>
<clipPath id="clip0_10_2182">
<rect width="24" height="24" fill="white"/>
</clipPath>
</defs>
</svg>
