<svg width="24" height="24" viewBox="0 0 24 24" fill="none" xmlns="http://www.w3.org/2000/svg">
<g clip-path="url(#clip0_10_1855)">
<path d="M6.67383 19.8809H17.3174C19.2246 19.8809 20.209 18.8965 20.209 17.0156V6.31934C20.209 4.43848 19.2246 3.4541 17.3174 3.4541H6.67383C4.77539 3.4541 3.78223 4.42969 3.78223 6.31934V17.0156C3.78223 18.8965 4.77539 19.8809 6.67383 19.8809ZM10.2246 15.4863C9.83789 15.4863 9.62695 15.2051 9.62695 14.8271V13.8779H7.20117C6.68262 13.8779 6.35742 13.5703 6.35742 13.043C6.35742 12.7529 6.41895 12.5156 6.56836 12.2168C7.0957 11.2148 7.91309 9.76465 8.59863 8.58691C8.89746 8.04199 9.24902 7.81348 9.84668 7.81348C10.4531 7.81348 10.8398 8.2002 10.8398 8.78906V12.7441H11.2529C11.5957 12.7441 11.8066 12.9639 11.8066 13.3242C11.8066 13.667 11.5957 13.8779 11.2529 13.8779H10.8398V14.8271C10.8398 15.2139 10.6201 15.4863 10.2246 15.4863ZM15.1465 15.5039C14.2236 15.5039 13.4326 15.1348 12.9844 14.2471C12.6943 13.6758 12.5186 12.8672 12.5186 11.8213C12.5186 9.14941 13.6172 7.81348 15.3223 7.81348C16.3242 7.81348 17.0361 8.32324 17.2734 8.90332C17.335 9.04395 17.3613 9.1582 17.3613 9.30762C17.3613 9.63281 17.124 9.84375 16.8516 9.84375C16.5879 9.84375 16.4385 9.72949 16.2891 9.51855C16.0693 9.20215 15.7441 8.97363 15.2783 8.97363C14.3555 8.97363 13.7227 9.94043 13.7227 11.4521C13.7227 11.5225 13.7227 11.5664 13.7227 11.6104H13.7842C14.0039 11.0479 14.5752 10.5381 15.4805 10.5381C16.6143 10.5381 17.6338 11.3818 17.6338 12.8848C17.6338 14.5283 16.6055 15.5039 15.1465 15.5039ZM9.62695 12.7529V9.14062H9.58301C8.9502 10.2656 8.13281 11.7773 7.6582 12.709V12.7529H9.62695ZM15.0938 14.3877C15.8672 14.3877 16.3594 13.834 16.3594 12.9727C16.3594 12.1465 15.8496 11.584 15.0938 11.584C14.3379 11.584 13.8105 12.1553 13.8105 12.9639C13.8105 13.8076 14.3379 14.3877 15.0938 14.3877Z" fill="#1C1C1E"/>
</g>
<defs>
<clipPath id="clip0_10_1855">
<rect width="24" height="24" fill="white"/>
</clipPath>
</defs>
</svg>
