<svg width="24" height="24" viewBox="0 0 24 24" fill="none" xmlns="http://www.w3.org/2000/svg">
<g clip-path="url(#clip0_10_1856)">
<path d="M6.67383 19.8809H17.3174C19.2246 19.8809 20.209 18.8965 20.209 17.0156V6.31934C20.209 4.43848 19.2246 3.4541 17.3174 3.4541H6.67383C4.77539 3.4541 3.78223 4.42969 3.78223 6.31934V17.0156C3.78223 18.8965 4.77539 19.8809 6.67383 19.8809ZM6.78809 18.1318C5.97949 18.1318 5.53125 17.71 5.53125 16.8574V6.47754C5.53125 5.625 5.97949 5.20312 6.78809 5.20312H17.2031C18.0029 5.20312 18.46 5.625 18.46 6.47754V16.8574C18.46 17.71 18.0029 18.1318 17.2031 18.1318H6.78809ZM10.2686 15.3369C10.6465 15.3369 10.8574 15.0732 10.8574 14.7129V13.79H11.2617C11.5869 13.79 11.7891 13.5879 11.7891 13.2539C11.7891 12.9111 11.5869 12.709 11.2617 12.709H10.8574V8.89453C10.8574 8.32324 10.4883 7.96289 9.9082 7.96289C9.3457 7.96289 9.01172 8.17383 8.71289 8.70117C8.05371 9.82617 7.2627 11.2412 6.74414 12.208C6.6123 12.4893 6.55078 12.7178 6.55078 12.9902C6.55078 13.4912 6.86719 13.79 7.35938 13.79H9.70605V14.7129C9.70605 15.0732 9.9082 15.3369 10.2686 15.3369ZM15.0146 15.3545C16.4121 15.3545 17.3965 14.4141 17.3965 12.8408C17.3965 11.3906 16.4121 10.582 15.3223 10.582C14.4521 10.582 13.9072 11.0742 13.6875 11.6104H13.6348C13.626 11.5752 13.626 11.5312 13.626 11.4697C13.626 10.002 14.2412 9.06152 15.1289 9.06152C15.5859 9.06152 15.9023 9.29004 16.1133 9.59766C16.2539 9.7998 16.3945 9.90527 16.6494 9.90527C16.9131 9.90527 17.1328 9.70312 17.1328 9.39551C17.1328 9.25488 17.1064 9.14062 17.0537 9.01758C16.8252 8.45508 16.1484 7.96289 15.1729 7.96289C13.5381 7.96289 12.4746 9.24609 12.4746 11.8125C12.4746 12.8232 12.6416 13.5967 12.9316 14.1504C13.3623 15.0029 14.1182 15.3545 15.0146 15.3545ZM9.70605 12.7178H7.79004V12.6738C8.24707 11.7773 9.04688 10.3096 9.66211 9.22852H9.70605V12.7178ZM14.9531 14.291C14.2236 14.291 13.7227 13.7285 13.7227 12.9111C13.7227 12.1289 14.2236 11.5752 14.9531 11.5752C15.6826 11.5752 16.1836 12.1201 16.1836 12.9199C16.1836 13.7549 15.7002 14.291 14.9531 14.291Z" fill="#1C1C1E"/>
</g>
<defs>
<clipPath id="clip0_10_1856">
<rect width="24" height="24" fill="white"/>
</clipPath>
</defs>
</svg>
