<svg width="24" height="24" viewBox="0 0 24 24" fill="none" xmlns="http://www.w3.org/2000/svg">
<g clip-path="url(#clip0_10_1854)">
<path d="M11.9912 20.7422C16.9746 20.7422 21.0879 16.6289 21.0879 11.6543C21.0879 6.67969 16.9658 2.56641 11.9824 2.56641C7.00781 2.56641 2.90332 6.67969 2.90332 11.6543C2.90332 16.6289 7.0166 20.7422 11.9912 20.7422ZM11.9912 18.9316C7.95703 18.9316 4.73145 15.6885 4.73145 11.6543C4.73145 7.62012 7.95703 4.38574 11.9824 4.38574C16.0166 4.38574 19.2598 7.62012 19.2686 11.6543C19.2773 15.6885 16.0254 18.9316 11.9912 18.9316ZM10.2686 15.3457C10.6465 15.3457 10.8574 15.082 10.8574 14.7217V13.79H11.2617C11.5869 13.79 11.7891 13.5967 11.7891 13.2627C11.7891 12.9199 11.5869 12.7178 11.2617 12.7178H10.8574V8.89453C10.8574 8.33203 10.4883 7.96289 9.9082 7.96289C9.3457 7.96289 9.01172 8.18262 8.71289 8.70996C8.0625 9.83496 7.2627 11.25 6.74414 12.208C6.6123 12.498 6.55078 12.7178 6.55078 12.9902C6.55078 13.5 6.86719 13.7988 7.35938 13.7988H9.70605V14.7217C9.70605 15.0732 9.9082 15.3457 10.2686 15.3457ZM13.9072 15.2754C14.1973 15.2754 14.373 15.1172 14.54 14.7832L17.0801 9.59766C17.2031 9.3252 17.2383 9.14941 17.2383 8.95605C17.2383 8.49902 16.9219 8.12988 16.377 8.12988H13.0723C12.7295 8.12988 12.4834 8.34961 12.4834 8.69238C12.4834 9.03516 12.7295 9.24609 13.0723 9.24609H15.8584V9.30762L13.3535 14.1855C13.2744 14.335 13.248 14.458 13.248 14.6338C13.248 15.0117 13.5293 15.2754 13.9072 15.2754ZM9.70605 12.7178H7.79004V12.6826C8.24707 11.7773 9.04688 10.3184 9.66211 9.2373H9.70605V12.7178Z" fill="#1C1C1E"/>
</g>
<defs>
<clipPath id="clip0_10_1854">
<rect width="24" height="24" fill="white"/>
</clipPath>
</defs>
</svg>
