<svg width="24" height="24" viewBox="0 0 24 24" fill="none" xmlns="http://www.w3.org/2000/svg">
<g clip-path="url(#clip0_10_2132)">
<path d="M11.9912 20.7422C16.9746 20.7422 21.0879 16.6289 21.0879 11.6543C21.0879 6.67969 16.9658 2.56641 11.9824 2.56641C7.00781 2.56641 2.90332 6.67969 2.90332 11.6543C2.90332 16.6289 7.0166 20.7422 11.9912 20.7422ZM10.207 15.4863C9.8291 15.4863 9.61816 15.2051 9.61816 14.8271V13.8779H7.18359C6.66504 13.8779 6.33984 13.5703 6.33984 13.043C6.33984 12.7529 6.40137 12.5156 6.55078 12.2168C7.07812 11.2148 7.89551 9.76465 8.58105 8.58691C8.88867 8.04199 9.24023 7.81348 9.8291 7.81348C10.4443 7.81348 10.8223 8.2002 10.8223 8.78906V12.7441H11.2354C11.5781 12.7441 11.7979 12.9639 11.7979 13.3242C11.7979 13.667 11.5869 13.8779 11.2354 13.8779H10.8223V14.8271C10.8223 15.2139 10.6113 15.4863 10.207 15.4863ZM13.9863 15.4072C13.5996 15.4072 13.3008 15.1348 13.3008 14.7393C13.3008 14.5547 13.3271 14.4316 13.415 14.2734L16.0078 9.21973V9.14941H13.1162C12.7646 9.14941 12.501 8.92969 12.501 8.56934C12.501 8.20898 12.7646 7.98926 13.1162 7.98926H16.5527C17.124 7.98926 17.4492 8.37598 17.4492 8.85059C17.4492 9.05273 17.4141 9.2373 17.2822 9.51855L14.6543 14.8975C14.4785 15.2578 14.2939 15.4072 13.9863 15.4072ZM9.61816 12.7529V9.14062H9.57422C8.93262 10.2656 8.11523 11.7773 7.64062 12.709V12.7529H9.61816Z" fill="#1C1C1E"/>
</g>
<defs>
<clipPath id="clip0_10_2132">
<rect width="24" height="24" fill="white"/>
</clipPath>
</defs>
</svg>
