<svg width="24" height="24" viewBox="0 0 24 24" fill="none" xmlns="http://www.w3.org/2000/svg">
<g clip-path="url(#clip0_10_2172)">
<path d="M6.67383 19.8809H17.3174C19.2246 19.8809 20.209 18.8965 20.209 17.0156V6.31934C20.209 4.43848 19.2246 3.4541 17.3174 3.4541H6.67383C4.77539 3.4541 3.78223 4.42969 3.78223 6.31934V17.0156C3.78223 18.8965 4.77539 19.8809 6.67383 19.8809ZM10.2422 15.4863C9.86426 15.4863 9.65332 15.2051 9.65332 14.8271V13.8779H7.21875C6.7002 13.8779 6.375 13.5703 6.375 13.043C6.375 12.7529 6.43652 12.5156 6.58594 12.2168C7.12207 11.2148 7.93066 9.76465 8.61621 8.58691C8.92383 8.04199 9.27539 7.81348 9.86426 7.81348C10.4795 7.81348 10.8574 8.2002 10.8574 8.78906V12.7441H11.2705C11.6133 12.7441 11.833 12.9639 11.833 13.3242C11.833 13.667 11.6221 13.8779 11.2705 13.8779H10.8574V14.8271C10.8574 15.2139 10.6465 15.4863 10.2422 15.4863ZM14.0215 15.4072C13.6348 15.4072 13.3359 15.1348 13.3359 14.7393C13.3359 14.5547 13.3623 14.4316 13.4502 14.2734L16.043 9.21973V9.14941H13.1514C12.7998 9.14941 12.5361 8.92969 12.5361 8.56934C12.5361 8.20898 12.7998 7.98926 13.1514 7.98926H16.5879C17.1592 7.98926 17.4844 8.37598 17.4844 8.85059C17.4844 9.05273 17.4492 9.2373 17.3174 9.51855L14.6895 14.8975C14.5137 15.2578 14.3291 15.4072 14.0215 15.4072ZM9.65332 12.7529V9.14062H9.60938C8.96777 10.2656 8.15039 11.7773 7.67578 12.709V12.7529H9.65332Z" fill="#1C1C1E"/>
</g>
<defs>
<clipPath id="clip0_10_2172">
<rect width="24" height="24" fill="white"/>
</clipPath>
</defs>
</svg>
