<svg width="24" height="24" viewBox="0 0 24 24" fill="none" xmlns="http://www.w3.org/2000/svg">
<g clip-path="url(#clip0_10_2184)">
<path d="M6.67383 19.8809H17.3174C19.2246 19.8809 20.209 18.8965 20.209 17.0156V6.31934C20.209 4.43848 19.2246 3.4541 17.3174 3.4541H6.67383C4.77539 3.4541 3.78223 4.42969 3.78223 6.31934V17.0156C3.78223 18.8965 4.77539 19.8809 6.67383 19.8809ZM6.78809 18.1318C5.97949 18.1318 5.53125 17.71 5.53125 16.8574V6.47754C5.53125 5.625 5.97949 5.20312 6.78809 5.20312H17.2031C18.0029 5.20312 18.46 5.625 18.46 6.47754V16.8574C18.46 17.71 18.0029 18.1318 17.2031 18.1318H6.78809ZM10.2861 15.3369C10.6641 15.3369 10.875 15.0732 10.875 14.7129V13.79H11.2793C11.6045 13.79 11.8066 13.5879 11.8066 13.2539C11.8066 12.9111 11.6045 12.709 11.2793 12.709H10.875V8.89453C10.875 8.32324 10.5059 7.96289 9.92578 7.96289C9.36328 7.96289 9.0293 8.17383 8.73047 8.70117C8.07129 9.82617 7.28027 11.2412 6.76172 12.208C6.62988 12.4893 6.56836 12.7178 6.56836 12.9902C6.56836 13.4912 6.88477 13.79 7.37695 13.79H9.71484V14.7129C9.71484 15.0732 9.92578 15.3369 10.2861 15.3369ZM13.916 15.2666C14.2148 15.2666 14.3906 15.1172 14.5576 14.7744L17.0889 9.58887C17.2207 9.31641 17.2559 9.14062 17.2559 8.95605C17.2559 8.49902 16.9395 8.12988 16.3945 8.12988H13.0898C12.7383 8.12988 12.501 8.34082 12.501 8.68359C12.501 9.02637 12.7471 9.2373 13.0898 9.2373H15.876V9.30762L13.3711 14.1855C13.292 14.335 13.2656 14.4492 13.2656 14.625C13.2656 15.0029 13.5469 15.2666 13.916 15.2666ZM9.71484 12.7178H7.80762V12.6738C8.25586 11.7773 9.06445 10.3096 9.6709 9.22852H9.71484V12.7178Z" fill="#1C1C1E"/>
</g>
<defs>
<clipPath id="clip0_10_2184">
<rect width="24" height="24" fill="white"/>
</clipPath>
</defs>
</svg>
