<svg width="24" height="24" viewBox="0 0 24 24" fill="none" xmlns="http://www.w3.org/2000/svg">
<g clip-path="url(#clip0_10_2179)">
<path d="M11.9912 20.7422C16.9746 20.7422 21.0879 16.6289 21.0879 11.6543C21.0879 6.67969 16.9658 2.56641 11.9824 2.56641C7.00781 2.56641 2.90332 6.67969 2.90332 11.6543C2.90332 16.6289 7.0166 20.7422 11.9912 20.7422ZM10.1016 15.4863C9.72363 15.4863 9.50391 15.2051 9.50391 14.8271V13.8779H7.08691C6.56836 13.8779 6.23438 13.5703 6.23438 13.043C6.23438 12.7529 6.30469 12.5156 6.43652 12.2168C6.97266 11.2148 7.79004 9.76465 8.4668 8.58691C8.7832 8.04199 9.13477 7.81348 9.72363 7.81348C10.3301 7.81348 10.7168 8.2002 10.7168 8.78906V12.7441H11.1299C11.4727 12.7441 11.6836 12.9639 11.6836 13.3242C11.6836 13.667 11.4727 13.8779 11.1299 13.8779H10.7168V14.8271C10.7168 15.2139 10.4971 15.4863 10.1016 15.4863ZM15.1377 15.4951C13.582 15.4951 12.5361 14.625 12.5361 13.3154C12.5361 12.4014 13.0986 11.6719 14.0303 11.4697V11.4082C13.248 11.1885 12.8086 10.5732 12.8086 9.78223C12.8086 8.61328 13.7666 7.81348 15.1553 7.81348C16.5352 7.81348 17.4932 8.61328 17.4932 9.78223C17.4932 10.5732 17.0449 11.2061 16.2715 11.4082V11.4697C17.2031 11.6719 17.7656 12.3926 17.7656 13.3066C17.7656 14.6162 16.7021 15.4951 15.1377 15.4951ZM15.1553 10.9775C15.7881 10.9775 16.2363 10.5293 16.2363 9.91406C16.2363 9.29004 15.7881 8.85938 15.1553 8.85938C14.5137 8.85938 14.0742 9.29004 14.0742 9.91406C14.0742 10.5293 14.5137 10.9775 15.1553 10.9775ZM9.50391 12.7529V9.14062H9.45996C8.82715 10.2656 8.00098 11.7773 7.53516 12.709V12.7529H9.50391ZM15.1553 14.4404C15.9199 14.4404 16.4736 13.9395 16.4736 13.2275C16.4736 12.5068 15.9375 12.0059 15.1553 12.0059C14.3906 12.0059 13.8369 12.5156 13.8369 13.2275C13.8369 13.9395 14.3906 14.4404 15.1553 14.4404Z" fill="#1C1C1E"/>
</g>
<defs>
<clipPath id="clip0_10_2179">
<rect width="24" height="24" fill="white"/>
</clipPath>
</defs>
</svg>
