<svg width="24" height="24" viewBox="0 0 24 24" fill="none" xmlns="http://www.w3.org/2000/svg">
<g clip-path="url(#clip0_10_1936)">
<path d="M11.9912 20.7422C16.9746 20.7422 21.0879 16.6289 21.0879 11.6543C21.0879 6.67969 16.9658 2.56641 11.9824 2.56641C7.00781 2.56641 2.90332 6.67969 2.90332 11.6543C2.90332 16.6289 7.0166 20.7422 11.9912 20.7422ZM11.9912 18.9316C7.95703 18.9316 4.73145 15.6885 4.73145 11.6543C4.73145 7.62012 7.95703 4.38574 11.9824 4.38574C16.0166 4.38574 19.2598 7.62012 19.2686 11.6543C19.2773 15.6885 16.0254 18.9316 11.9912 18.9316ZM10.1719 15.3457C10.5498 15.3457 10.7607 15.082 10.7607 14.7217V13.79H11.165C11.4902 13.79 11.6924 13.5967 11.6924 13.2627C11.6924 12.9199 11.4902 12.7178 11.165 12.7178H10.7607V8.89453C10.7607 8.33203 10.3916 7.96289 9.81152 7.96289C9.24902 7.96289 8.91504 8.18262 8.61621 8.70996C7.96582 9.83496 7.16602 11.25 6.64746 12.208C6.51562 12.498 6.4541 12.7178 6.4541 12.9902C6.4541 13.5 6.77051 13.7988 7.2627 13.7988H9.60938V14.7217C9.60938 15.0732 9.81152 15.3457 10.1719 15.3457ZM15.0146 15.3545C16.5176 15.3545 17.5459 14.502 17.5459 13.2539C17.5459 12.3662 17.001 11.6719 16.1133 11.4873V11.4258C16.8604 11.2236 17.291 10.6172 17.291 9.86133C17.291 8.73633 16.3594 7.96289 15.0322 7.96289C13.7051 7.96289 12.7734 8.73633 12.7734 9.86133C12.7734 10.6172 13.2041 11.2061 13.96 11.4258V11.4873C13.0547 11.6719 12.5186 12.375 12.5186 13.2627C12.5186 14.5107 13.5205 15.3545 15.0146 15.3545ZM15.0322 11.0127C14.417 11.0127 13.9863 10.582 13.9863 9.98438C13.9863 9.37793 14.417 8.96484 15.0322 8.96484C15.6475 8.96484 16.0781 9.37793 16.0781 9.98438C16.0781 10.582 15.6475 11.0127 15.0322 11.0127ZM9.60938 12.7178H7.69336V12.6826C8.15039 11.7773 8.9502 10.3184 9.56543 9.2373H9.60938V12.7178ZM15.041 14.3438C14.2939 14.3438 13.7578 13.8604 13.7578 13.166C13.7578 12.4893 14.2939 11.9883 15.041 11.9883C15.7969 11.9883 16.3154 12.4805 16.3154 13.166C16.3154 13.8604 15.7793 14.3438 15.041 14.3438Z" fill="#1C1C1E"/>
</g>
<defs>
<clipPath id="clip0_10_1936">
<rect width="24" height="24" fill="white"/>
</clipPath>
</defs>
</svg>
