<svg width="24" height="24" viewBox="0 0 24 24" fill="none" xmlns="http://www.w3.org/2000/svg">
<g clip-path="url(#clip0_10_1942)">
<path d="M6.67383 19.8809H17.3174C19.2246 19.8809 20.209 18.8965 20.209 17.0156V6.31934C20.209 4.43848 19.2246 3.4541 17.3174 3.4541H6.67383C4.77539 3.4541 3.78223 4.42969 3.78223 6.31934V17.0156C3.78223 18.8965 4.77539 19.8809 6.67383 19.8809ZM10.1367 15.4863C9.75879 15.4863 9.53906 15.2051 9.53906 14.8271V13.8779H7.12207C6.60352 13.8779 6.26953 13.5703 6.26953 13.043C6.26953 12.7529 6.33984 12.5156 6.47168 12.2168C7.00781 11.2148 7.8252 9.76465 8.50195 8.58691C8.81836 8.04199 9.16992 7.81348 9.75879 7.81348C10.3652 7.81348 10.752 8.2002 10.752 8.78906V12.7441H11.165C11.5078 12.7441 11.7188 12.9639 11.7188 13.3242C11.7188 13.667 11.5078 13.8779 11.165 13.8779H10.752V14.8271C10.752 15.2139 10.5322 15.4863 10.1367 15.4863ZM15.1729 15.4951C13.6172 15.4951 12.5713 14.625 12.5713 13.3154C12.5713 12.4014 13.1338 11.6719 14.0654 11.4697V11.4082C13.2832 11.1885 12.8438 10.5732 12.8438 9.78223C12.8438 8.61328 13.8018 7.81348 15.1904 7.81348C16.5703 7.81348 17.5283 8.61328 17.5283 9.78223C17.5283 10.5732 17.0801 11.2061 16.3066 11.4082V11.4697C17.2383 11.6719 17.8008 12.3926 17.8008 13.3066C17.8008 14.6162 16.7373 15.4951 15.1729 15.4951ZM15.1904 10.9775C15.8232 10.9775 16.2715 10.5293 16.2715 9.91406C16.2715 9.29004 15.8232 8.85938 15.1904 8.85938C14.5488 8.85938 14.1094 9.29004 14.1094 9.91406C14.1094 10.5293 14.5488 10.9775 15.1904 10.9775ZM9.53906 12.7529V9.14062H9.49512C8.8623 10.2656 8.03613 11.7773 7.57031 12.709V12.7529H9.53906ZM15.1904 14.4404C15.9551 14.4404 16.5176 13.9395 16.5176 13.2275C16.5176 12.5068 15.9727 12.0059 15.1904 12.0059C14.4258 12.0059 13.8721 12.5156 13.8721 13.2275C13.8721 13.9395 14.4258 14.4404 15.1904 14.4404Z" fill="#1C1C1E"/>
</g>
<defs>
<clipPath id="clip0_10_1942">
<rect width="24" height="24" fill="white"/>
</clipPath>
</defs>
</svg>
