<svg width="24" height="24" viewBox="0 0 24 24" fill="none" xmlns="http://www.w3.org/2000/svg">
<g clip-path="url(#clip0_10_1939)">
<path d="M6.67383 19.8809H17.3174C19.2246 19.8809 20.209 18.8965 20.209 17.0156V6.31934C20.209 4.43848 19.2246 3.4541 17.3174 3.4541H6.67383C4.77539 3.4541 3.78223 4.42969 3.78223 6.31934V17.0156C3.78223 18.8965 4.77539 19.8809 6.67383 19.8809ZM6.78809 18.1318C5.97949 18.1318 5.53125 17.71 5.53125 16.8574V6.47754C5.53125 5.625 5.97949 5.20312 6.78809 5.20312H17.2031C18.0029 5.20312 18.46 5.625 18.46 6.47754V16.8574C18.46 17.71 18.0029 18.1318 17.2031 18.1318H6.78809ZM10.1895 15.3369C10.5674 15.3369 10.7783 15.0732 10.7783 14.7129V13.79H11.1826C11.5078 13.79 11.71 13.5879 11.71 13.2539C11.71 12.9111 11.5078 12.709 11.1826 12.709H10.7783V8.89453C10.7783 8.32324 10.4092 7.96289 9.8291 7.96289C9.2666 7.96289 8.92383 8.17383 8.63379 8.70117C7.97461 9.82617 7.18359 11.2412 6.66504 12.208C6.5332 12.4893 6.47168 12.7178 6.47168 12.9902C6.47168 13.4912 6.78809 13.79 7.28027 13.79H9.61816V14.7129C9.61816 15.0732 9.8291 15.3369 10.1895 15.3369ZM15.0322 15.3457C16.5352 15.3457 17.5635 14.4932 17.5635 13.2451C17.5635 12.3574 17.0186 11.6719 16.1221 11.4785V11.4258C16.8691 11.2236 17.3086 10.6084 17.3086 9.85254C17.3086 8.72754 16.377 7.96289 15.0498 7.96289C13.7227 7.96289 12.791 8.72754 12.791 9.85254C12.791 10.6084 13.2129 11.2061 13.9688 11.4258V11.4785C13.0723 11.6719 12.5361 12.3662 12.5361 13.2539C12.5361 14.502 13.5381 15.3457 15.0322 15.3457ZM15.0498 11.0039C14.4346 11.0039 14.0039 10.5732 14.0039 9.97559C14.0039 9.37793 14.4346 8.96484 15.0498 8.96484C15.665 8.96484 16.0957 9.37793 16.0957 9.97559C16.0957 10.5732 15.665 11.0039 15.0498 11.0039ZM9.61816 12.7178H7.71094V12.6738C8.15918 11.7773 8.96777 10.3096 9.57422 9.22852H9.61816V12.7178ZM15.0586 14.3438C14.3115 14.3438 13.7754 13.8604 13.7754 13.166C13.7754 12.4805 14.3115 11.9883 15.0586 11.9883C15.8057 11.9883 16.333 12.4717 16.333 13.166C16.333 13.8604 15.7969 14.3438 15.0586 14.3438Z" fill="#1C1C1E"/>
</g>
<defs>
<clipPath id="clip0_10_1939">
<rect width="24" height="24" fill="white"/>
</clipPath>
</defs>
</svg>
