<svg width="24" height="24" viewBox="0 0 24 24" fill="none" xmlns="http://www.w3.org/2000/svg">
<g clip-path="url(#clip0_10_1952)">
<path d="M11.9912 20.7422C16.9746 20.7422 21.0879 16.6289 21.0879 11.6543C21.0879 6.67969 16.9658 2.56641 11.9824 2.56641C7.00781 2.56641 2.90332 6.67969 2.90332 11.6543C2.90332 16.6289 7.0166 20.7422 11.9912 20.7422ZM10.1191 15.4863C9.73242 15.4863 9.5127 15.2051 9.5127 14.8271V13.8779H7.0957C6.57715 13.8779 6.25195 13.5703 6.25195 13.043C6.25195 12.7529 6.31348 12.5156 6.4541 12.2168C6.99023 11.2148 7.79883 9.76465 8.48438 8.58691C8.79199 8.04199 9.14355 7.81348 9.73242 7.81348C10.3389 7.81348 10.7256 8.2002 10.7256 8.78906V12.7441H11.1387C11.4814 12.7441 11.6924 12.9639 11.6924 13.3242C11.6924 13.667 11.4814 13.8779 11.1387 13.8779H10.7256V14.8271C10.7256 15.2139 10.5059 15.4863 10.1191 15.4863ZM14.9619 15.4951C13.749 15.4951 13.0283 14.8447 12.8701 14.3438C12.8174 14.2207 12.7822 14.0889 12.7822 13.9746C12.7822 13.6406 13.002 13.3945 13.3184 13.3945C13.5557 13.3945 13.7402 13.5 13.8984 13.7461C14.1094 14.1064 14.4697 14.335 14.9443 14.335C15.9287 14.335 16.5264 13.2891 16.5088 11.6719H16.4561C16.2275 12.2871 15.665 12.7705 14.7422 12.7705C13.5645 12.7705 12.5625 11.9004 12.5625 10.4062C12.5625 8.82422 13.5645 7.81348 15.0586 7.81348C16.7725 7.81348 17.7041 9.09668 17.7041 11.3994C17.7041 14.0713 16.7461 15.4951 14.9619 15.4951ZM15.1201 11.7334C15.876 11.7334 16.4033 11.1533 16.4033 10.3447C16.4033 9.50098 15.8672 8.91211 15.1201 8.91211C14.3467 8.91211 13.8457 9.4834 13.8457 10.3359C13.8457 11.1533 14.3643 11.7334 15.1201 11.7334ZM9.5127 12.7529V9.14062H9.46875C8.84473 10.2656 8.00977 11.7773 7.54395 12.709V12.7529H9.5127Z" fill="#1C1C1E"/>
</g>
<defs>
<clipPath id="clip0_10_1952">
<rect width="24" height="24" fill="white"/>
</clipPath>
</defs>
</svg>
