<svg width="24" height="24" viewBox="0 0 24 24" fill="none" xmlns="http://www.w3.org/2000/svg">
<g clip-path="url(#clip0_10_1949)">
<path d="M11.9912 20.7422C16.9746 20.7422 21.0879 16.6289 21.0879 11.6543C21.0879 6.67969 16.9658 2.56641 11.9824 2.56641C7.00781 2.56641 2.90332 6.67969 2.90332 11.6543C2.90332 16.6289 7.0166 20.7422 11.9912 20.7422ZM11.9912 18.9316C7.95703 18.9316 4.73145 15.6885 4.73145 11.6543C4.73145 7.62012 7.95703 4.38574 11.9824 4.38574C16.0166 4.38574 19.2598 7.62012 19.2686 11.6543C19.2773 15.6885 16.0254 18.9316 11.9912 18.9316ZM10.1807 15.3457C10.5586 15.3457 10.7695 15.082 10.7695 14.7217V13.79H11.1738C11.499 13.79 11.7012 13.5967 11.7012 13.2627C11.7012 12.9199 11.499 12.7178 11.1738 12.7178H10.7695V8.89453C10.7695 8.33203 10.4004 7.96289 9.82031 7.96289C9.25781 7.96289 8.92383 8.18262 8.625 8.70996C7.97461 9.83496 7.1748 11.25 6.65625 12.208C6.52441 12.498 6.46289 12.7178 6.46289 12.9902C6.46289 13.5 6.7793 13.7988 7.27148 13.7988H9.61816V14.7217C9.61816 15.0732 9.82031 15.3457 10.1807 15.3457ZM14.8477 15.3545C16.5615 15.3545 17.4932 13.9834 17.4932 11.417C17.4932 9.20215 16.5879 7.96289 14.9443 7.96289C13.5029 7.96289 12.5449 8.93848 12.5449 10.4502C12.5449 11.9004 13.5117 12.7354 14.6367 12.7354C15.5332 12.7354 16.0781 12.2695 16.2979 11.6807H16.3506C16.3594 13.2363 15.7793 14.2471 14.8301 14.2471C14.373 14.2471 14.0215 14.0186 13.8193 13.6846C13.6699 13.4385 13.4941 13.3418 13.2656 13.3418C12.9668 13.3418 12.7559 13.5703 12.7559 13.8955C12.7559 14.001 12.791 14.1328 12.835 14.2471C12.9932 14.7305 13.6875 15.3545 14.8477 15.3545ZM15.0059 11.751C14.2676 11.751 13.7666 11.1885 13.7666 10.3887C13.7666 9.5625 14.2588 9.01758 15.0059 9.01758C15.7266 9.01758 16.2451 9.58887 16.2451 10.4062C16.2451 11.1885 15.7354 11.751 15.0059 11.751ZM9.61816 12.7178H7.70215V12.6826C8.15918 11.7773 8.95898 10.3184 9.57422 9.2373H9.61816V12.7178Z" fill="#1C1C1E"/>
</g>
<defs>
<clipPath id="clip0_10_1949">
<rect width="24" height="24" fill="white"/>
</clipPath>
</defs>
</svg>
