<svg width="24" height="24" viewBox="0 0 24 24" fill="none" xmlns="http://www.w3.org/2000/svg">
<g clip-path="url(#clip0_10_2150)">
<path d="M6.67383 19.8809H17.3174C19.2246 19.8809 20.209 18.8965 20.209 17.0156V6.31934C20.209 4.43848 19.2246 3.4541 17.3174 3.4541H6.67383C4.77539 3.4541 3.78223 4.42969 3.78223 6.31934V17.0156C3.78223 18.8965 4.77539 19.8809 6.67383 19.8809ZM6.78809 18.1318C5.97949 18.1318 5.53125 17.71 5.53125 16.8574V6.47754C5.53125 5.625 5.97949 5.20312 6.78809 5.20312H17.2031C18.0029 5.20312 18.46 5.625 18.46 6.47754V16.8574C18.46 17.71 18.0029 18.1318 17.2031 18.1318H6.78809ZM10.1982 15.3369C10.5762 15.3369 10.7871 15.0732 10.7871 14.7129V13.79H11.1914C11.5166 13.79 11.7188 13.5879 11.7188 13.2539C11.7188 12.9111 11.5166 12.709 11.1914 12.709H10.7871V8.89453C10.7871 8.32324 10.418 7.96289 9.83789 7.96289C9.27539 7.96289 8.93262 8.17383 8.64258 8.70117C7.9834 9.82617 7.19238 11.2412 6.67383 12.208C6.54199 12.4893 6.48047 12.7178 6.48047 12.9902C6.48047 13.4912 6.78809 13.79 7.28906 13.79H9.62695V14.7129C9.62695 15.0732 9.83789 15.3369 10.1982 15.3369ZM14.8652 15.3457C16.5791 15.3457 17.502 13.9746 17.502 11.4082C17.502 9.19336 16.6055 7.96289 14.9619 7.96289C13.5205 7.96289 12.5625 8.92969 12.5625 10.4502C12.5625 11.8916 13.5205 12.7354 14.6543 12.7354C15.542 12.7354 16.0957 12.2607 16.3154 11.6719H16.3594C16.377 13.2363 15.7969 14.2471 14.8477 14.2471C14.3906 14.2471 14.0391 14.0186 13.8369 13.6758C13.6875 13.4297 13.5029 13.333 13.2832 13.333C12.9756 13.333 12.7646 13.5703 12.7646 13.8867C12.7646 13.9922 12.7998 14.124 12.8525 14.2471C13.0107 14.7217 13.6963 15.3457 14.8652 15.3457ZM15.0146 11.7422C14.2764 11.7422 13.7842 11.1797 13.7842 10.3887C13.7842 9.5625 14.2764 9.00879 15.0234 9.00879C15.7441 9.00879 16.2539 9.58008 16.2539 10.3975C16.2539 11.1797 15.7529 11.7422 15.0146 11.7422ZM9.62695 12.7178H7.71973V12.6738C8.16797 11.7773 8.97656 10.3096 9.58301 9.22852H9.62695V12.7178Z" fill="#1C1C1E"/>
</g>
<defs>
<clipPath id="clip0_10_2150">
<rect width="24" height="24" fill="white"/>
</clipPath>
</defs>
</svg>
