<svg width="24" height="24" viewBox="0 0 24 24" fill="none" xmlns="http://www.w3.org/2000/svg">
<g clip-path="url(#clip0_10_2159)">
<path d="M6.67383 19.8809H17.3174C19.2246 19.8809 20.209 18.8965 20.209 17.0156V6.31934C20.209 4.43848 19.2246 3.4541 17.3174 3.4541H6.67383C4.77539 3.4541 3.78223 4.42969 3.78223 6.31934V17.0156C3.78223 18.8965 4.77539 19.8809 6.67383 19.8809ZM10.1543 15.4863C9.76758 15.4863 9.54785 15.2051 9.54785 14.8271V13.8779H7.13086C6.6123 13.8779 6.28711 13.5703 6.28711 13.043C6.28711 12.7529 6.34863 12.5156 6.48926 12.2168C7.02539 11.2148 7.84277 9.76465 8.51953 8.58691C8.82715 8.04199 9.17871 7.81348 9.76758 7.81348C10.374 7.81348 10.7607 8.2002 10.7607 8.78906V12.7441H11.1738C11.5166 12.7441 11.7275 12.9639 11.7275 13.3242C11.7275 13.667 11.5166 13.8779 11.1738 13.8779H10.7607V14.8271C10.7607 15.2139 10.541 15.4863 10.1543 15.4863ZM14.9971 15.4951C13.7842 15.4951 13.0635 14.8447 12.9053 14.3438C12.8525 14.2207 12.8174 14.0889 12.8174 13.9746C12.8174 13.6406 13.0371 13.3945 13.3535 13.3945C13.5908 13.3945 13.7754 13.5 13.9336 13.7461C14.1445 14.1064 14.5049 14.335 14.9795 14.335C15.9639 14.335 16.5615 13.2891 16.5439 11.6719H16.4912C16.2627 12.2871 15.7002 12.7705 14.7773 12.7705C13.5996 12.7705 12.5977 11.9004 12.5977 10.4062C12.5977 8.82422 13.5996 7.81348 15.0938 7.81348C16.8076 7.81348 17.7393 9.09668 17.7393 11.3994C17.7393 14.0713 16.7812 15.4951 14.9971 15.4951ZM15.1553 11.7334C15.9111 11.7334 16.4385 11.1533 16.4385 10.3447C16.4385 9.50098 15.9023 8.91211 15.1553 8.91211C14.3818 8.91211 13.8809 9.4834 13.8809 10.3359C13.8809 11.1533 14.3994 11.7334 15.1553 11.7334ZM9.54785 12.7529V9.14062H9.50391C8.87988 10.2656 8.04492 11.7773 7.5791 12.709V12.7529H9.54785Z" fill="#1C1C1E"/>
</g>
<defs>
<clipPath id="clip0_10_2159">
<rect width="24" height="24" fill="white"/>
</clipPath>
</defs>
</svg>
