<svg width="24" height="24" viewBox="0 0 24 24" fill="none" xmlns="http://www.w3.org/2000/svg">
<g clip-path="url(#clip0_10_2152)">
<path d="M11.9912 20.7422C16.9746 20.7422 21.0879 16.6289 21.0879 11.6543C21.0879 6.67969 16.9658 2.56641 11.9824 2.56641C7.00781 2.56641 2.90332 6.67969 2.90332 11.6543C2.90332 16.6289 7.0166 20.7422 11.9912 20.7422ZM11.9912 18.9316C7.95703 18.9316 4.73145 15.6885 4.73145 11.6543C4.73145 7.62012 7.95703 4.38574 11.9824 4.38574C16.0166 4.38574 19.2598 7.62012 19.2686 11.6543C19.2773 15.6885 16.0254 18.9316 11.9912 18.9316ZM11.9385 15.8115C13.793 15.8115 15.0322 14.6953 15.0322 12.9814C15.0322 11.4258 13.9424 10.3711 12.3428 10.3711C11.6221 10.3711 10.8926 10.6787 10.585 11.127H10.5059L10.6904 8.97363H14.0566C14.4434 8.97363 14.707 8.71875 14.707 8.34082C14.707 7.96289 14.4521 7.7168 14.0566 7.7168H10.418C9.81152 7.7168 9.40723 8.07715 9.36328 8.63086L9.15234 11.3818C9.1084 11.9619 9.44238 12.3223 10.0312 12.3223C10.3916 12.3223 10.6025 12.2432 10.9277 12.0146C11.3057 11.6982 11.6133 11.5752 12.0352 11.5752C12.8701 11.5752 13.4238 12.1553 13.4238 13.0078C13.4238 13.8691 12.7734 14.5107 11.9033 14.5107C11.2354 14.5107 10.6992 14.1943 10.418 13.6846C10.251 13.4297 10.0312 13.2891 9.71484 13.2891C9.28418 13.2891 9.01172 13.5615 9.01172 13.9482C9.01172 14.1064 9.04688 14.2471 9.09961 14.3877C9.45117 15.2578 10.4795 15.8115 11.9385 15.8115Z" fill="#1C1C1E"/>
</g>
<defs>
<clipPath id="clip0_10_2152">
<rect width="24" height="24" fill="white"/>
</clipPath>
</defs>
</svg>
