<svg width="24" height="24" viewBox="0 0 24 24" fill="none" xmlns="http://www.w3.org/2000/svg">
<g clip-path="url(#clip0_10_2165)">
<path d="M11.9912 20.7422C16.9746 20.7422 21.0879 16.6289 21.0879 11.6543C21.0879 6.67969 16.9658 2.56641 11.9824 2.56641C7.00781 2.56641 2.90332 6.67969 2.90332 11.6543C2.90332 16.6289 7.0166 20.7422 11.9912 20.7422ZM11.9297 15.9697C10.418 15.9697 9.33691 15.3984 8.98535 14.4932C8.91504 14.3525 8.87988 14.2031 8.87988 14.0273C8.87988 13.623 9.16992 13.3418 9.62695 13.3418C9.96094 13.3418 10.1895 13.4912 10.3564 13.7461C10.6553 14.2734 11.209 14.5986 11.9033 14.5986C12.791 14.5986 13.4678 13.9395 13.4678 13.0605C13.4678 12.1641 12.8965 11.5752 12.0352 11.5752C11.6045 11.5752 11.2881 11.707 10.8926 12.0234C10.5498 12.2607 10.3301 12.3486 9.95215 12.3486C9.33691 12.3486 8.98535 11.9707 9.0293 11.3555L9.25781 8.50781C9.29297 7.92773 9.71484 7.54102 10.3564 7.54102H14.1445C14.5576 7.54102 14.8213 7.80469 14.8213 8.20898C14.8213 8.60449 14.5488 8.86816 14.1445 8.86816H10.6465L10.4531 11.0918H10.541C10.8486 10.6348 11.6045 10.3096 12.3691 10.3096C14.0215 10.3096 15.1641 11.4082 15.1641 13.0166C15.1641 14.8096 13.8633 15.9697 11.9297 15.9697Z" fill="#1C1C1E"/>
</g>
<defs>
<clipPath id="clip0_10_2165">
<rect width="24" height="24" fill="white"/>
</clipPath>
</defs>
</svg>
