<svg width="24" height="24" viewBox="0 0 24 24" fill="none" xmlns="http://www.w3.org/2000/svg">
<g clip-path="url(#clip0_10_2147)">
<path d="M6.67383 19.8809H17.3174C19.2246 19.8809 20.209 18.8965 20.209 17.0156V6.31934C20.209 4.43848 19.2246 3.4541 17.3174 3.4541H6.67383C4.77539 3.4541 3.78223 4.42969 3.78223 6.31934V17.0156C3.78223 18.8965 4.77539 19.8809 6.67383 19.8809ZM6.78809 18.1318C5.97949 18.1318 5.53125 17.71 5.53125 16.8574V6.47754C5.53125 5.625 5.97949 5.20312 6.78809 5.20312H17.2031C18.0029 5.20312 18.46 5.625 18.46 6.47754V16.8574C18.46 17.71 18.0029 18.1318 17.2031 18.1318H6.78809ZM11.9473 15.8027C13.8105 15.8027 15.0498 14.6865 15.0498 12.9727C15.0498 11.417 13.9512 10.3623 12.3604 10.3623C11.6309 10.3623 10.9014 10.6787 10.6025 11.127H10.5234L10.708 8.96484H14.0742C14.4609 8.96484 14.7246 8.70996 14.7246 8.33203C14.7246 7.9541 14.4697 7.70801 14.0742 7.70801H10.4355C9.82031 7.70801 9.4248 8.06836 9.38086 8.63086L9.16113 11.373C9.12598 11.9531 9.45996 12.3223 10.0488 12.3223C10.4004 12.3223 10.6113 12.2344 10.9365 12.0059C11.3232 11.6982 11.6309 11.5664 12.0527 11.5664C12.8789 11.5664 13.4326 12.1465 13.4326 13.0078C13.4326 13.8604 12.7822 14.502 11.9209 14.502C11.2529 14.502 10.7168 14.1855 10.4355 13.6758C10.2686 13.4209 10.04 13.2803 9.73242 13.2803C9.30176 13.2803 9.02051 13.5527 9.02051 13.9395C9.02051 14.0977 9.06445 14.2471 9.11719 14.3789C9.45996 15.249 10.4971 15.8027 11.9473 15.8027Z" fill="#1C1C1E"/>
</g>
<defs>
<clipPath id="clip0_10_2147">
<rect width="24" height="24" fill="white"/>
</clipPath>
</defs>
</svg>
