<svg width="24" height="24" viewBox="0 0 24 24" fill="none" xmlns="http://www.w3.org/2000/svg">
<g clip-path="url(#clip0_10_2079)">
<path d="M6.67383 19.8809H17.3174C19.2246 19.8809 20.209 18.8965 20.209 17.0156V6.31934C20.209 4.43848 19.2246 3.4541 17.3174 3.4541H6.67383C4.77539 3.4541 3.78223 4.42969 3.78223 6.31934V17.0156C3.78223 18.8965 4.77539 19.8809 6.67383 19.8809ZM11.9648 15.9697C10.4531 15.9697 9.38086 15.3984 9.02051 14.4932C8.9502 14.3525 8.91504 14.2031 8.91504 14.0273C8.91504 13.623 9.20508 13.3418 9.66211 13.3418C9.99609 13.3418 10.2246 13.4912 10.4004 13.7461C10.6904 14.2734 11.2441 14.5986 11.9385 14.5986C12.835 14.5986 13.5029 13.9395 13.5029 13.0605C13.5029 12.1641 12.9316 11.5752 12.0703 11.5752C11.6396 11.5752 11.3232 11.707 10.9277 12.0234C10.585 12.2607 10.3652 12.3486 9.99609 12.3486C9.37207 12.3486 9.02051 11.9707 9.06445 11.3555L9.29297 8.50781C9.32812 7.92773 9.75 7.54102 10.3916 7.54102H14.1797C14.5928 7.54102 14.8564 7.80469 14.8564 8.20898C14.8564 8.60449 14.584 8.86816 14.1797 8.86816H10.6816L10.4883 11.0918H10.5762C10.8838 10.6348 11.6396 10.3096 12.4043 10.3096C14.0566 10.3096 15.1992 11.4082 15.1992 13.0166C15.1992 14.8096 13.8984 15.9697 11.9648 15.9697Z" fill="#1C1C1E"/>
</g>
<defs>
<clipPath id="clip0_10_2079">
<rect width="24" height="24" fill="white"/>
</clipPath>
</defs>
</svg>
