<svg width="24" height="24" viewBox="0 0 24 24" fill="none" xmlns="http://www.w3.org/2000/svg">
<g clip-path="url(#clip0_10_2249)">
<path d="M11.9912 20.7422C16.9746 20.7422 21.0879 16.6289 21.0879 11.6543C21.0879 6.67969 16.9658 2.56641 11.9824 2.56641C7.00781 2.56641 2.90332 6.67969 2.90332 11.6543C2.90332 16.6289 7.0166 20.7422 11.9912 20.7422ZM15.1465 15.5039C13.6172 15.5039 12.6064 14.1064 12.6064 11.6631C12.6064 9.21973 13.6172 7.82227 15.1465 7.82227C16.6758 7.82227 17.7041 9.21973 17.7041 11.6631C17.7041 14.1064 16.6758 15.5039 15.1465 15.5039ZM9.05566 15.5039C7.93066 15.5039 7.06934 14.9062 6.81445 14.2119C6.75293 14.0713 6.72656 13.9307 6.72656 13.7812C6.72656 13.4385 6.95508 13.1924 7.28906 13.1924C7.53516 13.1924 7.70215 13.3506 7.85156 13.5879C8.10645 14.0537 8.55469 14.3613 9.11719 14.3613C9.9082 14.3613 10.4443 13.834 10.4443 12.9727C10.4443 12.2256 9.95215 11.6543 9.24902 11.6543C8.87109 11.6543 8.61621 11.7773 8.27344 12.0674C8.00098 12.2783 7.8252 12.3662 7.51758 12.3662C7.06934 12.3662 6.79688 12.041 6.82324 11.5488L7.03418 8.83301C7.06055 8.31445 7.37695 8.00684 7.87793 8.00684H10.8926C11.209 8.00684 11.4111 8.22656 11.4111 8.56934C11.4111 8.90332 11.1914 9.13184 10.8926 9.13184H8.09766L7.93945 11.2852H7.97461C8.24707 10.8721 8.85352 10.5908 9.44238 10.5908C10.752 10.5908 11.6836 11.5576 11.6836 12.9375C11.6836 14.5195 10.6553 15.5039 9.05566 15.5039ZM15.1553 14.2559C15.9111 14.2559 16.3857 13.3242 16.3857 11.6631C16.3857 10.002 15.9111 9.07031 15.1553 9.07031C14.4082 9.07031 13.9336 10.002 13.9336 11.6631C13.9336 13.3242 14.4082 14.2559 15.1553 14.2559Z" fill="#1C1C1E"/>
</g>
<defs>
<clipPath id="clip0_10_2249">
<rect width="24" height="24" fill="white"/>
</clipPath>
</defs>
</svg>
