<svg width="24" height="24" viewBox="0 0 24 24" fill="none" xmlns="http://www.w3.org/2000/svg">
<g clip-path="url(#clip0_10_2141)">
<path d="M11.9912 20.7422C16.9746 20.7422 21.0879 16.6289 21.0879 11.6543C21.0879 6.67969 16.9658 2.56641 11.9824 2.56641C7.00781 2.56641 2.90332 6.67969 2.90332 11.6543C2.90332 16.6289 7.0166 20.7422 11.9912 20.7422ZM11.9912 18.9316C7.95703 18.9316 4.73145 15.6885 4.73145 11.6543C4.73145 7.62012 7.95703 4.38574 11.9824 4.38574C16.0166 4.38574 19.2598 7.62012 19.2686 11.6543C19.2773 15.6885 16.0254 18.9316 11.9912 18.9316ZM15.0322 15.3633C16.5 15.3633 17.4844 14.0098 17.4844 11.6719C17.4844 9.3252 16.5 7.98047 15.0322 7.98047C13.5557 7.98047 12.5801 9.3252 12.5801 11.6719C12.5801 14.0098 13.5557 15.3633 15.0322 15.3633ZM9.16113 15.3633C10.6992 15.3633 11.6924 14.4229 11.6924 12.8936C11.6924 11.5664 10.7959 10.6348 9.53027 10.6348C8.96777 10.6348 8.37891 10.9072 8.11523 11.3027H8.08008L8.22949 9.22852H10.9277C11.2178 9.22852 11.4287 9.01758 11.4287 8.68359C11.4287 8.36719 11.2266 8.15625 10.9277 8.15625H8.02734C7.54395 8.15625 7.24512 8.44629 7.21875 8.93848L7.0166 11.5576C6.99023 12.041 7.25391 12.3398 7.67578 12.3398C7.97461 12.3398 8.1416 12.2607 8.39648 12.0586C8.73047 11.7773 8.98535 11.6543 9.3457 11.6543C10.0312 11.6543 10.5059 12.208 10.5059 12.9287C10.5059 13.7637 9.9873 14.2734 9.22266 14.2734C8.67773 14.2734 8.23828 13.9746 7.99219 13.5176C7.86035 13.2891 7.69336 13.1484 7.45605 13.1484C7.14844 13.1484 6.91992 13.3857 6.91992 13.7109C6.91992 13.8516 6.94629 13.9834 6.99902 14.1152C7.25391 14.792 8.08008 15.3633 9.16113 15.3633ZM15.0322 14.1768C14.3027 14.1768 13.8457 13.2715 13.8457 11.6719C13.8457 10.0723 14.3027 9.16699 15.0322 9.16699C15.7617 9.16699 16.2188 10.0723 16.2188 11.6719C16.2188 13.2715 15.7705 14.1768 15.0322 14.1768Z" fill="#1C1C1E"/>
</g>
<defs>
<clipPath id="clip0_10_2141">
<rect width="24" height="24" fill="white"/>
</clipPath>
</defs>
</svg>
