<svg width="24" height="24" viewBox="0 0 24 24" fill="none" xmlns="http://www.w3.org/2000/svg">
<g clip-path="url(#clip0_10_2082)">
<path d="M6.67383 19.8809H17.3174C19.2246 19.8809 20.209 18.8965 20.209 17.0156V6.31934C20.209 4.43848 19.2246 3.4541 17.3174 3.4541H6.67383C4.77539 3.4541 3.78223 4.42969 3.78223 6.31934V17.0156C3.78223 18.8965 4.77539 19.8809 6.67383 19.8809ZM15.1816 15.5039C13.6523 15.5039 12.6416 14.1064 12.6416 11.6631C12.6416 9.21973 13.6523 7.82227 15.1816 7.82227C16.7109 7.82227 17.7393 9.21973 17.7393 11.6631C17.7393 14.1064 16.7109 15.5039 15.1816 15.5039ZM9.09082 15.5039C7.96582 15.5039 7.10449 14.9062 6.84961 14.2119C6.78809 14.0713 6.76172 13.9307 6.76172 13.7812C6.76172 13.4385 6.99023 13.1924 7.32422 13.1924C7.57031 13.1924 7.7373 13.3506 7.88672 13.5879C8.1416 14.0537 8.58984 14.3613 9.16113 14.3613C9.94336 14.3613 10.4795 13.834 10.4795 12.9727C10.4795 12.2256 9.9873 11.6543 9.28418 11.6543C8.90625 11.6543 8.65137 11.7773 8.30859 12.0674C8.03613 12.2783 7.86035 12.3662 7.55273 12.3662C7.10449 12.3662 6.83203 12.041 6.8584 11.5488L7.06934 8.83301C7.0957 8.31445 7.41211 8.00684 7.91309 8.00684H10.9277C11.2441 8.00684 11.4463 8.22656 11.4463 8.56934C11.4463 8.90332 11.2266 9.13184 10.9277 9.13184H8.13281L7.97461 11.2852H8.00977C8.28223 10.8721 8.88867 10.5908 9.47754 10.5908C10.7871 10.5908 11.7275 11.5576 11.7275 12.9375C11.7275 14.5195 10.6904 15.5039 9.09082 15.5039ZM15.1904 14.2559C15.9463 14.2559 16.4209 13.3242 16.4209 11.6631C16.4209 10.002 15.9463 9.07031 15.1904 9.07031C14.4434 9.07031 13.9688 10.002 13.9688 11.6631C13.9688 13.3242 14.4434 14.2559 15.1904 14.2559Z" fill="#1C1C1E"/>
</g>
<defs>
<clipPath id="clip0_10_2082">
<rect width="24" height="24" fill="white"/>
</clipPath>
</defs>
</svg>
