<svg width="24" height="24" viewBox="0 0 24 24" fill="none" xmlns="http://www.w3.org/2000/svg">
<g clip-path="url(#clip0_10_2254)">
<path d="M6.67383 19.8809H17.3174C19.2246 19.8809 20.209 18.8965 20.209 17.0156V6.31934C20.209 4.43848 19.2246 3.4541 17.3174 3.4541H6.67383C4.77539 3.4541 3.78223 4.42969 3.78223 6.31934V17.0156C3.78223 18.8965 4.77539 19.8809 6.67383 19.8809ZM6.78809 18.1318C5.97949 18.1318 5.53125 17.71 5.53125 16.8574V6.47754C5.53125 5.625 5.97949 5.20312 6.78809 5.20312H17.2031C18.0029 5.20312 18.46 5.625 18.46 6.47754V16.8574C18.46 17.71 18.0029 18.1318 17.2031 18.1318H6.78809ZM15.041 15.3545C16.5088 15.3545 17.502 14.0098 17.502 11.6631C17.502 9.3252 16.5088 7.97168 15.041 7.97168C13.5732 7.97168 12.5977 9.3252 12.5977 11.6631C12.5977 14.0098 13.5732 15.3545 15.041 15.3545ZM9.17871 15.3545C10.708 15.3545 11.71 14.4141 11.71 12.8936C11.71 11.5576 10.8135 10.6348 9.54785 10.6348C8.97656 10.6348 8.3877 10.9072 8.13281 11.2939H8.09766L8.24707 9.21973H10.9365C11.2354 9.21973 11.4375 9.00879 11.4375 8.68359C11.4375 8.3584 11.2441 8.14746 10.9365 8.14746H8.04492C7.56152 8.14746 7.2627 8.4375 7.22754 8.93848L7.03418 11.5576C7.00781 12.0322 7.27148 12.3311 7.69336 12.3311C7.9834 12.3311 8.15918 12.2607 8.41406 12.0498C8.74805 11.7686 9.00293 11.6455 9.35449 11.6455C10.0488 11.6455 10.5234 12.1992 10.5234 12.9287C10.5234 13.7549 10.0049 14.2646 9.24023 14.2646C8.69531 14.2646 8.24707 13.9658 8.00977 13.5176C7.86914 13.2891 7.71094 13.1396 7.47363 13.1396C7.15723 13.1396 6.9375 13.377 6.9375 13.7021C6.9375 13.8428 6.96387 13.9834 7.0166 14.1064C7.27148 14.7832 8.09766 15.3545 9.17871 15.3545ZM15.0498 14.168C14.3203 14.168 13.8633 13.2627 13.8633 11.6631C13.8633 10.0635 14.3203 9.1582 15.0498 9.1582C15.7793 9.1582 16.2363 10.0635 16.2363 11.6631C16.2363 13.2627 15.7881 14.168 15.0498 14.168Z" fill="#1C1C1E"/>
</g>
<defs>
<clipPath id="clip0_10_2254">
<rect width="24" height="24" fill="white"/>
</clipPath>
</defs>
</svg>
