<svg width="24" height="24" viewBox="0 0 24 24" fill="none" xmlns="http://www.w3.org/2000/svg">
<g clip-path="url(#clip0_10_2169)">
<path d="M6.67383 19.8809H17.3174C19.2246 19.8809 20.209 18.8965 20.209 17.0156V6.31934C20.209 4.43848 19.2246 3.4541 17.3174 3.4541H6.67383C4.77539 3.4541 3.78223 4.42969 3.78223 6.31934V17.0156C3.78223 18.8965 4.77539 19.8809 6.67383 19.8809ZM15.3311 13.0342C15.3311 14.748 14.0039 15.9697 12.0439 15.9697C10.04 15.9697 8.73047 14.7568 8.73047 12.9463C8.73047 11.9443 9.15234 10.9336 10.04 9.76465C10.4619 9.21094 11.0156 8.49902 11.5342 7.82227C11.7275 7.58496 11.9385 7.34766 12.3252 7.34766C12.835 7.34766 13.0723 7.68164 13.0811 8.01562C13.0811 8.20898 12.9932 8.37598 12.8525 8.56055C12.457 9.0791 11.9209 9.74707 11.5254 10.2568C11.2705 10.5908 11.1475 10.749 11.042 10.9248L11.1387 10.9424C11.4375 10.6523 12.0352 10.4238 12.6592 10.4238C14.2324 10.4238 15.3311 11.5312 15.3311 13.0342ZM10.3301 13.1133C10.3301 13.9658 11.0684 14.6162 12.0439 14.6162C13.0283 14.6162 13.749 13.9746 13.749 13.1221C13.749 12.2607 13.0283 11.6455 12.0352 11.6455C11.0596 11.6455 10.3301 12.2607 10.3301 13.1133Z" fill="#1C1C1E"/>
</g>
<defs>
<clipPath id="clip0_10_2169">
<rect width="24" height="24" fill="white"/>
</clipPath>
</defs>
</svg>
