<svg width="24" height="24" viewBox="0 0 24 24" fill="none" xmlns="http://www.w3.org/2000/svg">
<g clip-path="url(#clip0_10_2113)">
<path d="M11.9912 20.7422C16.9746 20.7422 21.0879 16.6289 21.0879 11.6543C21.0879 6.67969 16.9658 2.56641 11.9824 2.56641C7.00781 2.56641 2.90332 6.67969 2.90332 11.6543C2.90332 16.6289 7.0166 20.7422 11.9912 20.7422ZM15.2959 13.0342C15.2959 14.748 13.9688 15.9697 12 15.9697C10.0049 15.9697 8.69531 14.7568 8.69531 12.9463C8.69531 11.9443 9.11719 10.9336 10.0049 9.76465C10.4268 9.21094 10.9805 8.49902 11.499 7.82227C11.6924 7.58496 11.9033 7.34766 12.29 7.34766C12.7998 7.34766 13.0371 7.68164 13.0459 8.01562C13.0459 8.20898 12.958 8.37598 12.8174 8.56055C12.4219 9.0791 11.8857 9.74707 11.4814 10.2568C11.2354 10.5908 11.1123 10.749 11.0068 10.9248L11.1035 10.9424C11.4023 10.6523 12 10.4238 12.624 10.4238C14.1973 10.4238 15.2959 11.5312 15.2959 13.0342ZM10.2949 13.1133C10.2949 13.9658 11.0332 14.6162 12 14.6162C12.9932 14.6162 13.7139 13.9746 13.7139 13.1221C13.7139 12.2607 12.9932 11.6455 12 11.6455C11.0244 11.6455 10.2949 12.2607 10.2949 13.1133Z" fill="#1C1C1E"/>
</g>
<defs>
<clipPath id="clip0_10_2113">
<rect width="24" height="24" fill="white"/>
</clipPath>
</defs>
</svg>
