<svg width="24" height="24" viewBox="0 0 24 24" fill="none" xmlns="http://www.w3.org/2000/svg">
<g clip-path="url(#clip0_10_2134)">
<path d="M11.9912 20.7422C16.9746 20.7422 21.0879 16.6289 21.0879 11.6543C21.0879 6.67969 16.9658 2.56641 11.9824 2.56641C7.00781 2.56641 2.90332 6.67969 2.90332 11.6543C2.90332 16.6289 7.0166 20.7422 11.9912 20.7422ZM11.9912 18.9316C7.95703 18.9316 4.73145 15.6885 4.73145 11.6543C4.73145 7.62012 7.95703 4.38574 11.9824 4.38574C16.0166 4.38574 19.2598 7.62012 19.2686 11.6543C19.2773 15.6885 16.0254 18.9316 11.9912 18.9316ZM15.1641 12.9902C15.1641 11.5488 14.1094 10.4766 12.5889 10.4766C11.9912 10.4766 11.4111 10.6963 11.1299 10.9775L11.0332 10.96C11.1387 10.793 11.2529 10.6348 11.499 10.3271C11.877 9.82617 12.4043 9.17578 12.7822 8.68359C12.9229 8.49902 12.9932 8.33203 12.9932 8.15625C12.9932 7.83984 12.7734 7.52344 12.29 7.52344C11.9209 7.52344 11.7188 7.74316 11.5342 7.98047C11.0244 8.63086 10.4971 9.30762 10.0928 9.84375C9.24023 10.9688 8.82715 11.9443 8.82715 12.9111C8.82715 14.6426 10.0928 15.8115 12 15.8115C13.8896 15.8115 15.1641 14.6338 15.1641 12.9902ZM10.3477 13.0605C10.3477 12.2432 11.0508 11.6367 12 11.6367C12.958 11.6367 13.6611 12.2432 13.6611 13.0693C13.6611 13.8955 12.958 14.5195 12 14.5195C11.0596 14.5195 10.3477 13.8867 10.3477 13.0605Z" fill="#1C1C1E"/>
</g>
<defs>
<clipPath id="clip0_10_2134">
<rect width="24" height="24" fill="white"/>
</clipPath>
</defs>
</svg>
