<svg width="24" height="24" viewBox="0 0 24 24" fill="none" xmlns="http://www.w3.org/2000/svg">
<g clip-path="url(#clip0_10_2255)">
<path d="M11.9912 20.7422C16.9746 20.7422 21.0879 16.6289 21.0879 11.6543C21.0879 6.67969 16.9658 2.56641 11.9824 2.56641C7.00781 2.56641 2.90332 6.67969 2.90332 11.6543C2.90332 16.6289 7.0166 20.7422 11.9912 20.7422ZM12.0615 15.9697C10.9102 15.9697 9.89062 15.5391 9.29297 14.5635C8.89746 13.9307 8.66895 13.0166 8.66895 11.7949C8.66895 8.8418 10.0488 7.33887 12.2812 7.33887C13.4766 7.33887 14.4697 7.89258 14.7773 8.55176C14.8564 8.70117 14.9004 8.85059 14.9004 9.01758C14.9004 9.39551 14.6191 9.65039 14.2412 9.65039C13.8896 9.65039 13.6963 9.4834 13.415 9.22852C13.1514 8.93848 12.8174 8.69238 12.2461 8.69238C11.1035 8.69238 10.3389 9.77344 10.3389 11.4258C10.3389 11.4785 10.3389 11.5225 10.3477 11.584H10.418C10.7256 10.9424 11.4463 10.3799 12.5801 10.3799C14.0303 10.3799 15.2783 11.3467 15.2783 13.0254C15.2783 14.8799 13.96 15.9697 12.0615 15.9697ZM11.9824 14.6602C12.9316 14.6602 13.5469 14.0361 13.5469 13.0869C13.5469 12.1816 12.9053 11.5488 11.9912 11.5488C11.0771 11.5488 10.4268 12.1904 10.4268 13.0781C10.4268 13.9922 11.0771 14.6602 11.9824 14.6602Z" fill="#1C1C1E"/>
</g>
<defs>
<clipPath id="clip0_10_2255">
<rect width="24" height="24" fill="white"/>
</clipPath>
</defs>
</svg>
