<svg width="24" height="24" viewBox="0 0 24 24" fill="none" xmlns="http://www.w3.org/2000/svg">
<g clip-path="url(#clip0_10_2084)">
<path d="M11.9912 20.7422C16.9746 20.7422 21.0879 16.6289 21.0879 11.6543C21.0879 6.67969 16.9658 2.56641 11.9824 2.56641C7.00781 2.56641 2.90332 6.67969 2.90332 11.6543C2.90332 16.6289 7.0166 20.7422 11.9912 20.7422ZM11.9912 18.9316C7.95703 18.9316 4.73145 15.6885 4.73145 11.6543C4.73145 7.62012 7.95703 4.38574 11.9824 4.38574C16.0166 4.38574 19.2598 7.62012 19.2686 11.6543C19.2773 15.6885 16.0254 18.9316 11.9912 18.9316ZM12.0615 15.8115C13.8809 15.8115 15.1465 14.7656 15.1465 12.9727C15.1465 11.3643 13.9424 10.4414 12.5449 10.4414C11.4463 10.4414 10.7695 10.9863 10.4707 11.5928H10.4004C10.3916 11.54 10.3916 11.4961 10.3916 11.4434C10.3916 9.85254 11.1299 8.80664 12.2285 8.80664C12.791 8.80664 13.1074 9.04395 13.3623 9.3252C13.626 9.57129 13.8105 9.72949 14.1533 9.72949C14.5137 9.72949 14.7773 9.4834 14.7773 9.12305C14.7773 8.96484 14.7422 8.82422 14.6631 8.68359C14.3643 8.04199 13.415 7.50586 12.2725 7.50586C10.1279 7.50586 8.80078 8.95605 8.80078 11.7949C8.80078 12.9727 9.02051 13.8516 9.39844 14.458C9.97852 15.3984 10.9453 15.8115 12.0615 15.8115ZM11.9824 14.5547C11.1123 14.5547 10.4795 13.9219 10.4795 13.0254C10.4795 12.1729 11.1035 11.5576 11.9912 11.5576C12.8789 11.5576 13.4941 12.1641 13.4941 13.0342C13.4941 13.957 12.8965 14.5547 11.9824 14.5547Z" fill="#1C1C1E"/>
</g>
<defs>
<clipPath id="clip0_10_2084">
<rect width="24" height="24" fill="white"/>
</clipPath>
</defs>
</svg>
