<svg width="24" height="24" viewBox="0 0 24 24" fill="none" xmlns="http://www.w3.org/2000/svg">
<g clip-path="url(#clip0_10_2109)">
<path d="M6.67383 19.8809H17.3174C19.2246 19.8809 20.209 18.8965 20.209 17.0156V6.31934C20.209 4.43848 19.2246 3.4541 17.3174 3.4541H6.67383C4.77539 3.4541 3.78223 4.42969 3.78223 6.31934V17.0156C3.78223 18.8965 4.77539 19.8809 6.67383 19.8809ZM6.78809 18.1318C5.97949 18.1318 5.53125 17.71 5.53125 16.8574V6.47754C5.53125 5.625 5.97949 5.20312 6.78809 5.20312H17.2031C18.0029 5.20312 18.46 5.625 18.46 6.47754V16.8574C18.46 17.71 18.0029 18.1318 17.2031 18.1318H6.78809ZM12.0703 15.8027C13.8896 15.8027 15.1641 14.7568 15.1641 12.9727C15.1641 11.3555 13.96 10.4326 12.5625 10.4326C11.4639 10.4326 10.7783 10.9775 10.4883 11.584H10.4092C10.4092 11.5312 10.4092 11.4873 10.4092 11.4434C10.4092 9.84375 11.1387 8.79785 12.2461 8.79785C12.8086 8.79785 13.125 9.04395 13.3711 9.31641C13.6436 9.5625 13.8281 9.7207 14.1621 9.7207C14.5225 9.7207 14.7949 9.47461 14.7949 9.12305C14.7949 8.96484 14.7598 8.81543 14.6807 8.6748C14.3818 8.04199 13.4326 7.50586 12.29 7.50586C10.1455 7.50586 8.81836 8.95605 8.81836 11.7949C8.81836 12.9727 9.03809 13.8428 9.41602 14.4492C9.9873 15.3896 10.9629 15.8027 12.0703 15.8027ZM12 14.5547C11.1211 14.5547 10.4971 13.9131 10.4971 13.0254C10.4971 12.1641 11.1211 11.5488 12 11.5488C12.8965 11.5488 13.5029 12.1553 13.5029 13.0342C13.5029 13.9482 12.9141 14.5547 12 14.5547Z" fill="#1C1C1E"/>
</g>
<defs>
<clipPath id="clip0_10_2109">
<rect width="24" height="24" fill="white"/>
</clipPath>
</defs>
</svg>
