<svg width="24" height="24" viewBox="0 0 24 24" fill="none" xmlns="http://www.w3.org/2000/svg">
<g clip-path="url(#clip0_10_2121)">
<path d="M6.67383 19.8809H17.3174C19.2246 19.8809 20.209 18.8965 20.209 17.0156V6.31934C20.209 4.43848 19.2246 3.4541 17.3174 3.4541H6.67383C4.77539 3.4541 3.78223 4.42969 3.78223 6.31934V17.0156C3.78223 18.8965 4.77539 19.8809 6.67383 19.8809ZM12.0967 15.9697C10.9453 15.9697 9.92578 15.5391 9.32812 14.5635C8.93262 13.9307 8.7041 13.0166 8.7041 11.7949C8.7041 8.8418 10.084 7.33887 12.3252 7.33887C13.5117 7.33887 14.5049 7.89258 14.8213 8.55176C14.8916 8.70117 14.9355 8.85059 14.9355 9.01758C14.9355 9.39551 14.6543 9.65039 14.2764 9.65039C13.9248 9.65039 13.7314 9.4834 13.4502 9.22852C13.1865 8.93848 12.8613 8.69238 12.2812 8.69238C11.1387 8.69238 10.374 9.77344 10.374 11.4258C10.374 11.4785 10.374 11.5225 10.3828 11.584H10.4531C10.7607 10.9424 11.4814 10.3799 12.6152 10.3799C14.0654 10.3799 15.3135 11.3467 15.3135 13.0254C15.3135 14.8799 13.9951 15.9697 12.0967 15.9697ZM12.0176 14.6602C12.9668 14.6602 13.582 14.0361 13.582 13.0869C13.582 12.1816 12.9404 11.5488 12.0264 11.5488C11.1123 11.5488 10.4619 12.1904 10.4619 13.0781C10.4619 13.9922 11.1123 14.6602 12.0176 14.6602Z" fill="#1C1C1E"/>
</g>
<defs>
<clipPath id="clip0_10_2121">
<rect width="24" height="24" fill="white"/>
</clipPath>
</defs>
</svg>
