<svg width="24" height="24" viewBox="0 0 24 24" fill="none" xmlns="http://www.w3.org/2000/svg">
<g clip-path="url(#clip0_10_2161)">
<path d="M11.9912 20.7422C16.9746 20.7422 21.0879 16.6289 21.0879 11.6543C21.0879 6.67969 16.9658 2.56641 11.9824 2.56641C7.00781 2.56641 2.90332 6.67969 2.90332 11.6543C2.90332 16.6289 7.0166 20.7422 11.9912 20.7422ZM10.8574 15.9609C10.3564 15.9609 9.9873 15.6445 9.9873 15.1787C9.9873 14.9678 10.0312 14.8096 10.1367 14.625L13.3008 9V8.92969H9.6709C9.24902 8.92969 8.95898 8.64844 8.95898 8.23535C8.95898 7.82227 9.24023 7.54102 9.6709 7.54102H14.0654C14.7686 7.54102 15.2168 7.97168 15.2168 8.56934C15.2168 8.83301 15.1553 9.07031 14.9531 9.44824L11.7188 15.3633C11.4727 15.8027 11.2354 15.9609 10.8574 15.9609Z" fill="#1C1C1E"/>
</g>
<defs>
<clipPath id="clip0_10_2161">
<rect width="24" height="24" fill="white"/>
</clipPath>
</defs>
</svg>
