<svg width="24" height="24" viewBox="0 0 24 24" fill="none" xmlns="http://www.w3.org/2000/svg">
<g clip-path="url(#clip0_10_2117)">
<path d="M11.9912 20.7422C16.9746 20.7422 21.0879 16.6289 21.0879 11.6543C21.0879 6.67969 16.9658 2.56641 11.9824 2.56641C7.00781 2.56641 2.90332 6.67969 2.90332 11.6543C2.90332 16.6289 7.0166 20.7422 11.9912 20.7422ZM11.9912 18.9316C7.95703 18.9316 4.73145 15.6885 4.73145 11.6543C4.73145 7.62012 7.95703 4.38574 11.9824 4.38574C16.0166 4.38574 19.2598 7.62012 19.2686 11.6543C19.2773 15.6885 16.0254 18.9316 11.9912 18.9316ZM10.9014 15.7939C11.2529 15.7939 11.4902 15.6445 11.7188 15.2314L14.8301 9.51855C15.0322 9.16699 15.085 8.93848 15.085 8.68359C15.085 8.12109 14.6543 7.7168 13.9863 7.7168H9.76758C9.35449 7.7168 9.09082 7.98047 9.09082 8.36719C9.09082 8.7627 9.36328 9.02637 9.76758 9.02637H13.2656V9.10547L10.2158 14.5283C10.1104 14.7041 10.0664 14.8535 10.0664 15.0557C10.0664 15.4951 10.4268 15.7939 10.9014 15.7939Z" fill="#1C1C1E"/>
</g>
<defs>
<clipPath id="clip0_10_2117">
<rect width="24" height="24" fill="white"/>
</clipPath>
</defs>
</svg>
