<svg width="24" height="24" viewBox="0 0 24 24" fill="none" xmlns="http://www.w3.org/2000/svg">
<g clip-path="url(#clip0_10_1935)">
<path d="M6.67383 19.8809H17.3174C19.2246 19.8809 20.209 18.8965 20.209 17.0156V6.31934C20.209 4.43848 19.2246 3.4541 17.3174 3.4541H6.67383C4.77539 3.4541 3.78223 4.42969 3.78223 6.31934V17.0156C3.78223 18.8965 4.77539 19.8809 6.67383 19.8809ZM10.8926 15.9609C10.3916 15.9609 10.0225 15.6445 10.0225 15.1787C10.0225 14.9678 10.0752 14.8096 10.1719 14.625L13.3359 9V8.92969H9.70605C9.28418 8.92969 8.99414 8.64844 8.99414 8.23535C8.99414 7.82227 9.27539 7.54102 9.70605 7.54102H14.1006C14.8037 7.54102 15.252 7.97168 15.252 8.56934C15.252 8.83301 15.1992 9.07031 14.9883 9.44824L11.7539 15.3633C11.5078 15.8027 11.2705 15.9609 10.8926 15.9609Z" fill="#1C1C1E"/>
</g>
<defs>
<clipPath id="clip0_10_1935">
<rect width="24" height="24" fill="white"/>
</clipPath>
</defs>
</svg>
