<svg width="24" height="24" viewBox="0 0 24 24" fill="none" xmlns="http://www.w3.org/2000/svg">
<g clip-path="url(#clip0_10_2087)">
<path d="M6.67383 19.8809H17.3174C19.2246 19.8809 20.209 18.8965 20.209 17.0156V6.31934C20.209 4.43848 19.2246 3.4541 17.3174 3.4541H6.67383C4.77539 3.4541 3.78223 4.42969 3.78223 6.31934V17.0156C3.78223 18.8965 4.77539 19.8809 6.67383 19.8809ZM6.78809 18.1318C5.97949 18.1318 5.53125 17.71 5.53125 16.8574V6.47754C5.53125 5.625 5.97949 5.20312 6.78809 5.20312H17.2031C18.0029 5.20312 18.46 5.625 18.46 6.47754V16.8574C18.46 17.71 18.0029 18.1318 17.2031 18.1318H6.78809ZM10.9189 15.7939C11.2705 15.7939 11.499 15.6445 11.7363 15.2227L14.8477 9.50977C15.041 9.1582 15.1025 8.92969 15.1025 8.68359C15.1025 8.1123 14.6719 7.70801 13.9951 7.70801H9.77637C9.37207 7.70801 9.1084 7.97168 9.1084 8.36719C9.1084 8.75391 9.38086 9.01758 9.77637 9.01758H13.2832V9.09668L10.2334 14.5195C10.1279 14.6953 10.084 14.8535 10.084 15.0469C10.084 15.4951 10.4355 15.7939 10.9189 15.7939Z" fill="#1C1C1E"/>
</g>
<defs>
<clipPath id="clip0_10_2087">
<rect width="24" height="24" fill="white"/>
</clipPath>
</defs>
</svg>
