<svg width="24" height="24" viewBox="0 0 24 24" fill="none" xmlns="http://www.w3.org/2000/svg">
<g clip-path="url(#clip0_10_2093)">
<path d="M11.9912 20.7422C16.9746 20.7422 21.0879 16.6289 21.0879 11.6543C21.0879 6.67969 16.9658 2.56641 11.9824 2.56641C7.00781 2.56641 2.90332 6.67969 2.90332 11.6543C2.90332 16.6289 7.0166 20.7422 11.9912 20.7422ZM11.9912 18.9316C7.95703 18.9316 4.73145 15.6885 4.73145 11.6543C4.73145 7.62012 7.95703 4.38574 11.9824 4.38574C16.0166 4.38574 19.2598 7.62012 19.2686 11.6543C19.2773 15.6885 16.0254 18.9316 11.9912 18.9316ZM11.9736 15.8115C13.9248 15.8115 15.2256 14.8623 15.2256 13.4385C15.2256 12.4541 14.5137 11.6631 13.4502 11.4697V11.4082C14.3555 11.1533 14.8916 10.4854 14.8916 9.6416C14.8916 8.37598 13.7139 7.50586 11.9824 7.50586C10.2598 7.50586 9.08203 8.37598 9.08203 9.6416C9.08203 10.4854 9.60059 11.1357 10.5146 11.4082V11.4697C9.45117 11.6631 8.73926 12.4541 8.73926 13.4385C8.73926 14.8711 10.0225 15.8115 11.9736 15.8115ZM11.9824 10.9512C11.2178 10.9512 10.6641 10.459 10.6641 9.79102C10.6641 9.13184 11.2178 8.65723 11.9824 8.65723C12.7559 8.65723 13.3008 9.13184 13.3008 9.79102C13.3008 10.459 12.7559 10.9512 11.9824 10.9512ZM11.9912 14.6689C11.0684 14.6689 10.4004 14.1152 10.4004 13.333C10.4004 12.5859 11.0771 12.0146 11.9912 12.0146C12.9141 12.0146 13.5732 12.5771 13.5732 13.333C13.5732 14.1152 12.9053 14.6689 11.9912 14.6689Z" fill="#1C1C1E"/>
</g>
<defs>
<clipPath id="clip0_10_2093">
<rect width="24" height="24" fill="white"/>
</clipPath>
</defs>
</svg>
