<svg width="24" height="24" viewBox="0 0 24 24" fill="none" xmlns="http://www.w3.org/2000/svg">
<g clip-path="url(#clip0_10_2102)">
<path d="M11.9912 20.7422C16.9746 20.7422 21.0879 16.6289 21.0879 11.6543C21.0879 6.67969 16.9658 2.56641 11.9824 2.56641C7.00781 2.56641 2.90332 6.67969 2.90332 11.6543C2.90332 16.6289 7.0166 20.7422 11.9912 20.7422ZM11.9736 15.9697C9.93457 15.9697 8.59863 14.9941 8.59863 13.5088C8.59863 12.4805 9.33691 11.6543 10.4531 11.4521V11.3906C9.49512 11.1094 8.95898 10.4326 8.95898 9.55371C8.95898 8.23535 10.1807 7.33887 11.9824 7.33887C13.7842 7.33887 15.0146 8.23535 15.0146 9.55371C15.0146 10.4326 14.4609 11.1182 13.5205 11.3906V11.4521C14.6191 11.6543 15.3662 12.4717 15.3662 13.5C15.3662 14.9854 14.0127 15.9697 11.9736 15.9697ZM11.9824 10.9072C12.7822 10.9072 13.3447 10.4062 13.3447 9.71191C13.3447 9.03516 12.7822 8.54297 11.9824 8.54297C11.1914 8.54297 10.6201 9.03516 10.6201 9.71191C10.6201 10.4062 11.1914 10.9072 11.9824 10.9072ZM11.9912 14.7744C12.9316 14.7744 13.626 14.1943 13.626 13.3945C13.626 12.6035 12.9492 12.0322 11.9912 12.0322C11.0508 12.0322 10.3477 12.6123 10.3477 13.3945C10.3477 14.1943 11.042 14.7744 11.9912 14.7744Z" fill="#1C1C1E"/>
</g>
<defs>
<clipPath id="clip0_10_2102">
<rect width="24" height="24" fill="white"/>
</clipPath>
</defs>
</svg>
