<svg width="24" height="24" viewBox="0 0 24 24" fill="none" xmlns="http://www.w3.org/2000/svg">
<g clip-path="url(#clip0_10_2309)">
<path d="M6.67383 19.8809H17.3174C19.2246 19.8809 20.209 18.8965 20.209 17.0156V6.31934C20.209 4.43848 19.2246 3.4541 17.3174 3.4541H6.67383C4.77539 3.4541 3.78223 4.42969 3.78223 6.31934V17.0156C3.78223 18.8965 4.77539 19.8809 6.67383 19.8809ZM12.0088 15.9697C9.96973 15.9697 8.63379 14.9941 8.63379 13.5088C8.63379 12.4805 9.37207 11.6543 10.4883 11.4521V11.3906C9.53027 11.1094 8.99414 10.4326 8.99414 9.55371C8.99414 8.23535 10.2158 7.33887 12.0176 7.33887C13.8193 7.33887 15.0498 8.23535 15.0498 9.55371C15.0498 10.4326 14.4961 11.1182 13.5557 11.3906V11.4521C14.6631 11.6543 15.4014 12.4717 15.4014 13.5C15.4014 14.9854 14.0479 15.9697 12.0088 15.9697ZM12.0176 10.9072C12.8174 10.9072 13.3799 10.4062 13.3799 9.71191C13.3799 9.03516 12.8174 8.54297 12.0176 8.54297C11.2266 8.54297 10.6553 9.03516 10.6553 9.71191C10.6553 10.4062 11.2266 10.9072 12.0176 10.9072ZM12.0264 14.7744C12.9668 14.7744 13.6611 14.1943 13.6611 13.3945C13.6611 12.6035 12.9844 12.0322 12.0264 12.0322C11.0859 12.0322 10.3828 12.6123 10.3828 13.3945C10.3828 14.1943 11.0771 14.7744 12.0264 14.7744Z" fill="#1C1C1E"/>
</g>
<defs>
<clipPath id="clip0_10_2309">
<rect width="24" height="24" fill="white"/>
</clipPath>
</defs>
</svg>
