<svg width="24" height="24" viewBox="0 0 24 24" fill="none" xmlns="http://www.w3.org/2000/svg">
<g clip-path="url(#clip0_10_2090)">
<path d="M6.67383 19.8809H17.3174C19.2246 19.8809 20.209 18.8965 20.209 17.0156V6.31934C20.209 4.43848 19.2246 3.4541 17.3174 3.4541H6.67383C4.77539 3.4541 3.78223 4.42969 3.78223 6.31934V17.0156C3.78223 18.8965 4.77539 19.8809 6.67383 19.8809ZM6.78809 18.1318C5.97949 18.1318 5.53125 17.71 5.53125 16.8574V6.47754C5.53125 5.625 5.97949 5.20312 6.78809 5.20312H17.2031C18.0029 5.20312 18.46 5.625 18.46 6.47754V16.8574C18.46 17.71 18.0029 18.1318 17.2031 18.1318H6.78809ZM11.9824 15.8027C13.9424 15.8027 15.2432 14.8535 15.2432 13.4297C15.2432 12.4453 14.5312 11.6543 13.4678 11.4609V11.3994C14.373 11.1445 14.9004 10.4766 14.9004 9.63281C14.9004 8.36719 13.7227 7.50586 12 7.50586C10.2686 7.50586 9.09082 8.36719 9.09082 9.63281C9.09082 10.4766 9.61816 11.127 10.5322 11.3994V11.4609C9.45996 11.6543 8.75684 12.4541 8.75684 13.4385C8.75684 14.8623 10.0312 15.8027 11.9824 15.8027ZM12 10.9424C11.2354 10.9424 10.6816 10.459 10.6816 9.79102C10.6816 9.12305 11.2266 8.64844 12 8.64844C12.7646 8.64844 13.3184 9.12305 13.3184 9.79102C13.3184 10.459 12.7646 10.9424 12 10.9424ZM12.0088 14.6602C11.0859 14.6602 10.418 14.1064 10.418 13.333C10.418 12.5771 11.0947 12.0146 12.0088 12.0146C12.9316 12.0146 13.582 12.5684 13.582 13.333C13.582 14.1064 12.9141 14.6602 12.0088 14.6602Z" fill="#1C1C1E"/>
</g>
<defs>
<clipPath id="clip0_10_2090">
<rect width="24" height="24" fill="white"/>
</clipPath>
</defs>
</svg>
