<svg width="24" height="24" viewBox="0 0 24 24" fill="none" xmlns="http://www.w3.org/2000/svg">
<g clip-path="url(#clip0_10_2264)">
<path d="M6.67383 19.8809H17.3174C19.2246 19.8809 20.209 18.8965 20.209 17.0156V6.31934C20.209 4.43848 19.2246 3.4541 17.3174 3.4541H6.67383C4.77539 3.4541 3.78223 4.42969 3.78223 6.31934V17.0156C3.78223 18.8965 4.77539 19.8809 6.67383 19.8809ZM8.72168 10.2744C8.72168 8.55176 10.0488 7.33887 12.0352 7.33887C14.0215 7.33887 15.3574 8.55176 15.3574 10.3711C15.3574 11.4258 14.9355 12.3398 14.0918 13.4736C13.6787 14.0273 13.0723 14.8184 12.6416 15.3545C12.3516 15.7148 12.1582 15.9609 11.7188 15.9609C11.2441 15.9609 10.9541 15.6445 10.9541 15.3018C10.9541 15.0645 11.0508 14.8711 11.2178 14.6777C11.6748 14.1152 12.1934 13.5 12.624 12.9551C12.8174 12.7266 12.9668 12.5332 13.0459 12.3926H12.9229C12.6152 12.7002 12 12.9023 11.4199 12.9023C9.85547 12.9023 8.72168 11.7949 8.72168 10.2744ZM10.3125 10.2041C10.3125 11.0654 11.0508 11.6895 12.0352 11.6895C13.0107 11.6895 13.749 11.0654 13.749 10.2041C13.749 9.34277 13.002 8.70996 12.0264 8.70996C11.0508 8.70996 10.3125 9.34277 10.3125 10.2041Z" fill="#1C1C1E"/>
</g>
<defs>
<clipPath id="clip0_10_2264">
<rect width="24" height="24" fill="white"/>
</clipPath>
</defs>
</svg>
