<svg width="24" height="24" viewBox="0 0 24 24" fill="none" xmlns="http://www.w3.org/2000/svg">
<g clip-path="url(#clip0_10_2316)">
<path d="M11.9912 20.7422C16.9746 20.7422 21.0879 16.6289 21.0879 11.6543C21.0879 6.67969 16.9658 2.56641 11.9824 2.56641C7.00781 2.56641 2.90332 6.67969 2.90332 11.6543C2.90332 16.6289 7.0166 20.7422 11.9912 20.7422ZM11.9912 18.9316C7.95703 18.9316 4.73145 15.6885 4.73145 11.6543C4.73145 7.62012 7.95703 4.38574 11.9824 4.38574C16.0166 4.38574 19.2598 7.62012 19.2686 11.6543C19.2773 15.6885 16.0254 18.9316 11.9912 18.9316ZM8.81836 10.3359C8.81836 11.7949 9.91699 12.8584 11.4111 12.8584C11.9824 12.8584 12.5713 12.665 12.8701 12.3574L12.9844 12.3662C12.8965 12.498 12.7646 12.6826 12.5801 12.9111C12.1582 13.4385 11.666 14.0273 11.2178 14.5811C11.0596 14.7568 10.9629 14.9502 10.9629 15.1699C10.9629 15.4951 11.2441 15.7939 11.6836 15.7939C12.1055 15.7939 12.2812 15.5654 12.5625 15.2227C12.9844 14.7041 13.5732 13.9395 13.9688 13.4033C14.7861 12.3135 15.1816 11.4346 15.1816 10.4238C15.1816 8.68359 13.9072 7.50586 12 7.50586C10.1016 7.50586 8.81836 8.68359 8.81836 10.3359ZM10.3301 10.2568C10.3301 9.43066 11.042 8.81543 11.9912 8.81543C12.9404 8.81543 13.6611 9.43066 13.6611 10.2656C13.6611 11.1006 12.9492 11.6982 12 11.6982C11.042 11.6982 10.3301 11.1006 10.3301 10.2568Z" fill="#1C1C1E"/>
</g>
<defs>
<clipPath id="clip0_10_2316">
<rect width="24" height="24" fill="white"/>
</clipPath>
</defs>
</svg>
