<svg width="24" height="24" viewBox="0 0 24 24" fill="none" xmlns="http://www.w3.org/2000/svg">
<g clip-path="url(#clip0_10_2243)">
<path d="M11.9912 20.7422C16.9746 20.7422 21.0879 16.6289 21.0879 11.6543C21.0879 6.67969 16.9658 2.56641 11.9824 2.56641C7.00781 2.56641 2.90332 6.67969 2.90332 11.6543C2.90332 16.6289 7.0166 20.7422 11.9912 20.7422ZM8.68652 10.2744C8.68652 8.55176 10.0137 7.33887 12 7.33887C13.9863 7.33887 15.3223 8.55176 15.3223 10.3711C15.3223 11.4258 14.9004 12.3398 14.0566 13.4736C13.6436 14.0273 13.0371 14.8184 12.6064 15.3545C12.3164 15.7148 12.1143 15.9609 11.6836 15.9609C11.209 15.9609 10.9189 15.6445 10.9189 15.3018C10.9189 15.0645 11.0156 14.8711 11.1826 14.6777C11.6396 14.1152 12.1582 13.5 12.5889 12.9551C12.7822 12.7266 12.9316 12.5332 13.0107 12.3926H12.8877C12.5801 12.7002 11.9648 12.9023 11.3848 12.9023C9.82031 12.9023 8.68652 11.7949 8.68652 10.2744ZM10.2773 10.2041C10.2773 11.0654 11.0156 11.6895 12 11.6895C12.9756 11.6895 13.7139 11.0654 13.7139 10.2041C13.7139 9.34277 12.9668 8.70996 11.9912 8.70996C11.0156 8.70996 10.2773 9.34277 10.2773 10.2041Z" fill="#1C1C1E"/>
</g>
<defs>
<clipPath id="clip0_10_2243">
<rect width="24" height="24" fill="white"/>
</clipPath>
</defs>
</svg>
