<svg width="24" height="24" viewBox="0 0 24 24" fill="none" xmlns="http://www.w3.org/2000/svg">
<g clip-path="url(#clip0_10_2238)">
<path d="M6.67383 19.8809H17.3174C19.2246 19.8809 20.209 18.8965 20.209 17.0156V6.31934C20.209 4.43848 19.2246 3.4541 17.3174 3.4541H6.67383C4.77539 3.4541 3.78223 4.42969 3.78223 6.31934V17.0156C3.78223 18.8965 4.77539 19.8809 6.67383 19.8809ZM6.78809 18.1318C5.97949 18.1318 5.53125 17.71 5.53125 16.8574V6.47754C5.53125 5.625 5.97949 5.20312 6.78809 5.20312H17.2031C18.0029 5.20312 18.46 5.625 18.46 6.47754V16.8574C18.46 17.71 18.0029 18.1318 17.2031 18.1318H6.78809ZM8.83594 10.3271C8.83594 11.7861 9.92578 12.8496 11.4287 12.8496C11.9912 12.8496 12.5889 12.6562 12.8789 12.3574H12.9932C12.9141 12.4893 12.7734 12.6826 12.5977 12.9023C12.1758 13.4297 11.6836 14.0273 11.2354 14.5723C11.0771 14.7568 10.9805 14.9414 10.9805 15.1611C10.9805 15.4863 11.2529 15.7939 11.7012 15.7939C12.123 15.7939 12.2988 15.5566 12.5801 15.2139C12.9932 14.6953 13.5908 13.9307 13.9863 13.3945C14.7949 12.3047 15.1992 11.4258 15.1992 10.415C15.1992 8.6748 13.916 7.50586 12.0088 7.50586C10.1191 7.50586 8.83594 8.6748 8.83594 10.3271ZM10.3477 10.2568C10.3477 9.42188 11.0596 8.80664 12.0088 8.80664C12.958 8.80664 13.6699 9.43066 13.6699 10.2568C13.6699 11.0918 12.9668 11.6982 12.0176 11.6982C11.0596 11.6982 10.3477 11.0918 10.3477 10.2568Z" fill="#1C1C1E"/>
</g>
<defs>
<clipPath id="clip0_10_2238">
<rect width="24" height="24" fill="white"/>
</clipPath>
</defs>
</svg>
