<svg width="24" height="24" viewBox="0 0 24 24" fill="none" xmlns="http://www.w3.org/2000/svg">
<g clip-path="url(#clip0_10_2306)">
<path d="M11.9912 20.7422C16.9746 20.7422 21.0879 16.6289 21.0879 11.6543C21.0879 6.67969 16.9658 2.56641 11.9824 2.56641C7.00781 2.56641 2.90332 6.67969 2.90332 11.6543C2.90332 16.6289 7.0166 20.7422 11.9912 20.7422ZM11.9912 18.9316C7.95703 18.9316 4.73145 15.6885 4.73145 11.6543C4.73145 7.62012 7.95703 4.38574 11.9824 4.38574C16.0166 4.38574 19.2598 7.62012 19.2686 11.6543C19.2773 15.6885 16.0254 18.9316 11.9912 18.9316ZM11.8066 15.8115C13.96 15.8115 15.1641 14.291 15.1641 11.4258C15.1641 8.90332 13.9688 7.50586 11.9385 7.50586C10.084 7.50586 8.8623 8.63086 8.8623 10.3271C8.8623 11.9355 10.0664 12.876 11.4727 12.876C12.5625 12.876 13.2393 12.3398 13.5205 11.6982H13.5908C13.6348 13.4385 12.8965 14.5107 11.7891 14.5107C11.2441 14.5107 10.8662 14.2822 10.5322 13.8604C10.3652 13.667 10.1807 13.5176 9.85547 13.5176C9.45996 13.5176 9.16992 13.7988 9.16992 14.1768C9.16992 14.291 9.19629 14.4053 9.24902 14.5195C9.47754 15.126 10.3213 15.8115 11.8066 15.8115ZM12 11.751C11.1123 11.751 10.4971 11.127 10.4971 10.2656C10.4971 9.36035 11.1035 8.74512 12 8.74512C12.8613 8.74512 13.5029 9.39551 13.5029 10.2744C13.5029 11.127 12.8789 11.751 12 11.751Z" fill="#1C1C1E"/>
</g>
<defs>
<clipPath id="clip0_10_2306">
<rect width="24" height="24" fill="white"/>
</clipPath>
</defs>
</svg>
