<svg width="24" height="24" viewBox="0 0 24 24" fill="none" xmlns="http://www.w3.org/2000/svg">
<g clip-path="url(#clip0_10_2303)">
<path d="M11.9912 20.7422C16.9746 20.7422 21.0879 16.6289 21.0879 11.6543C21.0879 6.67969 16.9658 2.56641 11.9824 2.56641C7.00781 2.56641 2.90332 6.67969 2.90332 11.6543C2.90332 16.6289 7.0166 20.7422 11.9912 20.7422ZM11.7979 15.9697C10.2598 15.9697 9.38086 15.2666 9.13477 14.625C9.08203 14.5107 9.05566 14.3877 9.05566 14.2734C9.05566 13.8779 9.36328 13.5879 9.76758 13.5879C10.1104 13.5879 10.3037 13.7373 10.4795 13.9307C10.8311 14.3701 11.2178 14.6074 11.7891 14.6074C12.9316 14.6074 13.6875 13.5 13.6436 11.6982H13.5732C13.2832 12.3662 12.5801 12.9199 11.4375 12.9199C9.97852 12.9199 8.73047 11.9443 8.73047 10.2656C8.73047 8.49902 10.0049 7.33887 11.9385 7.33887C14.0566 7.33887 15.2959 8.78906 15.2959 11.417C15.2959 14.3965 14.0479 15.9697 11.7979 15.9697ZM12 11.7334C12.9141 11.7334 13.5557 11.0918 13.5557 10.2129C13.5557 9.30762 12.8965 8.63086 12.0088 8.63086C11.0771 8.63086 10.4443 9.26367 10.4443 10.2041C10.4443 11.0918 11.0859 11.7334 12 11.7334Z" fill="#1C1C1E"/>
</g>
<defs>
<clipPath id="clip0_10_2303">
<rect width="24" height="24" fill="white"/>
</clipPath>
</defs>
</svg>
