<svg width="24" height="24" viewBox="0 0 24 24" fill="none" xmlns="http://www.w3.org/2000/svg">
<g clip-path="url(#clip0_10_2337)">
<path d="M6.67383 19.8809H17.3174C19.2246 19.8809 20.209 18.8965 20.209 17.0156V6.31934C20.209 4.43848 19.2246 3.4541 17.3174 3.4541H6.67383C4.77539 3.4541 3.78223 4.42969 3.78223 6.31934V17.0156C3.78223 18.8965 4.77539 19.8809 6.67383 19.8809ZM11.833 15.9697C10.2949 15.9697 9.41602 15.2666 9.16992 14.625C9.11719 14.5107 9.09082 14.3877 9.09082 14.2734C9.09082 13.8779 9.39844 13.5879 9.80273 13.5879C10.1455 13.5879 10.3389 13.7373 10.5146 13.9307C10.8662 14.3701 11.2529 14.6074 11.8242 14.6074C12.9668 14.6074 13.7314 13.5 13.6787 11.6982H13.6084C13.3184 12.3662 12.6152 12.9199 11.4727 12.9199C10.0137 12.9199 8.76562 11.9443 8.76562 10.2656C8.76562 8.49902 10.04 7.33887 11.9736 7.33887C14.0918 7.33887 15.3311 8.78906 15.3311 11.417C15.3311 14.3965 14.083 15.9697 11.833 15.9697ZM12.0352 11.7334C12.9492 11.7334 13.5996 11.0918 13.5996 10.2129C13.5996 9.30762 12.9316 8.63086 12.0439 8.63086C11.1123 8.63086 10.4795 9.26367 10.4795 10.2041C10.4795 11.0918 11.1211 11.7334 12.0352 11.7334Z" fill="#1C1C1E"/>
</g>
<defs>
<clipPath id="clip0_10_2337">
<rect width="24" height="24" fill="white"/>
</clipPath>
</defs>
</svg>
