<svg width="24" height="24" viewBox="0 0 24 24" fill="none" xmlns="http://www.w3.org/2000/svg">
<g clip-path="url(#clip0_10_2300)">
<path d="M6.67383 19.8809H17.3174C19.2246 19.8809 20.209 18.8965 20.209 17.0156V6.31934C20.209 4.43848 19.2246 3.4541 17.3174 3.4541H6.67383C4.77539 3.4541 3.78223 4.42969 3.78223 6.31934V17.0156C3.78223 18.8965 4.77539 19.8809 6.67383 19.8809ZM6.78809 18.1318C5.97949 18.1318 5.53125 17.71 5.53125 16.8574V6.47754C5.53125 5.625 5.97949 5.20312 6.78809 5.20312H17.2031C18.0029 5.20312 18.46 5.625 18.46 6.47754V16.8574C18.46 17.71 18.0029 18.1318 17.2031 18.1318H6.78809ZM11.8242 15.8027C13.9775 15.8027 15.1729 14.2822 15.1729 11.4258C15.1729 8.89453 13.9863 7.50586 11.9473 7.50586C10.1016 7.50586 8.87109 8.62207 8.87109 10.3184C8.87109 11.9268 10.0752 12.8672 11.4814 12.8672C12.5801 12.8672 13.248 12.3311 13.5293 11.6982H13.6084C13.6523 13.4297 12.9141 14.502 11.8066 14.502C11.2529 14.502 10.8838 14.2734 10.541 13.8516C10.374 13.667 10.1895 13.5176 9.86426 13.5176C9.47754 13.5176 9.1875 13.79 9.1875 14.168C9.1875 14.291 9.21387 14.3965 9.25781 14.5107C9.49512 15.126 10.3389 15.8027 11.8242 15.8027ZM12.0176 11.7422C11.1299 11.7422 10.5059 11.1182 10.5059 10.2568C10.5059 9.35156 11.1123 8.74512 12.0176 8.74512C12.8789 8.74512 13.5205 9.38672 13.5205 10.2656C13.5205 11.1182 12.8965 11.7422 12.0176 11.7422Z" fill="#1C1C1E"/>
</g>
<defs>
<clipPath id="clip0_10_2300">
<rect width="24" height="24" fill="white"/>
</clipPath>
</defs>
</svg>
