<svg width="24" height="24" viewBox="0 0 24 24" fill="none" xmlns="http://www.w3.org/2000/svg">
<g clip-path="url(#clip0_10_2073)">
<path d="M11.9912 20.7422C16.9746 20.7422 21.0879 16.6289 21.0879 11.6543C21.0879 6.67969 16.9658 2.56641 11.9824 2.56641C7.00781 2.56641 2.90332 6.67969 2.90332 11.6543C2.90332 16.6289 7.0166 20.7422 11.9912 20.7422ZM11.9912 18.9316C7.95703 18.9316 4.73145 15.6885 4.73145 11.6543C4.73145 7.62012 7.95703 4.38574 11.9824 4.38574C16.0166 4.38574 19.2598 7.62012 19.2686 11.6543C19.2773 15.6885 16.0254 18.9316 11.9912 18.9316ZM9.19629 15.7764C9.5918 15.7764 9.85547 15.5742 10.0049 15.0732L10.5322 13.5088H13.4326L13.9688 15.0732C14.1094 15.5654 14.373 15.7764 14.7773 15.7764C15.2607 15.7764 15.5596 15.4775 15.5596 15.0293C15.5596 14.8799 15.5244 14.7217 15.4453 14.4844L13.2217 8.37598C13.0107 7.76074 12.5889 7.46191 11.9736 7.46191C11.3672 7.46191 10.9629 7.76074 10.752 8.37598L8.51953 14.4844C8.44043 14.7217 8.40527 14.8799 8.40527 15.0293C8.40527 15.4863 8.71289 15.7764 9.19629 15.7764ZM10.9014 12.2783L11.9385 9.12305H12.0352L13.0635 12.2783H10.9014Z" fill="#1C1C1E"/>
</g>
<defs>
<clipPath id="clip0_10_2073">
<rect width="24" height="24" fill="white"/>
</clipPath>
</defs>
</svg>
