<svg width="24" height="24" viewBox="0 0 24 24" fill="none" xmlns="http://www.w3.org/2000/svg">
<g clip-path="url(#clip0_10_2027)">
<path d="M6.67383 19.8809H17.3174C19.2246 19.8809 20.209 18.8965 20.209 17.0156V6.31934C20.209 4.43848 19.2246 3.4541 17.3174 3.4541H6.67383C4.77539 3.4541 3.78223 4.42969 3.78223 6.31934V17.0156C3.78223 18.8965 4.77539 19.8809 6.67383 19.8809ZM9.14355 15.8818C8.63379 15.8818 8.32617 15.583 8.32617 15.1172C8.32617 14.959 8.35254 14.8008 8.43164 14.5547L10.7432 8.24414C10.9629 7.61133 11.376 7.29492 12.0088 7.29492C12.6504 7.29492 13.0811 7.61133 13.3008 8.24414L15.6035 14.5547C15.6914 14.8008 15.7178 14.959 15.7178 15.1172C15.7178 15.583 15.4014 15.8818 14.9004 15.8818C14.4873 15.8818 14.2061 15.6797 14.0566 15.1611L13.5117 13.5527H10.5234L9.97852 15.1611C9.8291 15.6797 9.54785 15.8818 9.14355 15.8818ZM10.8926 12.2871H13.1426L12.0703 9H11.9736L10.8926 12.2871Z" fill="#1C1C1E"/>
</g>
<defs>
<clipPath id="clip0_10_2027">
<rect width="24" height="24" fill="white"/>
</clipPath>
</defs>
</svg>
