<svg width="24" height="24" viewBox="0 0 24 24" fill="none" xmlns="http://www.w3.org/2000/svg">
<g clip-path="url(#clip0_10_2029)">
<path d="M6.67383 19.8809H17.3174C19.2246 19.8809 20.209 18.8965 20.209 17.0156V6.31934C20.209 4.43848 19.2246 3.4541 17.3174 3.4541H6.67383C4.77539 3.4541 3.78223 4.42969 3.78223 6.31934V17.0156C3.78223 18.8965 4.77539 19.8809 6.67383 19.8809ZM6.78809 18.1318C5.97949 18.1318 5.53125 17.71 5.53125 16.8574V6.47754C5.53125 5.625 5.97949 5.20312 6.78809 5.20312H17.2031C18.0029 5.20312 18.46 5.625 18.46 6.47754V16.8574C18.46 17.71 18.0029 18.1318 17.2031 18.1318H6.78809ZM9.20508 15.7676C9.60938 15.7676 9.87305 15.5654 10.0137 15.0645L10.5498 13.5H13.4502L13.9863 15.0645C14.127 15.5654 14.3906 15.7676 14.7949 15.7676C15.2695 15.7676 15.5771 15.4775 15.5771 15.0293C15.5771 14.8799 15.542 14.7129 15.4629 14.4844L13.2305 8.36719C13.0195 7.76074 12.6064 7.45312 11.9912 7.45312C11.3848 7.45312 10.9805 7.75195 10.7607 8.36719L8.53711 14.4844C8.45801 14.7129 8.42285 14.8799 8.42285 15.0205C8.42285 15.4775 8.72168 15.7676 9.20508 15.7676ZM10.9189 12.2695L11.9561 9.11426H12.0439L13.0811 12.2695H10.9189Z" fill="#1C1C1E"/>
</g>
<defs>
<clipPath id="clip0_10_2029">
<rect width="24" height="24" fill="white"/>
</clipPath>
</defs>
</svg>
