<svg width="24" height="24" viewBox="0 0 24 24" fill="none" xmlns="http://www.w3.org/2000/svg">
<g clip-path="url(#clip0_10_2201)">
<path d="M11.9912 20.7422C16.9746 20.7422 21.0879 16.6289 21.0879 11.6543C21.0879 6.67969 16.9658 2.56641 11.9824 2.56641C7.00781 2.56641 2.90332 6.67969 2.90332 11.6543C2.90332 16.6289 7.0166 20.7422 11.9912 20.7422ZM11.9912 18.9316C7.95703 18.9316 4.73145 15.6885 4.73145 11.6543C4.73145 7.62012 7.95703 4.38574 11.9824 4.38574C16.0166 4.38574 19.2598 7.62012 19.2686 11.6543C19.2773 15.6885 16.0254 18.9316 11.9912 18.9316ZM9.56543 15.5742H14.5137C14.9443 15.5742 15.2432 15.3018 15.2432 14.8799C15.2432 14.458 14.9531 14.2031 14.5137 14.2031H10.9629V14.124L14.6895 9.0791C14.918 8.78906 14.9707 8.63965 14.9707 8.36719C14.9707 7.92773 14.6455 7.62012 14.1885 7.62012H9.46875C9.03809 7.62012 8.73926 7.88379 8.73926 8.30566C8.73926 8.73633 9.03809 8.99121 9.46875 8.99121H12.835V9.07031L9.1084 14.1152C8.87109 14.4229 8.80078 14.5898 8.80078 14.8447C8.80078 15.2754 9.11719 15.5742 9.56543 15.5742Z" fill="#1C1C1E"/>
</g>
<defs>
<clipPath id="clip0_10_2201">
<rect width="24" height="24" fill="white"/>
</clipPath>
</defs>
</svg>
