<svg width="24" height="24" viewBox="0 0 24 24" fill="none" xmlns="http://www.w3.org/2000/svg">
<g clip-path="url(#clip0_10_2224)">
<path d="M6.67383 19.8809H17.3174C19.2246 19.8809 20.209 18.8965 20.209 17.0156V6.31934C20.209 4.43848 19.2246 3.4541 17.3174 3.4541H6.67383C4.77539 3.4541 3.78223 4.42969 3.78223 6.31934V17.0156C3.78223 18.8965 4.77539 19.8809 6.67383 19.8809ZM6.78809 18.1318C5.97949 18.1318 5.53125 17.71 5.53125 16.8574V6.47754C5.53125 5.625 5.97949 5.20312 6.78809 5.20312H17.2031C18.0029 5.20312 18.46 5.625 18.46 6.47754V16.8574C18.46 17.71 18.0029 18.1318 17.2031 18.1318H6.78809ZM8.40527 13.4561C8.40527 13.6934 8.56348 13.8691 8.80957 13.8691H9.24902L8.87988 14.959C8.84473 15.0908 8.82715 15.1963 8.82715 15.2754C8.82715 15.6357 9.09961 15.8906 9.49512 15.8906C9.8291 15.8906 10.04 15.7148 10.1367 15.3809L10.6025 13.8691H13.3799L13.8457 15.3896C13.9424 15.7236 14.1445 15.8906 14.4961 15.8906C14.8916 15.8906 15.1553 15.6357 15.1553 15.2754C15.1553 15.1963 15.1377 15.0908 15.1025 14.959L14.7334 13.8691H15.1816C15.4277 13.8691 15.5859 13.6934 15.5859 13.4561C15.5859 13.2188 15.4277 13.043 15.1816 13.043H14.4697L14.2412 12.3311H15.1816C15.4277 12.3311 15.5859 12.1553 15.5859 11.918C15.5859 11.6807 15.4277 11.4961 15.1816 11.4961H13.9688L12.8789 8.15625C12.7471 7.74316 12.4482 7.48828 11.9912 7.48828C11.5254 7.48828 11.2354 7.73438 11.1035 8.15625L10.0137 11.4961H8.80957C8.56348 11.4961 8.40527 11.6807 8.40527 11.918C8.40527 12.1553 8.56348 12.3311 8.80957 12.3311H9.74121L9.5127 13.043H8.80957C8.56348 13.043 8.40527 13.2188 8.40527 13.4561ZM11.3145 11.4961L11.9912 9.28125L12.668 11.4961H11.3145ZM10.8486 13.043L11.0684 12.3311H12.9141L13.1338 13.043H10.8486Z" fill="#1C1C1E"/>
</g>
<defs>
<clipPath id="clip0_10_2224">
<rect width="24" height="24" fill="white"/>
</clipPath>
</defs>
</svg>
