<svg width="24" height="24" viewBox="0 0 24 24" fill="none" xmlns="http://www.w3.org/2000/svg">
<g clip-path="url(#clip0_10_2074)">
<path d="M6.67383 19.8809H17.3174C19.2246 19.8809 20.209 18.8965 20.209 17.0156V6.31934C20.209 4.43848 19.2246 3.4541 17.3174 3.4541H6.67383C4.77539 3.4541 3.78223 4.42969 3.78223 6.31934V17.0156C3.78223 18.8965 4.77539 19.8809 6.67383 19.8809ZM8.27344 13.5352C8.27344 13.2891 8.44043 13.1045 8.69531 13.1045H9.4248L9.66211 12.3574H8.69531C8.44043 12.3574 8.27344 12.1729 8.27344 11.9268C8.27344 11.6895 8.44043 11.4961 8.69531 11.4961H9.94336L11.0684 8.01562C11.2178 7.58496 11.5254 7.32129 12.0176 7.32129C12.4922 7.32129 12.7998 7.58496 12.9492 8.01562L14.0742 11.4961H15.3398C15.5947 11.4961 15.7617 11.6895 15.7617 11.9268C15.7617 12.1729 15.5947 12.3574 15.3398 12.3574H14.3555L14.6016 13.1045H15.3398C15.5947 13.1045 15.7617 13.2891 15.7617 13.5352C15.7617 13.7812 15.5947 13.957 15.3398 13.957H14.874L15.2432 15.082C15.2871 15.2227 15.3135 15.3281 15.3135 15.416C15.3135 15.7939 15.0322 16.0576 14.6191 16.0576C14.25 16.0576 14.0303 15.8818 13.9336 15.5391L13.4502 13.957H10.5762L10.0928 15.5303C9.99609 15.873 9.77637 16.0576 9.41602 16.0576C8.99414 16.0576 8.71289 15.7939 8.71289 15.416C8.71289 15.3281 8.73047 15.2227 8.77441 15.082L9.14355 13.957H8.69531C8.44043 13.957 8.27344 13.7812 8.27344 13.5352ZM11.3145 11.4961H12.7119L12.0176 9.20215L11.3145 11.4961ZM10.8311 13.1045H13.1953L12.9668 12.3574H11.0596L10.8311 13.1045Z" fill="#1C1C1E"/>
</g>
<defs>
<clipPath id="clip0_10_2074">
<rect width="24" height="24" fill="white"/>
</clipPath>
</defs>
</svg>
