<svg width="24" height="24" viewBox="0 0 24 24" fill="none" xmlns="http://www.w3.org/2000/svg">
<g clip-path="url(#clip0_10_2226)">
<path d="M11.9912 20.7422C16.9746 20.7422 21.0879 16.6289 21.0879 11.6543C21.0879 6.67969 16.9658 2.56641 11.9824 2.56641C7.00781 2.56641 2.90332 6.67969 2.90332 11.6543C2.90332 16.6289 7.0166 20.7422 11.9912 20.7422ZM8.23828 13.5352C8.23828 13.2891 8.40527 13.1045 8.66016 13.1045H9.38965L9.62695 12.3574H8.66016C8.40527 12.3574 8.23828 12.1729 8.23828 11.9268C8.23828 11.6895 8.40527 11.4961 8.66016 11.4961H9.9082L11.0332 8.01562C11.1826 7.58496 11.4814 7.32129 11.9824 7.32129C12.457 7.32129 12.7646 7.58496 12.9141 8.01562L14.0391 11.4961H15.3047C15.5596 11.4961 15.7266 11.6895 15.7266 11.9268C15.7266 12.1729 15.5596 12.3574 15.3047 12.3574H14.3203L14.5576 13.1045H15.3047C15.5596 13.1045 15.7266 13.2891 15.7266 13.5352C15.7266 13.7812 15.5596 13.957 15.3047 13.957H14.8389L15.208 15.082C15.252 15.2227 15.2783 15.3281 15.2783 15.416C15.2783 15.7939 14.9971 16.0576 14.584 16.0576C14.2148 16.0576 13.9951 15.8818 13.8984 15.5391L13.415 13.957H10.541L10.0576 15.5303C9.96094 15.873 9.74121 16.0576 9.38086 16.0576C8.95898 16.0576 8.67773 15.7939 8.67773 15.416C8.67773 15.3281 8.69531 15.2227 8.73926 15.082L9.1084 13.957H8.66016C8.40527 13.957 8.23828 13.7812 8.23828 13.5352ZM11.2793 11.4961H12.6768L11.9824 9.20215L11.2793 11.4961ZM10.7959 13.1045H13.1602L12.9316 12.3574H11.0244L10.7959 13.1045Z" fill="#1C1C1E"/>
</g>
<defs>
<clipPath id="clip0_10_2226">
<rect width="24" height="24" fill="white"/>
</clipPath>
</defs>
</svg>
