<svg width="24" height="24" viewBox="0 0 24 24" fill="none" xmlns="http://www.w3.org/2000/svg">
<g clip-path="url(#clip0_10_2065)">
<path d="M11.9912 20.7422C16.9746 20.7422 21.0879 16.6289 21.0879 11.6543C21.0879 6.67969 16.9658 2.56641 11.9824 2.56641C7.00781 2.56641 2.90332 6.67969 2.90332 11.6543C2.90332 16.6289 7.0166 20.7422 11.9912 20.7422ZM11.9912 18.9316C7.95703 18.9316 4.73145 15.6885 4.73145 11.6543C4.73145 7.62012 7.95703 4.38574 11.9824 4.38574C16.0166 4.38574 19.2598 7.62012 19.2686 11.6543C19.2773 15.6885 16.0254 18.9316 11.9912 18.9316ZM9.92578 15.583H12.5449C14.3027 15.583 15.4541 14.7041 15.4541 13.3506C15.4541 12.2783 14.7422 11.5312 13.5732 11.3906V11.3291C14.4609 11.1357 15.0146 10.4502 15.0146 9.58008C15.0146 8.38477 14.0479 7.61133 12.5273 7.61133H9.92578C9.31934 7.61133 8.97656 7.9541 8.97656 8.56934V14.625C8.97656 15.2314 9.31934 15.583 9.92578 15.583ZM10.585 10.9424V8.77148H12.1143C12.9229 8.77148 13.4238 9.17578 13.4238 9.83496C13.4238 10.5469 12.8438 10.9424 11.7979 10.9424H10.585ZM10.585 14.3965V12.0059H12.2461C13.2129 12.0059 13.7842 12.4541 13.7842 13.2188C13.7842 14.0186 13.1777 14.3965 11.8857 14.3965H10.585Z" fill="#1C1C1E"/>
</g>
<defs>
<clipPath id="clip0_10_2065">
<rect width="24" height="24" fill="white"/>
</clipPath>
</defs>
</svg>
