<svg width="24" height="24" viewBox="0 0 24 24" fill="none" xmlns="http://www.w3.org/2000/svg">
<g clip-path="url(#clip0_10_2063)">
<path d="M11.9912 20.7422C16.9746 20.7422 21.0879 16.6289 21.0879 11.6543C21.0879 6.67969 16.9658 2.56641 11.9824 2.56641C7.00781 2.56641 2.90332 6.67969 2.90332 11.6543C2.90332 16.6289 7.0166 20.7422 11.9912 20.7422ZM9.84668 15.7324C9.20508 15.7324 8.84473 15.3721 8.84473 14.7305V8.45508C8.84473 7.80469 9.21387 7.45312 9.84668 7.45312H12.5537C14.1357 7.45312 15.1465 8.24414 15.1465 9.49219C15.1465 10.3975 14.5664 11.1094 13.6436 11.3115V11.373C14.8652 11.5312 15.6035 12.2959 15.6035 13.4209C15.6035 14.8271 14.3994 15.7324 12.5801 15.7324H9.84668ZM10.541 10.9072H11.7891C12.8701 10.9072 13.4678 10.4941 13.4678 9.76465C13.4678 9.0791 12.958 8.66602 12.123 8.66602H10.541V10.9072ZM10.541 14.4844H11.877C13.2129 14.4844 13.8457 14.0977 13.8457 13.2715C13.8457 12.4805 13.2568 12.0234 12.2461 12.0234H10.541V14.4844Z" fill="#1C1C1E"/>
</g>
<defs>
<clipPath id="clip0_10_2063">
<rect width="24" height="24" fill="white"/>
</clipPath>
</defs>
</svg>
