<svg width="24" height="24" viewBox="0 0 24 24" fill="none" xmlns="http://www.w3.org/2000/svg">
<g clip-path="url(#clip0_10_2053)">
<path d="M6.67383 19.8809H17.3174C19.2246 19.8809 20.209 18.8965 20.209 17.0156V6.31934C20.209 4.43848 19.2246 3.4541 17.3174 3.4541H6.67383C4.77539 3.4541 3.78223 4.42969 3.78223 6.31934V17.0156C3.78223 18.8965 4.77539 19.8809 6.67383 19.8809ZM6.78809 18.1318C5.97949 18.1318 5.53125 17.71 5.53125 16.8574V6.47754C5.53125 5.625 5.97949 5.20312 6.78809 5.20312H17.2031C18.0029 5.20312 18.46 5.625 18.46 6.47754V16.8574C18.46 17.71 18.0029 18.1318 17.2031 18.1318H6.78809ZM9.94336 15.5742H12.5625C14.3203 15.5742 15.4717 14.6953 15.4717 13.3506C15.4717 12.2695 14.7598 11.5312 13.5908 11.3818V11.3203C14.4785 11.127 15.0322 10.4414 15.0322 9.57129C15.0322 8.37598 14.0654 7.61133 12.5449 7.61133H9.94336C9.33691 7.61133 8.99414 7.94531 8.99414 8.56055V14.6162C8.99414 15.2314 9.32812 15.5742 9.94336 15.5742ZM10.6025 10.9336V8.77148H12.1318C12.9404 8.77148 13.4326 9.17578 13.4326 9.83496C13.4326 10.5381 12.8613 10.9336 11.8066 10.9336H10.6025ZM10.6025 14.3877V11.9971H12.2549C13.2305 11.9971 13.793 12.4453 13.793 13.21C13.793 14.0098 13.1865 14.3877 11.9033 14.3877H10.6025Z" fill="#1C1C1E"/>
</g>
<defs>
<clipPath id="clip0_10_2053">
<rect width="24" height="24" fill="white"/>
</clipPath>
</defs>
</svg>
