<svg width="24" height="24" viewBox="0 0 24 24" fill="none" xmlns="http://www.w3.org/2000/svg">
<g clip-path="url(#clip0_10_2051)">
<path d="M6.67383 19.8809H17.3174C19.2246 19.8809 20.209 18.8965 20.209 17.0156V6.31934C20.209 4.43848 19.2246 3.4541 17.3174 3.4541H6.67383C4.77539 3.4541 3.78223 4.42969 3.78223 6.31934V17.0156C3.78223 18.8965 4.77539 19.8809 6.67383 19.8809ZM9.88184 15.7324C9.24023 15.7324 8.87988 15.3721 8.87988 14.7305V8.45508C8.87988 7.80469 9.24902 7.45312 9.88184 7.45312H12.5889C14.1709 7.45312 15.1816 8.24414 15.1816 9.49219C15.1816 10.3975 14.6016 11.1094 13.6787 11.3115V11.373C14.9004 11.5312 15.6387 12.2959 15.6387 13.4209C15.6387 14.8271 14.4346 15.7324 12.6152 15.7324H9.88184ZM10.5762 10.9072H11.8242C12.9053 10.9072 13.5029 10.4941 13.5029 9.76465C13.5029 9.0791 12.9932 8.66602 12.1582 8.66602H10.5762V10.9072ZM10.5762 14.4844H11.9121C13.248 14.4844 13.8809 14.0977 13.8809 13.2715C13.8809 12.4805 13.292 12.0234 12.2812 12.0234H10.5762V14.4844Z" fill="#1C1C1E"/>
</g>
<defs>
<clipPath id="clip0_10_2051">
<rect width="24" height="24" fill="white"/>
</clipPath>
</defs>
</svg>
