<svg width="24" height="24" viewBox="0 0 24 24" fill="none" xmlns="http://www.w3.org/2000/svg">
<g clip-path="url(#clip0_10_2060)">
<path d="M11.9912 20.7422C16.9746 20.7422 21.0879 16.6289 21.0879 11.6543C21.0879 6.67969 16.9658 2.56641 11.9824 2.56641C7.00781 2.56641 2.90332 6.67969 2.90332 11.6543C2.90332 16.6289 7.0166 20.7422 11.9912 20.7422ZM12.1143 16.9102C11.8682 16.9102 11.6836 16.7344 11.6836 16.4795V15.8818H10.2861C9.79395 15.8818 9.47754 15.5566 9.47754 15.0557V8.38477C9.47754 7.88379 9.80273 7.5498 10.2861 7.5498H11.6836V6.89062C11.6836 6.63574 11.8682 6.45996 12.1143 6.45996C12.3516 6.45996 12.5273 6.63574 12.5273 6.89062V7.5498H12.6943C14.1357 7.5498 15.085 8.4375 15.085 9.68555C15.085 10.4502 14.6104 11.1533 13.9424 11.4697C14.8652 11.7422 15.4805 12.5156 15.4805 13.5C15.4805 14.9502 14.4082 15.8818 12.7207 15.8818H12.5273V16.4795C12.5273 16.7344 12.3516 16.9102 12.1143 16.9102ZM10.875 11.0215H11.6836V8.74512H10.8838L10.875 11.0215ZM12.5273 10.9775C13.3008 10.8809 13.6963 10.4766 13.6963 9.83496C13.6963 9.20215 13.292 8.83301 12.5273 8.7627V10.9775ZM10.8838 14.6865L11.6836 14.6777V12.1729H10.8838V14.6865ZM12.5273 14.6689C13.5557 14.625 14.0654 14.1943 14.0654 13.4121C14.0654 12.6562 13.5557 12.2344 12.5273 12.1729V14.6689Z" fill="#1C1C1E"/>
</g>
<defs>
<clipPath id="clip0_10_2060">
<rect width="24" height="24" fill="white"/>
</clipPath>
</defs>
</svg>
