<svg width="24" height="24" viewBox="0 0 24 24" fill="none" xmlns="http://www.w3.org/2000/svg">
<g clip-path="url(#clip0_10_2236)">
<path d="M6.67383 19.8809H17.3174C19.2246 19.8809 20.209 18.8965 20.209 17.0156V6.31934C20.209 4.43848 19.2246 3.4541 17.3174 3.4541H6.67383C4.77539 3.4541 3.78223 4.42969 3.78223 6.31934V17.0156C3.78223 18.8965 4.77539 19.8809 6.67383 19.8809ZM12.1494 16.9102C11.9033 16.9102 11.7188 16.7344 11.7188 16.4795V15.8818H10.3213C9.83789 15.8818 9.5127 15.5566 9.5127 15.0557V8.38477C9.5127 7.88379 9.83789 7.5498 10.3213 7.5498H11.7188V6.89062C11.7188 6.63574 11.9033 6.45996 12.1494 6.45996C12.3867 6.45996 12.5625 6.63574 12.5625 6.89062V7.5498H12.7383C14.1709 7.5498 15.1201 8.4375 15.1201 9.68555C15.1201 10.4502 14.6455 11.1533 13.9775 11.4697C14.9004 11.7422 15.5156 12.5156 15.5156 13.5C15.5156 14.9502 14.4434 15.8818 12.7559 15.8818H12.5625V16.4795C12.5625 16.7344 12.3867 16.9102 12.1494 16.9102ZM10.9102 11.0215H11.7188V8.74512H10.9189L10.9102 11.0215ZM12.5625 10.9775C13.3359 10.8809 13.7314 10.4766 13.7314 9.83496C13.7314 9.20215 13.3271 8.83301 12.5625 8.7627V10.9775ZM10.9189 14.6865L11.7188 14.6777V12.1729H10.9189V14.6865ZM12.5625 14.6689C13.5908 14.625 14.1006 14.1943 14.1006 13.4121C14.1006 12.6562 13.5908 12.2344 12.5625 12.1729V14.6689Z" fill="#1C1C1E"/>
</g>
<defs>
<clipPath id="clip0_10_2236">
<rect width="24" height="24" fill="white"/>
</clipPath>
</defs>
</svg>
