<svg width="24" height="24" viewBox="0 0 24 24" fill="none" xmlns="http://www.w3.org/2000/svg">
<g clip-path="url(#clip0_10_2139)">
<path d="M11.9912 20.7422C16.9746 20.7422 21.0879 16.6289 21.0879 11.6543C21.0879 6.67969 16.9658 2.56641 11.9824 2.56641C7.00781 2.56641 2.90332 6.67969 2.90332 11.6543C2.90332 16.6289 7.0166 20.7422 11.9912 20.7422ZM11.9912 18.9316C7.95703 18.9316 4.73145 15.6885 4.73145 11.6543C4.73145 7.62012 7.95703 4.38574 11.9824 4.38574C16.0166 4.38574 19.2598 7.62012 19.2686 11.6543C19.2773 15.6885 16.0254 18.9316 11.9912 18.9316ZM10.207 15.3457C10.585 15.3457 10.7959 15.082 10.7959 14.7217V13.79H11.2002C11.5254 13.79 11.7275 13.5967 11.7275 13.2627C11.7275 12.9199 11.5254 12.7178 11.2002 12.7178H10.7959V8.89453C10.7959 8.33203 10.4268 7.96289 9.83789 7.96289C9.28418 7.96289 8.94141 8.18262 8.65137 8.70996C7.99219 9.83496 7.20117 11.25 6.68262 12.208C6.55078 12.498 6.48047 12.7178 6.48047 12.9902C6.48047 13.5 6.79688 13.7988 7.29785 13.7988H9.63574V14.7217C9.63574 15.0732 9.83789 15.3457 10.207 15.3457ZM14.7861 15.3545C16.3154 15.3545 17.3174 14.4141 17.3174 12.8848C17.3174 11.5488 16.4209 10.626 15.1553 10.626C14.584 10.626 13.9951 10.8984 13.7402 11.2939H13.7051L13.8545 9.21973H16.5439C16.8428 9.21973 17.0449 9 17.0449 8.6748C17.0449 8.34961 16.8516 8.13867 16.5439 8.13867H13.6523C13.1689 8.13867 12.8701 8.4375 12.835 8.92969L12.6416 11.5488C12.6152 12.0234 12.8789 12.3311 13.3008 12.3311C13.5908 12.3311 13.7666 12.252 14.0215 12.0498C14.3555 11.7598 14.6104 11.6455 14.9619 11.6455C15.6562 11.6455 16.1309 12.1992 16.1309 12.9199C16.1309 13.7461 15.6123 14.2559 14.8477 14.2559C14.3027 14.2559 13.8545 13.9658 13.6172 13.5088C13.4854 13.2803 13.3184 13.1396 13.0811 13.1396C12.7646 13.1396 12.5449 13.377 12.5449 13.6934C12.5449 13.8428 12.5713 13.9746 12.624 14.1064C12.8789 14.7744 13.7051 15.3545 14.7861 15.3545ZM9.63574 12.7178H7.72852V12.6826C8.17676 11.7773 8.98535 10.3184 9.5918 9.2373H9.63574V12.7178Z" fill="#1C1C1E"/>
</g>
<defs>
<clipPath id="clip0_10_2139">
<rect width="24" height="24" fill="white"/>
</clipPath>
</defs>
</svg>
