<svg width="24" height="24" viewBox="0 0 24 24" fill="none" xmlns="http://www.w3.org/2000/svg">
<g clip-path="url(#clip0_10_2050)">
<path d="M6.67383 19.8809H17.3174C19.2246 19.8809 20.209 18.8965 20.209 17.0156V6.31934C20.209 4.43848 19.2246 3.4541 17.3174 3.4541H6.67383C4.77539 3.4541 3.78223 4.42969 3.78223 6.31934V17.0156C3.78223 18.8965 4.77539 19.8809 6.67383 19.8809ZM6.78809 18.1318C5.97949 18.1318 5.53125 17.71 5.53125 16.8574V6.47754C5.53125 5.625 5.97949 5.20312 6.78809 5.20312H17.2031C18.0029 5.20312 18.46 5.625 18.46 6.47754V16.8574C18.46 17.71 18.0029 18.1318 17.2031 18.1318H6.78809ZM9.44238 14.9854C9.44238 15.46 9.75 15.7588 10.2158 15.7588H10.6289V16.4531C10.6289 16.6904 10.8047 16.8574 11.0332 16.8574C11.2705 16.8574 11.4463 16.6904 11.4463 16.4531V15.7588H12.0088V16.4531C12.0088 16.6904 12.1846 16.8574 12.4131 16.8574C12.6504 16.8574 12.8174 16.6904 12.8174 16.4531V15.7412C14.3115 15.6094 15.1992 14.7656 15.1992 13.4648C15.1992 12.5244 14.6104 11.7861 13.7314 11.5225C14.373 11.2148 14.8213 10.5381 14.8213 9.80859C14.8213 8.70996 14.0566 7.93652 12.8174 7.78711V7.0752C12.8174 6.83789 12.6504 6.6709 12.4131 6.6709C12.1846 6.6709 12.0088 6.83789 12.0088 7.0752V7.76074H11.4463V7.0752C11.4463 6.83789 11.2705 6.6709 11.0332 6.6709C10.8047 6.6709 10.6289 6.83789 10.6289 7.0752V7.76074H10.2158C9.75879 7.76074 9.44238 8.06836 9.44238 8.55176V14.9854ZM10.7871 11.083V8.89453H12.1406C12.9932 8.89453 13.4854 9.27246 13.4854 9.94922C13.4854 10.6875 12.9316 11.1006 11.9297 11.0918L10.7871 11.083ZM10.7871 14.6162V12.1904H12.1494C13.2656 12.1904 13.8545 12.6035 13.8545 13.3945C13.8545 14.1943 13.292 14.6074 12.2285 14.6162H10.7871Z" fill="#1C1C1E"/>
</g>
<defs>
<clipPath id="clip0_10_2050">
<rect width="24" height="24" fill="white"/>
</clipPath>
</defs>
</svg>
