<svg width="24" height="24" viewBox="0 0 24 24" fill="none" xmlns="http://www.w3.org/2000/svg">
<g clip-path="url(#clip0_10_2054)">
<path d="M11.9912 20.7422C16.9746 20.7422 21.0879 16.6289 21.0879 11.6543C21.0879 6.67969 16.9658 2.56641 11.9824 2.56641C7.00781 2.56641 2.90332 6.67969 2.90332 11.6543C2.90332 16.6289 7.0166 20.7422 11.9912 20.7422ZM11.9912 18.9316C7.95703 18.9316 4.73145 15.6885 4.73145 11.6543C4.73145 7.62012 7.95703 4.38574 11.9824 4.38574C16.0166 4.38574 19.2598 7.62012 19.2686 11.6543C19.2773 15.6885 16.0254 18.9316 11.9912 18.9316ZM9.43359 14.9854C9.43359 15.46 9.73242 15.7676 10.1982 15.7676H10.6113V16.4619C10.6113 16.6992 10.7871 16.8662 11.0244 16.8662C11.2529 16.8662 11.4287 16.6992 11.4287 16.4619V15.7676H11.9912V16.4619C11.9912 16.6992 12.167 16.8662 12.4043 16.8662C12.6328 16.8662 12.8086 16.6992 12.8086 16.4619V15.7412C14.2939 15.6182 15.1816 14.7744 15.1816 13.4736C15.1816 12.5332 14.6016 11.7949 13.7139 11.5312C14.3555 11.2236 14.8125 10.5469 14.8125 9.81738C14.8125 8.71875 14.0391 7.94531 12.8086 7.7959V7.08398C12.8086 6.84668 12.6328 6.6709 12.4043 6.6709C12.167 6.6709 11.9912 6.84668 11.9912 7.08398V7.76953H11.4287V7.08398C11.4287 6.84668 11.2529 6.6709 11.0244 6.6709C10.7871 6.6709 10.6113 6.84668 10.6113 7.08398V7.76953H10.207C9.74121 7.76953 9.43359 8.07715 9.43359 8.55176V14.9854ZM10.7695 11.0918V8.89453H12.123C12.9756 8.89453 13.4678 9.28125 13.4678 9.94922C13.4678 10.6875 12.9141 11.1094 11.9121 11.1006L10.7695 11.0918ZM10.7695 14.625V12.1904H12.1318C13.2568 12.1904 13.8369 12.6035 13.8369 13.4033C13.8369 14.2031 13.2744 14.6074 12.2109 14.6162L10.7695 14.625Z" fill="#1C1C1E"/>
</g>
<defs>
<clipPath id="clip0_10_2054">
<rect width="24" height="24" fill="white"/>
</clipPath>
</defs>
</svg>
