<svg width="24" height="24" viewBox="0 0 24 24" fill="none" xmlns="http://www.w3.org/2000/svg">
<g clip-path="url(#clip0_10_2052)">
<path d="M11.9912 20.7422C16.9746 20.7422 21.0879 16.6289 21.0879 11.6543C21.0879 6.67969 16.9658 2.56641 11.9824 2.56641C7.00781 2.56641 2.90332 6.67969 2.90332 11.6543C2.90332 16.6289 7.0166 20.7422 11.9912 20.7422ZM9.38965 15.0205V8.5166C9.38965 8.02441 9.70605 7.70801 10.1807 7.70801H10.6025V7.01367C10.6025 6.76758 10.7695 6.60059 11.0068 6.60059C11.2441 6.60059 11.4199 6.76758 11.4199 7.01367V7.70801H12V7.01367C12 6.76758 12.167 6.60059 12.4043 6.60059C12.6416 6.60059 12.8174 6.76758 12.8174 7.01367V7.73438C14.0742 7.88379 14.8564 8.66602 14.8564 9.78223C14.8564 10.5205 14.3994 11.2148 13.7402 11.5137C14.6455 11.7861 15.2344 12.5332 15.2344 13.4912C15.2344 14.8096 14.3291 15.6621 12.8174 15.7939V16.5146C12.8174 16.7607 12.6416 16.9277 12.4043 16.9277C12.167 16.9277 12 16.7607 12 16.5146V15.8115H11.4199V16.5146C11.4199 16.7607 11.2441 16.9277 11.0068 16.9277C10.7695 16.9277 10.6025 16.7607 10.6025 16.5146V15.8115H10.1807C9.69727 15.8115 9.38965 15.5039 9.38965 15.0205ZM10.7607 11.0742L11.9209 11.083C12.9229 11.0918 13.4854 10.6699 13.4854 9.92285C13.4854 9.24609 12.9844 8.85938 12.1318 8.85938H10.7607V11.0742ZM10.7607 14.6514L12.2197 14.6426C13.2832 14.6338 13.8545 14.2207 13.8545 13.4121C13.8545 12.6123 13.2656 12.1992 12.1406 12.1992H10.7607V14.6514Z" fill="#1C1C1E"/>
</g>
<defs>
<clipPath id="clip0_10_2052">
<rect width="24" height="24" fill="white"/>
</clipPath>
</defs>
</svg>
