<svg width="24" height="24" viewBox="0 0 24 24" fill="none" xmlns="http://www.w3.org/2000/svg">
<g clip-path="url(#clip0_10_2240)">
<path d="M11.9912 20.7422C16.9746 20.7422 21.0879 16.6289 21.0879 11.6543C21.0879 6.67969 16.9658 2.56641 11.9824 2.56641C7.00781 2.56641 2.90332 6.67969 2.90332 11.6543C2.90332 16.6289 7.0166 20.7422 11.9912 20.7422ZM11.9912 18.9316C7.95703 18.9316 4.73145 15.6885 4.73145 11.6543C4.73145 7.62012 7.95703 4.38574 11.9824 4.38574C16.0166 4.38574 19.2598 7.62012 19.2686 11.6543C19.2773 15.6885 16.0254 18.9316 11.9912 18.9316ZM11.9824 15.7676C13.5469 15.7676 14.7949 15.0293 15.2256 13.8604C15.2959 13.7021 15.3135 13.5615 15.3135 13.4121C15.3135 12.9814 15.0322 12.709 14.5752 12.709C14.25 12.709 14.0391 12.8584 13.8721 13.1924C13.5469 13.957 12.8877 14.3789 12.0088 14.3789C10.7432 14.3789 9.9082 13.2715 9.9082 11.6016C9.9082 9.93164 10.7432 8.81543 12.0088 8.81543C12.8877 8.81543 13.5469 9.2373 13.8721 10.002C14.0479 10.3535 14.25 10.4854 14.5752 10.4854C15.0322 10.4854 15.3135 10.2217 15.3135 9.79102C15.3135 9.63281 15.2959 9.50098 15.2256 9.33398C14.7861 8.17383 13.5381 7.42676 11.9824 7.42676C9.68848 7.42676 8.20312 9.06152 8.20312 11.6016C8.20312 14.1328 9.67969 15.7676 11.9824 15.7676Z" fill="#1C1C1E"/>
</g>
<defs>
<clipPath id="clip0_10_2240">
<rect width="24" height="24" fill="white"/>
</clipPath>
</defs>
</svg>
