<svg width="24" height="24" viewBox="0 0 24 24" fill="none" xmlns="http://www.w3.org/2000/svg">
<g clip-path="url(#clip0_10_2235)">
<path d="M11.9912 20.7422C16.9746 20.7422 21.0879 16.6289 21.0879 11.6543C21.0879 6.67969 16.9658 2.56641 11.9824 2.56641C7.00781 2.56641 2.90332 6.67969 2.90332 11.6543C2.90332 16.6289 7.0166 20.7422 11.9912 20.7422ZM11.9912 15.9258C9.58301 15.9258 8.05371 14.2295 8.05371 11.5928C8.05371 8.95605 9.5918 7.25977 11.9912 7.25977C13.5996 7.25977 14.9092 8.02441 15.3662 9.2373C15.4365 9.41309 15.4629 9.54492 15.4629 9.71191C15.4629 10.1689 15.1641 10.4502 14.6807 10.4502C14.3379 10.4502 14.127 10.3008 13.9424 9.94043C13.5996 9.14941 12.9229 8.71875 12.0176 8.71875C10.708 8.71875 9.83789 9.86133 9.83789 11.5928C9.83789 13.3242 10.708 14.4668 12.0088 14.4668C12.9229 14.4668 13.5996 14.0361 13.9424 13.2451C14.1182 12.8936 14.3379 12.7441 14.6807 12.7441C15.1641 12.7441 15.4629 13.0166 15.4629 13.4736C15.4629 13.6318 15.4365 13.7812 15.3662 13.957C14.918 15.1699 13.6084 15.9258 11.9912 15.9258Z" fill="#1C1C1E"/>
</g>
<defs>
<clipPath id="clip0_10_2235">
<rect width="24" height="24" fill="white"/>
</clipPath>
</defs>
</svg>
