<svg width="24" height="24" viewBox="0 0 24 24" fill="none" xmlns="http://www.w3.org/2000/svg">
<g clip-path="url(#clip0_10_2067)">
<path d="M6.67383 19.8809H17.3174C19.2246 19.8809 20.209 18.8965 20.209 17.0156V6.31934C20.209 4.43848 19.2246 3.4541 17.3174 3.4541H6.67383C4.77539 3.4541 3.78223 4.42969 3.78223 6.31934V17.0156C3.78223 18.8965 4.77539 19.8809 6.67383 19.8809ZM12.0264 15.9258C9.61816 15.9258 8.08887 14.2295 8.08887 11.5928C8.08887 8.95605 9.62695 7.25977 12.0264 7.25977C13.6348 7.25977 14.9443 8.02441 15.4014 9.2373C15.4717 9.41309 15.498 9.54492 15.498 9.71191C15.498 10.1689 15.1992 10.4502 14.7158 10.4502C14.373 10.4502 14.1621 10.3008 13.9775 9.94043C13.6348 9.14941 12.958 8.71875 12.0527 8.71875C10.7432 8.71875 9.87305 9.86133 9.87305 11.5928C9.87305 13.3242 10.7432 14.4668 12.0439 14.4668C12.958 14.4668 13.6348 14.0361 13.9775 13.2451C14.1533 12.8936 14.373 12.7441 14.7158 12.7441C15.1992 12.7441 15.498 13.0166 15.498 13.4736C15.498 13.6318 15.4717 13.7812 15.4014 13.957C14.9531 15.1699 13.6436 15.9258 12.0264 15.9258Z" fill="#1C1C1E"/>
</g>
<defs>
<clipPath id="clip0_10_2067">
<rect width="24" height="24" fill="white"/>
</clipPath>
</defs>
</svg>
