<svg width="24" height="24" viewBox="0 0 24 24" fill="none" xmlns="http://www.w3.org/2000/svg">
<g clip-path="url(#clip0_10_2069)">
<path d="M6.67383 19.8809H17.3174C19.2246 19.8809 20.209 18.8965 20.209 17.0156V6.31934C20.209 4.43848 19.2246 3.4541 17.3174 3.4541H6.67383C4.77539 3.4541 3.78223 4.42969 3.78223 6.31934V17.0156C3.78223 18.8965 4.77539 19.8809 6.67383 19.8809ZM6.78809 18.1318C5.97949 18.1318 5.53125 17.71 5.53125 16.8574V6.47754C5.53125 5.625 5.97949 5.20312 6.78809 5.20312H17.2031C18.0029 5.20312 18.46 5.625 18.46 6.47754V16.8574C18.46 17.71 18.0029 18.1318 17.2031 18.1318H6.78809ZM12 15.7588C13.5645 15.7588 14.8037 15.0205 15.2432 13.8604C15.3047 13.6934 15.3311 13.5527 15.3311 13.4033C15.3311 12.9727 15.0498 12.709 14.5928 12.709C14.2676 12.709 14.0566 12.8496 13.8809 13.1924C13.5557 13.9482 12.9053 14.3701 12.0176 14.3701C10.7607 14.3701 9.92578 13.2715 9.92578 11.5928C9.92578 9.92285 10.7607 8.81543 12.0264 8.81543C12.9053 8.81543 13.5645 9.2373 13.8896 10.002C14.0654 10.3447 14.2588 10.4854 14.5928 10.4854C15.0498 10.4854 15.3311 10.2217 15.3311 9.78223C15.3311 9.62402 15.3047 9.50098 15.2432 9.33398C14.8037 8.16504 13.5469 7.42676 12 7.42676C9.70605 7.42676 8.2207 9.06152 8.2207 11.5928C8.2207 14.1328 9.69727 15.7588 12 15.7588Z" fill="#1C1C1E"/>
</g>
<defs>
<clipPath id="clip0_10_2069">
<rect width="24" height="24" fill="white"/>
</clipPath>
</defs>
</svg>
