<svg width="24" height="24" viewBox="0 0 24 24" fill="none" xmlns="http://www.w3.org/2000/svg">
<g clip-path="url(#clip0_10_2020)">
<path d="M11.9912 20.7422C16.9746 20.7422 21.0879 16.6289 21.0879 11.6543C21.0879 6.67969 16.9658 2.56641 11.9824 2.56641C7.00781 2.56641 2.90332 6.67969 2.90332 11.6543C2.90332 16.6289 7.0166 20.7422 11.9912 20.7422ZM11.9912 18.9316C7.95703 18.9316 4.73145 15.6885 4.73145 11.6543C4.73145 7.62012 7.95703 4.38574 11.9824 4.38574C16.0166 4.38574 19.2598 7.62012 19.2686 11.6543C19.2773 15.6885 16.0254 18.9316 11.9912 18.9316ZM8.48438 11.6719C8.48438 14.0449 9.6709 15.5654 11.5693 15.7852V16.4355C11.5693 16.6904 11.7451 16.8574 11.9824 16.8574C12.2197 16.8574 12.3955 16.6904 12.3955 16.4355V15.7939C13.7314 15.6973 14.7158 14.9678 15.0938 13.9219C15.1553 13.7725 15.1904 13.6143 15.1904 13.4561C15.1904 13.0781 14.9355 12.8232 14.5576 12.8232C14.2236 12.8232 14.0303 12.9902 13.9072 13.3242C13.7139 14.001 13.1426 14.4668 12.3955 14.5811V8.78906C13.0986 8.91211 13.6523 9.4043 13.8545 10.0547C13.9863 10.415 14.1621 10.5469 14.5049 10.5469C14.8828 10.5469 15.1377 10.3008 15.1289 9.92285C15.1289 9.75586 15.085 9.58008 15.0234 9.42188C14.6104 8.38477 13.6348 7.68164 12.3955 7.55859V6.92578C12.3955 6.67969 12.2197 6.5127 11.9824 6.5127C11.7451 6.5127 11.5693 6.67969 11.5693 6.92578V7.56738C9.67969 7.7959 8.48438 9.3252 8.48438 11.6719ZM9.87305 11.6719C9.87305 10.125 10.5146 9.05273 11.5693 8.80664V14.5459C10.5059 14.3086 9.87305 13.2451 9.87305 11.6719Z" fill="#1C1C1E"/>
</g>
<defs>
<clipPath id="clip0_10_2020">
<rect width="24" height="24" fill="white"/>
</clipPath>
</defs>
</svg>
