<svg width="24" height="24" viewBox="0 0 24 24" fill="none" xmlns="http://www.w3.org/2000/svg">
<g clip-path="url(#clip0_10_2016)">
<path d="M6.67383 19.8809H17.3174C19.2246 19.8809 20.209 18.8965 20.209 17.0156V6.31934C20.209 4.43848 19.2246 3.4541 17.3174 3.4541H6.67383C4.77539 3.4541 3.78223 4.42969 3.78223 6.31934V17.0156C3.78223 18.8965 4.77539 19.8809 6.67383 19.8809ZM6.78809 18.1318C5.97949 18.1318 5.53125 17.71 5.53125 16.8574V6.47754C5.53125 5.625 5.97949 5.20312 6.78809 5.20312H17.2031C18.0029 5.20312 18.46 5.625 18.46 6.47754V16.8574C18.46 17.71 18.0029 18.1318 17.2031 18.1318H6.78809ZM8.50195 11.6631C8.50195 14.0361 9.68848 15.5566 11.5781 15.7852V16.4355C11.5781 16.6816 11.7627 16.8486 11.9912 16.8486C12.2285 16.8486 12.4131 16.6816 12.4131 16.4355V15.7939C13.7402 15.6885 14.7334 14.959 15.1113 13.9219C15.1729 13.7637 15.208 13.6055 15.208 13.4473C15.208 13.0693 14.9531 12.8232 14.5664 12.8232C14.2412 12.8232 14.0479 12.9814 13.9248 13.3154C13.7227 13.9922 13.1602 14.4668 12.4131 14.5723V8.78027C13.1162 8.90332 13.6699 9.39551 13.8721 10.0459C14.0039 10.4062 14.1797 10.5381 14.5225 10.5381C14.9004 10.5381 15.1465 10.292 15.1465 9.91406C15.1465 9.74707 15.1025 9.58008 15.0322 9.41309C14.6279 8.38477 13.6523 7.67285 12.4131 7.55859V6.92578C12.4131 6.6709 12.2285 6.50391 11.9912 6.50391C11.7539 6.50391 11.5781 6.6709 11.5781 6.92578V7.56738C9.69727 7.78711 8.50195 9.31641 8.50195 11.6631ZM9.89062 11.6631C9.89062 10.1162 10.5322 9.05273 11.5781 8.80664V14.5459C10.5234 14.2998 9.89062 13.2363 9.89062 11.6631Z" fill="#1C1C1E"/>
</g>
<defs>
<clipPath id="clip0_10_2016">
<rect width="24" height="24" fill="white"/>
</clipPath>
</defs>
</svg>
