<svg width="24" height="24" viewBox="0 0 24 24" fill="none" xmlns="http://www.w3.org/2000/svg">
<g clip-path="url(#clip0_10_2175)">
<path d="M11.9912 20.7422C16.9746 20.7422 21.0879 16.6289 21.0879 11.6543C21.0879 6.67969 16.9658 2.56641 11.9824 2.56641C7.00781 2.56641 2.90332 6.67969 2.90332 11.6543C2.90332 16.6289 7.0166 20.7422 11.9912 20.7422ZM8.90625 11.6543C8.90625 9.77344 9.92578 8.54297 11.543 8.34961V7.69922C11.543 7.44434 11.7275 7.25977 11.9824 7.25977C12.2285 7.25977 12.4043 7.44434 12.4043 7.69922V8.34082C13.5908 8.47266 14.3994 9.13184 14.6631 9.93164C14.6895 10.0283 14.7246 10.1426 14.7246 10.2568C14.7246 10.626 14.4609 10.8809 14.083 10.8809C13.7842 10.8809 13.582 10.7227 13.4502 10.4502C13.2656 10.002 12.9141 9.68555 12.4043 9.57129V13.7373C12.9229 13.623 13.2744 13.3066 13.4678 12.8584C13.5996 12.5859 13.8193 12.4277 14.083 12.4277C14.4609 12.4277 14.7334 12.6826 14.7334 13.0518C14.7334 13.166 14.707 13.2715 14.6895 13.3506C14.4434 14.1328 13.6436 14.8359 12.4043 14.9766V15.6094C12.4043 15.8643 12.2285 16.0488 11.9824 16.0488C11.7275 16.0488 11.543 15.8643 11.543 15.6094V14.9678C9.92578 14.7744 8.90625 13.5439 8.90625 11.6543ZM10.3037 11.6543C10.3037 12.7969 10.7695 13.5264 11.543 13.7109V9.59766C10.7783 9.79102 10.3037 10.5205 10.3037 11.6543Z" fill="#1C1C1E"/>
</g>
<defs>
<clipPath id="clip0_10_2175">
<rect width="24" height="24" fill="white"/>
</clipPath>
</defs>
</svg>
