<svg width="24" height="24" viewBox="0 0 24 24" fill="none" xmlns="http://www.w3.org/2000/svg">
<g clip-path="url(#clip0_10_2167)">
<path d="M6.67383 19.8809H17.3174C19.2246 19.8809 20.209 18.8965 20.209 17.0156V6.31934C20.209 4.43848 19.2246 3.4541 17.3174 3.4541H6.67383C4.77539 3.4541 3.78223 4.42969 3.78223 6.31934V17.0156C3.78223 18.8965 4.77539 19.8809 6.67383 19.8809ZM8.94141 11.6543C8.94141 9.77344 9.96094 8.54297 11.5781 8.34961V7.69922C11.5781 7.44434 11.7715 7.25977 12.0176 7.25977C12.2637 7.25977 12.4395 7.44434 12.4395 7.69922V8.34082C13.626 8.47266 14.4346 9.13184 14.707 9.93164C14.7334 10.0283 14.7598 10.1426 14.7598 10.2568C14.7598 10.626 14.4961 10.8809 14.127 10.8809C13.8281 10.8809 13.6172 10.7227 13.4941 10.4502C13.3008 10.002 12.9492 9.68555 12.4395 9.57129V13.7373C12.958 13.623 13.3184 13.3066 13.5029 12.8584C13.6348 12.5859 13.8545 12.4277 14.1182 12.4277C14.4961 12.4277 14.7686 12.6826 14.7686 13.0518C14.7686 13.166 14.751 13.2715 14.7246 13.3506C14.4785 14.1328 13.6787 14.8359 12.4395 14.9766V15.6094C12.4395 15.8643 12.2637 16.0488 12.0176 16.0488C11.7715 16.0488 11.5781 15.8643 11.5781 15.6094V14.9678C9.96094 14.7744 8.94141 13.5439 8.94141 11.6543ZM10.3389 11.6543C10.3389 12.7969 10.8047 13.5264 11.5781 13.7109V9.59766C10.8135 9.79102 10.3389 10.5205 10.3389 11.6543Z" fill="#1C1C1E"/>
</g>
<defs>
<clipPath id="clip0_10_2167">
<rect width="24" height="24" fill="white"/>
</clipPath>
</defs>
</svg>
