<svg width="24" height="24" viewBox="0 0 24 24" fill="none" xmlns="http://www.w3.org/2000/svg">
<g clip-path="url(#clip0_10_2171)">
<path d="M6.67383 19.8809H17.3174C19.2246 19.8809 20.209 18.8965 20.209 17.0156V6.31934C20.209 4.43848 19.2246 3.4541 17.3174 3.4541H6.67383C4.77539 3.4541 3.78223 4.42969 3.78223 6.31934V17.0156C3.78223 18.8965 4.77539 19.8809 6.67383 19.8809ZM6.78809 18.1318C5.97949 18.1318 5.53125 17.71 5.53125 16.8574V6.47754C5.53125 5.625 5.97949 5.20312 6.78809 5.20312H17.2031C18.0029 5.20312 18.46 5.625 18.46 6.47754V16.8574C18.46 17.71 18.0029 18.1318 17.2031 18.1318H6.78809ZM9.04688 11.6543C9.04688 13.4648 10.0312 14.6514 11.5781 14.8359V15.46C11.5781 15.7061 11.7539 15.873 12 15.873C12.2373 15.873 12.4131 15.7061 12.4131 15.46V14.8447C13.5996 14.7129 14.3643 14.0449 14.6016 13.2891C14.6191 13.21 14.6455 13.0957 14.6455 12.999C14.6455 12.6387 14.3818 12.4014 14.0303 12.4014C13.7666 12.4014 13.5732 12.5508 13.4414 12.8145C13.2568 13.2451 12.9141 13.5615 12.4131 13.6582V9.65039C12.9053 9.75586 13.248 10.0635 13.4238 10.4854C13.5557 10.7578 13.7402 10.9072 14.0303 10.9072C14.3818 10.9072 14.6367 10.6699 14.6367 10.3096C14.6367 10.2041 14.6104 10.0898 14.584 9.99316C14.3203 9.22852 13.5469 8.5957 12.4131 8.47266V7.85742C12.4131 7.61133 12.2373 7.43555 12 7.43555C11.7539 7.43555 11.5781 7.61133 11.5781 7.85742V8.48145C10.0312 8.66602 9.04688 9.85254 9.04688 11.6543ZM10.3828 11.6543C10.3828 10.5645 10.8311 9.86133 11.5781 9.65918V13.6406C10.8311 13.4561 10.3828 12.7617 10.3828 11.6543Z" fill="#1C1C1E"/>
</g>
<defs>
<clipPath id="clip0_10_2171">
<rect width="24" height="24" fill="white"/>
</clipPath>
</defs>
</svg>
