<svg width="24" height="24" viewBox="0 0 24 24" fill="none" xmlns="http://www.w3.org/2000/svg">
<g clip-path="url(#clip0_10_2028)">
<path d="M11.9912 20.7422C16.9746 20.7422 21.0879 16.6289 21.0879 11.6543C21.0879 6.67969 16.9658 2.56641 11.9824 2.56641C7.00781 2.56641 2.90332 6.67969 2.90332 11.6543C2.90332 16.6289 7.0166 20.7422 11.9912 20.7422ZM11.9912 18.9316C7.95703 18.9316 4.73145 15.6885 4.73145 11.6543C4.73145 7.62012 7.95703 4.38574 11.9824 4.38574C16.0166 4.38574 19.2598 7.62012 19.2686 11.6543C19.2773 15.6885 16.0254 18.9316 11.9912 18.9316ZM8.40527 11.7246C8.40527 13.2891 8.93262 14.4844 9.83789 15.1787L9.54785 16.3213C9.53027 16.3828 9.52148 16.4531 9.52148 16.5059C9.52148 16.752 9.68848 16.9277 9.92578 16.9277C10.1279 16.9277 10.2861 16.8223 10.3389 16.6025L10.5938 15.6094C10.8135 15.6973 11.0596 15.7676 11.3057 15.8115L11.1738 16.3301C11.1562 16.4004 11.1475 16.4619 11.1475 16.5146C11.1475 16.7607 11.3057 16.9277 11.5605 16.9277C11.7627 16.9277 11.9209 16.8223 11.9736 16.6025L12.1582 15.8643C13.5732 15.8027 14.6279 15.0645 15.0234 13.9746C15.0762 13.8252 15.1113 13.667 15.1113 13.5088C15.1113 13.1309 14.8652 12.8672 14.4697 12.8672C14.1445 12.8672 13.9424 13.0693 13.8281 13.377C13.6436 14.0098 13.1426 14.4756 12.4658 14.5898L13.6699 9.85254C13.7314 9.92285 13.793 10.0459 13.8369 10.1777C13.9512 10.4062 14.1006 10.5996 14.4258 10.5996C14.8125 10.5996 15.0498 10.3535 15.0498 9.97559C15.0498 9.80859 15.0146 9.63281 14.9443 9.47461C14.751 9 14.4434 8.60449 14.0479 8.28809L14.3115 7.25977C14.3291 7.18945 14.3379 7.12793 14.3379 7.0752C14.3379 6.8291 14.1797 6.66211 13.9336 6.66211C13.7314 6.66211 13.5732 6.75879 13.5117 6.9873L13.292 7.85742C13.0723 7.76074 12.835 7.69922 12.5801 7.64648L12.6768 7.25098C12.7031 7.18945 12.7119 7.12793 12.7119 7.0752C12.7119 6.8291 12.5537 6.66211 12.2988 6.66211C12.0967 6.66211 11.9385 6.76758 11.8857 6.9873L11.7275 7.61133C9.69727 7.72559 8.40527 9.29883 8.40527 11.7246ZM10.8926 14.3613L12.29 8.8418C12.5449 8.87695 12.7822 8.97363 12.9932 9.09668L11.6045 14.6338C11.332 14.5898 11.1035 14.502 10.8926 14.3613ZM9.80273 11.7246C9.80273 10.2217 10.4004 9.17578 11.4111 8.89453L10.2334 13.5791C9.95215 13.1045 9.80273 12.4717 9.80273 11.7246Z" fill="#1C1C1E"/>
</g>
<defs>
<clipPath id="clip0_10_2028">
<rect width="24" height="24" fill="white"/>
</clipPath>
</defs>
</svg>
