<svg width="24" height="24" viewBox="0 0 24 24" fill="none" xmlns="http://www.w3.org/2000/svg">
<g clip-path="url(#clip0_10_2024)">
<path d="M6.67383 19.8809H17.3174C19.2246 19.8809 20.209 18.8965 20.209 17.0156V6.31934C20.209 4.43848 19.2246 3.4541 17.3174 3.4541H6.67383C4.77539 3.4541 3.78223 4.42969 3.78223 6.31934V17.0156C3.78223 18.8965 4.77539 19.8809 6.67383 19.8809ZM6.78809 18.1318C5.97949 18.1318 5.53125 17.71 5.53125 16.8574V6.47754C5.53125 5.625 5.97949 5.20312 6.78809 5.20312H17.2031C18.0029 5.20312 18.46 5.625 18.46 6.47754V16.8574C18.46 17.71 18.0029 18.1318 17.2031 18.1318H6.78809ZM8.42285 11.7158C8.42285 13.2803 8.94141 14.4756 9.85547 15.1699L9.56543 16.3125C9.54785 16.3828 9.53906 16.4443 9.53906 16.5059C9.53906 16.752 9.70605 16.9189 9.94336 16.9189C10.1455 16.9189 10.3037 16.8135 10.3564 16.5938L10.6025 15.6006C10.8311 15.6973 11.0684 15.7676 11.3232 15.8115L11.1914 16.3213C11.1738 16.4004 11.165 16.4531 11.165 16.5059C11.165 16.7607 11.3232 16.9189 11.5693 16.9189C11.7803 16.9189 11.9297 16.8135 11.9912 16.5938L12.1758 15.8555C13.5908 15.7939 14.6367 15.0645 15.0322 13.9746C15.0938 13.8252 15.1289 13.6582 15.1289 13.5C15.1289 13.1309 14.874 12.8584 14.4873 12.8584C14.1533 12.8584 13.96 13.0605 13.8457 13.377C13.6611 14.001 13.1602 14.4668 12.4834 14.5811L13.6787 9.85254C13.749 9.92285 13.8105 10.0371 13.8545 10.1777C13.9688 10.4062 14.1182 10.5996 14.4434 10.5996C14.8213 10.5996 15.0674 10.3447 15.0674 9.97559C15.0674 9.7998 15.0234 9.63281 14.9531 9.47461C14.7686 9 14.4609 8.5957 14.0654 8.28809L14.3291 7.25098C14.3467 7.18066 14.3555 7.12793 14.3555 7.06641C14.3555 6.82031 14.1973 6.65332 13.9512 6.65332C13.749 6.65332 13.582 6.75879 13.5293 6.97852L13.3096 7.84863C13.0898 7.75195 12.8525 7.69043 12.5977 7.64648L12.6943 7.25098C12.7119 7.18066 12.7295 7.12793 12.7295 7.06641C12.7295 6.82031 12.5625 6.65332 12.3164 6.65332C12.1143 6.65332 11.9561 6.75879 11.9033 6.97852L11.7451 7.61133C9.71484 7.72559 8.42285 9.29004 8.42285 11.7158ZM10.9102 14.3613L12.3076 8.83301C12.5625 8.86816 12.7998 8.96484 13.0107 9.09668L11.6133 14.625C11.3496 14.5898 11.1123 14.4932 10.9102 14.3613ZM9.81152 11.7158C9.81152 10.2129 10.418 9.16699 11.4199 8.89453L10.2422 13.5791C9.96973 13.0957 9.81152 12.4717 9.81152 11.7158Z" fill="#1C1C1E"/>
</g>
<defs>
<clipPath id="clip0_10_2024">
<rect width="24" height="24" fill="white"/>
</clipPath>
</defs>
</svg>
