<svg width="24" height="24" viewBox="0 0 24 24" fill="none" xmlns="http://www.w3.org/2000/svg">
<g clip-path="url(#clip0_10_2010)">
<path d="M11.9912 20.7422C16.9746 20.7422 21.0879 16.6289 21.0879 11.6543C21.0879 6.67969 16.9658 2.56641 11.9824 2.56641C7.00781 2.56641 2.90332 6.67969 2.90332 11.6543C2.90332 16.6289 7.0166 20.7422 11.9912 20.7422ZM8.30859 11.6543C8.30859 9.02637 9.76758 7.36523 11.9824 7.36523C13.4326 7.36523 14.6279 8.12988 15.0762 9.27246C15.1465 9.44824 15.1816 9.61523 15.1816 9.7998C15.1816 10.1777 14.9355 10.4326 14.54 10.4326C14.1797 10.4326 13.9951 10.2129 13.8633 9.91406C13.582 9.17578 12.8877 8.63086 12 8.63086C10.6465 8.63086 9.76758 9.81738 9.76758 11.6543C9.76758 13.2539 10.374 14.3438 11.3848 14.6514V11.6367C11.3848 11.373 11.5693 11.1797 11.833 11.1797C12.0791 11.1797 12.2637 11.3555 12.2637 11.6367V12.0059C12.5449 11.4873 13.0371 11.2061 13.5645 11.2061C14.0742 11.2061 14.3906 11.4258 14.3906 11.751C14.3906 11.9883 14.2148 12.1465 13.9512 12.1465C13.8457 12.1465 13.7227 12.1201 13.5381 12.1201C12.8086 12.1201 12.2725 12.7002 12.2725 13.5352V14.7305C13.0811 14.6514 13.6963 14.1504 13.8984 13.4736C14.0303 13.1221 14.2412 12.9375 14.584 12.9375C14.9883 12.9375 15.2432 13.1924 15.2432 13.5615C15.2432 13.7197 15.208 13.8691 15.1553 14.0186C14.7334 15.1875 13.5732 15.9697 12 15.9697C9.75879 15.9697 8.30859 14.3262 8.30859 11.6543Z" fill="#1C1C1E"/>
</g>
<defs>
<clipPath id="clip0_10_2010">
<rect width="24" height="24" fill="white"/>
</clipPath>
</defs>
</svg>
