<svg width="24" height="24" viewBox="0 0 24 24" fill="none" xmlns="http://www.w3.org/2000/svg">
<g clip-path="url(#clip0_10_2057)">
<path d="M11.9912 20.7422C16.9746 20.7422 21.0879 16.6289 21.0879 11.6543C21.0879 6.67969 16.9658 2.56641 11.9824 2.56641C7.00781 2.56641 2.90332 6.67969 2.90332 11.6543C2.90332 16.6289 7.0166 20.7422 11.9912 20.7422ZM9.66211 15.7236C9.04688 15.7236 8.73926 15.3369 8.73926 14.7129V8.47266C8.73926 7.84863 9.04688 7.46191 9.66211 7.46191H11.9648C14.5576 7.46191 15.9902 8.92969 15.9902 11.5752C15.9902 14.2471 14.54 15.7236 11.9648 15.7236H9.66211ZM10.4531 14.3701H11.7275C13.3447 14.3701 14.1885 13.4561 14.1885 11.5928C14.1885 9.77344 13.3359 8.81543 11.7275 8.81543H10.4531V14.3701Z" fill="#1C1C1E"/>
</g>
<defs>
<clipPath id="clip0_10_2057">
<rect width="24" height="24" fill="white"/>
</clipPath>
</defs>
</svg>
