<svg width="24" height="24" viewBox="0 0 24 24" fill="none" xmlns="http://www.w3.org/2000/svg">
<g clip-path="url(#clip0_10_2039)">
<path d="M11.9912 20.7422C16.9746 20.7422 21.0879 16.6289 21.0879 11.6543C21.0879 6.67969 16.9658 2.56641 11.9824 2.56641C7.00781 2.56641 2.90332 6.67969 2.90332 11.6543C2.90332 16.6289 7.0166 20.7422 11.9912 20.7422ZM11.9912 18.9316C7.95703 18.9316 4.73145 15.6885 4.73145 11.6543C4.73145 7.62012 7.95703 4.38574 11.9824 4.38574C16.0166 4.38574 19.2598 7.62012 19.2686 11.6543C19.2773 15.6885 16.0254 18.9316 11.9912 18.9316ZM9.74121 15.5742H11.9648C14.4346 15.5742 15.8232 14.1504 15.8232 11.584C15.8232 9.03516 14.4434 7.62012 11.9648 7.62012H9.74121C9.16992 7.62012 8.87109 7.98926 8.87109 8.58691V14.6074C8.87109 15.2051 9.16992 15.5742 9.74121 15.5742ZM10.5059 14.2822V8.9209H11.7363C13.2832 8.9209 14.1182 9.83496 14.1182 11.6016C14.1182 13.3945 13.292 14.2822 11.7363 14.2822H10.5059Z" fill="#1C1C1E"/>
</g>
<defs>
<clipPath id="clip0_10_2039">
<rect width="24" height="24" fill="white"/>
</clipPath>
</defs>
</svg>
