<svg width="24" height="24" viewBox="0 0 24 24" fill="none" xmlns="http://www.w3.org/2000/svg">
<g clip-path="url(#clip0_10_2055)">
<path d="M6.67383 19.8809H17.3174C19.2246 19.8809 20.209 18.8965 20.209 17.0156V6.31934C20.209 4.43848 19.2246 3.4541 17.3174 3.4541H6.67383C4.77539 3.4541 3.78223 4.42969 3.78223 6.31934V17.0156C3.78223 18.8965 4.77539 19.8809 6.67383 19.8809ZM6.78809 18.1318C5.97949 18.1318 5.53125 17.71 5.53125 16.8574V6.47754C5.53125 5.625 5.97949 5.20312 6.78809 5.20312H17.2031C18.0029 5.20312 18.46 5.625 18.46 6.47754V16.8574C18.46 17.71 18.0029 18.1318 17.2031 18.1318H6.78809ZM9.75879 15.5654H11.9824C14.4521 15.5654 15.8408 14.1416 15.8408 11.5752C15.8408 9.03516 14.4609 7.62012 11.9824 7.62012H9.75879C9.17871 7.62012 8.88867 7.98926 8.88867 8.57812V14.5986C8.88867 15.1963 9.17871 15.5654 9.75879 15.5654ZM10.5146 14.2734V8.91211H11.7539C13.3008 8.91211 14.127 9.82617 14.127 11.5928C14.127 13.3857 13.3096 14.2734 11.7539 14.2734H10.5146Z" fill="#1C1C1E"/>
</g>
<defs>
<clipPath id="clip0_10_2055">
<rect width="24" height="24" fill="white"/>
</clipPath>
</defs>
</svg>
