<svg width="24" height="24" viewBox="0 0 24 24" fill="none" xmlns="http://www.w3.org/2000/svg">
<g clip-path="url(#clip0_10_2037)">
<path d="M6.67383 19.8809H17.3174C19.2246 19.8809 20.209 18.8965 20.209 17.0156V6.31934C20.209 4.43848 19.2246 3.4541 17.3174 3.4541H6.67383C4.77539 3.4541 3.78223 4.42969 3.78223 6.31934V17.0156C3.78223 18.8965 4.77539 19.8809 6.67383 19.8809ZM9.69727 15.7236C9.08203 15.7236 8.77441 15.3369 8.77441 14.7129V8.47266C8.77441 7.84863 9.09082 7.46191 9.69727 7.46191H12C14.5928 7.46191 16.0254 8.92969 16.0254 11.5752C16.0254 14.2471 14.5752 15.7236 12 15.7236H9.69727ZM10.4883 14.3701H11.7715C13.3799 14.3701 14.2236 13.4561 14.2236 11.5928C14.2236 9.77344 13.3711 8.81543 11.7715 8.81543H10.4883V14.3701Z" fill="#1C1C1E"/>
</g>
<defs>
<clipPath id="clip0_10_2037">
<rect width="24" height="24" fill="white"/>
</clipPath>
</defs>
</svg>
