<svg width="24" height="24" viewBox="0 0 24 24" fill="none" xmlns="http://www.w3.org/2000/svg">
<g clip-path="url(#clip0_10_2188)">
<path d="M6.67383 19.8809H17.3174C19.2246 19.8809 20.209 18.8965 20.209 17.0156V6.31934C20.209 4.43848 19.2246 3.4541 17.3174 3.4541H6.67383C4.77539 3.4541 3.78223 4.42969 3.78223 6.31934V17.0156C3.78223 18.8965 4.77539 19.8809 6.67383 19.8809ZM6.78809 18.1318C5.97949 18.1318 5.53125 17.71 5.53125 16.8574V6.47754C5.53125 5.625 5.97949 5.20312 6.78809 5.20312H17.2031C18.0029 5.20312 18.46 5.625 18.46 6.47754V16.8574C18.46 17.71 18.0029 18.1318 17.2031 18.1318H6.78809ZM12 16.585C12.2285 16.585 12.4043 16.4268 12.4043 16.1807V15.5918C13.8281 15.46 14.9004 14.6514 14.9004 13.3154C14.9004 12.1201 14.127 11.417 12.5977 11.127L12.4043 11.0918V8.90332C12.958 9 13.3535 9.33398 13.5205 9.85254C13.6436 10.1426 13.8369 10.3096 14.1533 10.3096C14.5049 10.3096 14.751 10.0811 14.751 9.73828C14.751 9.63281 14.7246 9.53613 14.6982 9.43945C14.4609 8.52539 13.582 7.875 12.4043 7.75195V7.16309C12.4043 6.92578 12.2285 6.76758 12 6.76758C11.7715 6.76758 11.6045 6.92578 11.6045 7.16309V7.75195C10.2158 7.89258 9.23145 8.73633 9.23145 9.9668C9.23145 11.1006 9.99609 11.7773 11.4551 12.1113L11.6045 12.1465V14.458C10.8926 14.3525 10.4795 13.9746 10.3389 13.4561C10.2158 13.1484 10.0137 12.9814 9.71484 12.9814C9.3457 12.9814 9.1084 13.2275 9.1084 13.5791C9.1084 13.6846 9.12598 13.7812 9.16113 13.8867C9.41602 14.8184 10.3477 15.4775 11.6045 15.583V16.1807C11.6045 16.4268 11.7715 16.585 12 16.585ZM11.6045 10.8896L11.543 10.8721C10.8398 10.6611 10.5146 10.3535 10.5146 9.8877C10.5146 9.39551 10.9277 9 11.6045 8.89453V10.8896ZM12.4043 12.3398L12.5625 12.3838C13.3359 12.5859 13.6084 12.9023 13.6084 13.4033C13.6084 13.9658 13.2041 14.3701 12.4043 14.458V12.3398Z" fill="#1C1C1E"/>
</g>
<defs>
<clipPath id="clip0_10_2188">
<rect width="24" height="24" fill="white"/>
</clipPath>
</defs>
</svg>
