<svg width="24" height="24" viewBox="0 0 24 24" fill="none" xmlns="http://www.w3.org/2000/svg">
<g clip-path="url(#clip0_10_2183)">
<path d="M6.67383 19.8809H17.3174C19.2246 19.8809 20.209 18.8965 20.209 17.0156V6.31934C20.209 4.43848 19.2246 3.4541 17.3174 3.4541H6.67383C4.77539 3.4541 3.78223 4.42969 3.78223 6.31934V17.0156C3.78223 18.8965 4.77539 19.8809 6.67383 19.8809ZM12.0176 16.7871C11.7803 16.7871 11.6045 16.6113 11.6045 16.3652V15.7412C10.2949 15.6357 9.32812 14.9502 9.06445 13.9834C9.0293 13.8691 9.01172 13.7637 9.01172 13.6582C9.01172 13.2891 9.2666 13.0342 9.64453 13.0342C9.96094 13.0342 10.1807 13.2012 10.3037 13.5264C10.4531 14.0625 10.875 14.458 11.6045 14.5635V12.1729L11.4463 12.1377C9.92578 11.7861 9.13477 11.083 9.13477 9.89648C9.13477 8.61328 10.1631 7.73438 11.6045 7.60254V6.9873C11.6045 6.73242 11.7803 6.56543 12.0176 6.56543C12.2549 6.56543 12.4395 6.74121 12.4395 6.9873V7.60254C13.6699 7.72559 14.5928 8.40234 14.8389 9.34277C14.8652 9.44824 14.8828 9.55371 14.8828 9.65918C14.8828 10.0107 14.6279 10.2656 14.2588 10.2656C13.9336 10.2656 13.7227 10.0811 13.5908 9.78223C13.415 9.24609 13.0195 8.90332 12.4395 8.79785V11.0566L12.6416 11.1006C14.2324 11.3994 15.0322 12.1289 15.0322 13.377C15.0322 14.7656 13.9248 15.6182 12.4395 15.75V16.3652C12.4395 16.6113 12.2549 16.7871 12.0176 16.7871ZM11.6045 10.8457V8.78906C10.9102 8.90332 10.4883 9.31641 10.4883 9.80859C10.4883 10.3008 10.8223 10.6172 11.543 10.8281L11.6045 10.8457ZM12.4395 12.375V14.5635C13.2744 14.4668 13.6875 14.0449 13.6875 13.4736C13.6875 12.9639 13.3975 12.6299 12.6064 12.4189L12.4395 12.375Z" fill="#1C1C1E"/>
</g>
<defs>
<clipPath id="clip0_10_2183">
<rect width="24" height="24" fill="white"/>
</clipPath>
</defs>
</svg>
