<svg width="24" height="24" viewBox="0 0 24 24" fill="none" xmlns="http://www.w3.org/2000/svg">
<g clip-path="url(#clip0_10_2330)">
<path d="M6.67383 19.8809H17.3174C19.2246 19.8809 20.209 18.8965 20.209 17.0156V6.31934C20.209 4.43848 19.2246 3.4541 17.3174 3.4541H6.67383C4.77539 3.4541 3.78223 4.42969 3.78223 6.31934V17.0156C3.78223 18.8965 4.77539 19.8809 6.67383 19.8809ZM6.78809 18.1318C5.97949 18.1318 5.53125 17.71 5.53125 16.8574V6.47754C5.53125 5.625 5.97949 5.20312 6.78809 5.20312H17.2031C18.0029 5.20312 18.46 5.625 18.46 6.47754V16.8574C18.46 17.71 18.0029 18.1318 17.2031 18.1318H6.78809ZM8.82715 11.9971C8.82715 13.623 9.9082 14.7217 11.3057 14.7217C12.0176 14.7217 12.6328 14.4404 13.002 13.9482V14.2383C13.0195 14.5723 13.2744 14.8096 13.6172 14.8096C13.9951 14.8096 14.2412 14.5547 14.2412 14.1592V8.68359H14.7773C15.0146 8.68359 15.1816 8.5166 15.1816 8.2793C15.1816 8.05078 15.0234 7.88379 14.7773 7.88379H14.2412V7.54102C14.2412 7.16309 13.9775 6.91699 13.5996 6.91699C13.2129 6.91699 12.958 7.16309 12.958 7.54102V7.88379H11.4463C11.209 7.88379 11.0508 8.05078 11.0508 8.2793C11.0508 8.5166 11.2178 8.68359 11.4463 8.68359H12.9492V9.99316C12.5889 9.54492 11.9912 9.27246 11.2969 9.27246C9.89941 9.27246 8.82715 10.3623 8.82715 11.9971ZM10.1455 12.0059C10.1455 11.0479 10.7256 10.415 11.5693 10.415C12.3867 10.415 12.9668 11.083 12.9668 12.0059C12.9668 12.9199 12.3867 13.5879 11.5693 13.5879C10.7256 13.5879 10.1455 12.9551 10.1455 12.0059ZM9.2666 15.6709C9.2666 15.8994 9.44238 16.0752 9.6709 16.0752H14.1006C14.3291 16.0752 14.5049 15.8994 14.5049 15.6709C14.5049 15.4336 14.3379 15.2666 14.1006 15.2666H9.6709C9.43359 15.2666 9.2666 15.4424 9.2666 15.6709Z" fill="#1C1C1E"/>
</g>
<defs>
<clipPath id="clip0_10_2330">
<rect width="24" height="24" fill="white"/>
</clipPath>
</defs>
</svg>
