<svg width="24" height="24" viewBox="0 0 24 24" fill="none" xmlns="http://www.w3.org/2000/svg">
<g clip-path="url(#clip0_10_2035)">
<path d="M11.9912 20.7422C16.9746 20.7422 21.0879 16.6289 21.0879 11.6543C21.0879 6.67969 16.9658 2.56641 11.9824 2.56641C7.00781 2.56641 2.90332 6.67969 2.90332 11.6543C2.90332 16.6289 7.0166 20.7422 11.9912 20.7422ZM11.9912 18.9316C7.95703 18.9316 4.73145 15.6885 4.73145 11.6543C4.73145 7.62012 7.95703 4.38574 11.9824 4.38574C16.0166 4.38574 19.2598 7.62012 19.2686 11.6543C19.2773 15.6885 16.0254 18.9316 11.9912 18.9316ZM10.0225 15.5742H14.0127C14.4434 15.5742 14.7158 15.3193 14.7158 14.8975C14.7158 14.4756 14.4434 14.2295 14.0127 14.2295H10.8135V12.1553H13.8281C14.2324 12.1553 14.4961 11.9355 14.4961 11.5488C14.4961 11.1445 14.2324 10.9248 13.8281 10.9248H10.8135V8.96484H14.0127C14.4434 8.96484 14.7158 8.70996 14.7158 8.29688C14.7158 7.875 14.4434 7.62012 14.0127 7.62012H10.0225C9.45117 7.62012 9.15234 7.98926 9.15234 8.58691V14.6074C9.15234 15.2051 9.45117 15.5742 10.0225 15.5742Z" fill="#1C1C1E"/>
</g>
<defs>
<clipPath id="clip0_10_2035">
<rect width="24" height="24" fill="white"/>
</clipPath>
</defs>
</svg>
