<svg width="24" height="24" viewBox="0 0 24 24" fill="none" xmlns="http://www.w3.org/2000/svg">
<g clip-path="url(#clip0_10_2049)">
<path d="M11.9912 20.7422C16.9746 20.7422 21.0879 16.6289 21.0879 11.6543C21.0879 6.67969 16.9658 2.56641 11.9824 2.56641C7.00781 2.56641 2.90332 6.67969 2.90332 11.6543C2.90332 16.6289 7.0166 20.7422 11.9912 20.7422ZM9.95215 15.7236C9.3457 15.7236 9.0293 15.3369 9.0293 14.7129V8.47266C9.0293 7.84863 9.3457 7.46191 9.95215 7.46191H14.0918C14.54 7.46191 14.8389 7.7168 14.8389 8.16504C14.8389 8.5957 14.54 8.86816 14.0918 8.86816H10.7783V10.8896H13.9072C14.3203 10.8896 14.6016 11.1182 14.6016 11.54C14.6016 11.9443 14.3203 12.1729 13.9072 12.1729H10.7783V14.3174H14.0918C14.54 14.3174 14.8389 14.5723 14.8389 15.0205C14.8389 15.4512 14.54 15.7236 14.0918 15.7236H9.95215Z" fill="#1C1C1E"/>
</g>
<defs>
<clipPath id="clip0_10_2049">
<rect width="24" height="24" fill="white"/>
</clipPath>
</defs>
</svg>
