<svg width="24" height="24" viewBox="0 0 24 24" fill="none" xmlns="http://www.w3.org/2000/svg">
<g clip-path="url(#clip0_10_2047)">
<path d="M6.67383 19.8809H17.3174C19.2246 19.8809 20.209 18.8965 20.209 17.0156V6.31934C20.209 4.43848 19.2246 3.4541 17.3174 3.4541H6.67383C4.77539 3.4541 3.78223 4.42969 3.78223 6.31934V17.0156C3.78223 18.8965 4.77539 19.8809 6.67383 19.8809ZM6.78809 18.1318C5.97949 18.1318 5.53125 17.71 5.53125 16.8574V6.47754C5.53125 5.625 5.97949 5.20312 6.78809 5.20312H17.2031C18.0029 5.20312 18.46 5.625 18.46 6.47754V16.8574C18.46 17.71 18.0029 18.1318 17.2031 18.1318H6.78809ZM10.04 15.5654H14.0303C14.4521 15.5654 14.7334 15.3105 14.7334 14.8887C14.7334 14.4756 14.4521 14.2207 14.0303 14.2207H10.8223V12.1465H13.8457C14.2412 12.1465 14.5137 11.9355 14.5137 11.54C14.5137 11.1445 14.2412 10.916 13.8457 10.916H10.8223V8.96484H14.0303C14.4521 8.96484 14.7334 8.70117 14.7334 8.28809C14.7334 7.86621 14.4521 7.62012 14.0303 7.62012H10.04C9.46875 7.62012 9.16992 7.98926 9.16992 8.57812V14.5986C9.16992 15.1963 9.45996 15.5654 10.04 15.5654Z" fill="#1C1C1E"/>
</g>
<defs>
<clipPath id="clip0_10_2047">
<rect width="24" height="24" fill="white"/>
</clipPath>
</defs>
</svg>
