<svg width="24" height="24" viewBox="0 0 24 24" fill="none" xmlns="http://www.w3.org/2000/svg">
<g clip-path="url(#clip0_10_1997)">
<path d="M6.67383 19.8809H17.3174C19.2246 19.8809 20.209 18.8965 20.209 17.0156V6.31934C20.209 4.43848 19.2246 3.4541 17.3174 3.4541H6.67383C4.77539 3.4541 3.78223 4.42969 3.78223 6.31934V17.0156C3.78223 18.8965 4.77539 19.8809 6.67383 19.8809ZM9.9873 15.7236C9.38086 15.7236 9.06445 15.3369 9.06445 14.7129V8.47266C9.06445 7.84863 9.38086 7.46191 9.9873 7.46191H14.127C14.5752 7.46191 14.874 7.7168 14.874 8.16504C14.874 8.5957 14.5752 8.86816 14.127 8.86816H10.8135V10.8896H13.9424C14.3555 10.8896 14.6367 11.1182 14.6367 11.54C14.6367 11.9443 14.3555 12.1729 13.9424 12.1729H10.8135V14.3174H14.127C14.5752 14.3174 14.874 14.5723 14.874 15.0205C14.874 15.4512 14.5752 15.7236 14.127 15.7236H9.9873Z" fill="#1C1C1E"/>
</g>
<defs>
<clipPath id="clip0_10_1997">
<rect width="24" height="24" fill="white"/>
</clipPath>
</defs>
</svg>
