<svg width="24" height="24" viewBox="0 0 24 24" fill="none" xmlns="http://www.w3.org/2000/svg">
<g clip-path="url(#clip0_10_2077)">
<path d="M6.67383 19.8809H17.3174C19.2246 19.8809 20.209 18.8965 20.209 17.0156V6.31934C20.209 4.43848 19.2246 3.4541 17.3174 3.4541H6.67383C4.77539 3.4541 3.78223 4.42969 3.78223 6.31934V17.0156C3.78223 18.8965 4.77539 19.8809 6.67383 19.8809ZM13.2568 15.9697C11.2441 15.9697 9.5918 14.9238 9.12598 12.9111H8.18555C7.93066 12.9111 7.76367 12.7178 7.76367 12.4717C7.76367 12.2168 7.93066 12.041 8.18555 12.041H8.99414C8.99414 11.9531 8.98535 11.8037 8.98535 11.6543C8.98535 11.5049 8.98535 11.3994 8.99414 11.2852H8.18555C7.93066 11.2852 7.76367 11.0918 7.76367 10.8457C7.76367 10.5908 7.93066 10.415 8.18555 10.415H9.11719C9.5918 8.39355 11.2441 7.34766 13.2656 7.34766C13.7402 7.34766 14.083 7.40039 14.3027 7.51465C14.5928 7.65527 14.6807 7.84863 14.6807 8.08594C14.6807 8.40234 14.4873 8.5957 14.1885 8.62207C13.9863 8.66602 13.6523 8.62207 13.2656 8.63086C12.0264 8.63965 10.9893 9.2373 10.6289 10.415H13.3711C13.6348 10.415 13.8105 10.5908 13.8105 10.8457C13.8105 11.0918 13.6348 11.2852 13.3711 11.2852H10.4268C10.418 11.3906 10.418 11.5225 10.418 11.6631C10.418 11.7949 10.4268 11.9355 10.4355 12.041H13.3711C13.6348 12.041 13.8105 12.2168 13.8105 12.4717C13.8105 12.7178 13.6348 12.9111 13.3711 12.9111H10.6201C10.9893 14.0889 12.0176 14.6865 13.2568 14.6953C13.6523 14.6953 13.9775 14.6602 14.1885 14.7041C14.4873 14.7305 14.6895 14.9238 14.6895 15.2402C14.6895 15.4863 14.5664 15.6621 14.3115 15.7939C14.083 15.9082 13.7402 15.9697 13.2568 15.9697Z" fill="#1C1C1E"/>
</g>
<defs>
<clipPath id="clip0_10_2077">
<rect width="24" height="24" fill="white"/>
</clipPath>
</defs>
</svg>
