<svg width="24" height="24" viewBox="0 0 24 24" fill="none" xmlns="http://www.w3.org/2000/svg">
<g clip-path="url(#clip0_10_2329)">
<path d="M11.9912 20.7422C16.9746 20.7422 21.0879 16.6289 21.0879 11.6543C21.0879 6.67969 16.9658 2.56641 11.9824 2.56641C7.00781 2.56641 2.90332 6.67969 2.90332 11.6543C2.90332 16.6289 7.0166 20.7422 11.9912 20.7422ZM11.9912 18.9316C7.95703 18.9316 4.73145 15.6885 4.73145 11.6543C4.73145 7.62012 7.95703 4.38574 11.9824 4.38574C16.0166 4.38574 19.2598 7.62012 19.2686 11.6543C19.2773 15.6885 16.0254 18.9316 11.9912 18.9316ZM13.1865 15.8115C13.6436 15.8115 13.9688 15.75 14.1885 15.6357C14.4346 15.5215 14.5488 15.3457 14.5488 15.1084C14.5488 14.8096 14.3555 14.625 14.0742 14.5986C13.8633 14.5635 13.5557 14.5986 13.1777 14.5898C11.9824 14.5898 10.998 14.0098 10.6377 12.8584H13.292C13.5381 12.8584 13.7051 12.6826 13.7051 12.4453C13.7051 12.1992 13.5381 12.0322 13.292 12.0322H10.4619C10.4443 11.9355 10.4443 11.7949 10.4443 11.6631C10.4443 11.5312 10.4443 11.4082 10.4531 11.3027H13.292C13.5381 11.3027 13.7051 11.1182 13.7051 10.8809C13.7051 10.6348 13.5381 10.4678 13.292 10.4678H10.6377C10.998 9.33398 11.9912 8.75391 13.1865 8.74512C13.5557 8.73633 13.8809 8.78027 14.0742 8.73633C14.3467 8.70996 14.5488 8.52539 14.5488 8.22656C14.5488 7.99805 14.4609 7.80469 14.1797 7.67285C13.9688 7.56738 13.6436 7.52344 13.1865 7.52344C11.2529 7.52344 9.66211 8.52539 9.20508 10.4678H8.30859C8.07129 10.4678 7.89551 10.6348 7.89551 10.8809C7.89551 11.1182 8.07129 11.3027 8.30859 11.3027H9.09082C9.08203 11.4082 9.08203 11.5225 9.08203 11.6631C9.08203 11.8125 9.09082 11.9443 9.09082 12.0322H8.30859C8.07129 12.0322 7.89551 12.1992 7.89551 12.4453C7.89551 12.6826 8.07129 12.8584 8.30859 12.8584H9.20508C9.6709 14.8008 11.2529 15.8115 13.1865 15.8115Z" fill="#1C1C1E"/>
</g>
<defs>
<clipPath id="clip0_10_2329">
<rect width="24" height="24" fill="white"/>
</clipPath>
</defs>
</svg>
