<svg width="24" height="24" viewBox="0 0 24 24" fill="none" xmlns="http://www.w3.org/2000/svg">
<g clip-path="url(#clip0_10_2081)">
<path d="M6.67383 19.8809H17.3174C19.2246 19.8809 20.209 18.8965 20.209 17.0156V6.31934C20.209 4.43848 19.2246 3.4541 17.3174 3.4541H6.67383C4.77539 3.4541 3.78223 4.42969 3.78223 6.31934V17.0156C3.78223 18.8965 4.77539 19.8809 6.67383 19.8809ZM6.78809 18.1318C5.97949 18.1318 5.53125 17.71 5.53125 16.8574V6.47754C5.53125 5.625 5.97949 5.20312 6.78809 5.20312H17.2031C18.0029 5.20312 18.46 5.625 18.46 6.47754V16.8574C18.46 17.71 18.0029 18.1318 17.2031 18.1318H6.78809ZM13.1953 15.8027C13.6523 15.8027 13.9863 15.7412 14.2061 15.6357C14.4521 15.5127 14.5664 15.3369 14.5664 15.1084C14.5664 14.8008 14.3643 14.6162 14.083 14.5898C13.8809 14.5547 13.5732 14.5898 13.1953 14.5898C12 14.5811 11.0068 14.001 10.6553 12.8584H13.3008C13.5469 12.8584 13.7139 12.6738 13.7139 12.4365C13.7139 12.1904 13.5469 12.0234 13.3008 12.0234H10.4707C10.4619 11.9268 10.4619 11.7949 10.4619 11.6631C10.4619 11.5312 10.4619 11.4082 10.4707 11.2939H13.3008C13.5469 11.2939 13.7139 11.1094 13.7139 10.8809C13.7139 10.6348 13.5469 10.4678 13.3008 10.4678H10.6553C11.0156 9.3252 12.0088 8.74512 13.2041 8.73633C13.5732 8.73633 13.8896 8.77148 14.0918 8.73633C14.3643 8.70996 14.5576 8.52539 14.5576 8.21777C14.5576 7.99805 14.4785 7.80469 14.1885 7.67285C13.9775 7.56738 13.6523 7.51465 13.2041 7.51465C11.2617 7.51465 9.67969 8.52539 9.22266 10.4678H8.32617C8.08008 10.4678 7.91309 10.6348 7.91309 10.8809C7.91309 11.1094 8.08008 11.2939 8.32617 11.2939H9.1084C9.09961 11.4082 9.09961 11.5137 9.09961 11.6543C9.09961 11.8037 9.1084 11.9443 9.1084 12.0234H8.32617C8.08008 12.0234 7.91309 12.1904 7.91309 12.4365C7.91309 12.6738 8.08008 12.8584 8.32617 12.8584H9.22266C9.67969 14.792 11.2705 15.8027 13.1953 15.8027Z" fill="#1C1C1E"/>
</g>
<defs>
<clipPath id="clip0_10_2081">
<rect width="24" height="24" fill="white"/>
</clipPath>
</defs>
</svg>
