<svg width="24" height="24" viewBox="0 0 24 24" fill="none" xmlns="http://www.w3.org/2000/svg">
<g clip-path="url(#clip0_10_2059)">
<path d="M6.67383 19.8809H17.3174C19.2246 19.8809 20.209 18.8965 20.209 17.0156V6.31934C20.209 4.43848 19.2246 3.4541 17.3174 3.4541H6.67383C4.77539 3.4541 3.78223 4.42969 3.78223 6.31934V17.0156C3.78223 18.8965 4.77539 19.8809 6.67383 19.8809ZM12.0264 13.1572C11.5078 13.1572 11.209 12.8672 11.1914 12.3398L11.0684 7.9541C11.0508 7.40918 11.4375 7.03125 12.0176 7.03125C12.5801 7.03125 12.9932 7.41797 12.9756 7.96289L12.835 12.3398C12.8174 12.876 12.5273 13.1572 12.0264 13.1572ZM12.0264 16.1982C11.4287 16.1982 10.9365 15.7676 10.9365 15.1875C10.9365 14.6074 11.4199 14.1768 12.0264 14.1768C12.624 14.1768 13.1074 14.6074 13.1074 15.1875C13.1074 15.7764 12.6152 16.1982 12.0264 16.1982Z" fill="#1C1C1E"/>
</g>
<defs>
<clipPath id="clip0_10_2059">
<rect width="24" height="24" fill="white"/>
</clipPath>
</defs>
</svg>
