<svg width="24" height="24" viewBox="0 0 24 24" fill="none" xmlns="http://www.w3.org/2000/svg">
<g clip-path="url(#clip0_10_2322)">
<path d="M11.9912 20.7422C16.9746 20.7422 21.0879 16.6289 21.0879 11.6543C21.0879 6.67969 16.9658 2.56641 11.9824 2.56641C7.00781 2.56641 2.90332 6.67969 2.90332 11.6543C2.90332 16.6289 7.0166 20.7422 11.9912 20.7422ZM11.9912 18.9316C7.95703 18.9316 4.73145 15.6885 4.73145 11.6543C4.73145 7.62012 7.95703 4.38574 11.9824 4.38574C16.0166 4.38574 19.2598 7.62012 19.2686 11.6543C19.2773 15.6885 16.0254 18.9316 11.9912 18.9316ZM11.9824 13.1133C12.4658 13.1133 12.7471 12.8408 12.7559 12.3311L12.8877 8.10352C12.9053 7.58496 12.5186 7.20703 11.9736 7.20703C11.4287 7.20703 11.0508 7.57617 11.0684 8.09473L11.1914 12.3311C11.209 12.832 11.4902 13.1133 11.9824 13.1133ZM11.9824 16.0312C12.5537 16.0312 13.0195 15.6182 13.0195 15.0557C13.0195 14.502 12.5625 14.0889 11.9824 14.0889C11.4111 14.0889 10.9453 14.502 10.9453 15.0557C10.9453 15.6094 11.4199 16.0312 11.9824 16.0312Z" fill="#1C1C1E"/>
</g>
<defs>
<clipPath id="clip0_10_2322">
<rect width="24" height="24" fill="white"/>
</clipPath>
</defs>
</svg>
