<svg width="24" height="24" viewBox="0 0 24 24" fill="none" xmlns="http://www.w3.org/2000/svg">
<g clip-path="url(#clip0_10_2061)">
<path d="M6.67383 19.8809H17.3174C19.2246 19.8809 20.209 18.8965 20.209 17.0156V6.31934C20.209 4.43848 19.2246 3.4541 17.3174 3.4541H6.67383C4.77539 3.4541 3.78223 4.42969 3.78223 6.31934V17.0156C3.78223 18.8965 4.77539 19.8809 6.67383 19.8809ZM6.78809 18.1318C5.97949 18.1318 5.53125 17.71 5.53125 16.8574V6.47754C5.53125 5.625 5.97949 5.20312 6.78809 5.20312H17.2031C18.0029 5.20312 18.46 5.625 18.46 6.47754V16.8574C18.46 17.71 18.0029 18.1318 17.2031 18.1318H6.78809ZM12 13.1045C12.4834 13.1045 12.7559 12.832 12.7734 12.3223L12.9053 8.09473C12.9229 7.57617 12.5273 7.20703 11.9912 7.20703C11.4463 7.20703 11.0684 7.56738 11.0859 8.08594L11.209 12.3311C11.2266 12.832 11.5078 13.1045 12 13.1045ZM12 16.0225C12.5713 16.0225 13.0371 15.6094 13.0371 15.0557C13.0371 14.4932 12.5713 14.0889 12 14.0889C11.4287 14.0889 10.9629 14.502 10.9629 15.0557C10.9629 15.6094 11.4375 16.0225 12 16.0225Z" fill="#1C1C1E"/>
</g>
<defs>
<clipPath id="clip0_10_2061">
<rect width="24" height="24" fill="white"/>
</clipPath>
</defs>
</svg>
