<svg width="24" height="24" viewBox="0 0 24 24" fill="none" xmlns="http://www.w3.org/2000/svg">
<g clip-path="url(#clip0_10_2041)">
<path d="M11.9912 20.7598C16.9746 20.7598 21.0879 16.6465 21.0879 11.6631C21.0879 6.68848 16.9658 2.5752 11.9824 2.5752C7.00781 2.5752 2.90332 6.68848 2.90332 11.6631C2.90332 16.6465 7.0166 20.7598 11.9912 20.7598ZM10.0312 15.8555C9.45117 15.8555 9.14355 15.46 9.14355 14.8535V8.48145C9.14355 7.85742 9.45996 7.4707 10.0664 7.4707H14.2676C14.707 7.4707 15.0059 7.72559 15.0059 8.17383C15.0059 8.60449 14.707 8.87695 14.2676 8.87695H10.9189V11.0215H13.9863C14.3994 11.0215 14.6807 11.2676 14.6807 11.6895C14.6807 12.1025 14.3994 12.3311 13.9863 12.3311H10.9277V14.8535C10.9277 15.4688 10.6025 15.8555 10.0312 15.8555Z" fill="#1C1C1E"/>
</g>
<defs>
<clipPath id="clip0_10_2041">
<rect width="24" height="24" fill="white"/>
</clipPath>
</defs>
</svg>
