<svg width="24" height="24" viewBox="0 0 24 24" fill="none" xmlns="http://www.w3.org/2000/svg">
<g clip-path="url(#clip0_10_2019)">
<path d="M6.67383 19.8809H17.3174C19.2246 19.8809 20.209 18.8965 20.209 17.0156V6.31934C20.209 4.43848 19.2246 3.4541 17.3174 3.4541H6.67383C4.77539 3.4541 3.78223 4.42969 3.78223 6.31934V17.0156C3.78223 18.8965 4.77539 19.8809 6.67383 19.8809ZM10.0664 15.8467C9.49512 15.8467 9.17871 15.4512 9.17871 14.8447V8.47266C9.17871 7.84863 9.49512 7.45312 10.1016 7.45312H14.3027C14.7422 7.45312 15.041 7.7168 15.041 8.16504C15.041 8.5957 14.7422 8.86816 14.3027 8.86816H10.9541V11.0127H14.0215C14.4346 11.0127 14.7158 11.25 14.7158 11.6719C14.7158 12.0938 14.4346 12.3223 14.0215 12.3223H10.9629V14.8447C10.9629 15.46 10.6377 15.8467 10.0664 15.8467Z" fill="#1C1C1E"/>
</g>
<defs>
<clipPath id="clip0_10_2019">
<rect width="24" height="24" fill="white"/>
</clipPath>
</defs>
</svg>
