<svg width="24" height="24" viewBox="0 0 24 24" fill="none" xmlns="http://www.w3.org/2000/svg">
<g clip-path="url(#clip0_10_2021)">
<path d="M6.67383 19.8809H17.3174C19.2246 19.8809 20.209 18.8965 20.209 17.0156V6.31934C20.209 4.43848 19.2246 3.4541 17.3174 3.4541H6.67383C4.77539 3.4541 3.78223 4.42969 3.78223 6.31934V17.0156C3.78223 18.8965 4.77539 19.8809 6.67383 19.8809ZM6.78809 18.1318C5.97949 18.1318 5.53125 17.71 5.53125 16.8574V6.47754C5.53125 5.625 5.97949 5.20312 6.78809 5.20312H17.2031C18.0029 5.20312 18.46 5.625 18.46 6.47754V16.8574C18.46 17.71 18.0029 18.1318 17.2031 18.1318H6.78809ZM10.1191 15.6797C10.6641 15.6797 10.9717 15.3193 10.9717 14.7305V12.2871H13.9248C14.3203 12.2871 14.584 12.0674 14.584 11.6719C14.584 11.2676 14.3203 11.0391 13.9248 11.0391H10.9629V8.96484H14.1973C14.6191 8.96484 14.9004 8.70117 14.9004 8.28809C14.9004 7.86621 14.6191 7.62012 14.1973 7.62012H10.1543C9.57422 7.62012 9.27539 7.98926 9.27539 8.57812V14.7305C9.27539 15.3018 9.57422 15.6797 10.1191 15.6797Z" fill="#1C1C1E"/>
</g>
<defs>
<clipPath id="clip0_10_2021">
<rect width="24" height="24" fill="white"/>
</clipPath>
</defs>
</svg>
