<svg width="24" height="24" viewBox="0 0 24 24" fill="none" xmlns="http://www.w3.org/2000/svg">
<g clip-path="url(#clip0_10_2104)">
<path d="M6.67383 19.8809H17.3174C19.2246 19.8809 20.209 18.8965 20.209 17.0156V6.31934C20.209 4.43848 19.2246 3.4541 17.3174 3.4541H6.67383C4.77539 3.4541 3.78223 4.42969 3.78223 6.31934V17.0156C3.78223 18.8965 4.77539 19.8809 6.67383 19.8809ZM9.87305 15.9785C9.45996 15.9785 9.13477 15.9258 8.90625 15.8115C8.60742 15.6885 8.4668 15.4863 8.4668 15.2139C8.4668 14.915 8.66895 14.6953 8.99414 14.6777C9.1084 14.6777 9.17871 14.6777 9.2666 14.6953C9.40723 14.7129 9.52148 14.7393 9.76758 14.7393C10.5234 14.7393 10.8838 14.3789 11.0244 13.5352L11.2793 11.9883H9.72363C9.38965 11.9883 9.19629 11.7861 9.19629 11.4873C9.19629 11.1709 9.39844 10.9688 9.72363 10.9688H11.4287L11.6484 9.60645C11.9033 8.05957 12.7031 7.33008 14.1621 7.33008C14.5752 7.33008 14.9004 7.38281 15.1289 7.49707C15.4277 7.62012 15.5771 7.82227 15.5771 8.09473C15.5771 8.39355 15.375 8.61328 15.041 8.63086C14.9355 8.63965 14.8564 8.63086 14.7686 8.61328C14.6279 8.5957 14.5137 8.56934 14.2676 8.56934C13.5205 8.56934 13.1602 8.9209 13.0195 9.74707L12.835 10.9688H14.4697C14.8037 10.9688 14.9971 11.1709 14.9971 11.4873C14.9971 11.7861 14.8037 11.9883 14.4697 11.9883H12.668L12.3867 13.7021C12.1318 15.249 11.3408 15.9785 9.87305 15.9785Z" fill="#1C1C1E"/>
</g>
<defs>
<clipPath id="clip0_10_2104">
<rect width="24" height="24" fill="white"/>
</clipPath>
</defs>
</svg>
