<svg width="24" height="24" viewBox="0 0 24 24" fill="none" xmlns="http://www.w3.org/2000/svg">
<g clip-path="url(#clip0_10_2111)">
<path d="M11.9912 20.7422C16.9746 20.7422 21.0879 16.6289 21.0879 11.6543C21.0879 6.67969 16.9658 2.56641 11.9824 2.56641C7.00781 2.56641 2.90332 6.67969 2.90332 11.6543C2.90332 16.6289 7.0166 20.7422 11.9912 20.7422ZM9.83789 15.9785C9.4248 15.9785 9.09961 15.9258 8.87109 15.8115C8.57227 15.6885 8.43164 15.4863 8.43164 15.2139C8.43164 14.915 8.63379 14.6953 8.95898 14.6777C9.06445 14.6777 9.14355 14.6777 9.23145 14.6953C9.37207 14.7129 9.48633 14.7393 9.73242 14.7393C10.4883 14.7393 10.8486 14.3789 10.9893 13.5352L11.2441 11.9883H9.68848C9.35449 11.9883 9.16113 11.7861 9.16113 11.4873C9.16113 11.1709 9.36328 10.9688 9.68848 10.9688H11.3936L11.6133 9.60645C11.8682 8.05957 12.668 7.33008 14.127 7.33008C14.54 7.33008 14.8652 7.38281 15.0938 7.49707C15.3926 7.62012 15.542 7.82227 15.542 8.09473C15.542 8.39355 15.3398 8.61328 15.0059 8.63086C14.9004 8.63965 14.8213 8.63086 14.7334 8.61328C14.5928 8.5957 14.4785 8.56934 14.2324 8.56934C13.4854 8.56934 13.125 8.9209 12.9844 9.74707L12.7998 10.9688H14.4346C14.7686 10.9688 14.9619 11.1709 14.9619 11.4873C14.9619 11.7861 14.7686 11.9883 14.4346 11.9883H12.6328L12.3516 13.7021C12.0967 15.249 11.3057 15.9785 9.83789 15.9785Z" fill="#1C1C1E"/>
</g>
<defs>
<clipPath id="clip0_10_2111">
<rect width="24" height="24" fill="white"/>
</clipPath>
</defs>
</svg>
