<svg width="24" height="24" viewBox="0 0 24 24" fill="none" xmlns="http://www.w3.org/2000/svg">
<g clip-path="url(#clip0_10_2131)">
<path d="M11.9912 20.7422C16.9746 20.7422 21.0879 16.6289 21.0879 11.6543C21.0879 6.67969 16.9658 2.56641 11.9824 2.56641C7.00781 2.56641 2.90332 6.67969 2.90332 11.6543C2.90332 16.6289 7.0166 20.7422 11.9912 20.7422ZM11.9912 18.9316C7.95703 18.9316 4.73145 15.6885 4.73145 11.6543C4.73145 7.62012 7.95703 4.38574 11.9824 4.38574C16.0166 4.38574 19.2598 7.62012 19.2686 11.6543C19.2773 15.6885 16.0254 18.9316 11.9912 18.9316ZM10.5322 15.9873C10.9365 15.9873 11.209 15.7061 11.209 15.3018V14.5459H12.9756C13.2305 14.5459 13.3887 14.3701 13.3887 14.1328C13.3887 13.8955 13.2305 13.7109 12.9756 13.7109H11.209V12.3574H13.9248C14.2852 12.3574 14.5488 12.1201 14.5488 11.7598C14.5488 11.3994 14.2852 11.1621 13.9248 11.1621H11.209V8.94727H14.2236C14.584 8.94727 14.8564 8.70117 14.8564 8.34082C14.8564 7.97168 14.584 7.72559 14.2236 7.72559H10.5234C10.1016 7.72559 9.83789 7.99805 9.83789 8.42871V13.7109H9.15234C8.89746 13.7109 8.73926 13.8955 8.73926 14.1328C8.73926 14.3701 8.89746 14.5459 9.15234 14.5459H9.83789V15.3105C9.83789 15.7148 10.1279 15.9873 10.5322 15.9873Z" fill="#1C1C1E"/>
</g>
<defs>
<clipPath id="clip0_10_2131">
<rect width="24" height="24" fill="white"/>
</clipPath>
</defs>
</svg>
