<svg width="24" height="24" viewBox="0 0 24 24" fill="none" xmlns="http://www.w3.org/2000/svg">
<g clip-path="url(#clip0_10_2031)">
<path d="M11.9912 20.7422C16.9746 20.7422 21.0879 16.6289 21.0879 11.6543C21.0879 6.67969 16.9658 2.56641 11.9824 2.56641C7.00781 2.56641 2.90332 6.67969 2.90332 11.6543C2.90332 16.6289 7.0166 20.7422 11.9912 20.7422ZM12.0088 15.9609C9.58301 15.9609 8.02734 14.2646 8.02734 11.5928C8.02734 8.93848 9.58301 7.22461 11.9824 7.22461C13.6875 7.22461 14.9268 8.0332 15.3662 9.1582C15.4277 9.31641 15.4629 9.45703 15.4629 9.62402C15.4629 10.0723 15.1729 10.3447 14.707 10.3447C14.3291 10.3447 14.127 10.1689 13.96 9.86133C13.6172 9.0791 12.958 8.63965 12.0264 8.63965C10.6992 8.63965 9.82031 9.82617 9.82031 11.5928C9.82031 13.377 10.708 14.5635 12.0527 14.5635C13.2832 14.5635 13.9336 13.9131 13.9336 12.9463V12.4541H12.5273C12.1318 12.4541 11.9033 12.1816 11.9033 11.8564C11.9033 11.4961 12.1318 11.2588 12.5273 11.2588H14.7861C15.3398 11.2588 15.6562 11.5752 15.6562 12.1465V12.709C15.6562 14.6074 14.2852 15.9609 12.0088 15.9609Z" fill="#1C1C1E"/>
</g>
<defs>
<clipPath id="clip0_10_2031">
<rect width="24" height="24" fill="white"/>
</clipPath>
</defs>
</svg>
