<svg width="24" height="24" viewBox="0 0 24 24" fill="none" xmlns="http://www.w3.org/2000/svg">
<g clip-path="url(#clip0_10_2033)">
<path d="M11.9912 20.7422C16.9746 20.7422 21.0879 16.6289 21.0879 11.6543C21.0879 6.67969 16.9658 2.56641 11.9824 2.56641C7.00781 2.56641 2.90332 6.67969 2.90332 11.6543C2.90332 16.6289 7.0166 20.7422 11.9912 20.7422ZM11.9912 18.9316C7.95703 18.9316 4.73145 15.6885 4.73145 11.6543C4.73145 7.62012 7.95703 4.38574 11.9824 4.38574C16.0166 4.38574 19.2598 7.62012 19.2686 11.6543C19.2773 15.6885 16.0254 18.9316 11.9912 18.9316ZM12 15.7676C14.1709 15.7676 15.4805 14.4756 15.4805 12.665V12.1289C15.4805 11.584 15.1729 11.2764 14.6455 11.2764H12.501C12.123 11.2764 11.9033 11.5049 11.9033 11.8477C11.9033 12.1641 12.123 12.4189 12.501 12.4189H13.8457V12.8848C13.8457 13.8164 13.2217 14.4404 12.0439 14.4404C10.7607 14.4404 9.9082 13.2979 9.9082 11.6016C9.9082 9.91406 10.752 8.78027 12.0176 8.78027C12.9053 8.78027 13.5381 9.20215 13.8633 9.94922C14.0303 10.2393 14.2148 10.3975 14.584 10.3975C15.0146 10.3975 15.2959 10.1426 15.2959 9.72949C15.2959 9.5625 15.2695 9.43066 15.208 9.28125C14.7949 8.20898 13.6084 7.42676 11.9824 7.42676C9.68848 7.42676 8.21191 9.06152 8.21191 11.6016C8.21191 14.1416 9.68848 15.7676 12 15.7676Z" fill="#1C1C1E"/>
</g>
<defs>
<clipPath id="clip0_10_2033">
<rect width="24" height="24" fill="white"/>
</clipPath>
</defs>
</svg>
