<svg width="24" height="24" viewBox="0 0 24 24" fill="none" xmlns="http://www.w3.org/2000/svg">
<g clip-path="url(#clip0_10_2043)">
<path d="M6.67383 19.8809H17.3174C19.2246 19.8809 20.209 18.8965 20.209 17.0156V6.31934C20.209 4.43848 19.2246 3.4541 17.3174 3.4541H6.67383C4.77539 3.4541 3.78223 4.42969 3.78223 6.31934V17.0156C3.78223 18.8965 4.77539 19.8809 6.67383 19.8809ZM12.0527 15.9609C9.61816 15.9609 8.0625 14.2646 8.0625 11.5928C8.0625 8.93848 9.61816 7.22461 12.0176 7.22461C13.7314 7.22461 14.9619 8.0332 15.4014 9.1582C15.4629 9.31641 15.498 9.45703 15.498 9.62402C15.498 10.0723 15.208 10.3447 14.751 10.3447C14.3643 10.3447 14.1621 10.1689 13.9951 9.86133C13.6523 9.0791 12.9932 8.63965 12.0703 8.63965C10.7344 8.63965 9.85547 9.82617 9.85547 11.5928C9.85547 13.377 10.7432 14.5635 12.0879 14.5635C13.3184 14.5635 13.9688 13.9131 13.9688 12.9463V12.4541H12.5625C12.167 12.4541 11.9385 12.1816 11.9385 11.8564C11.9385 11.4961 12.167 11.2588 12.5625 11.2588H14.8213C15.375 11.2588 15.6914 11.5752 15.6914 12.1465V12.709C15.6914 14.6074 14.3203 15.9609 12.0527 15.9609Z" fill="#1C1C1E"/>
</g>
<defs>
<clipPath id="clip0_10_2043">
<rect width="24" height="24" fill="white"/>
</clipPath>
</defs>
</svg>
