<svg width="24" height="24" viewBox="0 0 24 24" fill="none" xmlns="http://www.w3.org/2000/svg">
<g clip-path="url(#clip0_10_2045)">
<path d="M6.67383 19.8809H17.3174C19.2246 19.8809 20.209 18.8965 20.209 17.0156V6.31934C20.209 4.43848 19.2246 3.4541 17.3174 3.4541H6.67383C4.77539 3.4541 3.78223 4.42969 3.78223 6.31934V17.0156C3.78223 18.8965 4.77539 19.8809 6.67383 19.8809ZM6.78809 18.1318C5.97949 18.1318 5.53125 17.71 5.53125 16.8574V6.47754C5.53125 5.625 5.97949 5.20312 6.78809 5.20312H17.2031C18.0029 5.20312 18.46 5.625 18.46 6.47754V16.8574C18.46 17.71 18.0029 18.1318 17.2031 18.1318H6.78809ZM12.0176 15.7588C14.1885 15.7588 15.498 14.4668 15.498 12.665V12.1201C15.498 11.5752 15.1904 11.2764 14.6631 11.2764H12.5098C12.1406 11.2764 11.9209 11.5049 11.9209 11.8389C11.9209 12.1553 12.1406 12.4102 12.5098 12.4102H13.8633V12.8848C13.8633 13.8076 13.2393 14.4316 12.0527 14.4316C10.7695 14.4316 9.92578 13.2979 9.92578 11.5928C9.92578 9.90527 10.7607 8.77148 12.0352 8.77148C12.9229 8.77148 13.5557 9.19336 13.8809 9.94043C14.0391 10.2393 14.2324 10.3975 14.5928 10.3975C15.0322 10.3975 15.3047 10.1338 15.3047 9.7207C15.3047 9.5625 15.2871 9.43066 15.2256 9.28125C14.8037 8.2002 13.626 7.42676 12 7.42676C9.70605 7.42676 8.2207 9.05273 8.2207 11.5928C8.2207 14.1416 9.70605 15.7588 12.0176 15.7588Z" fill="#1C1C1E"/>
</g>
<defs>
<clipPath id="clip0_10_2045">
<rect width="24" height="24" fill="white"/>
</clipPath>
</defs>
</svg>
