<svg width="24" height="24" viewBox="0 0 24 24" fill="none" xmlns="http://www.w3.org/2000/svg">
<g clip-path="url(#clip0_10_2030)">
<path d="M6.67383 19.8809H17.3174C19.2246 19.8809 20.209 18.8965 20.209 17.0156V6.31934C20.209 4.43848 19.2246 3.4541 17.3174 3.4541H6.67383C4.77539 3.4541 3.78223 4.42969 3.78223 6.31934V17.0156C3.78223 18.8965 4.77539 19.8809 6.67383 19.8809ZM12.1494 16.9717C11.9033 16.9717 11.7188 16.7871 11.7188 16.5322V15.9434C9.73242 15.7324 8.49316 14.168 8.49316 11.6895C8.49316 9.2373 9.74121 7.64648 11.7188 7.42676V6.8291C11.7188 6.56543 11.9033 6.38965 12.1494 6.38965C12.3955 6.38965 12.5801 6.56543 12.5801 6.8291V7.41797C13.8457 7.54102 14.8916 8.27051 15.2783 9.30762C15.3311 9.45703 15.3662 9.60645 15.3662 9.76465C15.3662 10.1514 15.1025 10.4062 14.7334 10.4062C14.373 10.4062 14.2148 10.2656 14.0566 9.92285C13.8369 9.28125 13.2744 8.81543 12.5801 8.70117V11.3643H14.8213C15.2695 11.3643 15.5508 11.6367 15.5508 12.0674V12.4629C15.5508 14.4756 14.4961 15.8115 12.5801 15.9521V16.5322C12.5801 16.7871 12.3955 16.9717 12.1494 16.9717ZM11.7188 14.6777V8.71875C10.6201 8.94727 9.95215 10.0547 9.95215 11.6807C9.95215 13.3154 10.6201 14.4316 11.7188 14.6777ZM12.5801 14.7041C13.5557 14.5547 14.1182 13.7988 14.1182 12.7266V12.5508H12.5801V14.7041Z" fill="#1C1C1E"/>
</g>
<defs>
<clipPath id="clip0_10_2030">
<rect width="24" height="24" fill="white"/>
</clipPath>
</defs>
</svg>
