<svg width="24" height="24" viewBox="0 0 24 24" fill="none" xmlns="http://www.w3.org/2000/svg">
<g clip-path="url(#clip0_10_2023)">
<path d="M11.9912 20.7422C16.9746 20.7422 21.0879 16.6289 21.0879 11.6543C21.0879 6.67969 16.9658 2.56641 11.9824 2.56641C7.00781 2.56641 2.90332 6.67969 2.90332 11.6543C2.90332 16.6289 7.0166 20.7422 11.9912 20.7422ZM9.1875 15.8467C8.625 15.8467 8.29102 15.4688 8.29102 14.8359V8.34961C8.29102 7.70801 8.625 7.33887 9.1875 7.33887C9.76758 7.33887 10.1104 7.70801 10.1104 8.34961V10.793H13.8545V8.34961C13.8545 7.70801 14.1885 7.33887 14.751 7.33887C15.3398 7.33887 15.6738 7.70801 15.6738 8.34961V14.8359C15.6738 15.4775 15.3398 15.8467 14.751 15.8467C14.1885 15.8467 13.8545 15.4688 13.8545 14.8359V12.1904H10.1104V14.8359C10.1104 15.4775 9.76758 15.8467 9.1875 15.8467Z" fill="#1C1C1E"/>
</g>
<defs>
<clipPath id="clip0_10_2023">
<rect width="24" height="24" fill="white"/>
</clipPath>
</defs>
</svg>
