<svg width="24" height="24" viewBox="0 0 24 24" fill="none" xmlns="http://www.w3.org/2000/svg">
<g clip-path="url(#clip0_10_2025)">
<path d="M11.9912 20.7422C16.9746 20.7422 21.0879 16.6289 21.0879 11.6543C21.0879 6.67969 16.9658 2.56641 11.9824 2.56641C7.00781 2.56641 2.90332 6.67969 2.90332 11.6543C2.90332 16.6289 7.0166 20.7422 11.9912 20.7422ZM11.9912 18.9316C7.95703 18.9316 4.73145 15.6885 4.73145 11.6543C4.73145 7.62012 7.95703 4.38574 11.9824 4.38574C16.0166 4.38574 19.2598 7.62012 19.2686 11.6543C19.2773 15.6885 16.0254 18.9316 11.9912 18.9316ZM9.29297 15.6797C9.84668 15.6797 10.1631 15.3281 10.1631 14.7305V12.1641H13.793V14.7305C13.793 15.3281 14.1094 15.6797 14.6455 15.6797C15.1992 15.6797 15.5156 15.3281 15.5156 14.7305V8.46387C15.5156 7.86621 15.1992 7.51465 14.6455 7.51465C14.1094 7.51465 13.793 7.86621 13.793 8.46387V10.8369H10.1631V8.46387C10.1631 7.86621 9.84668 7.51465 9.29297 7.51465C8.75684 7.51465 8.44043 7.86621 8.44043 8.46387V14.7305C8.44043 15.3281 8.75684 15.6797 9.29297 15.6797Z" fill="#1C1C1E"/>
</g>
<defs>
<clipPath id="clip0_10_2025">
<rect width="24" height="24" fill="white"/>
</clipPath>
</defs>
</svg>
