<svg width="24" height="24" viewBox="0 0 24 24" fill="none" xmlns="http://www.w3.org/2000/svg">
<g clip-path="url(#clip0_10_2003)">
<path d="M6.67383 19.8809H17.3174C19.2246 19.8809 20.209 18.8965 20.209 17.0156V6.31934C20.209 4.43848 19.2246 3.4541 17.3174 3.4541H6.67383C4.77539 3.4541 3.78223 4.42969 3.78223 6.31934V17.0156C3.78223 18.8965 4.77539 19.8809 6.67383 19.8809ZM9.22266 15.8467C8.66016 15.8467 8.32617 15.4688 8.32617 14.8359V8.34961C8.32617 7.70801 8.66016 7.33887 9.22266 7.33887C9.80273 7.33887 10.1455 7.70801 10.1455 8.34961V10.793H13.8896V8.34961C13.8896 7.70801 14.2236 7.33887 14.7949 7.33887C15.375 7.33887 15.709 7.70801 15.709 8.34961V14.8359C15.709 15.4775 15.375 15.8467 14.7949 15.8467C14.2236 15.8467 13.8896 15.4688 13.8896 14.8359V12.1904H10.1455V14.8359C10.1455 15.4775 9.80273 15.8467 9.22266 15.8467Z" fill="#1C1C1E"/>
</g>
<defs>
<clipPath id="clip0_10_2003">
<rect width="24" height="24" fill="white"/>
</clipPath>
</defs>
</svg>
