<svg width="24" height="24" viewBox="0 0 24 24" fill="none" xmlns="http://www.w3.org/2000/svg">
<g clip-path="url(#clip0_10_2072)">
<path d="M11.9912 20.7422C16.9746 20.7422 21.0879 16.6289 21.0879 11.6543C21.0879 6.67969 16.9658 2.56641 11.9824 2.56641C7.00781 2.56641 2.90332 6.67969 2.90332 11.6543C2.90332 16.6289 7.0166 20.7422 11.9912 20.7422ZM11.9912 18.9316C7.95703 18.9316 4.73145 15.6885 4.73145 11.6543C4.73145 7.62012 7.95703 4.38574 11.9824 4.38574C16.0166 4.38574 19.2598 7.62012 19.2686 11.6543C19.2773 15.6885 16.0254 18.9316 11.9912 18.9316ZM8.58984 10.7842C8.58984 11.0127 8.76562 11.1973 9.00293 11.1973H14.9795C15.2256 11.1973 15.3926 11.0127 15.3926 10.7842C15.3926 10.5381 15.2256 10.3711 14.9795 10.3711H14.417C14.5752 10.125 14.6543 9.83496 14.6543 9.58887C14.6543 8.25293 13.4502 7.45312 11.9561 7.45312C10.9805 7.45312 10.0664 7.81348 9.60938 8.61328C9.49512 8.78906 9.4248 8.98242 9.4248 9.19336C9.41602 9.52734 9.65332 9.78223 10.0225 9.78223C10.2686 9.78223 10.4443 9.68555 10.6025 9.41309C10.8486 8.89453 11.376 8.63086 11.9736 8.63086C12.7119 8.63086 13.3271 8.98242 13.3271 9.65918C13.3271 9.91406 13.2041 10.2041 12.9404 10.3711H9.00293C8.76562 10.3711 8.58984 10.5381 8.58984 10.7842ZM15.375 12.4453C15.375 12.2168 15.208 12.0322 14.9707 12.0322H8.98535C8.74805 12.0322 8.58105 12.2168 8.58105 12.4453C8.58105 12.6914 8.74805 12.8584 8.98535 12.8584H9.54785C9.39844 13.1045 9.31934 13.3945 9.31934 13.6494C9.31934 14.9766 10.5234 15.7764 12.0176 15.7764C12.9932 15.7764 13.9072 15.4248 14.3643 14.625C14.4785 14.4404 14.54 14.2471 14.5488 14.0361C14.5576 13.7021 14.3203 13.4473 13.9512 13.4473C13.6963 13.4473 13.5205 13.5439 13.3623 13.8252C13.1338 14.3438 12.5977 14.6074 12 14.6074C11.2617 14.6074 10.6377 14.2559 10.6377 13.5703C10.6377 13.3154 10.7695 13.0342 11.0244 12.8584H14.9707C15.208 12.8584 15.375 12.6914 15.375 12.4453Z" fill="#1C1C1E"/>
</g>
<defs>
<clipPath id="clip0_10_2072">
<rect width="24" height="24" fill="white"/>
</clipPath>
</defs>
</svg>
