<svg width="24" height="24" viewBox="0 0 24 24" fill="none" xmlns="http://www.w3.org/2000/svg">
<g clip-path="url(#clip0_10_2070)">
<path d="M11.9912 20.7422C16.9746 20.7422 21.0879 16.6289 21.0879 11.6543C21.0879 6.67969 16.9658 2.56641 11.9824 2.56641C7.00781 2.56641 2.90332 6.67969 2.90332 11.6543C2.90332 16.6289 7.0166 20.7422 11.9912 20.7422ZM8.45801 10.749C8.45801 10.4941 8.625 10.3096 8.87988 10.3096H12.9756C13.248 10.1338 13.3711 9.83496 13.3711 9.58008C13.3711 8.87695 12.7383 8.50781 11.9736 8.50781C11.3584 8.50781 10.8135 8.78027 10.5586 9.31641C10.3916 9.60645 10.207 9.70312 9.94336 9.70312C9.55664 9.70312 9.31055 9.43945 9.31934 9.08789C9.32812 8.86816 9.38965 8.66602 9.5127 8.48145C9.9873 7.64648 10.9365 7.27734 11.9561 7.27734C13.5117 7.27734 14.7686 8.1123 14.7686 9.50098C14.7686 9.75586 14.6807 10.0635 14.5225 10.3096H15.1113C15.3574 10.3096 15.5332 10.4941 15.5332 10.749C15.5332 10.9863 15.3574 11.1709 15.1113 11.1709H8.87988C8.63379 11.1709 8.45801 10.9863 8.45801 10.749ZM15.5156 12.4717C15.5156 12.7266 15.3398 12.9023 15.0938 12.9023H10.998C10.7256 13.0781 10.5938 13.377 10.5938 13.6406C10.5938 14.3438 11.2354 14.7041 12 14.7041C12.6152 14.7041 13.1689 14.4404 13.415 13.9043C13.5732 13.6143 13.7666 13.5088 14.0303 13.5088C14.4082 13.5088 14.6631 13.7725 14.6543 14.124C14.6455 14.3438 14.584 14.5459 14.4609 14.7393C13.9863 15.5654 13.0283 15.9346 12.0176 15.9346C10.4619 15.9346 9.20508 15.0996 9.20508 13.7197C9.20508 13.4561 9.29297 13.1572 9.44238 12.9023H8.8623C8.61621 12.9023 8.43164 12.7266 8.43164 12.4717C8.43164 12.2344 8.61621 12.041 8.8623 12.041H15.0938C15.3398 12.041 15.5156 12.2344 15.5156 12.4717Z" fill="#1C1C1E"/>
</g>
<defs>
<clipPath id="clip0_10_2070">
<rect width="24" height="24" fill="white"/>
</clipPath>
</defs>
</svg>
