<svg width="24" height="24" viewBox="0 0 24 24" fill="none" xmlns="http://www.w3.org/2000/svg">
<g clip-path="url(#clip0_10_2017)">
<path d="M11.9912 20.7422C16.9746 20.7422 21.0879 16.6289 21.0879 11.6543C21.0879 6.67969 16.9658 2.56641 11.9824 2.56641C7.00781 2.56641 2.90332 6.67969 2.90332 11.6543C2.90332 16.6289 7.0166 20.7422 11.9912 20.7422ZM11.9912 18.9316C7.95703 18.9316 4.73145 15.6885 4.73145 11.6543C4.73145 7.62012 7.95703 4.38574 11.9824 4.38574C16.0166 4.38574 19.2598 7.62012 19.2686 11.6543C19.2773 15.6885 16.0254 18.9316 11.9912 18.9316ZM11.9736 15.6797C12.5449 15.6797 12.8613 15.3105 12.8613 14.7041V8.49023C12.8613 7.88379 12.5449 7.51465 11.9736 7.51465C11.4111 7.51465 11.1035 7.89258 11.1035 8.49023V14.7041C11.1035 15.3018 11.4111 15.6797 11.9736 15.6797Z" fill="#1C1C1E"/>
</g>
<defs>
<clipPath id="clip0_10_2017">
<rect width="24" height="24" fill="white"/>
</clipPath>
</defs>
</svg>
