<svg width="24" height="24" viewBox="0 0 24 24" fill="none" xmlns="http://www.w3.org/2000/svg">
<g clip-path="url(#clip0_10_1967)">
<path d="M6.67383 19.8809H17.3174C19.2246 19.8809 20.209 18.8965 20.209 17.0156V6.31934C20.209 4.43848 19.2246 3.4541 17.3174 3.4541H6.67383C4.77539 3.4541 3.78223 4.42969 3.78223 6.31934V17.0156C3.78223 18.8965 4.77539 19.8809 6.67383 19.8809ZM12.0088 15.8467C11.4199 15.8467 11.0947 15.4336 11.0947 14.8096V8.37598C11.0947 7.74316 11.4199 7.33887 12.0088 7.33887C12.6152 7.33887 12.9404 7.72559 12.9404 8.37598V14.8096C12.9404 15.4512 12.6152 15.8467 12.0088 15.8467Z" fill="#1C1C1E"/>
</g>
<defs>
<clipPath id="clip0_10_1967">
<rect width="24" height="24" fill="white"/>
</clipPath>
</defs>
</svg>
