<svg width="24" height="24" viewBox="0 0 24 24" fill="none" xmlns="http://www.w3.org/2000/svg">
<g clip-path="url(#clip0_10_2313)">
<path d="M6.67383 19.8809H17.3174C19.2246 19.8809 20.209 18.8965 20.209 17.0156V6.31934C20.209 4.43848 19.2246 3.4541 17.3174 3.4541H6.67383C4.77539 3.4541 3.78223 4.42969 3.78223 6.31934V17.0156C3.78223 18.8965 4.77539 19.8809 6.67383 19.8809ZM6.78809 18.1318C5.97949 18.1318 5.53125 17.71 5.53125 16.8574V6.47754C5.53125 5.625 5.97949 5.20312 6.78809 5.20312H17.2031C18.0029 5.20312 18.46 5.625 18.46 6.47754V16.8574C18.46 17.71 18.0029 18.1318 17.2031 18.1318H6.78809ZM12.8965 15.9961C13.2305 15.9961 13.5381 15.7412 13.5381 15.3809C13.5381 15.1787 13.4326 15.0029 13.2832 14.8535L10.9805 12.7002H11.1914C12.8262 12.6475 13.6436 11.707 13.8193 10.6523H14.6455C14.8828 10.6523 15.0498 10.4678 15.0498 10.2393C15.0498 9.99316 14.8828 9.82617 14.6455 9.82617H13.8281C13.7666 9.37793 13.6172 8.99121 13.3447 8.6748H14.6104C14.8477 8.6748 15.0234 8.49023 15.0234 8.26172C15.0234 8.01562 14.8477 7.84863 14.6104 7.84863H12.7822C12.4746 7.7959 12.1406 7.76074 11.7891 7.76074H9.52148C9.19629 7.76074 8.9502 8.00684 8.9502 8.33203C8.9502 8.64844 9.19629 8.90332 9.52148 8.90332H10.998C11.7539 8.90332 12.2637 9.24609 12.4219 9.82617H9.45117C9.21387 9.82617 9.03809 9.99316 9.03809 10.2393C9.03809 10.4678 9.21387 10.6523 9.45117 10.6523H12.4307C12.2812 11.2676 11.7539 11.584 10.9014 11.584H9.69727C9.30176 11.584 9.00293 11.8213 9.00293 12.2344C9.00293 12.5508 9.14355 12.7002 9.37207 12.9199L12.3164 15.7061C12.5273 15.917 12.6943 15.9961 12.8965 15.9961Z" fill="#1C1C1E"/>
</g>
<defs>
<clipPath id="clip0_10_2313">
<rect width="24" height="24" fill="white"/>
</clipPath>
</defs>
</svg>
