<svg width="24" height="24" viewBox="0 0 24 24" fill="none" xmlns="http://www.w3.org/2000/svg">
<g clip-path="url(#clip0_10_2293)">
<path d="M6.67383 19.8809H17.3174C19.2246 19.8809 20.209 18.8965 20.209 17.0156V6.31934C20.209 4.43848 19.2246 3.4541 17.3174 3.4541H6.67383C4.77539 3.4541 3.78223 4.42969 3.78223 6.31934V17.0156C3.78223 18.8965 4.77539 19.8809 6.67383 19.8809ZM12.9492 16.1719C12.7295 16.1719 12.5537 16.0928 12.3252 15.873L9.27539 12.9814C9.04688 12.7529 8.89746 12.5947 8.89746 12.2607C8.89746 11.8213 9.21387 11.5752 9.63574 11.5752H10.875C11.7539 11.5752 12.3076 11.25 12.4658 10.6172H9.36328C9.12598 10.6172 8.94141 10.4238 8.94141 10.1865C8.94141 9.93164 9.12598 9.75586 9.36328 9.75586H12.4395C12.2812 9.14941 11.7539 8.80664 10.9717 8.80664H9.44238C9.1084 8.80664 8.84473 8.53418 8.84473 8.20898C8.84473 7.86621 9.1084 7.61133 9.44238 7.61133H11.7979C12.1582 7.61133 12.5098 7.6377 12.835 7.69922H14.7422C14.9883 7.69922 15.1641 7.875 15.1641 8.12988C15.1641 8.36719 14.9883 8.56055 14.7422 8.56055H13.4326C13.7051 8.88574 13.8633 9.29004 13.9248 9.75586H14.7773C15.0322 9.75586 15.1992 9.93164 15.1992 10.1865C15.1992 10.4238 15.0322 10.6172 14.7773 10.6172H13.9072C13.7314 11.7158 12.8877 12.6914 11.1914 12.7441L10.9717 12.7529L13.3447 14.9766C13.5117 15.1348 13.626 15.3193 13.626 15.5215C13.626 15.9082 13.3008 16.1719 12.9492 16.1719Z" fill="#1C1C1E"/>
</g>
<defs>
<clipPath id="clip0_10_2293">
<rect width="24" height="24" fill="white"/>
</clipPath>
</defs>
</svg>
