<svg width="24" height="24" viewBox="0 0 24 24" fill="none" xmlns="http://www.w3.org/2000/svg">
<g clip-path="url(#clip0_10_2335)">
<path d="M11.9912 20.7422C16.9746 20.7422 21.0879 16.6289 21.0879 11.6543C21.0879 6.67969 16.9658 2.56641 11.9824 2.56641C7.00781 2.56641 2.90332 6.67969 2.90332 11.6543C2.90332 16.6289 7.0166 20.7422 11.9912 20.7422ZM12.9141 16.1719C12.6943 16.1719 12.5186 16.0928 12.29 15.873L9.24023 12.9814C9.00293 12.7529 8.8623 12.5947 8.8623 12.2607C8.8623 11.8213 9.17871 11.5752 9.60059 11.5752H10.8398C11.7188 11.5752 12.2725 11.25 12.4307 10.6172H9.32812C9.09082 10.6172 8.90625 10.4238 8.90625 10.1865C8.90625 9.93164 9.09082 9.75586 9.32812 9.75586H12.4043C12.2461 9.14941 11.7188 8.80664 10.9365 8.80664H9.40723C9.07324 8.80664 8.80957 8.53418 8.80957 8.20898C8.80957 7.86621 9.07324 7.61133 9.40723 7.61133H11.7627C12.123 7.61133 12.4746 7.6377 12.7998 7.69922H14.6982C14.9531 7.69922 15.1289 7.875 15.1289 8.12988C15.1289 8.36719 14.9531 8.56055 14.6982 8.56055H13.3975C13.6699 8.88574 13.8281 9.29004 13.8896 9.75586H14.7422C14.9971 9.75586 15.1641 9.93164 15.1641 10.1865C15.1641 10.4238 14.9971 10.6172 14.7422 10.6172H13.8721C13.6963 11.7158 12.8525 12.6914 11.1562 12.7441L10.9365 12.7529L13.3096 14.9766C13.4766 15.1348 13.5908 15.3193 13.5908 15.5215C13.5908 15.9082 13.2656 16.1719 12.9141 16.1719Z" fill="#1C1C1E"/>
</g>
<defs>
<clipPath id="clip0_10_2335">
<rect width="24" height="24" fill="white"/>
</clipPath>
</defs>
</svg>
