<svg width="24" height="24" viewBox="0 0 24 24" fill="none" xmlns="http://www.w3.org/2000/svg">
<g clip-path="url(#clip0_10_2007)">
<path d="M11.9912 20.7422C16.9746 20.7422 21.0879 16.6289 21.0879 11.6543C21.0879 6.67969 16.9658 2.56641 11.9824 2.56641C7.00781 2.56641 2.90332 6.67969 2.90332 11.6543C2.90332 16.6289 7.0166 20.7422 11.9912 20.7422ZM11.5781 15.8555C10.2422 15.8555 9.20508 15.2139 8.88867 14.2295C8.83594 14.0801 8.80957 13.9307 8.80957 13.7725C8.80957 13.2891 9.13477 12.9639 9.61816 12.9639C10.0137 12.9639 10.2598 13.1484 10.4268 13.5439C10.6201 14.0625 11.0156 14.3613 11.6133 14.3613C12.2812 14.3613 12.6855 13.8867 12.6855 13.043V8.38477C12.6855 7.78711 12.9932 7.40039 13.5557 7.40039C14.127 7.40039 14.4434 7.76953 14.4434 8.38477V13.0781C14.4434 14.8623 13.4238 15.8555 11.5781 15.8555Z" fill="#1C1C1E"/>
</g>
<defs>
<clipPath id="clip0_10_2007">
<rect width="24" height="24" fill="white"/>
</clipPath>
</defs>
</svg>
