<svg width="24" height="24" viewBox="0 0 24 24" fill="none" xmlns="http://www.w3.org/2000/svg">
<g clip-path="url(#clip0_10_2009)">
<path d="M11.9912 20.7422C16.9746 20.7422 21.0879 16.6289 21.0879 11.6543C21.0879 6.67969 16.9658 2.56641 11.9824 2.56641C7.00781 2.56641 2.90332 6.67969 2.90332 11.6543C2.90332 16.6289 7.0166 20.7422 11.9912 20.7422ZM11.9912 18.9316C7.95703 18.9316 4.73145 15.6885 4.73145 11.6543C4.73145 7.62012 7.95703 4.38574 11.9824 4.38574C16.0166 4.38574 19.2598 7.62012 19.2686 11.6543C19.2773 15.6885 16.0254 18.9316 11.9912 18.9316ZM11.5869 15.75C13.3799 15.75 14.3818 14.7832 14.3818 13.0518V8.47266C14.3818 7.875 14.0742 7.51465 13.5205 7.51465C12.9668 7.51465 12.668 7.89258 12.668 8.47266V13.0166C12.668 13.834 12.2725 14.2998 11.6133 14.2998C11.042 14.2998 10.6465 14.0098 10.4619 13.5C10.3037 13.1045 10.0664 12.9375 9.6709 12.9375C9.20508 12.9375 8.88867 13.2539 8.88867 13.7197C8.88867 13.8779 8.91504 14.0186 8.95898 14.168C9.27539 15.126 10.2861 15.75 11.5869 15.75Z" fill="#1C1C1E"/>
</g>
<defs>
<clipPath id="clip0_10_2009">
<rect width="24" height="24" fill="white"/>
</clipPath>
</defs>
</svg>
