<svg width="24" height="24" viewBox="0 0 24 24" fill="none" xmlns="http://www.w3.org/2000/svg">
<g clip-path="url(#clip0_10_1987)">
<path d="M6.67383 19.8809H17.3174C19.2246 19.8809 20.209 18.8965 20.209 17.0156V6.31934C20.209 4.43848 19.2246 3.4541 17.3174 3.4541H6.67383C4.77539 3.4541 3.78223 4.42969 3.78223 6.31934V17.0156C3.78223 18.8965 4.77539 19.8809 6.67383 19.8809ZM11.6133 15.8555C10.2773 15.8555 9.24023 15.2139 8.92383 14.2295C8.87109 14.0801 8.84473 13.9307 8.84473 13.7725C8.84473 13.2891 9.16992 12.9639 9.65332 12.9639C10.0488 12.9639 10.2949 13.1484 10.4619 13.5439C10.6553 14.0625 11.0508 14.3613 11.6484 14.3613C12.3164 14.3613 12.7207 13.8867 12.7207 13.043V8.38477C12.7207 7.78711 13.0283 7.40039 13.5996 7.40039C14.1621 7.40039 14.4785 7.76953 14.4785 8.38477V13.0781C14.4785 14.8623 13.459 15.8555 11.6133 15.8555Z" fill="#1C1C1E"/>
</g>
<defs>
<clipPath id="clip0_10_1987">
<rect width="24" height="24" fill="white"/>
</clipPath>
</defs>
</svg>
