<svg width="24" height="24" viewBox="0 0 24 24" fill="none" xmlns="http://www.w3.org/2000/svg">
<g clip-path="url(#clip0_10_2001)">
<path d="M11.9912 20.7422C16.9746 20.7422 21.0879 16.6289 21.0879 11.6543C21.0879 6.67969 16.9658 2.56641 11.9824 2.56641C7.00781 2.56641 2.90332 6.67969 2.90332 11.6543C2.90332 16.6289 7.0166 20.7422 11.9912 20.7422ZM11.9912 18.9316C7.95703 18.9316 4.73145 15.6885 4.73145 11.6543C4.73145 7.62012 7.95703 4.38574 11.9824 4.38574C16.0166 4.38574 19.2598 7.62012 19.2686 11.6543C19.2773 15.6885 16.0254 18.9316 11.9912 18.9316ZM9.68848 15.6533C10.2158 15.6533 10.5322 15.3105 10.5322 14.7393V13.21L11.5078 12.1729L13.8105 15.2402C14.0303 15.5303 14.2412 15.6533 14.5312 15.6533C15.0059 15.6533 15.3398 15.3281 15.3398 14.8799C15.3398 14.6689 15.2695 14.4668 15.1113 14.2646L12.7295 11.127L14.918 8.83301C15.1025 8.63086 15.1729 8.46387 15.1729 8.24414C15.1729 7.84863 14.8301 7.54102 14.4082 7.54102C14.1357 7.54102 13.9512 7.6377 13.7227 7.90137L10.585 11.2061H10.5322V8.47266C10.5322 7.88379 10.2246 7.54102 9.68848 7.54102C9.16992 7.54102 8.8623 7.88379 8.8623 8.47266V14.7217C8.8623 15.3105 9.16992 15.6533 9.68848 15.6533Z" fill="#1C1C1E"/>
</g>
<defs>
<clipPath id="clip0_10_2001">
<rect width="24" height="24" fill="white"/>
</clipPath>
</defs>
</svg>
