<svg width="24" height="24" viewBox="0 0 24 24" fill="none" xmlns="http://www.w3.org/2000/svg">
<g clip-path="url(#clip0_10_1999)">
<path d="M11.9912 20.7422C16.9746 20.7422 21.0879 16.6289 21.0879 11.6543C21.0879 6.67969 16.9658 2.56641 11.9824 2.56641C7.00781 2.56641 2.90332 6.67969 2.90332 11.6543C2.90332 16.6289 7.0166 20.7422 11.9912 20.7422ZM9.5918 15.8115C9.04688 15.8115 8.72168 15.4512 8.72168 14.8271V8.3584C8.72168 7.73438 9.04688 7.37402 9.5918 7.37402C10.1543 7.37402 10.4795 7.73438 10.4795 8.3584V11.1709H10.541L13.7842 7.74316C14.0303 7.47949 14.2236 7.37402 14.5049 7.37402C14.9531 7.37402 15.3135 7.69043 15.3135 8.10352C15.3135 8.34961 15.2432 8.5166 15.0498 8.72754L12.7822 11.1094L15.252 14.3525C15.4014 14.5723 15.4805 14.7744 15.4805 14.9941C15.4805 15.4688 15.1289 15.8115 14.6367 15.8115C14.3291 15.8115 14.1006 15.6797 13.8721 15.3721L11.499 12.208L10.4795 13.2803V14.8447C10.4795 15.46 10.1543 15.8115 9.5918 15.8115Z" fill="#1C1C1E"/>
</g>
<defs>
<clipPath id="clip0_10_1999">
<rect width="24" height="24" fill="white"/>
</clipPath>
</defs>
</svg>
