<svg width="24" height="24" viewBox="0 0 24 24" fill="none" xmlns="http://www.w3.org/2000/svg">
<g clip-path="url(#clip0_10_2176)">
<path d="M6.67383 19.8809H17.3174C19.2246 19.8809 20.209 18.8965 20.209 17.0156V6.31934C20.209 4.43848 19.2246 3.4541 17.3174 3.4541H6.67383C4.77539 3.4541 3.78223 4.42969 3.78223 6.31934V17.0156C3.78223 18.8965 4.77539 19.8809 6.67383 19.8809ZM6.78809 18.1318C5.97949 18.1318 5.53125 17.71 5.53125 16.8574V6.47754C5.53125 5.625 5.97949 5.20312 6.78809 5.20312H17.2031C18.0029 5.20312 18.46 5.625 18.46 6.47754V16.8574C18.46 17.71 18.0029 18.1318 17.2031 18.1318H6.78809ZM9.70605 15.6445C10.2334 15.6445 10.541 15.3105 10.541 14.7305V13.2012L11.5254 12.1641L13.8281 15.2314C14.0391 15.5215 14.25 15.6445 14.5488 15.6445C15.0146 15.6445 15.3574 15.3193 15.3574 14.8711C15.3574 14.6602 15.2783 14.4668 15.1289 14.2559L12.7471 11.127L14.9355 8.82422C15.1201 8.63086 15.1904 8.46387 15.1904 8.23535C15.1904 7.83984 14.8477 7.54102 14.417 7.54102C14.1445 7.54102 13.9688 7.62891 13.7402 7.89258L10.6025 11.1973H10.541V8.47266C10.541 7.88379 10.2334 7.54102 9.70605 7.54102C9.17871 7.54102 8.87109 7.88379 8.87109 8.47266V14.7129C8.87109 15.3018 9.17871 15.6445 9.70605 15.6445Z" fill="#1C1C1E"/>
</g>
<defs>
<clipPath id="clip0_10_2176">
<rect width="24" height="24" fill="white"/>
</clipPath>
</defs>
</svg>
