<svg width="24" height="24" viewBox="0 0 24 24" fill="none" xmlns="http://www.w3.org/2000/svg">
<g clip-path="url(#clip0_10_2013)">
<path d="M6.67383 19.8809H17.3174C19.2246 19.8809 20.209 18.8965 20.209 17.0156V6.31934C20.209 4.43848 19.2246 3.4541 17.3174 3.4541H6.67383C4.77539 3.4541 3.78223 4.42969 3.78223 6.31934V17.0156C3.78223 18.8965 4.77539 19.8809 6.67383 19.8809ZM9.62695 15.8115C9.08203 15.8115 8.76562 15.4512 8.76562 14.8271V8.3584C8.76562 7.73438 9.08203 7.37402 9.62695 7.37402C10.1982 7.37402 10.5146 7.73438 10.5146 8.3584V11.1709H10.5762L13.8193 7.74316C14.0654 7.47949 14.2588 7.37402 14.54 7.37402C14.9883 7.37402 15.3486 7.69043 15.3486 8.10352C15.3486 8.34961 15.2783 8.5166 15.085 8.72754L12.8174 11.1094L15.2871 14.3525C15.4365 14.5723 15.5244 14.7744 15.5244 14.9941C15.5244 15.4688 15.1641 15.8115 14.6719 15.8115C14.3643 15.8115 14.1357 15.6797 13.9072 15.3721L11.5342 12.208L10.5146 13.2803V14.8447C10.5146 15.46 10.1895 15.8115 9.62695 15.8115Z" fill="#1C1C1E"/>
</g>
<defs>
<clipPath id="clip0_10_2013">
<rect width="24" height="24" fill="white"/>
</clipPath>
</defs>
</svg>
