<svg width="24" height="24" viewBox="0 0 24 24" fill="none" xmlns="http://www.w3.org/2000/svg">
<g clip-path="url(#clip0_10_2247)">
<path d="M6.67383 19.8809H17.3174C19.2246 19.8809 20.209 18.8965 20.209 17.0156V6.31934C20.209 4.43848 19.2246 3.4541 17.3174 3.4541H6.67383C4.77539 3.4541 3.78223 4.42969 3.78223 6.31934V17.0156C3.78223 18.8965 4.77539 19.8809 6.67383 19.8809ZM8.41406 11.6807C8.41406 11.4258 8.59863 11.25 8.83594 11.25H9.41602V8.15625C9.41602 7.70801 9.69727 7.43555 10.1279 7.43555C10.5498 7.43555 10.8398 7.70801 10.8398 8.15625V11.2412H11.1738L13.8809 7.77832C14.0566 7.53223 14.2676 7.42676 14.4697 7.42676C14.8564 7.42676 15.1377 7.69922 15.1377 8.05957C15.1377 8.19141 15.0762 8.36719 14.9707 8.50781L12.7559 11.25H14.9443C15.1992 11.25 15.3662 11.4258 15.3662 11.6807C15.3662 11.918 15.1992 12.1113 14.9443 12.1113H12.7471L14.9707 14.9238C15.085 15.082 15.1553 15.2666 15.1553 15.4248C15.1553 15.7939 14.8652 16.0752 14.4697 16.0752C14.25 16.0752 14.0303 15.9521 13.8633 15.7061L11.1914 12.1553H10.8398V15.3369C10.8398 15.7939 10.5498 16.0752 10.1279 16.0752C9.70605 16.0752 9.41602 15.7939 9.41602 15.3369V12.1113H8.83594C8.59863 12.1113 8.41406 11.918 8.41406 11.6807Z" fill="#1C1C1E"/>
</g>
<defs>
<clipPath id="clip0_10_2247">
<rect width="24" height="24" fill="white"/>
</clipPath>
</defs>
</svg>
