<svg width="24" height="24" viewBox="0 0 24 24" fill="none" xmlns="http://www.w3.org/2000/svg">
<g clip-path="url(#clip0_10_2011)">
<path d="M11.9912 20.7422C16.9746 20.7422 21.0879 16.6289 21.0879 11.6543C21.0879 6.67969 16.9658 2.56641 11.9824 2.56641C7.00781 2.56641 2.90332 6.67969 2.90332 11.6543C2.90332 16.6289 7.0166 20.7422 11.9912 20.7422ZM11.9912 18.9316C7.95703 18.9316 4.73145 15.6885 4.73145 11.6543C4.73145 7.62012 7.95703 4.38574 11.9824 4.38574C16.0166 4.38574 19.2598 7.62012 19.2686 11.6543C19.2773 15.6885 16.0254 18.9316 11.9912 18.9316ZM10.3916 15.5742H14.2939C14.7246 15.5742 15.0234 15.3018 15.0234 14.8623C15.0234 14.4229 14.7246 14.1592 14.2939 14.1592H11.2705V8.49023C11.2705 7.88379 10.9541 7.51465 10.3916 7.51465C9.82031 7.51465 9.52148 7.89258 9.52148 8.49023V14.5898C9.52148 15.1875 9.8291 15.5742 10.3916 15.5742Z" fill="#1C1C1E"/>
</g>
<defs>
<clipPath id="clip0_10_2011">
<rect width="24" height="24" fill="white"/>
</clipPath>
</defs>
</svg>
