<svg width="24" height="24" viewBox="0 0 24 24" fill="none" xmlns="http://www.w3.org/2000/svg">
<g clip-path="url(#clip0_10_1975)">
<path d="M6.67383 19.8809H17.3174C19.2246 19.8809 20.209 18.8965 20.209 17.0156V6.31934C20.209 4.43848 19.2246 3.4541 17.3174 3.4541H6.67383C4.77539 3.4541 3.78223 4.42969 3.78223 6.31934V17.0156C3.78223 18.8965 4.77539 19.8809 6.67383 19.8809ZM10.3564 15.7236C9.76758 15.7236 9.44238 15.3105 9.44238 14.6865V8.36719C9.44238 7.74316 9.76758 7.33008 10.3564 7.33008C10.9541 7.33008 11.2881 7.72559 11.2881 8.36719V14.2383H14.4082C14.874 14.2383 15.1904 14.5107 15.1904 14.9766C15.1904 15.4424 14.874 15.7236 14.4082 15.7236H10.3564Z" fill="#1C1C1E"/>
</g>
<defs>
<clipPath id="clip0_10_1975">
<rect width="24" height="24" fill="white"/>
</clipPath>
</defs>
</svg>
