<svg width="24" height="24" viewBox="0 0 24 24" fill="none" xmlns="http://www.w3.org/2000/svg">
<g clip-path="url(#clip0_10_1991)">
<path d="M6.67383 19.8809H17.3174C19.2246 19.8809 20.209 18.8965 20.209 17.0156V6.31934C20.209 4.43848 19.2246 3.4541 17.3174 3.4541H6.67383C4.77539 3.4541 3.78223 4.42969 3.78223 6.31934V17.0156C3.78223 18.8965 4.77539 19.8809 6.67383 19.8809ZM6.78809 18.1318C5.97949 18.1318 5.53125 17.71 5.53125 16.8574V6.47754C5.53125 5.625 5.97949 5.20312 6.78809 5.20312H17.2031C18.0029 5.20312 18.46 5.625 18.46 6.47754V16.8574C18.46 17.71 18.0029 18.1318 17.2031 18.1318H6.78809ZM10.4004 15.5654H14.3027C14.7422 15.5654 15.041 15.3018 15.041 14.8623C15.041 14.4141 14.7422 14.1592 14.3027 14.1592H11.2881V8.48145C11.2881 7.875 10.9717 7.50586 10.4004 7.50586C9.83789 7.50586 9.53027 7.89258 9.53027 8.48145V14.5811C9.53027 15.1787 9.83789 15.5654 10.4004 15.5654Z" fill="#1C1C1E"/>
</g>
<defs>
<clipPath id="clip0_10_1991">
<rect width="24" height="24" fill="white"/>
</clipPath>
</defs>
</svg>
