<svg width="24" height="24" viewBox="0 0 24 24" fill="none" xmlns="http://www.w3.org/2000/svg">
<g clip-path="url(#clip0_10_2233)">
<path d="M11.9912 20.7422C16.9746 20.7422 21.0879 16.6289 21.0879 11.6543C21.0879 6.67969 16.9658 2.56641 11.9824 2.56641C7.00781 2.56641 2.90332 6.67969 2.90332 11.6543C2.90332 16.6289 7.0166 20.7422 11.9912 20.7422ZM11.9912 18.9316C7.95703 18.9316 4.73145 15.6885 4.73145 11.6543C4.73145 7.62012 7.95703 4.38574 11.9824 4.38574C16.0166 4.38574 19.2598 7.62012 19.2686 11.6543C19.2773 15.6885 16.0254 18.9316 11.9912 18.9316ZM9.11719 15.7588H14.4434C14.8037 15.7588 15.041 15.5215 15.041 15.1787C15.041 14.8447 14.7949 14.6074 14.4434 14.6074H13.0723C11.2793 14.6074 9.87305 13.2803 9.87305 11.5137C9.87305 10.4062 10.2334 9.63281 10.875 9.21973V11.2588C10.875 11.5049 11.0508 11.6719 11.2881 11.6719C11.5254 11.6719 11.6924 11.5049 11.6924 11.2588V8.92969C11.833 8.90332 11.9736 8.89453 12.0967 8.89453C12.2197 8.89453 12.334 8.91211 12.4395 8.9209V11.2588C12.4395 11.5049 12.6152 11.6719 12.8438 11.6719C13.0811 11.6719 13.2568 11.5049 13.2568 11.2588V9.24609C13.8193 9.63281 14.1709 10.3008 14.1973 11.1357C14.2148 11.5137 14.4521 11.7598 14.8301 11.7598C15.1992 11.7598 15.4453 11.4961 15.4453 11.1182C15.4453 9.7207 14.6279 8.37598 13.2568 7.90137V7.12793C13.2568 6.89062 13.0811 6.72363 12.8438 6.72363C12.6152 6.72363 12.4395 6.89062 12.4395 7.12793V7.7168C12.334 7.69922 12.2109 7.69922 12.1055 7.69922C11.9736 7.69922 11.833 7.70801 11.6924 7.7168V7.12793C11.6924 6.89062 11.5254 6.72363 11.2881 6.72363C11.0508 6.72363 10.875 6.89062 10.875 7.12793V7.875C9.45117 8.34961 8.58105 9.6416 8.58105 11.3379C8.58105 12.7617 9.23145 13.9746 10.2158 14.625H9.12598C8.7832 14.625 8.53711 14.8623 8.53711 15.1875C8.53711 15.5303 8.76562 15.7588 9.11719 15.7588Z" fill="#1C1C1E"/>
</g>
<defs>
<clipPath id="clip0_10_2233">
<rect width="24" height="24" fill="white"/>
</clipPath>
</defs>
</svg>
