<svg width="24" height="24" viewBox="0 0 24 24" fill="none" xmlns="http://www.w3.org/2000/svg">
<g clip-path="url(#clip0_10_2231)">
<path d="M11.9912 20.7422C16.9746 20.7422 21.0879 16.6289 21.0879 11.6543C21.0879 6.67969 16.9658 2.56641 11.9824 2.56641C7.00781 2.56641 2.90332 6.67969 2.90332 11.6543C2.90332 16.6289 7.0166 20.7422 11.9912 20.7422ZM9.00293 15.9082C8.63379 15.9082 8.3877 15.6709 8.3877 15.3193C8.3877 14.9766 8.65137 14.7305 9.01172 14.7305H10.1279C9.11719 14.0449 8.43164 12.7881 8.43164 11.3115C8.43164 9.55371 9.3457 8.2002 10.8311 7.70801V6.94336C10.8311 6.68848 11.0068 6.5127 11.2617 6.5127C11.499 6.5127 11.6836 6.68848 11.6836 6.94336V7.5498C11.8242 7.54102 11.9736 7.53223 12.1055 7.53223C12.2197 7.53223 12.3428 7.53223 12.457 7.54102V6.94336C12.457 6.68848 12.6328 6.5127 12.8789 6.5127C13.125 6.5127 13.3008 6.68848 13.3008 6.94336V7.73438C14.7422 8.22656 15.5859 9.63281 15.5947 11.0918C15.5947 11.4785 15.3398 11.7598 14.9443 11.7598C14.54 11.7598 14.2939 11.4961 14.2764 11.1094C14.25 10.2393 13.8896 9.54492 13.3008 9.14062V11.2412C13.3008 11.4873 13.125 11.6631 12.8789 11.6631C12.6328 11.6631 12.457 11.4873 12.457 11.2412V8.81543C12.3516 8.79785 12.2285 8.78027 12.0967 8.78027C11.9736 8.78027 11.8242 8.79785 11.6836 8.81543V11.2412C11.6836 11.4873 11.5078 11.6631 11.2617 11.6631C11.0156 11.6631 10.8311 11.4873 10.8311 11.2412V9.12305C10.1631 9.55371 9.79395 10.3535 9.79395 11.4961C9.79395 13.333 11.2529 14.7129 13.1074 14.7129H14.54C14.9092 14.7129 15.1729 14.959 15.1729 15.3105C15.1729 15.6621 14.918 15.9082 14.54 15.9082H9.00293Z" fill="#1C1C1E"/>
</g>
<defs>
<clipPath id="clip0_10_2231">
<rect width="24" height="24" fill="white"/>
</clipPath>
</defs>
</svg>
