<svg width="24" height="24" viewBox="0 0 24 24" fill="none" xmlns="http://www.w3.org/2000/svg">
<g clip-path="url(#clip0_10_2066)">
<path d="M11.9912 20.7422C16.9746 20.7422 21.0879 16.6289 21.0879 11.6543C21.0879 6.67969 16.9658 2.56641 11.9824 2.56641C7.00781 2.56641 2.90332 6.67969 2.90332 11.6543C2.90332 16.6289 7.0166 20.7422 11.9912 20.7422ZM8.61621 15.2139C8.61621 14.8799 8.79199 14.6689 9.13477 14.5283C9.68848 14.3525 10.1455 13.8779 10.2246 13.1748C10.2422 13.0781 10.2422 12.9814 10.2422 12.8848H9.09082C8.80957 12.8848 8.60742 12.7002 8.60742 12.4277C8.60742 12.1465 8.80957 11.9619 9.09082 11.9619H10.1279C10.0752 11.7158 9.99609 11.4609 9.93457 11.2061H9.09082C8.80957 11.2061 8.60742 11.0215 8.60742 10.749C8.60742 10.4678 8.80957 10.2832 9.09082 10.2832H9.78516C9.77637 10.1953 9.76758 10.1162 9.76758 10.0283C9.76758 8.36719 10.9189 7.29492 12.8438 7.29492C13.4854 7.29492 14.0215 7.36523 14.4434 7.5498C14.751 7.69922 14.8828 7.90137 14.8828 8.16504C14.8828 8.50781 14.6631 8.70996 14.2939 8.70117C13.9688 8.6748 13.626 8.52539 12.9756 8.52539C11.8418 8.52539 11.2002 9.14062 11.2002 10.0283C11.2002 10.1162 11.2002 10.2129 11.209 10.2832H13.7139C13.9863 10.2832 14.1885 10.4678 14.1885 10.749C14.1885 11.0215 13.9863 11.2061 13.7139 11.2061H11.376C11.4375 11.4521 11.499 11.6982 11.5605 11.9619H13.7139C13.9863 11.9619 14.1885 12.1465 14.1885 12.4277C14.1885 12.7002 13.9863 12.8848 13.7139 12.8848H11.6309C11.6309 13.0166 11.6221 13.1396 11.6045 13.2715C11.5166 13.7988 11.2793 14.291 10.9189 14.5811H14.5664C14.9443 14.5811 15.2168 14.8359 15.2168 15.2051C15.2168 15.5918 14.9443 15.8291 14.5664 15.8291H9.24902C8.87988 15.8291 8.61621 15.5918 8.61621 15.2139Z" fill="#1C1C1E"/>
</g>
<defs>
<clipPath id="clip0_10_2066">
<rect width="24" height="24" fill="white"/>
</clipPath>
</defs>
</svg>
