<svg width="24" height="24" viewBox="0 0 24 24" fill="none" xmlns="http://www.w3.org/2000/svg">
<g clip-path="url(#clip0_10_2265)">
<path d="M6.67383 19.8809H17.3174C19.2246 19.8809 20.209 18.8965 20.209 17.0156V6.31934C20.209 4.43848 19.2246 3.4541 17.3174 3.4541H6.67383C4.77539 3.4541 3.78223 4.42969 3.78223 6.31934V17.0156C3.78223 18.8965 4.77539 19.8809 6.67383 19.8809ZM6.78809 18.1318C5.97949 18.1318 5.53125 17.71 5.53125 16.8574V6.47754C5.53125 5.625 5.97949 5.20312 6.78809 5.20312H17.2031C18.0029 5.20312 18.46 5.625 18.46 6.47754V16.8574C18.46 17.71 18.0029 18.1318 17.2031 18.1318H6.78809ZM8.77441 15.082C8.77441 15.4424 9.01172 15.6709 9.37207 15.6709H14.4873C14.8477 15.6709 15.1025 15.4336 15.1025 15.0732C15.1025 14.7217 14.8477 14.4844 14.4873 14.4844H10.9717C11.3057 14.2031 11.543 13.7285 11.6221 13.21C11.6396 13.0869 11.6484 12.9639 11.6572 12.8408H13.6611C13.9248 12.8408 14.1182 12.665 14.1182 12.4014C14.1182 12.1377 13.9248 11.9531 13.6611 11.9531H11.5869C11.5254 11.6982 11.4639 11.4609 11.4023 11.2236H13.6611C13.9248 11.2236 14.1182 11.0479 14.1182 10.7754C14.1182 10.5117 13.9248 10.3359 13.6611 10.3359H11.2529C11.2441 10.2656 11.2354 10.1689 11.2354 10.0898C11.2354 9.22852 11.8594 8.63965 12.9492 8.63965C13.5732 8.63965 13.9072 8.78027 14.2236 8.80664C14.5664 8.82422 14.7773 8.62207 14.7773 8.29688C14.7773 8.04199 14.6543 7.84863 14.3555 7.7168C13.9512 7.53223 13.4414 7.46191 12.8262 7.46191C10.9805 7.46191 9.87305 8.49902 9.87305 10.0898C9.87305 10.1777 9.88184 10.2568 9.89062 10.3359H9.22266C8.9502 10.3359 8.76562 10.5117 8.76562 10.7754C8.76562 11.0479 8.95898 11.2236 9.22266 11.2236H10.04C10.0928 11.4697 10.1631 11.7158 10.2158 11.9531H9.22266C8.9502 11.9531 8.76562 12.1377 8.76562 12.4014C8.76562 12.665 8.95898 12.8408 9.22266 12.8408H10.3301C10.3389 12.9375 10.3301 13.0166 10.3213 13.1221C10.2334 13.7988 9.79395 14.2559 9.2666 14.4316C8.93262 14.5635 8.77441 14.7656 8.77441 15.082Z" fill="#1C1C1E"/>
</g>
<defs>
<clipPath id="clip0_10_2265">
<rect width="24" height="24" fill="white"/>
</clipPath>
</defs>
</svg>
