<svg width="24" height="24" viewBox="0 0 24 24" fill="none" xmlns="http://www.w3.org/2000/svg">
<g clip-path="url(#clip0_10_2192)">
<path d="M11.9912 20.7422C16.9746 20.7422 21.0879 16.6289 21.0879 11.6543C21.0879 6.67969 16.9658 2.56641 11.9824 2.56641C7.00781 2.56641 2.90332 6.67969 2.90332 11.6543C2.90332 16.6289 7.0166 20.7422 11.9912 20.7422ZM11.9912 18.9316C7.95703 18.9316 4.73145 15.6885 4.73145 11.6543C4.73145 7.62012 7.95703 4.38574 11.9824 4.38574C16.0166 4.38574 19.2598 7.62012 19.2686 11.6543C19.2773 15.6885 16.0254 18.9316 11.9912 18.9316ZM8.65137 15.7236C9.09961 15.7236 9.36328 15.4336 9.36328 14.9326V10.1953H9.44238L11.2617 14.8711C11.3936 15.2227 11.6133 15.3809 11.9648 15.3809C12.334 15.3809 12.5625 15.2227 12.6943 14.8711L14.5225 10.1953H14.6016V14.9326C14.6016 15.4248 14.8652 15.7236 15.3047 15.7236C15.7529 15.7236 16.0254 15.4336 16.0254 14.9326V8.44629C16.0254 7.89258 15.6387 7.51465 15.0674 7.51465C14.5664 7.51465 14.25 7.74316 14.0742 8.20898L12.0176 13.5439H11.9648L9.89062 8.20898C9.71484 7.74316 9.39844 7.51465 8.89746 7.51465C8.33496 7.51465 7.93945 7.89258 7.93945 8.44629V14.9326C7.93945 15.4248 8.21191 15.7236 8.65137 15.7236Z" fill="#1C1C1E"/>
</g>
<defs>
<clipPath id="clip0_10_2192">
<rect width="24" height="24" fill="white"/>
</clipPath>
</defs>
</svg>
