<svg width="24" height="24" viewBox="0 0 24 24" fill="none" xmlns="http://www.w3.org/2000/svg">
<g clip-path="url(#clip0_10_1985)">
<path d="M11.9912 20.7422C16.9746 20.7422 21.0879 16.6289 21.0879 11.6543C21.0879 6.67969 16.9658 2.56641 11.9824 2.56641C7.00781 2.56641 2.90332 6.67969 2.90332 11.6543C2.90332 16.6289 7.0166 20.7422 11.9912 20.7422ZM8.51953 15.8906C8.05371 15.8906 7.77246 15.5742 7.77246 15.0557V8.31445C7.77246 7.73438 8.17676 7.33887 8.77441 7.33887C9.30176 7.33887 9.63574 7.57617 9.82031 8.06836L11.9648 13.5967H12.0176L14.1445 8.06836C14.3291 7.58496 14.6631 7.33887 15.1904 7.33887C15.7881 7.33887 16.1924 7.73438 16.1924 8.31445V15.0557C16.1924 15.583 15.9111 15.8906 15.4365 15.8906C14.9795 15.8906 14.6982 15.5742 14.6982 15.0557V10.1514H14.6191L12.7295 14.9941C12.5801 15.3545 12.3428 15.5303 11.9648 15.5303C11.5957 15.5303 11.3672 15.3545 11.2266 14.9941L9.3457 10.1514H9.2666V15.0557C9.2666 15.583 8.98535 15.8906 8.51953 15.8906Z" fill="#1C1C1E"/>
</g>
<defs>
<clipPath id="clip0_10_1985">
<rect width="24" height="24" fill="white"/>
</clipPath>
</defs>
</svg>
