<svg width="24" height="24" viewBox="0 0 24 24" fill="none" xmlns="http://www.w3.org/2000/svg">
<g clip-path="url(#clip0_10_1983)">
<path d="M6.67383 19.8809H17.3174C19.2246 19.8809 20.209 18.8965 20.209 17.0156V6.31934C20.209 4.43848 19.2246 3.4541 17.3174 3.4541H6.67383C4.77539 3.4541 3.78223 4.42969 3.78223 6.31934V17.0156C3.78223 18.8965 4.77539 19.8809 6.67383 19.8809ZM6.78809 18.1318C5.97949 18.1318 5.53125 17.71 5.53125 16.8574V6.47754C5.53125 5.625 5.97949 5.20312 6.78809 5.20312H17.2031C18.0029 5.20312 18.46 5.625 18.46 6.47754V16.8574C18.46 17.71 18.0029 18.1318 17.2031 18.1318H6.78809ZM8.66016 15.7236C9.11719 15.7236 9.38086 15.4248 9.38086 14.9326V10.1865H9.45117L11.2705 14.8623C11.4023 15.2139 11.6309 15.3809 11.9824 15.3809C12.3428 15.3809 12.5713 15.2139 12.7119 14.8711L14.54 10.1865H14.6191V14.9326C14.6191 15.4248 14.8828 15.7236 15.3223 15.7236C15.7705 15.7236 16.043 15.4248 16.043 14.9326V8.4375C16.043 7.88379 15.6475 7.50586 15.085 7.50586C14.584 7.50586 14.2588 7.73438 14.0918 8.20898L12.0264 13.5352H11.9824L9.9082 8.20898C9.73242 7.73438 9.40723 7.50586 8.91504 7.50586C8.34375 7.50586 7.95703 7.88379 7.95703 8.4375V14.9326C7.95703 15.4248 8.2207 15.7236 8.66016 15.7236Z" fill="#1C1C1E"/>
</g>
<defs>
<clipPath id="clip0_10_1983">
<rect width="24" height="24" fill="white"/>
</clipPath>
</defs>
</svg>
