<svg width="24" height="24" viewBox="0 0 24 24" fill="none" xmlns="http://www.w3.org/2000/svg">
<g clip-path="url(#clip0_10_1945)">
<path d="M6.67383 19.8809H17.3174C19.2246 19.8809 20.209 18.8965 20.209 17.0156V6.31934C20.209 4.43848 19.2246 3.4541 17.3174 3.4541H6.67383C4.77539 3.4541 3.78223 4.42969 3.78223 6.31934V17.0156C3.78223 18.8965 4.77539 19.8809 6.67383 19.8809ZM8.55469 15.8906C8.08887 15.8906 7.80762 15.5742 7.80762 15.0557V8.31445C7.80762 7.73438 8.21191 7.33887 8.80957 7.33887C9.33691 7.33887 9.6709 7.57617 9.85547 8.06836L12 13.5967H12.0527L14.1797 8.06836C14.3643 7.58496 14.6982 7.33887 15.2256 7.33887C15.8232 7.33887 16.2275 7.73438 16.2275 8.31445V15.0557C16.2275 15.583 15.9463 15.8906 15.4717 15.8906C15.0146 15.8906 14.7334 15.5742 14.7334 15.0557V10.1514H14.6543L12.7646 14.9941C12.6152 15.3545 12.3779 15.5303 12.0088 15.5303C11.6309 15.5303 11.4023 15.3545 11.2617 14.9941L9.38086 10.1514H9.30176V15.0557C9.30176 15.583 9.02051 15.8906 8.55469 15.8906Z" fill="#1C1C1E"/>
</g>
<defs>
<clipPath id="clip0_10_1945">
<rect width="24" height="24" fill="white"/>
</clipPath>
</defs>
</svg>
