<svg width="24" height="24" viewBox="0 0 24 24" fill="none" xmlns="http://www.w3.org/2000/svg">
<g clip-path="url(#clip0_10_1978)">
<path d="M6.67383 19.8809H17.3174C19.2246 19.8809 20.209 18.8965 20.209 17.0156V6.31934C20.209 4.43848 19.2246 3.4541 17.3174 3.4541H6.67383C4.77539 3.4541 3.78223 4.42969 3.78223 6.31934V17.0156C3.78223 18.8965 4.77539 19.8809 6.67383 19.8809ZM6.78809 18.1318C5.97949 18.1318 5.53125 17.71 5.53125 16.8574V6.47754C5.53125 5.625 5.97949 5.20312 6.78809 5.20312H17.2031C18.0029 5.20312 18.46 5.625 18.46 6.47754V16.8574C18.46 17.71 18.0029 18.1318 17.2031 18.1318H6.78809ZM8.79199 14.9414C8.79199 15.3721 9.08203 15.627 9.48633 15.627C9.88184 15.627 10.1543 15.3721 10.1543 14.9414V12.3223C10.1543 10.8457 10.6553 9.98438 11.5078 9.75586V15.1172C11.5078 15.4248 11.71 15.6182 12 15.6182C12.2637 15.6182 12.4834 15.4248 12.4834 15.1172V9.74707C13.3447 9.95801 13.8633 10.8193 13.8633 12.3223V14.9414C13.8633 15.3721 14.1357 15.627 14.54 15.627C14.9443 15.627 15.208 15.3721 15.208 14.9414V12.2871C15.208 10.0107 14.1445 8.68359 12.4834 8.48145V7.61133C12.4834 7.29492 12.2637 7.11914 12 7.11914C11.71 7.11914 11.5078 7.29492 11.5078 7.61133V8.49023C9.85547 8.69238 8.79199 10.0195 8.79199 12.2871V14.9414Z" fill="#1C1C1E"/>
</g>
<defs>
<clipPath id="clip0_10_1978">
<rect width="24" height="24" fill="white"/>
</clipPath>
</defs>
</svg>
