<svg width="24" height="24" viewBox="0 0 24 24" fill="none" xmlns="http://www.w3.org/2000/svg">
<g clip-path="url(#clip0_10_1998)">
<path d="M11.9912 20.7422C16.9746 20.7422 21.0879 16.6289 21.0879 11.6543C21.0879 6.67969 16.9658 2.56641 11.9824 2.56641C7.00781 2.56641 2.90332 6.67969 2.90332 11.6543C2.90332 16.6289 7.0166 20.7422 11.9912 20.7422ZM11.9912 18.9316C7.95703 18.9316 4.73145 15.6885 4.73145 11.6543C4.73145 7.62012 7.95703 4.38574 11.9824 4.38574C16.0166 4.38574 19.2598 7.62012 19.2686 11.6543C19.2773 15.6885 16.0254 18.9316 11.9912 18.9316ZM8.61621 14.2207C8.61621 14.5723 8.87109 14.8184 9.23145 14.8184C9.5918 14.8184 9.83789 14.5723 9.83789 14.2119V10.8809C9.83789 10.292 10.1455 9.89648 10.6465 9.89648C11.0947 9.89648 11.4023 10.248 11.4023 10.7666V11.3115L9.63574 16.0488C9.60938 16.1191 9.5918 16.1982 9.5918 16.2773C9.5918 16.4971 9.75879 16.6553 9.9873 16.6553C10.1719 16.6553 10.3125 16.5586 10.3828 16.3652L11.4111 13.5967V14.2383C11.4111 14.5898 11.6572 14.8184 12 14.8184C12.3428 14.8184 12.5977 14.5723 12.5977 14.2119V10.8457C12.5977 10.2744 12.8965 9.89648 13.3887 9.89648C13.8721 9.89648 14.1533 10.2568 14.1533 10.8105V14.2119C14.1533 14.5723 14.4082 14.8184 14.7686 14.8184C15.1201 14.8184 15.375 14.5723 15.375 14.2119V10.626C15.375 9.49219 14.7246 8.79785 13.7314 8.79785C13.5732 8.79785 13.4414 8.82422 13.3271 8.86816L14.0039 7.25098C14.0303 7.18945 14.0479 7.11035 14.0479 7.03125C14.0479 6.81152 13.8721 6.65332 13.6436 6.65332C13.4678 6.65332 13.3359 6.75879 13.2568 6.94336L12.1934 9.50977C11.9385 9 11.499 8.7627 10.9541 8.7627C10.4707 8.7627 10.04 9 9.79395 9.50098V9.4043C9.79395 9.00879 9.54785 8.78906 9.20508 8.78906C8.85352 8.78906 8.61621 9.04395 8.61621 9.4043V14.2207Z" fill="#1C1C1E"/>
</g>
<defs>
<clipPath id="clip0_10_1998">
<rect width="24" height="24" fill="white"/>
</clipPath>
</defs>
</svg>
