<svg width="24" height="24" viewBox="0 0 24 24" fill="none" xmlns="http://www.w3.org/2000/svg">
<g clip-path="url(#clip0_10_1977)">
<path d="M11.9912 20.7422C16.9746 20.7422 21.0879 16.6289 21.0879 11.6543C21.0879 6.67969 16.9658 2.56641 11.9824 2.56641C7.00781 2.56641 2.90332 6.67969 2.90332 11.6543C2.90332 16.6289 7.0166 20.7422 11.9912 20.7422ZM9.30176 15.8467C8.79199 15.8467 8.49316 15.5127 8.49316 14.9766V8.2002C8.49316 7.67285 8.79199 7.33887 9.29297 7.33887C9.64453 7.33887 9.86426 7.46191 10.1543 7.85742L13.7842 12.9902H13.8633V8.20898C13.8633 7.67285 14.1533 7.33887 14.6543 7.33887C15.1729 7.33887 15.4717 7.65527 15.4717 8.20898V15.0029C15.4717 15.5303 15.1641 15.8467 14.6719 15.8467C14.3203 15.8467 14.1094 15.7236 13.8369 15.3457L10.1719 10.2305H10.1016V14.9766C10.1016 15.5215 9.80273 15.8467 9.30176 15.8467Z" fill="#1C1C1E"/>
</g>
<defs>
<clipPath id="clip0_10_1977">
<rect width="24" height="24" fill="white"/>
</clipPath>
</defs>
</svg>
