<svg width="24" height="24" viewBox="0 0 24 24" fill="none" xmlns="http://www.w3.org/2000/svg">
<g clip-path="url(#clip0_10_2189)">
<path d="M11.9912 20.7422C16.9746 20.7422 21.0879 16.6289 21.0879 11.6543C21.0879 6.67969 16.9658 2.56641 11.9824 2.56641C7.00781 2.56641 2.90332 6.67969 2.90332 11.6543C2.90332 16.6289 7.0166 20.7422 11.9912 20.7422ZM11.9912 18.9316C7.95703 18.9316 4.73145 15.6885 4.73145 11.6543C4.73145 7.62012 7.95703 4.38574 11.9824 4.38574C16.0166 4.38574 19.2598 7.62012 19.2686 11.6543C19.2773 15.6885 16.0254 18.9316 11.9912 18.9316ZM9.39844 15.6797C9.88184 15.6797 10.1719 15.3809 10.1719 14.8535V10.2656H10.2334L13.7666 15.2051C14.0303 15.5742 14.2324 15.6797 14.5664 15.6797C15.041 15.6797 15.3311 15.3809 15.3311 14.8799V8.34082C15.3311 7.81348 15.041 7.51465 14.5576 7.51465C14.0742 7.51465 13.793 7.83105 13.793 8.34082V12.9727H13.7314L10.2158 7.99805C9.94336 7.62012 9.73242 7.51465 9.39844 7.51465C8.92383 7.51465 8.63379 7.83105 8.63379 8.34082V14.8535C8.63379 15.3633 8.91504 15.6797 9.39844 15.6797Z" fill="#1C1C1E"/>
</g>
<defs>
<clipPath id="clip0_10_2189">
<rect width="24" height="24" fill="white"/>
</clipPath>
</defs>
</svg>
