<svg width="24" height="24" viewBox="0 0 24 24" fill="none" xmlns="http://www.w3.org/2000/svg">
<g clip-path="url(#clip0_10_1959)">
<path d="M6.67383 19.8809H17.3174C19.2246 19.8809 20.209 18.8965 20.209 17.0156V6.31934C20.209 4.43848 19.2246 3.4541 17.3174 3.4541H6.67383C4.77539 3.4541 3.78223 4.42969 3.78223 6.31934V17.0156C3.78223 18.8965 4.77539 19.8809 6.67383 19.8809ZM9.33691 15.8467C8.82715 15.8467 8.53711 15.5127 8.53711 14.9766V8.2002C8.53711 7.67285 8.83594 7.33887 9.32812 7.33887C9.68848 7.33887 9.89941 7.46191 10.1895 7.85742L13.8193 12.9902H13.8984V8.20898C13.8984 7.67285 14.1885 7.33887 14.6895 7.33887C15.208 7.33887 15.5068 7.65527 15.5068 8.20898V15.0029C15.5068 15.5303 15.1992 15.8467 14.707 15.8467C14.3555 15.8467 14.1445 15.7236 13.8721 15.3457L10.207 10.2305H10.1367V14.9766C10.1367 15.5215 9.83789 15.8467 9.33691 15.8467Z" fill="#1C1C1E"/>
</g>
<defs>
<clipPath id="clip0_10_1959">
<rect width="24" height="24" fill="white"/>
</clipPath>
</defs>
</svg>
