<svg width="24" height="24" viewBox="0 0 24 24" fill="none" xmlns="http://www.w3.org/2000/svg">
<g clip-path="url(#clip0_10_1961)">
<path d="M6.67383 19.8809H17.3174C19.2246 19.8809 20.209 18.8965 20.209 17.0156V6.31934C20.209 4.43848 19.2246 3.4541 17.3174 3.4541H6.67383C4.77539 3.4541 3.78223 4.42969 3.78223 6.31934V17.0156C3.78223 18.8965 4.77539 19.8809 6.67383 19.8809ZM6.78809 18.1318C5.97949 18.1318 5.53125 17.71 5.53125 16.8574V6.47754C5.53125 5.625 5.97949 5.20312 6.78809 5.20312H17.2031C18.0029 5.20312 18.46 5.625 18.46 6.47754V16.8574C18.46 17.71 18.0029 18.1318 17.2031 18.1318H6.78809ZM9.41602 15.6797C9.89941 15.6797 10.1895 15.3721 10.1895 14.8535V10.2656H10.2422L13.7842 15.1963C14.0479 15.5654 14.25 15.6797 14.584 15.6797C15.0586 15.6797 15.3486 15.3809 15.3486 14.8799V8.33203C15.3486 7.81348 15.0586 7.50586 14.5664 7.50586C14.0918 7.50586 13.8105 7.82227 13.8105 8.33203V12.9639H13.749L10.2334 7.99805C9.95215 7.62012 9.75 7.50586 9.41602 7.50586C8.94141 7.50586 8.65137 7.82227 8.65137 8.33203V14.8535C8.65137 15.3633 8.93262 15.6797 9.41602 15.6797Z" fill="#1C1C1E"/>
</g>
<defs>
<clipPath id="clip0_10_1961">
<rect width="24" height="24" fill="white"/>
</clipPath>
</defs>
</svg>
