<svg width="24" height="24" viewBox="0 0 24 24" fill="none" xmlns="http://www.w3.org/2000/svg">
<g clip-path="url(#clip0_10_2038)">
<path d="M6.67383 19.8809H17.3174C19.2246 19.8809 20.209 18.8965 20.209 17.0156V6.31934C20.209 4.43848 19.2246 3.4541 17.3174 3.4541H6.67383C4.77539 3.4541 3.78223 4.42969 3.78223 6.31934V17.0156C3.78223 18.8965 4.77539 19.8809 6.67383 19.8809ZM8.17676 11.7598C8.17676 11.5049 8.37012 11.3291 8.60742 11.3291H9.09961V8.28809C9.09961 7.77832 9.45117 7.43555 9.97852 7.43555C10.4268 7.43555 10.7168 7.67285 10.9014 8.06836L12.4746 11.3291H13.5557V8.13867C13.5557 7.70801 13.8281 7.43555 14.2412 7.43555C14.6455 7.43555 14.918 7.70801 14.918 8.13867V11.3291H15.4277C15.6738 11.3291 15.8584 11.5137 15.8584 11.7686C15.8584 12.0059 15.6738 12.1992 15.4277 12.1992H14.918V15.2314C14.918 15.7412 14.5664 16.084 14.0391 16.084C13.582 16.084 13.292 15.8467 13.1162 15.4424L11.543 12.1904H10.4531V15.3809C10.4531 15.8115 10.1895 16.0752 9.77637 16.0752C9.36328 16.0752 9.09961 15.8115 9.09961 15.3809V12.1904H8.60742C8.36133 12.1904 8.17676 11.9971 8.17676 11.7598ZM10.4443 11.3291H11.1914L10.4443 9.72949V11.3291ZM12.8262 12.1992L13.5645 13.79V12.1992H12.8262Z" fill="#1C1C1E"/>
</g>
<defs>
<clipPath id="clip0_10_2038">
<rect width="24" height="24" fill="white"/>
</clipPath>
</defs>
</svg>
