<svg width="24" height="24" viewBox="0 0 24 24" fill="none" xmlns="http://www.w3.org/2000/svg">
<g clip-path="url(#clip0_10_1971)">
<path d="M11.9912 20.7422C16.9746 20.7422 21.0879 16.6289 21.0879 11.6543C21.0879 6.67969 16.9658 2.56641 11.9824 2.56641C7.00781 2.56641 2.90332 6.67969 2.90332 11.6543C2.90332 16.6289 7.0166 20.7422 11.9912 20.7422ZM11.9912 15.9258C9.65332 15.9258 8.00098 14.1943 8.00098 11.5928C8.00098 8.99121 9.65332 7.25977 11.9912 7.25977C14.3203 7.25977 15.9814 8.99121 15.9814 11.5928C15.9814 14.1943 14.3203 15.9258 11.9912 15.9258ZM11.9912 14.5195C13.3184 14.5195 14.1973 13.3857 14.1973 11.5928C14.1973 9.7998 13.3184 8.66602 11.9912 8.66602C10.6641 8.66602 9.77637 9.7998 9.77637 11.5928C9.77637 13.3857 10.6641 14.5195 11.9912 14.5195Z" fill="#1C1C1E"/>
</g>
<defs>
<clipPath id="clip0_10_1971">
<rect width="24" height="24" fill="white"/>
</clipPath>
</defs>
</svg>
