<svg width="24" height="24" viewBox="0 0 24 24" fill="none" xmlns="http://www.w3.org/2000/svg">
<g clip-path="url(#clip0_10_1973)">
<path d="M11.9912 20.7422C16.9746 20.7422 21.0879 16.6289 21.0879 11.6543C21.0879 6.67969 16.9658 2.56641 11.9824 2.56641C7.00781 2.56641 2.90332 6.67969 2.90332 11.6543C2.90332 16.6289 7.0166 20.7422 11.9912 20.7422ZM11.9912 18.9316C7.95703 18.9316 4.73145 15.6885 4.73145 11.6543C4.73145 7.62012 7.95703 4.38574 11.9824 4.38574C16.0166 4.38574 19.2598 7.62012 19.2686 11.6543C19.2773 15.6885 16.0254 18.9316 11.9912 18.9316ZM11.9912 15.7676C14.2324 15.7676 15.8145 14.0889 15.8145 11.6016C15.8145 9.10547 14.2324 7.42676 11.9912 7.42676C9.74121 7.42676 8.15918 9.10547 8.15918 11.6016C8.15918 14.0889 9.74121 15.7676 11.9912 15.7676ZM11.9912 14.4229C10.708 14.4229 9.84668 13.333 9.84668 11.6016C9.84668 9.86133 10.708 8.77148 11.9912 8.77148C13.2656 8.77148 14.127 9.86133 14.127 11.6016C14.127 13.333 13.2656 14.4229 11.9912 14.4229Z" fill="#1C1C1E"/>
</g>
<defs>
<clipPath id="clip0_10_1973">
<rect width="24" height="24" fill="white"/>
</clipPath>
</defs>
</svg>
