<svg width="24" height="24" viewBox="0 0 24 24" fill="none" xmlns="http://www.w3.org/2000/svg">
<g clip-path="url(#clip0_10_1979)">
<path d="M6.67383 19.8809H17.3174C19.2246 19.8809 20.209 18.8965 20.209 17.0156V6.31934C20.209 4.43848 19.2246 3.4541 17.3174 3.4541H6.67383C4.77539 3.4541 3.78223 4.42969 3.78223 6.31934V17.0156C3.78223 18.8965 4.77539 19.8809 6.67383 19.8809ZM12.0264 15.9258C9.68848 15.9258 8.03613 14.1943 8.03613 11.5928C8.03613 8.99121 9.68848 7.25977 12.0264 7.25977C14.3555 7.25977 16.0166 8.99121 16.0166 11.5928C16.0166 14.1943 14.3555 15.9258 12.0264 15.9258ZM12.0264 14.5195C13.3535 14.5195 14.2324 13.3857 14.2324 11.5928C14.2324 9.7998 13.3535 8.66602 12.0264 8.66602C10.6992 8.66602 9.81152 9.7998 9.81152 11.5928C9.81152 13.3857 10.6992 14.5195 12.0264 14.5195Z" fill="#1C1C1E"/>
</g>
<defs>
<clipPath id="clip0_10_1979">
<rect width="24" height="24" fill="white"/>
</clipPath>
</defs>
</svg>
