<svg width="24" height="24" viewBox="0 0 24 24" fill="none" xmlns="http://www.w3.org/2000/svg">
<g clip-path="url(#clip0_10_1981)">
<path d="M6.67383 19.8809H17.3174C19.2246 19.8809 20.209 18.8965 20.209 17.0156V6.31934C20.209 4.43848 19.2246 3.4541 17.3174 3.4541H6.67383C4.77539 3.4541 3.78223 4.42969 3.78223 6.31934V17.0156C3.78223 18.8965 4.77539 19.8809 6.67383 19.8809ZM6.78809 18.1318C5.97949 18.1318 5.53125 17.71 5.53125 16.8574V6.47754C5.53125 5.625 5.97949 5.20312 6.78809 5.20312H17.2031C18.0029 5.20312 18.46 5.625 18.46 6.47754V16.8574C18.46 17.71 18.0029 18.1318 17.2031 18.1318H6.78809ZM12 15.7588C14.25 15.7588 15.832 14.0889 15.832 11.5928C15.832 9.09668 14.25 7.42676 12 7.42676C9.75879 7.42676 8.17676 9.09668 8.17676 11.5928C8.17676 14.0889 9.75879 15.7588 12 15.7588ZM12 14.4141C10.7168 14.4141 9.86426 13.3242 9.86426 11.5928C9.86426 9.85254 10.7168 8.77148 12 8.77148C13.2832 8.77148 14.1445 9.85254 14.1445 11.5928C14.1445 13.3242 13.2832 14.4141 12 14.4141Z" fill="#1C1C1E"/>
</g>
<defs>
<clipPath id="clip0_10_1981">
<rect width="24" height="24" fill="white"/>
</clipPath>
</defs>
</svg>
