<svg width="24" height="24" viewBox="0 0 24 24" fill="none" xmlns="http://www.w3.org/2000/svg">
<g clip-path="url(#clip0_10_1963)">
<path d="M11.9912 20.7422C16.9746 20.7422 21.0879 16.6289 21.0879 11.6543C21.0879 6.67969 16.9658 2.56641 11.9824 2.56641C7.00781 2.56641 2.90332 6.67969 2.90332 11.6543C2.90332 16.6289 7.0166 20.7422 11.9912 20.7422ZM10.0049 15.8467C9.43359 15.8467 9.12598 15.4512 9.12598 14.8447V8.47266C9.12598 7.84863 9.43359 7.45312 10.04 7.45312H12.5449C14.3555 7.45312 15.5596 8.60449 15.5596 10.3271C15.5596 12.0586 14.3555 13.2012 12.5273 13.2012H10.9102V14.8447C10.9102 15.46 10.585 15.8467 10.0049 15.8467ZM10.9102 11.874H12.29C13.2568 11.874 13.8369 11.2939 13.8369 10.3271C13.8369 9.36914 13.2568 8.78906 12.29 8.78906H10.9102V11.874Z" fill="#1C1C1E"/>
</g>
<defs>
<clipPath id="clip0_10_1963">
<rect width="24" height="24" fill="white"/>
</clipPath>
</defs>
</svg>
