<svg width="24" height="24" viewBox="0 0 24 24" fill="none" xmlns="http://www.w3.org/2000/svg">
<g clip-path="url(#clip0_10_1965)">
<path d="M11.9912 20.7422C16.9746 20.7422 21.0879 16.6289 21.0879 11.6543C21.0879 6.67969 16.9658 2.56641 11.9824 2.56641C7.00781 2.56641 2.90332 6.67969 2.90332 11.6543C2.90332 16.6289 7.0166 20.7422 11.9912 20.7422ZM11.9912 18.9316C7.95703 18.9316 4.73145 15.6885 4.73145 11.6543C4.73145 7.62012 7.95703 4.38574 11.9824 4.38574C16.0166 4.38574 19.2598 7.62012 19.2686 11.6543C19.2773 15.6885 16.0254 18.9316 11.9912 18.9316ZM10.084 15.6797C10.6289 15.6797 10.9365 15.3193 10.9365 14.7393V13.1309H12.5098C14.2588 13.1309 15.4189 12.041 15.4189 10.3799C15.4189 8.72754 14.2588 7.62012 12.5273 7.62012H10.1104C9.53906 7.62012 9.24023 7.98926 9.24023 8.58691V14.7393C9.24023 15.3105 9.53906 15.6797 10.084 15.6797ZM10.9365 11.8652V8.89453H12.2725C13.2129 8.89453 13.7754 9.44824 13.7754 10.3887C13.7754 11.3115 13.2129 11.8652 12.2725 11.8652H10.9365Z" fill="#1C1C1E"/>
</g>
<defs>
<clipPath id="clip0_10_1965">
<rect width="24" height="24" fill="white"/>
</clipPath>
</defs>
</svg>
