<svg width="24" height="24" viewBox="0 0 24 24" fill="none" xmlns="http://www.w3.org/2000/svg">
<g clip-path="url(#clip0_10_1947)">
<path d="M6.67383 19.8809H17.3174C19.2246 19.8809 20.209 18.8965 20.209 17.0156V6.31934C20.209 4.43848 19.2246 3.4541 17.3174 3.4541H6.67383C4.77539 3.4541 3.78223 4.42969 3.78223 6.31934V17.0156C3.78223 18.8965 4.77539 19.8809 6.67383 19.8809ZM6.78809 18.1318C5.97949 18.1318 5.53125 17.71 5.53125 16.8574V6.47754C5.53125 5.625 5.97949 5.20312 6.78809 5.20312H17.2031C18.0029 5.20312 18.46 5.625 18.46 6.47754V16.8574C18.46 17.71 18.0029 18.1318 17.2031 18.1318H6.78809ZM10.0928 15.6797C10.6465 15.6797 10.9541 15.3193 10.9541 14.7305V13.1309H12.5186C14.2764 13.1309 15.4277 12.041 15.4277 10.3799C15.4277 8.72754 14.2676 7.62012 12.5361 7.62012H10.1279C9.55664 7.62012 9.25781 7.98926 9.25781 8.57812V14.7305C9.25781 15.3018 9.55664 15.6797 10.0928 15.6797ZM10.9541 11.8652V8.88574H12.29C13.2217 8.88574 13.793 9.43945 13.793 10.3799C13.793 11.3027 13.2305 11.8652 12.29 11.8652H10.9541Z" fill="#1C1C1E"/>
</g>
<defs>
<clipPath id="clip0_10_1947">
<rect width="24" height="24" fill="white"/>
</clipPath>
</defs>
</svg>
