<svg width="24" height="24" viewBox="0 0 24 24" fill="none" xmlns="http://www.w3.org/2000/svg">
<g clip-path="url(#clip0_10_2128)">
<path d="M6.67383 19.8809H17.3174C19.2246 19.8809 20.209 18.8965 20.209 17.0156V6.31934C20.209 4.43848 19.2246 3.4541 17.3174 3.4541H6.67383C4.77539 3.4541 3.78223 4.42969 3.78223 6.31934V17.0156C3.78223 18.8965 4.77539 19.8809 6.67383 19.8809ZM10.0488 15.8467C9.46875 15.8467 9.16113 15.4512 9.16113 14.8447V8.47266C9.16113 7.84863 9.46875 7.45312 10.084 7.45312H12.5801C14.3906 7.45312 15.5947 8.60449 15.5947 10.3271C15.5947 12.0586 14.3906 13.2012 12.5625 13.2012H10.9453V14.8447C10.9453 15.46 10.6201 15.8467 10.0488 15.8467ZM10.9453 11.874H12.3252C13.292 11.874 13.8721 11.2939 13.8721 10.3271C13.8721 9.36914 13.292 8.78906 12.3252 8.78906H10.9453V11.874Z" fill="#1C1C1E"/>
</g>
<defs>
<clipPath id="clip0_10_2128">
<rect width="24" height="24" fill="white"/>
</clipPath>
</defs>
</svg>
