<svg width="24" height="24" viewBox="0 0 24 24" fill="none" xmlns="http://www.w3.org/2000/svg">
<g clip-path="url(#clip0_10_2311)">
<path d="M11.9912 20.7422C16.9746 20.7422 21.0879 16.6289 21.0879 11.6543C21.0879 6.67969 16.9658 2.56641 11.9824 2.56641C7.00781 2.56641 2.90332 6.67969 2.90332 11.6543C2.90332 16.6289 7.0166 20.7422 11.9912 20.7422ZM8.66895 10.3447C8.66895 10.0898 8.84473 9.92285 9.09082 9.92285H9.5918V8.32324C9.5918 7.86621 9.87305 7.58496 10.3213 7.58496H12.5273C14.0566 7.58496 15.1025 8.53418 15.3047 9.92285H15.7354C15.9902 9.92285 16.1572 10.0898 16.1572 10.3447C16.1572 10.5908 15.9902 10.7842 15.7354 10.7842H15.3135C15.1553 12.2344 14.0654 13.2363 12.4922 13.2363H11.0244V15.4072C11.0244 15.8555 10.7344 16.1279 10.3213 16.1279C9.9082 16.1279 9.5918 15.8555 9.5918 15.4072V10.7842H9.09082C8.84473 10.7842 8.66895 10.5908 8.66895 10.3447ZM11.0332 9.92285H13.8457C13.6875 9.19336 13.1074 8.80664 12.2549 8.80664H11.0332V9.92285ZM11.0332 12.0146H12.2549C13.1426 12.0146 13.7314 11.584 13.8633 10.7842H11.0332V12.0146Z" fill="#1C1C1E"/>
</g>
<defs>
<clipPath id="clip0_10_2311">
<rect width="24" height="24" fill="white"/>
</clipPath>
</defs>
</svg>
