<svg width="24" height="24" viewBox="0 0 24 24" fill="none" xmlns="http://www.w3.org/2000/svg">
<g clip-path="url(#clip0_10_2299)">
<path d="M11.9912 20.7422C16.9746 20.7422 21.0879 16.6289 21.0879 11.6543C21.0879 6.67969 16.9658 2.56641 11.9824 2.56641C7.00781 2.56641 2.90332 6.67969 2.90332 11.6543C2.90332 16.6289 7.0166 20.7422 11.9912 20.7422ZM8.60742 11.2061C8.60742 10.9424 8.7832 10.7666 9.03809 10.7666H9.54785V10.2217H9.03809C8.7832 10.2217 8.60742 10.0371 8.60742 9.79102C8.60742 9.53613 8.7832 9.36914 9.03809 9.36914H9.54785V8.32324C9.54785 7.86621 9.8291 7.58496 10.2773 7.58496H12.4834C13.7578 7.58496 14.707 8.29688 15.1025 9.36914H15.6738C15.9375 9.36914 16.0957 9.53613 16.0957 9.79102C16.0957 10.0371 15.9375 10.2217 15.6738 10.2217H15.2783C15.2959 10.3271 15.2959 10.4062 15.2959 10.5029C15.2959 10.5908 15.2871 10.6875 15.2783 10.7666H15.6738C15.9375 10.7666 16.0957 10.9424 16.0957 11.2061C16.0957 11.4434 15.9375 11.6279 15.6738 11.6279H15.1025C14.707 12.7178 13.7402 13.4297 12.4482 13.4297H10.9805V15.416C10.9805 15.8555 10.6904 16.1279 10.2773 16.1279C9.86426 16.1279 9.54785 15.8555 9.54785 15.416V11.6279H9.03809C8.7832 11.6279 8.60742 11.4434 8.60742 11.2061ZM10.9893 9.36914H13.5205C13.248 9.00879 12.7998 8.80664 12.2197 8.80664H10.9893V9.36914ZM10.9893 10.7666H13.8633C13.8809 10.6875 13.8809 10.5908 13.8809 10.4941C13.8809 10.3975 13.8809 10.3096 13.8633 10.2217H10.9893V10.7666ZM10.9893 12.208H12.2197C12.7998 12.208 13.2568 12.0059 13.5381 11.6279H10.9893V12.208Z" fill="#1C1C1E"/>
</g>
<defs>
<clipPath id="clip0_10_2299">
<rect width="24" height="24" fill="white"/>
</clipPath>
</defs>
</svg>
