<svg width="24" height="24" viewBox="0 0 24 24" fill="none" xmlns="http://www.w3.org/2000/svg">
<g clip-path="url(#clip0_10_2295)">
<path d="M11.9912 20.7422C16.9746 20.7422 21.0879 16.6289 21.0879 11.6543C21.0879 6.67969 16.9658 2.56641 11.9824 2.56641C7.00781 2.56641 2.90332 6.67969 2.90332 11.6543C2.90332 16.6289 7.0166 20.7422 11.9912 20.7422ZM11.9912 18.9316C7.95703 18.9316 4.73145 15.6885 4.73145 11.6543C4.73145 7.62012 7.95703 4.38574 11.9824 4.38574C16.0166 4.38574 19.2598 7.62012 19.2686 11.6543C19.2773 15.6885 16.0254 18.9316 11.9912 18.9316ZM8.74805 11.2148C8.74805 11.4521 8.91504 11.6279 9.16113 11.6279H9.65332V15.2754C9.65332 15.7061 9.95215 15.9697 10.3477 15.9697C10.7344 15.9697 11.0156 15.7061 11.0156 15.2754V13.3506H12.4307C13.6699 13.3506 14.6016 12.6738 14.9795 11.6279H15.5332C15.7793 11.6279 15.9375 11.4521 15.9375 11.2148C15.9375 10.9688 15.7793 10.8018 15.5332 10.8018H15.1465C15.1641 10.7227 15.1641 10.6348 15.1641 10.5469C15.1641 10.459 15.1641 10.3799 15.1553 10.2832H15.5332C15.7793 10.2832 15.9375 10.0986 15.9375 9.87012C15.9375 9.61523 15.7793 9.44824 15.5332 9.44824H14.9707C14.6016 8.42871 13.6875 7.75195 12.4658 7.75195H10.3477C9.91699 7.75195 9.65332 8.01562 9.65332 8.45508V9.44824H9.16113C8.91504 9.44824 8.74805 9.61523 8.74805 9.87012C8.74805 10.0986 8.91504 10.2832 9.16113 10.2832H9.65332V10.8018H9.16113C8.91504 10.8018 8.74805 10.9688 8.74805 11.2148ZM11.0244 9.44824V8.91211H12.2109C12.7734 8.91211 13.2041 9.10547 13.4766 9.44824H11.0244ZM11.0244 10.8018V10.2832H13.8018C13.8105 10.3623 13.8193 10.4414 13.8193 10.5469C13.8193 10.6348 13.8105 10.7227 13.8018 10.8018H11.0244ZM11.0244 12.1904V11.6279H13.4854C13.2217 11.9883 12.7734 12.1904 12.2109 12.1904H11.0244Z" fill="#1C1C1E"/>
</g>
<defs>
<clipPath id="clip0_10_2295">
<rect width="24" height="24" fill="white"/>
</clipPath>
</defs>
</svg>
