<svg width="24" height="24" viewBox="0 0 24 24" fill="none" xmlns="http://www.w3.org/2000/svg">
<g clip-path="url(#clip0_10_1955)">
<path d="M11.9912 20.7422C16.9746 20.7422 21.0879 16.6289 21.0879 11.6543C21.0879 6.67969 16.9658 2.56641 11.9824 2.56641C7.00781 2.56641 2.90332 6.67969 2.90332 11.6543C2.90332 16.6289 7.0166 20.7422 11.9912 20.7422ZM11.9912 15.9258C9.65332 15.9258 7.99219 14.1768 7.99219 11.584C7.99219 8.99121 9.65332 7.25098 11.9912 7.25098C14.3291 7.25098 15.9814 8.99121 15.9814 11.584C15.9814 13.0693 15.4365 14.2822 14.5312 15.0293L14.9795 15.627C15.1553 15.873 15.208 16.0049 15.208 16.1982C15.208 16.5674 14.9355 16.8311 14.5488 16.8311C14.2676 16.8311 14.0742 16.7168 13.8633 16.418L13.3359 15.6973C12.9229 15.8467 12.4746 15.9258 11.9912 15.9258ZM11.9912 14.5107C12.2109 14.5107 12.4131 14.4844 12.5977 14.4229L12.2373 13.9131C12.123 13.7637 12.0703 13.6318 12.0703 13.4736C12.0703 13.166 12.334 12.9375 12.6416 12.9375C12.8438 12.9375 12.9668 12.999 13.0898 13.1572L13.5293 13.7285C13.96 13.2363 14.2061 12.498 14.2061 11.584C14.2061 9.79102 13.3184 8.66602 11.9912 8.66602C10.6553 8.66602 9.77637 9.79102 9.77637 11.584C9.77637 13.3857 10.6553 14.5107 11.9912 14.5107Z" fill="#1C1C1E"/>
</g>
<defs>
<clipPath id="clip0_10_1955">
<rect width="24" height="24" fill="white"/>
</clipPath>
</defs>
</svg>
