<svg width="24" height="24" viewBox="0 0 24 24" fill="none" xmlns="http://www.w3.org/2000/svg">
<g clip-path="url(#clip0_10_1957)">
<path d="M11.9912 20.7422C16.9746 20.7422 21.0879 16.6289 21.0879 11.6543C21.0879 6.67969 16.9658 2.56641 11.9824 2.56641C7.00781 2.56641 2.90332 6.67969 2.90332 11.6543C2.90332 16.6289 7.0166 20.7422 11.9912 20.7422ZM11.9912 18.9316C7.95703 18.9316 4.73145 15.6885 4.73145 11.6543C4.73145 7.62012 7.95703 4.38574 11.9824 4.38574C16.0166 4.38574 19.2598 7.62012 19.2686 11.6543C19.2773 15.6885 16.0254 18.9316 11.9912 18.9316ZM11.9912 15.7676C12.457 15.7676 12.8965 15.6885 13.2832 15.5479L13.8018 16.251C13.9951 16.5322 14.1885 16.6377 14.4521 16.6377C14.8213 16.6377 15.085 16.3828 15.085 16.0312C15.085 15.8467 15.0322 15.7148 14.8564 15.4863L14.4258 14.9062C15.2959 14.1855 15.8232 13.0254 15.8232 11.5928C15.8232 9.10547 14.2324 7.42676 11.9912 7.42676C9.74121 7.42676 8.15918 9.10547 8.15918 11.5928C8.15918 14.0889 9.74121 15.7676 11.9912 15.7676ZM11.9912 14.4229C10.6992 14.4229 9.84668 13.333 9.84668 11.5928C9.84668 9.86133 10.6992 8.77148 11.9912 8.77148C13.2744 8.77148 14.127 9.86133 14.127 11.5928C14.127 12.4805 13.8896 13.2012 13.4678 13.667L13.0459 13.1133C12.9316 12.9639 12.8086 12.9023 12.6152 12.9023C12.3252 12.9023 12.0703 13.1221 12.0703 13.4209C12.0703 13.5703 12.123 13.6934 12.2285 13.8428L12.5889 14.335C12.4043 14.3877 12.2021 14.4229 11.9912 14.4229Z" fill="#1C1C1E"/>
</g>
<defs>
<clipPath id="clip0_10_1957">
<rect width="24" height="24" fill="white"/>
</clipPath>
</defs>
</svg>
