<svg width="24" height="24" viewBox="0 0 24 24" fill="none" xmlns="http://www.w3.org/2000/svg">
<g clip-path="url(#clip0_10_2133)">
<path d="M6.67383 19.8809H17.3174C19.2246 19.8809 20.209 18.8965 20.209 17.0156V6.31934C20.209 4.43848 19.2246 3.4541 17.3174 3.4541H6.67383C4.77539 3.4541 3.78223 4.42969 3.78223 6.31934V17.0156C3.78223 18.8965 4.77539 19.8809 6.67383 19.8809ZM6.78809 18.1318C5.97949 18.1318 5.53125 17.71 5.53125 16.8574V6.47754C5.53125 5.625 5.97949 5.20312 6.78809 5.20312H17.2031C18.0029 5.20312 18.46 5.625 18.46 6.47754V16.8574C18.46 17.71 18.0029 18.1318 17.2031 18.1318H6.78809ZM12 15.7588C12.4658 15.7588 12.9053 15.6885 13.3008 15.5391L13.8193 16.2422C14.0127 16.5322 14.2061 16.6289 14.4697 16.6289C14.8389 16.6289 15.1025 16.3828 15.1025 16.0225C15.1025 15.8467 15.041 15.7148 14.874 15.4775L14.4434 14.9062C15.3135 14.1768 15.832 13.0166 15.832 11.5928C15.832 9.09668 14.25 7.42676 12 7.42676C9.75 7.42676 8.16797 9.09668 8.16797 11.5928C8.16797 14.0801 9.75 15.7588 12 15.7588ZM12 14.4141C10.7168 14.4141 9.86426 13.333 9.86426 11.5928C9.86426 9.85254 10.7168 8.77148 12 8.77148C13.2832 8.77148 14.1445 9.85254 14.1445 11.5928C14.1445 12.4717 13.9072 13.1924 13.4854 13.667L13.0635 13.1133C12.9404 12.9551 12.8262 12.8936 12.6328 12.8936C12.334 12.8936 12.0879 13.1221 12.0879 13.4121C12.0879 13.5615 12.1406 13.6846 12.2461 13.834L12.5977 14.3262C12.4219 14.3877 12.2197 14.4141 12 14.4141Z" fill="#1C1C1E"/>
</g>
<defs>
<clipPath id="clip0_10_2133">
<rect width="24" height="24" fill="white"/>
</clipPath>
</defs>
</svg>
