<svg width="24" height="24" viewBox="0 0 24 24" fill="none" xmlns="http://www.w3.org/2000/svg">
<g clip-path="url(#clip0_10_2112)">
<path d="M6.67383 19.8809H17.3174C19.2246 19.8809 20.209 18.8965 20.209 17.0156V6.31934C20.209 4.43848 19.2246 3.4541 17.3174 3.4541H6.67383C4.77539 3.4541 3.78223 4.42969 3.78223 6.31934V17.0156C3.78223 18.8965 4.77539 19.8809 6.67383 19.8809ZM12.0264 15.9258C9.68848 15.9258 8.03613 14.1768 8.03613 11.584C8.03613 8.99121 9.68848 7.25098 12.0264 7.25098C14.3643 7.25098 16.0166 8.99121 16.0166 11.584C16.0166 13.0693 15.4717 14.2822 14.5664 15.0293L15.0146 15.627C15.1904 15.873 15.2432 16.0049 15.2432 16.1982C15.2432 16.5674 14.9707 16.8311 14.584 16.8311C14.3027 16.8311 14.1094 16.7168 13.8984 16.418L13.3711 15.6973C12.958 15.8467 12.5098 15.9258 12.0264 15.9258ZM12.0264 14.5107C12.2461 14.5107 12.4482 14.4844 12.6328 14.4229L12.2725 13.9131C12.1582 13.7637 12.1143 13.6318 12.1143 13.4736C12.1143 13.166 12.3691 12.9375 12.6768 12.9375C12.8789 12.9375 13.002 12.999 13.125 13.1572L13.5645 13.7285C13.9951 13.2363 14.2412 12.498 14.2412 11.584C14.2412 9.79102 13.3535 8.66602 12.0264 8.66602C10.6992 8.66602 9.81152 9.79102 9.81152 11.584C9.81152 13.3857 10.6992 14.5107 12.0264 14.5107Z" fill="#1C1C1E"/>
</g>
<defs>
<clipPath id="clip0_10_2112">
<rect width="24" height="24" fill="white"/>
</clipPath>
</defs>
</svg>
