<svg width="24" height="24" viewBox="0 0 24 24" fill="none" xmlns="http://www.w3.org/2000/svg">
<g clip-path="url(#clip0_10_2272)">
<path d="M11.9912 20.7422C16.9746 20.7422 21.0879 16.6289 21.0879 11.6543C21.0879 6.67969 16.9658 2.56641 11.9824 2.56641C7.00781 2.56641 2.90332 6.67969 2.90332 11.6543C2.90332 16.6289 7.0166 20.7422 11.9912 20.7422ZM11.9912 18.9316C7.95703 18.9316 4.73145 15.6885 4.73145 11.6543C4.73145 7.62012 7.95703 4.38574 11.9824 4.38574C16.0166 4.38574 19.2598 7.62012 19.2686 11.6543C19.2773 15.6885 16.0254 18.9316 11.9912 18.9316ZM11.7979 13.4033C12.2812 13.4033 12.5889 13.1221 12.6152 12.7617C12.6152 12.7354 12.6152 12.6914 12.624 12.6562C12.6504 12.208 12.958 11.9092 13.5293 11.5312C14.3994 10.9688 14.9531 10.459 14.9531 9.44824C14.9531 7.98926 13.6348 7.14551 12.0703 7.14551C10.5674 7.14551 9.53906 7.83105 9.2666 8.65723C9.21387 8.80664 9.17871 8.95605 9.17871 9.11426C9.17871 9.54492 9.5127 9.80859 9.91699 9.80859C10.4355 9.80859 10.5498 9.54492 10.8223 9.24609C11.1035 8.80664 11.4727 8.55176 11.9912 8.55176C12.6855 8.55176 13.1426 8.94727 13.1426 9.53613C13.1426 10.0723 12.7734 10.3623 12.0264 10.8721C11.4023 11.3115 10.9453 11.7598 10.9453 12.5508V12.6475C10.9453 13.1484 11.2529 13.4033 11.7979 13.4033ZM11.7803 16.1016C12.3428 16.1016 12.8086 15.6973 12.8086 15.1348C12.8086 14.5811 12.3516 14.168 11.7803 14.168C11.209 14.168 10.7432 14.5811 10.7432 15.1348C10.7432 15.6885 11.209 16.1016 11.7803 16.1016Z" fill="#1C1C1E"/>
</g>
<defs>
<clipPath id="clip0_10_2272">
<rect width="24" height="24" fill="white"/>
</clipPath>
</defs>
</svg>
