<svg width="24" height="24" viewBox="0 0 24 24" fill="none" xmlns="http://www.w3.org/2000/svg">
<g clip-path="url(#clip0_10_2217)">
<path d="M6.67383 19.8809H17.3174C19.2246 19.8809 20.209 18.8965 20.209 17.0156V6.31934C20.209 4.43848 19.2246 3.4541 17.3174 3.4541H6.67383C4.77539 3.4541 3.78223 4.42969 3.78223 6.31934V17.0156C3.78223 18.8965 4.77539 19.8809 6.67383 19.8809ZM6.78809 18.1318C5.97949 18.1318 5.53125 17.71 5.53125 16.8574V6.47754C5.53125 5.625 5.97949 5.20312 6.78809 5.20312H17.2031C18.0029 5.20312 18.46 5.625 18.46 6.47754V16.8574C18.46 17.71 18.0029 18.1318 17.2031 18.1318H6.78809ZM11.8066 13.3945C12.29 13.3945 12.6064 13.1221 12.6328 12.7617C12.6328 12.7266 12.6328 12.6826 12.6328 12.6562C12.6592 12.1992 12.9756 11.9004 13.5469 11.5312C14.417 10.96 14.9707 10.4502 14.9707 9.43945C14.9707 7.98047 13.6523 7.13672 12.0879 7.13672C10.585 7.13672 9.55664 7.82227 9.28418 8.64844C9.23145 8.79785 9.19629 8.95605 9.19629 9.11426C9.19629 9.53613 9.53027 9.7998 9.93457 9.7998C10.4443 9.7998 10.5674 9.53613 10.8311 9.2373C11.1211 8.79785 11.4902 8.54297 12.0088 8.54297C12.7031 8.54297 13.1514 8.93848 13.1514 9.52734C13.1514 10.0723 12.7822 10.3535 12.0439 10.8721C11.4199 11.3027 10.9629 11.751 10.9629 12.542V12.6387C10.9629 13.1396 11.2617 13.3945 11.8066 13.3945ZM11.7979 16.1016C12.3604 16.1016 12.8262 15.6885 12.8262 15.126C12.8262 14.5723 12.3691 14.1592 11.7979 14.1592C11.2178 14.1592 10.7607 14.5723 10.7607 15.126C10.7607 15.6797 11.2266 16.1016 11.7979 16.1016Z" fill="#1C1C1E"/>
</g>
<defs>
<clipPath id="clip0_10_2217">
<rect width="24" height="24" fill="white"/>
</clipPath>
</defs>
</svg>
