<svg width="24" height="24" viewBox="0 0 24 24" fill="none" xmlns="http://www.w3.org/2000/svg">
<g clip-path="url(#clip0_10_2214)">
<path d="M6.67383 19.8809H17.3174C19.2246 19.8809 20.209 18.8965 20.209 17.0156V6.31934C20.209 4.43848 19.2246 3.4541 17.3174 3.4541H6.67383C4.77539 3.4541 3.78223 4.42969 3.78223 6.31934V17.0156C3.78223 18.8965 4.77539 19.8809 6.67383 19.8809ZM11.8154 13.4648C11.2441 13.4648 10.9277 13.2012 10.9277 12.6738V12.5771C10.9277 11.751 11.4023 11.2852 12.0527 10.8281C12.8262 10.292 13.2041 10.002 13.2041 9.43945C13.2041 8.83301 12.7383 8.42871 12.0264 8.42871C11.4902 8.42871 11.1123 8.69238 10.8135 9.14062C10.5322 9.45703 10.4092 9.72949 9.87305 9.72949C9.44238 9.72949 9.09082 9.44824 9.09082 9.00879C9.09082 8.83301 9.12598 8.6748 9.1875 8.5166C9.47754 7.65527 10.5322 6.95215 12.1055 6.95215C13.7402 6.95215 15.1201 7.82227 15.1201 9.35156C15.1201 10.4062 14.54 10.9336 13.626 11.5225C13.0459 11.9004 12.7119 12.2168 12.6855 12.6914C12.6855 12.7178 12.6768 12.7617 12.6768 12.7969C12.6504 13.1748 12.3252 13.4648 11.8154 13.4648ZM11.8066 16.2773C11.209 16.2773 10.7168 15.8467 10.7168 15.2666C10.7168 14.6865 11.2002 14.2559 11.8066 14.2559C12.4043 14.2559 12.8877 14.6865 12.8877 15.2666C12.8877 15.8555 12.3955 16.2773 11.8066 16.2773Z" fill="#1C1C1E"/>
</g>
<defs>
<clipPath id="clip0_10_2214">
<rect width="24" height="24" fill="white"/>
</clipPath>
</defs>
</svg>
