<svg width="24" height="24" viewBox="0 0 24 24" fill="none" xmlns="http://www.w3.org/2000/svg">
<g clip-path="url(#clip0_10_2124)">
<path d="M11.9912 20.7422C16.9746 20.7422 21.0879 16.6289 21.0879 11.6543C21.0879 6.67969 16.9658 2.56641 11.9824 2.56641C7.00781 2.56641 2.90332 6.67969 2.90332 11.6543C2.90332 16.6289 7.0166 20.7422 11.9912 20.7422ZM11.9912 18.9316C7.95703 18.9316 4.73145 15.6885 4.73145 11.6543C4.73145 7.62012 7.95703 4.38574 11.9824 4.38574C16.0166 4.38574 19.2598 7.62012 19.2686 11.6543C19.2773 15.6885 16.0254 18.9316 11.9912 18.9316ZM9.71484 15.6797C10.2422 15.6797 10.541 15.3457 10.541 14.7744V12.7881H11.9648L13.3887 15.126C13.6523 15.5391 13.8545 15.6797 14.2148 15.6797C14.6631 15.6797 14.9707 15.3896 14.9707 14.9854C14.9707 14.7656 14.918 14.6074 14.7861 14.4141L13.5557 12.5244C14.5664 12.1992 15.2168 11.2939 15.2168 10.2041C15.2168 8.61328 14.083 7.62012 12.2373 7.62012H9.77637C9.20508 7.62012 8.90625 7.98926 8.90625 8.58691V14.7744C8.90625 15.3281 9.1875 15.6797 9.71484 15.6797ZM10.541 11.5928V8.85938H12.0352C12.9492 8.85938 13.5469 9.36914 13.5469 10.248C13.5469 11.1006 12.958 11.5928 12.0088 11.5928H10.541Z" fill="#1C1C1E"/>
</g>
<defs>
<clipPath id="clip0_10_2124">
<rect width="24" height="24" fill="white"/>
</clipPath>
</defs>
</svg>
