<svg width="24" height="24" viewBox="0 0 24 24" fill="none" xmlns="http://www.w3.org/2000/svg">
<g clip-path="url(#clip0_10_2180)">
<path d="M6.67383 19.8809H17.3174C19.2246 19.8809 20.209 18.8965 20.209 17.0156V6.31934C20.209 4.43848 19.2246 3.4541 17.3174 3.4541H6.67383C4.77539 3.4541 3.78223 4.42969 3.78223 6.31934V17.0156C3.78223 18.8965 4.77539 19.8809 6.67383 19.8809ZM6.78809 18.1318C5.97949 18.1318 5.53125 17.71 5.53125 16.8574V6.47754C5.53125 5.625 5.97949 5.20312 6.78809 5.20312H17.2031C18.0029 5.20312 18.46 5.625 18.46 6.47754V16.8574C18.46 17.71 18.0029 18.1318 17.2031 18.1318H6.78809ZM9.73242 15.6797C10.2598 15.6797 10.5498 15.3369 10.5498 14.7744V12.7881H11.9824L13.4062 15.1172C13.6611 15.5303 13.8721 15.6797 14.2324 15.6797C14.6719 15.6797 14.9883 15.3896 14.9883 14.9766C14.9883 14.7568 14.9268 14.5986 14.8037 14.4053L13.5732 12.5156C14.584 12.1904 15.2344 11.2852 15.2344 10.2041C15.2344 8.60449 14.1006 7.62012 12.2549 7.62012H9.79395C9.21387 7.62012 8.92383 7.98926 8.92383 8.57812V14.7744C8.92383 15.3281 9.20508 15.6797 9.73242 15.6797ZM10.5498 11.584V8.85059H12.0527C12.9668 8.85059 13.5645 9.36035 13.5645 10.2393C13.5645 11.0918 12.9668 11.584 12.0264 11.584H10.5498Z" fill="#1C1C1E"/>
</g>
<defs>
<clipPath id="clip0_10_2180">
<rect width="24" height="24" fill="white"/>
</clipPath>
</defs>
</svg>
