<svg width="24" height="24" viewBox="0 0 24 24" fill="none" xmlns="http://www.w3.org/2000/svg">
<g clip-path="url(#clip0_10_1937)">
<path d="M6.67383 19.8809H17.3174C19.2246 19.8809 20.209 18.8965 20.209 17.0156V6.31934C20.209 4.43848 19.2246 3.4541 17.3174 3.4541H6.67383C4.77539 3.4541 3.78223 4.42969 3.78223 6.31934V17.0156C3.78223 18.8965 4.77539 19.8809 6.67383 19.8809ZM9.65332 15.8467C9.1084 15.8467 8.80957 15.4688 8.80957 14.8887V8.47266C8.80957 7.84863 9.11719 7.45312 9.72363 7.45312H12.2812C14.2061 7.45312 15.3838 8.48145 15.3838 10.1426C15.3838 11.2764 14.7158 12.2168 13.6611 12.5508L14.9355 14.5107C15.0674 14.7129 15.1201 14.8799 15.1201 15.1084C15.1201 15.5391 14.7949 15.8467 14.3379 15.8467C13.9512 15.8467 13.7402 15.6885 13.4678 15.2578L11.9912 12.832H10.5146V14.8887C10.5146 15.4863 10.207 15.8467 9.65332 15.8467ZM10.5146 11.5752H12.0439C13.0195 11.5752 13.6348 11.0742 13.6348 10.1865C13.6348 9.28125 13.0107 8.75391 12.0703 8.75391H10.5146V11.5752Z" fill="#1C1C1E"/>
</g>
<defs>
<clipPath id="clip0_10_1937">
<rect width="24" height="24" fill="white"/>
</clipPath>
</defs>
</svg>
