<svg width="24" height="24" viewBox="0 0 24 24" fill="none" xmlns="http://www.w3.org/2000/svg">
<g clip-path="url(#clip0_10_2092)">
<path d="M11.9912 20.7422C16.9746 20.7422 21.0879 16.6289 21.0879 11.6543C21.0879 6.67969 16.9658 2.56641 11.9824 2.56641C7.00781 2.56641 2.90332 6.67969 2.90332 11.6543C2.90332 16.6289 7.0166 20.7422 11.9912 20.7422ZM10.4619 16.1631C10.04 16.1631 9.74121 15.873 9.74121 15.4512V14.6953H8.96777C8.7041 14.6953 8.53711 14.5195 8.53711 14.2646C8.53711 14.0186 8.7041 13.834 8.96777 13.834H9.74121V12.9551H8.95898C8.69531 12.9551 8.52832 12.7705 8.52832 12.5156C8.52832 12.2607 8.69531 12.0762 8.95898 12.0762H9.74121V8.31445C9.74121 7.85742 10.0137 7.57617 10.4619 7.57617H12.6592C14.3467 7.57617 15.4277 8.70117 15.4277 10.2656C15.4277 11.8301 14.3291 12.9551 12.624 12.9551H11.165V13.834H13.1689C13.4326 13.834 13.5996 14.0186 13.5996 14.2646C13.5996 14.5195 13.4326 14.6953 13.1689 14.6953H11.165V15.4512C11.165 15.873 10.8838 16.1631 10.4619 16.1631ZM11.1738 11.7422L12.3779 11.751C13.4326 11.751 13.9951 11.1885 13.9951 10.2832C13.9951 9.38672 13.4414 8.82422 12.3867 8.82422H11.1738V11.7422Z" fill="#1C1C1E"/>
</g>
<defs>
<clipPath id="clip0_10_2092">
<rect width="24" height="24" fill="white"/>
</clipPath>
</defs>
</svg>
