<svg width="24" height="24" viewBox="0 0 24 24" fill="none" xmlns="http://www.w3.org/2000/svg">
<g clip-path="url(#clip0_10_2305)">
<path d="M11.9912 20.7422C16.9746 20.7422 21.0879 16.6289 21.0879 11.6543C21.0879 6.67969 16.9658 2.56641 11.9824 2.56641C7.00781 2.56641 2.90332 6.67969 2.90332 11.6543C2.90332 16.6289 7.0166 20.7422 11.9912 20.7422ZM11.9912 18.9316C7.95703 18.9316 4.73145 15.6885 4.73145 11.6543C4.73145 7.62012 7.95703 4.38574 11.9824 4.38574C16.0166 4.38574 19.2598 7.62012 19.2686 11.6543C19.2773 15.6885 16.0254 18.9316 11.9912 18.9316ZM10.5234 15.9873C10.9189 15.9873 11.1914 15.7148 11.1914 15.3105V14.5811H13.125C13.3799 14.5811 13.5381 14.4053 13.5381 14.1592C13.5381 13.9219 13.3799 13.7461 13.125 13.7461H11.1914V12.9023H12.5977C14.2324 12.9023 15.2871 11.8213 15.2871 10.3271C15.2871 8.81543 14.2588 7.73438 12.6328 7.73438H10.5234C10.1016 7.73438 9.83789 8.00684 9.83789 8.44629V12.0674H9.08203C8.82715 12.0674 8.66895 12.2432 8.66895 12.4893C8.66895 12.7266 8.82715 12.9023 9.08203 12.9023H9.83789V13.7461H9.09082C8.83594 13.7461 8.67773 13.9219 8.67773 14.1592C8.67773 14.4053 8.83594 14.5811 9.09082 14.5811H9.83789V15.3105C9.83789 15.7148 10.1191 15.9873 10.5234 15.9873ZM11.2002 11.7422V8.92969H12.3691C13.3887 8.92969 13.9248 9.46582 13.9248 10.3359C13.9248 11.2061 13.3799 11.7598 12.3691 11.7598L11.2002 11.7422Z" fill="#1C1C1E"/>
</g>
<defs>
<clipPath id="clip0_10_2305">
<rect width="24" height="24" fill="white"/>
</clipPath>
</defs>
</svg>
