<svg width="24" height="24" viewBox="0 0 24 24" fill="none" xmlns="http://www.w3.org/2000/svg">
<g clip-path="url(#clip0_10_2086)">
<path d="M6.67383 19.8809H17.3174C19.2246 19.8809 20.209 18.8965 20.209 17.0156V6.31934C20.209 4.43848 19.2246 3.4541 17.3174 3.4541H6.67383C4.77539 3.4541 3.78223 4.42969 3.78223 6.31934V17.0156C3.78223 18.8965 4.77539 19.8809 6.67383 19.8809ZM10.4971 16.1631C10.0752 16.1631 9.78516 15.873 9.78516 15.4512V14.6953H9.00293C8.73926 14.6953 8.57227 14.5195 8.57227 14.2646C8.57227 14.0186 8.73926 13.834 9.00293 13.834H9.78516V12.9551H8.99414C8.73047 12.9551 8.56348 12.7705 8.56348 12.5156C8.56348 12.2607 8.73047 12.0762 8.99414 12.0762H9.78516V8.31445C9.78516 7.85742 10.0576 7.57617 10.4971 7.57617H12.6943C14.3818 7.57617 15.4629 8.70117 15.4629 10.2656C15.4629 11.8301 14.3643 12.9551 12.6592 12.9551H11.209V13.834H13.2041C13.4678 13.834 13.6348 14.0186 13.6348 14.2646C13.6348 14.5195 13.4678 14.6953 13.2041 14.6953H11.209V15.4512C11.209 15.873 10.9189 16.1631 10.4971 16.1631ZM11.209 11.7422L12.4131 11.751C13.4678 11.751 14.0303 11.1885 14.0303 10.2832C14.0303 9.38672 13.4766 8.82422 12.4219 8.82422H11.209V11.7422Z" fill="#1C1C1E"/>
</g>
<defs>
<clipPath id="clip0_10_2086">
<rect width="24" height="24" fill="white"/>
</clipPath>
</defs>
</svg>
