<svg width="24" height="24" viewBox="0 0 24 24" fill="none" xmlns="http://www.w3.org/2000/svg">
<g clip-path="url(#clip0_10_2193)">
<path d="M11.9912 20.7422C16.9746 20.7422 21.0879 16.6289 21.0879 11.6543C21.0879 6.67969 16.9658 2.56641 11.9824 2.56641C7.00781 2.56641 2.90332 6.67969 2.90332 11.6543C2.90332 16.6289 7.0166 20.7422 11.9912 20.7422ZM11.9912 18.9316C7.95703 18.9316 4.73145 15.6885 4.73145 11.6543C4.73145 7.62012 7.95703 4.38574 11.9824 4.38574C16.0166 4.38574 19.2598 7.62012 19.2686 11.6543C19.2773 15.6885 16.0254 18.9316 11.9912 18.9316ZM9.31055 15.9697C9.66211 15.9697 9.87305 15.7324 9.87305 15.3457V12.6826H10.207L11.1562 15.5479C11.2529 15.8555 11.4375 15.9697 11.7012 15.9697C12.0264 15.9697 12.2461 15.7412 12.2461 15.416C12.2461 15.2842 12.2197 15.1611 12.167 15.0293L11.2354 12.2959C11.8945 11.9355 12.2725 11.0654 12.2725 10.0459C12.2725 8.41113 11.6133 7.60254 10.3125 7.60254H9.33691C8.97656 7.60254 8.75684 7.84863 8.75684 8.27051V15.3281C8.75684 15.7148 8.95898 15.9697 9.31055 15.9697ZM9.87305 11.4697V8.71875H10.2686C10.8662 8.71875 11.1299 9.19336 11.1299 10.0898C11.1299 11.0039 10.8662 11.4697 10.251 11.4697H9.87305ZM14.1709 15.9785C15.1641 15.9785 15.8057 15.2754 15.8057 14.168C15.8057 13.3154 15.5068 12.8057 14.6543 12.3311L14.3291 12.1553C13.8984 11.918 13.7139 11.6807 13.7139 11.2852C13.7139 10.8721 13.8721 10.6172 14.1621 10.6172C14.5225 10.6172 14.6191 10.8896 14.6631 11.373C14.6895 11.7246 14.8564 11.9355 15.1904 11.9355C15.5244 11.9355 15.7178 11.707 15.7178 11.3379C15.7178 11.2412 15.709 11.1533 15.7002 11.0654C15.5947 10.2041 15.0674 9.57129 14.1709 9.57129C13.2393 9.57129 12.6152 10.2656 12.6152 11.3379C12.6152 12.1729 12.958 12.7354 13.7754 13.1748L14.1182 13.3594C14.5225 13.5703 14.6982 13.834 14.6982 14.2646C14.6982 14.7041 14.5137 14.9502 14.1709 14.9502C13.8193 14.9502 13.6611 14.6602 13.626 14.1855C13.5908 13.8428 13.415 13.623 13.0811 13.623C12.7471 13.623 12.5449 13.8604 12.5449 14.2295C12.5449 14.335 12.5537 14.4316 12.5625 14.5283C12.668 15.3721 13.2568 15.9785 14.1709 15.9785Z" fill="#1C1C1E"/>
</g>
<defs>
<clipPath id="clip0_10_2193">
<rect width="24" height="24" fill="white"/>
</clipPath>
</defs>
</svg>
