<svg width="24" height="24" viewBox="0 0 24 24" fill="none" xmlns="http://www.w3.org/2000/svg">
<g clip-path="url(#clip0_10_2151)">
<path d="M11.9912 20.7422C16.9746 20.7422 21.0879 16.6289 21.0879 11.6543C21.0879 6.67969 16.9658 2.56641 11.9824 2.56641C7.00781 2.56641 2.90332 6.67969 2.90332 11.6543C2.90332 16.6289 7.0166 20.7422 11.9912 20.7422ZM11.9912 18.9316C7.95703 18.9316 4.73145 15.6885 4.73145 11.6543C4.73145 7.62012 7.95703 4.38574 11.9824 4.38574C16.0166 4.38574 19.2598 7.62012 19.2686 11.6543C19.2773 15.6885 16.0254 18.9316 11.9912 18.9316ZM11.877 15.7676C13.9072 15.7676 15.2256 14.7832 15.2256 13.2451C15.2256 12.0586 14.3994 11.3906 12.8525 11.0215L11.7363 10.7402C10.8926 10.5381 10.5586 10.2568 10.5586 9.77344C10.5586 9.12305 11.0947 8.71875 11.9297 8.71875C12.7119 8.71875 13.2129 9.01758 13.5293 9.65918C13.7227 9.94922 13.916 10.0986 14.2764 10.0986C14.6807 10.0986 14.9707 9.87012 14.9707 9.43945C14.9707 9.29883 14.9355 9.14062 14.8564 8.96484C14.5049 8.08594 13.4326 7.43555 11.9736 7.43555C10.1191 7.43555 8.84473 8.44629 8.84473 9.8877C8.84473 11.0215 9.60059 11.6895 10.9893 12.0322L12.167 12.3486C13.1865 12.6035 13.5293 12.8408 13.5293 13.3857C13.5293 14.0713 12.8613 14.4492 11.9824 14.4492C11.1475 14.4492 10.5762 14.1416 10.2246 13.5088C10.0312 13.21 9.82031 13.0693 9.49512 13.0693C9.06445 13.0693 8.7832 13.3418 8.7832 13.7637C8.7832 13.9219 8.81836 14.0801 8.89746 14.2383C9.23145 15.0557 10.3037 15.7676 11.877 15.7676Z" fill="#1C1C1E"/>
</g>
<defs>
<clipPath id="clip0_10_2151">
<rect width="24" height="24" fill="white"/>
</clipPath>
</defs>
</svg>
