<svg width="24" height="24" viewBox="0 0 24 24" fill="none" xmlns="http://www.w3.org/2000/svg">
<g clip-path="url(#clip0_10_2173)">
<path d="M11.9912 20.7422C16.9746 20.7422 21.0879 16.6289 21.0879 11.6543C21.0879 6.67969 16.9658 2.56641 11.9824 2.56641C7.00781 2.56641 2.90332 6.67969 2.90332 11.6543C2.90332 16.6289 7.0166 20.7422 11.9912 20.7422ZM11.877 15.9258C10.2334 15.9258 9.11719 15.1875 8.76562 14.3525C8.67773 14.1768 8.64258 14.0098 8.64258 13.8516C8.64258 13.4033 8.94141 13.1221 9.39844 13.1221C9.74121 13.1221 9.95215 13.2627 10.1631 13.5703C10.5322 14.2295 11.1211 14.5459 11.9824 14.5459C12.8877 14.5459 13.5732 14.1504 13.5732 13.4561C13.5732 12.8848 13.2305 12.6475 12.167 12.375L10.9453 12.0498C9.49512 11.6982 8.71289 11.0039 8.71289 9.81738C8.71289 8.30566 10.04 7.25977 11.9736 7.25977C13.4854 7.25977 14.6104 7.92773 14.9795 8.85938C15.0586 9.03516 15.0938 9.20215 15.0938 9.34277C15.0938 9.7998 14.7949 10.0371 14.3643 10.0371C13.9951 10.0371 13.7842 9.8877 13.5908 9.58008C13.248 8.91211 12.7383 8.60449 11.9297 8.60449C11.0684 8.60449 10.5146 9.02637 10.5146 9.69434C10.5146 10.1953 10.8574 10.4854 11.7363 10.6963L12.8965 10.9863C14.4961 11.3643 15.3662 12.0674 15.3662 13.2979C15.3662 14.9062 13.9863 15.9258 11.877 15.9258Z" fill="#1C1C1E"/>
</g>
<defs>
<clipPath id="clip0_10_2173">
<rect width="24" height="24" fill="white"/>
</clipPath>
</defs>
</svg>
