<svg width="24" height="24" viewBox="0 0 24 24" fill="none" xmlns="http://www.w3.org/2000/svg">
<g clip-path="url(#clip0_10_1953)">
<path d="M6.67383 19.8809H17.3174C19.2246 19.8809 20.209 18.8965 20.209 17.0156V6.31934C20.209 4.43848 19.2246 3.4541 17.3174 3.4541H6.67383C4.77539 3.4541 3.78223 4.42969 3.78223 6.31934V17.0156C3.78223 18.8965 4.77539 19.8809 6.67383 19.8809ZM11.9121 15.9258C10.2773 15.9258 9.15234 15.1875 8.80078 14.3525C8.71289 14.1768 8.67773 14.0098 8.67773 13.8516C8.67773 13.4033 8.98535 13.1221 9.43359 13.1221C9.77637 13.1221 9.9873 13.2627 10.1982 13.5703C10.5674 14.2295 11.1562 14.5459 12.0176 14.5459C12.9229 14.5459 13.6084 14.1504 13.6084 13.4561C13.6084 12.8848 13.2656 12.6475 12.2021 12.375L10.9805 12.0498C9.53027 11.6982 8.74805 11.0039 8.74805 9.81738C8.74805 8.30566 10.0752 7.25977 12.0088 7.25977C13.5205 7.25977 14.6455 7.92773 15.0146 8.85938C15.0938 9.03516 15.1289 9.20215 15.1289 9.34277C15.1289 9.7998 14.8301 10.0371 14.3994 10.0371C14.0303 10.0371 13.8193 9.8877 13.626 9.58008C13.2832 8.91211 12.7734 8.60449 11.9648 8.60449C11.1035 8.60449 10.5498 9.02637 10.5498 9.69434C10.5498 10.1953 10.8926 10.4854 11.7715 10.6963L12.9316 10.9863C14.5312 11.3643 15.4014 12.0674 15.4014 13.2979C15.4014 14.9062 14.0215 15.9258 11.9121 15.9258Z" fill="#1C1C1E"/>
</g>
<defs>
<clipPath id="clip0_10_1953">
<rect width="24" height="24" fill="white"/>
</clipPath>
</defs>
</svg>
