<svg width="24" height="24" viewBox="0 0 24 24" fill="none" xmlns="http://www.w3.org/2000/svg">
<g clip-path="url(#clip0_10_2185)">
<path d="M6.67383 19.8809H17.3174C19.2246 19.8809 20.209 18.8965 20.209 17.0156V6.31934C20.209 4.43848 19.2246 3.4541 17.3174 3.4541H6.67383C4.77539 3.4541 3.78223 4.42969 3.78223 6.31934V17.0156C3.78223 18.8965 4.77539 19.8809 6.67383 19.8809ZM6.78809 18.1318C5.97949 18.1318 5.53125 17.71 5.53125 16.8574V6.47754C5.53125 5.625 5.97949 5.20312 6.78809 5.20312H17.2031C18.0029 5.20312 18.46 5.625 18.46 6.47754V16.8574C18.46 17.71 18.0029 18.1318 17.2031 18.1318H6.78809ZM11.8945 15.7588C13.9248 15.7588 15.2344 14.7744 15.2344 13.2363C15.2344 12.0498 14.4082 11.3818 12.8701 11.0127L11.7539 10.7314C10.9014 10.5293 10.5762 10.248 10.5762 9.76465C10.5762 9.12305 11.1123 8.70996 11.9473 8.70996C12.7295 8.70996 13.2305 9.00879 13.5469 9.65039C13.7402 9.94922 13.9336 10.0898 14.2852 10.0898C14.6982 10.0898 14.9883 9.86133 14.9883 9.43066C14.9883 9.29004 14.9531 9.13184 14.874 8.96484C14.5225 8.07715 13.4414 7.43555 11.9912 7.43555C10.1367 7.43555 8.8623 8.4375 8.8623 9.87891C8.8623 11.0215 9.60938 11.6807 11.0068 12.0322L12.1846 12.3398C13.2041 12.6035 13.5381 12.832 13.5381 13.3857C13.5381 14.0625 12.8789 14.4492 12 14.4492C11.165 14.4492 10.585 14.1328 10.2334 13.5C10.04 13.2012 9.83789 13.0605 9.5127 13.0605C9.08203 13.0605 8.79199 13.333 8.79199 13.7637C8.79199 13.9219 8.82715 14.0713 8.90625 14.2383C9.24023 15.0469 10.3213 15.7588 11.8945 15.7588Z" fill="#1C1C1E"/>
</g>
<defs>
<clipPath id="clip0_10_2185">
<rect width="24" height="24" fill="white"/>
</clipPath>
</defs>
</svg>
