<svg width="24" height="24" viewBox="0 0 24 24" fill="none" xmlns="http://www.w3.org/2000/svg">
<g clip-path="url(#clip0_10_1990)">
<path d="M11.9912 20.7422C16.9746 20.7422 21.0879 16.6289 21.0879 11.6543C21.0879 6.67969 16.9658 2.56641 11.9824 2.56641C7.00781 2.56641 2.90332 6.67969 2.90332 11.6543C2.90332 16.6289 7.0166 20.7422 11.9912 20.7422ZM11.9912 18.9316C7.95703 18.9316 4.73145 15.6885 4.73145 11.6543C4.73145 7.62012 7.95703 4.38574 11.9824 4.38574C16.0166 4.38574 19.2598 7.62012 19.2686 11.6543C19.2773 15.6885 16.0254 18.9316 11.9912 18.9316ZM10.5234 15.0117C10.5234 15.5479 10.8223 15.8379 11.3584 15.8379H12.9141C14.417 15.8379 15.085 15.1523 15.085 13.3945V8.28809C15.085 7.91016 14.8564 7.65527 14.4873 7.65527C14.1094 7.65527 13.8721 7.90137 13.8721 8.28809V13.2891C13.8721 14.291 13.5908 14.5107 12.6943 14.5107H11.5166V10.5996C11.5166 10.2744 11.3145 10.0723 11.0244 10.0723C10.7256 10.0723 10.5234 10.2744 10.5234 10.5996V15.0117ZM8.60742 15.293C8.60742 15.6709 8.85352 15.917 9.22266 15.917C9.5918 15.917 9.82031 15.6621 9.82031 15.2842V9.06152H10.9629C11.8242 9.06152 12.1846 9.3252 12.1846 10.2217V12.9639C12.1846 13.2891 12.3955 13.4824 12.6943 13.4824C12.9844 13.4824 13.1777 13.2891 13.1777 12.9639V9.94043C13.1777 8.38477 12.5186 7.73438 11.0596 7.73438H9.45117C8.91504 7.73438 8.60742 8.0332 8.60742 8.56055V15.293Z" fill="#1C1C1E"/>
</g>
<defs>
<clipPath id="clip0_10_1990">
<rect width="24" height="24" fill="white"/>
</clipPath>
</defs>
</svg>
