<svg width="24" height="24" viewBox="0 0 24 24" fill="none" xmlns="http://www.w3.org/2000/svg">
<g clip-path="url(#clip0_10_1986)">
<path d="M11.9912 20.7422C16.9746 20.7422 21.0879 16.6289 21.0879 11.6543C21.0879 6.67969 16.9658 2.56641 11.9824 2.56641C7.00781 2.56641 2.90332 6.67969 2.90332 11.6543C2.90332 16.6289 7.0166 20.7422 11.9912 20.7422ZM10.4619 15.126V10.5469C10.4619 10.2129 10.6729 10.0107 10.9893 10.0107C11.2881 10.0107 11.4902 10.2129 11.4902 10.5469V14.5986H12.7119C13.6436 14.5986 13.9424 14.3789 13.9424 13.3418V8.14746C13.9424 7.73438 14.1885 7.47949 14.584 7.47949C14.9707 7.47949 15.2168 7.74316 15.2168 8.14746V13.4473C15.2168 15.2842 14.5225 15.9873 12.9492 15.9873H11.332C10.7783 15.9873 10.4619 15.6973 10.4619 15.126ZM8.45801 15.416V8.4375C8.45801 7.875 8.7832 7.56738 9.3457 7.56738H11.0156C12.5449 7.56738 13.2217 8.24414 13.2217 9.86133V12.999C13.2217 13.3418 13.0195 13.5439 12.7119 13.5439C12.4043 13.5439 12.1846 13.3418 12.1846 12.999V10.1602C12.1846 9.22852 11.8154 8.96484 10.9189 8.96484H9.73242V15.4072C9.73242 15.8115 9.48633 16.084 9.1084 16.084C8.72168 16.084 8.45801 15.8203 8.45801 15.416Z" fill="#1C1C1E"/>
</g>
<defs>
<clipPath id="clip0_10_1986">
<rect width="24" height="24" fill="white"/>
</clipPath>
</defs>
</svg>
