<svg width="24" height="24" viewBox="0 0 24 24" fill="none" xmlns="http://www.w3.org/2000/svg">
<g clip-path="url(#clip0_10_1982)">
<path d="M6.67383 19.8809H17.3174C19.2246 19.8809 20.209 18.8965 20.209 17.0156V6.31934C20.209 4.43848 19.2246 3.4541 17.3174 3.4541H6.67383C4.77539 3.4541 3.78223 4.42969 3.78223 6.31934V17.0156C3.78223 18.8965 4.77539 19.8809 6.67383 19.8809ZM10.4971 15.126V10.5469C10.4971 10.2129 10.708 10.0107 11.0244 10.0107C11.3232 10.0107 11.5254 10.2129 11.5254 10.5469V14.5986H12.7559C13.6787 14.5986 13.9775 14.3789 13.9775 13.3418V8.14746C13.9775 7.73438 14.2236 7.47949 14.6191 7.47949C15.0059 7.47949 15.252 7.74316 15.252 8.14746V13.4473C15.252 15.2842 14.5576 15.9873 12.9844 15.9873H11.3672C10.8135 15.9873 10.4971 15.6973 10.4971 15.126ZM8.49316 15.416V8.4375C8.49316 7.875 8.81836 7.56738 9.38086 7.56738H11.0508C12.5801 7.56738 13.2568 8.24414 13.2568 9.86133V12.999C13.2568 13.3418 13.0547 13.5439 12.7471 13.5439C12.4395 13.5439 12.2197 13.3418 12.2197 12.999V10.1602C12.2197 9.22852 11.8506 8.96484 10.9541 8.96484H9.76758V15.4072C9.76758 15.8115 9.53027 16.084 9.14355 16.084C8.75684 16.084 8.49316 15.8203 8.49316 15.416Z" fill="#1C1C1E"/>
</g>
<defs>
<clipPath id="clip0_10_1982">
<rect width="24" height="24" fill="white"/>
</clipPath>
</defs>
</svg>
