<svg width="24" height="24" viewBox="0 0 24 24" fill="none" xmlns="http://www.w3.org/2000/svg">
<g clip-path="url(#clip0_10_2149)">
<path d="M11.9912 20.7422C16.9746 20.7422 21.0879 16.6289 21.0879 11.6543C21.0879 6.67969 16.9658 2.56641 11.9824 2.56641C7.00781 2.56641 2.90332 6.67969 2.90332 11.6543C2.90332 16.6289 7.0166 20.7422 11.9912 20.7422ZM11.9912 18.9316C7.95703 18.9316 4.73145 15.6885 4.73145 11.6543C4.73145 7.62012 7.95703 4.38574 11.9824 4.38574C16.0166 4.38574 19.2598 7.62012 19.2686 11.6543C19.2773 15.6885 16.0254 18.9316 11.9912 18.9316ZM9.29297 15.5479H14.4346C14.7949 15.5479 15.0498 15.3105 15.0498 14.9502C15.0498 14.5898 14.7949 14.3613 14.4346 14.3613H10.9102C11.332 13.9834 11.6133 13.3594 11.6133 12.6826C11.6133 12.4102 11.5869 12.1729 11.5342 11.9531H13.5996C13.9072 11.9531 14.1182 11.7598 14.1182 11.4609C14.1182 11.1709 13.9072 10.9775 13.5996 10.9775H11.3145C11.2354 10.6699 11.1738 10.3535 11.1738 9.97559C11.1738 9.10547 11.7979 8.5166 12.8877 8.5166C13.5996 8.5166 13.9072 8.69238 14.1885 8.69238C14.54 8.69238 14.7246 8.49902 14.7246 8.17383C14.7246 7.91895 14.6016 7.72559 14.2852 7.58496C13.8896 7.41797 13.3799 7.33887 12.7646 7.33887C10.9189 7.33887 9.81152 8.37598 9.81152 9.9668C9.81152 10.3096 9.86426 10.6436 9.95215 10.9775H9.20508C8.90625 10.9775 8.69531 11.1709 8.69531 11.4609C8.69531 11.7598 8.90625 11.9531 9.20508 11.9531H10.1807C10.2422 12.208 10.2861 12.4541 10.2861 12.6738C10.2861 13.5352 9.77637 14.1064 9.19629 14.3086C8.8623 14.458 8.69531 14.6338 8.69531 14.9678C8.69531 15.3193 8.94141 15.5479 9.29297 15.5479Z" fill="#1C1C1E"/>
</g>
<defs>
<clipPath id="clip0_10_2149">
<rect width="24" height="24" fill="white"/>
</clipPath>
</defs>
</svg>
