<svg width="24" height="24" viewBox="0 0 24 24" fill="none" xmlns="http://www.w3.org/2000/svg">
<g clip-path="url(#clip0_10_1950)">
<path d="M11.9912 20.7422C16.9746 20.7422 21.0879 16.6289 21.0879 11.6543C21.0879 6.67969 16.9658 2.56641 11.9824 2.56641C7.00781 2.56641 2.90332 6.67969 2.90332 11.6543C2.90332 16.6289 7.0166 20.7422 11.9912 20.7422ZM11.9912 18.9316C7.95703 18.9316 4.73145 15.6885 4.73145 11.6543C4.73145 7.62012 7.95703 4.38574 11.9824 4.38574C16.0166 4.38574 19.2598 7.62012 19.2686 11.6543C19.2773 15.6885 16.0254 18.9316 11.9912 18.9316ZM11.9648 15.7148C12.5361 15.7148 12.8525 15.3369 12.8525 14.7305V9.00879H14.7773C15.2168 9.00879 15.5068 8.74512 15.5068 8.31445C15.5068 7.88379 15.2168 7.62012 14.7773 7.62012H9.1875C8.75684 7.62012 8.4668 7.88379 8.4668 8.31445C8.4668 8.74512 8.75684 9.00879 9.1875 9.00879H11.0947V14.7305C11.0947 15.3281 11.4023 15.7148 11.9648 15.7148Z" fill="#1C1C1E"/>
</g>
<defs>
<clipPath id="clip0_10_1950">
<rect width="24" height="24" fill="white"/>
</clipPath>
</defs>
</svg>
