<svg width="24" height="24" viewBox="0 0 24 24" fill="none" xmlns="http://www.w3.org/2000/svg">
<g clip-path="url(#clip0_10_1943)">
<path d="M11.9912 20.7422C16.9746 20.7422 21.0879 16.6289 21.0879 11.6543C21.0879 6.67969 16.9658 2.56641 11.9824 2.56641C7.00781 2.56641 2.90332 6.67969 2.90332 11.6543C2.90332 16.6289 7.0166 20.7422 11.9912 20.7422ZM11.9648 15.873C11.376 15.873 11.0508 15.46 11.0508 14.8359V8.91211H9.08203C8.625 8.91211 8.30859 8.63086 8.30859 8.18262C8.30859 7.7168 8.625 7.44434 9.08203 7.44434H14.8916C15.3486 7.44434 15.6562 7.7168 15.6562 8.18262C15.6562 8.63086 15.3486 8.91211 14.8916 8.91211H12.8965V14.8359C12.8965 15.4775 12.5713 15.873 11.9648 15.873Z" fill="#1C1C1E"/>
</g>
<defs>
<clipPath id="clip0_10_1943">
<rect width="24" height="24" fill="white"/>
</clipPath>
</defs>
</svg>
