<svg width="24" height="24" viewBox="0 0 24 24" fill="none" xmlns="http://www.w3.org/2000/svg">
<g clip-path="url(#clip0_10_2256)">
<path d="M6.67383 19.8809H17.3174C19.2246 19.8809 20.209 18.8965 20.209 17.0156V6.31934C20.209 4.43848 19.2246 3.4541 17.3174 3.4541H6.67383C4.77539 3.4541 3.78223 4.42969 3.78223 6.31934V17.0156C3.78223 18.8965 4.77539 19.8809 6.67383 19.8809ZM12 15.873C11.4111 15.873 11.0859 15.46 11.0859 14.8359V8.91211H9.11719C8.66016 8.91211 8.34375 8.63086 8.34375 8.18262C8.34375 7.7168 8.66016 7.44434 9.11719 7.44434H14.9268C15.3838 7.44434 15.6914 7.7168 15.6914 8.18262C15.6914 8.63086 15.3838 8.91211 14.9268 8.91211H12.9316V14.8359C12.9316 15.4775 12.6064 15.873 12 15.873Z" fill="#1C1C1E"/>
</g>
<defs>
<clipPath id="clip0_10_2256">
<rect width="24" height="24" fill="white"/>
</clipPath>
</defs>
</svg>
