<svg width="24" height="24" viewBox="0 0 24 24" fill="none" xmlns="http://www.w3.org/2000/svg">
<g clip-path="url(#clip0_10_1940)">
<path d="M6.67383 19.8809H17.3174C19.2246 19.8809 20.209 18.8965 20.209 17.0156V6.31934C20.209 4.43848 19.2246 3.4541 17.3174 3.4541H6.67383C4.77539 3.4541 3.78223 4.42969 3.78223 6.31934V17.0156C3.78223 18.8965 4.77539 19.8809 6.67383 19.8809ZM6.78809 18.1318C5.97949 18.1318 5.53125 17.71 5.53125 16.8574V6.47754C5.53125 5.625 5.97949 5.20312 6.78809 5.20312H17.2031C18.0029 5.20312 18.46 5.625 18.46 6.47754V16.8574C18.46 17.71 18.0029 18.1318 17.2031 18.1318H6.78809ZM11.9824 15.7061C12.5537 15.7061 12.8701 15.3281 12.8701 14.7217V9.00879H14.7949C15.2256 9.00879 15.5244 8.73633 15.5244 8.31445C15.5244 7.875 15.2256 7.62012 14.7949 7.62012H9.20508C8.77441 7.62012 8.47559 7.875 8.47559 8.31445C8.47559 8.73633 8.77441 9.00879 9.20508 9.00879H11.1123V14.7217C11.1123 15.3193 11.4199 15.7061 11.9824 15.7061Z" fill="#1C1C1E"/>
</g>
<defs>
<clipPath id="clip0_10_1940">
<rect width="24" height="24" fill="white"/>
</clipPath>
</defs>
</svg>
