<svg width="24" height="24" viewBox="0 0 24 24" fill="none" xmlns="http://www.w3.org/2000/svg">
<g clip-path="url(#clip0_10_2297)">
<path d="M6.67383 19.8809H17.3174C19.2246 19.8809 20.209 18.8965 20.209 17.0156V6.31934C20.209 4.43848 19.2246 3.4541 17.3174 3.4541H6.67383C4.77539 3.4541 3.78223 4.42969 3.78223 6.31934V17.0156C3.78223 18.8965 4.77539 19.8809 6.67383 19.8809ZM8.73926 8.0332C8.73926 7.77832 8.90625 7.60254 9.16113 7.60254H14.874C15.1289 7.60254 15.2959 7.77832 15.2959 8.0332C15.2959 8.2793 15.1289 8.46387 14.874 8.46387H9.16113C8.91504 8.46387 8.73926 8.2793 8.73926 8.0332ZM8.74805 9.77344C8.74805 9.43945 8.95898 9.20215 9.32812 9.20215H14.7158C15.0762 9.20215 15.2871 9.43945 15.2871 9.77344C15.2871 10.1162 15.085 10.3535 14.7158 10.3535H12.7383V15.4688C12.7383 15.9346 12.4395 16.1895 12.0264 16.1895C11.6133 16.1895 11.3145 15.9346 11.3145 15.4688V10.3535H9.32812C8.95898 10.3535 8.74805 10.1162 8.74805 9.77344Z" fill="#1C1C1E"/>
</g>
<defs>
<clipPath id="clip0_10_2297">
<rect width="24" height="24" fill="white"/>
</clipPath>
</defs>
</svg>
