<svg width="24" height="24" viewBox="0 0 24 24" fill="none" xmlns="http://www.w3.org/2000/svg">
<g clip-path="url(#clip0_10_2006)">
<path d="M11.9912 20.7422C16.9746 20.7422 21.0879 16.6289 21.0879 11.6543C21.0879 6.67969 16.9658 2.56641 11.9824 2.56641C7.00781 2.56641 2.90332 6.67969 2.90332 11.6543C2.90332 16.6289 7.0166 20.7422 11.9912 20.7422ZM11.9912 18.9316C7.95703 18.9316 4.73145 15.6885 4.73145 11.6543C4.73145 7.62012 7.95703 4.38574 11.9824 4.38574C16.0166 4.38574 19.2598 7.62012 19.2686 11.6543C19.2773 15.6885 16.0254 18.9316 11.9912 18.9316ZM11.9824 15.9082C12.3779 15.9082 12.6592 15.6445 12.6592 15.2051V13.3594L14.0742 12.7441C14.2764 12.6562 14.3643 12.5244 14.3643 12.3398C14.3643 12.1113 14.2061 11.9355 13.9688 11.9355C13.8984 11.9355 13.8193 11.9619 13.7578 11.9883L12.6592 12.4717V11.6719L14.0742 11.0566C14.2764 10.9688 14.3643 10.8369 14.3643 10.6523C14.3643 10.415 14.2061 10.248 13.9688 10.248C13.8984 10.248 13.8281 10.2656 13.7666 10.292L12.6592 10.7842V8.92969H14.6191C14.9883 8.92969 15.2432 8.68359 15.2432 8.32324C15.2432 7.96289 14.9883 7.7168 14.6191 7.7168H9.33691C8.97656 7.7168 8.71289 7.96289 8.71289 8.32324C8.71289 8.68359 8.97656 8.92969 9.33691 8.92969H11.2969V11.3115L9.89941 11.9268C9.69727 12.0146 9.60938 12.1377 9.60938 12.3223C9.60938 12.5596 9.77637 12.7266 10.0137 12.7266C10.084 12.7266 10.1543 12.709 10.2246 12.6826L11.2969 12.208V13.0078L9.89941 13.6143C9.69727 13.7021 9.60938 13.834 9.60938 14.0186C9.60938 14.2471 9.77637 14.4229 10.0137 14.4229C10.084 14.4229 10.1543 14.3965 10.2246 14.3701L11.2969 13.8955V15.2051C11.2969 15.6445 11.5869 15.9082 11.9824 15.9082Z" fill="#1C1C1E"/>
</g>
<defs>
<clipPath id="clip0_10_2006">
<rect width="24" height="24" fill="white"/>
</clipPath>
</defs>
</svg>
