<svg width="24" height="24" viewBox="0 0 24 24" fill="none" xmlns="http://www.w3.org/2000/svg">
<g clip-path="url(#clip0_10_2000)">
<path d="M6.67383 19.8809H17.3174C19.2246 19.8809 20.209 18.8965 20.209 17.0156V6.31934C20.209 4.43848 19.2246 3.4541 17.3174 3.4541H6.67383C4.77539 3.4541 3.78223 4.42969 3.78223 6.31934V17.0156C3.78223 18.8965 4.77539 19.8809 6.67383 19.8809ZM12.0176 16.0752C11.6045 16.0752 11.3057 15.8027 11.3057 15.3369V13.9834L10.1807 14.4844C10.1191 14.5107 10.0312 14.5283 9.96094 14.5283C9.71484 14.5283 9.54785 14.3525 9.54785 14.1064C9.54785 13.9219 9.64453 13.7812 9.84668 13.6934L11.3057 13.0605V12.2344L10.1807 12.7178C10.1191 12.7529 10.0312 12.7793 9.96094 12.7793C9.71484 12.7793 9.54785 12.5947 9.54785 12.3486C9.54785 12.1553 9.64453 12.0322 9.84668 11.9268L11.3057 11.3027V8.82422H9.2666C8.88867 8.82422 8.61621 8.56934 8.61621 8.19141C8.61621 7.81348 8.88867 7.55859 9.2666 7.55859H14.7686C15.1465 7.55859 15.4189 7.81348 15.4189 8.19141C15.4189 8.56934 15.1465 8.82422 14.7686 8.82422H12.7295V10.7402L13.8721 10.2393C13.9512 10.2129 14.0215 10.1865 14.083 10.1865C14.3291 10.1865 14.5049 10.3711 14.5049 10.6172C14.5049 10.8018 14.3994 10.9424 14.2061 11.0303L12.7295 11.6719V12.498L13.8633 11.9971C13.9336 11.9619 14.0127 11.9443 14.083 11.9443C14.3291 11.9443 14.5049 12.1289 14.5049 12.3662C14.5049 12.5596 14.3994 12.7002 14.2061 12.7881L12.7295 13.4297V15.3369C12.7295 15.8027 12.4307 16.0752 12.0176 16.0752Z" fill="#1C1C1E"/>
</g>
<defs>
<clipPath id="clip0_10_2000">
<rect width="24" height="24" fill="white"/>
</clipPath>
</defs>
</svg>
