<svg width="24" height="24" viewBox="0 0 24 24" fill="none" xmlns="http://www.w3.org/2000/svg">
<g clip-path="url(#clip0_10_2101)">
<path d="M11.9912 20.7422C16.9746 20.7422 21.0879 16.6289 21.0879 11.6543C21.0879 6.67969 16.9658 2.56641 11.9824 2.56641C7.00781 2.56641 2.90332 6.67969 2.90332 11.6543C2.90332 16.6289 7.0166 20.7422 11.9912 20.7422ZM11.9912 18.9316C7.95703 18.9316 4.73145 15.6885 4.73145 11.6543C4.73145 7.62012 7.95703 4.38574 11.9824 4.38574C16.0166 4.38574 19.2598 7.62012 19.2686 11.6543C19.2773 15.6885 16.0254 18.9316 11.9912 18.9316ZM11.1475 15.7061C13.626 15.7061 15.0762 13.9219 15.0762 12.3574C15.0762 11.9619 14.8301 11.6982 14.4521 11.6982C14.1182 11.6982 13.8896 11.9004 13.8193 12.3135C13.6699 13.4209 12.7822 14.4229 11.5078 14.4229V11.7949L13.2832 11.0742C13.4766 10.9951 13.5557 10.8721 13.5557 10.6787C13.5557 10.4414 13.3975 10.2744 13.1602 10.2744C13.0898 10.2744 13.0107 10.292 12.9316 10.3271L11.5078 10.9072V10.1162L13.2832 9.39551C13.4766 9.31641 13.5557 9.19336 13.5557 9C13.5557 8.7627 13.3975 8.5957 13.1602 8.5957C13.0898 8.5957 13.0107 8.61328 12.9316 8.64844L11.5078 9.22852V8.21777C11.5078 7.7959 11.2441 7.53223 10.8574 7.53223C10.4707 7.53223 10.2158 7.7959 10.2158 8.21777V9.73828L9.16992 10.1602C8.97656 10.2393 8.88867 10.3623 8.88867 10.5557C8.88867 10.793 9.05566 10.96 9.29297 10.96C9.36328 10.96 9.44238 10.9424 9.52148 10.9072L10.2158 10.626V11.417L9.16992 11.8389C8.97656 11.9268 8.88867 12.0498 8.88867 12.2344C8.88867 12.4717 9.05566 12.6475 9.29297 12.6475C9.36328 12.6475 9.44238 12.6211 9.52148 12.5947L10.2158 12.3047V14.8447C10.2158 15.3545 10.5322 15.7061 11.1475 15.7061Z" fill="#1C1C1E"/>
</g>
<defs>
<clipPath id="clip0_10_2101">
<rect width="24" height="24" fill="white"/>
</clipPath>
</defs>
</svg>
