<svg width="24" height="24" viewBox="0 0 24 24" fill="none" xmlns="http://www.w3.org/2000/svg">
<g clip-path="url(#clip0_10_2095)">
<path d="M6.67383 19.8809H17.3174C19.2246 19.8809 20.209 18.8965 20.209 17.0156V6.31934C20.209 4.43848 19.2246 3.4541 17.3174 3.4541H6.67383C4.77539 3.4541 3.78223 4.42969 3.78223 6.31934V17.0156C3.78223 18.8965 4.77539 19.8809 6.67383 19.8809ZM11.165 15.8555C10.5059 15.8555 10.1719 15.4951 10.1719 14.9502V12.3311L9.45117 12.6299C9.37207 12.6562 9.29297 12.6738 9.20508 12.6738C8.95898 12.6738 8.80078 12.498 8.80078 12.252C8.80078 12.0498 8.88867 11.9268 9.09082 11.8389L10.1719 11.3994V10.5732L9.45117 10.8721C9.37207 10.9072 9.29297 10.9248 9.20508 10.9248C8.95898 10.9248 8.80078 10.7578 8.80078 10.5029C8.80078 10.3096 8.88867 10.1777 9.09082 10.0898L10.1719 9.65039V8.07715C10.1719 7.6377 10.4443 7.35645 10.8486 7.35645C11.2529 7.35645 11.5254 7.6377 11.5254 8.07715V9.12305L13.0107 8.5166C13.0898 8.48145 13.1689 8.45508 13.248 8.45508C13.4941 8.45508 13.6611 8.63965 13.6611 8.88574C13.6611 9.08789 13.5732 9.21094 13.3711 9.29883L11.5254 10.0459V10.8633L13.0107 10.2656C13.0898 10.2305 13.1689 10.2129 13.248 10.2129C13.4941 10.2129 13.6611 10.3887 13.6611 10.6348C13.6611 10.8281 13.5732 10.96 13.3711 11.0391L11.5254 11.7949V14.5195C12.8438 14.5195 13.7666 13.4824 13.9248 12.3398C14.0039 11.9004 14.2324 11.6895 14.584 11.6895C14.9883 11.6895 15.2432 11.9707 15.2432 12.3838C15.2432 14.0186 13.7314 15.8555 11.165 15.8555Z" fill="#1C1C1E"/>
</g>
<defs>
<clipPath id="clip0_10_2095">
<rect width="24" height="24" fill="white"/>
</clipPath>
</defs>
</svg>
