<svg width="24" height="24" viewBox="0 0 24 24" fill="none" xmlns="http://www.w3.org/2000/svg">
<g clip-path="url(#clip0_10_2318)">
<path d="M11.9912 20.7422C16.9746 20.7422 21.0879 16.6289 21.0879 11.6543C21.0879 6.67969 16.9658 2.56641 11.9824 2.56641C7.00781 2.56641 2.90332 6.67969 2.90332 11.6543C2.90332 16.6289 7.0166 20.7422 11.9912 20.7422ZM11.1299 15.8555C10.4707 15.8555 10.1367 15.4951 10.1367 14.9502V12.3311L9.40723 12.6299C9.33691 12.6562 9.25781 12.6738 9.16992 12.6738C8.92383 12.6738 8.76562 12.498 8.76562 12.252C8.76562 12.0498 8.85352 11.9268 9.05566 11.8389L10.1367 11.3994V10.5732L9.40723 10.8721C9.33691 10.9072 9.25781 10.9248 9.16992 10.9248C8.92383 10.9248 8.76562 10.7578 8.76562 10.5029C8.76562 10.3096 8.85352 10.1777 9.05566 10.0898L10.1367 9.65039V8.07715C10.1367 7.6377 10.4092 7.35645 10.8135 7.35645C11.2178 7.35645 11.4902 7.6377 11.4902 8.07715V9.12305L12.9756 8.5166C13.0547 8.48145 13.1338 8.45508 13.2129 8.45508C13.459 8.45508 13.626 8.63965 13.626 8.88574C13.626 9.08789 13.5381 9.21094 13.3359 9.29883L11.4902 10.0459V10.8633L12.9756 10.2656C13.0547 10.2305 13.1338 10.2129 13.2129 10.2129C13.459 10.2129 13.626 10.3887 13.626 10.6348C13.626 10.8281 13.5381 10.96 13.3359 11.0391L11.4902 11.7949V14.5195C12.8086 14.5195 13.7314 13.4824 13.8809 12.3398C13.96 11.9004 14.1973 11.6895 14.5488 11.6895C14.9531 11.6895 15.208 11.9707 15.208 12.3838C15.208 14.0186 13.6963 15.8555 11.1299 15.8555Z" fill="#1C1C1E"/>
</g>
<defs>
<clipPath id="clip0_10_2318">
<rect width="24" height="24" fill="white"/>
</clipPath>
</defs>
</svg>
