<svg width="24" height="24" viewBox="0 0 24 24" fill="none" xmlns="http://www.w3.org/2000/svg">
<g clip-path="url(#clip0_10_2142)">
<path d="M11.9912 20.7422C16.9746 20.7422 21.0879 16.6289 21.0879 11.6543C21.0879 6.67969 16.9658 2.56641 11.9824 2.56641C7.00781 2.56641 2.90332 6.67969 2.90332 11.6543C2.90332 16.6289 7.0166 20.7422 11.9912 20.7422ZM11.9824 15.9258C9.82031 15.9258 8.36133 14.6953 8.36133 12.8057V8.31445C8.36133 7.69922 8.68652 7.33887 9.24023 7.33887C9.81152 7.33887 10.1279 7.69922 10.1279 8.31445V12.6299C10.1279 13.7549 10.8662 14.4668 11.9824 14.4668C13.0986 14.4668 13.8369 13.7549 13.8369 12.6299V8.31445C13.8369 7.69922 14.1621 7.33887 14.7158 7.33887C15.2871 7.33887 15.6123 7.69922 15.6123 8.31445V12.8057C15.6123 14.6953 14.1445 15.9258 11.9824 15.9258Z" fill="#1C1C1E"/>
</g>
<defs>
<clipPath id="clip0_10_2142">
<rect width="24" height="24" fill="white"/>
</clipPath>
</defs>
</svg>
