<svg width="24" height="24" viewBox="0 0 24 24" fill="none" xmlns="http://www.w3.org/2000/svg">
<g clip-path="url(#clip0_10_2251)">
<path d="M11.9912 20.7422C16.9746 20.7422 21.0879 16.6289 21.0879 11.6543C21.0879 6.67969 16.9658 2.56641 11.9824 2.56641C7.00781 2.56641 2.90332 6.67969 2.90332 11.6543C2.90332 16.6289 7.0166 20.7422 11.9912 20.7422ZM11.9912 18.9316C7.95703 18.9316 4.73145 15.6885 4.73145 11.6543C4.73145 7.62012 7.95703 4.38574 11.9824 4.38574C16.0166 4.38574 19.2598 7.62012 19.2686 11.6543C19.2773 15.6885 16.0254 18.9316 11.9912 18.9316ZM11.9824 15.7676C14.0566 15.7676 15.4629 14.5723 15.4629 12.7617V8.44629C15.4629 7.84863 15.1553 7.51465 14.6104 7.51465C14.083 7.51465 13.7754 7.85742 13.7754 8.44629V12.6035C13.7754 13.6846 13.0635 14.3789 11.9824 14.3789C10.9014 14.3789 10.1895 13.6846 10.1895 12.6035V8.44629C10.1895 7.85742 9.88184 7.51465 9.3457 7.51465C8.81836 7.51465 8.51074 7.84863 8.51074 8.44629V12.7617C8.51074 14.5723 9.9082 15.7676 11.9824 15.7676Z" fill="#1C1C1E"/>
</g>
<defs>
<clipPath id="clip0_10_2251">
<rect width="24" height="24" fill="white"/>
</clipPath>
</defs>
</svg>
