<svg width="24" height="24" viewBox="0 0 24 24" fill="none" xmlns="http://www.w3.org/2000/svg">
<g clip-path="url(#clip0_10_2244)">
<path d="M6.67383 19.8809H17.3174C19.2246 19.8809 20.209 18.8965 20.209 17.0156V6.31934C20.209 4.43848 19.2246 3.4541 17.3174 3.4541H6.67383C4.77539 3.4541 3.78223 4.42969 3.78223 6.31934V17.0156C3.78223 18.8965 4.77539 19.8809 6.67383 19.8809ZM6.78809 18.1318C5.97949 18.1318 5.53125 17.71 5.53125 16.8574V6.47754C5.53125 5.625 5.97949 5.20312 6.78809 5.20312H17.2031C18.0029 5.20312 18.46 5.625 18.46 6.47754V16.8574C18.46 17.71 18.0029 18.1318 17.2031 18.1318H6.78809ZM12 15.7588C14.0742 15.7588 15.4717 14.5723 15.4717 12.7617V8.4375C15.4717 7.84863 15.1641 7.50586 14.6279 7.50586C14.1006 7.50586 13.793 7.84863 13.793 8.4375V12.6035C13.793 13.6758 13.0811 14.3701 12 14.3701C10.9189 14.3701 10.207 13.6758 10.207 12.6035V8.4375C10.207 7.84863 9.89941 7.50586 9.36328 7.50586C8.83594 7.50586 8.52832 7.84863 8.52832 8.4375V12.7617C8.52832 14.5723 9.92578 15.7588 12 15.7588Z" fill="#1C1C1E"/>
</g>
<defs>
<clipPath id="clip0_10_2244">
<rect width="24" height="24" fill="white"/>
</clipPath>
</defs>
</svg>
