<svg width="24" height="24" viewBox="0 0 24 24" fill="none" xmlns="http://www.w3.org/2000/svg">
<g clip-path="url(#clip0_10_2239)">
<path d="M6.67383 19.8809H17.3174C19.2246 19.8809 20.209 18.8965 20.209 17.0156V6.31934C20.209 4.43848 19.2246 3.4541 17.3174 3.4541H6.67383C4.77539 3.4541 3.78223 4.42969 3.78223 6.31934V17.0156C3.78223 18.8965 4.77539 19.8809 6.67383 19.8809ZM12.0176 15.9258C9.85547 15.9258 8.39648 14.6953 8.39648 12.8057V8.31445C8.39648 7.69922 8.72168 7.33887 9.27539 7.33887C9.84668 7.33887 10.1631 7.69922 10.1631 8.31445V12.6299C10.1631 13.7549 10.9014 14.4668 12.0176 14.4668C13.1338 14.4668 13.8721 13.7549 13.8721 12.6299V8.31445C13.8721 7.69922 14.1973 7.33887 14.751 7.33887C15.3223 7.33887 15.6475 7.69922 15.6475 8.31445V12.8057C15.6475 14.6953 14.1797 15.9258 12.0176 15.9258Z" fill="#1C1C1E"/>
</g>
<defs>
<clipPath id="clip0_10_2239">
<rect width="24" height="24" fill="white"/>
</clipPath>
</defs>
</svg>
