<svg width="24" height="24" viewBox="0 0 24 24" fill="none" xmlns="http://www.w3.org/2000/svg">
<g clip-path="url(#clip0_10_2083)">
<path d="M11.9912 20.7422C16.9746 20.7422 21.0879 16.6289 21.0879 11.6543C21.0879 6.67969 16.9658 2.56641 11.9824 2.56641C7.00781 2.56641 2.90332 6.67969 2.90332 11.6543C2.90332 16.6289 7.0166 20.7422 11.9912 20.7422ZM11.9824 15.917C11.2529 15.917 10.8838 15.6182 10.6113 14.8711L8.29102 8.65723C8.23828 8.48145 8.21191 8.3584 8.21191 8.2002C8.21191 7.69043 8.58984 7.34766 9.12598 7.34766C9.62695 7.34766 9.89062 7.57617 10.0488 8.13867L11.9473 13.9658H12.0176L13.916 8.13867C14.0742 7.57617 14.3379 7.34766 14.8389 7.34766C15.375 7.34766 15.7529 7.68164 15.7529 8.19141C15.7529 8.34961 15.7266 8.48145 15.6738 8.65723L13.3623 14.8359C13.0986 15.5742 12.6943 15.917 11.9824 15.917Z" fill="#1C1C1E"/>
</g>
<defs>
<clipPath id="clip0_10_2083">
<rect width="24" height="24" fill="white"/>
</clipPath>
</defs>
</svg>
