<svg width="24" height="24" viewBox="0 0 24 24" fill="none" xmlns="http://www.w3.org/2000/svg">
<g clip-path="url(#clip0_10_2078)">
<path d="M11.9912 20.7422C16.9746 20.7422 21.0879 16.6289 21.0879 11.6543C21.0879 6.67969 16.9658 2.56641 11.9824 2.56641C7.00781 2.56641 2.90332 6.67969 2.90332 11.6543C2.90332 16.6289 7.0166 20.7422 11.9912 20.7422ZM11.9912 18.9316C7.95703 18.9316 4.73145 15.6885 4.73145 11.6543C4.73145 7.62012 7.95703 4.38574 11.9824 4.38574C16.0166 4.38574 19.2598 7.62012 19.2686 11.6543C19.2773 15.6885 16.0254 18.9316 11.9912 18.9316ZM11.9824 15.75C12.6592 15.75 13.0459 15.4336 13.292 14.7305L15.5244 8.77148C15.5771 8.5957 15.6035 8.47266 15.6035 8.32324C15.6035 7.83984 15.2432 7.51465 14.7334 7.51465C14.2588 7.51465 14.0039 7.73438 13.8545 8.27051L12.0176 13.8955H11.9473L10.1104 8.27051C9.96094 7.73438 9.70605 7.51465 9.23145 7.51465C8.72168 7.51465 8.36133 7.84863 8.36133 8.32324C8.36133 8.48145 8.3877 8.5957 8.44043 8.77148L10.6816 14.7568C10.9277 15.4688 11.2881 15.75 11.9824 15.75Z" fill="#1C1C1E"/>
</g>
<defs>
<clipPath id="clip0_10_2078">
<rect width="24" height="24" fill="white"/>
</clipPath>
</defs>
</svg>
