<svg width="24" height="24" viewBox="0 0 24 24" fill="none" xmlns="http://www.w3.org/2000/svg">
<g clip-path="url(#clip0_10_2116)">
<path d="M6.67383 19.8809H17.3174C19.2246 19.8809 20.209 18.8965 20.209 17.0156V6.31934C20.209 4.43848 19.2246 3.4541 17.3174 3.4541H6.67383C4.77539 3.4541 3.78223 4.42969 3.78223 6.31934V17.0156C3.78223 18.8965 4.77539 19.8809 6.67383 19.8809ZM6.78809 18.1318C5.97949 18.1318 5.53125 17.71 5.53125 16.8574V6.47754C5.53125 5.625 5.97949 5.20312 6.78809 5.20312H17.2031C18.0029 5.20312 18.46 5.625 18.46 6.47754V16.8574C18.46 17.71 18.0029 18.1318 17.2031 18.1318H6.78809ZM12 15.75C12.6768 15.75 13.0635 15.4248 13.3096 14.7305L15.5332 8.7627C15.5947 8.58691 15.6211 8.46387 15.6211 8.31445C15.6211 7.83984 15.2607 7.51465 14.751 7.51465C14.2764 7.51465 14.0215 7.73438 13.8633 8.26172L12.0264 13.8867H11.9648L10.1279 8.26172C9.96973 7.73438 9.71484 7.51465 9.24023 7.51465C8.73926 7.51465 8.37891 7.83984 8.37891 8.32324C8.37891 8.47266 8.40527 8.5957 8.45801 8.7627L10.6992 14.748C10.9453 15.46 11.3057 15.75 12 15.75Z" fill="#1C1C1E"/>
</g>
<defs>
<clipPath id="clip0_10_2116">
<rect width="24" height="24" fill="white"/>
</clipPath>
</defs>
</svg>
