<svg width="24" height="24" viewBox="0 0 24 24" fill="none" xmlns="http://www.w3.org/2000/svg">
<g clip-path="url(#clip0_10_2160)">
<path d="M6.67383 19.8809H17.3174C19.2246 19.8809 20.209 18.8965 20.209 17.0156V6.31934C20.209 4.43848 19.2246 3.4541 17.3174 3.4541H6.67383C4.77539 3.4541 3.78223 4.42969 3.78223 6.31934V17.0156C3.78223 18.8965 4.77539 19.8809 6.67383 19.8809ZM12.0176 15.917C11.2881 15.917 10.9189 15.6182 10.6465 14.8711L8.33496 8.65723C8.27344 8.48145 8.24707 8.3584 8.24707 8.2002C8.24707 7.69043 8.625 7.34766 9.16113 7.34766C9.66211 7.34766 9.92578 7.57617 10.084 8.13867L11.9824 13.9658H12.0527L13.9512 8.13867C14.1094 7.57617 14.373 7.34766 14.874 7.34766C15.4102 7.34766 15.7881 7.68164 15.7881 8.19141C15.7881 8.34961 15.7705 8.48145 15.709 8.65723L13.3975 14.8359C13.1338 15.5742 12.7295 15.917 12.0176 15.917Z" fill="#1C1C1E"/>
</g>
<defs>
<clipPath id="clip0_10_2160">
<rect width="24" height="24" fill="white"/>
</clipPath>
</defs>
</svg>
