<svg width="24" height="24" viewBox="0 0 24 24" fill="none" xmlns="http://www.w3.org/2000/svg">
<g clip-path="url(#clip0_10_2120)">
<path d="M11.9912 20.7422C16.9746 20.7422 21.0879 16.6289 21.0879 11.6543C21.0879 6.67969 16.9658 2.56641 11.9824 2.56641C7.00781 2.56641 2.90332 6.67969 2.90332 11.6543C2.90332 16.6289 7.0166 20.7422 11.9912 20.7422ZM9.5918 15.917C9.03809 15.917 8.68652 15.627 8.56348 15.0732L6.91113 8.41113C6.88477 8.31445 6.87598 8.21777 6.87598 8.12988C6.87598 7.67285 7.19238 7.34766 7.66699 7.34766C8.15039 7.34766 8.39648 7.59375 8.50195 8.16504L9.67969 13.6055H9.75L11.1123 8.05957C11.2178 7.61133 11.499 7.3916 11.9736 7.3916C12.457 7.3916 12.7383 7.62012 12.8438 8.06836L14.2061 13.6055H14.2764L15.4541 8.16504C15.5596 7.59375 15.8145 7.34766 16.2979 7.34766C16.7725 7.34766 17.0801 7.67285 17.0801 8.12988C17.0801 8.21777 17.0801 8.31445 17.0449 8.41113L15.3926 15.0732C15.2695 15.627 14.918 15.917 14.3555 15.917C13.8105 15.917 13.4326 15.627 13.3096 15.0732L12.0088 9.87012H11.9473L10.6377 15.0732C10.5146 15.627 10.1455 15.917 9.5918 15.917Z" fill="#1C1C1E"/>
</g>
<defs>
<clipPath id="clip0_10_2120">
<rect width="24" height="24" fill="white"/>
</clipPath>
</defs>
</svg>
