<svg width="24" height="24" viewBox="0 0 24 24" fill="none" xmlns="http://www.w3.org/2000/svg">
<g clip-path="url(#clip0_10_2108)">
<path d="M11.9912 20.7422C16.9746 20.7422 21.0879 16.6289 21.0879 11.6543C21.0879 6.67969 16.9658 2.56641 11.9824 2.56641C7.00781 2.56641 2.90332 6.67969 2.90332 11.6543C2.90332 16.6289 7.0166 20.7422 11.9912 20.7422ZM11.9912 18.9316C7.95703 18.9316 4.73145 15.6885 4.73145 11.6543C4.73145 7.62012 7.95703 4.38574 11.9824 4.38574C16.0166 4.38574 19.2598 7.62012 19.2686 11.6543C19.2773 15.6885 16.0254 18.9316 11.9912 18.9316ZM9.68848 15.75C10.2158 15.75 10.5674 15.4775 10.6816 14.9502L11.9473 9.92285H12.0088L13.2656 14.9502C13.3887 15.4775 13.7402 15.75 14.2676 15.75C14.8037 15.75 15.1289 15.4775 15.252 14.9502L16.8516 8.53418C16.8779 8.4375 16.8867 8.34961 16.8867 8.27051C16.8867 7.83105 16.5879 7.51465 16.1309 7.51465C15.665 7.51465 15.4365 7.75195 15.3311 8.29688L14.1885 13.5439H14.1182L12.8086 8.20898C12.7031 7.77832 12.4307 7.55859 11.9736 7.55859C11.5254 7.55859 11.2529 7.76953 11.1475 8.20898L9.8291 13.5439H9.76758L8.63379 8.29688C8.51953 7.75195 8.29102 7.51465 7.83398 7.51465C7.37695 7.51465 7.07812 7.83105 7.07812 8.27051C7.07812 8.34961 7.07812 8.4375 7.11328 8.53418L8.69531 14.9502C8.82715 15.4775 9.15234 15.75 9.68848 15.75Z" fill="#1C1C1E"/>
</g>
<defs>
<clipPath id="clip0_10_2108">
<rect width="24" height="24" fill="white"/>
</clipPath>
</defs>
</svg>
