<svg width="24" height="24" viewBox="0 0 24 24" fill="none" xmlns="http://www.w3.org/2000/svg">
<g clip-path="url(#clip0_10_2146)">
<path d="M6.67383 19.8809H17.3174C19.2246 19.8809 20.209 18.8965 20.209 17.0156V6.31934C20.209 4.43848 19.2246 3.4541 17.3174 3.4541H6.67383C4.77539 3.4541 3.78223 4.42969 3.78223 6.31934V17.0156C3.78223 18.8965 4.77539 19.8809 6.67383 19.8809ZM9.62695 15.917C9.07324 15.917 8.72168 15.627 8.59863 15.0732L6.94629 8.41113C6.91992 8.31445 6.91113 8.21777 6.91113 8.12988C6.91113 7.67285 7.22754 7.34766 7.70215 7.34766C8.18555 7.34766 8.43164 7.59375 8.53711 8.16504L9.71484 13.6055H9.78516L11.1475 8.05957C11.2529 7.61133 11.5342 7.3916 12.0088 7.3916C12.4922 7.3916 12.7734 7.62012 12.8789 8.06836L14.2412 13.6055H14.3115L15.4893 8.16504C15.6035 7.59375 15.8496 7.34766 16.333 7.34766C16.8076 7.34766 17.1152 7.67285 17.1152 8.12988C17.1152 8.21777 17.1152 8.31445 17.0801 8.41113L15.4277 15.0732C15.3047 15.627 14.9531 15.917 14.3906 15.917C13.8457 15.917 13.4678 15.627 13.3447 15.0732L12.0439 9.87012H11.9824L10.6729 15.0732C10.5586 15.627 10.1807 15.917 9.62695 15.917Z" fill="#1C1C1E"/>
</g>
<defs>
<clipPath id="clip0_10_2146">
<rect width="24" height="24" fill="white"/>
</clipPath>
</defs>
</svg>
