<svg width="24" height="24" viewBox="0 0 24 24" fill="none" xmlns="http://www.w3.org/2000/svg">
<g clip-path="url(#clip0_10_2273)">
<path d="M6.67383 19.8809H17.3174C19.2246 19.8809 20.209 18.8965 20.209 17.0156V6.31934C20.209 4.43848 19.2246 3.4541 17.3174 3.4541H6.67383C4.77539 3.4541 3.78223 4.42969 3.78223 6.31934V17.0156C3.78223 18.8965 4.77539 19.8809 6.67383 19.8809ZM6.78809 18.1318C5.97949 18.1318 5.53125 17.71 5.53125 16.8574V6.47754C5.53125 5.625 5.97949 5.20312 6.78809 5.20312H17.2031C18.0029 5.20312 18.46 5.625 18.46 6.47754V16.8574C18.46 17.71 18.0029 18.1318 17.2031 18.1318H6.78809ZM8.24707 11.5049C8.24707 11.7334 8.42285 11.918 8.65137 11.918H9.14355L9.6709 15.2754C9.74121 15.6709 10.0312 15.8994 10.4004 15.8994C10.7695 15.8994 11.0596 15.6797 11.1211 15.2754L11.6572 11.9092H12.3428L12.8877 15.2754C12.9492 15.6797 13.248 15.8994 13.6172 15.8994C13.9775 15.8994 14.2764 15.6709 14.3379 15.2754L14.8564 11.9092H15.3398C15.5859 11.9092 15.7529 11.7246 15.7529 11.4961C15.7529 11.2588 15.5859 11.083 15.3398 11.083H14.9883L15.3926 8.44629C15.4102 8.34961 15.4189 8.26172 15.4189 8.17383C15.4189 7.81348 15.1641 7.59375 14.8125 7.59375C14.4961 7.59375 14.2236 7.78711 14.1885 8.12988L13.8281 11.083H13.1689L12.6943 8.20898C12.6416 7.83105 12.3428 7.60254 11.9912 7.60254C11.6309 7.60254 11.3408 7.83105 11.2881 8.21777L10.8135 11.0918H10.1807L9.8291 8.13867C9.79395 7.7959 9.53027 7.60254 9.19629 7.60254C8.83594 7.60254 8.57227 7.83105 8.57227 8.18262C8.57227 8.28809 8.58984 8.37598 8.60742 8.48145L9.01172 11.0918H8.65137C8.42285 11.0918 8.24707 11.2588 8.24707 11.5049ZM11.7891 11.0918L12 9.60645L12.2197 11.0918H11.7891ZM10.2686 11.9092H10.708L10.4531 13.6846L10.2686 11.9092ZM13.2832 11.9092H13.749L13.5469 13.7285L13.2832 11.9092Z" fill="#1C1C1E"/>
</g>
<defs>
<clipPath id="clip0_10_2273">
<rect width="24" height="24" fill="white"/>
</clipPath>
</defs>
</svg>
