<svg width="24" height="24" viewBox="0 0 24 24" fill="none" xmlns="http://www.w3.org/2000/svg">
<g clip-path="url(#clip0_10_2245)">
<path d="M11.9912 20.7422C16.9746 20.7422 21.0879 16.6289 21.0879 11.6543C21.0879 6.67969 16.9658 2.56641 11.9824 2.56641C7.00781 2.56641 2.90332 6.67969 2.90332 11.6543C2.90332 16.6289 7.0166 20.7422 11.9912 20.7422ZM8.07129 11.4961C8.07129 11.2412 8.25586 11.0654 8.50195 11.0654H8.87109L8.44922 8.3584C8.43164 8.24414 8.41406 8.15625 8.41406 8.05078C8.41406 7.67285 8.68652 7.43555 9.07324 7.43555C9.41602 7.43555 9.69727 7.6377 9.73242 7.99805L10.0928 11.0654H10.752L11.2354 8.07715C11.2969 7.67285 11.5957 7.43555 11.9736 7.43555C12.3428 7.43555 12.6592 7.67285 12.7207 8.07715L13.1953 11.0566H13.8809L14.25 7.98926C14.2939 7.62891 14.5752 7.42676 14.9092 7.42676C15.2783 7.42676 15.5508 7.65527 15.5508 8.0332C15.5508 8.12109 15.5332 8.21777 15.5244 8.32324L15.0938 11.0566H15.4629C15.7178 11.0566 15.8936 11.2412 15.8936 11.4873C15.8936 11.7334 15.7178 11.9268 15.4629 11.9268H14.9531L14.417 15.416C14.3555 15.8291 14.0479 16.0664 13.6699 16.0664C13.2744 16.0664 12.9668 15.8379 12.9053 15.4072L12.334 11.9268H11.6309L11.0771 15.4072C11.0156 15.8379 10.708 16.0664 10.3213 16.0664C9.93457 16.0664 9.62695 15.8291 9.55664 15.4072L9.01172 11.9355H8.50195C8.25586 11.9355 8.07129 11.7334 8.07129 11.4961ZM11.7715 11.0654H12.2109L11.9912 9.52734L11.7715 11.0654ZM10.1895 11.918L10.374 13.7549L10.6377 11.918H10.1895ZM13.3184 11.918L13.5996 13.7988L13.8018 11.918H13.3184Z" fill="#1C1C1E"/>
</g>
<defs>
<clipPath id="clip0_10_2245">
<rect width="24" height="24" fill="white"/>
</clipPath>
</defs>
</svg>
