<svg width="24" height="24" viewBox="0 0 24 24" fill="none" xmlns="http://www.w3.org/2000/svg">
<g clip-path="url(#clip0_10_2213)">
<path d="M6.67383 19.8809H17.3174C19.2246 19.8809 20.209 18.8965 20.209 17.0156V6.31934C20.209 4.43848 19.2246 3.4541 17.3174 3.4541H6.67383C4.77539 3.4541 3.78223 4.42969 3.78223 6.31934V17.0156C3.78223 18.8965 4.77539 19.8809 6.67383 19.8809ZM6.78809 18.1318C5.97949 18.1318 5.53125 17.71 5.53125 16.8574V6.47754C5.53125 5.625 5.97949 5.20312 6.78809 5.20312H17.2031C18.0029 5.20312 18.46 5.625 18.46 6.47754V16.8574C18.46 17.71 18.0029 18.1318 17.2031 18.1318H6.78809ZM9.45117 15.6797C9.79395 15.6797 9.96973 15.5566 10.2334 15.1699L11.9561 12.7002H12L13.7051 15.1699C13.96 15.5566 14.1445 15.6797 14.4873 15.6797C14.9531 15.6797 15.2783 15.3721 15.2783 14.9326C15.2783 14.7217 15.2168 14.5547 15.0762 14.3613L13.0283 11.5928L15.085 8.79785C15.2432 8.5957 15.3047 8.42871 15.3047 8.23535C15.3047 7.81348 14.9707 7.50586 14.5225 7.50586C14.1885 7.50586 13.9863 7.62891 13.749 7.99805L12.1055 10.4766H12.0527L10.3477 7.98926C10.1104 7.62891 9.9082 7.50586 9.56543 7.50586C9.1084 7.50586 8.76562 7.83105 8.76562 8.26172C8.76562 8.48145 8.82715 8.63965 8.99414 8.85938L10.9629 11.5576L8.88867 14.3965C8.73926 14.5986 8.68652 14.748 8.68652 14.959C8.68652 15.3721 9.01172 15.6797 9.45117 15.6797Z" fill="#1C1C1E"/>
</g>
<defs>
<clipPath id="clip0_10_2213">
<rect width="24" height="24" fill="white"/>
</clipPath>
</defs>
</svg>
