<svg width="24" height="24" viewBox="0 0 24 24" fill="none" xmlns="http://www.w3.org/2000/svg">
<g clip-path="url(#clip0_10_2211)">
<path d="M6.67383 19.8809H17.3174C19.2246 19.8809 20.209 18.8965 20.209 17.0156V6.31934C20.209 4.43848 19.2246 3.4541 17.3174 3.4541H6.67383C4.77539 3.4541 3.78223 4.42969 3.78223 6.31934V17.0156C3.78223 18.8965 4.77539 19.8809 6.67383 19.8809ZM9.37207 15.8467C8.90625 15.8467 8.56348 15.5215 8.56348 15.082C8.56348 14.8623 8.625 14.7041 8.7832 14.4932L10.9277 11.5576L8.88867 8.7627C8.71289 8.52539 8.64258 8.36719 8.64258 8.12988C8.64258 7.68164 9.01172 7.33887 9.48633 7.33887C9.84668 7.33887 10.0576 7.4707 10.3125 7.84863L12.0703 10.4238H12.123L13.8369 7.85742C14.0742 7.4707 14.2852 7.33887 14.6455 7.33887C15.1113 7.33887 15.4629 7.66406 15.4629 8.10352C15.4629 8.30566 15.4014 8.49023 15.2344 8.70117L13.1074 11.5928L15.2168 14.458C15.375 14.6689 15.4453 14.8359 15.4453 15.0557C15.4453 15.5215 15.0938 15.8467 14.6016 15.8467C14.25 15.8467 14.0479 15.7061 13.7842 15.3105L12.0264 12.7529H11.9736L10.1982 15.3105C9.91699 15.7148 9.73242 15.8467 9.37207 15.8467Z" fill="#1C1C1E"/>
</g>
<defs>
<clipPath id="clip0_10_2211">
<rect width="24" height="24" fill="white"/>
</clipPath>
</defs>
</svg>
