<svg width="24" height="24" viewBox="0 0 24 24" fill="none" xmlns="http://www.w3.org/2000/svg">
<g clip-path="url(#clip0_10_2207)">
<path d="M11.9912 20.7422C16.9746 20.7422 21.0879 16.6289 21.0879 11.6543C21.0879 6.67969 16.9658 2.56641 11.9824 2.56641C7.00781 2.56641 2.90332 6.67969 2.90332 11.6543C2.90332 16.6289 7.0166 20.7422 11.9912 20.7422ZM11.9824 15.8467C11.4023 15.8467 11.0771 15.4424 11.0771 14.8184V12.8057L8.60742 8.63086C8.51074 8.46387 8.4668 8.29688 8.4668 8.12988C8.4668 7.68164 8.81836 7.33887 9.30176 7.33887C9.71484 7.33887 9.92578 7.48828 10.1543 7.93652L11.9648 11.1533H12.0264L13.8457 7.93652C14.0654 7.49707 14.2764 7.33887 14.6807 7.33887C15.1641 7.33887 15.5068 7.67285 15.5068 8.13867C15.5068 8.30566 15.4629 8.47266 15.3574 8.63086L12.9053 12.7881V14.8184C12.9053 15.46 12.5801 15.8467 11.9824 15.8467Z" fill="#1C1C1E"/>
</g>
<defs>
<clipPath id="clip0_10_2207">
<rect width="24" height="24" fill="white"/>
</clipPath>
</defs>
</svg>
