<svg width="24" height="24" viewBox="0 0 24 24" fill="none" xmlns="http://www.w3.org/2000/svg">
<g clip-path="url(#clip0_10_2205)">
<path d="M6.67383 19.8809H17.3174C19.2246 19.8809 20.209 18.8965 20.209 17.0156V6.31934C20.209 4.43848 19.2246 3.4541 17.3174 3.4541H6.67383C4.77539 3.4541 3.78223 4.42969 3.78223 6.31934V17.0156C3.78223 18.8965 4.77539 19.8809 6.67383 19.8809ZM6.78809 18.1318C5.97949 18.1318 5.53125 17.71 5.53125 16.8574V6.47754C5.53125 5.625 5.97949 5.20312 6.78809 5.20312H17.2031C18.0029 5.20312 18.46 5.625 18.46 6.47754V16.8574C18.46 17.71 18.0029 18.1318 17.2031 18.1318H6.78809ZM12 15.6797C12.5625 15.6797 12.8789 15.3105 12.8789 14.7041V12.7354L15.2432 8.73633C15.3398 8.58691 15.3838 8.41992 15.3838 8.27051C15.3838 7.83105 15.0498 7.50586 14.5928 7.50586C14.2148 7.50586 14.0127 7.64648 13.8018 8.07715L12.0439 11.1709H11.9824L10.2246 8.07715C10.0049 7.64648 9.81152 7.50586 9.41602 7.50586C8.95898 7.50586 8.61621 7.83105 8.61621 8.25293C8.61621 8.41992 8.66016 8.56934 8.75684 8.73633L11.1387 12.7529V14.7041C11.1387 15.3018 11.4463 15.6797 12 15.6797Z" fill="#1C1C1E"/>
</g>
<defs>
<clipPath id="clip0_10_2205">
<rect width="24" height="24" fill="white"/>
</clipPath>
</defs>
</svg>
