<svg width="24" height="24" viewBox="0 0 24 24" fill="none" xmlns="http://www.w3.org/2000/svg">
<g clip-path="url(#clip0_10_2203)">
<path d="M6.67383 19.8809H17.3174C19.2246 19.8809 20.209 18.8965 20.209 17.0156V6.31934C20.209 4.43848 19.2246 3.4541 17.3174 3.4541H6.67383C4.77539 3.4541 3.78223 4.42969 3.78223 6.31934V17.0156C3.78223 18.8965 4.77539 19.8809 6.67383 19.8809ZM12.0176 15.8467C11.4375 15.8467 11.1123 15.4424 11.1123 14.8184V12.8057L8.64258 8.63086C8.5459 8.46387 8.50195 8.29688 8.50195 8.12988C8.50195 7.68164 8.85352 7.33887 9.33691 7.33887C9.75 7.33887 9.96094 7.48828 10.1895 7.93652L12 11.1533H12.0615L13.8809 7.93652C14.1006 7.49707 14.3115 7.33887 14.7158 7.33887C15.1992 7.33887 15.542 7.67285 15.542 8.13867C15.542 8.30566 15.498 8.47266 15.3926 8.63086L12.9404 12.7881V14.8184C12.9404 15.46 12.6152 15.8467 12.0176 15.8467Z" fill="#1C1C1E"/>
</g>
<defs>
<clipPath id="clip0_10_2203">
<rect width="24" height="24" fill="white"/>
</clipPath>
</defs>
</svg>
