<svg width="24" height="24" viewBox="0 0 24 24" fill="none" xmlns="http://www.w3.org/2000/svg">
<g clip-path="url(#clip0_10_2342)">
<path d="M6.67383 19.8809H17.3174C19.2246 19.8809 20.209 18.8965 20.209 17.0156V6.31934C20.209 4.43848 19.2246 3.4541 17.3174 3.4541H6.67383C4.77539 3.4541 3.78223 4.42969 3.78223 6.31934V17.0156C3.78223 18.8965 4.77539 19.8809 6.67383 19.8809ZM12.0264 16.1895C11.6045 16.1895 11.332 15.8994 11.332 15.4424V14.3613H9.68848C9.43359 14.3613 9.25781 14.1768 9.25781 13.9307C9.25781 13.6846 9.43359 13.5 9.68848 13.5H11.332V12.832H9.68848C9.43359 12.832 9.25781 12.6387 9.25781 12.3926C9.25781 12.1465 9.43359 11.9619 9.68848 11.9619H10.8926L8.7832 8.54297C8.68652 8.38477 8.64258 8.24414 8.64258 8.07715C8.64258 7.69922 8.9502 7.40918 9.35449 7.40918C9.63574 7.40918 9.83789 7.51465 10.0049 7.80469L12.0352 11.3203L14.0566 7.81348C14.2148 7.53223 14.4346 7.40918 14.707 7.40918C15.1113 7.40918 15.4102 7.69922 15.4102 8.07715C15.4102 8.24414 15.3662 8.38477 15.2695 8.54297L13.1514 11.9619H14.3906C14.6455 11.9619 14.8213 12.1465 14.8213 12.3926C14.8213 12.6387 14.6455 12.832 14.3906 12.832H12.7295V13.5H14.3906C14.6455 13.5 14.8213 13.6846 14.8213 13.9307C14.8213 14.1768 14.6455 14.3613 14.3906 14.3613H12.7295V15.4512C12.7295 15.9082 12.457 16.1895 12.0264 16.1895Z" fill="#1C1C1E"/>
</g>
<defs>
<clipPath id="clip0_10_2342">
<rect width="24" height="24" fill="white"/>
</clipPath>
</defs>
</svg>
