<svg width="24" height="24" viewBox="0 0 24 24" fill="none" xmlns="http://www.w3.org/2000/svg">
<g clip-path="url(#clip0_10_2158)">
<path d="M11.9912 20.7422C16.9746 20.7422 21.0879 16.6289 21.0879 11.6543C21.0879 6.67969 16.9658 2.56641 11.9824 2.56641C7.00781 2.56641 2.90332 6.67969 2.90332 11.6543C2.90332 16.6289 7.0166 20.7422 11.9912 20.7422ZM11.9912 16.1895C11.5693 16.1895 11.2969 15.8994 11.2969 15.4424V14.3613H9.65332C9.39844 14.3613 9.22266 14.1768 9.22266 13.9307C9.22266 13.6846 9.39844 13.5 9.65332 13.5H11.2969V12.832H9.65332C9.39844 12.832 9.22266 12.6387 9.22266 12.3926C9.22266 12.1465 9.39844 11.9619 9.65332 11.9619H10.8574L8.74805 8.54297C8.65137 8.38477 8.60742 8.24414 8.60742 8.07715C8.60742 7.69922 8.91504 7.40918 9.31934 7.40918C9.60059 7.40918 9.80273 7.51465 9.96094 7.80469L12 11.3203L14.0215 7.81348C14.1797 7.53223 14.3906 7.40918 14.6719 7.40918C15.0762 7.40918 15.375 7.69922 15.375 8.07715C15.375 8.24414 15.3311 8.38477 15.2344 8.54297L13.1162 11.9619H14.3555C14.6104 11.9619 14.7861 12.1465 14.7861 12.3926C14.7861 12.6387 14.6104 12.832 14.3555 12.832H12.6943V13.5H14.3555C14.6104 13.5 14.7861 13.6846 14.7861 13.9307C14.7861 14.1768 14.6104 14.3613 14.3555 14.3613H12.6943V15.4512C12.6943 15.9082 12.4219 16.1895 11.9912 16.1895Z" fill="#1C1C1E"/>
</g>
<defs>
<clipPath id="clip0_10_2158">
<rect width="24" height="24" fill="white"/>
</clipPath>
</defs>
</svg>
