<svg width="24" height="24" viewBox="0 0 24 24" fill="none" xmlns="http://www.w3.org/2000/svg">
<g clip-path="url(#clip0_10_2154)">
<path d="M6.67383 19.8809H17.3174C19.2246 19.8809 20.209 18.8965 20.209 17.0156V6.31934C20.209 4.43848 19.2246 3.4541 17.3174 3.4541H6.67383C4.77539 3.4541 3.78223 4.42969 3.78223 6.31934V17.0156C3.78223 18.8965 4.77539 19.8809 6.67383 19.8809ZM6.78809 18.1318C5.97949 18.1318 5.53125 17.71 5.53125 16.8574V6.47754C5.53125 5.625 5.97949 5.20312 6.78809 5.20312H17.2031C18.0029 5.20312 18.46 5.625 18.46 6.47754V16.8574C18.46 17.71 18.0029 18.1318 17.2031 18.1318H6.78809ZM12.0088 16.0137C12.4131 16.0137 12.6768 15.7412 12.6768 15.3193V14.2559H14.2764C14.5225 14.2559 14.6807 14.0801 14.6807 13.8428C14.6807 13.6055 14.5225 13.4297 14.2764 13.4297H12.6768V12.7793H14.2764C14.5225 12.7793 14.6807 12.6035 14.6807 12.3662C14.6807 12.1289 14.5225 11.9443 14.2764 11.9443H13.0811L15.1201 8.65723C15.208 8.50781 15.252 8.37598 15.252 8.21777C15.252 7.85742 14.9619 7.58496 14.5752 7.58496C14.3203 7.58496 14.1182 7.69043 13.9775 7.96289L12.0176 11.3467L10.0488 7.9541C9.89941 7.68164 9.70605 7.57617 9.43359 7.57617C9.04688 7.57617 8.75684 7.85742 8.75684 8.21777C8.75684 8.36719 8.80078 8.50781 8.88867 8.65723L10.9277 11.9443H9.76758C9.52148 11.9443 9.35449 12.1289 9.35449 12.3662C9.35449 12.6035 9.52148 12.7793 9.76758 12.7793H11.3408V13.4297H9.76758C9.52148 13.4297 9.35449 13.6055 9.35449 13.8428C9.35449 14.0801 9.52148 14.2559 9.76758 14.2559H11.3408V15.3105C11.3408 15.7412 11.6045 16.0137 12.0088 16.0137Z" fill="#1C1C1E"/>
</g>
<defs>
<clipPath id="clip0_10_2154">
<rect width="24" height="24" fill="white"/>
</clipPath>
</defs>
</svg>
