<svg width="24" height="24" viewBox="0 0 24 24" fill="none" xmlns="http://www.w3.org/2000/svg">
<g clip-path="url(#clip0_10_2163)">
<path d="M11.9912 20.7422C16.9746 20.7422 21.0879 16.6289 21.0879 11.6543C21.0879 6.67969 16.9658 2.56641 11.9824 2.56641C7.00781 2.56641 2.90332 6.67969 2.90332 11.6543C2.90332 16.6289 7.0166 20.7422 11.9912 20.7422ZM11.9912 18.9316C7.95703 18.9316 4.73145 15.6885 4.73145 11.6543C4.73145 7.62012 7.95703 4.38574 11.9824 4.38574C16.0166 4.38574 19.2598 7.62012 19.2686 11.6543C19.2773 15.6885 16.0254 18.9316 11.9912 18.9316ZM11.9912 16.0225C12.3955 16.0225 12.6592 15.75 12.6592 15.3193V14.2646H14.2588C14.5049 14.2646 14.6631 14.0801 14.6631 13.8428C14.6631 13.6143 14.5049 13.4297 14.2588 13.4297H12.6592V12.7881H14.2588C14.5049 12.7881 14.6631 12.6035 14.6631 12.3662C14.6631 12.1377 14.5049 11.9531 14.2588 11.9531H13.0635L15.1025 8.66602C15.1992 8.5166 15.2344 8.37598 15.2344 8.22656C15.2344 7.86621 14.9531 7.58496 14.5664 7.58496C14.3027 7.58496 14.1006 7.69922 13.96 7.97168L12 11.3467L10.0312 7.96289C9.88184 7.69043 9.68848 7.58496 9.4248 7.58496C9.0293 7.58496 8.74805 7.85742 8.74805 8.21777C8.74805 8.37598 8.7832 8.5166 8.87988 8.66602L10.9102 11.9531H9.75C9.50391 11.9531 9.33691 12.1377 9.33691 12.3662C9.33691 12.6035 9.50391 12.7881 9.75 12.7881H11.3232V13.4297H9.75C9.50391 13.4297 9.33691 13.6143 9.33691 13.8428C9.33691 14.0801 9.50391 14.2646 9.75 14.2646H11.3232V15.3193C11.3232 15.75 11.5869 16.0225 11.9912 16.0225Z" fill="#1C1C1E"/>
</g>
<defs>
<clipPath id="clip0_10_2163">
<rect width="24" height="24" fill="white"/>
</clipPath>
</defs>
</svg>
