<svg width="24" height="24" viewBox="0 0 24 24" fill="none" xmlns="http://www.w3.org/2000/svg">
<g clip-path="url(#clip0_10_2199)">
<path d="M11.9912 20.7422C16.9746 20.7422 21.0879 16.6289 21.0879 11.6543C21.0879 6.67969 16.9658 2.56641 11.9824 2.56641C7.00781 2.56641 2.90332 6.67969 2.90332 11.6543C2.90332 16.6289 7.0166 20.7422 11.9912 20.7422ZM9.46875 15.7236C8.99414 15.7236 8.66895 15.4072 8.66895 14.9678C8.66895 14.6953 8.74805 14.5195 8.98535 14.1943L12.8438 8.98242V8.89453H9.37207C8.91504 8.89453 8.59863 8.63086 8.59863 8.17383C8.59863 7.73438 8.91504 7.46191 9.37207 7.46191H14.2764C14.7598 7.46191 15.0938 7.78711 15.0938 8.23535C15.0938 8.52539 15.0322 8.68359 14.7949 8.98242L10.9365 14.2031V14.291H14.6104C15.0762 14.291 15.3838 14.5459 15.3838 15.0029C15.3838 15.4424 15.0674 15.7236 14.6104 15.7236H9.46875Z" fill="#1C1C1E"/>
</g>
<defs>
<clipPath id="clip0_10_2199">
<rect width="24" height="24" fill="white"/>
</clipPath>
</defs>
</svg>
