<svg width="24" height="24" viewBox="0 0 24 24" fill="none" xmlns="http://www.w3.org/2000/svg">
<g clip-path="url(#clip0_10_2195)">
<path d="M6.67383 19.8809H17.3174C19.2246 19.8809 20.209 18.8965 20.209 17.0156V6.31934C20.209 4.43848 19.2246 3.4541 17.3174 3.4541H6.67383C4.77539 3.4541 3.78223 4.42969 3.78223 6.31934V17.0156C3.78223 18.8965 4.77539 19.8809 6.67383 19.8809ZM6.78809 18.1318C5.97949 18.1318 5.53125 17.71 5.53125 16.8574V6.47754C5.53125 5.625 5.97949 5.20312 6.78809 5.20312H17.2031C18.0029 5.20312 18.46 5.625 18.46 6.47754V16.8574C18.46 17.71 18.0029 18.1318 17.2031 18.1318H6.78809ZM9.58301 15.5654H14.5312C14.9619 15.5654 15.2607 15.3018 15.2607 14.8799C15.2607 14.4492 14.9619 14.1943 14.5312 14.1943H10.9805V14.1152L14.6982 9.07031C14.9268 8.78906 14.9883 8.63965 14.9883 8.36719C14.9883 7.92773 14.6631 7.62012 14.2061 7.62012H9.48633C9.04688 7.62012 8.75684 7.88379 8.75684 8.30566C8.75684 8.72754 9.05566 8.99121 9.48633 8.99121H12.8438V9.06152L9.11719 14.1064C8.88867 14.4141 8.81836 14.5898 8.81836 14.8447C8.81836 15.2666 9.13477 15.5654 9.58301 15.5654Z" fill="#1C1C1E"/>
</g>
<defs>
<clipPath id="clip0_10_2195">
<rect width="24" height="24" fill="white"/>
</clipPath>
</defs>
</svg>
