<svg width="24" height="24" viewBox="0 0 24 24" fill="none" xmlns="http://www.w3.org/2000/svg">
<g clip-path="url(#clip0_10_2197)">
<path d="M6.67383 19.8809H17.3174C19.2246 19.8809 20.209 18.8965 20.209 17.0156V6.31934C20.209 4.43848 19.2246 3.4541 17.3174 3.4541H6.67383C4.77539 3.4541 3.78223 4.42969 3.78223 6.31934V17.0156C3.78223 18.8965 4.77539 19.8809 6.67383 19.8809ZM9.50391 15.7236C9.0293 15.7236 8.7041 15.4072 8.7041 14.9678C8.7041 14.6953 8.7832 14.5195 9.02051 14.1943L12.8789 8.98242V8.89453H9.40723C8.9502 8.89453 8.64258 8.63086 8.64258 8.17383C8.64258 7.73438 8.9502 7.46191 9.40723 7.46191H14.3115C14.7949 7.46191 15.1289 7.78711 15.1289 8.23535C15.1289 8.52539 15.0674 8.68359 14.8301 8.98242L10.9717 14.2031V14.291H14.6455C15.1113 14.291 15.4189 14.5459 15.4189 15.0029C15.4189 15.4424 15.1025 15.7236 14.6455 15.7236H9.50391Z" fill="#1C1C1E"/>
</g>
<defs>
<clipPath id="clip0_10_2197">
<rect width="24" height="24" fill="white"/>
</clipPath>
</defs>
</svg>
