<svg width="24" height="24" viewBox="0 0 24 24" fill="none" xmlns="http://www.w3.org/2000/svg">
<g clip-path="url(#clip0_10_1365)">
<path d="M11.9912 20.7422C16.9746 20.7422 21.0879 16.6289 21.0879 11.6543C21.0879 6.67969 16.9658 2.56641 11.9824 2.56641C7.00781 2.56641 2.90332 6.67969 2.90332 11.6543C2.90332 16.6289 7.0166 20.7422 11.9912 20.7422ZM11.9912 18.9316C7.95703 18.9316 4.73145 15.6885 4.73145 11.6543C4.73145 7.62012 7.95703 4.38574 11.9824 4.38574C16.0166 4.38574 19.2598 7.62012 19.2686 11.6543C19.2773 15.6885 16.0254 18.9316 11.9912 18.9316ZM8.3877 13.4648C8.3877 13.7021 8.55469 13.8779 8.80078 13.8779H9.23145L8.8623 14.9678C8.82715 15.0996 8.80957 15.1963 8.80957 15.2842C8.80957 15.6445 9.08203 15.8906 9.47754 15.8906C9.82031 15.8906 10.0225 15.7236 10.1191 15.3896L10.5938 13.8779H13.3623L13.8369 15.3984C13.9336 15.7324 14.127 15.8906 14.4873 15.8906C14.874 15.8906 15.1465 15.6445 15.1465 15.2842C15.1465 15.1963 15.1289 15.0996 15.085 14.9678L14.7158 13.8779H15.1641C15.4102 13.8779 15.5771 13.7021 15.5771 13.4648C15.5771 13.2275 15.4102 13.0518 15.1641 13.0518H14.4521L14.2236 12.3398H15.1641C15.4102 12.3398 15.5771 12.1553 15.5771 11.918C15.5771 11.6895 15.4102 11.5049 15.1641 11.5049H13.9512L12.8613 8.16504C12.7295 7.75195 12.4307 7.49707 11.9824 7.49707C11.5166 7.49707 11.2178 7.74316 11.0859 8.16504L9.99609 11.5049H8.80078C8.55469 11.5049 8.3877 11.6895 8.3877 11.918C8.3877 12.1553 8.55469 12.3398 8.80078 12.3398H9.72363L9.49512 13.0518H8.80078C8.55469 13.0518 8.3877 13.2275 8.3877 13.4648ZM11.2969 11.5049L11.9824 9.29004L12.6592 11.5049H11.2969ZM10.8311 13.0518L11.0508 12.3398H12.9053L13.125 13.0518H10.8311Z" fill="#1C1C1E"/>
</g>
<defs>
<clipPath id="clip0_10_1365">
<rect width="24" height="24" fill="white"/>
</clipPath>
</defs>
</svg>
