<svg width="24" height="24" viewBox="0 0 24 24" fill="none" xmlns="http://www.w3.org/2000/svg">
<g clip-path="url(#clip0_10_1458)">
<path d="M6.9375 19.8809H17.2734C18.9697 19.8809 19.9541 18.8965 19.9541 17.0156V7.91895C19.9541 6.03809 18.9609 5.05371 17.0625 5.05371H15.8232C15.7793 3.08496 14.1006 1.4502 12 1.4502C9.9082 1.4502 8.2207 3.08496 8.17676 5.05371H6.9375C5.03906 5.05371 4.0459 6.03809 4.0459 7.91895V17.0156C4.0459 18.8965 5.03906 19.8809 6.9375 19.8809ZM12 3.00586C13.2041 3.00586 14.0918 3.91113 14.127 5.05371H9.87305C9.9082 3.91113 10.7959 3.00586 12 3.00586Z" fill="#1C1C1E"/>
</g>
<defs>
<clipPath id="clip0_10_1458">
<rect width="24" height="24" fill="white"/>
</clipPath>
</defs>
</svg>
