<svg width="24" height="24" viewBox="0 0 24 24" fill="none" xmlns="http://www.w3.org/2000/svg">
<g clip-path="url(#clip0_10_1453)">
<path d="M11.9912 20.7422C16.9746 20.7422 21.0879 16.6289 21.0879 11.6543C21.0879 6.67969 16.9658 2.56641 11.9824 2.56641C7.00781 2.56641 2.90332 6.67969 2.90332 11.6543C2.90332 16.6289 7.0166 20.7422 11.9912 20.7422ZM11.9912 18.9316C7.95703 18.9316 4.73145 15.6885 4.73145 11.6543C4.73145 7.62012 7.95703 4.38574 11.9824 4.38574C16.0166 4.38574 19.2598 7.62012 19.2686 11.6543C19.2773 15.6885 16.0254 18.9316 11.9912 18.9316ZM7.96582 14.5107C7.96582 15.46 8.47559 15.9521 9.43359 15.9521H14.6631C15.5244 15.9521 16.0166 15.46 16.0166 14.5107V9.89648C16.0166 8.95605 15.5156 8.46387 14.5488 8.46387H13.916C13.8984 7.46191 13.0547 6.64453 11.9912 6.64453C10.9365 6.64453 10.0928 7.46191 10.0664 8.46387H9.43359C8.47559 8.46387 7.96582 8.94727 7.96582 9.89648V14.5107ZM11.0156 8.46387C11.0332 7.88379 11.4023 7.51465 11.9912 7.51465C12.5889 7.51465 12.958 7.88379 12.9756 8.46387H11.0156Z" fill="#1C1C1E"/>
</g>
<defs>
<clipPath id="clip0_10_1453">
<rect width="24" height="24" fill="white"/>
</clipPath>
</defs>
</svg>
