<svg width="24" height="24" viewBox="0 0 24 24" fill="none" xmlns="http://www.w3.org/2000/svg">
<g clip-path="url(#clip0_10_1460)">
<path d="M11.9912 20.7598C16.9746 20.7598 21.0879 16.6465 21.0879 11.6631C21.0879 6.68848 16.9658 2.5752 11.9824 2.5752C7.00781 2.5752 2.90332 6.68848 2.90332 11.6631C2.90332 16.6465 7.0166 20.7598 11.9912 20.7598ZM7.79883 14.6514V9.85254C7.79883 8.85938 8.32617 8.3584 9.32812 8.3584H9.97852C10.0049 7.3125 10.8838 6.45996 11.9912 6.45996C13.0898 6.45996 13.9775 7.3125 13.9951 8.3584H14.6455C15.6475 8.3584 16.1748 8.86816 16.1748 9.85254V14.6514C16.1748 15.627 15.6562 16.1455 14.7686 16.1455H9.32812C8.32617 16.1455 7.79883 15.627 7.79883 14.6514ZM10.9717 8.3584H13.002C12.9844 7.76074 12.5977 7.37402 11.9912 7.37402C11.376 7.37402 10.9893 7.76074 10.9717 8.3584Z" fill="#1C1C1E"/>
</g>
<defs>
<clipPath id="clip0_10_1460">
<rect width="24" height="24" fill="white"/>
</clipPath>
</defs>
</svg>
