<svg width="24" height="24" viewBox="0 0 24 24" fill="none" xmlns="http://www.w3.org/2000/svg">
<g clip-path="url(#clip0_10_1359)">
<path d="M11.9912 20.7422C16.9746 20.7422 21.0879 16.6289 21.0879 11.6543C21.0879 6.67969 16.9658 2.56641 11.9824 2.56641C7.00781 2.56641 2.90332 6.67969 2.90332 11.6543C2.90332 16.6289 7.0166 20.7422 11.9912 20.7422ZM11.9912 18.9316C7.95703 18.9316 4.73145 15.6885 4.73145 11.6543C4.73145 7.62012 7.95703 4.38574 11.9824 4.38574C16.0166 4.38574 19.2598 7.62012 19.2686 11.6543C19.2773 15.6885 16.0254 18.9316 11.9912 18.9316ZM12.1055 16.708C12.334 16.708 12.5098 16.541 12.5098 16.3037V15.7236H12.6855C14.3115 15.7236 15.3398 14.8359 15.3398 13.4297C15.3398 12.4893 14.751 11.751 13.8633 11.4873C14.5049 11.1797 14.9619 10.5029 14.9619 9.77344C14.9619 8.56934 14.0479 7.7168 12.668 7.7168H12.5098V7.08398C12.5098 6.83789 12.334 6.6709 12.1055 6.6709C11.8682 6.6709 11.6924 6.83789 11.6924 7.08398V7.7168H10.3564C9.89062 7.7168 9.58301 8.0332 9.58301 8.50781V14.9414C9.58301 15.416 9.88184 15.7236 10.3564 15.7236H11.6924V16.3037C11.6924 16.541 11.8682 16.708 12.1055 16.708ZM10.9189 11.0566V8.85938H11.6924V11.0566H10.9189ZM12.5098 11.0215V8.87695C13.248 8.93848 13.6436 9.29883 13.6436 9.91406C13.6436 10.5293 13.2568 10.916 12.5098 11.0215ZM10.9189 14.5811V12.1465H11.6924V14.5723L10.9189 14.5811ZM12.5098 14.5723V12.1553C13.5029 12.2168 13.9951 12.6211 13.9951 13.3594C13.9951 14.1152 13.5029 14.5283 12.5098 14.5723Z" fill="#1C1C1E"/>
</g>
<defs>
<clipPath id="clip0_10_1359">
<rect width="24" height="24" fill="white"/>
</clipPath>
</defs>
</svg>
