<svg width="24" height="24" viewBox="0 0 24 24" fill="none" xmlns="http://www.w3.org/2000/svg">
<g clip-path="url(#clip0_10_1357)">
<path d="M6.67383 19.8809H17.3174C19.2246 19.8809 20.209 18.8965 20.209 17.0156V6.31934C20.209 4.43848 19.2246 3.4541 17.3174 3.4541H6.67383C4.77539 3.4541 3.78223 4.42969 3.78223 6.31934V17.0156C3.78223 18.8965 4.77539 19.8809 6.67383 19.8809ZM6.78809 18.1318C5.97949 18.1318 5.53125 17.71 5.53125 16.8574V6.47754C5.53125 5.625 5.97949 5.20312 6.78809 5.20312H17.2031C18.0029 5.20312 18.46 5.625 18.46 6.47754V16.8574C18.46 17.71 18.0029 18.1318 17.2031 18.1318H6.78809ZM12.1143 16.708C12.3516 16.708 12.5273 16.5322 12.5273 16.2949V15.7148H12.7031C14.3291 15.7148 15.3574 14.8271 15.3574 13.4209C15.3574 12.4805 14.7686 11.7422 13.8809 11.4785C14.5225 11.1709 14.9707 10.4941 14.9707 9.76465C14.9707 8.56934 14.0654 7.7168 12.6855 7.7168H12.5273V7.0752C12.5273 6.83789 12.3516 6.66211 12.1143 6.66211C11.8857 6.66211 11.71 6.83789 11.71 7.0752V7.7168H10.3652C9.9082 7.7168 9.5918 8.02441 9.5918 8.50781V14.9326C9.5918 15.416 9.89941 15.7148 10.374 15.7148H11.71V16.2949C11.71 16.5322 11.8857 16.708 12.1143 16.708ZM10.9277 11.0566L10.9365 8.85059H11.71V11.0566H10.9277ZM12.5273 11.0127V8.86816C13.2568 8.92969 13.6611 9.29883 13.6611 9.90527C13.6611 10.5293 13.2656 10.916 12.5273 11.0127ZM10.9365 14.5723V12.1465H11.71V14.5723H10.9365ZM12.5273 14.5635V12.1553C13.5117 12.208 14.0127 12.6123 14.0127 13.3506C14.0127 14.1064 13.5205 14.5195 12.5273 14.5635Z" fill="#1C1C1E"/>
</g>
<defs>
<clipPath id="clip0_10_1357">
<rect width="24" height="24" fill="white"/>
</clipPath>
</defs>
</svg>
