<svg width="24" height="24" viewBox="0 0 24 24" fill="none" xmlns="http://www.w3.org/2000/svg">
<g clip-path="url(#clip0_10_1434)">
<path d="M0.407227 18.2373C0.407227 18.6855 0.706055 18.9932 1.16309 18.9932H22.8369C23.2939 18.9932 23.5928 18.6855 23.5928 18.2373V5.08008C23.5928 4.62305 23.2939 4.32422 22.8369 4.32422H1.16309C0.706055 4.32422 0.407227 4.62305 0.407227 5.08008V18.2373ZM2.26172 16.6553V6.66211C2.26172 6.33691 2.42871 6.17871 2.73633 6.17871H21.2725C21.5713 6.17871 21.7471 6.33691 21.7471 6.66211V16.6553C21.7471 16.9717 21.5713 17.1387 21.2725 17.1387H2.73633C2.42871 17.1387 2.26172 16.9717 2.26172 16.6553ZM3.22852 15.9697C3.22852 16.1016 3.29883 16.1631 3.42188 16.1631H9.96973C9.11719 15.249 8.61621 13.6582 8.61621 11.6455C8.61621 9.65039 9.11719 8.06836 9.96094 7.14551H3.42188C3.29883 7.14551 3.22852 7.21582 3.22852 7.33887V15.9697ZM14.0127 16.1631H20.5869C20.7012 16.1631 20.7715 16.1016 20.7715 15.9697V7.33887C20.7715 7.21582 20.7012 7.14551 20.5869 7.14551H14.0215C14.8916 8.06836 15.4014 9.65039 15.4014 11.6455C15.4014 13.6582 14.8828 15.249 14.0127 16.1631ZM9.72363 11.6455C9.72363 14.2734 10.6377 15.9697 11.9648 15.9697C13.3447 15.9697 14.2852 14.2734 14.2852 11.6455C14.2852 9.02637 13.3447 7.33887 11.9648 7.33887C10.6377 7.33887 9.72363 9.02637 9.72363 11.6455Z" fill="#1C1C1E"/>
</g>
<defs>
<clipPath id="clip0_10_1434">
<rect width="24" height="24" fill="white"/>
</clipPath>
</defs>
</svg>
