<svg width="24" height="24" viewBox="0 0 24 24" fill="none" xmlns="http://www.w3.org/2000/svg">
<g clip-path="url(#clip0_10_1439)">
<path d="M0.407227 18.2373C0.407227 18.6855 0.706055 18.9932 1.16309 18.9932H22.8369C23.2939 18.9932 23.5928 18.6855 23.5928 18.2373V5.08008C23.5928 4.62305 23.2939 4.32422 22.8369 4.32422H1.16309C0.706055 4.32422 0.407227 4.62305 0.407227 5.08008V18.2373ZM2.15625 16.9893V6.32812C2.15625 6.15234 2.23535 6.07324 2.41113 6.07324H21.5977C21.7734 6.07324 21.8438 6.15234 21.8438 6.32812V16.9893C21.8438 17.165 21.7734 17.2354 21.5977 17.2354H2.41113C2.23535 17.2354 2.15625 17.165 2.15625 16.9893ZM3.01758 15.917C3.01758 16.2158 3.18457 16.3828 3.47461 16.3828H20.5342C20.8242 16.3828 20.9912 16.2158 20.9912 15.917V7.40039C20.9912 7.10156 20.8242 6.93457 20.5342 6.93457H3.47461C3.18457 6.93457 3.01758 7.10156 3.01758 7.40039V15.917ZM3.94922 15.2666V8.05078C3.94922 7.92773 4.01074 7.86621 4.13379 7.86621H9.95215C9.21387 8.68359 8.73926 9.99316 8.73926 11.6455C8.73926 13.3066 9.21387 14.625 9.96094 15.4512H4.13379C4.01074 15.4512 3.94922 15.3809 3.94922 15.2666ZM15.2695 11.6455C15.2695 9.99316 14.7949 8.68359 14.0303 7.86621H19.875C19.9893 7.86621 20.0596 7.92773 20.0596 8.05078V15.2666C20.0596 15.3809 19.9893 15.4512 19.875 15.4512H14.0215C14.7861 14.625 15.2695 13.3066 15.2695 11.6455ZM11.9648 15.2754C10.7959 15.2754 9.80273 13.8779 9.80273 11.6455C9.80273 9.43066 10.7959 8.04199 11.9648 8.04199C13.1865 8.04199 14.2061 9.43066 14.2061 11.6455C14.2061 13.8779 13.1865 15.2754 11.9648 15.2754Z" fill="#1C1C1E"/>
</g>
<defs>
<clipPath id="clip0_10_1439">
<rect width="24" height="24" fill="white"/>
</clipPath>
</defs>
</svg>
