<svg width="24" height="24" viewBox="0 0 24 24" fill="none" xmlns="http://www.w3.org/2000/svg">
<g clip-path="url(#clip0_10_1348)">
<path d="M6.67383 19.8809H17.3174C19.2246 19.8809 20.209 18.8965 20.209 17.0156V6.31934C20.209 4.43848 19.2246 3.4541 17.3174 3.4541H6.67383C4.77539 3.4541 3.78223 4.42969 3.78223 6.31934V17.0156C3.78223 18.8965 4.77539 19.8809 6.67383 19.8809ZM9.4248 15.0205V8.5166C9.4248 8.02441 9.74121 7.70801 10.2158 7.70801H10.6377V7.01367C10.6377 6.76758 10.8135 6.60059 11.042 6.60059C11.2793 6.60059 11.4551 6.76758 11.4551 7.01367V7.70801H12.0352V7.01367C12.0352 6.76758 12.2109 6.60059 12.4395 6.60059C12.6768 6.60059 12.8525 6.76758 12.8525 7.01367V7.73438C14.1094 7.88379 14.8916 8.66602 14.8916 9.78223C14.8916 10.5205 14.4346 11.2148 13.7842 11.5137C14.6807 11.7861 15.2695 12.5332 15.2695 13.4912C15.2695 14.8096 14.3643 15.6621 12.8525 15.7939V16.5146C12.8525 16.7607 12.6768 16.9277 12.4395 16.9277C12.2109 16.9277 12.0352 16.7607 12.0352 16.5146V15.8115H11.4551V16.5146C11.4551 16.7607 11.2793 16.9277 11.042 16.9277C10.8135 16.9277 10.6377 16.7607 10.6377 16.5146V15.8115H10.2158C9.73242 15.8115 9.4248 15.5039 9.4248 15.0205ZM10.7959 11.0742L11.9561 11.083C12.958 11.0918 13.5205 10.6699 13.5205 9.92285C13.5205 9.24609 13.0195 8.85938 12.167 8.85938H10.7959V11.0742ZM10.7959 14.6514L12.2549 14.6426C13.3184 14.6338 13.8896 14.2207 13.8896 13.4121C13.8896 12.6123 13.3008 12.1992 12.1758 12.1992H10.7959V14.6514Z" fill="#1C1C1E"/>
</g>
<defs>
<clipPath id="clip0_10_1348">
<rect width="24" height="24" fill="white"/>
</clipPath>
</defs>
</svg>
