<svg width="24" height="24" viewBox="0 0 24 24" fill="none" xmlns="http://www.w3.org/2000/svg">
<g clip-path="url(#clip0_10_1444)">
<path d="M11.9912 20.7422C16.9746 20.7422 21.0879 16.6289 21.0879 11.6543C21.0879 6.67969 16.9658 2.56641 11.9824 2.56641C7.00781 2.56641 2.90332 6.67969 2.90332 11.6543C2.90332 16.6289 7.0166 20.7422 11.9912 20.7422ZM11.9912 18.9316C7.95703 18.9316 4.73145 15.6885 4.73145 11.6543C4.73145 7.62012 7.95703 4.38574 11.9824 4.38574C16.0166 4.38574 19.2598 7.62012 19.2686 11.6543C19.2773 15.6885 16.0254 18.9316 11.9912 18.9316ZM6.74414 8.41113C6.74414 8.70117 6.95508 8.91211 7.23633 8.91211H8.53711L9.19629 13.5C9.30176 14.1943 9.74121 14.5723 10.5146 14.5723H15.1992C15.4805 14.5723 15.6738 14.3789 15.6738 14.0801C15.6738 13.7988 15.4805 13.6055 15.1992 13.6055H10.5674C10.3389 13.6055 10.1982 13.4736 10.1631 13.2363L10.1191 12.9111H15.3926C16.0518 12.9111 16.3945 12.5156 16.4912 11.8564L16.8164 9.65918C16.8252 9.60645 16.834 9.52734 16.834 9.49219C16.834 9.24609 16.667 9.0791 16.3682 9.0791H9.54785L9.47754 8.54297C9.4248 8.15625 9.12598 7.90137 8.69531 7.90137H7.23633C6.95508 7.90137 6.74414 8.1123 6.74414 8.41113ZM9.89941 15.917C9.89941 16.3652 10.251 16.7168 10.6992 16.7168C11.1475 16.7168 11.499 16.3652 11.499 15.917C11.499 15.4688 11.1475 15.1172 10.6992 15.1172C10.251 15.1172 9.89941 15.4688 9.89941 15.917ZM13.6963 15.917C13.6963 16.3652 14.0566 16.7168 14.4961 16.7168C14.9443 16.7168 15.2959 16.3652 15.2959 15.917C15.2959 15.4688 14.9443 15.1172 14.4961 15.1172C14.0566 15.1172 13.6963 15.4688 13.6963 15.917Z" fill="#1C1C1E"/>
</g>
<defs>
<clipPath id="clip0_10_1444">
<rect width="24" height="24" fill="white"/>
</clipPath>
</defs>
</svg>
