<svg width="24" height="24" viewBox="0 0 24 24" fill="none" xmlns="http://www.w3.org/2000/svg">
<g clip-path="url(#clip0_10_1442)">
<path d="M11.9912 20.7598C16.9746 20.7598 21.0879 16.6465 21.0879 11.6631C21.0879 6.68848 16.9658 2.5752 11.9824 2.5752C7.00781 2.5752 2.90332 6.68848 2.90332 11.6631C2.90332 16.6465 7.0166 20.7598 11.9912 20.7598ZM6.55078 8.2793C6.55078 7.97168 6.77051 7.75195 7.06934 7.75195H8.58105C9.02051 7.75195 9.33691 8.01562 9.39844 8.41992L9.46875 8.96484H16.5439C16.8604 8.96484 17.0273 9.14062 17.0273 9.4043C17.0273 9.44824 17.0186 9.52734 17.0098 9.58008L16.6758 11.8564C16.5791 12.542 16.2188 12.9463 15.5244 12.9463H10.0576L10.1016 13.2891C10.1367 13.5352 10.2949 13.6758 10.5234 13.6758H15.3311C15.6211 13.6758 15.832 13.8691 15.832 14.168C15.832 14.4844 15.6211 14.6777 15.3311 14.6777H10.4707C9.66211 14.6777 9.19629 14.2822 9.09082 13.5527L8.40527 8.80664H7.06934C6.77051 8.80664 6.55078 8.58691 6.55078 8.2793ZM9.82031 16.0752C9.82031 15.6094 10.1895 15.2402 10.6553 15.2402C11.1211 15.2402 11.4902 15.6094 11.4902 16.0752C11.4902 16.541 11.1211 16.9014 10.6553 16.9014C10.1895 16.9014 9.82031 16.541 9.82031 16.0752ZM13.7578 16.0752C13.7578 15.6094 14.1357 15.2402 14.6016 15.2402C15.0674 15.2402 15.4365 15.6094 15.4365 16.0752C15.4365 16.541 15.0674 16.9014 14.6016 16.9014C14.1357 16.9014 13.7578 16.541 13.7578 16.0752Z" fill="#1C1C1E"/>
</g>
<defs>
<clipPath id="clip0_10_1442">
<rect width="24" height="24" fill="white"/>
</clipPath>
</defs>
</svg>
