<svg width="24" height="24" viewBox="0 0 24 24" fill="none" xmlns="http://www.w3.org/2000/svg">
<g clip-path="url(#clip0_10_1450)">
<path d="M8.73926 16.6553H18.9697C19.3828 16.6553 19.7607 16.3301 19.7607 15.8643C19.7607 15.4072 19.3828 15.082 18.9697 15.082H8.94141C8.51953 15.082 8.25586 14.792 8.19434 14.3438L8.0625 13.4297H19.04C20.3848 13.4297 21.0967 12.6123 21.29 11.2764L21.9492 6.87305C21.9668 6.75879 21.9844 6.60938 21.9844 6.5127C21.9844 5.99414 21.624 5.64258 21.0176 5.64258H6.92871L6.79688 4.69336C6.68262 3.92871 6.375 3.54199 5.39941 3.54199H2.38477C1.94531 3.54199 1.55859 3.92871 1.55859 4.37695C1.55859 4.83398 1.94531 5.2207 2.38477 5.2207H5.13574L6.49805 14.5195C6.69141 15.8467 7.39453 16.6553 8.73926 16.6553ZM20.1562 7.21582L19.6025 11.1182C19.5322 11.5664 19.2949 11.8477 18.8643 11.8477L7.83398 11.8564L7.15723 7.21582H20.1562ZM9.45996 21.0674C10.3125 21.0674 10.998 20.3818 10.998 19.5293C10.998 18.6768 10.3125 17.9912 9.45996 17.9912C8.60742 17.9912 7.92188 18.6768 7.92188 19.5293C7.92188 20.3818 8.60742 21.0674 9.45996 21.0674ZM17.5811 21.0674C18.4336 21.0674 19.1104 20.3818 19.1104 19.5293C19.1104 18.6768 18.4336 17.9912 17.5811 17.9912C16.7285 17.9912 16.0342 18.6768 16.0342 19.5293C16.0342 20.3818 16.7285 21.0674 17.5811 21.0674Z" fill="#1C1C1E"/>
</g>
<defs>
<clipPath id="clip0_10_1450">
<rect width="24" height="24" fill="white"/>
</clipPath>
</defs>
</svg>
