<svg width="24" height="24" viewBox="0 0 24 24" fill="none" xmlns="http://www.w3.org/2000/svg">
<g clip-path="url(#clip0_10_1333)">
<path d="M11.9912 20.7422C16.9746 20.7422 21.0879 16.6289 21.0879 11.6543C21.0879 6.67969 16.9658 2.56641 11.9824 2.56641C7.00781 2.56641 2.90332 6.67969 2.90332 11.6543C2.90332 16.6289 7.0166 20.7422 11.9912 20.7422ZM8.34375 11.6631C8.34375 9.21973 9.58301 7.62891 11.5518 7.40039V6.73242C11.5518 6.46875 11.7363 6.29297 11.9824 6.29297C12.2285 6.29297 12.4043 6.46875 12.4043 6.73242V7.3916C13.7051 7.50586 14.7158 8.25293 15.1465 9.31641C15.2168 9.49219 15.2607 9.67676 15.2607 9.84375C15.2607 10.2393 14.9971 10.5029 14.6104 10.5029C14.25 10.5029 14.0566 10.3623 13.9248 9.97559C13.7139 9.30762 13.1426 8.80664 12.4043 8.6748V14.6777C13.1865 14.5723 13.7754 14.0801 13.9775 13.3857C14.1006 13.0254 14.3115 12.8584 14.6543 12.8584C15.0586 12.8584 15.3223 13.1309 15.3223 13.5176C15.3223 13.6846 15.2783 13.8516 15.2256 14.0098C14.8301 15.0908 13.8018 15.8555 12.4043 15.9521V16.6201C12.4043 16.8838 12.2285 17.0596 11.9824 17.0596C11.7363 17.0596 11.5518 16.8838 11.5518 16.6201V15.9434C9.57422 15.7236 8.34375 14.1328 8.34375 11.6631ZM9.80273 11.6631C9.80273 13.2979 10.4531 14.3965 11.5518 14.6514V8.70117C10.4619 8.95605 9.80273 10.0547 9.80273 11.6631Z" fill="#1C1C1E"/>
</g>
<defs>
<clipPath id="clip0_10_1333">
<rect width="24" height="24" fill="white"/>
</clipPath>
</defs>
</svg>
