<svg width="24" height="24" viewBox="0 0 24 24" fill="none" xmlns="http://www.w3.org/2000/svg">
<g clip-path="url(#clip0_10_1331)">
<path d="M6.67383 19.8809H17.3174C19.2246 19.8809 20.209 18.8965 20.209 17.0156V6.31934C20.209 4.43848 19.2246 3.4541 17.3174 3.4541H6.67383C4.77539 3.4541 3.78223 4.42969 3.78223 6.31934V17.0156C3.78223 18.8965 4.77539 19.8809 6.67383 19.8809ZM8.37891 11.6631C8.37891 9.21973 9.61816 7.62891 11.5869 7.40039V6.73242C11.5869 6.46875 11.7715 6.29297 12.0176 6.29297C12.2637 6.29297 12.4395 6.46875 12.4395 6.73242V7.3916C13.7402 7.50586 14.751 8.25293 15.1816 9.31641C15.252 9.49219 15.2959 9.67676 15.2959 9.84375C15.2959 10.2393 15.0322 10.5029 14.6455 10.5029C14.2852 10.5029 14.0918 10.3623 13.96 9.97559C13.749 9.30762 13.1777 8.80664 12.4395 8.6748V14.6777C13.2217 14.5723 13.8105 14.0801 14.0127 13.3857C14.1357 13.0254 14.3467 12.8584 14.6895 12.8584C15.0938 12.8584 15.3574 13.1309 15.3574 13.5176C15.3574 13.6846 15.3223 13.8516 15.2607 14.0098C14.8652 15.0908 13.8369 15.8555 12.4395 15.9521V16.6201C12.4395 16.8838 12.2637 17.0596 12.0176 17.0596C11.7715 17.0596 11.5869 16.8838 11.5869 16.6201V15.9434C9.60938 15.7236 8.37891 14.1328 8.37891 11.6631ZM9.83789 11.6631C9.83789 13.2979 10.4883 14.3965 11.5869 14.6514V8.70117C10.4971 8.95605 9.83789 10.0547 9.83789 11.6631Z" fill="#1C1C1E"/>
</g>
<defs>
<clipPath id="clip0_10_1331">
<rect width="24" height="24" fill="white"/>
</clipPath>
</defs>
</svg>
