<svg width="24" height="24" viewBox="0 0 24 24" fill="none" xmlns="http://www.w3.org/2000/svg">
<g clip-path="url(#clip0_10_1427)">
<path d="M11.9912 20.7422C16.9746 20.7422 21.0879 16.6289 21.0879 11.6543C21.0879 6.67969 16.9658 2.56641 11.9824 2.56641C7.00781 2.56641 2.90332 6.67969 2.90332 11.6543C2.90332 16.6289 7.0166 20.7422 11.9912 20.7422ZM11.9912 18.9316C7.95703 18.9316 4.73145 15.6885 4.73145 11.6543C4.73145 7.62012 7.95703 4.38574 11.9824 4.38574C16.0166 4.38574 19.2598 7.62012 19.2686 11.6543C19.2773 15.6885 16.0254 18.9316 11.9912 18.9316ZM9.0293 11.6543C9.0293 13.4736 10.0137 14.6514 11.5693 14.8447V15.46C11.5693 15.7148 11.7451 15.8818 11.9824 15.8818C12.2197 15.8818 12.3955 15.7148 12.3955 15.46V14.8447C13.582 14.7217 14.3555 14.0449 14.584 13.2979C14.6104 13.21 14.6367 13.1045 14.6367 13.0078C14.6367 12.6475 14.3643 12.4102 14.0127 12.4102C13.7578 12.4102 13.5557 12.5596 13.4238 12.8232C13.2393 13.2539 12.8965 13.5615 12.3955 13.667V9.65039C12.8877 9.75586 13.2305 10.0723 13.4062 10.4941C13.5381 10.7578 13.7314 10.9072 14.0127 10.9072C14.373 10.9072 14.6191 10.6699 14.6191 10.3184C14.6191 10.2041 14.5928 10.0986 14.5664 10.002C14.3027 9.2373 13.5381 8.5957 12.3955 8.48145V7.85742C12.3955 7.62012 12.2197 7.44434 11.9824 7.44434C11.7451 7.44434 11.5693 7.62012 11.5693 7.85742V8.48145C10.0137 8.66602 9.0293 9.86133 9.0293 11.6543ZM10.3652 11.6631C10.3652 10.5645 10.8223 9.87012 11.5693 9.66797V13.6494C10.8223 13.4648 10.3652 12.7705 10.3652 11.6631Z" fill="#1C1C1E"/>
</g>
<defs>
<clipPath id="clip0_10_1427">
<rect width="24" height="24" fill="white"/>
</clipPath>
</defs>
</svg>
