<svg width="24" height="24" viewBox="0 0 24 24" fill="none" xmlns="http://www.w3.org/2000/svg">
<g clip-path="url(#clip0_10_1337)">
<path d="M11.9912 20.7422C16.9746 20.7422 21.0879 16.6289 21.0879 11.6543C21.0879 6.67969 16.9658 2.56641 11.9824 2.56641C7.00781 2.56641 2.90332 6.67969 2.90332 11.6543C2.90332 16.6289 7.0166 20.7422 11.9912 20.7422ZM8.25586 11.7246C8.25586 9.19336 9.60059 7.56738 11.71 7.44434L11.877 6.79395C11.9297 6.56543 12.0967 6.45117 12.3164 6.45117C12.5713 6.45117 12.7383 6.62695 12.7383 6.88184C12.7383 6.94336 12.7207 7.00488 12.7031 7.0752L12.6064 7.47949C12.8701 7.53223 13.1162 7.60254 13.3447 7.69922L13.5732 6.79395C13.6348 6.56543 13.793 6.45117 14.0039 6.45117C14.2588 6.45117 14.4346 6.62695 14.4346 6.88184C14.4346 6.95215 14.417 7.01367 14.3994 7.0752L14.1357 8.14746C14.54 8.47266 14.8564 8.88574 15.0586 9.37793C15.1289 9.55371 15.1729 9.72949 15.1729 9.90527C15.1729 10.3008 14.918 10.5645 14.5225 10.5645C14.1885 10.5645 14.0215 10.3623 13.9072 10.1162C13.8633 9.98438 13.793 9.86133 13.7227 9.79102L12.4922 14.6953C13.1777 14.5723 13.6963 14.0889 13.8984 13.4385C14.0127 13.1133 14.2236 12.9023 14.5664 12.9023C14.9795 12.9023 15.2432 13.1836 15.2432 13.5791C15.2432 13.7373 15.1992 13.9131 15.1465 14.0625C14.7334 15.2051 13.6348 15.9697 12.167 16.0225L11.9736 16.7959C11.9121 17.0244 11.7539 17.1299 11.5342 17.1299C11.2793 17.1299 11.1123 16.9629 11.1123 16.708C11.1123 16.6465 11.1211 16.585 11.1475 16.5059L11.2793 15.9785C11.0156 15.9346 10.7695 15.8643 10.541 15.7588L10.2773 16.7959C10.2246 17.0244 10.0576 17.1299 9.84668 17.1299C9.60059 17.1299 9.41602 16.9629 9.41602 16.6992C9.41602 16.6377 9.4248 16.5674 9.45117 16.5059L9.74121 15.3105C8.80078 14.5986 8.25586 13.3506 8.25586 11.7246ZM10.8574 14.458C11.0684 14.5986 11.3057 14.7041 11.5869 14.748L13.0195 9C12.8086 8.86816 12.5625 8.77148 12.2988 8.73633L10.8574 14.458ZM9.72363 11.7246C9.72363 12.498 9.87305 13.1484 10.1631 13.6406L11.376 8.79785C10.3477 9.0791 9.72363 10.1689 9.72363 11.7246Z" fill="#1C1C1E"/>
</g>
<defs>
<clipPath id="clip0_10_1337">
<rect width="24" height="24" fill="white"/>
</clipPath>
</defs>
</svg>
