<svg width="24" height="24" viewBox="0 0 24 24" fill="none" xmlns="http://www.w3.org/2000/svg">
<g clip-path="url(#clip0_10_1335)">
<path d="M6.67383 19.8809H17.3174C19.2246 19.8809 20.209 18.8965 20.209 17.0156V6.31934C20.209 4.43848 19.2246 3.4541 17.3174 3.4541H6.67383C4.77539 3.4541 3.78223 4.42969 3.78223 6.31934V17.0156C3.78223 18.8965 4.77539 19.8809 6.67383 19.8809ZM8.29102 11.7246C8.29102 9.19336 9.63574 7.56738 11.7539 7.44434L11.9121 6.79395C11.9648 6.56543 12.1406 6.45117 12.3516 6.45117C12.6064 6.45117 12.7822 6.62695 12.7822 6.88184C12.7822 6.94336 12.7559 7.00488 12.7383 7.0752L12.6416 7.47949C12.9053 7.53223 13.1514 7.60254 13.3799 7.69922L13.6084 6.79395C13.6699 6.56543 13.8281 6.45117 14.0391 6.45117C14.2939 6.45117 14.4697 6.62695 14.4697 6.88184C14.4697 6.95215 14.4521 7.01367 14.4346 7.0752L14.1709 8.14746C14.5752 8.47266 14.9004 8.88574 15.0938 9.37793C15.1641 9.55371 15.208 9.72949 15.208 9.90527C15.208 10.3008 14.9531 10.5645 14.5576 10.5645C14.2236 10.5645 14.0566 10.3623 13.9424 10.1162C13.8984 9.98438 13.8281 9.86133 13.7666 9.79102L12.5273 14.6953C13.2129 14.5723 13.7314 14.0889 13.9336 13.4385C14.0479 13.1133 14.2588 12.9023 14.6016 12.9023C15.0146 12.9023 15.2783 13.1836 15.2783 13.5791C15.2783 13.7373 15.2344 13.9131 15.1816 14.0625C14.7686 15.2051 13.6699 15.9697 12.2021 16.0225L12.0088 16.7959C11.9473 17.0244 11.7891 17.1299 11.5693 17.1299C11.3145 17.1299 11.1475 16.9629 11.1475 16.708C11.1475 16.6465 11.1562 16.585 11.1826 16.5059L11.3145 15.9785C11.0508 15.9346 10.8047 15.8643 10.5762 15.7588L10.3213 16.7959C10.2598 17.0244 10.0928 17.1299 9.88184 17.1299C9.63574 17.1299 9.45117 16.9629 9.45117 16.6992C9.45117 16.6377 9.45996 16.5674 9.48633 16.5059L9.77637 15.3105C8.83594 14.5986 8.29102 13.3506 8.29102 11.7246ZM10.8926 14.458C11.1035 14.5986 11.3408 14.7041 11.6221 14.748L13.0547 9C12.8438 8.86816 12.5977 8.77148 12.334 8.73633L10.8926 14.458ZM9.75879 11.7246C9.75879 12.498 9.9082 13.1484 10.1982 13.6406L11.4111 8.79785C10.3828 9.0791 9.75879 10.1689 9.75879 11.7246Z" fill="#1C1C1E"/>
</g>
<defs>
<clipPath id="clip0_10_1335">
<rect width="24" height="24" fill="white"/>
</clipPath>
</defs>
</svg>
