<svg width="24" height="24" viewBox="0 0 24 24" fill="none" xmlns="http://www.w3.org/2000/svg">
<g clip-path="url(#clip0_10_1435)">
<path d="M4.48535 19.2832H19.5059C21.4131 19.2832 22.3975 18.29 22.3975 16.4092V6.91699C22.3975 5.03613 21.4131 4.05176 19.5059 4.05176H4.48535C2.58691 4.05176 1.59375 5.03613 1.59375 6.91699V16.4092C1.59375 18.2988 2.58691 19.2832 4.48535 19.2832ZM3.34277 7.0752C3.34277 6.23145 3.79102 5.80957 4.59961 5.80957H19.3916C20.2002 5.80957 20.6484 6.23145 20.6484 7.0752V7.70801H3.34277V7.0752ZM4.59961 17.5254C3.79102 17.5254 3.34277 17.1035 3.34277 16.2598V9.77344H20.6484V16.2598C20.6484 17.1035 20.2002 17.5254 19.3916 17.5254H4.59961ZM5.79492 15.9346H7.94824C8.4668 15.9346 8.81836 15.5918 8.81836 15.0996V13.4648C8.81836 12.9727 8.4668 12.6299 7.94824 12.6299H5.79492C5.28516 12.6299 4.93359 12.9727 4.93359 13.4648V15.0996C4.93359 15.5918 5.28516 15.9346 5.79492 15.9346Z" fill="#1C1C1E"/>
</g>
<defs>
<clipPath id="clip0_10_1435">
<rect width="24" height="24" fill="white"/>
</clipPath>
</defs>
</svg>
