<svg width="24" height="24" viewBox="0 0 24 24" fill="none" xmlns="http://www.w3.org/2000/svg">
<g clip-path="url(#clip0_10_1449)">
<path d="M19.5059 4.05176H4.48535C2.58691 4.05176 1.59375 5.03613 1.59375 6.91699V7.70801H22.3975V6.91699C22.3975 5.03613 21.4131 4.05176 19.5059 4.05176ZM5.26758 16.4707C4.74902 16.4707 4.39746 16.1279 4.39746 15.627V14.001C4.39746 13.5088 4.74902 13.1572 5.26758 13.1572H7.4209C7.93066 13.1572 8.28223 13.5088 8.28223 14.001V15.627C8.28223 16.1279 7.93066 16.4707 7.4209 16.4707H5.26758ZM4.48535 19.2832H19.5059C21.4131 19.2832 22.3975 18.29 22.3975 16.4092V9.77344H1.59375V16.4092C1.59375 18.2988 2.58691 19.2832 4.48535 19.2832Z" fill="#1C1C1E"/>
</g>
<defs>
<clipPath id="clip0_10_1449">
<rect width="24" height="24" fill="white"/>
</clipPath>
</defs>
</svg>
