<svg width="24" height="24" viewBox="0 0 24 24" fill="none" xmlns="http://www.w3.org/2000/svg">
<g clip-path="url(#clip0_10_1446)">
<path d="M11.9912 20.7422C16.9746 20.7422 21.0879 16.6289 21.0879 11.6543C21.0879 6.67969 16.9658 2.56641 11.9824 2.56641C7.00781 2.56641 2.90332 6.67969 2.90332 11.6543C2.90332 16.6289 7.0166 20.7422 11.9912 20.7422ZM11.9912 18.9316C7.95703 18.9316 4.73145 15.6885 4.73145 11.6543C4.73145 7.62012 7.95703 4.38574 11.9824 4.38574C16.0166 4.38574 19.2598 7.62012 19.2686 11.6543C19.2773 15.6885 16.0254 18.9316 11.9912 18.9316ZM16.9482 9.77344V9.4043C16.9482 8.50781 16.4736 8.04199 15.5771 8.04199H8.40527C7.5 8.04199 7.02539 8.50781 7.02539 9.4043V9.77344H16.9482ZM7.02539 10.7578V13.9307C7.02539 14.8271 7.5 15.293 8.40527 15.293H15.5771C16.4736 15.293 16.9482 14.8271 16.9482 13.9307V10.7578H7.02539ZM8.7832 13.957C8.53711 13.957 8.37012 13.7988 8.37012 13.5615V12.7793C8.37012 12.5508 8.53711 12.3838 8.7832 12.3838H9.80273C10.0488 12.3838 10.2158 12.5508 10.2158 12.7793V13.5615C10.2158 13.7988 10.0488 13.957 9.80273 13.957H8.7832Z" fill="#1C1C1E"/>
</g>
<defs>
<clipPath id="clip0_10_1446">
<rect width="24" height="24" fill="white"/>
</clipPath>
</defs>
</svg>
