<svg width="24" height="24" viewBox="0 0 24 24" fill="none" xmlns="http://www.w3.org/2000/svg">
<g clip-path="url(#clip0_10_1426)">
<path d="M11.9912 20.7422C16.9746 20.7422 21.0879 16.6289 21.0879 11.6543C21.0879 6.67969 16.9658 2.56641 11.9824 2.56641C7.00781 2.56641 2.90332 6.67969 2.90332 11.6543C2.90332 16.6289 7.0166 20.7422 11.9912 20.7422ZM17.1504 9.69434H6.83203V9.30762C6.83203 8.36719 7.32422 7.89258 8.26465 7.89258H15.7178C16.6494 7.89258 17.1504 8.37598 17.1504 9.30762V9.69434ZM6.83203 10.7227H17.1504V14.0098C17.1504 14.9502 16.6494 15.4336 15.7178 15.4336H8.26465C7.32422 15.4336 6.83203 14.9502 6.83203 14.0098V10.7227ZM8.65137 14.0449H9.71484C9.96973 14.0449 10.1455 13.8779 10.1455 13.6318V12.8232C10.1455 12.5771 9.96973 12.4102 9.71484 12.4102H8.65137C8.40527 12.4102 8.2207 12.5771 8.2207 12.8232V13.6318C8.2207 13.8779 8.40527 14.0449 8.65137 14.0449Z" fill="#1C1C1E"/>
</g>
<defs>
<clipPath id="clip0_10_1426">
<rect width="24" height="24" fill="white"/>
</clipPath>
</defs>
</svg>
