<svg width="24" height="24" viewBox="0 0 24 24" fill="none" xmlns="http://www.w3.org/2000/svg">
<g clip-path="url(#clip0_10_1330)">
<path d="M11.9912 20.7422C16.9746 20.7422 21.0879 16.6289 21.0879 11.6543C21.0879 6.67969 16.9658 2.56641 11.9824 2.56641C7.00781 2.56641 2.90332 6.67969 2.90332 11.6543C2.90332 16.6289 7.0166 20.7422 11.9912 20.7422ZM11.9912 18.9316C7.95703 18.9316 4.73145 15.6885 4.73145 11.6543C4.73145 7.62012 7.95703 4.38574 11.9824 4.38574C16.0166 4.38574 19.2598 7.62012 19.2686 11.6543C19.2773 15.6885 16.0254 18.9316 11.9912 18.9316ZM8.44922 11.6631C8.44922 14.2295 9.83789 15.8027 11.9912 15.8027C13.5117 15.8027 14.6279 15.0469 15.0322 13.9307C15.0762 13.79 15.1113 13.6406 15.1113 13.4912C15.1201 13.1396 14.8652 12.8936 14.4785 12.8936C14.1533 12.8936 13.96 13.0693 13.8281 13.4033C13.6348 14.0625 13.0371 14.5459 12.2549 14.625V13.4736C12.2549 12.665 12.7646 12.1113 13.4766 12.1113C13.6523 12.1113 13.7754 12.1377 13.8721 12.1377C14.127 12.1377 14.3027 11.9795 14.3027 11.7598C14.3027 11.4434 13.9863 11.2324 13.5029 11.2324C12.9932 11.2324 12.5098 11.5049 12.2461 12.0059V11.6455C12.2461 11.373 12.0791 11.2061 11.833 11.2061C11.5781 11.2061 11.4111 11.3906 11.4111 11.6455V14.5547C10.4268 14.2559 9.83789 13.2012 9.83789 11.6543C9.83789 9.89648 10.6816 8.74512 11.9912 8.74512C12.8525 8.74512 13.5293 9.27246 13.793 9.99316C13.916 10.2832 14.0918 10.4854 14.4434 10.4854C14.8125 10.4854 15.0586 10.2393 15.0586 9.87891C15.0586 9.71191 15.0146 9.53613 14.9531 9.37793C14.5225 8.2793 13.3711 7.54102 11.9824 7.54102C9.84668 7.54102 8.44922 9.13184 8.44922 11.6631Z" fill="#1C1C1E"/>
</g>
<defs>
<clipPath id="clip0_10_1330">
<rect width="24" height="24" fill="white"/>
</clipPath>
</defs>
</svg>
