<svg width="24" height="24" viewBox="0 0 24 24" fill="none" xmlns="http://www.w3.org/2000/svg">
<g clip-path="url(#clip0_10_1328)">
<path d="M6.67383 19.8809H17.3174C19.2246 19.8809 20.209 18.8965 20.209 17.0156V6.31934C20.209 4.43848 19.2246 3.4541 17.3174 3.4541H6.67383C4.77539 3.4541 3.78223 4.42969 3.78223 6.31934V17.0156C3.78223 18.8965 4.77539 19.8809 6.67383 19.8809ZM6.78809 18.1318C5.97949 18.1318 5.53125 17.71 5.53125 16.8574V6.47754C5.53125 5.625 5.97949 5.20312 6.78809 5.20312H17.2031C18.0029 5.20312 18.46 5.625 18.46 6.47754V16.8574C18.46 17.71 18.0029 18.1318 17.2031 18.1318H6.78809ZM8.45801 11.6543C8.45801 14.2207 9.85547 15.7939 12.0088 15.7939C13.5293 15.7939 14.6367 15.0469 15.041 13.9219C15.0938 13.7812 15.1289 13.6318 15.1289 13.4912C15.1289 13.1309 14.8828 12.8848 14.4961 12.8848C14.1709 12.8848 13.9688 13.0693 13.8457 13.3945C13.6523 14.0625 13.0547 14.5371 12.2725 14.625V13.4648C12.2725 12.6562 12.7822 12.1025 13.4854 12.1025C13.6699 12.1025 13.7842 12.1289 13.8896 12.1289C14.1445 12.1289 14.3115 11.9795 14.3115 11.751C14.3115 11.4346 14.0039 11.2324 13.5205 11.2324C13.0107 11.2324 12.5273 11.4961 12.2637 11.9971V11.6367C12.2637 11.3643 12.0879 11.2061 11.8506 11.2061C11.5957 11.2061 11.4287 11.3818 11.4287 11.6367L11.4199 14.5459C10.4355 14.2471 9.85547 13.1924 9.85547 11.6543C9.85547 9.8877 10.6992 8.73633 12.0088 8.73633C12.8613 8.73633 13.5469 9.26367 13.8105 9.99316C13.9336 10.2744 14.1094 10.4766 14.4521 10.4766C14.8301 10.4766 15.0674 10.2393 15.0674 9.87012C15.0674 9.70312 15.0322 9.53613 14.9619 9.36914C14.54 8.27051 13.3799 7.53223 11.9912 7.53223C9.86426 7.53223 8.45801 9.12305 8.45801 11.6543Z" fill="#1C1C1E"/>
</g>
<defs>
<clipPath id="clip0_10_1328">
<rect width="24" height="24" fill="white"/>
</clipPath>
</defs>
</svg>
