<svg width="24" height="24" viewBox="0 0 24 24" fill="none" xmlns="http://www.w3.org/2000/svg">
<g clip-path="url(#clip0_10_1318)">
<path d="M6.67383 19.8809H17.3174C19.2246 19.8809 20.209 18.8965 20.209 17.0156V6.31934C20.209 4.43848 19.2246 3.4541 17.3174 3.4541H6.67383C4.77539 3.4541 3.78223 4.42969 3.78223 6.31934V17.0156C3.78223 18.8965 4.77539 19.8809 6.67383 19.8809ZM8.34375 11.6543C8.34375 9.02637 9.80273 7.36523 12.0176 7.36523C13.4678 7.36523 14.6631 8.12988 15.1113 9.27246C15.1816 9.44824 15.2168 9.61523 15.2168 9.7998C15.2168 10.1777 14.9707 10.4326 14.5752 10.4326C14.2148 10.4326 14.0303 10.2129 13.8984 9.91406C13.6172 9.17578 12.9229 8.63086 12.0352 8.63086C10.6816 8.63086 9.80273 9.81738 9.80273 11.6543C9.80273 13.2539 10.4092 14.3438 11.4199 14.6514V11.6367C11.4199 11.373 11.6045 11.1797 11.8682 11.1797C12.123 11.1797 12.2988 11.3555 12.2988 11.6367V12.0059C12.5801 11.4873 13.0723 11.2061 13.5996 11.2061C14.1094 11.2061 14.4346 11.4258 14.4346 11.751C14.4346 11.9883 14.25 12.1465 13.9863 12.1465C13.8809 12.1465 13.7578 12.1201 13.5732 12.1201C12.8438 12.1201 12.3076 12.7002 12.3076 13.5352V14.7305C13.1162 14.6514 13.7314 14.1504 13.9336 13.4736C14.0654 13.1221 14.2764 12.9375 14.6191 12.9375C15.0234 12.9375 15.2783 13.1924 15.2783 13.5615C15.2783 13.7197 15.2432 13.8691 15.1904 14.0186C14.7686 15.1875 13.6084 15.9697 12.0352 15.9697C9.79395 15.9697 8.34375 14.3262 8.34375 11.6543Z" fill="#1C1C1E"/>
</g>
<defs>
<clipPath id="clip0_10_1318">
<rect width="24" height="24" fill="white"/>
</clipPath>
</defs>
</svg>
