<svg width="24" height="24" viewBox="0 0 24 24" fill="none" xmlns="http://www.w3.org/2000/svg">
<g clip-path="url(#clip0_10_1433)">
<path d="M11.9912 20.7422C16.9746 20.7422 21.0879 16.6289 21.0879 11.6543C21.0879 6.67969 16.9658 2.56641 11.9824 2.56641C7.00781 2.56641 2.90332 6.67969 2.90332 11.6543C2.90332 16.6289 7.0166 20.7422 11.9912 20.7422ZM11.9912 18.9316C7.95703 18.9316 4.73145 15.6885 4.73145 11.6543C4.73145 7.62012 7.95703 4.38574 11.9824 4.38574C16.0166 4.38574 19.2598 7.62012 19.2686 11.6543C19.2773 15.6885 16.0254 18.9316 11.9912 18.9316ZM11.9824 16.5938C12.2109 16.5938 12.3867 16.4268 12.3867 16.1895V15.6006C13.8105 15.4688 14.8828 14.6514 14.8828 13.3154C14.8828 12.1201 14.1094 11.417 12.5801 11.1357L12.3867 11.0918V8.91211C12.9492 9.00879 13.3359 9.34277 13.5029 9.86133C13.6348 10.1514 13.8193 10.3184 14.1357 10.3184C14.4873 10.3184 14.7334 10.0811 14.7334 9.74707C14.7334 9.6416 14.707 9.54492 14.6895 9.43945C14.4521 8.53418 13.5645 7.88379 12.3867 7.76074V7.17188C12.3867 6.93457 12.2109 6.76758 11.9824 6.76758C11.7539 6.76758 11.5869 6.93457 11.5869 7.17188V7.76074C10.1982 7.90137 9.21387 8.74512 9.21387 9.9668C9.21387 11.1094 9.97852 11.7773 11.4375 12.1113L11.5869 12.1465V14.4668C10.875 14.3613 10.4619 13.9834 10.3213 13.4648C10.1982 13.1484 9.99609 12.9902 9.69727 12.9902C9.32812 12.9902 9.09082 13.2363 9.09082 13.5879C9.09082 13.6846 9.11719 13.7812 9.14355 13.8955C9.39844 14.8271 10.3301 15.4775 11.5869 15.5918V16.1895C11.5869 16.4355 11.7539 16.5938 11.9824 16.5938ZM11.5869 10.8896L11.5254 10.8721C10.8223 10.6699 10.4971 10.3623 10.4971 9.8877C10.4971 9.4043 10.9102 9.00879 11.5869 8.90332V10.8896ZM12.3867 12.3486L12.5537 12.3838C13.3184 12.5947 13.5908 12.9111 13.5908 13.4121C13.5908 13.9658 13.1865 14.3701 12.3867 14.4668V12.3486Z" fill="#1C1C1E"/>
</g>
<defs>
<clipPath id="clip0_10_1433">
<rect width="24" height="24" fill="white"/>
</clipPath>
</defs>
</svg>
