<svg width="24" height="24" viewBox="0 0 24 24" fill="none" xmlns="http://www.w3.org/2000/svg">
<g clip-path="url(#clip0_10_1432)">
<path d="M11.9912 20.7422C16.9746 20.7422 21.0879 16.6289 21.0879 11.6543C21.0879 6.67969 16.9658 2.56641 11.9824 2.56641C7.00781 2.56641 2.90332 6.67969 2.90332 11.6543C2.90332 16.6289 7.0166 20.7422 11.9912 20.7422ZM11.9824 16.7871C11.7451 16.7871 11.5693 16.6113 11.5693 16.3652V15.7412C10.2598 15.6357 9.29297 14.9502 9.0293 13.9834C8.99414 13.8691 8.97656 13.7637 8.97656 13.6582C8.97656 13.2891 9.23145 13.0342 9.60938 13.0342C9.92578 13.0342 10.1367 13.2012 10.2686 13.5264C10.4092 14.0625 10.8398 14.458 11.5693 14.5635V12.1729L11.4111 12.1377C9.89062 11.7861 9.09961 11.083 9.09961 9.89648C9.09961 8.61328 10.1279 7.73438 11.5693 7.60254V6.9873C11.5693 6.73242 11.7451 6.56543 11.9824 6.56543C12.2197 6.56543 12.4043 6.74121 12.4043 6.9873V7.60254C13.6348 7.72559 14.5488 8.40234 14.7949 9.34277C14.8213 9.44824 14.8477 9.55371 14.8477 9.65918C14.8477 10.0107 14.5928 10.2656 14.2236 10.2656C13.8984 10.2656 13.6875 10.0811 13.5557 9.78223C13.3799 9.24609 12.9844 8.90332 12.4043 8.79785V11.0566L12.6064 11.1006C14.1973 11.3994 14.9971 12.1289 14.9971 13.377C14.9971 14.7656 13.8896 15.6182 12.4043 15.75V16.3652C12.4043 16.6113 12.2197 16.7871 11.9824 16.7871ZM11.5693 10.8457V8.78906C10.875 8.90332 10.4531 9.31641 10.4531 9.80859C10.4531 10.3008 10.7783 10.6172 11.5078 10.8281L11.5693 10.8457ZM12.4043 12.375V14.5635C13.2393 14.4668 13.6523 14.0449 13.6523 13.4736C13.6523 12.9639 13.3623 12.6299 12.5713 12.4189L12.4043 12.375Z" fill="#1C1C1E"/>
</g>
<defs>
<clipPath id="clip0_10_1432">
<rect width="24" height="24" fill="white"/>
</clipPath>
</defs>
</svg>
