<svg width="24" height="24" viewBox="0 0 24 24" fill="none" xmlns="http://www.w3.org/2000/svg">
<g clip-path="url(#clip0_10_1395)">
<path d="M11.9912 20.7422C16.9746 20.7422 21.0879 16.6289 21.0879 11.6543C21.0879 6.67969 16.9658 2.56641 11.9824 2.56641C7.00781 2.56641 2.90332 6.67969 2.90332 11.6543C2.90332 16.6289 7.0166 20.7422 11.9912 20.7422ZM8.67773 12.0059C8.67773 10.3008 9.79395 9.17578 11.2529 9.17578C11.9736 9.17578 12.5889 9.45703 12.9668 9.91406V8.56055H11.4111C11.165 8.56055 10.9893 8.39355 10.9893 8.14746C10.9893 7.90137 11.1562 7.72559 11.4111 7.72559H12.9756V7.37402C12.9756 6.97852 13.248 6.72363 13.6436 6.72363C14.0479 6.72363 14.3203 6.97852 14.3203 7.37402V7.72559H14.8828C15.1289 7.72559 15.2959 7.90137 15.2959 8.14746C15.2959 8.39355 15.1289 8.56055 14.8828 8.56055H14.3291V14.2559C14.3291 14.6777 14.0654 14.9326 13.6699 14.9326C13.3096 14.9326 13.0459 14.6953 13.0283 14.335V14.0361C12.6328 14.5547 12 14.8447 11.2617 14.8447C9.80273 14.8447 8.67773 13.7021 8.67773 12.0059ZM10.0664 12.0146C10.0664 12.999 10.6641 13.6582 11.5342 13.6582C12.3867 13.6582 12.9932 12.9639 12.9932 12.0146C12.9932 11.0654 12.3867 10.3711 11.5342 10.3711C10.6641 10.3711 10.0664 11.0303 10.0664 12.0146ZM9.13477 15.8379C9.13477 15.5918 9.31934 15.4072 9.55664 15.4072H14.1709C14.417 15.4072 14.6016 15.583 14.6016 15.8379C14.6016 16.0752 14.417 16.251 14.1709 16.251H9.55664C9.32812 16.251 9.13477 16.0752 9.13477 15.8379Z" fill="#1C1C1E"/>
</g>
<defs>
<clipPath id="clip0_10_1395">
<rect width="24" height="24" fill="white"/>
</clipPath>
</defs>
</svg>
