<svg width="24" height="24" viewBox="0 0 24 24" fill="none" xmlns="http://www.w3.org/2000/svg">
<g clip-path="url(#clip0_10_1393)">
<path d="M6.67383 19.8809H17.3174C19.2246 19.8809 20.209 18.8965 20.209 17.0156V6.31934C20.209 4.43848 19.2246 3.4541 17.3174 3.4541H6.67383C4.77539 3.4541 3.78223 4.42969 3.78223 6.31934V17.0156C3.78223 18.8965 4.77539 19.8809 6.67383 19.8809ZM8.71289 12.0059C8.71289 10.3008 9.8291 9.17578 11.2881 9.17578C12.0088 9.17578 12.624 9.45703 13.002 9.91406V8.56055H11.4463C11.2002 8.56055 11.0244 8.39355 11.0244 8.14746C11.0244 7.90137 11.1914 7.72559 11.4463 7.72559H13.0107V7.37402C13.0107 6.97852 13.2832 6.72363 13.6787 6.72363C14.083 6.72363 14.3555 6.97852 14.3555 7.37402V7.72559H14.918C15.1641 7.72559 15.3311 7.90137 15.3311 8.14746C15.3311 8.39355 15.1641 8.56055 14.918 8.56055H14.3643V14.2559C14.3643 14.6777 14.1006 14.9326 13.7051 14.9326C13.3447 14.9326 13.0811 14.6953 13.0635 14.335V14.0361C12.668 14.5547 12.0352 14.8447 11.2969 14.8447C9.83789 14.8447 8.71289 13.7021 8.71289 12.0059ZM10.1016 12.0146C10.1016 12.999 10.6992 13.6582 11.5693 13.6582C12.4219 13.6582 13.0283 12.9639 13.0283 12.0146C13.0283 11.0654 12.4219 10.3711 11.5693 10.3711C10.6992 10.3711 10.1016 11.0303 10.1016 12.0146ZM9.16992 15.8379C9.16992 15.5918 9.35449 15.4072 9.60059 15.4072H14.2061C14.4521 15.4072 14.6367 15.583 14.6367 15.8379C14.6367 16.0752 14.4521 16.251 14.2061 16.251H9.60059C9.36328 16.251 9.16992 16.0752 9.16992 15.8379Z" fill="#1C1C1E"/>
</g>
<defs>
<clipPath id="clip0_10_1393">
<rect width="24" height="24" fill="white"/>
</clipPath>
</defs>
</svg>
