<svg width="24" height="24" viewBox="0 0 24 24" fill="none" xmlns="http://www.w3.org/2000/svg">
<g clip-path="url(#clip0_10_1396)">
<path d="M11.9912 20.7422C16.9746 20.7422 21.0879 16.6289 21.0879 11.6543C21.0879 6.67969 16.9658 2.56641 11.9824 2.56641C7.00781 2.56641 2.90332 6.67969 2.90332 11.6543C2.90332 16.6289 7.0166 20.7422 11.9912 20.7422ZM11.9912 18.9316C7.95703 18.9316 4.73145 15.6885 4.73145 11.6543C4.73145 7.62012 7.95703 4.38574 11.9824 4.38574C16.0166 4.38574 19.2598 7.62012 19.2686 11.6543C19.2773 15.6885 16.0254 18.9316 11.9912 18.9316ZM8.80957 11.9971C8.80957 13.6318 9.89062 14.7217 11.2881 14.7217C12 14.7217 12.6152 14.4404 12.9844 13.957L12.9932 14.2383C13.0107 14.5811 13.2568 14.8096 13.6084 14.8096C13.9863 14.8096 14.2324 14.5635 14.2324 14.168V8.69238H14.7686C14.9971 8.69238 15.1641 8.52539 15.1641 8.28809C15.1641 8.05957 15.0059 7.89258 14.7686 7.89258H14.2236V7.54102C14.2236 7.17188 13.96 6.92578 13.582 6.92578C13.1953 6.92578 12.9404 7.17188 12.9404 7.54102V7.89258H11.4375C11.1914 7.89258 11.0332 8.05957 11.0332 8.28809C11.0332 8.52539 11.2002 8.69238 11.4375 8.69238H12.9316V10.002C12.5713 9.54492 11.9736 9.28125 11.2793 9.28125C9.88184 9.28125 8.80957 10.3623 8.80957 11.9971ZM10.1367 12.0059C10.1367 11.0566 10.708 10.415 11.5518 10.415C12.3691 10.415 12.958 11.0918 12.958 12.0059C12.958 12.9199 12.3691 13.5967 11.5518 13.5967C10.708 13.5967 10.1367 12.9551 10.1367 12.0059ZM9.24902 15.6797C9.24902 15.9082 9.43359 16.084 9.65332 16.084H14.083C14.3203 16.084 14.4961 15.9082 14.4961 15.6797C14.4961 15.4424 14.3203 15.2666 14.083 15.2666H9.65332C9.4248 15.2666 9.24902 15.4424 9.24902 15.6797Z" fill="#1C1C1E"/>
</g>
<defs>
<clipPath id="clip0_10_1396">
<rect width="24" height="24" fill="white"/>
</clipPath>
</defs>
</svg>
