<svg width="24" height="24" viewBox="0 0 24 24" fill="none" xmlns="http://www.w3.org/2000/svg">
<g clip-path="url(#clip0_10_1400)">
<path d="M11.9912 20.7422C16.9746 20.7422 21.0879 16.6289 21.0879 11.6543C21.0879 6.67969 16.9658 2.56641 11.9824 2.56641C7.00781 2.56641 2.90332 6.67969 2.90332 11.6543C2.90332 16.6289 7.0166 20.7422 11.9912 20.7422ZM13.2217 15.9697C11.209 15.9697 9.55664 14.9238 9.09082 12.9111H8.15039C7.89551 12.9111 7.72852 12.7178 7.72852 12.4717C7.72852 12.2168 7.89551 12.041 8.15039 12.041H8.95898C8.95898 11.9531 8.9502 11.8037 8.9502 11.6543C8.9502 11.5049 8.9502 11.3994 8.95898 11.2852H8.15039C7.89551 11.2852 7.72852 11.0918 7.72852 10.8457C7.72852 10.5908 7.89551 10.415 8.15039 10.415H9.08203C9.55664 8.39355 11.209 7.34766 13.2305 7.34766C13.7051 7.34766 14.0391 7.40039 14.2588 7.51465C14.5576 7.65527 14.6455 7.84863 14.6455 8.08594C14.6455 8.40234 14.4434 8.5957 14.1533 8.62207C13.9512 8.66602 13.6172 8.62207 13.2305 8.63086C11.9912 8.63965 10.9541 9.2373 10.5938 10.415H13.3359C13.5996 10.415 13.7666 10.5908 13.7666 10.8457C13.7666 11.0918 13.5996 11.2852 13.3359 11.2852H10.3916C10.3828 11.3906 10.3828 11.5225 10.3828 11.6631C10.3828 11.7949 10.3916 11.9355 10.4004 12.041H13.3359C13.5996 12.041 13.7666 12.2168 13.7666 12.4717C13.7666 12.7178 13.5996 12.9111 13.3359 12.9111H10.585C10.9541 14.0889 11.9824 14.6865 13.2217 14.6953C13.6172 14.6953 13.9424 14.6602 14.1533 14.7041C14.4521 14.7305 14.6543 14.9238 14.6543 15.2402C14.6543 15.4863 14.5312 15.6621 14.2764 15.7939C14.0479 15.9082 13.7051 15.9697 13.2217 15.9697Z" fill="#1C1C1E"/>
</g>
<defs>
<clipPath id="clip0_10_1400">
<rect width="24" height="24" fill="white"/>
</clipPath>
</defs>
</svg>
