<svg width="24" height="24" viewBox="0 0 24 24" fill="none" xmlns="http://www.w3.org/2000/svg">
<g clip-path="url(#clip0_10_1410)">
<path d="M6.67383 19.8809H17.3174C19.2246 19.8809 20.209 18.8965 20.209 17.0156V6.31934C20.209 4.43848 19.2246 3.4541 17.3174 3.4541H6.67383C4.77539 3.4541 3.78223 4.42969 3.78223 6.31934V17.0156C3.78223 18.8965 4.77539 19.8809 6.67383 19.8809ZM6.78809 18.1318C5.97949 18.1318 5.53125 17.71 5.53125 16.8574V6.47754C5.53125 5.625 5.97949 5.20312 6.78809 5.20312H17.2031C18.0029 5.20312 18.46 5.625 18.46 6.47754V16.8574C18.46 17.71 18.0029 18.1318 17.2031 18.1318H6.78809ZM9.94336 15.8027C11.3408 15.8027 12.1055 15.1084 12.3428 13.623L12.6152 11.9707H14.3555C14.6719 11.9707 14.8652 11.7686 14.8652 11.4873C14.8652 11.1885 14.6719 10.9863 14.3555 10.9863H12.7734L12.958 9.81738C13.0898 9.01758 13.4414 8.6748 14.1621 8.6748C14.3906 8.6748 14.5049 8.70117 14.6367 8.71875C14.7246 8.73633 14.8037 8.74512 14.9004 8.73633C15.2168 8.72754 15.4102 8.5166 15.4102 8.22656C15.4102 7.97168 15.2695 7.77832 14.9883 7.65527C14.7686 7.5498 14.4521 7.50586 14.0566 7.50586C12.6504 7.50586 11.8945 8.2002 11.6484 9.67676L11.4375 10.9863H9.79395C9.47754 10.9863 9.29297 11.1885 9.29297 11.4873C9.29297 11.7686 9.47754 11.9707 9.79395 11.9707H11.2881L11.042 13.4648C10.9102 14.2822 10.5674 14.6338 9.83789 14.6338C9.60059 14.6338 9.49512 14.6074 9.35449 14.5811C9.27539 14.5723 9.19629 14.5635 9.09961 14.5723C8.77441 14.5811 8.58984 14.792 8.58984 15.082C8.58984 15.3369 8.72168 15.5303 9.01172 15.6533C9.23145 15.7588 9.53906 15.8027 9.94336 15.8027Z" fill="#1C1C1E"/>
</g>
<defs>
<clipPath id="clip0_10_1410">
<rect width="24" height="24" fill="white"/>
</clipPath>
</defs>
</svg>
