<svg width="24" height="24" viewBox="0 0 24 24" fill="none" xmlns="http://www.w3.org/2000/svg">
<g clip-path="url(#clip0_10_1412)">
<path d="M11.9912 20.7422C16.9746 20.7422 21.0879 16.6289 21.0879 11.6543C21.0879 6.67969 16.9658 2.56641 11.9824 2.56641C7.00781 2.56641 2.90332 6.67969 2.90332 11.6543C2.90332 16.6289 7.0166 20.7422 11.9912 20.7422ZM11.9912 18.9316C7.95703 18.9316 4.73145 15.6885 4.73145 11.6543C4.73145 7.62012 7.95703 4.38574 11.9824 4.38574C16.0166 4.38574 19.2598 7.62012 19.2686 11.6543C19.2773 15.6885 16.0254 18.9316 11.9912 18.9316ZM9.92578 15.8115C11.332 15.8115 12.0879 15.1172 12.334 13.6318L12.5977 11.9795H14.3467C14.6631 11.9795 14.8477 11.7773 14.8477 11.4961C14.8477 11.1885 14.6631 10.9951 14.3467 10.9951H12.7559L12.9492 9.81738C13.0811 9.02637 13.4238 8.68359 14.1445 8.68359C14.3818 8.68359 14.4873 8.70117 14.6279 8.72754C14.707 8.74512 14.7861 8.74512 14.8828 8.74512C15.208 8.72754 15.3926 8.52539 15.3926 8.22656C15.3926 7.97168 15.2607 7.77832 14.9707 7.66406C14.751 7.55859 14.4434 7.50586 14.0391 7.50586C12.6416 7.50586 11.877 8.2002 11.6396 9.68555L11.4287 10.9951H9.77637C9.45996 10.9951 9.27539 11.1885 9.27539 11.4961C9.27539 11.7773 9.45996 11.9795 9.77637 11.9795H11.2705L11.0332 13.4648C10.9014 14.291 10.5498 14.6338 9.82031 14.6338C9.5918 14.6338 9.47754 14.6162 9.3457 14.5898C9.25781 14.5811 9.17871 14.5723 9.08203 14.5723C8.76562 14.5898 8.57227 14.792 8.57227 15.0908C8.57227 15.3457 8.71289 15.5391 8.99414 15.6533C9.21387 15.7588 9.53027 15.8115 9.92578 15.8115Z" fill="#1C1C1E"/>
</g>
<defs>
<clipPath id="clip0_10_1412">
<rect width="24" height="24" fill="white"/>
</clipPath>
</defs>
</svg>
