<svg width="24" height="24" viewBox="0 0 24 24" fill="none" xmlns="http://www.w3.org/2000/svg">
<g clip-path="url(#clip0_10_1414)">
<path d="M6.67383 19.8809H17.3174C19.2246 19.8809 20.209 18.8965 20.209 17.0156V6.31934C20.209 4.43848 19.2246 3.4541 17.3174 3.4541H6.67383C4.77539 3.4541 3.78223 4.42969 3.78223 6.31934V17.0156C3.78223 18.8965 4.77539 19.8809 6.67383 19.8809ZM6.78809 18.1318C5.97949 18.1318 5.53125 17.71 5.53125 16.8574V6.47754C5.53125 5.625 5.97949 5.20312 6.78809 5.20312H17.2031C18.0029 5.20312 18.46 5.625 18.46 6.47754V16.8574C18.46 17.71 18.0029 18.1318 17.2031 18.1318H6.78809ZM10.541 15.9785C10.9541 15.9785 11.2266 15.7061 11.2266 15.3018V14.5371H12.9932C13.2393 14.5371 13.4062 14.3613 13.4062 14.124C13.4062 13.8867 13.2393 13.7109 12.9932 13.7109H11.2266V12.3486H13.9424C14.3027 12.3486 14.5664 12.1201 14.5664 11.751C14.5664 11.3906 14.3027 11.1533 13.9424 11.1533H11.2266V8.94727H14.2324C14.6016 8.94727 14.8652 8.70117 14.8652 8.33203C14.8652 7.96289 14.6016 7.7168 14.2324 7.7168H10.541C10.1191 7.7168 9.85547 7.98926 9.85547 8.42871V13.7109H9.16992C8.91504 13.7109 8.74805 13.8867 8.74805 14.124C8.74805 14.3613 8.91504 14.5371 9.16992 14.5371H9.85547V15.3105C9.85547 15.7148 10.1367 15.9785 10.541 15.9785Z" fill="#1C1C1E"/>
</g>
<defs>
<clipPath id="clip0_10_1414">
<rect width="24" height="24" fill="white"/>
</clipPath>
</defs>
</svg>
