<svg width="24" height="24" viewBox="0 0 24 24" fill="none" xmlns="http://www.w3.org/2000/svg">
<g clip-path="url(#clip0_10_1413)">
<path d="M6.67383 19.8809H17.3174C19.2246 19.8809 20.209 18.8965 20.209 17.0156V6.31934C20.209 4.43848 19.2246 3.4541 17.3174 3.4541H6.67383C4.77539 3.4541 3.78223 4.42969 3.78223 6.31934V17.0156C3.78223 18.8965 4.77539 19.8809 6.67383 19.8809ZM10.5059 16.1543C10.084 16.1543 9.78516 15.873 9.78516 15.4512V14.6602H9.06445C8.80078 14.6602 8.63379 14.4756 8.63379 14.2207C8.63379 13.9746 8.80078 13.7988 9.06445 13.7988H9.78516V8.30566C9.78516 7.84863 10.0576 7.55859 10.4971 7.55859H14.3379C14.7246 7.55859 15.0059 7.81348 15.0059 8.2002C15.0059 8.58691 14.7246 8.8418 14.3379 8.8418H11.2266V11.127H14.0391C14.417 11.127 14.6895 11.373 14.6895 11.7598C14.6895 12.1377 14.417 12.3926 14.0391 12.3926H11.2266V13.7988H13.0547C13.3184 13.7988 13.4941 13.9746 13.4941 14.2207C13.4941 14.4756 13.3184 14.6602 13.0547 14.6602H11.2266V15.4424C11.2266 15.8643 10.9365 16.1543 10.5059 16.1543Z" fill="#1C1C1E"/>
</g>
<defs>
<clipPath id="clip0_10_1413">
<rect width="24" height="24" fill="white"/>
</clipPath>
</defs>
</svg>
