<svg width="24" height="24" viewBox="0 0 24 24" fill="none" xmlns="http://www.w3.org/2000/svg">
<g clip-path="url(#clip0_10_1415)">
<path d="M11.9912 20.7422C16.9746 20.7422 21.0879 16.6289 21.0879 11.6543C21.0879 6.67969 16.9658 2.56641 11.9824 2.56641C7.00781 2.56641 2.90332 6.67969 2.90332 11.6543C2.90332 16.6289 7.0166 20.7422 11.9912 20.7422ZM10.4707 16.1543C10.0488 16.1543 9.75 15.873 9.75 15.4512V14.6602H9.0293C8.76562 14.6602 8.59863 14.4756 8.59863 14.2207C8.59863 13.9746 8.76562 13.7988 9.0293 13.7988H9.75V8.30566C9.75 7.84863 10.0225 7.55859 10.4619 7.55859H14.3027C14.6895 7.55859 14.9707 7.81348 14.9707 8.2002C14.9707 8.58691 14.6895 8.8418 14.3027 8.8418H11.1914V11.127H14.0039C14.3818 11.127 14.6543 11.373 14.6543 11.7598C14.6543 12.1377 14.3818 12.3926 14.0039 12.3926H11.1914V13.7988H13.0195C13.2832 13.7988 13.459 13.9746 13.459 14.2207C13.459 14.4756 13.2832 14.6602 13.0195 14.6602H11.1914V15.4424C11.1914 15.8643 10.9014 16.1543 10.4707 16.1543Z" fill="#1C1C1E"/>
</g>
<defs>
<clipPath id="clip0_10_1415">
<rect width="24" height="24" fill="white"/>
</clipPath>
</defs>
</svg>
