<svg width="24" height="24" viewBox="0 0 24 24" fill="none" xmlns="http://www.w3.org/2000/svg">
<g clip-path="url(#clip0_10_1443)">
<path d="M4.48535 19.2832H19.5059C21.4131 19.2832 22.3975 18.29 22.3975 16.4092V6.91699C22.3975 5.03613 21.4131 4.05176 19.5059 4.05176H4.48535C2.58691 4.05176 1.59375 5.03613 1.59375 6.91699V16.4092C1.59375 18.2988 2.58691 19.2832 4.48535 19.2832ZM4.59961 5.80957H11.4199V8.54297C10.875 7.49707 9.94336 6.85547 8.89746 6.85547C7.6582 6.85547 6.73535 7.78711 6.73535 9.02637C6.73535 10.0723 7.42969 10.9336 8.43164 11.4258H3.34277V7.0752C3.34277 6.23145 3.79102 5.80957 4.59961 5.80957ZM15.5684 11.4258C16.5703 10.9336 17.2559 10.0723 17.2559 9.02637C17.2559 7.78711 16.333 6.85547 15.0938 6.85547C14.0479 6.85547 13.125 7.49707 12.5713 8.54297V5.80957H19.3916C20.2002 5.80957 20.6484 6.23145 20.6484 7.0752V11.4258H15.5684ZM11.0332 11.3203C9.4248 11.3203 8.05371 10.2041 8.05371 9.16699C8.05371 8.56055 8.42285 8.18262 9.01172 8.18262C10.2158 8.18262 11.2705 9.54492 11.2705 11.0918V11.3203H11.0332ZM12.958 11.3203H12.7207V11.0918C12.7207 9.54492 13.7842 8.18262 14.9795 8.18262C15.5684 8.18262 15.9463 8.56055 15.9463 9.16699C15.9463 10.2041 14.5752 11.3203 12.958 11.3203ZM19.3916 17.5254H12.5713V13.1924H12.6328C13.2129 14.9238 15.1641 16.3652 16.4648 16.5762C17.0186 16.6553 17.3438 16.251 17.3438 15.8379C17.3438 15.3984 17.0713 15.1084 16.5879 15.0381C15.4541 14.8887 13.9248 13.4824 13.4326 12.4893H20.6484V16.2598C20.6484 17.1035 20.2002 17.5254 19.3916 17.5254ZM4.59961 17.5254C3.79102 17.5254 3.34277 17.1035 3.34277 16.2598V12.4893H10.5674C10.0752 13.4824 8.53711 14.8887 7.40332 15.0381C6.91992 15.1084 6.65625 15.3984 6.65625 15.8379C6.65625 16.251 6.98145 16.6553 7.52637 16.5762C8.82715 16.3652 10.7871 14.9238 11.3584 13.1924H11.4199V17.5254H4.59961Z" fill="#1C1C1E"/>
</g>
<defs>
<clipPath id="clip0_10_1443">
<rect width="24" height="24" fill="white"/>
</clipPath>
</defs>
</svg>
