<svg width="24" height="24" viewBox="0 0 24 24" fill="none" xmlns="http://www.w3.org/2000/svg">
<g clip-path="url(#clip0_10_1459)">
<path d="M12.6416 8.29688V4.05176H19.5059C21.4131 4.05176 22.3975 5.03613 22.3975 6.91699V11.4346H15.8936C16.9658 10.9072 17.6953 9.9668 17.6953 8.85059C17.6953 7.50586 16.7021 6.49512 15.3486 6.49512C14.2236 6.49512 13.2305 7.18066 12.6416 8.29688ZM1.59375 11.4346V6.91699C1.59375 5.03613 2.58691 4.05176 4.48535 4.05176H11.3672V8.29688C10.7783 7.18066 9.78516 6.49512 8.66016 6.49512C7.30664 6.49512 6.31348 7.50586 6.31348 8.85059C6.31348 9.9668 7.04297 10.9072 8.11523 11.4346H1.59375ZM10.9541 11.3203C9.22266 11.3203 7.74609 10.1162 7.74609 9.00879C7.74609 8.3584 8.15039 7.9541 8.7832 7.9541C10.0752 7.9541 11.2002 9.41309 11.2002 11.0742V11.3203H10.9541ZM13.0547 11.3203H12.7998V11.0742C12.7998 9.41309 13.9336 7.9541 15.2256 7.9541C15.8584 7.9541 16.2627 8.3584 16.2627 9.00879C16.2627 10.1162 14.7861 11.3203 13.0547 11.3203ZM22.3975 16.4092C22.3975 18.29 21.4131 19.2832 19.5059 19.2832H12.6416V13.377H12.7031C13.3184 15.2314 15.4189 16.8047 16.8252 17.0156C17.4229 17.1035 17.7832 16.6641 17.7832 16.207C17.7832 15.7148 17.4932 15.3984 16.957 15.3193C15.7441 15.1611 14.1006 13.6494 13.5732 12.6035H22.3975V16.4092ZM4.48535 19.2832C2.58691 19.2832 1.59375 18.2988 1.59375 16.4092V12.6035H10.4355C9.9082 13.6494 8.26465 15.1523 7.05176 15.3193C6.51562 15.4072 6.22559 15.7148 6.22559 16.207C6.22559 16.6641 6.57715 17.1035 7.18359 17.0156C8.58984 16.8047 10.6904 15.2314 11.3057 13.377H11.3672V19.2832H4.48535Z" fill="#1C1C1E"/>
</g>
<defs>
<clipPath id="clip0_10_1459">
<rect width="24" height="24" fill="white"/>
</clipPath>
</defs>
</svg>
