<svg width="24" height="24" viewBox="0 0 24 24" fill="none" xmlns="http://www.w3.org/2000/svg">
<g clip-path="url(#clip0_10_1341)">
<path d="M11.9912 20.7422C16.9746 20.7422 21.0879 16.6289 21.0879 11.6543C21.0879 6.67969 16.9658 2.56641 11.9824 2.56641C7.00781 2.56641 2.90332 6.67969 2.90332 11.6543C2.90332 16.6289 7.0166 20.7422 11.9912 20.7422ZM12.1143 16.9717C11.8682 16.9717 11.6836 16.7871 11.6836 16.5322V15.9434C9.69727 15.7324 8.45801 14.168 8.45801 11.6895C8.45801 9.2373 9.70605 7.64648 11.6836 7.42676V6.8291C11.6836 6.56543 11.8682 6.38965 12.1143 6.38965C12.3604 6.38965 12.5449 6.56543 12.5449 6.8291V7.41797C13.8105 7.54102 14.8564 8.27051 15.2432 9.30762C15.2959 9.45703 15.3311 9.60645 15.3311 9.76465C15.3311 10.1514 15.0674 10.4062 14.6982 10.4062C14.3379 10.4062 14.1797 10.2656 14.0215 9.92285C13.8018 9.28125 13.2393 8.81543 12.5449 8.70117V11.3643H14.7861C15.2344 11.3643 15.5156 11.6367 15.5156 12.0674V12.4629C15.5156 14.4756 14.4609 15.8115 12.5449 15.9521V16.5322C12.5449 16.7871 12.3604 16.9717 12.1143 16.9717ZM11.6836 14.6777V8.71875C10.585 8.94727 9.91699 10.0547 9.91699 11.6807C9.91699 13.3154 10.585 14.4316 11.6836 14.6777ZM12.5449 14.7041C13.5205 14.5547 14.083 13.7988 14.083 12.7266V12.5508H12.5449V14.7041Z" fill="#1C1C1E"/>
</g>
<defs>
<clipPath id="clip0_10_1341">
<rect width="24" height="24" fill="white"/>
</clipPath>
</defs>
</svg>
