<svg width="24" height="24" viewBox="0 0 24 24" fill="none" xmlns="http://www.w3.org/2000/svg">
<g clip-path="url(#clip0_10_1342)">
<path d="M11.9912 20.7422C16.9746 20.7422 21.0879 16.6289 21.0879 11.6543C21.0879 6.67969 16.9658 2.56641 11.9824 2.56641C7.00781 2.56641 2.90332 6.67969 2.90332 11.6543C2.90332 16.6289 7.0166 20.7422 11.9912 20.7422ZM11.9912 18.9316C7.95703 18.9316 4.73145 15.6885 4.73145 11.6543C4.73145 7.62012 7.95703 4.38574 11.9824 4.38574C16.0166 4.38574 19.2598 7.62012 19.2686 11.6543C19.2773 15.6885 16.0254 18.9316 11.9912 18.9316ZM12.1143 16.7695C12.3516 16.7695 12.5273 16.6025 12.5273 16.3564V15.7939C14.3643 15.6533 15.375 14.3789 15.375 12.4365V12.0586C15.375 11.6367 15.1025 11.3818 14.6807 11.3818H12.5273V8.80664C13.1953 8.91211 13.7402 9.36914 13.96 9.99316C14.0918 10.3271 14.25 10.459 14.5928 10.459C14.9531 10.459 15.1992 10.2217 15.1992 9.85254C15.1992 9.69434 15.1641 9.55371 15.1113 9.4043C14.7422 8.41113 13.7402 7.70801 12.5273 7.58496V7.01367C12.5273 6.76758 12.3516 6.60059 12.1143 6.60059C11.877 6.60059 11.7012 6.76758 11.7012 7.01367V7.59375C9.80273 7.80469 8.59863 9.34277 8.59863 11.6895C8.59863 14.0801 9.79395 15.5742 11.7012 15.7852V16.3564C11.7012 16.6025 11.877 16.7695 12.1143 16.7695ZM11.7012 14.5723C10.6289 14.3438 9.9873 13.2627 9.9873 11.6895C9.9873 10.1162 10.6289 9.05273 11.7012 8.82422V14.5723ZM12.5273 14.5986V12.5156H14.0127V12.6826C14.0127 13.7285 13.459 14.4668 12.5273 14.5986Z" fill="#1C1C1E"/>
</g>
<defs>
<clipPath id="clip0_10_1342">
<rect width="24" height="24" fill="white"/>
</clipPath>
</defs>
</svg>
