<svg width="24" height="24" viewBox="0 0 24 24" fill="none" xmlns="http://www.w3.org/2000/svg">
<g clip-path="url(#clip0_10_1340)">
<path d="M6.67383 19.8809H17.3174C19.2246 19.8809 20.209 18.8965 20.209 17.0156V6.31934C20.209 4.43848 19.2246 3.4541 17.3174 3.4541H6.67383C4.77539 3.4541 3.78223 4.42969 3.78223 6.31934V17.0156C3.78223 18.8965 4.77539 19.8809 6.67383 19.8809ZM6.78809 18.1318C5.97949 18.1318 5.53125 17.71 5.53125 16.8574V6.47754C5.53125 5.625 5.97949 5.20312 6.78809 5.20312H17.2031C18.0029 5.20312 18.46 5.625 18.46 6.47754V16.8574C18.46 17.71 18.0029 18.1318 17.2031 18.1318H6.78809ZM12.123 16.7607C12.3691 16.7607 12.5449 16.5938 12.5449 16.3477V15.7939C14.3818 15.6445 15.3838 14.3701 15.3838 12.4277V12.0498C15.3838 11.6367 15.1113 11.373 14.6982 11.373H12.5449V8.80664C13.2041 8.90332 13.749 9.36914 13.9688 9.99316C14.1094 10.3184 14.2676 10.459 14.6104 10.459C14.9707 10.459 15.2168 10.2129 15.2168 9.84375C15.2168 9.68555 15.1816 9.54492 15.1289 9.4043C14.7598 8.40234 13.749 7.69922 12.5449 7.57617V7.00488C12.5449 6.75879 12.3691 6.5918 12.123 6.5918C11.8857 6.5918 11.71 6.75879 11.71 7.00488V7.58496C9.81152 7.7959 8.61621 9.33398 8.61621 11.6895C8.61621 14.0713 9.80273 15.5742 11.71 15.7852V16.3477C11.71 16.5938 11.8945 16.7607 12.123 16.7607ZM11.71 14.5723C10.6465 14.335 10.0049 13.2627 10.0049 11.6807C10.0049 10.1162 10.6465 9.04395 11.71 8.82422V14.5723ZM12.5449 14.5986V12.5156H14.0303V12.6738C14.0303 13.7197 13.4766 14.458 12.5449 14.5986Z" fill="#1C1C1E"/>
</g>
<defs>
<clipPath id="clip0_10_1340">
<rect width="24" height="24" fill="white"/>
</clipPath>
</defs>
</svg>
