<svg width="24" height="24" viewBox="0 0 24 24" fill="none" xmlns="http://www.w3.org/2000/svg">
<g clip-path="url(#clip0_10_1362)">
<path d="M6.67383 19.8809H17.3174C19.2246 19.8809 20.209 18.8965 20.209 17.0156V6.31934C20.209 4.43848 19.2246 3.4541 17.3174 3.4541H6.67383C4.77539 3.4541 3.78223 4.42969 3.78223 6.31934V17.0156C3.78223 18.8965 4.77539 19.8809 6.67383 19.8809ZM6.78809 18.1318C5.97949 18.1318 5.53125 17.71 5.53125 16.8574V6.47754C5.53125 5.625 5.97949 5.20312 6.78809 5.20312H17.2031C18.0029 5.20312 18.46 5.625 18.46 6.47754V16.8574C18.46 17.71 18.0029 18.1318 17.2031 18.1318H6.78809ZM8.60742 10.7842C8.60742 11.0039 8.7832 11.1885 9.02051 11.1885H14.9971C15.2344 11.1885 15.4102 11.0039 15.4102 10.7842C15.4102 10.5381 15.2344 10.3623 14.9971 10.3623H14.4346C14.5928 10.125 14.6631 9.82617 14.6631 9.58008C14.6631 8.25293 13.4678 7.45312 11.9736 7.45312C10.998 7.45312 10.084 7.80469 9.62695 8.60449C9.50391 8.78906 9.44238 8.98242 9.44238 9.19336C9.43359 9.52734 9.66211 9.77344 10.0312 9.77344C10.2861 9.77344 10.4619 9.68555 10.6201 9.4043C10.8662 8.88574 11.3936 8.62207 11.9912 8.62207C12.7295 8.62207 13.3447 8.97363 13.3447 9.65918C13.3447 9.90527 13.2217 10.1953 12.958 10.3623H9.02051C8.77441 10.3623 8.60742 10.5381 8.60742 10.7842ZM15.3926 12.4365C15.3926 12.2168 15.2168 12.0322 14.9795 12.0322H9.00293C8.76562 12.0322 8.58984 12.2168 8.58984 12.4365C8.58984 12.6826 8.76562 12.8584 9.00293 12.8584H9.56543C9.40723 13.0957 9.33691 13.3945 9.33691 13.6406C9.33691 14.9678 10.5322 15.7676 12.0264 15.7676C13.0107 15.7676 13.9248 15.416 14.3818 14.6162C14.4961 14.4316 14.5576 14.2383 14.5664 14.0273C14.5664 13.6934 14.3379 13.4473 13.9688 13.4473C13.7139 13.4473 13.5381 13.5352 13.3799 13.8164C13.1426 14.335 12.6064 14.5986 12.0088 14.5986C11.2705 14.5986 10.6553 14.2471 10.6553 13.5615C10.6553 13.3154 10.7871 13.0254 11.042 12.8584H14.9795C15.2256 12.8584 15.3926 12.6826 15.3926 12.4365Z" fill="#1C1C1E"/>
</g>
<defs>
<clipPath id="clip0_10_1362">
<rect width="24" height="24" fill="white"/>
</clipPath>
</defs>
</svg>
