<svg width="24" height="24" viewBox="0 0 24 24" fill="none" xmlns="http://www.w3.org/2000/svg">
<g clip-path="url(#clip0_10_1347)">
<path d="M6.67383 19.8809H17.3174C19.2246 19.8809 20.209 18.8965 20.209 17.0156V6.31934C20.209 4.43848 19.2246 3.4541 17.3174 3.4541H6.67383C4.77539 3.4541 3.78223 4.42969 3.78223 6.31934V17.0156C3.78223 18.8965 4.77539 19.8809 6.67383 19.8809ZM8.49316 10.749C8.49316 10.4941 8.66016 10.3096 8.91504 10.3096H13.0107C13.2832 10.1338 13.4062 9.83496 13.4062 9.58008C13.4062 8.87695 12.7734 8.50781 12.0088 8.50781C11.3936 8.50781 10.8486 8.78027 10.5938 9.31641C10.4268 9.60645 10.2422 9.70312 9.97852 9.70312C9.5918 9.70312 9.3457 9.43945 9.35449 9.08789C9.36328 8.86816 9.4248 8.66602 9.54785 8.48145C10.0225 7.64648 10.9805 7.27734 11.9912 7.27734C13.5469 7.27734 14.8037 8.1123 14.8037 9.50098C14.8037 9.75586 14.7158 10.0635 14.5576 10.3096H15.1465C15.3926 10.3096 15.5684 10.4941 15.5684 10.749C15.5684 10.9863 15.3926 11.1709 15.1465 11.1709H8.91504C8.66895 11.1709 8.49316 10.9863 8.49316 10.749ZM15.5508 12.4717C15.5508 12.7266 15.375 12.9023 15.1289 12.9023H11.0332C10.7607 13.0781 10.6289 13.377 10.6289 13.6406C10.6289 14.3438 11.2705 14.7041 12.0352 14.7041C12.6504 14.7041 13.2041 14.4404 13.4502 13.9043C13.6084 13.6143 13.8018 13.5088 14.0654 13.5088C14.4434 13.5088 14.6982 13.7725 14.6895 14.124C14.6807 14.3438 14.6191 14.5459 14.4961 14.7393C14.0215 15.5654 13.0635 15.9346 12.0527 15.9346C10.4971 15.9346 9.24023 15.0996 9.24023 13.7197C9.24023 13.4561 9.32812 13.1572 9.48633 12.9023H8.89746C8.65137 12.9023 8.4668 12.7266 8.4668 12.4717C8.4668 12.2344 8.65137 12.041 8.89746 12.041H15.1289C15.375 12.041 15.5508 12.2344 15.5508 12.4717Z" fill="#1C1C1E"/>
</g>
<defs>
<clipPath id="clip0_10_1347">
<rect width="24" height="24" fill="white"/>
</clipPath>
</defs>
</svg>
