<svg width="24" height="24" viewBox="0 0 24 24" fill="none" xmlns="http://www.w3.org/2000/svg">
<g clip-path="url(#clip0_10_1392)">
<path d="M11.9912 20.7422C16.9746 20.7422 21.0879 16.6289 21.0879 11.6543C21.0879 6.67969 16.9658 2.56641 11.9824 2.56641C7.00781 2.56641 2.90332 6.67969 2.90332 11.6543C2.90332 16.6289 7.0166 20.7422 11.9912 20.7422ZM11.9912 18.9316C7.95703 18.9316 4.73145 15.6885 4.73145 11.6543C4.73145 7.62012 7.95703 4.38574 11.9824 4.38574C16.0166 4.38574 19.2598 7.62012 19.2686 11.6543C19.2773 15.6885 16.0254 18.9316 11.9912 18.9316ZM12.8877 16.0049C13.2217 16.0049 13.5293 15.75 13.5293 15.3809C13.5293 15.1875 13.4238 15.0117 13.2656 14.8623L10.9717 12.709H11.1738C12.8174 12.6562 13.626 11.7158 13.8018 10.6611H14.6279C14.8652 10.6611 15.041 10.4766 15.041 10.248C15.041 10.002 14.8652 9.82617 14.6279 9.82617H13.8105C13.749 9.38672 13.5996 9 13.3359 8.68359H14.5928C14.8389 8.68359 15.0059 8.49902 15.0059 8.27051C15.0059 8.02441 14.8389 7.85742 14.5928 7.85742H12.7646C12.457 7.7959 12.123 7.76953 11.7715 7.76953H9.50391C9.1875 7.76953 8.93262 8.01562 8.93262 8.34082C8.93262 8.64844 9.1875 8.91211 9.50391 8.91211H10.9893C11.7363 8.91211 12.2461 9.24609 12.4043 9.82617H9.43359C9.20508 9.82617 9.0293 10.002 9.0293 10.248C9.0293 10.4766 9.20508 10.6611 9.43359 10.6611H12.4219C12.2637 11.2764 11.7363 11.584 10.8926 11.584H9.68848C9.28418 11.584 8.99414 11.8213 8.99414 12.2344C8.99414 12.5508 9.12598 12.709 9.35449 12.9287L12.2988 15.7148C12.5098 15.9258 12.6768 16.0049 12.8877 16.0049Z" fill="#1C1C1E"/>
</g>
<defs>
<clipPath id="clip0_10_1392">
<rect width="24" height="24" fill="white"/>
</clipPath>
</defs>
</svg>
