<svg width="24" height="24" viewBox="0 0 24 24" fill="none" xmlns="http://www.w3.org/2000/svg">
<g clip-path="url(#clip0_10_1375)">
<path d="M11.9912 20.7422C16.9746 20.7422 21.0879 16.6289 21.0879 11.6543C21.0879 6.67969 16.9658 2.56641 11.9824 2.56641C7.00781 2.56641 2.90332 6.67969 2.90332 11.6543C2.90332 16.6289 7.0166 20.7422 11.9912 20.7422ZM8.37891 11.6807C8.37891 11.4258 8.56348 11.25 8.80078 11.25H9.38086V8.15625C9.38086 7.70801 9.66211 7.43555 10.0928 7.43555C10.5146 7.43555 10.7959 7.70801 10.7959 8.15625V11.2412H11.1387L13.8457 7.77832C14.0215 7.53223 14.2324 7.42676 14.4346 7.42676C14.8213 7.42676 15.1025 7.69922 15.1025 8.05957C15.1025 8.19141 15.041 8.36719 14.9355 8.50781L12.7207 11.25H14.9092C15.1641 11.25 15.3311 11.4258 15.3311 11.6807C15.3311 11.918 15.1641 12.1113 14.9092 12.1113H12.7119L14.9355 14.9238C15.0498 15.082 15.1201 15.2666 15.1201 15.4248C15.1201 15.7939 14.8301 16.0752 14.4346 16.0752C14.2148 16.0752 13.9951 15.9521 13.8281 15.7061L11.1562 12.1553H10.7959V15.3369C10.7959 15.7939 10.5146 16.0752 10.0928 16.0752C9.6709 16.0752 9.38086 15.7939 9.38086 15.3369V12.1113H8.80078C8.56348 12.1113 8.37891 11.918 8.37891 11.6807Z" fill="#1C1C1E"/>
</g>
<defs>
<clipPath id="clip0_10_1375">
<rect width="24" height="24" fill="white"/>
</clipPath>
</defs>
</svg>
