<svg width="24" height="24" viewBox="0 0 24 24" fill="none" xmlns="http://www.w3.org/2000/svg">
<g clip-path="url(#clip0_10_1376)">
<path d="M11.9912 20.7422C16.9746 20.7422 21.0879 16.6289 21.0879 11.6543C21.0879 6.67969 16.9658 2.56641 11.9824 2.56641C7.00781 2.56641 2.90332 6.67969 2.90332 11.6543C2.90332 16.6289 7.0166 20.7422 11.9912 20.7422ZM11.9912 18.9316C7.95703 18.9316 4.73145 15.6885 4.73145 11.6543C4.73145 7.62012 7.95703 4.38574 11.9824 4.38574C16.0166 4.38574 19.2598 7.62012 19.2686 11.6543C19.2773 15.6885 16.0254 18.9316 11.9912 18.9316ZM8.51953 11.6895C8.51953 11.918 8.69531 12.1025 8.93262 12.1025H9.48633V15.2139C9.48633 15.6357 9.76758 15.9082 10.1631 15.9082C10.5586 15.9082 10.8398 15.6357 10.8398 15.2139V12.1377H11.1738L13.7666 15.5654C13.9248 15.7939 14.127 15.9082 14.3379 15.9082C14.707 15.9082 14.9883 15.6445 14.9883 15.293C14.9883 15.1436 14.9268 14.9678 14.8125 14.8184L12.668 12.1025H14.7861C15.0234 12.1025 15.1904 11.918 15.1904 11.6895C15.1904 11.4434 15.0234 11.2764 14.7861 11.2764H12.6768L14.8125 8.63086C14.918 8.49902 14.9707 8.33203 14.9707 8.2002C14.9707 7.85742 14.707 7.60254 14.3379 7.60254C14.1445 7.60254 13.9512 7.69922 13.7842 7.92773L11.165 11.2676H10.8398V8.29688C10.8398 7.875 10.5674 7.61133 10.1631 7.61133C9.75 7.61133 9.48633 7.875 9.48633 8.29688V11.2764H8.93262C8.69531 11.2764 8.51953 11.4434 8.51953 11.6895Z" fill="#1C1C1E"/>
</g>
<defs>
<clipPath id="clip0_10_1376">
<rect width="24" height="24" fill="white"/>
</clipPath>
</defs>
</svg>
