<svg width="24" height="24" viewBox="0 0 24 24" fill="none" xmlns="http://www.w3.org/2000/svg">
<g clip-path="url(#clip0_10_1352)">
<path d="M6.67383 19.8809H17.3174C19.2246 19.8809 20.209 18.8965 20.209 17.0156V6.31934C20.209 4.43848 19.2246 3.4541 17.3174 3.4541H6.67383C4.77539 3.4541 3.78223 4.42969 3.78223 6.31934V17.0156C3.78223 18.8965 4.77539 19.8809 6.67383 19.8809ZM9.03809 15.9082C8.66895 15.9082 8.43164 15.6709 8.43164 15.3193C8.43164 14.9766 8.68652 14.7305 9.04688 14.7305H10.1631C9.15234 14.0449 8.4668 12.7881 8.4668 11.3115C8.4668 9.55371 9.38086 8.2002 10.8662 7.70801V6.94336C10.8662 6.68848 11.0508 6.5127 11.2969 6.5127C11.543 6.5127 11.7188 6.68848 11.7188 6.94336V7.5498C11.8594 7.54102 12.0088 7.53223 12.1406 7.53223C12.2637 7.53223 12.3779 7.53223 12.4922 7.54102V6.94336C12.4922 6.68848 12.668 6.5127 12.9141 6.5127C13.1602 6.5127 13.3359 6.68848 13.3359 6.94336V7.73438C14.7773 8.22656 15.6211 9.63281 15.6299 11.0918C15.6299 11.4785 15.375 11.7598 14.9795 11.7598C14.5752 11.7598 14.3291 11.4961 14.3115 11.1094C14.2852 10.2393 13.9248 9.54492 13.3359 9.14062V11.2412C13.3359 11.4873 13.1602 11.6631 12.9141 11.6631C12.668 11.6631 12.4922 11.4873 12.4922 11.2412V8.81543C12.3867 8.79785 12.2637 8.78027 12.1318 8.78027C12.0088 8.78027 11.8594 8.79785 11.7188 8.81543V11.2412C11.7188 11.4873 11.543 11.6631 11.2969 11.6631C11.0508 11.6631 10.8662 11.4873 10.8662 11.2412V9.12305C10.1982 9.55371 9.8291 10.3535 9.8291 11.4961C9.8291 13.333 11.2881 14.7129 13.1514 14.7129H14.5752C14.9443 14.7129 15.208 14.959 15.208 15.3105C15.208 15.6621 14.9531 15.9082 14.5752 15.9082H9.03809Z" fill="#1C1C1E"/>
</g>
<defs>
<clipPath id="clip0_10_1352">
<rect width="24" height="24" fill="white"/>
</clipPath>
</defs>
</svg>
