<svg width="24" height="24" viewBox="0 0 24 24" fill="none" xmlns="http://www.w3.org/2000/svg">
<g clip-path="url(#clip0_10_1353)">
<path d="M6.67383 19.8809H17.3174C19.2246 19.8809 20.209 18.8965 20.209 17.0156V6.31934C20.209 4.43848 19.2246 3.4541 17.3174 3.4541H6.67383C4.77539 3.4541 3.78223 4.42969 3.78223 6.31934V17.0156C3.78223 18.8965 4.77539 19.8809 6.67383 19.8809ZM6.78809 18.1318C5.97949 18.1318 5.53125 17.71 5.53125 16.8574V6.47754C5.53125 5.625 5.97949 5.20312 6.78809 5.20312H17.2031C18.0029 5.20312 18.46 5.625 18.46 6.47754V16.8574C18.46 17.71 18.0029 18.1318 17.2031 18.1318H6.78809ZM9.13477 15.75H14.4609C14.8125 15.75 15.0586 15.5127 15.0586 15.1699C15.0586 14.8359 14.8125 14.6074 14.4609 14.6074H13.0811C11.2969 14.6074 9.88184 13.2803 9.88184 11.5049C9.88184 10.4062 10.2422 9.62402 10.8926 9.21094V11.2588C10.8926 11.4961 11.0684 11.6631 11.2969 11.6631C11.543 11.6631 11.71 11.4961 11.71 11.2588V8.9209C11.8506 8.90332 11.9824 8.89453 12.1143 8.89453C12.2373 8.89453 12.3516 8.90332 12.457 8.9209V11.2588C12.457 11.4961 12.624 11.6631 12.8613 11.6631C13.0986 11.6631 13.2656 11.4961 13.2656 11.2588V9.2373C13.8369 9.62402 14.1885 10.292 14.2148 11.1357C14.2324 11.5049 14.4697 11.7598 14.8477 11.7598C15.2168 11.7598 15.4629 11.4873 15.4629 11.1182C15.4541 9.71191 14.6455 8.36719 13.2656 7.89258V7.12793C13.2656 6.88184 13.0986 6.71484 12.8613 6.71484C12.624 6.71484 12.457 6.88184 12.457 7.12793V7.70801C12.3428 7.69043 12.2285 7.69043 12.123 7.69043C11.9912 7.69043 11.8506 7.69922 11.71 7.70801V7.12793C11.71 6.88184 11.5342 6.71484 11.2969 6.71484C11.0684 6.71484 10.8926 6.88184 10.8926 7.12793V7.875C9.46875 8.34961 8.58984 9.63281 8.58984 11.3291C8.58984 12.7529 9.24023 13.9658 10.2334 14.6162H9.14355C8.79199 14.6162 8.55469 14.8535 8.55469 15.1787C8.55469 15.5215 8.7832 15.75 9.13477 15.75Z" fill="#1C1C1E"/>
</g>
<defs>
<clipPath id="clip0_10_1353">
<rect width="24" height="24" fill="white"/>
</clipPath>
</defs>
</svg>
