<svg width="24" height="24" viewBox="0 0 24 24" fill="none" xmlns="http://www.w3.org/2000/svg">
<g clip-path="url(#clip0_10_1368)">
<path d="M11.9912 20.7422C16.9746 20.7422 21.0879 16.6289 21.0879 11.6543C21.0879 6.67969 16.9658 2.56641 11.9824 2.56641C7.00781 2.56641 2.90332 6.67969 2.90332 11.6543C2.90332 16.6289 7.0166 20.7422 11.9912 20.7422ZM11.9912 18.9316C7.95703 18.9316 4.73145 15.6885 4.73145 11.6543C4.73145 7.62012 7.95703 4.38574 11.9824 4.38574C16.0166 4.38574 19.2598 7.62012 19.2686 11.6543C19.2773 15.6885 16.0254 18.9316 11.9912 18.9316ZM8.75684 15.0908C8.75684 15.4424 8.99414 15.6797 9.35449 15.6797H14.4697C14.8301 15.6797 15.085 15.4424 15.085 15.082C15.085 14.7217 14.8301 14.4932 14.4697 14.4932H10.9541C11.2881 14.2031 11.5342 13.7373 11.6133 13.2188C11.6309 13.0957 11.6396 12.9727 11.6396 12.8496H13.6436C13.916 12.8496 14.1006 12.6738 14.1006 12.4014C14.1006 12.1377 13.916 11.9619 13.6436 11.9619H11.5693C11.5166 11.707 11.4463 11.4697 11.3848 11.2324H13.6436C13.916 11.2324 14.1006 11.0479 14.1006 10.7842C14.1006 10.5205 13.916 10.3447 13.6436 10.3447H11.2354C11.2266 10.2744 11.2178 10.1777 11.2178 10.0986C11.2178 9.2373 11.8418 8.64844 12.9316 8.64844C13.5557 8.64844 13.8984 8.78906 14.2061 8.81543C14.5576 8.82422 14.7686 8.63086 14.7686 8.29688C14.7686 8.05078 14.6455 7.85742 14.3379 7.72559C13.9424 7.54102 13.4238 7.4707 12.8086 7.4707C10.9629 7.4707 9.85547 8.50781 9.85547 10.0986C9.85547 10.1865 9.86426 10.2568 9.87305 10.3447H9.20508C8.94141 10.3447 8.74805 10.5205 8.74805 10.7842C8.74805 11.0479 8.94141 11.2324 9.20508 11.2324H10.0225C10.084 11.4785 10.1543 11.7246 10.207 11.9619H9.20508C8.94141 11.9619 8.74805 12.1377 8.74805 12.4014C8.74805 12.6738 8.94141 12.8496 9.20508 12.8496H10.3213C10.3213 12.9375 10.3125 13.0254 10.3037 13.1221C10.2246 13.7988 9.78516 14.2646 9.24902 14.4404C8.91504 14.5723 8.75684 14.7656 8.75684 15.0908Z" fill="#1C1C1E"/>
</g>
<defs>
<clipPath id="clip0_10_1368">
<rect width="24" height="24" fill="white"/>
</clipPath>
</defs>
</svg>
