<svg width="24" height="24" viewBox="0 0 24 24" fill="none" xmlns="http://www.w3.org/2000/svg">
<g clip-path="url(#clip0_10_1366)">
<path d="M6.67383 19.8809H17.3174C19.2246 19.8809 20.209 18.8965 20.209 17.0156V6.31934C20.209 4.43848 19.2246 3.4541 17.3174 3.4541H6.67383C4.77539 3.4541 3.78223 4.42969 3.78223 6.31934V17.0156C3.78223 18.8965 4.77539 19.8809 6.67383 19.8809ZM8.65137 15.2139C8.65137 14.8799 8.82715 14.6689 9.16992 14.5283C9.72363 14.3525 10.1807 13.8779 10.2598 13.1748C10.2773 13.0781 10.2861 12.9814 10.2773 12.8848H9.12598C8.84473 12.8848 8.64258 12.7002 8.64258 12.4277C8.64258 12.1465 8.84473 11.9619 9.12598 11.9619H10.1631C10.1104 11.7158 10.0312 11.4609 9.96973 11.2061H9.12598C8.84473 11.2061 8.64258 11.0215 8.64258 10.749C8.64258 10.4678 8.84473 10.2832 9.12598 10.2832H9.82031C9.81152 10.1953 9.80273 10.1162 9.80273 10.0283C9.80273 8.36719 10.9541 7.29492 12.8789 7.29492C13.5205 7.29492 14.0566 7.36523 14.4785 7.5498C14.7949 7.69922 14.918 7.90137 14.918 8.16504C14.918 8.50781 14.6982 8.70996 14.3291 8.70117C14.0039 8.6748 13.6611 8.52539 13.0107 8.52539C11.877 8.52539 11.2354 9.14062 11.2354 10.0283C11.2354 10.1162 11.2354 10.2129 11.2441 10.2832H13.749C14.0215 10.2832 14.2236 10.4678 14.2236 10.749C14.2236 11.0215 14.0215 11.2061 13.749 11.2061H11.4111C11.4727 11.4521 11.5342 11.6982 11.5957 11.9619H13.749C14.0215 11.9619 14.2236 12.1465 14.2236 12.4277C14.2236 12.7002 14.0215 12.8848 13.749 12.8848H11.666C11.666 13.0166 11.6572 13.1396 11.6396 13.2715C11.5518 13.7988 11.3145 14.291 10.9629 14.5811H14.6016C14.9795 14.5811 15.252 14.8359 15.252 15.2051C15.252 15.5918 14.9795 15.8291 14.6016 15.8291H9.28418C8.91504 15.8291 8.65137 15.5918 8.65137 15.2139Z" fill="#1C1C1E"/>
</g>
<defs>
<clipPath id="clip0_10_1366">
<rect width="24" height="24" fill="white"/>
</clipPath>
</defs>
</svg>
