<svg width="24" height="24" viewBox="0 0 24 24" fill="none" xmlns="http://www.w3.org/2000/svg">
<g clip-path="url(#clip0_10_1314)">
<path d="M11.9912 20.7422C16.9746 20.7422 21.0879 16.6289 21.0879 11.6543C21.0879 6.67969 16.9658 2.56641 11.9824 2.56641C7.00781 2.56641 2.90332 6.67969 2.90332 11.6543C2.90332 16.6289 7.0166 20.7422 11.9912 20.7422ZM11.9912 18.9316C7.95703 18.9316 4.73145 15.6885 4.73145 11.6543C4.73145 7.62012 7.95703 4.38574 11.9824 4.38574C16.0166 4.38574 19.2598 7.62012 19.2686 11.6543C19.2773 15.6885 16.0254 18.9316 11.9912 18.9316ZM8.7832 14.9414C8.7832 15.3809 9.06445 15.6357 9.46875 15.6357C9.87305 15.6357 10.1367 15.3809 10.1367 14.9414V12.3311C10.1367 10.8457 10.6465 9.98438 11.4902 9.76465V15.126C11.4902 15.4336 11.6924 15.627 11.9912 15.627C12.2461 15.627 12.4658 15.4336 12.4658 15.126V9.75586C13.3271 9.9668 13.8457 10.8281 13.8457 12.3311V14.9414C13.8457 15.3809 14.1182 15.6357 14.5225 15.6357C14.9268 15.6357 15.1904 15.3809 15.1904 14.9414V12.2959C15.1904 10.0195 14.127 8.69238 12.4658 8.48145V7.62012C12.4658 7.29492 12.2461 7.12793 11.9912 7.12793C11.6924 7.12793 11.4902 7.30371 11.4902 7.62012V8.49023C9.83789 8.70117 8.7832 10.0283 8.7832 12.2959V14.9414Z" fill="#1C1C1E"/>
</g>
<defs>
<clipPath id="clip0_10_1314">
<rect width="24" height="24" fill="white"/>
</clipPath>
</defs>
</svg>
