<svg width="24" height="24" viewBox="0 0 24 24" fill="none" xmlns="http://www.w3.org/2000/svg">
<g clip-path="url(#clip0_10_1313)">
<path d="M11.9912 20.7422C16.9746 20.7422 21.0879 16.6289 21.0879 11.6543C21.0879 6.67969 16.9658 2.56641 11.9824 2.56641C7.00781 2.56641 2.90332 6.67969 2.90332 11.6543C2.90332 16.6289 7.0166 20.7422 11.9912 20.7422ZM8.66895 15.0469V12.3047C8.66895 9.9668 9.76758 8.5957 11.4727 8.37598V7.47949C11.4727 7.1543 11.6836 6.96973 11.9912 6.96973C12.2549 6.96973 12.4834 7.14551 12.4834 7.47949V8.37598C14.2061 8.58691 15.3047 9.95801 15.3047 12.3047V15.0469C15.3047 15.4951 15.0234 15.7588 14.6016 15.7588C14.1885 15.7588 13.9072 15.4951 13.9072 15.0469V12.3486C13.9072 10.8018 13.3711 9.90527 12.4834 9.69434V15.2314C12.4834 15.5566 12.2549 15.75 11.9912 15.75C11.6836 15.75 11.4727 15.5479 11.4727 15.2314V9.69434C10.6025 9.93164 10.084 10.8193 10.084 12.3486V15.0469C10.084 15.4951 9.80273 15.7588 9.38965 15.7588C8.96777 15.7588 8.66895 15.4951 8.66895 15.0469Z" fill="#1C1C1E"/>
</g>
<defs>
<clipPath id="clip0_10_1313">
<rect width="24" height="24" fill="white"/>
</clipPath>
</defs>
</svg>
