<svg width="24" height="24" viewBox="0 0 24 24" fill="none" xmlns="http://www.w3.org/2000/svg">
<g clip-path="url(#clip0_10_1311)">
<path d="M6.67383 19.8809H17.3174C19.2246 19.8809 20.209 18.8965 20.209 17.0156V6.31934C20.209 4.43848 19.2246 3.4541 17.3174 3.4541H6.67383C4.77539 3.4541 3.78223 4.42969 3.78223 6.31934V17.0156C3.78223 18.8965 4.77539 19.8809 6.67383 19.8809ZM8.7041 15.0469V12.3047C8.7041 9.9668 9.80273 8.5957 11.5078 8.37598V7.47949C11.5078 7.1543 11.7188 6.96973 12.0264 6.96973C12.29 6.96973 12.5186 7.14551 12.5186 7.47949V8.37598C14.2412 8.58691 15.3398 9.95801 15.3398 12.3047V15.0469C15.3398 15.4951 15.0586 15.7588 14.6367 15.7588C14.2236 15.7588 13.9424 15.4951 13.9424 15.0469V12.3486C13.9424 10.8018 13.4062 9.90527 12.5186 9.69434V15.2314C12.5186 15.5566 12.29 15.75 12.0264 15.75C11.7188 15.75 11.5078 15.5479 11.5078 15.2314V9.69434C10.6377 9.93164 10.1191 10.8193 10.1191 12.3486V15.0469C10.1191 15.4951 9.83789 15.7588 9.4248 15.7588C9.00293 15.7588 8.7041 15.4951 8.7041 15.0469Z" fill="#1C1C1E"/>
</g>
<defs>
<clipPath id="clip0_10_1311">
<rect width="24" height="24" fill="white"/>
</clipPath>
</defs>
</svg>
