<svg width="24" height="24" viewBox="0 0 24 24" fill="none" xmlns="http://www.w3.org/2000/svg">
<g clip-path="url(#clip0_10_1321)">
<path d="M6.67383 19.8809H17.3174C19.2246 19.8809 20.209 18.8965 20.209 17.0156V6.31934C20.209 4.43848 19.2246 3.4541 17.3174 3.4541H6.67383C4.77539 3.4541 3.78223 4.42969 3.78223 6.31934V17.0156C3.78223 18.8965 4.77539 19.8809 6.67383 19.8809ZM6.78809 18.1318C5.97949 18.1318 5.53125 17.71 5.53125 16.8574V6.47754C5.53125 5.625 5.97949 5.20312 6.78809 5.20312H17.2031C18.0029 5.20312 18.46 5.625 18.46 6.47754V16.8574C18.46 17.71 18.0029 18.1318 17.2031 18.1318H6.78809ZM8.625 14.2119C8.625 14.5723 8.87988 14.8096 9.24902 14.8096C9.60938 14.8096 9.85547 14.5635 9.85547 14.2031V10.8721C9.85547 10.2832 10.1631 9.89648 10.6641 9.89648C11.1035 9.89648 11.4199 10.248 11.4199 10.7578V11.3027L9.65332 16.04C9.62695 16.1104 9.60938 16.1895 9.60938 16.2686C9.60938 16.4883 9.77637 16.6553 10.0049 16.6553C10.1895 16.6553 10.3213 16.5498 10.4004 16.3564L11.4287 13.5879V14.2383C11.4287 14.5811 11.666 14.8096 12.0176 14.8096C12.3604 14.8096 12.6064 14.5635 12.6064 14.2031V10.8369C12.6064 10.2656 12.9141 9.89648 13.4062 9.89648C13.8896 9.89648 14.1709 10.248 14.1709 10.8105V14.2031C14.1709 14.5723 14.417 14.8096 14.7773 14.8096C15.1377 14.8096 15.3838 14.5723 15.3838 14.2031V10.6172C15.3838 9.4834 14.7422 8.78906 13.749 8.78906C13.5908 8.78906 13.459 8.81543 13.3447 8.85938L14.0215 7.25098C14.0479 7.18066 14.0654 7.11035 14.0654 7.03125C14.0654 6.81152 13.8896 6.64453 13.6611 6.64453C13.4766 6.64453 13.3447 6.75879 13.2744 6.93457L12.2021 9.50098C11.9473 8.99121 11.5078 8.7627 10.9717 8.7627C10.4795 8.7627 10.0576 9 9.80273 9.49219V9.4043C9.80273 9.00879 9.56543 8.78906 9.22266 8.78906C8.87109 8.78906 8.625 9.03516 8.625 9.39551V14.2119Z" fill="#1C1C1E"/>
</g>
<defs>
<clipPath id="clip0_10_1321">
<rect width="24" height="24" fill="white"/>
</clipPath>
</defs>
</svg>
