<svg width="24" height="24" viewBox="0 0 24 24" fill="none" xmlns="http://www.w3.org/2000/svg">
<g clip-path="url(#clip0_10_1322)">
<path d="M11.9912 20.7422C16.9746 20.7422 21.0879 16.6289 21.0879 11.6543C21.0879 6.67969 16.9658 2.56641 11.9824 2.56641C7.00781 2.56641 2.90332 6.67969 2.90332 11.6543C2.90332 16.6289 7.0166 20.7422 11.9912 20.7422ZM8.47559 14.3174V9.31641C8.47559 8.92969 8.73047 8.66602 9.09961 8.66602C9.45996 8.66602 9.70605 8.89453 9.70605 9.31641V9.4043C9.96973 8.88574 10.4092 8.63965 10.9189 8.63965C11.4814 8.63965 11.9385 8.88574 12.2021 9.41309L13.3096 6.75C13.3975 6.56543 13.5293 6.44238 13.7227 6.44238C13.96 6.44238 14.1445 6.61816 14.1445 6.84668C14.1445 6.92578 14.127 7.00488 14.0918 7.0752L13.3887 8.74512C13.5117 8.70117 13.6436 8.6748 13.8018 8.6748C14.8389 8.6748 15.5068 9.4043 15.5068 10.5732V14.2998C15.5068 14.6865 15.252 14.9502 14.874 14.9502C14.5049 14.9502 14.2412 14.6865 14.2412 14.2998V10.7754C14.2412 10.2041 13.9424 9.82617 13.4414 9.82617C12.9316 9.82617 12.624 10.2217 12.624 10.8018V14.2998C12.624 14.6865 12.3604 14.9414 12 14.9414C11.6396 14.9414 11.3848 14.7041 11.3848 14.335V13.6846L10.3125 16.5498C10.2422 16.7432 10.0928 16.8574 9.9082 16.8574C9.6709 16.8574 9.49512 16.6816 9.49512 16.4531C9.49512 16.374 9.5127 16.2861 9.53906 16.2158L11.376 11.3027V10.7227C11.376 10.2041 11.0596 9.82617 10.5938 9.82617C10.0752 9.82617 9.75879 10.2393 9.75879 10.8457V14.2998C9.75879 14.6865 9.49512 14.9414 9.11719 14.9414C8.73926 14.9414 8.47559 14.6865 8.47559 14.3174Z" fill="#1C1C1E"/>
</g>
<defs>
<clipPath id="clip0_10_1322">
<rect width="24" height="24" fill="white"/>
</clipPath>
</defs>
</svg>
