<svg width="24" height="24" viewBox="0 0 24 24" fill="none" xmlns="http://www.w3.org/2000/svg">
<g clip-path="url(#clip0_10_1320)">
<path d="M6.67383 19.8809H17.3174C19.2246 19.8809 20.209 18.8965 20.209 17.0156V6.31934C20.209 4.43848 19.2246 3.4541 17.3174 3.4541H6.67383C4.77539 3.4541 3.78223 4.42969 3.78223 6.31934V17.0156C3.78223 18.8965 4.77539 19.8809 6.67383 19.8809ZM8.51074 14.3174V9.31641C8.51074 8.92969 8.76562 8.66602 9.13477 8.66602C9.49512 8.66602 9.74121 8.89453 9.74121 9.31641V9.4043C10.0049 8.88574 10.4443 8.63965 10.9541 8.63965C11.5166 8.63965 11.9736 8.88574 12.2373 9.41309L13.3535 6.75C13.4326 6.56543 13.5645 6.44238 13.7578 6.44238C13.9951 6.44238 14.1797 6.61816 14.1797 6.84668C14.1797 6.92578 14.1621 7.00488 14.127 7.0752L13.4238 8.74512C13.5469 8.70117 13.6787 8.6748 13.8369 8.6748C14.874 8.6748 15.542 9.4043 15.542 10.5732V14.2998C15.542 14.6865 15.2871 14.9502 14.9092 14.9502C14.54 14.9502 14.2764 14.6865 14.2764 14.2998V10.7754C14.2764 10.2041 13.9775 9.82617 13.4766 9.82617C12.9668 9.82617 12.6592 10.2217 12.6592 10.8018V14.2998C12.6592 14.6865 12.3955 14.9414 12.0352 14.9414C11.6748 14.9414 11.4199 14.7041 11.4199 14.335V13.6846L10.3477 16.5498C10.2773 16.7432 10.1279 16.8574 9.94336 16.8574C9.70605 16.8574 9.53027 16.6816 9.53027 16.4531C9.53027 16.374 9.54785 16.2861 9.57422 16.2158L11.4111 11.3027V10.7227C11.4111 10.2041 11.0947 9.82617 10.6289 9.82617C10.1104 9.82617 9.79395 10.2393 9.79395 10.8457V14.2998C9.79395 14.6865 9.53027 14.9414 9.15234 14.9414C8.77441 14.9414 8.51074 14.6865 8.51074 14.3174Z" fill="#1C1C1E"/>
</g>
<defs>
<clipPath id="clip0_10_1320">
<rect width="24" height="24" fill="white"/>
</clipPath>
</defs>
</svg>
