<svg width="24" height="24" viewBox="0 0 24 24" fill="none" xmlns="http://www.w3.org/2000/svg">
<g clip-path="url(#clip0_10_1345)">
<path d="M11.9912 20.7422C16.9746 20.7422 21.0879 16.6289 21.0879 11.6543C21.0879 6.67969 16.9658 2.56641 11.9824 2.56641C7.00781 2.56641 2.90332 6.67969 2.90332 11.6543C2.90332 16.6289 7.0166 20.7422 11.9912 20.7422ZM8.1416 11.7598C8.1416 11.5049 8.33496 11.3291 8.57227 11.3291H9.06445V8.28809C9.06445 7.77832 9.41602 7.43555 9.94336 7.43555C10.3916 7.43555 10.6816 7.67285 10.8662 8.06836L12.4395 11.3291H13.5205V8.13867C13.5205 7.70801 13.793 7.43555 14.2061 7.43555C14.6104 7.43555 14.8828 7.70801 14.8828 8.13867V11.3291H15.3926C15.6387 11.3291 15.8232 11.5137 15.8232 11.7686C15.8232 12.0059 15.6387 12.1992 15.3926 12.1992H14.8828V15.2314C14.8828 15.7412 14.5312 16.084 14.0039 16.084C13.5469 16.084 13.2568 15.8467 13.0811 15.4424L11.5078 12.1904H10.418V15.3809C10.418 15.8115 10.1543 16.0752 9.74121 16.0752C9.32812 16.0752 9.06445 15.8115 9.06445 15.3809V12.1904H8.57227C8.32617 12.1904 8.1416 11.9971 8.1416 11.7598ZM10.4092 11.3291H11.1562L10.4092 9.72949V11.3291ZM12.791 12.1992L13.5293 13.79V12.1992H12.791Z" fill="#1C1C1E"/>
</g>
<defs>
<clipPath id="clip0_10_1345">
<rect width="24" height="24" fill="white"/>
</clipPath>
</defs>
</svg>
