<svg width="24" height="24" viewBox="0 0 24 24" fill="none" xmlns="http://www.w3.org/2000/svg">
<g clip-path="url(#clip0_10_1344)">
<path d="M6.67383 19.8809H17.3174C19.2246 19.8809 20.209 18.8965 20.209 17.0156V6.31934C20.209 4.43848 19.2246 3.4541 17.3174 3.4541H6.67383C4.77539 3.4541 3.78223 4.42969 3.78223 6.31934V17.0156C3.78223 18.8965 4.77539 19.8809 6.67383 19.8809ZM6.78809 18.1318C5.97949 18.1318 5.53125 17.71 5.53125 16.8574V6.47754C5.53125 5.625 5.97949 5.20312 6.78809 5.20312H17.2031C18.0029 5.20312 18.46 5.625 18.46 6.47754V16.8574C18.46 17.71 18.0029 18.1318 17.2031 18.1318H6.78809ZM8.31738 11.7598C8.31738 11.9883 8.48438 12.1729 8.72168 12.1729H9.19629V15.249C9.19629 15.6533 9.45117 15.9082 9.83789 15.9082C10.2334 15.9082 10.4883 15.6533 10.4883 15.249V12.1729H11.543L13.0635 15.3105C13.2305 15.6885 13.5117 15.917 13.9424 15.917C14.4434 15.917 14.7773 15.5918 14.7773 15.0996V12.1816H15.2783C15.5068 12.1816 15.6826 11.9971 15.6826 11.7686C15.6826 11.5225 15.5068 11.3555 15.2783 11.3555H14.7773V8.27051C14.7773 7.86621 14.5225 7.61133 14.1357 7.61133C13.7402 7.61133 13.4854 7.86621 13.4854 8.27051V11.3555H12.4307L10.9102 8.20898C10.7432 7.83105 10.4619 7.60254 10.0312 7.60254C9.53027 7.60254 9.19629 7.92773 9.19629 8.41992V11.3467H8.72168C8.49316 11.3467 8.31738 11.5225 8.31738 11.7598ZM10.4883 11.3467V9.79102L11.2002 11.3467H10.4883ZM12.7734 12.1816H13.4854V13.7285L12.7734 12.1816Z" fill="#1C1C1E"/>
</g>
<defs>
<clipPath id="clip0_10_1344">
<rect width="24" height="24" fill="white"/>
</clipPath>
</defs>
</svg>
