<svg width="24" height="24" viewBox="0 0 24 24" fill="none" xmlns="http://www.w3.org/2000/svg">
<g clip-path="url(#clip0_10_1346)">
<path d="M11.9912 20.7422C16.9746 20.7422 21.0879 16.6289 21.0879 11.6543C21.0879 6.67969 16.9658 2.56641 11.9824 2.56641C7.00781 2.56641 2.90332 6.67969 2.90332 11.6543C2.90332 16.6289 7.0166 20.7422 11.9912 20.7422ZM11.9912 18.9316C7.95703 18.9316 4.73145 15.6885 4.73145 11.6543C4.73145 7.62012 7.95703 4.38574 11.9824 4.38574C16.0166 4.38574 19.2598 7.62012 19.2686 11.6543C19.2773 15.6885 16.0254 18.9316 11.9912 18.9316ZM8.2998 11.7686C8.2998 11.9971 8.4668 12.1816 8.71289 12.1816H9.17871V15.249C9.17871 15.6621 9.43359 15.917 9.8291 15.917C10.2158 15.917 10.4795 15.6621 10.4795 15.249V12.1816H11.5342L13.0459 15.3193C13.2217 15.6885 13.4941 15.917 13.9336 15.917C14.4346 15.917 14.7686 15.6006 14.7686 15.1084V12.1904H15.2607C15.4893 12.1904 15.6738 12.0059 15.6738 11.7686C15.6738 11.5312 15.4893 11.3555 15.2607 11.3555H14.7686V8.2793C14.7686 7.86621 14.5137 7.61133 14.1182 7.61133C13.7227 7.61133 13.4678 7.86621 13.4678 8.2793V11.3555H12.4219L10.8926 8.20898C10.7256 7.83984 10.4531 7.61133 10.0137 7.61133C9.5127 7.61133 9.17871 7.92773 9.17871 8.41992V11.3555H8.71289C8.47559 11.3555 8.2998 11.5225 8.2998 11.7686ZM10.4707 11.3555V9.7998L11.1826 11.3555H10.4707ZM12.7646 12.1904H13.4766V13.7373L12.7646 12.1904Z" fill="#1C1C1E"/>
</g>
<defs>
<clipPath id="clip0_10_1346">
<rect width="24" height="24" fill="white"/>
</clipPath>
</defs>
</svg>
