<svg width="24" height="24" viewBox="0 0 24 24" fill="none" xmlns="http://www.w3.org/2000/svg">
<g clip-path="url(#clip0_10_1382)">
<path d="M6.67383 19.8809H17.3174C19.2246 19.8809 20.209 18.8965 20.209 17.0156V6.31934C20.209 4.43848 19.2246 3.4541 17.3174 3.4541H6.67383C4.77539 3.4541 3.78223 4.42969 3.78223 6.31934V17.0156C3.78223 18.8965 4.77539 19.8809 6.67383 19.8809ZM6.78809 18.1318C5.97949 18.1318 5.53125 17.71 5.53125 16.8574V6.47754C5.53125 5.625 5.97949 5.20312 6.78809 5.20312H17.2031C18.0029 5.20312 18.46 5.625 18.46 6.47754V16.8574C18.46 17.71 18.0029 18.1318 17.2031 18.1318H6.78809ZM8.81836 10.3887C8.81836 10.626 8.98535 10.8105 9.22266 10.8105H9.71484V15.2666C9.71484 15.6973 10.0137 15.9521 10.4004 15.9521C10.7959 15.9521 11.0771 15.6973 11.0771 15.2666V13.1572H12.4922C13.9951 13.1572 15.041 12.1992 15.1992 10.8105H15.5947C15.8408 10.8105 16.0078 10.626 16.0078 10.3887C16.0078 10.1426 15.8408 9.97559 15.5947 9.97559H15.1904C14.9971 8.65723 13.9775 7.74316 12.5186 7.74316H10.4004C9.96973 7.74316 9.71484 8.00684 9.71484 8.44629V9.97559H9.22266C8.98535 9.97559 8.81836 10.1426 8.81836 10.3887ZM11.0771 9.97559V8.90332H12.2549C13.0811 8.90332 13.6436 9.28125 13.8018 9.97559H11.0771ZM11.0771 11.9971V10.8105H13.8193C13.6875 11.5752 13.125 11.9971 12.2549 11.9971H11.0771Z" fill="#1C1C1E"/>
</g>
<defs>
<clipPath id="clip0_10_1382">
<rect width="24" height="24" fill="white"/>
</clipPath>
</defs>
</svg>
