<svg width="24" height="24" viewBox="0 0 24 24" fill="none" xmlns="http://www.w3.org/2000/svg">
<g clip-path="url(#clip0_10_1381)">
<path d="M6.67383 19.8809H17.3174C19.2246 19.8809 20.209 18.8965 20.209 17.0156V6.31934C20.209 4.43848 19.2246 3.4541 17.3174 3.4541H6.67383C4.77539 3.4541 3.78223 4.42969 3.78223 6.31934V17.0156C3.78223 18.8965 4.77539 19.8809 6.67383 19.8809ZM8.7041 10.3447C8.7041 10.0898 8.87988 9.92285 9.12598 9.92285H9.62695V8.32324C9.62695 7.86621 9.9082 7.58496 10.3564 7.58496H12.5625C14.0918 7.58496 15.1377 8.53418 15.3398 9.92285H15.7705C16.0254 9.92285 16.1924 10.0898 16.1924 10.3447C16.1924 10.5908 16.0254 10.7842 15.7705 10.7842H15.3574C15.1904 12.2344 14.1006 13.2363 12.5273 13.2363H11.0684V15.4072C11.0684 15.8555 10.7695 16.1279 10.3564 16.1279C9.94336 16.1279 9.62695 15.8555 9.62695 15.4072V10.7842H9.12598C8.87988 10.7842 8.7041 10.5908 8.7041 10.3447ZM11.0684 9.92285H13.8809C13.7227 9.19336 13.1426 8.80664 12.29 8.80664H11.0684V9.92285ZM11.0684 12.0146H12.29C13.1865 12.0146 13.7666 11.584 13.8984 10.7842H11.0684V12.0146Z" fill="#1C1C1E"/>
</g>
<defs>
<clipPath id="clip0_10_1381">
<rect width="24" height="24" fill="white"/>
</clipPath>
</defs>
</svg>
