<svg width="24" height="24" viewBox="0 0 24 24" fill="none" xmlns="http://www.w3.org/2000/svg">
<g clip-path="url(#clip0_10_1384)">
<path d="M11.9912 20.7422C16.9746 20.7422 21.0879 16.6289 21.0879 11.6543C21.0879 6.67969 16.9658 2.56641 11.9824 2.56641C7.00781 2.56641 2.90332 6.67969 2.90332 11.6543C2.90332 16.6289 7.0166 20.7422 11.9912 20.7422ZM11.9912 18.9316C7.95703 18.9316 4.73145 15.6885 4.73145 11.6543C4.73145 7.62012 7.95703 4.38574 11.9824 4.38574C16.0166 4.38574 19.2598 7.62012 19.2686 11.6543C19.2773 15.6885 16.0254 18.9316 11.9912 18.9316ZM8.80078 10.3975C8.80078 10.6348 8.96777 10.8105 9.21387 10.8105H9.69727V15.2754C9.69727 15.6973 9.99609 15.9609 10.3828 15.9609C10.7783 15.9609 11.0596 15.6973 11.0596 15.2754V13.166H12.4746C13.9775 13.166 15.0234 12.208 15.1904 10.8105H15.5859C15.832 10.8105 15.9902 10.6348 15.9902 10.3975C15.9902 10.1514 15.832 9.98438 15.5859 9.98438H15.1729C14.9795 8.65723 13.9688 7.74316 12.501 7.74316H10.3828C9.96094 7.74316 9.69727 8.01562 9.69727 8.45508V9.98438H9.21387C8.96777 9.98438 8.80078 10.1514 8.80078 10.3975ZM11.0684 9.98438V8.91211H12.2461C13.0635 8.91211 13.626 9.28125 13.7842 9.98438H11.0684ZM11.0684 12.0059V10.8105H13.8105C13.6699 11.584 13.1074 12.0059 12.2373 12.0059H11.0684Z" fill="#1C1C1E"/>
</g>
<defs>
<clipPath id="clip0_10_1384">
<rect width="24" height="24" fill="white"/>
</clipPath>
</defs>
</svg>
