<svg width="24" height="24" viewBox="0 0 24 24" fill="none" xmlns="http://www.w3.org/2000/svg">
<g clip-path="url(#clip0_10_1377)">
<path d="M6.67383 19.8809H17.3174C19.2246 19.8809 20.209 18.8965 20.209 17.0156V6.31934C20.209 4.43848 19.2246 3.4541 17.3174 3.4541H6.67383C4.77539 3.4541 3.78223 4.42969 3.78223 6.31934V17.0156C3.78223 18.8965 4.77539 19.8809 6.67383 19.8809ZM8.64258 11.2061C8.64258 10.9424 8.81836 10.7666 9.07324 10.7666H9.58301V10.2217H9.07324C8.81836 10.2217 8.64258 10.0371 8.64258 9.79102C8.64258 9.53613 8.81836 9.36914 9.07324 9.36914H9.58301V8.32324C9.58301 7.86621 9.86426 7.58496 10.3125 7.58496H12.5186C13.793 7.58496 14.7422 8.29688 15.1377 9.36914H15.709C15.9727 9.36914 16.1309 9.53613 16.1309 9.79102C16.1309 10.0371 15.9727 10.2217 15.709 10.2217H15.3135C15.3311 10.3271 15.3311 10.4062 15.3311 10.5029C15.3311 10.5908 15.3223 10.6875 15.3135 10.7666H15.709C15.9727 10.7666 16.1309 10.9424 16.1309 11.2061C16.1309 11.4434 15.9727 11.6279 15.709 11.6279H15.1377C14.7422 12.7178 13.7754 13.4297 12.4834 13.4297H11.0156V15.416C11.0156 15.8555 10.7256 16.1279 10.3125 16.1279C9.89941 16.1279 9.58301 15.8555 9.58301 15.416V11.6279H9.07324C8.81836 11.6279 8.64258 11.4434 8.64258 11.2061ZM11.0244 9.36914H13.5557C13.2832 9.00879 12.835 8.80664 12.2549 8.80664H11.0244V9.36914ZM11.0244 10.7666H13.8984C13.916 10.6875 13.916 10.5908 13.916 10.4941C13.916 10.3975 13.916 10.3096 13.8984 10.2217H11.0244V10.7666ZM11.0244 12.208H12.2549C12.835 12.208 13.292 12.0059 13.5732 11.6279H11.0244V12.208Z" fill="#1C1C1E"/>
</g>
<defs>
<clipPath id="clip0_10_1377">
<rect width="24" height="24" fill="white"/>
</clipPath>
</defs>
</svg>
