<svg width="24" height="24" viewBox="0 0 24 24" fill="none" xmlns="http://www.w3.org/2000/svg">
<g clip-path="url(#clip0_10_1378)">
<path d="M6.67383 19.8809H17.3174C19.2246 19.8809 20.209 18.8965 20.209 17.0156V6.31934C20.209 4.43848 19.2246 3.4541 17.3174 3.4541H6.67383C4.77539 3.4541 3.78223 4.42969 3.78223 6.31934V17.0156C3.78223 18.8965 4.77539 19.8809 6.67383 19.8809ZM6.78809 18.1318C5.97949 18.1318 5.53125 17.71 5.53125 16.8574V6.47754C5.53125 5.625 5.97949 5.20312 6.78809 5.20312H17.2031C18.0029 5.20312 18.46 5.625 18.46 6.47754V16.8574C18.46 17.71 18.0029 18.1318 17.2031 18.1318H6.78809ZM8.76562 11.2148C8.76562 11.4434 8.93262 11.6279 9.16992 11.6279H9.6709V15.2754C9.6709 15.6973 9.96973 15.9609 10.3564 15.9609C10.752 15.9609 11.0332 15.6973 11.0332 15.2754V13.3506H12.4482C13.6875 13.3506 14.6191 12.665 14.9883 11.6279H15.542C15.7881 11.6279 15.9551 11.4434 15.9551 11.2148C15.9551 10.96 15.7881 10.793 15.542 10.793H15.1641C15.1729 10.7139 15.1816 10.626 15.1816 10.5381C15.1816 10.4502 15.1816 10.3711 15.1641 10.2744H15.542C15.7881 10.2744 15.9551 10.0898 15.9551 9.86133C15.9551 9.61523 15.7881 9.44824 15.542 9.44824H14.9883C14.6191 8.41992 13.6963 7.74316 12.4746 7.74316H10.3564C9.93457 7.74316 9.6709 8.00684 9.6709 8.44629V9.44824H9.16992C8.93262 9.44824 8.76562 9.61523 8.76562 9.86133C8.76562 10.0898 8.93262 10.2744 9.16992 10.2744H9.6709V10.793H9.16992C8.93262 10.793 8.76562 10.96 8.76562 11.2148ZM11.042 9.44824V8.90332H12.2285C12.791 8.90332 13.2217 9.09668 13.4941 9.44824H11.042ZM11.042 10.793V10.2744H13.8105C13.8281 10.3623 13.8281 10.4414 13.8281 10.5381C13.8281 10.626 13.8281 10.7139 13.8105 10.793H11.042ZM11.042 12.1904V11.6279H13.5029C13.2305 11.9883 12.791 12.1904 12.2197 12.1904H11.042Z" fill="#1C1C1E"/>
</g>
<defs>
<clipPath id="clip0_10_1378">
<rect width="24" height="24" fill="white"/>
</clipPath>
</defs>
</svg>
