<svg width="24" height="24" viewBox="0 0 24 24" fill="none" xmlns="http://www.w3.org/2000/svg">
<g clip-path="url(#clip0_10_1403)">
<path d="M6.67383 19.8809H17.3174C19.2246 19.8809 20.209 18.8965 20.209 17.0156V6.31934C20.209 4.43848 19.2246 3.4541 17.3174 3.4541H6.67383C4.77539 3.4541 3.78223 4.42969 3.78223 6.31934V17.0156C3.78223 18.8965 4.77539 19.8809 6.67383 19.8809ZM6.78809 18.1318C5.97949 18.1318 5.53125 17.71 5.53125 16.8574V6.47754C5.53125 5.625 5.97949 5.20312 6.78809 5.20312H17.2031C18.0029 5.20312 18.46 5.625 18.46 6.47754V16.8574C18.46 17.71 18.0029 18.1318 17.2031 18.1318H6.78809ZM10.5322 15.9873C10.9365 15.9873 11.209 15.7061 11.209 15.3018V14.5723H13.1338C13.3887 14.5723 13.5469 14.3965 13.5469 14.1592C13.5469 13.9131 13.3887 13.7461 13.1338 13.7461H11.209V12.8936H12.6152C14.25 12.8936 15.3047 11.8213 15.3047 10.3184C15.3047 8.81543 14.2676 7.72559 12.6504 7.72559H10.5322C10.1104 7.72559 9.85547 7.99805 9.85547 8.4375V12.0586H9.09961C8.84473 12.0586 8.67773 12.2344 8.67773 12.4805C8.67773 12.7178 8.84473 12.8936 9.09961 12.8936H9.85547V13.7461H9.1084C8.85352 13.7461 8.69531 13.9131 8.69531 14.1592C8.69531 14.3965 8.85352 14.5723 9.1084 14.5723H9.85547V15.3105C9.85547 15.7148 10.1367 15.9873 10.5322 15.9873ZM11.2178 11.7422V8.9209H12.3867C13.4062 8.9209 13.9424 9.46582 13.9424 10.3359C13.9424 11.1973 13.3975 11.751 12.3867 11.751L11.2178 11.7422Z" fill="#1C1C1E"/>
</g>
<defs>
<clipPath id="clip0_10_1403">
<rect width="24" height="24" fill="white"/>
</clipPath>
</defs>
</svg>
