<svg width="24" height="24" viewBox="0 0 24 24" fill="none" xmlns="http://www.w3.org/2000/svg">
<g clip-path="url(#clip0_10_1309)">
<path d="M11.9912 20.7422C16.9746 20.7422 21.0879 16.6289 21.0879 11.6543C21.0879 6.67969 16.9658 2.56641 11.9824 2.56641C7.00781 2.56641 2.90332 6.67969 2.90332 11.6543C2.90332 16.6289 7.0166 20.7422 11.9912 20.7422ZM9.19629 16.1367C8.82715 16.1367 8.61621 15.873 8.61621 15.46V8.12988C8.61621 7.68164 8.84473 7.42676 9.23145 7.42676H10.2422C11.5957 7.42676 12.2812 8.27051 12.2812 9.97559C12.2812 11.0303 11.8945 11.9443 11.209 12.3135L12.1758 15.1436C12.2285 15.293 12.2549 15.416 12.2549 15.5566C12.2549 15.8994 12.0176 16.1367 11.6836 16.1367C11.4023 16.1367 11.209 16.0137 11.1123 15.6973L10.1367 12.7266H9.79395V15.4775C9.79395 15.8818 9.56543 16.1367 9.19629 16.1367ZM9.79395 11.4521H10.1719C10.8135 11.4521 11.0859 10.9688 11.0859 10.0283C11.0859 9.08789 10.8135 8.5957 10.1982 8.5957H9.79395V11.4521ZM14.2676 16.1455C13.3008 16.1455 12.6943 15.5127 12.5889 14.6338C12.5713 14.5371 12.5713 14.4316 12.5713 14.3262C12.5713 13.9395 12.7822 13.6934 13.1338 13.6934C13.4766 13.6934 13.6611 13.9219 13.6963 14.2822C13.7314 14.7744 13.8984 15.0732 14.2676 15.0732C14.6191 15.0732 14.8037 14.8184 14.8037 14.3613C14.8037 13.9219 14.6191 13.6406 14.2061 13.4209L13.8545 13.2275C12.9932 12.7705 12.6416 12.1904 12.6416 11.3115C12.6416 10.2041 13.292 9.47461 14.2676 9.47461C15.1904 9.47461 15.7441 10.1338 15.8584 11.0215C15.8672 11.127 15.876 11.2148 15.876 11.3203C15.876 11.6982 15.665 11.9443 15.3223 11.9443C14.9795 11.9443 14.7949 11.7158 14.7686 11.3555C14.7246 10.8545 14.6191 10.5732 14.2588 10.5732C13.9512 10.5732 13.7842 10.8369 13.7842 11.2588C13.7842 11.6719 13.9775 11.918 14.4258 12.1641L14.7598 12.3486C15.6562 12.8408 15.9727 13.3682 15.9727 14.2559C15.9727 15.416 15.3047 16.1455 14.2676 16.1455Z" fill="#1C1C1E"/>
</g>
<defs>
<clipPath id="clip0_10_1309">
<rect width="24" height="24" fill="white"/>
</clipPath>
</defs>
</svg>
