<svg width="24" height="24" viewBox="0 0 24 24" fill="none" xmlns="http://www.w3.org/2000/svg">
<g clip-path="url(#clip0_10_1308)">
<path d="M6.67383 19.8809H17.3174C19.2246 19.8809 20.209 18.8965 20.209 17.0156V6.31934C20.209 4.43848 19.2246 3.4541 17.3174 3.4541H6.67383C4.77539 3.4541 3.78223 4.42969 3.78223 6.31934V17.0156C3.78223 18.8965 4.77539 19.8809 6.67383 19.8809ZM6.78809 18.1318C5.97949 18.1318 5.53125 17.71 5.53125 16.8574V6.47754C5.53125 5.625 5.97949 5.20312 6.78809 5.20312H17.2031C18.0029 5.20312 18.46 5.625 18.46 6.47754V16.8574C18.46 17.71 18.0029 18.1318 17.2031 18.1318H6.78809ZM9.32812 15.9697C9.6709 15.9697 9.89062 15.7236 9.89062 15.3369V12.6826H10.2246L11.1738 15.5479C11.2705 15.8467 11.4463 15.9697 11.7188 15.9697C12.0352 15.9697 12.2637 15.7324 12.2637 15.4072C12.2637 15.2842 12.2285 15.1523 12.1846 15.0205L11.2529 12.2959C11.9121 11.9355 12.29 11.0566 12.29 10.0459C12.29 8.41113 11.6221 7.59375 10.3213 7.59375H9.35449C8.99414 7.59375 8.76562 7.83984 8.76562 8.26172V15.3281C8.76562 15.7061 8.97656 15.9697 9.32812 15.9697ZM9.89062 11.4697V8.71875H10.2861C10.8838 8.71875 11.1475 9.19336 11.1475 10.0898C11.1475 10.9951 10.875 11.4697 10.2598 11.4697H9.89062ZM14.1885 15.9697C15.1816 15.9697 15.8232 15.2666 15.8232 14.1592C15.8232 13.3066 15.5156 12.7969 14.6631 12.3223L14.3379 12.1465C13.9072 11.9092 13.7227 11.6719 13.7227 11.2764C13.7227 10.8633 13.8809 10.6084 14.1797 10.6084C14.5312 10.6084 14.6367 10.8809 14.6719 11.3643C14.707 11.7158 14.874 11.9268 15.1992 11.9268C15.5332 11.9268 15.7354 11.707 15.7354 11.3291C15.7354 11.2324 15.7266 11.1533 15.7178 11.0566C15.6123 10.1953 15.085 9.5625 14.1885 9.5625C13.248 9.5625 12.6328 10.2656 12.6328 11.3291C12.6328 12.1729 12.9668 12.7266 13.793 13.166L14.127 13.3506C14.54 13.5615 14.707 13.834 14.707 14.2559C14.707 14.6953 14.5312 14.9414 14.1885 14.9414C13.8281 14.9414 13.6699 14.6514 13.6348 14.1855C13.5996 13.834 13.4326 13.6143 13.0986 13.6143C12.7646 13.6143 12.5625 13.8516 12.5625 14.2207C12.5625 14.3262 12.5625 14.4229 12.5801 14.5195C12.6855 15.3633 13.2744 15.9697 14.1885 15.9697Z" fill="#1C1C1E"/>
</g>
<defs>
<clipPath id="clip0_10_1308">
<rect width="24" height="24" fill="white"/>
</clipPath>
</defs>
</svg>
