<svg width="24" height="24" viewBox="0 0 24 24" fill="none" xmlns="http://www.w3.org/2000/svg">
<g clip-path="url(#clip0_10_1360)">
<path d="M6.67383 19.8809H17.3174C19.2246 19.8809 20.209 18.8965 20.209 17.0156V6.31934C20.209 4.43848 19.2246 3.4541 17.3174 3.4541H6.67383C4.77539 3.4541 3.78223 4.42969 3.78223 6.31934V17.0156C3.78223 18.8965 4.77539 19.8809 6.67383 19.8809ZM9.23145 16.1367C8.87109 16.1367 8.65137 15.873 8.65137 15.46V8.12988C8.65137 7.68164 8.88867 7.42676 9.2666 7.42676H10.2773C11.6309 7.42676 12.3164 8.27051 12.3164 9.97559C12.3164 11.0303 11.9297 11.9443 11.2441 12.3135L12.2109 15.1436C12.2637 15.293 12.29 15.416 12.29 15.5566C12.29 15.8994 12.0527 16.1367 11.7188 16.1367C11.4375 16.1367 11.2441 16.0137 11.1562 15.6973L10.1719 12.7266H9.8291V15.4775C9.8291 15.8818 9.60059 16.1367 9.23145 16.1367ZM9.8291 11.4521H10.207C10.8486 11.4521 11.1299 10.9688 11.1299 10.0283C11.1299 9.08789 10.8486 8.5957 10.2334 8.5957H9.8291V11.4521ZM14.3027 16.1455C13.3359 16.1455 12.7295 15.5127 12.624 14.6338C12.6064 14.5371 12.6064 14.4316 12.6064 14.3262C12.6064 13.9395 12.8174 13.6934 13.1689 13.6934C13.5117 13.6934 13.6963 13.9219 13.7314 14.2822C13.7666 14.7744 13.9336 15.0732 14.3027 15.0732C14.6543 15.0732 14.8389 14.8184 14.8389 14.3613C14.8389 13.9219 14.6543 13.6406 14.2412 13.4209L13.8896 13.2275C13.0283 12.7705 12.6768 12.1904 12.6768 11.3115C12.6768 10.2041 13.3271 9.47461 14.3027 9.47461C15.2256 9.47461 15.7793 10.1338 15.8936 11.0215C15.9023 11.127 15.9111 11.2148 15.9111 11.3203C15.9111 11.6982 15.709 11.9443 15.3574 11.9443C15.0146 11.9443 14.8301 11.7158 14.8037 11.3555C14.7598 10.8545 14.6543 10.5732 14.2939 10.5732C13.9863 10.5732 13.8193 10.8369 13.8193 11.2588C13.8193 11.6719 14.0127 11.918 14.4609 12.1641L14.7949 12.3486C15.6914 12.8408 16.0078 13.3682 16.0078 14.2559C16.0078 15.416 15.3398 16.1455 14.3027 16.1455Z" fill="#1C1C1E"/>
</g>
<defs>
<clipPath id="clip0_10_1360">
<rect width="24" height="24" fill="white"/>
</clipPath>
</defs>
</svg>
