<svg width="24" height="24" viewBox="0 0 24 24" fill="none" xmlns="http://www.w3.org/2000/svg">
<g clip-path="url(#clip0_10_1316)">
<path d="M6.67383 19.8809H17.3174C19.2246 19.8809 20.209 18.8965 20.209 17.0156V6.31934C20.209 4.43848 19.2246 3.4541 17.3174 3.4541H6.67383C4.77539 3.4541 3.78223 4.42969 3.78223 6.31934V17.0156C3.78223 18.8965 4.77539 19.8809 6.67383 19.8809ZM6.78809 18.1318C5.97949 18.1318 5.53125 17.71 5.53125 16.8574V6.47754C5.53125 5.625 5.97949 5.20312 6.78809 5.20312H17.2031C18.0029 5.20312 18.46 5.625 18.46 6.47754V16.8574C18.46 17.71 18.0029 18.1318 17.2031 18.1318H6.78809ZM10.5322 15.0117C10.5322 15.5479 10.8398 15.8291 11.3672 15.8291H12.9316C14.4346 15.8291 15.1025 15.1436 15.1025 13.3857V8.2793C15.1025 7.90137 14.874 7.64648 14.5049 7.64648C14.127 7.64648 13.8896 7.89258 13.8896 8.2793V13.2891C13.8896 14.291 13.5996 14.502 12.7119 14.502H11.5254V10.5908C11.5254 10.2656 11.332 10.0723 11.042 10.0723C10.7432 10.0723 10.5322 10.2656 10.5322 10.5908V15.0117ZM8.61621 15.2842C8.61621 15.6621 8.8623 15.9082 9.24023 15.9082C9.60938 15.9082 9.83789 15.6533 9.83789 15.2754V9.05273H10.9805C11.8418 9.05273 12.2021 9.31641 12.2021 10.2129V12.9551C12.2021 13.2803 12.4043 13.4824 12.7031 13.4824C13.002 13.4824 13.1953 13.2803 13.1953 12.9551V9.94043C13.1953 8.38477 12.5361 7.72559 11.0771 7.72559H9.46875C8.93262 7.72559 8.61621 8.02441 8.61621 8.56055V15.2842Z" fill="#1C1C1E"/>
</g>
<defs>
<clipPath id="clip0_10_1316">
<rect width="24" height="24" fill="white"/>
</clipPath>
</defs>
</svg>
