<svg width="24" height="24" viewBox="0 0 24 24" fill="none" xmlns="http://www.w3.org/2000/svg">
<g clip-path="url(#clip0_10_1416)">
<path d="M6.67383 19.8809H17.3174C19.2246 19.8809 20.209 18.8965 20.209 17.0156V6.31934C20.209 4.43848 19.2246 3.4541 17.3174 3.4541H6.67383C4.77539 3.4541 3.78223 4.42969 3.78223 6.31934V17.0156C3.78223 18.8965 4.77539 19.8809 6.67383 19.8809ZM9.22266 15.6973C8.85352 15.6973 8.59863 15.46 8.59863 15.082C8.59863 14.7393 8.77441 14.5547 9.11719 14.3965C9.72363 14.1855 10.2422 13.5967 10.2422 12.709C10.2422 12.4717 10.1982 12.2168 10.1367 11.9619H9.12598C8.81836 11.9619 8.58984 11.751 8.58984 11.4434C8.58984 11.1445 8.81836 10.9336 9.12598 10.9336H9.9082C9.82031 10.5908 9.75879 10.248 9.75879 9.89648C9.75879 8.23535 10.9102 7.1543 12.8262 7.1543C13.4766 7.1543 14.0039 7.2334 14.4258 7.40918C14.751 7.55859 14.874 7.76953 14.874 8.0332C14.874 8.36719 14.6807 8.56934 14.3115 8.56934C14.0215 8.56934 13.6963 8.39355 12.9668 8.39355C11.833 8.39355 11.1826 9 11.1826 9.90527C11.1826 10.292 11.2529 10.626 11.332 10.9336H13.7051C14.0215 10.9336 14.2412 11.1445 14.2412 11.4434C14.2412 11.751 14.0215 11.9619 13.7051 11.9619H11.5605C11.6133 12.1904 11.6396 12.4365 11.6396 12.709C11.6396 13.4121 11.3584 14.0625 10.9102 14.4492H14.5664C14.9443 14.4492 15.2168 14.6953 15.2168 15.0732C15.2168 15.4512 14.9443 15.6973 14.5664 15.6973H9.22266Z" fill="#1C1C1E"/>
</g>
<defs>
<clipPath id="clip0_10_1416">
<rect width="24" height="24" fill="white"/>
</clipPath>
</defs>
</svg>
