<svg width="24" height="24" viewBox="0 0 24 24" fill="none" xmlns="http://www.w3.org/2000/svg">
<g clip-path="url(#clip0_10_1418)">
<path d="M11.9912 20.751C16.9746 20.751 21.0879 16.6377 21.0879 11.6543C21.0879 6.67969 16.9658 2.56641 11.9824 2.56641C7.00781 2.56641 2.90332 6.67969 2.90332 11.6543C2.90332 16.6377 7.0166 20.751 11.9912 20.751ZM9.1875 15.6973C8.81836 15.6973 8.56348 15.46 8.56348 15.082C8.56348 14.7393 8.73926 14.5547 9.08203 14.3965C9.67969 14.1855 10.207 13.5967 10.207 12.709C10.207 12.4717 10.1631 12.2168 10.1016 11.9619H9.09082C8.7832 11.9619 8.55469 11.751 8.55469 11.4521C8.55469 11.1445 8.7832 10.9336 9.09082 10.9336H9.87305C9.77637 10.5996 9.72363 10.248 9.72363 9.89648C9.72363 8.23535 10.875 7.1543 12.791 7.1543C13.4414 7.1543 13.9688 7.24219 14.3906 7.41797C14.7158 7.55859 14.8389 7.76953 14.8389 8.0332C14.8389 8.37598 14.6455 8.57812 14.2764 8.57812C13.9863 8.57812 13.6611 8.39355 12.9316 8.39355C11.7979 8.39355 11.1475 9 11.1475 9.90527C11.1475 10.292 11.2178 10.626 11.2969 10.9336H13.6699C13.9863 10.9336 14.2061 11.1445 14.2061 11.4521C14.2061 11.751 13.9863 11.9619 13.6699 11.9619H11.5254C11.5781 12.1904 11.6045 12.4365 11.6045 12.709C11.6045 13.4121 11.3232 14.0625 10.875 14.4492H14.5312C14.9092 14.4492 15.1816 14.6953 15.1816 15.0732C15.1816 15.46 14.9092 15.6973 14.5312 15.6973H9.1875Z" fill="#1C1C1E"/>
</g>
<defs>
<clipPath id="clip0_10_1418">
<rect width="24" height="24" fill="white"/>
</clipPath>
</defs>
</svg>
