<svg width="24" height="24" viewBox="0 0 24 24" fill="none" xmlns="http://www.w3.org/2000/svg">
<g clip-path="url(#clip0_10_1417)">
<path d="M6.67383 19.8809H17.3174C19.2246 19.8809 20.209 18.8965 20.209 17.0156V6.31934C20.209 4.43848 19.2246 3.4541 17.3174 3.4541H6.67383C4.77539 3.4541 3.78223 4.42969 3.78223 6.31934V17.0156C3.78223 18.8965 4.77539 19.8809 6.67383 19.8809ZM6.78809 18.1318C5.97949 18.1318 5.53125 17.71 5.53125 16.8574V6.47754C5.53125 5.625 5.97949 5.20312 6.78809 5.20312H17.2031C18.0029 5.20312 18.46 5.625 18.46 6.47754V16.8574C18.46 17.71 18.0029 18.1318 17.2031 18.1318H6.78809ZM9.31055 15.5391H14.4521C14.8125 15.5391 15.0674 15.3105 15.0674 14.9502C15.0674 14.5898 14.8125 14.3525 14.4521 14.3525H10.9277C11.3496 13.9834 11.6309 13.3506 11.6309 12.6738C11.6309 12.4014 11.5957 12.1729 11.5518 11.9531H13.6172C13.9248 11.9531 14.127 11.751 14.127 11.4609C14.127 11.1621 13.9248 10.9688 13.6172 10.9688H11.3232C11.2529 10.6699 11.1914 10.3447 11.1914 9.97559C11.1914 9.09668 11.8066 8.50781 12.8965 8.50781C13.6084 8.50781 13.9248 8.69238 14.2061 8.69238C14.5488 8.69238 14.7422 8.49023 14.7422 8.17383C14.7422 7.91895 14.6191 7.7168 14.3027 7.57617C13.8984 7.40918 13.3975 7.33008 12.7822 7.33008C10.9277 7.33008 9.82031 8.36719 9.82031 9.95801C9.82031 10.3008 9.88184 10.6436 9.96973 10.9688H9.22266C8.92383 10.9688 8.71289 11.1621 8.71289 11.4609C8.71289 11.751 8.92383 11.9531 9.22266 11.9531H10.1982C10.2598 12.1992 10.3037 12.4453 10.3037 12.6738C10.3037 13.5352 9.79395 14.1064 9.20508 14.2998C8.87988 14.4492 8.71289 14.625 8.71289 14.959C8.71289 15.3105 8.9502 15.5391 9.31055 15.5391Z" fill="#1C1C1E"/>
</g>
<defs>
<clipPath id="clip0_10_1417">
<rect width="24" height="24" fill="white"/>
</clipPath>
</defs>
</svg>
