<svg width="24" height="24" viewBox="0 0 24 24" fill="none" xmlns="http://www.w3.org/2000/svg">
<g clip-path="url(#clip0_10_1386)">
<path d="M6.67383 19.8809H17.3174C19.2246 19.8809 20.209 18.8965 20.209 17.0156V6.31934C20.209 4.43848 19.2246 3.4541 17.3174 3.4541H6.67383C4.77539 3.4541 3.78223 4.42969 3.78223 6.31934V17.0156C3.78223 18.8965 4.77539 19.8809 6.67383 19.8809ZM6.78809 18.1318C5.97949 18.1318 5.53125 17.71 5.53125 16.8574V6.47754C5.53125 5.625 5.97949 5.20312 6.78809 5.20312H17.2031C18.0029 5.20312 18.46 5.625 18.46 6.47754V16.8574C18.46 17.71 18.0029 18.1318 17.2031 18.1318H6.78809ZM8.84473 8.17383C8.84473 8.40234 9.01172 8.58691 9.24902 8.58691H14.7422C14.9883 8.58691 15.1465 8.40234 15.1465 8.17383C15.1465 7.92773 14.9883 7.76074 14.7422 7.76074H9.24902C9.01172 7.76074 8.84473 7.92773 8.84473 8.17383ZM8.85352 9.85254C8.85352 10.1689 9.06445 10.3887 9.40723 10.3887H11.3232V15.3193C11.3232 15.7588 11.6133 16.0137 12.0088 16.0137C12.4043 16.0137 12.6855 15.7588 12.6855 15.3193V10.3887H14.5928C14.9355 10.3887 15.1465 10.1689 15.1465 9.85254C15.1465 9.52734 14.9355 9.29883 14.5928 9.29883H9.40723C9.06445 9.29883 8.85352 9.52734 8.85352 9.85254Z" fill="#1C1C1E"/>
</g>
<defs>
<clipPath id="clip0_10_1386">
<rect width="24" height="24" fill="white"/>
</clipPath>
</defs>
</svg>
