<svg width="24" height="24" viewBox="0 0 24 24" fill="none" xmlns="http://www.w3.org/2000/svg">
<g clip-path="url(#clip0_10_1388)">
<path d="M11.9912 20.7422C16.9746 20.7422 21.0879 16.6289 21.0879 11.6543C21.0879 6.67969 16.9658 2.56641 11.9824 2.56641C7.00781 2.56641 2.90332 6.67969 2.90332 11.6543C2.90332 16.6289 7.0166 20.7422 11.9912 20.7422ZM11.9912 18.9316C7.95703 18.9316 4.73145 15.6885 4.73145 11.6543C4.73145 7.62012 7.95703 4.38574 11.9824 4.38574C16.0166 4.38574 19.2598 7.62012 19.2686 11.6543C19.2773 15.6885 16.0254 18.9316 11.9912 18.9316ZM8.82715 8.17383C8.82715 8.41113 9.00293 8.5957 9.24023 8.5957H14.7246C14.9707 8.5957 15.1377 8.41113 15.1377 8.17383C15.1377 7.92773 14.9707 7.76074 14.7246 7.76074H9.24023C8.99414 7.76074 8.82715 7.92773 8.82715 8.17383ZM8.84473 9.85254C8.84473 10.1689 9.04688 10.3975 9.39844 10.3975H11.3145V15.3281C11.3145 15.7676 11.5957 16.0225 11.9912 16.0225C12.3867 16.0225 12.668 15.7676 12.668 15.3281V10.3975H14.5752C14.9268 10.3975 15.1289 10.1689 15.1289 9.85254C15.1289 9.53613 14.918 9.30762 14.5752 9.30762H9.39844C9.04688 9.30762 8.84473 9.53613 8.84473 9.85254Z" fill="#1C1C1E"/>
</g>
<defs>
<clipPath id="clip0_10_1388">
<rect width="24" height="24" fill="white"/>
</clipPath>
</defs>
</svg>
