<svg width="24" height="24" viewBox="0 0 24 24" fill="none" xmlns="http://www.w3.org/2000/svg">
<g clip-path="url(#clip0_10_1387)">
<path d="M11.9912 20.7422C16.9746 20.7422 21.0879 16.6289 21.0879 11.6543C21.0879 6.67969 16.9658 2.56641 11.9824 2.56641C7.00781 2.56641 2.90332 6.67969 2.90332 11.6543C2.90332 16.6289 7.0166 20.7422 11.9912 20.7422ZM8.69531 8.0332C8.69531 7.77832 8.87109 7.60254 9.12598 7.60254H14.8389C15.0938 7.60254 15.2607 7.77832 15.2607 8.0332C15.2607 8.2793 15.0938 8.46387 14.8389 8.46387H9.12598C8.87988 8.46387 8.69531 8.2793 8.69531 8.0332ZM8.71289 9.77344C8.71289 9.43945 8.92383 9.20215 9.29297 9.20215H14.6807C15.041 9.20215 15.252 9.43945 15.252 9.77344C15.252 10.1162 15.0498 10.3535 14.6807 10.3535H12.6943V15.4688C12.6943 15.9346 12.4043 16.1895 11.9912 16.1895C11.5781 16.1895 11.2793 15.9346 11.2793 15.4688V10.3535H9.29297C8.92383 10.3535 8.71289 10.1162 8.71289 9.77344Z" fill="#1C1C1E"/>
</g>
<defs>
<clipPath id="clip0_10_1387">
<rect width="24" height="24" fill="white"/>
</clipPath>
</defs>
</svg>
