<svg width="24" height="24" viewBox="0 0 24 24" fill="none" xmlns="http://www.w3.org/2000/svg">
<g clip-path="url(#clip0_10_1326)">
<path d="M11.9912 20.7422C16.9746 20.7422 21.0879 16.6289 21.0879 11.6543C21.0879 6.67969 16.9658 2.56641 11.9824 2.56641C7.00781 2.56641 2.90332 6.67969 2.90332 11.6543C2.90332 16.6289 7.0166 20.7422 11.9912 20.7422ZM11.9824 16.0752C11.5693 16.0752 11.2705 15.8027 11.2705 15.3369V13.9834L10.1455 14.4844C10.0752 14.5107 9.99609 14.5283 9.92578 14.5283C9.67969 14.5283 9.5127 14.3525 9.5127 14.1064C9.5127 13.9219 9.60938 13.7812 9.81152 13.6934L11.2705 13.0605V12.2344L10.1455 12.7178C10.0752 12.7529 9.99609 12.7793 9.92578 12.7793C9.67969 12.7793 9.5127 12.5947 9.5127 12.3486C9.5127 12.1553 9.60938 12.0322 9.81152 11.9268L11.2705 11.3027V8.82422H9.23145C8.85352 8.82422 8.58105 8.56934 8.58105 8.19141C8.58105 7.81348 8.85352 7.55859 9.23145 7.55859H14.7246C15.1113 7.55859 15.3838 7.81348 15.3838 8.19141C15.3838 8.56934 15.1113 8.82422 14.7246 8.82422H12.6943V10.7402L13.8369 10.2393C13.9072 10.2129 13.9863 10.1865 14.0479 10.1865C14.2939 10.1865 14.4697 10.3711 14.4697 10.6172C14.4697 10.8018 14.3643 10.9424 14.1709 11.0303L12.6943 11.6719V12.498L13.8281 11.9971C13.8984 11.9619 13.9775 11.9443 14.0479 11.9443C14.2939 11.9443 14.4697 12.1289 14.4697 12.3662C14.4697 12.5596 14.3643 12.7002 14.1709 12.7881L12.6943 13.4297V15.3369C12.6943 15.8027 12.3955 16.0752 11.9824 16.0752Z" fill="#1C1C1E"/>
</g>
<defs>
<clipPath id="clip0_10_1326">
<rect width="24" height="24" fill="white"/>
</clipPath>
</defs>
</svg>
