<svg width="24" height="24" viewBox="0 0 24 24" fill="none" xmlns="http://www.w3.org/2000/svg">
<g clip-path="url(#clip0_10_1325)">
<path d="M6.67383 19.8809H17.3174C19.2246 19.8809 20.209 18.8965 20.209 17.0156V6.31934C20.209 4.43848 19.2246 3.4541 17.3174 3.4541H6.67383C4.77539 3.4541 3.78223 4.42969 3.78223 6.31934V17.0156C3.78223 18.8965 4.77539 19.8809 6.67383 19.8809ZM6.78809 18.1318C5.97949 18.1318 5.53125 17.71 5.53125 16.8574V6.47754C5.53125 5.625 5.97949 5.20312 6.78809 5.20312H17.2031C18.0029 5.20312 18.46 5.625 18.46 6.47754V16.8574C18.46 17.71 18.0029 18.1318 17.2031 18.1318H6.78809ZM12 15.8994C12.3955 15.8994 12.6768 15.6445 12.6768 15.2051V13.3594L14.0918 12.7354C14.2852 12.6562 14.3818 12.5244 14.3818 12.3398C14.3818 12.1025 14.2148 11.9355 13.9863 11.9355C13.9072 11.9355 13.8369 11.9531 13.7666 11.9795L12.6768 12.4629V11.6631L14.0918 11.0479C14.2852 10.96 14.3818 10.8281 14.3818 10.6436C14.3818 10.415 14.2148 10.2393 13.9775 10.2393C13.916 10.2393 13.8457 10.2568 13.7754 10.2832L12.6768 10.7754V8.9209H14.6367C14.9971 8.9209 15.2607 8.6748 15.2607 8.31445C15.2607 7.9541 14.9971 7.70801 14.6367 7.70801H9.35449C8.99414 7.70801 8.73047 7.9541 8.73047 8.31445C8.73047 8.6748 8.99414 8.9209 9.35449 8.9209H11.3145V11.3115L9.91699 11.918C9.71484 12.0059 9.62695 12.1377 9.62695 12.3223C9.62695 12.5508 9.78516 12.7266 10.0225 12.7266C10.0928 12.7266 10.1719 12.7002 10.2334 12.6738L11.3145 12.1992V12.999L9.91699 13.6055C9.71484 13.7021 9.62695 13.8252 9.62695 14.0098C9.62695 14.2471 9.78516 14.4141 10.0225 14.4141C10.0928 14.4141 10.1719 14.3965 10.2334 14.3701L11.3145 13.8867V15.2051C11.3145 15.6445 11.5957 15.8994 12 15.8994Z" fill="#1C1C1E"/>
</g>
<defs>
<clipPath id="clip0_10_1325">
<rect width="24" height="24" fill="white"/>
</clipPath>
</defs>
</svg>
