<svg width="24" height="24" viewBox="0 0 24 24" fill="none" xmlns="http://www.w3.org/2000/svg">
<g clip-path="url(#clip0_10_1407)">
<path d="M6.67383 19.8809H17.3174C19.2246 19.8809 20.209 18.8965 20.209 17.0156V6.31934C20.209 4.43848 19.2246 3.4541 17.3174 3.4541H6.67383C4.77539 3.4541 3.78223 4.42969 3.78223 6.31934V17.0156C3.78223 18.8965 4.77539 19.8809 6.67383 19.8809ZM6.78809 18.1318C5.97949 18.1318 5.53125 17.71 5.53125 16.8574V6.47754C5.53125 5.625 5.97949 5.20312 6.78809 5.20312H17.2031C18.0029 5.20312 18.46 5.625 18.46 6.47754V16.8574C18.46 17.71 18.0029 18.1318 17.2031 18.1318H6.78809ZM11.165 15.6973C13.6436 15.6973 15.0938 13.9219 15.0938 12.3574C15.0938 11.9531 14.8477 11.6895 14.4697 11.6895C14.1357 11.6895 13.9072 11.8916 13.8281 12.3047C13.6875 13.4121 12.791 14.4141 11.5254 14.4141V11.7949L13.292 11.0654C13.4854 10.9863 13.5732 10.8633 13.5732 10.6787C13.5732 10.4414 13.415 10.2656 13.1777 10.2656C13.1074 10.2656 13.0283 10.292 12.9492 10.3184L11.5254 10.9072V10.1074L13.292 9.38672C13.4854 9.30762 13.5732 9.18457 13.5732 8.99121C13.5732 8.75391 13.415 8.58691 13.1777 8.58691C13.1074 8.58691 13.0283 8.60449 12.9492 8.63965L11.5254 9.21973V8.20898C11.5254 7.78711 11.2617 7.52344 10.875 7.52344C10.4883 7.52344 10.2246 7.78711 10.2246 8.20898V9.72949L9.1875 10.1514C8.99414 10.2393 8.90625 10.3623 8.90625 10.5469C8.90625 10.7842 9.06445 10.96 9.30176 10.96C9.38086 10.96 9.45117 10.9336 9.53027 10.9072L10.2246 10.6172V11.4082L9.1875 11.8389C8.99414 11.918 8.90625 12.041 8.90625 12.2344C8.90625 12.4629 9.06445 12.6387 9.30176 12.6387C9.38086 12.6387 9.45117 12.6211 9.53027 12.5859L10.2246 12.2959V14.8359C10.2246 15.3457 10.5498 15.6973 11.165 15.6973Z" fill="#1C1C1E"/>
</g>
<defs>
<clipPath id="clip0_10_1407">
<rect width="24" height="24" fill="white"/>
</clipPath>
</defs>
</svg>
