<svg width="24" height="24" viewBox="0 0 24 24" fill="none" xmlns="http://www.w3.org/2000/svg">
<g clip-path="url(#clip0_10_1372)">
<path d="M11.9912 20.7422C16.9746 20.7422 21.0879 16.6289 21.0879 11.6543C21.0879 6.67969 16.9658 2.56641 11.9824 2.56641C7.00781 2.56641 2.90332 6.67969 2.90332 11.6543C2.90332 16.6289 7.0166 20.7422 11.9912 20.7422ZM11.9912 18.9316C7.95703 18.9316 4.73145 15.6885 4.73145 11.6543C4.73145 7.62012 7.95703 4.38574 11.9824 4.38574C16.0166 4.38574 19.2598 7.62012 19.2686 11.6543C19.2773 15.6885 16.0254 18.9316 11.9912 18.9316ZM8.22949 11.5137C8.22949 11.7422 8.40527 11.9268 8.63379 11.9268H9.12598L9.66211 15.2842C9.72363 15.6709 10.0137 15.9082 10.3828 15.9082C10.752 15.9082 11.042 15.6885 11.1035 15.2842L11.6396 11.918H12.3252L12.8789 15.2842C12.9404 15.6885 13.2305 15.9082 13.5996 15.9082C13.9688 15.9082 14.2588 15.6797 14.3203 15.2842L14.8389 11.918H15.3311C15.5684 11.918 15.7354 11.7334 15.7354 11.5049C15.7354 11.2588 15.5684 11.0918 15.3311 11.0918H14.9707L15.375 8.45508C15.3926 8.34961 15.4102 8.26172 15.4102 8.17383C15.4102 7.82227 15.1553 7.60254 14.7949 7.60254C14.4785 7.60254 14.2061 7.7959 14.1709 8.13867L13.8105 11.0918H13.1514L12.6855 8.21777C12.624 7.83105 12.3252 7.61133 11.9736 7.61133C11.6133 7.61133 11.332 7.83105 11.2705 8.22656L10.8047 11.1006H10.1631L9.82031 8.14746C9.77637 7.80469 9.5127 7.61133 9.1875 7.61133C8.81836 7.61133 8.55469 7.83984 8.55469 8.19141C8.55469 8.29688 8.58105 8.38477 8.58984 8.49023L8.99414 11.1006H8.63379C8.40527 11.1006 8.22949 11.2676 8.22949 11.5137ZM11.7803 11.1006L11.9912 9.60645L12.2021 11.1006H11.7803ZM10.2598 11.9092H10.6904L10.4443 13.6934L10.2598 11.9092ZM13.2656 11.9092H13.7402L13.5381 13.7373L13.2656 11.9092Z" fill="#1C1C1E"/>
</g>
<defs>
<clipPath id="clip0_10_1372">
<rect width="24" height="24" fill="white"/>
</clipPath>
</defs>
</svg>
