<svg width="24" height="24" viewBox="0 0 24 24" fill="none" xmlns="http://www.w3.org/2000/svg">
<g clip-path="url(#clip0_10_1369)">
<path d="M6.67383 19.8809H17.3174C19.2246 19.8809 20.209 18.8965 20.209 17.0156V6.31934C20.209 4.43848 19.2246 3.4541 17.3174 3.4541H6.67383C4.77539 3.4541 3.78223 4.42969 3.78223 6.31934V17.0156C3.78223 18.8965 4.77539 19.8809 6.67383 19.8809ZM8.10645 11.4961C8.10645 11.2412 8.29102 11.0654 8.53711 11.0654H8.90625L8.48438 8.3584C8.4668 8.24414 8.44922 8.15625 8.44922 8.05078C8.44922 7.67285 8.72168 7.43555 9.1084 7.43555C9.45117 7.43555 9.73242 7.6377 9.76758 7.99805L10.1279 11.0654H10.7871L11.2705 8.07715C11.332 7.67285 11.6309 7.43555 12.0088 7.43555C12.3779 7.43555 12.6943 7.67285 12.7559 8.07715L13.2393 11.0566H13.916L14.2852 7.98926C14.3291 7.62891 14.6104 7.42676 14.9443 7.42676C15.3223 7.42676 15.5859 7.65527 15.5859 8.0332C15.5859 8.12109 15.5684 8.21777 15.5596 8.32324L15.1289 11.0566H15.498C15.7529 11.0566 15.9287 11.2412 15.9287 11.4873C15.9287 11.7334 15.7529 11.9268 15.498 11.9268H14.9883L14.4521 15.416C14.3906 15.8291 14.083 16.0664 13.7051 16.0664C13.3096 16.0664 13.002 15.8379 12.9404 15.4072L12.3691 11.9268H11.666L11.1123 15.4072C11.0508 15.8379 10.7432 16.0664 10.3564 16.0664C9.96973 16.0664 9.66211 15.8291 9.5918 15.4072L9.04688 11.9355H8.53711C8.29102 11.9355 8.10645 11.7334 8.10645 11.4961ZM11.8066 11.0654H12.2461L12.0264 9.52734L11.8066 11.0654ZM10.2246 11.918L10.4092 13.7549L10.6729 11.918H10.2246ZM13.3535 11.918L13.6348 13.7988L13.8369 11.918H13.3535Z" fill="#1C1C1E"/>
</g>
<defs>
<clipPath id="clip0_10_1369">
<rect width="24" height="24" fill="white"/>
</clipPath>
</defs>
</svg>
