<svg width="24" height="24" viewBox="0 0 24 24" fill="none" xmlns="http://www.w3.org/2000/svg">
<g clip-path="url(#clip0_10_72)">
<path d="M22.0195 9.43066V2.43457C22.0195 1.41504 21.4043 0.922852 20.6572 0.922852C20.2881 0.922852 19.9365 1.02832 19.6113 1.24805L9.2666 8.15625C8.71289 8.5166 8.4668 9.06152 8.4668 9.62402C8.4668 10.4062 9.00293 11.127 9.96094 11.127H20.3232C21.4658 11.127 22.0195 10.5732 22.0195 9.43066ZM6.7793 18.6152C7.16602 18.1055 6.9375 17.4902 6.2959 17.4902H5.06543V5.84473H6.2959C6.9375 5.84473 7.16602 5.22949 6.7793 4.71973L4.95996 2.29395C4.70508 1.95996 4.23926 1.95996 3.99316 2.29395L2.16504 4.71973C1.78711 5.2207 1.98926 5.84473 2.65723 5.84473H3.86133V17.4902H2.65723C2.00684 17.4902 1.76953 18.1055 2.16504 18.6152L3.99316 21.041C4.23926 21.375 4.71387 21.375 4.95996 21.041L6.7793 18.6152ZM20.209 9.0791C20.209 9.25488 20.1562 9.30762 19.9893 9.30762H10.8223C10.7783 9.30762 10.7344 9.28125 10.7344 9.2373C10.7344 9.21094 10.7432 9.18457 10.7959 9.14941L20.0332 3.20801C20.0684 3.19043 20.0947 3.18164 20.1211 3.18164C20.1738 3.18164 20.209 3.22559 20.209 3.28711V9.0791ZM22.0195 20.9004V13.9043C22.0195 12.7617 21.4658 12.208 20.3232 12.208H9.96094C9.00293 12.208 8.4668 12.9287 8.4668 13.7109C8.4668 14.2734 8.71289 14.8184 9.2666 15.1787L19.6113 22.0869C19.9365 22.3066 20.2881 22.4121 20.6572 22.4121C21.4043 22.4121 22.0195 21.9199 22.0195 20.9004ZM20.209 20.0479C20.209 20.1094 20.1738 20.1533 20.1211 20.1533C20.0947 20.1533 20.0684 20.1445 20.0332 20.127L10.7871 14.1768C10.752 14.1592 10.7344 14.124 10.7344 14.0977C10.7344 14.0537 10.7695 14.0273 10.8135 14.0273H19.9893C20.1562 14.0273 20.209 14.0801 20.209 14.2559V20.0479Z" fill="#1C1C1E"/>
</g>
<defs>
<clipPath id="clip0_10_72">
<rect width="24" height="24" fill="white"/>
</clipPath>
</defs>
</svg>
