<svg width="24" height="24" viewBox="0 0 24 24" fill="none" xmlns="http://www.w3.org/2000/svg">
<g clip-path="url(#clip0_10_74)">
<path d="M5.04785 4.63184C5.55762 5.01855 6.17285 4.79004 6.17285 4.14844V2.91797H17.8184V4.14844C17.8184 4.79004 18.4336 5.01855 18.9434 4.63184L21.3691 2.8125C21.7031 2.55762 21.7031 2.0918 21.3691 1.8457L18.9434 0.0175781C18.4512 -0.360352 17.8184 -0.158203 17.8184 0.509766V1.71387H6.17285V0.509766C6.17285 -0.140625 5.55762 -0.37793 5.04785 0.0175781L2.62207 1.8457C2.28809 2.0918 2.28809 2.56641 2.62207 2.8125L5.04785 4.63184ZM2.7627 19.8721H9.75879C10.9014 19.8721 11.4551 19.3184 11.4551 18.1758V7.81348C11.4551 6.85547 10.7344 6.31934 9.95215 6.31934C9.38965 6.31934 8.84473 6.56543 8.48438 7.11914L1.57617 17.4639C1.35645 17.7891 1.25098 18.1318 1.25098 18.5098C1.25098 19.248 1.74316 19.8721 2.7627 19.8721ZM14.2324 19.8721H21.2285C22.248 19.8721 22.7402 19.248 22.7402 18.5098C22.7402 18.1318 22.6348 17.7891 22.415 17.4639L15.5068 7.11914C15.1465 6.56543 14.6016 6.31934 14.0391 6.31934C13.2568 6.31934 12.5361 6.85547 12.5361 7.81348V18.1758C12.5361 19.3184 13.0898 19.8721 14.2324 19.8721ZM3.61523 18.0615C3.55371 18.0615 3.50977 18.0264 3.50977 17.9736C3.50977 17.9473 3.51855 17.9209 3.54492 17.8857L9.48633 8.63965C9.50391 8.60449 9.53906 8.58691 9.56543 8.58691C9.60938 8.58691 9.63574 8.62207 9.63574 8.66602V17.8418C9.63574 18.0088 9.58301 18.0615 9.41602 18.0615H3.61523ZM14.584 18.0615C14.4082 18.0615 14.3555 18.0088 14.3555 17.8418V8.6748C14.3555 8.63086 14.3818 8.58691 14.4258 8.58691C14.4521 8.58691 14.4873 8.5957 14.5137 8.64844L20.4551 17.8857C20.4727 17.9209 20.4814 17.9473 20.4814 17.9736C20.4814 18.0264 20.4375 18.0615 20.3848 18.0615H14.584Z" fill="#1C1C1E"/>
</g>
<defs>
<clipPath id="clip0_10_74">
<rect width="24" height="24" fill="white"/>
</clipPath>
</defs>
</svg>
