<svg width="24" height="24" viewBox="0 0 24 24" fill="none" xmlns="http://www.w3.org/2000/svg">
<g clip-path="url(#clip0_10_139)">
<path d="M22.0195 9.36914V2.37305C22.0195 1.3623 21.4043 0.861328 20.6572 0.861328C20.2881 0.861328 19.9365 0.975586 19.6113 1.18652L9.2666 8.10352C8.7041 8.46387 8.4668 9 8.4668 9.5625C8.4668 10.3535 9.00293 11.0654 9.96094 11.0654H20.3232C21.4658 11.0654 22.0195 10.5117 22.0195 9.36914ZM6.7793 18.5625C7.16602 18.0527 6.9375 17.4287 6.2959 17.4287H5.06543V5.79199H6.2959C6.9375 5.79199 7.16602 5.16797 6.7793 4.6582L4.95996 2.23242C4.70508 1.89844 4.23926 1.90723 3.99316 2.23242L2.16504 4.6582C1.78711 5.15918 1.98926 5.79199 2.65723 5.79199H3.86133V17.4287H2.65723C2.00684 17.4287 1.76953 18.0439 2.16504 18.5625L3.99316 20.9883C4.23926 21.3135 4.71387 21.3135 4.95996 20.9883L6.7793 18.5625ZM22.0195 20.8477V13.8516C22.0195 12.7002 21.4658 12.1553 20.3232 12.1553H9.96094C9.00293 12.1553 8.4668 12.8672 8.4668 13.6582C8.4668 14.2207 8.7041 14.7568 9.2666 15.1172L19.6113 22.0342C19.9365 22.2451 20.2881 22.3594 20.6572 22.3594C21.4043 22.3594 22.0195 21.8584 22.0195 20.8477Z" fill="#1C1C1E"/>
</g>
<defs>
<clipPath id="clip0_10_139">
<rect width="24" height="24" fill="white"/>
</clipPath>
</defs>
</svg>
