<svg width="24" height="24" viewBox="0 0 24 24" fill="none" xmlns="http://www.w3.org/2000/svg">
<g clip-path="url(#clip0_10_77)">
<path d="M17.502 10.6963C17.502 9.26367 16.7197 8.48145 15.2607 8.48145H1.58496V6.31934C1.58496 4.42969 2.57812 3.4541 4.47656 3.4541H19.5146C21.4219 3.4541 22.415 4.43848 22.415 6.31934V17.0156C22.415 18.8965 21.4219 19.8809 19.5146 19.8809H17.502V10.6963ZM16.043 10.8896V19.8809H12.2988V9.94043H15.1113C15.709 9.94043 16.043 10.2832 16.043 10.8896ZM4.47656 19.8809C2.57812 19.8809 1.58496 18.8965 1.58496 17.0156V9.94043H10.8398V19.8809H4.47656Z" fill="#1C1C1E"/>
</g>
<defs>
<clipPath id="clip0_10_77">
<rect width="24" height="24" fill="white"/>
</clipPath>
</defs>
</svg>
