<svg width="24" height="24" viewBox="0 0 24 24" fill="none" xmlns="http://www.w3.org/2000/svg">
<g clip-path="url(#clip0_10_109)">
<path d="M11.9824 4.37695C12.7471 4.37695 13.4766 4.5 14.1621 4.71094L14.8564 3.04102C13.9512 2.7334 12.9844 2.56641 11.9824 2.56641C10.9893 2.56641 10.0137 2.7334 9.1084 3.04102L9.81152 4.71094C10.4971 4.5 11.2266 4.37695 11.9824 4.37695ZM18.4424 8.28809L20.1035 7.59375C19.2246 5.84473 17.792 4.4209 16.043 3.5332L15.3574 5.20312C16.6758 5.87988 17.7568 6.96094 18.4424 8.28809ZM8.61621 5.20312L7.92188 3.54199C6.18164 4.4209 4.74902 5.85352 3.87012 7.59375L5.54004 8.28809C6.22559 6.96973 7.29785 5.88867 8.61621 5.20312ZM19.2686 11.6543C19.2686 12.4102 19.1455 13.1484 18.9434 13.834L20.6045 14.5283C20.9121 13.623 21.0879 12.6562 21.0879 11.6543C21.0879 10.6523 20.9121 9.68555 20.6045 8.78027L18.9346 9.47461C19.1543 10.1602 19.2686 10.8984 19.2686 11.6543ZM4.73145 11.6543C4.73145 10.8984 4.8457 10.1602 5.05664 9.4834L3.36914 8.78027C3.07031 9.68555 2.90332 10.6523 2.90332 11.6543C2.90332 12.6562 3.07031 13.6143 3.37793 14.5195L5.05664 13.8252C4.8457 13.1484 4.73145 12.4102 4.73145 11.6543ZM15.3574 18.1055L16.043 19.7754C17.792 18.8877 19.2246 17.4551 20.1035 15.7148L18.4512 15.0205C17.7656 16.3477 16.6758 17.4199 15.3574 18.1055ZM5.54883 15.0205L3.87891 15.7148C4.75781 17.4551 6.18164 18.8877 7.93066 19.7666L8.61621 18.0967C7.29785 17.4111 6.22559 16.3389 5.54883 15.0205ZM11.9912 18.9229C11.2266 18.9229 10.4971 18.8086 9.81152 18.5889L9.11719 20.2676C10.0225 20.5752 10.998 20.7422 11.9912 20.7422C12.9932 20.7422 13.96 20.5752 14.8652 20.2764L14.1621 18.5977C13.4766 18.8086 12.7471 18.9229 11.9912 18.9229Z" fill="#1C1C1E"/>
</g>
<defs>
<clipPath id="clip0_10_109">
<rect width="24" height="24" fill="white"/>
</clipPath>
</defs>
</svg>
