<svg width="24" height="24" viewBox="0 0 24 24" fill="none" xmlns="http://www.w3.org/2000/svg">
<g clip-path="url(#clip0_10_107)">
<path d="M2.26172 7.18066C2.26172 7.68164 2.61328 8.02441 3.14941 8.02441H6.35742V16.7695C6.35742 17.2266 6.65625 17.5254 7.11328 17.5254H15.876V20.7686C15.876 21.3135 16.2539 21.6738 16.7549 21.6738C17.2646 21.6738 17.6426 21.3135 17.6426 20.7686V17.5254H20.8506C21.3867 17.5254 21.7383 17.1826 21.7383 16.6904C21.7383 16.1895 21.3867 15.8467 20.8506 15.8467H17.6426V7.10156C17.6426 6.64453 17.3438 6.33691 16.8867 6.33691H8.13281V3.10254C8.13281 2.55762 7.75488 2.18848 7.24512 2.18848C6.74414 2.18848 6.35742 2.55762 6.35742 3.10254V6.33691H3.14941C2.61328 6.33691 2.26172 6.68848 2.26172 7.18066ZM8.37891 15.8467C8.20312 15.8467 8.13281 15.7764 8.13281 15.5918V8.02441H15.6211C15.7969 8.02441 15.876 8.09473 15.876 8.27051V15.8467H8.37891Z" fill="#1C1C1E"/>
</g>
<defs>
<clipPath id="clip0_10_107">
<rect width="24" height="24" fill="white"/>
</clipPath>
</defs>
</svg>
