<svg width="24" height="24" viewBox="0 0 24 24" fill="none" xmlns="http://www.w3.org/2000/svg">
<g clip-path="url(#clip0_10_106)">
<path d="M12.7646 3.14648L15.0762 4.86035C15.5947 5.23828 16.1396 5.07129 16.1396 4.41211V3.31348H16.4297C18.293 3.31348 19.4971 4.63184 19.4971 6.48633V7.875C19.4971 8.22656 19.7871 8.52539 20.1387 8.52539C20.4902 8.52539 20.7803 8.22656 20.7803 7.875V6.48633C20.7803 3.88477 19.0049 2.11816 16.4209 2.11816H16.1396V0.975586C16.1396 0.298828 15.5947 0.131836 15.0762 0.518555L12.7646 2.24121C12.3955 2.51367 12.3867 2.86523 12.7646 3.14648ZM3.03516 8.20898C3.03516 8.70996 3.38672 9.04395 3.92285 9.04395H7.59668V15.2578C7.59668 15.7148 7.9043 16.0137 8.36133 16.0137H14.6631V19.626C14.6631 20.1621 15.0146 20.5312 15.542 20.5312C16.0781 20.5312 16.4297 20.1621 16.4297 19.626V16.0137H20.0684C20.5957 16.0137 20.9561 15.6797 20.9561 15.1699C20.9561 14.6689 20.5957 14.335 20.0684 14.335H16.4297V8.12109C16.4297 7.66406 16.1309 7.36523 15.6738 7.36523H9.37207V3.79688C9.37207 3.26074 9.02051 2.8916 8.49316 2.8916C7.95703 2.8916 7.59668 3.26074 7.59668 3.79688V7.36523H3.92285C3.38672 7.36523 3.03516 7.70801 3.03516 8.20898ZM9.62695 14.335C9.44238 14.335 9.37207 14.2646 9.37207 14.0801V9.04395H14.4082C14.584 9.04395 14.6631 9.11426 14.6631 9.29883V14.335H9.62695ZM3.26367 16.9014C3.26367 19.5029 5.03906 21.2695 7.62305 21.2695H7.9043V22.4033C7.9043 23.0889 8.44922 23.2559 8.96777 22.8691L11.2793 21.1465C11.6484 20.874 11.6572 20.5137 11.2793 20.2412L8.96777 18.5273C8.45801 18.1494 7.9043 18.3164 7.9043 18.9756V20.0742H7.61426C5.75977 20.0742 4.54688 18.7559 4.54688 16.9014V15.5039C4.54688 15.1523 4.25684 14.8623 3.90527 14.8623C3.55371 14.8623 3.26367 15.1523 3.26367 15.5039V16.9014Z" fill="#1C1C1E"/>
</g>
<defs>
<clipPath id="clip0_10_106">
<rect width="24" height="24" fill="white"/>
</clipPath>
</defs>
</svg>
