<svg width="24" height="24" viewBox="0 0 24 24" fill="none" xmlns="http://www.w3.org/2000/svg">
<g clip-path="url(#clip0_10_104)">
<path d="M10.8486 2.82129C10.8486 3.4541 11.376 3.97266 12 3.97266C12.6328 3.97266 13.1514 3.44531 13.1514 2.82129C13.1514 2.17969 12.6328 1.66992 12 1.66992C11.3496 1.66992 10.8486 2.17969 10.8486 2.82129ZM17.5371 5.59863C17.5371 6.24023 18.0645 6.75 18.6885 6.75C19.3213 6.75 19.8398 6.22266 19.8398 5.59863C19.8398 4.94824 19.3301 4.44727 18.6885 4.44727C18.0469 4.44727 17.5371 4.96582 17.5371 5.59863ZM4.15137 5.61621C4.15137 6.24902 4.67871 6.76758 5.30273 6.76758C5.93555 6.76758 6.4541 6.24023 6.4541 5.61621C6.4541 4.97461 5.93555 4.46484 5.30273 4.46484C4.65234 4.46484 4.15137 4.97461 4.15137 5.61621ZM5.58398 12.2783C5.58398 13.7812 6.10254 15.1611 6.97266 16.251L11.5078 11.6367C11.7891 11.3467 12.2812 11.3555 12.5449 11.6367C12.8525 11.9531 12.8525 12.3926 12.5449 12.6914L7.93945 17.2354C9.04688 18.1494 10.4619 18.6943 12 18.6943C15.5332 18.6943 18.416 15.8291 18.416 12.2783C18.416 8.73633 15.5332 5.87109 12 5.87109C8.4668 5.87109 5.58398 8.73633 5.58398 12.2783ZM1.38281 12.2783C1.38281 12.9111 1.91016 13.4297 2.54297 13.4297C3.16699 13.4297 3.68555 12.9023 3.68555 12.2783C3.68555 11.6279 3.17578 11.127 2.54297 11.127C1.90137 11.127 1.38281 11.6455 1.38281 12.2783ZM20.3145 12.2783C20.3145 12.9199 20.833 13.4297 21.4658 13.4297C22.1074 13.4297 22.6172 12.9199 22.6172 12.2783C22.6172 11.6455 22.0898 11.127 21.4658 11.127C20.8242 11.127 20.3145 11.6543 20.3145 12.2783ZM4.15137 18.9492C4.15137 19.5996 4.66113 20.1006 5.30273 20.1006C5.94434 20.1006 6.4541 19.5908 6.4541 18.9492C6.4541 18.3164 5.93555 17.8066 5.30273 17.8066C4.66992 17.8066 4.15137 18.3252 4.15137 18.9492ZM17.5371 18.958C17.5371 19.5996 18.0469 20.1094 18.6797 20.1094C19.3301 20.1094 19.8311 19.5996 19.8311 18.958C19.8311 18.3252 19.3037 17.8066 18.6797 17.8066C18.0469 17.8066 17.5371 18.334 17.5371 18.958Z" fill="#1C1C1E"/>
</g>
<defs>
<clipPath id="clip0_10_104">
<rect width="24" height="24" fill="white"/>
</clipPath>
</defs>
</svg>
