<svg width="24" height="24" viewBox="0 0 24 24" fill="none" xmlns="http://www.w3.org/2000/svg">
<g clip-path="url(#clip0_10_115)">
<path d="M18.9346 19.4414C19.207 19.7139 19.6465 19.7314 19.9277 19.4414C20.2178 19.1426 20.2002 18.7207 19.9277 18.4482L5.0127 3.55078C4.74023 3.27832 4.29199 3.26953 4.01953 3.55078C3.75586 3.81445 3.75586 4.27148 4.01953 4.53516L18.9346 19.4414ZM19.7607 16.752C22.3271 15.0293 23.9531 12.7002 23.9531 11.6631C23.9531 9.8877 19.1279 4.13086 12 4.13086C10.5059 4.13086 9.1084 4.38574 7.84277 4.80762L10.251 7.21582C10.7959 6.99609 11.3848 6.87305 12.0088 6.87305C14.6719 6.87305 16.8252 8.99121 16.8252 11.6719C16.8252 12.2871 16.6934 12.8848 16.4561 13.4209L19.7607 16.752ZM12 19.2041C13.6084 19.2041 15.1025 18.9141 16.4209 18.4307L13.9951 16.0049C13.3975 16.3037 12.7207 16.4619 12.0088 16.4619C9.32812 16.4619 7.19238 14.2734 7.18359 11.6719C7.18359 10.9424 7.3418 10.2568 7.63184 9.65039L4.45898 6.45996C1.72559 8.21777 0.046875 10.626 0.046875 11.6631C0.046875 13.4473 4.95996 19.2041 12 19.2041ZM14.8125 11.4873C14.8125 9.94922 13.582 8.70996 12.0352 8.70996C11.9385 8.70996 11.8418 8.71875 11.7539 8.72754L14.7949 11.7598C14.8037 11.6807 14.8125 11.584 14.8125 11.4873ZM9.17871 11.5225C9.17871 13.0605 10.4443 14.2998 11.9736 14.2998C12.0791 14.2998 12.1758 14.291 12.2725 14.2822L9.19629 11.2061C9.1875 11.3115 9.17871 11.417 9.17871 11.5225Z" fill="#1C1C1E"/>
</g>
<defs>
<clipPath id="clip0_10_115">
<rect width="24" height="24" fill="white"/>
</clipPath>
</defs>
</svg>
