<svg width="24" height="24" viewBox="0 0 24 24" fill="none" xmlns="http://www.w3.org/2000/svg">
<g clip-path="url(#clip0_10_120)">
<path d="M12 20.1533C18.2139 20.1533 21.3516 17.7979 20.1299 14.4316L18.1084 8.79785V5.88867C18.1084 4.38574 15.6562 3.25195 12 3.25195C8.36133 3.25195 5.90918 4.38574 5.90918 5.88867V8.7627L3.87012 14.4316C2.63965 17.8154 5.78613 20.1533 12 20.1533ZM12 6.94336C9.38965 6.94336 7.64941 6.41602 7.64941 5.88867C7.64941 5.35254 9.38965 4.8252 12 4.8252C14.6191 4.8252 16.3682 5.35254 16.3682 5.88867C16.3682 6.41602 14.6191 6.94336 12 6.94336ZM12 11.918C14.1621 11.918 15.8848 11.4873 16.9395 10.8018L18.4688 14.9854C19.1807 16.9717 16.7285 18.3955 12 18.3955C7.27148 18.3955 4.81055 16.9893 5.53125 14.9854L7.06055 10.8018C8.11523 11.4785 9.8291 11.918 12 11.918Z" fill="#1C1C1E"/>
</g>
<defs>
<clipPath id="clip0_10_120">
<rect width="24" height="24" fill="white"/>
</clipPath>
</defs>
</svg>
