<svg width="24" height="24" viewBox="0 0 24 24" fill="none" xmlns="http://www.w3.org/2000/svg">
<g clip-path="url(#clip0_10_94)">
<path d="M2.64844 18.0615C2.36719 18.7031 2.63086 19.1426 3.31641 19.2217L6.95508 19.626C7.88672 19.7402 8.43164 19.125 7.93945 18.29L7.36816 17.3057L12 14.9766L16.623 17.3057L16.0518 18.29C15.5684 19.125 16.1133 19.7402 17.0361 19.626L20.6836 19.2217C21.3604 19.1426 21.624 18.7031 21.3516 18.0615L19.8662 14.7041C19.5059 13.8604 18.6973 13.7021 18.2314 14.5195L17.4668 15.8467L12.8438 13.5264V7.90137H14.1533C15.1289 7.90137 15.3926 7.13672 14.8301 6.38086L12.6592 3.42773C12.2373 2.86523 11.7363 2.86523 11.3145 3.42773L9.15234 6.37207C8.59863 7.11914 8.87109 7.90137 9.82031 7.90137H11.1475V13.5264L6.5332 15.8467L5.75977 14.5195C5.29395 13.7021 4.49414 13.8604 4.125 14.7041L2.64844 18.0615Z" fill="#1C1C1E"/>
</g>
<defs>
<clipPath id="clip0_10_94">
<rect width="24" height="24" fill="white"/>
</clipPath>
</defs>
</svg>
