<svg width="24" height="24" viewBox="0 0 24 24" fill="none" xmlns="http://www.w3.org/2000/svg">
<g clip-path="url(#clip0_10_100)">
<path d="M17.2471 15.3281L20.6484 11.9268C21.668 10.9072 21.6416 9.69434 20.6045 8.63086L20.1035 8.12109C19.1895 9.29004 16.5879 10.6875 16.0957 10.1953C16.0166 10.1162 16.0078 9.95801 16.1221 9.83496C17.168 8.78906 17.8799 7.74316 18.0381 6.07324L13.5381 1.55566C12.624 0.650391 11.1035 1.00195 10.6816 2.63672C10.1016 4.87793 9.60938 6.21387 9.14355 7.22461L17.2471 15.3281ZM3.68555 21.0938C5.0918 22.5088 6.9375 22.5264 8.32617 21.1289C9.37207 20.0918 10.374 17.7979 11.1562 16.5674L13.1953 18.6152C13.8896 19.3184 14.7334 19.3184 15.4014 18.6416L16.1484 17.8945C16.834 17.2002 16.8164 16.4004 16.1133 15.6973L9.08203 8.65723C8.37012 7.9541 7.56152 7.94531 6.86719 8.63086L6.12891 9.36914C5.45215 10.0459 5.45215 10.8809 6.15527 11.584L8.19434 13.623C6.97266 14.3965 4.67871 15.4072 3.6416 16.4443C2.24414 17.8418 2.26172 19.6787 3.68555 21.0938ZM6.08496 19.8369C5.50488 19.8369 5.03027 19.3623 5.03027 18.7822C5.03027 18.2021 5.50488 17.7275 6.08496 17.7275C6.66504 17.7275 7.13086 18.2021 7.13086 18.7822C7.13086 19.3623 6.66504 19.8369 6.08496 19.8369Z" fill="#1C1C1E"/>
</g>
<defs>
<clipPath id="clip0_10_100">
<rect width="24" height="24" fill="white"/>
</clipPath>
</defs>
</svg>
