<svg width="24" height="24" viewBox="0 0 24 24" fill="none" xmlns="http://www.w3.org/2000/svg">
<g clip-path="url(#clip0_10_99)">
<path d="M2.42871 18.9141C4.18652 21.1641 7.76367 21.7002 9.95215 19.9512C11.0947 19.0459 11.6484 17.8506 11.5605 16.6377C12.3955 16.4619 13.1602 15.9785 13.9863 15.1523C16.8867 12.2607 21.2549 5.85352 21.6152 5.34375C22.8193 3.65625 20.7539 1.59082 19.0576 2.79492C18.5566 3.14648 12.167 7.48828 9.27539 10.3975C8.43164 11.2412 7.93945 12.0146 7.75488 12.8672C7.07812 12.8672 6.41016 13.0957 5.8125 13.5791C4.4502 14.6602 4.91602 16.1104 4.19531 16.6729C3.55371 17.165 2.87695 16.8574 2.3584 17.2793C1.92773 17.6572 1.91016 18.2725 2.42871 18.9141ZM19.6289 4.4209C19.8926 4.21875 20.1826 4.50879 19.9805 4.79004C19.5586 5.48438 16.2891 10.1162 13.7227 12.9814C13.3184 11.9707 12.4307 11.0742 11.4463 10.6699C14.3291 8.12109 18.917 4.92188 19.6289 4.4209ZM10.6377 14.4404C10.2598 13.9658 9.83789 13.5967 9.38965 13.333C9.45996 12.8232 9.75 12.3223 10.3125 11.7334C11.3496 11.9092 12.4834 13.043 12.6768 14.0889C12.0615 14.6689 11.5693 14.9414 11.042 15.0205C10.9189 14.8271 10.7871 14.6338 10.6377 14.4404ZM4.45898 18.5977C4.35352 18.4834 4.3623 18.3691 4.44141 18.29C4.56445 18.1758 5.00391 18.123 5.33789 17.7891C6.2168 16.9102 5.87402 15.7324 6.8584 14.9326C7.62305 14.2998 8.71289 14.502 9.45996 15.4248C10.3213 16.4707 10.0664 17.7979 8.94141 18.7031C7.64941 19.7578 5.66309 19.7842 4.45898 18.5977Z" fill="#1C1C1E"/>
</g>
<defs>
<clipPath id="clip0_10_99">
<rect width="24" height="24" fill="white"/>
</clipPath>
</defs>
</svg>
