<svg width="24" height="24" viewBox="0 0 24 24" fill="none" xmlns="http://www.w3.org/2000/svg">
<g clip-path="url(#clip0_10_98)">
<path d="M19.1719 2.92676C18.7236 3.25195 13.8545 6.57422 10.8223 9.25488C12.8965 9.93164 14.5137 11.54 15.1904 13.6318C17.8799 10.5908 21.2021 5.73047 21.5273 5.27344C22.6348 3.7002 20.7012 1.81055 19.1719 2.92676ZM10.8135 13.6318C11.4902 14.3086 11.9824 15.1875 12.1318 15.9521C12.7998 15.8291 13.3535 15.5215 13.916 14.9766C14.0127 14.8887 14.1006 14.8008 14.1885 14.7041C13.8369 12.4805 11.9561 10.5996 9.75 10.2568C9.65332 10.3359 9.55664 10.4326 9.46875 10.5293C8.92383 11.0918 8.60742 11.6631 8.50195 12.3311C9.24902 12.4629 10.1367 12.9463 10.8135 13.6318ZM2.46387 18.7998C4.07227 20.9268 7.41211 21.5596 9.5127 19.9688C11.2969 18.6328 11.6045 16.6025 10.3213 14.9062C9.16113 13.3682 7.1748 12.9902 5.85645 14.0098C4.4502 15.0732 5.0127 16.4355 4.18652 17.0508C3.47461 17.5957 2.87695 17.2441 2.41992 17.5869C2.05957 17.8594 2.06836 18.2988 2.46387 18.7998Z" fill="#1C1C1E"/>
</g>
<defs>
<clipPath id="clip0_10_98">
<rect width="24" height="24" fill="white"/>
</clipPath>
</defs>
</svg>
