<svg width="24" height="24" viewBox="0 0 24 24" fill="none" xmlns="http://www.w3.org/2000/svg">
<g clip-path="url(#clip0_10_126)">
<path d="M6.15527 17.6221C8.61621 20.083 11.7012 20.8389 13.1602 20.9883C13.7402 21.0762 14.1094 20.7686 14.1357 20.3203C14.1709 19.9072 13.916 19.5732 13.3975 19.4678C12.0703 19.248 9.33691 18.6064 7.2627 16.5146C3.89648 13.1572 3.22852 7.94531 6.00586 5.15918C8.22949 2.94434 11.9209 3.16406 14.6455 4.63184L15.7969 3.49805C12.2988 1.37109 7.6582 1.30078 4.90723 4.05176C1.62012 7.34766 2.00684 13.4736 6.15527 17.6221ZM19.5146 4.86914L20.2617 4.11328C20.6484 3.71777 20.6836 3.14648 20.2969 2.77734L20.0332 2.52246C19.6904 2.20605 19.1367 2.23242 18.7588 2.60156L18.0029 3.35742L19.5146 4.86914ZM10.9277 13.4473L18.8643 5.51953L17.3438 4.00781L9.41602 11.9355L8.65137 13.7812C8.55469 14.0273 8.80078 14.2646 9.03809 14.1768L10.9277 13.4473ZM9.49512 14.9414C12.2988 17.8594 17.124 18.9492 19.7607 16.3213C21.9053 14.168 21.7207 10.3447 19.3828 7.04004L18.2578 8.16504C19.9805 10.7051 20.2969 13.5703 18.6533 15.2139C16.6318 17.2354 13.3359 16.3213 11.1826 14.2646L9.49512 14.9414Z" fill="#1C1C1E"/>
</g>
<defs>
<clipPath id="clip0_10_126">
<rect width="24" height="24" fill="white"/>
</clipPath>
</defs>
</svg>
