<svg width="24" height="24" viewBox="0 0 24 24" fill="none" xmlns="http://www.w3.org/2000/svg">
<g clip-path="url(#clip0_10_124)">
<path d="M7.08691 20.0039C7.58789 20.0039 7.83398 19.7402 7.92188 19.3184L9.54785 11.373H14.4434L16.0781 19.3184C16.166 19.7402 16.4033 20.0039 16.9131 20.0039C17.6074 20.0039 17.8535 19.4941 17.7217 18.9316L16.0342 10.7754C15.9023 10.1689 15.4102 9.71191 14.8125 9.68555L12.8262 3.91992C12.6855 3.5332 12.4131 3.30469 12.0088 3.30469C11.5869 3.30469 11.2881 3.5332 11.1562 3.91992L9.16992 9.68555C8.58105 9.71191 8.08887 10.1689 7.95703 10.7754L6.27832 18.9316C6.14648 19.5029 6.40137 20.0039 7.08691 20.0039Z" fill="#1C1C1E"/>
</g>
<defs>
<clipPath id="clip0_10_124">
<rect width="24" height="24" fill="white"/>
</clipPath>
</defs>
</svg>
