<svg width="24" height="24" viewBox="0 0 24 24" fill="none" xmlns="http://www.w3.org/2000/svg">
<g clip-path="url(#clip0_10_79)">
<path d="M1.98047 12.4541H4.48535V15.0205C4.48535 16.5762 5.47852 17.4727 7.28027 17.7715L11.1299 18.4131V21.4365C11.1299 21.9727 11.4814 22.3066 11.9824 22.3066C12.4658 22.3066 12.8262 21.9727 12.8262 21.4365V18.7031L16.7109 19.3535C18.46 19.6436 19.5059 18.501 19.5059 16.5938V12.4541H22.0195C22.5557 12.4541 22.8896 12.0938 22.8896 11.6104C22.8896 11.1094 22.5557 10.7578 22.0195 10.7578H19.5059V6.61816C19.5059 4.64062 18.5127 3.55957 16.7109 3.8584L12.8262 4.50879V1.78418C12.8262 1.23926 12.4658 0.905273 11.9824 0.905273C11.4814 0.905273 11.1299 1.23926 11.1299 1.78418V4.79883L7.28027 5.44043C5.47852 5.73926 4.48535 6.62695 4.48535 8.2002V10.7578H1.98047C1.44434 10.7578 1.10156 11.1094 1.10156 11.6104C1.10156 12.0938 1.44434 12.4541 1.98047 12.4541ZM16.623 5.53711C17.3965 5.41406 17.8271 5.87109 17.8271 6.75879V10.7578H12.8262V6.16992L16.623 5.53711ZM6.15527 8.29688C6.15527 7.59375 6.58594 7.20703 7.3418 7.08398L11.1299 6.45117V10.7578H6.15527V8.29688ZM7.3418 16.1367C6.58594 16.0137 6.15527 15.6182 6.15527 14.9238V12.4541H11.1299V16.7607L7.3418 16.1367ZM16.623 17.6748L12.8262 17.042V12.4541H17.8271V16.4619C17.8271 17.3145 17.3701 17.7979 16.623 17.6748Z" fill="#1C1C1E"/>
</g>
<defs>
<clipPath id="clip0_10_79">
<rect width="24" height="24" fill="white"/>
</clipPath>
</defs>
</svg>
