<svg width="24" height="24" viewBox="0 0 24 24" fill="none" xmlns="http://www.w3.org/2000/svg">
<g clip-path="url(#clip0_10_86)">
<path d="M1.58496 8.12109H3.33398V6.47754C3.33398 5.625 3.78223 5.20312 4.59082 5.20312H6.22559V3.4541H4.47656C2.57812 3.4541 1.58496 4.42969 1.58496 6.31934V8.12109ZM22.415 8.12109V6.31934C22.415 4.42969 21.4131 3.4541 19.5146 3.4541H17.7656V5.20312H19.4004C20.2178 5.20312 20.6572 5.625 20.6572 6.47754V8.12109H22.415ZM7.51758 5.20312H11.3496V3.4541H7.51758V5.20312ZM12.6416 5.20312H16.4824V3.4541H12.6416V5.20312ZM1.58496 13.9219H3.33398V9.41309H1.58496V13.9219ZM22.415 13.9219V9.41309H20.6572V13.9219H22.415ZM4.47656 19.8809H6.22559V18.1318H4.59082C3.78223 18.1318 3.33398 17.71 3.33398 16.8574V15.2051H1.58496V17.0156C1.58496 18.8965 2.57812 19.8809 4.47656 19.8809ZM19.5146 19.8809C21.4131 19.8809 22.415 18.8965 22.415 17.0156V15.2051H20.6572V16.8574C20.6572 17.71 20.2178 18.1318 19.4004 18.1318H17.7656V19.8809H19.5146ZM7.51758 19.8809H11.3496V18.1318H7.51758V19.8809ZM12.6416 19.8809H16.4824V18.1318H12.6416V19.8809Z" fill="#1C1C1E"/>
</g>
<defs>
<clipPath id="clip0_10_86">
<rect width="24" height="24" fill="white"/>
</clipPath>
</defs>
</svg>
