<svg width="24" height="24" viewBox="0 0 24 24" fill="none" xmlns="http://www.w3.org/2000/svg">
<g clip-path="url(#clip0_10_89)">
<path d="M11.042 2.75098C11.4199 2.46973 11.4199 2.10938 11.042 1.83691L8.73047 0.114258C8.21191 -0.272461 7.66699 -0.0966797 7.66699 0.580078V1.71387H7.38574C4.80176 1.71387 3.02637 3.48926 3.02637 6.08203V7.47949C3.02637 7.83105 3.31641 8.12109 3.66797 8.12109C4.01953 8.12109 4.30957 7.83105 4.30957 7.47949V6.09082C4.30957 4.23633 5.51367 2.91797 7.37695 2.91797H7.66699V4.00781C7.66699 4.66699 8.21191 4.84277 8.73047 4.46484L11.042 2.75098ZM18.5215 19.8721C20.1299 19.8721 20.9648 19.0635 20.9648 17.4375V8.75391C20.9648 7.12793 20.1299 6.31934 18.5215 6.31934H9.8291C8.22949 6.31934 7.39453 7.12793 7.39453 8.75391V17.4375C7.39453 19.0635 8.22949 19.8721 9.8291 19.8721H18.5215Z" fill="#1C1C1E"/>
</g>
<defs>
<clipPath id="clip0_10_89">
<rect width="24" height="24" fill="white"/>
</clipPath>
</defs>
</svg>
