<svg width="24" height="24" viewBox="0 0 24 24" fill="none" xmlns="http://www.w3.org/2000/svg">
<g clip-path="url(#clip0_10_92)">
<path d="M11.9912 20.7422C16.9746 20.7422 21.0879 16.6289 21.0879 11.6543C21.0879 6.67969 16.9658 2.56641 11.9824 2.56641C7.00781 2.56641 2.90332 6.67969 2.90332 11.6543C2.90332 16.6289 7.0166 20.7422 11.9912 20.7422ZM9.9873 11.918C9.9873 9.13184 10.6992 6.33691 12.0527 4.38574C15.8936 4.4209 18.9961 7.3916 19.251 11.1709C17.291 12.5332 14.4961 13.2539 11.7012 13.2539C11.1387 13.2539 10.585 13.2275 10.0312 13.1572C10.0049 12.7529 9.9873 12.3398 9.9873 11.918ZM8.29102 11.918C8.29102 12.2344 8.2998 12.542 8.31738 12.8584C6.96387 12.5332 5.72461 11.9971 4.74023 11.2588C4.90723 8.07715 7.07812 5.45801 10.0312 4.64941C8.88867 6.69727 8.29102 9.30762 8.29102 11.918ZM11.7012 14.9502C14.373 14.9502 17.0537 14.3262 19.1191 13.1221C18.4512 16.4443 15.5332 18.9141 12.0176 18.9316C11.1826 17.833 10.6113 16.4268 10.2861 14.8887C10.752 14.9238 11.2266 14.9502 11.7012 14.9502ZM4.90723 13.2627C5.9707 13.8955 7.20996 14.3438 8.52832 14.625C8.7832 16.084 9.24902 17.4551 9.93457 18.6328C7.41211 17.8945 5.47852 15.8467 4.90723 13.2627Z" fill="#1C1C1E"/>
</g>
<defs>
<clipPath id="clip0_10_92">
<rect width="24" height="24" fill="white"/>
</clipPath>
</defs>
</svg>
