<svg width="24" height="24" viewBox="0 0 24 24" fill="none" xmlns="http://www.w3.org/2000/svg">
<g clip-path="url(#clip0_10_81)">
<path d="M12.9492 2.75098L15.2607 4.46484C15.7705 4.84277 16.3242 4.66699 16.3242 4.00781V2.91797H16.6143C18.4688 2.91797 19.6816 4.23633 19.6816 6.09082V7.47949C19.6816 7.83105 19.9717 8.12109 20.3232 8.12109C20.6748 8.12109 20.9648 7.83105 20.9648 7.47949V6.08203C20.9648 3.48926 19.1895 1.71387 16.6055 1.71387H16.3242V0.580078C16.3242 -0.0966797 15.7793 -0.272461 15.2607 0.114258L12.9492 1.83691C12.5713 2.10938 12.5713 2.46973 12.9492 2.75098ZM5.46094 19.8721H14.1621C15.7617 19.8721 16.5967 19.0635 16.5967 17.4375V8.75391C16.5967 7.12793 15.7617 6.31934 14.1621 6.31934H5.46094C3.86133 6.31934 3.02637 7.12793 3.02637 8.75391V17.4375C3.02637 19.0635 3.86133 19.8721 5.46094 19.8721Z" fill="#1C1C1E"/>
</g>
<defs>
<clipPath id="clip0_10_81">
<rect width="24" height="24" fill="white"/>
</clipPath>
</defs>
</svg>
