<svg width="24" height="24" viewBox="0 0 24 24" fill="none" xmlns="http://www.w3.org/2000/svg">
<g clip-path="url(#clip0_10_93)">
<path d="M2.70117 17.9912C2.70117 18.3955 2.87695 18.7119 3.2373 18.9141L4.98633 19.9336C5.25879 20.0918 5.46973 20.1182 5.8125 19.9248L7.52637 18.9316C7.87793 18.7383 7.95703 18.5449 7.95703 18.2021L7.96582 17.0244L12.0264 14.9766L16.0342 16.998L16.043 18.2109C16.043 18.5537 16.1221 18.7471 16.4736 18.9404L18.1875 19.9336C18.5303 20.127 18.7412 20.1006 19.0137 19.9424L20.7627 18.9229C21.123 18.7207 21.2988 18.4043 21.2988 18L21.3164 15.9785C21.3164 15.6621 21.2461 15.4512 20.9033 15.2578L19.1719 14.2559C18.8379 14.0713 18.5918 14.1064 18.3193 14.2559L16.5527 15.2842C16.5264 15.3018 16.5 15.3105 16.4736 15.3369L12.8789 13.5264V8.61328L14.2852 7.80469C14.5752 7.6377 14.707 7.46191 14.707 7.06641V5.08008C14.707 4.68457 14.5752 4.51758 14.3027 4.35938L12.5361 3.34863C12.1758 3.14648 11.8242 3.14648 11.4727 3.34863L9.70605 4.35059C9.44238 4.50879 9.29297 4.68457 9.29297 5.08008V7.06641C9.29297 7.45312 9.44238 7.64648 9.72363 7.80469L11.1826 8.63965V13.5264L7.56152 15.3457C7.51758 15.3193 7.48242 15.293 7.44727 15.2754L5.68066 14.2471C5.4082 14.0977 5.16211 14.0625 4.82812 14.2471L3.09668 15.249C2.75391 15.4424 2.68359 15.6533 2.68359 15.9697L2.70117 17.9912Z" fill="#1C1C1E"/>
</g>
<defs>
<clipPath id="clip0_10_93">
<rect width="24" height="24" fill="white"/>
</clipPath>
</defs>
</svg>
