<svg width="24" height="24" viewBox="0 0 24 24" fill="none" xmlns="http://www.w3.org/2000/svg">
<g clip-path="url(#clip0_10_129)">
<path d="M3.14941 14.0537C3.47461 14.3877 3.9668 14.3789 4.29199 14.0537L5.83887 12.5068C11.4551 6.89941 14.25 4.12207 15.1816 5.04492C15.8496 5.71289 14.1445 7.66406 11.7891 10.4326C9.40723 13.2451 6.69141 16.2686 8.57227 18.1582C10.2246 19.8281 12.8613 17.6924 15.1641 15.4688C17.0449 13.6494 18.2139 12.5508 18.5566 12.8936C18.8555 13.1924 18.3281 13.8428 17.6602 15.0029C16.8252 16.4619 15.7266 18.1582 16.8252 19.2656C17.6777 20.1094 19.0752 19.6436 20.7715 17.9121C21.1582 17.5254 21.1758 17.0332 20.8418 16.6992C20.5166 16.3828 20.0332 16.3916 19.6992 16.6992C18.6006 17.7275 18.0205 18.1494 17.8711 18.0088C17.7041 17.8506 18.1172 17.2178 18.9434 15.8643C20.1826 13.8164 20.5781 12.6211 19.7256 11.7773C18.6006 10.6523 16.8955 11.5576 14.0127 14.2998C11.4551 16.7168 10.2158 17.499 9.71484 17.0068C9.11719 16.4268 10.0752 14.8623 13.0107 11.4873C16.5615 7.38281 17.8008 5.37012 16.3242 3.90234C14.4785 2.06543 12.501 3.55957 4.69629 11.3643L3.14941 12.9111C2.82422 13.2363 2.83301 13.7285 3.14941 14.0537Z" fill="#1C1C1E"/>
</g>
<defs>
<clipPath id="clip0_10_129">
<rect width="24" height="24" fill="white"/>
</clipPath>
</defs>
</svg>
