<svg width="24" height="24" viewBox="0 0 24 24" fill="none" xmlns="http://www.w3.org/2000/svg">
<g clip-path="url(#clip0_10_128)">
<path d="M3.06152 14.1152C3.62402 14.6426 4.66992 14.7744 5.49609 14.0273C5.79492 13.7549 6.375 13.1396 7.27148 12.2344C11.6484 7.81348 14.3291 5.02734 14.7949 5.45801C15.1729 5.79199 13.6787 7.90137 12.1846 9.97559C9.45117 13.7637 7.14844 16.541 8.88867 18.2812C10.2422 19.6436 12.29 18.4219 15.6035 15.5127C17.3789 13.957 18.5918 12.8145 18.8906 13.1045C19.084 13.2979 18.6094 14.0625 18.0205 15.0732C17.1768 16.541 16.043 18.1934 17.1504 19.3008C17.9238 20.0742 19.3916 19.7314 21.0967 18.0527C21.4482 17.7012 21.5273 17.2793 21.2285 16.9805C20.9473 16.708 20.5518 16.752 20.2529 17.0244C19.1719 18.0615 18.3545 18.5273 18.2227 18.3867C18.0645 18.2285 18.5391 17.3936 19.3389 15.9697C20.4551 13.9746 21.1406 12.6299 20.1035 11.6191C18.7148 10.2656 17.0889 11.6895 14.2852 14.1592C11.9385 16.2246 10.9365 16.7959 10.7344 16.5674C10.4268 16.251 11.332 15.0117 13.8984 11.4258C16.7021 7.50586 18.3809 4.93945 16.79 3.39258C14.7246 1.37109 11.9297 2.84766 5.10059 9.61523C4.08984 10.6084 3.45703 11.2148 3.13184 11.6016C2.31445 12.542 2.49902 13.5703 3.06152 14.1152Z" fill="#1C1C1E"/>
</g>
<defs>
<clipPath id="clip0_10_128">
<rect width="24" height="24" fill="white"/>
</clipPath>
</defs>
</svg>
