<svg width="24" height="24" viewBox="0 0 24 24" fill="none" xmlns="http://www.w3.org/2000/svg">
<g clip-path="url(#clip0_10_88)">
<path d="M8.1416 18.2021H16.7725V20.4082C16.2803 20.6982 15.9551 21.2432 15.9551 21.8496C15.9551 22.7725 16.7109 23.5371 17.6338 23.5371C18.5654 23.5371 19.3213 22.7725 19.3213 21.8496C19.3213 21.2432 19.0049 20.707 18.5303 20.4082V7.98047C18.5303 6.29297 17.6338 5.41406 15.9375 5.41406H7.22754V3.19922C7.71094 2.90039 8.04492 2.36426 8.04492 1.7666C8.04492 0.826172 7.30664 0.0791016 6.35742 0.0791016C5.43457 0.0791016 4.66992 0.834961 4.66992 1.7666C4.66992 2.36426 4.99512 2.90039 5.47852 3.19922V15.5742C5.47852 17.3057 6.39258 18.2021 8.1416 18.2021ZM8.25586 16.5234C7.5791 16.5234 7.22754 16.1543 7.22754 15.4863V7.09277H15.7529C16.4297 7.09277 16.7725 7.45312 16.7725 8.12988V16.5234H8.25586Z" fill="#1C1C1E"/>
</g>
<defs>
<clipPath id="clip0_10_88">
<rect width="24" height="24" fill="white"/>
</clipPath>
</defs>
</svg>
