<svg width="24" height="24" viewBox="0 0 24 24" fill="none" xmlns="http://www.w3.org/2000/svg">
<g clip-path="url(#clip0_10_114)">
<path d="M-0.629883 19.9072H4.9248C4.88965 20.127 4.87207 20.3467 4.87207 20.5576C4.87207 22.1133 5.75098 23.1768 7.49121 23.1768C9.45117 23.1768 11.042 21.9375 12.1055 19.9072H24.6387C25.0605 19.9072 25.4033 19.5469 25.4033 19.125C25.4033 18.7031 25.0605 18.3516 24.6387 18.3516H12.7734C13.2568 16.9189 13.5469 15.2402 13.6084 13.4033C14.1709 13.2891 14.7422 13.2188 15.3398 13.2188C15.6035 13.2188 15.7617 13.3418 15.7617 13.5352C15.7617 14.2646 15.3311 14.8535 15.3311 15.6445C15.3311 16.3564 15.8584 16.7959 16.5615 16.7959C18.3896 16.7959 20.5869 13.79 21.2461 13.79C21.8438 13.79 21.1582 16.4707 23.3818 16.4707C23.7686 16.4707 24.2607 16.374 24.6299 16.1191C24.876 15.9609 25.043 15.7148 25.043 15.4072C25.043 15.0205 24.7793 14.6865 24.375 14.6865C24.0762 14.6865 23.8213 14.915 23.5488 14.915C22.6963 14.915 23.5225 12.0322 21.6855 12.0322C20.1211 12.0322 17.8271 14.8711 17.2559 14.8711C17.1855 14.8711 17.1328 14.8271 17.1328 14.7305C17.1328 14.4404 17.4492 13.8428 17.4492 13.2363C17.4492 12.2695 16.6934 11.6719 15.4893 11.6719C14.8389 11.6719 14.2148 11.7334 13.5996 11.8477C13.3623 7.16309 11.0947 3.56836 7.7373 3.56836C5.36426 3.56836 3.60645 5.50195 3.60645 8.05078C3.60645 10.96 5.4873 13.4209 7.70215 15.0469C6.65625 16.0752 5.86523 17.2354 5.38184 18.3516H-0.629883C-1.06055 18.3516 -1.40332 18.7031 -1.40332 19.125C-1.40332 19.5469 -1.05176 19.9072 -0.629883 19.9072ZM5.15332 8.04199C5.15332 6.38086 6.26074 5.12402 7.7373 5.12402C10.2598 5.12402 11.9561 8.2793 12.0615 12.2695C10.875 12.6914 9.78516 13.3154 8.83594 14.0449C7.06934 12.7793 5.15332 10.7227 5.15332 8.04199ZM-0.963867 16.5059C-0.708984 16.7607 -0.322266 16.752 -0.0761719 16.5059L0.987305 15.4512L2.04199 16.5059C2.29688 16.7607 2.6748 16.7607 2.92969 16.5059C3.18457 16.2598 3.18457 15.8643 2.92969 15.6182L1.875 14.5635L2.92969 13.5088C3.18457 13.2627 3.18457 12.876 2.92969 12.6211C2.68359 12.3662 2.29688 12.375 2.04199 12.6211L0.987305 13.6758L-0.0761719 12.6211C-0.331055 12.375 -0.708984 12.375 -0.963867 12.6211C-1.21875 12.876 -1.21875 13.2715 -0.963867 13.5176L0.0908203 14.5635L-0.963867 15.6182C-1.21875 15.873 -1.21875 16.251 -0.963867 16.5059ZM9.67969 16.2334C9.81152 16.3037 9.94336 16.3301 10.0752 16.3301C10.4795 16.3301 10.7871 16.0225 10.7871 15.6533C10.7871 15.4072 10.6729 15.1699 10.3828 15.0029C10.3213 14.9766 10.2686 14.9414 10.207 14.915C10.7695 14.5195 11.376 14.1768 12.0352 13.9043C11.9209 15.583 11.5957 17.1035 11.1035 18.3516H7.07812C7.50879 17.5342 8.16797 16.6641 9.00293 15.8818C9.23145 16.0049 9.45117 16.1279 9.67969 16.2334ZM6.48047 20.3291C6.48047 20.1973 6.49805 20.0566 6.51562 19.9072H10.3037C9.57422 20.9883 8.67773 21.6299 7.66699 21.6299C6.86719 21.6299 6.48047 21.1025 6.48047 20.3291Z" fill="#1C1C1E"/>
</g>
<defs>
<clipPath id="clip0_10_114">
<rect width="24" height="24" fill="white"/>
</clipPath>
</defs>
</svg>
