<svg width="24" height="24" viewBox="0 0 24 24" fill="none" xmlns="http://www.w3.org/2000/svg">
<g clip-path="url(#clip0_10_75)">
<path d="M3.43945 17.5342C4.2832 17.5342 5.0127 17.0596 5.39941 16.3652L18.4336 20.1885C18.7148 21.0938 19.5674 21.7617 20.5605 21.7617C21.791 21.7617 22.793 20.751 22.793 19.5205C22.793 18.624 22.2568 17.8506 21.4922 17.4902L21.1318 8.94727C21.9316 8.60449 22.4854 7.81348 22.4854 6.89062C22.4854 5.66016 21.4834 4.6582 20.2617 4.6582C19.4707 4.6582 18.7676 5.08008 18.3721 5.7041L11.3848 3.69141C11.3232 2.52246 10.3389 1.58203 9.16113 1.58203C7.93066 1.58203 6.92871 2.58398 6.92871 3.81445C6.92871 4.42969 7.18359 4.99219 7.58789 5.39648L3.59766 13.0781C3.54492 13.0693 3.49219 13.0693 3.43945 13.0693C2.20898 13.0693 1.20703 14.0713 1.20703 15.3018C1.20703 16.5322 2.20898 17.5342 3.43945 17.5342ZM9.16113 6.04688C9.85547 6.04688 10.4707 5.73047 10.8838 5.22949L18.0645 7.28613C18.2051 8.08594 18.7764 8.74512 19.5322 9.00879L19.8398 17.4111C19.2598 17.6133 18.7939 18.0439 18.5391 18.5889L5.61035 14.7832C5.51367 14.4141 5.33789 14.0713 5.08301 13.7988L9.06445 6.04688C9.09961 6.04688 9.13477 6.04688 9.16113 6.04688Z" fill="#1C1C1E"/>
</g>
<defs>
<clipPath id="clip0_10_75">
<rect width="24" height="24" fill="white"/>
</clipPath>
</defs>
</svg>
