<svg width="24" height="24" viewBox="0 0 24 24" fill="none" xmlns="http://www.w3.org/2000/svg">
<g clip-path="url(#clip0_10_83)">
<path d="M6.10254 14.3877C4.30957 14.3877 3.33398 13.4473 3.33398 11.6543V5.7041C3.33398 3.90234 4.37988 2.96191 6.10254 2.96191H17.8887C19.6816 2.96191 20.6572 3.90234 20.6572 5.7041V11.6543C20.6572 13.4473 19.6816 14.3877 17.8887 14.3877H6.10254ZM6.14648 12.7793H17.8447C18.5391 12.7793 18.8994 12.4102 18.8994 11.7158V5.64258C18.8994 4.94824 18.5391 4.5791 17.8447 4.5791H6.14648C5.45215 4.5791 5.08301 4.94824 5.08301 5.64258V11.7158C5.08301 12.4102 5.45215 12.7793 6.14648 12.7793ZM15.3047 20.1885C14.3379 20.1885 13.5029 19.582 13.1689 18.7383H4.16895C3.70312 18.7383 3.33398 18.3516 3.33398 17.8945C3.33398 17.4287 3.70312 17.042 4.16895 17.042H13.1689C13.5029 16.1982 14.3379 15.6006 15.3047 15.6006C16.2715 15.6006 17.0977 16.1982 17.4404 17.042H19.8486C20.2881 17.042 20.6572 17.4199 20.6572 17.8945C20.6572 18.3516 20.2881 18.7383 19.8486 18.7383H17.4404C17.0977 19.5908 16.2715 20.1885 15.3047 20.1885ZM15.3047 18.9756C15.9199 18.9756 16.3857 18.4922 16.3857 17.8945C16.3857 17.2793 15.9199 16.8047 15.3047 16.8047C14.6982 16.8047 14.2148 17.2793 14.2148 17.8945C14.2148 18.4922 14.6982 18.9756 15.3047 18.9756Z" fill="#1C1C1E"/>
</g>
<defs>
<clipPath id="clip0_10_83">
<rect width="24" height="24" fill="white"/>
</clipPath>
</defs>
</svg>
