<svg width="24" height="24" viewBox="0 0 24 24" fill="none" xmlns="http://www.w3.org/2000/svg">
<g clip-path="url(#clip0_10_80)">
<path d="M12 19.2744C12.4658 19.2744 12.8438 18.9053 12.8438 18.4395V10.7314C13.6787 10.3975 14.2764 9.57129 14.2764 8.62207C14.2764 7.67285 13.6787 6.84668 12.8438 6.5127V4.07812C12.8438 3.63867 12.4658 3.26953 12 3.26953C11.543 3.26953 11.1562 3.63867 11.1562 4.07812V6.5127C10.3213 6.84668 9.72363 7.66406 9.72363 8.62207C9.72363 9.57129 10.3213 10.3975 11.1562 10.7314V18.4395C11.1562 18.9053 11.5342 19.2744 12 19.2744ZM15.8057 13.8252C15.8057 14.7744 16.3945 15.5918 17.2295 15.9346V18.4658C17.2295 18.9053 17.6074 19.2744 18.0732 19.2744C18.5479 19.2744 18.917 18.9053 18.917 18.4658V15.9346C19.7607 15.6006 20.3496 14.7744 20.3496 13.8252C20.3496 12.8672 19.7607 12.0498 18.917 11.707V4.10449C18.917 3.63867 18.5391 3.26953 18.0732 3.26953C17.6162 3.26953 17.2295 3.63867 17.2295 4.10449V11.7158C16.3945 12.0498 15.8057 12.8672 15.8057 13.8252ZM5.92676 19.2744C6.39258 19.2744 6.77051 18.9053 6.77051 18.4658V15.9346C7.60547 15.5918 8.19434 14.7744 8.19434 13.8252C8.19434 12.8672 7.60547 12.0498 6.77051 11.7158V4.10449C6.77051 3.63867 6.39258 3.26953 5.92676 3.26953C5.46973 3.26953 5.08301 3.63867 5.08301 4.10449V11.707C4.24805 12.0498 3.65039 12.8672 3.65039 13.8252C3.65039 14.7744 4.24805 15.6006 5.08301 15.9346V18.4658C5.08301 18.9053 5.46094 19.2744 5.92676 19.2744ZM10.9189 8.62207C10.9189 8.01562 11.3936 7.54102 12 7.54102C12.6152 7.54102 13.0811 8.01562 13.0811 8.62207C13.0811 9.2373 12.6152 9.70312 12 9.70312C11.3936 9.70312 10.9189 9.2373 10.9189 8.62207ZM16.9922 13.8252C16.9922 13.2188 17.4756 12.7354 18.082 12.7354C18.6973 12.7354 19.1631 13.2188 19.1631 13.8252C19.1631 14.4404 18.6973 14.9062 18.082 14.9062C17.4756 14.9062 16.9922 14.4404 16.9922 13.8252ZM4.8457 13.8252C4.8457 13.2188 5.32031 12.7354 5.92676 12.7354C6.54199 12.7354 7.00781 13.2188 7.00781 13.8252C7.00781 14.4404 6.54199 14.9062 5.92676 14.9062C5.32031 14.9062 4.8457 14.4404 4.8457 13.8252Z" fill="#1C1C1E"/>
</g>
<defs>
<clipPath id="clip0_10_80">
<rect width="24" height="24" fill="white"/>
</clipPath>
</defs>
</svg>
