<svg width="24" height="24" viewBox="0 0 24 24" fill="none" xmlns="http://www.w3.org/2000/svg">
<g clip-path="url(#clip0_10_84)">
<path d="M15.2695 8.41992C16.2188 8.41992 17.0361 7.82227 17.3789 6.99609H20.2705C20.71 6.99609 21.0791 6.60938 21.0791 6.14355C21.0791 5.67773 20.71 5.2998 20.2705 5.2998H17.3789C17.0449 4.46484 16.2275 3.86719 15.2695 3.86719C14.3115 3.86719 13.4941 4.46484 13.1602 5.2998H3.74707C3.28125 5.2998 2.91211 5.67773 2.91211 6.14355C2.91211 6.60938 3.28125 6.99609 3.74707 6.99609H13.1602C13.5029 7.82227 14.3203 8.41992 15.2695 8.41992ZM15.2695 7.22461C14.6631 7.22461 14.1885 6.74121 14.1885 6.14355C14.1885 5.52832 14.6631 5.05371 15.2695 5.05371C15.8848 5.05371 16.3506 5.52832 16.3506 6.14355C16.3506 6.74121 15.8848 7.22461 15.2695 7.22461ZM3.7207 10.7842C3.28125 10.7842 2.91211 11.1621 2.91211 11.6279C2.91211 12.085 3.28125 12.4717 3.7207 12.4717H6.70898C7.05176 13.3154 7.86914 13.9043 8.82715 13.9043C9.77637 13.9043 10.5938 13.3154 10.9365 12.4717H20.2441C20.71 12.4717 21.0791 12.0938 21.0791 11.6279C21.0791 11.1621 20.71 10.7842 20.2441 10.7842H10.9365C10.5938 9.94922 9.77637 9.36035 8.82715 9.36035C7.86914 9.36035 7.05176 9.94922 6.70898 10.7842H3.7207ZM8.82715 12.7178C8.2207 12.7178 7.7373 12.2344 7.7373 11.6279C7.7373 11.0127 8.2207 10.5469 8.82715 10.5469C9.43359 10.5469 9.9082 11.0127 9.9082 11.6279C9.9082 12.2344 9.43359 12.7178 8.82715 12.7178ZM15.2695 19.3887C16.2275 19.3887 17.0449 18.791 17.3789 17.9561H20.2705C20.71 17.9561 21.0791 17.5781 21.0791 17.1123C21.0791 16.6377 20.71 16.2686 20.2705 16.2686H17.3789C17.0449 15.4336 16.2275 14.8359 15.2695 14.8359C14.3203 14.8359 13.4941 15.4336 13.1602 16.2686H3.74707C3.28125 16.2686 2.91211 16.6465 2.91211 17.1123C2.91211 17.5693 3.28125 17.9561 3.74707 17.9561H13.1602C13.4941 18.791 14.3115 19.3887 15.2695 19.3887ZM15.2695 18.1934C14.6631 18.1934 14.1885 17.71 14.1885 17.1123C14.1885 16.4971 14.6631 16.0312 15.2695 16.0312C15.8848 16.0312 16.3506 16.4971 16.3506 17.1123C16.3506 17.71 15.8848 18.1934 15.2695 18.1934Z" fill="#1C1C1E"/>
</g>
<defs>
<clipPath id="clip0_10_84">
<rect width="24" height="24" fill="white"/>
</clipPath>
</defs>
</svg>
