<svg width="24" height="24" viewBox="0 0 24 24" fill="none" xmlns="http://www.w3.org/2000/svg">
<g clip-path="url(#clip0_10_82)">
<path d="M14.9355 13.9482H20.9648C22.3975 13.9482 23.25 13.1045 23.25 11.6982V5.64258C23.25 4.23633 22.3975 3.40137 20.9648 3.40137H14.9355C13.5029 3.40137 12.6592 4.23633 12.6592 5.64258V11.6982C12.6592 13.1045 13.5029 13.9482 14.9355 13.9482ZM2.97363 13.834H8.87109C10.2686 13.834 11.1123 13.0078 11.1123 11.6279V5.71289C11.1123 4.33301 10.2686 3.51562 8.87109 3.51562H2.97363C1.58496 3.51562 0.75 4.32422 0.75 5.71289V11.6279C0.75 13.0166 1.58496 13.834 2.97363 13.834ZM15.1025 12.2168C14.6279 12.2168 14.3906 11.9707 14.3906 11.4873V5.85352C14.3906 5.37012 14.6279 5.13281 15.1025 5.13281H20.7979C21.2812 5.13281 21.5098 5.37012 21.5098 5.85352V11.4873C21.5098 11.9707 21.2812 12.2168 20.7979 12.2168H15.1025ZM1.55859 17.042C1.11914 17.042 0.75 17.4199 0.75 17.8945C0.75 18.3516 1.11914 18.7383 1.55859 18.7383H3.94043C4.2832 19.582 5.10938 20.1885 6.07617 20.1885C7.04297 20.1885 7.87793 19.5908 8.21191 18.7383H22.415C22.8809 18.7383 23.25 18.3516 23.25 17.8945C23.25 17.4287 22.8809 17.042 22.415 17.042H8.21191C7.86914 16.1982 7.04297 15.6006 6.07617 15.6006C5.10938 15.6006 4.2832 16.1982 3.94043 17.042H1.55859ZM6.07617 18.9756C5.46094 18.9756 4.99512 18.4922 4.99512 17.8945C4.99512 17.2793 5.46094 16.8047 6.07617 16.8047C6.68262 16.8047 7.15723 17.2793 7.15723 17.8945C7.15723 18.4922 6.68262 18.9756 6.07617 18.9756Z" fill="#1C1C1E"/>
</g>
<defs>
<clipPath id="clip0_10_82">
<rect width="24" height="24" fill="white"/>
</clipPath>
</defs>
</svg>
