<svg width="24" height="24" viewBox="0 0 24 24" fill="none" xmlns="http://www.w3.org/2000/svg">
<g clip-path="url(#clip0_10_117)">
<path d="M3.78223 8.12109H5.53125V6.47754C5.53125 5.625 5.97949 5.20312 6.78809 5.20312H8.42285V3.4541H6.67383C4.77539 3.4541 3.78223 4.42969 3.78223 6.31934V8.12109ZM9.71484 5.20312H14.2764V3.4541H9.71484V5.20312ZM18.46 8.12109H20.209V6.31934C20.209 4.43848 19.2158 3.4541 17.3174 3.4541H15.5684V5.20312H17.2031C18.0029 5.20312 18.46 5.625 18.46 6.47754V8.12109ZM18.46 13.9219H20.209V9.41309H18.46V13.9219ZM3.78223 13.9219H5.53125V9.41309H3.78223V13.9219ZM15.5684 19.8809H17.3174C19.2158 19.8809 20.209 18.8965 20.209 17.0156V15.2051H18.46V16.8574C18.46 17.71 18.0029 18.1318 17.2031 18.1318H15.5684V19.8809ZM6.67383 19.8809H8.42285V18.1318H6.78809C5.97949 18.1318 5.53125 17.71 5.53125 16.8574V15.2051H3.78223V17.0156C3.78223 18.8965 4.77539 19.8809 6.67383 19.8809ZM9.71484 19.8809H14.2764V18.1318H9.71484V19.8809Z" fill="#1C1C1E"/>
</g>
<defs>
<clipPath id="clip0_10_117">
<rect width="24" height="24" fill="white"/>
</clipPath>
</defs>
</svg>
