<svg width="24" height="24" viewBox="0 0 24 24" fill="none" xmlns="http://www.w3.org/2000/svg">
<g clip-path="url(#clip0_10_87)">
<path d="M5.03906 19.8809H18.9521C20.8594 19.8809 21.8438 18.8965 21.8438 17.0156V6.31934C21.8438 4.43848 20.8594 3.4541 18.9521 3.4541H5.03906C3.14062 3.4541 2.13867 4.42969 2.13867 6.31934V17.0156C2.13867 18.8965 3.14062 19.8809 5.03906 19.8809ZM6.60352 18.1318V5.20312H17.3877V18.1318H6.60352ZM3.76465 14.3877V8.94727C3.76465 8.61328 4.03711 8.33203 4.37109 8.33203C4.70508 8.33203 4.97754 8.61328 4.97754 8.94727V14.3877C4.97754 14.7217 4.70508 14.9941 4.37109 14.9941C4.03711 14.9941 3.76465 14.7217 3.76465 14.3877ZM19.0137 14.3877V8.94727C19.0137 8.61328 19.2861 8.33203 19.6201 8.33203C19.9541 8.33203 20.2266 8.61328 20.2266 8.94727V14.3877C20.2266 14.7217 19.9541 14.9941 19.6201 14.9941C19.2861 14.9941 19.0137 14.7217 19.0137 14.3877ZM26.792 14.502C27.4688 14.9502 28.2422 14.7041 28.2422 13.8779V9.49219C28.2422 8.63965 27.5039 8.37598 26.792 8.85938L23.7334 10.9424C23.2061 11.3027 23.1885 12.085 23.7334 12.4541L26.792 14.502ZM-2.80078 14.502L0.249023 12.4541C0.802734 12.085 0.785156 11.3027 0.249023 10.9424L-2.80078 8.85938C-3.5127 8.37598 -4.25098 8.63965 -4.25098 9.49219V13.8779C-4.25098 14.7041 -3.47754 14.9502 -2.80078 14.502Z" fill="#1C1C1E"/>
</g>
<defs>
<clipPath id="clip0_10_87">
<rect width="24" height="24" fill="white"/>
</clipPath>
</defs>
</svg>
