<svg width="24" height="24" viewBox="0 0 24 24" fill="none" xmlns="http://www.w3.org/2000/svg">
<g clip-path="url(#clip0_10_110)">
<path d="M9.66211 6.9873C9.78516 6.9873 9.85547 6.89941 9.88184 6.78516C10.1719 5.32617 10.1543 5.29102 11.6748 4.99219C11.8066 4.96582 11.8857 4.89551 11.8857 4.77246C11.8857 4.64941 11.8066 4.5791 11.6836 4.55273C10.1455 4.23633 10.1543 4.20117 9.88184 2.75098C9.86426 2.63672 9.78516 2.55762 9.66211 2.55762C9.53906 2.55762 9.46875 2.63672 9.45117 2.75098C9.15234 4.21875 9.17871 4.27148 7.64941 4.55273C7.52637 4.57031 7.44727 4.64941 7.44727 4.77246C7.44727 4.88672 7.52637 4.96582 7.64941 4.99219C9.17871 5.2998 9.16992 5.33496 9.45117 6.78516C9.46875 6.89941 9.53906 6.9873 9.66211 6.9873ZM17.1943 10.1162C17.335 10.1162 17.4229 10.0107 17.4492 9.87891C17.7656 8.17383 17.748 8.08594 19.541 7.77832C19.6904 7.75195 19.7871 7.66406 19.7871 7.52344C19.7871 7.38281 19.6904 7.29492 19.5498 7.26855C17.748 6.94336 17.7217 6.86426 17.4492 5.16797C17.4229 5.02734 17.335 4.93066 17.1943 4.93066C17.0537 4.93066 16.957 5.02734 16.9395 5.16797C16.6318 6.88184 16.6406 6.9873 14.8301 7.26855C14.6982 7.28613 14.5928 7.38281 14.5928 7.52344C14.6016 7.66406 14.6895 7.75195 14.8301 7.77832C16.6406 8.09473 16.6582 8.18262 16.9395 9.87891C16.957 10.0107 17.0537 10.1162 17.1943 10.1162ZM4.81934 12.7529C4.95996 12.7529 5.05664 12.6562 5.07422 12.5156C5.35547 10.8105 5.38184 10.7227 7.1748 10.415C7.31543 10.3887 7.41211 10.3008 7.41211 10.1602C7.41211 10.0195 7.31543 9.93164 7.18359 9.90527C5.37305 9.58008 5.37305 9.50098 5.07422 7.80469C5.04785 7.66406 4.95996 7.56738 4.81934 7.56738C4.67871 7.56738 4.59082 7.66406 4.56445 7.80469C4.2832 9.51855 4.26562 9.60645 2.46387 9.90527C2.32324 9.93164 2.22656 10.0195 2.22656 10.1602C2.22656 10.3008 2.32324 10.3887 2.45508 10.415C4.26562 10.7314 4.26562 10.8281 4.56445 12.5244C4.59082 12.6562 4.67871 12.7529 4.81934 12.7529ZM19.8662 20.2939C20.2969 20.7334 21.0352 20.7246 21.457 20.2939C21.8877 19.8457 21.8789 19.1426 21.457 18.7031L13.1074 10.3096C12.6768 9.87891 11.9385 9.87891 11.5166 10.3096C11.0859 10.7578 11.0947 11.4697 11.5166 11.9004L19.8662 20.2939ZM14.9092 14.2031L12.2637 11.5576C12.0879 11.373 12.0264 11.1621 12.2021 10.9863C12.3604 10.8281 12.5801 10.8721 12.7734 11.0566L15.4102 13.7021L14.9092 14.2031ZM9.05566 20.5137C9.24023 20.5137 9.37207 20.3906 9.39844 20.1885C9.67969 17.8154 9.79395 17.7451 12.2109 17.3672C12.4307 17.332 12.5625 17.2178 12.5625 17.0244C12.5625 16.8398 12.4307 16.7168 12.2549 16.6816C9.80273 16.207 9.67969 16.2246 9.39844 13.8604C9.37207 13.6582 9.24023 13.5352 9.05566 13.5352C8.87109 13.5352 8.73926 13.6582 8.71289 13.8516C8.41406 16.2598 8.32617 16.3477 5.86523 16.6816C5.68945 16.6992 5.54883 16.8398 5.54883 17.0244C5.54883 17.209 5.68066 17.332 5.85645 17.3672C8.33496 17.8418 8.40527 17.8418 8.71289 20.2061C8.73926 20.3906 8.87109 20.5137 9.05566 20.5137Z" fill="#1C1C1E"/>
</g>
<defs>
<clipPath id="clip0_10_110">
<rect width="24" height="24" fill="white"/>
</clipPath>
</defs>
</svg>
