<svg width="24" height="24" viewBox="0 0 24 24" fill="none" xmlns="http://www.w3.org/2000/svg">
<g clip-path="url(#clip0_10_1485)">
<path d="M1.44434 19.2656H1.98926C2.45508 19.2656 2.7627 18.9668 2.7627 18.4922V17.2266C2.86816 17.2529 3.17578 17.2705 3.39551 17.2705H20.5957C20.8154 17.2705 21.123 17.2529 21.2285 17.2266V18.4922C21.2285 18.9668 21.5361 19.2656 22.002 19.2656H22.5469C23.0127 19.2656 23.3203 18.9668 23.3203 18.4922V12.3311C23.3203 10.7402 22.5205 9.81738 21.0439 9.66797V6.57422C21.0439 4.9043 20.1475 4.03418 18.5127 4.03418H5.47852C3.84375 4.03418 2.94727 4.9043 2.94727 6.57422V9.66797C1.4707 9.81738 0.670898 10.7402 0.670898 12.3311V18.4922C0.670898 18.9668 0.978516 19.2656 1.44434 19.2656ZM5.31152 8.0332C5.31152 7.18945 5.77734 6.72363 6.63867 6.72363H9.80273C10.6553 6.72363 11.1211 7.18945 11.1211 8.0332V9.65039H5.31152V8.0332ZM12.8701 8.0332C12.8701 7.18945 13.3359 6.72363 14.1885 6.72363H17.3525C18.2139 6.72363 18.6797 7.18945 18.6797 8.0332V9.65039H12.8701V8.0332ZM2.6748 15.7676C2.47266 15.7676 2.3584 15.6357 2.3584 15.416V12.2256C2.3584 11.5752 2.78906 11.1533 3.43945 11.1533H20.5518C21.2021 11.1533 21.6328 11.5752 21.6328 12.2256V15.416C21.6328 15.6357 21.5186 15.7676 21.3164 15.7676H2.6748Z" fill="#1C1C1E"/>
</g>
<defs>
<clipPath id="clip0_10_1485">
<rect width="24" height="24" fill="white"/>
</clipPath>
</defs>
</svg>
