<svg width="24" height="24" viewBox="0 0 24 24" fill="none" xmlns="http://www.w3.org/2000/svg">
<g clip-path="url(#clip0_10_1496)">
<path d="M11.9912 20.1621C12.2197 20.1621 12.5537 19.9863 12.8262 19.8105C17.7393 16.6465 20.8857 12.9375 20.8857 9.18457C20.8857 5.94141 18.6445 3.69141 15.8408 3.69141C14.0918 3.69141 12.7822 4.6582 11.9912 6.09961C11.2178 4.6582 9.89941 3.69141 8.15039 3.69141C5.33789 3.69141 3.09668 5.94141 3.09668 9.18457C3.09668 12.9375 6.25195 16.6465 11.1562 19.8105C11.4287 19.9863 11.7627 20.1621 11.9912 20.1621ZM9.16113 12.7441C9.16113 12.6475 9.20508 12.5596 9.28418 12.4717L12.8701 7.99805C13.1689 7.62891 13.6611 7.88379 13.4854 8.33203L12.3252 11.4434H14.5137C14.6895 11.4434 14.8477 11.584 14.8477 11.7598C14.8477 11.8564 14.8037 11.9531 14.7158 12.0322L11.1299 16.5059C10.8311 16.875 10.3389 16.6201 10.5146 16.1631L11.6836 13.0518H9.49512C9.31055 13.0518 9.16113 12.9199 9.16113 12.7441Z" fill="#1C1C1E"/>
</g>
<defs>
<clipPath id="clip0_10_1496">
<rect width="24" height="24" fill="white"/>
</clipPath>
</defs>
</svg>
