<svg width="24" height="24" viewBox="0 0 24 24" fill="none" xmlns="http://www.w3.org/2000/svg">
<g clip-path="url(#clip0_10_1501)">
<path d="M3.09668 9.18457C3.09668 12.9375 6.25195 16.6465 11.1562 19.8105C11.4287 19.9863 11.7627 20.1621 11.9912 20.1621C12.2197 20.1621 12.5537 19.9863 12.8262 19.8105C17.7393 16.6465 20.8857 12.9375 20.8857 9.18457C20.8857 5.94141 18.6445 3.69141 15.7705 3.69141C14.0918 3.69141 12.7822 4.45605 11.9912 5.61621C11.2178 4.46484 9.89941 3.69141 8.2207 3.69141C5.33789 3.69141 3.09668 5.94141 3.09668 9.18457ZM4.90723 9.17578C4.90723 6.96094 6.36621 5.45801 8.32617 5.45801C9.9082 5.45801 10.7959 6.41602 11.3496 7.25098C11.5957 7.61133 11.7627 7.72559 11.9912 7.72559C12.2285 7.72559 12.3779 7.60254 12.6328 7.25098C13.2305 6.43359 14.083 5.45801 15.6562 5.45801C17.625 5.45801 19.084 6.96094 19.084 9.17578C19.084 12.2695 15.8672 15.6973 12.1582 18.1582C12.0791 18.2109 12.0264 18.2461 11.9912 18.2461C11.9561 18.2461 11.9033 18.2109 11.833 18.1582C8.12402 15.6973 4.90723 12.2695 4.90723 9.17578ZM9.27539 12.709C9.27539 12.876 9.41602 13.0078 9.5918 13.0078H11.7012L10.5674 16.0049C10.4092 16.4355 10.875 16.6816 11.165 16.3301L14.6191 12.0234C14.6895 11.9443 14.7334 11.8477 14.7334 11.7598C14.7334 11.5928 14.584 11.4609 14.4082 11.4609H12.3076L13.4326 8.47266C13.5908 8.0332 13.125 7.78711 12.8438 8.14746L9.38086 12.4453C9.31055 12.5332 9.27539 12.6211 9.27539 12.709Z" fill="#1C1C1E"/>
</g>
<defs>
<clipPath id="clip0_10_1501">
<rect width="24" height="24" fill="white"/>
</clipPath>
</defs>
</svg>
