<svg width="24" height="24" viewBox="0 0 24 24" fill="none" xmlns="http://www.w3.org/2000/svg">
<g clip-path="url(#clip0_10_1488)">
<path d="M11.9912 20.7598C16.9746 20.7598 21.0879 16.6465 21.0879 11.6631C21.0879 6.68848 16.9658 2.5752 11.9824 2.5752C7.00781 2.5752 2.90332 6.68848 2.90332 11.6631C2.90332 16.6465 7.0166 20.7598 11.9912 20.7598ZM6.97266 12.5244V10.7842C6.97266 10.1689 7.38574 9.75586 8.00098 9.75586H10.084V7.69043C10.084 7.06641 10.4883 6.65332 11.1123 6.65332H12.8525C13.4678 6.65332 13.8809 7.06641 13.8809 7.69043V9.75586H15.9551C16.5703 9.75586 16.9922 10.1689 16.9922 10.7842V12.5244C16.9922 13.1396 16.5703 13.5615 15.9551 13.5615H13.8809V15.627C13.8809 16.251 13.4678 16.6641 12.8525 16.6641H11.1123C10.4883 16.6641 10.084 16.251 10.084 15.627V13.5615H8.00977C7.39453 13.5615 6.97266 13.1396 6.97266 12.5244Z" fill="#1C1C1E"/>
</g>
<defs>
<clipPath id="clip0_10_1488">
<rect width="24" height="24" fill="white"/>
</clipPath>
</defs>
</svg>
