<svg width="24" height="24" viewBox="0 0 24 24" fill="none" xmlns="http://www.w3.org/2000/svg">
<g clip-path="url(#clip0_10_1491)">
<path d="M2.53418 13.3682C2.53418 14.5459 3.33398 15.3281 4.52051 15.3281H8.31738V19.1338C8.31738 20.3203 9.09961 21.1113 10.2773 21.1113H13.7314C14.9004 21.1113 15.6914 20.3203 15.6914 19.1338V15.3281H19.4883C20.6748 15.3281 21.4658 14.5459 21.4658 13.3682V9.91406C21.4658 8.74512 20.6748 7.9541 19.4883 7.9541H15.6914V4.16602C15.6914 2.97949 14.9004 2.18848 13.7314 2.18848H10.2773C9.09961 2.18848 8.31738 2.97949 8.31738 4.16602V7.9541H4.51172C3.3252 7.9541 2.53418 8.74512 2.53418 9.91406V13.3682Z" fill="#1C1C1E"/>
</g>
<defs>
<clipPath id="clip0_10_1491">
<rect width="24" height="24" fill="white"/>
</clipPath>
</defs>
</svg>
