<svg width="24" height="24" viewBox="0 0 24 24" fill="none" xmlns="http://www.w3.org/2000/svg">
<g clip-path="url(#clip0_10_1495)">
<path d="M2.24414 13.166C2.24414 14.9238 3.13184 15.8203 4.86328 15.8203H7.8252V18.7822C7.8252 20.5137 8.72168 21.4014 10.4795 21.4014H13.5117C15.2695 21.4014 16.166 20.5137 16.166 18.7822V15.8203H19.1191C20.8506 15.8203 21.7471 14.9238 21.7471 13.166V10.1338C21.7471 8.38477 20.8506 7.47949 19.1191 7.47949H16.166V4.51758C16.166 2.78613 15.2695 1.89844 13.5117 1.89844H10.4795C8.72168 1.89844 7.8252 2.78613 7.8252 4.51758V7.47949H4.86328C3.13184 7.47949 2.24414 8.38477 2.24414 10.1338V13.166ZM4.05469 12.9814V10.3271C4.05469 9.65039 4.38867 9.30762 5.08301 9.30762H9.65332V4.72852C9.65332 4.04297 9.99609 3.70898 10.6641 3.70898H13.3271C13.9951 3.70898 14.3379 4.04297 14.3379 4.72852V9.30762H18.9082C19.5938 9.30762 19.9365 9.65039 19.9365 10.3271V12.9814C19.9365 13.6582 19.5938 13.9922 18.9082 13.9922H14.3379V18.5713C14.3379 19.2568 13.9951 19.5908 13.3271 19.5908H10.6641C9.99609 19.5908 9.65332 19.2568 9.65332 18.5713V13.9922H5.08301C4.38867 13.9922 4.05469 13.6582 4.05469 12.9814Z" fill="#1C1C1E"/>
</g>
<defs>
<clipPath id="clip0_10_1495">
<rect width="24" height="24" fill="white"/>
</clipPath>
</defs>
</svg>
