<svg width="24" height="24" viewBox="0 0 24 24" fill="none" xmlns="http://www.w3.org/2000/svg">
<g clip-path="url(#clip0_10_1487)">
<path d="M4.44141 20.2236H19.5498C21.4395 20.2236 22.4062 19.2744 22.4062 17.4023V8.78906C22.4062 6.92578 21.4395 5.96777 19.5498 5.96777H17.3262V5.03613C17.3262 3.64746 16.4297 2.82129 14.9268 2.82129H9.06445C7.56152 2.82129 6.66504 3.64746 6.66504 5.03613V5.96777H4.44141C2.56055 5.96777 1.58496 6.92578 1.58496 8.78906V17.4023C1.58496 19.2744 2.56055 20.2236 4.44141 20.2236ZM8.45801 5.12402C8.45801 4.71094 8.73047 4.44727 9.17871 4.44727H14.8125C15.2607 4.44727 15.542 4.71094 15.542 5.12402V5.96777H8.45801V5.12402ZM7.57031 13.9131V12.2871C7.57031 11.7422 7.93945 11.373 8.48438 11.373H10.2773V9.58887C10.2773 9.03516 10.6377 8.6748 11.1826 8.6748H12.8086C13.3447 8.6748 13.7051 9.03516 13.7051 9.58887V11.373H15.5068C16.0518 11.373 16.4209 11.7422 16.4209 12.2871V13.9131C16.4209 14.4492 16.0518 14.8184 15.5068 14.8184H13.7051V16.6113C13.7051 17.1562 13.3447 17.5254 12.8086 17.5254H11.1826C10.6377 17.5254 10.2773 17.1562 10.2773 16.6113V14.8184H8.48438C7.93945 14.8184 7.57031 14.4492 7.57031 13.9131Z" fill="#1C1C1E"/>
</g>
<defs>
<clipPath id="clip0_10_1487">
<rect width="24" height="24" fill="white"/>
</clipPath>
</defs>
</svg>
