<svg width="24" height="24" viewBox="0 0 24 24" fill="none" xmlns="http://www.w3.org/2000/svg">
<g clip-path="url(#clip0_10_1498)">
<path d="M11.9912 20.7422C16.9746 20.7422 21.0879 16.6289 21.0879 11.6543C21.0879 6.67969 16.9658 2.56641 11.9824 2.56641C7.00781 2.56641 2.90332 6.67969 2.90332 11.6543C2.90332 16.6289 7.0166 20.7422 11.9912 20.7422ZM11.9912 18.9316C7.95703 18.9316 4.73145 15.6885 4.73145 11.6543C4.73145 7.62012 7.95703 4.38574 11.9824 4.38574C16.0166 4.38574 19.2598 7.62012 19.2686 11.6543C19.2773 15.6885 16.0254 18.9316 11.9912 18.9316ZM7.1748 12.498C7.1748 13.0781 7.57031 13.4736 8.15918 13.4736H10.1543V15.4688C10.1543 16.0664 10.5498 16.4619 11.1387 16.4619H12.8174C13.415 16.4619 13.8018 16.0664 13.8018 15.4688V13.4736H15.8057C16.3945 13.4736 16.79 13.0781 16.79 12.498V10.8018C16.79 10.2217 16.3945 9.82617 15.8057 9.82617H13.8018V7.83984C13.8018 7.24219 13.415 6.84668 12.8174 6.84668H11.1387C10.5498 6.84668 10.1543 7.24219 10.1543 7.83984V9.82617H8.15039C7.56152 9.82617 7.1748 10.2217 7.1748 10.8018V12.498Z" fill="#1C1C1E"/>
</g>
<defs>
<clipPath id="clip0_10_1498">
<rect width="24" height="24" fill="white"/>
</clipPath>
</defs>
</svg>
