<svg width="24" height="24" viewBox="0 0 24 24" fill="none" xmlns="http://www.w3.org/2000/svg">
<g clip-path="url(#clip0_10_1494)">
<path d="M11.9912 20.7422C16.9746 20.7422 21.0879 16.6289 21.0879 11.6543C21.0879 6.67969 16.9658 2.56641 11.9824 2.56641C7.00781 2.56641 2.90332 6.67969 2.90332 11.6543C2.90332 16.6289 7.0166 20.7422 11.9912 20.7422ZM11.9912 18.9316C7.95703 18.9316 4.73145 15.6885 4.73145 11.6543C4.73145 7.62012 7.95703 4.38574 11.9824 4.38574C16.0166 4.38574 19.2598 7.62012 19.2686 11.6543C19.2773 15.6885 16.0254 18.9316 11.9912 18.9316ZM9.91699 7.85742C8.47559 7.85742 7.40332 8.95605 7.40332 10.5117C7.40332 12.9111 10.0049 14.9941 11.5342 15.9521C11.6836 16.04 11.8857 16.1631 12.0088 16.1631C12.1318 16.1631 12.3164 16.04 12.457 15.9521C13.9688 14.9766 16.5879 12.9111 16.5879 10.5117C16.5879 8.95605 15.5156 7.85742 14.0654 7.85742C13.1338 7.85742 12.4043 8.39355 11.9912 9.14062C11.5781 8.39355 10.8662 7.85742 9.91699 7.85742Z" fill="#1C1C1E"/>
</g>
<defs>
<clipPath id="clip0_10_1494">
<rect width="24" height="24" fill="white"/>
</clipPath>
</defs>
</svg>
