<svg width="24" height="24" viewBox="0 0 24 24" fill="none" xmlns="http://www.w3.org/2000/svg">
<g clip-path="url(#clip0_10_1493)">
<path d="M6.67383 19.8809H17.3174C19.2246 19.8809 20.209 18.8965 20.209 17.0156V6.31934C20.209 4.43848 19.2246 3.4541 17.3174 3.4541H6.67383C4.77539 3.4541 3.78223 4.42969 3.78223 6.31934V17.0156C3.78223 18.8965 4.77539 19.8809 6.67383 19.8809ZM8.39648 6.64453C8.87988 6.64453 9.24023 6.92578 9.44238 7.30371C9.64453 6.92578 10.0137 6.64453 10.4707 6.64453C11.1914 6.64453 11.7275 7.20703 11.7275 7.98047C11.7275 9.17578 10.4355 10.2217 9.67969 10.6787C9.60059 10.7227 9.52148 10.7754 9.45117 10.7754C9.38965 10.7754 9.29297 10.7314 9.21387 10.6787C8.47559 10.1689 7.15723 9.17578 7.15723 7.98047C7.15723 7.20703 7.69336 6.64453 8.39648 6.64453ZM7.7373 13.3506C7.40332 13.3506 7.15723 13.0957 7.15723 12.7705C7.15723 12.4541 7.40332 12.2168 7.7373 12.2168H16.2627C16.5879 12.2168 16.834 12.4541 16.834 12.7705C16.834 13.0957 16.5879 13.3506 16.2627 13.3506H7.7373ZM7.7373 16.2773C7.40332 16.2773 7.15723 16.0312 7.15723 15.7148C7.15723 15.3984 7.40332 15.1436 7.7373 15.1436H14.0479C14.373 15.1436 14.6191 15.3984 14.6191 15.7148C14.6191 16.0312 14.373 16.2773 14.0479 16.2773H7.7373Z" fill="#1C1C1E"/>
</g>
<defs>
<clipPath id="clip0_10_1493">
<rect width="24" height="24" fill="white"/>
</clipPath>
</defs>
</svg>
