<svg width="24" height="24" viewBox="0 0 24 24" fill="none" xmlns="http://www.w3.org/2000/svg">
<g clip-path="url(#clip0_10_1497)">
<path d="M6.67383 19.8809H17.3174C19.2246 19.8809 20.209 18.8965 20.209 17.0156V6.31934C20.209 4.43848 19.2246 3.4541 17.3174 3.4541H6.67383C4.77539 3.4541 3.78223 4.42969 3.78223 6.31934V17.0156C3.78223 18.8965 4.77539 19.8809 6.67383 19.8809ZM6.78809 18.1318C5.97949 18.1318 5.53125 17.71 5.53125 16.8574V6.47754C5.53125 5.625 5.97949 5.20312 6.78809 5.20312H17.2031C18.0029 5.20312 18.46 5.625 18.46 6.47754V16.8574C18.46 17.71 18.0029 18.1318 17.2031 18.1318H6.78809ZM8.45801 6.72363C7.76367 6.72363 7.23633 7.27734 7.23633 8.0332C7.23633 9.20215 8.51953 10.1777 9.2666 10.6875C9.3457 10.749 9.43359 10.7842 9.49512 10.7842C9.55664 10.7842 9.63574 10.7402 9.71484 10.6875C10.4707 10.2393 11.7363 9.20215 11.7363 8.0332C11.7363 7.27734 11.209 6.72363 10.4971 6.72363C10.0488 6.72363 9.68848 6.99609 9.48633 7.37402C9.28418 6.99609 8.93262 6.72363 8.45801 6.72363ZM7.80762 13.3154H16.1924C16.5176 13.3154 16.7549 13.0693 16.7549 12.7529C16.7549 12.4453 16.5176 12.208 16.1924 12.208H7.80762C7.48242 12.208 7.23633 12.4453 7.23633 12.7529C7.23633 13.0693 7.48242 13.3154 7.80762 13.3154ZM7.80762 16.1982H14.0127C14.3291 16.1982 14.5664 15.9609 14.5664 15.6533C14.5664 15.3369 14.3291 15.082 14.0127 15.082H7.80762C7.48242 15.082 7.23633 15.3369 7.23633 15.6533C7.23633 15.9609 7.48242 16.1982 7.80762 16.1982Z" fill="#1C1C1E"/>
</g>
<defs>
<clipPath id="clip0_10_1497">
<rect width="24" height="24" fill="white"/>
</clipPath>
</defs>
</svg>
