<svg width="24" height="24" viewBox="0 0 24 24" fill="none" xmlns="http://www.w3.org/2000/svg">
<g clip-path="url(#clip0_10_1502)">
<path d="M11.9912 20.7422C16.9746 20.7422 21.0879 16.6289 21.0879 11.6543C21.0879 6.67969 16.9658 2.56641 11.9824 2.56641C7.00781 2.56641 2.90332 6.67969 2.90332 11.6543C2.90332 16.6289 7.0166 20.7422 11.9912 20.7422ZM9.82031 7.68164C10.8135 7.68164 11.5518 8.25293 11.9824 9.02637C12.4131 8.25293 13.1689 7.68164 14.1445 7.68164C15.6475 7.68164 16.7637 8.83301 16.7637 10.4502C16.7637 12.9463 14.0303 15.0908 12.4658 16.1016C12.3164 16.1982 12.1318 16.3213 12 16.3213C11.877 16.3213 11.666 16.1982 11.499 16.1016C9.92578 15.1084 7.20996 12.9463 7.20996 10.4502C7.20996 8.83301 8.32617 7.68164 9.82031 7.68164Z" fill="#1C1C1E"/>
</g>
<defs>
<clipPath id="clip0_10_1502">
<rect width="24" height="24" fill="white"/>
</clipPath>
</defs>
</svg>
