<svg width="24" height="24" viewBox="0 0 24 24" fill="none" xmlns="http://www.w3.org/2000/svg">
<g clip-path="url(#clip0_10_1500)">
<path d="M12.0879 12.1201L17.502 6.70605L14.8916 4.08691C13.2041 2.39941 10.998 2.36426 9.37207 3.98145C7.75488 5.58984 7.78125 7.81348 9.47754 9.50977L12.0879 12.1201ZM13.2656 13.3066L15.8848 15.9258C17.5811 17.6133 19.7783 17.6484 21.4131 16.0312C23.0303 14.4229 23.0039 12.1992 21.3076 10.5029L18.6885 7.88379L13.2656 13.3066ZM1.40039 15.3809H10.7959C10.4268 13.1396 8.4668 11.417 6.10254 11.417C3.72949 11.417 1.76953 13.1396 1.40039 15.3809ZM1.40039 16.9805C1.76953 19.2393 3.7207 20.9619 6.10254 20.9619C8.4668 20.9619 10.418 19.2305 10.7959 16.9805H1.40039Z" fill="#1C1C1E"/>
</g>
<defs>
<clipPath id="clip0_10_1500">
<rect width="24" height="24" fill="white"/>
</clipPath>
</defs>
</svg>
