<svg width="24" height="24" viewBox="0 0 24 24" fill="none" xmlns="http://www.w3.org/2000/svg">
<g clip-path="url(#clip0_10_1482)">
<path d="M21.5537 16.1631C23.2939 14.4404 23.2939 12.1025 21.5713 10.3799L15.0146 3.83203C13.292 2.10059 10.9805 2.10059 9.24023 3.84082C7.5 5.56348 7.5 7.89258 9.22266 9.61523L15.7793 16.1719C17.502 17.8945 19.8135 17.8945 21.5537 16.1631ZM10.585 8.45508C9.55664 7.42676 9.53027 6.09082 10.5059 5.10645C11.4814 4.13086 12.8262 4.16602 13.8457 5.18555L16.3857 7.72559L13.125 10.9951L10.585 8.45508ZM20.2881 14.8887C19.3125 15.873 17.9678 15.8379 16.9482 14.8096L14.3906 12.2607L17.6602 9L20.209 11.5488C21.2373 12.5771 21.2637 13.9131 20.2881 14.8887ZM6.12012 21.1641C8.8623 21.1641 11.0947 18.9229 11.0947 16.1719C11.0947 13.4385 8.8623 11.2148 6.12012 11.2148C3.36914 11.2148 1.13672 13.4385 1.13672 16.1719C1.13672 18.9316 3.36035 21.1641 6.12012 21.1641ZM6.12012 12.9727C7.59668 12.9727 8.83594 13.9658 9.22266 15.3105H3.01758C3.39551 13.9658 4.64355 12.9727 6.12012 12.9727ZM6.12012 19.3975C4.63477 19.3975 3.39551 18.4131 3.01758 17.0508H9.22266C8.83594 18.4043 7.59668 19.3975 6.12012 19.3975Z" fill="#1C1C1E"/>
</g>
<defs>
<clipPath id="clip0_10_1482">
<rect width="24" height="24" fill="white"/>
</clipPath>
</defs>
</svg>
