<svg width="24" height="24" viewBox="0 0 24 24" fill="none" xmlns="http://www.w3.org/2000/svg">
<g clip-path="url(#clip0_10_1479)">
<path d="M11.9912 20.7422C16.9746 20.7422 21.0879 16.6289 21.0879 11.6543C21.0879 6.67969 16.9658 2.56641 11.9824 2.56641C7.00781 2.56641 2.90332 6.67969 2.90332 11.6543C2.90332 16.6289 7.0166 20.7422 11.9912 20.7422ZM11.9912 18.9316C7.95703 18.9316 4.73145 15.6885 4.73145 11.6543C4.73145 7.62012 7.95703 4.38574 11.9824 4.38574C16.0166 4.38574 19.2598 7.62012 19.2686 11.6543C19.2773 15.6885 16.0254 18.9316 11.9912 18.9316ZM7.96582 9.41309C7.68457 9.95801 7.75488 10.2129 8.26465 10.4941L10.3389 11.6191L8.25586 12.8232C7.74609 13.1221 7.67578 13.3682 7.97461 13.9043L8.03613 14.0098C8.33496 14.5371 8.59863 14.6074 9.1084 14.3086L11.1035 13.1484V15.4775C11.0947 16.0664 11.2969 16.2598 11.9297 16.2598H12.0527C12.668 16.2598 12.8701 16.0664 12.8701 15.4688V13.1484L14.8652 14.3086C15.3926 14.625 15.6475 14.5459 15.9287 14.0098L15.9902 13.9043C16.2715 13.3594 16.2012 13.1045 15.7178 12.8232L13.626 11.6191L15.709 10.4941C16.2188 10.2129 16.2891 9.94922 16.0078 9.41309L15.9375 9.29883C15.6562 8.75391 15.3926 8.6748 14.8477 9L12.8701 10.1602V7.83984C12.8701 7.25977 12.668 7.06641 12.0527 7.06641H11.9297C11.2969 7.06641 11.1035 7.25977 11.1035 7.83984V10.1602L9.11719 9C8.57227 8.69238 8.30859 8.75391 8.03613 9.29883L7.96582 9.41309Z" fill="#1C1C1E"/>
</g>
<defs>
<clipPath id="clip0_10_1479">
<rect width="24" height="24" fill="white"/>
</clipPath>
</defs>
</svg>
