<svg width="24" height="24" viewBox="0 0 24 24" fill="none" xmlns="http://www.w3.org/2000/svg">
<g clip-path="url(#clip0_10_1481)">
<path d="M11.6045 21.085H12.3779C13.8457 21.085 14.5752 20.417 14.5752 19.0371V16.1191L17.0977 17.5869C17.5195 17.8242 17.915 17.9473 18.2666 17.9473C18.9346 17.9473 19.4971 17.5342 19.9717 16.708L20.3584 16.0312C20.6396 15.5479 20.7803 15.1084 20.7803 14.7129C20.7803 14.0625 20.4111 13.5264 19.6816 13.1045L17.1592 11.6543L19.6729 10.2041C20.4023 9.78223 20.7715 9.24609 20.7715 8.60449C20.7715 8.20898 20.6309 7.76953 20.3496 7.28613L19.9717 6.61816C19.4883 5.7832 18.917 5.37012 18.249 5.37012C17.8887 5.37012 17.5107 5.48438 17.0889 5.73047L14.5752 7.18066V4.28027C14.5752 2.90039 13.8457 2.23242 12.3779 2.23242H11.6045C10.1367 2.23242 9.41602 2.90039 9.41602 4.28027V7.18066L6.90234 5.73047C6.48926 5.48438 6.10254 5.37012 5.74219 5.37012C5.07422 5.37012 4.51172 5.7832 4.02832 6.61816L3.6416 7.28613C3.36035 7.76953 3.21973 8.20898 3.21973 8.60449C3.21973 9.24609 3.58887 9.78223 4.31836 10.2041L6.83203 11.6543L4.30957 13.1045C3.58008 13.5264 3.21094 14.0625 3.21094 14.7129C3.21094 15.1084 3.35156 15.5479 3.63281 16.0312L4.02832 16.708C4.50293 17.5342 5.06543 17.9473 5.72461 17.9473C6.08496 17.9473 6.48047 17.8242 6.89355 17.5869L9.41602 16.1191V19.0371C9.41602 20.417 10.1367 21.085 11.6045 21.085ZM11.8682 19.5908C11.1738 19.5908 10.9717 19.4062 10.9717 18.7471L10.9805 13.8252C10.9805 13.6846 10.8838 13.5879 10.7607 13.5879C10.708 13.5879 10.6641 13.5967 10.6201 13.623L6.38379 16.084C6.17285 16.207 5.99707 16.2686 5.84766 16.2686C5.60156 16.2686 5.41699 16.0928 5.20605 15.7236L5.07422 15.5039C4.94238 15.2578 4.86328 15.0732 4.86328 14.9062C4.86328 14.6689 5.0127 14.4932 5.35547 14.2998L9.66211 11.8213C9.75 11.7686 9.80273 11.6895 9.80273 11.6104C9.80273 11.5225 9.75 11.4434 9.65332 11.3906L5.36426 9.01758C5.02148 8.81543 4.87207 8.63965 4.87207 8.39355C4.87207 8.23535 4.94238 8.05078 5.07422 7.81348L5.20605 7.58496C5.41699 7.21582 5.61035 7.04004 5.85645 7.04004C6.00586 7.04004 6.18164 7.10156 6.39258 7.22461L10.6113 9.67676C10.6553 9.70312 10.6992 9.7207 10.752 9.7207C10.8838 9.7207 10.9805 9.61523 10.9805 9.46582L10.9717 4.58789C10.9717 3.91992 11.1738 3.73535 11.8682 3.73535H12.123C12.8174 3.73535 13.0195 3.91992 13.0195 4.58789L13.0107 9.46582C13.0107 9.61523 13.1074 9.7207 13.2393 9.7207C13.292 9.7207 13.3271 9.70312 13.3799 9.67676L17.5986 7.22461C17.8184 7.10156 17.9941 7.04004 18.1436 7.04004C18.3896 7.04004 18.5742 7.20703 18.7852 7.58496L18.917 7.81348C19.0576 8.05078 19.1279 8.24414 19.1279 8.40234C19.1279 8.63965 18.9697 8.81543 18.627 9.01758L14.3467 11.3906C14.25 11.4434 14.1973 11.5225 14.1973 11.6104C14.1973 11.6895 14.2412 11.7686 14.3291 11.8213L18.6357 14.2998C18.9785 14.4932 19.1367 14.6689 19.1367 14.9062C19.1367 15.0732 19.0576 15.2578 18.917 15.5039L18.7939 15.7236C18.5742 16.0928 18.3984 16.2686 18.1523 16.2686C17.9941 16.2686 17.8271 16.1982 17.6074 16.084L13.3711 13.623C13.3271 13.5967 13.2832 13.5879 13.2393 13.5879C13.1074 13.5879 13.0107 13.6846 13.0107 13.8252L13.0195 18.7471C13.0195 19.4062 12.8174 19.5908 12.123 19.5908H11.8682Z" fill="#1C1C1E"/>
</g>
<defs>
<clipPath id="clip0_10_1481">
<rect width="24" height="24" fill="white"/>
</clipPath>
</defs>
</svg>
