<svg width="24" height="24" viewBox="0 0 24 24" fill="none" xmlns="http://www.w3.org/2000/svg">
<g clip-path="url(#clip0_10_1480)">
<path d="M13.5205 18.7471L13.5117 14.2295L17.3789 16.4619C17.7217 16.6641 17.9854 16.7695 18.2139 16.7695C18.5742 16.7695 18.8467 16.5234 19.1982 15.9785L19.3389 15.75C19.5674 15.4072 19.6641 15.126 19.6641 14.8887C19.6641 14.4932 19.3828 14.2119 18.8555 13.9131L14.8301 11.6016L18.8467 9.4043C19.374 9.11426 19.6289 8.83301 19.6289 8.44629C19.6289 8.20898 19.5322 7.92773 19.3301 7.58496L19.1895 7.33887C18.8643 6.78516 18.583 6.53906 18.2139 6.53906C17.9766 6.53906 17.7041 6.64453 17.3701 6.83789L13.5117 9.0791L13.5205 4.58789C13.5205 3.55078 13.1602 3.27832 12.123 3.27832H11.8506C10.8135 3.27832 10.4531 3.55078 10.4619 4.58789V9.0791L6.60352 6.83789C6.26074 6.63574 5.9707 6.52148 5.71582 6.52148C5.34668 6.52148 5.03906 6.75879 4.75781 7.33008L4.63477 7.56738C4.45898 7.92773 4.3623 8.20898 4.3623 8.45508C4.3623 8.8418 4.6084 9.10547 5.14453 9.41309L9.14355 11.6016L5.11816 13.9131C4.59961 14.2119 4.33594 14.4844 4.33594 14.8623C4.33594 15.0996 4.4502 15.3896 4.65234 15.75L4.78418 15.9697C5.10059 16.5234 5.39062 16.7783 5.75977 16.7783C5.98828 16.7783 6.26074 16.6641 6.59473 16.4707L10.4619 14.2295L10.4531 18.7471C10.4531 19.7842 10.8135 20.0566 11.8506 20.0566H12.123C13.1602 20.0566 13.5205 19.7842 13.5205 18.7471Z" fill="#1C1C1E"/>
</g>
<defs>
<clipPath id="clip0_10_1480">
<rect width="24" height="24" fill="white"/>
</clipPath>
</defs>
</svg>
