<svg width="24" height="24" viewBox="0 0 24 24" fill="none" xmlns="http://www.w3.org/2000/svg">
<g clip-path="url(#clip0_10_1478)">
<path d="M11.9912 20.7598C16.9746 20.7598 21.0879 16.6465 21.0879 11.6631C21.0879 6.68848 16.9658 2.5752 11.9824 2.5752C7.00781 2.5752 2.90332 6.68848 2.90332 11.6631C2.90332 16.6465 7.0166 20.7598 11.9912 20.7598ZM7.80762 9.33398L7.87793 9.21094C8.16797 8.63965 8.44043 8.56934 9.01172 8.89453L11.0684 10.1074V7.69043C11.0684 7.08398 11.2793 6.88184 11.9297 6.88184H12.0615C12.7031 6.88184 12.9141 7.08398 12.9141 7.69043V10.1074L14.9707 8.89453C15.542 8.56055 15.8145 8.63965 16.1045 9.21094L16.1748 9.33398C16.4736 9.89648 16.3945 10.1689 15.8672 10.4502L13.7051 11.6279L15.876 12.8672C16.3857 13.166 16.4473 13.4297 16.1572 13.9922L16.0957 14.1064C15.8057 14.6777 15.5332 14.748 14.9795 14.4229L12.9141 13.21V15.627C12.9141 16.251 12.7031 16.4531 12.0615 16.4531H11.9297C11.2793 16.4531 11.0684 16.251 11.0684 15.627V13.21L8.99414 14.4229C8.4668 14.7393 8.19434 14.6689 7.87793 14.1064L7.81641 13.9922C7.5 13.4385 7.5791 13.1748 8.10645 12.8672L10.2686 11.6279L8.11523 10.4502C7.58789 10.1689 7.50879 9.89648 7.80762 9.33398Z" fill="#1C1C1E"/>
</g>
<defs>
<clipPath id="clip0_10_1478">
<rect width="24" height="24" fill="white"/>
</clipPath>
</defs>
</svg>
