<svg width="24" height="24" viewBox="0 0 24 24" fill="none" xmlns="http://www.w3.org/2000/svg">
<g clip-path="url(#clip0_10_1484)">
<path d="M6.35742 7.50586L4.83691 11.2236H1.58496V6.31934C1.58496 4.42969 2.57812 3.4541 4.47656 3.4541H19.5146C21.4219 3.4541 22.415 4.43848 22.415 6.31934V11.2236H18.7588C18.3809 11.2236 18.1699 11.4082 18.0469 11.7422L17.4932 13.2979L15.5771 7.48828C15.4014 6.94336 14.5928 6.94336 14.3643 7.50586L12.8438 11.2236H10.752C10.374 11.2236 10.1631 11.4082 10.04 11.7422L9.48633 13.2979L7.57031 7.48828C7.39453 6.94336 6.58594 6.94336 6.35742 7.50586ZM4.47656 19.8809C2.57812 19.8809 1.58496 18.8965 1.58496 17.0156V12.5068H5.10938C5.62793 12.5068 5.83008 12.3311 5.9707 11.9883L6.95508 9.57129L8.87988 15.75C9.04688 16.2949 9.92578 16.2861 10.1016 15.7236L11.1211 12.5068H13.2129C13.5908 12.5068 13.7842 12.3223 13.9248 11.9883L14.9619 9.57129L16.8867 15.75C17.0537 16.2949 17.9326 16.2861 18.1084 15.7236L19.1279 12.5068H22.415V17.0156C22.415 18.8965 21.4219 19.8809 19.5146 19.8809H4.47656Z" fill="#1C1C1E"/>
</g>
<defs>
<clipPath id="clip0_10_1484">
<rect width="24" height="24" fill="white"/>
</clipPath>
</defs>
</svg>
