<svg width="24" height="24" viewBox="0 0 24 24" fill="none" xmlns="http://www.w3.org/2000/svg">
<g clip-path="url(#clip0_10_1486)">
<path d="M4.47656 19.8809H19.5146C21.4219 19.8809 22.415 18.8965 22.415 17.0156V6.31934C22.415 4.43848 21.4219 3.4541 19.5146 3.4541H4.47656C2.57812 3.4541 1.58496 4.42969 1.58496 6.31934V17.0156C1.58496 18.8965 2.57812 19.8809 4.47656 19.8809ZM4.59082 18.1318C3.78223 18.1318 3.33398 17.71 3.33398 16.8574V6.47754C3.33398 5.625 3.78223 5.20312 4.59082 5.20312H19.4004C20.209 5.20312 20.6572 5.625 20.6572 6.47754V11.2412H18.5742C18.2051 11.2412 18.0029 11.417 17.8887 11.7422L17.335 13.2891L15.4541 7.57617C15.2783 7.05762 14.5137 7.05762 14.2852 7.60254L12.791 11.2412H10.8311C10.4619 11.2412 10.2598 11.417 10.1455 11.7422L9.5918 13.2891L7.71094 7.57617C7.54395 7.05762 6.77051 7.05762 6.54199 7.60254L5.05664 11.2412H3.34277V12.4717H5.45215C5.82129 12.4717 6.00586 12.2959 6.1377 11.9707L7.12207 9.58887L9.01172 15.6533C9.16992 16.1719 10.0137 16.1631 10.1895 15.627L11.1914 12.4717H13.1514C13.5205 12.4717 13.7051 12.2959 13.8369 11.9707L14.8652 9.58008L16.7549 15.6533C16.9131 16.1719 17.7568 16.1631 17.9238 15.627L18.9258 12.4717H20.6572V16.8574C20.6572 17.71 20.209 18.1318 19.4004 18.1318H4.59082Z" fill="#1C1C1E"/>
</g>
<defs>
<clipPath id="clip0_10_1486">
<rect width="24" height="24" fill="white"/>
</clipPath>
</defs>
</svg>
