<svg width="24" height="24" viewBox="0 0 24 24" fill="none" xmlns="http://www.w3.org/2000/svg">
<g clip-path="url(#clip0_10_1477)">
<path d="M3.82617 13.4648H7.72852C8.17676 13.4648 8.44922 13.2627 8.5459 12.8672L9.75 7.32129L11.9648 20.6807C12.0879 21.4277 13.2305 21.4189 13.3799 20.6895L15.5068 10.6523L15.9287 12.7881C16.0254 13.2451 16.2891 13.4648 16.7549 13.4648H20.1826C20.5869 13.4648 20.9121 13.1484 20.9121 12.7441C20.9121 12.3311 20.5957 12.0146 20.1826 12.0146H17.1328L16.1484 7.62012C15.9902 6.9082 14.918 6.9082 14.751 7.64648L12.668 16.9893L10.4443 3.48926C10.3301 2.75977 9.2666 2.74219 9.1084 3.48047L7.2627 12.0146H3.82617C3.41309 12.0146 3.08789 12.3398 3.08789 12.7441C3.08789 13.1484 3.41309 13.4648 3.82617 13.4648Z" fill="#1C1C1E"/>
</g>
<defs>
<clipPath id="clip0_10_1477">
<rect width="24" height="24" fill="white"/>
</clipPath>
</defs>
</svg>
