<svg width="24" height="24" viewBox="0 0 24 24" fill="none" xmlns="http://www.w3.org/2000/svg">
<g clip-path="url(#clip0_10_142)">
<path d="M14.4082 20.2939C19.1279 20.2939 23.0479 16.374 23.0479 11.6543C23.0479 6.93457 19.1191 3.00586 14.3906 3.00586C11.7188 3.00586 9.30176 4.27148 7.71094 6.22266C7.39453 6.16992 7.06055 6.14355 6.70898 6.14355C4.72266 6.14355 3.03516 7.05762 2.39355 8.41113C2.24414 8.69238 2.16504 8.99121 2.16504 9.2373C2.16504 9.74707 2.5166 10.0986 3.01758 10.0986C3.37793 10.0986 3.63281 9.94043 3.80859 9.61523C4.38867 8.3584 5.30273 7.83105 6.66504 7.83105C6.1377 8.89453 5.82129 10.0723 5.76855 11.3203C3.11426 11.5137 1.62012 12.7793 1.62012 14.7744C1.62012 16.8838 3.21973 18.3076 5.56641 18.3076C6.48047 18.3076 7.37695 18.0264 8.10645 17.5254C9.68848 19.2217 11.9385 20.2939 14.4082 20.2939ZM16.9131 9.24609C16.9131 7.09277 15.8057 5.51074 13.8809 4.79004C14.0479 4.77246 14.2236 4.77246 14.3906 4.77246C18.2227 4.77246 21.2812 7.82227 21.29 11.6543C21.2988 14.5986 19.4883 17.0771 16.9131 18.0703V9.24609ZM11.2529 6.33691C13.3975 6.33691 14.6543 7.49707 14.6543 9.45703V10.6523L10.2686 10.916C9.21387 10.9775 8.29102 11.1797 7.53516 11.5049C7.5791 9.50098 8.44922 7.7168 9.82031 6.49512C10.3564 6.38086 10.7695 6.33691 11.2529 6.33691ZM10.5234 12.709L14.6543 12.4453V13.8252C14.6543 15.8115 13.1074 17.3936 11.0156 17.6572C9.5127 16.8135 8.36133 15.416 7.84277 13.7285C8.48438 13.0957 9.37207 12.7881 10.5234 12.709ZM3.53613 14.7656C3.53613 13.7109 4.35352 13.0166 5.84766 12.8496C6.03223 14.1592 6.52441 15.3809 7.23633 16.4355C6.83203 16.585 6.40137 16.6641 5.93555 16.6641C4.50293 16.6641 3.53613 15.9082 3.53613 14.7656ZM14.4082 18.5361C14.1357 18.5361 13.8633 18.5186 13.5996 18.4922C14.1006 18.123 14.5049 17.6836 14.7598 17.209V18.5273C14.6455 18.5361 14.5225 18.5361 14.4082 18.5361Z" fill="#1C1C1E"/>
</g>
<defs>
<clipPath id="clip0_10_142">
<rect width="24" height="24" fill="white"/>
</clipPath>
</defs>
</svg>
