<svg width="24" height="24" viewBox="0 0 24 24" fill="none" xmlns="http://www.w3.org/2000/svg">
<g clip-path="url(#clip0_10_158)">
<path d="M-4.80469 18.29C-4.20703 18.29 -3.89062 18.0176 -3.69727 17.3848L-2.73926 14.6865H2.27051L3.22852 17.3848C3.42188 18.0176 3.73828 18.29 4.33594 18.29C4.96875 18.29 5.37305 17.8857 5.37305 17.2969C5.37305 17.0771 5.33789 16.8926 5.25 16.6465L1.38281 6.1875C1.11035 5.43164 0.600586 5.03613 -0.225586 5.03613C-1.0166 5.03613 -1.52637 5.43164 -1.79004 6.1875L-5.68359 16.6992C-5.77148 16.9277 -5.80664 17.1211 -5.80664 17.3145C-5.80664 17.9033 -5.42871 18.29 -4.80469 18.29ZM24.4189 18.2461C26.748 18.2461 28.5674 17.2441 29.4463 15.5918C29.6396 15.2227 29.7539 14.8359 29.7539 14.4668C29.7539 13.9219 29.3584 13.5352 28.7959 13.5352C28.3389 13.5352 28.0752 13.7109 27.8027 14.2471C27.2051 15.6533 26.0449 16.4092 24.4189 16.4092C22.0547 16.4092 20.5518 14.5898 20.5518 11.6104C20.5518 8.68359 22.0635 6.87305 24.4189 6.87305C25.9834 6.87305 27.2051 7.76953 27.8203 9.22852C28.084 9.73828 28.3652 9.94922 28.8486 9.94922C29.4111 9.94922 29.7979 9.57129 29.7979 9.02637C29.7979 8.75391 29.7363 8.45508 29.6133 8.14746C28.8926 6.24902 26.8271 5.03613 24.4189 5.03613C20.6748 5.03613 18.3369 7.5498 18.3369 11.6191C18.3369 15.7324 20.666 18.2461 24.4189 18.2461ZM8.02734 18.0352H12.4658C15.2959 18.0352 17.0361 16.6201 17.0361 14.4844C17.0361 12.7178 15.6914 11.4609 13.8721 11.2939V11.2324C15.3135 11.0127 16.377 9.80859 16.377 8.34961C16.377 6.52148 14.8125 5.25586 12.3779 5.25586H8.02734C7.36816 5.25586 6.94629 5.66016 6.94629 6.33691V16.9541C6.94629 17.6221 7.36816 18.0352 8.02734 18.0352ZM9.14355 10.6875V6.95215H11.833C13.3184 6.95215 14.2061 7.65527 14.2061 8.70117C14.2061 9.94922 13.2217 10.6875 11.5518 10.6875H9.14355ZM-2.23828 13.0254L-0.269531 7.33008H-0.208008L1.76074 13.0254H-2.23828ZM9.14355 16.3477V12.208H11.8418C13.7314 12.208 14.7861 12.9639 14.7861 14.3262C14.7861 15.583 13.7666 16.3477 11.9473 16.3477H9.14355Z" fill="#1C1C1E"/>
</g>
<defs>
<clipPath id="clip0_10_158">
<rect width="24" height="24" fill="white"/>
</clipPath>
</defs>
</svg>
