<svg width="24" height="24" viewBox="0 0 24 24" fill="none" xmlns="http://www.w3.org/2000/svg">
<g clip-path="url(#clip0_10_148)">
<path d="M18.7324 18.2549C21.9844 18.2549 24.0322 16.3477 24.0322 13.5352V6.09961C24.0322 5.47559 23.6191 5.08887 22.9863 5.08887C22.3623 5.08887 21.9668 5.47559 21.9668 6.09961V13.3418C21.9668 15.2051 20.7803 16.4355 18.7324 16.4355C16.6934 16.4355 15.498 15.2051 15.498 13.3418V6.09961C15.498 5.47559 15.085 5.08887 14.4609 5.08887C13.8369 5.08887 13.4414 5.47559 13.4414 6.09961V13.5352C13.4414 16.3477 15.4805 18.2549 18.7324 18.2549ZM1.54102 18.0264H6.19043C8.92383 18.0264 10.6641 16.585 10.6641 14.3789C10.6641 12.6475 9.37207 11.3906 7.57031 11.3027V11.2236C9.05566 11.0303 10.084 9.91406 10.084 8.49023C10.084 6.50391 8.55469 5.29102 6.0498 5.29102H1.54102C0.547852 5.29102 -0.0410156 5.87109 -0.0410156 6.88184V16.4355C-0.0410156 17.4463 0.547852 18.0264 1.54102 18.0264ZM3.14941 10.5469V7.4707H5.03906C6.23438 7.4707 6.94629 8.02441 6.94629 8.96484C6.94629 9.94922 6.16406 10.5469 4.8457 10.5469H3.14941ZM3.14941 15.873V12.4453H5.10059C6.58594 12.4453 7.4209 13.043 7.4209 14.1416C7.4209 15.2666 6.65625 15.873 5.18848 15.873H3.14941ZM14.0654 21.0586H23.3906C23.751 21.0586 24.0322 20.7949 24.0322 20.4346C24.0322 20.0742 23.751 19.8105 23.3906 19.8105H14.0654C13.7227 19.8105 13.4414 20.0742 13.4414 20.4346C13.4414 20.7949 13.7227 21.0586 14.0654 21.0586Z" fill="#1C1C1E"/>
</g>
<defs>
<clipPath id="clip0_10_148">
<rect width="24" height="24" fill="white"/>
</clipPath>
</defs>
</svg>
