<svg width="24" height="24" viewBox="0 0 24 24" fill="none" xmlns="http://www.w3.org/2000/svg">
<g clip-path="url(#clip0_10_155)">
<path d="M8.22949 18.0264H12.8789C15.6123 18.0264 17.3525 16.585 17.3525 14.3789C17.3525 12.6475 16.0605 11.3906 14.2588 11.3027V11.2236C15.7441 11.0303 16.7725 9.91406 16.7725 8.49023C16.7725 6.50391 15.2432 5.29102 12.7383 5.29102H8.22949C7.23633 5.29102 6.64746 5.87109 6.64746 6.88184V16.4355C6.64746 17.4463 7.23633 18.0264 8.22949 18.0264ZM9.83789 10.5469V7.4707H11.7275C12.9229 7.4707 13.6348 8.02441 13.6348 8.96484C13.6348 9.94922 12.8525 10.5469 11.5342 10.5469H9.83789ZM9.83789 15.873V12.4453H11.7891C13.2744 12.4453 14.1094 13.043 14.1094 14.1416C14.1094 15.2666 13.3447 15.873 11.877 15.873H9.83789Z" fill="#1C1C1E"/>
</g>
<defs>
<clipPath id="clip0_10_155">
<rect width="24" height="24" fill="white"/>
</clipPath>
</defs>
</svg>
