<svg width="24" height="24" viewBox="0 0 24 24" fill="none" xmlns="http://www.w3.org/2000/svg">
<g clip-path="url(#clip0_10_149)">
<path d="M23.9531 18.2549C27.2139 18.2549 29.2529 16.3477 29.2529 13.5352V6.09961C29.2529 5.47559 28.8486 5.08887 28.2158 5.08887C27.5918 5.08887 27.1963 5.47559 27.1963 6.09961V13.3418C27.1963 15.2051 26.001 16.4355 23.9531 16.4355C21.9141 16.4355 20.7275 15.2051 20.7275 13.3418V6.09961C20.7275 5.47559 20.3145 5.08887 19.6904 5.08887C19.0664 5.08887 18.6709 5.47559 18.6709 6.09961V13.5352C18.6709 16.3477 20.71 18.2549 23.9531 18.2549ZM7.59668 18.0264H13.2217C13.7314 18.0264 14.0918 17.7188 14.0918 17.2002C14.0918 16.708 13.749 16.4004 13.2217 16.4004H11.4375L13.4766 6.91699H15.2607C15.7793 6.91699 16.1309 6.60938 16.1309 6.09961C16.1309 5.59863 15.7881 5.29102 15.2695 5.29102H9.62695C9.1084 5.29102 8.75684 5.59863 8.75684 6.09961C8.75684 6.60938 9.11719 6.91699 9.63574 6.91699H11.4199L9.38086 16.4004H7.58789C7.06934 16.4004 6.71777 16.708 6.71777 17.2002C6.71777 17.7188 7.07812 18.0264 7.59668 18.0264ZM-3.6709 18.0264H0.978516C3.71191 18.0264 5.45215 16.585 5.45215 14.3789C5.45215 12.6475 4.16016 11.3906 2.3584 11.3027V11.2236C3.84375 11.0303 4.87207 9.91406 4.87207 8.49023C4.87207 6.50391 3.34277 5.29102 0.837891 5.29102H-3.6709C-4.66406 5.29102 -5.25293 5.87109 -5.25293 6.88184V16.4355C-5.25293 17.4463 -4.66406 18.0264 -3.6709 18.0264ZM-2.0625 10.5469V7.4707H-0.172852C1.02246 7.4707 1.73438 8.02441 1.73438 8.96484C1.73438 9.94922 0.952148 10.5469 -0.366211 10.5469H-2.0625ZM-2.0625 15.873V12.4453H-0.111328C1.37402 12.4453 2.20898 13.043 2.20898 14.1416C2.20898 15.2666 1.44434 15.873 -0.0234375 15.873H-2.0625ZM19.2949 21.0586H28.6201C28.9805 21.0586 29.2529 20.7949 29.2529 20.4346C29.2529 20.0742 28.9805 19.8105 28.6201 19.8105H19.2949C18.9434 19.8105 18.6621 20.0742 18.6621 20.4346C18.6621 20.7949 18.9434 21.0586 19.2949 21.0586Z" fill="#1C1C1E"/>
</g>
<defs>
<clipPath id="clip0_10_149">
<rect width="24" height="24" fill="white"/>
</clipPath>
</defs>
</svg>
