<svg width="24" height="24" viewBox="0 0 24 24" fill="none" xmlns="http://www.w3.org/2000/svg">
<g clip-path="url(#clip0_10_159)">
<path d="M7.41211 18.2373C8.00977 18.2373 8.32617 17.9912 8.51953 17.3584L9.47754 14.6514H14.4873L15.4453 17.3584C15.6387 17.9912 15.9551 18.2373 16.5527 18.2373C17.1855 18.2373 17.5898 17.8594 17.5898 17.2705C17.5898 17.0508 17.5547 16.8662 17.4668 16.6201L13.5996 6.16113C13.3271 5.39648 12.8174 5.03613 11.9912 5.03613C11.2002 5.03613 10.6904 5.39648 10.4268 6.15234L6.5332 16.6729C6.44531 16.9014 6.41016 17.0947 6.41016 17.2881C6.41016 17.877 6.78809 18.2373 7.41211 18.2373ZM9.9873 12.999L11.9648 7.30371H12.0176L13.9951 12.999H9.9873Z" fill="#1C1C1E"/>
</g>
<defs>
<clipPath id="clip0_10_159">
<rect width="24" height="24" fill="white"/>
</clipPath>
</defs>
</svg>
