<svg width="24" height="24" viewBox="0 0 24 24" fill="none" xmlns="http://www.w3.org/2000/svg">
<g clip-path="url(#clip0_10_170)">
<path d="M13.6084 5.48438C14.0566 5.48438 14.4082 5.11523 14.4082 4.67578C14.4082 4.22754 14.0566 3.86719 13.6084 3.86719H2.27051C1.82227 3.86719 1.46191 4.21875 1.46191 4.67578C1.46191 5.11523 1.82227 5.48438 2.27051 5.48438H13.6084ZM13.6084 10.0898C14.0566 10.0898 14.4082 9.7207 14.4082 9.28125C14.4082 8.83301 14.0566 8.47266 13.6084 8.47266H2.27051C1.82227 8.47266 1.46191 8.82422 1.46191 9.28125C1.46191 9.7207 1.82227 10.0898 2.27051 10.0898H13.6084ZM21.0879 14.4668C21.7646 14.9238 22.5381 14.6689 22.5381 13.8428V9.45703C22.5381 8.60449 21.7998 8.34082 21.0879 8.82422L18.0381 10.9072C17.502 11.2676 17.4844 12.0498 18.0381 12.4189L21.0879 14.4668ZM13.6084 14.6953C14.0566 14.6953 14.4082 14.3262 14.4082 13.8867C14.4082 13.4385 14.0566 13.0781 13.6084 13.0781H2.27051C1.82227 13.0781 1.46191 13.4385 1.46191 13.8867C1.46191 14.3262 1.82227 14.6953 2.27051 14.6953H13.6084ZM8.91504 19.3008C9.36328 19.3008 9.71484 18.9316 9.71484 18.4922C9.71484 18.0439 9.36328 17.6836 8.91504 17.6836H2.27051C1.82227 17.6836 1.46191 18.0439 1.46191 18.4922C1.46191 18.9316 1.82227 19.3008 2.27051 19.3008H8.91504Z" fill="#1C1C1E"/>
</g>
<defs>
<clipPath id="clip0_10_170">
<rect width="24" height="24" fill="white"/>
</clipPath>
</defs>
</svg>
