<svg width="24" height="24" viewBox="0 0 24 24" fill="none" xmlns="http://www.w3.org/2000/svg">
<g clip-path="url(#clip0_10_179)">
<path d="M3.50977 19.9248C3.95801 19.9248 4.31836 19.5645 4.31836 19.1162V4.14844C4.31836 3.7002 3.95801 3.34863 3.50977 3.34863C3.07031 3.34863 2.70117 3.7002 2.70117 4.14844V19.1162C2.70117 19.5645 3.07031 19.9248 3.50977 19.9248ZM7.93945 19.9248C8.3877 19.9248 8.74805 19.5645 8.74805 19.1162V4.14844C8.74805 3.7002 8.3877 3.34863 7.93945 3.34863C7.5 3.34863 7.13086 3.7002 7.13086 4.14844V19.1162C7.13086 19.5645 7.5 19.9248 7.93945 19.9248ZM12.3691 19.9248C12.8174 19.9248 13.1777 19.5645 13.1777 19.1162V4.14844C13.1777 3.7002 12.8086 3.34863 12.3691 3.34863C11.9297 3.34863 11.5605 3.7002 11.5605 4.14844V19.1162C11.5605 19.5645 11.9209 19.9248 12.3691 19.9248ZM17.8096 14.4668L20.8594 12.4189C21.4131 12.0498 21.3867 11.2764 20.8594 10.9072L17.8096 8.82422C17.0977 8.34082 16.3506 8.60449 16.3594 9.45703V13.8428C16.3506 14.6689 17.1328 14.915 17.8096 14.4668Z" fill="#1C1C1E"/>
</g>
<defs>
<clipPath id="clip0_10_179">
<rect width="24" height="24" fill="white"/>
</clipPath>
</defs>
</svg>
