<svg width="24" height="24" viewBox="0 0 24 24" fill="none" xmlns="http://www.w3.org/2000/svg">
<g clip-path="url(#clip0_10_171)">
<path d="M10.3916 5.48438H21.7295C22.1777 5.48438 22.5381 5.11523 22.5381 4.67578C22.5381 4.21875 22.1777 3.86719 21.7295 3.86719H10.3916C9.94336 3.86719 9.5918 4.22754 9.5918 4.67578C9.5918 5.11523 9.94336 5.48438 10.3916 5.48438ZM10.3916 10.0898H21.7295C22.1777 10.0898 22.5381 9.7207 22.5381 9.28125C22.5381 8.82422 22.1777 8.47266 21.7295 8.47266H10.3916C9.94336 8.47266 9.5918 8.83301 9.5918 9.28125C9.5918 9.7207 9.94336 10.0898 10.3916 10.0898ZM2.96484 14.4668L6.02344 12.4189C6.57715 12.0498 6.55078 11.2764 6.02344 10.9072L2.96484 8.82422C2.26172 8.34082 1.51465 8.60449 1.52344 9.45703V13.8428C1.51465 14.6689 2.28809 14.915 2.96484 14.4668ZM10.3916 14.6953H21.7295C22.1777 14.6953 22.5381 14.3262 22.5381 13.8867C22.5381 13.4385 22.1777 13.0781 21.7295 13.0781H10.3916C9.94336 13.0781 9.5918 13.4385 9.5918 13.8867C9.5918 14.3262 9.94336 14.6953 10.3916 14.6953ZM10.3916 19.3008H17.0361C17.4844 19.3008 17.8447 18.9316 17.8447 18.4922C17.8447 18.0439 17.4844 17.6836 17.0361 17.6836H10.3916C9.94336 17.6836 9.5918 18.0439 9.5918 18.4922C9.5918 18.9316 9.94336 19.3008 10.3916 19.3008Z" fill="#1C1C1E"/>
</g>
<defs>
<clipPath id="clip0_10_171">
<rect width="24" height="24" fill="white"/>
</clipPath>
</defs>
</svg>
