<svg width="24" height="24" viewBox="0 0 24 24" fill="none" xmlns="http://www.w3.org/2000/svg">
<g clip-path="url(#clip0_10_154)">
<path d="M8.16797 18.0264H13.793C14.3115 18.0264 14.6631 17.7188 14.6631 17.2002C14.6631 16.708 14.3203 16.4004 13.8018 16.4004H12.0088L14.0479 6.91699H15.832C16.3506 6.91699 16.7109 6.60938 16.7109 6.09961C16.7109 5.59863 16.3594 5.29102 15.8408 5.29102H10.1982C9.67969 5.29102 9.32812 5.59863 9.32812 6.09961C9.32812 6.60938 9.68848 6.91699 10.207 6.91699H11.9912L9.95215 16.4004H8.15918C7.64062 16.4004 7.28906 16.708 7.28906 17.2002C7.28906 17.7188 7.64941 18.0264 8.16797 18.0264Z" fill="#1C1C1E"/>
</g>
<defs>
<clipPath id="clip0_10_154">
<rect width="24" height="24" fill="white"/>
</clipPath>
</defs>
</svg>
