<svg width="24" height="24" viewBox="0 0 24 24" fill="none" xmlns="http://www.w3.org/2000/svg">
<g clip-path="url(#clip0_10_175)">
<path d="M1.91895 7.50586C2.61328 7.50586 3.16699 6.95215 3.16699 6.25781C3.16699 5.57227 2.61328 5.00977 1.91895 5.00977C1.2334 5.00977 0.670898 5.57227 0.670898 6.25781C0.670898 6.95215 1.2334 7.50586 1.91895 7.50586ZM6.0498 7.10156H17.9854C18.46 7.10156 18.8379 6.73242 18.8379 6.25781C18.8379 5.7832 18.4688 5.41406 17.9854 5.41406H6.0498C5.58398 5.41406 5.20605 5.7832 5.20605 6.25781C5.20605 6.73242 5.5752 7.10156 6.0498 7.10156ZM4.16895 12.9111C4.85449 12.9111 5.41699 12.3574 5.41699 11.6631C5.41699 10.9775 4.85449 10.415 4.16895 10.415C3.47461 10.415 2.91211 10.9775 2.91211 11.6631C2.91211 12.3574 3.47461 12.9111 4.16895 12.9111ZM8.2998 12.5068H20.2354C20.71 12.5068 21.0791 12.1377 21.0791 11.6631C21.0791 11.1885 20.71 10.8193 20.2354 10.8193H8.2998C7.8252 10.8193 7.45605 11.1885 7.45605 11.6631C7.45605 12.1377 7.8252 12.5068 8.2998 12.5068ZM6.41016 18.3164C7.10449 18.3164 7.6582 17.7627 7.6582 17.0684C7.6582 16.3828 7.10449 15.8203 6.41016 15.8203C5.72461 15.8203 5.16211 16.3828 5.16211 17.0684C5.16211 17.7627 5.72461 18.3164 6.41016 18.3164ZM10.541 17.9121H22.4766C22.9512 17.9121 23.3203 17.543 23.3203 17.0684C23.3203 16.5938 22.9512 16.2246 22.4766 16.2246H10.541C10.0664 16.2246 9.69727 16.5938 9.69727 17.0684C9.69727 17.543 10.0664 17.9121 10.541 17.9121Z" fill="#1C1C1E"/>
</g>
<defs>
<clipPath id="clip0_10_175">
<rect width="24" height="24" fill="white"/>
</clipPath>
</defs>
</svg>
