<svg width="24" height="24" viewBox="0 0 24 24" fill="none" xmlns="http://www.w3.org/2000/svg">
<g clip-path="url(#clip0_10_172)">
<path d="M4.01953 7.7959L4.74902 7.25977L5.46094 7.7959C5.75977 8.01562 6.10254 7.77832 5.98828 7.44434L5.69824 6.56543L6.41895 6.0293C6.69141 5.82715 6.57715 5.44043 6.24316 5.44043H5.34668L5.04785 4.5C4.95117 4.20996 4.54688 4.20996 4.4502 4.5L4.15137 5.44043H3.24609C2.90332 5.44043 2.78906 5.82715 3.06152 6.0293L3.79102 6.56543L3.50977 7.44434C3.39551 7.77832 3.72949 8.01562 4.01953 7.7959ZM9.19629 7.10156H20.2354C20.71 7.10156 21.0791 6.73242 21.0791 6.25781C21.0791 5.7832 20.71 5.41406 20.2354 5.41406H9.19629C8.72168 5.41406 8.35254 5.7832 8.35254 6.25781C8.35254 6.73242 8.72168 7.10156 9.19629 7.10156ZM4.01953 13.1924L4.74902 12.6562L5.46094 13.1924C5.75977 13.4209 6.10254 13.1748 5.98828 12.8408L5.69824 11.9619L6.41895 11.4258C6.69141 11.2236 6.57715 10.8369 6.24316 10.8369H5.34668L5.04785 9.89648C4.95117 9.60645 4.54688 9.60645 4.4502 9.89648L4.15137 10.8369H3.24609C2.90332 10.8369 2.78906 11.2236 3.06152 11.4258L3.79102 11.9619L3.50977 12.8408C3.39551 13.1748 3.72949 13.4121 4.01953 13.1924ZM9.19629 12.5068H20.2354C20.71 12.5068 21.0791 12.1377 21.0791 11.6631C21.0791 11.1885 20.71 10.8193 20.2354 10.8193H9.19629C8.72168 10.8193 8.35254 11.1885 8.35254 11.6631C8.35254 12.1377 8.72168 12.5068 9.19629 12.5068ZM4.01953 18.6064L4.74902 18.0703L5.46094 18.6064C5.75977 18.835 6.10254 18.5889 5.98828 18.2549L5.69824 17.376L6.41895 16.8398C6.69141 16.6377 6.57715 16.251 6.24316 16.251H5.34668L5.04785 15.3105C4.95117 15.0205 4.54688 15.0205 4.4502 15.3105L4.15137 16.251H3.24609C2.90332 16.251 2.78906 16.6377 3.06152 16.8398L3.79102 17.376L3.50977 18.2549C3.39551 18.5889 3.72949 18.8262 4.01953 18.6064ZM9.19629 17.9121H20.2354C20.71 17.9121 21.0791 17.543 21.0791 17.0684C21.0791 16.5938 20.71 16.2246 20.2354 16.2246H9.19629C8.72168 16.2246 8.35254 16.5938 8.35254 17.0684C8.35254 17.543 8.72168 17.9121 9.19629 17.9121Z" fill="#1C1C1E"/>
</g>
<defs>
<clipPath id="clip0_10_172">
<rect width="24" height="24" fill="white"/>
</clipPath>
</defs>
</svg>
