<svg width="24" height="24" viewBox="0 0 24 24" fill="none" xmlns="http://www.w3.org/2000/svg">
<g clip-path="url(#clip0_10_173)">
<path d="M4.88086 8.12109C5.24121 8.12109 5.4873 7.92773 5.4873 7.48828V4.63184C5.4873 4.23633 5.20605 3.99023 4.80176 3.99023C4.47656 3.99023 4.27441 4.10449 4.03711 4.25391L3.41309 4.68457C3.21973 4.80762 3.13184 4.93066 3.13184 5.13281C3.13184 5.37891 3.31641 5.5459 3.52734 5.53711C3.6416 5.53711 3.70312 5.51953 3.85254 5.41406L4.24805 5.15039H4.26562V7.48828C4.26562 7.92773 4.51172 8.12109 4.88086 8.12109ZM8.63379 7.10156H20.2266C20.7012 7.10156 21.0791 6.73242 21.0791 6.25781C21.0791 5.7832 20.71 5.41406 20.2266 5.41406H8.63379C8.15918 5.41406 7.79004 5.7832 7.79004 6.25781C7.79004 6.73242 8.15918 7.10156 8.63379 7.10156ZM3.43945 13.5088H5.75098C6.00586 13.5088 6.20801 13.333 6.20801 13.0605C6.20801 12.7793 6.01465 12.6035 5.75098 12.6035H4.51172V12.5859L5.22363 12.0146C5.83008 11.5225 6.08496 11.2412 6.08496 10.7051C6.08496 9.97559 5.46973 9.49219 4.48535 9.49219C3.61523 9.49219 2.99121 9.93164 2.99121 10.5029C2.99121 10.8018 3.18457 10.96 3.50098 10.96C3.70312 10.96 3.85254 10.8896 3.98438 10.6963C4.11621 10.4941 4.27441 10.3887 4.50293 10.3887C4.74902 10.3887 4.9248 10.5469 4.9248 10.7842C4.9248 10.9951 4.81934 11.1621 4.3623 11.54L3.19336 12.4893C3.01758 12.6387 2.93848 12.7969 2.93848 13.0078C2.93848 13.2979 3.13184 13.5088 3.43945 13.5088ZM8.63379 12.5068H20.2266C20.7012 12.5068 21.0791 12.1377 21.0791 11.6631C21.0791 11.1885 20.71 10.8193 20.2266 10.8193H8.63379C8.15918 10.8193 7.79004 11.1885 7.79004 11.6631C7.79004 12.1377 8.15918 12.5068 8.63379 12.5068ZM4.50293 19.0547C5.59277 19.0547 6.22559 18.5801 6.22559 17.8242C6.22559 17.3232 5.88281 16.9893 5.25879 16.9365V16.9102C5.70703 16.8223 6.06738 16.5146 6.06738 15.9961C6.06738 15.3018 5.38184 14.9326 4.49414 14.9326C3.79102 14.9326 3.00879 15.249 3.00879 15.8555C3.00879 16.1191 3.20215 16.3037 3.4834 16.3037C3.68555 16.3037 3.78223 16.2246 3.90527 16.0928C4.11621 15.873 4.2832 15.8115 4.49414 15.8115C4.75781 15.8115 4.95117 15.9346 4.95117 16.1895C4.95117 16.4268 4.75781 16.5498 4.40625 16.5498H4.29199C4.0459 16.5498 3.87891 16.6816 3.87891 16.9541C3.87891 17.209 4.03711 17.3496 4.29199 17.3496H4.41504C4.79297 17.3496 4.99512 17.4727 5.00391 17.7363C5.00391 17.9736 4.78418 18.1318 4.50293 18.1318C4.18652 18.1318 3.9668 17.9561 3.7998 17.8066C3.69434 17.71 3.59766 17.6309 3.43066 17.6309C3.12305 17.6309 2.91211 17.8066 2.91211 18.1055C2.91211 18.7119 3.75586 19.0547 4.50293 19.0547ZM8.63379 17.9121H20.2266C20.7012 17.9121 21.0791 17.543 21.0791 17.0684C21.0791 16.5938 20.71 16.2246 20.2266 16.2246H8.63379C8.15918 16.2246 7.79004 16.5938 7.79004 17.0684C7.79004 17.543 8.15918 17.9121 8.63379 17.9121Z" fill="#1C1C1E"/>
</g>
<defs>
<clipPath id="clip0_10_173">
<rect width="24" height="24" fill="white"/>
</clipPath>
</defs>
</svg>
