<svg width="24" height="24" viewBox="0 0 24 24" fill="none" xmlns="http://www.w3.org/2000/svg">
<g clip-path="url(#clip0_10_178)">
<path d="M3.90527 7.25977H5.41699C5.96191 7.25977 6.41895 6.81152 6.41895 6.25781C6.41895 5.7041 5.96191 5.25586 5.41699 5.25586H3.90527C3.36035 5.25586 2.91211 5.7041 2.91211 6.25781C2.91211 6.81152 3.36035 7.25977 3.90527 7.25977ZM9.13477 7.10156H20.2266C20.7012 7.10156 21.0791 6.73242 21.0791 6.25781C21.0791 5.7832 20.71 5.41406 20.2266 5.41406H9.13477C8.66016 5.41406 8.29102 5.7832 8.29102 6.25781C8.29102 6.73242 8.66016 7.10156 9.13477 7.10156ZM3.90527 12.665H5.41699C5.96191 12.665 6.41895 12.2168 6.41895 11.6631C6.41895 11.1094 5.96191 10.6611 5.41699 10.6611H3.90527C3.36035 10.6611 2.91211 11.1094 2.91211 11.6631C2.91211 12.2168 3.36035 12.665 3.90527 12.665ZM9.13477 12.5068H20.2266C20.7012 12.5068 21.0791 12.1377 21.0791 11.6631C21.0791 11.1885 20.71 10.8193 20.2266 10.8193H9.13477C8.66016 10.8193 8.29102 11.1885 8.29102 11.6631C8.29102 12.1377 8.66016 12.5068 9.13477 12.5068ZM3.90527 18.0703H5.41699C5.96191 18.0703 6.41895 17.6221 6.41895 17.0684C6.41895 16.5146 5.96191 16.0664 5.41699 16.0664H3.90527C3.36035 16.0664 2.91211 16.5146 2.91211 17.0684C2.91211 17.6221 3.36035 18.0703 3.90527 18.0703ZM9.13477 17.9121H20.2266C20.7012 17.9121 21.0791 17.543 21.0791 17.0684C21.0791 16.5938 20.71 16.2246 20.2266 16.2246H9.13477C8.66016 16.2246 8.29102 16.5938 8.29102 17.0684C8.29102 17.543 8.66016 17.9121 9.13477 17.9121Z" fill="#1C1C1E"/>
</g>
<defs>
<clipPath id="clip0_10_178">
<rect width="24" height="24" fill="white"/>
</clipPath>
</defs>
</svg>
