<svg width="24" height="24" viewBox="0 0 24 24" fill="none" xmlns="http://www.w3.org/2000/svg">
<g clip-path="url(#clip0_10_174)">
<path d="M3.77344 7.72559L5.45215 6.74121C5.79492 6.53027 5.78613 6.02051 5.45215 5.82715L3.77344 4.80762C3.35156 4.56152 2.91211 4.71094 2.91211 5.20312V7.34766C2.91211 7.82227 3.35156 7.97168 3.77344 7.72559ZM8.90625 7.10156H20.2266C20.7012 7.10156 21.0791 6.73242 21.0791 6.25781C21.0791 5.7832 20.71 5.41406 20.2266 5.41406H8.90625C8.44043 5.41406 8.0625 5.7832 8.0625 6.25781C8.0625 6.73242 8.43164 7.10156 8.90625 7.10156ZM3.77344 13.1221L5.45215 12.1289C5.79492 11.9268 5.78613 11.417 5.45215 11.2148L3.77344 10.2041C3.35156 9.94922 2.91211 10.0986 2.91211 10.5908V12.7354C2.91211 13.21 3.35156 13.3594 3.77344 13.1221ZM8.90625 12.5068H20.2266C20.7012 12.5068 21.0791 12.1377 21.0791 11.6631C21.0791 11.1885 20.71 10.8193 20.2266 10.8193H8.90625C8.44043 10.8193 8.0625 11.1885 8.0625 11.6631C8.0625 12.1377 8.43164 12.5068 8.90625 12.5068ZM3.77344 18.5361L5.45215 17.5518C5.79492 17.3408 5.78613 16.8311 5.45215 16.6377L3.77344 15.6182C3.35156 15.3721 2.91211 15.5215 2.91211 16.0137V18.1494C2.91211 18.6328 3.35156 18.7822 3.77344 18.5361ZM8.90625 17.9121H20.2266C20.7012 17.9121 21.0791 17.543 21.0791 17.0684C21.0791 16.5938 20.71 16.2246 20.2266 16.2246H8.90625C8.44043 16.2246 8.0625 16.5938 8.0625 17.0684C8.0625 17.543 8.43164 17.9121 8.90625 17.9121Z" fill="#1C1C1E"/>
</g>
<defs>
<clipPath id="clip0_10_174">
<rect width="24" height="24" fill="white"/>
</clipPath>
</defs>
</svg>
