<svg width="24" height="24" viewBox="0 0 24 24" fill="none" xmlns="http://www.w3.org/2000/svg">
<g clip-path="url(#clip0_10_177)">
<path d="M4.16016 7.50586C4.85449 7.50586 5.4082 6.95215 5.4082 6.25781C5.4082 5.57227 4.85449 5.00977 4.16016 5.00977C3.47461 5.00977 2.91211 5.57227 2.91211 6.25781C2.91211 6.95215 3.47461 7.50586 4.16016 7.50586ZM8.29102 7.10156H20.2266C20.7012 7.10156 21.0791 6.73242 21.0791 6.25781C21.0791 5.7832 20.71 5.41406 20.2266 5.41406H8.29102C7.8252 5.41406 7.44727 5.7832 7.44727 6.25781C7.44727 6.73242 7.81641 7.10156 8.29102 7.10156ZM4.16016 12.9111C4.85449 12.9111 5.4082 12.3574 5.4082 11.6631C5.4082 10.9775 4.85449 10.415 4.16016 10.415C3.47461 10.415 2.91211 10.9775 2.91211 11.6631C2.91211 12.3574 3.47461 12.9111 4.16016 12.9111ZM8.29102 12.5068H20.2266C20.7012 12.5068 21.0791 12.1377 21.0791 11.6631C21.0791 11.1885 20.71 10.8193 20.2266 10.8193H8.29102C7.8252 10.8193 7.44727 11.1885 7.44727 11.6631C7.44727 12.1377 7.81641 12.5068 8.29102 12.5068ZM4.16016 18.3164C4.85449 18.3164 5.4082 17.7627 5.4082 17.0684C5.4082 16.3828 4.85449 15.8203 4.16016 15.8203C3.47461 15.8203 2.91211 16.3828 2.91211 17.0684C2.91211 17.7627 3.47461 18.3164 4.16016 18.3164ZM8.29102 17.9121H20.2266C20.7012 17.9121 21.0791 17.543 21.0791 17.0684C21.0791 16.5938 20.71 16.2246 20.2266 16.2246H8.29102C7.8252 16.2246 7.44727 16.5938 7.44727 17.0684C7.44727 17.543 7.81641 17.9121 8.29102 17.9121Z" fill="#1C1C1E"/>
</g>
<defs>
<clipPath id="clip0_10_177">
<rect width="24" height="24" fill="white"/>
</clipPath>
</defs>
</svg>
