<svg width="24" height="24" viewBox="0 0 24 24" fill="none" xmlns="http://www.w3.org/2000/svg">
<g clip-path="url(#clip0_10_168)">
<path d="M4.53809 7.92773C4.53809 10.626 6.48047 12.4189 9.4248 12.4189H10.5938V19.2568C10.5938 19.8984 10.9717 20.2939 11.5957 20.2939C12.2109 20.2939 12.6064 19.8984 12.6064 19.2568V5.45801H14.3994V19.2568C14.3994 19.8984 14.7773 20.2939 15.4014 20.2939C16.0166 20.2939 16.4121 19.8984 16.4121 19.2568V5.45801H17.7568C18.3896 5.45801 18.7939 5.0625 18.7939 4.43848C18.7939 3.82324 18.3896 3.44531 17.7568 3.44531H9.32812C6.44531 3.44531 4.53809 5.22949 4.53809 7.92773Z" fill="#1C1C1E"/>
</g>
<defs>
<clipPath id="clip0_10_168">
<rect width="24" height="24" fill="white"/>
</clipPath>
</defs>
</svg>
