<svg width="24" height="24" viewBox="0 0 24 24" fill="none" xmlns="http://www.w3.org/2000/svg">
<g clip-path="url(#clip0_10_151)">
<path d="M6.77051 10.6436H9.89062V7.29492C9.89062 6.46875 9.50391 6.04688 8.74805 5.84473L6.25195 5.18555C6.5332 5.32617 6.77051 5.60742 6.77051 6.1084V10.6436ZM14.1094 18.2461L16.7021 18.9404C17.7305 19.2129 18.3721 18.791 18.3721 17.7451V7.29492C18.3721 6.46875 17.9766 6.04688 17.2207 5.83594L14.7334 5.18555C15.0146 5.32617 15.252 5.60742 15.252 6.1084V17.2002C15.252 17.9209 14.7773 18.2812 14.1094 18.2461ZM5.62793 18.2461L8.2207 18.9404C9.24902 19.2129 9.89062 18.791 9.89062 17.7451V14.9854H13.1865V12.4102H6.77051V17.2002C6.77051 17.9209 6.2959 18.2812 5.62793 18.2461Z" fill="#1C1C1E"/>
</g>
<defs>
<clipPath id="clip0_10_151">
<rect width="24" height="24" fill="white"/>
</clipPath>
</defs>
</svg>
