<svg width="24" height="24" viewBox="0 0 24 24" fill="none" xmlns="http://www.w3.org/2000/svg">
<g clip-path="url(#clip0_10_152)">
<path d="M4.98633 12.085H10.0488C10.2686 12.1553 10.5059 12.2168 10.752 12.2695L12.4131 12.6475C14.1797 13.0518 14.8916 13.5879 14.8916 14.5723C14.8916 15.7236 13.7051 16.5674 11.9648 16.5674C10.4355 16.5674 9.27539 15.873 8.77441 14.7217C8.56348 14.3438 8.33496 14.168 7.93945 14.168C7.37695 14.168 7.02539 14.5195 7.02539 15.0557C7.02539 15.2314 7.05176 15.416 7.11328 15.6006C7.59668 17.2266 9.47754 18.2549 11.9648 18.2549C15.0146 18.2549 16.9746 16.708 16.9746 14.3262C16.9746 13.377 16.6846 12.6475 16.0693 12.085H19.0049C19.2861 12.085 19.4971 11.8564 19.4971 11.5928C19.4971 11.3203 19.2861 11.1006 19.0049 11.1006H14.2061C13.8984 11.0039 13.5732 10.916 13.2129 10.8369L11.7012 10.4941C9.99609 10.0986 9.27539 9.59766 9.27539 8.6748C9.27539 7.5498 10.3916 6.75879 11.9561 6.75879C13.3535 6.75879 14.3291 7.37402 14.8301 8.49902C15.041 8.85059 15.2783 9.01758 15.6826 9.01758C16.2275 9.01758 16.5703 8.68359 16.5703 8.16504C16.5703 8.01562 16.5527 7.86621 16.5088 7.72559C16.0869 6.14355 14.2852 5.0625 11.9473 5.0625C9.1875 5.0625 7.19238 6.61816 7.19238 8.85059C7.19238 9.78223 7.5 10.5293 8.1416 11.1006H4.98633C4.71387 11.1006 4.49414 11.3203 4.49414 11.5928C4.49414 11.8564 4.71387 12.085 4.98633 12.085Z" fill="#1C1C1E"/>
</g>
<defs>
<clipPath id="clip0_10_152">
<rect width="24" height="24" fill="white"/>
</clipPath>
</defs>
</svg>
