<svg width="24" height="24" viewBox="0 0 24 24" fill="none" xmlns="http://www.w3.org/2000/svg">
<g clip-path="url(#clip0_10_157)">
<path d="M2.52539 18.2373C3.12305 18.2373 3.43945 17.9912 3.63281 17.3584L4.59082 14.6514H9.60059L10.5586 17.3584C10.752 17.9912 11.0684 18.2373 11.666 18.2373C12.2988 18.2373 12.7031 17.8594 12.7031 17.2705C12.7031 17.0508 12.668 16.8662 12.5801 16.6201L8.71289 6.16113C8.44043 5.39648 7.93066 5.03613 7.10449 5.03613C6.31348 5.03613 5.80371 5.39648 5.54004 6.15234L1.64648 16.6729C1.55859 16.9014 1.52344 17.0947 1.52344 17.2881C1.52344 17.877 1.90137 18.2373 2.52539 18.2373ZM5.10059 12.999L7.07812 7.30371H7.13086L9.1084 12.999H5.10059ZM17.5195 18.3076C18.8467 18.3076 20.0947 17.5957 20.6396 16.4707H20.6748V17.4551C20.6924 17.9912 21.0527 18.3164 21.5713 18.3164C22.1074 18.3164 22.4766 17.9736 22.4766 17.376V11.584C22.4766 9.6416 20.9912 8.37598 18.6533 8.37598C16.8516 8.37598 15.4189 9.11426 14.9268 10.2744C14.8301 10.4854 14.7773 10.6875 14.7773 10.8809C14.7773 11.3291 15.1113 11.6279 15.5771 11.6279C15.9111 11.6279 16.166 11.5049 16.3506 11.2324C16.8604 10.2744 17.5459 9.85254 18.5918 9.85254C19.8574 9.85254 20.6309 10.5645 20.6309 11.7158V12.4365L17.8887 12.5947C15.5684 12.7178 14.2939 13.7549 14.2939 15.4424C14.2939 17.1562 15.6299 18.3076 17.5195 18.3076ZM18.0205 16.8838C16.9219 16.8838 16.166 16.2861 16.166 15.3721C16.166 14.502 16.8691 13.9219 18.1436 13.8428L20.6309 13.6758V14.5635C20.6309 15.873 19.4707 16.8838 18.0205 16.8838Z" fill="#1C1C1E"/>
</g>
<defs>
<clipPath id="clip0_10_157">
<rect width="24" height="24" fill="white"/>
</clipPath>
</defs>
</svg>
