<svg width="24" height="24" viewBox="0 0 24 24" fill="none" xmlns="http://www.w3.org/2000/svg">
<g clip-path="url(#clip0_10_176)">
<path d="M3.69434 5.50195H20.2881C20.7275 5.50195 21.0791 5.15918 21.0791 4.71973C21.0791 4.28906 20.7275 3.9375 20.2881 3.9375H3.69434C3.25488 3.9375 2.91211 4.28906 2.91211 4.71973C2.91211 5.15918 3.25488 5.50195 3.69434 5.50195ZM3.69434 10.1074H13.5469C13.9863 10.1074 14.3379 9.76465 14.3379 9.3252C14.3379 8.88574 13.9863 8.54297 13.5469 8.54297H3.69434C3.25488 8.54297 2.91211 8.88574 2.91211 9.3252C2.91211 9.76465 3.25488 10.1074 3.69434 10.1074ZM3.69434 14.7129H20.2881C20.7275 14.7129 21.0791 14.3701 21.0791 13.9307C21.0791 13.4912 20.7275 13.1484 20.2881 13.1484H3.69434C3.25488 13.1484 2.91211 13.4912 2.91211 13.9307C2.91211 14.3701 3.25488 14.7129 3.69434 14.7129ZM3.69434 19.3184H13.5469C13.9863 19.3184 14.3379 18.9668 14.3379 18.5361C14.3379 18.0967 13.9863 17.7539 13.5469 17.7539H3.69434C3.25488 17.7539 2.91211 18.0967 2.91211 18.5361C2.91211 18.9668 3.25488 19.3184 3.69434 19.3184Z" fill="#1C1C1E"/>
</g>
<defs>
<clipPath id="clip0_10_176">
<rect width="24" height="24" fill="white"/>
</clipPath>
</defs>
</svg>
