<svg width="24" height="24" viewBox="0 0 24 24" fill="none" xmlns="http://www.w3.org/2000/svg">
<g clip-path="url(#clip0_10_165)">
<path d="M3.69434 5.50195H20.2881C20.7275 5.50195 21.0791 5.15918 21.0791 4.71973C21.0791 4.28906 20.7275 3.9375 20.2881 3.9375H3.69434C3.25488 3.9375 2.91211 4.28906 2.91211 4.71973C2.91211 5.15918 3.25488 5.50195 3.69434 5.50195ZM10.4355 10.1074H20.2881C20.7275 10.1074 21.0791 9.76465 21.0791 9.3252C21.0791 8.88574 20.7275 8.54297 20.2881 8.54297H10.4355C9.99609 8.54297 9.65332 8.88574 9.65332 9.3252C9.65332 9.76465 9.99609 10.1074 10.4355 10.1074ZM3.69434 14.7129H20.2881C20.7275 14.7129 21.0791 14.3701 21.0791 13.9307C21.0791 13.4912 20.7275 13.1484 20.2881 13.1484H3.69434C3.25488 13.1484 2.91211 13.4912 2.91211 13.9307C2.91211 14.3701 3.25488 14.7129 3.69434 14.7129ZM10.4355 19.3184H20.2881C20.7275 19.3184 21.0791 18.9668 21.0791 18.5361C21.0791 18.0967 20.7275 17.7539 20.2881 17.7539H10.4355C9.99609 17.7539 9.65332 18.0967 9.65332 18.5361C9.65332 18.9668 9.99609 19.3184 10.4355 19.3184Z" fill="#1C1C1E"/>
</g>
<defs>
<clipPath id="clip0_10_165">
<rect width="24" height="24" fill="white"/>
</clipPath>
</defs>
</svg>
