<svg width="24" height="24" viewBox="0 0 24 24" fill="none" xmlns="http://www.w3.org/2000/svg">
<g clip-path="url(#clip0_10_144)">
<path d="M21.1582 18.2461C24.0234 18.2461 26.0273 16.6729 26.0273 14.458C26.0273 12.7002 24.7617 11.5664 22.7578 11.4258V11.3818C24.4277 11.1006 25.5 9.98438 25.5 8.41113C25.5 6.45117 23.707 5.0625 21.1406 5.0625C19.1719 5.0625 17.6338 5.92383 17.0273 7.24219C16.8691 7.55859 16.7988 7.85742 16.7988 8.18262C16.7988 8.6748 17.1504 9.00879 17.6426 9.00879C18.1172 9.00879 18.3545 8.83301 18.5303 8.39355C18.9434 7.32129 19.8398 6.71484 21.0967 6.71484C22.5732 6.71484 23.5225 7.48828 23.5225 8.68359C23.5225 9.91406 22.5205 10.7051 21.0352 10.7051H20.1562C19.6553 10.7051 19.3301 11.0127 19.3301 11.4785C19.3301 11.9443 19.6553 12.2607 20.1562 12.2607H21.0439C22.8545 12.2607 23.9268 13.0166 23.9268 14.3789C23.9268 15.6533 22.8018 16.5322 21.1846 16.5322C19.7695 16.5322 18.7764 15.9346 18.3721 14.8711C18.1523 14.4316 17.9062 14.2471 17.458 14.2471C16.9131 14.2471 16.5352 14.5986 16.5352 15.1523C16.5352 15.46 16.623 15.75 16.7812 16.0576C17.4932 17.4287 19.0664 18.2461 21.1582 18.2461ZM7.0166 18.0352H14.4082C14.9355 18.0352 15.2871 17.7012 15.2871 17.1914C15.2871 16.6816 14.9443 16.3389 14.4082 16.3389H8.81836V16.2949L12.2285 13.0518C14.2061 11.1621 14.8652 10.0547 14.8652 8.72754C14.8652 6.62695 13.0283 5.07129 10.4707 5.07129C8.44922 5.07129 6.82324 6.08203 6.26953 7.68164C6.17285 7.97168 6.12891 8.20898 6.12891 8.44629C6.12891 8.97363 6.46289 9.3252 6.99023 9.3252C7.48242 9.3252 7.71973 9.09668 7.88672 8.61328C7.94824 8.3584 8.04492 8.12988 8.17676 7.92773C8.61621 7.19824 9.41602 6.74121 10.4531 6.74121C11.8066 6.74121 12.8438 7.66406 12.8438 8.83301C12.8438 9.77344 12.4307 10.4502 10.8398 12.0146L6.64746 16.0576C6.22559 16.4531 6.06738 16.752 6.06738 17.1387C6.06738 17.6924 6.43652 18.0352 7.0166 18.0352ZM2.70996 18.2285C3.3252 18.2285 3.72949 17.8506 3.72949 17.2266V6.20508C3.72949 5.50195 3.29004 5.12402 2.56934 5.12402C2.05957 5.12402 1.76074 5.25586 1.26855 5.57227L-1.52637 7.38281C-1.89551 7.62891 -2.03613 7.875 -2.03613 8.21777C-2.03613 8.65723 -1.71973 8.96484 -1.25391 8.96484C-0.999023 8.96484 -0.867188 8.89453 -0.691406 8.78027L1.66406 7.29492H1.69922V17.2266C1.69922 17.8506 2.08594 18.2285 2.70996 18.2285Z" fill="#1C1C1E"/>
</g>
<defs>
<clipPath id="clip0_10_144">
<rect width="24" height="24" fill="white"/>
</clipPath>
</defs>
</svg>
