<svg width="24" height="24" viewBox="0 0 24 24" fill="none" xmlns="http://www.w3.org/2000/svg">
<g clip-path="url(#clip0_10_167)">
<path d="M3.69434 5.50195H20.2881C20.7275 5.50195 21.0791 5.15918 21.0791 4.71973C21.0791 4.28906 20.7275 3.9375 20.2881 3.9375H3.69434C3.25488 3.9375 2.91211 4.28906 2.91211 4.71973C2.91211 5.15918 3.25488 5.50195 3.69434 5.50195ZM7.06055 10.1074H16.9131C17.3525 10.1074 17.7041 9.76465 17.7041 9.3252C17.7041 8.88574 17.3525 8.54297 16.9131 8.54297H7.06055C6.62988 8.54297 6.27832 8.88574 6.27832 9.3252C6.27832 9.76465 6.62988 10.1074 7.06055 10.1074ZM3.69434 14.7129H20.2881C20.7275 14.7129 21.0791 14.3701 21.0791 13.9307C21.0791 13.4912 20.7275 13.1484 20.2881 13.1484H3.69434C3.25488 13.1484 2.91211 13.4912 2.91211 13.9307C2.91211 14.3701 3.25488 14.7129 3.69434 14.7129ZM7.06055 19.3184H16.9131C17.3525 19.3184 17.7041 18.9668 17.7041 18.5361C17.7041 18.0967 17.3525 17.7539 16.9131 17.7539H7.06055C6.62988 17.7539 6.27832 18.0967 6.27832 18.5361C6.27832 18.9668 6.62988 19.3184 7.06055 19.3184Z" fill="#1C1C1E"/>
</g>
<defs>
<clipPath id="clip0_10_167">
<rect width="24" height="24" fill="white"/>
</clipPath>
</defs>
</svg>
