<svg width="24" height="24" viewBox="0 0 24 24" fill="none" xmlns="http://www.w3.org/2000/svg">
<g clip-path="url(#clip0_10_163)">
<path d="M3.71191 5.48438H20.2705C20.7188 5.48438 21.0791 5.11523 21.0791 4.67578C21.0791 4.21875 20.7188 3.86719 20.2705 3.86719H3.71191C3.26367 3.86719 2.91211 4.22754 2.91211 4.67578C2.91211 5.11523 3.26367 5.48438 3.71191 5.48438ZM3.71191 10.0898H20.2705C20.7188 10.0898 21.0791 9.7207 21.0791 9.28125C21.0791 8.82422 20.7188 8.47266 20.2705 8.47266H3.71191C3.26367 8.47266 2.91211 8.83301 2.91211 9.28125C2.91211 9.7207 3.26367 10.0898 3.71191 10.0898ZM3.71191 14.6953H20.2705C20.7188 14.6953 21.0791 14.3262 21.0791 13.8867C21.0791 13.4385 20.7188 13.0781 20.2705 13.0781H3.71191C3.26367 13.0781 2.91211 13.4385 2.91211 13.8867C2.91211 14.3262 3.26367 14.6953 3.71191 14.6953ZM3.71191 19.3008H20.2705C20.7188 19.3008 21.0791 18.9316 21.0791 18.4922C21.0791 18.0439 20.7188 17.6836 20.2705 17.6836H3.71191C3.26367 17.6836 2.91211 18.0439 2.91211 18.4922C2.91211 18.9316 3.26367 19.3008 3.71191 19.3008Z" fill="#1C1C1E"/>
</g>
<defs>
<clipPath id="clip0_10_163">
<rect width="24" height="24" fill="white"/>
</clipPath>
</defs>
</svg>
