<svg width="24" height="24" viewBox="0 0 24 24" fill="none" xmlns="http://www.w3.org/2000/svg">
<g clip-path="url(#clip0_10_164)">
<path d="M18.1611 10.9863C18.627 10.9863 18.9434 10.6963 18.9434 10.2041V4.27148C18.9434 3.74414 18.6006 3.41895 18.0732 3.41895C17.625 3.41895 17.3789 3.58594 17.0625 3.79688L15.7002 4.72852C15.4189 4.91309 15.3047 5.08887 15.3047 5.33496C15.3047 5.67773 15.5508 5.93262 15.8672 5.93262C16.0518 5.93262 16.1748 5.87988 16.377 5.73926L17.3525 5.08008H17.3789V10.2041C17.3789 10.6963 17.6953 10.9863 18.1611 10.9863ZM6.0498 18.2373C6.64746 18.2373 6.96387 17.9912 7.15723 17.3584L8.11523 14.6514H13.125L14.083 17.3584C14.2764 17.9912 14.5928 18.2373 15.1904 18.2373C15.8232 18.2373 16.2275 17.8594 16.2275 17.2705C16.2275 17.0508 16.1924 16.8662 16.1045 16.6201L12.2373 6.16113C11.9648 5.39648 11.4551 5.03613 10.6289 5.03613C9.83789 5.03613 9.32812 5.39648 9.06445 6.15234L5.1709 16.6729C5.08301 16.9014 5.04785 17.0947 5.04785 17.2881C5.04785 17.877 5.42578 18.2373 6.0498 18.2373ZM8.625 12.999L10.6025 7.30371H10.6553L12.6328 12.999H8.625Z" fill="#1C1C1E"/>
</g>
<defs>
<clipPath id="clip0_10_164">
<rect width="24" height="24" fill="white"/>
</clipPath>
</defs>
</svg>
