<svg width="24" height="24" viewBox="0 0 24 24" fill="none" xmlns="http://www.w3.org/2000/svg">
<g clip-path="url(#clip0_10_143)">
<path d="M4.47656 3.4541C2.57812 3.4541 1.58496 4.42969 1.58496 6.31934V8.2002C1.58496 8.75391 1.91895 9.08789 2.46387 9.08789C3 9.08789 3.33398 8.75391 3.33398 8.2002V6.47754C3.33398 5.625 3.78223 5.20312 4.59082 5.20312H19.4004C20.209 5.20312 20.6572 5.625 20.6572 6.47754V8.2002C20.6572 8.75391 21 9.08789 21.5361 9.08789C22.0811 9.08789 22.415 8.75391 22.415 8.2002V6.31934C22.415 4.43848 21.4219 3.4541 19.5146 3.4541H4.47656ZM11.9824 15.7061C12.5537 15.7061 12.8701 15.3281 12.8701 14.7217V9.00879H14.7949C15.2256 9.00879 15.5244 8.73633 15.5244 8.31445C15.5244 7.875 15.2256 7.62012 14.7949 7.62012H9.20508C8.77441 7.62012 8.47559 7.875 8.47559 8.31445C8.47559 8.73633 8.77441 9.00879 9.20508 9.00879H11.1123V14.7217C11.1123 15.3193 11.4199 15.7061 11.9824 15.7061ZM2.46387 12.7529C3.1582 12.7529 3.72949 12.1816 3.72949 11.4785C3.72949 10.7842 3.1582 10.2041 2.46387 10.2041C1.76074 10.2041 1.18945 10.7842 1.18945 11.4785C1.18945 12.1816 1.76074 12.7529 2.46387 12.7529ZM21.5361 12.7529C22.2305 12.7529 22.8018 12.1816 22.8018 11.4785C22.8018 10.7842 22.2305 10.2041 21.5361 10.2041C20.833 10.2041 20.2617 10.7754 20.2617 11.4785C20.2617 12.1816 20.833 12.7529 21.5361 12.7529ZM4.47656 19.8809H19.5146C21.4219 19.8809 22.415 18.8965 22.415 17.0156V14.7832C22.415 14.2295 22.0723 13.8955 21.5361 13.8955C20.9912 13.8955 20.6572 14.2295 20.6572 14.7832V16.8574C20.6572 17.71 20.209 18.1318 19.4004 18.1318H4.59082C3.78223 18.1318 3.33398 17.71 3.33398 16.8574V14.7832C3.33398 14.2295 3 13.8955 2.46387 13.8955C1.91895 13.8955 1.58496 14.2295 1.58496 14.7832V17.0156C1.58496 18.8965 2.57812 19.8809 4.47656 19.8809Z" fill="#1C1C1E"/>
</g>
<defs>
<clipPath id="clip0_10_143">
<rect width="24" height="24" fill="white"/>
</clipPath>
</defs>
</svg>
