<svg width="24" height="24" viewBox="0 0 24 24" fill="none" xmlns="http://www.w3.org/2000/svg">
<g clip-path="url(#clip0_10_160)">
<path d="M3.71191 5.48438H20.2705C20.7188 5.48438 21.0791 5.11523 21.0791 4.67578C21.0791 4.21875 20.7188 3.86719 20.2705 3.86719H3.71191C3.26367 3.86719 2.91211 4.22754 2.91211 4.67578C2.91211 5.11523 3.26367 5.48438 3.71191 5.48438ZM4.05469 10.7842H19.9365C20.6924 10.7842 21.0791 10.4062 21.0791 9.65918V8.89453C21.0791 8.15625 20.6924 7.76953 19.9365 7.76953H4.05469C3.29883 7.76953 2.91211 8.15625 2.91211 8.89453V9.65918C2.91211 10.4062 3.29883 10.7842 4.05469 10.7842ZM4.05469 15.3984H10.6377C11.3848 15.3984 11.7715 15.0117 11.7715 14.2646V13.5C11.7715 12.7705 11.3848 12.375 10.6377 12.375H4.05469C3.29883 12.375 2.91211 12.7705 2.91211 13.5V14.2646C2.91211 15.0117 3.29883 15.3984 4.05469 15.3984ZM13.8809 14.6953H20.2705C20.7188 14.6953 21.0791 14.3262 21.0791 13.8867C21.0791 13.4385 20.7188 13.0781 20.2705 13.0781H13.8809C13.4326 13.0781 13.0811 13.4385 13.0811 13.8867C13.0811 14.3262 13.4326 14.6953 13.8809 14.6953ZM3.71191 19.3008H20.2705C20.7188 19.3008 21.0791 18.9316 21.0791 18.4922C21.0791 18.0439 20.7188 17.6836 20.2705 17.6836H3.71191C3.26367 17.6836 2.91211 18.0439 2.91211 18.4922C2.91211 18.9316 3.26367 19.3008 3.71191 19.3008Z" fill="#1C1C1E"/>
</g>
<defs>
<clipPath id="clip0_10_160">
<rect width="24" height="24" fill="white"/>
</clipPath>
</defs>
</svg>
