<svg width="24" height="24" viewBox="0 0 24 24" fill="none" xmlns="http://www.w3.org/2000/svg">
<g clip-path="url(#clip0_10_146)">
<path d="M8.53711 18.2373C9.09082 18.2373 9.45996 17.8857 9.45996 17.3145V16.2422H9.49512C10.0576 17.4727 11.1826 18.2373 12.6504 18.2373C15.0938 18.2373 16.6494 16.3213 16.6494 13.3154C16.6494 10.292 15.085 8.38477 12.6592 8.38477C11.2354 8.38477 10.084 9.1582 9.54785 10.3799H9.49512V6.05566C9.49512 5.47559 9.12598 5.08887 8.57227 5.08887C8.01855 5.08887 7.64062 5.47559 7.64062 6.05566V17.3145C7.64062 17.8945 7.99219 18.2373 8.53711 18.2373ZM22.1953 18.2373C23.9883 18.2373 25.5264 17.2881 26.0625 15.9434C26.1328 15.7588 26.168 15.5918 26.168 15.4424C26.168 14.9854 25.8252 14.6689 25.377 14.6689C24.9551 14.6689 24.7529 14.8359 24.5156 15.2754C24.0674 16.1982 23.3203 16.7256 22.2129 16.7256C20.6045 16.7256 19.5586 15.4336 19.5586 13.2979C19.5586 11.1885 20.6133 9.86133 22.2129 9.86133C23.2676 9.86133 24.0322 10.3711 24.498 11.3643C24.7178 11.7686 24.9375 11.9268 25.333 11.9268C25.79 11.9268 26.1328 11.6367 26.1328 11.1709C26.1328 11.0391 26.0977 10.8721 26.0449 10.7314C25.5703 9.35156 24.0322 8.3584 22.1689 8.3584C19.4268 8.3584 17.6689 10.3008 17.6689 13.3066C17.6689 16.3389 19.4443 18.2373 22.1953 18.2373ZM1.03125 18.2373C2.34082 18.2373 3.58887 17.5342 4.125 16.418H4.16016V17.3848C4.19531 17.9209 4.53809 18.2461 5.05664 18.2461C5.59277 18.2461 5.95312 17.9033 5.95312 17.3057V11.5576C5.95312 9.62402 4.48535 8.36719 2.15625 8.36719C0.37207 8.36719 -1.05176 9.09668 -1.54395 10.2568C-1.64062 10.459 -1.69336 10.6699 -1.69336 10.8545C-1.69336 11.3027 -1.35938 11.6104 -0.893555 11.6104C-0.55957 11.6104 -0.313477 11.4873 -0.128906 11.2061C0.380859 10.2656 1.05762 9.84375 2.09473 9.84375C3.35156 9.84375 4.11621 10.5469 4.11621 11.6895V12.4014L1.40039 12.5596C-0.902344 12.709 -2.17676 13.7197 -2.17676 15.3896C-2.17676 17.0947 -0.849609 18.2373 1.03125 18.2373ZM12.1406 16.7168C10.5938 16.7168 9.49512 15.3721 9.49512 13.3154C9.49512 11.2676 10.5938 9.91406 12.1406 9.91406C13.7314 9.91406 14.751 11.2324 14.751 13.3154C14.751 15.3984 13.7314 16.7168 12.1406 16.7168ZM1.53223 16.8135C0.442383 16.8135 -0.304688 16.2158 -0.304688 15.3193C-0.304688 14.458 0.389648 13.8867 1.64648 13.7988L4.11621 13.6406V14.5195C4.11621 15.8203 2.96484 16.8135 1.53223 16.8135Z" fill="#1C1C1E"/>
</g>
<defs>
<clipPath id="clip0_10_146">
<rect width="24" height="24" fill="white"/>
</clipPath>
</defs>
</svg>
