<svg width="24" height="24" viewBox="0 0 24 24" fill="none" xmlns="http://www.w3.org/2000/svg">
<g clip-path="url(#clip0_10_156)">
<path d="M4.81055 18.2373C5.4082 18.2373 5.72461 17.9912 5.91797 17.3584L6.87598 14.6514H11.8857L12.8438 17.3584C13.0371 17.9912 13.3535 18.2373 13.9512 18.2373C14.584 18.2373 14.9883 17.8594 14.9883 17.2705C14.9883 17.0508 14.9531 16.8662 14.8652 16.6201L10.998 6.16113C10.7256 5.39648 10.2158 5.03613 9.38965 5.03613C8.59863 5.03613 8.08887 5.39648 7.8252 6.15234L3.93164 16.6729C3.84375 16.9014 3.80859 17.0947 3.80859 17.2881C3.80859 17.877 4.18652 18.2373 4.81055 18.2373ZM7.38574 12.999L9.36328 7.30371H9.41602L11.3936 12.999H7.38574ZM19.4004 20.4961C19.8662 20.4961 20.1826 20.2061 20.1826 19.7139V13.7812C20.1826 13.2539 19.8398 12.9287 19.3125 12.9287C18.8643 12.9287 18.6182 13.0957 18.3018 13.3066L16.9395 14.2383C16.6582 14.4229 16.5352 14.5986 16.5352 14.8359C16.5352 15.1875 16.79 15.4424 17.1064 15.4424C17.291 15.4424 17.4053 15.3809 17.6074 15.249L18.5918 14.5898H18.6182V19.7139C18.6182 20.2061 18.9346 20.4961 19.4004 20.4961Z" fill="#1C1C1E"/>
</g>
<defs>
<clipPath id="clip0_10_156">
<rect width="24" height="24" fill="white"/>
</clipPath>
</defs>
</svg>
