<svg width="24" height="24" viewBox="0 0 24 24" fill="none" xmlns="http://www.w3.org/2000/svg">
<g clip-path="url(#clip0_10_150)">
<path d="M2.29688 18.2373C2.89453 18.2373 3.21094 17.9912 3.4043 17.3584L4.3623 14.6514H9.37207L10.3301 17.3584C10.5234 17.9912 10.8398 18.2373 11.4375 18.2373C12.0703 18.2373 12.4746 17.8594 12.4746 17.2705C12.4746 17.0508 12.4395 16.8662 12.3516 16.6201L8.48438 6.16113C8.21191 5.39648 7.70215 5.03613 6.87598 5.03613C6.08496 5.03613 5.5752 5.39648 5.31152 6.15234L1.41797 16.6729C1.33008 16.9014 1.29492 17.0947 1.29492 17.2881C1.29492 17.877 1.67285 18.2373 2.29688 18.2373ZM4.87207 12.999L6.84961 7.30371H6.90234L8.87988 12.999H4.87207ZM17.6338 18.3076C19.1455 18.3076 20.2969 17.6045 20.833 16.3477H20.9033V17.4111C20.9121 17.9824 21.2812 18.3164 21.791 18.3164C22.3271 18.3164 22.6963 17.9648 22.6963 17.376V9.1582C22.6963 8.56055 22.3271 8.20898 21.791 8.20898C21.2725 8.20898 20.9033 8.56055 20.9033 9.1582V10.2129H20.833C20.2969 8.97363 19.1016 8.22656 17.6338 8.22656C15.1904 8.22656 13.5908 10.2305 13.5908 13.2627C13.5908 16.3125 15.1904 18.3076 17.6338 18.3076ZM18.1611 16.752C16.5264 16.752 15.498 15.4072 15.498 13.2715C15.498 11.1357 16.5264 9.78223 18.1611 9.78223C19.7871 9.78223 20.8594 11.1709 20.8594 13.2803C20.8594 15.4072 19.8047 16.752 18.1611 16.752Z" fill="#1C1C1E"/>
</g>
<defs>
<clipPath id="clip0_10_150">
<rect width="24" height="24" fill="white"/>
</clipPath>
</defs>
</svg>
