<svg width="24" height="24" viewBox="0 0 24 24" fill="none" xmlns="http://www.w3.org/2000/svg">
<g clip-path="url(#clip0_10_166)">
<path d="M12.3252 18.2373C12.9229 18.2373 13.2393 17.9912 13.4326 17.3584L14.3994 14.6514H19.4004L20.3672 17.3584C20.5605 17.9912 20.877 18.2373 21.4746 18.2373C22.0986 18.2373 22.5117 17.8594 22.5117 17.2705C22.5117 17.0508 22.4678 16.8662 22.3887 16.6201L18.5127 6.16113C18.2402 5.39648 17.7305 5.03613 16.9131 5.03613C16.1221 5.03613 15.6123 5.39648 15.3398 6.15234L11.4463 16.6729C11.3672 16.9014 11.332 17.0947 11.332 17.2881C11.332 17.877 11.71 18.2373 12.3252 18.2373ZM14.9092 12.999L16.8779 7.30371H16.9395L18.9082 12.999H14.9092ZM2.40234 18.2373C2.86816 18.2373 3.1582 17.9912 3.3252 17.4287L3.94922 15.5742H7.36816L7.9834 17.4375C8.15039 18.0088 8.44043 18.2373 8.93262 18.2373C9.46875 18.2373 9.83789 17.8857 9.83789 17.376C9.83789 17.1738 9.79395 16.9717 9.70605 16.7344L7.05176 9.62402C6.78809 8.91211 6.33984 8.57812 5.64551 8.57812C4.97754 8.57812 4.5293 8.91211 4.27441 9.62402L1.61133 16.7344C1.53223 16.9541 1.48828 17.1826 1.48828 17.376C1.48828 17.9033 1.83984 18.2373 2.40234 18.2373ZM4.37988 14.1768L5.54883 10.5029H5.7334L6.92871 14.1768H4.37988Z" fill="#1C1C1E"/>
</g>
<defs>
<clipPath id="clip0_10_166">
<rect width="24" height="24" fill="white"/>
</clipPath>
</defs>
</svg>
