<svg width="24" height="24" viewBox="0 0 24 24" fill="none" xmlns="http://www.w3.org/2000/svg">
<g clip-path="url(#clip0_10_145)">
<path d="M8.32617 15.3721C8.87988 15.3721 9.24902 15.0205 9.24902 14.4492V13.377H9.28418C9.84668 14.6162 10.9717 15.3721 12.4395 15.3721C14.8828 15.3721 16.4385 13.4648 16.4385 10.4502C16.4385 7.43555 14.874 5.51953 12.4482 5.51953C11.0244 5.51953 9.87305 6.29297 9.33691 7.52344H9.28418V3.19043C9.28418 2.61035 8.91504 2.22363 8.36133 2.22363C7.80762 2.22363 7.42969 2.61035 7.42969 3.19043V14.4492C7.42969 15.0293 7.78125 15.3721 8.32617 15.3721ZM21.9844 15.3721C23.7773 15.3721 25.3154 14.4229 25.8516 13.0781C25.9219 12.8936 25.957 12.7266 25.957 12.5771C25.957 12.1201 25.6143 11.8037 25.166 11.8037C24.7441 11.8037 24.542 11.9707 24.3047 12.4102C23.8564 13.333 23.1094 13.8691 22.002 13.8691C20.3936 13.8691 19.3477 12.5684 19.3477 10.4326C19.3477 8.32324 20.4023 6.99609 22.002 6.99609C23.0566 6.99609 23.8213 7.50586 24.2871 8.49902C24.5068 8.90332 24.7266 9.06152 25.1221 9.06152C25.5791 9.06152 25.9219 8.77148 25.9219 8.30566C25.9219 8.17383 25.8867 8.00684 25.834 7.86621C25.3594 6.48633 23.8213 5.49316 21.958 5.49316C19.2158 5.49316 17.458 7.43555 17.458 10.4414C17.458 13.4736 19.2334 15.3721 21.9844 15.3721ZM0.820312 15.3721C2.12988 15.3721 3.37793 14.6689 3.91406 13.5527H3.94922V14.5195C3.98438 15.0557 4.32715 15.3809 4.8457 15.3809C5.38184 15.3809 5.74219 15.0381 5.74219 14.4404V8.69238C5.74219 6.75879 4.27441 5.51074 1.94531 5.51074C0.161133 5.51074 -1.2627 6.24023 -1.75488 7.3916C-1.85156 7.60254 -1.9043 7.80469 -1.9043 7.98926C-1.9043 8.4375 -1.57031 8.74512 -1.10449 8.74512C-0.770508 8.74512 -0.524414 8.62207 -0.339844 8.34961C0.169922 7.40039 0.84668 6.97852 1.88379 6.97852C3.14062 6.97852 3.90527 7.68164 3.90527 8.82422V9.54492L1.18945 9.69434C-1.11328 9.84375 -2.3877 10.8545 -2.3877 12.5244C-2.3877 14.2295 -1.06055 15.3721 0.820312 15.3721ZM11.9297 13.8516C10.3828 13.8516 9.28418 12.5068 9.28418 10.459C9.28418 8.40234 10.3828 7.04883 11.9297 7.04883C13.5205 7.04883 14.54 8.36719 14.54 10.4502C14.54 12.5332 13.5205 13.8516 11.9297 13.8516ZM1.32129 13.9482C0.231445 13.9482 -0.515625 13.3594 -0.515625 12.4541C-0.515625 11.5928 0.178711 11.0215 1.43555 10.9336L3.90527 10.7754V11.6543C3.90527 12.9551 2.75391 13.9482 1.32129 13.9482ZM-0.788086 21.0322C-0.146484 21.0322 0.380859 20.4961 0.380859 19.8545C0.380859 19.1953 -0.128906 18.6855 -0.788086 18.6855C-1.43848 18.6855 -1.96582 19.2041 -1.96582 19.8545C-1.96582 20.4961 -1.43848 21.0322 -0.788086 21.0322ZM3.55371 21.0322C4.19531 21.0322 4.72266 20.4961 4.72266 19.8545C4.72266 19.1953 4.2041 18.6855 3.55371 18.6855C2.90332 18.6855 2.37598 19.2041 2.37598 19.8545C2.37598 20.4961 2.90332 21.0322 3.55371 21.0322ZM7.87793 21.0322C8.51953 21.0322 9.05566 20.4961 9.05566 19.8545C9.05566 19.1953 8.53711 18.6855 7.87793 18.6855C7.22754 18.6855 6.7002 19.2041 6.7002 19.8545C6.7002 20.4961 7.22754 21.0322 7.87793 21.0322ZM12.2109 21.0322C12.8525 21.0322 13.3887 20.4961 13.3887 19.8545C13.3887 19.1953 12.8701 18.6855 12.2109 18.6855C11.5605 18.6855 11.0332 19.2041 11.0332 19.8545C11.0332 20.4961 11.5605 21.0322 12.2109 21.0322ZM16.5439 21.0322C17.1855 21.0322 17.7217 20.4961 17.7217 19.8545C17.7217 19.1953 17.2031 18.6855 16.5439 18.6855C15.8936 18.6855 15.3662 19.2041 15.3662 19.8545C15.3662 20.4961 15.8936 21.0322 16.5439 21.0322ZM20.877 21.0322C21.5186 21.0322 22.0459 20.4961 22.0459 19.8545C22.0459 19.1953 21.5273 18.6855 20.877 18.6855C20.2266 18.6855 19.6992 19.2041 19.6992 19.8545C19.6992 20.4961 20.2266 21.0322 20.877 21.0322ZM25.2012 21.0322C25.8428 21.0322 26.3789 20.4961 26.3789 19.8545C26.3789 19.1953 25.8604 18.6855 25.2012 18.6855C24.5508 18.6855 24.0322 19.2041 24.0322 19.8545C24.0322 20.4961 24.5508 21.0322 25.2012 21.0322Z" fill="#1C1C1E"/>
</g>
<defs>
<clipPath id="clip0_10_145">
<rect width="24" height="24" fill="white"/>
</clipPath>
</defs>
</svg>
