<svg width="24" height="24" viewBox="0 0 24 24" fill="none" xmlns="http://www.w3.org/2000/svg">
<g clip-path="url(#clip0_10_153)">
<path d="M11.9912 18.2549C15.252 18.2549 17.291 16.3477 17.291 13.5352V6.08203C17.291 5.44922 16.8779 5.0625 16.2539 5.0625C15.6299 5.0625 15.2344 5.44922 15.2344 6.08203V13.3418C15.2344 15.2051 14.0391 16.4355 11.9912 16.4355C9.95215 16.4355 8.76562 15.2051 8.76562 13.3418V6.08203C8.76562 5.44922 8.35254 5.0625 7.72852 5.0625C7.0957 5.0625 6.7002 5.44922 6.7002 6.08203V13.5352C6.7002 16.3477 8.74805 18.2549 11.9912 18.2549ZM7.33301 21.0586H16.6582C17.0098 21.0586 17.291 20.7949 17.291 20.4346C17.291 20.0742 17.0098 19.8105 16.6582 19.8105H7.33301C6.98145 19.8105 6.7002 20.0742 6.7002 20.4346C6.7002 20.7949 6.98145 21.0586 7.33301 21.0586Z" fill="#1C1C1E"/>
</g>
<defs>
<clipPath id="clip0_10_153">
<rect width="24" height="24" fill="white"/>
</clipPath>
</defs>
</svg>
