<svg width="24" height="24" viewBox="0 0 24 24" fill="none" xmlns="http://www.w3.org/2000/svg">
<g clip-path="url(#clip0_10_439)">
<path d="M10.5322 17.0332C11.9297 17.0332 13.2393 16.6113 14.3291 15.8906L18.1787 19.749C18.4336 19.9951 18.7588 20.1182 19.1104 20.1182C19.8398 20.1182 20.376 19.5469 20.376 18.8262C20.376 18.4922 20.2617 18.167 20.0156 17.9209L16.1924 14.0801C16.9834 12.9551 17.4492 11.5928 17.4492 10.1162C17.4492 6.31055 14.3379 3.19922 10.5322 3.19922C6.73535 3.19922 3.61523 6.31055 3.61523 10.1162C3.61523 13.9219 6.72656 17.0332 10.5322 17.0332ZM10.5322 15.1875C7.74609 15.1875 5.46094 12.9023 5.46094 10.1162C5.46094 7.33008 7.74609 5.04492 10.5322 5.04492C13.3184 5.04492 15.6035 7.33008 15.6035 10.1162C15.6035 12.9023 13.3184 15.1875 10.5322 15.1875ZM10.9189 13.2803C11.2969 13.2803 11.5693 13.0957 11.5693 12.6826V7.62891C11.5693 7.19824 11.2793 6.9082 10.8223 6.9082C10.5059 6.9082 10.3125 6.9873 9.96094 7.22461L8.82715 8.00684C8.58984 8.17383 8.51074 8.32324 8.51074 8.55176C8.51074 8.81543 8.73926 9.02637 8.99414 9.02637C9.15234 9.02637 9.23145 8.99121 9.38965 8.87695L10.207 8.29688H10.2686V12.6123C10.2686 13.0254 10.541 13.2803 10.9189 13.2803Z" fill="#1C1C1E"/>
</g>
<defs>
<clipPath id="clip0_10_439">
<rect width="24" height="24" fill="white"/>
</clipPath>
</defs>
</svg>
