<svg width="24" height="24" viewBox="0 0 24 24" fill="none" xmlns="http://www.w3.org/2000/svg">
<g clip-path="url(#clip0_10_665)">
<path d="M2.00684 17.4023C2.00684 19.2744 2.98242 20.2236 4.86328 20.2236H19.1367C21.0264 20.2236 21.9932 19.2744 21.9932 17.4023V8.78906C21.9932 6.92578 21.0264 5.96777 19.1367 5.96777H17.2646V5.03613C17.2646 3.69141 16.4033 2.8916 14.9355 2.8916H9.06445C7.59668 2.8916 6.73535 3.69141 6.73535 5.03613V5.96777H4.86328C2.98242 5.96777 2.00684 6.92578 2.00684 8.78906V17.4023ZM8.37891 5.12402C8.37891 4.66699 8.69531 4.37695 9.17871 4.37695H14.8213C15.3135 4.37695 15.6211 4.66699 15.6211 5.12402V5.96777H8.37891V5.12402ZM5.56641 11.2939C4.7666 11.2939 4.125 10.6523 4.125 9.85254C4.125 9.05273 4.7666 8.41992 5.56641 8.41992C6.36621 8.41992 6.99902 9.05273 6.99902 9.85254C6.99902 10.6523 6.36621 11.2939 5.56641 11.2939ZM9.85547 11.2939C9.05566 11.2939 8.41406 10.6523 8.41406 9.85254C8.41406 9.05273 9.05566 8.41992 9.85547 8.41992C10.6465 8.41992 11.2881 9.05273 11.2881 9.85254C11.2881 10.6523 10.6465 11.2939 9.85547 11.2939ZM14.1885 11.2939C13.3887 11.2939 12.7559 10.6523 12.7559 9.85254C12.7559 9.05273 13.3887 8.41992 14.1885 8.41992C14.9883 8.41992 15.6211 9.05273 15.6211 9.85254C15.6211 10.6523 14.9883 11.2939 14.1885 11.2939ZM18.5127 11.2939C17.7129 11.2939 17.0801 10.6523 17.0801 9.85254C17.0801 9.05273 17.7129 8.41992 18.5127 8.41992C19.3125 8.41992 19.9541 9.05273 19.9541 9.85254C19.9541 10.6523 19.3125 11.2939 18.5127 11.2939ZM3.75586 17.3496V13.1572H20.2354V17.3496C20.2354 18.1494 19.8311 18.5361 19.0664 18.5361H4.93359C4.16895 18.5361 3.75586 18.1494 3.75586 17.3496Z" fill="#1C1C1E"/>
</g>
<defs>
<clipPath id="clip0_10_665">
<rect width="24" height="24" fill="white"/>
</clipPath>
</defs>
</svg>
