<svg width="24" height="24" viewBox="0 0 24 24" fill="none" xmlns="http://www.w3.org/2000/svg">
<g clip-path="url(#clip0_10_575)">
<path d="M7.1748 19.8809H16.8164C18.6357 19.8809 19.6289 18.9141 19.6289 17.1035V8.5957C20.4551 8.37598 20.9209 7.67285 20.9209 6.69727V5.42285C20.9209 4.22754 20.2266 3.4541 19.0225 3.4541H4.97754C3.81738 3.4541 3.07031 4.22754 3.07031 5.42285V6.69727C3.07031 7.67285 3.53613 8.36719 4.37109 8.5957V17.1035C4.37109 18.9141 5.36426 19.8809 7.1748 19.8809ZM5.31152 7.05762C4.90723 7.05762 4.73145 6.87305 4.73145 6.46875V5.65137C4.73145 5.24707 4.90723 5.0625 5.31152 5.0625H18.6973C19.0928 5.0625 19.2598 5.24707 19.2598 5.65137V6.46875C19.2598 6.87305 19.0928 7.05762 18.6973 7.05762H5.31152ZM7.2627 18.2021C6.52441 18.2021 6.12012 17.8066 6.12012 17.0596V8.66602H17.8711V17.0596C17.8711 17.8066 17.4668 18.2021 16.7373 18.2021H7.2627ZM9.16992 12.2607H14.8301C15.252 12.2607 15.5508 11.9531 15.5508 11.5225V11.2412C15.5508 10.8105 15.252 10.5205 14.8301 10.5205H9.16992C8.74805 10.5205 8.44922 10.8105 8.44922 11.2412V11.5225C8.44922 11.9531 8.74805 12.2607 9.16992 12.2607Z" fill="#1C1C1E"/>
</g>
<defs>
<clipPath id="clip0_10_575">
<rect width="24" height="24" fill="white"/>
</clipPath>
</defs>
</svg>
