<svg width="24" height="24" viewBox="0 0 24 24" fill="none" xmlns="http://www.w3.org/2000/svg">
<g clip-path="url(#clip0_10_578)">
<path d="M4.72266 7.62891H19.2861C20.3496 7.62891 20.8857 7.01367 20.8857 5.95898V5.12402C20.8857 4.06934 20.3496 3.4541 19.2861 3.4541H4.72266C3.70312 3.4541 3.11426 4.06934 3.11426 5.12402V5.95898C3.11426 7.01367 3.65918 7.62891 4.72266 7.62891ZM7.1748 19.8809H16.8252C18.6357 19.8809 19.6289 18.9141 19.6289 17.1035V8.9209H4.37109V17.1035C4.37109 18.9141 5.36426 19.8809 7.1748 19.8809ZM9.16992 12.2783C8.75684 12.2783 8.45801 11.9795 8.45801 11.5488V11.2676C8.45801 10.8281 8.75684 10.5381 9.16992 10.5381H14.8389C15.2607 10.5381 15.5596 10.8281 15.5596 11.2676V11.5488C15.5596 11.9795 15.252 12.2783 14.8389 12.2783H9.16992Z" fill="#1C1C1E"/>
</g>
<defs>
<clipPath id="clip0_10_578">
<rect width="24" height="24" fill="white"/>
</clipPath>
</defs>
</svg>
