<svg width="24" height="24" viewBox="0 0 24 24" fill="none" xmlns="http://www.w3.org/2000/svg">
<g clip-path="url(#clip0_10_569)">
<path d="M11.9912 20.7422C16.9746 20.7422 21.0879 16.6289 21.0879 11.6543C21.0879 6.67969 16.9658 2.56641 11.9824 2.56641C7.00781 2.56641 2.90332 6.67969 2.90332 11.6543C2.90332 16.6289 7.0166 20.7422 11.9912 20.7422ZM11.9912 18.9316C7.95703 18.9316 4.73145 15.6885 4.73145 11.6543C4.73145 7.62012 7.95703 4.38574 11.9824 4.38574C16.0166 4.38574 19.2598 7.62012 19.2686 11.6543C19.2773 15.6885 16.0254 18.9316 11.9912 18.9316ZM8.17676 9.71191H15.8057C16.3506 9.71191 16.623 9.39551 16.623 8.85938V8.42871C16.623 7.88379 16.3506 7.56738 15.8057 7.56738H8.17676C7.6582 7.56738 7.35059 7.88379 7.35059 8.42871V8.85938C7.35059 9.39551 7.63184 9.71191 8.17676 9.71191ZM9.48633 16.0576H14.4873C15.4189 16.0576 15.9287 15.5566 15.9287 14.625V10.4238H8.04492V14.625C8.04492 15.5566 8.56348 16.0576 9.48633 16.0576ZM10.5146 12.1992C10.3037 12.1992 10.1543 12.041 10.1543 11.8301V11.6807C10.1543 11.4521 10.3037 11.3115 10.5146 11.3115H13.459C13.6787 11.3115 13.8281 11.4521 13.8281 11.6807V11.8301C13.8281 12.041 13.6787 12.1992 13.459 12.1992H10.5146Z" fill="#1C1C1E"/>
</g>
<defs>
<clipPath id="clip0_10_569">
<rect width="24" height="24" fill="white"/>
</clipPath>
</defs>
</svg>
