<svg width="24" height="24" viewBox="0 0 24 24" fill="none" xmlns="http://www.w3.org/2000/svg">
<g clip-path="url(#clip0_10_572)">
<path d="M11.9912 20.7598C16.9746 20.7598 21.0879 16.6465 21.0879 11.6631C21.0879 6.68848 16.9658 2.5752 11.9824 2.5752C7.00781 2.5752 2.90332 6.68848 2.90332 11.6631C2.90332 16.6465 7.0166 20.7598 11.9912 20.7598ZM8.01855 9.63281C7.45605 9.63281 7.16602 9.30762 7.16602 8.74512V8.29688C7.16602 7.73438 7.48242 7.40039 8.01855 7.40039H15.9551C16.5264 7.40039 16.8076 7.73438 16.8076 8.29688V8.74512C16.8076 9.30762 16.5264 9.63281 15.9551 9.63281H8.01855ZM9.38965 16.2246C8.42285 16.2246 7.88672 15.7148 7.88672 14.7305V10.3799H16.0869V14.7305C16.0869 15.7148 15.5508 16.2246 14.584 16.2246H9.38965ZM10.4619 12.2256H13.5117C13.7402 12.2256 13.8984 12.0762 13.8984 11.8389V11.6895C13.8984 11.4609 13.7402 11.3027 13.5117 11.3027H10.4619C10.2422 11.3027 10.0752 11.4609 10.0752 11.6895V11.8389C10.0752 12.0762 10.2422 12.2256 10.4619 12.2256Z" fill="#1C1C1E"/>
</g>
<defs>
<clipPath id="clip0_10_572">
<rect width="24" height="24" fill="white"/>
</clipPath>
</defs>
</svg>
