<svg width="24" height="24" viewBox="0 0 24 24" fill="none" xmlns="http://www.w3.org/2000/svg">
<g clip-path="url(#clip0_10_375)">
<path d="M4.01953 19.8809H19.9629C21.8613 19.8809 22.8633 18.8965 22.8633 17.0156V7.78711C22.8633 5.90625 21.8613 4.92188 19.9629 4.92188H17.625C16.9395 4.92188 16.7197 4.80762 16.2891 4.35938L15.5947 3.6123C15.1377 3.12891 14.6719 2.8916 13.7754 2.8916H10.1631C9.2666 2.8916 8.80078 3.12891 8.34375 3.6123L7.64941 4.35938C7.22754 4.79883 6.99902 4.92188 6.31348 4.92188H4.01953C2.12109 4.92188 1.12793 5.90625 1.12793 7.78711V17.0156C1.12793 18.8965 2.12109 19.8809 4.01953 19.8809ZM8.88867 9.12305C8.58984 8.77148 8.69531 8.29688 9.14355 7.9541C9.88184 7.36523 10.9189 7.00488 11.9912 7.00488C14.4697 7.00488 16.4209 8.65723 16.8516 11.0391H17.6777C18.1172 11.0391 18.2314 11.4609 17.9766 11.8125L16.5615 13.7725C16.3066 14.1328 15.8672 14.1152 15.6123 13.7725L14.1885 11.8125C13.9248 11.4697 14.0479 11.0391 14.4873 11.0391H15.3662C14.9707 9.58887 13.626 8.5166 11.9912 8.5166C11.2178 8.5166 10.6201 8.75391 10.0225 9.21973C9.61816 9.50098 9.19629 9.4834 8.88867 9.12305ZM5.98828 11.9619L7.39453 10.0107C7.6582 9.65039 8.08887 9.66797 8.34375 10.0107L9.77637 11.9619C10.0312 12.3047 9.9082 12.7354 9.46875 12.7354H8.63379C9.0293 14.1855 10.374 15.2578 12.0088 15.2578C12.7822 15.2578 13.3799 15.0205 13.9775 14.5635C14.3818 14.2734 14.8125 14.2998 15.1113 14.6514C15.4102 15.0029 15.3135 15.4951 14.8564 15.8291C14.1182 16.418 13.0898 16.7695 12.0088 16.7695C9.53906 16.7695 7.5791 15.1172 7.14844 12.7354H6.28711C5.84766 12.7354 5.7334 12.3135 5.98828 11.9619Z" fill="#1C1C1E"/>
</g>
<defs>
<clipPath id="clip0_10_375">
<rect width="24" height="24" fill="white"/>
</clipPath>
</defs>
</svg>
