<svg width="24" height="24" viewBox="0 0 24 24" fill="none" xmlns="http://www.w3.org/2000/svg">
<g clip-path="url(#clip0_10_376)">
<path d="M4.01953 19.8809H19.9629C21.8613 19.8809 22.8633 18.8965 22.8633 17.0156V7.78711C22.8633 5.90625 21.8613 4.92188 19.9629 4.92188H17.5635C16.8779 4.92188 16.6582 4.80762 16.2275 4.35938L15.5332 3.6123C15.0762 3.12891 14.6104 2.8916 13.7139 2.8916H10.2246C9.32812 2.8916 8.87109 3.12891 8.40527 3.6123L7.71094 4.35938C7.28906 4.79883 7.06055 4.92188 6.375 4.92188H4.01953C2.12109 4.92188 1.12793 5.90625 1.12793 7.78711V17.0156C1.12793 18.8965 2.12109 19.8809 4.01953 19.8809ZM4.13379 18.1318C3.33398 18.1318 2.87695 17.71 2.87695 16.8574V7.94531C2.87695 7.10156 3.33398 6.67969 4.13379 6.67969H6.88477C7.67578 6.67969 8.08008 6.53906 8.52832 6.05566L9.19629 5.31738C9.68848 4.78125 9.95215 4.64062 10.7256 4.64062H13.2129C13.9863 4.64062 14.25 4.78125 14.7334 5.30859L15.4102 6.05566C15.8584 6.53906 16.2627 6.67969 17.0537 6.67969H19.8486C20.6572 6.67969 21.1055 7.10156 21.1055 7.94531V16.8574C21.1055 17.71 20.6572 18.1318 19.8486 18.1318H4.13379ZM12 7.18945C10.9629 7.18945 9.96094 7.54102 9.25781 8.10352C8.82715 8.4375 8.72168 8.89453 9.01172 9.22852C9.29297 9.5625 9.70605 9.58008 10.084 9.30762C10.6641 8.85938 11.2529 8.63965 12 8.63965C13.5732 8.63965 14.8828 9.67676 15.2607 11.0742H14.3994C13.9863 11.0742 13.8633 11.4785 14.1094 11.8125L15.4893 13.6934C15.7266 14.0273 16.1484 14.0449 16.3945 13.6934L17.748 11.8125C17.9941 11.4785 17.8799 11.0742 17.458 11.0742H16.667C16.2627 8.78906 14.373 7.18945 12 7.18945ZM6.50684 12.7002H7.33301C7.74609 14.9854 9.63574 16.585 12.0088 16.585C13.0459 16.585 14.0391 16.2422 14.751 15.6709C15.1816 15.3457 15.2871 14.8799 14.9971 14.5459C14.7158 14.2119 14.3027 14.1943 13.916 14.4668C13.3359 14.9062 12.7559 15.1348 12.0088 15.1348C10.4355 15.1348 9.12598 14.0977 8.73926 12.7002H9.56543C9.97852 12.7002 10.1016 12.2959 9.85547 11.9619L8.48438 10.0811C8.23828 9.74707 7.8252 9.73828 7.57031 10.0811L6.2168 11.9619C5.97949 12.2959 6.08496 12.7002 6.50684 12.7002Z" fill="#1C1C1E"/>
</g>
<defs>
<clipPath id="clip0_10_376">
<rect width="24" height="24" fill="white"/>
</clipPath>
</defs>
</svg>
