<svg width="24" height="24" viewBox="0 0 24 24" fill="none" xmlns="http://www.w3.org/2000/svg">
<g clip-path="url(#clip0_10_693)">
<path d="M2.8418 19.9424C2.8418 21.8496 3.82617 22.834 5.70703 22.834H13.9336C15.8145 22.834 16.7988 21.8408 16.7988 19.9424V18.3164H18.293C20.1738 18.3164 21.1582 17.3232 21.1582 15.4248V3.35742C21.1582 1.4502 20.1738 0.457031 18.293 0.457031H10.0664C8.18555 0.457031 7.20117 1.4502 7.20117 3.35742V4.97461H5.70703C3.82617 4.97461 2.8418 5.96777 2.8418 7.875V19.9424ZM11.5078 3.05859V2.85645C11.5078 2.59277 11.7012 2.29395 12.1055 2.29395H16.2451C16.6582 2.29395 16.8428 2.59277 16.8428 2.85645V3.05859C16.8428 3.34863 16.6406 3.6123 16.2451 3.6123H12.1055C11.7188 3.6123 11.5078 3.34863 11.5078 3.05859ZM4.59082 19.8281V7.98926C4.59082 7.17188 5.0127 6.73242 5.85645 6.73242H13.7754C14.6279 6.73242 15.0498 7.17188 15.0498 7.98926V19.8281C15.0498 20.6367 14.6279 21.085 13.7754 21.085H5.85645C5.0127 21.085 4.59082 20.6367 4.59082 19.8281ZM7.47363 11.7773C7.69336 12.0498 8.01855 12.0586 8.32617 11.8389C8.79199 11.4961 9.24902 11.3115 9.84668 11.3115C11.0947 11.3115 12.1318 12.1377 12.4395 13.2451H11.7627C11.4287 13.2451 11.3408 13.5703 11.5254 13.834L12.624 15.3281C12.8086 15.5918 13.1426 15.6094 13.3359 15.3281L14.417 13.834C14.6104 13.5703 14.5225 13.2451 14.1885 13.2451H13.5557C13.2305 11.4258 11.7363 10.1602 9.84668 10.1602C9.02051 10.1602 8.22949 10.4414 7.6582 10.8896C7.31543 11.1533 7.24512 11.5137 7.47363 11.7773ZM5.25 13.957C5.05664 14.2119 5.14453 14.5371 5.47852 14.5371H6.1377C6.47168 16.3652 7.96582 17.6221 9.85547 17.6221C10.6816 17.6221 11.4727 17.3496 12.0352 16.9014C12.3779 16.6377 12.4482 16.2686 12.2285 16.0049C12 15.7324 11.6748 15.7324 11.3672 15.9434C10.9102 16.2949 10.4531 16.4795 9.85547 16.4795C8.59863 16.4795 7.56152 15.6533 7.2627 14.5371H7.9043C8.23828 14.5371 8.32617 14.2119 8.1416 13.957L7.04297 12.4541C6.8584 12.1992 6.52441 12.1816 6.32227 12.4541L5.25 13.957Z" fill="#1C1C1E"/>
</g>
<defs>
<clipPath id="clip0_10_693">
<rect width="24" height="24" fill="white"/>
</clipPath>
</defs>
</svg>
