<svg width="24" height="24" viewBox="0 0 24 24" fill="none" xmlns="http://www.w3.org/2000/svg">
<g clip-path="url(#clip0_10_545)">
<path d="M2.85059 7.62012H21.1494C22.1514 7.62012 22.6963 7.02246 22.6963 6.00293V5.07129C22.6963 4.05176 22.1514 3.4541 21.1494 3.4541H2.85059C1.88379 3.4541 1.29492 4.05176 1.29492 5.07129V6.00293C1.29492 7.02246 1.83984 7.62012 2.85059 7.62012ZM7.32422 19.8809H16.667C18.4775 19.8809 19.2158 18.8965 19.4971 17.1035L20.7451 8.91211H3.25488L4.49414 17.1035C4.77539 18.9053 5.51367 19.8809 7.32422 19.8809ZM12 17.9209C11.5254 17.9209 11.1299 17.5518 11.1299 17.0859V14.1504L11.2002 12.7178L10.5234 13.4297L9.64453 14.3262C9.48633 14.4844 9.2666 14.5898 9.05566 14.5898C8.60742 14.5898 8.27344 14.2734 8.27344 13.834C8.27344 13.5791 8.36133 13.4121 8.55469 13.2363L11.3408 10.6611C11.5605 10.459 11.7539 10.3711 12 10.3711C12.2373 10.3711 12.4307 10.459 12.6504 10.6611L15.4365 13.2363C15.6299 13.4121 15.7178 13.5791 15.7178 13.834C15.7178 14.2734 15.375 14.5898 14.9268 14.5898C14.7246 14.5898 14.5049 14.4844 14.3555 14.3262L13.4678 13.4297L12.791 12.7178L12.8613 14.1504V17.0859C12.8613 17.5518 12.4658 17.9209 12 17.9209Z" fill="#1C1C1E"/>
</g>
<defs>
<clipPath id="clip0_10_545">
<rect width="24" height="24" fill="white"/>
</clipPath>
</defs>
</svg>
