<svg width="24" height="24" viewBox="0 0 24 24" fill="none" xmlns="http://www.w3.org/2000/svg">
<g clip-path="url(#clip0_10_494)">
<path d="M7.31543 21.1816H16.6846C18.5742 21.1816 19.5498 20.1885 19.5498 18.29V10.4238H12.958C11.8594 10.4238 11.332 9.89648 11.332 8.79785V2.13574H7.31543C5.43457 2.13574 4.4502 3.12891 4.4502 5.03613V18.29C4.4502 20.1885 5.43457 21.1816 7.31543 21.1816ZM13.125 9.14062H19.4619C19.4092 8.73633 19.1191 8.3584 18.6621 7.89258L13.8545 3.02344C13.415 2.5752 13.0195 2.27637 12.6152 2.22363V8.63086C12.624 8.97363 12.791 9.14062 13.125 9.14062ZM12 18.9053C11.5957 18.9053 11.2617 18.5977 11.2617 18.2021V15.3018L11.332 13.9922L10.6641 14.6777L9.94336 15.4072C9.81152 15.5391 9.62695 15.627 9.45117 15.627C9.06445 15.627 8.77441 15.3633 8.77441 14.9854C8.77441 14.7744 8.8623 14.6162 9.01172 14.4756L11.4375 12.252C11.6309 12.0762 11.7979 11.9971 12 11.9971C12.2109 11.9971 12.3691 12.0762 12.5713 12.252L14.9883 14.4756C15.1377 14.6162 15.2256 14.7744 15.2256 14.9854C15.2256 15.3633 14.9355 15.627 14.5488 15.627C14.3643 15.627 14.1885 15.5391 14.0566 15.4072L13.3359 14.6777L12.6768 13.9922L12.7383 15.3018V18.2021C12.7383 18.5977 12.4043 18.9053 12 18.9053Z" fill="#1C1C1E"/>
</g>
<defs>
<clipPath id="clip0_10_494">
<rect width="24" height="24" fill="white"/>
</clipPath>
</defs>
</svg>
