<svg width="24" height="24" viewBox="0 0 24 24" fill="none" xmlns="http://www.w3.org/2000/svg">
<g clip-path="url(#clip0_10_553)">
<path d="M7.32422 19.8809H16.667C18.4775 19.8809 19.2861 18.9756 19.5586 17.1738L20.8418 8.66602H20.8682C22.0723 8.66602 22.7754 7.89258 22.7754 6.69727V5.42285C22.7754 4.22754 22.0723 3.4541 20.8682 3.4541H3.13184C1.97168 3.4541 1.22461 4.22754 1.22461 5.42285V6.69727C1.22461 7.89258 1.92773 8.66602 3.13184 8.66602H3.14941L4.43262 17.1738C4.71387 18.9844 5.51367 19.8809 7.32422 19.8809ZM3.46582 7.0752C3.06152 7.0752 2.88574 6.89062 2.88574 6.49512V5.625C2.88574 5.2207 3.06152 5.04492 3.46582 5.04492H20.543C20.9385 5.04492 21.1055 5.2207 21.1055 5.625V6.49512C21.1055 6.89062 20.9385 7.0752 20.543 7.0752H3.46582ZM7.4209 18.2021C6.68262 18.2021 6.27832 17.877 6.15527 17.0596L4.87207 8.66602H19.1191L17.8359 17.0596C17.7129 17.877 17.3086 18.2021 16.5791 18.2021H7.4209ZM12.791 16.2334V13.2979L12.7207 11.9004L13.4062 12.6211L14.2939 13.5088C14.4258 13.6494 14.6279 13.7549 14.8213 13.7549C15.2256 13.7549 15.5332 13.4648 15.5332 13.0605C15.5332 12.832 15.4541 12.6738 15.2783 12.5156L12.6064 10.0459C12.3955 9.85254 12.2197 9.76465 12 9.76465C11.7715 9.76465 11.5957 9.85254 11.3936 10.0459L8.71289 12.5156C8.5459 12.6738 8.45801 12.832 8.45801 13.0605C8.45801 13.4648 8.75684 13.7549 9.16992 13.7549C9.36328 13.7549 9.56543 13.6494 9.70605 13.5088L10.5938 12.6211L11.2705 11.9004L11.2002 13.2979V16.2334C11.2002 16.6553 11.5605 16.9893 12 16.9893C12.4307 16.9893 12.791 16.6553 12.791 16.2334Z" fill="#1C1C1E"/>
</g>
<defs>
<clipPath id="clip0_10_553">
<rect width="24" height="24" fill="white"/>
</clipPath>
</defs>
</svg>
