<svg width="24" height="24" viewBox="0 0 24 24" fill="none" xmlns="http://www.w3.org/2000/svg">
<g clip-path="url(#clip0_10_486)">
<path d="M7.31543 21.1816H16.6846C18.5742 21.1816 19.5498 20.1885 19.5498 18.29V10.4238H12.958C11.8594 10.4238 11.332 9.89648 11.332 8.79785V2.13574H7.31543C5.43457 2.13574 4.4502 3.12891 4.4502 5.03613V18.29C4.4502 20.1885 5.43457 21.1816 7.31543 21.1816ZM13.125 9.14062H19.4619C19.4092 8.73633 19.1191 8.3584 18.6621 7.89258L13.8545 3.02344C13.415 2.5752 13.0195 2.27637 12.6152 2.22363V8.63086C12.624 8.97363 12.791 9.14062 13.125 9.14062ZM12 12.085C12.4043 12.085 12.7383 12.3926 12.7383 12.7969V15.6973L12.6768 17.0068L13.3359 16.3213L14.0566 15.5918C14.1885 15.46 14.3643 15.3633 14.5488 15.3633C14.9355 15.3633 15.2256 15.6357 15.2256 16.0137C15.2256 16.2158 15.1377 16.3828 14.9883 16.5146L12.5713 18.7471C12.3691 18.9229 12.2109 19.002 12 19.002C11.7979 19.002 11.6309 18.9229 11.4375 18.7471L9.01172 16.5146C8.8623 16.3828 8.77441 16.2158 8.77441 16.0137C8.77441 15.6357 9.06445 15.3633 9.45117 15.3633C9.62695 15.3633 9.81152 15.46 9.94336 15.5918L10.6641 16.3213L11.332 17.0068L11.2617 15.6973V12.7969C11.2617 12.3926 11.5957 12.085 12 12.085Z" fill="#1C1C1E"/>
</g>
<defs>
<clipPath id="clip0_10_486">
<rect width="24" height="24" fill="white"/>
</clipPath>
</defs>
</svg>
