<svg width="24" height="24" viewBox="0 0 24 24" fill="none" xmlns="http://www.w3.org/2000/svg">
<g clip-path="url(#clip0_10_469)">
<path d="M2.8418 19.9424C2.8418 21.8496 3.82617 22.834 5.70703 22.834H13.9336C15.8145 22.834 16.7988 21.8408 16.7988 19.9424V18.3164H18.293C20.1738 18.3164 21.1582 17.3232 21.1582 15.4248V3.35742C21.1582 1.4502 20.1738 0.457031 18.293 0.457031H10.0664C8.18555 0.457031 7.20117 1.4502 7.20117 3.35742V4.97461H5.70703C3.82617 4.97461 2.8418 5.96777 2.8418 7.875V19.9424ZM11.5078 3.05859V2.85645C11.5078 2.59277 11.7012 2.29395 12.1055 2.29395H16.2451C16.6582 2.29395 16.8428 2.59277 16.8428 2.85645V3.05859C16.8428 3.34863 16.6406 3.6123 16.2451 3.6123H12.1055C11.7188 3.6123 11.5078 3.34863 11.5078 3.05859ZM4.59082 19.8281V7.98926C4.59082 7.17188 5.0127 6.73242 5.85645 6.73242H13.7754C14.6279 6.73242 15.0498 7.17188 15.0498 7.98926V19.8281C15.0498 20.6367 14.6279 21.085 13.7754 21.085H5.85645C5.0127 21.085 4.59082 20.6367 4.59082 19.8281ZM6.0498 13.9043C6.0498 14.2822 6.31348 14.5547 6.67383 14.5547H10.1543L11.666 14.4932L10.8223 15.1787L9.9873 15.9785C9.86426 16.084 9.79395 16.2334 9.79395 16.4092C9.79395 16.7607 10.04 17.0156 10.3828 17.0156C10.5586 17.0156 10.6992 16.9541 10.8223 16.8398L13.2656 14.4229C13.4238 14.2734 13.5117 14.1152 13.5117 13.9043C13.5117 13.7109 13.4326 13.5615 13.2656 13.3945L10.8223 10.9775C10.6992 10.8545 10.5586 10.8018 10.3828 10.8018C10.04 10.8018 9.79395 11.0566 9.79395 11.3994C9.79395 11.5752 9.87305 11.7334 9.9873 11.8389L10.8135 12.6387L11.6572 13.3242L10.1543 13.2627H6.67383C6.31348 13.2627 6.0498 13.5352 6.0498 13.9043Z" fill="#1C1C1E"/>
</g>
<defs>
<clipPath id="clip0_10_469">
<rect width="24" height="24" fill="white"/>
</clipPath>
</defs>
</svg>
