<svg width="24" height="24" viewBox="0 0 24 24" fill="none" xmlns="http://www.w3.org/2000/svg">
<g clip-path="url(#clip0_10_482)">
<path d="M7.31543 21.1816H16.6846C18.5742 21.1816 19.5498 20.1885 19.5498 18.29V10.3096C19.5498 9.0791 19.3916 8.5166 18.627 7.73438L14.0303 3.06738C13.2832 2.31152 12.668 2.13574 11.5605 2.13574H7.31543C5.43457 2.13574 4.4502 3.12891 4.4502 5.03613V18.29C4.4502 20.1885 5.43457 21.1816 7.31543 21.1816ZM7.46484 19.4238C6.62109 19.4238 6.19922 18.9844 6.19922 18.1758V5.1416C6.19922 4.3418 6.62109 3.89355 7.47363 3.89355H11.2002V8.6748C11.2002 9.94922 11.8242 10.5645 13.0898 10.5645H17.8008V18.1758C17.8008 18.9844 17.3789 19.4238 16.5264 19.4238H7.46484ZM13.2568 9.02637C12.8877 9.02637 12.7295 8.86816 12.7295 8.50781V4.12207L17.5635 9.02637H13.2568ZM12.7734 17.6221V14.9678L12.7031 13.6055L13.3799 14.3174L14.0391 14.9941C14.1709 15.1348 14.373 15.2227 14.5576 15.2227C14.9619 15.2227 15.2607 14.9414 15.2607 14.5547C15.2607 14.3262 15.1729 14.168 15.0059 14.0186L12.5889 11.8037C12.3867 11.6191 12.2197 11.5312 12 11.5312C11.7803 11.5312 11.6133 11.6191 11.4111 11.8037L8.99414 14.0186C8.82715 14.168 8.73926 14.3262 8.73926 14.5547C8.73926 14.9414 9.03809 15.2227 9.44238 15.2227C9.62695 15.2227 9.8291 15.1348 9.96094 14.9941L10.6201 14.3174L11.2969 13.6055L11.2266 14.9678V17.6221C11.2266 18.0439 11.5781 18.3691 12 18.3691C12.4219 18.3691 12.7734 18.0439 12.7734 17.6221Z" fill="#1C1C1E"/>
</g>
<defs>
<clipPath id="clip0_10_482">
<rect width="24" height="24" fill="white"/>
</clipPath>
</defs>
</svg>
