<svg width="24" height="24" viewBox="0 0 24 24" fill="none" xmlns="http://www.w3.org/2000/svg">
<g clip-path="url(#clip0_10_472)">
<path d="M7.31543 21.1816H16.6846C18.5742 21.1816 19.5498 20.1885 19.5498 18.29V10.3096C19.5498 9.0791 19.3916 8.5166 18.627 7.73438L14.0303 3.06738C13.2832 2.31152 12.668 2.13574 11.5605 2.13574H7.31543C5.43457 2.13574 4.4502 3.12891 4.4502 5.03613V18.29C4.4502 20.1885 5.43457 21.1816 7.31543 21.1816ZM7.46484 19.4238C6.62109 19.4238 6.19922 18.9844 6.19922 18.1758V5.1416C6.19922 4.3418 6.62109 3.89355 7.47363 3.89355H11.2002V8.6748C11.2002 9.94922 11.8242 10.5645 13.0898 10.5645H17.8008V18.1758C17.8008 18.9844 17.3789 19.4238 16.5264 19.4238H7.46484ZM13.2568 9.02637C12.8877 9.02637 12.7295 8.86816 12.7295 8.50781V4.12207L17.5635 9.02637H13.2568ZM12.7734 12.2783C12.7734 11.8477 12.4219 11.5312 12 11.5312C11.5781 11.5312 11.2266 11.8477 11.2266 12.2783V14.9326L11.2969 16.2861L10.6201 15.583L9.96094 14.9062C9.8291 14.7656 9.62695 14.6689 9.44238 14.6689C9.03809 14.6689 8.73926 14.959 8.73926 15.3457C8.73926 15.5654 8.82715 15.7324 8.99414 15.8818L11.4111 18.0967C11.6133 18.2812 11.7803 18.3691 12 18.3691C12.2197 18.3691 12.3867 18.2812 12.5889 18.0967L15.0059 15.8818C15.1729 15.7324 15.2607 15.5654 15.2607 15.3457C15.2607 14.959 14.9619 14.6689 14.5576 14.6689C14.373 14.6689 14.1709 14.7656 14.0391 14.9062L13.3799 15.583L12.7031 16.2861L12.7734 14.9326V12.2783Z" fill="#1C1C1E"/>
</g>
<defs>
<clipPath id="clip0_10_472">
<rect width="24" height="24" fill="white"/>
</clipPath>
</defs>
</svg>
