<svg width="24" height="24" viewBox="0 0 24 24" fill="none" xmlns="http://www.w3.org/2000/svg">
<g clip-path="url(#clip0_10_463)">
<path d="M2.8418 19.9424C2.8418 21.8496 3.82617 22.834 5.70703 22.834H13.9336C15.8145 22.834 16.7988 21.8408 16.7988 19.9424V18.3164H18.293C20.1738 18.3164 21.1582 17.3232 21.1582 15.4248V3.35742C21.1582 1.4502 20.1738 0.457031 18.293 0.457031H10.0664C8.18555 0.457031 7.20117 1.4502 7.20117 3.35742V4.97461H5.70703C3.82617 4.97461 2.8418 5.96777 2.8418 7.875V19.9424ZM11.5078 3.05859V2.85645C11.5078 2.59277 11.7012 2.29395 12.1055 2.29395H16.2451C16.6582 2.29395 16.8428 2.59277 16.8428 2.85645V3.05859C16.8428 3.34863 16.6406 3.6123 16.2451 3.6123H12.1055C11.7188 3.6123 11.5078 3.34863 11.5078 3.05859ZM4.59082 19.8281V7.98926C4.59082 7.17188 5.0127 6.73242 5.85645 6.73242H13.7754C14.6279 6.73242 15.0498 7.17188 15.0498 7.98926V19.8281C15.0498 20.6367 14.6279 21.085 13.7754 21.085H5.85645C5.0127 21.085 4.59082 20.6367 4.59082 19.8281ZM9.82031 17.6748C10.1982 17.6748 10.4707 17.4111 10.4707 17.0508V13.4561L10.4092 11.9443L11.0947 12.7881L11.8945 13.6143C12 13.7373 12.1494 13.8076 12.3252 13.8076C12.6768 13.8076 12.9316 13.5615 12.9316 13.2275C12.9316 13.0518 12.8701 12.9111 12.7559 12.7881L10.3389 10.3359C10.1895 10.1777 10.0312 10.0898 9.82031 10.0898C9.62695 10.0898 9.47754 10.1689 9.31055 10.3359L6.89355 12.7881C6.77051 12.9111 6.71777 13.0518 6.71777 13.2275C6.71777 13.5615 6.97266 13.8076 7.31543 13.8076C7.49121 13.8076 7.64941 13.7285 7.75488 13.6143L8.55469 12.7969L9.24023 11.9443L9.16992 13.4561V17.0508C9.16992 17.4111 9.45117 17.6748 9.82031 17.6748Z" fill="#1C1C1E"/>
</g>
<defs>
<clipPath id="clip0_10_463">
<rect width="24" height="24" fill="white"/>
</clipPath>
</defs>
</svg>
