<svg width="24" height="24" viewBox="0 0 24 24" fill="none" xmlns="http://www.w3.org/2000/svg">
<g clip-path="url(#clip0_10_622)">
<path d="M4.13379 19.4766C6.06738 21.4102 8.85352 21.3574 10.9277 19.2832L13.5908 16.6113L16.9922 13.2012L19.6641 10.5469C21.7383 8.47266 21.7822 5.68652 19.8574 3.75293C17.9326 1.82812 15.1465 1.88086 13.0723 3.94629L10.4092 6.61816L7.00781 10.0283L4.33594 12.6826C2.26172 14.7656 2.21777 17.5518 4.13379 19.4766ZM17.001 9.87891L13.7402 6.61816C13.5732 6.45117 13.4062 6.31055 13.2393 6.1875L14.2588 5.16797C15.6211 3.80566 17.4229 3.58594 18.7324 4.88672C20.042 6.1875 19.8135 7.98926 18.4424 9.35156L17.4229 10.3711C17.3086 10.2129 17.168 10.0459 17.001 9.87891ZM12.7119 7.83105L15.7881 10.9072C16.21 11.3291 16.1748 11.6367 15.7266 12.0762L12.457 15.3457C12.0176 15.7852 11.71 15.8291 11.2881 15.4072L8.21191 12.3223C7.79004 11.9004 7.83398 11.5928 8.27344 11.1533L11.543 7.89258C11.9824 7.45312 12.29 7.40918 12.7119 7.83105ZM11.9912 10.626C12.4131 10.626 12.7207 10.292 12.7295 9.89648C12.7383 9.50098 12.4043 9.16699 12 9.16699C11.5957 9.16699 11.2793 9.50098 11.2793 9.90527C11.2793 10.2744 11.6045 10.626 11.9912 10.626ZM13.7051 12.3311C14.1094 12.3311 14.4346 12.0059 14.4258 11.6016C14.4258 11.2148 14.1182 10.8809 13.6963 10.8809C13.3096 10.8809 12.9844 11.2236 12.9844 11.5928C12.9844 12.0059 13.3008 12.3311 13.7051 12.3311ZM10.1895 12.2256C10.5146 12.2871 10.8311 12.0586 10.9014 11.751C10.9629 11.4082 10.7432 11.0654 10.418 11.0039C10.0752 10.9424 9.75 11.1621 9.68848 11.4961C9.61816 11.8213 9.8291 12.1553 10.1895 12.2256ZM11.877 13.9307C12.2109 14.001 12.5361 13.7812 12.6064 13.4297C12.668 13.1221 12.4482 12.7881 12.123 12.7178C11.7715 12.6562 11.4551 12.8672 11.3848 13.2012C11.3145 13.5352 11.5342 13.8691 11.877 13.9307ZM5.26758 18.3516C3.95801 17.0508 4.18652 15.2402 5.55762 13.8779L6.56836 12.8584C6.69141 13.0254 6.83203 13.1836 6.99902 13.3506L10.2598 16.6201C10.4268 16.7871 10.5938 16.9277 10.7607 17.042L9.74121 18.0615C8.37891 19.4238 6.57715 19.6523 5.26758 18.3516Z" fill="#1C1C1E"/>
</g>
<defs>
<clipPath id="clip0_10_622">
<rect width="24" height="24" fill="white"/>
</clipPath>
</defs>
</svg>
