<svg width="24" height="24" viewBox="0 0 24 24" fill="none" xmlns="http://www.w3.org/2000/svg">
<g clip-path="url(#clip0_10_620)">
<path d="M18.2139 11.9619L19.6465 10.4062C21.668 8.34082 21.6328 5.73926 19.7783 3.86719C17.9238 1.99512 15.3047 1.97754 13.2393 3.99902L11.6836 5.43164C12.5361 5.15039 13.3887 5.41406 14.25 6.27539L17.458 9.4834C18.3281 10.3447 18.4951 11.1094 18.2139 11.9619ZM10.6553 16.0752C11.5518 16.9805 12.4131 16.998 13.3359 16.0752L16.4385 12.9727C17.3613 12.0498 17.3438 11.1973 16.4473 10.3008L13.3447 7.19824C12.4482 6.30176 11.5957 6.28418 10.6729 7.20703L7.56152 10.3096C6.64746 11.2324 6.66504 12.0938 7.56152 12.9902L10.6553 16.0752ZM11.4111 10.3623C11.0684 10.0195 11.0684 9.4834 11.3936 9.1582C11.7363 8.81543 12.2637 8.81543 12.6064 9.1582C12.9316 9.4834 12.9492 10.0107 12.5889 10.3623C12.2725 10.6787 11.7275 10.6875 11.4111 10.3623ZM9.5127 12.252C9.16992 11.9092 9.16992 11.3818 9.5127 11.0391C9.84668 10.6963 10.374 10.7051 10.7168 11.0566C11.0332 11.373 11.0508 11.9092 10.7168 12.2344C10.3652 12.5947 9.83789 12.5771 9.5127 12.252ZM14.4873 12.252C14.1621 12.5771 13.626 12.5771 13.2832 12.2344C12.958 11.918 12.958 11.373 13.2832 11.0566C13.6348 10.6963 14.1621 10.7051 14.4873 11.0391C14.8301 11.3818 14.8301 11.9092 14.4873 12.252ZM4.22168 19.4238C6.06738 21.3047 8.69531 21.3223 10.7607 19.2832L12.2988 17.8506C11.4551 18.1318 10.6289 17.8945 9.76758 17.0332L6.55957 13.8252C5.68945 12.9551 5.51367 12.1904 5.79492 11.3379L4.35352 12.8848C2.32324 14.9414 2.36719 17.543 4.22168 19.4238ZM11.3936 14.1328C11.0684 13.8076 11.0508 13.2803 11.4111 12.9287C11.7363 12.5947 12.2725 12.6035 12.5889 12.9287C12.9316 13.2715 12.9492 13.8076 12.6064 14.1328C12.2549 14.4756 11.7363 14.4756 11.3936 14.1328Z" fill="#1C1C1E"/>
</g>
<defs>
<clipPath id="clip0_10_620">
<rect width="24" height="24" fill="white"/>
</clipPath>
</defs>
</svg>
