<svg width="24" height="24" viewBox="0 0 24 24" fill="none" xmlns="http://www.w3.org/2000/svg">
<g clip-path="url(#clip0_10_348)">
<path d="M11.9912 20.7422C16.9746 20.7422 21.0879 16.6289 21.0879 11.6543C21.0879 6.67969 16.9658 2.56641 11.9824 2.56641C7.00781 2.56641 2.90332 6.67969 2.90332 11.6543C2.90332 16.6289 7.0166 20.7422 11.9912 20.7422ZM11.9912 18.9316C7.95703 18.9316 4.73145 15.6885 4.73145 11.6543C4.73145 7.62012 7.95703 4.38574 11.9824 4.38574C16.0166 4.38574 19.2598 7.62012 19.2686 11.6543C19.2773 15.6885 16.0254 18.9316 11.9912 18.9316ZM11.9736 13.623C13.0635 13.623 13.9424 12.7354 13.9424 11.6455C13.9424 11.3994 13.8984 11.1621 13.8193 10.9424L16.3945 8.3584C16.7021 8.05957 16.7021 7.55859 16.3945 7.25098C16.0869 6.94336 15.5947 6.94336 15.2871 7.25098L12.7119 9.81738C12.4834 9.72949 12.2373 9.67676 11.9736 9.67676C10.8838 9.67676 9.99609 10.5645 9.99609 11.6455C9.99609 11.9092 10.0488 12.1641 10.1455 12.3926L9.33691 13.1924C9.03809 13.5 9.03809 14.001 9.33691 14.3086C9.64453 14.6162 10.1455 14.6162 10.4531 14.3086L11.2617 13.4912C11.4814 13.5791 11.7275 13.623 11.9736 13.623ZM11.9736 12.4277C11.5342 12.4277 11.1914 12.085 11.1914 11.6455C11.1914 11.2148 11.5342 10.8721 11.9736 10.8721C12.4043 10.8721 12.7559 11.2148 12.7559 11.6455C12.7559 12.085 12.4043 12.4277 11.9736 12.4277Z" fill="#1C1C1E"/>
</g>
<defs>
<clipPath id="clip0_10_348">
<rect width="24" height="24" fill="white"/>
</clipPath>
</defs>
</svg>
