<svg width="24" height="24" viewBox="0 0 24 24" fill="none" xmlns="http://www.w3.org/2000/svg">
<g clip-path="url(#clip0_10_643)">
<path d="M2.8418 9.09668H5.14453V7.88379C5.14453 7.03125 5.61035 6.57422 6.47168 6.57422H9.72363C10.585 6.57422 11.0508 7.03125 11.0508 7.88379V9.09668H13.0283V7.88379C13.0283 7.03125 13.4941 6.57422 14.3906 6.57422H17.4756C18.3809 6.57422 18.8467 7.03125 18.8467 7.88379V9.09668H21.1494V6.57422C21.1494 4.9043 20.2529 4.03418 18.6182 4.03418H5.37305C3.73828 4.03418 2.8418 4.9043 2.8418 6.57422V9.09668ZM0.670898 18.4922C0.670898 18.9668 0.978516 19.2656 1.44434 19.2656H1.98926C2.45508 19.2656 2.7627 18.9668 2.7627 18.4922V17.2266C2.86816 17.2529 3.17578 17.2705 3.39551 17.2705H20.5957C20.8154 17.2705 21.123 17.2529 21.2285 17.2266V18.4922C21.2285 18.9668 21.5361 19.2656 22.002 19.2656H22.5469C23.0127 19.2656 23.3203 18.9668 23.3203 18.4922V13.1484C23.3203 11.3994 22.3535 10.4414 20.5957 10.4414H3.39551C1.6377 10.4414 0.670898 11.3994 0.670898 13.1484V18.4922Z" fill="#1C1C1E"/>
</g>
<defs>
<clipPath id="clip0_10_643">
<rect width="24" height="24" fill="white"/>
</clipPath>
</defs>
</svg>
