<svg width="24" height="24" viewBox="0 0 24 24" fill="none" xmlns="http://www.w3.org/2000/svg">
<g clip-path="url(#clip0_10_396)">
<path d="M11.9824 2.34668C10.6816 2.34668 9.72363 3.24316 9.36328 4.40332C8.91504 4.56152 8.51074 4.77246 8.16797 5.04492L20.1475 17.042C20.3584 16.8486 20.4639 16.5674 20.4639 16.2334C20.4639 15.3018 19.6201 14.502 18.8291 13.7461C18.2139 13.1396 18.0645 11.874 17.9502 10.7051C17.8184 7.48828 16.8691 5.2207 14.6016 4.40332C14.2324 3.24316 13.2744 2.34668 11.9824 2.34668ZM19.7695 20.1885C20.042 20.4697 20.499 20.4697 20.7627 20.1885C21.0264 19.916 21.0352 19.4766 20.7627 19.2041L4.78418 3.23438C4.51172 2.96191 4.06348 2.96191 3.79102 3.23438C3.51855 3.49805 3.51855 3.96387 3.79102 4.22754L19.7695 20.1885ZM4.95117 17.4639H15.4893L6.2959 8.26172C6.12891 8.99121 6.03223 9.7998 6.00586 10.7051C5.8916 11.874 5.75098 13.1396 5.12695 13.7461C4.33594 14.502 3.49219 15.3018 3.49219 16.2334C3.49219 16.9717 4.0459 17.4639 4.95117 17.4639ZM11.9824 21.085C13.5381 21.085 14.6719 19.9688 14.7861 18.6943H9.16992C9.28418 19.9688 10.4268 21.085 11.9824 21.085Z" fill="#1C1C1E"/>
</g>
<defs>
<clipPath id="clip0_10_396">
<rect width="24" height="24" fill="white"/>
</clipPath>
</defs>
</svg>
