<svg width="24" height="24" viewBox="0 0 24 24" fill="none" xmlns="http://www.w3.org/2000/svg">
<g clip-path="url(#clip0_10_397)">
<path d="M8.15918 5.05371L9.41602 6.31055C9.69727 6.1084 10.0049 5.97656 10.3301 5.88867C10.5498 5.82715 10.6729 5.72168 10.6904 5.48438C10.7344 4.59668 11.2266 3.99902 11.9912 3.99902C12.7646 3.99902 13.2568 4.59668 13.3008 5.48438C13.3184 5.72168 13.4414 5.82715 13.6523 5.88867C15.085 6.27539 16.1924 7.49707 16.2803 11.1621C16.3418 12.1729 16.4297 12.8584 16.6934 13.4824L20.209 17.0684C20.4023 16.8574 20.5166 16.5762 20.5166 16.2598C20.5166 15.46 19.7959 14.7656 19.1016 14.1152C18.3633 13.3418 18.126 12.4453 18.0293 11.0039C17.9238 7.4707 16.9219 5.22949 14.6191 4.40332C14.2852 3.23438 13.3008 2.34668 11.9912 2.34668C10.6816 2.34668 9.70605 3.23438 9.37207 4.40332C8.91504 4.56152 8.51074 4.78125 8.15918 5.05371ZM3.79102 4.22754L19.7695 20.1885C20.042 20.4697 20.499 20.4697 20.7627 20.1885C21.0264 19.916 21.0352 19.4766 20.7627 19.2041L4.78418 3.23438C4.51172 2.96191 4.06348 2.96191 3.79102 3.23438C3.51855 3.49805 3.51855 3.96387 3.79102 4.22754ZM11.9912 20.7949C13.8721 20.7949 15.208 19.4414 15.4189 17.8594H15.8848L13.96 15.9434H5.58398V15.8379C5.8125 15.583 6.32227 15.1172 6.75293 14.625C7.33301 13.9658 7.61426 12.8496 7.69336 11.25C7.71094 10.7139 7.75488 10.2305 7.81641 9.79102L6.27832 8.25293C6.10254 8.98242 6.01465 9.82617 5.97949 10.7578C5.86523 11.9971 5.72461 13.21 5.0918 13.8164C4.29199 14.5811 3.43945 15.3809 3.43945 16.3213C3.43945 17.0771 4.00195 17.5781 4.9248 17.5781H8.53711C8.60742 19.2568 9.9873 20.7949 11.9912 20.7949ZM11.9912 19.3799C11.0068 19.3799 10.2861 18.668 10.2246 17.5781H13.7666C13.7051 18.668 12.9844 19.3799 11.9912 19.3799Z" fill="#1C1C1E"/>
</g>
<defs>
<clipPath id="clip0_10_397">
<rect width="24" height="24" fill="white"/>
</clipPath>
</defs>
</svg>
