<svg width="24" height="24" viewBox="0 0 24 24" fill="none" xmlns="http://www.w3.org/2000/svg">
<g clip-path="url(#clip0_10_394)">
<path d="M11.9912 20.7422C16.9746 20.7422 21.0879 16.6289 21.0879 11.6543C21.0879 6.67969 16.9658 2.56641 11.9824 2.56641C7.00781 2.56641 2.90332 6.67969 2.90332 11.6543C2.90332 16.6289 7.0166 20.7422 11.9912 20.7422ZM11.9912 18.9316C7.95703 18.9316 4.73145 15.6885 4.73145 11.6543C4.73145 7.62012 7.95703 4.38574 11.9824 4.38574C16.0166 4.38574 19.2598 7.62012 19.2686 11.6543C19.2773 15.6885 16.0254 18.9316 11.9912 18.9316ZM9.97852 8.02441L16.4033 14.458C16.4824 14.3613 16.5352 14.2383 16.5352 14.0889C16.5352 13.5879 16.0869 13.166 15.6562 12.7529C15.3135 12.4189 15.252 11.7334 15.1904 11.1094C15.1289 9.36914 14.6104 8.14746 13.3887 7.69922C13.1865 7.0752 12.6768 6.60059 11.9824 6.60059C11.2881 6.60059 10.7783 7.0752 10.5762 7.69922C10.3389 7.77832 10.1455 7.88379 9.97852 8.02441ZM15.9375 16.2422C16.1045 16.4092 16.3945 16.4092 16.5615 16.2422C16.7373 16.0664 16.7373 15.7939 16.5615 15.6182L8.02734 7.08398C7.85156 6.9082 7.57031 6.9082 7.39453 7.08398C7.21875 7.25098 7.22754 7.53223 7.39453 7.70801L15.9375 16.2422ZM13.4326 14.7393L8.84473 10.1514C8.79199 10.4854 8.75684 10.8369 8.74805 11.2324C8.7041 11.7861 8.625 12.4277 8.30859 12.7529C7.88672 13.1748 7.4209 13.5879 7.4209 14.0889C7.4209 14.4756 7.71094 14.7393 8.19434 14.7393H13.4326ZM11.9824 16.7871C12.8174 16.7871 13.4326 16.1982 13.4854 15.4863H10.4795C10.5322 16.1982 11.1475 16.7871 11.9824 16.7871Z" fill="#1C1C1E"/>
</g>
<defs>
<clipPath id="clip0_10_394">
<rect width="24" height="24" fill="white"/>
</clipPath>
</defs>
</svg>
