<svg width="24" height="24" viewBox="0 0 24 24" fill="none" xmlns="http://www.w3.org/2000/svg">
<g clip-path="url(#clip0_10_400)">
<path d="M4.96875 17.4639H19.0225C19.9277 17.4639 20.4814 16.9717 20.4814 16.2334C20.4814 15.3018 19.6377 14.502 18.8467 13.7461C18.2227 13.1396 18.082 11.874 17.9678 10.7051C17.8271 7.48828 16.8867 5.2207 14.6104 4.40332C14.25 3.24316 13.292 2.34668 11.9912 2.34668C10.6992 2.34668 9.74121 3.24316 9.37207 4.40332C7.10449 5.2207 6.15527 7.48828 6.02344 10.7051C5.90918 11.874 5.75977 13.1396 5.14453 13.7461C4.35352 14.502 3.50977 15.3018 3.50977 16.2334C3.50977 16.9717 4.06348 17.4639 4.96875 17.4639ZM11.9912 21.085C13.5557 21.085 14.6895 19.9688 14.8037 18.6943H9.1875C9.30176 19.9688 10.4355 21.085 11.9912 21.085Z" fill="#1C1C1E"/>
</g>
<defs>
<clipPath id="clip0_10_400">
<rect width="24" height="24" fill="white"/>
</clipPath>
</defs>
</svg>
