<svg width="24" height="24" viewBox="0 0 24 24" fill="none" xmlns="http://www.w3.org/2000/svg">
<g clip-path="url(#clip0_10_399)">
<path d="M11.9912 20.7422C16.9746 20.7422 21.0879 16.6289 21.0879 11.6543C21.0879 6.67969 16.9658 2.56641 11.9824 2.56641C7.00781 2.56641 2.90332 6.67969 2.90332 11.6543C2.90332 16.6289 7.0166 20.7422 11.9912 20.7422ZM11.9912 18.9316C7.95703 18.9316 4.73145 15.6885 4.73145 11.6543C4.73145 7.62012 7.95703 4.38574 11.9824 4.38574C16.0166 4.38574 19.2598 7.62012 19.2686 11.6543C19.2773 15.6885 16.0254 18.9316 11.9912 18.9316ZM8.20312 14.7393H15.7881C16.2627 14.7393 16.5527 14.4756 16.5527 14.0889C16.5527 13.5879 16.0957 13.166 15.665 12.7529C15.3223 12.4189 15.2695 11.7334 15.208 11.1094C15.1377 9.36914 14.6191 8.14746 13.3975 7.69922C13.1953 7.0752 12.6943 6.60059 11.9912 6.60059C11.2969 6.60059 10.7959 7.0752 10.5938 7.69922C9.36328 8.14746 8.85352 9.36914 8.7832 11.1094C8.72168 11.7334 8.65137 12.4189 8.31738 12.7529C7.9043 13.1748 7.43848 13.5879 7.43848 14.0889C7.43848 14.4756 7.72852 14.7393 8.20312 14.7393ZM11.9912 16.7871C12.835 16.7871 13.4414 16.1982 13.5029 15.4863H10.4883C10.5498 16.1982 11.1562 16.7871 11.9912 16.7871Z" fill="#1C1C1E"/>
</g>
<defs>
<clipPath id="clip0_10_399">
<rect width="24" height="24" fill="white"/>
</clipPath>
</defs>
</svg>
