<svg width="24" height="24" viewBox="0 0 24 24" fill="none" xmlns="http://www.w3.org/2000/svg">
<g clip-path="url(#clip0_10_393)">
<path d="M11.9912 20.7598C16.9746 20.7598 21.0879 16.6465 21.0879 11.6631C21.0879 6.68848 16.9658 2.5752 11.9824 2.5752C7.00781 2.5752 2.90332 6.68848 2.90332 11.6631C2.90332 16.6465 7.0166 20.7598 11.9912 20.7598ZM9.89941 7.88379C10.0664 7.73438 10.2773 7.62012 10.5234 7.54102C10.7344 6.89062 11.2529 6.39844 11.9824 6.39844C12.7031 6.39844 13.2305 6.89062 13.4414 7.54102C14.7158 8.00684 15.252 9.28125 15.3223 11.0918C15.3838 11.7422 15.4453 12.4453 15.8057 12.7881C16.2539 13.2188 16.7197 13.6582 16.7197 14.1768C16.7197 14.335 16.667 14.4668 16.5791 14.5635L9.89941 7.88379ZM16.0869 16.418L7.20996 7.55859C7.04297 7.38281 7.04297 7.08398 7.20996 6.9082C7.40332 6.71484 7.69336 6.71484 7.87793 6.9082L16.7461 15.7676C16.9219 15.9521 16.9219 16.2422 16.7461 16.418C16.5615 16.6025 16.2627 16.6025 16.0869 16.418ZM13.4766 14.8623H8.04492C7.54395 14.8623 7.24512 14.5811 7.24512 14.1855C7.24512 13.6582 7.71973 13.2275 8.15918 12.7881C8.48438 12.4629 8.57227 11.7949 8.61621 11.2236C8.625 10.8193 8.65137 10.4414 8.72168 10.0986L13.4766 14.8623ZM11.9824 16.998C11.1123 16.998 10.4707 16.374 10.418 15.6357H13.5469C13.4854 16.374 12.8525 16.998 11.9824 16.998Z" fill="#1C1C1E"/>
</g>
<defs>
<clipPath id="clip0_10_393">
<rect width="24" height="24" fill="white"/>
</clipPath>
</defs>
</svg>
