<svg width="24" height="24" viewBox="0 0 24 24" fill="none" xmlns="http://www.w3.org/2000/svg">
<g clip-path="url(#clip0_10_398)">
<path d="M11.9912 20.7598C16.9746 20.7598 21.0879 16.6465 21.0879 11.6631C21.0879 6.68848 16.9658 2.5752 11.9824 2.5752C7.00781 2.5752 2.90332 6.68848 2.90332 11.6631C2.90332 16.6465 7.0166 20.7598 11.9912 20.7598ZM8.0625 14.8623C7.56152 14.8623 7.25391 14.5811 7.25391 14.1855C7.25391 13.6582 7.7373 13.2275 8.17676 12.7881C8.51953 12.4453 8.58984 11.7422 8.65137 11.0918C8.72168 9.28125 9.25781 8.00684 10.5322 7.54102C10.7432 6.89062 11.2705 6.39844 11.9912 6.39844C12.7207 6.39844 13.2393 6.89062 13.459 7.54102C14.7246 8.00684 15.2695 9.28125 15.3398 11.0918C15.4014 11.7422 15.4629 12.4453 15.8145 12.7881C16.2627 13.2188 16.7285 13.6582 16.7285 14.1855C16.7285 14.5811 16.4297 14.8623 15.9287 14.8623H8.0625ZM11.9912 16.998C11.1211 16.998 10.4883 16.374 10.4268 15.6357H13.5557C13.5029 16.374 12.8613 16.998 11.9912 16.998Z" fill="#1C1C1E"/>
</g>
<defs>
<clipPath id="clip0_10_398">
<rect width="24" height="24" fill="white"/>
</clipPath>
</defs>
</svg>
