<svg width="24" height="24" viewBox="0 0 24 24" fill="none" xmlns="http://www.w3.org/2000/svg">
<g clip-path="url(#clip0_10_401)">
<path d="M4.9248 17.5781H8.5459C8.60742 19.248 9.97852 20.7949 12 20.7949C14.0127 20.7949 15.3926 19.2656 15.4629 17.5781H19.0752C19.9893 17.5781 20.5518 17.0771 20.5518 16.3213C20.5518 15.3809 19.6992 14.5811 18.8994 13.8164C18.2754 13.21 18.126 11.9971 18.0117 10.7578C17.8887 7.44434 16.9131 5.22949 14.6279 4.40332C14.2852 3.23438 13.3096 2.34668 12 2.34668C10.6904 2.34668 9.71484 3.23438 9.38086 4.40332C7.08691 5.22949 6.12012 7.44434 5.98828 10.7578C5.87402 11.9971 5.72461 13.21 5.10059 13.8164C4.30078 14.5811 3.44824 15.3809 3.44824 16.3213C3.44824 17.0771 4.01074 17.5781 4.9248 17.5781ZM5.59277 15.9434V15.8379C5.82129 15.583 6.33105 15.1172 6.76172 14.625C7.36816 13.9307 7.64941 12.6475 7.7373 10.9775C7.84277 7.45312 8.93262 6.2666 10.3389 5.88867C10.5586 5.82715 10.6729 5.72168 10.6904 5.48438C10.7344 4.59668 11.2354 3.99902 12 3.99902C12.7734 3.99902 13.2656 4.59668 13.3096 5.48438C13.3271 5.72168 13.4502 5.82715 13.6611 5.88867C15.0762 6.2666 16.1572 7.45312 16.2627 10.9775C16.3594 12.6475 16.6406 13.9307 17.2383 14.625C17.6689 15.1172 18.1611 15.583 18.3896 15.8379V15.9434H5.59277ZM12 19.3799C11.0068 19.3799 10.2949 18.668 10.2334 17.5781H13.7754C13.7227 18.6592 13.002 19.3799 12 19.3799Z" fill="#1C1C1E"/>
</g>
<defs>
<clipPath id="clip0_10_401">
<rect width="24" height="24" fill="white"/>
</clipPath>
</defs>
</svg>
