<svg width="24" height="24" viewBox="0 0 24 24" fill="none" xmlns="http://www.w3.org/2000/svg">
<g clip-path="url(#clip0_10_310)">
<path d="M0.591797 16.0049C0.591797 18.5098 2.82422 20.3906 5.5752 20.3906C8.32617 20.3906 10.5498 18.5098 10.5498 16.0049V13.9131C10.9805 13.7637 11.4814 13.667 12 13.667C12.5625 13.667 13.0459 13.7285 13.4414 13.8604V16.0049C13.4414 18.5098 15.665 20.3906 18.416 20.3906C21.167 20.3906 23.3994 18.5098 23.3994 16.0049C23.3994 15.3721 23.2939 14.7393 22.96 13.9482L19.3652 5.49316C18.8379 4.23633 17.7393 3.51562 16.3506 3.51562C14.5928 3.51562 13.4414 4.6582 13.4414 6.36328V7.10156C13.0107 6.9873 12.5186 6.93457 12 6.93457C11.499 6.93457 11.0068 7.00488 10.5498 7.13672V6.36328C10.5498 4.64941 9.39844 3.51562 7.64062 3.51562C6.24316 3.51562 5.15332 4.22754 4.62598 5.48438L1.03125 13.9482C0.697266 14.7393 0.591797 15.3721 0.591797 16.0049ZM10.541 11.2148V9.84375C11.0068 9.70312 11.499 9.63281 12 9.63281C12.5186 9.63281 13.0107 9.68555 13.4414 9.7998V11.1709C13.0459 11.0391 12.5713 10.9775 12 10.9775C11.4814 10.9775 10.9717 11.0654 10.541 11.2148ZM2.2793 16.0049C2.2793 14.3613 3.69434 13.2539 5.5752 13.2539C7.45605 13.2539 8.90625 14.3613 8.90625 16.0049C8.90625 17.6484 7.45605 18.7559 5.5752 18.7559C3.69434 18.7559 2.2793 17.6484 2.2793 16.0049ZM15.085 16.0049C15.085 14.3613 16.5352 13.2539 18.416 13.2539C20.2969 13.2539 21.7031 14.3613 21.7031 16.0049C21.7031 17.6484 20.2969 18.7646 18.416 18.7646C16.5352 18.7646 15.085 17.6484 15.085 16.0049Z" fill="#1C1C1E"/>
</g>
<defs>
<clipPath id="clip0_10_310">
<rect width="24" height="24" fill="white"/>
</clipPath>
</defs>
</svg>
