<svg width="24" height="24" viewBox="0 0 24 24" fill="none" xmlns="http://www.w3.org/2000/svg">
<g clip-path="url(#clip0_10_311)">
<path d="M0.591797 16.0049C0.591797 18.5098 2.82422 20.3906 5.5752 20.3906C8.32617 20.3906 10.5498 18.5098 10.5498 16.0049V13.9131C10.9717 13.7549 11.4814 13.667 12 13.667C12.5889 13.667 13.0547 13.7285 13.4414 13.8604V16.0049C13.4414 18.5098 15.665 20.3906 18.416 20.3906C21.167 20.3906 23.3994 18.5098 23.3994 16.0049C23.3994 15.3721 23.2939 14.7393 22.96 13.9482L19.3652 5.49316C18.8379 4.23633 17.7393 3.51562 16.3506 3.51562C14.5928 3.51562 13.4414 4.6582 13.4414 6.36328V7.08398C13.0107 6.97852 12.5361 6.93457 12 6.93457C11.499 6.93457 11.0068 7.00488 10.5498 7.12793V6.36328C10.5498 4.64941 9.39844 3.51562 7.64062 3.51562C6.24316 3.51562 5.15332 4.22754 4.62598 5.48438L1.03125 13.9482C0.697266 14.7393 0.591797 15.3721 0.591797 16.0049ZM3.61523 12.0586L6.15527 6.09082C6.41895 5.4668 6.94629 5.09766 7.57031 5.09766C8.3877 5.09766 8.91504 5.64258 8.91504 6.45117V12.8496C8.07129 12.085 6.8584 11.6191 5.5752 11.6191C4.89844 11.6191 4.21289 11.7773 3.61523 12.0586ZM20.376 12.0586C19.7783 11.7861 19.0928 11.6279 18.416 11.6279C17.1328 11.6279 15.9199 12.085 15.0762 12.8496V6.45117C15.0762 5.64258 15.6035 5.10645 16.4121 5.10645C17.0449 5.10645 17.5723 5.4668 17.8359 6.09082L20.376 12.0586ZM12 8.2793C12.5889 8.2793 13.0547 8.33203 13.4414 8.46387V9.78223C13.0107 9.67676 12.5361 9.63281 12 9.63281C11.499 9.63281 11.0068 9.70312 10.5498 9.82617V8.5166C10.9717 8.36719 11.4814 8.2793 12 8.2793ZM12 10.9775C12.5889 10.9775 13.0547 11.0303 13.4414 11.1621V12.4717C13.0107 12.375 12.5361 12.3223 12 12.3223C11.499 12.3223 11.0068 12.3926 10.5498 12.5156V11.2148C10.9717 11.0654 11.4814 10.9775 12 10.9775ZM2.2793 16.0049C2.2793 14.3613 3.69434 13.2539 5.5752 13.2539C7.45605 13.2539 8.90625 14.3613 8.90625 16.0049C8.90625 17.6484 7.45605 18.7559 5.5752 18.7559C3.69434 18.7559 2.2793 17.6484 2.2793 16.0049ZM21.7031 16.0049C21.7031 17.6484 20.2969 18.7646 18.416 18.7646C16.5352 18.7646 15.085 17.6484 15.085 16.0049C15.085 14.3613 16.5352 13.2539 18.416 13.2539C20.2969 13.2539 21.7031 14.3613 21.7031 16.0049Z" fill="#1C1C1E"/>
</g>
<defs>
<clipPath id="clip0_10_311">
<rect width="24" height="24" fill="white"/>
</clipPath>
</defs>
</svg>
