<svg width="24" height="24" viewBox="0 0 24 24" fill="none" xmlns="http://www.w3.org/2000/svg">
<g clip-path="url(#clip0_10_470)">
<path d="M11.9912 20.7598C16.9746 20.7598 21.0879 16.6465 21.0879 11.6631C21.0879 6.68848 16.9658 2.5752 11.9824 2.5752C7.00781 2.5752 2.90332 6.68848 2.90332 11.6631C2.90332 16.6465 7.0166 20.7598 11.9912 20.7598ZM9.38086 16.4795C9.0293 16.4795 8.79199 16.2246 8.79199 15.8203V8.27051C8.79199 7.37402 9.27539 6.89062 10.1719 6.89062H13.8018C14.6982 6.89062 15.1816 7.37402 15.1816 8.27051V15.8203C15.1816 16.2246 14.9531 16.4795 14.5928 16.4795C14.3467 16.4795 14.1973 16.3477 13.8105 15.9697L12.0264 14.2119C12.0088 14.1855 11.9648 14.1855 11.9473 14.2119L10.1631 15.9697C9.77637 16.3477 9.62695 16.4795 9.38086 16.4795Z" fill="#1C1C1E"/>
</g>
<defs>
<clipPath id="clip0_10_470">
<rect width="24" height="24" fill="white"/>
</clipPath>
</defs>
</svg>
