<svg width="24" height="24" viewBox="0 0 24 24" fill="none" xmlns="http://www.w3.org/2000/svg">
<g clip-path="url(#clip0_10_593)">
<path d="M6.99902 21.3223C7.47363 21.3223 7.78125 21.0762 8.52832 20.3467L11.9209 16.9893C11.9561 16.9453 12.0352 16.9453 12.0703 16.9893L15.4717 20.3467C16.2188 21.0762 16.5176 21.3223 17.001 21.3223C17.7041 21.3223 18.1436 20.8389 18.1436 20.0479V4.70215C18.1436 2.95312 17.2295 2.03027 15.498 2.03027H8.49316C6.76172 2.03027 5.84766 2.95312 5.84766 4.70215V20.0479C5.84766 20.8389 6.28711 21.3223 6.99902 21.3223ZM7.83398 18.4307C7.71973 18.5449 7.5791 18.5098 7.5791 18.3428V4.81641C7.5791 4.11328 7.93066 3.77051 8.63379 3.77051H15.3574C16.0605 3.77051 16.4121 4.11328 16.4121 4.81641V18.3428C16.4121 18.5098 16.2803 18.5449 16.1572 18.4307L12.5801 14.9678C12.2109 14.5986 11.7891 14.5986 11.4111 14.9678L7.83398 18.4307Z" fill="#1C1C1E"/>
</g>
<defs>
<clipPath id="clip0_10_593">
<rect width="24" height="24" fill="white"/>
</clipPath>
</defs>
</svg>
