<svg width="24" height="24" viewBox="0 0 24 24" fill="none" xmlns="http://www.w3.org/2000/svg">
<g clip-path="url(#clip0_10_543)">
<path d="M11.9912 20.7598C16.9746 20.7598 21.0879 16.6465 21.0879 11.6631C21.0879 6.68848 16.9658 2.5752 11.9824 2.5752C7.00781 2.5752 2.90332 6.68848 2.90332 11.6631C2.90332 16.6465 7.0166 20.7598 11.9912 20.7598ZM9.81152 15.082C8.98535 15.082 8.34375 15.3721 8.08008 15.6094C7.93945 15.7148 7.8252 15.7852 7.62305 15.7852C7.35938 15.7852 7.14844 15.627 7.14844 15.2578V8.71875C7.47363 8.08594 8.44922 7.54102 9.56543 7.54102C10.5059 7.54102 11.3145 7.97168 11.6396 8.54297V15.7148C11.5781 15.6973 11.376 15.5654 11.2969 15.5215C11.0508 15.3721 10.5762 15.082 9.81152 15.082ZM14.1709 15.082C13.415 15.082 12.9316 15.3633 12.6943 15.5215C12.6064 15.5742 12.4131 15.7148 12.3516 15.7324V8.54297C12.6943 7.97168 13.4854 7.54102 14.4082 7.54102C15.5332 7.54102 16.5088 8.08594 16.834 8.71875V15.2578C16.834 15.627 16.6143 15.7852 16.3506 15.7852C16.1572 15.7852 16.0342 15.7148 15.9023 15.6094C15.6387 15.3721 14.9971 15.082 14.1709 15.082Z" fill="#1C1C1E"/>
</g>
<defs>
<clipPath id="clip0_10_543">
<rect width="24" height="24" fill="white"/>
</clipPath>
</defs>
</svg>
