<svg width="24" height="24" viewBox="0 0 24 24" fill="none" xmlns="http://www.w3.org/2000/svg">
<g clip-path="url(#clip0_10_458)">
<path d="M6.4541 2.91797L18.1436 14.5986V4.70215C18.1436 2.95312 17.2295 2.03027 15.498 2.03027H8.50195C7.54395 2.03027 6.8584 2.3291 6.4541 2.91797ZM19.6465 19.6436C19.9189 19.916 20.3672 19.916 20.6309 19.6436C20.8945 19.3711 20.9033 18.9316 20.6309 18.6592L4.7666 2.78613C4.50293 2.51367 4.0459 2.51367 3.77344 2.78613C3.50977 3.0498 3.50977 3.51562 3.77344 3.7793L19.6465 19.6436ZM6.99902 21.3223C7.47363 21.3223 7.78125 21.0762 8.52832 20.3467L11.9209 16.9893C11.9648 16.9453 12.0352 16.9453 12.0791 16.9893L15.4717 20.3467C16.2188 21.0762 16.5176 21.3223 17.001 21.3223C17.6865 21.3223 18.1172 20.874 18.1436 20.1094V19.7139L5.84766 7.40918V20.0479C5.84766 20.8389 6.28711 21.3223 6.99902 21.3223Z" fill="#1C1C1E"/>
</g>
<defs>
<clipPath id="clip0_10_458">
<rect width="24" height="24" fill="white"/>
</clipPath>
</defs>
</svg>
