<svg width="24" height="24" viewBox="0 0 24 24" fill="none" xmlns="http://www.w3.org/2000/svg">
<g clip-path="url(#clip0_10_525)">
<path d="M13.6875 21.1816H15.8848C16.7637 21.1816 17.2295 20.6982 17.2295 19.8369V7.99805L18.5654 20.0303C18.6533 20.8916 19.1631 21.3311 20.0332 21.2256L22.7842 20.8564C23.6543 20.751 24.0586 20.2412 23.9707 19.3799L22.4062 5.23828C22.3184 4.37695 21.8086 3.9375 20.9385 4.04297L18.1787 4.41211C17.748 4.45605 17.4316 4.61426 17.2295 4.86035V2.98828C17.2295 2.12695 16.7637 1.64355 15.8848 1.64355H13.6875C12.8174 1.64355 12.3516 2.12695 12.3516 2.98828V19.8369C12.3516 20.6982 12.8174 21.1816 13.6875 21.1816ZM1.34766 21.1816H2.80664C3.68555 21.1816 4.15137 20.6982 4.15137 19.8369V5.4668C4.15137 4.60547 3.68555 4.12207 2.80664 4.12207H1.34766C0.46875 4.12207 0.00292969 4.60547 0.00292969 5.4668V19.8369C0.00292969 20.6982 0.46875 21.1816 1.34766 21.1816ZM6.5332 21.1816H9.96094C10.8398 21.1816 11.3057 20.6982 11.3057 19.8369V8.58691C11.3057 7.72559 10.8398 7.25098 9.96094 7.25098H6.5332C5.66309 7.25098 5.19727 7.72559 5.19727 8.58691V19.8369C5.19727 20.6982 5.66309 21.1816 6.5332 21.1816ZM7.22754 10.5381C6.88477 10.5381 6.62988 10.2744 6.62988 9.94043C6.62988 9.61523 6.88477 9.36035 7.22754 9.36035H9.29297C9.62695 9.36035 9.88184 9.61523 9.88184 9.94043C9.88184 10.2744 9.62695 10.5381 9.29297 10.5381H7.22754ZM7.22754 19.0723C6.88477 19.0723 6.62988 18.8174 6.62988 18.4834C6.62988 18.1494 6.88477 17.8945 7.22754 17.8945H9.29297C9.62695 17.8945 9.88184 18.1494 9.88184 18.4834C9.88184 18.8174 9.62695 19.0723 9.29297 19.0723H7.22754Z" fill="#1C1C1E"/>
</g>
<defs>
<clipPath id="clip0_10_525">
<rect width="24" height="24" fill="white"/>
</clipPath>
</defs>
</svg>
