<svg width="24" height="24" viewBox="0 0 24 24" fill="none" xmlns="http://www.w3.org/2000/svg">
<g clip-path="url(#clip0_10_607)">
<path d="M17.8975 19.2744C18.0645 20.7158 18.8379 21.3926 20.2881 21.208L21.9844 21.0146C23.4346 20.8301 24.0586 20.0479 23.9004 18.6064L22.4854 5.80078C22.3271 4.35938 21.5361 3.67383 20.0947 3.86719L18.3984 4.06055C18.0205 4.10449 17.7041 4.19238 17.4404 4.32422V3.83203C17.4404 2.38184 16.7197 1.64355 15.2695 1.64355H12.9141C11.4551 1.64355 10.7344 2.38184 10.7344 3.83203V7.27734C10.585 7.25977 10.4268 7.25098 10.251 7.25098H6.19043C6.01465 7.25098 5.84766 7.25977 5.69824 7.27734V6.31934C5.69824 4.86035 4.97754 4.12207 3.52734 4.12207H2.24414C0.785156 4.12207 0.0644531 4.86035 0.0644531 6.31934V18.9932C0.0644531 20.4434 0.785156 21.1816 2.24414 21.1816H15.2695C16.7197 21.1816 17.4404 20.4434 17.4404 18.9932V15.1787L17.8975 19.2744ZM13.1689 3.32227H15.0146C15.5156 3.32227 15.7617 3.58594 15.7617 4.06055V18.7559C15.7617 19.2393 15.5156 19.5029 15.0146 19.5029H12.4219V4.06055C12.4219 3.58594 12.668 3.32227 13.1689 3.32227ZM19.541 18.8613L18.1699 6.5127C18.1172 6.03809 18.3369 5.77441 18.8291 5.7041L20.0156 5.56348C20.5078 5.49316 20.7891 5.73926 20.8418 6.20508L22.2129 18.5537C22.2656 19.0371 22.0459 19.3008 21.5537 19.3711L20.3584 19.5117C19.8662 19.582 19.5938 19.3447 19.541 18.8613ZM2.49023 19.5029C1.99805 19.5029 1.74316 19.2393 1.74316 18.7559V6.53906C1.74316 6.06445 1.99805 5.80957 2.49023 5.80957H3.26367C3.77344 5.80957 4.01074 6.06445 4.01074 6.53906V19.5029H2.49023ZM6.44531 8.92969H9.9873C10.4971 8.92969 10.7344 9.18457 10.7344 9.65918V19.5029H5.69824V9.65918C5.69824 9.18457 5.94434 8.92969 6.44531 8.92969ZM6.99023 11.1445H9.47754C9.79395 11.1445 10.04 10.8896 10.04 10.5732C10.04 10.2568 9.79395 10.0107 9.47754 10.0107H6.99023C6.65625 10.0107 6.41895 10.2568 6.41895 10.5732C6.41895 10.8896 6.66504 11.1445 6.99023 11.1445ZM6.99023 18.4307H9.47754C9.79395 18.4307 10.04 18.1758 10.04 17.8506C10.04 17.543 9.79395 17.2881 9.47754 17.2881H6.99023C6.66504 17.2881 6.41895 17.543 6.41895 17.8506C6.41895 18.1758 6.65625 18.4307 6.99023 18.4307Z" fill="#1C1C1E"/>
</g>
<defs>
<clipPath id="clip0_10_607">
<rect width="24" height="24" fill="white"/>
</clipPath>
</defs>
</svg>
