<svg width="24" height="24" viewBox="0 0 24 24" fill="none" xmlns="http://www.w3.org/2000/svg">
<g clip-path="url(#clip0_10_425)">
<path d="M7.5791 18.7207C9.11719 18.7207 10.1807 19.2744 10.6553 19.5996C10.8223 19.6875 11.2617 19.96 11.376 19.9863V5.37891C10.7168 4.23633 8.91504 3.33984 7.07812 3.33984C4.64355 3.33984 2.65723 4.71094 2.13867 5.74805V19.0283C2.14746 19.8105 2.58691 20.127 3.13184 20.127C3.53613 20.127 3.79102 19.9863 4.06348 19.7754C4.62598 19.3184 5.91797 18.7207 7.5791 18.7207ZM16.4209 18.7207C18.082 18.7207 19.3652 19.3184 19.9277 19.7754C20.2002 19.9863 20.4551 20.127 20.8506 20.127C21.3955 20.127 21.8525 19.8105 21.8525 19.0283V5.74805C21.334 4.71094 19.3477 3.33984 16.9219 3.33984C15.085 3.33984 13.2744 4.23633 12.624 5.37891V20.0039C12.7295 19.9775 13.1689 19.6963 13.3447 19.5996C13.8193 19.2744 14.8828 18.7207 16.4209 18.7207Z" fill="#1C1C1E"/>
</g>
<defs>
<clipPath id="clip0_10_425">
<rect width="24" height="24" fill="white"/>
</clipPath>
</defs>
</svg>
