<svg width="24" height="24" viewBox="0 0 24 24" fill="none" xmlns="http://www.w3.org/2000/svg">
<g clip-path="url(#clip0_10_430)">
<path d="M12 4.85156C11.2266 3.9375 9.50391 3.12012 7.48242 3.12012C4.78418 3.12012 2.60449 4.51758 2.02441 5.84473V19.0371C2.02441 19.8984 2.58691 20.2324 3.21094 20.2324C3.67676 20.2324 3.94043 20.0918 4.23926 19.8721C4.83691 19.3887 5.8125 18.8262 7.48242 18.8262C9.16113 18.8262 10.3037 19.3887 10.8135 19.8193C11.0947 20.0303 11.4199 20.2324 12 20.2324C12.5801 20.2324 12.8965 20.0127 13.1865 19.8193C13.7314 19.415 14.8389 18.8262 16.5176 18.8262C18.1875 18.8262 19.1807 19.3975 19.7607 19.8721C20.0596 20.0918 20.3232 20.2324 20.7891 20.2324C21.4131 20.2324 21.9756 19.8984 21.9756 19.0371V5.84473C21.3955 4.51758 19.2246 3.12012 16.5176 3.12012C14.4961 3.12012 12.7822 3.9375 12 4.85156ZM3.93164 6.45117C4.16895 5.87109 5.46973 4.88672 7.48242 4.88672C9.49512 4.88672 10.8398 5.87988 11.0508 6.45117V18.0439C10.1455 17.3936 8.85352 17.042 7.48242 17.042C6.10254 17.042 4.81934 17.3936 3.93164 18.0703V6.45117ZM20.0684 6.45117V18.0703C19.1807 17.3936 17.8975 17.042 16.5176 17.042C15.1465 17.042 13.8545 17.3936 12.9492 18.0439V6.45117C13.1602 5.87988 14.5049 4.88672 16.5176 4.88672C18.5303 4.88672 19.8311 5.87109 20.0684 6.45117Z" fill="#1C1C1E"/>
</g>
<defs>
<clipPath id="clip0_10_430">
<rect width="24" height="24" fill="white"/>
</clipPath>
</defs>
</svg>
