<svg width="24" height="24" viewBox="0 0 24 24" fill="none" xmlns="http://www.w3.org/2000/svg">
<g clip-path="url(#clip0_10_602)">
<path d="M7.28906 21.1816H18.7236C19.1895 21.1816 19.5498 20.8213 19.5498 20.3555C19.5498 19.96 19.2773 19.6699 18.9434 19.5117C17.8623 19.0283 17.6514 17.5342 18.75 16.4883C19.1982 16.0928 19.541 15.6533 19.541 14.7656V5.03613C19.541 3.1377 18.5654 2.14453 16.6758 2.14453H7.30664C5.42578 2.14453 4.44141 3.12891 4.44141 5.03613V18.3164C4.44141 20.1973 5.42578 21.1816 7.28906 21.1816ZM16.5176 3.89355C17.3701 3.89355 17.792 4.3418 17.792 5.15039V14.4932C17.792 14.9238 17.5459 15.1611 17.1064 15.1611H8.47559V3.89355H16.5176ZM6.19043 15.4688V5.15039C6.19043 4.4209 6.5332 3.99023 7.22754 3.91113V15.1699C6.83203 15.2051 6.48926 15.3105 6.19043 15.4688ZM7.52637 19.5293C6.58594 19.5293 6.09375 18.9932 6.09375 18.167C6.09375 17.3672 6.65625 16.8135 7.58789 16.8135H16.3594C16.4561 16.8135 16.5527 16.8047 16.6406 16.7871C16.2012 17.7188 16.2539 18.7295 16.7285 19.5293H7.52637Z" fill="#1C1C1E"/>
</g>
<defs>
<clipPath id="clip0_10_602">
<rect width="24" height="24" fill="white"/>
</clipPath>
</defs>
</svg>
