<svg width="24" height="24" viewBox="0 0 24 24" fill="none" xmlns="http://www.w3.org/2000/svg">
<g clip-path="url(#clip0_10_531)">
<path d="M11.9912 20.7422C16.9746 20.7422 21.0879 16.6289 21.0879 11.6543C21.0879 6.67969 16.9658 2.56641 11.9824 2.56641C7.00781 2.56641 2.90332 6.67969 2.90332 11.6543C2.90332 16.6289 7.0166 20.7422 11.9912 20.7422ZM11.9912 18.9316C7.95703 18.9316 4.73145 15.6885 4.73145 11.6543C4.73145 7.62012 7.95703 4.38574 11.9824 4.38574C16.0166 4.38574 19.2598 7.62012 19.2686 11.6543C19.2773 15.6885 16.0254 18.9316 11.9912 18.9316ZM9.89062 14.9502C10.6289 14.9502 11.0947 15.2227 11.332 15.3721C11.4023 15.416 11.5957 15.5479 11.6484 15.5566V8.65723C11.3408 8.10352 10.5674 7.69922 9.66211 7.69922C8.57227 7.69922 7.64062 8.21777 7.33301 8.83301V15.1172C7.33301 15.4775 7.53516 15.6182 7.79004 15.6182C7.97461 15.6182 8.09766 15.5566 8.21191 15.46C8.47559 15.2314 9.09082 14.9502 9.89062 14.9502ZM14.083 14.9502C14.8916 14.9502 15.498 15.2314 15.7705 15.46C15.8848 15.5566 16.0078 15.6182 16.1924 15.6182C16.4473 15.6182 16.6494 15.4863 16.6494 15.1172V8.83301C16.3418 8.21777 15.4014 7.69922 14.3203 7.69922C13.415 7.69922 12.6592 8.10352 12.3428 8.65723V15.5654C12.3955 15.5479 12.5801 15.4248 12.6592 15.3721C12.8877 15.2139 13.3535 14.9502 14.083 14.9502Z" fill="#1C1C1E"/>
</g>
<defs>
<clipPath id="clip0_10_531">
<rect width="24" height="24" fill="white"/>
</clipPath>
</defs>
</svg>
