<svg width="24" height="24" viewBox="0 0 24 24" fill="none" xmlns="http://www.w3.org/2000/svg">
<g clip-path="url(#clip0_10_342)">
<path d="M8.47559 5.13281V5.99414H15.5244V5.13281C15.5244 4.7373 15.252 4.48242 14.8125 4.48242H9.17871C8.74805 4.48242 8.47559 4.7373 8.47559 5.13281ZM11.9912 11.3115C8.53711 11.3115 5.24121 10.7842 2.04199 9.44824V8.80664C2.04199 6.95215 3.00879 5.99414 4.88086 5.99414H6.64746V5.05371C6.64746 3.64746 7.55273 2.8125 9.06445 2.8125H14.9268C16.4385 2.8125 17.3438 3.64746 17.3438 5.05371V5.99414H19.1104C20.9912 5.99414 21.9492 6.95215 21.9492 8.80664V9.44824C18.75 10.7842 15.4541 11.3115 11.9912 11.3115ZM4.88086 20.1973C3.00879 20.1973 2.04199 19.248 2.04199 17.3848V11.1182C4.71387 12.0938 7.12207 12.5508 9.55664 12.7354V13.4297C9.55664 14.0977 9.94336 14.4668 10.6201 14.4668H13.3623C14.0479 14.4668 14.4346 14.0977 14.4346 13.4297V12.7354C16.8691 12.5508 19.2773 12.0938 21.9492 11.1182V17.3848C21.9492 19.248 20.9912 20.1973 19.1104 20.1973H4.88086Z" fill="#1C1C1E"/>
</g>
<defs>
<clipPath id="clip0_10_342">
<rect width="24" height="24" fill="white"/>
</clipPath>
</defs>
</svg>
