<svg width="24" height="24" viewBox="0 0 24 24" fill="none" xmlns="http://www.w3.org/2000/svg">
<g clip-path="url(#clip0_10_345)">
<path d="M4.86328 20.2236H19.1367C21.0264 20.2236 21.9932 19.2744 21.9932 17.4023V8.78906C21.9932 6.92578 21.0264 5.96777 19.1367 5.96777H17.2646V5.03613C17.2646 3.69141 16.4033 2.8916 14.9355 2.8916H9.06445C7.59668 2.8916 6.73535 3.69141 6.73535 5.03613V5.96777H4.86328C2.98242 5.96777 2.00684 6.92578 2.00684 8.78906V17.4023C2.00684 19.2744 2.98242 20.2236 4.86328 20.2236ZM8.37891 5.12402C8.37891 4.66699 8.69531 4.37695 9.17871 4.37695H14.8213C15.3135 4.37695 15.6211 4.66699 15.6211 5.12402V5.96777H8.37891V5.12402ZM3.75586 8.8418C3.75586 8.05078 4.16895 7.65527 4.93359 7.65527H19.0664C19.8311 7.65527 20.2354 8.05078 20.2354 8.8418V9.99316C17.8096 10.8281 15.0234 11.2412 12 11.2412C8.97656 11.2412 6.19043 10.8281 3.75586 9.99316V8.8418ZM4.93359 18.5361C4.16895 18.5361 3.75586 18.1494 3.75586 17.3496V11.6895C5.55762 12.2344 7.51758 12.5859 9.55664 12.7354V13.4297C9.55664 14.0977 9.94336 14.4668 10.6289 14.4668H13.3711C14.0566 14.4668 14.4346 14.0977 14.4346 13.4297V12.7354C16.4824 12.5859 18.4336 12.2344 20.2354 11.6895V17.3496C20.2354 18.1494 19.8311 18.5361 19.0664 18.5361H4.93359Z" fill="#1C1C1E"/>
</g>
<defs>
<clipPath id="clip0_10_345">
<rect width="24" height="24" fill="white"/>
</clipPath>
</defs>
</svg>
