<svg width="24" height="24" viewBox="0 0 24 24" fill="none" xmlns="http://www.w3.org/2000/svg">
<g clip-path="url(#clip0_10_449)">
<path d="M5.94434 19.8809H18.0469C19.9541 19.8809 20.9473 18.8965 20.9473 17.0156V6.31934C20.9473 4.43848 19.9541 3.4541 18.0469 3.4541H5.94434C4.0459 3.4541 3.05273 4.42969 3.05273 6.31934V17.0156C3.05273 18.8965 4.0459 19.8809 5.94434 19.8809ZM5.93555 18.1318C5.20605 18.1318 4.80176 17.7539 4.80176 16.9805V8.89453C4.80176 8.12109 5.20605 7.74316 5.93555 7.74316H18.0557C18.7852 7.74316 19.1895 8.12109 19.1895 8.89453V16.9805C19.1895 17.7539 18.7852 18.1318 18.0557 18.1318H5.93555ZM10.3037 10.7754H10.8223C11.1387 10.7754 11.2441 10.6787 11.2441 10.3711V9.85254C11.2441 9.53613 11.1387 9.43945 10.8223 9.43945H10.3037C9.9873 9.43945 9.88184 9.53613 9.88184 9.85254V10.3711C9.88184 10.6787 9.9873 10.7754 10.3037 10.7754ZM13.1777 10.7754H13.6963C14.0039 10.7754 14.1094 10.6787 14.1094 10.3711V9.85254C14.1094 9.53613 14.0039 9.43945 13.6963 9.43945H13.1777C12.8613 9.43945 12.7559 9.53613 12.7559 9.85254V10.3711C12.7559 10.6787 12.8613 10.7754 13.1777 10.7754ZM16.043 10.7754H16.5615C16.8779 10.7754 16.9834 10.6787 16.9834 10.3711V9.85254C16.9834 9.53613 16.8779 9.43945 16.5615 9.43945H16.043C15.7354 9.43945 15.6299 9.53613 15.6299 9.85254V10.3711C15.6299 10.6787 15.7354 10.7754 16.043 10.7754ZM7.43848 13.6055H7.94824C8.26465 13.6055 8.37012 13.5088 8.37012 13.1924V12.6738C8.37012 12.3662 8.26465 12.2695 7.94824 12.2695H7.43848C7.12207 12.2695 7.0166 12.3662 7.0166 12.6738V13.1924C7.0166 13.5088 7.12207 13.6055 7.43848 13.6055ZM10.3037 13.6055H10.8223C11.1387 13.6055 11.2441 13.5088 11.2441 13.1924V12.6738C11.2441 12.3662 11.1387 12.2695 10.8223 12.2695H10.3037C9.9873 12.2695 9.88184 12.3662 9.88184 12.6738V13.1924C9.88184 13.5088 9.9873 13.6055 10.3037 13.6055ZM13.1777 13.6055H13.6963C14.0039 13.6055 14.1094 13.5088 14.1094 13.1924V12.6738C14.1094 12.3662 14.0039 12.2695 13.6963 12.2695H13.1777C12.8613 12.2695 12.7559 12.3662 12.7559 12.6738V13.1924C12.7559 13.5088 12.8613 13.6055 13.1777 13.6055ZM16.043 13.6055H16.5615C16.8779 13.6055 16.9834 13.5088 16.9834 13.1924V12.6738C16.9834 12.3662 16.8779 12.2695 16.5615 12.2695H16.043C15.7354 12.2695 15.6299 12.3662 15.6299 12.6738V13.1924C15.6299 13.5088 15.7354 13.6055 16.043 13.6055ZM7.43848 16.4268H7.94824C8.26465 16.4268 8.37012 16.3301 8.37012 16.0225V15.5039C8.37012 15.1875 8.26465 15.0908 7.94824 15.0908H7.43848C7.12207 15.0908 7.0166 15.1875 7.0166 15.5039V16.0225C7.0166 16.3301 7.12207 16.4268 7.43848 16.4268ZM10.3037 16.4268H10.8223C11.1387 16.4268 11.2441 16.3301 11.2441 16.0225V15.5039C11.2441 15.1875 11.1387 15.0908 10.8223 15.0908H10.3037C9.9873 15.0908 9.88184 15.1875 9.88184 15.5039V16.0225C9.88184 16.3301 9.9873 16.4268 10.3037 16.4268ZM13.1777 16.4268H13.6963C14.0039 16.4268 14.1094 16.3301 14.1094 16.0225V15.5039C14.1094 15.1875 14.0039 15.0908 13.6963 15.0908H13.1777C12.8613 15.0908 12.7559 15.1875 12.7559 15.5039V16.0225C12.7559 16.3301 12.8613 16.4268 13.1777 16.4268Z" fill="#1C1C1E"/>
</g>
<defs>
<clipPath id="clip0_10_449">
<rect width="24" height="24" fill="white"/>
</clipPath>
</defs>
</svg>
