<svg width="24" height="24" viewBox="0 0 24 24" fill="none" xmlns="http://www.w3.org/2000/svg">
<g clip-path="url(#clip0_10_432)">
<path d="M11.9912 20.7422C16.9746 20.7422 21.0879 16.6289 21.0879 11.6543C21.0879 6.67969 16.9658 2.56641 11.9824 2.56641C7.00781 2.56641 2.90332 6.67969 2.90332 11.6543C2.90332 16.6289 7.0166 20.7422 11.9912 20.7422ZM11.9912 18.9316C7.95703 18.9316 4.73145 15.6885 4.73145 11.6543C4.73145 7.62012 7.95703 4.38574 11.9824 4.38574C16.0166 4.38574 19.2598 7.62012 19.2686 11.6543C19.2773 15.6885 16.0254 18.9316 11.9912 18.9316ZM8.84473 15.9258H15.1289C16.1133 15.9258 16.623 15.416 16.623 14.4404V8.87695C16.623 7.91016 16.1133 7.40039 15.1289 7.40039H8.84473C7.86914 7.40039 7.35059 7.90137 7.35059 8.87695V14.4404C7.35059 15.416 7.86914 15.9258 8.84473 15.9258ZM8.84473 14.9941C8.4668 14.9941 8.28223 14.8184 8.28223 14.4316V10.2129C8.28223 9.80859 8.48438 9.61523 8.87109 9.61523H15.0938C15.4805 9.61523 15.6914 9.80859 15.6914 10.2129V14.4316C15.6914 14.8184 15.5068 14.9941 15.1289 14.9941H8.84473ZM11.0771 11.2676H11.3936C11.5957 11.2676 11.6572 11.2061 11.6572 11.0215V10.6963C11.6572 10.4941 11.5957 10.4326 11.3936 10.4326H11.0771C10.8838 10.4326 10.8223 10.4941 10.8223 10.6963V11.0215C10.8223 11.2061 10.8838 11.2676 11.0771 11.2676ZM12.5801 11.2676H12.8965C13.0986 11.2676 13.1514 11.2061 13.1514 11.0215V10.6963C13.1514 10.4941 13.0986 10.4326 12.8965 10.4326H12.5801C12.3779 10.4326 12.3164 10.4941 12.3164 10.6963V11.0215C12.3164 11.2061 12.3779 11.2676 12.5801 11.2676ZM14.0742 11.2676H14.3818C14.584 11.2676 14.6543 11.2061 14.6543 11.0215V10.6963C14.6543 10.4941 14.584 10.4326 14.3818 10.4326H14.0742C13.8721 10.4326 13.8018 10.4941 13.8018 10.6963V11.0215C13.8018 11.2061 13.8721 11.2676 14.0742 11.2676ZM9.5918 12.7354H9.89941C10.1016 12.7354 10.1719 12.6738 10.1719 12.4893V12.1641C10.1719 11.9707 10.1016 11.9092 9.89941 11.9092H9.5918C9.38965 11.9092 9.31934 11.9707 9.31934 12.1641V12.4893C9.31934 12.6738 9.38965 12.7354 9.5918 12.7354ZM11.0771 12.7354H11.3936C11.5957 12.7354 11.6572 12.6738 11.6572 12.4893V12.1641C11.6572 11.9707 11.5957 11.9092 11.3936 11.9092H11.0771C10.8838 11.9092 10.8223 11.9707 10.8223 12.1641V12.4893C10.8223 12.6738 10.8838 12.7354 11.0771 12.7354ZM12.5801 12.7354H12.8965C13.0986 12.7354 13.1514 12.6738 13.1514 12.4893V12.1641C13.1514 11.9707 13.0986 11.9092 12.8965 11.9092H12.5801C12.3779 11.9092 12.3164 11.9707 12.3164 12.1641V12.4893C12.3164 12.6738 12.3779 12.7354 12.5801 12.7354ZM14.0742 12.7354H14.3818C14.584 12.7354 14.6543 12.6738 14.6543 12.4893V12.1641C14.6543 11.9707 14.584 11.9092 14.3818 11.9092H14.0742C13.8721 11.9092 13.8018 11.9707 13.8018 12.1641V12.4893C13.8018 12.6738 13.8721 12.7354 14.0742 12.7354ZM9.5918 14.2119H9.89941C10.1016 14.2119 10.1719 14.1504 10.1719 13.9482V13.623C10.1719 13.4385 10.1016 13.377 9.89941 13.377H9.5918C9.38965 13.377 9.31934 13.4385 9.31934 13.623V13.9482C9.31934 14.1504 9.38965 14.2119 9.5918 14.2119ZM11.0771 14.2119H11.3936C11.5957 14.2119 11.6572 14.1504 11.6572 13.9482V13.623C11.6572 13.4385 11.5957 13.377 11.3936 13.377H11.0771C10.8838 13.377 10.8223 13.4385 10.8223 13.623V13.9482C10.8223 14.1504 10.8838 14.2119 11.0771 14.2119ZM12.5801 14.2119H12.8965C13.0986 14.2119 13.1514 14.1504 13.1514 13.9482V13.623C13.1514 13.4385 13.0986 13.377 12.8965 13.377H12.5801C12.3779 13.377 12.3164 13.4385 12.3164 13.623V13.9482C12.3164 14.1504 12.3779 14.2119 12.5801 14.2119Z" fill="#1C1C1E"/>
</g>
<defs>
<clipPath id="clip0_10_432">
<rect width="24" height="24" fill="white"/>
</clipPath>
</defs>
</svg>
