<svg width="24" height="24" viewBox="0 0 24 24" fill="none" xmlns="http://www.w3.org/2000/svg">
<g clip-path="url(#clip0_10_443)">
<path d="M11.9912 20.7598C16.9746 20.7598 21.0879 16.6465 21.0879 11.6631C21.0879 6.68848 16.9658 2.5752 11.9824 2.5752C7.00781 2.5752 2.90332 6.68848 2.90332 11.6631C2.90332 16.6465 7.0166 20.7598 11.9912 20.7598ZM8.73047 16.1016C7.70215 16.1016 7.16602 15.5742 7.16602 14.5547V8.78027C7.16602 7.76074 7.70215 7.2334 8.73047 7.2334H15.252C16.2715 7.2334 16.8076 7.76074 16.8076 8.78027V14.5547C16.8076 15.5742 16.2715 16.1016 15.252 16.1016H8.73047ZM8.72168 15.1348H15.252C15.6387 15.1348 15.832 14.9414 15.832 14.5459V10.1602C15.832 9.74707 15.6123 9.54492 15.2168 9.54492H8.74805C8.35254 9.54492 8.1416 9.74707 8.1416 10.1602V14.5459C8.1416 14.9414 8.33496 15.1348 8.72168 15.1348ZM11.0508 11.2588C10.8398 11.2588 10.7783 11.1973 10.7783 11.0039V10.6611C10.7783 10.459 10.8398 10.3887 11.0508 10.3887H11.376C11.5781 10.3887 11.6484 10.459 11.6484 10.6611V11.0039C11.6484 11.1973 11.5781 11.2588 11.376 11.2588H11.0508ZM12.5977 11.2588C12.3955 11.2588 12.3252 11.1973 12.3252 11.0039V10.6611C12.3252 10.459 12.3955 10.3887 12.5977 10.3887H12.9229C13.1338 10.3887 13.1953 10.459 13.1953 10.6611V11.0039C13.1953 11.1973 13.1338 11.2588 12.9229 11.2588H12.5977ZM14.1533 11.2588C13.9424 11.2588 13.8721 11.1973 13.8721 11.0039V10.6611C13.8721 10.459 13.9424 10.3887 14.1533 10.3887H14.4785C14.6807 10.3887 14.751 10.459 14.751 10.6611V11.0039C14.751 11.1973 14.6807 11.2588 14.4785 11.2588H14.1533ZM9.49512 12.7793C9.29297 12.7793 9.22266 12.7266 9.22266 12.5244V12.1904C9.22266 11.9795 9.29297 11.918 9.49512 11.918H9.82031C10.0312 11.918 10.1016 11.9795 10.1016 12.1904V12.5244C10.1016 12.7266 10.0312 12.7793 9.82031 12.7793H9.49512ZM11.0508 12.7793C10.8398 12.7793 10.7783 12.7266 10.7783 12.5244V12.1904C10.7783 11.9795 10.8398 11.918 11.0508 11.918H11.376C11.5781 11.918 11.6484 11.9795 11.6484 12.1904V12.5244C11.6484 12.7266 11.5781 12.7793 11.376 12.7793H11.0508ZM12.5977 12.7793C12.3955 12.7793 12.3252 12.7266 12.3252 12.5244V12.1904C12.3252 11.9795 12.3955 11.918 12.5977 11.918H12.9229C13.1338 11.918 13.1953 11.9795 13.1953 12.1904V12.5244C13.1953 12.7266 13.1338 12.7793 12.9229 12.7793H12.5977ZM14.1533 12.7793C13.9424 12.7793 13.8721 12.7266 13.8721 12.5244V12.1904C13.8721 11.9795 13.9424 11.918 14.1533 11.918H14.4785C14.6807 11.918 14.751 11.9795 14.751 12.1904V12.5244C14.751 12.7266 14.6807 12.7793 14.4785 12.7793H14.1533ZM9.49512 14.3086C9.29297 14.3086 9.22266 14.2471 9.22266 14.0361V13.7021C9.22266 13.5088 9.29297 13.4473 9.49512 13.4473H9.82031C10.0312 13.4473 10.1016 13.5088 10.1016 13.7021V14.0361C10.1016 14.2471 10.0312 14.3086 9.82031 14.3086H9.49512ZM11.0508 14.3086C10.8398 14.3086 10.7783 14.2471 10.7783 14.0361V13.7021C10.7783 13.5088 10.8398 13.4473 11.0508 13.4473H11.376C11.5781 13.4473 11.6484 13.5088 11.6484 13.7021V14.0361C11.6484 14.2471 11.5781 14.3086 11.376 14.3086H11.0508ZM12.5977 14.3086C12.3955 14.3086 12.3252 14.2471 12.3252 14.0361V13.7021C12.3252 13.5088 12.3955 13.4473 12.5977 13.4473H12.9229C13.1338 13.4473 13.1953 13.5088 13.1953 13.7021V14.0361C13.1953 14.2471 13.1338 14.3086 12.9229 14.3086H12.5977Z" fill="#1C1C1E"/>
</g>
<defs>
<clipPath id="clip0_10_443">
<rect width="24" height="24" fill="white"/>
</clipPath>
</defs>
</svg>
