<svg width="24" height="24" viewBox="0 0 24 24" fill="none" xmlns="http://www.w3.org/2000/svg">
<g clip-path="url(#clip0_10_374)">
<path d="M0.398438 14.0537C0.398438 15.9434 1.38281 16.9189 3.29004 16.9189H3.7207V10.7139C3.7207 8.1123 5.28516 6.55664 7.9043 6.55664H9.12598C9.33691 6.55664 9.38965 6.53027 9.53906 6.38086L10.1807 5.7832C10.9102 5.08887 11.6924 4.76367 12.7031 4.76367H15.9023C16.9307 4.76367 17.7393 5.08887 18.4512 5.80078L18.8818 6.22266C18.9434 6.28418 19.0137 6.36328 19.0664 6.38965V5.08887C19.0664 3.20801 18.0732 2.22363 16.1748 2.22363H3.29004C1.38281 2.22363 0.398438 3.20801 0.398438 5.08887V14.0537ZM7.9043 21.1113H20.7012C22.6084 21.1113 23.6016 20.127 23.6016 18.2461V10.7139C23.6016 8.82422 22.6084 7.84863 20.7012 7.84863H19.4883C18.8291 7.84863 18.6094 7.76953 18.2227 7.37402L17.5547 6.71484C17.0801 6.24902 16.6143 6.05566 15.9023 6.05566H12.7031C12 6.05566 11.543 6.25781 11.0596 6.71484L10.3564 7.37402C9.96094 7.74316 9.78516 7.84863 9.12598 7.84863H7.9043C5.99707 7.84863 5.0127 8.82422 5.0127 10.7139V18.2461C5.0127 20.127 5.99707 21.1113 7.9043 21.1113ZM14.2676 18.3252C11.9385 18.3252 10.0576 16.4443 10.0576 14.1064C10.0576 11.7861 11.9385 9.89648 14.2676 9.89648C16.5879 9.89648 18.4775 11.7861 18.4775 14.1064C18.4775 16.4443 16.5879 18.3252 14.2676 18.3252ZM19.6553 12.1201C19.0928 12.1201 18.6445 11.6631 18.6445 11.1094C18.6445 10.5469 19.0928 10.0898 19.6553 10.0898C20.209 10.0898 20.6748 10.5469 20.6748 11.1094C20.6748 11.6631 20.209 12.1201 19.6553 12.1201ZM14.2676 16.7783C15.7354 16.7783 16.9307 15.583 16.9307 14.1064C16.9307 12.6387 15.7354 11.4434 14.2676 11.4434C12.7998 11.4434 11.6045 12.6387 11.6045 14.1064C11.6045 15.583 12.7998 16.7783 14.2676 16.7783Z" fill="#1C1C1E"/>
</g>
<defs>
<clipPath id="clip0_10_374">
<rect width="24" height="24" fill="white"/>
</clipPath>
</defs>
</svg>
