<svg width="24" height="24" viewBox="0 0 24 24" fill="none" xmlns="http://www.w3.org/2000/svg">
<g clip-path="url(#clip0_10_365)">
<path d="M3.29004 16.9189H4.9248V18.2461C4.9248 20.127 5.91797 21.1113 7.8252 21.1113H20.7012C22.6084 21.1113 23.6016 20.127 23.6016 18.2461V10.125C23.6016 8.24414 22.6084 7.25977 20.7012 7.25977H19.6289C19.4004 7.25977 19.2158 7.25098 19.0664 7.22461V5.08887C19.0664 3.20801 18.0732 2.22363 16.1748 2.22363H3.29004C1.38281 2.22363 0.398438 3.20801 0.398438 5.08887V14.0537C0.398438 15.9434 1.38281 16.9189 3.29004 16.9189ZM3.4043 15.1699C2.5957 15.1699 2.14746 14.748 2.14746 13.8955V5.24707C2.14746 4.39453 2.5957 3.98145 3.4043 3.98145H16.0605C16.8604 3.98145 17.3174 4.39453 17.3174 5.24707V5.80957C16.957 5.56348 16.5703 5.44043 16.043 5.44043H12.4834C11.7715 5.44043 11.3057 5.66016 10.8311 6.13477L10.1631 6.79395C9.76758 7.18066 9.55664 7.25977 8.89746 7.25977H7.8252C5.91797 7.25977 4.9248 8.24414 4.9248 10.125V15.1699H3.4043ZM7.93945 19.3535C7.12207 19.3535 6.68262 18.9316 6.68262 18.0879V10.2832C6.68262 9.43066 7.12207 9.01758 7.93945 9.01758H9.37207C10.1016 9.01758 10.5674 8.86816 10.998 8.42871L11.833 7.61133C12.1582 7.30371 12.4131 7.19824 12.9141 7.19824H15.6123C16.1133 7.19824 16.3682 7.30371 16.7021 7.61133L17.5283 8.42871C17.959 8.86816 18.4248 9.01758 19.1631 9.01758H20.5869C21.4043 9.01758 21.8438 9.43066 21.8438 10.2832V18.0879C21.8438 18.9316 21.4043 19.3535 20.5869 19.3535H7.93945ZM14.2676 18.2285C16.5615 18.2285 18.4248 16.3652 18.4248 14.0625C18.4248 11.7686 16.5615 9.91406 14.2676 9.91406C11.9736 9.91406 10.1104 11.7686 10.1104 14.0625C10.1104 16.3652 11.9736 18.2285 14.2676 18.2285ZM19.541 12.1377C20.0947 12.1377 20.543 11.6982 20.543 11.1445C20.543 10.5908 20.0947 10.1426 19.541 10.1426C18.9873 10.1426 18.5479 10.5908 18.5479 11.1445C18.5479 11.6982 18.9873 12.1377 19.541 12.1377ZM14.2676 16.708C12.8086 16.708 11.6309 15.5215 11.6309 14.0625C11.6309 12.6123 12.8086 11.4258 14.2676 11.4258C15.7266 11.4258 16.9043 12.6123 16.9043 14.0625C16.9043 15.5215 15.7266 16.708 14.2676 16.708Z" fill="#1C1C1E"/>
</g>
<defs>
<clipPath id="clip0_10_365">
<rect width="24" height="24" fill="white"/>
</clipPath>
</defs>
</svg>
