<svg width="24" height="24" viewBox="0 0 24 24" fill="none" xmlns="http://www.w3.org/2000/svg">
<g clip-path="url(#clip0_10_382)">
<path d="M4.01953 19.8809H19.9629C21.8613 19.8809 22.8633 18.8965 22.8633 17.0156V7.78711C22.8633 5.90625 21.8613 4.92188 19.9629 4.92188H17.5635C16.8779 4.92188 16.6582 4.80762 16.2275 4.35938L15.5332 3.6123C15.0762 3.12891 14.6104 2.8916 13.7139 2.8916H10.2246C9.32812 2.8916 8.87109 3.12891 8.40527 3.6123L7.71094 4.35938C7.28906 4.79883 7.06055 4.92188 6.375 4.92188H4.01953C2.12109 4.92188 1.12793 5.90625 1.12793 7.78711V17.0156C1.12793 18.8965 2.12109 19.8809 4.01953 19.8809ZM4.13379 18.1318C3.33398 18.1318 2.87695 17.71 2.87695 16.8574V7.94531C2.87695 7.10156 3.33398 6.67969 4.13379 6.67969H6.88477C7.67578 6.67969 8.08008 6.53906 8.52832 6.05566L9.19629 5.31738C9.68848 4.78125 9.95215 4.64062 10.7256 4.64062H13.2129C13.9863 4.64062 14.25 4.78125 14.7334 5.30859L15.4102 6.05566C15.8584 6.53906 16.2627 6.67969 17.0537 6.67969H19.8486C20.6572 6.67969 21.1055 7.10156 21.1055 7.94531V16.8574C21.1055 17.71 20.6572 18.1318 19.8486 18.1318H4.13379ZM11.9912 16.9717C14.6279 16.9717 16.7373 14.8623 16.7373 12.2168C16.7373 9.57129 14.6279 7.46191 11.9912 7.46191C9.36328 7.46191 7.25391 9.57129 7.25391 12.2168C7.25391 14.8623 9.36328 16.9717 11.9912 16.9717ZM17.0361 9.07031C17.0361 9.71191 17.5547 10.2129 18.1875 10.2041C18.8027 10.2041 19.3213 9.70312 19.3213 9.07031C19.3213 8.45508 18.7939 7.92773 18.1875 7.92773C17.5547 7.92773 17.0361 8.45508 17.0361 9.07031ZM11.9912 15.3721C10.2598 15.3721 8.84473 13.9658 8.84473 12.2168C8.84473 10.459 10.251 9.06152 11.9912 9.06152C13.7402 9.06152 15.1465 10.459 15.1465 12.2168C15.1465 13.9658 13.7402 15.3721 11.9912 15.3721Z" fill="#1C1C1E"/>
</g>
<defs>
<clipPath id="clip0_10_382">
<rect width="24" height="24" fill="white"/>
</clipPath>
</defs>
</svg>
