<svg width="24" height="24" viewBox="0 0 24 24" fill="none" xmlns="http://www.w3.org/2000/svg">
<g clip-path="url(#clip0_10_313)">
<path d="M8.48438 21.0322C9.78516 21.0322 10.9893 20.6367 12 19.96C13.002 20.6367 14.2148 21.0322 15.5156 21.0322C18.9873 21.0322 21.8262 18.2021 21.8262 14.7129C21.8262 12.2256 20.3848 10.0723 18.293 9.04395C18.3018 8.9209 18.3018 8.78906 18.3018 8.65723C18.3018 5.17676 15.4717 2.34668 11.9912 2.34668C8.50195 2.34668 5.67188 5.17676 5.67188 8.65723C5.67188 8.78906 5.68066 8.9209 5.68945 9.05273C3.59766 10.0811 2.16504 12.2344 2.16504 14.7129C2.16504 18.2021 4.99512 21.0322 8.48438 21.0322ZM8.48438 8.40234C8.0625 8.40234 7.6582 8.44629 7.2627 8.5166C7.33301 5.97656 9.41602 3.92871 11.9912 3.92871C14.5576 3.92871 16.6494 5.96777 16.7197 8.5166C16.333 8.4375 15.9287 8.40234 15.5156 8.40234C14.2148 8.40234 13.002 8.79785 11.9912 9.47461C10.9893 8.79785 9.78516 8.40234 8.48438 8.40234ZM8.48438 9.98438C9.30176 9.98438 10.0752 10.1953 10.752 10.5645C10.2158 11.1797 9.79395 11.9004 9.52148 12.7002C8.56348 12.1113 7.8252 11.1885 7.48242 10.0898C7.79883 10.0195 8.1416 9.98438 8.48438 9.98438ZM15.5156 9.98438C15.8496 9.98438 16.1836 10.0195 16.5 10.0898C16.1572 11.1797 15.4189 12.1025 14.4609 12.6914C14.1973 11.9004 13.7754 11.1797 13.2393 10.5645C13.9072 10.1953 14.6895 9.98438 15.5156 9.98438ZM15.5156 19.4502C14.6895 19.4502 13.9072 19.2393 13.2393 18.8701C14.2061 17.7539 14.7949 16.3037 14.7949 14.7129C14.7949 14.5811 14.7861 14.4492 14.7773 14.3262C16.2715 13.5879 17.4316 12.2695 17.9766 10.6699C19.3301 11.5049 20.2441 12.999 20.2441 14.7129C20.2441 17.332 18.126 19.4502 15.5156 19.4502ZM8.48438 19.4502C5.86523 19.4502 3.74707 17.332 3.74707 14.7129C3.74707 13.0078 4.65234 11.5137 6.00586 10.6787C6.55078 12.2783 7.71094 13.5879 9.20508 14.3262C9.19629 14.4492 9.19629 14.5811 9.19629 14.7129C9.19629 16.3037 9.78516 17.7539 10.752 18.8701C10.084 19.2393 9.31055 19.4502 8.48438 19.4502ZM11.9912 13.3857C11.6484 13.3857 11.3145 13.3506 10.998 13.2891C11.2002 12.6299 11.543 12.041 11.9912 11.5488C12.4395 12.041 12.7822 12.6299 12.9932 13.2803C12.668 13.3506 12.334 13.3857 11.9912 13.3857ZM11.9912 14.9678C12.4131 14.9678 12.8174 14.9326 13.2041 14.8535C13.1777 16.0225 12.7207 17.0771 11.9912 17.8857C11.2705 17.0771 10.8135 16.0225 10.7783 14.8535C11.1738 14.9326 11.5781 14.9678 11.9912 14.9678Z" fill="#1C1C1E"/>
</g>
<defs>
<clipPath id="clip0_10_313">
<rect width="24" height="24" fill="white"/>
</clipPath>
</defs>
</svg>
