<svg width="24" height="24" viewBox="0 0 24 24" fill="none" xmlns="http://www.w3.org/2000/svg">
<g clip-path="url(#clip0_10_380)">
<path d="M11.9912 20.7422C16.9746 20.7422 21.0879 16.6289 21.0879 11.6543C21.0879 6.67969 16.9658 2.56641 11.9824 2.56641C7.00781 2.56641 2.90332 6.67969 2.90332 11.6543C2.90332 16.6289 7.0166 20.7422 11.9912 20.7422ZM11.9912 18.9316C7.95703 18.9316 4.73145 15.6885 4.73145 11.6543C4.73145 7.62012 7.95703 4.38574 11.9824 4.38574C16.0166 4.38574 19.2598 7.62012 19.2686 11.6543C19.2773 15.6885 16.0254 18.9316 11.9912 18.9316ZM8.16797 15.5918H15.8057C16.7373 15.5918 17.2295 15.1084 17.2295 14.1855V9.63281C17.2295 8.70117 16.7373 8.21777 15.8057 8.21777H14.7598C14.4258 8.21777 14.3115 8.16504 14.1006 7.94531L13.7578 7.57617C13.5293 7.33887 13.3096 7.22461 12.8701 7.22461H11.0859C10.6465 7.22461 10.418 7.33008 10.1895 7.57617L9.84668 7.94531C9.63574 8.15625 9.53027 8.21777 9.1875 8.21777H8.16797C7.22754 8.21777 6.74414 8.70117 6.74414 9.63281V14.1855C6.74414 15.1084 7.22754 15.5918 8.16797 15.5918ZM11.9912 14.4229C10.5762 14.4229 9.44238 13.2891 9.44238 11.8652C9.44238 10.4502 10.5762 9.31641 11.9912 9.31641C13.4062 9.31641 14.54 10.4502 14.54 11.8652C14.54 13.3154 13.4062 14.4229 11.9912 14.4229ZM15.4453 10.7139C15.1113 10.7139 14.8389 10.4502 14.8389 10.1074C14.8389 9.77344 15.1113 9.50977 15.4453 9.50977C15.7705 9.50977 16.043 9.77344 16.043 10.1074C16.043 10.4502 15.7705 10.7139 15.4453 10.7139ZM11.9912 13.5615C12.9229 13.5615 13.6787 12.8057 13.6787 11.8652C13.6787 10.9336 12.9229 10.1777 11.9912 10.1777C11.0508 10.1777 10.2949 10.9336 10.2949 11.8652C10.2949 12.8057 11.0508 13.5615 11.9912 13.5615Z" fill="#1C1C1E"/>
</g>
<defs>
<clipPath id="clip0_10_380">
<rect width="24" height="24" fill="white"/>
</clipPath>
</defs>
</svg>
