<svg width="24" height="24" viewBox="0 0 24 24" fill="none" xmlns="http://www.w3.org/2000/svg">
<g clip-path="url(#clip0_10_381)">
<path d="M4.01953 19.8809H19.9629C21.8613 19.8809 22.8633 18.8965 22.8633 17.0156V7.78711C22.8633 5.90625 21.8613 4.92188 19.9629 4.92188H17.625C16.9395 4.92188 16.7197 4.80762 16.2891 4.35938L15.5947 3.6123C15.1377 3.12891 14.6719 2.8916 13.7754 2.8916H10.1631C9.2666 2.8916 8.80078 3.12891 8.34375 3.6123L7.64941 4.35938C7.22754 4.79883 6.99902 4.92188 6.31348 4.92188H4.01953C2.12109 4.92188 1.12793 5.90625 1.12793 7.78711V17.0156C1.12793 18.8965 2.12109 19.8809 4.01953 19.8809ZM11.9912 17.1211C9.36328 17.1211 7.25391 15.0117 7.25391 12.375C7.25391 9.72949 9.36328 7.62012 11.9912 7.62012C14.6279 7.62012 16.7373 9.72949 16.7373 12.375C16.7373 15.0117 14.6279 17.1211 11.9912 17.1211ZM17.2998 9.14062C17.2998 8.5166 17.8359 7.97168 18.4775 7.97168C19.1104 7.97168 19.6465 8.5166 19.6465 9.14062C19.6465 9.79102 19.1104 10.3008 18.4775 10.3096C17.8359 10.3096 17.2998 9.7998 17.2998 9.14062ZM11.9912 15.5303C13.7402 15.5303 15.1465 14.124 15.1465 12.375C15.1465 10.6172 13.7402 9.21094 11.9912 9.21094C10.251 9.21094 8.84473 10.6172 8.84473 12.375C8.84473 14.124 10.2598 15.5303 11.9912 15.5303Z" fill="#1C1C1E"/>
</g>
<defs>
<clipPath id="clip0_10_381">
<rect width="24" height="24" fill="white"/>
</clipPath>
</defs>
</svg>
