<svg width="24" height="24" viewBox="0 0 24 24" fill="none" xmlns="http://www.w3.org/2000/svg">
<g clip-path="url(#clip0_10_346)">
<path d="M19.8311 8.8418C20.4023 8.8418 20.71 8.52539 20.71 7.9541V5.81836C20.71 3.9375 19.7256 2.95312 17.8184 2.95312H15.6826C15.1113 2.95312 14.7949 3.26074 14.7949 3.83203C14.7949 4.39453 15.1113 4.70215 15.6826 4.70215H17.7041C18.5039 4.70215 18.9609 5.12402 18.9609 5.97656V7.9541C18.9609 8.52539 19.2686 8.8418 19.8311 8.8418ZM4.16016 8.8418C4.73145 8.8418 5.03027 8.52539 5.03027 7.9541V5.97656C5.03027 5.12402 5.47852 4.70215 6.28711 4.70215H8.30859C8.87988 4.70215 9.19629 4.39453 9.19629 3.83203C9.19629 3.26074 8.87988 2.95312 8.30859 2.95312H6.17285C4.27441 2.95312 3.28125 3.92871 3.28125 5.81836V7.9541C3.28125 8.52539 3.59766 8.8418 4.16016 8.8418ZM8.18555 15.6006H15.8232C16.7549 15.6006 17.2471 15.1172 17.2471 14.1943V9.6416C17.2471 8.70996 16.7549 8.22656 15.8232 8.22656H14.7773C14.4346 8.22656 14.3291 8.17383 14.1182 7.94531L13.7754 7.58496C13.5469 7.34766 13.3184 7.22461 12.8789 7.22461H11.0947C10.6641 7.22461 10.4268 7.33887 10.207 7.58496L9.85547 7.94531C9.64453 8.16504 9.53906 8.22656 9.20508 8.22656H8.18555C7.24512 8.22656 6.75293 8.70996 6.75293 9.6416V14.1943C6.75293 15.1172 7.24512 15.6006 8.18555 15.6006ZM12.0088 14.4316C10.5938 14.4316 9.45117 13.2979 9.45117 11.874C9.45117 10.459 10.5938 9.3252 12.0088 9.3252C13.4238 9.3252 14.5576 10.459 14.5576 11.874C14.5576 13.3242 13.4238 14.4316 12.0088 14.4316ZM15.4541 10.7139C15.1289 10.7139 14.8564 10.459 14.8564 10.1162C14.8564 9.78223 15.1289 9.51855 15.4541 9.51855C15.7881 9.51855 16.0518 9.78223 16.0605 10.1162C16.0605 10.459 15.7881 10.7139 15.4541 10.7139ZM12 13.5703C12.9316 13.5703 13.6963 12.8145 13.6963 11.874C13.6963 10.9336 12.9316 10.1865 12 10.1865C11.0684 10.1865 10.3125 10.9336 10.3125 11.874C10.3125 12.8145 11.0684 13.5703 12 13.5703ZM6.17285 20.3818H8.30859C8.87988 20.3818 9.19629 20.0654 9.19629 19.5029C9.19629 18.9404 8.87988 18.624 8.30859 18.624H6.28711C5.47852 18.624 5.03027 18.2109 5.03027 17.3584V15.3809C5.03027 14.8096 4.72266 14.4932 4.16016 14.4932C3.58887 14.4932 3.28125 14.8096 3.28125 15.3809V17.5166C3.28125 19.3975 4.27441 20.3818 6.17285 20.3818ZM15.6826 20.3818H17.8184C19.7256 20.3818 20.71 19.3975 20.71 17.5166V15.3809C20.71 14.8096 20.3936 14.4932 19.8311 14.4932C19.2598 14.4932 18.9609 14.8096 18.9609 15.3809V17.3584C18.9609 18.2109 18.5039 18.624 17.7041 18.624H15.6826C15.1113 18.624 14.7949 18.9404 14.7949 19.5029C14.7949 20.0654 15.1113 20.3818 15.6826 20.3818Z" fill="#1C1C1E"/>
</g>
<defs>
<clipPath id="clip0_10_346">
<rect width="24" height="24" fill="white"/>
</clipPath>
</defs>
</svg>
