<svg width="24" height="24" viewBox="0 0 24 24" fill="none" xmlns="http://www.w3.org/2000/svg">
<g clip-path="url(#clip0_10_379)">
<path d="M11.9912 20.7598C16.9746 20.7598 21.0879 16.6465 21.0879 11.6631C21.0879 6.68848 16.9658 2.5752 11.9824 2.5752C7.00781 2.5752 2.90332 6.68848 2.90332 11.6631C2.90332 16.6465 7.0166 20.7598 11.9912 20.7598ZM8.01855 15.7588C7.04297 15.7588 6.5332 15.2578 6.5332 14.2998V9.57129C6.5332 8.5957 7.04297 8.10352 8.01855 8.10352H9.08203C9.4248 8.10352 9.53906 8.0332 9.75879 7.81348L10.1191 7.42676C10.3477 7.17188 10.5938 7.05762 11.042 7.05762H12.9053C13.3623 7.05762 13.5996 7.18066 13.8281 7.42676L14.1885 7.81348C14.4082 8.04199 14.5225 8.10352 14.874 8.10352H15.9551C16.9219 8.10352 17.4404 8.5957 17.4404 9.57129V14.2998C17.4404 15.2578 16.9219 15.7588 15.9551 15.7588H8.01855ZM11.9912 14.5459C13.4678 14.5459 14.6367 13.3945 14.6367 11.8916C14.6367 10.4238 13.4678 9.2373 11.9912 9.2373C10.5234 9.2373 9.33691 10.4238 9.33691 11.8916C9.33691 13.3682 10.5234 14.5459 11.9912 14.5459ZM15.5859 10.6875C15.9287 10.6875 16.21 10.415 16.2012 10.0635C16.2012 9.7207 15.9287 9.43945 15.5859 9.43945C15.2344 9.43945 14.9531 9.7207 14.9531 10.0635C14.9531 10.415 15.2344 10.6875 15.5859 10.6875ZM11.9912 13.6406C11.0244 13.6406 10.2422 12.8672 10.2422 11.8916C10.2422 10.916 11.0244 10.1426 11.9912 10.1426C12.9492 10.1426 13.7314 10.9248 13.7314 11.8916C13.7314 12.8672 12.9492 13.6406 11.9912 13.6406Z" fill="#1C1C1E"/>
</g>
<defs>
<clipPath id="clip0_10_379">
<rect width="24" height="24" fill="white"/>
</clipPath>
</defs>
</svg>
