<svg width="24" height="24" viewBox="0 0 24 24" fill="none" xmlns="http://www.w3.org/2000/svg">
<g clip-path="url(#clip0_10_546)">
<path d="M4.44141 20.2236H19.5498C21.4395 20.2236 22.4062 19.2744 22.4062 17.4023V8.78906C22.4062 6.92578 21.4395 5.96777 19.5498 5.96777H17.3262V5.03613C17.3262 3.64746 16.4297 2.82129 14.9268 2.82129H9.06445C7.56152 2.82129 6.66504 3.64746 6.66504 5.03613V5.96777H4.44141C2.56055 5.96777 1.58496 6.92578 1.58496 8.78906V17.4023C1.58496 19.2744 2.56055 20.2236 4.44141 20.2236ZM8.45801 5.12402C8.45801 4.71094 8.73047 4.44727 9.17871 4.44727H14.8125C15.2607 4.44727 15.542 4.71094 15.542 5.12402V5.96777H8.45801V5.12402Z" fill="#1C1C1E"/>
</g>
<defs>
<clipPath id="clip0_10_546">
<rect width="24" height="24" fill="white"/>
</clipPath>
</defs>
</svg>
