<svg width="24" height="24" viewBox="0 0 24 24" fill="none" xmlns="http://www.w3.org/2000/svg">
<g clip-path="url(#clip0_10_541)">
<path d="M2.70117 18.2988L6.70898 22.3066C7.04297 22.6406 7.59668 22.6406 7.93066 22.3066C8.25586 21.9727 8.25586 21.4277 7.93066 21.1025L5.41699 18.5801L6.22559 17.7715L8.84473 20.3994C9.09961 20.6543 9.5127 20.6543 9.75879 20.4082C10.0137 20.1533 10.0225 19.7402 9.76758 19.4854L7.13965 16.8574L7.95703 16.0488L10.5762 18.6768C10.8223 18.9316 11.2441 18.9316 11.4902 18.6768C11.7363 18.4219 11.7451 18.0088 11.499 17.7539L8.87109 15.126L9.67969 14.3174L12.2988 16.9453C12.5537 17.2002 12.9668 17.2002 13.2129 16.9453C13.4678 16.6992 13.4766 16.2861 13.2217 16.0225L10.6025 13.4033L11.4111 12.5859L14.0303 15.2227C14.2852 15.4775 14.6982 15.4775 14.9443 15.2227C15.1904 14.9678 15.1992 14.5459 14.9531 14.2998L12.3252 11.6719L13.125 10.8721L15.7529 13.4912C15.999 13.7461 16.4209 13.7461 16.667 13.5C16.9219 13.2539 16.9307 12.832 16.6758 12.5771L14.0479 9.94922L14.8564 9.14062L17.4844 11.7686C17.7305 12.0146 18.1523 12.0146 18.3896 11.7686C18.6445 11.5225 18.6533 11.1094 18.3984 10.8545L15.7793 8.22656L16.5791 7.41797L19.207 10.0371C19.4619 10.292 19.875 10.3008 20.1211 10.0459C20.376 9.79102 20.3848 9.37793 20.1299 9.12305L17.502 6.49512L18.3105 5.68652L20.8242 8.2002C21.1582 8.52539 21.6943 8.53418 22.0283 8.2002C22.3535 7.86621 22.3623 7.33008 22.0283 6.99609L18.0117 2.98828C16.6934 1.66992 15.0234 1.67871 13.6963 3.00586L2.72754 13.9834C1.40039 15.3018 1.38281 16.9717 2.70117 18.2988Z" fill="#1C1C1E"/>
</g>
<defs>
<clipPath id="clip0_10_541">
<rect width="24" height="24" fill="white"/>
</clipPath>
</defs>
</svg>
