<svg width="24" height="24" viewBox="0 0 24 24" fill="none" xmlns="http://www.w3.org/2000/svg">
<g clip-path="url(#clip0_10_341)">
<path d="M2.72754 13.7021C1.40039 15.0205 1.38281 16.6992 2.70117 18.0176L6.70898 22.0254C7.04297 22.3594 7.59668 22.3594 7.93066 22.0254C8.25586 21.6914 8.26465 21.1553 7.93066 20.8213L5.86523 18.7646L6.68262 17.9473L8.84473 20.127C9.09961 20.373 9.5127 20.3818 9.75879 20.127C10.0137 19.8721 10.0225 19.459 9.76758 19.2041L7.59668 17.0332L8.40527 16.2246L10.5762 18.3955C10.8223 18.6504 11.2441 18.6504 11.4902 18.3955C11.7363 18.1494 11.7451 17.7363 11.499 17.4814L9.31934 15.3105L10.1367 14.4932L12.2988 16.6729C12.5537 16.9189 12.9668 16.9189 13.2129 16.6729C13.4678 16.418 13.4766 16.0049 13.2217 15.75L11.0508 13.5791L11.8594 12.7705L14.0303 14.9414C14.2852 15.1963 14.6982 15.1963 14.9443 14.9414C15.1904 14.6865 15.1992 14.2734 14.9531 14.0186L12.7734 11.8477L13.582 11.0479L15.7529 13.2188C15.999 13.4648 16.4209 13.4648 16.667 13.2188C16.9219 12.9727 16.9307 12.5508 16.6758 12.2959L14.5049 10.125L15.3135 9.31641L17.4844 11.4873C17.7305 11.7334 18.1523 11.7334 18.3896 11.4961C18.6445 11.2412 18.6533 10.8281 18.3984 10.5732L16.2275 8.39355L17.0361 7.58496L19.207 9.75586C19.4619 10.0195 19.875 10.0195 20.1211 9.76465C20.376 9.50977 20.3848 9.09668 20.1299 8.8418L17.959 6.6709L18.7676 5.8623L20.8242 7.91895C21.1582 8.25293 21.6943 8.26172 22.0283 7.92773C22.3535 7.58496 22.3623 7.04883 22.0283 6.71484L18.0117 2.70703C16.6934 1.38867 15.0234 1.39746 13.6963 2.72461L2.72754 13.7021ZM4.07227 16.9629C3.37793 16.2686 3.36035 15.4775 4.0459 14.7832L14.7949 4.05176C15.4805 3.36621 16.2803 3.375 16.9658 4.06055L17.5547 4.64941L4.66113 17.5518L4.07227 16.9629Z" fill="#1C1C1E"/>
</g>
<defs>
<clipPath id="clip0_10_341">
<rect width="24" height="24" fill="white"/>
</clipPath>
</defs>
</svg>
