<svg width="24" height="24" viewBox="0 0 24 24" fill="none" xmlns="http://www.w3.org/2000/svg">
<g clip-path="url(#clip0_10_533)">
<path d="M4.44141 20.2236H19.5498C21.4395 20.2236 22.4062 19.2744 22.4062 17.4023V8.78906C22.4062 6.92578 21.4395 5.96777 19.5498 5.96777H17.3262V5.27344C17.3262 3.6123 16.4297 2.82129 14.7686 2.82129H9.21387C7.63184 2.82129 6.66504 3.6123 6.66504 5.27344V5.96777H4.44141C2.56055 5.96777 1.58496 6.92578 1.58496 8.78906V17.4023C1.58496 19.2744 2.56055 20.2236 4.44141 20.2236ZM8.27344 5.20312C8.27344 4.61426 8.625 4.28027 9.24023 4.28027H14.751C15.3662 4.28027 15.709 4.61426 15.709 5.20312V5.96777H8.27344V5.20312ZM4.51172 18.5361C3.74707 18.5361 3.33398 18.1494 3.33398 17.3496V8.8418C3.33398 8.05078 3.74707 7.65527 4.51172 7.65527H19.4795C20.2441 7.65527 20.6572 8.05078 20.6572 8.8418V17.3496C20.6572 18.1494 20.2441 18.5361 19.4795 18.5361H4.51172ZM7.7373 13.8779C7.7373 14.3965 8.09766 14.748 8.61621 14.748H10.3477V16.4795C10.3477 16.998 10.6904 17.3496 11.209 17.3496H12.7734C13.292 17.3496 13.6436 16.998 13.6436 16.4795V14.748H15.375C15.8936 14.748 16.2451 14.3965 16.2451 13.8779V12.3135C16.2451 11.7949 15.8936 11.4521 15.375 11.4521H13.6436V9.7207C13.6436 9.20215 13.292 8.85059 12.7734 8.85059H11.209C10.6904 8.85059 10.3477 9.20215 10.3477 9.7207V11.4521H8.61621C8.08887 11.4521 7.7373 11.7949 7.7373 12.3135V13.8779Z" fill="#1C1C1E"/>
</g>
<defs>
<clipPath id="clip0_10_533">
<rect width="24" height="24" fill="white"/>
</clipPath>
</defs>
</svg>
