<svg width="24" height="24" viewBox="0 0 24 24" fill="none" xmlns="http://www.w3.org/2000/svg">
<g clip-path="url(#clip0_10_558)">
<path d="M19.418 17.7627L21.1494 10.7402C22.4414 10.7402 23.5312 9.65918 23.5312 8.31445C23.5312 6.9873 22.4414 5.89746 21.1055 5.89746C19.7695 5.89746 18.6885 6.9873 18.6885 8.31445C18.6885 8.58691 18.7324 8.8418 18.8115 9.0791L16.7197 10.3711C16.4473 10.5381 16.2803 10.4941 16.1309 10.2832L13.3975 6.60059C14.0127 6.16113 14.417 5.44043 14.417 4.62305C14.417 3.2959 13.3271 2.20605 12 2.20605C10.6553 2.20605 9.57422 3.28711 9.57422 4.62305C9.57422 5.44043 9.97852 6.16113 10.6025 6.60059L7.86035 10.292C7.71973 10.4854 7.56152 10.5293 7.30664 10.3711L5.18848 9.06152C5.25879 8.82422 5.30273 8.57812 5.30273 8.31445C5.30273 6.9873 4.22168 5.89746 2.88574 5.89746C1.54102 5.89746 0.459961 6.9873 0.459961 8.31445C0.459961 9.6416 1.53223 10.7227 2.85059 10.7402L4.57324 17.7627C4.93359 19.2217 5.72461 19.9512 7.23633 19.9512H16.7637C18.2754 19.9512 19.0664 19.2217 19.418 17.7627ZM12 5.50195C11.5166 5.50195 11.1211 5.10645 11.1211 4.62305C11.1211 4.13086 11.5166 3.75293 12 3.75293C12.4746 3.75293 12.8701 4.14844 12.8701 4.62305C12.8701 5.10645 12.4834 5.50195 12 5.50195ZM6.71777 11.8828C7.4209 12.2959 8.41406 12.252 9.0293 11.4258L12 7.42676L14.9971 11.4521C15.5947 12.2695 16.5791 12.3135 17.2383 11.918L19.5234 10.5381L18.4248 15.0293H5.56641L4.46777 10.5117L6.71777 11.8828ZM2.88574 9.19336C2.40234 9.19336 2.00684 8.79785 2.00684 8.31445C2.00684 7.83105 2.40234 7.44434 2.88574 7.44434C3.36035 7.44434 3.75586 7.83984 3.75586 8.31445C3.75586 8.79785 3.36914 9.19336 2.88574 9.19336ZM21.1055 9.19336C20.6133 9.19336 20.2354 8.79785 20.2354 8.31445C20.2354 7.83984 20.6309 7.44434 21.1055 7.44434C21.5889 7.44434 21.9844 7.83105 21.9844 8.31445C21.9844 8.79785 21.5889 9.19336 21.1055 9.19336ZM7.21875 18.334C6.64746 18.334 6.30469 18.0703 6.18164 17.5342L5.96191 16.6553H18.0293L17.8184 17.5342C17.6865 18.0703 17.3525 18.334 16.7725 18.334H7.21875Z" fill="#1C1C1E"/>
</g>
<defs>
<clipPath id="clip0_10_558">
<rect width="24" height="24" fill="white"/>
</clipPath>
</defs>
</svg>
