<svg width="24" height="24" viewBox="0 0 24 24" fill="none" xmlns="http://www.w3.org/2000/svg">
<g clip-path="url(#clip0_10_338)">
<path d="M3.95801 15.1963H20.0684L21.2549 10.3535C21.2637 10.3535 21.2812 10.3535 21.2988 10.3535C22.5205 10.3535 23.5225 9.35156 23.5225 8.12109C23.5225 6.89941 22.5293 5.89746 21.2988 5.89746C20.0684 5.89746 19.0752 6.9082 19.0752 8.12109C19.0752 8.45508 19.1455 8.78027 19.2773 9.06152L16.7285 10.8984C16.4648 11.083 16.2803 11.0215 16.1396 10.8105L13.1074 6.32812C13.7754 5.94141 14.2324 5.21191 14.2324 4.38574C14.2324 3.16406 13.2305 2.16211 12.0088 2.16211C10.7695 2.16211 9.77637 3.16406 9.77637 4.38574C9.77637 5.21191 10.2334 5.94141 10.9014 6.32812L7.86914 10.8105C7.72852 11.0127 7.57031 11.0742 7.31543 10.8896L4.73145 9.02637C4.85449 8.75391 4.9248 8.44629 4.9248 8.12109C4.9248 6.9082 3.92285 5.89746 2.70117 5.89746C1.4707 5.89746 0.46875 6.89941 0.46875 8.12109C0.46875 9.35156 1.4707 10.3535 2.70117 10.3535C2.71875 10.3535 2.74512 10.3535 2.7627 10.3535L3.95801 15.1963ZM4.29199 16.5938L4.58203 17.7627C4.94238 19.2129 5.7334 19.9512 7.24512 19.9512H16.7725C18.2842 19.9512 19.0752 19.2305 19.4268 17.7627L19.7168 16.5938H4.29199Z" fill="#1C1C1E"/>
</g>
<defs>
<clipPath id="clip0_10_338">
<rect width="24" height="24" fill="white"/>
</clipPath>
</defs>
</svg>
