<svg width="24" height="24" viewBox="0 0 24 24" fill="none" xmlns="http://www.w3.org/2000/svg">
<g clip-path="url(#clip0_10_603)">
<path d="M4.30078 17.3145L11.0947 21.1113C11.71 21.4541 12.2725 21.4541 12.8877 21.1113L19.6816 17.3145C20.5342 16.8486 20.9561 16.3477 20.9561 15.1084V7.98047C20.9561 7.04883 20.6045 6.45117 19.8135 6.01172L13.6348 2.54883C12.5537 1.94238 11.4375 1.94238 10.3477 2.54883L4.16895 6.01172C3.38672 6.45117 3.03516 7.04883 3.03516 7.98047V15.1084C3.03516 16.3477 3.45703 16.8486 4.30078 17.3145ZM11.9912 10.7842L5.52246 7.17188L11.0596 4.05176C11.6924 3.69141 12.29 3.68262 12.9316 4.05176L18.4688 7.17188L11.9912 10.7842ZM5.26758 15.9521C4.78418 15.6885 4.61719 15.4072 4.61719 14.9414V8.56055L11.165 12.252V19.2744L5.26758 15.9521ZM18.7236 15.9521L12.8174 19.2744V12.252L19.3652 8.56055V14.9414C19.3652 15.4072 19.1982 15.6885 18.7236 15.9521Z" fill="#1C1C1E"/>
</g>
<defs>
<clipPath id="clip0_10_603">
<rect width="24" height="24" fill="white"/>
</clipPath>
</defs>
</svg>
