<svg width="24" height="24" viewBox="0 0 24 24" fill="none" xmlns="http://www.w3.org/2000/svg">
<g clip-path="url(#clip0_10_526)">
<path d="M11.9912 11.0566L20.3408 6.38086C20.2002 6.24023 20.0332 6.12598 19.8135 6.01172L13.6523 2.54883C13.1074 2.24121 12.5449 2.08301 12 2.08301C11.4463 2.08301 10.8838 2.24121 10.3389 2.54883L4.17773 6.01172C3.9668 6.12598 3.79102 6.24023 3.65039 6.38086L11.9912 11.0566ZM11.3496 21.2959V12.1992L3.06152 7.52344C3.01758 7.69922 3 7.88379 3 8.10352V15.1348C3 16.3916 3.43945 16.8926 4.29199 17.376L11.0947 21.1904C11.1738 21.2344 11.2617 21.2783 11.3496 21.2959ZM12.6416 21.2959C12.7295 21.2783 12.8086 21.2344 12.8965 21.1904L19.6992 17.376C20.5518 16.8926 20.9912 16.3916 20.9912 15.1348V8.10352C20.9912 7.88379 20.9736 7.69922 20.9297 7.52344L12.6416 12.1992V21.2959Z" fill="#1C1C1E"/>
</g>
<defs>
<clipPath id="clip0_10_526">
<rect width="24" height="24" fill="white"/>
</clipPath>
</defs>
</svg>
