<svg width="24" height="24" viewBox="0 0 24 24" fill="none" xmlns="http://www.w3.org/2000/svg">
<g clip-path="url(#clip0_10_493)">
<path d="M12 20.7422C16.9746 20.7422 21.0879 16.6289 21.0879 11.6543C21.0879 6.67969 16.9834 2.56641 12 2.56641C7.02539 2.56641 2.90332 6.67969 2.90332 11.6543C2.90332 16.6289 7.0166 20.7422 12 20.7422ZM12 18.9316C7.96582 18.9316 4.71387 15.6885 4.72266 11.6543C4.73145 7.62012 7.96582 4.38574 12 4.38574C16.0342 4.38574 19.2598 7.62012 19.2598 11.6543C19.2598 15.6885 16.0254 18.9316 12 18.9316ZM9.00293 9.7207L11.5078 12.2256C11.7891 12.5156 12.2285 12.5156 12.5098 12.2256L16.3857 8.3584C16.6582 8.07715 16.667 7.6377 16.377 7.36523C16.0869 7.09277 15.665 7.08398 15.3838 7.36523L12 10.7402L9.99609 8.72754C9.71484 8.44629 9.28418 8.44629 9.00293 8.72754C8.72168 9.00879 8.72168 9.43945 9.00293 9.7207ZM2.95605 16.6729V19.2305C2.95605 20.3818 3.51855 20.9355 4.6875 20.9355H7.4209C5.4873 19.9863 4.01074 18.5713 2.95605 16.6729ZM21.0352 16.6729C19.9805 18.5713 18.5039 19.9863 16.5703 20.9355H19.3037C20.4727 20.9355 21.0352 20.3818 21.0352 19.2305V16.6729Z" fill="#1C1C1E"/>
</g>
<defs>
<clipPath id="clip0_10_493">
<rect width="24" height="24" fill="white"/>
</clipPath>
</defs>
</svg>
