<svg width="24" height="24" viewBox="0 0 24 24" fill="none" xmlns="http://www.w3.org/2000/svg">
<g clip-path="url(#clip0_10_481)">
<path d="M12 20.7422C16.9746 20.7422 21.0879 16.6289 21.0879 11.6543C21.0879 6.67969 16.9658 2.56641 11.9912 2.56641C7.00781 2.56641 2.90332 6.67969 2.90332 11.6543C2.90332 16.6289 7.0166 20.7422 12 20.7422ZM8.85352 9.7207C8.56348 9.43066 8.57227 8.97363 8.85352 8.68359C9.15234 8.38477 9.60059 8.38477 9.89941 8.68359L11.9824 10.7666L15.4805 7.25977C15.7793 6.96094 16.2188 6.97852 16.5264 7.25977C16.8252 7.5498 16.8164 8.01562 16.5264 8.30566L12.5098 12.3311C12.2109 12.6299 11.7539 12.6299 11.4551 12.3311L8.85352 9.7207ZM2.95605 16.6729V19.2305C2.95605 20.3818 3.51855 20.9355 4.6875 20.9355H7.4209C5.4873 19.9863 4.01074 18.5713 2.95605 16.6729ZM21.0352 16.6729C19.9805 18.5713 18.5039 19.9863 16.5703 20.9355H19.3037C20.4727 20.9355 21.0352 20.3818 21.0352 19.2305V16.6729Z" fill="#1C1C1E"/>
</g>
<defs>
<clipPath id="clip0_10_481">
<rect width="24" height="24" fill="white"/>
</clipPath>
</defs>
</svg>
