<svg width="24" height="24" viewBox="0 0 24 24" fill="none" xmlns="http://www.w3.org/2000/svg">
<g clip-path="url(#clip0_10_717)">
<path d="M6.67383 19.8809H17.3174C19.2246 19.8809 20.209 18.8965 20.209 17.0156V6.31934C20.209 4.43848 19.2246 3.4541 17.3174 3.4541H6.67383C4.77539 3.4541 3.78223 4.42969 3.78223 6.31934V17.0156C3.78223 18.8965 4.77539 19.8809 6.67383 19.8809ZM6.78809 18.1318C5.97949 18.1318 5.53125 17.71 5.53125 16.8574V6.47754C5.53125 5.625 5.97949 5.20312 6.78809 5.20312H17.2031C18.0029 5.20312 18.46 5.625 18.46 6.47754V16.8574C18.46 17.71 18.0029 18.1318 17.2031 18.1318H6.78809ZM12.0088 13.0781C12.7734 13.0957 13.4238 12.4453 13.4238 11.6543C13.4238 10.8721 12.7822 10.2393 12.0088 10.2393C11.2178 10.2393 10.585 10.8721 10.585 11.6543C10.585 12.4453 11.2178 13.0693 12.0088 13.0781Z" fill="#1C1C1E"/>
</g>
<defs>
<clipPath id="clip0_10_717">
<rect width="24" height="24" fill="white"/>
</clipPath>
</defs>
</svg>
