<svg width="24" height="24" viewBox="0 0 24 24" fill="none" xmlns="http://www.w3.org/2000/svg">
<g clip-path="url(#clip0_10_645)">
<path d="M6.67383 19.8809H17.3174C19.2246 19.8809 20.209 18.8965 20.209 17.0156V6.31934C20.209 4.43848 19.2246 3.4541 17.3174 3.4541H6.67383C4.77539 3.4541 3.78223 4.42969 3.78223 6.31934V17.0156C3.78223 18.8965 4.77539 19.8809 6.67383 19.8809ZM8.03613 9.16699C7.21875 9.1582 6.55078 8.50781 6.55078 7.69043C6.55078 6.87305 7.21875 6.21387 8.03613 6.21387C8.84473 6.21387 9.5127 6.87305 9.5127 7.69043C9.5127 8.5166 8.84473 9.19336 8.03613 9.16699ZM15.9727 9.16699C15.1553 9.1582 14.4873 8.50781 14.4873 7.69043C14.4873 6.87305 15.1553 6.21387 15.9727 6.21387C16.7725 6.21387 17.4404 6.87305 17.4404 7.69043C17.4404 8.5166 16.7725 9.19336 15.9727 9.16699ZM8.03613 17.1211C7.21875 17.1211 6.55957 16.4531 6.55957 15.6357C6.55957 14.8184 7.21875 14.168 8.03613 14.168C8.83594 14.168 9.50391 14.8184 9.50391 15.6357C9.50391 16.4531 8.84473 17.1211 8.03613 17.1211ZM15.9727 17.1211C15.1553 17.1211 14.4961 16.4531 14.4961 15.6357C14.4961 14.8184 15.1553 14.168 15.9727 14.168C16.7725 14.168 17.4404 14.8184 17.4404 15.6357C17.4404 16.4531 16.7725 17.1211 15.9727 17.1211Z" fill="#1C1C1E"/>
</g>
<defs>
<clipPath id="clip0_10_645">
<rect width="24" height="24" fill="white"/>
</clipPath>
</defs>
</svg>
