<svg width="24" height="24" viewBox="0 0 24 24" fill="none" xmlns="http://www.w3.org/2000/svg">
<g clip-path="url(#clip0_10_661)">
<path d="M6.67383 19.8809H17.3174C19.2246 19.8809 20.209 18.8965 20.209 17.0156V6.31934C20.209 4.43848 19.2246 3.4541 17.3174 3.4541H6.67383C4.77539 3.4541 3.78223 4.42969 3.78223 6.31934V17.0156C3.78223 18.8965 4.77539 19.8809 6.67383 19.8809ZM6.78809 18.1318C5.97949 18.1318 5.53125 17.71 5.53125 16.8574V6.47754C5.53125 5.625 5.97949 5.20312 6.78809 5.20312H17.2031C18.0029 5.20312 18.46 5.625 18.46 6.47754V16.8574C18.46 17.71 18.0029 18.1318 17.2031 18.1318H6.78809ZM15.8145 9.26367C16.5879 9.27246 17.2295 8.63086 17.2295 7.83984C17.2295 7.05762 16.5967 6.4248 15.8145 6.4248C15.0322 6.4248 14.3906 7.05762 14.3906 7.83984C14.3906 8.63086 15.0322 9.25488 15.8145 9.26367ZM8.18555 16.9102C8.95898 16.9102 9.5918 16.2686 9.5918 15.4863C9.5918 14.7041 8.9502 14.0713 8.18555 14.0713C7.40332 14.0713 6.77051 14.7041 6.77051 15.4863C6.77051 16.2686 7.40332 16.9102 8.18555 16.9102Z" fill="#1C1C1E"/>
</g>
<defs>
<clipPath id="clip0_10_661">
<rect width="24" height="24" fill="white"/>
</clipPath>
</defs>
</svg>
