<svg width="24" height="24" viewBox="0 0 24 24" fill="none" xmlns="http://www.w3.org/2000/svg">
<g clip-path="url(#clip0_10_663)">
<path d="M6.67383 19.8809H17.3174C19.2246 19.8809 20.209 18.8965 20.209 17.0156V6.31934C20.209 4.43848 19.2246 3.4541 17.3174 3.4541H6.67383C4.77539 3.4541 3.78223 4.42969 3.78223 6.31934V17.0156C3.78223 18.8965 4.77539 19.8809 6.67383 19.8809ZM12.0088 13.1396C11.1914 13.1309 10.5234 12.4805 10.5234 11.6543C10.5234 10.8369 11.1914 10.1865 12.0088 10.1865C12.8174 10.1865 13.4766 10.8369 13.4766 11.6543C13.4766 12.4805 12.8086 13.1484 12.0088 13.1396Z" fill="#1C1C1E"/>
</g>
<defs>
<clipPath id="clip0_10_663">
<rect width="24" height="24" fill="white"/>
</clipPath>
</defs>
</svg>
