<svg width="24" height="24" viewBox="0 0 24 24" fill="none" xmlns="http://www.w3.org/2000/svg">
<g clip-path="url(#clip0_10_653)">
<path d="M6.67383 19.8809H17.3174C19.2246 19.8809 20.209 18.8965 20.209 17.0156V6.31934C20.209 4.43848 19.2246 3.4541 17.3174 3.4541H6.67383C4.77539 3.4541 3.78223 4.42969 3.78223 6.31934V17.0156C3.78223 18.8965 4.77539 19.8809 6.67383 19.8809ZM15.9727 9.16699C15.1553 9.1582 14.4785 8.50781 14.4785 7.69043C14.4785 6.87305 15.1553 6.21387 15.9727 6.21387C16.7725 6.21387 17.4404 6.87305 17.4404 7.69043C17.4404 8.5166 16.7725 9.19336 15.9727 9.16699ZM12 13.1484C11.1826 13.1484 10.5322 12.4805 10.5322 11.6543C10.5322 10.8457 11.1826 10.1953 12 10.1953C12.7998 10.1953 13.4678 10.8457 13.4678 11.6543C13.4678 12.4805 12.8086 13.1484 12 13.1484ZM8.03613 17.1211C7.21875 17.1211 6.55957 16.4531 6.55957 15.6357C6.55957 14.8184 7.21875 14.168 8.03613 14.168C8.83594 14.168 9.50391 14.8184 9.50391 15.6357C9.50391 16.4531 8.84473 17.1211 8.03613 17.1211Z" fill="#1C1C1E"/>
</g>
<defs>
<clipPath id="clip0_10_653">
<rect width="24" height="24" fill="white"/>
</clipPath>
</defs>
</svg>
