<svg width="24" height="24" viewBox="0 0 24 24" fill="none" xmlns="http://www.w3.org/2000/svg">
<g clip-path="url(#clip0_10_687)">
<path d="M7.20117 3.69141H8.55469C9.93457 3.69141 10.9365 4.0166 11.9121 4.9834L16.9043 9.97559C17.8535 10.9248 18.0908 12.0146 18.0908 13.3242V18.3164H18.3633C20.0508 18.3164 21.1582 17.3936 21.1582 15.4248V3.35742C21.1582 1.4502 20.1738 0.457031 18.293 0.457031H10.0488C8.18555 0.457031 7.20117 1.4502 7.20117 3.33105V3.69141ZM11.5078 3.05859V2.85645C11.5078 2.59277 11.7012 2.29395 12.1055 2.29395H16.2451C16.6582 2.29395 16.8428 2.59277 16.8428 2.85645V3.05859C16.8428 3.34863 16.6406 3.6123 16.2451 3.6123H12.1055C11.7188 3.6123 11.5078 3.34863 11.5078 3.05859ZM2.8418 19.9424C2.8418 21.8496 3.82617 22.834 5.70703 22.834H13.9336C15.8145 22.834 16.7988 21.8408 16.7988 19.9424V13.1309H10.5322C9.41602 13.1309 8.87109 12.5771 8.87109 11.4609V4.97461H5.70703C3.82617 4.97461 2.8418 5.97656 2.8418 7.875V19.9424ZM10.6377 11.8389H16.6406C16.5352 11.4609 16.3066 11.1006 15.9111 10.6963L11.2793 5.99414C10.875 5.58984 10.5322 5.31738 10.1543 5.20312V11.3555C10.1543 11.6719 10.3213 11.8389 10.6377 11.8389Z" fill="#1C1C1E"/>
</g>
<defs>
<clipPath id="clip0_10_687">
<rect width="24" height="24" fill="white"/>
</clipPath>
</defs>
</svg>
