<svg width="24" height="24" viewBox="0 0 24 24" fill="none" xmlns="http://www.w3.org/2000/svg">
<g clip-path="url(#clip0_10_527)">
<path d="M11.9912 20.7422C16.9746 20.7422 21.0879 16.6289 21.0879 11.6543C21.0879 6.67969 16.9658 2.56641 11.9824 2.56641C7.00781 2.56641 2.90332 6.67969 2.90332 11.6543C2.90332 16.6289 7.0166 20.7422 11.9912 20.7422ZM9.63574 16.5059C8.61621 16.5059 8.08887 15.9785 8.08887 14.9414V8.13867C8.08887 7.11914 8.61621 6.57422 9.63574 6.57422H11.376V10.2305C11.376 10.8369 11.666 11.127 12.2637 11.127H15.876V14.9414C15.876 15.9609 15.3486 16.5059 14.3291 16.5059H9.63574ZM12.3955 10.3623C12.2285 10.3623 12.1318 10.2744 12.1318 10.0898V6.62695C12.3428 6.65332 12.5625 6.80273 12.7998 7.04883L15.3926 9.68555C15.6475 9.94043 15.7969 10.1514 15.8232 10.3623H12.3955Z" fill="#1C1C1E"/>
</g>
<defs>
<clipPath id="clip0_10_527">
<rect width="24" height="24" fill="white"/>
</clipPath>
</defs>
</svg>
