<svg width="24" height="24" viewBox="0 0 24 24" fill="none" xmlns="http://www.w3.org/2000/svg">
<g clip-path="url(#clip0_10_466)">
<path d="M2.8418 19.9424C2.8418 21.8496 3.82617 22.834 5.70703 22.834H13.9336C15.8145 22.834 16.7988 21.8408 16.7988 19.9424V18.3164H18.293C20.1738 18.3164 21.1582 17.3232 21.1582 15.4248V3.35742C21.1582 1.4502 20.1738 0.457031 18.293 0.457031H10.0664C8.18555 0.457031 7.20117 1.4502 7.20117 3.35742V4.97461H5.70703C3.82617 4.97461 2.8418 5.97656 2.8418 7.875V19.9424ZM12.1055 3.6123C11.7188 3.6123 11.5078 3.34863 11.5078 3.05859V2.85645C11.5078 2.59277 11.7012 2.29395 12.1055 2.29395H16.2451C16.6582 2.29395 16.8428 2.59277 16.8428 2.85645V3.05859C16.8428 3.34863 16.6406 3.6123 16.2451 3.6123H12.1055ZM4.59082 19.8281V7.98926C4.59082 7.18066 5.0127 6.73242 5.86523 6.73242H8.5459V11.5137C8.5459 12.7881 9.16992 13.4033 10.4355 13.4033H15.0498V19.8281C15.0498 20.6367 14.6279 21.085 13.7754 21.085H5.85645C5.0127 21.085 4.59082 20.6367 4.59082 19.8281ZM10.6025 11.8652C10.2422 11.8652 10.084 11.7158 10.084 11.3467V7.06641L14.8125 11.8652H10.6025Z" fill="#1C1C1E"/>
</g>
<defs>
<clipPath id="clip0_10_466">
<rect width="24" height="24" fill="white"/>
</clipPath>
</defs>
</svg>
