<svg width="24" height="24" viewBox="0 0 24 24" fill="none" xmlns="http://www.w3.org/2000/svg">
<g clip-path="url(#clip0_10_539)">
<path d="M11.9912 20.7422C16.9746 20.7422 21.0879 16.6289 21.0879 11.6543C21.0879 6.67969 16.9658 2.56641 11.9824 2.56641C7.00781 2.56641 2.90332 6.67969 2.90332 11.6543C2.90332 16.6289 7.0166 20.7422 11.9912 20.7422ZM11.9912 18.9316C7.95703 18.9316 4.73145 15.6885 4.73145 11.6543C4.73145 7.62012 7.95703 4.38574 11.9824 4.38574C16.0166 4.38574 19.2598 7.62012 19.2686 11.6543C19.2773 15.6885 16.0254 18.9316 11.9912 18.9316ZM9.72363 16.3213H14.25C15.2256 16.3213 15.7266 15.8027 15.7266 14.8184V11.1445H12.2549C11.6748 11.1445 11.4023 10.8633 11.4023 10.292V6.76758H9.72363C8.75684 6.76758 8.24707 7.28613 8.24707 8.27051V14.8184C8.24707 15.8115 8.74805 16.3213 9.72363 16.3213ZM12.3867 10.415H15.6826C15.6562 10.2129 15.498 10.0107 15.2607 9.77344L12.7646 7.2334C12.5361 6.99609 12.3252 6.84668 12.123 6.82031V10.1514C12.123 10.3271 12.2109 10.415 12.3867 10.415Z" fill="#1C1C1E"/>
</g>
<defs>
<clipPath id="clip0_10_539">
<rect width="24" height="24" fill="white"/>
</clipPath>
</defs>
</svg>
