<svg width="24" height="24" viewBox="0 0 24 24" fill="none" xmlns="http://www.w3.org/2000/svg">
<g clip-path="url(#clip0_10_440)">
<path d="M18.0908 18.3164H18.3633C20.042 18.3164 21.1582 17.3936 21.1582 15.4248V7.13672H16.2188C15.3311 7.13672 14.7773 6.58301 14.7773 5.69531V0.457031H10.0488C8.21191 0.457031 7.20117 1.45898 7.20117 3.27832V3.69141H8.55469C9.93457 3.69141 10.9365 4.0166 11.9121 4.9834L16.9043 9.97559C17.8535 10.9248 18.0908 12.0146 18.0908 13.3242V18.3164ZM16.4648 5.9502H21.0176C20.9736 5.65137 20.7539 5.37891 20.4199 5.03613L16.8691 1.39746C16.5439 1.06348 16.2627 0.84375 15.9639 0.808594L15.9727 5.44922C15.9727 5.80078 16.1133 5.9502 16.4648 5.9502ZM5.70703 22.834H13.9336C15.8145 22.834 16.7988 21.8408 16.7988 19.9424V13.1309H10.5322C9.41602 13.1309 8.87109 12.5771 8.87109 11.4609V4.97461H5.70703C3.82617 4.97461 2.8418 5.97656 2.8418 7.875V19.9424C2.8418 21.8496 3.82617 22.834 5.70703 22.834ZM10.6377 11.8389H16.6406C16.5352 11.4609 16.3066 11.1006 15.9111 10.6963L11.2793 5.99414C10.875 5.58984 10.5322 5.31738 10.1543 5.20312V11.3555C10.1543 11.6719 10.3213 11.8389 10.6377 11.8389Z" fill="#1C1C1E"/>
</g>
<defs>
<clipPath id="clip0_10_440">
<rect width="24" height="24" fill="white"/>
</clipPath>
</defs>
</svg>
