<svg width="24" height="24" viewBox="0 0 24 24" fill="none" xmlns="http://www.w3.org/2000/svg">
<g clip-path="url(#clip0_10_479)">
<path d="M2.8418 19.9424C2.8418 21.8496 3.82617 22.834 5.70703 22.834H13.9336C15.8145 22.834 16.7988 21.8408 16.7988 19.9424V18.3164H18.293C20.1738 18.3164 21.1582 17.3232 21.1582 15.4248V8.47266C21.1582 7.3125 20.9121 6.57422 20.2178 5.8623L15.8408 1.39746C15.1729 0.720703 14.3818 0.457031 13.3711 0.457031H10.0664C8.18555 0.457031 7.20117 1.4502 7.20117 3.35742V4.97461H5.70703C3.82617 4.97461 2.8418 5.97656 2.8418 7.875V19.9424ZM15.9111 10.6963L11.1475 5.8623C10.4795 5.18555 9.9082 5.00098 8.9502 4.9834V3.46289C8.9502 2.66309 9.37207 2.21484 10.2158 2.21484H13.8809V6.38965C13.8809 7.47949 14.4609 8.05078 15.542 8.05078H19.4004V15.3105C19.4004 16.1191 18.9785 16.5674 18.1348 16.5674H16.7988V13.1924C16.7988 12.0059 16.6494 11.4521 15.9111 10.6963ZM15.3311 6.16992V2.92676L18.9434 6.60059H15.7617C15.4541 6.60059 15.3311 6.47754 15.3311 6.16992ZM4.59082 19.8281V7.98926C4.59082 7.18066 5.0127 6.73242 5.86523 6.73242H8.5459V11.5137C8.5459 12.7881 9.16992 13.4033 10.4355 13.4033H15.0498V19.8281C15.0498 20.6367 14.6279 21.085 13.7754 21.085H5.85645C5.0127 21.085 4.59082 20.6367 4.59082 19.8281ZM10.6025 11.8652C10.2422 11.8652 10.084 11.7158 10.084 11.3467V7.06641L14.8125 11.8652H10.6025Z" fill="#1C1C1E"/>
</g>
<defs>
<clipPath id="clip0_10_479">
<rect width="24" height="24" fill="white"/>
</clipPath>
</defs>
</svg>
