<svg width="24" height="24" viewBox="0 0 24 24" fill="none" xmlns="http://www.w3.org/2000/svg">
<g clip-path="url(#clip0_10_453)">
<path d="M6.7793 20.8477H11.7715C11.2441 20.3643 10.8311 19.7666 10.585 19.0986H6.9375C6.09375 19.0986 5.67188 18.668 5.67188 17.8594V4.81641C5.67188 4.0166 6.09375 3.55957 6.9375 3.55957H15.999C16.8164 3.55957 17.2646 4.00781 17.2646 4.81641V12.4102C17.9326 12.6562 18.5303 13.0693 19.0137 13.5967V4.70215C19.0137 2.79492 18.0381 1.81055 16.1484 1.81055H6.7793C4.89844 1.81055 3.91406 2.80371 3.91406 4.70215V17.9561C3.91406 19.8633 4.89844 20.8477 6.7793 20.8477ZM8.26465 7.13672H14.6807C14.9971 7.13672 15.2344 6.89062 15.2344 6.57422C15.2344 6.2666 14.9971 6.02051 14.6807 6.02051H8.26465C7.93945 6.02051 7.70215 6.2666 7.70215 6.57422C7.70215 6.89062 7.93945 7.13672 8.26465 7.13672ZM8.26465 10.1338H14.6807C14.9971 10.1338 15.2344 9.8877 15.2344 9.57129C15.2344 9.26367 14.9971 9.01758 14.6807 9.01758H8.26465C7.93945 9.01758 7.70215 9.26367 7.70215 9.57129C7.70215 9.8877 7.93945 10.1338 8.26465 10.1338ZM15.1553 20.8477C15.9023 20.8477 16.5967 20.6367 17.1855 20.2764L19.0576 22.1484C19.2686 22.3594 19.4795 22.4385 19.7344 22.4385C20.1826 22.4385 20.5254 22.0869 20.5254 21.6035C20.5254 21.3926 20.4287 21.1729 20.2617 21.0059L18.3809 19.1162C18.7852 18.5098 19.0225 17.7715 19.0225 16.9893C19.0225 14.8535 17.291 13.1221 15.1553 13.1221C13.0283 13.1221 11.2881 14.8623 11.2881 16.9893C11.2881 19.1162 13.0283 20.8477 15.1553 20.8477ZM15.1553 19.5117C13.7578 19.5117 12.624 18.3779 12.624 16.9893C12.624 15.6094 13.7578 14.4668 15.1553 14.4668C16.5352 14.4668 17.6689 15.6094 17.6689 16.9893C17.6689 18.3779 16.5439 19.5117 15.1553 19.5117Z" fill="#1C1C1E"/>
</g>
<defs>
<clipPath id="clip0_10_453">
<rect width="24" height="24" fill="white"/>
</clipPath>
</defs>
</svg>
