<svg width="24" height="24" viewBox="0 0 24 24" fill="none" xmlns="http://www.w3.org/2000/svg">
<g clip-path="url(#clip0_10_460)">
<path d="M7.31543 21.1816H16.6846C18.5742 21.1816 19.5498 20.1885 19.5498 18.29V10.3096C19.5498 9.0791 19.3916 8.5166 18.627 7.73438L14.0303 3.06738C13.2832 2.31152 12.668 2.13574 11.5605 2.13574H7.31543C5.43457 2.13574 4.4502 3.12891 4.4502 5.03613V18.29C4.4502 20.1885 5.43457 21.1816 7.31543 21.1816ZM7.46484 19.4238C6.62109 19.4238 6.19922 18.9844 6.19922 18.1758V5.1416C6.19922 4.3418 6.62109 3.89355 7.47363 3.89355H11.2002V8.6748C11.2002 9.94922 11.8242 10.5645 13.0898 10.5645H17.8008V18.1758C17.8008 18.9844 17.3789 19.4238 16.5264 19.4238H7.46484ZM13.2568 9.02637C12.8877 9.02637 12.7295 8.86816 12.7295 8.50781V4.12207L17.5635 9.02637H13.2568ZM15.0938 12.8672H8.74805C8.41406 12.8672 8.17676 13.1045 8.17676 13.4121C8.17676 13.7285 8.41406 13.9746 8.74805 13.9746H15.0938C15.4102 13.9746 15.6475 13.7285 15.6475 13.4121C15.6475 13.1045 15.4102 12.8672 15.0938 12.8672ZM15.0938 15.8027H8.74805C8.41406 15.8027 8.17676 16.0488 8.17676 16.3652C8.17676 16.6729 8.41406 16.9102 8.74805 16.9102H15.0938C15.4102 16.9102 15.6475 16.6729 15.6475 16.3652C15.6475 16.0488 15.4102 15.8027 15.0938 15.8027Z" fill="#1C1C1E"/>
</g>
<defs>
<clipPath id="clip0_10_460">
<rect width="24" height="24" fill="white"/>
</clipPath>
</defs>
</svg>
