<svg width="24" height="24" viewBox="0 0 24 24" fill="none" xmlns="http://www.w3.org/2000/svg">
<g clip-path="url(#clip0_10_536)">
<path d="M7.31543 21.1816H16.6846C18.5742 21.1816 19.5498 20.1885 19.5498 18.29V10.4238H12.958C11.8594 10.4238 11.332 9.89648 11.332 8.79785V2.13574H7.31543C5.43457 2.13574 4.4502 3.12891 4.4502 5.03613V18.29C4.4502 20.1885 5.43457 21.1816 7.31543 21.1816ZM13.125 9.14062H19.4619C19.4092 8.73633 19.1191 8.3584 18.6621 7.89258L13.8545 3.02344C13.415 2.5752 13.0195 2.27637 12.6152 2.22363V8.63086C12.624 8.97363 12.791 9.14062 13.125 9.14062Z" fill="#1C1C1E"/>
</g>
<defs>
<clipPath id="clip0_10_536">
<rect width="24" height="24" fill="white"/>
</clipPath>
</defs>
</svg>
