<svg width="24" height="24" viewBox="0 0 24 24" fill="none" xmlns="http://www.w3.org/2000/svg">
<g clip-path="url(#clip0_10_330)">
<path d="M6.49805 19.8809H7.02539V18.1582C7.02539 17.7979 7.30664 17.5166 7.66699 17.5166C8.02734 17.5166 8.2998 17.7979 8.2998 18.1582V19.8809H9.91699V18.1582C9.91699 17.7979 10.1982 17.5166 10.5586 17.5166C10.9189 17.5166 11.1914 17.7979 11.1914 18.1582V19.8809H12.8086V18.1582C12.8086 17.7979 13.0811 17.5166 13.4502 17.5166C13.8105 17.5166 14.083 17.7979 14.083 18.1582V19.8809H15.7002V18.1582C15.7002 17.7979 15.9727 17.5166 16.333 17.5166C16.6934 17.5166 16.9746 17.7979 16.9746 18.1582V19.8809H17.4844C19.3916 19.8809 20.3848 18.8965 20.3848 17.0156V6.31934C20.3848 4.43848 19.3916 3.4541 17.4844 3.4541H16.9746V5.17676C16.9746 5.53711 16.6934 5.80957 16.333 5.80957C15.9727 5.80957 15.7002 5.53711 15.7002 5.17676V3.4541H14.083V5.17676C14.083 5.53711 13.8105 5.80957 13.4502 5.80957C13.0811 5.80957 12.8086 5.53711 12.8086 5.17676V3.4541H11.1914V5.17676C11.1914 5.53711 10.9189 5.80957 10.5586 5.80957C10.1982 5.80957 9.91699 5.53711 9.91699 5.17676V3.4541H8.2998V5.17676C8.2998 5.53711 8.02734 5.80957 7.66699 5.80957C7.30664 5.80957 7.02539 5.53711 7.02539 5.17676V3.4541H6.49805C4.59961 3.4541 3.60645 4.42969 3.60645 6.31934V17.0156C3.60645 18.8965 4.59961 19.8809 6.49805 19.8809ZM7.45605 14.3174V9.00879C7.45605 8.49902 7.81641 8.14746 8.33496 8.14746H15.6475C16.1748 8.14746 16.5264 8.49902 16.5264 9.00879V14.3174C16.5264 14.8359 16.1748 15.1875 15.6475 15.1875H8.33496C7.81641 15.1875 7.45605 14.8359 7.45605 14.3174Z" fill="#1C1C1E"/>
</g>
<defs>
<clipPath id="clip0_10_330">
<rect width="24" height="24" fill="white"/>
</clipPath>
</defs>
</svg>
