<svg width="24" height="24" viewBox="0 0 24 24" fill="none" xmlns="http://www.w3.org/2000/svg">
<g clip-path="url(#clip0_10_331)">
<path d="M6.49805 19.8809H17.4844C19.3916 19.8809 20.3848 18.8965 20.3848 17.0156V6.31934C20.3848 4.43848 19.3916 3.4541 17.4844 3.4541H6.49805C4.59961 3.4541 3.60645 4.42969 3.60645 6.31934V17.0156C3.60645 18.8965 4.59961 19.8809 6.49805 19.8809ZM6.6123 18.1318C5.80371 18.1318 5.35547 17.71 5.35547 16.8574V6.47754C5.35547 5.625 5.80371 5.20312 6.6123 5.20312H7.37695V6.3457C7.37695 6.67969 7.63184 6.93457 7.97461 6.93457C8.30859 6.93457 8.56348 6.67969 8.56348 6.3457V5.20312H10.0664V6.3457C10.0664 6.67969 10.3213 6.93457 10.6553 6.93457C10.998 6.93457 11.2529 6.67969 11.2529 6.3457V5.20312H12.7559V6.3457C12.7559 6.67969 13.0107 6.93457 13.3447 6.93457C13.6787 6.93457 13.9424 6.67969 13.9424 6.3457V5.20312H15.4365V6.3457C15.4365 6.67969 15.6914 6.93457 16.0342 6.93457C16.3682 6.93457 16.623 6.67969 16.623 6.3457V5.20312H17.3701C18.1787 5.20312 18.627 5.625 18.627 6.47754V16.8574C18.627 17.71 18.1787 18.1318 17.3701 18.1318H16.623V16.9893C16.623 16.6553 16.3682 16.4004 16.0342 16.4004C15.6914 16.4004 15.4365 16.6553 15.4365 16.9893V18.1318H13.9424V16.9893C13.9424 16.6553 13.6787 16.4004 13.3447 16.4004C13.0107 16.4004 12.7559 16.6553 12.7559 16.9893V18.1318H11.2529V16.9893C11.2529 16.6553 10.998 16.4004 10.6553 16.4004C10.3213 16.4004 10.0664 16.6553 10.0664 16.9893V18.1318H8.56348V16.9893C8.56348 16.6553 8.30859 16.4004 7.97461 16.4004C7.63184 16.4004 7.37695 16.6553 7.37695 16.9893V18.1318H6.6123ZM7.7373 14.1592C7.7373 14.6426 8.07129 14.9678 8.56348 14.9678H15.4277C15.9199 14.9678 16.2539 14.6426 16.2539 14.1592V9.16699C16.2539 8.69238 15.9199 8.36719 15.4277 8.36719H8.56348C8.07129 8.36719 7.7373 8.69238 7.7373 9.16699V14.1592Z" fill="#1C1C1E"/>
</g>
<defs>
<clipPath id="clip0_10_331">
<rect width="24" height="24" fill="white"/>
</clipPath>
</defs>
</svg>
