<svg width="24" height="24" viewBox="0 0 24 24" fill="none" xmlns="http://www.w3.org/2000/svg">
<g clip-path="url(#clip0_10_726)">
<path d="M11.9561 20.8125C12.1143 20.8125 12.3516 20.7598 12.5801 20.6367C17.6338 17.8857 19.3916 16.6113 19.3916 13.4121V6.77637C19.3916 5.72168 18.9873 5.34375 18.0996 4.96582C17.1328 4.55273 13.8457 3.41016 12.8965 3.08496C12.5977 2.98828 12.2637 2.92676 11.9561 2.92676C11.6572 2.92676 11.3145 3.00586 11.0244 3.08496C10.0752 3.35742 6.78809 4.56152 5.82129 4.96582C4.93359 5.33496 4.5293 5.72168 4.5293 6.77637V13.4121C4.5293 16.6113 6.28711 17.8682 11.3408 20.6367C11.5693 20.7598 11.8066 20.8125 11.9561 20.8125ZM11.9561 18.9492C11.833 18.9492 11.71 18.9053 11.4551 18.7471C7.44727 16.3037 6.19922 15.6445 6.19922 13.0869V7.05762C6.19922 6.74121 6.26074 6.61816 6.50684 6.5127C7.80762 5.99414 10.3301 5.15918 11.4902 4.70215C11.6924 4.63184 11.833 4.60547 11.9561 4.60547C12.0879 4.60547 12.2285 4.63184 12.4307 4.70215C13.5908 5.15918 16.0957 6.04688 17.4053 6.5127C17.6602 6.60938 17.7217 6.74121 17.7217 7.05762V13.0869C17.7217 15.6621 16.4209 16.3564 12.4658 18.7471C12.2109 18.9053 12.0879 18.9492 11.9561 18.9492ZM11.9561 12.8496C12.4395 12.8496 12.7207 12.5859 12.7295 12.0674L12.8613 7.83984C12.8789 7.33008 12.4922 6.95215 11.9473 6.95215C11.4023 6.95215 11.0244 7.32129 11.042 7.83105L11.165 12.0762C11.1826 12.5771 11.4639 12.8496 11.9561 12.8496ZM11.9561 15.7676C12.5273 15.7676 12.9932 15.3633 12.9932 14.8008C12.9932 14.2471 12.5361 13.834 11.9561 13.834C11.3848 13.834 10.9189 14.2471 10.9189 14.8008C10.9189 15.3545 11.3936 15.7676 11.9561 15.7676Z" fill="#1C1C1E"/>
</g>
<defs>
<clipPath id="clip0_10_726">
<rect width="24" height="24" fill="white"/>
</clipPath>
</defs>
</svg>
