<svg width="24" height="24" viewBox="0 0 24 24" fill="none" xmlns="http://www.w3.org/2000/svg">
<g clip-path="url(#clip0_10_629)">
<path d="M5.33789 10.7402H18.6621C19.5498 10.7402 20.3496 10.9424 21.0439 11.3027L18.873 6.21387C18.293 4.85156 17.1152 4.0957 15.542 4.0957H8.45801C6.87598 4.0957 5.70703 4.85156 5.12695 6.21387L2.94727 11.2939C3.6416 10.9424 4.4502 10.7402 5.33789 10.7402ZM5.33789 19.2305H18.6621C20.8066 19.2305 22.2832 17.7627 22.2832 15.6357C22.2832 13.5 20.8066 12.0322 18.6621 12.0322H5.33789C3.18457 12.0322 1.70801 13.5 1.70801 15.6357C1.70801 17.7627 3.18457 19.2305 5.33789 19.2305ZM17.4316 15.6357C17.4316 15.0029 17.9678 14.4668 18.6094 14.4668C19.2422 14.4668 19.7783 15.0029 19.7783 15.6357C19.7783 16.2773 19.2422 16.7959 18.6094 16.7959C17.9678 16.8047 17.4316 16.2861 17.4316 15.6357Z" fill="#1C1C1E"/>
</g>
<defs>
<clipPath id="clip0_10_629">
<rect width="24" height="24" fill="white"/>
</clipPath>
</defs>
</svg>
