<svg width="24" height="24" viewBox="0 0 24 24" fill="none" xmlns="http://www.w3.org/2000/svg">
<g clip-path="url(#clip0_10_592)">
<path d="M16.6758 12.2783L16.9482 11.9883C17.4316 11.4873 17.4404 10.8984 16.9395 10.3975L16.6934 10.1514C18.0908 8.9209 19.6025 8.79785 20.5869 7.80469C21.9492 6.4248 21.5977 4.43848 20.5518 3.38379C19.5146 2.3291 17.5283 1.99512 16.1309 3.34863C15.1289 4.32422 15.0146 5.84473 13.7842 7.24219L13.5469 6.99609C13.0547 6.48633 12.457 6.5127 11.9473 6.9873L11.6572 7.25977C11.0684 7.81348 11.1562 8.34082 11.6836 8.85938L12.0352 9.21973L5.60156 15.6533C2.77148 18.4834 3.89648 18.4307 2.5166 20.3467L3.42188 21.2959C5.27637 19.916 5.38184 21.1641 8.23828 18.3252L14.7158 11.8916L15.0762 12.252C15.6035 12.7705 16.1133 12.8584 16.6758 12.2783ZM12.0615 11.918C11.7715 11.6016 11.8242 11.3027 12.1494 10.9688L12.9668 10.1426L13.8193 10.9951L12.9844 11.8389C12.6943 12.1201 12.334 12.208 12.0615 11.918Z" fill="#1C1C1E"/>
</g>
<defs>
<clipPath id="clip0_10_592">
<rect width="24" height="24" fill="white"/>
</clipPath>
</defs>
</svg>
