<svg width="24" height="24" viewBox="0 0 24 24" fill="none" xmlns="http://www.w3.org/2000/svg">
<g clip-path="url(#clip0_10_698)">
<path d="M5.80371 17.1211C8.5459 17.1211 10.7783 14.915 10.875 12.2344C11.2529 12.0938 11.666 12.041 12 12.041C12.3428 12.041 12.7471 12.0938 13.125 12.2344C13.2305 14.9414 15.4541 17.1211 18.2051 17.1211C20.8154 17.1211 22.9688 15.1523 23.2588 12.6299H24.3398C24.7617 12.6299 24.9199 12.3838 24.9199 12.0322V11.6367C24.9199 11.2764 24.7617 11.0479 24.3398 11.0479H23.1973C22.7314 8.72754 20.6748 6.96094 18.2051 6.96094C15.8408 6.96094 13.8721 8.56934 13.292 10.7314C12.8789 10.5732 12.3955 10.5117 12 10.5117C11.6045 10.5117 11.1211 10.5732 10.708 10.7314C10.1279 8.56934 8.15039 6.96094 5.80371 6.96094C3.34277 6.96094 1.29492 8.70996 0.820312 11.0039H-0.331055C-0.75293 11.0039 -0.919922 11.2324 -0.919922 11.5928V12.0322C-0.919922 12.3838 -0.75293 12.6299 -0.331055 12.6299H0.741211C1.03125 15.1523 3.18457 17.1211 5.80371 17.1211ZM5.80371 15.5566C3.86133 15.5566 2.28809 13.9922 2.28809 12.041C2.28809 10.0986 3.86133 8.53418 5.80371 8.53418C7.7373 8.53418 9.31055 10.0986 9.31055 12.041C9.31055 13.9922 7.75488 15.5566 5.80371 15.5566ZM18.2051 15.5566C16.2451 15.5566 14.6895 13.9922 14.6895 12.041C14.6895 10.0986 16.2451 8.53418 18.2051 8.53418C20.1387 8.53418 21.7119 10.0986 21.7119 12.041C21.7119 13.9922 20.1387 15.5566 18.2051 15.5566Z" fill="#1C1C1E"/>
</g>
<defs>
<clipPath id="clip0_10_698">
<rect width="24" height="24" fill="white"/>
</clipPath>
</defs>
</svg>
