<svg width="24" height="24" viewBox="0 0 24 24" fill="none" xmlns="http://www.w3.org/2000/svg">
<g clip-path="url(#clip0_10_347)">
<path d="M4.71387 18.6768H5.61914V19.4941C5.61914 20.8037 6.24316 21.3838 7.50879 21.3838H16.4912C17.748 21.3838 18.3809 20.8037 18.3809 19.4941V18.6768H19.2861C21.0791 18.6768 22.0547 17.7363 22.0547 15.9346V7.86621C22.0547 6.07324 21.0791 5.12402 19.2861 5.12402H18.4863V4.64941C18.4863 2.86523 17.5898 2.04785 15.8672 2.04785H8.13281C6.48047 2.04785 5.51367 2.86523 5.51367 4.64941V5.12402H4.71387C2.99121 5.12402 1.94531 6.07324 1.94531 7.86621V15.9346C1.94531 17.7363 2.9209 18.6768 4.71387 18.6768ZM7.14844 4.52637C7.14844 3.87598 7.48242 3.54199 8.13281 3.54199H15.8672C16.5176 3.54199 16.8516 3.87598 16.8516 4.52637V5.12402H7.14844V4.52637ZM16.4912 14.0273H7.50879C6.28711 14.0273 5.61914 14.6074 5.61914 15.917V17.0947H4.71387C3.99316 17.0947 3.61523 16.7168 3.61523 16.0049V7.80469C3.61523 7.08398 3.99316 6.70605 4.71387 6.70605H19.2861C20.0068 6.70605 20.376 7.08398 20.376 7.80469V16.0049C20.376 16.7168 20.0068 17.0947 19.2861 17.0947H18.3809V15.917C18.3809 14.6074 17.748 14.0273 16.4912 14.0273ZM7.36816 9.73828H8.16797C8.43164 9.73828 8.58105 9.58008 8.58105 9.3252V8.5166C8.58105 8.25293 8.43164 8.10352 8.16797 8.10352H7.36816C7.10449 8.10352 6.95508 8.25293 6.95508 8.5166V9.3252C6.95508 9.58008 7.10449 9.73828 7.36816 9.73828ZM10.1895 9.73828H10.9893C11.2529 9.73828 11.4023 9.58008 11.4023 9.3252V8.5166C11.4023 8.25293 11.2529 8.10352 10.9893 8.10352H10.1895C9.92578 8.10352 9.77637 8.25293 9.77637 8.5166V9.3252C9.77637 9.58008 9.92578 9.73828 10.1895 9.73828ZM13.0107 9.73828H13.8105C14.0742 9.73828 14.2236 9.58008 14.2236 9.3252V8.5166C14.2236 8.25293 14.0742 8.10352 13.8105 8.10352H13.0107C12.7471 8.10352 12.5977 8.25293 12.5977 8.5166V9.3252C12.5977 9.58008 12.7471 9.73828 13.0107 9.73828ZM15.832 9.73828H16.6318C16.8955 9.73828 17.0449 9.58008 17.0449 9.3252V8.5166C17.0449 8.25293 16.8955 8.10352 16.6318 8.10352H15.832C15.5684 8.10352 15.4189 8.25293 15.4189 8.5166V9.3252C15.4189 9.58008 15.5684 9.73828 15.832 9.73828ZM7.36816 12.6387H8.16797C8.43164 12.6387 8.58105 12.4805 8.58105 12.2256V11.417C8.58105 11.1533 8.43164 11.0039 8.16797 11.0039H7.36816C7.10449 11.0039 6.95508 11.1533 6.95508 11.417V12.2256C6.95508 12.4805 7.10449 12.6387 7.36816 12.6387ZM10.1895 12.6387H10.9893C11.2529 12.6387 11.4023 12.4805 11.4023 12.2256V11.417C11.4023 11.1533 11.2529 11.0039 10.9893 11.0039H10.1895C9.92578 11.0039 9.77637 11.1533 9.77637 11.417V12.2256C9.77637 12.4805 9.92578 12.6387 10.1895 12.6387ZM13.0107 12.6387H13.8105C14.0742 12.6387 14.2236 12.4805 14.2236 12.2256V11.417C14.2236 11.1533 14.0742 11.0039 13.8105 11.0039H13.0107C12.7471 11.0039 12.5977 11.1533 12.5977 11.417V12.2256C12.5977 12.4805 12.7471 12.6387 13.0107 12.6387ZM15.832 12.6387H16.6318C16.8955 12.6387 17.0449 12.4805 17.0449 12.2256V11.417C17.0449 11.1533 16.8955 11.0039 16.6318 11.0039H15.832C15.5684 11.0039 15.4189 11.1533 15.4189 11.417V12.2256C15.4189 12.4805 15.5684 12.6387 15.832 12.6387ZM7.86914 19.8457C7.44727 19.8457 7.23633 19.6436 7.23633 19.2129V16.1895C7.23633 15.7676 7.44727 15.5654 7.86914 15.5654H16.1396C16.5615 15.5654 16.7637 15.7676 16.7637 16.1895V19.2129C16.7637 19.6436 16.5615 19.8457 16.1396 19.8457H7.86914ZM8.44922 17.6924C8.44922 18.1055 8.77441 18.4219 9.1875 18.4219H14.8301C15.2256 18.4219 15.542 18.1055 15.542 17.6924C15.542 17.2969 15.2256 16.9717 14.8301 16.9717H9.1875C8.77441 16.9717 8.44922 17.2969 8.44922 17.6924Z" fill="#1C1C1E"/>
</g>
<defs>
<clipPath id="clip0_10_347">
<rect width="24" height="24" fill="white"/>
</clipPath>
</defs>
</svg>
