<svg width="24" height="24" viewBox="0 0 24 24" fill="none" xmlns="http://www.w3.org/2000/svg">
<g clip-path="url(#clip0_10_552)">
<path d="M3.53613 19.8809H20.4639C21.6416 19.8809 22.415 19.125 22.415 17.9648V5.37891C22.415 4.21875 21.6416 3.4541 20.4639 3.4541H3.53613C2.34961 3.4541 1.58496 4.21875 1.58496 5.37891V17.9648C1.58496 19.125 2.34961 19.8809 3.53613 19.8809ZM3.51855 6.83789C3.27246 6.83789 3.10547 6.66211 3.10547 6.43359V5.52832C3.10547 5.26465 3.28125 5.08008 3.54492 5.08008H4.57324C4.81055 5.08008 4.97754 5.25586 4.97754 5.50195V6.43359C4.97754 6.66211 4.81055 6.83789 4.57324 6.83789H3.51855ZM6.78809 10.8545C6.50684 10.8545 6.33105 10.6787 6.33105 10.4062V5.52832C6.33105 5.24707 6.50684 5.08008 6.78809 5.08008H17.1943C17.4668 5.08008 17.6426 5.24707 17.6426 5.52832V10.4062C17.6426 10.6787 17.4668 10.8545 17.1943 10.8545H6.78809ZM19.4092 6.83789C19.1631 6.83789 18.9961 6.66211 18.9961 6.43359V5.50195C18.9961 5.25586 19.1631 5.08008 19.4092 5.08008H20.4287C20.6924 5.08008 20.877 5.26465 20.877 5.52832V6.43359C20.877 6.66211 20.7012 6.83789 20.4551 6.83789H19.4092ZM3.51855 9.71191C3.27246 9.71191 3.10547 9.52734 3.10547 9.30762V8.39355C3.10547 8.14746 3.27246 7.97168 3.51855 7.97168H4.57324C4.81055 7.97168 4.97754 8.14746 4.97754 8.39355V9.30762C4.97754 9.52734 4.81055 9.71191 4.57324 9.71191H3.51855ZM19.4092 9.71191C19.1631 9.71191 18.9961 9.52734 18.9961 9.30762V8.39355C18.9961 8.14746 19.1631 7.97168 19.4092 7.97168H20.4551C20.71 7.97168 20.877 8.14746 20.877 8.39355V9.30762C20.877 9.52734 20.7012 9.71191 20.4551 9.71191H19.4092ZM3.51855 12.5332C3.27246 12.5332 3.10547 12.3574 3.10547 12.1289V11.2236C3.10547 10.9688 3.27246 10.8018 3.51855 10.8018H4.57324C4.81055 10.8018 4.97754 10.9688 4.97754 11.2236V12.1289C4.97754 12.3574 4.81055 12.5332 4.57324 12.5332H3.51855ZM19.4092 12.5332C19.1631 12.5332 18.9961 12.3574 18.9961 12.1289V11.2236C18.9961 10.9688 19.1631 10.8018 19.4092 10.8018H20.4551C20.71 10.8018 20.877 10.9688 20.877 11.2236V12.1289C20.877 12.3574 20.7012 12.5332 20.4551 12.5332H19.4092ZM6.78809 18.2461C6.50684 18.2461 6.33105 18.0703 6.33105 17.7979V12.9463C6.33105 12.6738 6.50684 12.498 6.78809 12.498H17.1943C17.4668 12.498 17.6426 12.6738 17.6426 12.9463V17.7979C17.6426 18.0703 17.4668 18.2461 17.1943 18.2461H6.78809ZM3.51855 15.3809C3.27246 15.3809 3.10547 15.1875 3.10547 14.9678V14.0537C3.10547 13.8076 3.27246 13.6318 3.51855 13.6318H4.57324C4.81055 13.6318 4.97754 13.8076 4.97754 14.0537V14.9678C4.97754 15.1875 4.81055 15.3809 4.57324 15.3809H3.51855ZM19.4092 15.3809C19.1631 15.3809 18.9961 15.1875 18.9961 14.9678V14.0537C18.9961 13.8076 19.1631 13.6318 19.4092 13.6318H20.4551C20.71 13.6318 20.877 13.8076 20.877 14.0537V14.9678C20.877 15.1875 20.7012 15.3809 20.4551 15.3809H19.4092ZM3.54492 18.2461C3.28125 18.2461 3.10547 18.0703 3.10547 17.8066V16.9102C3.10547 16.6641 3.27246 16.4971 3.51855 16.4971H4.57324C4.81055 16.4971 4.97754 16.6641 4.97754 16.9102V17.833C4.97754 18.0791 4.81055 18.2461 4.57324 18.2461H3.54492ZM19.4092 18.2461C19.1631 18.2461 18.9961 18.0791 18.9961 17.833V16.9102C18.9961 16.6641 19.1631 16.4971 19.4092 16.4971H20.4551C20.7012 16.4971 20.877 16.6641 20.877 16.9102V17.8066C20.877 18.0703 20.6924 18.2461 20.4287 18.2461H19.4092Z" fill="#1C1C1E"/>
</g>
<defs>
<clipPath id="clip0_10_552">
<rect width="24" height="24" fill="white"/>
</clipPath>
</defs>
</svg>
