<svg width="24" height="24" viewBox="0 0 24 24" fill="none" xmlns="http://www.w3.org/2000/svg">
<g clip-path="url(#clip0_10_407)">
<path d="M11.9912 20.7598C16.9746 20.7598 21.0879 16.6465 21.0879 11.6631C21.0879 6.68848 16.9658 2.5752 11.9824 2.5752C7.00781 2.5752 2.90332 6.68848 2.90332 11.6631C2.90332 16.6465 7.0166 20.7598 11.9912 20.7598ZM8.58984 16.5146C8.33496 16.5146 8.10645 16.2861 8.10645 16.0312V8.50781C8.10645 8.08594 8.30859 7.77832 8.7041 7.60254C9.03809 7.45312 9.33691 7.37402 10.0225 7.37402C11.6572 7.37402 12.6768 8.17383 14.1797 8.17383C14.9004 8.17383 15.2959 7.98047 15.5684 7.98047C15.9639 7.98047 16.1396 8.19141 16.1396 8.49902V12.9199C16.1396 13.3594 15.9551 13.6406 15.5508 13.834C15.1992 13.9922 14.9004 14.0625 14.2236 14.0625C12.6592 14.0625 11.6484 13.2715 10.0664 13.2715C9.57422 13.2715 9.23145 13.3682 9.06445 13.4385V16.0312C9.06445 16.2949 8.87109 16.5146 8.58984 16.5146Z" fill="#1C1C1E"/>
</g>
<defs>
<clipPath id="clip0_10_407">
<rect width="24" height="24" fill="white"/>
</clipPath>
</defs>
</svg>
