<svg width="24" height="24" viewBox="0 0 24 24" fill="none" xmlns="http://www.w3.org/2000/svg">
<g clip-path="url(#clip0_10_395)">
<path d="M11.9912 20.7422C16.9746 20.7422 21.0879 16.6289 21.0879 11.6543C21.0879 6.67969 16.9658 2.56641 11.9824 2.56641C7.00781 2.56641 2.90332 6.67969 2.90332 11.6543C2.90332 16.6289 7.0166 20.7422 11.9912 20.7422ZM11.9912 18.9316C7.95703 18.9316 4.73145 15.6885 4.73145 11.6543C4.73145 7.62012 7.95703 4.38574 11.9824 4.38574C16.0166 4.38574 19.2598 7.62012 19.2686 11.6543C19.2773 15.6885 16.0254 18.9316 11.9912 18.9316ZM15.9463 16.2422C16.1133 16.4092 16.3945 16.4092 16.5703 16.2422C16.7461 16.0664 16.7461 15.7939 16.5703 15.6182L8.02734 7.08398C7.85156 6.9082 7.57031 6.9082 7.39453 7.08398C7.22754 7.25098 7.22754 7.53223 7.39453 7.70801L15.9463 16.2422ZM9.50391 7.56738L15.5068 13.5703C15.7002 13.4033 15.8496 13.1836 15.8496 12.876V8.62207C15.8496 8.33203 15.6826 8.12988 15.3047 8.12988C15.0322 8.12988 14.6631 8.31445 13.96 8.31445C12.5186 8.31445 11.5342 7.54102 9.96973 7.54102C9.78516 7.54102 9.63574 7.5498 9.50391 7.56738ZM12.4482 13.7197L8.12402 9.39551V15.873C8.12402 16.1191 8.34375 16.3301 8.58984 16.3301C8.85352 16.3301 9.03809 16.1279 9.03809 15.873V13.3682C9.20508 13.3066 9.53027 13.21 10.0049 13.21C10.9453 13.21 11.666 13.5088 12.4482 13.7197Z" fill="#1C1C1E"/>
</g>
<defs>
<clipPath id="clip0_10_395">
<rect width="24" height="24" fill="white"/>
</clipPath>
</defs>
</svg>
