<svg width="24" height="24" viewBox="0 0 24 24" fill="none" xmlns="http://www.w3.org/2000/svg">
<g clip-path="url(#clip0_10_405)">
<path d="M19.6201 17.8066C19.8926 18.0791 20.3496 18.0791 20.6133 17.8066C20.8857 17.543 20.8857 17.0947 20.6133 16.8223L5.27637 1.49414C5.00391 1.22168 4.55566 1.22168 4.2832 1.49414C4.01074 1.75781 4.01074 2.22363 4.2832 2.4873L19.6201 17.8066ZM8.29102 2.94434L20.1299 14.7832C20.2881 14.5371 20.3672 14.2471 20.3672 13.9043V5.15039C20.3672 4.57031 19.9189 4.20996 19.3213 4.20996C18.8203 4.20996 18.0293 4.54395 16.623 4.54395C13.626 4.54395 11.4375 2.98828 8.29102 2.94434ZM4.5293 19.5557C4.5293 20.0039 4.90723 20.373 5.35547 20.373C5.80371 20.373 6.17285 20.0127 6.17285 19.5557V14.748C6.41895 14.6602 7.15723 14.3965 8.27344 14.3965C11.3057 14.3965 13.3271 15.8203 16.2275 15.9785L4.67871 4.43848C4.58203 4.59668 4.5293 4.76367 4.5293 4.97461V19.5557Z" fill="#1C1C1E"/>
</g>
<defs>
<clipPath id="clip0_10_405">
<rect width="24" height="24" fill="white"/>
</clipPath>
</defs>
</svg>
