<svg width="24" height="24" viewBox="0 0 24 24" fill="none" xmlns="http://www.w3.org/2000/svg">
<g clip-path="url(#clip0_10_409)">
<path d="M5.35547 20.373C5.80371 20.373 6.17285 20.0127 6.17285 19.5557V14.748C6.41895 14.6602 7.15723 14.3965 8.27344 14.3965C11.4727 14.3965 13.6172 15.9961 16.7109 15.9961C18.0645 15.9961 18.6885 15.8291 19.3652 15.5127C19.998 15.2314 20.3672 14.7129 20.3672 13.9043V5.15039C20.3672 4.57031 19.9189 4.20996 19.3213 4.20996C18.8203 4.20996 18.0293 4.54395 16.623 4.54395C13.5645 4.54395 11.376 2.94434 8.18555 2.94434C6.8584 2.94434 6.25195 3.11133 5.54004 3.42773C4.91602 3.71777 4.5293 4.1748 4.5293 4.97461V19.5557C4.5293 20.0039 4.90723 20.373 5.35547 20.373Z" fill="#1C1C1E"/>
</g>
<defs>
<clipPath id="clip0_10_409">
<rect width="24" height="24" fill="white"/>
</clipPath>
</defs>
</svg>
