<svg width="24" height="24" viewBox="0 0 24 24" fill="none" xmlns="http://www.w3.org/2000/svg">
<g clip-path="url(#clip0_10_408)">
<path d="M11.9912 20.7422C16.9746 20.7422 21.0879 16.6289 21.0879 11.6543C21.0879 6.67969 16.9658 2.56641 11.9824 2.56641C7.00781 2.56641 2.90332 6.67969 2.90332 11.6543C2.90332 16.6289 7.0166 20.7422 11.9912 20.7422ZM11.9912 18.9316C7.95703 18.9316 4.73145 15.6885 4.73145 11.6543C4.73145 7.62012 7.95703 4.38574 11.9824 4.38574C16.0166 4.38574 19.2598 7.62012 19.2686 11.6543C19.2773 15.6885 16.0254 18.9316 11.9912 18.9316ZM8.72168 16.3301C8.98535 16.3301 9.17871 16.1279 9.17871 15.873V13.3682C9.33691 13.3066 9.66211 13.21 10.1455 13.21C11.6748 13.21 12.6328 13.9746 14.1445 13.9746C14.7949 13.9746 15.085 13.9043 15.4189 13.7461C15.8057 13.5703 15.9814 13.2979 15.9814 12.876V8.62207C15.9814 8.33203 15.8145 8.12988 15.4365 8.12988C15.1729 8.12988 14.7949 8.31445 14.1006 8.31445C12.6592 8.31445 11.6748 7.54102 10.1016 7.54102C9.44238 7.54102 9.16113 7.62012 8.83594 7.76953C8.45801 7.93652 8.26465 8.22656 8.26465 8.63086V15.873C8.26465 16.1191 8.47559 16.3301 8.72168 16.3301Z" fill="#1C1C1E"/>
</g>
<defs>
<clipPath id="clip0_10_408">
<rect width="24" height="24" fill="white"/>
</clipPath>
</defs>
</svg>
