<svg width="24" height="24" viewBox="0 0 24 24" fill="none" xmlns="http://www.w3.org/2000/svg">
<g clip-path="url(#clip0_10_406)">
<path d="M19.6201 17.8066C19.9014 18.0879 20.3496 18.0791 20.6133 17.8066C20.8857 17.5342 20.8857 17.0947 20.6133 16.8223L5.27637 1.49414C5.00391 1.22168 4.55566 1.22168 4.2832 1.49414C4.01074 1.75781 4.01953 2.22363 4.2832 2.4873L19.6201 17.8066ZM20.165 14.7393C20.3057 14.5283 20.3672 14.2559 20.3672 13.9043V5.15039C20.3672 4.57031 19.9189 4.20996 19.3213 4.20996C18.8203 4.20996 18.0293 4.54395 16.623 4.54395C13.626 4.54395 11.4375 2.98828 8.29102 2.94434L10.2158 4.86914C12.3604 5.25586 14.1533 6.20508 16.5879 6.20508C17.4316 6.20508 18.1436 6.1084 18.6797 5.95898V13.2451L20.165 14.7393ZM5.35547 20.373C5.80371 20.373 6.17285 20.0127 6.17285 19.5557V14.748C6.41895 14.6602 7.15723 14.3965 8.27344 14.3965C11.3057 14.3965 13.3271 15.8203 16.2275 15.9785L14.1533 13.9043C12.2637 13.5352 10.6025 12.7354 8.30859 12.7354C7.45605 12.7354 6.68262 12.832 6.2168 13.0078V6.04688L4.62598 4.45605C4.56445 4.5791 4.5293 4.72852 4.5293 4.93945V19.5557C4.5293 20.0039 4.90723 20.373 5.35547 20.373Z" fill="#1C1C1E"/>
</g>
<defs>
<clipPath id="clip0_10_406">
<rect width="24" height="24" fill="white"/>
</clipPath>
</defs>
</svg>
