<svg width="24" height="24" viewBox="0 0 24 24" fill="none" xmlns="http://www.w3.org/2000/svg">
<g clip-path="url(#clip0_10_404)">
<path d="M11.9912 20.7598C16.9746 20.7598 21.0879 16.6465 21.0879 11.6631C21.0879 6.68848 16.9658 2.5752 11.9824 2.5752C7.00781 2.5752 2.90332 6.68848 2.90332 11.6631C2.90332 16.6465 7.0166 20.7598 11.9912 20.7598ZM16.0869 16.4268L7.21875 7.55859C7.04297 7.38281 7.04297 7.08398 7.21875 6.9082C7.40332 6.72363 7.70215 6.72363 7.88672 6.9082L16.7461 15.7676C16.9219 15.9521 16.9219 16.2334 16.7461 16.4268C16.5703 16.6025 16.2715 16.5938 16.0869 16.4268ZM9.40723 7.40039C9.54785 7.38281 9.69727 7.38281 9.89062 7.38281C11.5166 7.38281 12.5449 8.18262 14.0391 8.18262C14.7686 8.18262 15.1553 7.98926 15.4277 7.98926C15.8232 7.98926 15.999 8.2002 15.999 8.50781V12.9287C15.999 13.2539 15.8584 13.4736 15.6562 13.6406L9.40723 7.40039ZM12.4482 13.8076C11.6484 13.5879 10.9014 13.2803 9.93457 13.2803C9.43359 13.2803 9.09961 13.377 8.92383 13.4385V16.04C8.92383 16.3037 8.73047 16.5146 8.45801 16.5146C8.19434 16.5146 7.96582 16.2949 7.96582 16.04V9.31641L12.4482 13.8076Z" fill="#1C1C1E"/>
</g>
<defs>
<clipPath id="clip0_10_404">
<rect width="24" height="24" fill="white"/>
</clipPath>
</defs>
</svg>
