<svg width="24" height="24" viewBox="0 0 24 24" fill="none" xmlns="http://www.w3.org/2000/svg">
<g clip-path="url(#clip0_10_384)">
<path d="M7.37695 3.94629H16.623V3.43652C16.623 2.23242 15.999 1.61719 14.8389 1.61719H9.16113C8.00098 1.61719 7.37695 2.23242 7.37695 3.43652V3.94629ZM10.9541 21.6387H13.0459C14.2061 21.6387 14.8213 21.0322 14.8213 19.8193V10.7227C14.8213 9.83496 15.0234 9.19336 15.3574 8.69238L15.9111 7.85742C16.3506 7.18066 16.623 6.56543 16.623 5.80078V5.09766H7.37695V5.80078C7.37695 6.56543 7.64062 7.18066 8.08008 7.85742L8.64258 8.69238C8.96777 9.19336 9.16992 9.83496 9.16992 10.7227V19.8193C9.16992 21.0322 9.79395 21.6387 10.9541 21.6387ZM12 14.9766C11.2441 14.9766 10.752 14.4316 10.752 13.6494V11.2236C10.752 10.4414 11.2441 9.91406 12 9.92285C12.7559 9.93164 13.248 10.459 13.248 11.2236V13.6494C13.248 14.4316 12.7559 14.9766 12 14.9766ZM12 14.3174C12.4131 14.3174 12.7646 13.9746 12.7646 13.5615C12.7646 13.1484 12.4131 12.7969 12 12.7969C11.5869 12.7969 11.2354 13.1484 11.2354 13.5615C11.2354 13.9746 11.5869 14.3174 12 14.3174Z" fill="#1C1C1E"/>
</g>
<defs>
<clipPath id="clip0_10_384">
<rect width="24" height="24" fill="white"/>
</clipPath>
</defs>
</svg>
