<svg width="24" height="24" viewBox="0 0 24 24" fill="none" xmlns="http://www.w3.org/2000/svg">
<g clip-path="url(#clip0_10_710)">
<path d="M11.9912 20.7422C16.9746 20.7422 21.0879 16.6289 21.0879 11.6543C21.0879 6.67969 16.9658 2.56641 11.9824 2.56641C7.00781 2.56641 2.90332 6.67969 2.90332 11.6543C2.90332 16.6289 7.0166 20.7422 11.9912 20.7422ZM11.9912 18.9316C7.95703 18.9316 4.73145 15.6885 4.73145 11.6543C4.73145 7.62012 7.95703 4.38574 11.9824 4.38574C16.0166 4.38574 19.2598 7.62012 19.2686 11.6543C19.2773 15.6885 16.0254 18.9316 11.9912 18.9316ZM7.15723 10.0283H16.8164V9.65918C16.8164 8.78027 16.3418 8.32324 15.4541 8.32324H11.5078C11.2002 8.32324 11.0332 8.23535 10.8047 8.05957L10.5586 7.86621C10.251 7.6377 10.0488 7.55859 9.62695 7.55859H8.3877C7.61426 7.55859 7.15723 8.00684 7.15723 8.86816V10.0283ZM7.15723 14.2559C7.15723 15.1348 7.63184 15.5918 8.52832 15.5918H15.5596C16.3506 15.5918 16.8164 15.1348 16.8164 14.2559V10.7578H7.15723V14.2559Z" fill="#1C1C1E"/>
</g>
<defs>
<clipPath id="clip0_10_710">
<rect width="24" height="24" fill="white"/>
</clipPath>
</defs>
</svg>
