<svg width="24" height="24" viewBox="0 0 24 24" fill="none" xmlns="http://www.w3.org/2000/svg">
<g clip-path="url(#clip0_10_720)">
<path d="M4.81055 19.7666H19.3916C21.0879 19.7666 22.0723 18.7822 22.0723 16.9014V7.85742C22.0723 5.97656 21.0791 4.99219 19.1807 4.99219H11.0332C10.4004 4.99219 10.0225 4.85156 9.53027 4.44727L9.03809 4.04297C8.41406 3.5332 7.95703 3.36621 7.03418 3.36621H4.54688C2.89453 3.36621 1.91895 4.33301 1.91895 6.1875V16.9014C1.91895 18.791 2.91211 19.7666 4.81055 19.7666ZM3.66797 6.33691C3.66797 5.53711 4.11621 5.11523 4.89844 5.11523H6.56836C7.19238 5.11523 7.56152 5.26465 8.0625 5.66895L8.55469 6.08203C9.16992 6.57422 9.64453 6.75 10.5674 6.75H19.0664C19.875 6.75 20.3232 7.17188 20.3232 8.01562V8.53418H3.66797V6.33691ZM4.9248 18.0176C4.11621 18.0176 3.66797 17.5957 3.66797 16.7432V10.0723H20.3232V16.752C20.3232 17.5957 19.875 18.0176 19.0664 18.0176H4.9248Z" fill="#1C1C1E"/>
</g>
<defs>
<clipPath id="clip0_10_720">
<rect width="24" height="24" fill="white"/>
</clipPath>
</defs>
</svg>
