<svg width="24" height="24" viewBox="0 0 24 24" fill="none" xmlns="http://www.w3.org/2000/svg">
<g clip-path="url(#clip0_10_716)">
<path d="M11.9912 20.7598C16.9746 20.7598 21.0879 16.6465 21.0879 11.6631C21.0879 6.68848 16.9658 2.5752 11.9824 2.5752C7.00781 2.5752 2.90332 6.68848 2.90332 11.6631C2.90332 16.6465 7.0166 20.7598 11.9912 20.7598ZM6.97266 9.97559V8.77148C6.97266 7.875 7.44727 7.40039 8.24707 7.40039H9.53906C9.97852 7.40039 10.1895 7.48828 10.5059 7.72559L10.7695 7.91895C11.0068 8.10352 11.1738 8.19141 11.4902 8.19141H15.5859C16.5176 8.19141 17.001 8.6748 17.001 9.58887V9.97559H6.97266ZM6.97266 14.3701V10.7314H17.001V14.3701C17.001 15.2754 16.5264 15.7588 15.7002 15.7588H8.39648C7.45605 15.7588 6.97266 15.2754 6.97266 14.3701Z" fill="#1C1C1E"/>
</g>
<defs>
<clipPath id="clip0_10_716">
<rect width="24" height="24" fill="white"/>
</clipPath>
</defs>
</svg>
