<svg width="24" height="24" viewBox="0 0 24 24" fill="none" xmlns="http://www.w3.org/2000/svg">
<g clip-path="url(#clip0_10_556)">
<path d="M2.55176 19.7842C3.87012 19.7842 4.75781 19.2832 5.54883 18.3779L7.11328 16.5586C7.33301 16.2949 7.56152 16.1807 7.83398 16.1807H16.1572C16.4297 16.1807 16.6582 16.2949 16.8779 16.5586L18.4424 18.3779C19.2334 19.2832 20.1299 19.7842 21.4395 19.7842C23.4697 19.7842 24.876 18.4395 24.876 16.2949C24.876 15.3721 24.6738 14.3262 24.3311 13.166C23.7861 11.3467 22.8457 8.89453 21.9492 7.00488C21.1846 5.40527 20.7715 4.62305 18.8379 4.18359C17.1416 3.79688 14.8213 3.54199 12 3.54199C9.17871 3.54199 6.84961 3.79688 5.15332 4.18359C3.22852 4.62305 2.80664 5.40527 2.04199 7.00488C1.14551 8.89453 0.205078 11.3467 -0.339844 13.166C-0.682617 14.3262 -0.884766 15.3721 -0.884766 16.2949C-0.884766 18.4395 0.521484 19.7842 2.55176 19.7842ZM4.81934 9.94922C4.81934 9.47461 5.12695 9.16699 5.61914 9.16699H7.0957V7.74316C7.0957 7.25098 7.39453 6.93457 7.87793 6.93457C8.35254 6.93457 8.65137 7.25098 8.65137 7.74316V9.16699H10.04C10.5762 9.16699 10.9014 9.47461 10.9014 9.94922C10.9014 10.4414 10.5762 10.749 10.04 10.749H8.65137V12.1816C8.65137 12.6738 8.35254 12.9902 7.87793 12.9902C7.39453 12.9902 7.0957 12.6738 7.0957 12.1816V10.749H5.61914C5.12695 10.749 4.81934 10.4414 4.81934 9.94922ZM16.1133 8.56934C16.1133 7.83105 16.6846 7.25977 17.4141 7.25977C18.1523 7.25977 18.7148 7.83105 18.7148 8.56934C18.7148 9.30762 18.1523 9.87012 17.4141 9.87012C16.6846 9.87012 16.1133 9.30762 16.1133 8.56934ZM13.5029 11.2148C13.5029 10.4766 14.0742 9.90527 14.8037 9.90527C15.5332 9.90527 16.1045 10.4766 16.1045 11.2148C16.1045 11.9443 15.5332 12.5068 14.8037 12.5068C14.0742 12.5068 13.5029 11.9443 13.5029 11.2148Z" fill="#1C1C1E"/>
</g>
<defs>
<clipPath id="clip0_10_556">
<rect width="24" height="24" fill="white"/>
</clipPath>
</defs>
</svg>
