<svg width="24" height="24" viewBox="0 0 24 24" fill="none" xmlns="http://www.w3.org/2000/svg">
<g clip-path="url(#clip0_10_352)">
<path d="M11.9912 20.7422C16.9746 20.7422 21.0879 16.6289 21.0879 11.6543C21.0879 6.67969 16.9658 2.56641 11.9824 2.56641C7.00781 2.56641 2.90332 6.67969 2.90332 11.6543C2.90332 16.6289 7.0166 20.7422 11.9912 20.7422ZM11.9912 18.9316C7.95703 18.9316 4.73145 15.6885 4.73145 11.6543C4.73145 7.62012 7.95703 4.38574 11.9824 4.38574C16.0166 4.38574 19.2598 7.62012 19.2686 11.6543C19.2773 15.6885 16.0254 18.9316 11.9912 18.9316ZM11.9824 7.82227C12.4834 7.82227 12.8877 7.41797 12.8877 6.92578C12.8877 6.4248 12.4922 6.02051 11.9824 6.02051C11.499 6.02051 11.0859 6.4248 11.0859 6.92578C11.0859 7.41797 11.4902 7.82227 11.9824 7.82227ZM14.5576 8.66602C15.0586 8.66602 15.4629 8.26172 15.4629 7.76074C15.4629 7.26855 15.0586 6.85547 14.5576 6.85547C14.0654 6.85547 13.6611 7.26855 13.6611 7.76074C13.6611 8.26172 14.0654 8.66602 14.5576 8.66602ZM9.31934 8.6748C9.82031 8.6748 10.2246 8.26172 10.2246 7.76074C10.2246 7.26855 9.82031 6.85547 9.31934 6.85547C8.81836 6.85547 8.41406 7.26855 8.41406 7.76074C8.41406 8.26172 8.81836 8.6748 9.31934 8.6748ZM7.6582 10.626C8.15918 10.626 8.56348 10.2217 8.56348 9.7207C8.56348 9.21973 8.15918 8.81543 7.6582 8.81543C7.16602 8.81543 6.76172 9.21973 6.76172 9.7207C6.76172 10.2217 7.16602 10.626 7.6582 10.626ZM16.2275 10.6436C16.7285 10.6436 17.1328 10.2393 17.1328 9.73828C17.1328 9.2373 16.7285 8.83301 16.2275 8.83301C15.7266 8.83301 15.3223 9.2373 15.3223 9.73828C15.3223 10.2393 15.7266 10.6436 16.2275 10.6436ZM11.9912 16.998C12.7998 16.998 13.4502 16.3389 13.4502 15.5215C13.4502 14.9414 13.0986 14.4316 12.5977 14.2031V10.2568C12.5977 9.89648 12.334 9.62402 11.9912 9.62402C11.6484 9.62402 11.376 9.89648 11.376 10.2568V14.2031C10.875 14.4316 10.5234 14.9414 10.5234 15.5215C10.5234 16.3389 11.1738 16.998 11.9912 16.998Z" fill="#1C1C1E"/>
</g>
<defs>
<clipPath id="clip0_10_352">
<rect width="24" height="24" fill="white"/>
</clipPath>
</defs>
</svg>
