<svg width="24" height="24" viewBox="0 0 24 24" fill="none" xmlns="http://www.w3.org/2000/svg">
<g clip-path="url(#clip0_10_373)">
<path d="M12 20.3818C12.2109 20.3818 12.4131 20.3643 12.6328 20.3467L13.125 21.2783C13.2305 21.5156 13.4678 21.6299 13.7402 21.5947C13.9951 21.5508 14.1709 21.3574 14.2061 21.0938L14.3555 20.0479C14.7686 19.9424 15.1729 19.7842 15.5596 19.6172L16.333 20.3115C16.5176 20.4961 16.7725 20.5225 17.0273 20.3906C17.2471 20.2588 17.335 20.0215 17.291 19.7578L17.0713 18.7383C17.4141 18.4922 17.748 18.2197 18.0645 17.9209L19.0137 18.3164C19.2686 18.4219 19.5059 18.3604 19.6992 18.1406C19.8574 17.9561 19.8838 17.6924 19.7432 17.4639L19.1895 16.5762C19.4268 16.2334 19.6289 15.8555 19.8135 15.46L20.8682 15.5127C21.123 15.5303 21.3516 15.3809 21.4395 15.1348C21.5273 14.8887 21.4395 14.6338 21.2373 14.4756L20.4199 13.8252C20.5254 13.4209 20.6045 12.999 20.6396 12.5596L21.6328 12.2432C21.8877 12.1553 22.0459 11.9531 22.0459 11.6895C22.0459 11.4258 21.8877 11.2236 21.6328 11.1357L20.6396 10.8193C20.6045 10.3799 20.5166 9.9668 20.4199 9.55371L21.2373 8.90332C21.4395 8.75391 21.5186 8.50781 21.4395 8.26172C21.3516 8.00684 21.123 7.85742 20.8682 7.875L19.8135 7.91016C19.6289 7.52344 19.4268 7.1543 19.1895 6.80273L19.7432 5.90625C19.875 5.69531 19.8574 5.43164 19.6992 5.24707C19.5059 5.02734 19.2686 4.96582 19.0137 5.07129L18.0557 5.45801C17.748 5.16797 17.4141 4.88672 17.0713 4.64941L17.291 3.62988C17.335 3.35742 17.2471 3.12012 17.0186 2.99707C16.7725 2.86523 16.5176 2.88281 16.333 3.07617L15.5596 3.76172C15.1729 3.58594 14.7686 3.44531 14.3555 3.33105L14.2061 2.30273C14.1709 2.03906 13.9951 1.8457 13.7402 1.79297C13.4678 1.75781 13.2393 1.87207 13.125 2.0918L12.6328 3.03223C12.4131 3.01465 12.2109 3.00586 12 3.00586C11.7715 3.00586 11.5693 3.01465 11.3496 3.03223L10.8574 2.0918C10.752 1.87207 10.5146 1.75781 10.2422 1.80176C9.9873 1.8457 9.81152 2.03906 9.77637 2.30273L9.62695 3.33105C9.22266 3.44531 8.81836 3.58594 8.42285 3.76172L7.6582 3.07617C7.46484 2.8916 7.20996 2.86523 6.96387 2.99707C6.74414 3.12012 6.64746 3.35742 6.69141 3.62988L6.91113 4.64941C6.56836 4.88672 6.23438 5.16797 5.92676 5.45801L4.96875 5.07129C4.72266 4.96582 4.47656 5.02734 4.29199 5.24707C4.125 5.43164 4.10742 5.69531 4.23926 5.90625L4.80176 6.80273C4.56445 7.1543 4.3623 7.52344 4.16895 7.91016L3.12305 7.875C2.85938 7.85742 2.63086 8.00684 2.55176 8.26172C2.46387 8.50781 2.53418 8.75391 2.74512 8.90332L3.57129 9.55371C3.46582 9.9668 3.37793 10.3799 3.35156 10.8193L2.3584 11.1357C2.09473 11.2236 1.94531 11.417 1.94531 11.6895C1.94531 11.9531 2.09473 12.1553 2.3584 12.2432L3.35156 12.5596C3.37793 12.999 3.46582 13.4209 3.57129 13.8252L2.75391 14.4756C2.54297 14.625 2.47266 14.8799 2.55176 15.126C2.63086 15.3809 2.85938 15.5303 3.12305 15.5127L4.16895 15.46C4.35352 15.8555 4.56445 16.2334 4.80176 16.5762L4.23926 17.4727C4.09863 17.6924 4.125 17.9561 4.29199 18.1406C4.47656 18.3604 4.72266 18.4219 4.96875 18.3164L5.92676 17.9209C6.23438 18.2197 6.56836 18.4922 6.91113 18.7383L6.69141 19.7578C6.64746 20.0215 6.73535 20.2588 6.96387 20.3906C7.20996 20.5225 7.46484 20.4961 7.6582 20.3115L8.42285 19.6172C8.81836 19.7842 9.21387 19.9424 9.62695 20.0566L9.77637 21.0938C9.81152 21.3574 9.9873 21.5508 10.251 21.5947C10.5146 21.6299 10.752 21.5156 10.8574 21.2871L11.3496 20.3467C11.5693 20.3643 11.7715 20.3818 12 20.3818ZM14.2939 10.9951C13.8633 9.86133 12.9844 9.24609 11.9473 9.24609C11.7979 9.24609 11.6396 9.26367 11.3672 9.3252L8.99414 5.24707C9.89941 4.8252 10.9102 4.58789 11.9912 4.58789C15.709 4.58789 18.627 7.38281 18.9609 10.9951H14.2939ZM4.99512 11.6982C4.99512 9.34277 6.07617 7.27734 7.79004 5.98535L10.1807 10.0723C9.71484 10.582 9.49512 11.1445 9.49512 11.7246C9.49512 12.2783 9.69727 12.8057 10.1807 13.3418L7.71973 17.3584C6.0498 16.0664 4.99512 14.0186 4.99512 11.6982ZM10.8926 11.7158C10.8926 11.1182 11.3936 10.6611 11.9561 10.6611C12.5449 10.6611 13.0283 11.1182 13.0283 11.7158C13.0283 12.2959 12.5449 12.7793 11.9561 12.7793C11.3936 12.7793 10.8926 12.2959 10.8926 11.7158ZM11.9912 18.7998C10.8838 18.7998 9.84668 18.5537 8.92383 18.1055L11.3584 14.1152C11.6221 14.168 11.7979 14.1855 11.9473 14.1855C12.9932 14.1855 13.8633 13.5527 14.2939 12.3926H18.9609C18.627 16.0049 15.709 18.7998 11.9912 18.7998Z" fill="#1C1C1E"/>
</g>
<defs>
<clipPath id="clip0_10_373">
<rect width="24" height="24" fill="white"/>
</clipPath>
</defs>
</svg>
