<svg width="24" height="24" viewBox="0 0 24 24" fill="none" xmlns="http://www.w3.org/2000/svg">
<g clip-path="url(#clip0_10_371)">
<path d="M11.2002 21.0059H12.8086C13.3359 21.0059 13.7314 20.6895 13.8457 20.1709L14.2852 18.3164C14.584 18.2109 14.8652 18.0967 15.1289 17.9736L16.7549 18.9756C17.1855 19.248 17.7041 19.2041 18.0645 18.8438L19.1982 17.71C19.5586 17.3496 19.6113 16.8135 19.3213 16.374L18.3281 14.7656C18.4512 14.502 18.5654 14.2207 18.6533 13.9482L20.5254 13.5088C21.0439 13.3945 21.3516 12.999 21.3516 12.4717V10.8896C21.3516 10.3711 21.0439 9.9668 20.5254 9.85254L18.6709 9.4043C18.5742 9.09668 18.4512 8.82422 18.3457 8.58691L19.3389 6.94336C19.6201 6.49512 19.585 5.99414 19.207 5.625L18.0645 4.49121C17.6953 4.15723 17.2295 4.0957 16.7812 4.3418L15.1289 5.36133C14.874 5.23828 14.5928 5.12402 14.2939 5.01855L13.8457 3.1377C13.7314 2.61914 13.3359 2.30273 12.8086 2.30273H11.2002C10.6641 2.30273 10.2686 2.61914 10.1543 3.1377L9.71484 5.00977C9.41602 5.10645 9.12598 5.2207 8.8623 5.35254L7.21875 4.3418C6.77051 4.0957 6.31348 4.14844 5.93555 4.49121L4.79297 5.625C4.41504 5.99414 4.37988 6.49512 4.66113 6.94336L5.6543 8.58691C5.54883 8.82422 5.43457 9.09668 5.3291 9.4043L3.47461 9.85254C2.95605 9.9668 2.64844 10.3711 2.64844 10.8896V12.4717C2.64844 12.999 2.95605 13.3945 3.47461 13.5088L5.34668 13.9482C5.43457 14.2207 5.54883 14.502 5.67188 14.7656L4.67871 16.374C4.38867 16.8135 4.44141 17.3496 4.81055 17.71L5.93555 18.8438C6.2959 19.2041 6.81445 19.248 7.25391 18.9756L8.87109 17.9736C9.13477 18.0967 9.41602 18.2109 9.71484 18.3164L10.1543 20.1709C10.2686 20.6895 10.6641 21.0059 11.2002 21.0059ZM12 14.7305C10.3125 14.7305 8.93262 13.3418 8.93262 11.6455C8.93262 9.9668 10.3125 8.58691 12 8.58691C13.6963 8.58691 15.0762 9.9668 15.0762 11.6455C15.0762 13.3418 13.6963 14.7305 12 14.7305Z" fill="#1C1C1E"/>
</g>
<defs>
<clipPath id="clip0_10_371">
<rect width="24" height="24" fill="white"/>
</clipPath>
</defs>
</svg>
