<svg width="24" height="24" viewBox="0 0 24 24" fill="none" xmlns="http://www.w3.org/2000/svg">
<g clip-path="url(#clip0_10_372)">
<path d="M11.1035 21.208H12.8877C13.6172 21.208 14.1885 20.751 14.3643 20.0479L14.7158 18.5098L14.9443 18.4219L16.2891 19.2568C16.9043 19.6436 17.6338 19.5381 18.1523 19.0195L19.3828 17.7891C19.9102 17.2617 19.998 16.541 19.6113 15.9346L18.7764 14.5898L18.8643 14.3789L20.4023 14.0186C21.0967 13.8428 21.5537 13.2715 21.5537 12.542V10.8105C21.5537 10.0811 21.1055 9.50977 20.4023 9.33398L18.873 8.96484L18.7852 8.73633L19.6201 7.40039C20.0068 6.79395 19.9189 6.07324 19.3916 5.53711L18.1611 4.30664C17.6514 3.78809 16.9219 3.69141 16.3066 4.06934L14.9619 4.89551L14.7158 4.80762L14.3643 3.26074C14.1885 2.55762 13.6172 2.10938 12.8877 2.10938H11.1035C10.3652 2.10938 9.79395 2.55762 9.62695 3.26074L9.27539 4.80762L9.0293 4.89551L7.68457 4.06934C7.06055 3.69141 6.33984 3.78809 5.83008 4.30664L4.59082 5.53711C4.07227 6.07324 3.97559 6.79395 4.3623 7.40039L5.19727 8.73633L5.10938 8.96484L3.58887 9.33398C2.88574 9.50977 2.4375 10.0811 2.4375 10.8105V12.542C2.4375 13.2715 2.89453 13.8428 3.58887 14.0186L5.12695 14.3789L5.20605 14.5898L4.37109 15.9346C3.98438 16.541 4.08105 17.2617 4.59961 17.7891L5.83887 19.0195C6.34863 19.5381 7.07812 19.6436 7.69336 19.2568L9.03809 18.4219L9.27539 18.5098L9.62695 20.0479C9.79395 20.751 10.3652 21.208 11.1035 21.208ZM11.332 19.5908C11.1826 19.5908 11.1035 19.5293 11.0859 19.3975L10.5586 17.2354C10.0049 17.1035 9.46875 16.875 9.03809 16.6025L7.13965 17.7715C7.02539 17.8418 6.91992 17.833 6.81445 17.7275L5.8916 16.8047C5.78613 16.708 5.78613 16.6025 5.85645 16.4883L7.02539 14.5898C6.7793 14.168 6.55078 13.6406 6.41895 13.0869L4.24805 12.5684C4.11621 12.5508 4.0459 12.4717 4.0459 12.3223V11.0215C4.0459 10.8633 4.10742 10.8018 4.24805 10.7666L6.41016 10.2568C6.54199 9.66797 6.79688 9.12305 7.0166 8.72754L5.84766 6.84668C5.77734 6.72363 5.77734 6.61816 5.87402 6.5127L6.80566 5.59863C6.91113 5.50195 7.00781 5.48438 7.13965 5.56348L9.02051 6.71484C9.41602 6.46875 10.0049 6.22266 10.5674 6.08203L11.0859 3.91992C11.1035 3.78809 11.1826 3.71777 11.332 3.71777H12.6592C12.8086 3.71777 12.8789 3.7793 12.9053 3.91992L13.4326 6.09082C14.0039 6.23145 14.5225 6.46875 14.9619 6.71484L16.8428 5.56348C16.9746 5.49316 17.0713 5.50195 17.1768 5.60742L18.1084 6.52148C18.2139 6.61816 18.2139 6.72363 18.1348 6.84668L16.9746 8.72754C17.1855 9.12305 17.4492 9.66797 17.5811 10.2568L19.7432 10.7666C19.8838 10.8018 19.9365 10.8633 19.9365 11.0215V12.3223C19.9365 12.4717 19.875 12.5508 19.7432 12.5684L17.5723 13.0869C17.4404 13.6406 17.2031 14.1768 16.957 14.5898L18.126 16.4795C18.1963 16.6025 18.1963 16.6992 18.0908 16.7959L17.168 17.7275C17.0625 17.833 16.957 17.8418 16.8428 17.7715L14.9531 16.6025C14.5137 16.875 14.0127 17.0947 13.4326 17.2354L12.9053 19.3975C12.8789 19.5293 12.8086 19.5908 12.6592 19.5908H11.332ZM12 14.9941C13.8281 14.9941 15.3311 13.4912 15.3311 11.6543C15.3311 9.83496 13.8281 8.33203 12 8.33203C10.1631 8.33203 8.65137 9.83496 8.65137 11.6543C8.65137 13.4912 10.1631 14.9941 12 14.9941ZM12 13.4736C10.998 13.4736 10.1807 12.6562 10.1807 11.6543C10.1807 10.6699 11.0068 9.85254 12 9.85254C12.9756 9.85254 13.793 10.6699 13.793 11.6543C13.793 12.6475 12.9756 13.4736 12 13.4736Z" fill="#1C1C1E"/>
</g>
<defs>
<clipPath id="clip0_10_372">
<rect width="24" height="24" fill="white"/>
</clipPath>
</defs>
</svg>
