<svg width="24" height="24" viewBox="0 0 24 24" fill="none" xmlns="http://www.w3.org/2000/svg">
<g clip-path="url(#clip0_10_370)">
<path d="M6.1377 15.9258H7.42969C8.00098 15.9258 8.47559 15.5654 8.58984 15.0205L8.80078 14.0977C8.81836 13.9834 8.84473 13.9395 8.87109 13.9219L9.83789 14.4932C10.3125 14.7744 10.8926 14.7129 11.2881 14.3174L12.1758 13.4209C12.5977 12.999 12.6592 12.4277 12.3516 11.9619L11.7363 10.9863C11.7363 10.9688 11.7451 10.96 11.7451 10.9951L12.8525 10.7227C13.3887 10.5908 13.7578 10.125 13.7578 9.55371V8.3584C13.7578 7.78711 13.3975 7.32129 12.8525 7.18945L11.7451 6.92578C11.7451 6.92578 11.7451 6.92578 11.7363 6.92578L12.3516 5.95898C12.6592 5.47559 12.5977 4.91309 12.1758 4.5L11.2881 3.59473C10.8926 3.19922 10.3125 3.1377 9.83789 3.41895L8.81836 4.02539C8.80957 4.02539 8.80078 4.02539 8.82715 4.0166L8.58984 2.8916C8.47559 2.34668 8.00977 1.99512 7.42969 1.99512H6.1377C5.56641 1.99512 5.10059 2.34668 4.97754 2.8916L4.73145 4.0166C4.74023 4.0166 4.74023 4.0166 4.74023 4.02539L3.73828 3.41895C3.26367 3.1377 2.68359 3.19922 2.28809 3.59473L1.3916 4.5C0.978516 4.91309 0.925781 5.48438 1.21582 5.95898L1.83984 6.93457C1.83105 6.94336 1.83105 6.95215 1.82227 6.92578L0.714844 7.18945C0.169922 7.32129 -0.181641 7.78711 -0.181641 8.3584V9.55371C-0.181641 10.125 0.169922 10.5908 0.714844 10.7227L1.82227 10.9951C1.83105 10.9863 1.83105 10.9863 1.83105 10.9863L1.21582 11.9619C0.916992 12.4277 0.978516 12.999 1.3916 13.4209L2.28809 14.3174C2.68359 14.7129 3.25488 14.7744 3.72949 14.4932L4.70508 13.9219C4.72266 13.9219 4.75781 13.9307 4.77539 14.0977L4.97754 15.0205C5.10059 15.5654 5.56641 15.9258 6.1377 15.9258ZM6.31348 14.5723C6.23438 14.5723 6.23438 14.5635 6.2168 14.4844L5.83008 12.876C5.37305 12.7793 4.97754 12.5771 4.66113 12.4014L3.26367 13.2539C3.18457 13.2891 3.17578 13.2979 3.11426 13.2363L2.45508 12.5947C2.39355 12.5332 2.40234 12.5332 2.44629 12.4541L3.29004 11.0742C3.18457 10.8018 2.92969 10.3887 2.83301 9.89648L1.25098 9.51855C1.16309 9.50098 1.16309 9.50098 1.16309 9.41309V8.49902C1.16309 8.41113 1.16309 8.41113 1.25098 8.39355L2.83301 8.01562C2.92969 7.53223 3.18457 7.11914 3.29004 6.84668L2.44629 5.45801C2.40234 5.37891 2.39355 5.37891 2.45508 5.32617L3.11426 4.67578C3.17578 4.61426 3.18457 4.62305 3.26367 4.66699L4.66113 5.51074C4.97754 5.33496 5.37305 5.13281 5.83008 5.03613L6.2168 3.43652C6.23438 3.34863 6.23438 3.34863 6.31348 3.34863H7.25391C7.3418 3.34863 7.3418 3.34863 7.35938 3.43652L7.74609 5.03613C8.19434 5.13281 8.59863 5.33496 8.91504 5.51074L10.3125 4.66699C10.3916 4.62305 10.4004 4.61426 10.4531 4.67578L11.1211 5.32617C11.1738 5.37891 11.1738 5.37891 11.1299 5.45801L10.2861 6.84668C10.3828 7.11914 10.6465 7.53223 10.7344 8.01562L12.3252 8.39355C12.4043 8.41113 12.4131 8.41113 12.4131 8.49902V9.41309C12.4131 9.50098 12.4043 9.50098 12.3252 9.51855L10.7344 9.89648C10.6465 10.3887 10.3828 10.8018 10.2861 11.0742L11.1299 12.4541C11.1738 12.5332 11.1738 12.5332 11.1211 12.5947L10.4531 13.2363C10.4004 13.2979 10.3916 13.2891 10.3125 13.2539L8.91504 12.4014C8.59863 12.5771 8.19434 12.7793 7.74609 12.876L7.35938 14.4844C7.3418 14.5635 7.3418 14.5723 7.25391 14.5723H6.31348ZM6.78809 11.6104C8.22949 11.6104 9.41602 10.415 9.41602 8.95605C9.41602 7.51465 8.22949 6.32812 6.78809 6.32812C5.32031 6.32812 4.14258 7.50586 4.14258 8.95605C4.14258 10.4062 5.32031 11.6104 6.78809 11.6104ZM6.78809 10.2217C6.09375 10.2217 5.52246 9.65918 5.52246 8.95605C5.52246 8.27051 6.09375 7.69922 6.78809 7.69922C7.47363 7.69922 8.03613 8.27051 8.03613 8.95605C8.03613 9.65039 7.47363 10.2217 6.78809 10.2217ZM17.792 21.3135H18.8027C19.3301 21.3135 19.7783 20.9971 19.8662 20.5137L20.0332 19.6436C20.0332 19.6348 20.0332 19.6348 20.0332 19.6348L20.7891 20.1094C21.2197 20.373 21.7471 20.3203 22.1162 19.9424L22.8281 19.2129C23.1973 18.835 23.2676 18.3076 22.9863 17.8857L22.5029 17.1475C22.5029 17.1387 22.5029 17.1299 22.5117 17.1562L23.373 16.9805C23.8477 16.8838 24.1729 16.4443 24.1729 15.9258V14.9326C24.1729 14.4141 23.8477 13.9746 23.373 13.8779L22.5117 13.7021C22.5029 13.7021 22.5029 13.7021 22.5029 13.7021L22.9863 12.9727C23.2676 12.5508 23.1973 12.0234 22.8281 11.6367L22.1162 10.916C21.7471 10.5381 21.2197 10.4854 20.7891 10.749L20.0244 11.2236C20.0156 11.2236 20.0068 11.2236 20.0332 11.2148L19.8662 10.3359C19.7783 9.86133 19.3301 9.54492 18.8027 9.54492H17.792C17.2646 9.54492 16.8164 9.86133 16.7285 10.3359L16.5615 11.2148V11.2236L15.8057 10.749C15.375 10.4854 14.8477 10.5381 14.4785 10.916L13.7666 11.6367C13.3975 12.0234 13.3271 12.5508 13.6084 12.9727L14.0918 13.7109C14.0918 13.7197 14.0918 13.7285 14.083 13.7021L13.2217 13.8779C12.7383 13.9746 12.4219 14.4141 12.4219 14.9326V15.9258C12.4219 16.4443 12.7383 16.8838 13.2217 16.9805L14.083 17.1562H14.0918L13.6084 17.8857C13.3271 18.3076 13.3975 18.835 13.7666 19.2129L14.4785 19.9424C14.8477 20.3203 15.375 20.373 15.8057 20.1094L16.5703 19.6348C16.5791 19.6348 16.5879 19.6348 16.5615 19.6436L16.7285 20.5137C16.8164 20.9971 17.2646 21.3135 17.792 21.3135ZM18.0293 20.0303C17.9326 20.0303 17.915 20.0039 17.8975 19.916L17.5723 18.6328C17.2119 18.5537 16.8779 18.4219 16.5352 18.1934L15.4014 18.8965C15.3398 18.9229 15.2959 18.9316 15.2344 18.8789L14.8389 18.4746C14.7773 18.4043 14.7773 18.3604 14.8125 18.3076L15.4893 17.2178C15.4365 16.998 15.1641 16.5938 15.085 16.1367L13.8018 15.8379C13.7227 15.8203 13.6963 15.7939 13.6963 15.7148V15.1436C13.6963 15.0645 13.7227 15.0381 13.8018 15.0205L15.085 14.7217C15.1641 14.2646 15.4365 13.8604 15.4893 13.6406L14.8125 12.5508C14.7773 12.498 14.7773 12.4541 14.8389 12.3838L15.2344 11.9795C15.2959 11.918 15.3398 11.9268 15.4014 11.9619L16.5352 12.665C16.8779 12.4365 17.2119 12.3047 17.5723 12.2256L17.8975 10.9424C17.915 10.8545 17.9326 10.8281 18.0293 10.8281H18.5654C18.6621 10.8281 18.6797 10.8545 18.6973 10.9424L19.0137 12.2256C19.3828 12.3047 19.7168 12.4365 20.0596 12.665L21.1934 11.9619C21.2461 11.9268 21.2988 11.918 21.3604 11.9795L21.7559 12.3838C21.8174 12.4541 21.8174 12.498 21.7822 12.5508L21.1055 13.6406C21.1582 13.8604 21.4307 14.2646 21.5098 14.7217L22.793 15.0205C22.8721 15.0381 22.8984 15.0645 22.8984 15.1436V15.7148C22.8984 15.7939 22.8721 15.8203 22.793 15.8379L21.5098 16.1367C21.4307 16.5938 21.1582 16.998 21.1055 17.2178L21.7822 18.3076C21.8174 18.3604 21.8174 18.4043 21.7559 18.4746L21.3604 18.8789C21.2988 18.9316 21.2461 18.9229 21.1934 18.8965L20.0596 18.1934C19.7168 18.4219 19.3828 18.5537 19.0137 18.6328L18.6973 19.916C18.6797 20.0039 18.6621 20.0303 18.5654 20.0303H18.0293ZM18.293 17.4902C19.418 17.4902 20.3496 16.5586 20.3496 15.4248C20.3496 14.3086 19.418 13.377 18.293 13.377C17.1592 13.377 16.2275 14.2998 16.2275 15.4248C16.2275 16.5498 17.1592 17.4902 18.293 17.4902ZM18.3633 16.3652C17.8711 16.3652 17.4844 15.9785 17.4844 15.4863C17.4844 15.0117 17.8711 14.6338 18.3633 14.6338C18.8203 14.6338 19.207 15.0117 19.207 15.4863C19.207 15.9697 18.8203 16.3652 18.3633 16.3652Z" fill="#1C1C1E"/>
</g>
<defs>
<clipPath id="clip0_10_370">
<rect width="24" height="24" fill="white"/>
</clipPath>
</defs>
</svg>
