<svg width="24" height="24" viewBox="0 0 24 24" fill="none" xmlns="http://www.w3.org/2000/svg">
<g clip-path="url(#clip0_10_369)">
<path d="M6.14648 15.9258H7.35059C7.72852 15.9258 8.00098 15.6973 8.08887 15.3369L8.44043 13.9131C8.66895 13.8252 8.89746 13.7373 9.09961 13.6318L10.3477 14.4053C10.6641 14.5986 11.0332 14.5635 11.2969 14.2998L12.1406 13.4561C12.3955 13.1836 12.4395 12.8057 12.2373 12.4893L11.4727 11.25C11.5781 11.0391 11.6748 10.8281 11.7363 10.6172L13.1689 10.2656C13.5381 10.1777 13.7666 9.90527 13.7666 9.51855V8.34082C13.7666 7.96289 13.5381 7.69043 13.1689 7.59375L11.7539 7.25098C11.6748 7.00488 11.5781 6.78516 11.4902 6.60059L12.2373 5.33496C12.4395 5.00098 12.4307 4.6582 12.1582 4.38574L11.2969 3.55078C11.0332 3.2959 10.6729 3.23438 10.3652 3.42773L9.09961 4.21875C8.90625 4.11328 8.67773 4.0166 8.44043 3.94629L8.08887 2.49609C8.00098 2.12695 7.72852 1.89844 7.35059 1.89844H6.14648C5.75977 1.89844 5.49609 2.12695 5.39941 2.49609L5.05664 3.92871C4.81934 4.00781 4.59082 4.0957 4.38867 4.20117L3.12305 3.42773C2.81543 3.23438 2.46387 3.2959 2.2002 3.55078L1.33887 4.38574C1.06641 4.6582 1.05762 5.00098 1.25098 5.33496L1.99805 6.60059C1.91895 6.78516 1.82227 7.00488 1.73438 7.25098L0.319336 7.59375C-0.0498047 7.69043 -0.269531 7.96289 -0.269531 8.34082V9.51855C-0.269531 9.90527 -0.0498047 10.1777 0.319336 10.2656L1.76074 10.6172C1.82227 10.8281 1.91895 11.0391 2.02441 11.25L1.25098 12.4893C1.05762 12.8057 1.09277 13.1836 1.35645 13.4561L2.2002 14.2998C2.46387 14.5635 2.83301 14.5986 3.14941 14.4053L4.39746 13.6318C4.59961 13.7373 4.81934 13.8252 5.05664 13.9131L5.39941 15.3369C5.49609 15.6973 5.75977 15.9258 6.14648 15.9258ZM6.74414 11.0479C5.5752 11.0479 4.6084 10.0811 4.6084 8.90332C4.6084 7.74316 5.5752 6.77637 6.74414 6.77637C7.91309 6.77637 8.87988 7.74316 8.87988 8.90332C8.87988 10.0811 7.91309 11.0479 6.74414 11.0479ZM17.7305 21.4189H18.7324C19.084 21.4189 19.3301 21.2168 19.4004 20.9004L19.6904 19.6699C19.8926 19.5908 20.0771 19.5293 20.2617 19.4238L21.334 20.1006C21.6064 20.2676 21.9229 20.2412 22.1602 20.0127L22.8633 19.292C23.1006 19.0547 23.1357 18.7295 22.96 18.457L22.3008 17.3848C22.3887 17.209 22.4678 17.0244 22.5205 16.8398L23.7686 16.5498C24.085 16.4707 24.2695 16.2334 24.2695 15.8906V14.8975C24.2695 14.5547 24.085 14.3086 23.7686 14.2383L22.5293 13.9395C22.4678 13.7285 22.3975 13.5439 22.3096 13.3857L22.96 12.2959C23.1445 12.0059 23.127 11.707 22.8809 11.4697L22.1602 10.7666C21.9229 10.5469 21.6152 10.4854 21.3428 10.6611L20.2617 11.3379C20.0859 11.25 19.8926 11.1621 19.6904 11.1006L19.4004 9.84375C19.3301 9.53613 19.084 9.3252 18.7324 9.3252H17.7305C17.3877 9.3252 17.1504 9.53613 17.0713 9.84375L16.7725 11.083C16.5791 11.1621 16.377 11.2324 16.2012 11.3291L15.1201 10.6523C14.8564 10.4941 14.54 10.5293 14.3027 10.7666L13.5908 11.4697C13.3447 11.707 13.3359 12.0059 13.5117 12.2959L14.1533 13.3857C14.083 13.5439 14.0039 13.7285 13.9336 13.9395L12.7119 14.2383C12.3867 14.3086 12.1934 14.5547 12.1934 14.8975V15.8906C12.1934 16.2246 12.3867 16.4707 12.7119 16.5498L13.9512 16.8398C14.0127 17.0244 14.083 17.209 14.1709 17.3848L13.5117 18.457C13.3271 18.7207 13.3711 19.0547 13.5996 19.292L14.3027 20.0127C14.54 20.2412 14.8652 20.2676 15.1377 20.1006L16.21 19.4238C16.3857 19.5293 16.5791 19.5908 16.7725 19.6699L17.0713 20.9004C17.1504 21.2168 17.3877 21.4189 17.7305 21.4189ZM18.2402 17.0684C17.2998 17.0684 16.5439 16.3037 16.5439 15.3633C16.5439 14.4404 17.3086 13.6758 18.2402 13.6758C19.1719 13.6758 19.9277 14.4404 19.9277 15.3633C19.9277 16.3037 19.1719 17.0684 18.2402 17.0684Z" fill="#1C1C1E"/>
</g>
<defs>
<clipPath id="clip0_10_369">
<rect width="24" height="24" fill="white"/>
</clipPath>
</defs>
</svg>
