<svg width="24" height="24" viewBox="0 0 24 24" fill="none" xmlns="http://www.w3.org/2000/svg">
<g clip-path="url(#clip0_10_323)">
<path d="M7.20117 20.54H16.79C18.4512 20.54 19.374 19.6436 19.374 17.9824V12.7266H19.4268C20.1914 12.5068 20.5957 11.8564 20.5957 10.8896V8.6748C20.5957 7.4707 19.9277 6.72363 18.7324 6.72363H17.2207C17.6953 6.24902 17.9766 5.60742 17.9766 4.86035C17.9766 3.10254 16.5791 1.85449 14.8301 1.85449C13.5293 1.85449 12.4307 2.58398 11.9912 3.88477C11.5605 2.58398 10.4619 1.85449 9.16113 1.85449C7.41211 1.85449 6.01465 3.10254 6.01465 4.86035C6.01465 5.60742 6.2959 6.24902 6.77051 6.72363H5.25879C4.10742 6.72363 3.39551 7.4707 3.39551 8.6748V10.8896C3.39551 11.8564 3.7998 12.5068 4.55566 12.7266H4.6084V17.9824C4.6084 19.6436 5.54004 20.54 7.20117 20.54ZM11.1562 6.72363H9.83789C8.49316 6.72363 7.71973 5.98535 7.71973 5.02734C7.71973 4.0957 8.37012 3.52441 9.31934 3.52441C10.3301 3.52441 11.1562 4.33301 11.1562 5.57227V6.72363ZM12.835 6.72363V5.57227C12.835 4.33301 13.6611 3.52441 14.6719 3.52441C15.6211 3.52441 16.2715 4.0957 16.2715 5.02734C16.2715 5.98535 15.498 6.72363 14.1533 6.72363H12.835ZM11.1035 11.2588H5.72461C5.30273 11.2588 5.12695 11.083 5.12695 10.6611V8.90332C5.12695 8.48145 5.30273 8.30566 5.72461 8.30566H11.1035V11.2588ZM12.8877 11.2588V8.30566H18.2754C18.6885 8.30566 18.8555 8.48145 18.8555 8.90332V10.6787C18.8555 11.1006 18.6885 11.2588 18.2754 11.2588H12.8877ZM11.1035 18.9404H7.42969C6.73535 18.9404 6.34863 18.5537 6.34863 17.8682V12.8408H11.1035V18.9404ZM12.8877 18.9404V12.8408H17.6426V17.8682C17.6426 18.5537 17.2559 18.9404 16.5615 18.9404H12.8877Z" fill="#1C1C1E"/>
</g>
<defs>
<clipPath id="clip0_10_323">
<rect width="24" height="24" fill="white"/>
</clipPath>
</defs>
</svg>
