<svg width="24" height="24" viewBox="0 0 24 24" fill="none" xmlns="http://www.w3.org/2000/svg">
<g clip-path="url(#clip0_10_322)">
<path d="M3.4043 10.3359C3.4043 11.3115 3.9668 11.7598 4.94238 11.7598H11.1562V6.80273H9.83789C8.49316 6.80273 7.71973 5.98535 7.71973 5.02734C7.71973 4.0957 8.37012 3.52441 9.31934 3.52441C10.3301 3.52441 11.1562 4.33301 11.1562 5.57227V6.80273H12.835V11.7598H19.0488C20.0332 11.7598 20.5869 11.3115 20.5869 10.3359V8.38477C20.5869 7.29492 19.9805 6.80273 18.8818 6.80273H17.1592C17.6689 6.31055 17.9766 5.64258 17.9766 4.86035C17.9766 3.10254 16.5791 1.85449 14.8301 1.85449C13.5293 1.85449 12.4307 2.58398 12 3.88477C11.5693 2.58398 10.4619 1.85449 9.16113 1.85449C7.41211 1.85449 6.01465 3.10254 6.01465 4.86035C6.01465 5.64258 6.32227 6.31055 6.83203 6.80273H5.10938C4.05469 6.80273 3.4043 7.29492 3.4043 8.38477V10.3359ZM14.6719 3.52441C15.6211 3.52441 16.2715 4.0957 16.2715 5.02734C16.2715 5.98535 15.498 6.80273 14.1533 6.80273H12.835V5.57227C12.835 4.33301 13.6611 3.52441 14.6719 3.52441ZM4.61719 18.2285C4.61719 19.7227 5.50488 20.54 7.00781 20.54H11.1562V12.832H4.61719V18.2285ZM12.835 20.54H16.9834C18.4863 20.54 19.374 19.7227 19.374 18.2285V12.832H12.835V20.54Z" fill="#1C1C1E"/>
</g>
<defs>
<clipPath id="clip0_10_322">
<rect width="24" height="24" fill="white"/>
</clipPath>
</defs>
</svg>
