<svg width="24" height="24" viewBox="0 0 24 24" fill="none" xmlns="http://www.w3.org/2000/svg">
<g clip-path="url(#clip0_10_320)">
<path d="M11.9912 20.7598C16.9746 20.7598 21.0879 16.6465 21.0879 11.6631C21.0879 6.68848 16.9658 2.5752 11.9824 2.5752C7.00781 2.5752 2.90332 6.68848 2.90332 11.6631C2.90332 16.6465 7.0166 20.7598 11.9912 20.7598ZM7.64062 10.9863V10.002C7.64062 9.44824 7.95703 9.19336 8.49316 9.19336H9.38086C9.11719 8.94727 8.97656 8.60449 8.97656 8.21777C8.97656 7.33008 9.6709 6.69727 10.5498 6.69727C11.209 6.69727 11.7627 7.06641 11.9912 7.73438C12.2109 7.06641 12.7646 6.69727 13.4238 6.69727C14.3027 6.69727 14.9971 7.33008 14.9971 8.21777C14.9971 8.60449 14.8564 8.94727 14.5928 9.19336H15.4805C16.0342 9.19336 16.333 9.44824 16.333 10.002V10.9863C16.333 11.4785 16.0605 11.707 15.5596 11.707H12.4043V9.19336H11.5693V8.57812C11.5693 7.94531 11.1475 7.53223 10.6289 7.53223C10.1543 7.53223 9.81152 7.83105 9.81152 8.29688C9.81152 8.78906 10.2158 9.19336 10.9014 9.19336H11.5693V11.707H8.41406C7.92188 11.707 7.64062 11.4785 7.64062 10.9863ZM13.0723 9.19336C13.7578 9.19336 14.1621 8.78906 14.1621 8.29688C14.1621 7.83105 13.8193 7.53223 13.3447 7.53223C12.8262 7.53223 12.4043 7.94531 12.4043 8.57812V9.19336H13.0723ZM8.25586 14.9854V12.252H11.5693V16.1543H9.45996C8.7041 16.1543 8.25586 15.7412 8.25586 14.9854ZM12.4043 16.1543V12.252H15.7178V14.9854C15.7178 15.7412 15.2783 16.1543 14.5137 16.1543H12.4043Z" fill="#1C1C1E"/>
</g>
<defs>
<clipPath id="clip0_10_320">
<rect width="24" height="24" fill="white"/>
</clipPath>
</defs>
</svg>
