<svg width="24" height="24" viewBox="0 0 24 24" fill="none" xmlns="http://www.w3.org/2000/svg">
<g clip-path="url(#clip0_10_321)">
<path d="M11.9912 20.7422C16.9746 20.7422 21.0879 16.6289 21.0879 11.6543C21.0879 6.67969 16.9658 2.56641 11.9824 2.56641C7.00781 2.56641 2.90332 6.67969 2.90332 11.6543C2.90332 16.6289 7.0166 20.7422 11.9912 20.7422ZM11.9912 18.9316C7.95703 18.9316 4.73145 15.6885 4.73145 11.6543C4.73145 7.62012 7.95703 4.38574 11.9824 4.38574C16.0166 4.38574 19.2598 7.62012 19.2686 11.6543C19.2773 15.6885 16.0254 18.9316 11.9912 18.9316ZM7.80762 10.9951C7.80762 11.4697 8.07129 11.6895 8.5459 11.6895H11.5869V9.28125H10.9453C10.2773 9.28125 9.89941 8.87695 9.89941 8.40234C9.89941 7.96289 10.2158 7.67285 10.6816 7.67285C11.1826 7.67285 11.5869 8.06836 11.5869 8.68359V9.28125H12.3867V11.6895H15.4277C15.9111 11.6895 16.166 11.4697 16.166 10.9951V10.0371C16.166 9.51855 15.8848 9.28125 15.3486 9.28125H14.4961C14.7422 9.04395 14.8828 8.70996 14.8828 8.33203C14.8828 7.47949 14.2148 6.87305 13.3711 6.87305C12.7295 6.87305 12.2021 7.22461 11.9912 7.86621C11.7715 7.22461 11.2441 6.87305 10.6113 6.87305C9.76758 6.87305 9.09082 7.47949 9.09082 8.33203C9.09082 8.70996 9.23145 9.04395 9.48633 9.28125H8.625C8.11523 9.28125 7.80762 9.51855 7.80762 10.0371V10.9951ZM13.292 7.67285C13.7578 7.67285 14.0742 7.96289 14.0742 8.40234C14.0742 8.87695 13.6963 9.28125 13.0283 9.28125H12.3867V8.68359C12.3867 8.06836 12.791 7.67285 13.292 7.67285ZM8.39648 14.8535C8.39648 15.5742 8.82715 15.9785 9.55664 15.9785H11.5869V12.1992H8.39648V14.8535ZM12.3867 15.9785H14.417C15.1465 15.9785 15.5771 15.5742 15.5771 14.8535V12.1992H12.3867V15.9785Z" fill="#1C1C1E"/>
</g>
<defs>
<clipPath id="clip0_10_321">
<rect width="24" height="24" fill="white"/>
</clipPath>
</defs>
</svg>
