<svg width="24" height="24" viewBox="0 0 24 24" fill="none" xmlns="http://www.w3.org/2000/svg">
<g clip-path="url(#clip0_10_464)">
<path d="M3.29883 15.3369C3.29883 16.708 4.14258 17.9385 5.61914 18.8438V19.6875C5.13574 19.8457 4.83691 20.2676 4.83691 20.8477V23.2119C4.83691 23.959 5.3291 24.4512 6.07617 24.4512H6.44531C7.19238 24.4512 7.68457 23.959 7.68457 23.2119V20.8477C7.68457 20.2764 7.39453 19.8457 6.91992 19.6875V19.4854C8.2998 20.0391 10.0312 20.3643 11.9912 20.3643C17.1592 20.3643 20.6924 18.1318 20.6924 15.3369V11.3994L23.1885 10.2568C23.8125 9.9668 24.1553 9.41309 24.1553 8.81543C24.1553 8.22656 23.8125 7.66406 23.1885 7.38281L14.4961 3.41016C13.5381 2.97949 12.7646 2.77734 11.9912 2.78613C11.2266 2.77734 10.4531 2.97949 9.48633 3.41016L0.802734 7.38281C0.169922 7.66406 -0.164062 8.22656 -0.164062 8.81543C-0.164062 9.41309 0.169922 9.9668 0.802734 10.2568L3.29883 11.3994V15.3369ZM11.9912 13.1221C11.4287 13.1221 10.8926 12.9814 10.1631 12.6387L7.8252 11.584L11.1738 9.82617C11.4375 9.89648 11.7275 9.94043 12.0264 9.94043C13.0283 9.94043 13.9951 9.47461 13.9951 8.81543C13.9951 8.17383 13.0283 7.7168 12.0264 7.7168C11.0156 7.7168 10.04 8.17383 10.04 8.81543C10.04 8.90332 10.0576 8.98242 10.084 9.05273L6.42773 10.9424L2.33203 9.0791C2.19141 9.01758 2.12109 8.92969 2.12109 8.81543C2.12109 8.70996 2.19141 8.61328 2.33203 8.55176L10.1631 4.99219C10.8926 4.6582 11.4287 4.50879 11.9912 4.50879C12.5537 4.50879 13.0898 4.6582 13.8281 4.99219L21.6592 8.55176C21.791 8.61328 21.8613 8.70996 21.8613 8.81543C21.8613 8.92969 21.791 9.01758 21.6592 9.0791L13.8281 12.6387C13.0898 12.9814 12.5537 13.1221 11.9912 13.1221ZM4.99512 15.3369V12.1729L5.61914 12.4541V16.7695C5.20605 16.3213 4.99512 15.8379 4.99512 15.3369ZM11.9912 14.8535C12.7646 14.8623 13.5381 14.6602 14.4961 14.2207L18.9961 12.1729V15.3369C18.9961 17.1211 16.2188 18.7646 11.9912 18.7646C9.89062 18.7646 8.1416 18.3516 6.91992 17.7188V13.0518L9.48633 14.2207C10.4531 14.6602 11.2266 14.8623 11.9912 14.8535Z" fill="#1C1C1E"/>
</g>
<defs>
<clipPath id="clip0_10_464">
<rect width="24" height="24" fill="white"/>
</clipPath>
</defs>
</svg>
