<svg width="24" height="24" viewBox="0 0 24 24" fill="none" xmlns="http://www.w3.org/2000/svg">
<g clip-path="url(#clip0_10_555)">
<path d="M23.0039 7.51465L14.417 3.58594C13.4941 3.16406 12.7383 2.9707 12 2.98828C11.2617 2.9707 10.5059 3.16406 9.58301 3.58594L0.996094 7.51465C0.380859 7.78711 0.0644531 8.29688 0.0644531 8.81543C0.0644531 9.34277 0.380859 9.84375 0.996094 10.1162L4.39746 11.6543L10.1016 8.99121C10.0664 8.92969 10.0488 8.87695 10.0488 8.81543C10.0488 8.17383 11.0244 7.7168 12.0264 7.7168C13.0371 7.7168 14.0039 8.17383 14.0039 8.81543C14.0039 9.47461 13.0371 9.94043 12.0264 9.94043C11.7188 9.94043 11.4023 9.89648 11.1211 9.80859L5.76855 12.3047L9.58301 14.0537C10.5059 14.4756 11.2617 14.6602 12 14.6514C12.7383 14.6602 13.4941 14.4756 14.417 14.0537L23.0039 10.1162C23.6191 9.83496 23.9355 9.34277 23.9355 8.81543C23.9355 8.29688 23.6191 7.78711 23.0039 7.51465ZM5.7334 13.7109V18.8525C7.2627 19.7666 9.43359 20.3203 12 20.3203C17.1592 20.3203 20.7012 18.0967 20.7012 15.3545V12.5859L14.9531 15.2227C13.8896 15.7061 12.9229 15.9521 12 15.9434C11.0859 15.9521 10.1104 15.7061 9.04688 15.2227L5.7334 13.7109ZM3.29883 12.5947V15.3545C3.29883 16.1191 3.70312 17.0244 4.43262 17.7979V13.1133L3.29883 12.5947ZM3.65918 20.9355V23.2119C3.65918 23.959 4.15137 24.4512 4.89844 24.4512H5.26758C6.01465 24.4512 6.49805 23.959 6.49805 23.2119V20.9355C6.49805 20.3555 6.20801 19.9336 5.7334 19.7666V18.8525C5.22363 18.5449 4.78418 18.1934 4.43262 17.7979V19.7666C3.95801 19.9248 3.65918 20.3555 3.65918 20.9355Z" fill="#1C1C1E"/>
</g>
<defs>
<clipPath id="clip0_10_555">
<rect width="24" height="24" fill="white"/>
</clipPath>
</defs>
</svg>
