<svg width="24" height="24" viewBox="0 0 24 24" fill="none" xmlns="http://www.w3.org/2000/svg">
<g clip-path="url(#clip0_10_584)">
<path d="M9.2666 3.02344L16.6934 4.33301C17.4932 4.47363 18.1611 4.69336 18.6973 5.00098V4.4209C18.6621 2.51367 17.3174 1.59961 15.1377 1.98633L9.2666 3.02344ZM6.55957 20.083L16.2627 21.7969C18.1172 22.1221 19.2598 21.0674 19.2598 19.0547V8.4375C19.2598 6.5918 18.3545 5.87109 16.4824 5.53711L7.06934 3.87598C5.68066 3.63867 4.73145 4.42969 4.73145 5.80957V17.9648C4.73145 19.1514 5.35547 19.8721 6.55957 20.083ZM7.20117 9.3252V7.4707C7.20117 6.82031 7.62305 6.5127 8.2998 6.63574L10.1543 6.96094C10.875 7.08398 10.6992 8.30566 9.89062 8.15625L8.80957 7.97168C8.57227 7.92773 8.44043 8.01562 8.44043 8.23535V9.37793C8.44043 10.125 7.20117 10.1162 7.20117 9.3252ZM15.4893 10.7314V9.67676C15.4893 9.4043 15.4102 9.13184 14.9355 9.04395L14.2148 8.9209C13.3623 8.77148 13.5645 7.55859 14.4258 7.7168L15.3486 7.875C16.333 8.05078 16.7285 8.47266 16.7285 9.30762V10.7314C16.7285 11.6016 15.4893 11.5312 15.4893 10.7314ZM8.44043 15.0117V16.0752C8.44043 16.3477 8.52832 16.6113 9.00293 16.6992L9.72363 16.8223C10.5762 16.9717 10.374 18.1846 9.5127 18.0264L8.58984 17.8682C7.59668 17.6924 7.20117 17.2705 7.20117 16.4355V15.0117C7.20117 14.1416 8.44043 14.2119 8.44043 15.0117ZM16.7285 16.418V18.2725C16.7285 18.9316 16.3154 19.2305 15.6387 19.1074L13.7842 18.7822C13.0635 18.6592 13.2305 17.4463 14.0391 17.5869L15.1201 17.7715C15.3662 17.8154 15.4893 17.7275 15.4893 17.5078V16.374C15.4893 15.627 16.7285 15.627 16.7285 16.418Z" fill="#1C1C1E"/>
</g>
<defs>
<clipPath id="clip0_10_584">
<rect width="24" height="24" fill="white"/>
</clipPath>
</defs>
</svg>
