<svg width="24" height="24" viewBox="0 0 24 24" fill="none" xmlns="http://www.w3.org/2000/svg">
<g clip-path="url(#clip0_10_599)">
<path d="M6.39258 20.1621L16.3945 21.9287C18.3105 22.2627 19.4883 21.1816 19.4883 19.1074V8.2793C19.4883 7.27734 19.2334 6.60059 18.7061 6.13477V4.51758C18.7061 2.54004 17.3613 1.57324 15.1377 1.96875L6.11133 3.55957C5.12695 3.68262 4.50293 4.43848 4.50293 5.58105V17.9824C4.50293 19.1953 5.15332 19.9424 6.39258 20.1621ZM16.623 5.2998L11.0508 4.31543L15.6826 3.5332C16.5088 3.40137 17.0098 3.73535 17.0098 4.44727V5.37012C16.8867 5.34375 16.7549 5.31738 16.623 5.2998ZM6.91113 18.4219C6.48926 18.3516 6.2959 18.0967 6.2959 17.6748V6.01172C6.2959 5.56348 6.59473 5.32617 7.07812 5.41406L16.4824 7.06641C17.2822 7.20703 17.6953 7.54102 17.6953 8.26172V18.9316C17.6953 19.8018 17.1855 20.2412 16.3594 20.0918L6.91113 18.4219ZM7.41211 9.4834C7.41211 10.2744 8.66016 10.2744 8.66016 9.52734V8.39355C8.66016 8.17383 8.7832 8.07715 9.0293 8.12109L10.1104 8.31445C10.9189 8.45508 11.0859 7.24219 10.3652 7.11035L8.51074 6.78516C7.83398 6.6709 7.41211 6.96973 7.41211 7.62012V9.4834ZM15.3311 10.8193C15.3311 11.6104 16.5791 11.6895 16.5791 10.8193V9.39551C16.5791 8.56055 16.1748 8.13867 15.1904 7.96289L14.2676 7.7959C13.4062 7.64648 13.2041 8.85938 14.0566 9.00879L14.7773 9.13184C15.252 9.21973 15.3311 9.4834 15.3311 9.75586V10.8193ZM8.66016 14.792C8.66016 13.9922 7.41211 13.9219 7.41211 14.792V16.2158C7.41211 17.0508 7.81641 17.4727 8.80078 17.6396L9.72363 17.8066C10.585 17.9561 10.7871 16.752 9.93457 16.6025L9.21387 16.4707C8.73926 16.3916 8.66016 16.1191 8.66016 15.8467V14.792ZM16.5791 16.1279C16.5791 15.3369 15.3311 15.3281 15.3311 16.0752V17.2178C15.3311 17.4287 15.208 17.5254 14.9707 17.4814L13.8896 17.2969C13.0811 17.1475 12.9053 18.3691 13.626 18.4922L15.4805 18.8174C16.1572 18.9404 16.5791 18.6328 16.5791 17.9824V16.1279Z" fill="#1C1C1E"/>
</g>
<defs>
<clipPath id="clip0_10_599">
<rect width="24" height="24" fill="white"/>
</clipPath>
</defs>
</svg>
