<svg width="24" height="24" viewBox="0 0 24 24" fill="none" xmlns="http://www.w3.org/2000/svg">
<g clip-path="url(#clip0_10_333)">
<path d="M0.556641 19.4766C0.213867 20.2236 0.486328 21.1465 1.50586 21.1465C1.88379 21.1465 2.19141 20.9883 2.63965 20.6191L5.02148 18.6416C5.10938 18.5625 5.16211 18.5361 5.22363 18.5361C5.28516 18.5361 5.33789 18.5625 5.42578 18.6416L7.80762 20.6191C8.25586 20.9883 8.56348 21.1465 8.94141 21.1465C9.96094 21.1465 10.2334 20.2236 9.89062 19.4766L5.93555 10.5557V6.4248C5.93555 4.41211 6.27832 2.90918 6.27832 2.61035C6.27832 2.34668 6.10254 2.1709 5.84766 2.1709C5.67188 2.1709 5.53125 2.27637 5.31152 2.51367L3.36035 4.75488C3.18457 4.96582 3.22852 5.2207 3.45703 5.33496C4.23926 5.66895 4.50293 5.79199 4.50293 6.4248V10.5469L0.556641 19.4766ZM12.4482 21.1641C14.8652 21.1641 16.4648 19.7314 16.4648 17.5693C16.4648 15.7676 15.375 15.0469 15.375 14.4316C15.375 13.7109 15.9814 13.1748 15.9814 12.2695C15.9814 11.6016 15.5332 11.127 14.9004 11.127C14.373 11.127 14.0654 11.4346 13.8457 11.7246C13.6611 11.9531 13.5293 12.1289 13.3975 12.1289C13.1865 12.1289 13.1514 11.7686 13.1514 11.4961V6.0293C13.1514 5.80078 13.1689 5.76562 13.3096 5.71289C13.5117 5.625 13.5732 5.51953 13.5996 5.26465L13.7754 3.44531C13.793 3.26953 13.7139 3.10254 13.582 2.97949L12.8174 2.32031C12.7031 2.21484 12.5713 2.1709 12.4482 2.1709C12.3164 2.1709 12.1846 2.21484 12.0703 2.32031L11.3057 2.97949C11.1826 3.09375 11.0947 3.26953 11.1123 3.44531L11.2881 5.26465C11.3145 5.52832 11.3848 5.63379 11.5781 5.71289C11.71 5.75684 11.7363 5.80078 11.7363 6.0293L11.7539 11.4873C11.7539 11.8389 11.6836 12.1289 11.499 12.1289C11.3672 12.1289 11.2354 11.9443 11.042 11.7246C10.8223 11.4346 10.5146 11.1357 9.99609 11.1357C9.36328 11.1357 8.90625 11.6104 8.90625 12.2695C8.90625 13.1748 9.5127 13.7109 9.5127 14.4316C9.5127 14.748 9.19629 15.1172 8.91504 15.6709L10.3301 18.8525C10.5762 19.415 10.6729 19.7666 10.6729 20.1533C10.6729 20.3906 10.6289 20.6104 10.5498 20.8125C11.1211 21.041 11.7627 21.1641 12.4482 21.1641ZM19.5586 21.1201C22.0107 21.1201 23.5752 19.9512 23.5752 18.0879C23.5752 16.2598 22.3887 15.8467 22.3887 15.0469C22.3887 14.4668 22.6523 13.9395 22.6523 13.1748C22.6523 11.9531 21.7646 11.1621 20.2705 10.9775V5.68652C20.2705 5.33496 20.3145 5.23828 20.5078 5.09766C20.7012 4.9834 20.7627 4.86914 20.7539 4.70215L20.6221 2.51367C20.6045 2.31152 20.4639 2.1709 20.2793 2.1709H18.8291C18.6445 2.1709 18.5039 2.31152 18.4951 2.51367L18.3633 4.70215C18.3457 4.87793 18.416 4.97461 18.6006 5.09766C18.8027 5.24707 18.8467 5.33496 18.8467 5.68652V10.9775C17.3525 11.1621 16.4648 11.9531 16.4648 13.1748C16.4648 13.8955 16.7285 14.4141 16.7285 14.9766C16.7285 15.126 16.667 15.2578 16.5879 15.4072C16.8428 15.917 17.124 16.6465 17.124 17.5693C17.124 18.5273 16.8428 19.3711 16.3594 20.0479C17.0537 20.7422 18.1611 21.1201 19.5586 21.1201ZM19.5586 15.7939C18.9961 15.7939 18.5479 15.3457 18.5479 14.792C18.5479 14.2383 19.0049 13.7812 19.5586 13.7812C20.1123 13.7812 20.5605 14.2383 20.5605 14.792C20.5605 15.3457 20.1123 15.7939 19.5586 15.7939ZM10.5059 17.4199C10.3037 17.3584 10.1895 17.1123 10.251 16.9102L10.9541 14.8975C11.0332 14.6865 11.2617 14.5723 11.4814 14.6514C11.6836 14.7129 11.8066 14.959 11.7363 15.1699L11.0332 17.1738C10.9629 17.3848 10.7256 17.499 10.5059 17.4199ZM14.373 17.4287C14.1621 17.4902 13.9248 17.376 13.8545 17.1738L13.1602 15.1699C13.0811 14.9502 13.2129 14.7041 13.415 14.6514C13.6348 14.5811 13.8633 14.6953 13.9336 14.8975L14.6367 16.9102C14.707 17.1211 14.584 17.3672 14.373 17.4287ZM5.9707 15.2139C5.87402 15.0557 5.93555 14.8271 6.10254 14.7393C6.26074 14.6514 6.48047 14.7129 6.56836 14.8887C6.65625 15.0557 6.59473 15.2578 6.43652 15.3457C6.26953 15.4336 6.05859 15.3721 5.9707 15.2139ZM6.46289 16.4004C6.375 16.2334 6.44531 16.0137 6.60352 15.917C6.77051 15.8291 6.99023 15.8994 7.07812 16.0664C7.16602 16.2334 7.10449 16.4443 6.9375 16.5322C6.77051 16.6201 6.55078 16.5586 6.46289 16.4004ZM6.98145 17.5781C6.89355 17.4111 6.95508 17.1914 7.11328 17.1035C7.28027 17.0156 7.5 17.0771 7.5791 17.2441C7.67578 17.4023 7.60547 17.6221 7.43848 17.7188C7.28027 17.8066 7.06934 17.7451 6.98145 17.5781ZM18.416 18.2988C18.1699 18.2988 17.9766 18.1055 17.9766 17.8682C17.9766 17.6309 18.1787 17.4375 18.416 17.4375H20.6924C20.9297 17.4375 21.123 17.6309 21.123 17.8682C21.123 18.1055 20.9297 18.2988 20.6924 18.2988H18.416Z" fill="#1C1C1E"/>
</g>
<defs>
<clipPath id="clip0_10_333">
<rect width="24" height="24" fill="white"/>
</clipPath>
</defs>
</svg>
