<svg width="24" height="24" viewBox="0 0 24 24" fill="none" xmlns="http://www.w3.org/2000/svg">
<g clip-path="url(#clip0_10_334)">
<path d="M0.530273 19.459C0.1875 20.2236 0.46875 21.1816 1.51465 21.1816C1.88379 21.1816 2.18262 21.0322 2.66602 20.6367L5.04785 18.6592C5.13574 18.5889 5.18848 18.5625 5.22363 18.5625C5.26758 18.5625 5.32031 18.5889 5.4082 18.6592L7.79004 20.6367C8.27344 21.0322 8.58105 21.1816 8.94141 21.1816C9.9873 21.1816 10.2686 20.2236 9.92578 19.459L5.97949 10.5557V6.4248C5.97949 4.41211 6.31348 2.90918 6.31348 2.61035C6.31348 2.33789 6.1377 2.14453 5.85645 2.14453C5.68066 2.14453 5.52246 2.24121 5.30273 2.49609L3.34277 4.72852C3.1582 4.95703 3.21094 5.23828 3.45703 5.36133C4.23926 5.69531 4.48535 5.81836 4.48535 6.4248V10.5381L0.530273 19.459ZM11.5518 13.1748C11.9824 13.1748 12.2725 12.9463 12.457 12.6035C12.6416 12.9463 12.9316 13.1748 13.3711 13.1748C14.2236 13.1748 14.4521 12.1816 14.8037 12.1816C14.8652 12.1816 14.918 12.2344 14.918 12.3047C14.918 12.9727 14.3203 13.5176 14.3203 14.4404C14.3203 15.416 15.4014 15.9521 15.4014 17.5693C15.4014 19.1426 14.2939 20.083 12.457 20.083C11.7539 20.083 11.1475 19.9424 10.6025 19.6875C10.6992 20.127 10.6729 20.4697 10.5146 20.8213C11.1387 21.0762 11.7803 21.1992 12.457 21.1992C14.8916 21.1992 16.5088 19.749 16.5088 17.5693C16.5088 15.7676 15.4189 15.0381 15.4189 14.4316C15.4189 13.7197 16.0254 13.1836 16.0254 12.2695C16.0254 11.5928 15.5596 11.1006 14.918 11.1006C14.373 11.1006 14.0566 11.417 13.8369 11.707C13.6523 11.9355 13.5293 12.1025 13.4062 12.1025C13.248 12.1025 13.1953 11.8564 13.1865 11.4785L13.1953 6.0293C13.1953 5.80957 13.2041 5.7832 13.3359 5.73926C13.5381 5.66016 13.6084 5.5459 13.6436 5.26465L13.8193 3.43652C13.8281 3.26074 13.7578 3.08496 13.6172 2.95312L12.8525 2.29395C12.7471 2.19727 12.6064 2.14453 12.457 2.14453C12.2988 2.14453 12.167 2.19727 12.0615 2.29395L11.2969 2.95312C11.1562 3.07617 11.0859 3.26953 11.0947 3.43652L11.2705 5.26465C11.2969 5.53711 11.376 5.66016 11.5869 5.73926C11.7012 5.77441 11.7188 5.80957 11.7188 6.0293L11.7363 11.4961C11.7363 11.8037 11.666 12.1025 11.5166 12.1025C11.3936 12.1025 11.2705 11.9268 11.0771 11.707C10.8574 11.417 10.541 11.1094 10.0049 11.1094C9.35449 11.1094 8.88867 11.584 8.88867 12.2695C8.88867 13.1836 9.49512 13.7197 9.49512 14.4316C9.49512 14.7393 9.17871 15.1172 8.89746 15.6797L9.55664 17.1562C9.69727 15.8467 10.5938 15.3281 10.5938 14.4404C10.5938 13.5176 10.0049 12.9727 10.0049 12.3047C10.0049 12.2344 10.0488 12.1816 10.1104 12.1816C10.4619 12.1816 10.6904 13.1748 11.5518 13.1748ZM19.5674 21.1465C22.0371 21.1465 23.6104 19.96 23.6104 18.0879C23.6104 16.251 22.4238 15.8379 22.4238 15.0469C22.4238 14.4756 22.6875 13.9395 22.6875 13.1748C22.6875 11.9355 21.7998 11.1445 20.3145 10.9512V5.68652C20.3145 5.34375 20.3496 5.26465 20.543 5.12402C20.7363 5.00098 20.8066 4.88672 20.7979 4.70215L20.6572 2.51367C20.6484 2.29395 20.4902 2.14453 20.2969 2.14453H18.8379C18.6445 2.14453 18.4863 2.29395 18.4775 2.51367L18.3457 4.70215C18.3281 4.87793 18.4072 5.00098 18.6006 5.12402C18.7939 5.27344 18.8291 5.35254 18.8291 5.68652V10.9512C17.335 11.1445 16.4473 11.9443 16.4473 13.1748C16.4473 13.8955 16.7109 14.4229 16.7109 14.9766C16.7109 15.082 16.6846 15.2051 16.5703 15.416C16.7637 15.7939 16.9219 16.207 17.0186 16.6904C17.3965 16.1982 17.8184 15.6797 17.8184 15.0293C17.8184 14.4053 17.5547 13.7549 17.5547 13.1748C17.5547 12.2959 18.3281 11.9707 19.5674 11.9707C20.7891 11.9707 21.5889 12.2783 21.5889 13.1748C21.5889 13.7549 21.3164 14.4053 21.3164 15.0293C21.3164 16.1279 22.5117 16.6816 22.5117 18.0879C22.5117 19.3184 21.4219 20.0566 19.5674 20.0566C18.2754 20.0566 17.335 19.6875 16.8604 19.0195C16.7285 19.4414 16.5527 19.7578 16.333 20.0654C17.0537 20.7773 18.1875 21.1465 19.5674 21.1465ZM1.5498 19.8018L5.22363 11.4346L8.90625 19.8018C8.98535 20.0039 8.82715 20.1094 8.68652 19.9863L5.97949 17.7188C5.68945 17.4814 5.44336 17.3672 5.22363 17.3672C5.0127 17.3672 4.7666 17.4814 4.47656 17.7188L1.77832 19.9863C1.62891 20.1094 1.4707 20.0039 1.5498 19.8018ZM19.5674 15.7588C20.1035 15.7588 20.5342 15.3193 20.5342 14.792C20.5342 14.2646 20.1035 13.8164 19.5674 13.8164C19.04 13.8164 18.6006 14.2559 18.6006 14.792C18.6006 15.3281 19.0312 15.7588 19.5674 15.7588ZM10.7432 17.4023C10.9453 17.4814 11.1738 17.3584 11.2441 17.165L11.9121 15.2314C11.9824 15.0293 11.877 14.8008 11.6748 14.7393C11.4727 14.6602 11.2529 14.7744 11.1738 14.9766L10.5059 16.9189C10.4355 17.1035 10.541 17.332 10.7432 17.4023ZM14.1621 17.4023C14.3643 17.3496 14.4785 17.1123 14.4082 16.9189L13.7314 14.9766C13.6611 14.7832 13.4502 14.6689 13.2393 14.7393C13.0459 14.792 12.9316 15.0293 13.002 15.2314L13.6699 17.165C13.7402 17.3584 13.96 17.4727 14.1621 17.4023ZM6.06738 15.6797C6.31348 15.6797 6.51562 15.4863 6.51562 15.2402C6.51562 14.9941 6.31348 14.792 6.06738 14.792C5.83008 14.792 5.61914 15.0029 5.61914 15.2402C5.61914 15.4775 5.83008 15.6797 6.06738 15.6797ZM6.55078 16.8223C6.79688 16.8223 7.00781 16.6201 7.00781 16.374C7.00781 16.1279 6.79688 15.917 6.55078 15.917C6.31348 15.917 6.10254 16.1367 6.10254 16.374C6.10254 16.6201 6.31348 16.8223 6.55078 16.8223ZM7.03418 17.9561C7.28027 17.9561 7.49121 17.7451 7.49121 17.5078C7.49121 17.2617 7.28027 17.0596 7.03418 17.0596C6.80566 17.0596 6.59473 17.2705 6.59473 17.5078C6.59473 17.7451 6.79688 17.9561 7.03418 17.9561ZM18.4688 18.2725H20.666C20.8857 18.2725 21.0703 18.0967 21.0703 17.8682C21.0703 17.6396 20.8857 17.4639 20.666 17.4639H18.4688C18.2402 17.4639 18.0557 17.6484 18.0557 17.8682C18.0557 18.0967 18.2314 18.2725 18.4688 18.2725Z" fill="#1C1C1E"/>
</g>
<defs>
<clipPath id="clip0_10_334">
<rect width="24" height="24" fill="white"/>
</clipPath>
</defs>
</svg>
