<svg width="24" height="24" viewBox="0 0 24 24" fill="none" xmlns="http://www.w3.org/2000/svg">
<g clip-path="url(#clip0_10_353)">
<path d="M4.25684 19.4326C5.02148 20.2061 6.28711 20.2061 7.05176 19.4326C7.61426 18.8701 7.76367 18.0352 7.5 17.332L8.07129 16.7695C9.16113 17.6133 10.5322 18.1143 12.0176 18.1143C12.7119 18.1143 13.3887 18.0088 14.0127 17.7979C16.2803 19.3623 18.1699 19.9863 19.084 19.0811C19.9629 18.1934 19.4092 16.4004 17.9502 14.2207C18.293 13.4385 18.4775 12.5684 18.4775 11.6543C18.4775 10.1689 17.9766 8.80664 17.1328 7.7168L17.7041 7.14551C18.4072 7.40918 19.2334 7.25977 19.7871 6.68848C20.5605 5.93262 20.5605 4.6582 19.7871 3.90234C19.0225 3.12012 17.7568 3.12012 17.001 3.90234C16.4297 4.45605 16.2803 5.28223 16.5439 5.98535L15.9727 6.55664C14.8828 5.7041 13.5029 5.19434 12.0176 5.19434C11.1387 5.19434 10.3125 5.37012 9.54785 5.68652C7.1748 3.99902 5.18848 3.2959 4.24805 4.24512C3.27246 5.21191 4.0459 7.28613 5.83887 9.75586C5.6543 10.3535 5.54883 10.9951 5.54883 11.6543C5.54883 13.1484 6.05859 14.5283 6.91992 15.6182L6.35742 16.1895C5.64551 15.917 4.81934 16.0664 4.25684 16.6377C3.4834 17.4023 3.4834 18.668 4.25684 19.4326ZM5.34668 5.34375C5.67188 5.01855 6.72656 5.51074 8.12402 6.50391C7.50879 6.96973 6.98145 7.54102 6.55957 8.19141C5.54004 6.76758 5.02148 5.67773 5.34668 5.34375ZM12.0176 6.86426C13.0459 6.86426 14.0039 7.18945 14.7861 7.74316L13.4854 9.04395C12.7031 8.2793 11.9209 7.56738 11.165 6.93457C11.4375 6.89062 11.7275 6.86426 12.0176 6.86426ZM7.66699 9.62402C8.07129 8.77148 8.71289 8.05957 9.5127 7.56738C10.4268 8.31445 11.4111 9.19336 12.3867 10.1426L10.1543 12.3838C9.24023 11.4521 8.3877 10.5029 7.66699 9.62402ZM16.8252 11.6631C16.8252 11.9795 16.7988 12.2871 16.7373 12.5859C16.1133 11.8125 15.4102 11.0127 14.6367 10.2041L15.9463 8.90332C16.5 9.68555 16.8252 10.6348 16.8252 11.6631ZM11.3057 13.5264L13.5381 11.3115C14.4873 12.3047 15.3574 13.3066 16.0781 14.2207C15.6035 14.9766 14.918 15.5918 14.1094 15.9873C13.2217 15.2842 12.2637 14.4492 11.3057 13.5264ZM7.20996 11.6631C7.20996 11.6016 7.20996 11.54 7.20996 11.4873C7.77246 12.1377 8.3877 12.8145 9.04688 13.4912L8.09766 14.4404C7.54395 13.6494 7.20996 12.6914 7.20996 11.6631ZM12.0176 16.4619C10.9893 16.4619 10.04 16.1367 9.24902 15.583L10.207 14.6338C10.9014 15.293 11.5869 15.9082 12.2549 16.4619C12.1758 16.4619 12.0967 16.4619 12.0176 16.4619ZM17.9766 17.9736C17.6777 18.2637 16.7725 17.8857 15.5596 17.0596C16.1484 16.6729 16.6758 16.1895 17.1152 15.627C17.9062 16.8047 18.2666 17.6836 17.9766 17.9736Z" fill="#1C1C1E"/>
</g>
<defs>
<clipPath id="clip0_10_353">
<rect width="24" height="24" fill="white"/>
</clipPath>
</defs>
</svg>
