<svg width="24" height="24" viewBox="0 0 24 24" fill="none" xmlns="http://www.w3.org/2000/svg">
<g clip-path="url(#clip0_10_672)">
<path d="M1.50586 19.8193L3.10547 21.4189C3.93164 22.2539 4.90723 22.2012 5.79492 21.2256L15.1025 10.9512C15.3486 11.0215 15.6035 11.0039 15.9023 10.9512L16.7812 10.7842L17.2998 11.3115L17.2559 11.7773C17.2207 12.2432 17.3613 12.6299 17.8184 13.0781L18.5127 13.7549C18.9961 14.2383 19.6201 14.2646 20.0859 13.7988L22.7314 11.1445C23.1973 10.6699 23.1797 10.0635 22.6963 9.58008L22.002 8.88574C21.5537 8.4375 21.1758 8.2793 20.7188 8.31445L20.2354 8.3584L19.7344 7.86621L19.9365 6.94336C20.0684 6.35449 19.9102 5.91504 19.3125 5.31738L17.3877 3.40137C14.3467 0.369141 10.1807 0.386719 7.5 3.06738C7.0957 3.46289 7.06934 4.0166 7.29785 4.40332C7.52637 4.78125 7.99219 5.02734 8.625 4.86914C9.95215 4.55273 11.2705 4.52637 12.4834 5.30859L11.9912 6.53906C11.8154 6.96094 11.7803 7.32129 11.8682 7.64648L1.69043 17.1299C0.741211 18 0.670898 18.9756 1.50586 19.8193ZM9.15234 3.4541C11.2969 1.98633 14.1533 2.31152 16.0869 4.24512L18.2314 6.38086C18.4512 6.5918 18.4863 6.76758 18.4248 7.0752L18.1611 8.38477L19.5762 9.7998L20.4551 9.74707C20.666 9.73828 20.7363 9.75586 20.8945 9.91406L21.334 10.3535L19.2773 12.4102L18.8379 11.9707C18.6797 11.8125 18.6533 11.7422 18.6621 11.5225L18.7148 10.6523L17.3086 9.2373L15.9639 9.46582C15.6738 9.51855 15.5244 9.50098 15.3047 9.28125L13.6084 7.59375C13.3799 7.37402 13.3447 7.20703 13.4766 6.88184L14.2676 4.99219C12.8613 3.64746 11.0244 3.11133 9.22266 3.6123C9.09961 3.63867 9.04688 3.5332 9.15234 3.4541ZM3.8877 20.0039L2.91211 19.0371C2.54297 18.668 2.63086 18.4131 2.93848 18.123L12.7646 8.85938L13.9248 10.0283L4.79297 19.9863C4.51172 20.2939 4.24805 20.373 3.8877 20.0039Z" fill="#1C1C1E"/>
</g>
<defs>
<clipPath id="clip0_10_672">
<rect width="24" height="24" fill="white"/>
</clipPath>
</defs>
</svg>
