<svg width="24" height="24" viewBox="0 0 24 24" fill="none" xmlns="http://www.w3.org/2000/svg">
<g clip-path="url(#clip0_10_671)">
<path d="M18.8379 13.5703C19.2773 13.9922 19.8047 14.0186 20.2178 13.6055L22.8457 10.9951C23.2412 10.5908 23.2148 10.0459 22.793 9.61523L22.1689 8.99121C21.791 8.61328 21.5449 8.56055 21.1406 8.5957L20.1914 8.70117L19.5586 8.07715L19.8398 6.92578C19.9893 6.2666 19.752 5.59863 19.0752 4.92188L17.3262 3.19043C14.8213 0.694336 10.1631 0.430664 7.59668 2.99707C7.13965 3.4541 7.19238 3.99023 7.47363 4.33301C7.71094 4.59668 8.10645 4.74609 8.51953 4.61426C10.1543 4.13965 11.6221 4.04297 12.835 4.74609L12.2109 6.36328C11.9033 7.1543 12.0527 7.72559 12.5801 8.25293L14.4697 10.1426C14.918 10.5908 15.3662 10.7314 15.999 10.5996L17.291 10.3359L17.9238 10.9688L17.8184 11.918C17.7832 12.3311 17.8271 12.5947 18.2227 12.9639L18.8379 13.5703ZM2.97363 21.3574C3.80859 22.1924 4.81934 22.1396 5.66309 21.1729L14.0566 11.54L11.2969 8.78027L1.64648 17.1562C0.670898 18 0.626953 19.0107 1.46191 19.8457L2.97363 21.3574Z" fill="#1C1C1E"/>
</g>
<defs>
<clipPath id="clip0_10_671">
<rect width="24" height="24" fill="white"/>
</clipPath>
</defs>
</svg>
