<svg width="24" height="24" viewBox="0 0 24 24" fill="none" xmlns="http://www.w3.org/2000/svg">
<g clip-path="url(#clip0_10_325)">
<path d="M11.9912 20.7422C16.9746 20.7422 21.0879 16.6289 21.0879 11.6543C21.0879 6.67969 16.9658 2.56641 11.9824 2.56641C7.00781 2.56641 2.90332 6.67969 2.90332 11.6543C2.90332 16.6289 7.0166 20.7422 11.9912 20.7422ZM11.9912 18.9316C7.95703 18.9316 4.73145 15.6885 4.73145 11.6543C4.73145 7.62012 7.95703 4.38574 11.9824 4.38574C16.0166 4.38574 19.2598 7.62012 19.2686 11.6543C19.2773 15.6885 16.0254 18.9316 11.9912 18.9316ZM7.10449 13.5967C7.10449 13.9219 7.35938 14.168 7.70215 14.168H8.08887C8.29102 14.168 8.44922 14.0098 8.44922 13.8076V11.2588C8.44922 9.37793 9.84668 8.18262 11.9912 8.18262C14.127 8.18262 15.5244 9.37793 15.5244 11.2588V13.8076C15.5244 14.0098 15.6826 14.168 15.8848 14.168H16.2715C16.6143 14.168 16.8691 13.9219 16.8691 13.5967V11.1094C16.8691 8.61328 14.9092 6.84668 12.1494 6.84668H11.8242C9.06445 6.84668 7.10449 8.61328 7.10449 11.1094V13.5967ZM9.38965 15.6621H9.89062C10.4619 15.6621 10.7959 15.3457 10.7959 14.8184V12.8408C10.7959 12.3135 10.4619 11.9971 9.89062 11.9971H9.38965C9.05566 11.9971 8.85352 12.1904 8.85352 12.5156V15.1523C8.85352 15.4688 9.05566 15.6621 9.38965 15.6621ZM14.0742 15.6621H14.584C14.918 15.6621 15.1201 15.4688 15.1201 15.1523V12.5156C15.1201 12.1904 14.918 11.9971 14.584 11.9971H14.0742C13.5117 11.9971 13.1777 12.3135 13.1777 12.8408V14.8184C13.1777 15.3457 13.5117 15.6621 14.0742 15.6621Z" fill="#1C1C1E"/>
</g>
<defs>
<clipPath id="clip0_10_325">
<rect width="24" height="24" fill="white"/>
</clipPath>
</defs>
</svg>
