<svg width="24" height="24" viewBox="0 0 24 24" fill="none" xmlns="http://www.w3.org/2000/svg">
<g clip-path="url(#clip0_10_326)">
<path d="M3.33398 16.6816H4.125C4.25684 16.6816 4.34473 16.5938 4.34473 16.4619V11.3643C4.34473 7.21582 7.5 4.52637 12 4.52637C16.5 4.52637 19.6553 7.21582 19.6553 11.3643V16.4619C19.6553 16.5938 19.7432 16.6816 19.875 16.6816H20.666C21.0527 16.6816 21.3428 16.4355 21.3428 16.0664V10.96C21.3428 6.12598 17.502 2.86523 12.3164 2.86523H11.6836C6.49805 2.86523 2.65723 6.12598 2.65723 10.96V16.0664C2.65723 16.4355 2.94727 16.6816 3.33398 16.6816ZM6.19922 20.0742H7.24512C8.2998 20.0742 8.92383 19.4941 8.92383 18.4922V14.4756C8.92383 13.4736 8.2998 12.8936 7.24512 12.8936H6.19922C5.61035 12.8936 5.27637 13.2188 5.27637 13.79V19.1777C5.27637 19.749 5.61035 20.0742 6.19922 20.0742ZM16.7637 20.0742H17.8096C18.3984 20.0742 18.7412 19.749 18.7412 19.1777V13.79C18.7412 13.21 18.3984 12.8936 17.8096 12.8936H16.7637C15.709 12.8936 15.085 13.4736 15.085 14.4756V18.4922C15.085 19.4941 15.709 20.0742 16.7637 20.0742Z" fill="#1C1C1E"/>
</g>
<defs>
<clipPath id="clip0_10_326">
<rect width="24" height="24" fill="white"/>
</clipPath>
</defs>
</svg>
