<svg width="24" height="24" viewBox="0 0 24 24" fill="none" xmlns="http://www.w3.org/2000/svg">
<g clip-path="url(#clip0_10_324)">
<path d="M11.9912 20.7598C16.9746 20.7598 21.0879 16.6465 21.0879 11.6631C21.0879 6.68848 16.9658 2.5752 11.9824 2.5752C7.00781 2.5752 2.90332 6.68848 2.90332 11.6631C2.90332 16.6465 7.0166 20.7598 11.9912 20.7598ZM6.90234 13.6934V11.1094C6.90234 8.50781 8.94141 6.6709 11.8154 6.6709H12.1582C15.0322 6.6709 17.0713 8.50781 17.0713 11.1094V13.6934C17.0713 14.0361 16.8076 14.291 16.4473 14.291H16.043C15.8232 14.291 15.6562 14.1328 15.6562 13.9131V11.2676C15.6562 9.31641 14.2148 8.06836 11.9912 8.06836C9.75879 8.06836 8.31738 9.31641 8.31738 11.2676V13.9131C8.31738 14.1328 8.15039 14.291 7.93945 14.291H7.52637C7.16602 14.291 6.90234 14.0361 6.90234 13.6934ZM9.29297 15.8467C8.94141 15.8467 8.73926 15.6445 8.73926 15.3105V12.5684C8.73926 12.2256 8.94141 12.0322 9.29297 12.0322H9.82031C10.4092 12.0322 10.7607 12.3574 10.7607 12.9111V14.9678C10.7607 15.5215 10.4092 15.8467 9.82031 15.8467H9.29297ZM14.1445 15.8467C13.5645 15.8467 13.2129 15.5215 13.2129 14.9678V12.9111C13.2129 12.3574 13.5645 12.0322 14.1445 12.0322H14.6807C15.0322 12.0322 15.2344 12.2256 15.2344 12.5684V15.3105C15.2344 15.6445 15.0322 15.8467 14.6807 15.8467H14.1445Z" fill="#1C1C1E"/>
</g>
<defs>
<clipPath id="clip0_10_324">
<rect width="24" height="24" fill="white"/>
</clipPath>
</defs>
</svg>
