<svg width="24" height="24" viewBox="0 0 24 24" fill="none" xmlns="http://www.w3.org/2000/svg">
<g clip-path="url(#clip0_10_736)">
<path d="M3.87012 16.7871H5.02148C5.28516 16.7871 5.39062 16.7344 5.58398 16.585L6.17285 16.1367C6.49805 16.4619 6.98145 16.5322 7.46484 16.3213L10.374 15.1084C10.5938 15.0205 10.708 14.9326 10.8486 14.792L19.3389 6.36328C20.1826 5.51953 20.1826 4.50879 19.3301 3.64746L17.4229 1.73145C16.5703 0.878906 15.5596 0.870117 14.7158 1.71387L6.22559 10.1338C6.07617 10.2832 5.99707 10.3887 5.90039 10.6172L4.66992 13.5176C4.46777 13.9834 4.52051 14.4404 4.8457 14.8008L3.58008 16.1104C3.30762 16.4004 3.43945 16.7871 3.87012 16.7871ZM15.6914 2.87402C15.9199 2.6543 16.1924 2.64551 16.4033 2.86523L18.1963 4.66699C18.416 4.88672 18.4072 5.15039 18.1699 5.37891L17.5986 5.9502L15.1113 3.4541L15.6914 2.87402ZM7.78125 10.7402L14.1621 4.40332L16.6406 6.89941L10.2686 13.2363L7.78125 10.7402ZM7.28906 14.7656C7.12207 14.8271 7.00781 14.8271 6.8584 14.6777L6.30469 14.1328C6.16406 13.9922 6.16406 13.8604 6.22559 13.7109L7.0166 11.874L9.12598 14.001L7.28906 14.7656ZM3.57129 19.9072H20.4375C20.8594 19.9072 21.2021 19.5469 21.2021 19.125C21.2021 18.7031 20.8594 18.3516 20.4375 18.3516H3.57129C3.14062 18.3516 2.79785 18.7031 2.79785 19.125C2.79785 19.5469 3.14941 19.9072 3.57129 19.9072Z" fill="#1C1C1E"/>
</g>
<defs>
<clipPath id="clip0_10_736">
<rect width="24" height="24" fill="white"/>
</clipPath>
</defs>
</svg>
