<svg width="24" height="24" viewBox="0 0 24 24" fill="none" xmlns="http://www.w3.org/2000/svg">
<g clip-path="url(#clip0_10_588)">
<path d="M5.33789 10.7402H18.6621C19.5498 10.7402 20.3496 10.9424 21.0439 11.3027L18.873 6.21387C18.293 4.85156 17.1152 4.0957 15.542 4.0957H8.45801C6.87598 4.0957 5.70703 4.85156 5.12695 6.21387L2.94727 11.2939C3.6416 10.9424 4.4502 10.7402 5.33789 10.7402ZM5.33789 19.2305H18.6621C20.8066 19.2305 22.2832 17.7627 22.2832 15.6357C22.2832 13.5 20.8066 12.0322 18.6621 12.0322H5.33789C3.18457 12.0322 1.70801 13.5 1.70801 15.6357C1.70801 17.7627 3.18457 19.2305 5.33789 19.2305ZM9.3457 16.5234V14.7305C9.3457 14.4316 9.5918 14.1855 9.89941 14.1855C10.207 14.1855 10.4531 14.4316 10.4531 14.7305V16.5234C10.4531 16.8398 10.207 17.0859 9.89941 17.0859C9.5918 17.0859 9.3457 16.8398 9.3457 16.5234ZM11.4463 16.5234V14.7305C11.4463 14.4316 11.6924 14.1855 12 14.1855C12.3076 14.1855 12.5537 14.4316 12.5537 14.7305V16.5234C12.5537 16.8398 12.3076 17.0859 12 17.0859C11.6924 17.0859 11.4463 16.8398 11.4463 16.5234ZM13.5469 16.5234V14.7305C13.5469 14.4316 13.793 14.1855 14.1006 14.1855C14.4082 14.1855 14.6543 14.4316 14.6543 14.7305V16.5234C14.6543 16.8398 14.4082 17.0859 14.1006 17.0859C13.793 17.0859 13.5469 16.8398 13.5469 16.5234ZM15.6475 16.5234V14.7305C15.6475 14.4316 15.8936 14.1855 16.2012 14.1855C16.5088 14.1855 16.7549 14.4316 16.7549 14.7305V16.5234C16.7549 16.8398 16.5088 17.0859 16.2012 17.0859C15.8936 17.0859 15.6475 16.8398 15.6475 16.5234ZM17.748 16.5234V14.7305C17.748 14.4316 17.9941 14.1855 18.3105 14.1855C18.6094 14.1855 18.8555 14.4316 18.8555 14.7305V16.5234C18.8555 16.8398 18.6094 17.0859 18.3105 17.0859C17.9941 17.0859 17.748 16.8398 17.748 16.5234Z" fill="#1C1C1E"/>
</g>
<defs>
<clipPath id="clip0_10_588">
<rect width="24" height="24" fill="white"/>
</clipPath>
</defs>
</svg>
