<svg width="24" height="24" viewBox="0 0 24 24" fill="none" xmlns="http://www.w3.org/2000/svg">
<g clip-path="url(#clip0_10_580)">
<path d="M1.40039 15.2139C1.40039 17.5781 3.17578 19.3535 5.71582 19.3535H18.2842C20.8242 19.3535 22.5996 17.5781 22.5996 15.2139C22.5996 14.502 22.3975 13.8604 22.1514 13.2803L19.1279 6.19629C18.5127 4.74609 17.291 3.98145 15.6562 3.98145H8.35254C6.70898 3.98145 5.4873 4.74609 4.88086 6.19629L1.875 13.2451C1.62012 13.834 1.40039 14.4844 1.40039 15.2139ZM4.57324 11.2676L6.48926 6.5918C6.78809 5.83594 7.46484 5.44043 8.37012 5.44043H15.6299C16.5439 5.44043 17.2207 5.83594 17.5195 6.5918L19.4355 11.2676C19.084 11.1533 18.6973 11.083 18.2842 11.083H5.71582C5.30273 11.083 4.9248 11.1533 4.57324 11.2676ZM3.08789 15.2139C3.08789 13.8164 4.13379 12.7705 5.71582 12.7705H18.2842C19.8662 12.7705 20.9121 13.8164 20.9121 15.2139C20.9121 16.7607 19.8662 17.6572 18.2842 17.6572H5.71582C4.13379 17.6572 3.08789 16.6201 3.08789 15.2139ZM9.45117 16.084C9.45117 16.3828 9.68848 16.6113 9.9873 16.6113C10.2773 16.6113 10.5059 16.3828 10.5059 16.084V14.3525C10.5059 14.0625 10.2773 13.8252 9.9873 13.8252C9.68848 13.8252 9.45117 14.0625 9.45117 14.3525V16.084ZM11.4727 16.084C11.4727 16.3828 11.7012 16.6113 12 16.6113C12.29 16.6113 12.5273 16.3828 12.5273 16.084V14.3525C12.5273 14.0625 12.29 13.8252 12 13.8252C11.7012 13.8252 11.4727 14.0625 11.4727 14.3525V16.084ZM13.4854 16.084C13.4854 16.3828 13.7227 16.6113 14.0215 16.6113C14.3115 16.6113 14.5488 16.3828 14.5488 16.084V14.3525C14.5488 14.0625 14.3115 13.8252 14.0215 13.8252C13.7227 13.8252 13.4854 14.0625 13.4854 14.3525V16.084ZM15.5068 16.084C15.5068 16.3828 15.7441 16.6113 16.043 16.6113C16.333 16.6113 16.5703 16.3828 16.5703 16.084V14.3525C16.5703 14.0625 16.333 13.8252 16.043 13.8252C15.7441 13.8252 15.5068 14.0625 15.5068 14.3525V16.084ZM17.5283 16.084C17.5283 16.3828 17.7656 16.6113 18.0645 16.6113C18.3545 16.6113 18.583 16.3828 18.583 16.084V14.3525C18.583 14.0625 18.3545 13.8252 18.0645 13.8252C17.7656 13.8252 17.5283 14.0625 17.5283 14.3525V16.084Z" fill="#1C1C1E"/>
</g>
<defs>
<clipPath id="clip0_10_580">
<rect width="24" height="24" fill="white"/>
</clipPath>
</defs>
</svg>
