<svg width="24" height="24" viewBox="0 0 24 24" fill="none" xmlns="http://www.w3.org/2000/svg">
<g clip-path="url(#clip0_10_450)">
<path d="M12 0.738281C8.79199 0.738281 6.24316 3.2959 6.24316 6.48633C6.24316 8.85059 7.63184 10.9424 9.8291 11.8213V20.3379C9.8291 20.5928 9.9082 20.8213 10.1016 21.0146L11.6309 22.4912C11.8242 22.6846 12.1934 22.7285 12.4395 22.4824L15.208 19.7139C15.4629 19.459 15.4541 19.0898 15.208 18.8438L13.6172 17.2705L15.8496 15.0381C16.0781 14.8008 16.0869 14.4316 15.832 14.1768L13.6611 11.9971C16.2891 10.8809 17.748 8.86816 17.748 6.48633C17.748 3.30469 15.1904 0.738281 12 0.738281ZM12 6.08203C11.1475 6.08203 10.4531 5.3877 10.4531 4.53516C10.4531 3.67383 11.1387 2.98828 12 2.98828C12.8525 2.98828 13.5469 3.68262 13.5469 4.53516C13.5469 5.3877 12.8525 6.08203 12 6.08203Z" fill="#1C1C1E"/>
</g>
<defs>
<clipPath id="clip0_10_450">
<rect width="24" height="24" fill="white"/>
</clipPath>
</defs>
</svg>
