<svg width="24" height="24" viewBox="0 0 24 24" fill="none" xmlns="http://www.w3.org/2000/svg">
<g clip-path="url(#clip0_10_454)">
<path d="M11.332 22.3682C11.7363 22.7197 12.29 22.7637 12.6768 22.377L15.3926 19.6611C15.7705 19.2832 15.7529 18.6943 15.3838 18.3164L14.0918 17.0244L16.0078 15.1084C16.377 14.7393 16.377 14.1416 15.999 13.7637L14.25 12.0059C16.6318 10.8193 17.9678 8.8418 17.9678 6.5127C17.9678 3.2168 15.3047 0.553711 12 0.553711C8.68652 0.553711 6.03223 3.20801 6.03223 6.5127C6.03223 8.87695 7.37695 10.9951 9.52148 11.9619V20.2061C9.52148 20.5225 9.61816 20.8828 9.89062 21.1201L11.332 22.3682ZM12 20.8037L11.0508 19.8545V10.8018C9.04688 10.3623 7.61426 8.60449 7.61426 6.5127C7.61426 4.0957 9.56543 2.14453 12 2.14453C14.4346 2.14453 16.377 4.0957 16.377 6.5127C16.377 8.58691 14.9355 10.3711 12.7383 10.8545V12.7617L14.4258 14.4492L12.624 16.2158V17.8066L13.8105 18.9756L12 20.8037ZM12 6.56543C12.8613 6.56543 13.5645 5.8623 13.5645 5.00098C13.5645 4.13965 12.8613 3.43652 12 3.43652C11.1299 3.43652 10.4355 4.13086 10.4355 5.00098C10.4355 5.8623 11.1387 6.56543 12 6.56543Z" fill="#1C1C1E"/>
</g>
<defs>
<clipPath id="clip0_10_454">
<rect width="24" height="24" fill="white"/>
</clipPath>
</defs>
</svg>
