<svg width="24" height="24" viewBox="0 0 24 24" fill="none" xmlns="http://www.w3.org/2000/svg">
<g clip-path="url(#clip0_10_734)">
<path d="M6.76172 2.24121C6.8584 2.24121 6.9375 2.1709 6.96387 2.06543C7.13965 1.08105 7.0957 1.06348 8.17676 0.861328C8.28223 0.834961 8.35254 0.755859 8.35254 0.65918C8.35254 0.553711 8.28223 0.474609 8.17676 0.457031C7.0957 0.246094 7.13086 0.210938 6.96387 -0.74707C6.9375 -0.852539 6.86719 -0.931641 6.76172 -0.931641C6.65625 -0.931641 6.58594 -0.852539 6.55957 -0.74707C6.35742 0.210938 6.41895 0.246094 5.34668 0.457031C5.24121 0.474609 5.1709 0.553711 5.1709 0.65918C5.1709 0.764648 5.24121 0.834961 5.35547 0.861328C6.41895 1.0459 6.35742 1.08105 6.55957 2.05664C6.58594 2.1709 6.65625 2.24121 6.76172 2.24121ZM3.91406 6.32812C4.05469 6.32812 4.17773 6.21387 4.2041 6.07324C4.47656 4.57031 4.38867 4.52637 6.01465 4.27148C6.16406 4.23633 6.26953 4.12207 6.26953 3.97266C6.26953 3.82324 6.16406 3.7002 6.01465 3.67383C4.38867 3.41895 4.47656 3.35742 4.2041 1.88965C4.17773 1.73145 4.06348 1.61719 3.91406 1.61719C3.75586 1.61719 3.65039 1.72266 3.61523 1.88965C3.33398 3.34863 3.43066 3.40137 1.80469 3.67383C1.65527 3.7002 1.5498 3.82324 1.5498 3.97266C1.5498 4.13086 1.65527 4.23633 1.83105 4.27148C3.42188 4.51758 3.33398 4.57031 3.61523 6.04688C3.65039 6.21387 3.74707 6.32812 3.91406 6.32812ZM7.97461 12.7969C8.17676 12.7969 8.33496 12.6475 8.37012 12.4453C8.91504 9.30762 9.21387 8.89453 12.3164 8.48145C12.5361 8.45508 12.6855 8.28809 12.6855 8.07715C12.6855 7.875 12.5361 7.7168 12.3164 7.68164C9.23145 7.26855 8.83594 6.88184 8.37012 3.72656C8.33496 3.51562 8.17676 3.36621 7.97461 3.36621C7.77246 3.36621 7.61426 3.50684 7.57031 3.71777C7.03418 6.86426 6.72656 7.26855 3.62402 7.68164C3.4043 7.7168 3.25488 7.875 3.25488 8.07715C3.25488 8.28809 3.4043 8.45508 3.62402 8.48145C6.70898 8.8418 7.11328 9.28125 7.57031 12.4365C7.60547 12.6475 7.75488 12.7969 7.97461 12.7969ZM9.70605 4.33301C9.86426 5.22949 9.95215 5.59863 10.4004 5.83594C11.543 5.39648 12.791 5.16797 14.0215 5.16797C17.7568 5.16797 20.8242 7.42676 20.8242 10.8633C20.8242 12.4189 19.9893 13.8779 18.7412 14.959C17.9678 13.9746 16.7373 13.3682 15.3047 13.3682C13.125 13.3682 11.5166 14.5107 11.5166 16.1895C11.5166 16.3037 11.5254 16.418 11.543 16.5234C8.13281 16.4004 5.4873 14.7305 5.4873 11.6367C5.4873 11.1973 5.56641 10.7842 5.69824 10.4062C5.45215 9.99316 4.94238 9.8877 4.17773 9.76465C3.97559 10.3447 3.87012 10.9688 3.87012 11.6279C3.87012 15.7324 7.37695 18.1406 11.877 18.1406C12.1934 18.1406 12.5186 18.123 12.835 18.1055C13.2217 18.2637 13.6787 18.3516 14.1885 18.3516C15.5068 18.3516 16.8164 18 18.0029 17.3936C18.0029 17.4551 18.0117 17.5254 18.0117 17.5869C18.0117 18.5889 17.4229 19.582 16.4561 20.2061C16.1484 20.417 15.9463 20.6543 15.9463 21.0146C15.9463 21.4277 16.2715 21.7617 16.7725 21.7617C16.9834 21.7617 17.1416 21.7002 17.335 21.5684C18.7412 20.6543 19.6201 19.125 19.6201 17.5693C19.6201 17.1738 19.5762 16.7959 19.4795 16.4443C21.2373 15.0557 22.4414 13.0518 22.4414 10.8633C22.4414 6.53027 18.6973 3.54199 14.0127 3.54199C12.5361 3.54199 11.0508 3.82324 9.70605 4.33301ZM13.1426 16.1631C13.1426 15.4688 14.1357 14.9941 15.4102 14.9941C16.2451 14.9941 16.9482 15.3281 17.4141 15.8818C16.4209 16.4268 15.2959 16.7432 14.1885 16.7432C13.5908 16.7432 13.1426 16.5059 13.1426 16.1631Z" fill="#1C1C1E"/>
</g>
<defs>
<clipPath id="clip0_10_734">
<rect width="24" height="24" fill="white"/>
</clipPath>
</defs>
</svg>
