<svg width="24" height="24" viewBox="0 0 24 24" fill="none" xmlns="http://www.w3.org/2000/svg">
<g clip-path="url(#clip0_10_739)">
<path d="M2.70996 11.6279C2.70996 15.7324 6.2168 18.1406 10.7256 18.1406C11.042 18.1406 11.3584 18.123 11.6748 18.1055C12.0615 18.2637 12.5186 18.3516 13.0283 18.3516C14.3467 18.3516 15.665 18 16.8428 17.3936C16.8516 17.4551 16.8516 17.5254 16.8516 17.5869C16.8516 18.5889 16.2627 19.582 15.2959 20.2061C14.9883 20.417 14.7861 20.6543 14.7861 21.0146C14.7861 21.4277 15.1201 21.7617 15.6123 21.7617C15.832 21.7617 15.9814 21.7002 16.1748 21.5684C17.5898 20.6543 18.4688 19.125 18.4688 17.5693C18.4688 17.1738 18.416 16.7959 18.3193 16.4443C20.0771 15.0557 21.2812 13.0518 21.2812 10.8633C21.2812 6.53027 17.5459 3.54199 12.8525 3.54199C7.68457 3.54199 2.70996 6.8291 2.70996 11.6279ZM4.32715 11.6367C4.32715 7.82227 8.56348 5.16797 12.8613 5.16797C16.5967 5.16797 19.6641 7.42676 19.6641 10.8633C19.6641 12.4189 18.8291 13.8779 17.5898 14.959C16.8076 13.9746 15.5771 13.3682 14.1445 13.3682C11.9736 13.3682 10.3564 14.5107 10.3564 16.1895C10.3564 16.3037 10.3652 16.418 10.3828 16.5234C6.97266 16.4004 4.32715 14.7305 4.32715 11.6367ZM11.9824 16.1631C11.9824 15.4688 12.9844 14.9941 14.25 14.9941C15.085 14.9941 15.7881 15.3281 16.2539 15.8818C15.2607 16.4268 14.1357 16.7432 13.0283 16.7432C12.4307 16.7432 11.9824 16.5059 11.9824 16.1631Z" fill="#1C1C1E"/>
</g>
<defs>
<clipPath id="clip0_10_739">
<rect width="24" height="24" fill="white"/>
</clipPath>
</defs>
</svg>
