<svg width="24" height="24" viewBox="0 0 24 24" fill="none" xmlns="http://www.w3.org/2000/svg">
<g clip-path="url(#clip0_10_537)">
<path d="M19.5498 5.96777C21.4395 5.96777 22.4062 6.92578 22.4062 8.78906V10.9688H18.6182V10.7754C18.583 10.1602 18.2051 9.80859 17.5635 9.80859H15.4102C14.7686 9.80859 14.3906 10.1602 14.3555 10.7754V10.9688H9.62695V10.7754C9.60059 10.1602 9.21387 9.80859 8.57227 9.80859H6.42773C5.78613 9.80859 5.39941 10.1602 5.37305 10.7754V10.9688H1.58496V8.78906C1.58496 6.92578 2.56055 5.96777 4.44141 5.96777H6.66504V5.03613C6.66504 3.64746 7.56152 2.82129 9.06445 2.82129H14.9268C16.4297 2.82129 17.3262 3.64746 17.3262 5.03613V5.96777H19.5498ZM8.45801 5.12402V5.96777H15.542V5.12402C15.542 4.71094 15.2607 4.44727 14.8125 4.44727H9.17871C8.73047 4.44727 8.45801 4.71094 8.45801 5.12402ZM4.44141 20.2236C2.56055 20.2236 1.58496 19.2744 1.58496 17.4023V12.4893H5.37305V12.6826C5.39941 13.2979 5.78613 13.6494 6.42773 13.6494H8.57227C9.21387 13.6494 9.60059 13.2979 9.62695 12.6826V12.4893H14.3555V12.6826C14.3906 13.2979 14.7686 13.6494 15.4102 13.6494H17.5635C18.2051 13.6494 18.583 13.2979 18.6182 12.6826V12.4893H22.4062V17.4023C22.4062 19.2744 21.4395 20.2236 19.5498 20.2236H4.44141Z" fill="#1C1C1E"/>
</g>
<defs>
<clipPath id="clip0_10_537">
<rect width="24" height="24" fill="white"/>
</clipPath>
</defs>
</svg>
