<svg width="24" height="24" viewBox="0 0 24 24" fill="none" xmlns="http://www.w3.org/2000/svg">
<g clip-path="url(#clip0_10_542)">
<path d="M4.44141 20.2236H19.5498C21.4395 20.2236 22.4062 19.2744 22.4062 17.4023V8.78906C22.4062 6.92578 21.4395 5.96777 19.5498 5.96777H17.3262V5.27344C17.3262 3.6123 16.4297 2.82129 14.7686 2.82129H9.21387C7.63184 2.82129 6.66504 3.6123 6.66504 5.27344V5.96777H4.44141C2.56055 5.96777 1.58496 6.92578 1.58496 8.78906V17.4023C1.58496 19.2744 2.56055 20.2236 4.44141 20.2236ZM8.27344 5.20312C8.27344 4.61426 8.625 4.28027 9.24023 4.28027H14.751C15.3662 4.28027 15.709 4.61426 15.709 5.20312V5.96777H8.27344V5.20312ZM18.46 10.8721C18.46 10.1953 18.0732 9.80859 17.3965 9.80859H15.2432C14.5664 9.80859 14.1797 10.1953 14.1797 10.8721V10.9688H9.81152V10.8721C9.81152 10.1953 9.41602 9.80859 8.73926 9.80859H6.59473C5.91797 9.80859 5.52246 10.1953 5.52246 10.8721V10.9688H3.33398V8.8418C3.33398 8.05078 3.74707 7.65527 4.51172 7.65527H19.4795C20.2441 7.65527 20.6572 8.05078 20.6572 8.8418V10.9688H18.46V10.8721ZM4.51172 18.5361C3.74707 18.5361 3.33398 18.1494 3.33398 17.3496V12.4893H5.52246V12.5859C5.52246 13.2627 5.91797 13.6494 6.59473 13.6494H8.73926C9.41602 13.6494 9.81152 13.2627 9.81152 12.5859V12.4893H14.1797V12.5859C14.1797 13.2627 14.5664 13.6494 15.2432 13.6494H17.3965C18.0732 13.6494 18.46 13.2627 18.46 12.5859V12.4893H20.6572V17.3496C20.6572 18.1494 20.2441 18.5361 19.4795 18.5361H4.51172Z" fill="#1C1C1E"/>
</g>
<defs>
<clipPath id="clip0_10_542">
<rect width="24" height="24" fill="white"/>
</clipPath>
</defs>
</svg>
