<svg width="24" height="24" viewBox="0 0 24 24" fill="none" xmlns="http://www.w3.org/2000/svg">
<g clip-path="url(#clip0_10_613)">
<path d="M3.55371 16.6025H20.4463C22.0723 16.6025 22.9424 15.7324 22.9424 14.1328V9.19336C22.9424 7.58496 22.0635 6.71484 20.4375 6.71484H3.54492C1.92773 6.71484 1.05762 7.58496 1.05762 9.19336V14.1328C1.05762 15.7324 1.92773 16.6025 3.55371 16.6025ZM3.78223 14.9326C3.11426 14.9326 2.72754 14.5547 2.72754 13.8516V9.46582C2.72754 8.7627 3.11426 8.38477 3.78223 8.38477H4.7666V14.9326H3.78223ZM12.0088 12.1113C14.5049 12.1113 16.3945 10.6436 16.79 8.38477H18.3018V14.9326H5.69824V8.38477H7.20996C7.60547 10.6436 9.49512 12.1113 12.0088 12.1113ZM12.0088 9.99316C13.0986 9.99316 13.9336 9.36914 14.1445 8.38477H15.7617C15.4189 10.1162 13.9424 11.2324 12.0088 11.2324C10.0576 11.2324 8.58105 10.125 8.23828 8.38477H9.85547C10.0664 9.36914 10.9014 9.99316 12.0088 9.99316ZM20.2178 8.38477C20.8857 8.38477 21.2725 8.7627 21.2725 9.46582V13.8516C21.2725 14.5547 20.877 14.9326 20.209 14.9326H19.2334V8.38477H20.2178Z" fill="#1C1C1E"/>
</g>
<defs>
<clipPath id="clip0_10_613">
<rect width="24" height="24" fill="white"/>
</clipPath>
</defs>
</svg>
