<svg width="24" height="24" viewBox="0 0 24 24" fill="none" xmlns="http://www.w3.org/2000/svg">
<g clip-path="url(#clip0_10_623)">
<path d="M3.5625 16.6025H4.73145V6.71484H3.54492C1.93652 6.71484 1.05762 7.58496 1.05762 9.19336L1.06641 14.1328C1.06641 15.7412 1.93652 16.6025 3.5625 16.6025ZM5.6543 16.6025H18.3545V6.71484H16.9482C16.7637 9.31641 14.7422 11.0391 12.0088 11.0391C9.27539 11.0391 7.25391 9.31641 7.06055 6.71484H5.6543V16.6025ZM19.2773 16.6025H20.4463C22.0635 16.6025 22.9248 15.7412 22.9336 14.1328L22.9424 9.19336C22.9512 7.58496 22.0723 6.71484 20.4463 6.71484H19.2773V16.6025ZM12.0088 10.1338C14.1709 10.1338 15.7705 8.78027 15.9023 6.71484H14.4961C14.3994 8.04199 13.3887 8.9209 12.0088 8.9209C10.6201 8.9209 9.60938 8.04199 9.5127 6.71484H8.10645C8.24707 8.78027 9.83789 10.1338 12.0088 10.1338Z" fill="#1C1C1E"/>
</g>
<defs>
<clipPath id="clip0_10_623">
<rect width="24" height="24" fill="white"/>
</clipPath>
</defs>
</svg>
