<svg width="24" height="24" viewBox="0 0 24 24" fill="none" xmlns="http://www.w3.org/2000/svg">
<g clip-path="url(#clip0_10_312)">
<path d="M11.9912 20.7422C16.9746 20.7422 21.0879 16.6289 21.0879 11.6543C21.0879 6.67969 16.9658 2.56641 11.9824 2.56641C7.00781 2.56641 2.90332 6.67969 2.90332 11.6543C2.90332 16.6289 7.0166 20.7422 11.9912 20.7422ZM11.9912 7.03125C11.209 7.03125 10.4707 7.22461 9.8291 7.57617L7.89551 5.63379C9.05566 4.84277 10.4619 4.38574 11.9824 4.38574C13.5205 4.38574 14.9443 4.85156 16.1133 5.65137L14.1885 7.58496C13.5293 7.2334 12.7822 7.03125 11.9912 7.03125ZM4.73145 11.6543C4.73145 10.1426 5.17969 8.73633 5.96191 7.57617L7.9043 9.50977C7.56152 10.1514 7.37695 10.8809 7.37695 11.6543C7.37695 12.4453 7.57031 13.1924 7.93066 13.8428L5.99707 15.7764C5.19727 14.6074 4.73145 13.1924 4.73145 11.6543ZM16.623 11.6543C16.623 10.8896 16.4297 10.1602 16.0957 9.52734L18.0293 7.59375C18.8115 8.75391 19.2686 10.1514 19.2686 11.6543C19.2686 13.1836 18.8027 14.5986 18.0117 15.7676L16.0693 13.8252C16.4209 13.1836 16.623 12.4365 16.623 11.6543ZM12 14.6865C10.3213 14.6865 8.96777 13.333 8.96777 11.6543C8.96777 9.97559 10.3213 8.62207 12 8.62207C13.6787 8.62207 15.0322 9.97559 15.0322 11.6543C15.0322 13.333 13.6787 14.6865 12 14.6865ZM11.9912 18.9316C10.4883 18.9316 9.09082 18.4746 7.93066 17.7012L9.87305 15.7588C10.5146 16.084 11.2354 16.2773 12 16.2773C12.7646 16.2773 13.4941 16.084 14.1357 15.75L16.0781 17.6836C14.9092 18.4746 13.5117 18.9316 11.9912 18.9316Z" fill="#1C1C1E"/>
</g>
<defs>
<clipPath id="clip0_10_312">
<rect width="24" height="24" fill="white"/>
</clipPath>
</defs>
</svg>
