<svg width="24" height="24" viewBox="0 0 24 24" fill="none" xmlns="http://www.w3.org/2000/svg">
<g clip-path="url(#clip0_10_707)">
<path d="M11.9912 20.7598C16.9746 20.7598 21.0879 16.6465 21.0879 11.6631C21.0879 6.68848 16.9658 2.5752 11.9824 2.5752C7.00781 2.5752 2.90332 6.68848 2.90332 11.6631C2.90332 16.6465 7.0166 20.7598 11.9912 20.7598ZM5.90918 7.35645C6.375 6.65332 6.97266 6.04688 7.67578 5.56348L9.44238 7.33008C8.71289 7.76074 8.08887 8.38477 7.66699 9.11426L5.90918 7.35645ZM18.082 7.36523L16.3242 9.12305C15.8936 8.39355 15.2695 7.76953 14.54 7.33887L16.3066 5.57227C17.0098 6.05566 17.6074 6.66211 18.082 7.36523ZM12 14.8096C10.251 14.8096 8.84473 13.4033 8.84473 11.6543C8.84473 9.90527 10.251 8.49023 12 8.49023C13.749 8.49023 15.1553 9.90527 15.1553 11.6543C15.1553 13.4033 13.749 14.8096 12 14.8096ZM18.0908 15.9258C17.6074 16.6289 17.0098 17.2354 16.3154 17.7188L14.5488 15.9521C15.2783 15.5215 15.9023 14.8975 16.3242 14.168L18.0908 15.9258ZM5.90918 15.9346L7.66699 14.1768C8.08887 14.915 8.72168 15.5303 9.44238 15.9609L7.68457 17.7275C6.98145 17.2529 6.38379 16.6377 5.90918 15.9346Z" fill="#1C1C1E"/>
</g>
<defs>
<clipPath id="clip0_10_707">
<rect width="24" height="24" fill="white"/>
</clipPath>
</defs>
</svg>
