<svg width="24" height="24" viewBox="0 0 24 24" fill="none" xmlns="http://www.w3.org/2000/svg">
<g clip-path="url(#clip0_10_688)">
<path d="M12 0.870117C9.77637 0.870117 7.94824 1.65234 6.72656 3.03223L16.7109 13.0254C17.6074 11.7246 18.9609 10.2744 18.9609 7.74316C18.9609 3.62988 16.166 0.870117 12 0.870117ZM18.2227 18.0879C18.5039 18.3691 18.9346 18.3604 19.207 18.0879C19.4795 17.8154 19.4795 17.3672 19.207 17.0947L4.29199 2.1709C4.01074 1.88965 3.5625 1.90723 3.29883 2.1709C3.02637 2.43457 3.03516 2.90918 3.29883 3.16406L18.2227 18.0879ZM8.75684 17.0332H14.5664C14.7334 17.0332 14.8564 16.9453 14.8916 16.7959V16.3125L5.1709 6.60059C5.0918 6.95215 5.04785 7.33887 5.04785 7.74316C5.04785 11.6279 8.15918 12.9639 8.15918 15.0908V16.4355C8.15918 16.7871 8.39648 17.0332 8.75684 17.0332ZM9.00293 19.4766H14.9971C15.4717 19.4766 15.8584 19.0898 15.8584 18.6064C15.8584 18.1318 15.4717 17.7363 14.9971 17.7363H9.00293C8.52832 17.7363 8.1416 18.1318 8.1416 18.6064C8.1416 19.0898 8.52832 19.4766 9.00293 19.4766ZM12 21.6914C13.292 21.6914 14.2061 21.0938 14.3027 20.1885H9.70605C9.78516 21.0938 10.6992 21.6914 12 21.6914Z" fill="#1C1C1E"/>
</g>
<defs>
<clipPath id="clip0_10_688">
<rect width="24" height="24" fill="white"/>
</clipPath>
</defs>
</svg>
