<svg width="24" height="24" viewBox="0 0 24 24" fill="none" xmlns="http://www.w3.org/2000/svg">
<g clip-path="url(#clip0_10_702)">
<path d="M12 2.43457C15.2432 2.43457 17.4053 4.54395 17.4053 7.74316C17.4053 9.5625 16.4648 10.793 15.6387 11.9619L16.7197 13.0342C17.6162 11.7422 18.9609 10.2832 18.9609 7.74316C18.9609 3.62988 16.166 0.878906 12 0.878906C9.76758 0.878906 7.93945 1.66992 6.71777 3.04102L7.85156 4.16602C8.7832 3.06738 10.2246 2.43457 12 2.43457ZM18.2227 18.0879C18.5039 18.3691 18.9346 18.3604 19.207 18.0879C19.4795 17.8154 19.4795 17.3672 19.207 17.0947L4.29199 2.1709C4.01074 1.88965 3.5625 1.90723 3.29883 2.1709C3.02637 2.43457 3.03516 2.90918 3.29883 3.16406L18.2227 18.0879ZM8.75684 17.0332H14.8477C14.9619 17.0332 15.0059 16.9189 14.9355 16.8223V16.5322L13.5732 15.1787V15.5039H9.69727V15.0469C9.69727 12.6562 6.74414 10.7402 6.74414 8.6748C6.74414 8.5166 6.77051 8.37598 6.80566 8.23535L5.1709 6.61816C5.0918 6.96973 5.04785 7.34766 5.04785 7.74316C5.04785 11.6279 8.15918 12.9639 8.15918 15.0908V16.4443C8.15918 16.7959 8.39648 17.0332 8.75684 17.0332ZM9.00293 19.4766H14.9971C15.4717 19.4766 15.8584 19.0898 15.8584 18.6064C15.8584 18.1318 15.4717 17.7363 14.9971 17.7363H9.00293C8.52832 17.7363 8.1416 18.1318 8.1416 18.6064C8.1416 19.0898 8.52832 19.4766 9.00293 19.4766ZM12 21.6914C13.292 21.6914 14.2061 21.0938 14.3027 20.1885H9.70605C9.78516 21.0938 10.6992 21.6914 12 21.6914Z" fill="#1C1C1E"/>
</g>
<defs>
<clipPath id="clip0_10_702">
<rect width="24" height="24" fill="white"/>
</clipPath>
</defs>
</svg>
