<svg width="24" height="24" viewBox="0 0 24 24" fill="none" xmlns="http://www.w3.org/2000/svg">
<g clip-path="url(#clip0_10_694)">
<path d="M8.74805 17.0332H15.252C15.6035 17.0332 15.8408 16.7959 15.8408 16.4443V15.0996C15.8408 12.9727 18.9609 11.6367 18.9609 7.75195C18.9609 3.63867 16.1572 0.878906 12 0.878906C7.83398 0.878906 5.03906 3.63867 5.03906 7.75195C5.03906 11.6367 8.15918 12.9727 8.15918 15.0996V16.4443C8.15918 16.7959 8.39648 17.0332 8.74805 17.0332ZM9.68848 15.0732C9.68848 12.4014 6.59473 11.0654 6.59473 7.75195C6.59473 4.55273 8.75684 2.43457 12 2.43457C15.2432 2.43457 17.4053 4.55273 17.4053 7.75195C17.4053 11.0654 14.3027 12.4014 14.3027 15.0732V15.5039H9.68848V15.0732ZM9.00293 19.4766H14.9971C15.4717 19.4766 15.8584 19.0898 15.8584 18.6064C15.8584 18.1318 15.4717 17.7363 14.9971 17.7363H9.00293C8.52832 17.7363 8.1416 18.1318 8.1416 18.6064C8.1416 19.0898 8.52832 19.4766 9.00293 19.4766ZM12 21.6914C13.2832 21.6914 14.2061 21.0938 14.2939 20.1885H9.69727C9.78516 21.0938 10.6992 21.6914 12 21.6914Z" fill="#1C1C1E"/>
</g>
<defs>
<clipPath id="clip0_10_694">
<rect width="24" height="24" fill="white"/>
</clipPath>
</defs>
</svg>
