<svg width="24" height="24" viewBox="0 0 24 24" fill="none" xmlns="http://www.w3.org/2000/svg">
<g clip-path="url(#clip0_10_417)">
<path d="M11.5869 15.3018L12.9316 13.9395C11.8945 13.8516 11.1475 13.5088 10.6113 12.9727C9.12598 11.4873 9.12598 9.38672 10.6025 7.91895L13.5205 4.99219C15.0059 3.51562 17.0977 3.50684 18.583 4.99219C20.0771 6.48633 20.0596 8.57812 18.5918 10.0547L17.0977 11.54C17.3789 12.1904 17.4756 12.9814 17.3174 13.667L19.8311 11.1621C21.9932 9.00879 22.002 5.93262 19.8223 3.75293C17.6338 1.56445 14.5752 1.58203 12.4131 3.74414L9.35449 6.80273C7.19238 8.96484 7.18359 12.0322 9.36328 14.2119C9.87305 14.7305 10.5762 15.1172 11.5869 15.3018ZM12.4043 7.875L11.0596 9.2373C12.0967 9.33398 12.8438 9.66797 13.3799 10.2041C14.874 11.6895 14.8652 13.79 13.3887 15.2666L10.4707 18.1846C8.98535 19.6699 6.89355 19.6699 5.41699 18.1846C3.92285 16.6904 3.93164 14.6074 5.4082 13.1309L6.89355 11.6367C6.6123 10.9951 6.52441 10.2041 6.67383 9.50977L4.16016 12.0234C1.99805 14.1768 1.98926 17.2441 4.16895 19.4238C6.35742 21.6123 9.41602 21.5947 11.5781 19.4414L14.6367 16.374C16.7988 14.2119 16.8076 11.1445 14.6279 8.96484C14.1182 8.45508 13.4238 8.06836 12.4043 7.875Z" fill="#1C1C1E"/>
</g>
<defs>
<clipPath id="clip0_10_417">
<rect width="24" height="24" fill="white"/>
</clipPath>
</defs>
</svg>
