<svg width="24" height="24" viewBox="0 0 24 24" fill="none" xmlns="http://www.w3.org/2000/svg">
<g clip-path="url(#clip0_10_431)">
<path d="M11.9912 20.7422C16.9746 20.7422 21.0879 16.6289 21.0879 11.6543C21.0879 6.67969 16.9658 2.56641 11.9824 2.56641C7.00781 2.56641 2.90332 6.67969 2.90332 11.6543C2.90332 16.6289 7.0166 20.7422 11.9912 20.7422ZM11.9912 18.9316C7.95703 18.9316 4.73145 15.6885 4.73145 11.6543C4.73145 7.62012 7.95703 4.38574 11.9824 4.38574C16.0166 4.38574 19.2598 7.62012 19.2686 11.6543C19.2773 15.6885 16.0254 18.9316 11.9912 18.9316ZM15.9111 7.55859C14.8037 6.45996 13.4238 6.55664 12.1406 7.83105L10.9102 9.05273C9.60938 10.3447 9.50391 11.7422 10.6289 12.8496C10.9102 13.1396 11.2441 13.3506 11.4902 13.4121C11.7451 13.2275 12.0527 12.876 12.1758 12.5771C11.8242 12.5156 11.5166 12.3574 11.3057 12.1641C10.6377 11.4873 10.7432 10.5908 11.6221 9.72949L12.8086 8.54297C13.6611 7.69922 14.54 7.59375 15.2168 8.25293C15.8936 8.92969 15.8145 9.82617 14.9355 10.6699L14.127 11.4785C14.2764 11.7949 14.3027 12.3574 14.1621 12.8057L15.6475 11.3379C16.9219 10.0547 17.0186 8.66602 15.9111 7.55859ZM7.75488 15.7412C8.8623 16.8398 10.2422 16.7432 11.5254 15.4688L12.7559 14.2471C14.0566 12.9551 14.1621 11.5576 13.0459 10.459C12.7559 10.1602 12.4219 9.94922 12.1758 9.8877C11.9209 10.0811 11.6133 10.4238 11.4902 10.7227C11.8418 10.7842 12.1582 10.9424 12.3604 11.1357C13.0283 11.8125 12.9229 12.709 12.0439 13.5703L10.8574 14.7568C10.0049 15.6094 9.12598 15.7061 8.44922 15.0469C7.77246 14.3789 7.86035 13.4824 8.73047 12.6299L9.53906 11.8301C9.38965 11.5049 9.36328 10.9424 9.5127 10.4941L8.01855 11.9707C6.74414 13.2451 6.64746 14.6338 7.75488 15.7412Z" fill="#1C1C1E"/>
</g>
<defs>
<clipPath id="clip0_10_431">
<rect width="24" height="24" fill="white"/>
</clipPath>
</defs>
</svg>
