<svg width="24" height="24" viewBox="0 0 24 24" fill="none" xmlns="http://www.w3.org/2000/svg">
<g clip-path="url(#clip0_10_442)">
<path d="M11.9912 20.7598C16.9746 20.7598 21.0879 16.6465 21.0879 11.6631C21.0879 6.68848 16.9658 2.5752 11.9824 2.5752C7.00781 2.5752 2.90332 6.68848 2.90332 11.6631C2.90332 16.6465 7.0166 20.7598 11.9912 20.7598ZM16.0693 7.40039C17.2295 8.55176 17.124 9.99316 15.7969 11.3291L14.2588 12.8584C14.3994 12.3926 14.373 11.8037 14.2148 11.4697L15.0586 10.6436C15.9551 9.75586 16.0518 8.82422 15.3486 8.12988C14.6455 7.43555 13.7314 7.5498 12.835 8.42871L11.6221 9.65039C10.708 10.5469 10.5938 11.4785 11.2881 12.1816C11.499 12.3838 11.8242 12.5508 12.1846 12.6123C12.0615 12.9199 11.7363 13.2891 11.4639 13.4912C11.2178 13.4209 10.8662 13.2012 10.5762 12.8936C9.40723 11.751 9.5127 10.292 10.875 8.94727L12.1494 7.69043C13.4854 6.35449 14.918 6.25781 16.0693 7.40039ZM7.59668 15.9082C6.43652 14.7568 6.5332 13.3154 7.86914 11.9795L9.40723 10.459C9.2666 10.9248 9.29297 11.5137 9.44238 11.8477L8.60742 12.6738C7.71094 13.5527 7.61426 14.4844 8.31738 15.1787C9.02051 15.873 9.93457 15.7588 10.8311 14.8799L12.0439 13.6582C12.958 12.7617 13.0723 11.8301 12.3779 11.127C12.1582 10.9248 11.8418 10.7578 11.4727 10.6963C11.5957 10.3887 11.9297 10.0195 12.1934 9.82617C12.4482 9.8877 12.7998 10.1074 13.0898 10.415C14.2588 11.5664 14.1445 13.0166 12.791 14.3613L11.5166 15.627C10.1807 16.9541 8.73926 17.0596 7.59668 15.9082Z" fill="#1C1C1E"/>
</g>
<defs>
<clipPath id="clip0_10_442">
<rect width="24" height="24" fill="white"/>
</clipPath>
</defs>
</svg>
