<svg width="24" height="24" viewBox="0 0 24 24" fill="none" xmlns="http://www.w3.org/2000/svg">
<g clip-path="url(#clip0_10_462)">
<path d="M11.9561 20.5928C12.1143 20.5928 12.3428 20.5312 12.5713 20.417C17.6074 17.8242 19.2773 16.4619 19.2773 13.3066V6.77637C19.2773 5.73926 18.873 5.36133 18.0029 5.00098C17.0361 4.59668 13.8193 3.46289 12.8789 3.14648C12.5889 3.05859 12.2637 2.99707 11.9561 2.99707C11.6572 2.99707 11.332 3.05859 11.042 3.14648C10.0928 3.44531 6.87598 4.60547 5.91797 5.00098C5.04785 5.35254 4.64355 5.73926 4.64355 6.77637V13.3066C4.64355 16.4619 6.38379 17.7012 11.3496 20.417C11.5781 20.54 11.8066 20.5928 11.9561 20.5928ZM8.68652 14.8447V11.2939C8.68652 10.6699 8.94141 10.3447 9.45117 10.292V9.27246C9.45117 7.59375 10.4707 6.45996 11.9561 6.45996C13.4502 6.45996 14.4697 7.59375 14.4697 9.27246V10.292C14.9795 10.3447 15.2344 10.6699 15.2344 11.2939V14.8447C15.2344 15.5479 14.918 15.8643 14.2764 15.8643H9.64453C9.00293 15.8643 8.68652 15.5479 8.68652 14.8447ZM10.541 10.2744H13.3799V9.17578C13.3799 8.17383 12.8086 7.51465 11.9561 7.51465C11.1035 7.51465 10.541 8.18262 10.541 9.17578V10.2744Z" fill="#1C1C1E"/>
</g>
<defs>
<clipPath id="clip0_10_462">
<rect width="24" height="24" fill="white"/>
</clipPath>
</defs>
</svg>
