<svg width="24" height="24" viewBox="0 0 24 24" fill="none" xmlns="http://www.w3.org/2000/svg">
<g clip-path="url(#clip0_10_467)">
<path d="M6.67383 19.8809H17.3174C19.2246 19.8809 20.209 18.8965 20.209 17.0156V6.31934C20.209 4.43848 19.2246 3.4541 17.3174 3.4541H6.67383C4.77539 3.4541 3.78223 4.42969 3.78223 6.31934V17.0156C3.78223 18.8965 4.77539 19.8809 6.67383 19.8809ZM6.78809 18.1318C5.97949 18.1318 5.53125 17.71 5.53125 16.8574V6.47754C5.53125 5.625 5.97949 5.20312 6.78809 5.20312H17.2031C18.0029 5.20312 18.46 5.625 18.46 6.47754V16.8574C18.46 17.71 18.0029 18.1318 17.2031 18.1318H6.78809ZM8.85352 14.959C8.85352 15.6357 9.15234 15.9434 9.77637 15.9434H14.2324C14.8477 15.9434 15.1465 15.6357 15.1465 14.959V11.54C15.1465 10.9424 14.9092 10.6348 14.4082 10.582V9.58887C14.4082 7.97168 13.4414 6.89062 12 6.89062C10.5674 6.89062 9.5918 7.97168 9.5918 9.58887V10.582C9.09961 10.6348 8.85352 10.9424 8.85352 11.54V14.959ZM10.6289 10.5645V9.50098C10.6289 8.53418 11.1738 7.90137 12 7.90137C12.8262 7.90137 13.3711 8.53418 13.3711 9.50098V10.5645H10.6289Z" fill="#1C1C1E"/>
</g>
<defs>
<clipPath id="clip0_10_467">
<rect width="24" height="24" fill="white"/>
</clipPath>
</defs>
</svg>
