<svg width="24" height="24" viewBox="0 0 24 24" fill="none" xmlns="http://www.w3.org/2000/svg">
<g clip-path="url(#clip0_10_491)">
<path d="M4.47656 19.8809H19.5146C21.4219 19.8809 22.415 18.8965 22.415 17.0156V6.31934C22.415 4.43848 21.4219 3.4541 19.5146 3.4541H4.47656C2.57812 3.4541 1.58496 4.42969 1.58496 6.31934V17.0156C1.58496 18.8965 2.57812 19.8809 4.47656 19.8809ZM8.73047 15.1084V11.5576C8.73047 10.9336 8.98535 10.6084 9.49512 10.5557V9.53613C9.49512 7.85742 10.5059 6.72363 12 6.72363C13.4941 6.72363 14.5137 7.85742 14.5137 9.53613V10.5645C15.0234 10.6084 15.2695 10.9336 15.2695 11.5576V15.1084C15.2695 15.8115 14.9619 16.1279 14.3203 16.1279H9.68848C9.03809 16.1279 8.73047 15.8115 8.73047 15.1084ZM10.585 10.5381H13.4238V9.43945C13.4238 8.44629 12.8525 7.77832 12 7.77832C11.1475 7.77832 10.585 8.44629 10.585 9.43945V10.5381Z" fill="#1C1C1E"/>
</g>
<defs>
<clipPath id="clip0_10_491">
<rect width="24" height="24" fill="white"/>
</clipPath>
</defs>
</svg>
