<svg width="24" height="24" viewBox="0 0 24 24" fill="none" xmlns="http://www.w3.org/2000/svg">
<g clip-path="url(#clip0_10_538)">
<path d="M7.86914 20.2324H16.1309C17.4932 20.2324 18.1611 19.5557 18.1611 18.0791V11.8301C18.1611 10.5205 17.6338 9.84375 16.5615 9.70312V7.65527C16.5615 4.31543 14.3379 2.70703 12 2.70703C9.66211 2.70703 7.43848 4.31543 7.43848 7.65527V9.70312C6.36621 9.84375 5.83887 10.5205 5.83887 11.8301V18.0791C5.83887 19.5557 6.50684 20.2324 7.86914 20.2324ZM9.12598 7.49707C9.12598 5.44922 10.4268 4.32422 12 4.32422C13.5645 4.32422 14.874 5.44922 14.874 7.49707V9.67676H9.12598V7.49707ZM8.15039 18.6416C7.76367 18.6416 7.57031 18.457 7.57031 18V11.9092C7.57031 11.4434 7.76367 11.2764 8.15039 11.2764H15.8584C16.2451 11.2764 16.4297 11.4434 16.4297 11.9092V18C16.4297 18.457 16.2451 18.6416 15.8584 18.6416H8.15039Z" fill="#1C1C1E"/>
</g>
<defs>
<clipPath id="clip0_10_538">
<rect width="24" height="24" fill="white"/>
</clipPath>
</defs>
</svg>
