<svg width="24" height="24" viewBox="0 0 24 24" fill="none" xmlns="http://www.w3.org/2000/svg">
<g clip-path="url(#clip0_10_477)">
<path d="M3.29004 16.9189H4.9248V18.2461C4.9248 20.127 5.91797 21.1113 7.8252 21.1113H20.7012C22.5996 21.1113 23.6016 20.127 23.6016 18.2461V9.27246C23.6016 7.3916 22.5996 6.40723 20.7012 6.40723H19.0664V5.08887C19.0664 3.20801 18.0732 2.22363 16.1748 2.22363H3.29004C1.38281 2.22363 0.398438 3.20801 0.398438 5.08887V14.0537C0.398438 15.9434 1.38281 16.9189 3.29004 16.9189ZM3.4043 15.1699C2.5957 15.1699 2.14746 14.748 2.14746 13.8955V5.24707C2.14746 4.39453 2.5957 3.98145 3.4043 3.98145H16.0605C16.8604 3.98145 17.3174 4.39453 17.3174 5.24707V6.40723H7.8252C5.91797 6.40723 4.9248 7.3916 4.9248 9.27246V15.1699H3.4043ZM7.93945 19.3535C7.12207 19.3535 6.68262 18.9316 6.68262 18.0879V9.43066C6.68262 8.58691 7.12207 8.16504 7.93945 8.16504H20.5869C21.3955 8.16504 21.8438 8.58691 21.8438 9.43066V18.0879C21.8438 18.9316 21.3955 19.3535 20.5869 19.3535H7.93945ZM11.1211 17.0684C11.1211 17.7363 11.4199 18.0527 12.0439 18.0527H16.5C17.1152 18.0527 17.4141 17.7363 17.4141 17.0684V13.6494C17.4141 13.043 17.1768 12.7354 16.6758 12.6914V11.6982C16.6758 10.0811 15.709 9 14.2676 9C12.835 9 11.8594 10.0811 11.8594 11.6982V12.6826C11.3672 12.7354 11.1211 13.043 11.1211 13.6494V17.0684ZM12.8965 12.665V11.6104C12.8965 10.6436 13.4414 10.0107 14.2676 10.0107C15.0938 10.0107 15.6387 10.6436 15.6387 11.6104V12.665H12.8965Z" fill="#1C1C1E"/>
</g>
<defs>
<clipPath id="clip0_10_477">
<rect width="24" height="24" fill="white"/>
</clipPath>
</defs>
</svg>
