<svg width="24" height="24" viewBox="0 0 24 24" fill="none" xmlns="http://www.w3.org/2000/svg">
<g clip-path="url(#clip0_10_487)">
<path d="M6.22559 2.72461H17.7744C17.7129 1.93359 17.2471 1.51172 16.3945 1.51172H7.60547C6.75293 1.51172 6.28711 1.93359 6.22559 2.72461ZM4.50293 5.28223H19.5059C19.3828 4.44727 18.9521 3.96387 18.0117 3.96387H5.98828C5.04785 3.96387 4.62598 4.44727 4.50293 5.28223ZM5.36426 21.832H18.6182C20.5166 21.832 21.5186 20.8477 21.5186 18.9668V9.59766C21.5186 7.7168 20.5166 6.73242 18.6182 6.73242H5.36426C3.45703 6.73242 2.47266 7.70801 2.47266 9.59766V18.9668C2.47266 20.8477 3.45703 21.832 5.36426 21.832ZM5.47852 20.0742C4.66992 20.0742 4.22168 19.6611 4.22168 18.8086V9.75586C4.22168 8.90332 4.66992 8.48145 5.47852 8.48145H18.5039C19.3125 8.48145 19.7607 8.90332 19.7607 9.75586V18.8086C19.7607 19.6611 19.3125 20.0742 18.5039 20.0742H5.47852ZM8.85352 17.5869C8.85352 18.2549 9.15234 18.5713 9.76758 18.5713H14.2324C14.8477 18.5713 15.1465 18.2549 15.1465 17.5869V14.168C15.1465 13.5703 14.9004 13.2627 14.4082 13.21V12.2168C14.4082 10.5996 13.4326 9.51855 12 9.51855C10.5674 9.51855 9.5918 10.5996 9.5918 12.2168V13.21C9.09961 13.2627 8.85352 13.5703 8.85352 14.168V17.5869ZM10.6289 13.1924V12.1289C10.6289 11.1621 11.1738 10.5293 12 10.5293C12.8262 10.5293 13.3711 11.1621 13.3711 12.1289V13.1924H10.6289Z" fill="#1C1C1E"/>
</g>
<defs>
<clipPath id="clip0_10_487">
<rect width="24" height="24" fill="white"/>
</clipPath>
</defs>
</svg>
