<svg width="24" height="24" viewBox="0 0 24 24" fill="none" xmlns="http://www.w3.org/2000/svg">
<g clip-path="url(#clip0_10_601)">
<path d="M11.9912 20.7598C16.9746 20.7598 21.0879 16.6465 21.0879 11.6631C21.0879 6.68848 16.9658 2.5752 11.9824 2.5752C7.00781 2.5752 2.90332 6.68848 2.90332 11.6631C2.90332 16.6465 7.0166 20.7598 11.9912 20.7598ZM8.71289 15.1084V11.5576C8.71289 10.9336 8.96777 10.6084 9.47754 10.5557V9.53613C9.47754 7.84863 10.4971 6.72363 11.9824 6.72363C13.4854 6.72363 14.4961 7.84863 14.4961 9.53613V10.5557C15.0059 10.6084 15.2607 10.9336 15.2607 11.5576V15.1084C15.2607 15.8115 14.9443 16.1279 14.3027 16.1279H9.6709C9.0293 16.1279 8.71289 15.8115 8.71289 15.1084ZM10.5674 10.5381H13.4062V9.43945C13.4062 8.4375 12.835 7.77832 11.9824 7.77832C11.1299 7.77832 10.5674 8.44629 10.5674 9.43945V10.5381Z" fill="#1C1C1E"/>
</g>
<defs>
<clipPath id="clip0_10_601">
<rect width="24" height="24" fill="white"/>
</clipPath>
</defs>
</svg>
