<svg width="24" height="24" viewBox="0 0 24 24" fill="none" xmlns="http://www.w3.org/2000/svg">
<g clip-path="url(#clip0_10_495)">
<path d="M4.47656 19.8809H19.5146C21.4219 19.8809 22.415 18.8965 22.415 17.0156V6.31934C22.415 4.43848 21.4219 3.4541 19.5146 3.4541H4.47656C2.57812 3.4541 1.58496 4.42969 1.58496 6.31934V17.0156C1.58496 18.8965 2.57812 19.8809 4.47656 19.8809ZM4.59082 18.1318C3.78223 18.1318 3.33398 17.71 3.33398 16.8574V6.47754C3.33398 5.625 3.78223 5.20312 4.59082 5.20312H19.4004C20.209 5.20312 20.6572 5.625 20.6572 6.47754V16.8574C20.6572 17.71 20.209 18.1318 19.4004 18.1318H4.59082ZM8.85352 14.9678C8.85352 15.6357 9.15234 15.9434 9.77637 15.9434H14.2324C14.8564 15.9434 15.1553 15.6357 15.1553 14.9678V11.54C15.1553 10.9424 14.9092 10.6348 14.417 10.582V9.58887C14.417 7.98047 13.4414 6.89062 12 6.89062C10.5674 6.89062 9.5918 7.98047 9.5918 9.58887V10.582C9.09961 10.6348 8.85352 10.9424 8.85352 11.54V14.9678ZM10.6289 10.5645V9.50977C10.6289 8.54297 11.1826 7.90137 12 7.90137C12.835 7.90137 13.3799 8.53418 13.3799 9.50977V10.5645H10.6289Z" fill="#1C1C1E"/>
</g>
<defs>
<clipPath id="clip0_10_495">
<rect width="24" height="24" fill="white"/>
</clipPath>
</defs>
</svg>
