<svg width="24" height="24" viewBox="0 0 24 24" fill="none" xmlns="http://www.w3.org/2000/svg">
<g clip-path="url(#clip0_10_478)">
<path d="M11.9912 2.70703C10.1895 2.70703 8.49316 3.69141 7.81641 5.61621L9.16113 6.96973C9.37207 5.26465 10.5586 4.32422 11.9912 4.32422C13.5645 4.32422 14.8652 5.44922 14.8652 7.49707V9.67676H11.8945L13.4854 11.2764H15.8496C16.2451 11.2764 16.4297 11.4434 16.4297 11.9092V14.2207L18.1611 15.9609V11.8301C18.1611 10.5293 17.6338 9.84375 16.5615 9.71191V7.65527C16.5615 4.31543 14.3291 2.70703 11.9912 2.70703ZM19.418 20.7598C19.6904 21.0322 20.1387 21.0322 20.4023 20.7598C20.6748 20.4785 20.6836 20.0391 20.4023 19.7666L4.86328 4.23633C4.59082 3.96387 4.14258 3.95508 3.87012 4.23633C3.59766 4.5 3.59766 4.95703 3.87012 5.2207L19.418 20.7598ZM7.86035 20.2324H16.1221C16.5176 20.2324 16.8428 20.1797 17.124 20.0654L15.6826 18.624C15.6123 18.6328 15.5332 18.6416 15.4453 18.6416H8.1416C7.75488 18.6416 7.56152 18.457 7.56152 18V11.9092C7.56152 11.4521 7.75488 11.2764 8.13281 11.2764H8.33496L6.90234 9.84375C6.18164 10.1162 5.83008 10.7666 5.83008 11.8301V18.0791C5.83008 19.5557 6.50684 20.2324 7.86035 20.2324Z" fill="#1C1C1E"/>
</g>
<defs>
<clipPath id="clip0_10_478">
<rect width="24" height="24" fill="white"/>
</clipPath>
</defs>
</svg>
