<svg width="24" height="24" viewBox="0 0 24 24" fill="none" xmlns="http://www.w3.org/2000/svg">
<g clip-path="url(#clip0_10_499)">
<path d="M7.67578 2.3291H16.1045C16.043 1.53809 15.5771 1.11621 14.7246 1.11621H9.05566C8.20312 1.11621 7.7373 1.53809 7.67578 2.3291ZM6.14648 4.88672H17.5811C17.458 4.05176 17.0361 3.56836 16.0869 3.56836H7.63184C6.69141 3.56836 6.26953 4.05176 6.14648 4.88672ZM6.99023 22.1484H17.2295C18.917 22.1484 19.9014 21.1641 19.9014 19.2832V9.20215C19.9014 7.32129 18.9082 6.33691 17.0098 6.33691H6.99023C5.0918 6.33691 4.09863 7.32129 4.09863 9.20215V19.2832C4.09863 21.1641 5.0918 22.1484 6.99023 22.1484ZM8.73926 17.6836V14.1328C8.73926 13.5088 8.99414 13.1836 9.50391 13.1309V12.1113C9.50391 10.4326 10.5146 9.29883 12.0088 9.29883C13.5029 9.29883 14.5137 10.4326 14.5137 12.1113V13.1396C15.0234 13.1836 15.2783 13.5088 15.2783 14.1328V17.6836C15.2783 18.3867 14.9707 18.7031 14.3203 18.7031H9.68848C9.04688 18.7031 8.73926 18.3867 8.73926 17.6836ZM10.585 13.1133H13.4238V12.0146C13.4238 11.0215 12.8613 10.3535 12.0088 10.3535C11.1475 10.3535 10.585 11.0215 10.585 12.0146V13.1133Z" fill="#1C1C1E"/>
</g>
<defs>
<clipPath id="clip0_10_499">
<rect width="24" height="24" fill="white"/>
</clipPath>
</defs>
</svg>
