<svg width="24" height="24" viewBox="0 0 24 24" fill="none" xmlns="http://www.w3.org/2000/svg">
<g clip-path="url(#clip0_10_554)">
<path d="M4.71387 20.1182H13.2305C14.4082 20.1182 14.9883 19.5381 14.9883 18.2549V11.6719C14.9883 10.5469 14.54 9.95801 13.6084 9.83496V7.49707C13.6084 5.44922 14.918 4.32422 16.4824 4.32422C18.0557 4.32422 19.3564 5.44922 19.3564 7.49707V9.35156C19.3564 9.97559 19.7256 10.3008 20.209 10.3008C20.6748 10.3008 21.0439 9.99316 21.0439 9.35156V7.65527C21.0439 4.31543 18.8203 2.70703 16.4824 2.70703C14.1445 2.70703 11.9209 4.31543 11.9209 7.65527V9.80859L4.85449 9.82617C3.66797 9.82617 2.94727 10.4062 2.94727 11.6719V18.2549C2.94727 19.5381 3.52734 20.1182 4.71387 20.1182Z" fill="#1C1C1E"/>
</g>
<defs>
<clipPath id="clip0_10_554">
<rect width="24" height="24" fill="white"/>
</clipPath>
</defs>
</svg>
