<svg width="24" height="24" viewBox="0 0 24 24" fill="none" xmlns="http://www.w3.org/2000/svg">
<g clip-path="url(#clip0_10_606)">
<path d="M7.7373 20.1182H16.2627C17.4404 20.1182 18.0205 19.5381 18.0205 18.2549V11.6719C18.0205 10.5117 17.5459 9.92285 16.5615 9.82617V7.65527C16.5615 4.31543 14.3379 2.70703 12 2.70703C9.66211 2.70703 7.43848 4.31543 7.43848 7.65527V9.85254C6.52441 9.99316 5.97949 10.5732 5.97949 11.6719V18.2549C5.97949 19.5381 6.55957 20.1182 7.7373 20.1182ZM9.12598 7.49707C9.12598 5.44922 10.4268 4.32422 12 4.32422C13.5645 4.32422 14.874 5.44922 14.874 7.49707V9.80859L9.12598 9.81738V7.49707Z" fill="#1C1C1E"/>
</g>
<defs>
<clipPath id="clip0_10_606">
<rect width="24" height="24" fill="white"/>
</clipPath>
</defs>
</svg>
