<svg width="24" height="24" viewBox="0 0 24 24" fill="none" xmlns="http://www.w3.org/2000/svg">
<g clip-path="url(#clip0_10_502)">
<path d="M7.31543 21.1816H16.6846C18.5742 21.1816 19.5498 20.1885 19.5498 18.29V10.4238H12.958C11.8594 10.4238 11.332 9.89648 11.332 8.79785V2.13574H7.31543C5.43457 2.13574 4.4502 3.12891 4.4502 5.03613V18.29C4.4502 20.1885 5.43457 21.1816 7.31543 21.1816ZM13.125 9.14062H19.4619C19.4092 8.73633 19.1191 8.3584 18.6621 7.89258L13.8545 3.02344C13.415 2.5752 13.0195 2.27637 12.6152 2.22363V8.63086C12.624 8.97363 12.791 9.14062 13.125 9.14062ZM9.44238 18.4307V15.5742C9.44238 15.0732 9.64453 14.8096 10.0576 14.7656V13.9482C10.0576 12.5947 10.875 11.6895 12.0703 11.6895C13.2744 11.6895 14.0918 12.5947 14.0918 13.9482V14.7744C14.4961 14.8096 14.707 15.0732 14.707 15.5742V18.4307C14.707 18.9932 14.4521 19.248 13.9336 19.248H10.2158C9.68848 19.248 9.44238 18.9932 9.44238 18.4307ZM10.9277 14.7568H13.2129V13.8691C13.2129 13.0693 12.7559 12.5332 12.0703 12.5332C11.3848 12.5332 10.9277 13.0693 10.9277 13.8691V14.7568Z" fill="#1C1C1E"/>
</g>
<defs>
<clipPath id="clip0_10_502">
<rect width="24" height="24" fill="white"/>
</clipPath>
</defs>
</svg>
