<svg width="24" height="24" viewBox="0 0 24 24" fill="none" xmlns="http://www.w3.org/2000/svg">
<g clip-path="url(#clip0_10_560)">
<path d="M11.9912 1.59082C9.96973 1.59082 8.08008 2.75977 7.44727 5.11523C7.43848 5.15039 7.43848 5.15918 7.42969 5.19434L8.87988 6.64453C8.87988 6.5918 8.88867 6.53027 8.88867 6.47754C9.04688 4.41211 10.3652 3.26074 11.9912 3.26074C13.7139 3.26074 15.1201 4.51758 15.1201 6.9082V9.18457L11.4287 9.19336L18.249 16.0137V11.0918C18.249 9.94922 17.792 9.34277 16.8604 9.21973V7.0752C16.8604 3.375 14.5137 1.59082 11.9912 1.59082ZM19.418 20.7598C19.6904 21.0322 20.1387 21.0322 20.4023 20.7598C20.6748 20.4785 20.6836 20.0391 20.4023 19.7666L4.86328 4.23633C4.59082 3.96387 4.14258 3.95508 3.87012 4.23633C3.59766 4.5 3.59766 4.95703 3.87012 5.2207L19.418 20.7598ZM7.54395 19.8369H16.5439C16.6934 19.8369 16.8252 19.8281 16.9395 19.8105L6.55078 9.41309C5.9707 9.71191 5.74219 10.2656 5.74219 11.1621V17.9209C5.74219 19.2393 6.33984 19.8369 7.54395 19.8369Z" fill="#1C1C1E"/>
</g>
<defs>
<clipPath id="clip0_10_560">
<rect width="24" height="24" fill="white"/>
</clipPath>
</defs>
</svg>
