<svg width="24" height="24" viewBox="0 0 24 24" fill="none" xmlns="http://www.w3.org/2000/svg">
<g clip-path="url(#clip0_10_598)">
<path d="M6.67383 19.8809H17.3174C19.2246 19.8809 20.209 18.8965 20.209 17.0156V6.31934C20.209 4.43848 19.2246 3.4541 17.3174 3.4541H6.67383C4.77539 3.4541 3.78223 4.42969 3.78223 6.31934V17.0156C3.78223 18.8965 4.77539 19.8809 6.67383 19.8809ZM8.74805 15.0996V11.5488C8.74805 10.916 9.00293 10.5996 9.5127 10.5469V9.52734C9.5127 7.83984 10.5322 6.71484 12.0176 6.71484C13.5205 6.71484 14.5312 7.83984 14.5312 9.52734V10.5469C15.041 10.5996 15.2959 10.916 15.2959 11.5488V15.0996C15.2959 15.7939 14.9795 16.1191 14.3379 16.1191H9.70605C9.06445 16.1191 8.74805 15.7939 8.74805 15.0996ZM10.6025 10.5293H13.4414V9.43066C13.4414 8.42871 12.8789 7.76953 12.0176 7.76953C11.165 7.76953 10.6025 8.42871 10.6025 9.43066V10.5293Z" fill="#1C1C1E"/>
</g>
<defs>
<clipPath id="clip0_10_598">
<rect width="24" height="24" fill="white"/>
</clipPath>
</defs>
</svg>
