<svg width="24" height="24" viewBox="0 0 24 24" fill="none" xmlns="http://www.w3.org/2000/svg">
<g clip-path="url(#clip0_10_503)">
<path d="M7.53516 2.3291H16.2451C16.1836 1.53809 15.7178 1.11621 14.8652 1.11621H8.91504C8.0625 1.11621 7.59668 1.53809 7.53516 2.3291ZM5.99707 4.88672H17.7217C17.5986 4.05176 17.1768 3.56836 16.2275 3.56836H7.49121C6.55078 3.56836 6.12012 4.05176 5.99707 4.88672ZM6.99023 22.1484H17.2295C18.917 22.1484 19.9014 21.1641 19.9014 19.2832V9.20215C19.9014 7.32129 18.9082 6.33691 17.0098 6.33691H6.99023C5.0918 6.33691 4.09863 7.32129 4.09863 9.20215V19.2832C4.09863 21.1641 5.0918 22.1484 6.99023 22.1484ZM7.10449 20.3906C6.2959 20.3906 5.84766 19.9688 5.84766 19.125V9.36035C5.84766 8.50781 6.2959 8.09473 7.10449 8.09473H16.8955C17.7041 8.09473 18.1523 8.50781 18.1523 9.36035V19.125C18.1523 19.9688 17.7041 20.3906 17.1152 20.3906H7.10449ZM8.8623 17.5518C8.8623 18.2197 9.16113 18.5273 9.77637 18.5273H14.2412C14.8564 18.5273 15.1553 18.2197 15.1553 17.5518V14.124C15.1553 13.5264 14.9092 13.2188 14.417 13.1748V12.1816C14.417 10.5645 13.4414 9.4834 12.0088 9.4834C10.5674 9.4834 9.60059 10.5645 9.60059 12.1816V13.166C9.1084 13.2188 8.8623 13.5264 8.8623 14.124V17.5518ZM10.6377 13.1484V12.0938C10.6377 11.127 11.1826 10.4854 12.0088 10.4854C12.835 10.4854 13.3799 11.127 13.3799 12.0938V13.1484H10.6377Z" fill="#1C1C1E"/>
</g>
<defs>
<clipPath id="clip0_10_503">
<rect width="24" height="24" fill="white"/>
</clipPath>
</defs>
</svg>
