<svg width="24" height="24" viewBox="0 0 24 24" fill="none" xmlns="http://www.w3.org/2000/svg">
<g clip-path="url(#clip0_10_340)">
<path d="M2.01562 11.6543C2.01562 16.6289 6.12891 20.7422 11.1035 20.7422C13.9424 20.7422 16.623 19.3184 18.2314 17.2002C18.627 16.7256 18.5479 16.1543 18.1436 15.8643C17.7129 15.5479 17.1943 15.6797 16.834 16.0928C15.498 17.8154 13.459 18.9229 11.1035 18.9229C7.06934 18.9316 3.83496 15.6885 3.83496 11.6543C3.83496 7.62012 7.06934 4.38574 11.1035 4.38574C14.5137 4.38574 17.3525 6.68848 18.1523 9.83496H16.8779C16.21 9.83496 16.0254 10.3447 16.4121 10.8896L18.5215 13.8516C18.8379 14.2998 19.3301 14.2998 19.6553 13.8516L21.7646 10.8896C22.1602 10.3447 21.9756 9.83496 21.2988 9.83496H20.0156C19.1631 5.71289 15.4629 2.56641 11.1035 2.56641C6.12891 2.56641 2.01562 6.67969 2.01562 11.6543ZM7.94824 14.9678C7.94824 15.6357 8.24707 15.9434 8.87109 15.9434H13.3271C13.9512 15.9434 14.25 15.6357 14.25 14.9678V11.54C14.25 10.9424 14.0039 10.6348 13.5117 10.5908V9.59766C13.5117 7.98047 12.5361 6.89941 11.1035 6.89941C9.66211 6.89941 8.69531 7.98047 8.69531 9.59766V10.582C8.19434 10.6348 7.94824 10.9424 7.94824 11.54V14.9678ZM9.73242 10.5645V9.50977C9.73242 8.54297 10.2773 7.90137 11.1035 7.90137C11.9297 7.90137 12.4746 8.54297 12.4746 9.50977V10.5645H9.73242Z" fill="#1C1C1E"/>
</g>
<defs>
<clipPath id="clip0_10_340">
<rect width="24" height="24" fill="white"/>
</clipPath>
</defs>
</svg>
