<svg width="24" height="24" viewBox="0 0 24 24" fill="none" xmlns="http://www.w3.org/2000/svg">
<g clip-path="url(#clip0_10_483)">
<path d="M6.375 2.72461H17.7744C17.7129 1.93359 17.2471 1.51172 16.3945 1.51172H7.74609C6.90234 1.51172 6.42773 1.93359 6.375 2.72461ZM4.50293 5.28223H19.5059C19.3828 4.44727 18.9521 3.96387 18.0117 3.96387H5.98828C5.04785 3.96387 4.62598 4.44727 4.50293 5.28223ZM5.36426 21.832H18.6182C20.5166 21.832 21.5186 20.8477 21.5186 18.9668V9.59766C21.5186 7.7168 20.5166 6.73242 18.6182 6.73242H5.36426C3.45703 6.73242 2.47266 7.70801 2.47266 9.59766V18.9668C2.47266 20.8477 3.45703 21.832 5.36426 21.832ZM8.73047 17.7275V14.1768C8.73047 13.5439 8.98535 13.2275 9.49512 13.1748V12.1553C9.49512 10.4678 10.5059 9.34277 12 9.34277C13.4941 9.34277 14.5049 10.4678 14.5049 12.1553V13.1748C15.0146 13.2275 15.2695 13.5439 15.2695 14.1768V17.7275C15.2695 18.4219 14.9619 18.7471 14.3115 18.7471H9.67969C9.03809 18.7471 8.73047 18.4219 8.73047 17.7275ZM10.5762 13.1572H13.4238V12.0586C13.4238 11.0566 12.8525 10.3975 12 10.3975C11.1475 10.3975 10.5762 11.0566 10.5762 12.0586V13.1572Z" fill="#1C1C1E"/>
</g>
<defs>
<clipPath id="clip0_10_483">
<rect width="24" height="24" fill="white"/>
</clipPath>
</defs>
</svg>
