<svg width="24" height="24" viewBox="0 0 24 24" fill="none" xmlns="http://www.w3.org/2000/svg">
<g clip-path="url(#clip0_10_457)">
<path d="M2.01562 11.6543C2.01562 16.6289 6.12891 20.7422 11.1035 20.7422C13.9424 20.7422 16.623 19.3184 18.2314 17.2002C18.627 16.7256 18.5479 16.1543 18.1436 15.8643C17.7129 15.5479 17.1943 15.6797 16.834 16.0928C15.498 17.8154 13.459 18.9229 11.1035 18.9229C7.06934 18.9316 3.83496 15.6885 3.83496 11.6543C3.83496 7.62012 7.06934 4.38574 11.1035 4.38574C14.5137 4.38574 17.3525 6.68848 18.1523 9.83496H16.8779C16.21 9.83496 16.0254 10.3447 16.4121 10.8896L18.5215 13.8516C18.8379 14.2998 19.3301 14.2998 19.6553 13.8516L21.7646 10.8896C22.1602 10.3447 21.9756 9.83496 21.2988 9.83496H20.0156C19.1631 5.71289 15.4629 2.56641 11.1035 2.56641C6.12891 2.56641 2.01562 6.67969 2.01562 11.6543ZM8.02734 14.9678C8.02734 15.6357 8.32617 15.9434 8.94141 15.9434H13.4062C14.0215 15.9434 14.3203 15.6357 14.3203 14.9678V11.5576C14.3203 10.8809 14.0215 10.5732 13.4062 10.5732L9.80273 10.5645V9.50977C9.80273 8.54297 10.3477 7.90137 11.1914 7.90137C12 7.90137 12.5449 8.42871 12.5449 9.21973V9.39551C12.5449 9.7207 12.7822 9.90527 13.0723 9.90527C13.3623 9.90527 13.582 9.71191 13.582 9.38672V9.20215C13.582 7.83105 12.6152 6.89941 11.1914 6.89941C9.74121 6.89941 8.76562 7.98047 8.76562 9.59766V10.582C8.27344 10.6348 8.02734 10.9424 8.02734 11.54V14.9678Z" fill="#1C1C1E"/>
</g>
<defs>
<clipPath id="clip0_10_457">
<rect width="24" height="24" fill="white"/>
</clipPath>
</defs>
</svg>
