<svg width="24" height="24" viewBox="0 0 24 24" fill="none" xmlns="http://www.w3.org/2000/svg">
<g clip-path="url(#clip0_10_529)">
<path d="M11.9912 20.7422C16.9746 20.7422 21.0879 16.6289 21.0879 11.6543C21.0879 6.67969 16.9658 2.56641 11.9824 2.56641C7.00781 2.56641 2.90332 6.67969 2.90332 11.6543C2.90332 16.6289 7.0166 20.7422 11.9912 20.7422ZM11.9912 18.9316C7.95703 18.9316 4.73145 15.6885 4.73145 11.6543C4.73145 7.62012 7.95703 4.38574 11.9824 4.38574C16.0166 4.38574 19.2598 7.62012 19.2686 11.6543C19.2773 15.6885 16.0254 18.9316 11.9912 18.9316ZM8.83594 14.9678C8.83594 15.6357 9.13477 15.9521 9.75879 15.9521H14.2148C14.8389 15.9521 15.1377 15.6357 15.1377 14.9678V11.5488C15.1377 10.9512 14.8916 10.6348 14.3994 10.5908V9.59766C14.3994 7.98047 13.4238 6.89941 11.9912 6.89941C10.5498 6.89941 9.58301 7.98047 9.58301 9.59766V10.5908C9.08203 10.6348 8.83594 10.9512 8.83594 11.5488V14.9678ZM10.6201 10.5732V9.50977C10.6201 8.54297 11.165 7.91016 11.9912 7.91016C12.8174 7.91016 13.3623 8.54297 13.3623 9.50977V10.5732H10.6201Z" fill="#1C1C1E"/>
</g>
<defs>
<clipPath id="clip0_10_529">
<rect width="24" height="24" fill="white"/>
</clipPath>
</defs>
</svg>
