<svg width="24" height="24" viewBox="0 0 24 24" fill="none" xmlns="http://www.w3.org/2000/svg">
<g clip-path="url(#clip0_10_468)">
<path d="M4.90723 20.2324H13.1689C14.5312 20.2324 15.208 19.5557 15.208 18.0791V11.8301C15.208 10.5557 14.6982 9.87891 13.6875 9.7207V7.49707C13.6875 5.44922 14.9883 4.32422 16.5527 4.32422C18.126 4.32422 19.4268 5.44922 19.4268 7.49707V9.35156C19.4268 9.97559 19.7959 10.3008 20.2793 10.3008C20.7451 10.3008 21.123 9.99316 21.123 9.35156V7.65527C21.123 4.31543 18.8906 2.70703 16.5527 2.70703C14.2236 2.70703 11.9912 4.31543 11.9912 7.65527V9.67676H4.90723C3.55371 9.67676 2.87695 10.3535 2.87695 11.8301V18.0791C2.87695 19.5557 3.55371 20.2324 4.90723 20.2324ZM5.18848 18.6416C4.80176 18.6416 4.6084 18.457 4.6084 18V11.9092C4.6084 11.4434 4.80176 11.2764 5.18848 11.2764H12.8965C13.292 11.2764 13.4766 11.4434 13.4766 11.9092V18C13.4766 18.457 13.292 18.6416 12.8965 18.6416H5.18848Z" fill="#1C1C1E"/>
</g>
<defs>
<clipPath id="clip0_10_468">
<rect width="24" height="24" fill="white"/>
</clipPath>
</defs>
</svg>
