<svg width="24" height="24" viewBox="0 0 24 24" fill="none" xmlns="http://www.w3.org/2000/svg">
<g clip-path="url(#clip0_10_678)">
<path d="M11.9912 20.7422C16.9746 20.7422 21.0879 16.6289 21.0879 11.6543C21.0879 6.67969 16.9658 2.56641 11.9824 2.56641C7.00781 2.56641 2.90332 6.67969 2.90332 11.6543C2.90332 16.6289 7.0166 20.7422 11.9912 20.7422ZM7.24512 10.6611C7.24512 8.56934 8.95898 6.84668 11.042 6.84668C13.1338 6.84668 14.8477 8.56055 14.8477 10.6611C14.8477 11.4082 14.6191 12.1025 14.2412 12.6914L16.4385 14.8887C16.6143 15.0645 16.7109 15.2842 16.7109 15.5127C16.7109 16.0312 16.3594 16.4092 15.8584 16.4092C15.5771 16.4092 15.3574 16.3125 15.1553 16.1016L12.9668 13.9219C12.4043 14.2559 11.7451 14.458 11.042 14.458C8.95898 14.458 7.24512 12.7441 7.24512 10.6611ZM8.60742 10.6611C8.60742 11.9883 9.70605 13.0957 11.042 13.0957C12.3779 13.0957 13.4766 11.9883 13.4766 10.6611C13.4766 9.31641 12.3779 8.21777 11.042 8.21777C9.70605 8.21777 8.60742 9.3252 8.60742 10.6611Z" fill="#1C1C1E"/>
</g>
<defs>
<clipPath id="clip0_10_678">
<rect width="24" height="24" fill="white"/>
</clipPath>
</defs>
</svg>
