<svg width="24" height="24" viewBox="0 0 24 24" fill="none" xmlns="http://www.w3.org/2000/svg">
<g clip-path="url(#clip0_10_451)">
<path d="M11.9912 20.7422C16.9746 20.7422 21.0879 16.6289 21.0879 11.6543C21.0879 6.67969 16.9658 2.56641 11.9824 2.56641C7.00781 2.56641 2.90332 6.67969 2.90332 11.6543C2.90332 16.6289 7.0166 20.7422 11.9912 20.7422ZM11.9912 18.9316C7.95703 18.9316 4.73145 15.6885 4.73145 11.6543C4.73145 7.62012 7.95703 4.38574 11.9824 4.38574C16.0166 4.38574 19.2598 7.62012 19.2686 11.6543C19.2773 15.6885 16.0254 18.9316 11.9912 18.9316ZM11.0771 14.3525C11.7539 14.3525 12.3955 14.168 12.9404 13.834L15.0498 15.9346C15.2344 16.1367 15.4541 16.2246 15.7178 16.2246C16.1924 16.2246 16.5352 15.873 16.5352 15.3809C16.5352 15.1611 16.4297 14.9502 16.2715 14.7832L14.1533 12.665C14.5225 12.0938 14.7334 11.417 14.7334 10.6963C14.7334 8.68359 13.0898 7.04004 11.0771 7.04004C9.07324 7.04004 7.4209 8.69238 7.4209 10.6963C7.4209 12.709 9.07324 14.3525 11.0771 14.3525ZM11.0771 13.043C9.79395 13.043 8.72168 11.9883 8.72168 10.6963C8.72168 9.41309 9.79395 8.34961 11.0771 8.34961C12.3691 8.34961 13.4238 9.4043 13.4238 10.6963C13.4238 11.9883 12.3691 13.043 11.0771 13.043Z" fill="#1C1C1E"/>
</g>
<defs>
<clipPath id="clip0_10_451">
<rect width="24" height="24" fill="white"/>
</clipPath>
</defs>
</svg>
