<svg width="24" height="24" viewBox="0 0 24 24" fill="none" xmlns="http://www.w3.org/2000/svg">
<g clip-path="url(#clip0_10_429)">
<path d="M3.9668 20.1797C4.25684 20.1797 4.52051 20.083 4.87207 19.8809L9.14355 17.5781L13.8018 20.1885C14.1709 20.3906 14.5576 20.4873 14.9355 20.4873C15.3047 20.4873 15.665 20.3994 15.9902 20.2061L20.3584 17.7451C20.9648 17.4023 21.2285 16.9189 21.2285 16.251V4.44727C21.2285 3.7002 20.7803 3.25195 20.042 3.25195C19.752 3.25195 19.4883 3.36621 19.1279 3.55957L14.6982 6.02051L10.0928 3.24316C9.75879 3.0498 9.39844 2.95312 9.0293 2.95312C8.66895 2.95312 8.30859 3.04102 7.99219 3.22559L3.65039 5.69531C3.04395 6.03809 2.77148 6.50391 2.77148 7.17188V18.9932C2.77148 19.7402 3.21973 20.1797 3.9668 20.1797ZM8.35254 16.0049L4.74023 17.9912C4.67871 18.0176 4.62598 18.0439 4.58203 18.0439C4.47656 18.0439 4.42383 17.9648 4.42383 17.8418V7.62891C4.42383 7.38281 4.51172 7.22461 4.74023 7.09277L8.0625 5.16797C8.15918 5.10645 8.24707 5.0625 8.35254 5.00977V16.0049ZM10.0225 16.0488V5.2207C10.1104 5.26465 10.207 5.31738 10.2949 5.37012L13.9775 7.59375V18.2637C13.8633 18.2021 13.749 18.1406 13.626 18.0703L10.0225 16.0488ZM15.6562 18.3867V7.42676L19.2686 5.45801C19.3125 5.43164 19.3652 5.41406 19.4092 5.41406C19.5146 5.41406 19.585 5.49316 19.585 5.60742V15.7676C19.585 16.0225 19.4971 16.1807 19.2598 16.3125L16.0605 18.167C15.9287 18.2461 15.7881 18.3252 15.6562 18.3867Z" fill="#1C1C1E"/>
</g>
<defs>
<clipPath id="clip0_10_429">
<rect width="24" height="24" fill="white"/>
</clipPath>
</defs>
</svg>
