<svg width="24" height="24" viewBox="0 0 24 24" fill="none" xmlns="http://www.w3.org/2000/svg">
<g clip-path="url(#clip0_10_511)">
<path d="M9.53027 17.8154L13.7227 20.1533C13.9336 20.2676 14.1094 20.3555 14.3291 20.4082V5.80957L10.251 3.34863C9.9873 3.19043 9.74121 3.07617 9.53027 3.02344V17.8154ZM2.73633 18.9932C2.73633 19.7578 3.21973 20.1797 3.92285 20.1797C4.17773 20.1797 4.44141 20.1006 4.74023 19.9424L8.23828 18.0439V3.12012C8.04492 3.19922 7.81641 3.2959 7.5791 3.43652L3.60645 5.69531C3.00879 6.0293 2.73633 6.50391 2.73633 7.17188V18.9932ZM15.6123 20.3643C15.7178 20.3379 15.8232 20.2939 15.9199 20.2236L20.3672 17.71C20.9824 17.3672 21.2637 16.9014 21.2637 16.2334V4.47363C21.2637 3.67383 20.7715 3.27832 20.0244 3.27832C19.752 3.27832 19.4619 3.35742 19.1543 3.52441L15.6123 5.49316V20.3643Z" fill="#1C1C1E"/>
</g>
<defs>
<clipPath id="clip0_10_511">
<rect width="24" height="24" fill="white"/>
</clipPath>
</defs>
</svg>
