<svg width="24" height="24" viewBox="0 0 24 24" fill="none" xmlns="http://www.w3.org/2000/svg">
<g clip-path="url(#clip0_10_437)">
<path d="M11.9912 20.7598C16.9746 20.7598 21.0879 16.6465 21.0879 11.6631C21.0879 6.68848 16.9658 2.5752 11.9824 2.5752C7.00781 2.5752 2.90332 6.68848 2.90332 11.6631C2.90332 16.6465 7.0166 20.7598 11.9912 20.7598ZM9.81152 8.39355C9.81152 7.19824 10.7871 6.22266 11.9912 6.22266C13.1865 6.22266 14.1621 7.18945 14.1621 8.39355C14.1621 9.35156 13.5469 10.1514 12.6943 10.4326V14.8711C12.6943 16.1191 12.4219 17.2881 11.9912 17.2881C11.5518 17.2881 11.2705 16.0928 11.2705 14.8711V10.4326C10.4268 10.1426 9.81152 9.34277 9.81152 8.39355ZM10.7256 7.83984C10.7256 8.22656 11.0596 8.56055 11.4287 8.56055C11.8242 8.56055 12.1406 8.22656 12.1494 7.83984C12.1494 7.45312 11.8242 7.12793 11.4287 7.12793C11.0596 7.12793 10.7256 7.45312 10.7256 7.83984Z" fill="#1C1C1E"/>
</g>
<defs>
<clipPath id="clip0_10_437">
<rect width="24" height="24" fill="white"/>
</clipPath>
</defs>
</svg>
