<svg width="24" height="24" viewBox="0 0 24 24" fill="none" xmlns="http://www.w3.org/2000/svg">
<g clip-path="url(#clip0_10_423)">
<path d="M12 20.7598C12.3604 20.7598 12.9141 19.292 12.9141 16.9189V8.63965C14.3994 8.23535 15.4805 6.87305 15.4805 5.26465C15.4805 3.33105 13.9336 1.75781 12 1.75781C10.0576 1.75781 8.51074 3.33105 8.51074 5.26465C8.51074 6.86426 9.58301 8.22656 11.0684 8.63086V16.9189C11.0684 19.2744 11.6309 20.7598 12 20.7598ZM10.998 5.45801C10.3652 5.45801 9.81152 4.9043 9.81152 4.25391C9.81152 3.6123 10.3652 3.06738 10.998 3.06738C11.6572 3.06738 12.1934 3.6123 12.1934 4.25391C12.1934 4.9043 11.6572 5.45801 10.998 5.45801Z" fill="#1C1C1E"/>
</g>
<defs>
<clipPath id="clip0_10_423">
<rect width="24" height="24" fill="white"/>
</clipPath>
</defs>
</svg>
