<svg width="24" height="24" viewBox="0 0 24 24" fill="none" xmlns="http://www.w3.org/2000/svg">
<g clip-path="url(#clip0_10_424)">
<path d="M11.9912 20.7422C16.9746 20.7422 21.0879 16.6289 21.0879 11.6543C21.0879 6.67969 16.9658 2.56641 11.9824 2.56641C7.00781 2.56641 2.90332 6.67969 2.90332 11.6543C2.90332 16.6289 7.0166 20.7422 11.9912 20.7422ZM11.9912 18.9316C7.95703 18.9316 4.73145 15.6885 4.73145 11.6543C4.73145 7.62012 7.95703 4.38574 11.9824 4.38574C16.0166 4.38574 19.2598 7.62012 19.2686 11.6543C19.2773 15.6885 16.0254 18.9316 11.9912 18.9316ZM9.9082 8.50781C9.9082 9.42188 10.4883 10.1953 11.3057 10.4678V14.7568C11.3057 15.9346 11.5693 17.0771 11.9912 17.0771C12.4043 17.0771 12.6592 15.9521 12.6592 14.7568V10.4766C13.4854 10.2041 14.0654 9.43066 14.0654 8.50781C14.0654 7.35645 13.1338 6.4248 11.9912 6.4248C10.8398 6.43359 9.9082 7.36523 9.9082 8.50781ZM10.7695 7.98047C10.7695 7.61133 11.0947 7.29492 11.4551 7.29492C11.833 7.29492 12.1406 7.61133 12.1406 7.98047C12.1406 8.34961 11.833 8.66602 11.4551 8.66602C11.0947 8.66602 10.7783 8.34961 10.7695 7.98047Z" fill="#1C1C1E"/>
</g>
<defs>
<clipPath id="clip0_10_424">
<rect width="24" height="24" fill="white"/>
</clipPath>
</defs>
</svg>
