<svg width="24" height="24" viewBox="0 0 24 24" fill="none" xmlns="http://www.w3.org/2000/svg">
<g clip-path="url(#clip0_10_706)">
<path d="M12 18.0176C12.3867 18.0176 12.9229 16.5498 12.9229 14.1768V8.63965C14.4082 8.23535 15.4893 6.87305 15.4893 5.26465C15.4893 3.33105 13.9424 1.75781 12 1.75781C10.0664 1.75781 8.51953 3.33105 8.51953 5.26465C8.51953 6.86426 9.5918 8.22656 11.0771 8.63086V14.1768C11.0771 16.541 11.6221 18.0176 12 18.0176ZM11.0156 5.45801C10.3828 5.45801 9.82031 4.9043 9.82031 4.25391C9.82031 3.6123 10.3828 3.06738 11.0156 3.06738C11.6748 3.06738 12.2109 3.6123 12.2109 4.25391C12.2109 4.9043 11.6748 5.45801 11.0156 5.45801ZM12 21.4805C17.5898 21.4805 20.9385 19.5996 20.9385 17.4375C20.9385 15.0732 17.3174 13.5439 14.4258 13.4209V14.9941C16.3945 15.082 18.9346 15.9873 18.9346 17.2617C18.9346 18.7734 16.0166 19.8193 12 19.8193C7.9834 19.8193 5.07422 18.7822 5.07422 17.2617C5.07422 15.9873 7.61426 15.082 9.57422 14.9941V13.4209C6.68262 13.5439 3.06152 15.0732 3.06152 17.4375C3.06152 19.5996 6.41016 21.4805 12 21.4805Z" fill="#1C1C1E"/>
</g>
<defs>
<clipPath id="clip0_10_706">
<rect width="24" height="24" fill="white"/>
</clipPath>
</defs>
</svg>
