<svg width="24" height="24" viewBox="0 0 24 24" fill="none" xmlns="http://www.w3.org/2000/svg">
<g clip-path="url(#clip0_10_516)">
<path d="M11.0684 9.67676L12.9229 11.5312V8.63965C14.4082 8.23535 15.4893 6.87305 15.4893 5.26465C15.4893 3.33105 13.9424 1.75781 12 1.75781C10.0664 1.75781 8.51074 3.33105 8.51074 5.26465C8.51074 6.86426 9.5918 8.22656 11.0684 8.63086V9.67676ZM11.0068 5.45801C10.374 5.45801 9.81152 4.9043 9.81152 4.25391C9.81152 3.6123 10.374 3.06738 11.0068 3.06738C11.666 3.06738 12.2021 3.6123 12.2021 4.25391C12.2021 4.9043 11.666 5.45801 11.0068 5.45801ZM17.3174 19.4238C17.5898 19.7051 18.0381 19.7051 18.3018 19.4238C18.5654 19.1514 18.5742 18.7119 18.3018 18.4395L5.94434 6.08203C5.68066 5.81836 5.22363 5.80957 4.95117 6.08203C4.67871 6.3457 4.67871 6.81152 4.95117 7.0752L17.3174 19.4238ZM11.0684 16.9189C11.0684 19.2744 11.6396 20.7598 12 20.7598C12.3252 20.7598 12.8613 19.5205 12.8789 17.5957L12.8877 16.5498L11.0684 14.7305V16.9189Z" fill="#1C1C1E"/>
</g>
<defs>
<clipPath id="clip0_10_516">
<rect width="24" height="24" fill="white"/>
</clipPath>
</defs>
</svg>
