<svg width="24" height="24" viewBox="0 0 24 24" fill="none" xmlns="http://www.w3.org/2000/svg">
<g clip-path="url(#clip0_10_518)">
<path d="M18.2139 17.9561C18.2139 19.1074 19.0225 19.916 20.165 19.916C21.3164 19.916 22.1162 19.1074 22.1162 17.9561V3.77051C22.1162 2.61914 21.3164 1.81055 20.165 1.81055C19.0225 1.81055 18.2139 2.61914 18.2139 3.77051V17.9561ZM9.00293 15.3369C11.6572 15.6533 14.3994 16.4619 16.9395 17.7803C16.9307 17.7012 16.9307 17.6221 16.9307 17.543V4.1748C16.9307 4.12207 16.9307 4.06934 16.9307 4.0166C14.4346 5.32617 11.4375 6.19629 9.00293 6.45996V15.3369ZM5.79492 6.45996C3.25488 6.45996 1.88379 7.7959 1.88379 10.248V11.5488C1.88379 13.9922 3.25488 15.3281 5.79492 15.3281H7.71094V6.45996H5.79492ZM9.53906 21.6562C10.7168 21.6562 11.5869 20.7861 11.2617 19.3623L10.6729 16.7344C10.1367 16.5234 8.74805 16.4092 7.84277 16.4004H5.64551L7.37695 20.0303C7.87793 21.0674 8.43164 21.6562 9.53906 21.6562Z" fill="#1C1C1E"/>
</g>
<defs>
<clipPath id="clip0_10_518">
<rect width="24" height="24" fill="white"/>
</clipPath>
</defs>
</svg>
