<svg width="24" height="24" viewBox="0 0 24 24" fill="none" xmlns="http://www.w3.org/2000/svg">
<g clip-path="url(#clip0_10_512)">
<path d="M1.57617 11.5488C1.57617 13.7373 2.65723 15.0381 4.67871 15.3193L6.67383 19.7139C7.18359 20.8477 7.89551 21.4014 8.95898 21.4014C10.3389 21.4014 11.332 20.4082 11.0332 18.8525L10.418 15.6357C12.9053 16.1191 15.4102 17.0244 17.7217 18.3516C18.0381 19.3008 18.8906 19.916 20.0068 19.916C21.4219 19.916 22.415 18.9229 22.415 17.499V4.22754C22.415 2.80371 21.4219 1.81055 20.0068 1.81055C18.8643 1.81055 17.9941 2.46094 17.6953 3.4541C14.9795 5.0625 11.5078 6.11719 8.73926 6.41602H5.53125C2.96484 6.41602 1.57617 7.76074 1.57617 10.2393V11.5488ZM19.2598 17.499V4.22754C19.2598 3.78809 19.5586 3.48047 20.0068 3.48047C20.4463 3.48047 20.7451 3.78809 20.7451 4.22754V17.499C20.7451 17.9385 20.4463 18.2461 20.0068 18.2461C19.5586 18.2461 19.2598 17.9385 19.2598 17.499ZM9.01172 13.7461V8.04199C12.0967 7.67285 15.0234 6.79395 17.5898 5.35254V16.4443C14.9707 14.9678 12.0703 14.1152 9.01172 13.7461ZM5.53125 13.7021C3.89648 13.7021 3.24609 13.0869 3.24609 11.5488V10.2393C3.24609 8.70117 3.89648 8.08594 5.53125 8.08594H7.3418V13.7021H5.53125ZM8.23828 19.248L6.41016 15.3721H8.68652C8.71289 15.3721 8.74805 15.3809 8.7832 15.3809L9.50391 19.0635C9.60059 19.5293 9.33691 19.8281 8.94141 19.8281C8.58984 19.8281 8.42285 19.6436 8.23828 19.248Z" fill="#1C1C1E"/>
</g>
<defs>
<clipPath id="clip0_10_512">
<rect width="24" height="24" fill="white"/>
</clipPath>
</defs>
</svg>
