<svg width="24" height="24" viewBox="0 0 24 24" fill="none" xmlns="http://www.w3.org/2000/svg">
<g clip-path="url(#clip0_10_667)">
<path d="M14.0654 14.2734H19.3916L14.1797 4.0957C13.749 3.25195 12.8525 2.75098 12 2.75098C11.1387 2.75098 10.2334 3.25195 9.81152 4.0957L7.80762 8.02441L11.2881 11.5049V7.34766C11.2881 6.89062 11.5693 6.5918 12.0264 6.5918C12.4834 6.5918 12.7559 6.89062 12.7559 7.34766V12.9727L14.0654 14.2734ZM10.4004 14.2734H12.5889L5.0127 6.69727C4.69629 6.37207 4.26562 6.36328 3.92285 6.68848C3.58008 7.03125 3.60645 7.4707 3.92285 7.7959L10.4004 14.2734ZM4.59961 14.2734H8.99414L6.08496 11.3643L4.59961 14.2734ZM5.88281 19.9424H18.1084C19.6904 19.9424 20.666 18.791 20.666 17.4639C20.666 17.0068 20.543 16.5322 20.3145 16.0752L20.0508 15.5566H3.94043L3.67676 16.0752C3.44824 16.5234 3.3252 17.0068 3.3252 17.4639C3.3252 18.791 4.30078 19.9424 5.88281 19.9424Z" fill="#1C1C1E"/>
</g>
<defs>
<clipPath id="clip0_10_667">
<rect width="24" height="24" fill="white"/>
</clipPath>
</defs>
</svg>
