<svg width="24" height="24" viewBox="0 0 24 24" fill="none" xmlns="http://www.w3.org/2000/svg">
<g clip-path="url(#clip0_10_669)">
<path d="M6.08496 11.3643L3.67676 16.0752C3.44824 16.5322 3.3252 17.0068 3.3252 17.4639C3.3252 18.791 4.30078 19.9424 5.88281 19.9424H18.1084C19.6904 19.9424 20.666 18.791 20.666 17.4639C20.666 17.0068 20.543 16.5322 20.3145 16.0752L14.1797 4.0957C13.749 3.25195 12.8525 2.75098 12 2.75098C11.1387 2.75098 10.2334 3.25195 9.81152 4.0957L7.80762 8.02441L9.06445 9.27246L11.209 4.99219C11.3672 4.66699 11.666 4.45605 12 4.45605C12.3252 4.45605 12.6152 4.66699 12.7822 4.99219L17.3965 14.1592H12.4746L5.0127 6.69727C4.69629 6.37207 4.26562 6.36328 3.92285 6.68848C3.58008 7.03125 3.60645 7.4707 3.92285 7.7959L10.2861 14.1592H6.55957L7.3418 12.6211L6.08496 11.3643ZM12.7559 12.9727V7.34766C12.7559 6.89062 12.4834 6.5918 12.0264 6.5918C11.5693 6.5918 11.2881 6.89062 11.2881 7.34766V11.4961L12.7559 12.9727ZM6.04102 18.2637C5.46973 18.2637 5.12695 17.8242 5.12695 17.332C5.12695 17.1738 5.16211 16.9893 5.25 16.8223L5.82129 15.6973L18.1611 15.6797L18.7412 16.8223C18.8291 16.998 18.873 17.165 18.873 17.3232C18.873 17.8242 18.5303 18.2637 17.9502 18.2637H6.04102Z" fill="#1C1C1E"/>
</g>
<defs>
<clipPath id="clip0_10_669">
<rect width="24" height="24" fill="white"/>
</clipPath>
</defs>
</svg>
