<svg width="24" height="24" viewBox="0 0 24 24" fill="none" xmlns="http://www.w3.org/2000/svg">
<g clip-path="url(#clip0_10_691)">
<path d="M14.6455 3.8584L19.6729 8.88574C21.2373 7.34766 21.334 5.29102 19.7871 3.75293C18.2402 2.21484 16.1924 2.29395 14.6455 3.8584ZM13.6963 4.81641C12.7822 5.72168 12.3691 6.77637 12.4834 7.81348L4.32715 16.5674C3.97559 16.9541 3.94043 17.4463 4.37109 17.9209L3.20215 19.4062C3.06152 19.582 3.07031 19.8457 3.25488 20.0303L3.50977 20.2852C3.69434 20.4697 3.94922 20.4873 4.14258 20.3291L5.62793 19.1602C6.07617 19.5908 6.58594 19.5557 6.95508 19.2041L11.3232 15.1436V19.8896C11.3232 20.3906 11.7188 20.7773 12.2197 20.7773C12.7207 20.7773 13.1162 20.3906 13.1162 19.8896V14.7041L13.0547 13.5439L15.7178 11.0742C16.7461 11.1797 17.8184 10.7578 18.7148 9.84375L13.6963 4.81641ZM5.41699 17.3232L13.0283 9.30762C13.1777 9.53613 13.3535 9.75586 13.5645 9.9668C13.7666 10.1777 13.9863 10.3623 14.2061 10.5117L6.2168 18.123L5.41699 17.3232Z" fill="#1C1C1E"/>
</g>
<defs>
<clipPath id="clip0_10_691">
<rect width="24" height="24" fill="white"/>
</clipPath>
</defs>
</svg>
