<svg width="24" height="24" viewBox="0 0 24 24" fill="none" xmlns="http://www.w3.org/2000/svg">
<g clip-path="url(#clip0_10_534)">
<path d="M4.96875 21.1816H19.251C21.1582 21.1816 22.1514 20.1973 22.1514 18.3164V5.00098C22.1514 3.12012 21.1582 2.13574 19.251 2.13574H8.73047C6.82324 2.13574 5.83887 3.12012 5.83887 5.00098V19.4326C5.83887 20.3291 5.61914 20.8301 4.96875 21.1816ZM9.58301 7.62891C9.24023 7.62891 8.98535 7.36523 8.98535 7.03125C8.98535 6.70605 9.23145 6.45117 9.58301 6.45117H18.416C18.75 6.45117 19.0049 6.70605 19.0049 7.03125C19.0049 7.36523 18.75 7.62891 18.416 7.62891H9.58301ZM1.83984 10.8633V18.624C1.83984 19.3535 2.38477 19.749 2.98242 19.749C3.58887 19.749 4.125 19.3535 4.125 18.624V8.91211H3.77344C2.66602 8.91211 1.83984 9.60645 1.83984 10.8633ZM9.58301 10.6611C9.23145 10.6611 8.98535 10.4062 8.98535 10.0811C8.98535 9.74707 9.24023 9.4834 9.58301 9.4834H18.416C18.75 9.4834 19.0049 9.74707 19.0049 10.0811C19.0049 10.4062 18.75 10.6611 18.416 10.6611H9.58301ZM10.0312 16.7959C9.37207 16.7959 8.96777 16.4004 8.96777 15.7412V13.5791C8.96777 12.9287 9.37207 12.5244 10.0312 12.5244H12.123C12.791 12.5244 13.1865 12.9287 13.1865 13.5791V15.7412C13.1865 16.4004 12.791 16.7959 12.123 16.7959H10.0312ZM14.918 13.7021C14.5752 13.7021 14.3203 13.4473 14.3203 13.1221C14.3203 12.7881 14.5664 12.5244 14.918 12.5244H18.416C18.75 12.5244 19.0049 12.7881 19.0049 13.1221C19.0049 13.4473 18.75 13.7021 18.416 13.7021H14.918ZM14.918 16.7607C14.5664 16.7607 14.3203 16.5059 14.3203 16.1807C14.3203 15.8467 14.5752 15.583 14.918 15.583H18.416C18.75 15.583 19.0049 15.8467 19.0049 16.1807C19.0049 16.5059 18.75 16.7607 18.416 16.7607H14.918Z" fill="#1C1C1E"/>
</g>
<defs>
<clipPath id="clip0_10_534">
<rect width="24" height="24" fill="white"/>
</clipPath>
</defs>
</svg>
