<svg width="24" height="24" viewBox="0 0 24 24" fill="none" xmlns="http://www.w3.org/2000/svg">
<g clip-path="url(#clip0_10_519)">
<path d="M1.59375 18.3691C1.59375 20.1885 2.5957 21.1816 4.48535 21.1816H19.5059C21.4131 21.1816 22.4062 20.1973 22.4062 18.3164V5.00098C22.4062 3.12012 21.4131 2.13574 19.5059 2.13574H8.51074C6.60352 2.13574 5.61914 3.12012 5.61914 5.00098V8.91211H3.68555C2.37598 8.91211 1.59375 9.65039 1.59375 10.9072V18.3691ZM7.11328 19.4238C7.28027 19.1074 7.36816 18.7295 7.36816 18.2988V5.15918C7.36816 4.31543 7.80762 3.89355 8.625 3.89355H19.3916C20.2178 3.89355 20.6484 4.31543 20.6484 5.15918V18.1582C20.6484 19.002 20.2178 19.4238 19.3916 19.4238H7.11328ZM9.60059 7.62891H18.4336C18.7676 7.62891 19.0225 7.36523 19.0225 7.03125C19.0225 6.70605 18.7676 6.45117 18.4336 6.45117H9.60059C9.24902 6.45117 8.99414 6.70605 8.99414 7.03125C8.99414 7.36523 9.25781 7.62891 9.60059 7.62891ZM9.60059 10.6611H18.4336C18.7676 10.6611 19.0225 10.4062 19.0225 10.0811C19.0225 9.74707 18.7676 9.4834 18.4336 9.4834H9.60059C9.25781 9.4834 8.99414 9.74707 8.99414 10.0811C8.99414 10.4062 9.24902 10.6611 9.60059 10.6611ZM3.34277 18.2725V11.2148C3.34277 10.8721 3.5625 10.6611 3.91406 10.6611H5.61914V18.2725C5.61914 18.9492 5.12695 19.4238 4.48535 19.4238C3.84375 19.4238 3.34277 18.9316 3.34277 18.2725ZM10.0928 16.7607H12.2725C12.958 16.7607 13.3799 16.3477 13.3799 15.6621V13.623C13.3799 12.9463 12.958 12.5244 12.2725 12.5244H10.0928C9.40723 12.5244 8.98535 12.9463 8.98535 13.623V15.6621C8.98535 16.3477 9.40723 16.7607 10.0928 16.7607ZM14.9355 13.7021H18.4336C18.7676 13.7021 19.0225 13.4473 19.0225 13.1221C19.0225 12.7881 18.7676 12.5244 18.4336 12.5244H14.9355C14.584 12.5244 14.3379 12.7881 14.3379 13.1221C14.3379 13.4473 14.5928 13.7021 14.9355 13.7021ZM14.9355 16.7607H18.4336C18.7676 16.7607 19.0225 16.5059 19.0225 16.1807C19.0225 15.8467 18.7676 15.583 18.4336 15.583H14.9355C14.5928 15.583 14.3379 15.8467 14.3379 16.1807C14.3379 16.5059 14.584 16.7607 14.9355 16.7607Z" fill="#1C1C1E"/>
</g>
<defs>
<clipPath id="clip0_10_519">
<rect width="24" height="24" fill="white"/>
</clipPath>
</defs>
</svg>
