<svg width="24" height="24" viewBox="0 0 24 24" fill="none" xmlns="http://www.w3.org/2000/svg">
<g clip-path="url(#clip0_10_446)">
<path d="M5.94434 19.8809H18.0469C19.9541 19.8809 20.9473 18.8965 20.9473 17.0156V6.31934C20.9473 4.43848 19.9541 3.4541 18.0469 3.4541H5.94434C4.0459 3.4541 3.05273 4.42969 3.05273 6.31934V17.0156C3.05273 18.8965 4.0459 19.8809 5.94434 19.8809ZM5.93555 18.1318C5.20605 18.1318 4.80176 17.7539 4.80176 16.9805V8.89453C4.80176 8.12109 5.20605 7.74316 5.93555 7.74316H18.0557C18.7852 7.74316 19.1895 8.12109 19.1895 8.89453V16.9805C19.1895 17.7539 18.7852 18.1318 18.0557 18.1318H5.93555ZM7.43848 10.8984H16.5703C16.8867 10.8984 17.124 10.6523 17.124 10.3271C17.124 10.0195 16.8867 9.78223 16.5703 9.78223H7.43848C7.11328 9.78223 6.87598 10.0195 6.87598 10.3271C6.87598 10.6523 7.11328 10.8984 7.43848 10.8984ZM7.43848 13.4912H16.5703C16.8867 13.4912 17.124 13.2539 17.124 12.9463C17.124 12.6299 16.8867 12.375 16.5703 12.375H7.43848C7.11328 12.375 6.87598 12.6299 6.87598 12.9463C6.87598 13.2539 7.11328 13.4912 7.43848 13.4912ZM7.43848 16.084H13.2041C13.5205 16.084 13.7578 15.8467 13.7578 15.5391C13.7578 15.2227 13.5205 14.9766 13.2041 14.9766H7.43848C7.11328 14.9766 6.87598 15.2227 6.87598 15.5391C6.87598 15.8467 7.11328 16.084 7.43848 16.084Z" fill="#1C1C1E"/>
</g>
<defs>
<clipPath id="clip0_10_446">
<rect width="24" height="24" fill="white"/>
</clipPath>
</defs>
</svg>
