<svg width="24" height="24" viewBox="0 0 24 24" fill="none" xmlns="http://www.w3.org/2000/svg">
<g clip-path="url(#clip0_10_582)">
<path d="M5.33789 10.7402H18.6621C19.5498 10.7402 20.3496 10.9424 21.0439 11.3027L18.873 6.21387C18.293 4.85156 17.1152 4.0957 15.542 4.0957H8.45801C6.87598 4.0957 5.70703 4.85156 5.12695 6.21387L2.94727 11.2939C3.6416 10.9424 4.4502 10.7402 5.33789 10.7402ZM5.33789 19.2305H18.6621C20.8066 19.2305 22.2832 17.7627 22.2832 15.6357C22.2832 13.5 20.8066 12.0322 18.6621 12.0322H5.33789C3.18457 12.0322 1.70801 13.5 1.70801 15.6357C1.70801 17.7627 3.18457 19.2305 5.33789 19.2305ZM5.11816 15.6357C5.11816 15.249 5.42578 14.9326 5.8125 14.9326H18.1963C18.583 14.9326 18.8906 15.249 18.8906 15.6357C18.8906 16.0137 18.583 16.3301 18.1963 16.3301H5.8125C5.42578 16.3301 5.11816 16.0137 5.11816 15.6357Z" fill="#1C1C1E"/>
</g>
<defs>
<clipPath id="clip0_10_582">
<rect width="24" height="24" fill="white"/>
</clipPath>
</defs>
</svg>
