<svg width="24" height="24" viewBox="0 0 24 24" fill="none" xmlns="http://www.w3.org/2000/svg">
<g clip-path="url(#clip0_10_507)">
<path d="M11.9912 20.7422C16.9746 20.7422 21.0879 16.6289 21.0879 11.6543C21.0879 6.67969 16.9658 2.56641 11.9824 2.56641C7.00781 2.56641 2.90332 6.67969 2.90332 11.6543C2.90332 16.6289 7.0166 20.7422 11.9912 20.7422ZM4.73145 11.6543C4.73145 7.62012 7.95703 4.38574 11.9824 4.38574C12.5449 4.38574 13.0898 4.44727 13.6084 4.56152L12.7031 7.6377C12.4834 7.60254 12.2461 7.57617 12.0088 7.57617C9.75879 7.57617 7.9043 9.41309 7.9043 11.6543C7.9043 11.9092 7.93066 12.1553 7.97461 12.4014L4.91602 13.3066C4.79297 12.7793 4.73145 12.2256 4.73145 11.6543ZM13.5908 7.90137L14.4961 4.8252C15.7354 5.27344 16.8164 6.05566 17.6338 7.05762L15.0586 8.95605C14.6543 8.49902 14.1533 8.13867 13.5908 7.90137ZM15.5508 9.63281L18.126 7.74316C18.4248 8.2002 18.6709 8.70117 18.8555 9.22852L15.7969 10.1338C15.7266 9.95801 15.6475 9.7998 15.5508 9.63281ZM12.0088 14.8184C10.2598 14.8184 8.85352 13.4033 8.85352 11.6543C8.85352 9.94043 10.2686 8.52539 12.0088 8.52539C13.7314 8.52539 15.1465 9.93164 15.1465 11.6543C15.1465 13.3945 13.7402 14.8184 12.0088 14.8184ZM12 13.834C13.1865 13.834 14.1621 12.8584 14.1621 11.6631C14.1621 10.4854 13.1865 9.50977 12 9.50977C10.8135 9.50977 9.8291 10.4854 9.8291 11.6631C9.8291 12.8584 10.8135 13.834 12 13.834ZM11.9912 18.9316C11.4551 18.9316 10.9277 18.8701 10.418 18.7559L11.3145 15.7061C11.5342 15.7412 11.7715 15.7676 12.0088 15.7588C14.2588 15.7588 16.0957 13.9219 16.0957 11.6543C16.0957 11.4346 16.0781 11.2236 16.043 11.0127L19.1016 10.1162C19.207 10.6084 19.2686 11.127 19.2686 11.6543C19.2773 15.6885 16.0254 18.9316 11.9912 18.9316ZM12 12.7441C11.4023 12.7441 10.9189 12.2607 10.9189 11.6631C10.9189 11.083 11.4023 10.5908 12.0088 10.5908C12.5889 10.5908 13.0723 11.0742 13.0723 11.6631C13.0723 12.2607 12.5889 12.7529 12 12.7441ZM5.17969 14.1855L8.23828 13.2715C8.30859 13.4385 8.3877 13.6055 8.48438 13.7549L5.90918 15.6445C5.61035 15.1963 5.36426 14.7041 5.17969 14.1855ZM6.41016 16.3301L8.98535 14.4404C9.38965 14.8711 9.87305 15.2227 10.4268 15.4512L9.53027 18.501C8.2998 18.0615 7.22754 17.3057 6.41016 16.3301Z" fill="#1C1C1E"/>
</g>
<defs>
<clipPath id="clip0_10_507">
<rect width="24" height="24" fill="white"/>
</clipPath>
</defs>
</svg>
