<svg width="24" height="24" viewBox="0 0 24 24" fill="none" xmlns="http://www.w3.org/2000/svg">
<g clip-path="url(#clip0_10_573)">
<path d="M1.40039 15.2139C1.40039 17.5781 3.17578 19.3535 5.71582 19.3535H18.2842C20.8242 19.3535 22.5996 17.5781 22.5996 15.2139C22.5996 14.502 22.3975 13.8604 22.1514 13.2803L19.1279 6.19629C18.5127 4.74609 17.291 3.98145 15.6562 3.98145H8.35254C6.70898 3.98145 5.4873 4.74609 4.88086 6.19629L1.875 13.2451C1.62012 13.834 1.40039 14.4844 1.40039 15.2139ZM4.57324 11.2676L6.48926 6.5918C6.78809 5.83594 7.46484 5.44043 8.37012 5.44043H15.6299C16.5439 5.44043 17.2207 5.83594 17.5195 6.5918L19.4355 11.2676C19.084 11.1533 18.6973 11.083 18.2842 11.083H5.71582C5.30273 11.083 4.9248 11.1533 4.57324 11.2676ZM3.08789 15.2139C3.08789 13.8164 4.13379 12.7705 5.71582 12.7705H18.2842C19.8662 12.7705 20.9121 13.8164 20.9121 15.2139C20.9121 16.7607 19.8662 17.6572 18.2842 17.6572H5.71582C4.13379 17.6572 3.08789 16.6201 3.08789 15.2139ZM5.39062 15.2139C5.39062 15.583 5.68066 15.8818 6.0498 15.8818H17.9678C18.3281 15.8818 18.627 15.583 18.627 15.2139C18.627 14.8535 18.3281 14.5547 17.9678 14.5547H6.0498C5.68066 14.5547 5.39062 14.8535 5.39062 15.2139Z" fill="#1C1C1E"/>
</g>
<defs>
<clipPath id="clip0_10_573">
<rect width="24" height="24" fill="white"/>
</clipPath>
</defs>
</svg>
