<svg width="24" height="24" viewBox="0 0 24 24" fill="none" xmlns="http://www.w3.org/2000/svg">
<g clip-path="url(#clip0_10_465)">
<path d="M12.7646 20.6719C16.667 20.6719 19.2686 19.2832 19.2686 17.2178C19.2686 15.4248 17.8008 15.0557 17.8008 14.0098C17.8008 12.5771 22.9072 12.3486 22.9072 8.62207C22.9072 4.93066 19.0928 2.4873 13.4238 2.4873C6.0498 2.4873 1.08398 6.23145 1.08398 11.7246C1.08398 17.0771 5.79492 20.6719 12.7646 20.6719ZM12.7646 18.791C6.8584 18.791 2.95605 15.9609 2.95605 11.7246C2.95605 7.30371 7.10449 4.35938 13.4238 4.35938C18.0117 4.35938 21.0352 6.08203 21.0352 8.62207C21.0352 11.6016 15.9023 11.2764 15.9023 13.9395C15.9023 15.46 17.3789 15.873 17.3789 16.9629C17.3789 18.0703 15.5508 18.791 12.7646 18.791ZM13.4502 8.72754C14.2676 8.72754 14.918 8.07715 14.918 7.26855C14.918 6.45117 14.2676 5.80078 13.4502 5.80078C12.6416 5.80078 11.9736 6.45117 11.9736 7.26855C11.9736 8.07715 12.6416 8.72754 13.4502 8.72754ZM9.06445 10.125C10.0664 10.125 10.8838 9.3252 10.8838 8.30566C10.8838 7.30371 10.0576 6.50391 9.06445 6.50391C8.05371 6.50391 7.23633 7.30371 7.23633 8.30566C7.23633 9.3252 8.05371 10.125 9.06445 10.125ZM17.4053 9.28125C18.0557 9.28125 18.583 8.7627 18.583 8.09473C18.583 7.43555 18.0557 6.89941 17.4053 6.89941C16.7373 6.89941 16.2012 7.43555 16.2012 8.09473C16.2012 8.75391 16.7373 9.28125 17.4053 9.28125ZM5.90918 12.9023C6.70898 12.9023 7.35938 12.2344 7.35938 11.4346C7.35938 10.6348 6.71777 9.99316 5.90918 9.99316C5.10938 9.99316 4.45898 10.6348 4.45898 11.4346C4.45898 12.2344 5.11816 12.9023 5.90918 12.9023ZM12.0088 16.7871C13.3975 16.7871 14.4961 15.6885 14.4961 14.2998C14.4961 12.9375 13.3799 11.8125 12.0088 11.8125C10.6377 11.8125 9.52148 12.9375 9.52148 14.2998C9.52148 15.6709 10.6377 16.7871 12.0088 16.7871ZM12.0088 15.627C11.2705 15.627 10.6816 15.0381 10.6816 14.291C10.6816 13.4736 11.3057 12.9902 11.9824 12.9814C12.6855 12.9727 13.3359 13.4473 13.3359 14.291C13.3359 15.0381 12.7471 15.627 12.0088 15.627Z" fill="#1C1C1E"/>
</g>
<defs>
<clipPath id="clip0_10_465">
<rect width="24" height="24" fill="white"/>
</clipPath>
</defs>
</svg>
