<svg width="24" height="24" viewBox="0 0 24 24" fill="none" xmlns="http://www.w3.org/2000/svg">
<g clip-path="url(#clip0_10_562)">
<path d="M12.7646 20.5928C16.623 20.5928 19.207 19.2217 19.207 17.1738C19.207 15.3984 17.7568 15.0293 17.7568 13.9922C17.7568 12.5684 22.8193 12.3398 22.8193 8.64844C22.8193 4.9834 19.04 2.56641 13.4062 2.56641C6.09375 2.56641 1.17188 6.2666 1.17188 11.7246C1.17188 17.0332 5.84766 20.5928 12.7646 20.5928ZM13.6611 8.23535C12.8438 8.23535 12.1582 7.57617 12.1582 6.75C12.1582 5.91504 12.8438 5.24707 13.6611 5.24707C14.4961 5.24707 15.1553 5.91504 15.1553 6.75C15.1553 7.57617 14.4961 8.23535 13.6611 8.23535ZM8.8623 9.67676C7.83398 9.67676 6.99902 8.85938 6.99902 7.81348C6.99902 6.79395 7.83398 5.98535 8.8623 5.98535C9.88184 5.98535 10.7168 6.79395 10.7168 7.81348C10.7168 8.85938 9.88184 9.67676 8.8623 9.67676ZM17.9326 9C17.2559 9 16.7021 8.46387 16.7021 7.78711C16.7021 7.11914 17.2559 6.56543 17.9326 6.56543C18.6006 6.56543 19.1367 7.13672 19.1367 7.78711C19.1367 8.44629 18.6006 9 17.9326 9ZM5.39941 12.8496C4.58203 12.8496 3.91406 12.1729 3.91406 11.3555C3.91406 10.5557 4.6084 9.87891 5.39941 9.87891C6.2168 9.87891 6.87598 10.5381 6.87598 11.3555C6.87598 12.1729 6.20801 12.8496 5.39941 12.8496ZM12.6328 17.1826C11.2793 17.1826 10.1719 16.0752 10.1719 14.7129C10.1719 13.3594 11.2793 12.2432 12.6328 12.2432C13.9951 12.2432 15.1025 13.3594 15.1025 14.7129C15.1025 16.0928 14.0215 17.1826 12.6328 17.1826Z" fill="#1C1C1E"/>
</g>
<defs>
<clipPath id="clip0_10_562">
<rect width="24" height="24" fill="white"/>
</clipPath>
</defs>
</svg>
