<svg width="24" height="24" viewBox="0 0 24 24" fill="none" xmlns="http://www.w3.org/2000/svg">
<g clip-path="url(#clip0_10_632)">
<path d="M3.65039 21.1553C5.17969 22.6846 6.97266 22.7021 8.47559 21.1992C9.52148 20.1533 10.6113 17.7363 11.4287 16.7168L13.2568 18.5537C13.9951 19.3008 14.9004 19.3008 15.6211 18.5801L16.7812 17.4111C17.3613 16.8311 17.4756 16.1455 17.1064 15.5127L20.7451 11.874C21.7734 10.8457 21.7471 9.61523 20.7012 8.56934L13.793 1.65234C12.7822 0.641602 11.0947 1.05469 10.752 2.5752C10.0488 5.625 9.91699 6.3457 9.1084 7.60254C8.52832 7.35645 7.91309 7.49707 7.38574 8.02441L6.22559 9.18457C5.50488 9.90527 5.50488 10.8018 6.25195 11.5488L8.08008 13.377C7.07812 14.1943 4.65234 15.2842 3.60645 16.3301C2.10352 17.833 2.1123 19.626 3.65039 21.1553ZM15.085 10.9863C15.5156 11.417 17.8271 10.1777 18.8291 9.09668L19.4619 9.7207C19.8223 10.0898 19.8223 10.4941 19.4795 10.8369L16.0078 14.3174L10.3828 8.68359C11.376 7.1543 11.5605 6.03809 12.2637 3.44531C12.3604 3.05859 12.6768 2.95312 12.9404 3.2168L17.0186 7.29492C16.79 8.69238 16.0254 9.72949 15.1025 10.6523C14.9883 10.7578 15.0059 10.9072 15.085 10.9863ZM7.6582 10.1514L8.34375 9.4834C8.53711 9.29004 8.74805 9.28125 8.9502 9.4834L15.3223 15.8555C15.5156 16.0488 15.5156 16.2686 15.3135 16.4619L14.6543 17.1387C14.4521 17.3408 14.2324 17.3496 14.0303 17.1475L11.9209 15.0205C11.5605 14.6602 11.0771 14.6953 10.6641 15.0908C9.97852 15.7676 8.7832 18.6416 7.38574 20.0391C6.58594 20.8477 5.61914 20.8389 4.78418 20.0215C3.9668 19.1865 3.9668 18.2109 4.7666 17.4199C6.17285 16.0225 9.03809 14.8271 9.71484 14.1416C10.1104 13.7285 10.1455 13.2451 9.78516 12.8848L7.6582 10.7666C7.46484 10.5645 7.46484 10.3535 7.6582 10.1514ZM6.06738 19.793C6.63867 19.793 7.10449 19.3271 7.10449 18.7559C7.10449 18.1846 6.63867 17.71 6.06738 17.71C5.4873 17.71 5.02148 18.1846 5.02148 18.7559C5.02148 19.3271 5.4873 19.793 6.06738 19.793Z" fill="#1C1C1E"/>
</g>
<defs>
<clipPath id="clip0_10_632">
<rect width="24" height="24" fill="white"/>
</clipPath>
</defs>
</svg>
