<svg width="24" height="24" viewBox="0 0 24 24" fill="none" xmlns="http://www.w3.org/2000/svg">
<g clip-path="url(#clip0_10_557)">
<path d="M17.9062 12.1289L11.4111 18.624C9.76758 20.2764 7.55273 20.1182 6.1377 18.6943C4.70508 17.2705 4.54688 15.0732 6.20801 13.4121L15.085 4.53516C16.0518 3.56836 17.4932 3.40137 18.4336 4.3418C19.374 5.29102 19.1982 6.72363 18.2314 7.68164L9.52148 16.4092C9.13477 16.8047 8.67773 16.6904 8.39648 16.4268C8.1416 16.1543 8.03613 15.6973 8.42285 15.3018L14.4961 9.22852C14.8037 8.91211 14.8213 8.45508 14.5225 8.15625C14.2236 7.875 13.7666 7.88379 13.459 8.19141L7.35938 14.291C6.41016 15.2402 6.44531 16.6904 7.28906 17.5342C8.20312 18.4482 9.58301 18.4219 10.5322 17.4727L19.2861 8.70996C20.9912 7.01367 20.9297 4.77246 19.4355 3.27832C17.9678 1.81934 15.6914 1.71387 13.9863 3.41895L5.05664 12.3574C2.83301 14.5898 2.98242 17.7891 5.0127 19.8193C7.03418 21.832 10.2422 21.9902 12.4658 19.7666L19.0049 13.2363C19.3037 12.9375 19.3037 12.3926 18.9961 12.1113C18.7061 11.7949 18.2139 11.8389 17.9062 12.1289Z" fill="#1C1C1E"/>
</g>
<defs>
<clipPath id="clip0_10_557">
<rect width="24" height="24" fill="white"/>
</clipPath>
</defs>
</svg>
