<svg width="24" height="24" viewBox="0 0 24 24" fill="none" xmlns="http://www.w3.org/2000/svg">
<g clip-path="url(#clip0_10_551)">
<path d="M11.9912 20.7598C16.9746 20.7598 21.0879 16.6465 21.0879 11.6631C21.0879 6.68848 16.9658 2.5752 11.9824 2.5752C7.00781 2.5752 2.90332 6.68848 2.90332 11.6631C2.90332 16.6465 7.0166 20.7598 11.9912 20.7598ZM15.1641 11.7949C15.3662 11.584 15.7178 11.584 15.9199 11.7773C16.1309 11.9707 16.1221 12.3398 15.9199 12.5332L12.2988 16.1543C11.0684 17.376 9.30176 17.4023 8.04492 16.1719C6.84082 14.9854 6.84082 13.1484 8.07129 11.9092L13.002 6.96973C13.96 6.02051 15.2607 6.00293 16.166 6.89941C17.0625 7.78711 17.0361 9.0791 16.0781 10.0459L11.2441 14.8711C10.6729 15.4424 9.83789 15.4775 9.31055 14.9238C8.79199 14.3877 8.80078 13.5176 9.35449 12.9639L12.7119 9.60645C12.9229 9.38672 13.2305 9.37793 13.4502 9.58887C13.6699 9.80859 13.6523 10.1074 13.4238 10.3271L10.084 13.6758C9.91699 13.834 9.91699 14.0273 10.0664 14.1592C10.2158 14.291 10.3828 14.291 10.5322 14.1328L15.3486 9.33398C15.8584 8.81543 15.9199 8.1123 15.4453 7.6377C14.9795 7.18066 14.2588 7.22461 13.749 7.73438L8.85352 12.6299C8.02734 13.4648 8.01855 14.6162 8.81836 15.4072C9.60938 16.1895 10.7607 16.1895 11.5869 15.3633L15.1641 11.7949Z" fill="#1C1C1E"/>
</g>
<defs>
<clipPath id="clip0_10_551">
<rect width="24" height="24" fill="white"/>
</clipPath>
</defs>
</svg>
