<svg width="24" height="24" viewBox="0 0 24 24" fill="none" xmlns="http://www.w3.org/2000/svg">
<g clip-path="url(#clip0_10_658)">
<path d="M11.9912 20.7422C16.9746 20.7422 21.0879 16.6289 21.0879 11.6543C21.0879 6.67969 16.9658 2.56641 11.9824 2.56641C7.00781 2.56641 2.90332 6.67969 2.90332 11.6543C2.90332 16.6289 7.0166 20.7422 11.9912 20.7422ZM11.9912 18.9316C7.95703 18.9316 4.73145 15.6885 4.73145 11.6543C4.73145 7.62012 7.95703 4.38574 11.9824 4.38574C16.0166 4.38574 19.2598 7.62012 19.2686 11.6543C19.2773 15.6885 16.0254 18.9316 11.9912 18.9316ZM12.1934 17.3145C12.5537 17.3145 12.8086 17.0244 12.9844 16.5762L16.1484 8.28809C16.2363 8.07715 16.2803 7.89258 16.2803 7.72559C16.2803 7.3916 16.0693 7.18066 15.7354 7.18066C15.5684 7.18066 15.3838 7.22461 15.1729 7.3125L6.84961 10.4941C6.44531 10.6436 6.14648 10.8984 6.14648 11.2764C6.14648 11.7246 6.47168 11.8916 6.94629 12.041L9.44238 12.7969C9.78516 12.9023 9.97852 12.9023 10.207 12.6826L15.5332 7.73438C15.6035 7.67285 15.6826 7.68164 15.7354 7.72559C15.7969 7.77832 15.7881 7.85742 15.7266 7.92773L10.7959 13.2715C10.5938 13.4824 10.5674 13.6846 10.6641 14.0273L11.4111 16.4707C11.5693 16.9629 11.7275 17.3145 12.1934 17.3145Z" fill="#1C1C1E"/>
</g>
<defs>
<clipPath id="clip0_10_658">
<rect width="24" height="24" fill="white"/>
</clipPath>
</defs>
</svg>
