<svg width="24" height="24" viewBox="0 0 24 24" fill="none" xmlns="http://www.w3.org/2000/svg">
<g clip-path="url(#clip0_10_668)">
<path d="M13.3359 21.4102C14.0215 21.4102 14.4961 20.8564 14.8213 20.0127L20.6221 4.83398C20.7715 4.44727 20.8594 4.10449 20.8594 3.80566C20.8594 3.18164 20.4639 2.78613 19.8311 2.78613C19.541 2.78613 19.1895 2.86523 18.8027 3.01465L3.5625 8.85059C2.80664 9.14062 2.23535 9.61523 2.23535 10.3008C2.23535 11.1357 2.85938 11.4521 3.7207 11.7158L8.27344 13.1045C8.88867 13.2979 9.24902 13.2891 9.67969 12.8848L19.4707 3.81445C19.5938 3.7002 19.7432 3.71777 19.8398 3.80566C19.9365 3.89355 19.9365 4.05176 19.8311 4.16602L10.7783 13.9746C10.4092 14.3877 10.374 14.7744 10.5586 15.3896L11.9121 19.8545C12.1758 20.751 12.4922 21.4102 13.3359 21.4102Z" fill="#1C1C1E"/>
</g>
<defs>
<clipPath id="clip0_10_668">
<rect width="24" height="24" fill="white"/>
</clipPath>
</defs>
</svg>
