<svg width="24" height="24" viewBox="0 0 24 24" fill="none" xmlns="http://www.w3.org/2000/svg">
<g clip-path="url(#clip0_10_419)">
<path d="M11.9912 20.7422C16.9746 20.7422 21.0879 16.6289 21.0879 11.6543C21.0879 6.67969 16.9658 2.56641 11.9824 2.56641C7.00781 2.56641 2.90332 6.67969 2.90332 11.6543C2.90332 16.6289 7.0166 20.7422 11.9912 20.7422ZM11.9912 18.9316C7.95703 18.9316 4.73145 15.6885 4.73145 11.6543C4.73145 7.62012 7.95703 4.38574 11.9824 4.38574C16.0166 4.38574 19.2598 7.62012 19.2686 11.6543C19.2773 15.6885 16.0254 18.9316 11.9912 18.9316ZM15.041 11.7773L11.5957 15.2227C10.8047 16.0137 9.68848 16.0137 8.93262 15.2578C8.15918 14.502 8.16797 13.3945 8.96777 12.5859L13.6787 7.875C14.1621 7.3916 14.8564 7.33887 15.3047 7.78711C15.7705 8.24414 15.709 8.91211 15.208 9.41309L10.585 14.0361C10.4355 14.1943 10.2686 14.1855 10.1279 14.0537C9.9873 13.9307 9.9873 13.7373 10.1455 13.5967L13.3623 10.3711C13.582 10.1514 13.5996 9.87012 13.3887 9.65918C13.1777 9.45703 12.8877 9.46582 12.6768 9.67676L9.45117 12.9199C8.91504 13.4473 8.90625 14.2734 9.39844 14.7832C9.91699 15.3193 10.7168 15.293 11.2617 14.748L15.9111 10.0986C16.834 9.17578 16.8604 7.92773 15.999 7.0752C15.1289 6.21387 13.8809 6.23145 12.958 7.14551L8.21191 11.8916C7.02539 13.0869 7.03418 14.8447 8.18555 15.9961C9.39844 17.1738 11.0947 17.1562 12.2812 15.9697L15.7617 12.498C15.9551 12.3047 15.9639 11.9531 15.7617 11.7686C15.5684 11.584 15.2344 11.584 15.041 11.7773Z" fill="#1C1C1E"/>
</g>
<defs>
<clipPath id="clip0_10_419">
<rect width="24" height="24" fill="white"/>
</clipPath>
</defs>
</svg>
