<svg width="24" height="24" viewBox="0 0 24 24" fill="none" xmlns="http://www.w3.org/2000/svg">
<g clip-path="url(#clip0_10_662)">
<path d="M13.3359 21.4805C14.0215 21.4805 14.4961 20.9268 14.8213 20.083L20.6221 4.91309C20.7715 4.51758 20.8594 4.1748 20.8594 3.87598C20.8594 3.25195 20.4639 2.85645 19.8311 2.85645C19.541 2.85645 19.1895 2.93555 18.8027 3.08496L3.5625 8.9209C2.80664 9.21094 2.23535 9.68555 2.23535 10.3711C2.23535 11.2148 2.85938 11.5312 3.7207 11.7861L10.0664 13.6494L11.9121 19.9248C12.1758 20.8213 12.4922 21.4805 13.3359 21.4805ZM10.5762 12.0322L5.11816 10.3623C4.98633 10.3271 4.95117 10.2832 4.95117 10.2305C4.95117 10.1689 4.98633 10.1162 5.10059 10.0811L15.5332 6.09082C16.2803 5.80078 17.0098 5.44922 17.8096 5.08008C17.1768 5.58984 16.4033 6.21387 15.876 6.74121L10.5762 12.0322ZM13.4941 18.7734C13.4326 18.7734 13.3887 18.7207 13.3535 18.5977L11.6836 13.1396L16.9746 7.83984C17.4844 7.32129 18.1348 6.52148 18.6445 5.87988C18.2754 6.68848 17.915 7.42676 17.625 8.18262L13.6348 18.6152C13.5908 18.7295 13.5557 18.7734 13.4941 18.7734Z" fill="#1C1C1E"/>
</g>
<defs>
<clipPath id="clip0_10_662">
<rect width="24" height="24" fill="white"/>
</clipPath>
</defs>
</svg>
