<svg width="24" height="24" viewBox="0 0 24 24" fill="none" xmlns="http://www.w3.org/2000/svg">
<g clip-path="url(#clip0_10_664)">
<path d="M11.9912 20.9795C16.9746 20.9795 21.0879 16.8662 21.0879 11.8916C21.0879 6.91699 16.9658 2.80371 11.9824 2.80371C7.00781 2.80371 2.90332 6.91699 2.90332 11.8916C2.90332 16.8662 7.0166 20.9795 11.9912 20.9795ZM12.2197 17.7451C11.7539 17.7451 11.5781 17.376 11.4199 16.8662L10.6465 14.335C10.5498 13.9834 10.5674 13.7725 10.7871 13.5439L15.9023 7.98926C15.9639 7.91895 15.9727 7.83984 15.9111 7.77832C15.8496 7.73438 15.7793 7.72559 15.7002 7.78711L10.1631 12.9375C9.91699 13.1572 9.72363 13.1572 9.37207 13.0518L6.7793 12.2607C6.28711 12.1113 5.94434 11.9355 5.94434 11.4697C5.94434 11.0742 6.26074 10.8105 6.68262 10.6523L15.3311 7.33887C15.5508 7.25977 15.7354 7.21582 15.9111 7.21582C16.2539 7.21582 16.4736 7.43555 16.4736 7.77832C16.4736 7.9541 16.4297 8.13867 16.3506 8.3584L13.0547 16.9717C12.8789 17.4463 12.6064 17.7451 12.2197 17.7451Z" fill="#1C1C1E"/>
</g>
<defs>
<clipPath id="clip0_10_664">
<rect width="24" height="24" fill="white"/>
</clipPath>
</defs>
</svg>
