<svg width="24" height="24" viewBox="0 0 24 24" fill="none" xmlns="http://www.w3.org/2000/svg">
<g clip-path="url(#clip0_10_689)">
<path d="M11.9912 20.7598C16.9746 20.7598 21.0879 16.6465 21.0879 11.6631C21.0879 6.68848 16.9658 2.5752 11.9824 2.5752C7.00781 2.5752 2.90332 6.68848 2.90332 11.6631C2.90332 16.6465 7.0166 20.7598 11.9912 20.7598ZM15.5596 9.22852L14.3818 8.05078L15.041 7.3916C15.3662 7.0752 15.7354 7.04883 16.0342 7.34766L16.2539 7.56738C16.5527 7.86621 16.5439 8.24414 16.2188 8.56934L15.5596 9.22852ZM9.17871 15.5918L7.92188 16.0664C7.66699 16.1543 7.38574 15.9082 7.50879 15.627L8.00977 14.4141L13.8281 8.5957L15.0059 9.77344L9.17871 15.5918Z" fill="#1C1C1E"/>
</g>
<defs>
<clipPath id="clip0_10_689">
<rect width="24" height="24" fill="white"/>
</clipPath>
</defs>
</svg>
