<svg width="24" height="24" viewBox="0 0 24 24" fill="none" xmlns="http://www.w3.org/2000/svg">
<g clip-path="url(#clip0_10_703)">
<path d="M18.0117 7.49707L18.9697 6.54785C19.4443 6.07324 19.4619 5.55469 19.0312 5.11523L18.6885 4.77246C18.2578 4.3418 17.7217 4.37695 17.2559 4.84277L16.2979 5.7832L18.0117 7.49707ZM17.8535 17.6924C18.126 17.9648 18.5742 17.9648 18.8379 17.6924C19.1104 17.4111 19.1191 16.9717 18.8379 16.6992L7.2627 5.12402C6.99023 4.85156 6.5332 4.85156 6.26953 5.12402C6.00586 5.39648 6.00586 5.85352 6.26953 6.11719L17.8535 17.6924ZM14.5928 10.8984L17.168 8.32324L15.4629 6.62695L12.8877 9.19336L14.5928 10.8984ZM7.24512 18.2461L12.0615 13.4297L10.3564 11.7246L5.54004 16.5322L4.6875 18.6064C4.58203 18.8701 4.85449 19.1514 5.11816 19.0635L7.24512 18.2461Z" fill="#1C1C1E"/>
</g>
<defs>
<clipPath id="clip0_10_703">
<rect width="24" height="24" fill="white"/>
</clipPath>
</defs>
</svg>
