<svg width="24" height="24" viewBox="0 0 24 24" fill="none" xmlns="http://www.w3.org/2000/svg">
<g clip-path="url(#clip0_10_727)">
<path d="M11.9912 20.7422C16.9746 20.7422 21.0879 16.6289 21.0879 11.6543C21.0879 6.67969 16.9658 2.56641 11.9824 2.56641C7.00781 2.56641 2.90332 6.67969 2.90332 11.6543C2.90332 16.6289 7.0166 20.7422 11.9912 20.7422ZM11.3672 7.66406L9.89941 11.9531C9.45117 11.9531 9.06445 12.3135 8.9502 12.7969L7.85156 17.6396C5.96191 16.3301 4.73145 14.1416 4.73145 11.6543C4.73145 7.62012 7.95703 4.38574 11.9824 4.38574C16.0166 4.38574 19.2598 7.62012 19.2686 11.6543C19.2686 14.1416 18.0381 16.3213 16.1484 17.6396L15.0498 12.8057C14.9355 12.3311 14.5664 11.9707 14.1006 11.9531L12.624 7.66406C12.4131 7.05762 11.5781 7.05762 11.3672 7.66406ZM11.9912 18.9316C10.9541 18.9316 9.96973 18.7119 9.07324 18.3252L10.2158 13.2539H13.7842L14.9268 18.3164C14.0303 18.7119 13.0371 18.9316 11.9912 18.9316Z" fill="#1C1C1E"/>
</g>
<defs>
<clipPath id="clip0_10_727">
<rect width="24" height="24" fill="white"/>
</clipPath>
</defs>
</svg>
