<svg width="24" height="24" viewBox="0 0 24 24" fill="none" xmlns="http://www.w3.org/2000/svg">
<g clip-path="url(#clip0_10_434)">
<path d="M4.46777 14.8623H5.10938C5.03906 14.3086 4.99512 13.7109 5.08301 13.1924H4.57324C2.48145 13.1924 0.996094 11.7246 0.996094 9.61523C0.996094 7.52344 2.48145 6.03809 4.57324 6.03809H12.334C14.4258 6.03809 15.9111 7.52344 15.9111 9.61523C15.9111 11.7246 14.4258 13.1924 12.334 13.1924H9.64453C9.22266 13.4736 9.25781 14.5283 9.80273 14.8623H12.4395C15.4893 14.8623 17.6689 12.709 17.6689 9.61523C17.6689 6.53027 15.4893 4.37695 12.4395 4.37695H4.46777C1.41797 4.37695 -0.761719 6.53027 -0.761719 9.61523C-0.761719 12.709 1.41797 14.8623 4.46777 14.8623ZM11.5518 19.0195H19.5146C22.5732 19.0195 24.7529 16.8662 24.7529 13.7812C24.7529 10.6875 22.5732 8.53418 19.5146 8.53418H18.8818C18.9521 9.08789 18.9961 9.68555 18.9082 10.2041H19.418C21.5098 10.2041 22.9951 11.6719 22.9951 13.7812C22.9951 15.873 21.5098 17.3584 19.418 17.3584H11.6572C9.56543 17.3584 8.08008 15.873 8.08008 13.7812C8.08008 11.6719 9.56543 10.2041 11.6572 10.2041H14.3467C14.7686 9.92285 14.7334 8.86816 14.1885 8.53418H11.5518C8.49316 8.53418 6.32227 10.6875 6.32227 13.7812C6.32227 16.8662 8.49316 19.0195 11.5518 19.0195Z" fill="#1C1C1E"/>
</g>
<defs>
<clipPath id="clip0_10_434">
<rect width="24" height="24" fill="white"/>
</clipPath>
</defs>
</svg>
