<svg width="24" height="24" viewBox="0 0 24 24" fill="none" xmlns="http://www.w3.org/2000/svg">
<g clip-path="url(#clip0_10_636)">
<path d="M18.4248 12.2344V3.4541H19.5146C21.4219 3.4541 22.415 4.43848 22.415 6.31934V17.0156C22.415 18.8965 21.4219 19.8809 19.5146 19.8809H17.4141V13.0957H17.625C18.0293 13.0957 18.4248 12.8584 18.4248 12.2344ZM15.5684 12.2344C15.5684 12.8584 15.9551 13.0957 16.3682 13.0957H16.5703V19.8809H12.4219V13.0957H12.624C13.0371 13.0957 13.4238 12.8584 13.4238 12.2344V3.4541H15.5684V12.2344ZM10.5674 12.2344C10.5674 12.8584 10.9805 13.0957 11.376 13.0957H11.5781V19.8809H7.4209V13.0957H7.62305C8.03613 13.0957 8.43164 12.8584 8.43164 12.2344V3.4541H10.5674V12.2344ZM4.47656 19.8809C2.57812 19.8809 1.58496 18.8965 1.58496 17.0156V6.31934C1.58496 4.42969 2.57812 3.4541 4.47656 3.4541H5.5752V12.2344C5.5752 12.8584 5.96191 13.0957 6.375 13.0957H6.57715V19.8809H4.47656Z" fill="#1C1C1E"/>
</g>
<defs>
<clipPath id="clip0_10_636">
<rect width="24" height="24" fill="white"/>
</clipPath>
</defs>
</svg>
