<svg width="24" height="24" viewBox="0 0 24 24" fill="none" xmlns="http://www.w3.org/2000/svg">
<g clip-path="url(#clip0_10_447)">
<path d="M6.42773 15.6885H11.1211V19.8545C11.1211 21.0762 11.7539 22.333 12 22.333C12.2373 22.333 12.8701 21.0762 12.8701 19.8545V15.6885H17.5723C18.4072 15.6885 18.9434 15.1611 18.9434 14.3613C18.9434 12.4629 17.4404 10.5996 15.1377 9.67676L14.8564 5.51074C15.9902 4.77246 17.0273 3.94629 17.4756 3.36621C17.7129 3.0498 17.8271 2.7334 17.8271 2.45215C17.8271 1.87207 17.3877 1.44141 16.7197 1.44141H7.27148C6.6123 1.44141 6.16406 1.87207 6.16406 2.45215C6.16406 2.7334 6.27832 3.0498 6.51562 3.36621C6.96387 3.94629 8.00977 4.77246 9.13477 5.51074L8.85352 9.67676C6.55957 10.5996 5.04785 12.4629 5.04785 14.3613C5.04785 15.1611 5.59277 15.6885 6.42773 15.6885ZM12 9.0791C11.4639 9.0791 10.9453 9.13184 10.4531 9.21973L10.7168 4.80762C10.7256 4.6582 10.6992 4.58789 10.585 4.53516C9.40723 3.92871 8.49316 3.22559 8.34375 3.02344C8.27344 2.92676 8.33496 2.84766 8.43164 2.84766H15.5596C15.6562 2.84766 15.7178 2.92676 15.6475 3.02344C15.498 3.22559 14.584 3.92871 13.4062 4.53516C13.292 4.58789 13.2656 4.6582 13.2744 4.80762L13.5381 9.21973C13.0459 9.13184 12.5273 9.0791 12 9.0791ZM6.83203 14.1855C6.65625 14.1855 6.57715 14.0889 6.6123 13.8779C6.82324 12.3047 8.89746 10.5381 12 10.5381C15.0938 10.5381 17.168 12.3047 17.3877 13.8779C17.4141 14.0889 17.335 14.1855 17.1592 14.1855H6.83203Z" fill="#1C1C1E"/>
</g>
<defs>
<clipPath id="clip0_10_447">
<rect width="24" height="24" fill="white"/>
</clipPath>
</defs>
</svg>
