<svg width="24" height="24" viewBox="0 0 24 24" fill="none" xmlns="http://www.w3.org/2000/svg">
<g clip-path="url(#clip0_10_441)">
<path d="M11.9912 20.7422C16.9746 20.7422 21.0879 16.6289 21.0879 11.6543C21.0879 6.67969 16.9658 2.56641 11.9824 2.56641C7.00781 2.56641 2.90332 6.67969 2.90332 11.6543C2.90332 16.6289 7.0166 20.7422 11.9912 20.7422ZM11.9912 18.9316C7.95703 18.9316 4.73145 15.6885 4.73145 11.6543C4.73145 7.62012 7.95703 4.38574 11.9824 4.38574C16.0166 4.38574 19.2598 7.62012 19.2686 11.6543C19.2773 15.6885 16.0254 18.9316 11.9912 18.9316ZM8.53711 13.2891C8.53711 13.6846 8.80078 13.9395 9.20508 13.9395H11.4023V15.4775C11.4023 16.3389 11.8242 17.1914 11.9912 17.1914C12.167 17.1914 12.5801 16.3389 12.5801 15.4775V13.9395H14.7773C15.1816 13.9395 15.4453 13.6846 15.4453 13.2891C15.4453 12.3662 14.6631 11.3994 13.4414 10.96L13.3008 8.93848C13.9336 8.57812 14.4434 8.18262 14.6719 7.89258C14.7861 7.73438 14.8477 7.57617 14.8477 7.43555C14.8477 7.14551 14.6279 6.94336 14.3115 6.94336H9.67969C9.35449 6.94336 9.13477 7.14551 9.13477 7.43555C9.13477 7.57617 9.20508 7.74316 9.32812 7.90137C9.55664 8.18262 10.0576 8.58691 10.6904 8.93848L10.541 10.96C9.32812 11.3994 8.53711 12.3662 8.53711 13.2891Z" fill="#1C1C1E"/>
</g>
<defs>
<clipPath id="clip0_10_441">
<rect width="24" height="24" fill="white"/>
</clipPath>
</defs>
</svg>
