<svg width="24" height="24" viewBox="0 0 24 24" fill="none" xmlns="http://www.w3.org/2000/svg">
<g clip-path="url(#clip0_10_444)">
<path d="M5.04785 14.3613C5.04785 15.1611 5.59277 15.6885 6.42773 15.6885H11.1211V19.8545C11.1211 21.0762 11.7539 22.333 12 22.333C12.2373 22.333 12.8701 21.0762 12.8701 19.8545V15.6885H17.5723C18.4072 15.6885 18.9434 15.1611 18.9434 14.3613C18.9434 12.4629 17.4404 10.5205 14.9531 9.60645L14.6719 5.51074C15.9814 4.77246 17.0186 3.95508 17.4668 3.36621C17.7129 3.05859 17.8271 2.7334 17.8271 2.45215C17.8271 1.87207 17.3877 1.44141 16.7197 1.44141H7.27148C6.6123 1.44141 6.16406 1.87207 6.16406 2.45215C6.16406 2.7334 6.27832 3.05859 6.52441 3.36621C6.97266 3.95508 8.00977 4.77246 9.31934 5.51074L9.03809 9.60645C6.55078 10.5205 5.04785 12.4629 5.04785 14.3613Z" fill="#1C1C1E"/>
</g>
<defs>
<clipPath id="clip0_10_444">
<rect width="24" height="24" fill="white"/>
</clipPath>
</defs>
</svg>
