<svg width="24" height="24" viewBox="0 0 24 24" fill="none" xmlns="http://www.w3.org/2000/svg">
<g clip-path="url(#clip0_10_436)">
<path d="M11.9912 20.7598C16.9746 20.7598 21.0879 16.6465 21.0879 11.6631C21.0879 6.68848 16.9658 2.5752 11.9824 2.5752C7.00781 2.5752 2.90332 6.68848 2.90332 11.6631C2.90332 16.6465 7.0166 20.7598 11.9912 20.7598ZM8.40527 13.3418C8.40527 12.375 9.21387 11.3818 10.4883 10.916L10.6289 8.82422C9.97852 8.44629 9.45117 8.04199 9.21387 7.74316C9.09082 7.57617 9.02051 7.40918 9.02051 7.25098C9.02051 6.95215 9.24902 6.74121 9.58301 6.74121H14.3994C14.7334 6.74121 14.9707 6.95215 14.9707 7.25098C14.9707 7.40918 14.9004 7.56738 14.7773 7.73438C14.54 8.0332 14.0127 8.44629 13.3535 8.82422L13.5029 10.916C14.7686 11.3818 15.5771 12.375 15.5771 13.3418C15.5771 13.7549 15.3047 14.0186 14.8916 14.0186H12.6064V15.6182C12.6064 16.5059 12.1758 17.4023 11.9912 17.4023C11.8066 17.4023 11.376 16.5059 11.376 15.6182V14.0186H9.09082C8.67773 14.0186 8.40527 13.7549 8.40527 13.3418Z" fill="#1C1C1E"/>
</g>
<defs>
<clipPath id="clip0_10_436">
<rect width="24" height="24" fill="white"/>
</clipPath>
</defs>
</svg>
