<svg width="24" height="24" viewBox="0 0 24 24" fill="none" xmlns="http://www.w3.org/2000/svg">
<g clip-path="url(#clip0_10_428)">
<path d="M7.28027 1.44141C6.6123 1.44141 6.16406 1.87207 6.16406 2.45215C6.16406 2.7334 6.27832 3.0498 6.51562 3.35742C6.96387 3.9375 8.00977 4.77246 9.28418 5.51074L9.22266 6.52148L18.2314 15.5391C18.6885 15.3369 18.9521 14.915 18.9521 14.3613C18.9521 12.4629 17.4492 10.5205 15.0059 9.60645L14.7158 5.51074C15.9902 4.77246 17.0186 3.95508 17.4756 3.375C17.7217 3.05859 17.8359 2.74219 17.8359 2.45215C17.8359 1.87207 17.3877 1.44141 16.7285 1.44141H7.28027ZM19.2422 20.127C19.5146 20.3994 19.9629 20.3994 20.2266 20.127C20.499 19.8457 20.499 19.415 20.2266 19.1426L4.14258 3.06738C3.87012 2.79492 3.42188 2.79492 3.14941 3.06738C2.88574 3.33105 2.88574 3.78809 3.14941 4.05176L19.2422 20.127ZM5.05664 14.3613C5.05664 15.1611 5.59277 15.6885 6.42773 15.6885H11.1299V19.8545C11.1299 21.0762 11.7627 22.333 12 22.333C12.2461 22.333 12.8789 21.0762 12.8789 19.8545V15.8203H13.292L7.7373 10.2568C6.05859 11.2588 5.05664 12.8145 5.05664 14.3613Z" fill="#1C1C1E"/>
</g>
<defs>
<clipPath id="clip0_10_428">
<rect width="24" height="24" fill="white"/>
</clipPath>
</defs>
</svg>
