<svg width="24" height="24" viewBox="0 0 24 24" fill="none" xmlns="http://www.w3.org/2000/svg">
<g clip-path="url(#clip0_10_433)">
<path d="M6.16406 2.45215C6.16406 2.7334 6.27832 3.0498 6.51562 3.36621C6.96387 3.94629 8.00977 4.77246 9.13477 5.51074L9.07324 6.38086L10.541 7.84863L10.7168 4.80762C10.7256 4.6582 10.6992 4.58789 10.585 4.53516C9.40723 3.92871 8.49316 3.22559 8.34375 3.02344C8.27344 2.92676 8.33496 2.84766 8.43164 2.84766H15.5596C15.6562 2.84766 15.7178 2.92676 15.6475 3.02344C15.498 3.22559 14.584 3.92871 13.4062 4.53516C13.292 4.58789 13.2656 4.6582 13.2744 4.80762L13.5381 9.21973C13.0459 9.13184 12.5361 9.0791 12 9.0791H11.7891L13.3711 10.6875C15.6035 10.9424 17.2822 12.8057 17.2822 14.1064C17.2822 14.1504 17.2822 14.1855 17.2734 14.2207L18.3984 15.46C18.7061 15.2666 18.9434 14.8887 18.9434 14.3613C18.9434 12.4629 17.4404 10.5908 15.1377 9.68555L14.8564 5.51074C15.9814 4.77246 17.0273 3.94629 17.4756 3.36621C17.7129 3.0498 17.8271 2.7334 17.8271 2.45215C17.8271 1.87207 17.3789 1.44141 16.7197 1.44141H7.27148C6.6123 1.44141 6.16406 1.87207 6.16406 2.45215ZM3.14941 4.05176L19.2422 20.127C19.5146 20.3994 19.9629 20.3994 20.2266 20.127C20.499 19.8457 20.499 19.415 20.2266 19.1426L4.14258 3.06738C3.87012 2.79492 3.42188 2.79492 3.14941 3.06738C2.88574 3.33105 2.88574 3.78809 3.14941 4.05176ZM5.04785 14.3613C5.04785 15.1611 5.58398 15.6885 6.41895 15.6885H11.1211V19.8545C11.1211 21.0762 11.7539 22.333 11.9912 22.333C12.2373 22.333 12.8701 21.0762 12.8701 19.8545V15.8027H13.2832L11.666 14.1855H6.83203C6.65625 14.1855 6.57715 14.0889 6.60352 13.8779C6.72656 12.9287 7.52637 11.9443 8.7832 11.3027L7.7373 10.2656C6.08496 11.25 5.04785 12.7881 5.04785 14.3613Z" fill="#1C1C1E"/>
</g>
<defs>
<clipPath id="clip0_10_433">
<rect width="24" height="24" fill="white"/>
</clipPath>
</defs>
</svg>
