<svg width="24" height="24" viewBox="0 0 24 24" fill="none" xmlns="http://www.w3.org/2000/svg">
<g clip-path="url(#clip0_10_670)">
<path d="M4.81934 19.7666H19.4004C21.0879 19.7666 22.0811 18.7822 22.0811 16.9014V13.4824H23.0479C24.9463 13.4824 25.9395 12.5068 25.9395 10.6172V5.30859C25.9395 3.42773 24.9463 2.44336 23.0479 2.44336H15.4365C13.6348 2.44336 12.6592 3.31348 12.5537 4.99219H11.0332C10.5234 4.99219 10.0225 4.85156 9.53906 4.44727L9.03809 4.04297C8.41406 3.5332 7.95703 3.36621 7.03418 3.36621H4.54688C2.90332 3.36621 1.91895 4.33301 1.91895 6.1875V16.9014C1.91895 18.791 2.91211 19.7666 4.81934 19.7666ZM15.4893 11.8037C14.6719 11.8037 14.2236 11.3818 14.2236 10.5205V5.40527C14.2236 4.54395 14.6719 4.12207 15.4893 4.12207H22.9863C23.8037 4.12207 24.2607 4.54395 24.2607 5.40527V10.5205C24.2607 11.3818 23.8037 11.8037 23.0039 11.8037H15.4893ZM17.0537 8.6748H18.5303V10.1514C18.5303 10.5469 18.8467 10.8633 19.2422 10.8633C19.6465 10.8633 19.9541 10.5469 19.9541 10.1514V8.6748H21.4219C21.8262 8.6748 22.1338 8.3584 22.1338 7.96289C22.1338 7.56738 21.8262 7.25098 21.4219 7.25098H19.9541V5.77441C19.9541 5.37891 19.6377 5.0625 19.2422 5.0625C18.8467 5.0625 18.5303 5.37891 18.5303 5.77441V7.25098H17.0537C16.6582 7.25098 16.3418 7.56738 16.3418 7.96289C16.3418 8.3584 16.6582 8.6748 17.0537 8.6748ZM3.67676 6.33691C3.67676 5.53711 4.11621 5.11523 4.89844 5.11523H6.56836C7.19238 5.11523 7.56152 5.26465 8.0625 5.66895L8.56348 6.08203C9.16992 6.57422 9.76758 6.75 10.6904 6.75H12.5361V8.53418H3.67676V6.33691ZM15.4365 13.4824H20.3232V16.752C20.3232 17.5957 19.875 18.0176 19.0664 18.0176H4.9248C4.11621 18.0176 3.67676 17.5957 3.67676 16.7432V10.0723H12.5361V10.6172C12.5361 12.5068 13.5293 13.4824 15.4365 13.4824Z" fill="#1C1C1E"/>
</g>
<defs>
<clipPath id="clip0_10_670">
<rect width="24" height="24" fill="white"/>
</clipPath>
</defs>
</svg>
