<svg width="24" height="24" viewBox="0 0 24 24" fill="none" xmlns="http://www.w3.org/2000/svg">
<g clip-path="url(#clip0_10_674)">
<path d="M15.4717 13.4297H23.0127C24.8936 13.4297 25.8691 12.4541 25.8691 10.5908V5.33496C25.8691 3.47168 24.8936 2.49609 23.0127 2.49609H15.4717C13.582 2.49609 12.6064 3.47168 12.6064 5.33496V10.5908C12.6064 12.4541 13.582 13.4297 15.4717 13.4297ZM1.91895 8.64844H11.3145V5.7041C11.3145 5.42285 11.3408 5.1416 11.3496 4.93066C11.1299 4.92188 10.9805 4.92188 10.7607 4.92188C10.2334 4.9043 9.89941 4.76367 9.48633 4.41211L9.03809 4.04297C8.41406 3.5332 7.95703 3.36621 7.03418 3.36621H4.54688C2.90332 3.36621 1.91895 4.33301 1.91895 6.1875V8.64844ZM16.2891 7.91016C16.2891 7.48828 16.623 7.16309 17.0361 7.16309H18.5654V5.63379C18.5654 5.2207 18.8906 4.88672 19.3037 4.88672C19.7256 4.88672 20.0596 5.2207 20.0596 5.63379V7.16309H21.5801C21.9932 7.16309 22.3184 7.48828 22.3184 7.91016C22.3184 8.33203 21.9932 8.65723 21.5801 8.65723H20.0596V10.1777C20.0596 10.5908 19.7344 10.9248 19.3125 10.9248C18.8906 10.9248 18.5654 10.5908 18.5654 10.1777V8.65723H17.0361C16.623 8.65723 16.2891 8.32324 16.2891 7.91016ZM4.81934 19.7666H19.4004C21.0879 19.7666 22.0811 18.6416 22.0811 16.7607V14.7129H15.4717C12.8789 14.7129 11.3145 13.1748 11.3145 10.6172V9.91406H1.91895V16.9014C1.91895 18.791 2.91211 19.7666 4.81934 19.7666Z" fill="#1C1C1E"/>
</g>
<defs>
<clipPath id="clip0_10_674">
<rect width="24" height="24" fill="white"/>
</clipPath>
</defs>
</svg>
