<svg width="24" height="24" viewBox="0 0 24 24" fill="none" xmlns="http://www.w3.org/2000/svg">
<g clip-path="url(#clip0_10_642)">
<path d="M5.59277 4.22754H18.3896V4.0957C18.3896 2.76855 17.3262 2.14453 15.8496 2.14453H8.1416C6.72656 2.14453 5.59277 2.76855 5.59277 4.0957V4.22754ZM7.28906 21.375H16.7021C17.959 21.375 18.583 20.8037 18.583 19.4941V18.0088H19.207C20.9912 18.0088 21.9668 17.0771 21.9668 15.2842V8.21777C21.9668 6.4248 20.9912 5.49316 19.207 5.49316H4.78418C3.06152 5.49316 2.02441 6.4248 2.02441 8.21777V15.2842C2.02441 17.0771 2.99121 18.0088 4.78418 18.0088H5.39941V19.4941C5.39941 20.8037 6.02344 21.375 7.28906 21.375ZM16.1748 8.54297C16.1748 7.91895 16.7109 7.37402 17.3525 7.37402C17.9854 7.37402 18.5215 7.91895 18.5215 8.54297C18.5215 9.19336 17.9854 9.70312 17.3525 9.71191C16.7109 9.71191 16.1748 9.19336 16.1748 8.54297ZM7.86035 19.8457C7.43848 19.8457 7.22754 19.6436 7.22754 19.2129V12.8408C7.22754 12.4189 7.43848 12.2168 7.86035 12.2168H16.1309C16.5527 12.2168 16.7637 12.4189 16.7637 12.8408V19.2129C16.7637 19.6436 16.5527 19.8457 16.1396 19.8457H7.86035ZM9.3457 14.5195C9.79395 14.5195 10.1543 14.1592 10.1543 13.7109C10.1543 13.2627 9.79395 12.9111 9.3457 12.9111C8.89746 12.9111 8.53711 13.2627 8.53711 13.7109C8.53711 14.1592 8.89746 14.5195 9.3457 14.5195ZM14.6543 14.5195C15.1113 14.5195 15.4717 14.1592 15.4717 13.7109C15.4717 13.2627 15.1113 12.9111 14.6543 12.9111C14.2148 12.9111 13.8545 13.2627 13.8545 13.7109C13.8545 14.1592 14.2148 14.5195 14.6543 14.5195ZM9.3457 16.8574C9.79395 16.8574 10.1543 16.5059 10.1543 16.0488C10.1543 15.6006 9.79395 15.249 9.3457 15.249C8.89746 15.249 8.53711 15.6006 8.53711 16.0488C8.53711 16.5059 8.89746 16.8574 9.3457 16.8574ZM14.6543 16.8574C15.1113 16.8574 15.4717 16.5059 15.4717 16.0488C15.4717 15.6006 15.1113 15.249 14.6543 15.249C14.2148 15.249 13.8545 15.6006 13.8545 16.0488C13.8545 16.5059 14.2148 16.8574 14.6543 16.8574ZM9.3457 19.1953C9.79395 19.1953 10.1543 18.8438 10.1543 18.3867C10.1543 17.9385 9.79395 17.5869 9.3457 17.5869C8.89746 17.5869 8.53711 17.9385 8.53711 18.3867C8.53711 18.8438 8.89746 19.1953 9.3457 19.1953ZM14.6543 19.1953C15.1113 19.1953 15.4717 18.8438 15.4717 18.3867C15.4717 17.9385 15.1113 17.5869 14.6543 17.5869C14.2148 17.5869 13.8545 17.9385 13.8545 18.3867C13.8545 18.8438 14.2148 19.1953 14.6543 19.1953Z" fill="#1C1C1E"/>
</g>
<defs>
<clipPath id="clip0_10_642">
<rect width="24" height="24" fill="white"/>
</clipPath>
</defs>
</svg>
