<svg width="24" height="24" viewBox="0 0 24 24" fill="none" xmlns="http://www.w3.org/2000/svg">
<g clip-path="url(#clip0_10_577)">
<path d="M4.71387 18.6768H5.61914V19.4941C5.61914 20.8037 6.24316 21.3838 7.50879 21.3838H16.4912C17.748 21.3838 18.3809 20.8037 18.3809 19.4941V18.6768H19.2861C21.0791 18.6768 22.0547 17.7363 22.0547 15.9346V7.86621C22.0547 6.07324 21.0791 5.12402 19.2861 5.12402H18.4863V4.64941C18.4863 2.86523 17.5898 2.04785 15.8672 2.04785H8.13281C6.48047 2.04785 5.51367 2.86523 5.51367 4.64941V5.12402H4.71387C2.99121 5.12402 1.94531 6.07324 1.94531 7.86621V15.9346C1.94531 17.7363 2.9209 18.6768 4.71387 18.6768ZM7.14844 4.52637C7.14844 3.87598 7.48242 3.54199 8.13281 3.54199H15.8672C16.5176 3.54199 16.8516 3.87598 16.8516 4.52637V5.12402H7.14844V4.52637ZM16.4912 10.7139H7.50879C6.28711 10.7139 5.61914 11.2939 5.61914 12.6035V17.0947H4.71387C3.99316 17.0947 3.61523 16.7168 3.61523 16.0049V7.80469C3.61523 7.08398 3.99316 6.70605 4.71387 6.70605H19.2861C20.0068 6.70605 20.376 7.08398 20.376 7.80469V16.0049C20.376 16.7168 20.0068 17.0947 19.2861 17.0947H18.3809V12.6035C18.3809 11.2939 17.748 10.7139 16.4912 10.7139ZM16.1309 8.72754C16.1309 9.36914 16.6494 9.87012 17.2822 9.86133C17.8975 9.86133 18.416 9.36035 18.416 8.72754C18.416 8.1123 17.8975 7.58496 17.2822 7.58496C16.6582 7.58496 16.1309 8.1123 16.1309 8.72754ZM7.86914 19.8457C7.44727 19.8457 7.23633 19.6436 7.23633 19.2129V12.8848C7.23633 12.4541 7.44727 12.252 7.86914 12.252H16.1396C16.5615 12.252 16.7637 12.4541 16.7637 12.8848V19.2129C16.7637 19.6436 16.5615 19.8457 16.1396 19.8457H7.86914ZM9.3457 14.5107C9.79395 14.5107 10.1543 14.1592 10.1543 13.7109C10.1543 13.2627 9.79395 12.9023 9.3457 12.9023C8.89746 12.9023 8.53711 13.2627 8.53711 13.7109C8.53711 14.1592 8.89746 14.5107 9.3457 14.5107ZM14.6543 14.5107C15.1113 14.5107 15.4717 14.1592 15.4717 13.7109C15.4717 13.2627 15.1113 12.9023 14.6543 12.9023C14.2148 12.9023 13.8545 13.2627 13.8545 13.7109C13.8545 14.1592 14.2148 14.5107 14.6543 14.5107ZM9.3457 16.8486C9.79395 16.8486 10.1543 16.4971 10.1543 16.0488C10.1543 15.6006 9.79395 15.249 9.3457 15.249C8.89746 15.249 8.53711 15.6006 8.53711 16.0488C8.53711 16.4971 8.89746 16.8486 9.3457 16.8486ZM14.6543 16.8486C15.1113 16.8486 15.4717 16.4971 15.4717 16.0488C15.4717 15.6006 15.1113 15.249 14.6543 15.249C14.2148 15.249 13.8545 15.6006 13.8545 16.0488C13.8545 16.5059 14.2148 16.8486 14.6543 16.8486ZM9.3457 19.1953C9.79395 19.1953 10.1543 18.835 10.1543 18.3867C10.1543 17.9385 9.79395 17.5869 9.3457 17.5869C8.89746 17.5869 8.53711 17.9385 8.53711 18.3867C8.53711 18.835 8.89746 19.1953 9.3457 19.1953ZM14.6543 19.1953C15.1113 19.1953 15.4717 18.835 15.4717 18.3867C15.4717 17.9385 15.1113 17.5869 14.6543 17.5869C14.2148 17.5869 13.8545 17.9385 13.8545 18.3867C13.8545 18.835 14.2148 19.1953 14.6543 19.1953Z" fill="#1C1C1E"/>
</g>
<defs>
<clipPath id="clip0_10_577">
<rect width="24" height="24" fill="white"/>
</clipPath>
</defs>
</svg>
