<svg width="24" height="24" viewBox="0 0 24 24" fill="none" xmlns="http://www.w3.org/2000/svg">
<g clip-path="url(#clip0_10_566)">
<path d="M5.59277 4.22754H18.3896V4.0957C18.3896 2.76855 17.3262 2.14453 15.8496 2.14453H8.1416C6.72656 2.14453 5.59277 2.76855 5.59277 4.0957V4.22754ZM4.78418 18.0088H4.95117V13.2363C4.95117 11.8828 5.74219 11.083 7.10449 11.083H16.8779C18.2402 11.083 19.04 11.8828 19.04 13.2363V18.0088H19.207C20.9912 18.0088 21.9668 17.0771 21.9668 15.2842V8.21777C21.9668 6.4248 20.9912 5.49316 19.207 5.49316H4.78418C3.06152 5.49316 2.02441 6.4248 2.02441 8.21777V15.2842C2.02441 17.0771 2.99121 18.0088 4.78418 18.0088ZM16.1748 8.54297C16.1748 7.91895 16.7109 7.37402 17.3525 7.37402C17.9854 7.37402 18.5215 7.91895 18.5215 8.54297C18.5215 9.19336 17.9854 9.70312 17.3525 9.71191C16.7109 9.71191 16.1748 9.19336 16.1748 8.54297ZM6.23438 20.1885C6.23438 20.9092 6.70898 21.3838 7.42969 21.3838H16.5527C17.2734 21.3838 17.748 20.9092 17.748 20.1885V13.2363C17.748 12.7178 17.4053 12.375 16.8779 12.375H7.10449C6.58594 12.375 6.23438 12.7178 6.23438 13.2363V20.1885ZM9.25781 15.9346C8.89746 15.9346 8.63379 15.6621 8.63379 15.3105C8.63379 14.9766 8.89746 14.7041 9.25781 14.7041H14.7598C15.1025 14.7041 15.3662 14.9766 15.3662 15.3105C15.3662 15.6621 15.1025 15.9346 14.7598 15.9346H9.25781ZM9.25781 19.0459C8.89746 19.0459 8.63379 18.7822 8.63379 18.4395C8.63379 18.0879 8.89746 17.8154 9.25781 17.8154H14.7598C15.1025 17.8154 15.3662 18.0879 15.3662 18.4395C15.3662 18.7822 15.1025 19.0459 14.7598 19.0459H9.25781Z" fill="#1C1C1E"/>
</g>
<defs>
<clipPath id="clip0_10_566">
<rect width="24" height="24" fill="white"/>
</clipPath>
</defs>
</svg>
