<svg width="24" height="24" viewBox="0 0 24 24" fill="none" xmlns="http://www.w3.org/2000/svg">
<g clip-path="url(#clip0_10_571)">
<path d="M5.59277 4.22754H18.3896V4.0957C18.3896 2.76855 17.3262 2.14453 15.8496 2.14453H8.1416C6.72656 2.14453 5.59277 2.76855 5.59277 4.0957V4.22754ZM4.78418 18.0088H4.95117V13.2363C4.95117 11.874 5.7334 11.083 7.10449 11.083H16.8779C18.249 11.083 19.04 11.874 19.04 13.2363V18.0088H19.207C20.9912 18.0088 21.9668 17.0771 21.9668 15.2842V8.21777C21.9668 6.4248 20.9912 5.49316 19.207 5.49316H4.78418C3.06152 5.49316 2.02441 6.4248 2.02441 8.21777V15.2842C2.02441 17.0771 2.99121 18.0088 4.78418 18.0088ZM16.1748 8.54297C16.1748 7.91895 16.7109 7.37402 17.3525 7.37402C17.9854 7.37402 18.5215 7.91895 18.5215 8.54297C18.5215 9.19336 17.9854 9.70312 17.3525 9.71191C16.7109 9.71191 16.1748 9.19336 16.1748 8.54297ZM6.23438 20.1885C6.23438 20.9092 6.70898 21.3838 7.42969 21.3838H16.5527C17.2734 21.3838 17.748 20.9092 17.748 20.1885V13.2363C17.748 12.7178 17.4053 12.375 16.8779 12.375H7.10449C6.58594 12.375 6.23438 12.7178 6.23438 13.2363V20.1885ZM9.29297 15.2754C8.85352 15.2754 8.49316 14.9238 8.49316 14.4756C8.49316 14.0273 8.85352 13.6758 9.29297 13.6758C9.74121 13.6758 10.1104 14.0273 10.1104 14.4756C10.1104 14.9238 9.74121 15.2754 9.29297 15.2754ZM14.6895 15.2754C14.25 15.2754 13.8896 14.9238 13.8896 14.4756C13.8896 14.0273 14.25 13.6758 14.6895 13.6758C15.1465 13.6758 15.5068 14.0273 15.5068 14.4756C15.5068 14.9238 15.1465 15.2754 14.6895 15.2754ZM9.29297 17.6836C8.85352 17.6836 8.49316 17.3232 8.49316 16.875C8.49316 16.4268 8.85352 16.0752 9.29297 16.0752C9.74121 16.0752 10.1104 16.4268 10.1104 16.875C10.1104 17.3232 9.74121 17.6836 9.29297 17.6836ZM14.6895 17.6836C14.25 17.6836 13.8896 17.332 13.8896 16.875C13.8896 16.4268 14.25 16.0752 14.6895 16.0752C15.1465 16.0752 15.5068 16.4268 15.5068 16.875C15.5068 17.3232 15.1465 17.6836 14.6895 17.6836ZM9.29297 20.083C8.85352 20.083 8.49316 19.7314 8.49316 19.2744C8.49316 18.8262 8.85352 18.4746 9.29297 18.4746C9.74121 18.4746 10.1104 18.8262 10.1104 19.2744C10.1104 19.7314 9.74121 20.083 9.29297 20.083ZM14.6895 20.083C14.25 20.083 13.8896 19.7314 13.8896 19.2744C13.8896 18.8262 14.25 18.4746 14.6895 18.4746C15.1465 18.4746 15.5068 18.8262 15.5068 19.2744C15.5068 19.7314 15.1465 20.083 14.6895 20.083Z" fill="#1C1C1E"/>
</g>
<defs>
<clipPath id="clip0_10_571">
<rect width="24" height="24" fill="white"/>
</clipPath>
</defs>
</svg>
