<svg width="24" height="24" viewBox="0 0 24 24" fill="none" xmlns="http://www.w3.org/2000/svg">
<g clip-path="url(#clip0_10_522)">
<path d="M7.06055 20.2588H9.96973C10.7607 20.2588 11.2881 19.7314 11.2881 19.0547C11.2881 18.668 11.1387 18.3164 10.8398 17.9736C10.4883 17.5605 10.2422 17.1123 10.2422 16.6025C10.2422 15.6445 10.9277 14.8799 12 14.8799C13.0723 14.8799 13.7578 15.6445 13.7578 16.6025C13.7578 17.1123 13.5205 17.5605 13.1602 17.9736C12.8613 18.3164 12.7119 18.668 12.7119 19.0547C12.7119 19.7314 13.2393 20.2588 14.0303 20.2588H16.9395C18.7324 20.2588 19.7256 19.292 19.7256 17.5166V14.5898C19.7256 14.4492 19.8223 14.3789 19.9893 14.4844C20.499 14.8359 21.1055 15.0732 21.7998 15.0732C23.5049 15.0732 25.0605 13.7285 25.0605 11.6719C25.0605 9.61523 23.5049 8.26172 21.7998 8.26172C21.1055 8.26172 20.499 8.50781 19.9893 8.85059C19.8223 8.95605 19.7256 8.89453 19.7256 8.74512V5.76562C19.7256 3.99023 18.7324 3.02344 16.9395 3.02344H14.0303C13.2393 3.02344 12.7119 3.55078 12.7119 4.23633C12.7119 4.61426 12.8613 4.96582 13.1602 5.30859C13.5205 5.72168 13.7578 6.16992 13.7578 6.67969C13.7578 7.62891 13.0635 8.40234 12 8.40234C10.9453 8.40234 10.2422 7.62891 10.2422 6.67969C10.2422 6.16992 10.4883 5.72168 10.8398 5.30859C11.1387 4.96582 11.2881 4.61426 11.2881 4.23633C11.2881 3.55078 10.7607 3.02344 9.96973 3.02344H7.06055C5.26758 3.02344 4.27441 3.99023 4.27441 5.76562V8.74512C4.27441 8.89453 4.17773 8.95605 4.01953 8.85059C3.50098 8.50781 2.89453 8.26172 2.2002 8.26172C0.495117 8.26172 -1.06055 9.61523 -1.06055 11.6719C-1.06055 13.7285 0.495117 15.0732 2.2002 15.0732C2.89453 15.0732 3.50098 14.8359 4.01953 14.4844C4.17773 14.3789 4.27441 14.4492 4.27441 14.5898V17.5166C4.27441 19.292 5.26758 20.2588 7.06055 20.2588ZM7.08691 18.5889C6.375 18.5889 5.94434 18.1846 5.94434 17.4463V13.7021C5.94434 12.9111 5.41699 12.3838 4.74023 12.3838C4.35352 12.3838 4.00195 12.5332 3.65918 12.832C3.24609 13.1836 2.79785 13.4297 2.28809 13.4297C1.33887 13.4297 0.56543 12.7266 0.56543 11.6719C0.56543 10.6084 1.33887 9.91406 2.28809 9.91406C2.79785 9.91406 3.24609 10.1514 3.65918 10.5117C4.00195 10.8018 4.35352 10.96 4.74023 10.96C5.41699 10.96 5.94434 10.4326 5.94434 9.6416V5.83594C5.94434 5.10645 6.375 4.69336 7.08691 4.69336H8.9502C9.32812 4.69336 9.21387 4.87793 9.11719 5.05371C8.81836 5.56348 8.59863 6.12598 8.59863 6.76758C8.59863 8.47266 9.94336 10.0283 12 10.0283C14.0566 10.0283 15.4102 8.47266 15.4102 6.76758C15.4102 6.12598 15.1816 5.56348 14.8828 5.05371C14.7861 4.87793 14.6719 4.69336 15.0498 4.69336H16.9131C17.625 4.69336 18.0557 5.10645 18.0557 5.83594V9.6416C18.0557 10.4326 18.583 10.96 19.2686 10.96C19.6465 10.96 19.998 10.8018 20.3408 10.5117C20.7539 10.1514 21.2021 9.91406 21.7119 9.91406C22.6611 9.91406 23.4434 10.6084 23.4434 11.6719C23.4434 12.7266 22.6611 13.4297 21.7119 13.4297C21.2021 13.4297 20.7539 13.1836 20.3408 12.832C19.998 12.5332 19.6465 12.3838 19.2686 12.3838C18.583 12.3838 18.0557 12.9111 18.0557 13.7021V17.4463C18.0557 18.1846 17.625 18.5889 16.9131 18.5889H15.0498C14.6719 18.5889 14.7861 18.4043 14.8828 18.2285C15.1816 17.7188 15.4102 17.1562 15.4102 16.5146C15.4102 14.8008 14.0742 13.2539 12 13.2539C9.93457 13.2539 8.59863 14.8008 8.59863 16.5146C8.59863 17.1562 8.81836 17.7188 9.11719 18.2285C9.21387 18.4043 9.32812 18.5889 8.9502 18.5889H7.08691Z" fill="#1C1C1E"/>
</g>
<defs>
<clipPath id="clip0_10_522">
<rect width="24" height="24" fill="white"/>
</clipPath>
</defs>
</svg>
