<svg width="24" height="24" viewBox="0 0 24 24" fill="none" xmlns="http://www.w3.org/2000/svg">
<g clip-path="url(#clip0_10_523)">
<path d="M-0.955078 11.6455C-0.955078 13.4824 0.345703 14.4844 1.7959 14.4844C2.40234 14.4844 2.85938 14.3174 3.39551 13.9834C3.91406 13.6758 4.27441 13.8604 4.27441 14.2998V17.4727C4.27441 19.292 5.25 20.2412 7.08691 20.2412H9.3457C9.78516 20.2412 9.96973 19.8721 9.66211 19.3623C9.32812 18.8262 9.15234 18.3604 9.15234 17.7627C9.15234 16.3037 10.1631 15.0029 12 15.0029C13.8369 15.0029 14.8477 16.3037 14.8477 17.7627C14.8477 18.3604 14.6719 18.8262 14.3467 19.3623C14.0303 19.8721 14.2148 20.2412 14.6631 20.2412H16.9131C18.7588 20.2412 19.7256 19.292 19.7256 17.4727V14.2998C19.7256 13.8604 20.0859 13.6758 20.6045 13.9834C21.1406 14.3174 21.5977 14.4844 22.2041 14.4844C23.6631 14.4844 24.9551 13.4824 24.9551 11.6455C24.9551 9.80859 23.6631 8.79785 22.2041 8.79785C21.5977 8.79785 21.1406 8.96484 20.6045 9.29883C20.0859 9.60645 19.7256 9.43066 19.7256 8.98242V5.81836C19.7256 3.99902 18.7588 3.0498 16.9131 3.0498H14.6631C14.2148 3.0498 14.0303 3.41895 14.3467 3.92871C14.6719 4.46484 14.8477 4.93066 14.8477 5.52832C14.8477 6.9873 13.8369 8.28809 12 8.28809C10.1631 8.28809 9.15234 6.9873 9.15234 5.52832C9.15234 4.93066 9.32812 4.46484 9.66211 3.92871C9.96973 3.41895 9.78516 3.0498 9.3457 3.0498H7.08691C5.25 3.0498 4.27441 3.99902 4.27441 5.81836V8.98242C4.27441 9.43066 3.91406 9.60645 3.39551 9.29883C2.85938 8.96484 2.40234 8.79785 1.7959 8.79785C0.345703 8.79785 -0.955078 9.80859 -0.955078 11.6455Z" fill="#1C1C1E"/>
</g>
<defs>
<clipPath id="clip0_10_523">
<rect width="24" height="24" fill="white"/>
</clipPath>
</defs>
</svg>
