<svg width="24" height="24" viewBox="0 0 24 24" fill="none" xmlns="http://www.w3.org/2000/svg">
<g clip-path="url(#clip0_10_666)">
<path d="M4.81055 19.7666H19.3916C21.0879 19.7666 22.0723 18.7822 22.0723 16.9014V7.85742C22.0723 5.97656 21.0791 4.99219 19.1807 4.99219H11.0332C10.4004 4.99219 10.0225 4.85156 9.53027 4.44727L9.03809 4.04297C8.41406 3.5332 7.95703 3.36621 7.03418 3.36621H4.54688C2.89453 3.36621 1.91895 4.33301 1.91895 6.1875V16.9014C1.91895 18.791 2.91211 19.7666 4.81055 19.7666ZM4.9248 18.0176C4.11621 18.0176 3.66797 17.5957 3.66797 16.7432V6.33691C3.66797 5.53711 4.11621 5.11523 4.89844 5.11523H6.56836C7.19238 5.11523 7.56152 5.26465 8.0625 5.66895L8.55469 6.08203C9.16992 6.57422 9.64453 6.75 10.5674 6.75H19.0664C19.875 6.75 20.3232 7.17188 20.3232 8.01562V16.752C20.3232 17.5957 19.875 18.0176 19.0664 18.0176H4.9248ZM11.833 13.9482C12.2812 13.9482 12.5713 13.6934 12.5889 13.3594C12.5889 13.3242 12.5977 13.2891 12.5977 13.2627C12.624 12.8408 12.9141 12.5596 13.4414 12.2168C14.2412 11.6982 14.751 11.2236 14.751 10.2832C14.751 8.93848 13.5381 8.15625 12.0879 8.15625C10.6992 8.15625 9.75 8.78906 9.49512 9.55371C9.44238 9.69434 9.41602 9.83496 9.41602 9.98438C9.41602 10.3711 9.72363 10.626 10.1016 10.626C10.5762 10.626 10.6816 10.3799 10.9277 10.0986C11.1914 9.69434 11.5342 9.45703 12.0176 9.45703C12.6592 9.45703 13.0723 9.82617 13.0723 10.3711C13.0723 10.8721 12.7383 11.1357 12.0439 11.6104C11.4727 12.0146 11.0508 12.4277 11.0508 13.1572V13.2451C11.0508 13.7109 11.332 13.9482 11.833 13.9482ZM11.8154 16.4443C12.3428 16.4443 12.7734 16.0664 12.7734 15.5479C12.7734 15.0381 12.3516 14.6602 11.8154 14.6602C11.2881 14.6602 10.8574 15.0381 10.8574 15.5479C10.8574 16.0664 11.2969 16.4443 11.8154 16.4443Z" fill="#1C1C1E"/>
</g>
<defs>
<clipPath id="clip0_10_666">
<rect width="24" height="24" fill="white"/>
</clipPath>
</defs>
</svg>
