<svg width="24" height="24" viewBox="0 0 24 24" fill="none" xmlns="http://www.w3.org/2000/svg">
<g clip-path="url(#clip0_10_673)">
<path d="M4.81055 19.7666H19.3916C21.0879 19.7666 22.0723 18.7822 22.0723 16.9014V7.85742C22.0723 5.97656 21.0791 4.99219 19.1807 4.99219H11.0332C10.4004 4.99219 10.0225 4.85156 9.53027 4.44727L9.03809 4.04297C8.41406 3.5332 7.95703 3.36621 7.03418 3.36621H4.54688C2.89453 3.36621 1.91895 4.33301 1.91895 6.1875V16.9014C1.91895 18.791 2.91211 19.7666 4.81055 19.7666ZM11.8242 14.0098C11.2969 14.0098 10.998 13.7637 10.998 13.2715V13.1836C10.998 12.4277 11.4375 11.9971 12.0352 11.5752C12.7559 11.0742 13.1074 10.8018 13.1074 10.292C13.1074 9.72949 12.6768 9.35156 12.0088 9.35156C11.5166 9.35156 11.165 9.58887 10.8926 10.0107C10.6289 10.3008 10.5146 10.5557 10.0225 10.5557C9.62695 10.5557 9.30176 10.292 9.30176 9.8877C9.30176 9.72949 9.33691 9.58008 9.38965 9.43945C9.65332 8.63965 10.6377 7.98926 12.0879 7.98926C13.5996 7.98926 14.874 8.78906 14.874 10.2041C14.874 11.1797 14.3379 11.6719 13.5029 12.208C12.958 12.5684 12.6504 12.8584 12.624 13.2891C12.624 13.3242 12.624 13.3594 12.6152 13.3945C12.5977 13.7461 12.29 14.0098 11.8242 14.0098ZM11.8066 16.6113C11.2617 16.6113 10.8047 16.2158 10.8047 15.6797C10.8047 15.1436 11.2529 14.7393 11.8066 14.7393C12.3691 14.7393 12.8086 15.1436 12.8086 15.6797C12.8086 16.2246 12.3604 16.6113 11.8066 16.6113Z" fill="#1C1C1E"/>
</g>
<defs>
<clipPath id="clip0_10_673">
<rect width="24" height="24" fill="white"/>
</clipPath>
</defs>
</svg>
