<svg width="24" height="24" viewBox="0 0 24 24" fill="none" xmlns="http://www.w3.org/2000/svg">
<g clip-path="url(#clip0_10_336)">
<path d="M4.47656 19.8809H19.5146C21.4219 19.8809 22.415 18.8965 22.415 17.0156V6.31934C22.415 4.43848 21.4219 3.4541 19.5146 3.4541H18.5566L6.70898 -0.395508C6.27832 -0.536133 5.8125 -0.298828 5.68066 0.123047C5.54004 0.544922 5.77734 1.01074 6.20801 1.16016L13.2744 3.4541H4.47656C2.57812 3.4541 1.58496 4.42969 1.58496 6.31934V17.0156C1.58496 18.8965 2.57812 19.8809 4.47656 19.8809ZM9.87305 7.97168C9.49512 7.97168 9.1875 7.66406 9.1875 7.27734C9.1875 6.89941 9.49512 6.5918 9.87305 6.5918C10.2422 6.5918 10.5498 6.89941 10.5498 7.27734C10.5498 7.66406 10.251 7.97168 9.87305 7.97168ZM17.8096 9.71191C17.0273 9.7207 16.377 9.0791 16.377 8.29688C16.377 7.52344 17.0273 6.85547 17.8096 6.87305C18.6006 6.88184 19.2334 7.52344 19.2334 8.29688C19.2334 9.0791 18.6006 9.70312 17.8096 9.71191ZM12.0527 8.5957C11.6924 8.5957 11.3936 8.2793 11.3936 7.91016C11.3936 7.52344 11.6836 7.21582 12.0527 7.21582C12.4482 7.21582 12.7471 7.52344 12.7471 7.91016C12.7471 8.2793 12.4482 8.5957 12.0527 8.5957ZM7.67578 8.5957C7.29785 8.5957 6.99902 8.2793 6.99902 7.91016C6.99902 7.52344 7.29785 7.21582 7.67578 7.21582C8.05371 7.21582 8.34375 7.52344 8.34375 7.91016C8.34375 8.2793 8.05371 8.5957 7.67578 8.5957ZM13.7051 10.1777C13.3359 10.1777 13.0371 9.87891 13.0371 9.50098C13.0371 9.11426 13.3359 8.79785 13.7051 8.79785C14.083 8.79785 14.3906 9.11426 14.3906 9.50098C14.3906 9.87891 14.083 10.1777 13.7051 10.1777ZM6.03223 10.1777C5.66309 10.1777 5.34668 9.87891 5.34668 9.50098C5.34668 9.11426 5.66309 8.79785 6.03223 8.79785C6.40137 8.79785 6.7002 9.11426 6.7002 9.50098C6.7002 9.87891 6.40137 10.1777 6.03223 10.1777ZM9.87305 10.2217C9.49512 10.2217 9.1875 9.91406 9.1875 9.54492C9.1875 9.14941 9.49512 8.8418 9.87305 8.8418C10.251 8.8418 10.5498 9.14941 10.5498 9.54492C10.5498 9.91406 10.251 10.2217 9.87305 10.2217ZM11.9121 11.1094C11.543 11.1094 11.2266 10.793 11.2266 10.4326C11.2266 10.0547 11.543 9.73828 11.9121 9.73828C12.2812 9.73828 12.5801 10.0547 12.5801 10.4326C12.5801 10.793 12.2812 11.1094 11.9121 11.1094ZM7.8252 11.1094C7.45605 11.1094 7.15723 10.793 7.15723 10.4326C7.15723 10.0547 7.45605 9.73828 7.8252 9.73828C8.20312 9.73828 8.51953 10.0547 8.51953 10.4326C8.51953 10.793 8.20312 11.1094 7.8252 11.1094ZM17.8096 13.7725C17.0273 13.7725 16.377 13.1309 16.377 12.3398C16.377 11.5576 17.0273 10.916 17.8096 10.916C18.6006 10.916 19.2334 11.5576 19.2334 12.3398C19.2334 13.1309 18.6006 13.7725 17.8096 13.7725ZM14.2676 12.2959C13.8896 12.2959 13.582 11.9883 13.582 11.6191C13.582 11.2412 13.8896 10.9336 14.2676 10.9336C14.6367 10.9336 14.9443 11.2412 14.9443 11.6191C14.9443 11.9883 14.6367 12.2959 14.2676 12.2959ZM5.46973 12.2959C5.10059 12.2959 4.80176 11.9883 4.80176 11.6191C4.80176 11.2412 5.10059 10.9336 5.46973 10.9336C5.84766 10.9336 6.15527 11.2412 6.15527 11.6191C6.15527 11.9883 5.84766 12.2959 5.46973 12.2959ZM9.87305 12.3311C9.49512 12.3311 9.1875 12.0322 9.1875 11.6543C9.1875 11.2764 9.49512 10.9775 9.87305 10.9775C10.251 10.9775 10.5498 11.2764 10.5498 11.6543C10.5498 12.0322 10.251 12.3311 9.87305 12.3311ZM11.9121 13.5703C11.543 13.5703 11.2266 13.2627 11.2266 12.8848C11.2266 12.5068 11.543 12.1992 11.9121 12.1992C12.29 12.1992 12.5801 12.5068 12.5801 12.8848C12.5801 13.2627 12.29 13.5703 11.9121 13.5703ZM7.8252 13.5703C7.45605 13.5703 7.15723 13.2627 7.15723 12.8848C7.15723 12.5068 7.45605 12.1992 7.8252 12.1992C8.20312 12.1992 8.51953 12.5068 8.51953 12.8848C8.51953 13.2627 8.20312 13.5703 7.8252 13.5703ZM13.7051 14.4316C13.3359 14.4316 13.0371 14.1152 13.0371 13.7285C13.0371 13.3506 13.3359 13.0518 13.7051 13.0518C14.083 13.0518 14.3906 13.3506 14.3906 13.7285C14.3906 14.1152 14.0742 14.4316 13.7051 14.4316ZM6.03223 14.4316C5.66309 14.4316 5.34668 14.1152 5.34668 13.7285C5.34668 13.3506 5.66309 13.0518 6.03223 13.0518C6.40137 13.0518 6.7002 13.3506 6.7002 13.7285C6.7002 14.1152 6.40137 14.4316 6.03223 14.4316ZM9.87305 14.4756C9.49512 14.4756 9.1875 14.1504 9.1875 13.7637C9.1875 13.3945 9.49512 13.0869 9.87305 13.0869C10.251 13.0869 10.5498 13.3945 10.5498 13.7637C10.5498 14.1504 10.2422 14.4756 9.87305 14.4756ZM12.0527 16.0576C11.6836 16.0576 11.3936 15.75 11.3936 15.3633C11.3936 14.9941 11.6924 14.6777 12.0527 14.6777C12.4482 14.6777 12.7471 14.9941 12.7471 15.3633C12.7471 15.75 12.4482 16.0576 12.0527 16.0576ZM7.67578 16.0576C7.29785 16.0576 6.99902 15.75 6.99902 15.3633C6.99902 14.9941 7.29785 14.6777 7.67578 14.6777C8.05371 14.6777 8.34375 14.9941 8.34375 15.3633C8.34375 15.75 8.05371 16.0576 7.67578 16.0576ZM9.87305 16.7168C9.49512 16.7168 9.1875 16.418 9.1875 16.04C9.1875 15.6533 9.49512 15.3369 9.87305 15.3369C10.251 15.3369 10.5498 15.6533 10.5498 16.04C10.5498 16.418 10.2422 16.7168 9.87305 16.7168Z" fill="#1C1C1E"/>
</g>
<defs>
<clipPath id="clip0_10_336">
<rect width="24" height="24" fill="white"/>
</clipPath>
</defs>
</svg>
