<svg width="24" height="24" viewBox="0 0 24 24" fill="none" xmlns="http://www.w3.org/2000/svg">
<g clip-path="url(#clip0_10_337)">
<path d="M4.47656 19.8809H19.5146C21.4219 19.8809 22.415 18.8965 22.415 17.0156V6.31934C22.415 4.43848 21.4219 3.4541 19.5146 3.4541H18.5566L6.70898 -0.395508C6.27832 -0.536133 5.8125 -0.298828 5.68066 0.123047C5.54004 0.544922 5.77734 1.01074 6.20801 1.16016L13.2744 3.4541H4.47656C2.57812 3.4541 1.58496 4.42969 1.58496 6.31934V17.0156C1.58496 18.8965 2.57812 19.8809 4.47656 19.8809ZM4.59082 18.1318C3.78223 18.1318 3.33398 17.71 3.33398 16.8574V6.47754C3.33398 5.625 3.78223 5.20312 4.59082 5.20312H19.4004C20.209 5.20312 20.6572 5.625 20.6572 6.47754V16.8574C20.6572 17.71 20.209 18.1318 19.4004 18.1318H4.59082ZM9.95215 8.1123C10.3125 8.1123 10.6025 7.80469 10.6025 7.43555C10.6025 7.0752 10.3125 6.78516 9.95215 6.78516C9.5918 6.78516 9.30176 7.0752 9.30176 7.43555C9.30176 7.80469 9.5918 8.1123 9.95215 8.1123ZM17.5986 9.78223C18.3545 9.77344 18.9609 9.17578 18.9609 8.42871C18.9609 7.67285 18.3545 7.06641 17.5986 7.04883C16.8428 7.04004 16.2188 7.67285 16.2188 8.42871C16.2188 9.17578 16.8428 9.79102 17.5986 9.78223ZM12.0615 8.70996C12.4307 8.70996 12.7119 8.41113 12.7119 8.05078C12.7119 7.67285 12.4307 7.38281 12.0615 7.38281C11.7012 7.38281 11.4199 7.67285 11.4199 8.05078C11.4199 8.41113 11.7012 8.70996 12.0615 8.70996ZM7.84277 8.70996C8.20312 8.70996 8.48438 8.41113 8.48438 8.05078C8.48438 7.67285 8.20312 7.38281 7.84277 7.38281C7.47363 7.38281 7.18359 7.67285 7.18359 8.05078C7.18359 8.41113 7.47363 8.70996 7.84277 8.70996ZM13.6436 10.2305C14.0039 10.2305 14.3115 9.94043 14.3115 9.58008C14.3115 9.21094 14.0039 8.90332 13.6436 8.90332C13.2832 8.90332 13.002 9.21094 13.002 9.58008C13.002 9.94043 13.2832 10.2305 13.6436 10.2305ZM6.26074 10.2305C6.6123 10.2305 6.90234 9.94043 6.90234 9.58008C6.90234 9.21094 6.6123 8.90332 6.26074 8.90332C5.90039 8.90332 5.59277 9.21094 5.59277 9.58008C5.59277 9.94043 5.90039 10.2305 6.26074 10.2305ZM9.95215 10.2744C10.3125 10.2744 10.6025 9.98438 10.6025 9.62402C10.6025 9.24609 10.3125 8.94727 9.95215 8.94727C9.5918 8.94727 9.30176 9.24609 9.30176 9.62402C9.30176 9.98438 9.5918 10.2744 9.95215 10.2744ZM11.9121 11.127C12.2725 11.127 12.5625 10.8281 12.5625 10.4766C12.5625 10.1162 12.2725 9.80859 11.9121 9.80859C11.5605 9.80859 11.2529 10.1162 11.2529 10.4766C11.2529 10.8281 11.5605 11.127 11.9121 11.127ZM7.9834 11.127C8.34375 11.127 8.65137 10.8281 8.65137 10.4766C8.65137 10.1162 8.34375 9.80859 7.9834 9.80859C7.62305 9.80859 7.3418 10.1162 7.3418 10.4766C7.3418 10.8281 7.62305 11.127 7.9834 11.127ZM17.5986 13.6846C18.3457 13.6846 18.9609 13.0605 18.9609 12.3135C18.9609 11.5576 18.3545 10.9424 17.5986 10.9424C16.8428 10.9424 16.2188 11.5576 16.2188 12.3135C16.2188 13.0605 16.8428 13.6846 17.5986 13.6846ZM14.1797 12.2695C14.54 12.2695 14.8301 11.9795 14.8301 11.6191C14.8301 11.25 14.54 10.96 14.1797 10.96C13.8193 10.96 13.5293 11.25 13.5293 11.6191C13.5293 11.9795 13.8193 12.2695 14.1797 12.2695ZM5.72461 12.2695C6.08496 12.2695 6.375 11.9795 6.375 11.6191C6.375 11.25 6.08496 10.96 5.72461 10.96C5.36426 10.96 5.06543 11.25 5.06543 11.6191C5.06543 11.9795 5.36426 12.2695 5.72461 12.2695ZM9.95215 12.3047C10.3125 12.3047 10.6025 12.0146 10.6025 11.6543C10.6025 11.2939 10.3125 11.0039 9.95215 11.0039C9.5918 11.0039 9.30176 11.2939 9.30176 11.6543C9.30176 12.0146 9.5918 12.3047 9.95215 12.3047ZM11.9121 13.5C12.2725 13.5 12.5625 13.2012 12.5625 12.8408C12.5625 12.4717 12.2725 12.1816 11.9121 12.1816C11.5605 12.1816 11.2529 12.4717 11.2529 12.8408C11.2529 13.2012 11.5605 13.5 11.9121 13.5ZM7.9834 13.5C8.34375 13.5 8.65137 13.2012 8.65137 12.8408C8.65137 12.4717 8.34375 12.1816 7.9834 12.1816C7.62305 12.1816 7.3418 12.4717 7.3418 12.8408C7.3418 13.2012 7.62305 13.5 7.9834 13.5ZM13.6436 14.3262C14.0039 14.3262 14.3115 14.0186 14.3115 13.6494C14.3115 13.2891 14.0039 12.999 13.6436 12.999C13.2832 12.999 13.002 13.2891 13.002 13.6494C13.002 14.0186 13.2832 14.3262 13.6436 14.3262ZM6.26074 14.3262C6.6123 14.3262 6.90234 14.0186 6.90234 13.6494C6.90234 13.2891 6.6123 12.999 6.26074 12.999C5.90039 12.999 5.59277 13.2891 5.59277 13.6494C5.59277 14.0186 5.90039 14.3262 6.26074 14.3262ZM9.95215 14.3613C10.3125 14.3613 10.6025 14.0537 10.6025 13.6934C10.6025 13.3242 10.3125 13.0342 9.95215 13.0342C9.5918 13.0342 9.30176 13.3242 9.30176 13.6934C9.30176 14.0537 9.5918 14.3613 9.95215 14.3613ZM12.0615 15.8906C12.4307 15.8906 12.7119 15.5918 12.7119 15.2227C12.7119 14.8623 12.4307 14.5635 12.0615 14.5635C11.7012 14.5635 11.4199 14.8623 11.4199 15.2227C11.4199 15.5918 11.7012 15.8906 12.0615 15.8906ZM7.84277 15.8906C8.20312 15.8906 8.48438 15.5918 8.48438 15.2227C8.48438 14.8623 8.20312 14.5635 7.84277 14.5635C7.47363 14.5635 7.18359 14.8623 7.18359 15.2227C7.18359 15.5918 7.47363 15.8906 7.84277 15.8906ZM9.95215 16.5322C10.3125 16.5322 10.6025 16.2334 10.6025 15.873C10.6025 15.5039 10.3125 15.1963 9.95215 15.1963C9.5918 15.1963 9.30176 15.5039 9.30176 15.873C9.30176 16.2334 9.5918 16.5322 9.95215 16.5322Z" fill="#1C1C1E"/>
</g>
<defs>
<clipPath id="clip0_10_337">
<rect width="24" height="24" fill="white"/>
</clipPath>
</defs>
</svg>
