<svg width="24" height="24" viewBox="0 0 24 24" fill="none" xmlns="http://www.w3.org/2000/svg">
<g clip-path="url(#clip0_10_540)">
<path d="M12.7383 13.5352C14.083 14.8711 16.1309 14.915 17.5459 13.5088L21.7383 9.30762C21.958 9.08789 21.9492 8.70996 21.7295 8.50781C21.501 8.29688 21.1758 8.29688 20.9473 8.52539L16.79 12.6826C15.8057 13.6582 14.4434 13.6494 13.5469 12.7266C12.6328 11.7949 12.6064 10.4502 13.5908 9.47461L18.9082 4.15723C19.5322 3.5332 20.3936 3.49805 20.9385 4.03418C21.4834 4.55273 21.4307 5.41406 20.8066 6.04688L15.6211 11.2588C15.4277 11.4609 15.1816 11.4521 15.0059 11.2676C14.8213 11.0742 14.8213 10.8369 15.0234 10.6436L18.6709 6.9873C18.8994 6.75879 18.8906 6.44238 18.6885 6.22266C18.4775 6.01172 18.1611 6.01172 17.9326 6.24902L14.25 9.92285C13.6436 10.5381 13.6436 11.4873 14.2061 12.0498C14.8125 12.6562 15.7178 12.6562 16.3418 12.0234L21.5713 6.81152C22.6699 5.71289 22.6436 4.2627 21.6592 3.27832C20.6924 2.30273 19.1982 2.27637 18.126 3.35742L12.7734 8.71875C11.3584 10.125 11.4023 12.1992 12.7383 13.5352ZM1.49707 8.12109H3.24609V6.47754C3.24609 5.625 3.69434 5.20312 4.50293 5.20312H6.1377V3.4541H4.38867C2.49023 3.4541 1.49707 4.42969 1.49707 6.31934V8.12109ZM7.42969 5.20312H11.2617V3.4541H7.42969V5.20312ZM12.5449 3.4541V5.20312H13.9863L15.7354 3.4541H12.5449ZM1.49707 13.9219H3.24609V9.41309H1.49707V13.9219ZM22.3271 13.9219V10.8984L20.5693 12.6562V13.9219H22.3271ZM4.38867 19.8809H6.1377V18.1318H4.50293C3.69434 18.1318 3.24609 17.71 3.24609 16.8574V15.2051H1.49707V17.0156C1.49707 18.8965 2.49023 19.8809 4.38867 19.8809ZM19.4268 19.8809C21.3252 19.8809 22.3271 18.8965 22.3271 17.0156V15.2051H20.5693V16.8574C20.5693 17.71 20.1299 18.1318 19.3125 18.1318H17.6777V19.8809H19.4268ZM7.42969 19.8809H11.2617V18.1318H7.42969V19.8809ZM12.5537 19.8809H16.3945V18.1318H12.5537V19.8809Z" fill="#1C1C1E"/>
</g>
<defs>
<clipPath id="clip0_10_540">
<rect width="24" height="24" fill="white"/>
</clipPath>
</defs>
</svg>
