<svg width="24" height="24" viewBox="0 0 24 24" fill="none" xmlns="http://www.w3.org/2000/svg">
<g clip-path="url(#clip0_10_695)">
<path d="M24.5508 4.96582L25.2363 4.2627C25.5791 3.90234 25.5967 3.41016 25.2539 3.06738L25.0254 2.83008C24.7178 2.52246 24.208 2.56641 23.874 2.90039L23.1797 3.58594L24.5508 4.96582ZM14.5225 13.9307L16.377 13.1309L23.9092 5.60742L22.5293 4.24512L15.0059 11.7686L14.1709 13.5703C14.083 13.7812 14.3203 14.0186 14.5225 13.9307ZM1.0752 19.8633H19.418C21.0791 19.8633 22.002 18.958 22.002 17.3057V9.77344L20.2266 11.5488V17.1475C20.2266 17.833 19.8398 18.2197 19.1455 18.2197H1.33887C0.65332 18.2197 0.266602 17.833 0.266602 17.1475V9.82617C0.266602 9.13184 0.65332 8.75391 1.33887 8.75391H15.7441L17.3789 7.11914H1.0752C-0.585938 7.11914 -1.50879 8.01562 -1.50879 9.66797V17.3057C-1.50879 18.958 -0.585938 19.8633 1.0752 19.8633ZM3.51855 14.8008C4.23926 14.8008 4.81934 14.2119 4.81934 13.4912C4.81934 12.7617 4.23926 12.1816 3.51855 12.1816C2.78906 12.1816 2.2002 12.7617 2.2002 13.4912C2.2002 14.2119 2.78906 14.8008 3.51855 14.8008ZM7.40332 14.8008C8.12402 14.8008 8.71289 14.2119 8.71289 13.4912C8.71289 12.7617 8.12402 12.1816 7.40332 12.1816C6.67383 12.1816 6.09375 12.7617 6.09375 13.4912C6.09375 14.2119 6.67383 14.8008 7.40332 14.8008ZM11.2881 14.8008C12.0088 14.8008 12.5977 14.2119 12.5977 13.4912C12.5977 12.7617 12.0088 12.1816 11.2881 12.1816C10.5674 12.1816 9.97852 12.7617 9.97852 13.4912C9.97852 14.2119 10.5674 14.8008 11.2881 14.8008Z" fill="#1C1C1E"/>
</g>
<defs>
<clipPath id="clip0_10_695">
<rect width="24" height="24" fill="white"/>
</clipPath>
</defs>
</svg>
