<svg width="24" height="24" viewBox="0 0 24 24" fill="none" xmlns="http://www.w3.org/2000/svg">
<g clip-path="url(#clip0_10_474)">
<path d="M16.834 20.6895V14.2119C18.293 12.8936 19.2158 10.9775 19.2158 8.85059C19.2246 4.84277 15.9814 1.6084 12 1.6084C8.01855 1.6084 4.78418 4.84277 4.78418 8.85059C4.78418 11.0215 5.74219 12.9814 7.2627 14.2998V20.6895C7.2627 21.3047 7.62305 21.5771 8.07129 21.5771C8.41406 21.5771 8.66895 21.4014 8.93262 21.1377L11.71 18.3779C11.8418 18.2461 11.9473 18.2021 12.0527 18.2021C12.1494 18.2021 12.2549 18.2461 12.3867 18.3779L15.1641 21.1377C15.4365 21.4102 15.7002 21.5771 16.0342 21.5771C16.4824 21.5771 16.834 21.3047 16.834 20.6895ZM12.0088 14.3438C8.9502 14.335 6.55957 11.8916 6.55957 8.85059C6.55957 5.80078 8.9502 3.35742 12.0088 3.35742C15.0586 3.35742 17.4492 5.80078 17.458 8.85059C17.4668 11.8916 15.0586 14.3438 12.0088 14.3438Z" fill="#1C1C1E"/>
</g>
<defs>
<clipPath id="clip0_10_474">
<rect width="24" height="24" fill="white"/>
</clipPath>
</defs>
</svg>
