<svg width="24" height="24" viewBox="0 0 24 24" fill="none" xmlns="http://www.w3.org/2000/svg">
<g clip-path="url(#clip0_10_612)">
<path d="M23.0039 9.19336C23.0039 7.58496 22.125 6.71484 20.5078 6.71484H3.49219C1.86621 6.71484 0.996094 7.57617 0.996094 9.19336V14.124C0.996094 15.7324 1.875 16.6025 3.50098 16.6025H20.5078C22.1338 16.6025 23.0039 15.7324 23.0039 14.124V9.19336ZM3.89648 8.39355L3.8877 12.542C3.8877 12.7617 3.72949 12.9199 3.49219 12.9287C3.28125 12.9375 3.10547 12.7705 3.10547 12.5508V8.39355H3.89648ZM5.60156 8.39355L5.59277 11.0742C5.59277 11.3027 5.43457 11.4609 5.19727 11.4697C4.98633 11.4785 4.81055 11.3115 4.81055 11.0918V8.39355H5.60156ZM7.29785 8.39355V11.0742C7.29785 11.3027 7.13965 11.4609 6.90234 11.4697C6.69141 11.4785 6.51562 11.3115 6.51562 11.0918V8.39355H7.29785ZM9.00293 8.39355L8.99414 11.0742C8.99414 11.3027 8.83594 11.4609 8.60742 11.4697C8.3877 11.4785 8.21191 11.3115 8.21191 11.0918V8.39355H9.00293ZM10.708 8.39355L10.6992 11.0742C10.6992 11.3027 10.541 11.4609 10.3037 11.4697C10.0928 11.4785 9.91699 11.3115 9.91699 11.0918V8.39355H10.708ZM12.4043 8.39355L12.3955 12.542C12.3955 12.7617 12.2373 12.9199 12.0088 12.9287C11.7891 12.9375 11.6133 12.7705 11.6133 12.5508V8.39355H12.4043ZM14.1094 8.39355L14.1006 11.0742C14.1006 11.3027 13.9424 11.4609 13.7139 11.4697C13.4941 11.4785 13.3184 11.3115 13.3184 11.0918V8.39355H14.1094ZM15.8145 8.39355L15.8057 11.0742C15.8057 11.3027 15.6475 11.4609 15.4189 11.4697C15.1992 11.4785 15.0234 11.3115 15.0234 11.0918V8.39355H15.8145ZM17.5107 8.39355L17.502 11.0742C17.502 11.3027 17.3438 11.4609 17.1152 11.4697C16.8955 11.4785 16.7197 11.3115 16.7197 11.0918V8.39355H17.5107ZM19.2158 8.39355L19.207 11.0742C19.207 11.3027 19.0488 11.4609 18.8203 11.4697C18.6006 11.4785 18.4248 11.3115 18.4248 11.0918V8.39355H19.2158ZM20.9121 8.39355L20.9033 12.542C20.9033 12.7617 20.7451 12.9199 20.5166 12.9287C20.2969 12.9375 20.1211 12.7705 20.1211 12.5508V8.39355H20.9121Z" fill="#1C1C1E"/>
</g>
<defs>
<clipPath id="clip0_10_612">
<rect width="24" height="24" fill="white"/>
</clipPath>
</defs>
</svg>
