<svg width="24" height="24" viewBox="0 0 24 24" fill="none" xmlns="http://www.w3.org/2000/svg">
<g clip-path="url(#clip0_10_616)">
<path d="M23.0039 9.19336C23.0039 7.58496 22.1162 6.71484 20.499 6.71484H3.4834C1.85742 6.71484 0.987305 7.58496 0.987305 9.19336L0.996094 14.124C0.996094 15.7324 1.86621 16.6025 3.49219 16.6025H20.5078C22.125 16.6025 23.0039 15.7324 23.0039 14.124V9.19336ZM21.3252 9.46582V13.8516C21.3252 14.5547 20.9385 14.9326 20.2617 14.9326H3.71191C3.05273 14.9326 2.66602 14.5547 2.66602 13.8516V9.46582C2.66602 8.7627 3.05273 8.38477 3.7207 8.38477H3.76465V12.5508C3.76465 12.7705 3.94043 12.9375 4.16016 12.9375C4.38867 12.9287 4.54688 12.7705 4.54688 12.542V8.38477H5.3291V11.0918C5.3291 11.3115 5.51367 11.4785 5.72461 11.4697C5.96191 11.4697 6.11133 11.3115 6.11133 11.083L6.12012 8.38477H6.89355V11.0918C6.89355 11.3115 7.07812 11.4785 7.28906 11.4697C7.52637 11.4697 7.67578 11.3115 7.67578 11.083L7.68457 8.38477H8.45801V11.0918C8.45801 11.3115 8.64258 11.4785 8.85352 11.4697C9.08203 11.4697 9.24023 11.3115 9.24023 11.083L9.24902 8.38477H10.0312V11.0918C10.0312 11.3115 10.207 11.4785 10.4268 11.4697C10.6553 11.4697 10.8135 11.3115 10.8135 11.083L10.8223 8.38477H11.6045V12.5508C11.6045 12.7705 11.7803 12.9375 12 12.9375C12.2285 12.9287 12.3867 12.7705 12.3867 12.542L12.3955 8.38477H13.1689V11.0918C13.1689 11.3115 13.3447 11.4785 13.5645 11.4697C13.793 11.4697 13.9512 11.3115 13.9512 11.083V8.38477H14.7422V11.0918C14.7422 11.3115 14.918 11.4785 15.1289 11.4697C15.3662 11.4697 15.5156 11.3115 15.5156 11.083L15.5244 8.38477H16.2979V11.0918C16.2979 11.3115 16.4824 11.4785 16.6934 11.4697C16.9307 11.4697 17.0801 11.3115 17.0801 11.083L17.0889 8.38477H17.8711V11.0918C17.8711 11.3115 18.0469 11.4785 18.2666 11.4697C18.4951 11.4697 18.6533 11.3115 18.6533 11.083L18.6621 8.38477H19.4443V12.5508C19.4443 12.7705 19.6201 12.9375 19.8311 12.9375C20.0684 12.9287 20.2266 12.7705 20.2266 12.542V8.38477H20.2705C20.9385 8.38477 21.3252 8.7627 21.3252 9.46582Z" fill="#1C1C1E"/>
</g>
<defs>
<clipPath id="clip0_10_616">
<rect width="24" height="24" fill="white"/>
</clipPath>
</defs>
</svg>
