<svg width="24" height="24" viewBox="0 0 24 24" fill="none" xmlns="http://www.w3.org/2000/svg">
<g clip-path="url(#clip0_10_328)">
<path d="M3.27246 18.0176C2.78906 19.96 3.63281 21.1025 5.52246 21.1025H18.4775C20.3672 21.1025 21.2021 19.96 20.7275 18.0176L18.7939 10.1865C18.4424 8.78906 17.4404 7.99805 16.0078 7.99805H12.8789V7.19824C13.9072 6.8291 14.6631 5.84473 14.6631 4.70215C14.6631 3.24316 13.4414 2.03027 12 2.03027C10.5498 2.03027 9.33691 3.24316 9.33691 4.70215C9.33691 5.84473 10.0928 6.8291 11.1211 7.19824V7.99805H7.9834C6.55078 7.99805 5.54883 8.78906 5.20605 10.1865L3.27246 18.0176ZM12 5.87988C11.3496 5.87988 10.8047 5.34375 10.8047 4.70215C10.8047 4.05176 11.3496 3.49805 12 3.49805C12.6504 3.49805 13.1953 4.05176 13.1953 4.70215C13.1953 5.34375 12.6504 5.87988 12 5.87988ZM4.97754 18.1318L6.8584 10.7314C7.02539 10.0723 7.41211 9.75586 8.0625 9.75586H15.9375C16.5879 9.75586 16.9658 10.0723 17.1328 10.7314L19.0137 18.1318C19.2246 18.9316 18.9082 19.3535 18.2139 19.3535H5.77734C5.08301 19.3535 4.77539 18.9316 4.97754 18.1318Z" fill="#1C1C1E"/>
</g>
<defs>
<clipPath id="clip0_10_328">
<rect width="24" height="24" fill="white"/>
</clipPath>
</defs>
</svg>
