<svg width="24" height="24" viewBox="0 0 24 24" fill="none" xmlns="http://www.w3.org/2000/svg">
<g clip-path="url(#clip0_10_639)">
<path d="M1.56738 17.1211C1.56738 19.002 2.56055 19.9863 4.45898 19.9863H19.541C21.4395 19.9863 22.4326 19.002 22.4326 17.1211V14.0801C22.4326 13.4561 22.2305 12.7705 21.7559 12.2607L18.4512 8.73633C18.2227 8.49902 18.0117 8.28809 17.792 8.1123C17.9678 7.97168 18.1436 7.80469 18.3369 7.60254L21.1143 4.79883C21.6328 4.28027 21.3428 3.33105 20.4814 3.33105H3.51855C2.65723 3.33105 2.37598 4.28027 2.89453 4.79883L5.66309 7.60254C5.86523 7.80469 6.04102 7.97168 6.20801 8.10352C5.99707 8.28809 5.77734 8.49902 5.55762 8.73633L2.25293 12.2607C1.76953 12.7705 1.56738 13.4561 1.56738 14.0801V17.1211ZM4.93359 4.86035H19.0664L16.8779 7.04883C16.6582 7.27734 16.4473 7.36523 16.0605 7.36523H7.93945C7.56152 7.36523 7.35059 7.27734 7.13086 7.04883L4.93359 4.86035ZM3.73828 13.1221L6.87598 9.62402C7.31543 9.12305 7.62305 8.88574 8.09766 8.88574H15.9023C16.377 8.88574 16.6846 9.12305 17.1328 9.62402L20.2617 13.1221C20.4639 13.3506 20.3584 13.6846 19.9805 13.6846H4.01953C3.65039 13.6846 3.53613 13.3506 3.73828 13.1221ZM6.89355 10.9336C6.97266 11.1709 7.21875 11.2588 7.44727 11.1797L10.1279 10.2129C10.3652 10.125 10.4883 9.8877 10.4004 9.65918C10.3213 9.42188 10.0752 9.33398 9.84668 9.41309L7.15723 10.3887C6.91992 10.4678 6.80566 10.7051 6.89355 10.9336ZM6.7793 12.5156C6.86719 12.7441 7.11328 12.8408 7.3418 12.7529L11.2441 11.3291C11.4814 11.25 11.5957 11.0215 11.5166 10.7842C11.4287 10.5557 11.2002 10.4502 10.9541 10.5381L7.05176 11.9619C6.81445 12.0498 6.7002 12.2695 6.7793 12.5156ZM3.29883 16.9629V15.3105H20.71V16.9629C20.71 17.8066 20.2529 18.2285 19.4531 18.2285H4.54688C3.73828 18.2285 3.29883 17.8066 3.29883 16.9629ZM15.6387 16.7695C15.6387 17.0508 15.8672 17.2529 16.1484 17.2529H18.5303C18.8115 17.2529 19.0312 17.0508 19.0312 16.7695C19.0312 16.4795 18.8115 16.2861 18.5303 16.2861H16.1484C15.8496 16.2861 15.6299 16.4795 15.6387 16.7695Z" fill="#1C1C1E"/>
</g>
<defs>
<clipPath id="clip0_10_639">
<rect width="24" height="24" fill="white"/>
</clipPath>
</defs>
</svg>
