<svg width="24" height="24" viewBox="0 0 24 24" fill="none" xmlns="http://www.w3.org/2000/svg">
<g clip-path="url(#clip0_10_368)">
<path d="M4.2041 10.5732C5.8916 10.5732 6.12012 9.89648 6.89355 9.89648C7.07812 9.89648 7.20996 9.93164 7.42969 10.0459L8.73926 10.749C8.93262 10.8545 9.09082 10.9512 9.22266 11.0215H9.28418C9.50391 10.2217 9.81152 9.74707 10.3916 9.36035V9.29004L8.57227 8.32324C7.93066 7.98047 7.86035 7.70801 7.86035 6.91699C7.86035 4.87793 6.23438 3.24316 4.2041 3.24316C2.17383 3.24316 0.556641 4.87793 0.556641 6.91699C0.556641 8.93848 2.17383 10.5732 4.2041 10.5732ZM4.2041 8.91211C3.11426 8.91211 2.23535 8.00684 2.23535 6.91699C2.23535 5.79199 3.11426 4.91309 4.2041 4.91309C5.31152 4.91309 6.19043 5.79199 6.19043 6.91699C6.19043 8.00684 5.31152 8.91211 4.2041 8.91211ZM4.2041 20.5752C6.23438 20.5752 7.86035 18.9492 7.86035 16.9014C7.86035 16.1631 7.91309 15.8555 8.48438 15.5479L23.4434 7.61133C23.083 6.22266 21.5713 5.93262 19.3125 6.74121L11.71 9.47461C10.6201 9.87012 10.1367 10.415 9.84668 11.4258L9.66211 12.085C9.53027 12.5596 9.31055 12.7793 8.58105 13.1572L7.42969 13.7725C7.19238 13.8955 7.06934 13.9307 6.89355 13.9307C6.1377 13.9307 5.88281 13.2451 4.2041 13.2451C2.17383 13.2451 0.556641 14.8799 0.556641 16.9014C0.556641 18.9404 2.17383 20.5752 4.2041 20.5752ZM11.8945 12.1201C11.5078 12.1201 11.165 11.7949 11.165 11.3906C11.165 10.9775 11.5078 10.6523 11.8945 10.6523C12.3076 10.6523 12.6416 10.9775 12.6416 11.3906C12.6416 11.7949 12.3076 12.1201 11.8945 12.1201ZM19.3125 17.0684C21.5801 17.9033 23.083 17.5957 23.4434 16.1719L16.1133 12.2959L12.2812 14.3174V14.4316L19.3125 17.0684ZM4.2041 18.9053C3.11426 18.9053 2.23535 18.0088 2.23535 16.9014C2.23535 15.8027 3.11426 14.9062 4.2041 14.9062C5.31152 14.9062 6.19043 15.8027 6.19043 16.9014C6.19043 18.0088 5.31152 18.9053 4.2041 18.9053Z" fill="#1C1C1E"/>
</g>
<defs>
<clipPath id="clip0_10_368">
<rect width="24" height="24" fill="white"/>
</clipPath>
</defs>
</svg>
