<svg width="24" height="24" viewBox="0 0 24 24" fill="none" xmlns="http://www.w3.org/2000/svg">
<g clip-path="url(#clip0_10_583)">
<path d="M2.4375 6.58301C2.4375 7.18945 2.85059 7.58496 3.46582 7.58496H5.54883V18.2197C5.54883 20.1357 6.50684 21.1025 8.42285 21.1025H18.6621C20.4023 21.1025 21.5625 19.9072 21.5625 18.1055V15.6094C21.5625 15.0117 21.1494 14.6074 20.543 14.6074H19.8135V5.09766C19.8135 3.19922 18.8291 2.20605 16.9482 2.20605H4.87207C3.43066 2.20605 2.4375 3.20801 2.4375 4.7373V6.58301ZM4.10742 5.91504V4.7373C4.10742 4.20117 4.42383 3.87598 4.87207 3.87598C5.3291 3.87598 5.62793 4.20117 5.62793 4.7373V5.91504H4.10742ZM7.29785 18.1406V4.85156C7.29785 4.52637 7.27148 4.22754 7.21875 3.95508H16.79C17.6426 3.95508 18.0645 4.40332 18.0645 5.21191V14.6074H10.7256C10.1104 14.6074 9.69727 15.0117 9.69727 15.6094V18.1406C9.69727 18.8701 9.20508 19.3535 8.50195 19.3535C7.79883 19.3535 7.29785 18.8438 7.29785 18.1406ZM9.73242 7.60254H15.6387C15.9551 7.60254 16.2012 7.35645 16.2012 7.04004C16.2012 6.73242 15.9551 6.49512 15.6387 6.49512H9.73242C9.39844 6.49512 9.16113 6.73242 9.16113 7.04004C9.16113 7.35645 9.39844 7.60254 9.73242 7.60254ZM9.73242 10.5996H12.835C13.1602 10.5996 13.3975 10.3623 13.3975 10.0547C13.3975 9.73828 13.1602 9.49219 12.835 9.49219H9.73242C9.39844 9.49219 9.16113 9.73828 9.16113 10.0547C9.16113 10.3623 9.39844 10.5996 9.73242 10.5996ZM11.1562 19.3535C11.3496 18.9844 11.4551 18.5537 11.4551 18.0439V16.3652H19.8135V18.0176C19.8135 18.8262 19.3125 19.3535 18.583 19.3535H11.1562Z" fill="#1C1C1E"/>
</g>
<defs>
<clipPath id="clip0_10_583">
<rect width="24" height="24" fill="white"/>
</clipPath>
</defs>
</svg>
