<svg width="24" height="24" viewBox="0 0 24 24" fill="none" xmlns="http://www.w3.org/2000/svg">
<g clip-path="url(#clip0_10_581)">
<path d="M4.81934 2.20605C5.46973 2.55762 5.69824 3.05859 5.69824 3.94629V18.7295C5.69824 19.9424 6.39258 20.6191 7.39453 20.6191C8.34375 20.6191 9.01172 19.96 9.01172 18.791V16.2598C9.01172 14.9854 9.63574 14.3086 10.9102 14.3086H19.6377V5.09766C19.6377 3.19922 18.6533 2.20605 16.7725 2.20605H4.81934ZM2.47266 6.58301C2.47266 7.18945 2.88574 7.58496 3.50098 7.58496H4.40625V4.53516C4.40625 3.98145 3.97559 3.58594 3.44824 3.58594C2.91211 3.58594 2.47266 3.98145 2.47266 4.53516V6.58301ZM9.19629 6.87305C9.19629 6.56543 9.43359 6.32812 9.76758 6.32812H15.7354C16.0518 6.32812 16.2979 6.56543 16.2979 6.87305C16.2979 7.18945 16.0518 7.44434 15.7354 7.44434H9.76758C9.43359 7.44434 9.19629 7.18945 9.19629 6.87305ZM9.19629 9.8877C9.19629 9.57129 9.43359 9.3252 9.76758 9.3252H12.9316C13.2568 9.3252 13.4941 9.57129 13.4941 9.8877C13.4941 10.1953 13.2568 10.4414 12.9316 10.4414H9.76758C9.43359 10.4414 9.19629 10.1953 9.19629 9.8877ZM9.41602 21.1025H18.627C20.3672 21.1025 21.5273 20.1006 21.5273 18.2988V16.6025C21.5273 15.9961 21.1143 15.6006 20.499 15.6006H11.3232C10.708 15.6006 10.2949 15.9961 10.2949 16.6025V18.4482C10.2949 19.5117 10.1279 20.3906 9.41602 21.1025Z" fill="#1C1C1E"/>
</g>
<defs>
<clipPath id="clip0_10_581">
<rect width="24" height="24" fill="white"/>
</clipPath>
</defs>
</svg>
