<svg width="24" height="24" viewBox="0 0 24 24" fill="none" xmlns="http://www.w3.org/2000/svg">
<g clip-path="url(#clip0_10_329)">
<path d="M19.5498 18.29V5.03613C19.5498 3.1377 18.5654 2.14453 16.6846 2.14453H10.9717C10.0488 2.14453 9.41602 2.39062 8.84473 2.9707L5.21484 6.60059C4.66113 7.14551 4.4502 7.72559 4.4502 8.66602V18.29C4.4502 20.1885 5.43457 21.1904 7.31543 21.1904H16.6846C18.5742 21.1904 19.5498 20.1973 19.5498 18.29ZM17.8008 18.1758C17.8008 18.9932 17.3789 19.4326 16.5352 19.4326H7.47363C6.62109 19.4326 6.19922 18.9932 6.19922 18.1758V8.71875C6.19922 8.15625 6.31348 7.83105 6.62109 7.52344L9.67969 4.43848C10.04 4.06934 10.4531 3.89355 11.0068 3.89355H16.5264C17.3789 3.89355 17.8008 4.35059 17.8008 5.15039V18.1758ZM9.9082 6.08203V8.78027C9.9082 9.10547 10.1719 9.36914 10.4971 9.36914C10.8311 9.36914 11.0859 9.10547 11.0859 8.78027V6.08203C11.0859 5.74805 10.8311 5.49316 10.4971 5.49316C10.1719 5.49316 9.9082 5.75684 9.9082 6.08203ZM11.7012 6.08203V8.78027C11.7012 9.10547 11.9824 9.36914 12.3076 9.36914C12.6328 9.36914 12.8965 9.10547 12.8965 8.78027V6.08203C12.8965 5.75684 12.6416 5.49316 12.3076 5.49316C11.9736 5.49316 11.7012 5.75684 11.7012 6.08203ZM13.5205 6.08203V8.78027C13.5205 9.10547 13.7842 9.36914 14.1094 9.36914C14.4258 9.36914 14.6895 9.10547 14.6895 8.78027V6.08203C14.6895 5.74805 14.4434 5.49316 14.1094 5.49316C13.7754 5.49316 13.5205 5.75684 13.5205 6.08203ZM15.3311 6.08203V8.77148C15.3311 9.10547 15.5947 9.36914 15.9199 9.36914C16.2451 9.36914 16.5 9.10547 16.5 8.77148V6.08203C16.5 5.74805 16.2451 5.49316 15.9199 5.49316C15.5859 5.49316 15.3311 5.75684 15.3311 6.08203Z" fill="#1C1C1E"/>
</g>
<defs>
<clipPath id="clip0_10_329">
<rect width="24" height="24" fill="white"/>
</clipPath>
</defs>
</svg>
