<svg width="24" height="24" viewBox="0 0 24 24" fill="none" xmlns="http://www.w3.org/2000/svg">
<g clip-path="url(#clip0_10_319)">
<path d="M16.6846 21.1904C18.5742 21.1904 19.5498 20.1973 19.5498 18.29V5.03613C19.5498 3.1377 18.5654 2.14453 16.6846 2.14453H10.9717C10.0488 2.14453 9.41602 2.39062 8.84473 2.9707L5.21484 6.60059C4.66113 7.14551 4.4502 7.72559 4.4502 8.66602V18.29C4.4502 20.1885 5.43457 21.1904 7.31543 21.1904H16.6846ZM10.1455 5.8623C10.1455 5.51953 10.4268 5.24707 10.7695 5.24707C11.1123 5.24707 11.376 5.51074 11.376 5.8623V8.66602C11.376 9.00879 11.1123 9.29004 10.7695 9.29004C10.4268 9.29004 10.1455 9.00879 10.1455 8.66602V5.8623ZM12.0264 5.8623C12.0264 5.51953 12.3076 5.24707 12.668 5.24707C13.0107 5.24707 13.2744 5.51953 13.2744 5.8623V8.66602C13.2744 9.00879 13.002 9.29004 12.668 9.29004C12.3164 9.29004 12.0264 9.00879 12.0264 8.66602V5.8623ZM13.9336 5.8623C13.9336 5.51953 14.1973 5.24707 14.54 5.24707C14.8916 5.24707 15.1641 5.51074 15.1641 5.8623V8.66602C15.1641 9 14.8828 9.29004 14.54 9.29004C14.2061 9.29004 13.9336 9.00879 13.9336 8.66602V5.8623ZM15.8232 5.8623C15.8232 5.51953 16.0957 5.24707 16.4385 5.24707C16.7812 5.24707 17.0537 5.51074 17.0537 5.8623V8.65723C17.0537 9.00879 16.7812 9.29004 16.4385 9.29004C16.1045 9.29004 15.8232 9.00879 15.8232 8.65723V5.8623Z" fill="#1C1C1E"/>
</g>
<defs>
<clipPath id="clip0_10_319">
<rect width="24" height="24" fill="white"/>
</clipPath>
</defs>
</svg>
