<svg width="24" height="24" viewBox="0 0 24 24" fill="none" xmlns="http://www.w3.org/2000/svg">
<g clip-path="url(#clip0_10_532)">
<path d="M19.2773 20.3555C19.5498 20.6279 19.998 20.6279 20.2617 20.3555C20.5342 20.083 20.5342 19.6348 20.2617 19.3623L3.87891 2.98828C3.60645 2.71582 3.1582 2.71582 2.87695 2.98828C2.61328 3.25195 2.61328 3.70898 2.87695 3.97266L19.2773 20.3555ZM18.6973 16.2422C19.2158 15.4336 19.4355 14.5459 19.4355 13.4121V6.77637C19.4355 5.72168 19.0312 5.34375 18.1436 4.96582C17.168 4.55273 13.8896 3.41016 12.9404 3.08496C12.6416 2.98828 12.2988 2.92676 12 2.92676C11.7012 2.92676 11.3584 3.00586 11.0684 3.08496C10.3301 3.30469 8.42285 3.98145 6.98145 4.52637L12.0088 9.54492V4.60547C12.1406 4.60547 12.2725 4.63184 12.4746 4.70215C13.6348 5.15918 16.1396 6.04688 17.4492 6.5127C17.6953 6.60938 17.7656 6.74121 17.7656 7.05762V13.0869C17.7656 13.8252 17.6426 14.4053 17.3789 14.915L18.6973 16.2422ZM4.56445 7.21582V13.4121C4.56445 16.6113 6.33105 17.8682 11.3848 20.6367C11.6045 20.7598 11.8418 20.8125 12 20.8125C12.1582 20.8125 12.3955 20.7598 12.624 20.6367C13.9863 19.8896 15.1025 19.2568 16.0166 18.668L14.7246 17.3848C14.1094 17.7803 13.3711 18.2197 12.501 18.7471C12.2637 18.9053 12.1318 18.9492 12.0088 18.9492V14.6602L4.56445 7.21582Z" fill="#1C1C1E"/>
</g>
<defs>
<clipPath id="clip0_10_532">
<rect width="24" height="24" fill="white"/>
</clipPath>
</defs>
</svg>
