<svg width="24" height="24" viewBox="0 0 24 24" fill="none" xmlns="http://www.w3.org/2000/svg">
<g clip-path="url(#clip0_10_535)">
<path d="M19.2334 20.3555C19.5059 20.6279 19.9541 20.6279 20.2178 20.3555C20.4902 20.083 20.499 19.6348 20.2178 19.3623L3.83496 2.98828C3.5625 2.71582 3.11426 2.71582 2.83301 2.98828C2.56934 3.25195 2.56934 3.70898 2.83301 3.97266L19.2334 20.3555ZM18.6533 16.2422C19.1719 15.4424 19.3916 14.5547 19.3916 13.4121V6.77637C19.3916 5.72168 18.9873 5.34375 18.0996 4.96582C17.1328 4.55273 13.8457 3.41016 12.8965 3.08496C12.5977 2.98828 12.2637 2.92676 11.9561 2.92676C11.6572 2.92676 11.3145 3.00586 11.0244 3.08496C10.2861 3.31348 8.37012 3.99023 6.94629 4.52637L8.27344 5.85352C9.40723 5.44043 10.7432 4.97461 11.4902 4.70215C11.6924 4.63184 11.833 4.60547 11.9561 4.60547C12.0879 4.60547 12.2285 4.63184 12.4307 4.70215C13.6084 5.12402 16.0957 6.04688 17.4053 6.5127C17.6602 6.60938 17.7217 6.74121 17.7217 7.05762V13.0869C17.7217 13.834 17.5986 14.4141 17.335 14.9238L18.6533 16.2422ZM4.5293 13.4121C4.5293 16.6113 6.28711 17.8682 11.3408 20.6367C11.5693 20.7598 11.8066 20.8125 11.9561 20.8125C12.1143 20.8125 12.3516 20.7598 12.5801 20.6367C13.9424 19.8896 15.0674 19.2568 15.9727 18.6592L14.6895 17.376C14.0654 17.7803 13.3271 18.2109 12.4658 18.7471C12.2109 18.9053 12.0879 18.9492 11.9561 18.9492C11.833 18.9492 11.71 18.9053 11.4551 18.7471C7.44727 16.3037 6.19922 15.6445 6.19922 13.0869V8.88574L4.5293 7.21582V13.4121Z" fill="#1C1C1E"/>
</g>
<defs>
<clipPath id="clip0_10_535">
<rect width="24" height="24" fill="white"/>
</clipPath>
</defs>
</svg>
