<svg width="24" height="24" viewBox="0 0 24 24" fill="none" xmlns="http://www.w3.org/2000/svg">
<g clip-path="url(#clip0_10_520)">
<path d="M19.2773 20.3555C19.5498 20.6279 19.998 20.6279 20.2617 20.3555C20.5342 20.083 20.5342 19.6348 20.2617 19.3623L3.87891 2.98828C3.60645 2.71582 3.1582 2.71582 2.87695 2.98828C2.61328 3.25195 2.61328 3.70898 2.87695 3.97266L19.2773 20.3555ZM18.583 16.1367C19.1016 15.3281 19.3125 14.4316 19.3125 13.3066V6.77637C19.3125 5.73926 18.917 5.36133 18.0469 5.00098C17.0801 4.59668 13.8633 3.46289 12.9229 3.14648C12.6328 3.05859 12.2988 2.99707 12 2.99707C11.7012 2.99707 11.3672 3.05859 11.0771 3.14648C10.3477 3.38379 8.44043 4.06055 7.04297 4.58789L18.583 16.1367ZM4.6875 7.33887V13.3066C4.6875 16.4619 6.42773 17.7012 11.3936 20.417C11.6221 20.54 11.8418 20.5928 12 20.5928C12.1582 20.5928 12.3867 20.5312 12.6152 20.417C13.9336 19.7314 15.0234 19.1338 15.9023 18.5713L4.6875 7.33887Z" fill="#1C1C1E"/>
</g>
<defs>
<clipPath id="clip0_10_520">
<rect width="24" height="24" fill="white"/>
</clipPath>
</defs>
</svg>
