<svg width="24" height="24" viewBox="0 0 24 24" fill="none" xmlns="http://www.w3.org/2000/svg">
<g clip-path="url(#clip0_10_608)">
<path d="M4.30078 17.2705L11.2617 21.1553C11.7451 21.4277 12.2373 21.4277 12.7207 21.1553L19.6816 17.2705C20.5342 16.7959 20.9561 16.3037 20.9561 15.0645V7.93652C20.9561 7.00488 20.6045 6.41602 19.8135 5.96777L13.6348 2.50488C12.5537 1.89844 11.4375 1.89844 10.3477 2.50488L4.16895 5.96777C3.38672 6.41602 3.03516 7.00488 3.03516 7.93652V15.0645C3.03516 16.3037 3.45703 16.7959 4.30078 17.2705ZM16.1133 8.44629L9.61816 4.81641L11.0596 4.00781C11.6924 3.64746 12.29 3.63867 12.9316 4.00781L18.4688 7.12793L16.1133 8.44629ZM11.9912 10.749L5.52246 7.12793L7.94824 5.74805L14.4346 9.37793L11.9912 10.749ZM5.26758 15.9082C4.78418 15.6357 4.61719 15.3633 4.61719 14.8975V8.5166L11.165 12.208V19.2393L5.26758 15.9082ZM18.7236 15.9082L12.8174 19.2393V12.208L19.3652 8.5166V14.8975C19.3652 15.3633 19.1982 15.6357 18.7236 15.9082Z" fill="#1C1C1E"/>
</g>
<defs>
<clipPath id="clip0_10_608">
<rect width="24" height="24" fill="white"/>
</clipPath>
</defs>
</svg>
