<svg width="24" height="24" viewBox="0 0 24 24" fill="none" xmlns="http://www.w3.org/2000/svg">
<g clip-path="url(#clip0_10_679)">
<path d="M4.4502 18.29C4.4502 20.1973 5.43457 21.1904 7.31543 21.1904H16.6846C18.5742 21.1904 19.5498 20.1885 19.5498 18.29V8.66602C19.5498 7.72559 19.3389 7.14551 18.7852 6.60059L15.1553 2.9707C14.584 2.39062 13.9512 2.14453 13.0283 2.14453H7.31543C5.43457 2.14453 4.4502 3.1377 4.4502 5.03613V18.29ZM6.19922 18.1758V5.15039C6.19922 4.35059 6.62109 3.89355 7.47363 3.89355H13.002C13.5557 3.89355 13.96 4.06934 14.3291 4.43848L17.3789 7.52344C17.6865 7.83105 17.8008 8.15625 17.8008 8.71875V18.1758C17.8008 18.9932 17.3789 19.4326 16.5264 19.4326H7.46484C6.62109 19.4326 6.19922 18.9932 6.19922 18.1758ZM7.86035 12.6475H10.6377C11.0156 12.6475 11.2266 12.876 11.2266 13.2363V18.0352H12.8613V10.2656H9.06445C8.32617 10.2656 7.86035 10.7402 7.86035 11.4873V12.6475ZM13.9512 18.0352H14.9443C15.6826 18.0352 16.1484 17.5605 16.1484 16.8223V11.4873C16.1484 10.7402 15.6826 10.2656 14.9443 10.2656H13.9512V18.0352ZM7.86035 16.8223C7.86035 17.5605 8.32617 18.0352 9.06445 18.0352H10.1455V13.8867C10.1455 13.79 10.084 13.7373 9.9873 13.7373H7.86035V16.8223Z" fill="#1C1C1E"/>
</g>
<defs>
<clipPath id="clip0_10_679">
<rect width="24" height="24" fill="white"/>
</clipPath>
</defs>
</svg>
