<svg width="24" height="24" viewBox="0 0 24 24" fill="none" xmlns="http://www.w3.org/2000/svg">
<g clip-path="url(#clip0_10_452)">
<path d="M7.31543 21.1904H16.6846C18.5742 21.1904 19.5498 20.1885 19.5498 18.29V8.66602C19.5498 7.72559 19.3389 7.14551 18.7852 6.60059L15.1553 2.9707C14.584 2.39062 13.9512 2.14453 13.0283 2.14453H7.31543C5.43457 2.14453 4.4502 3.1377 4.4502 5.03613V18.29C4.4502 20.1973 5.43457 21.1904 7.31543 21.1904ZM7.72852 12.709V11.4609C7.72852 10.6699 8.20312 10.2041 8.97656 10.2041H12.8613V18.2285H11.2266V13.2979C11.2266 12.9375 11.0156 12.709 10.6377 12.709H7.72852ZM13.9512 18.2285V10.2041H15.041C15.8145 10.2041 16.2803 10.6699 16.2803 11.4609V16.9717C16.2803 17.7539 15.8145 18.2285 15.041 18.2285H13.9512ZM7.72852 16.9717V13.7988H9.9873C10.084 13.7988 10.1455 13.8516 10.1455 13.9482V18.2285H8.97656C8.20312 18.2285 7.72852 17.7539 7.72852 16.9717Z" fill="#1C1C1E"/>
</g>
<defs>
<clipPath id="clip0_10_452">
<rect width="24" height="24" fill="white"/>
</clipPath>
</defs>
</svg>
