<svg width="24" height="24" viewBox="0 0 24 24" fill="none" xmlns="http://www.w3.org/2000/svg">
<g clip-path="url(#clip0_10_686)">
<path d="M10.3916 21.3135H18.6094C20.3232 21.3135 21.2285 20.3906 21.2285 18.668V10.248C21.2285 9.4043 21.0352 8.86816 20.5254 8.3584L17.3438 5.17676C16.8164 4.6582 16.2275 4.4209 15.3926 4.4209H14.0303L12.29 2.68066C11.7715 2.16211 11.2002 1.93359 10.3564 1.93359H5.35547C3.65918 1.93359 2.7627 2.83887 2.7627 4.55273V15.9697C2.7627 17.6748 3.65918 18.5889 5.35547 18.5889H7.76367V18.668C7.76367 20.3906 8.67773 21.3135 10.3916 21.3135ZM5.47852 16.8838C4.79297 16.8838 4.45898 16.541 4.45898 15.873V4.64062C4.45898 3.97266 4.80176 3.62988 5.4873 3.62988H10.3389C10.7871 3.62988 11.1299 3.77051 11.4463 4.08691L11.7803 4.4209H10.3916C8.67773 4.4209 7.76367 5.34375 7.76367 7.0752V9.00879H6.91113C6.25195 9.00879 5.82129 9.43066 5.82129 10.1074V11.1709H7.76367V12.1641H5.82129V14.6777C5.82129 15.3457 6.25195 15.7764 6.91113 15.7764H7.76367V16.8838H5.47852ZM10.5146 19.5557C9.84668 19.5557 9.52148 19.2305 9.52148 18.5713V7.16309C9.52148 6.50391 9.84668 6.16992 10.5234 6.16992H15.375C15.8145 6.16992 16.1484 6.31055 16.4648 6.61816L19.1455 9.31641C19.3916 9.5625 19.4795 9.82617 19.4795 10.3008V18.5713C19.4795 19.2305 19.1455 19.5557 18.4775 19.5557H10.5146ZM10.8311 13.7812H13.3184C13.6699 13.7812 13.8633 13.9834 13.8633 14.3174V18.4746H15.3135V11.6104H11.9209C11.2617 11.6104 10.8311 12.0322 10.8311 12.709V13.7812ZM16.2979 18.4746H17.0713C17.7393 18.4746 18.1523 18.0439 18.1523 17.376V12.709C18.1523 12.0322 17.7393 11.6104 17.0713 11.6104H16.2979V18.4746ZM10.8311 17.376C10.8311 18.0439 11.2617 18.4746 11.9209 18.4746H12.8789V14.9062C12.8789 14.8184 12.8262 14.7656 12.7295 14.7656H10.8311V17.376Z" fill="#1C1C1E"/>
</g>
<defs>
<clipPath id="clip0_10_686">
<rect width="24" height="24" fill="white"/>
</clipPath>
</defs>
</svg>
