<svg width="24" height="24" viewBox="0 0 24 24" fill="none" xmlns="http://www.w3.org/2000/svg">
<g clip-path="url(#clip0_10_692)">
<path d="M4.74023 12.2432H6.48047V15.9961H6.48926V12.2432H6.48047V11.1973H4.74023V10.1074C4.74023 9.42188 5.17969 8.98242 5.85645 8.98242H6.48047V11.1973H6.48926V8.98242H6.48047V6.69727C6.48047 4.54395 7.87793 3.15527 10.0049 3.15527H12.7734L12.29 2.68066C11.7715 2.16211 11.2002 1.93359 10.3564 1.93359H5.35547C3.65918 1.93359 2.7627 2.83887 2.7627 4.55273V16.0049C2.7627 17.7188 3.65918 18.624 5.35547 18.624H6.48047V15.9961H5.85645C5.17969 15.9961 4.74023 15.5566 4.74023 14.8711V12.2432ZM10.3916 21.3135H18.6094C20.3232 21.3135 21.2285 20.3906 21.2285 18.668V10.2832C21.2285 9.43066 21.0352 8.89453 20.5254 8.38477L17.3438 5.20312C16.8164 4.68457 16.2275 4.44727 15.3926 4.44727H10.3916C8.67773 4.44727 7.76367 5.37012 7.76367 7.10156V18.668C7.76367 20.3906 8.67773 21.3135 10.3916 21.3135ZM10.708 13.8252V12.7266C10.708 12.0234 11.1475 11.5928 11.8418 11.5928H15.3223V18.5977H13.8457V14.3877C13.8457 14.0449 13.6348 13.8252 13.2656 13.8252H10.708ZM16.3594 18.5977V11.5928H17.1416C17.8359 11.5928 18.2754 12.0234 18.2754 12.7266V17.4639C18.2754 18.1582 17.8359 18.5977 17.1416 18.5977H16.3594ZM10.708 17.4639V14.8711H12.6504C12.7471 14.8711 12.7998 14.9238 12.7998 15.0205V18.5977H11.8418C11.1475 18.5977 10.708 18.1582 10.708 17.4639Z" fill="#1C1C1E"/>
</g>
<defs>
<clipPath id="clip0_10_692">
<rect width="24" height="24" fill="white"/>
</clipPath>
</defs>
</svg>
