<svg width="24" height="24" viewBox="0 0 24 24" fill="none" xmlns="http://www.w3.org/2000/svg">
<g clip-path="url(#clip0_10_413)">
<path d="M11.4111 19.5381C12.0703 19.5381 12.5537 19.0459 12.5537 18.3955V4.97461C12.5537 4.31543 12.0703 3.78809 11.3936 3.78809C10.9453 3.78809 10.6289 3.98145 10.1455 4.43848L6.47168 7.875C6.41895 7.92773 6.34863 7.9541 6.26953 7.9541H3.78223C2.48145 7.9541 1.77832 8.6748 1.77832 10.0371V13.3066C1.77832 14.6689 2.48145 15.3896 3.78223 15.3896H6.26953C6.34863 15.3896 6.41016 15.416 6.47168 15.4688L10.1455 18.9316C10.585 19.3535 10.9541 19.5381 11.4111 19.5381ZM19.2246 17.9297C19.6289 18.1758 20.1211 18.0879 20.4023 17.6748C21.5449 16.0576 22.2129 13.8867 22.2129 11.6543C22.2129 9.42188 21.5537 7.24219 20.4023 5.63379C20.1211 5.2207 19.6289 5.12402 19.2246 5.37891C18.8027 5.64258 18.7412 6.16992 19.0576 6.63574C19.9893 8.00684 20.5254 9.79102 20.5254 11.6543C20.5254 13.5088 19.9805 15.293 19.0576 16.6729C18.75 17.1387 18.8027 17.6572 19.2246 17.9297ZM15.6914 15.5742C16.0693 15.8203 16.5615 15.7324 16.834 15.3457C17.5459 14.3965 17.9678 13.0518 17.9678 11.6543C17.9678 10.2568 17.5459 8.9209 16.834 7.96289C16.5615 7.57617 16.0693 7.48828 15.6914 7.74316C15.2607 8.02441 15.1729 8.54297 15.5244 9.05273C16.0078 9.74707 16.2803 10.6787 16.2803 11.6543C16.2803 12.6299 15.999 13.5527 15.5244 14.2559C15.1816 14.7656 15.2607 15.2842 15.6914 15.5742Z" fill="#1C1C1E"/>
</g>
<defs>
<clipPath id="clip0_10_413">
<rect width="24" height="24" fill="white"/>
</clipPath>
</defs>
</svg>
