<svg width="24" height="24" viewBox="0 0 24 24" fill="none" xmlns="http://www.w3.org/2000/svg">
<g clip-path="url(#clip0_10_416)">
<path d="M13.5381 19.5381C14.1973 19.5381 14.6807 19.0459 14.6807 18.3955V4.97461C14.6807 4.31543 14.1973 3.78809 13.5205 3.78809C13.0723 3.78809 12.7471 3.97266 12.2725 4.43848L8.59863 7.875C8.5459 7.92773 8.47559 7.9541 8.39648 7.9541H5.90918C4.6084 7.9541 3.90527 8.6748 3.90527 10.0371V13.3066C3.90527 14.6689 4.6084 15.3896 5.90918 15.3896H8.39648C8.47559 15.3896 8.53711 15.416 8.59863 15.4688L12.2725 18.9316C12.7119 19.3535 13.0811 19.5381 13.5381 19.5381ZM17.8096 15.5742C18.1875 15.8203 18.6797 15.7324 18.9521 15.3457C19.6641 14.3965 20.0859 13.0518 20.0859 11.6543C20.0859 10.2568 19.6641 8.9209 18.9521 7.96289C18.6797 7.57617 18.1875 7.48828 17.8096 7.74316C17.3789 8.02441 17.2998 8.54297 17.6426 9.05273C18.126 9.74707 18.3984 10.6787 18.3984 11.6543C18.3984 12.6299 18.126 13.5527 17.6426 14.2559C17.2998 14.7656 17.3789 15.2842 17.8096 15.5742Z" fill="#1C1C1E"/>
</g>
<defs>
<clipPath id="clip0_10_416">
<rect width="24" height="24" fill="white"/>
</clipPath>
</defs>
</svg>
