<svg width="24" height="24" viewBox="0 0 24 24" fill="none" xmlns="http://www.w3.org/2000/svg">
<g clip-path="url(#clip0_10_412)">
<path d="M11.9912 20.7598C16.9746 20.7598 21.0879 16.6465 21.0879 11.6631C21.0879 6.68848 16.9658 2.5752 11.9824 2.5752C7.00781 2.5752 2.90332 6.68848 2.90332 11.6631C2.90332 16.6465 7.0166 20.7598 11.9912 20.7598ZM11.6045 15.6709C11.3672 15.6709 11.1826 15.5742 10.9541 15.3721L9.05566 13.5791C9.0293 13.5527 8.99414 13.5439 8.9502 13.5439H7.69336C7.05176 13.5439 6.69141 13.1748 6.69141 12.4893V10.8457C6.69141 10.1514 7.05176 9.79102 7.69336 9.79102H8.9502C8.99414 9.79102 9.0293 9.78223 9.05566 9.75586L10.9541 7.98047C11.2002 7.76074 11.3584 7.65527 11.5869 7.65527C11.9209 7.65527 12.167 7.91895 12.167 8.25293V15.0996C12.167 15.4248 11.9209 15.6709 11.6045 15.6709ZM15.3574 14.8975C15.1025 14.7393 15.0674 14.4141 15.2432 14.1504C15.7178 13.4912 15.9814 12.5859 15.9814 11.6631C15.9814 10.7314 15.7266 9.84375 15.252 9.16699C15.0762 8.90332 15.1113 8.58691 15.3574 8.41992C15.6035 8.26172 15.8936 8.32324 16.0518 8.56934C16.6758 9.44824 17.001 10.5381 17.001 11.6631C17.001 12.8145 16.6494 13.8955 16.0518 14.7568C15.9023 14.9854 15.6123 15.0469 15.3574 14.8975ZM13.6699 13.7021C13.415 13.5176 13.3711 13.2275 13.5557 12.9375C13.7842 12.6035 13.9248 12.1377 13.9248 11.6631C13.9248 11.1621 13.7842 10.6963 13.5645 10.3887C13.3711 10.0986 13.4238 9.79102 13.6699 9.61523C13.8896 9.45703 14.1973 9.52734 14.3643 9.73828C14.7246 10.2393 14.9443 10.9424 14.9443 11.6631C14.9443 12.3926 14.7334 13.0957 14.3643 13.5791C14.1885 13.7988 13.8896 13.8691 13.6699 13.7021Z" fill="#1C1C1E"/>
</g>
<defs>
<clipPath id="clip0_10_412">
<rect width="24" height="24" fill="white"/>
</clipPath>
</defs>
</svg>
