<svg width="24" height="24" viewBox="0 0 24 24" fill="none" xmlns="http://www.w3.org/2000/svg">
<g clip-path="url(#clip0_10_414)">
<path d="M15.2168 19.5381C15.876 19.5381 16.3594 19.0459 16.3594 18.3955V4.97461C16.3594 4.31543 15.876 3.78809 15.208 3.78809C14.7598 3.78809 14.4346 3.97266 13.9512 4.43848L10.2773 7.875C10.2246 7.92773 10.1543 7.9541 10.0752 7.9541H7.58789C6.2959 7.9541 5.58398 8.6748 5.58398 10.0371V13.3066C5.58398 14.6689 6.2959 15.3896 7.58789 15.3896H10.0752C10.1543 15.3896 10.2246 15.416 10.2773 15.4688L13.9512 18.9316C14.3906 19.3535 14.7598 19.5381 15.2168 19.5381Z" fill="#1C1C1E"/>
</g>
<defs>
<clipPath id="clip0_10_414">
<rect width="24" height="24" fill="white"/>
</clipPath>
</defs>
</svg>
