<svg width="24" height="24" viewBox="0 0 24 24" fill="none" xmlns="http://www.w3.org/2000/svg">
<g clip-path="url(#clip0_10_513)">
<path d="M16.5088 13.7988V4.97461C16.5088 4.31543 16.0166 3.78809 15.3486 3.78809C14.8916 3.78809 14.5752 3.99023 14.083 4.43848L10.418 7.69043L11.543 8.82422L14.5576 6.08203C14.6016 6.04688 14.6455 6.02051 14.707 6.02051C14.7686 6.02051 14.8213 6.06445 14.8213 6.14355V12.1113L16.5088 13.7988ZM19.4355 20.3818C19.708 20.6455 20.1562 20.6543 20.4199 20.3818C20.6924 20.1006 20.7012 19.6611 20.4199 19.3887L5.02148 3.99902C4.74902 3.72656 4.30078 3.71777 4.02832 3.99902C3.75586 4.2627 3.75586 4.71973 4.02832 4.9834L19.4355 20.3818ZM7.54395 15.416H10.04C10.1104 15.416 10.1807 15.4336 10.2334 15.4863L14.0918 18.9316C14.5488 19.3447 14.9004 19.5381 15.3662 19.5381C15.7793 19.5381 16.1309 19.3271 16.3418 18.9844L14.8564 17.5078L11.0244 14.0449C10.8398 13.8779 10.7168 13.8428 10.4795 13.8428H7.70215C7.41211 13.8428 7.27148 13.7021 7.27148 13.4121V9.91406L5.9707 8.62207C5.72461 8.92969 5.58398 9.38672 5.58398 9.98438V13.3594C5.58398 14.7393 6.25195 15.416 7.54395 15.416Z" fill="#1C1C1E"/>
</g>
<defs>
<clipPath id="clip0_10_513">
<rect width="24" height="24" fill="white"/>
</clipPath>
</defs>
</svg>
