<svg width="24" height="24" viewBox="0 0 24 24" fill="none" xmlns="http://www.w3.org/2000/svg">
<g clip-path="url(#clip0_10_701)">
<path d="M20.666 20.3115C21.0527 20.5664 21.5713 20.4521 21.8525 20.0303C23.3994 17.71 24.3311 14.8271 24.3311 11.6631C24.3311 8.49023 23.3818 5.61621 21.8525 3.28711C21.5713 2.85645 21.0527 2.75098 20.666 3.00586C20.2441 3.27832 20.1826 3.79688 20.4727 4.2627C21.8174 6.31055 22.6523 8.85059 22.6523 11.6631C22.6523 14.458 21.8174 17.0156 20.4727 19.0547C20.1826 19.5205 20.2441 20.0391 20.666 20.3115ZM1.62012 15.416H4.10742C4.17773 15.416 4.24805 15.4336 4.30078 15.4863L8.15918 18.9316C8.61621 19.3447 8.96777 19.5381 9.43359 19.5381C10.084 19.5381 10.5762 19.0459 10.5762 18.3955V4.97461C10.5762 4.31543 10.084 3.78809 9.41602 3.78809C8.96777 3.78809 8.65137 3.99023 8.15918 4.43848L4.30078 7.85742C4.24805 7.91016 4.17773 7.92773 4.10742 7.92773H1.62012C0.319336 7.92773 -0.339844 8.61328 -0.339844 9.98438V13.3594C-0.339844 14.7393 0.328125 15.416 1.62012 15.416ZM17.1064 17.9297C17.5107 18.1758 18.0029 18.0879 18.2754 17.6748C19.4268 16.0576 20.0859 13.8867 20.0859 11.6543C20.0859 9.42188 19.4355 7.24219 18.2754 5.63379C18.0029 5.2207 17.5107 5.12402 17.1064 5.37891C16.6846 5.64258 16.623 6.16992 16.9307 6.63574C17.8711 8.00684 18.4072 9.79102 18.4072 11.6543C18.4072 13.5088 17.8535 15.293 16.9307 16.6729C16.6318 17.1387 16.6846 17.6572 17.1064 17.9297ZM1.77832 13.8428C1.48828 13.8428 1.34766 13.7021 1.34766 13.4121V9.94043C1.34766 9.6416 1.48828 9.50098 1.77832 9.50098H4.52051C4.75781 9.50098 4.93359 9.45703 5.13574 9.27246L8.63379 6.08203C8.67773 6.04688 8.72168 6.02051 8.77441 6.02051C8.84473 6.02051 8.89746 6.06445 8.89746 6.14355V17.1738C8.89746 17.2617 8.84473 17.3057 8.7832 17.3057C8.73047 17.3057 8.68652 17.2881 8.63379 17.2441L5.13574 14.0713C4.93359 13.8867 4.75781 13.8428 4.52051 13.8428H1.77832ZM13.5732 15.5742C13.9512 15.8203 14.4434 15.7324 14.7158 15.3457C15.4277 14.3965 15.8496 13.0518 15.8496 11.6543C15.8496 10.2568 15.4277 8.9209 14.7158 7.96289C14.4434 7.57617 13.9512 7.48828 13.5732 7.74316C13.1426 8.02441 13.0547 8.54297 13.4062 9.05273C13.8896 9.74707 14.1621 10.6787 14.1621 11.6543C14.1621 12.6299 13.8809 13.5527 13.4062 14.2559C13.0635 14.7656 13.1426 15.2842 13.5732 15.5742Z" fill="#1C1C1E"/>
</g>
<defs>
<clipPath id="clip0_10_701">
<rect width="24" height="24" fill="white"/>
</clipPath>
</defs>
</svg>
