<svg width="24" height="24" viewBox="0 0 24 24" fill="none" xmlns="http://www.w3.org/2000/svg">
<g clip-path="url(#clip0_10_488)">
<path d="M11.9912 20.7598C16.9746 20.7598 21.0879 16.6465 21.0879 11.6631C21.0879 6.68848 16.9658 2.5752 11.9824 2.5752C7.00781 2.5752 2.90332 6.68848 2.90332 11.6631C2.90332 16.6465 7.0166 20.7598 11.9912 20.7598ZM16.0957 16.4268L7.21875 7.55859C7.04297 7.38281 7.04297 7.08398 7.21875 6.89941C7.40332 6.72363 7.70215 6.72363 7.88672 6.89941L16.7549 15.7676C16.9307 15.9521 16.9307 16.2334 16.7549 16.4268C16.5703 16.6025 16.2715 16.5938 16.0957 16.4268ZM11.4023 9.38672L12.8965 7.98047C13.1426 7.76074 13.3096 7.65527 13.5381 7.65527C13.8633 7.65527 14.1182 7.91895 14.1182 8.25293V12.1025L11.4023 9.38672ZM9.64453 13.5439C8.99414 13.5439 8.63379 13.1748 8.63379 12.4893V10.8369C8.63379 10.582 8.73047 10.3711 8.84473 10.248H8.90625L13.9336 15.2754L13.8545 15.5303C13.7754 15.6094 13.6787 15.6709 13.5469 15.6709C13.3096 15.6709 13.125 15.5742 12.8965 15.3721L11.0068 13.5791C10.9805 13.5527 10.9453 13.5439 10.8926 13.5439H9.64453Z" fill="#1C1C1E"/>
</g>
<defs>
<clipPath id="clip0_10_488">
<rect width="24" height="24" fill="white"/>
</clipPath>
</defs>
</svg>
