<svg width="24" height="24" viewBox="0 0 24 24" fill="none" xmlns="http://www.w3.org/2000/svg">
<g clip-path="url(#clip0_10_504)">
<path d="M7.54395 15.416H10.04C10.1104 15.416 10.1719 15.4336 10.2334 15.4863L14.083 18.9316C14.54 19.3447 14.8916 19.5381 15.3574 19.5381C16.0166 19.5381 16.5088 19.0459 16.5088 18.3955V4.97461C16.5088 4.31543 16.0166 3.78809 15.3486 3.78809C14.8916 3.78809 14.5752 3.99023 14.083 4.43848L10.2334 7.85742C10.1719 7.91016 10.1104 7.92773 10.04 7.92773H7.54395C6.25195 7.92773 5.58398 8.61328 5.58398 9.98438V13.3594C5.58398 14.7393 6.25195 15.416 7.54395 15.416ZM7.70215 13.8428C7.41211 13.8428 7.27148 13.7021 7.27148 13.4121V9.94043C7.27148 9.6416 7.41211 9.50098 7.70215 9.50098H10.4443C10.6816 9.50098 10.8574 9.45703 11.0684 9.27246L14.5576 6.08203C14.6016 6.04688 14.6455 6.02051 14.707 6.02051C14.7686 6.02051 14.8213 6.06445 14.8213 6.14355V17.1738C14.8213 17.2617 14.7686 17.3057 14.707 17.3057C14.6543 17.3057 14.6104 17.2881 14.5664 17.2441L11.0684 14.0713C10.8662 13.8867 10.6816 13.8428 10.4443 13.8428H7.70215Z" fill="#1C1C1E"/>
</g>
<defs>
<clipPath id="clip0_10_504">
<rect width="24" height="24" fill="white"/>
</clipPath>
</defs>
</svg>
