<svg width="24" height="24" viewBox="0 0 24 24" fill="none" xmlns="http://www.w3.org/2000/svg">
<g clip-path="url(#clip0_10_697)">
<path d="M20.666 20.3115C21.0527 20.5664 21.5713 20.4521 21.8525 20.0303C23.3994 17.71 24.3311 14.8271 24.3311 11.6631C24.3311 8.49023 23.3818 5.61621 21.8525 3.28711C21.5713 2.85645 21.0527 2.75098 20.666 3.00586C20.2441 3.27832 20.1826 3.79688 20.4727 4.2627C21.8174 6.31055 22.6523 8.85059 22.6523 11.6631C22.6523 14.458 21.8174 17.0156 20.4727 19.0547C20.1826 19.5205 20.2441 20.0391 20.666 20.3115ZM9.29297 19.5381C9.95215 19.5381 10.4355 19.0459 10.4355 18.3955V4.97461C10.4355 4.31543 9.95215 3.78809 9.27539 3.78809C8.82715 3.78809 8.50195 3.97266 8.02734 4.43848L4.35352 7.875C4.30078 7.92773 4.23047 7.9541 4.15137 7.9541H1.66406C0.363281 7.9541 -0.339844 8.6748 -0.339844 10.0371V13.3066C-0.339844 14.6689 0.363281 15.3896 1.66406 15.3896H4.15137C4.23047 15.3896 4.29199 15.416 4.35352 15.4688L8.02734 18.9316C8.4668 19.3535 8.83594 19.5381 9.29297 19.5381ZM17.1064 17.9297C17.5107 18.1758 18.0029 18.0879 18.2842 17.6748C19.4268 16.0576 20.0947 13.8867 20.0947 11.6543C20.0947 9.42188 19.4355 7.24219 18.2842 5.63379C18.0029 5.2207 17.5107 5.12402 17.1064 5.37891C16.6846 5.64258 16.623 6.16992 16.9395 6.63574C17.8711 8.00684 18.4072 9.79102 18.4072 11.6543C18.4072 13.5088 17.8623 15.293 16.9395 16.6729C16.6318 17.1387 16.6846 17.6572 17.1064 17.9297ZM13.5645 15.5742C13.9424 15.8203 14.4346 15.7324 14.707 15.3457C15.4189 14.3965 15.8408 13.0518 15.8408 11.6543C15.8408 10.2568 15.4189 8.9209 14.707 7.96289C14.4346 7.57617 13.9424 7.48828 13.5645 7.74316C13.1338 8.02441 13.0547 8.54297 13.3975 9.05273C13.8809 9.74707 14.1533 10.6787 14.1533 11.6543C14.1533 12.6299 13.8809 13.5527 13.3975 14.2559C13.0547 14.7656 13.1338 15.2842 13.5645 15.5742Z" fill="#1C1C1E"/>
</g>
<defs>
<clipPath id="clip0_10_697">
<rect width="24" height="24" fill="white"/>
</clipPath>
</defs>
</svg>
