<svg width="24" height="24" viewBox="0 0 24 24" fill="none" xmlns="http://www.w3.org/2000/svg">
<g clip-path="url(#clip0_10_496)">
<path d="M16.3594 13.8076V4.97461C16.3594 4.31543 15.876 3.78809 15.1992 3.78809C14.751 3.78809 14.4346 3.98145 13.9512 4.43848L10.541 7.59375C10.5059 7.62891 10.4619 7.65527 10.418 7.65527H10.1982L16.3594 13.8076ZM19.4355 20.3818C19.708 20.6455 20.1562 20.6543 20.4199 20.3818C20.6924 20.1006 20.6924 19.6611 20.4199 19.3887L5.02148 3.99902C4.74902 3.72656 4.30078 3.71777 4.01953 3.99902C3.75586 4.2627 3.75586 4.71973 4.01953 4.9834L19.4355 20.3818ZM7.54395 15.3896H10.0225C10.1016 15.3896 10.1719 15.416 10.2246 15.4688L13.9512 18.9316C14.3906 19.3535 14.7598 19.5381 15.208 19.5381C15.7178 19.5381 16.1045 19.2744 16.2803 18.7559L6.04102 8.52539C5.74219 8.85938 5.58398 9.35156 5.58398 10.002V13.3418C5.58398 14.7129 6.25195 15.3896 7.54395 15.3896Z" fill="#1C1C1E"/>
</g>
<defs>
<clipPath id="clip0_10_496">
<rect width="24" height="24" fill="white"/>
</clipPath>
</defs>
</svg>
