<svg width="24" height="24" viewBox="0 0 24 24" fill="none" xmlns="http://www.w3.org/2000/svg">
<g clip-path="url(#clip0_10_492)">
<path d="M5.86523 15.416H8.35254C8.42285 15.416 8.49316 15.4336 8.5459 15.4863L12.4043 18.9316C12.8525 19.3447 13.2129 19.5381 13.6699 19.5381C14.3291 19.5381 14.8213 19.0459 14.8213 18.3955V4.97461C14.8213 4.31543 14.3291 3.78809 13.6611 3.78809C13.2129 3.78809 12.8965 3.99023 12.4043 4.43848L8.5459 7.85742C8.49316 7.91016 8.42285 7.92773 8.35254 7.92773H5.86523C4.56445 7.92773 3.90527 8.61328 3.90527 9.98438V13.3594C3.90527 14.7393 4.57324 15.416 5.86523 15.416ZM6.02344 13.8428C5.7334 13.8428 5.59277 13.7021 5.59277 13.4121V9.94043C5.59277 9.6416 5.7334 9.50098 6.02344 9.50098H8.76562C9.00293 9.50098 9.17871 9.45703 9.38086 9.27246L12.8789 6.08203C12.9229 6.04688 12.9668 6.02051 13.0195 6.02051C13.0898 6.02051 13.1426 6.06445 13.1426 6.14355V17.1738C13.1426 17.2617 13.0898 17.3057 13.0283 17.3057C12.9756 17.3057 12.9316 17.2881 12.8789 17.2441L9.38086 14.0713C9.17871 13.8867 9.00293 13.8428 8.76562 13.8428H6.02344ZM17.8096 15.583C18.1875 15.8203 18.6797 15.7412 18.9521 15.3545C19.6641 14.3965 20.0859 13.0605 20.0859 11.6631C20.0859 10.2656 19.6641 8.92969 18.9521 7.96289C18.6797 7.58496 18.1875 7.49707 17.8096 7.75195C17.3789 8.0332 17.2998 8.55176 17.6426 9.05273C18.126 9.74707 18.3984 10.6787 18.3984 11.6631C18.3984 12.6387 18.126 13.5615 17.6426 14.2646C17.2998 14.7744 17.3789 15.293 17.8096 15.583Z" fill="#1C1C1E"/>
</g>
<defs>
<clipPath id="clip0_10_492">
<rect width="24" height="24" fill="white"/>
</clipPath>
</defs>
</svg>
