<svg width="24" height="24" viewBox="0 0 24 24" fill="none" xmlns="http://www.w3.org/2000/svg">
<g clip-path="url(#clip0_10_415)">
<path d="M3.73828 15.416H6.22559C6.2959 15.416 6.36621 15.4336 6.41895 15.4863L10.2773 18.9316C10.7344 19.3447 11.0859 19.5381 11.5518 19.5381C12.2021 19.5381 12.6943 19.0459 12.6943 18.3955V4.97461C12.6943 4.31543 12.2021 3.78809 11.5342 3.78809C11.0859 3.78809 10.7695 3.99023 10.2773 4.43848L6.41895 7.85742C6.36621 7.91016 6.2959 7.92773 6.22559 7.92773H3.73828C2.4375 7.92773 1.77832 8.61328 1.77832 9.98438V13.3594C1.77832 14.7393 2.44629 15.416 3.73828 15.416ZM19.2246 17.9297C19.6289 18.1758 20.1211 18.0879 20.4023 17.6748C21.5449 16.0576 22.2129 13.8867 22.2129 11.6543C22.2129 9.42188 21.5537 7.24219 20.4023 5.63379C20.1211 5.2207 19.6289 5.12402 19.2246 5.37891C18.8027 5.64258 18.7412 6.16992 19.0576 6.63574C19.9893 8.00684 20.5254 9.79102 20.5254 11.6543C20.5254 13.5088 19.9805 15.293 19.0576 16.6729C18.75 17.1387 18.8027 17.6572 19.2246 17.9297ZM3.89648 13.8428C3.60645 13.8428 3.46582 13.7021 3.46582 13.4121V9.94043C3.46582 9.6416 3.60645 9.50098 3.89648 9.50098H6.63867C6.87598 9.50098 7.05176 9.45703 7.25391 9.27246L10.752 6.08203C10.7959 6.04688 10.8398 6.02051 10.8926 6.02051C10.9629 6.02051 11.0156 6.06445 11.0156 6.14355V17.1738C11.0156 17.2617 10.9629 17.3057 10.9014 17.3057C10.8486 17.3057 10.8047 17.2881 10.752 17.2441L7.25391 14.0713C7.05176 13.8867 6.87598 13.8428 6.63867 13.8428H3.89648ZM15.6914 15.5742C16.0693 15.8203 16.5615 15.7324 16.834 15.3457C17.5459 14.3965 17.9678 13.0518 17.9678 11.6543C17.9678 10.2568 17.5459 8.9209 16.834 7.96289C16.5615 7.57617 16.0693 7.48828 15.6914 7.74316C15.2607 8.02441 15.1729 8.54297 15.5244 9.05273C16.0078 9.74707 16.2803 10.6787 16.2803 11.6543C16.2803 12.6299 15.999 13.5527 15.5244 14.2559C15.1816 14.7656 15.2607 15.2842 15.6914 15.5742Z" fill="#1C1C1E"/>
</g>
<defs>
<clipPath id="clip0_10_415">
<rect width="24" height="24" fill="white"/>
</clipPath>
</defs>
</svg>
