<svg width="24" height="24" viewBox="0 0 24 24" fill="none" xmlns="http://www.w3.org/2000/svg">
<g clip-path="url(#clip0_10_508)">
<path d="M11.9912 20.7422C16.9746 20.7422 21.0879 16.6289 21.0879 11.6543C21.0879 6.67969 16.9658 2.56641 11.9824 2.56641C7.00781 2.56641 2.90332 6.67969 2.90332 11.6543C2.90332 16.6289 7.0166 20.7422 11.9912 20.7422ZM11.9912 18.9316C7.95703 18.9316 4.73145 15.6885 4.73145 11.6543C4.73145 7.62012 7.95703 4.38574 11.9824 4.38574C16.0166 4.38574 19.2598 7.62012 19.2686 11.6543C19.2773 15.6885 16.0254 18.9316 11.9912 18.9316ZM15.9463 16.2422C16.1133 16.4004 16.4033 16.4092 16.5703 16.2422C16.7461 16.0576 16.7461 15.7939 16.5703 15.6182L8.03613 7.0752C7.86035 6.89941 7.5791 6.89941 7.40332 7.0752C7.22754 7.25098 7.23633 7.53223 7.40332 7.69922L15.9463 16.2422ZM11.4199 9.47461L14.0303 12.085V8.36719C14.0303 8.05078 13.793 7.80469 13.4766 7.80469C13.2568 7.80469 13.1074 7.90137 12.8701 8.1123L11.4199 9.47461ZM9.72363 13.4648H10.9453C10.9805 13.4648 11.0156 13.4736 11.042 13.5L12.8701 15.2227C13.0811 15.4248 13.2568 15.5127 13.4854 15.5127C13.6172 15.5127 13.7139 15.4512 13.7842 15.3721L13.8633 15.126L9.0293 10.292H8.97656C8.85352 10.4062 8.76562 10.6172 8.76562 10.8633V12.4629C8.76562 13.1133 9.1084 13.4648 9.72363 13.4648Z" fill="#1C1C1E"/>
</g>
<defs>
<clipPath id="clip0_10_508">
<rect width="24" height="24" fill="white"/>
</clipPath>
</defs>
</svg>
