<svg width="24" height="24" viewBox="0 0 24 24" fill="none" xmlns="http://www.w3.org/2000/svg">
<g clip-path="url(#clip0_10_705)">
<path d="M11.9912 20.7422C16.9746 20.7422 21.0879 16.6289 21.0879 11.6543C21.0879 6.67969 16.9658 2.56641 11.9824 2.56641C7.00781 2.56641 2.90332 6.67969 2.90332 11.6543C2.90332 16.6289 7.0166 20.7422 11.9912 20.7422ZM11.9912 18.9316C7.95703 18.9316 4.73145 15.6885 4.73145 11.6543C4.73145 7.62012 7.95703 4.38574 11.9824 4.38574C16.0166 4.38574 19.2598 7.62012 19.2686 11.6543C19.2773 15.6885 16.0254 18.9316 11.9912 18.9316ZM11.6221 15.5127C11.9297 15.5127 12.167 15.2754 12.167 14.9678V8.36719C12.167 8.05078 11.9297 7.80469 11.6133 7.80469C11.3936 7.80469 11.2441 7.90137 11.0068 8.1123L9.17871 9.82617C9.15234 9.85254 9.11719 9.86133 9.07324 9.86133H7.86035C7.24512 9.86133 6.89355 10.2041 6.89355 10.8633V12.4629C6.89355 13.1133 7.24512 13.4648 7.86035 13.4648H9.07324C9.11719 13.4648 9.15234 13.4736 9.17871 13.5L11.0068 15.2227C11.2178 15.4248 11.3936 15.5127 11.6221 15.5127ZM15.2344 14.7656C15.4717 14.9062 15.7529 14.8623 15.9023 14.6338C16.4736 13.7988 16.8076 12.7617 16.8076 11.6543C16.8076 10.5732 16.4912 9.52734 15.9023 8.68359C15.7441 8.44629 15.4629 8.38477 15.2344 8.54297C14.9971 8.70117 14.9619 9 15.1377 9.25488C15.5859 9.90527 15.8408 10.7578 15.8408 11.6543C15.8408 12.542 15.5859 13.4297 15.1289 14.0537C14.9531 14.3086 14.9883 14.6162 15.2344 14.7656ZM13.6084 13.623C13.8281 13.7725 14.1182 13.7109 14.2764 13.5C14.6279 13.0342 14.8389 12.3574 14.8389 11.6543C14.8389 10.96 14.6279 10.292 14.2764 9.80859C14.127 9.59766 13.8281 9.53613 13.6084 9.69434C13.3711 9.85254 13.3271 10.1514 13.5117 10.4238C13.7227 10.7227 13.8633 11.1797 13.8633 11.6543C13.8633 12.1113 13.7227 12.5684 13.5029 12.8848C13.3271 13.166 13.3711 13.4473 13.6084 13.623Z" fill="#1C1C1E"/>
</g>
<defs>
<clipPath id="clip0_10_705">
<rect width="24" height="24" fill="white"/>
</clipPath>
</defs>
</svg>
