<svg width="24" height="24" viewBox="0 0 24 24" fill="none" xmlns="http://www.w3.org/2000/svg">
<g clip-path="url(#clip0_10_500)">
<path d="M3.12305 15.416H5.61035C5.68066 15.416 5.75098 15.4336 5.80371 15.4863L9.66211 18.9316C10.1191 19.3447 10.4707 19.5381 10.9365 19.5381C11.5869 19.5381 12.0791 19.0459 12.0791 18.3955V4.97461C12.0791 4.31543 11.5869 3.78809 10.9189 3.78809C10.4707 3.78809 10.1543 3.99023 9.66211 4.43848L5.80371 7.85742C5.75098 7.91016 5.68066 7.92773 5.61035 7.92773H3.12305C1.82227 7.92773 1.16309 8.61328 1.16309 9.98438V13.3594C1.16309 14.7393 1.83105 15.416 3.12305 15.416ZM22.292 9.43066H20.2441L22.3887 6.61816C22.582 6.36328 22.6611 6.19629 22.6611 6.02051C22.6611 5.7041 22.415 5.50195 22.0811 5.50195H19.1016C18.7852 5.50195 18.5566 5.71289 18.5566 6.0293C18.5566 6.35449 18.7852 6.56543 19.1016 6.56543H21.0176L18.8643 9.36035C18.6533 9.61523 18.5918 9.77344 18.5918 9.98438C18.5918 10.2744 18.8203 10.4941 19.1631 10.4941H22.292C22.6084 10.4941 22.8369 10.2832 22.8369 9.95801C22.8369 9.65039 22.6084 9.43066 22.292 9.43066ZM3.28125 13.8428C2.99121 13.8428 2.85059 13.7021 2.85059 13.4121V9.94043C2.85059 9.6416 2.99121 9.50098 3.28125 9.50098H6.02344C6.26074 9.50098 6.43652 9.45703 6.63867 9.27246L10.1367 6.08203C10.1807 6.04688 10.2246 6.02051 10.2773 6.02051C10.3477 6.02051 10.4004 6.06445 10.4004 6.14355V17.1738C10.4004 17.2617 10.3477 17.3057 10.2861 17.3057C10.2334 17.3057 10.1895 17.2881 10.1367 17.2441L6.63867 14.0713C6.43652 13.8867 6.26074 13.8428 6.02344 13.8428H3.28125ZM17.0713 13.0518H15.6738L17.1592 11.1006C17.3438 10.8633 17.4229 10.6963 17.4229 10.5205C17.4229 10.2217 17.1855 10.0371 16.8691 10.0371H14.6191C14.3203 10.0371 14.1182 10.2393 14.1182 10.5293C14.1182 10.8545 14.3203 11.0566 14.6191 11.0566H15.8584L14.3818 12.9902C14.2148 13.2275 14.1357 13.3857 14.1357 13.5791C14.1357 13.8516 14.3555 14.0625 14.6631 14.0625H17.0713C17.3789 14.0625 17.5811 13.8779 17.5811 13.5615C17.5811 13.2539 17.3789 13.0518 17.0713 13.0518ZM21.0615 16.3828H19.875L21.1318 14.7041C21.3164 14.458 21.3867 14.3174 21.3867 14.1592C21.3867 13.8691 21.167 13.6934 20.8682 13.6934H18.873C18.583 13.6934 18.3896 13.8779 18.3896 14.168C18.3896 14.4756 18.583 14.6514 18.873 14.6514H19.9014L18.6533 16.3301C18.4863 16.5586 18.4072 16.708 18.4072 16.8838C18.4072 17.1562 18.627 17.3496 18.917 17.3496H21.0615C21.3428 17.3496 21.5361 17.1562 21.5361 16.8662C21.5361 16.585 21.334 16.3828 21.0615 16.3828Z" fill="#1C1C1E"/>
</g>
<defs>
<clipPath id="clip0_10_500">
<rect width="24" height="24" fill="white"/>
</clipPath>
</defs>
</svg>
