<svg width="24" height="24" viewBox="0 0 24 24" fill="none" xmlns="http://www.w3.org/2000/svg">
<g clip-path="url(#clip0_10_349)">
<path d="M11.9912 20.7422C16.9746 20.7422 21.0879 16.6289 21.0879 11.6543C21.0879 6.67969 16.9658 2.56641 11.9824 2.56641C7.00781 2.56641 2.90332 6.67969 2.90332 11.6543C2.90332 16.6289 7.0166 20.7422 11.9912 20.7422ZM11.9912 18.9316C7.95703 18.9316 4.73145 15.6885 4.73145 11.6543C4.73145 7.62012 7.95703 4.38574 11.9824 4.38574C16.0166 4.38574 19.2598 7.62012 19.2686 11.6543C19.2773 15.6885 16.0254 18.9316 11.9912 18.9316ZM11.9824 7.58496C12.4746 7.58496 12.8877 7.17188 12.8877 6.67969C12.8877 6.17871 12.4746 5.77441 11.9824 5.77441C11.4814 5.77441 11.0859 6.17871 11.0859 6.67969C11.0859 7.17188 11.4902 7.58496 11.9824 7.58496ZM8.51074 9.11426C9.01172 9.11426 9.41602 8.70117 9.41602 8.20898C9.41602 7.7168 9.01172 7.30371 8.51074 7.30371C8.01855 7.30371 7.60547 7.7168 7.60547 8.20898C7.60547 8.70117 8.01855 9.11426 8.51074 9.11426ZM10.6025 13.0342C11.3496 13.7637 12.3779 13.5967 12.9756 12.7354L16.2012 8.15625C16.5615 7.62891 16.0342 7.11035 15.5156 7.46191L10.8926 10.6523C10.0312 11.2412 9.87305 12.2783 10.6025 13.0342ZM7.05176 12.5596C7.55273 12.5596 7.95703 12.1465 7.95703 11.6543C7.95703 11.1533 7.55273 10.749 7.05176 10.749C6.55957 10.749 6.14648 11.1533 6.14648 11.6543C6.14648 12.1465 6.55957 12.5596 7.05176 12.5596ZM16.9219 12.5596C17.4141 12.5596 17.8271 12.1465 17.8271 11.6543C17.8271 11.1533 17.4141 10.749 16.9219 10.749C16.4209 10.749 16.0166 11.1533 16.0166 11.6543C16.0166 12.1465 16.4209 12.5596 16.9219 12.5596ZM8.52832 16.0049C9.0293 16.0049 9.43359 15.5918 9.43359 15.0996C9.43359 14.5986 9.0293 14.1943 8.52832 14.1943C8.03613 14.1943 7.62305 14.5986 7.62305 15.0996C7.62305 15.5918 8.03613 16.0049 8.52832 16.0049ZM15.4453 16.0049C15.9375 16.0049 16.3506 15.5918 16.3506 15.0996C16.3506 14.5986 15.9375 14.1943 15.4453 14.1943C14.9443 14.1943 14.54 14.5986 14.54 15.0996C14.54 15.5918 14.9443 16.0049 15.4453 16.0049Z" fill="#1C1C1E"/>
</g>
<defs>
<clipPath id="clip0_10_349">
<rect width="24" height="24" fill="white"/>
</clipPath>
</defs>
</svg>
