<svg width="24" height="24" viewBox="0 0 24 24" fill="none" xmlns="http://www.w3.org/2000/svg">
<g clip-path="url(#clip0_10_682)">
<path d="M20.7275 4.61426L21.3867 3.91992C21.7207 3.56836 21.7471 3.08496 21.4131 2.75098L21.1846 2.51367C20.8857 2.21484 20.3848 2.25879 20.0596 2.58398L19.374 3.25195L20.7275 4.61426ZM10.3213 13.9658L12.123 13.21L20.0859 5.24707L18.7324 3.90234L10.7695 11.874L9.97852 13.6143C9.89062 13.8164 10.1191 14.0449 10.3213 13.9658ZM6.98145 19.8633H17.2207C18.9082 19.8633 19.9014 18.8789 19.9014 16.998V7.7168L18.1436 9.46582V16.8398C18.1436 17.6836 17.6953 18.1055 17.1064 18.1055H7.0957C6.28711 18.1055 5.84766 17.6836 5.84766 16.8398V7.0752C5.84766 6.23145 6.28711 5.80957 7.0957 5.80957H14.5576L16.3066 4.05176H6.98145C5.08301 4.05176 4.08984 5.03613 4.08984 6.91699V16.998C4.08984 18.8789 5.08301 19.8633 6.98145 19.8633Z" fill="#1C1C1E"/>
</g>
<defs>
<clipPath id="clip0_10_682">
<rect width="24" height="24" fill="white"/>
</clipPath>
</defs>
</svg>
