<svg width="24" height="24" viewBox="0 0 24 24" fill="none" xmlns="http://www.w3.org/2000/svg">
<g clip-path="url(#clip0_10_576)">
<path d="M0.0292969 5.8623C0.0292969 9.34277 3 14.1855 5.8916 14.8535C6.04102 19.1514 7.66699 21.4893 10.5146 21.4893C13.3359 21.4893 14.7861 19.3535 15.4805 15.0381C15.9814 11.9883 16.7285 11.0127 17.9502 11.0127C19.2246 11.0127 19.9365 12.1465 20.1123 14.6338C18.9697 15.0469 18.1523 16.1719 18.1523 17.4375C18.1523 19.0547 19.4531 20.3555 21.0615 20.3555C22.6699 20.3555 23.9707 19.0547 23.9707 17.4375C23.9707 16.0928 23.0479 14.915 21.7998 14.5723C21.4658 10.9863 20.2529 9.29883 17.9766 9.29883C15.7178 9.29883 14.4609 10.8281 13.8018 14.6162C13.2217 17.9736 12.4834 19.7754 10.4619 19.7754C8.72168 19.7754 7.72852 18.0264 7.60547 14.8535C10.5059 14.2031 13.4854 9.35156 13.4854 5.8623C13.4854 3.84082 12.4658 2.77734 10.4883 2.77734H10.2861C10.0225 2.41699 9.5918 2.17969 9.11719 2.17969C8.32617 2.17969 7.67578 2.83008 7.67578 3.62109C7.67578 4.41211 8.32617 5.0625 9.11719 5.0625C9.58301 5.0625 10.0049 4.83398 10.2686 4.49121H10.5498C11.3584 4.49121 11.7715 4.97461 11.7715 5.84473C11.7715 8.63086 9.11719 13.2188 6.75293 13.2188C4.39746 13.2188 1.74316 8.63086 1.74316 5.84473C1.74316 4.97461 2.15625 4.49121 2.96484 4.49121H3.22852C3.49219 4.83398 3.91406 5.0625 4.37988 5.0625C5.1709 5.0625 5.82129 4.41211 5.82129 3.62109C5.82129 2.83008 5.1709 2.17969 4.37988 2.17969C3.90527 2.17969 3.47461 2.41699 3.21094 2.77734H3.02637C1.04883 2.77734 0.0292969 3.84082 0.0292969 5.8623ZM21.0703 18.835C20.2969 18.835 19.6729 18.2021 19.6729 17.4375C19.6729 16.6641 20.2969 16.0488 21.0703 16.0488C21.835 16.0488 22.4502 16.6641 22.4502 17.4375C22.4502 18.2021 21.835 18.835 21.0703 18.835Z" fill="#1C1C1E"/>
</g>
<defs>
<clipPath id="clip0_10_576">
<rect width="24" height="24" fill="white"/>
</clipPath>
</defs>
</svg>
