<svg width="24" height="24" viewBox="0 0 24 24" fill="none" xmlns="http://www.w3.org/2000/svg">
<g clip-path="url(#clip0_10_318)">
<path d="M8.95898 6.9082H15.1729C16.2539 6.9082 16.7637 6.40723 16.7637 5.36133V2.80371C16.7637 1.74902 16.2539 1.25684 15.1729 1.25684H8.95898C7.88672 1.25684 7.36816 1.74902 7.36816 2.80371V5.36133C7.36816 6.40723 7.88672 6.9082 8.95898 6.9082ZM6.57715 21.5508C7.05176 21.5508 7.2627 21.3047 7.38574 20.8564L8.10645 18.123H15.9287L16.6494 20.8564C16.7725 21.3047 17.0098 21.5508 17.458 21.5508C17.9766 21.5508 18.2666 21.2256 18.2666 20.7686C18.2666 20.6719 18.2578 20.5576 18.2227 20.4521L16.8428 15.2402H17.4053C18.0205 15.2402 18.4775 14.8184 18.4775 14.2646C18.4775 13.6758 18.0557 13.2715 17.4404 13.2715H7.36816C6.6123 13.2715 6.19043 12.8848 6.19043 12.1553V9.87891H7.38574V10.5117C7.38574 11.5312 7.9043 12.0322 8.94141 12.0322H15.1641C16.21 12.0322 16.7285 11.5312 16.7285 10.5117V9.87891H19.7959C20.332 9.87891 20.6836 9.53613 20.6836 9.06152C20.6836 8.56934 20.3408 8.23535 19.8311 8.23535H4.13379C3.6416 8.23535 3.30762 8.57812 3.30762 9.06152C3.30762 9.53613 3.65918 9.87891 4.16895 9.87891H4.71387V13.2979C4.71387 14.5195 5.46094 15.2402 6.68262 15.2402H7.19238L5.8125 20.4521C5.79492 20.5576 5.76855 20.6543 5.76855 20.7686C5.76855 21.208 6.03223 21.5508 6.57715 21.5508ZM8.52832 16.5586L8.87109 15.2402H15.1641L15.5068 16.5586H8.52832Z" fill="#1C1C1E"/>
</g>
<defs>
<clipPath id="clip0_10_318">
<rect width="24" height="24" fill="white"/>
</clipPath>
</defs>
</svg>
