<svg width="24" height="24" viewBox="0 0 24 24" fill="none" xmlns="http://www.w3.org/2000/svg">
<g clip-path="url(#clip0_10_386)">
<path d="M16.8516 14.5371L18.0996 15.7764L21.2549 12.6123C21.9404 11.918 22.0107 11.5137 22.0107 10.5117V7.18066C22.0107 6.20508 21.7822 5.87109 21.0703 5.15918L19.0576 3.14648C18.3369 2.43457 18.0029 2.20605 17.0361 2.20605H13.6963C12.7031 2.20605 12.2988 2.27637 11.6133 2.9707L8.44922 6.12598L9.68848 7.36523L12.8613 4.20117C13.0371 4.02539 13.2041 3.91992 13.4854 3.91992H17.0186C17.2822 3.91992 17.4668 4.0166 17.6426 4.19238L20.0244 6.57422C20.1914 6.75 20.2881 6.92578 20.2881 7.19824V10.7314C20.2881 11.0215 20.2002 11.1885 20.0244 11.3643L16.8516 14.5371ZM19.374 20.5752C19.6465 20.8477 20.0947 20.8477 20.3672 20.5752C20.6309 20.3027 20.6396 19.8633 20.3672 19.582L4.62598 3.84961C4.35352 3.57715 3.90527 3.56836 3.62402 3.84961C3.36035 4.11328 3.36035 4.57031 3.62402 4.84277L19.374 20.5752ZM15.9375 9.53613C16.6582 9.53613 17.2031 8.98242 17.2031 8.27051C17.2031 7.56738 16.6582 7.00488 15.9375 7.00488C15.2256 7.00488 14.6807 7.56738 14.6807 8.27051C14.6807 8.98242 15.2256 9.53613 15.9375 9.53613ZM15.5596 18.3164L14.3203 17.0684L11.5078 19.8896C10.9277 20.4697 10.3213 20.4785 9.72363 19.8809L4.33594 14.502C3.73828 13.9043 3.75586 13.2891 4.32715 12.7178L7.15723 9.89648L5.91797 8.65723L2.98242 11.584C1.66406 12.9023 1.64648 14.2998 2.99121 15.627L8.59863 21.2344C9.93457 22.5615 11.3232 22.5527 12.6416 21.2344L15.5596 18.3164Z" fill="#1C1C1E"/>
</g>
<defs>
<clipPath id="clip0_10_386">
<rect width="24" height="24" fill="white"/>
</clipPath>
</defs>
</svg>
