<svg width="24" height="24" viewBox="0 0 24 24" fill="none" xmlns="http://www.w3.org/2000/svg">
<g clip-path="url(#clip0_10_388)">
<path d="M11.9912 20.7422C16.9746 20.7422 21.0879 16.6289 21.0879 11.6543C21.0879 6.67969 16.9658 2.56641 11.9824 2.56641C7.00781 2.56641 2.90332 6.67969 2.90332 11.6543C2.90332 16.6289 7.0166 20.7422 11.9912 20.7422ZM11.9912 18.9316C7.95703 18.9316 4.73145 15.6885 4.73145 11.6543C4.73145 7.62012 7.95703 4.38574 11.9824 4.38574C16.0166 4.38574 19.2598 7.62012 19.2686 11.6543C19.2773 15.6885 16.0254 18.9316 11.9912 18.9316ZM16.6143 9.31641C16.6143 8.90332 16.5176 8.6748 16.2363 8.40234L15.4541 7.62012C15.1816 7.34766 14.9443 7.18945 14.54 7.18945H12.8613C12.3516 7.18945 12.1143 7.41797 11.7891 7.75195L7.62305 11.9531C7.05176 12.5244 7.08691 13.0957 7.64062 13.6494L10.1543 16.1719C10.708 16.7256 11.2881 16.7607 11.8506 16.1895L16.0605 12.0146C16.3945 11.6895 16.6143 11.4609 16.6143 10.9336V9.31641ZM13.459 10.3535C13.2041 10.0986 13.1953 9.66797 13.459 9.4043C13.7227 9.14941 14.1445 9.14941 14.3994 9.4043C14.6543 9.65918 14.6631 10.0811 14.3994 10.3447C14.1357 10.6084 13.7139 10.6084 13.459 10.3535Z" fill="#1C1C1E"/>
</g>
<defs>
<clipPath id="clip0_10_388">
<rect width="24" height="24" fill="white"/>
</clipPath>
</defs>
</svg>
