<svg width="24" height="24" viewBox="0 0 24 24" fill="none" xmlns="http://www.w3.org/2000/svg">
<g clip-path="url(#clip0_10_385)">
<path d="M8.44922 6.12598L18.0908 15.7676L21.2549 12.6123C21.9404 11.918 22.0107 11.5137 22.0107 10.5117V7.18066C22.0107 6.20508 21.7822 5.87109 21.0703 5.15918L19.0576 3.14648C18.3369 2.43457 18.0029 2.20605 17.0361 2.20605H13.6963C12.7031 2.20605 12.2988 2.27637 11.6133 2.9707L8.44922 6.12598ZM19.374 20.5752C19.6465 20.8477 20.0947 20.8477 20.3672 20.5752C20.6309 20.3027 20.6396 19.8633 20.3672 19.582L4.62598 3.84961C4.35352 3.57715 3.90527 3.56836 3.62402 3.84961C3.36035 4.11328 3.36035 4.57031 3.62402 4.84277L19.374 20.5752ZM15.4893 9.53613C14.7686 9.53613 14.2236 8.98242 14.2236 8.27051C14.2236 7.56738 14.7686 7.00488 15.4893 7.00488C16.21 7.00488 16.7549 7.56738 16.7549 8.27051C16.7549 8.98242 16.21 9.53613 15.4893 9.53613ZM15.5508 18.3252L5.90039 8.66602L2.98242 11.584C1.66406 12.9023 1.64648 14.2998 2.99121 15.627L8.59863 21.2344C9.93457 22.5615 11.3232 22.5527 12.6416 21.2344L15.5508 18.3252Z" fill="#1C1C1E"/>
</g>
<defs>
<clipPath id="clip0_10_385">
<rect width="24" height="24" fill="white"/>
</clipPath>
</defs>
</svg>
