<svg width="24" height="24" viewBox="0 0 24 24" fill="none" xmlns="http://www.w3.org/2000/svg">
<g clip-path="url(#clip0_10_387)">
<path d="M11.9912 20.7598C16.9746 20.7598 21.0879 16.6465 21.0879 11.6631C21.0879 6.68848 16.9658 2.5752 11.9824 2.5752C7.00781 2.5752 2.90332 6.68848 2.90332 11.6631C2.90332 16.6465 7.0166 20.7598 11.9912 20.7598ZM16.8076 9.21973V10.8984C16.8076 11.4609 16.5703 11.6895 16.2275 12.0234L11.8506 16.3652C11.2529 16.9629 10.6553 16.9189 10.0664 16.3477L7.46484 13.7285C6.89355 13.1484 6.8584 12.5508 7.44727 11.9619L11.7715 7.58496C12.1143 7.24219 12.3604 7.00488 12.8965 7.00488H14.6455C15.0586 7.00488 15.3047 7.17188 15.5947 7.45312L16.4121 8.26172C16.7021 8.55176 16.8076 8.78906 16.8076 9.21973ZM13.5117 10.292C13.7842 10.5645 14.2148 10.5645 14.4873 10.292C14.7598 10.0195 14.7598 9.58008 14.4961 9.30762C14.2236 9.04395 13.7842 9.04395 13.5117 9.30762C13.2393 9.58887 13.2393 10.0283 13.5117 10.292Z" fill="#1C1C1E"/>
</g>
<defs>
<clipPath id="clip0_10_387">
<rect width="24" height="24" fill="white"/>
</clipPath>
</defs>
</svg>
