<svg width="24" height="24" viewBox="0 0 24 24" fill="none" xmlns="http://www.w3.org/2000/svg">
<g clip-path="url(#clip0_10_561)">
<path d="M7.28906 21.1816H18.7236C19.1895 21.1816 19.5498 20.8213 19.5498 20.3555C19.5498 19.96 19.2773 19.6699 18.9434 19.5117C17.8623 19.0283 17.6514 17.5342 18.75 16.4883C19.1982 16.0928 19.541 15.6533 19.541 14.7656V5.03613C19.541 3.1377 18.5654 2.14453 16.6758 2.14453H7.30664C5.42578 2.14453 4.44141 3.12891 4.44141 5.03613V18.3164C4.44141 20.1973 5.42578 21.1816 7.28906 21.1816ZM7.1748 15.3896C6.88477 15.3896 6.63867 15.1523 6.63867 14.8535V4.15723C6.63867 3.8584 6.88477 3.62109 7.1748 3.62109C7.46484 3.62109 7.71094 3.8584 7.71094 4.15723V14.8535C7.71094 15.1523 7.46484 15.3896 7.1748 15.3896ZM10.1631 7.90137C9.81152 7.90137 9.50391 7.60254 9.50391 7.25098C9.50391 6.88184 9.81152 6.5918 10.1631 6.5918H16.5264C16.8867 6.5918 17.1855 6.88184 17.1855 7.25098C17.1855 7.60254 16.8867 7.90137 16.5264 7.90137H10.1631ZM10.1631 10.4502C9.81152 10.4502 9.50391 10.1602 9.50391 9.79102C9.50391 9.43945 9.81152 9.14062 10.1631 9.14062H14.9971C15.3574 9.14062 15.6562 9.43945 15.6562 9.79102C15.6562 10.1602 15.3574 10.4502 14.9971 10.4502H10.1631ZM7.52637 19.5293C6.58594 19.5293 6.09375 18.9932 6.09375 18.167C6.09375 17.3672 6.65625 16.8135 7.58789 16.8135H16.3594C16.4561 16.8135 16.5527 16.8047 16.6406 16.7871C16.2012 17.7188 16.2539 18.7295 16.7285 19.5293H7.52637Z" fill="#1C1C1E"/>
</g>
<defs>
<clipPath id="clip0_10_561">
<rect width="24" height="24" fill="white"/>
</clipPath>
</defs>
</svg>
