<svg width="24" height="24" viewBox="0 0 24 24" fill="none" xmlns="http://www.w3.org/2000/svg">
<g clip-path="url(#clip0_10_420)">
<path d="M0.925781 15.7412C0.925781 16.1895 1.11035 16.5059 1.50586 16.6816C2.50781 17.165 3.06152 17.7363 3.6416 18.8965C3.83496 19.2744 4.15137 19.4678 4.56445 19.4678H19.4355C19.8486 19.4678 20.165 19.2744 20.3584 18.8965C20.9385 17.7363 21.4922 17.165 22.4941 16.6816C22.8809 16.5059 23.0742 16.1895 23.0742 15.7412V7.55859C23.0742 7.11914 22.8809 6.80273 22.4941 6.61816C21.4922 6.13477 20.9385 5.57227 20.3584 4.40332C20.165 4.03418 19.8486 3.83203 19.4355 3.83203H4.56445C4.15137 3.83203 3.83496 4.03418 3.6416 4.40332C3.06152 5.57227 2.50781 6.13477 1.50586 6.61816C1.11035 6.80273 0.925781 7.11914 0.925781 7.55859V15.7412ZM4.74902 15.6357V7.68164C4.74902 7.18066 5.08301 6.84668 5.58398 6.84668H18.416C18.917 6.84668 19.251 7.18066 19.251 7.68164V15.6357C19.251 16.1367 18.917 16.4707 18.416 16.4707H5.58398C5.08301 16.4707 4.74902 16.1367 4.74902 15.6357ZM5.95312 9.65039H7.04297V8.04199H6.12012C6.00586 8.04199 5.95312 8.10352 5.95312 8.21777V9.65039ZM16.957 9.65039H18.0469V8.21777C18.0469 8.10352 17.9854 8.04199 17.8711 8.04199H16.957V9.65039ZM8.24707 15.2666H15.7529V8.05078H8.24707V15.2666ZM5.95312 12.4717H7.04297V10.8457H5.95312V12.4717ZM16.957 12.4717H18.0469V10.8457H16.957V12.4717ZM16.957 15.2754H17.8711C17.9854 15.2754 18.0469 15.2051 18.0469 15.0908V13.667H16.957V15.2754ZM5.95312 15.0908C5.95312 15.2051 6.01465 15.2666 6.12012 15.2666H7.04297V13.667H5.95312V15.0908Z" fill="#1C1C1E"/>
</g>
<defs>
<clipPath id="clip0_10_420">
<rect width="24" height="24" fill="white"/>
</clipPath>
</defs>
</svg>
