<svg width="24" height="24" viewBox="0 0 24 24" fill="none" xmlns="http://www.w3.org/2000/svg">
<g clip-path="url(#clip0_10_563)">
<path d="M0.925781 15.7412C0.925781 16.1895 1.11035 16.5059 1.50586 16.6816C2.50781 17.165 3.06152 17.7363 3.6416 18.8965C3.83496 19.2744 4.15137 19.4678 4.56445 19.4678H19.4355C19.8486 19.4678 20.165 19.2744 20.3584 18.8965C20.9385 17.7363 21.4922 17.165 22.4941 16.6816C22.8809 16.5059 23.0742 16.1895 23.0742 15.7412V7.55859C23.0742 7.11914 22.8809 6.80273 22.4941 6.61816C21.4922 6.13477 20.9385 5.57227 20.3584 4.40332C20.165 4.03418 19.8486 3.83203 19.4355 3.83203H4.56445C4.15137 3.83203 3.83496 4.03418 3.6416 4.40332C3.06152 5.57227 2.50781 6.13477 1.50586 6.61816C1.11035 6.80273 0.925781 7.11914 0.925781 7.55859V15.7412ZM2.6748 15.4512V7.85742C3.71191 7.42676 4.41504 6.71484 4.9248 5.58984H19.0664C19.5762 6.71484 20.2793 7.42676 21.3164 7.85742V15.4512C20.2793 15.8818 19.5762 16.5938 19.0664 17.7188H4.9248C4.41504 16.5938 3.71191 15.8818 2.6748 15.4512ZM5.03027 15.4775C5.03027 15.9609 5.34668 16.2773 5.83008 16.2773H18.1699C18.6533 16.2773 18.9697 15.9609 18.9697 15.4775V7.83105C18.9697 7.35645 18.6533 7.03125 18.1699 7.03125H5.83008C5.34668 7.03125 5.03027 7.35645 5.03027 7.83105V15.4775ZM6.17285 9.72949V8.34961C6.17285 8.23535 6.23438 8.18262 6.33984 8.18262H7.23633V9.72949H6.17285ZM16.7637 9.72949V8.18262H17.6514C17.7656 8.18262 17.8271 8.23535 17.8271 8.34961V9.72949H16.7637ZM8.37891 15.1348V8.18262H15.6211V15.1348H8.37891ZM6.17285 12.4365V10.8721H7.23633V12.4365H6.17285ZM16.7637 12.4365V10.8721H17.8271V12.4365H16.7637ZM16.7637 15.1348V13.5791H17.8271V14.9678C17.8271 15.082 17.7656 15.1348 17.6514 15.1348H16.7637ZM6.17285 14.959V13.5879H7.22754V15.1348H6.33984C6.23438 15.1348 6.17285 15.0732 6.17285 14.959Z" fill="#1C1C1E"/>
</g>
<defs>
<clipPath id="clip0_10_563">
<rect width="24" height="24" fill="white"/>
</clipPath>
</defs>
</svg>
