<svg width="24" height="24" viewBox="0 0 24 24" fill="none" xmlns="http://www.w3.org/2000/svg">
<g clip-path="url(#clip0_10_471)">
<path d="M6.67383 19.8809H17.3174C19.2246 19.8809 20.209 18.8965 20.209 17.0156V6.31934C20.209 4.43848 19.2246 3.4541 17.3174 3.4541H6.67383C4.77539 3.4541 3.78223 4.42969 3.78223 6.31934V17.0156C3.78223 18.8965 4.77539 19.8809 6.67383 19.8809ZM6.78809 18.1318C5.97949 18.1318 5.53125 17.71 5.53125 16.8574V6.47754C5.53125 5.625 5.97949 5.20312 6.78809 5.20312H17.2031C18.0029 5.20312 18.46 5.625 18.46 6.47754V16.8574C18.46 17.71 18.0029 18.1318 17.2031 18.1318H6.78809ZM6.98145 11.6543C6.98145 14.4229 9.23145 16.6729 12 16.6729C14.7598 16.6729 17.0186 14.4229 17.0186 11.6543C17.0186 8.90332 14.7598 6.63574 12 6.63574C11.5957 6.63574 11.332 6.9082 11.332 7.30371V8.91211C11.332 9.27246 11.5957 9.55371 11.9561 9.55371C12.3076 9.55371 12.5713 9.26367 12.5713 8.91211V8.06836C14.3115 8.32324 15.6211 9.83496 15.6211 11.6543C15.6211 13.667 14.0039 15.2842 12 15.2842C9.9873 15.2842 8.36133 13.667 8.37012 11.6543C8.37012 10.8105 8.66016 10.002 9.20508 9.35156C9.45117 9.00879 9.45117 8.64844 9.1875 8.36719C8.88867 8.06836 8.42285 8.12109 8.1416 8.48145C7.39453 9.36914 6.98145 10.5117 6.98145 11.6543ZM12.8174 12.4717C13.2393 12.0322 13.1602 11.373 12.6416 11.0479L10.4268 9.60645C10.0488 9.36914 9.69727 9.68555 9.94336 10.0811L11.4023 12.2959C11.7363 12.8145 12.3779 12.8936 12.8174 12.4717Z" fill="#1C1C1E"/>
</g>
<defs>
<clipPath id="clip0_10_471">
<rect width="24" height="24" fill="white"/>
</clipPath>
</defs>
</svg>
