<svg width="24" height="24" viewBox="0 0 24 24" fill="none" xmlns="http://www.w3.org/2000/svg">
<g clip-path="url(#clip0_10_485)">
<path d="M11.9912 21.0322C16.9922 21.0322 21.0879 16.9365 21.0879 11.9355C21.0879 6.94336 17.001 2.84766 12 2.84766C11.4551 2.84766 11.1475 3.17285 11.1475 3.7002V6.93457C11.1475 7.38281 11.4639 7.73438 11.9121 7.73438C12.3604 7.73438 12.6768 7.38281 12.6768 6.93457V4.67578C16.3945 5.01855 19.2598 8.12988 19.2598 11.9355C19.2598 15.9609 16.0342 19.2129 11.9912 19.2129C7.95703 19.2129 4.71387 15.9609 4.72266 11.9355C4.73145 10.2041 5.33789 8.5957 6.35742 7.35645C6.69141 6.89941 6.74414 6.41602 6.36621 6.03809C5.98828 5.66016 5.38184 5.69531 4.98633 6.21387C3.69434 7.77832 2.90332 9.77344 2.90332 11.9355C2.90332 16.9365 6.99902 21.0322 11.9912 21.0322ZM13.4062 13.2891C14.127 12.5244 13.9775 11.4873 13.1162 10.8984L8.65137 7.83105C8.12402 7.47949 7.61426 7.99805 7.96582 8.52539L11.0332 12.9814C11.6221 13.8516 12.6592 14.0098 13.4062 13.2891Z" fill="#1C1C1E"/>
</g>
<defs>
<clipPath id="clip0_10_485">
<rect width="24" height="24" fill="white"/>
</clipPath>
</defs>
</svg>
