<svg width="24" height="24" viewBox="0 0 24 24" fill="none" xmlns="http://www.w3.org/2000/svg">
<g clip-path="url(#clip0_10_722)">
<path d="M18.5127 14.915L18.9258 5.93262H19.8926C20.3408 5.93262 20.6836 5.58984 20.6836 5.15039C20.6836 4.71973 20.3408 4.37695 19.8926 4.37695H15.9902V3.18164C15.9902 1.82812 15.0498 0.958008 13.582 0.958008H10.4004C8.93262 0.958008 8.00098 1.82812 8.00098 3.18164V4.14844H7.74609L9.53906 5.93262H17.2822L16.9395 13.3506L18.5127 14.915ZM19.4795 19.4326C19.7607 19.7051 20.209 19.7051 20.4727 19.4326C20.7363 19.1602 20.7451 18.7207 20.4727 18.4395L4.51172 2.47852C4.23926 2.20605 3.79102 2.19727 3.51855 2.47852C3.24609 2.74219 3.24609 3.19922 3.51855 3.46289L19.4795 19.4326ZM9.64453 4.37695V3.26074C9.64453 2.77734 10.0049 2.43457 10.5322 2.43457H13.459C13.9863 2.43457 14.3467 2.77734 14.3467 3.26074V4.37695H9.64453ZM7.96582 20.7686H16.043C16.9834 20.7686 17.6689 20.3555 18.0205 19.6699L18.0293 19.5381L16.6934 18.2021L16.6846 18.4219C16.6582 18.8613 16.3154 19.1953 15.8496 19.1953H8.1416C7.6582 19.1953 7.30664 18.835 7.28027 18.3164L6.79688 8.30566L5.10938 6.61816L5.66309 18.5977C5.7334 19.96 6.59473 20.7686 7.96582 20.7686ZM12.624 9.01758V8.00684C12.624 7.65527 12.3691 7.41797 12 7.41797C11.8418 7.41797 11.666 7.47949 11.5605 7.59375V7.96289L12.624 9.01758ZM15.3574 11.7598L15.4629 8.00684C15.4717 7.65527 15.2344 7.42676 14.8652 7.42676C14.5049 7.42676 14.2588 7.65527 14.25 8.00684L14.1797 10.582L15.3574 11.7598ZM9.40723 17.7803C9.78516 17.7803 10.0225 17.543 10.0137 17.1914L9.84668 11.3555L8.59863 10.1074L8.80078 17.2002C8.80957 17.5518 9.05566 17.7803 9.40723 17.7803ZM12 17.7803C12.3691 17.7803 12.624 17.5518 12.624 17.2002V14.1328L11.3848 12.8936V17.2002C11.3848 17.5518 11.6309 17.7803 12 17.7803ZM14.5928 17.7891C14.8916 17.7891 15.1113 17.6045 15.1465 17.3232L15.1729 16.6816L14.0303 15.5479L13.9863 17.2002C13.9775 17.543 14.2148 17.7891 14.5928 17.7891Z" fill="#1C1C1E"/>
</g>
<defs>
<clipPath id="clip0_10_722">
<rect width="24" height="24" fill="white"/>
</clipPath>
</defs>
</svg>
