<svg width="24" height="24" viewBox="0 0 24 24" fill="none" xmlns="http://www.w3.org/2000/svg">
<g clip-path="url(#clip0_10_704)">
<path d="M18.293 14.7129L18.6797 5.94141H19.8926C20.3408 5.94141 20.6836 5.58984 20.6836 5.15039C20.6836 4.71094 20.3408 4.37695 19.8926 4.37695H16.0957V3.18164C16.0957 1.7666 15.1025 0.852539 13.582 0.852539H10.4004C8.87988 0.852539 7.89551 1.7666 7.89551 3.18164V4.07812H7.64941L11.4902 7.91895V7.55859C11.5781 7.38281 11.7715 7.27734 12 7.27734C12.3691 7.27734 12.624 7.51465 12.624 7.85742V9.05273L14.3906 10.8193L14.4785 7.85742C14.4873 7.50586 14.7334 7.27734 15.085 7.27734C15.4629 7.27734 15.7002 7.51465 15.6914 7.86621L15.5771 12.0059L18.293 14.7129ZM19.4795 19.459C19.7607 19.7402 20.209 19.7402 20.4727 19.459C20.7363 19.1865 20.7451 18.7471 20.4727 18.4746L4.51172 2.50488C4.23926 2.23242 3.79102 2.23242 3.51855 2.50488C3.24609 2.76855 3.24609 3.22559 3.51855 3.49805L19.4795 19.459ZM9.75 4.37695V3.26074C9.75 2.83008 10.0576 2.54004 10.5322 2.54004H13.459C13.9336 2.54004 14.2412 2.83887 14.2412 3.26074V4.37695H9.75ZM7.84277 20.4785H16.166C17.001 20.4785 17.5986 20.1357 17.8711 19.5469L17.8799 19.415L15.3398 16.875L15.3311 17.3496C15.3047 17.6133 15.1025 17.7891 14.8213 17.7891C14.4434 17.7891 14.2061 17.543 14.2148 17.2002L14.25 15.7852L12.624 14.1592V17.2002C12.624 17.5518 12.3691 17.7803 12 17.7803C11.6309 17.7803 11.3848 17.5518 11.3848 17.2002V12.9199L9.61816 11.1533L9.78516 17.1914C9.80273 17.543 9.55664 17.7803 9.17871 17.7803C8.82715 17.7803 8.58105 17.5518 8.57227 17.2002L8.37012 9.90527L5.37305 6.91699L5.8916 18.6416C5.93555 19.8369 6.63867 20.4785 7.84277 20.4785Z" fill="#1C1C1E"/>
</g>
<defs>
<clipPath id="clip0_10_704">
<rect width="24" height="24" fill="white"/>
</clipPath>
</defs>
</svg>
