<svg width="24" height="24" viewBox="0 0 24 24" fill="none" xmlns="http://www.w3.org/2000/svg">
<g clip-path="url(#clip0_10_732)">
<path d="M11.9912 20.7422C16.9746 20.7422 21.0879 16.6289 21.0879 11.6543C21.0879 6.67969 16.9658 2.56641 11.9824 2.56641C7.00781 2.56641 2.90332 6.67969 2.90332 11.6543C2.90332 16.6289 7.0166 20.7422 11.9912 20.7422ZM11.9912 18.9316C7.95703 18.9316 4.73145 15.6885 4.73145 11.6543C4.73145 7.62012 7.95703 4.38574 11.9824 4.38574C16.0166 4.38574 19.2598 7.62012 19.2686 11.6543C19.2773 15.6885 16.0254 18.9316 11.9912 18.9316ZM9.8291 16.7256H14.1533C14.7773 16.7256 15.1553 16.3828 15.1816 15.7588L15.4805 9.06152H16.1133C16.3506 9.06152 16.5352 8.87695 16.5439 8.63965C16.5527 8.40234 16.3506 8.22656 16.1133 8.22656H14.127V7.58496C14.127 6.84668 13.626 6.38086 12.8086 6.38086H11.1475C10.3389 6.38086 9.84668 6.84668 9.84668 7.58496V8.22656H7.84277C7.61426 8.22656 7.4209 8.40234 7.4209 8.63965C7.4209 8.87695 7.61426 9.06152 7.84277 9.06152H8.50195L8.80078 15.7588C8.82715 16.3828 9.19629 16.7256 9.8291 16.7256ZM10.7871 8.22656V7.62012C10.7871 7.40039 10.9541 7.25098 11.1826 7.25098H12.7646C13.002 7.25098 13.1602 7.40039 13.1689 7.62012V8.22656H10.7871ZM10.5059 15.3896C10.3213 15.3896 10.1807 15.2578 10.1807 15.082L10.0049 10.0986C10.0049 9.90527 10.1279 9.77344 10.3389 9.77344C10.5234 9.77344 10.6553 9.89648 10.6553 10.0898L10.8223 15.0732C10.8223 15.2578 10.6992 15.3896 10.5059 15.3896ZM11.9736 15.3809C11.7803 15.3809 11.6484 15.2578 11.6484 15.0732V10.0898C11.6484 9.89648 11.7715 9.77344 11.9736 9.77344C12.1758 9.77344 12.3076 9.89648 12.3076 10.0898V15.0732C12.3076 15.2578 12.1758 15.3809 11.9736 15.3809ZM13.4502 15.3896C13.248 15.3896 13.125 15.2578 13.1338 15.0732L13.292 10.0898C13.292 9.89648 13.4326 9.77344 13.6172 9.77344C13.8193 9.77344 13.9424 9.90527 13.9424 10.0986L13.7666 15.082C13.7666 15.2578 13.626 15.3896 13.4502 15.3896Z" fill="#1C1C1E"/>
</g>
<defs>
<clipPath id="clip0_10_732">
<rect width="24" height="24" fill="white"/>
</clipPath>
</defs>
</svg>
