<svg width="24" height="24" viewBox="0 0 24 24" fill="none" xmlns="http://www.w3.org/2000/svg">
<g clip-path="url(#clip0_10_723)">
<path d="M11.9912 20.7598C16.9746 20.7598 21.0879 16.6465 21.0879 11.6631C21.0879 6.68848 16.9658 2.5752 11.9824 2.5752C7.00781 2.5752 2.90332 6.68848 2.90332 11.6631C2.90332 16.6465 7.0166 20.7598 11.9912 20.7598ZM9.74121 16.9365C9.08203 16.9365 8.69531 16.585 8.66895 15.9258L8.36133 8.97363H7.68457C7.43848 8.97363 7.23633 8.78906 7.24512 8.54297C7.24512 8.28809 7.43848 8.09473 7.68457 8.09473H9.75879V7.43555C9.75879 6.66211 10.2686 6.17871 11.1211 6.17871H12.835C13.6875 6.17871 14.2148 6.66211 14.2148 7.43555V8.09473H16.2715C16.5264 8.09473 16.7285 8.28809 16.7197 8.54297C16.7109 8.78906 16.5264 8.97363 16.2715 8.97363H15.6211L15.3135 15.9258C15.2871 16.585 14.8828 16.9365 14.2324 16.9365H9.74121ZM10.7432 8.09473H13.2129L13.2041 7.4707C13.2041 7.24219 13.0459 7.09277 12.7998 7.09277H11.1562C10.9102 7.09277 10.752 7.24219 10.7432 7.4707V8.09473ZM10.4443 15.5391C10.6465 15.5391 10.7783 15.4072 10.7783 15.2227L10.6025 10.0459C10.6025 9.84375 10.4619 9.7207 10.2686 9.7207C10.0488 9.7207 9.92578 9.84375 9.93457 10.0547L10.1016 15.2227C10.1104 15.4072 10.251 15.5391 10.4443 15.5391ZM11.9736 15.5391C12.1846 15.5391 12.3252 15.4072 12.3252 15.2227V10.0459C12.3252 9.84375 12.1846 9.7207 11.9736 9.7207C11.7627 9.7207 11.6396 9.84375 11.6396 10.0459V15.2227C11.6396 15.4072 11.7627 15.5391 11.9736 15.5391ZM13.5029 15.5391C13.6963 15.5391 13.8369 15.4072 13.8457 15.2227L14.0127 10.0547C14.0215 9.84375 13.8984 9.7207 13.6875 9.7207C13.4854 9.7207 13.3447 9.84375 13.3447 10.0459L13.1689 15.2227C13.1689 15.4072 13.3008 15.5391 13.5029 15.5391Z" fill="#1C1C1E"/>
</g>
<defs>
<clipPath id="clip0_10_723">
<rect width="24" height="24" fill="white"/>
</clipPath>
</defs>
</svg>
