<svg width="24" height="24" viewBox="0 0 24 24" fill="none" xmlns="http://www.w3.org/2000/svg">
<g clip-path="url(#clip0_10_733)">
<path d="M7.96582 20.7686H16.043C17.3965 20.7686 18.2666 19.9512 18.3369 18.5977L18.9258 5.94141H19.8926C20.3408 5.94141 20.6836 5.58984 20.6836 5.15039C20.6836 4.71094 20.332 4.37695 19.8926 4.37695H15.9902V3.05859C15.9902 1.70508 15.1289 0.914062 13.6611 0.914062H10.3213C8.85352 0.914062 7.99219 1.70508 7.99219 3.05859V4.37695H4.10742C3.66797 4.37695 3.31641 4.71973 3.31641 5.15039C3.31641 5.59863 3.66797 5.94141 4.10742 5.94141H5.07422L5.66309 18.5977C5.7334 19.96 6.59473 20.7686 7.96582 20.7686ZM9.63574 3.1377C9.63574 2.68945 9.95215 2.39941 10.4355 2.39941H13.5469C14.0303 2.39941 14.3467 2.68945 14.3467 3.1377V4.37695H9.63574V3.1377ZM8.1416 19.1953C7.6582 19.1953 7.30664 18.835 7.28027 18.3164L6.69141 5.94141H17.2822L16.7109 18.3164C16.6934 18.8438 16.3506 19.1953 15.8496 19.1953H8.1416ZM9.40723 17.7803C9.78516 17.7803 10.0225 17.543 10.0137 17.1914L9.75 7.99805C9.74121 7.64648 9.49512 7.41797 9.13477 7.41797C8.76562 7.41797 8.52832 7.65527 8.53711 8.00684L8.80078 17.2002C8.80957 17.5518 9.05566 17.7803 9.40723 17.7803ZM12 17.7803C12.3691 17.7803 12.624 17.5518 12.624 17.2002V8.00684C12.624 7.65527 12.3691 7.41797 12 7.41797C11.6309 7.41797 11.3848 7.65527 11.3848 8.00684V17.2002C11.3848 17.5518 11.6309 17.7803 12 17.7803ZM14.5928 17.7891C14.9443 17.7891 15.1904 17.5518 15.1992 17.2002L15.4629 8.00684C15.4717 7.65527 15.2344 7.42676 14.8652 7.42676C14.5049 7.42676 14.2588 7.65527 14.25 8.00684L13.9863 17.2002C13.9775 17.543 14.2148 17.7891 14.5928 17.7891Z" fill="#1C1C1E"/>
</g>
<defs>
<clipPath id="clip0_10_733">
<rect width="24" height="24" fill="white"/>
</clipPath>
</defs>
</svg>
