<svg width="24" height="24" viewBox="0 0 24 24" fill="none" xmlns="http://www.w3.org/2000/svg">
<g clip-path="url(#clip0_10_737)">
<path d="M7.84277 20.4785H16.166C17.3701 20.4785 18.0732 19.8369 18.126 18.6416L18.6797 5.94141H19.8926C20.3408 5.94141 20.6836 5.58984 20.6836 5.15039C20.6836 4.71094 20.332 4.37695 19.8926 4.37695H16.0781V3.05859C16.0781 1.65234 15.1729 0.817383 13.6611 0.817383H10.3213C8.80957 0.817383 7.9043 1.65234 7.9043 3.05859V4.37695H4.10742C3.66797 4.37695 3.31641 4.71973 3.31641 5.15039C3.31641 5.59863 3.66797 5.94141 4.10742 5.94141H5.3291L5.8916 18.6416C5.93555 19.8369 6.63867 20.4785 7.84277 20.4785ZM9.73242 3.1377C9.73242 2.74219 10.0049 2.4873 10.4443 2.4873H13.5469C13.9863 2.4873 14.2588 2.74219 14.2588 3.1377V4.37695H9.73242V3.1377ZM9.17871 17.7803C8.82715 17.7803 8.58105 17.5518 8.57227 17.2002L8.30859 7.86621C8.2998 7.51465 8.5459 7.27734 8.91504 7.27734C9.2666 7.27734 9.5127 7.50586 9.52148 7.85742L9.78516 17.1914C9.80273 17.543 9.55664 17.7803 9.17871 17.7803ZM12 17.7803C11.6309 17.7803 11.3848 17.5518 11.3848 17.2002V7.85742C11.3848 7.51465 11.6309 7.27734 12 7.27734C12.3691 7.27734 12.624 7.51465 12.624 7.85742V17.2002C12.624 17.5518 12.3691 17.7803 12 17.7803ZM14.8213 17.7891C14.4434 17.7891 14.1973 17.543 14.2148 17.2002L14.4785 7.85742C14.4873 7.50586 14.7334 7.27734 15.085 7.27734C15.4541 7.27734 15.7002 7.51465 15.6914 7.86621L15.4277 17.2002C15.4189 17.5518 15.1729 17.7891 14.8213 17.7891Z" fill="#1C1C1E"/>
</g>
<defs>
<clipPath id="clip0_10_737">
<rect width="24" height="24" fill="white"/>
</clipPath>
</defs>
</svg>
