<svg width="24" height="24" viewBox="0 0 24 24" fill="none" xmlns="http://www.w3.org/2000/svg">
<g clip-path="url(#clip0_10_647)">
<path d="M4.48535 21.7002H19.5234C21.4131 21.7002 22.415 20.7158 22.415 18.835V14.625C22.415 14.2998 22.2568 13.9395 21.9932 13.7197C22.2744 13.3066 22.415 12.7705 22.415 12.1377V7.4707C22.415 6.53906 22.4062 5.87109 21.8877 5.42285L18.7324 2.59277C17.748 1.71387 17.0361 1.41504 15.665 1.41504H8.34375C6.96387 1.41504 6.26074 1.71387 5.26758 2.59277L2.12109 5.42285C1.60254 5.87109 1.58496 6.53906 1.58496 7.4707V12.1377C1.58496 12.7705 1.72559 13.3066 2.00684 13.7197C1.74316 13.9395 1.58496 14.2998 1.58496 14.625V18.835C1.58496 20.7246 2.58691 21.7002 4.48535 21.7002ZM12 9.29004C10.8223 9.29004 10.084 8.2793 10.084 7.33008V7.29492C10.084 6.95215 9.87305 6.62695 9.41602 6.62695H3.93164C3.47461 6.62695 3.31641 6.41602 3.69434 6.07324L6.55957 3.49805C7.04297 3.0498 7.37695 2.87402 8.13281 2.87402H15.876C16.6318 2.87402 16.957 3.0498 17.4404 3.49805L20.3145 6.06445C20.7012 6.4248 20.5254 6.62695 20.0771 6.62695H14.5928C14.127 6.62695 13.9248 6.95215 13.9248 7.29492V7.33008C13.9248 8.2793 13.1865 9.29004 12 9.29004ZM4.57324 13.2891C3.75586 13.2891 3.31641 12.8672 3.31641 12.0146V8.17383H8.58105C8.8623 9.73828 10.2246 10.8984 12 10.8984C13.7754 10.8984 15.1377 9.73828 15.4189 8.17383H20.6836V12.0146C20.6836 12.8672 20.2354 13.2891 19.4355 13.2891H4.57324ZM12 16.1631C11.0508 16.1631 10.3828 15.5039 10.1631 14.7568H13.8369C13.6172 15.5039 12.9492 16.1631 12 16.1631ZM4.57324 19.9951C3.75586 19.9951 3.31641 19.5732 3.31641 18.7207V14.8975H8.58105C8.8623 16.4619 10.2246 17.6221 12 17.6221C13.7754 17.6221 15.1377 16.4619 15.4189 14.8975H20.6836V18.7207C20.6836 19.5732 20.2354 19.9951 19.4355 19.9951H4.57324Z" fill="#1C1C1E"/>
</g>
<defs>
<clipPath id="clip0_10_647">
<rect width="24" height="24" fill="white"/>
</clipPath>
</defs>
</svg>
