<svg width="24" height="24" viewBox="0 0 24 24" fill="none" xmlns="http://www.w3.org/2000/svg">
<g clip-path="url(#clip0_10_637)">
<path d="M4.48535 13.4473H19.5234C21.4307 13.4473 22.415 12.4717 22.415 10.6787V7.4707C22.415 6.53906 22.4062 5.87109 21.8877 5.42285L18.7324 2.59277C17.748 1.71387 17.0361 1.41504 15.665 1.41504H8.34375C6.96387 1.41504 6.26074 1.71387 5.26758 2.59277L2.12109 5.42285C1.60254 5.87109 1.58496 6.53906 1.58496 7.4707V10.6787C1.58496 12.4717 2.57812 13.4473 4.48535 13.4473ZM12 9.38672C10.7783 9.38672 10.0137 8.33203 10.0137 7.34766V7.32129C10.0137 6.96094 9.79395 6.62695 9.31055 6.62695H3.93164C3.47461 6.62695 3.31641 6.41602 3.69434 6.07324L6.55957 3.49805C7.04297 3.0498 7.37695 2.87402 8.13281 2.87402H15.876C16.6318 2.87402 16.957 3.0498 17.4404 3.49805L20.3145 6.06445C20.7012 6.4248 20.5254 6.62695 20.0771 6.62695H14.6895C14.2061 6.62695 13.9863 6.96094 13.9863 7.32129V7.34766C13.9863 8.33203 13.2305 9.38672 12 9.38672ZM4.48535 21.7002H19.5234C21.4131 21.7002 22.415 20.7158 22.415 18.835V15.7676C22.415 15.2227 22.0898 14.7656 21.5361 14.7656H14.707C14.2236 14.7656 14.0039 15.0996 14.0039 15.46V15.4863C14.0039 16.4795 13.2393 17.5342 12 17.5342C10.7607 17.5342 9.99609 16.4795 9.99609 15.4863V15.46C9.99609 15.0996 9.77637 14.7656 9.29297 14.7656H2.49023C1.93652 14.7656 1.58496 15.2227 1.58496 15.7676V18.835C1.58496 20.7246 2.58691 21.7002 4.48535 21.7002Z" fill="#1C1C1E"/>
</g>
<defs>
<clipPath id="clip0_10_637">
<rect width="24" height="24" fill="white"/>
</clipPath>
</defs>
</svg>
