<svg width="24" height="24" viewBox="0 0 24 24" fill="none" xmlns="http://www.w3.org/2000/svg">
<g clip-path="url(#clip0_10_657)">
<path d="M12 12.9902C12.457 12.9902 12.8262 12.6211 12.8262 12.1816V3.73535L12.7559 2.43457L13.3008 3.07617L14.5312 4.38574C14.6719 4.54395 14.874 4.62305 15.0762 4.62305C15.4805 4.62305 15.8145 4.33301 15.8145 3.91992C15.8145 3.7002 15.7266 3.54199 15.5771 3.39258L12.6328 0.553711C12.4131 0.342773 12.2197 0.272461 12 0.272461C11.7891 0.272461 11.5869 0.342773 11.376 0.553711L8.42285 3.39258C8.27344 3.54199 8.19434 3.7002 8.19434 3.91992C8.19434 4.33301 8.51953 4.62305 8.92383 4.62305C9.12598 4.62305 9.33691 4.54395 9.47754 4.38574L10.6992 3.07617L11.2441 2.42578L11.1826 3.73535V12.1816C11.1826 12.6211 11.5518 12.9902 12 12.9902ZM4.47656 20.9883H19.5146C21.4219 20.9883 22.415 20.0039 22.415 18.123V12.9639C22.415 12.0322 22.3271 11.5225 21.8789 10.9863L19.3213 7.83984C18.1523 6.40723 17.7129 6.06445 16.1045 6.06445H14.4521V7.52344H16.1484C16.7549 7.52344 17.1416 7.64648 17.6426 8.26172L20.3584 11.6279C20.666 12.0234 20.543 12.1904 20.0947 12.1904H14.584C14.127 12.1904 13.916 12.5156 13.916 12.8584V12.8936C13.916 13.8428 13.1777 14.8535 12 14.8535C10.8135 14.8535 10.0752 13.8428 10.0752 12.8936V12.8584C10.0752 12.5156 9.87305 12.1904 9.40723 12.1904H3.90527C3.44824 12.1904 3.35156 11.9971 3.6416 11.6279L6.33984 8.28809C6.8584 7.65527 7.23633 7.52344 7.85156 7.52344H9.54785V6.06445H7.89551C6.28711 6.06445 5.85645 6.39844 4.66113 7.85742L2.1123 10.9863C1.68164 11.5137 1.58496 12.0322 1.58496 12.9639V18.123C1.58496 20.0039 2.57812 20.9883 4.47656 20.9883ZM4.56445 19.2305C3.75586 19.2305 3.31641 18.8086 3.31641 17.9648V13.7373H8.58105C8.8623 15.3018 10.2246 16.4619 12 16.4619C13.7754 16.4619 15.1377 15.3018 15.4189 13.7373H20.6836V17.9648C20.6836 18.8086 20.2354 19.2305 19.4268 19.2305H4.56445Z" fill="#1C1C1E"/>
</g>
<defs>
<clipPath id="clip0_10_657">
<rect width="24" height="24" fill="white"/>
</clipPath>
</defs>
</svg>
