<svg width="24" height="24" viewBox="0 0 24 24" fill="none" xmlns="http://www.w3.org/2000/svg">
<g clip-path="url(#clip0_10_644)">
<path d="M11.9912 20.7422C16.9746 20.7422 21.0879 16.6289 21.0879 11.6543C21.0879 6.67969 16.9658 2.56641 11.9824 2.56641C7.00781 2.56641 2.90332 6.67969 2.90332 11.6543C2.90332 16.6289 7.0166 20.7422 11.9912 20.7422ZM11.9912 18.9316C7.95703 18.9316 4.73145 15.6885 4.73145 11.6543C4.73145 7.62012 7.95703 4.38574 11.9824 4.38574C16.0166 4.38574 19.2598 7.62012 19.2686 11.6543C19.2773 15.6885 16.0254 18.9316 11.9912 18.9316ZM8.32617 15.1875H15.665C16.5879 15.1875 17.0625 14.7041 17.0625 13.7988V11.4082C17.0625 10.9336 16.9922 10.7314 16.7812 10.4502L15.3135 8.52539C14.7773 7.83105 14.4961 7.64648 13.7314 7.64648H10.251C9.48633 7.64648 9.20508 7.83105 8.67773 8.52539L7.20996 10.4502C6.99023 10.7314 6.91992 10.9336 6.91992 11.4082V13.7988C6.91992 14.7129 7.41211 15.1875 8.32617 15.1875ZM8.22949 11.0918C8.08008 11.0918 8.05371 10.96 8.12402 10.8633L9.62695 8.87695C9.79395 8.65723 9.96094 8.56934 10.2422 8.56934H13.749C14.0303 8.56934 14.2061 8.66602 14.3643 8.87695L15.8672 10.8633C15.9375 10.9512 15.9111 11.0918 15.7617 11.0918H13.3711C13.1426 11.0918 13.0283 11.2676 13.0283 11.4521V11.5488C13.0283 12.1465 12.624 12.5244 11.9912 12.5244C11.3584 12.5244 10.9629 12.1465 10.9629 11.5488V11.4521C10.9629 11.2676 10.8486 11.0918 10.6201 11.0918H8.22949Z" fill="#1C1C1E"/>
</g>
<defs>
<clipPath id="clip0_10_644">
<rect width="24" height="24" fill="white"/>
</clipPath>
</defs>
</svg>
