<svg width="24" height="24" viewBox="0 0 24 24" fill="none" xmlns="http://www.w3.org/2000/svg">
<g clip-path="url(#clip0_10_625)">
<path d="M12 12.9902C12.457 12.9902 12.8262 12.6211 12.8262 12.1816V3.73535L12.7559 2.43457L13.3008 3.07617L14.5312 4.38574C14.6719 4.54395 14.874 4.62305 15.0762 4.62305C15.4805 4.62305 15.8145 4.33301 15.8145 3.91992C15.8145 3.7002 15.7266 3.54199 15.5771 3.39258L12.6328 0.553711C12.4131 0.342773 12.2197 0.272461 12 0.272461C11.7891 0.272461 11.5869 0.342773 11.376 0.553711L8.42285 3.39258C8.27344 3.54199 8.19434 3.7002 8.19434 3.91992C8.19434 4.33301 8.51953 4.62305 8.92383 4.62305C9.12598 4.62305 9.33691 4.54395 9.47754 4.38574L10.6992 3.07617L11.2441 2.42578L11.1826 3.73535V12.1816C11.1826 12.6211 11.5518 12.9902 12 12.9902ZM4.47656 20.9883H19.5146C21.4219 20.9883 22.415 20.0039 22.415 18.123V13.3682C22.415 12.4805 22.3184 12.0586 21.8965 11.4873L19.1016 7.78711C18.0381 6.35449 17.5459 6.06445 15.9639 6.06445H14.4521V7.52344H16.0254C16.6143 7.52344 17.0098 7.64648 17.4492 8.22656L20.332 12.1201C20.6309 12.5156 20.5254 12.6826 20.0771 12.6826H14.8301C14.3203 12.6826 14.0918 13.043 14.0918 13.4209V13.4561C14.0918 14.4844 13.292 15.583 12 15.583C10.708 15.583 9.9082 14.4844 9.9082 13.4561V13.4209C9.9082 13.043 9.67969 12.6826 9.16992 12.6826H3.92285C3.46582 12.6826 3.38672 12.4893 3.65918 12.1201L6.5332 8.24414C6.98145 7.65527 7.37695 7.52344 7.97461 7.52344H9.54785V6.06445H8.03613C6.44531 6.06445 5.9707 6.35449 4.88086 7.80469L2.09473 11.4873C1.68164 12.0586 1.58496 12.4805 1.58496 13.3682V18.123C1.58496 20.0039 2.57812 20.9883 4.47656 20.9883Z" fill="#1C1C1E"/>
</g>
<defs>
<clipPath id="clip0_10_625">
<rect width="24" height="24" fill="white"/>
</clipPath>
</defs>
</svg>
