<svg width="24" height="24" viewBox="0 0 24 24" fill="none" xmlns="http://www.w3.org/2000/svg">
<g clip-path="url(#clip0_10_633)">
<path d="M4.47656 19.3535H19.5146C21.4219 19.3535 22.415 18.3691 22.415 16.4883V11.5664C22.415 10.582 22.2744 10.1602 21.8174 9.5625L18.9346 5.72168C17.9062 4.35938 17.3701 3.98145 15.7881 3.98145H8.21191C6.62109 3.98145 6.08496 4.35938 5.06543 5.72168L2.17383 9.5625C1.72559 10.1602 1.58496 10.582 1.58496 11.5664V16.4883C1.58496 18.3691 2.57812 19.3535 4.47656 19.3535ZM12 13.9482C10.6641 13.9482 9.8291 12.8848 9.8291 11.7861V11.7158C9.8291 11.3115 9.58301 10.9248 9.08203 10.9248H3.79102C3.46582 10.9248 3.41309 10.6611 3.5625 10.4502L6.77051 6.14355C7.13965 5.63379 7.60547 5.44043 8.20312 5.44043H15.7969C16.3857 5.44043 16.8516 5.63379 17.2295 6.14355L20.4287 10.4502C20.5781 10.6611 20.5254 10.9248 20.2002 10.9248H14.9092C14.4082 10.9248 14.1709 11.3115 14.1709 11.7158V11.7861C14.1709 12.8848 13.3359 13.9482 12 13.9482ZM15.6826 6.75H8.32617C8.08008 6.75 7.89551 6.94336 7.89551 7.18066C7.89551 7.42676 8.08008 7.61133 8.32617 7.61133H15.6826C15.9199 7.61133 16.1045 7.42676 16.1045 7.18066C16.1045 6.94336 15.9199 6.75 15.6826 6.75ZM16.8252 8.70996H7.1748C6.91992 8.70996 6.72656 8.92969 6.72656 9.16699C6.72656 9.41309 6.91992 9.61523 7.1748 9.61523H16.8252C17.0801 9.61523 17.2734 9.41309 17.2734 9.16699C17.2734 8.92969 17.0801 8.70996 16.8252 8.70996Z" fill="#1C1C1E"/>
</g>
<defs>
<clipPath id="clip0_10_633">
<rect width="24" height="24" fill="white"/>
</clipPath>
</defs>
</svg>
