<svg width="24" height="24" viewBox="0 0 24 24" fill="none" xmlns="http://www.w3.org/2000/svg">
<g clip-path="url(#clip0_10_652)">
<path d="M4.47656 19.3535H19.5146C21.4219 19.3535 22.415 18.3691 22.415 16.4883V11.2764C22.415 10.3008 22.2832 9.85254 21.8174 9.27246L18.9346 5.72168C17.8535 4.39453 17.3701 3.98145 15.7881 3.98145H8.21191C6.62109 3.98145 6.14648 4.39453 5.06543 5.72168L2.17383 9.27246C1.7168 9.85254 1.58496 10.3008 1.58496 11.2764V16.4883C1.58496 18.3691 2.57812 19.3535 4.47656 19.3535ZM12 13.2188C10.8135 13.2188 10.0752 12.208 10.0752 11.2588V11.2236C10.0752 10.8809 9.87305 10.5557 9.40723 10.5557H3.76465C3.47461 10.5557 3.41309 10.3096 3.5625 10.125L6.73535 6.14355C7.13086 5.65137 7.5791 5.44043 8.16797 5.44043H15.832C16.4209 5.44043 16.8691 5.65137 17.2559 6.14355L20.4375 10.125C20.5781 10.3096 20.5254 10.5557 20.2354 10.5557H14.584C14.127 10.5557 13.916 10.8809 13.916 11.2236V11.2588C13.916 12.208 13.1777 13.2188 12 13.2188ZM4.56445 17.5957C3.75586 17.5957 3.31641 17.1738 3.31641 16.3301V12.1025H8.58105C8.8623 13.667 10.2246 14.8359 12 14.8359C13.7754 14.8359 15.1377 13.667 15.4189 12.1025H20.6836V16.3301C20.6836 17.1738 20.2354 17.5957 19.4268 17.5957H4.56445Z" fill="#1C1C1E"/>
</g>
<defs>
<clipPath id="clip0_10_652">
<rect width="24" height="24" fill="white"/>
</clipPath>
</defs>
</svg>
