<svg width="24" height="24" viewBox="0 0 24 24" fill="none" xmlns="http://www.w3.org/2000/svg">
<g clip-path="url(#clip0_10_651)">
<path d="M12 12.3223C12.2197 12.3223 12.4131 12.252 12.6328 12.041L15.5771 9.20215C15.7266 9.05273 15.8145 8.89453 15.8145 8.6748C15.8145 8.26172 15.4805 7.97168 15.0762 7.97168C14.874 7.97168 14.6719 8.05078 14.5312 8.20898L13.3008 9.51855L12.7559 10.1689L12.8262 8.85938V1.38867C12.8262 0.949219 12.457 0.580078 12 0.580078C11.5518 0.580078 11.1826 0.949219 11.1826 1.38867V8.85938L11.2441 10.1689L10.6992 9.51855L9.47754 8.20898C9.33691 8.05078 9.12598 7.97168 8.92383 7.97168C8.51953 7.97168 8.19434 8.26172 8.19434 8.6748C8.19434 8.89453 8.27344 9.05273 8.42285 9.20215L11.376 12.041C11.5869 12.252 11.7891 12.3223 12 12.3223ZM4.47656 20.9883H19.5146C21.4219 20.9883 22.415 20.0039 22.415 18.123V13.0869C22.415 12.1992 22.3008 11.7598 21.8965 11.2061L18.9785 7.25977C17.959 5.87109 17.2471 5.20312 15.6387 5.20312H14.4521V6.64453H15.7266C16.3418 6.64453 16.957 7.1543 17.3438 7.67285L20.332 11.8389C20.6309 12.2344 20.5254 12.4014 20.0771 12.4014H14.8301C14.3203 12.4014 14.0918 12.7529 14.0918 13.1309V13.166C14.0918 14.1943 13.292 15.3018 12 15.3018C10.708 15.3018 9.9082 14.1943 9.9082 13.166V13.1309C9.9082 12.7529 9.67969 12.4014 9.16992 12.4014H3.92285C3.46582 12.4014 3.37793 12.208 3.65918 11.8389L6.64746 7.67285C7.04297 7.1543 7.6582 6.64453 8.27344 6.64453H9.54785V5.20312H8.35254C6.74414 5.20312 6.04102 5.87109 5.02148 7.25977L2.09473 11.2061C1.69043 11.7598 1.58496 12.1992 1.58496 13.0869V18.123C1.58496 20.0039 2.57812 20.9883 4.47656 20.9883Z" fill="#1C1C1E"/>
</g>
<defs>
<clipPath id="clip0_10_651">
<rect width="24" height="24" fill="white"/>
</clipPath>
</defs>
</svg>
