<svg width="24" height="24" viewBox="0 0 24 24" fill="none" xmlns="http://www.w3.org/2000/svg">
<g clip-path="url(#clip0_10_648)">
<path d="M12 12.1113C12.2109 12.1113 12.4043 12.041 12.6064 11.8389L15.4629 9.08789C15.6035 8.94727 15.6826 8.78906 15.6826 8.57812C15.6826 8.18262 15.3662 7.89258 14.9795 7.89258C14.7773 7.89258 14.584 7.97168 14.4434 8.12988L13.2656 9.37793L12.7383 10.0107L12.8262 8.69238V2.10059C12.8262 1.66992 12.457 1.29199 12 1.29199C11.5518 1.29199 11.1826 1.66992 11.1826 2.10059V8.69238L11.2705 10.0195L10.7344 9.37793L9.56543 8.12988C9.4248 7.97168 9.22266 7.89258 9.02051 7.89258C8.63379 7.89258 8.31738 8.18262 8.31738 8.57812C8.31738 8.78906 8.39648 8.94727 8.5459 9.08789L11.4023 11.8389C11.6045 12.041 11.7979 12.1113 12 12.1113ZM4.47656 20.9883H19.5146C21.4219 20.9883 22.415 20.0039 22.415 18.123V12.9639C22.415 12.0322 22.3008 11.5312 21.8789 10.9863L18.9785 7.25977C17.9238 5.89746 17.2559 5.20312 15.6475 5.20312H14.4521V6.64453H15.7266C16.3418 6.64453 16.9482 7.1543 17.3525 7.67285L20.3584 11.6279C20.6572 12.0234 20.543 12.1904 20.0947 12.1904H14.584C14.127 12.1904 13.916 12.5156 13.916 12.8584V12.8936C13.916 13.8428 13.1777 14.8535 12 14.8535C10.8135 14.8535 10.0752 13.8428 10.0752 12.8936V12.8584C10.0752 12.5156 9.87305 12.1904 9.40723 12.1904H3.90527C3.44824 12.1904 3.35156 11.9971 3.6416 11.6279L6.64746 7.67285C7.05176 7.1543 7.6582 6.64453 8.27344 6.64453H9.54785V5.20312H8.35254C6.74414 5.20312 6.07617 5.88867 5.02148 7.25977L2.1123 10.9863C1.69922 11.54 1.58496 12.0322 1.58496 12.9639V18.123C1.58496 20.0039 2.57812 20.9883 4.47656 20.9883ZM4.56445 19.2305C3.75586 19.2305 3.31641 18.8086 3.31641 17.9648V13.7373H8.58105C8.8623 15.3018 10.2246 16.4619 12 16.4619C13.7754 16.4619 15.1377 15.3018 15.4189 13.7373H20.6836V17.9648C20.6836 18.8086 20.2354 19.2305 19.4268 19.2305H4.56445Z" fill="#1C1C1E"/>
</g>
<defs>
<clipPath id="clip0_10_648">
<rect width="24" height="24" fill="white"/>
</clipPath>
</defs>
</svg>
