<svg width="24" height="24" viewBox="0 0 24 24" fill="none" xmlns="http://www.w3.org/2000/svg">
<g clip-path="url(#clip0_10_654)">
<path d="M11.9912 20.7598C16.9746 20.7598 21.0879 16.6465 21.0879 11.6631C21.0879 6.68848 16.9658 2.5752 11.9824 2.5752C7.00781 2.5752 2.90332 6.68848 2.90332 11.6631C2.90332 16.6465 7.0166 20.7598 11.9912 20.7598ZM8.18555 15.3457C7.22754 15.3457 6.72656 14.8447 6.72656 13.9043V11.4082C6.72656 10.916 6.79688 10.6963 7.02539 10.4062L8.53711 8.41113C9.09082 7.69043 9.38965 7.49707 10.1895 7.49707H13.8018C14.6016 7.49707 14.8916 7.69043 15.4453 8.41113L16.957 10.4062C17.1943 10.6963 17.2646 10.916 17.2646 11.4082V13.9043C17.2646 14.8447 16.7725 15.3457 15.8057 15.3457H8.18555ZM8.08887 11.0742H10.5586C10.8047 11.0742 10.9277 11.2676 10.9277 11.4521V11.5664C10.9277 12.1816 11.3408 12.5684 11.9912 12.5684C12.6504 12.5684 13.0723 12.1816 13.0723 11.5664V11.4521C13.0723 11.2676 13.1865 11.0742 13.4326 11.0742H15.9023C16.0518 11.0742 16.0869 10.9336 16.0166 10.8457L14.4521 8.78027C14.2939 8.56055 14.1094 8.46387 13.8193 8.46387H10.1807C9.89062 8.46387 9.70605 8.55176 9.53906 8.78027L7.9834 10.8457C7.9043 10.9512 7.93066 11.0742 8.08887 11.0742Z" fill="#1C1C1E"/>
</g>
<defs>
<clipPath id="clip0_10_654">
<rect width="24" height="24" fill="white"/>
</clipPath>
</defs>
</svg>
