<svg width="24" height="24" viewBox="0 0 24 24" fill="none" xmlns="http://www.w3.org/2000/svg">
<g clip-path="url(#clip0_10_634)">
<path d="M4.39746 21.1641C5.42578 21.1641 6.26074 20.3203 6.26074 19.292C6.26074 19.1777 6.25195 19.0635 6.23438 18.9492L8.79199 16.3916L12.2109 16.3828C12.8086 16.3828 13.4414 16.1631 13.8633 15.75L21.1494 8.56934C21.5713 8.14746 21.5537 7.48828 21.1494 7.06641C20.7539 6.65332 20.0684 6.65332 19.6553 7.06641L12.6592 14.0713C12.4395 14.291 12.167 14.4053 11.8594 14.4053H9.58301L9.45117 14.2646V11.7861C9.45117 11.4697 9.57422 11.1973 9.78516 10.9863L16.6758 4.0957C17.0889 3.68262 17.0801 3.01465 16.6846 2.60156C16.2803 2.17969 15.5947 2.17969 15.1816 2.60156L8.00098 9.8877C7.55273 10.3447 7.36816 10.9512 7.35938 11.54V14.8271L4.74023 17.4551C4.62598 17.4287 4.51172 17.4199 4.39746 17.4199C3.36914 17.4199 2.53418 18.2549 2.53418 19.292C2.53418 20.3203 3.36914 21.1641 4.39746 21.1641Z" fill="#1C1C1E"/>
</g>
<defs>
<clipPath id="clip0_10_634">
<rect width="24" height="24" fill="white"/>
</clipPath>
</defs>
</svg>
