<svg width="24" height="24" viewBox="0 0 24 24" fill="none" xmlns="http://www.w3.org/2000/svg">
<g clip-path="url(#clip0_10_426)">
<path d="M4.29199 12.6475C4.63477 12.6475 4.86328 12.4365 5.12695 12.1289C5.58398 11.4697 6.11133 11.0742 6.89355 11.0742C7.67578 11.0742 8.16797 11.4785 8.60742 12.1904C8.79199 12.4541 8.99414 12.6475 9.29297 12.6475C9.5918 12.6475 9.79395 12.4541 9.97852 12.1904C10.2422 11.7686 10.6465 11.4258 11.1035 11.2236V18.3867C11.1035 19.002 10.6729 19.4941 10.0049 19.4941C9.33691 19.4941 8.89746 18.9932 8.89746 18.3779C8.89746 17.7803 8.51953 17.4023 8.01855 17.4023C7.50879 17.4023 7.13086 17.7803 7.13086 18.3867C7.13086 19.9688 8.36133 21.2168 10.0049 21.2168C11.6484 21.2168 12.8789 20.0391 12.8789 18.4131V11.2236C13.3447 11.4258 13.749 11.7686 14.0127 12.1816C14.2061 12.4453 14.3906 12.6475 14.6895 12.6475C14.9883 12.6475 15.1904 12.4541 15.3838 12.1904C15.832 11.4961 16.3242 11.0742 17.0977 11.0742C17.8799 11.0742 18.416 11.5049 18.8643 12.1729C19.1279 12.4805 19.3564 12.6475 19.6992 12.6475C20.1299 12.6475 20.5166 12.2959 20.5166 11.7686C20.5166 8.57812 18.1084 4.0957 12.8789 3.63867V2.55762C12.8789 2.0127 12.501 1.63477 11.9912 1.63477C11.4902 1.63477 11.1123 2.0127 11.1123 2.55762V3.63867C5.87402 4.0957 3.47461 8.57812 3.47461 11.7686C3.47461 12.2959 3.86133 12.6475 4.29199 12.6475Z" fill="#1C1C1E"/>
</g>
<defs>
<clipPath id="clip0_10_426">
<rect width="24" height="24" fill="white"/>
</clipPath>
</defs>
</svg>
