<svg width="24" height="24" viewBox="0 0 24 24" fill="none" xmlns="http://www.w3.org/2000/svg">
<g clip-path="url(#clip0_10_364)">
<path d="M7.31543 21.1816H16.6846C18.5654 21.1816 19.5498 20.1885 19.5498 18.29V5.03613C19.5498 3.12891 18.5742 2.13574 16.6846 2.13574H14.54C14.1973 2.13574 13.9863 2.39062 13.9863 2.72461V2.87402C13.9863 4.02539 13.2041 4.71094 12 4.71094C10.8047 4.71094 10.0137 4.02539 10.0137 2.87402V2.72461C10.0137 2.39062 9.80273 2.13574 9.45996 2.13574H7.31543C5.43457 2.13574 4.4502 3.12891 4.4502 5.03613V18.29C4.4502 20.1885 5.43457 21.1816 7.31543 21.1816ZM8.77441 8.88574C8.44043 8.88574 8.20312 8.63965 8.20312 8.31445C8.20312 7.99805 8.44043 7.76074 8.77441 7.76074H15.2344C15.5508 7.76074 15.7969 7.99805 15.7969 8.31445C15.7969 8.63965 15.5508 8.88574 15.2344 8.88574H8.77441ZM8.77441 11.9971C8.44043 11.9971 8.20312 11.751 8.20312 11.4434C8.20312 11.1182 8.44043 10.8633 8.77441 10.8633H11.9121C12.2285 10.8633 12.4746 11.1182 12.4746 11.4434C12.4746 11.751 12.2285 11.9971 11.9121 11.9971H8.77441Z" fill="#1C1C1E"/>
</g>
<defs>
<clipPath id="clip0_10_364">
<rect width="24" height="24" fill="white"/>
</clipPath>
</defs>
</svg>
