<svg width="24" height="24" viewBox="0 0 24 24" fill="none" xmlns="http://www.w3.org/2000/svg">
<g clip-path="url(#clip0_10_366)">
<path d="M7.31543 21.1816H16.6846C18.5654 21.1816 19.5498 20.1885 19.5498 18.29V5.02734C19.5498 3.12012 18.5742 2.13574 16.6846 2.13574H14.0566C13.7314 2.13574 13.5293 2.33789 13.5293 2.66309C13.5293 3.52441 12.9316 4.18359 12 4.18359C11.0771 4.18359 10.4707 3.52441 10.4707 2.66309C10.4707 2.33789 10.2686 2.13574 9.94336 2.13574H7.31543C5.43457 2.13574 4.4502 3.12012 4.4502 5.02734V18.29C4.4502 20.1885 5.43457 21.1816 7.31543 21.1816ZM7.47363 19.4238C6.62109 19.4238 6.19922 18.9756 6.19922 18.1758V5.1416C6.19922 4.33301 6.62109 3.88477 7.47363 3.88477H9.15234C9.53027 5.09766 10.5938 5.84473 12 5.84473C13.4062 5.84473 14.4697 5.09766 14.8477 3.88477H16.5264C17.3789 3.88477 17.8008 4.33301 17.8008 5.1416V18.1758C17.8008 18.9756 17.3789 19.4238 16.5264 19.4238H7.47363ZM8.80078 8.89453H15.208C15.5244 8.89453 15.7705 8.64844 15.7705 8.32324C15.7705 8.01562 15.5244 7.77832 15.208 7.77832H8.80078C8.4668 7.77832 8.22949 8.01562 8.22949 8.32324C8.22949 8.64844 8.4668 8.89453 8.80078 8.89453ZM8.80078 11.9355H11.9033C12.2285 11.9355 12.4658 11.6895 12.4658 11.3818C12.4658 11.0654 12.2285 10.8193 11.9033 10.8193H8.80078C8.4668 10.8193 8.22949 11.0654 8.22949 11.3818C8.22949 11.6895 8.4668 11.9355 8.80078 11.9355Z" fill="#1C1C1E"/>
</g>
<defs>
<clipPath id="clip0_10_366">
<rect width="24" height="24" fill="white"/>
</clipPath>
</defs>
</svg>
