<svg width="24" height="24" viewBox="0 0 24 24" fill="none" xmlns="http://www.w3.org/2000/svg">
<g clip-path="url(#clip0_10_362)">
<path d="M12.8877 2.83008C12.8877 2.34668 12.4746 1.93359 11.9912 1.93359C11.5078 1.93359 11.1035 2.34668 11.1035 2.83008V5.52832C11.1035 6.01172 11.5078 6.41602 11.9912 6.41602C12.4746 6.41602 12.8877 6.01172 12.8877 5.52832V2.83008ZM15.6738 6.68848C15.3311 7.03125 15.3398 7.60254 15.6826 7.94531C16.0166 8.28809 16.5967 8.28809 16.9395 7.94531L18.8203 6.05566C19.1631 5.72168 19.1631 5.13281 18.8203 4.79004C18.4775 4.45605 17.9062 4.45605 17.5635 4.79883L15.6738 6.68848ZM7.04297 7.94531C7.37695 8.2793 7.95703 8.28809 8.2998 7.94531C8.64258 7.60254 8.64258 7.03125 8.2998 6.68848L6.42773 4.80762C6.09375 4.46484 5.51367 4.45605 5.1709 4.79004C4.82812 5.13281 4.82812 5.71289 5.1709 6.04688L7.04297 7.94531ZM18.9873 20.2939C19.418 20.7334 20.1562 20.7246 20.5781 20.2939C21.0088 19.8457 21 19.1426 20.5781 18.7031L12.2285 10.3096C11.7979 9.87891 11.0596 9.87891 10.6377 10.3096C10.207 10.7578 10.2158 11.4697 10.6377 11.9004L18.9873 20.2939ZM3.20215 10.7314C2.70996 10.7314 2.30566 11.1357 2.30566 11.6191C2.30566 12.1025 2.70996 12.5156 3.20215 12.5156H5.90039C6.38379 12.5156 6.79688 12.1025 6.79688 11.6191C6.79688 11.1357 6.38379 10.7314 5.90039 10.7314H3.20215ZM20.7891 12.5156C21.2725 12.5156 21.6855 12.1025 21.6855 11.6191C21.6855 11.1357 21.2725 10.7314 20.7891 10.7314H18.0908C17.6074 10.7314 17.1943 11.1357 17.1943 11.6191C17.1943 12.1025 17.6074 12.5156 18.0908 12.5156H20.7891ZM19.4004 19.582L14.4434 14.6162L14.9443 14.1152L19.9102 19.0898C20.0859 19.2656 20.1475 19.4766 19.9717 19.6611C19.7959 19.8193 19.5938 19.7754 19.4004 19.582ZM5.16211 17.1738C4.81934 17.5166 4.81934 18.0879 5.14453 18.4307C5.4873 18.7734 6.07617 18.7822 6.41016 18.4482L8.2998 16.5674C8.64258 16.2246 8.64258 15.6445 8.2998 15.3105C7.96582 14.9678 7.38574 14.959 7.04297 15.3018L5.16211 17.1738ZM12.8877 17.7188C12.8877 17.2354 12.4746 16.8223 11.9912 16.8223C11.5078 16.8223 11.1035 17.2354 11.1035 17.7188V20.417C11.1035 20.9004 11.5078 21.3135 11.9912 21.3135C12.4746 21.3135 12.8877 20.9004 12.8877 20.417V17.7188Z" fill="#1C1C1E"/>
</g>
<defs>
<clipPath id="clip0_10_362">
<rect width="24" height="24" fill="white"/>
</clipPath>
</defs>
</svg>
