<svg width="24" height="24" viewBox="0 0 24 24" fill="none" xmlns="http://www.w3.org/2000/svg">
<g clip-path="url(#clip0_10_589)">
<path d="M2.97363 21.0674C4.53809 22.6143 6.65625 22.6055 8.15918 21.085C9.5127 19.7227 9.89941 18.0527 12.1055 15.1436L15.6387 18.6592L15.7529 19.4326C15.8057 19.7754 16.0254 20.083 16.3066 20.2764L19.0928 22.1484C19.4092 22.3594 19.7256 22.3594 19.9541 22.1309L21.6328 20.4521C21.8525 20.2236 21.835 19.8984 21.6328 19.5908L19.7783 16.8135C19.5762 16.5146 19.2686 16.3125 18.9258 16.2598L18.1611 16.1455L14.4258 12.4102C14.751 12.0674 15.0938 11.707 15.4717 11.3291C17.3613 12.1641 19.6113 11.8477 21.1055 10.3447C22.749 8.70996 23.0039 6.1084 21.7207 4.05176L20.7188 5.05371V5.0625L19.3037 6.45996C19.084 6.68848 18.8115 6.69727 18.583 6.45996L17.5986 5.47559C17.3525 5.22949 17.3438 4.95703 17.5635 4.7373L18.9697 3.33105L19.9805 2.3291C17.9326 1.0459 15.3398 1.29199 13.6963 2.93555C12.4043 4.23633 11.9824 6.08203 12.4307 7.77832L7.61426 2.94434C6.31348 1.64355 4.91602 1.63477 3.6416 2.90918L2.40234 4.15723C1.12793 5.42285 1.13672 6.82031 2.4375 8.12109L7.35059 13.0342C5.34668 14.335 4.06348 14.7832 2.95605 15.873C1.43555 17.3848 1.42676 19.4941 2.97363 21.0674ZM16.5352 6.24023L17.8096 7.50586C18.4688 8.16504 19.3125 8.18262 19.9365 7.55859L21.123 6.36328C21.2725 7.4707 20.9297 8.57812 20.1299 9.37793C18.6973 10.8105 16.3242 10.7402 14.8037 9.2373C13.292 7.72559 13.2305 5.33496 14.6719 3.91113C15.4629 3.12012 16.5703 2.77734 17.6689 2.91797L16.4824 4.0957C15.832 4.74609 15.8584 5.58105 16.5352 6.24023ZM3.37793 7.04004C2.7627 6.4248 2.77148 5.80957 3.36914 5.20312L4.6875 3.86719C5.29395 3.26074 5.91797 3.26953 6.5332 3.88477L11.9561 9.30762C10.6377 10.5645 9.50391 11.4961 8.51953 12.2168L3.37793 7.04004ZM8.73926 8.70117C8.88867 8.86816 9.16113 8.85059 9.30176 8.70996C9.46875 8.54297 9.46875 8.28809 9.31055 8.12988L6.11133 4.93945C5.95312 4.78125 5.70703 4.79004 5.55762 4.93945C5.39941 5.09766 5.39941 5.34375 5.55762 5.50195L8.73926 8.70117ZM7.62305 9.80859C7.78125 9.97559 8.03613 9.9668 8.19434 9.80859C8.34375 9.65918 8.35254 9.41309 8.19434 9.25488L4.99512 6.05566C4.85449 5.90625 4.59082 5.90625 4.43262 6.05566C4.27441 6.21387 4.26562 6.47754 4.42383 6.62695L7.62305 9.80859ZM13.8281 10.2041C13.9863 10.3535 14.1445 10.5029 14.3115 10.626C8.53711 16.5674 9.13477 18.0527 7.13086 20.0654C6.2168 20.9883 4.96875 21.0234 3.99316 20.0566C3.01758 19.0635 3.06152 17.8242 3.97559 16.9102C5.98828 14.9062 7.46484 15.5039 13.4062 9.72949C13.5381 9.89648 13.6787 10.0547 13.8281 10.2041ZM17.2383 19.0371L17.0537 18.0527L13.0107 14.0098C13.1514 13.834 13.3008 13.667 13.459 13.4824L17.5459 17.5693L18.5303 17.7363L20.1475 19.8809L19.374 20.6543L17.2383 19.0371ZM5.54004 19.5645C6.11133 19.5645 6.57715 19.0986 6.57715 18.5186C6.57715 17.9473 6.11133 17.4814 5.54004 17.4814C4.96875 17.4814 4.49414 17.9473 4.49414 18.5186C4.49414 19.0986 4.96875 19.5645 5.54004 19.5645Z" fill="#1C1C1E"/>
</g>
<defs>
<clipPath id="clip0_10_589">
<rect width="24" height="24" fill="white"/>
</clipPath>
</defs>
</svg>
