<svg width="24" height="24" viewBox="0 0 24 24" fill="none" xmlns="http://www.w3.org/2000/svg">
<g clip-path="url(#clip0_10_675)">
<path d="M2.70117 21.1641C4.22168 22.6846 6.43652 22.7109 7.97461 20.9619C9.5918 19.125 11.4199 15.6709 13.9512 13.1396C15.8145 11.2852 17.9238 13.0166 20.5869 10.7139C21.8965 9.68555 22.6699 7.98926 22.3623 6.60938L18.8643 7.56738C18.3545 7.69922 18.0029 7.38281 17.8535 6.84668L17.5898 5.9502C17.4404 5.41406 17.625 4.96582 18.126 4.83398L21.6328 3.88477C21.5186 3.51562 21.2109 3.00586 20.7979 2.5752C18.7061 0.439453 15.1992 0.439453 13.1514 2.39062C10.1104 5.27344 12.3516 8.24414 10.4971 10.0986C8.17676 12.4102 4.73145 14.2734 2.88574 15.8906C1.14551 17.4199 1.17188 19.6436 2.70117 21.1641ZM3.69434 20.1709C2.77148 19.2217 2.77148 17.8242 3.87012 16.8662C5.69824 15.2666 9.38086 13.21 11.499 11.0918C13.8281 8.7627 11.3848 5.94141 14.1621 3.38379C15.5068 2.13574 17.792 2.02148 19.3916 3.1377L17.8008 3.55957C16.4561 3.90234 15.8672 4.94824 16.2715 6.33691L16.5264 7.19824L17.4756 10.7051C15.9814 10.8984 14.417 10.6787 12.9492 12.1377C10.6289 14.4492 8.59863 18.1582 6.99902 19.9951C6.02344 21.1113 4.61719 21.1113 3.69434 20.1709ZM13.7578 7.86621L15.6123 7.37402C15.7793 7.33008 15.876 7.16309 15.8232 6.9873C15.7793 6.82031 15.6123 6.72363 15.4541 6.76758L13.582 7.26855C13.415 7.3125 13.3271 7.48828 13.3623 7.64648C13.415 7.82227 13.5732 7.91895 13.7578 7.86621ZM13.9863 8.82422L15.8408 8.32324C16.0078 8.28809 16.1045 8.12109 16.0518 7.93652C16.0078 7.76953 15.8408 7.68164 15.6826 7.7168L13.8105 8.21777C13.6436 8.26172 13.5557 8.4375 13.5996 8.5957C13.6436 8.78027 13.8018 8.86816 13.9863 8.82422ZM19.1016 8.85059L20.7891 8.39355C20.5869 8.81543 20.3145 9.21973 19.9453 9.58008C19.4531 10.0635 18.9434 10.3359 18.416 10.5029L17.9854 8.91211C18.3193 8.98242 18.6885 8.96484 19.1016 8.85059ZM14.2148 9.77344L16.0869 9.27246C16.2451 9.22852 16.3506 9.05273 16.3066 8.87695C16.2627 8.71875 16.0957 8.62207 15.9199 8.6748L14.0566 9.17578C13.8896 9.21973 13.8018 9.37793 13.8281 9.54492C13.8633 9.72949 14.0479 9.81738 14.2148 9.77344ZM5.30273 19.6084C5.88281 19.6084 6.33984 19.1426 6.33984 18.5625C6.33984 17.9912 5.88281 17.5254 5.30273 17.5254C4.73145 17.5254 4.26562 17.9912 4.26562 18.5625C4.26562 19.1426 4.73145 19.6084 5.30273 19.6084Z" fill="#1C1C1E"/>
</g>
<defs>
<clipPath id="clip0_10_675">
<rect width="24" height="24" fill="white"/>
</clipPath>
</defs>
</svg>
