<svg width="24" height="24" viewBox="0 0 24 24" fill="none" xmlns="http://www.w3.org/2000/svg">
<g clip-path="url(#clip0_10_586)">
<path d="M2.97363 21.0674C4.53809 22.6143 6.65625 22.6055 8.15918 21.085C9.54785 19.6875 9.91699 17.9736 12.2812 14.9238L15.9902 18.6328L16.043 19.5029C16.0605 19.8018 16.2627 20.1182 16.5703 20.2939L19.4619 21.9287C19.752 22.0869 20.0068 22.1221 20.2178 21.9111L21.4131 20.7158C21.6064 20.5137 21.5801 20.25 21.4131 19.9512L19.7871 17.0771C19.6201 16.7695 19.3037 16.5674 18.9873 16.5498L18.1172 16.4971L14.2324 12.6211C14.6104 12.208 15.0234 11.7773 15.4717 11.3291C17.3613 12.1641 19.6113 11.8477 21.1055 10.3447C22.749 8.70996 23.0039 6.1084 21.7207 4.05176L20.7188 5.05371V5.0625L19.3037 6.45996C19.084 6.68848 18.8115 6.69727 18.583 6.45996L17.5986 5.47559C17.3525 5.22949 17.3438 4.95703 17.5635 4.7373L18.9697 3.33105L19.9805 2.3291C17.9326 1.0459 15.3398 1.29199 13.6963 2.93555C12.4043 4.23633 11.9824 6.08203 12.4307 7.77832L7.61426 2.94434C6.31348 1.64355 4.91602 1.63477 3.6416 2.90918L2.40234 4.15723C1.12793 5.42285 1.13672 6.82031 2.4375 8.12109L7.35059 13.0342C5.34668 14.335 4.06348 14.7832 2.95605 15.873C1.43555 17.3848 1.42676 19.4941 2.97363 21.0674ZM16.5352 6.24023L17.8096 7.50586C18.4688 8.16504 19.3125 8.18262 19.9365 7.55859L21.123 6.36328C21.2725 7.4707 20.9297 8.57812 20.1299 9.37793C18.6973 10.8105 16.3242 10.7402 14.8037 9.2373C13.292 7.72559 13.2305 5.33496 14.6719 3.91113C15.4629 3.12012 16.5703 2.77734 17.6689 2.91797L16.4824 4.0957C15.832 4.74609 15.8584 5.58105 16.5352 6.24023ZM8.84473 8.7627L5.49609 5.3877C5.33789 5.22949 5.3291 4.97461 5.49609 4.80762C5.6543 4.64941 5.91797 4.64062 6.08496 4.80762L9.44238 8.16504C9.60938 8.32324 9.60938 8.5957 9.43359 8.77148C9.29297 8.91211 9.01172 8.93848 8.84473 8.7627ZM7.6582 9.94043L4.29199 6.60059C4.125 6.4248 4.14258 6.16113 4.30078 5.99414C4.45898 5.83594 4.73145 5.84473 4.88086 5.99414L8.25586 9.36035C8.42285 9.53613 8.41406 9.78223 8.25586 9.94043C8.08887 10.1074 7.8252 10.1162 7.6582 9.94043ZM13.8281 10.2041C13.9863 10.3535 14.1445 10.5029 14.3115 10.626C8.53711 16.5674 9.13477 18.0527 7.13086 20.0654C6.2168 20.9883 4.96875 21.0234 3.99316 20.0566C3.01758 19.0635 3.06152 17.8242 3.97559 16.9102C5.98828 14.9062 7.46484 15.5039 13.4062 9.72949C13.5381 9.89648 13.6787 10.0547 13.8281 10.2041ZM5.54004 19.5645C6.11133 19.5645 6.57715 19.0986 6.57715 18.5186C6.57715 17.9473 6.11133 17.4814 5.54004 17.4814C4.96875 17.4814 4.49414 17.9473 4.49414 18.5186C4.49414 19.0986 4.96875 19.5645 5.54004 19.5645Z" fill="#1C1C1E"/>
</g>
<defs>
<clipPath id="clip0_10_586">
<rect width="24" height="24" fill="white"/>
</clipPath>
</defs>
</svg>
