<svg width="24" height="24" viewBox="0 0 24 24" fill="none" xmlns="http://www.w3.org/2000/svg">
<g clip-path="url(#clip0_10_617)">
<path d="M2.70117 21.1729C4.22168 22.6934 6.47168 22.7461 7.96582 20.9795C9.14355 19.5908 11.6221 15.4775 13.9512 13.1484C15.4365 11.6631 17.0889 12.4805 18.8994 11.751L17.3965 6.23145C17.2119 5.57227 17.4844 5.02734 18.2314 4.81641L21.6328 3.88477C21.5098 3.52441 21.2021 3.01465 20.7891 2.58398C18.6973 0.448242 15.2256 0.395508 13.1426 2.38184C10.1104 5.26465 12.3516 8.23535 10.4971 10.0898C8.08008 12.5068 4.71387 14.2734 2.88574 15.8994C1.1543 17.4463 1.16309 19.6436 2.70117 21.1729ZM19.9629 11.2412C20.2881 11.0303 20.6309 10.7578 20.9736 10.4326C22.0723 9.37793 22.6172 7.82227 22.3535 6.61816L19.6729 7.36523C19.4004 7.44434 19.1719 7.46191 18.917 7.42676L19.9629 11.2412ZM13.626 7.86621C13.4326 7.91895 13.2656 7.82227 13.2041 7.61133C13.1514 7.45312 13.2568 7.25977 13.4414 7.20703L15.4717 6.66211C15.6387 6.61816 15.8232 6.72363 15.876 6.9082C15.9463 7.10156 15.8232 7.27734 15.6387 7.33008L13.626 7.86621ZM13.8809 8.89453C13.6875 8.94727 13.5205 8.85059 13.459 8.63965C13.4062 8.48145 13.5117 8.28809 13.6963 8.24414L15.7266 7.69043C15.8936 7.65527 16.0781 7.75195 16.1309 7.93652C16.1924 8.13867 16.0781 8.31445 15.8936 8.36719L13.8809 8.89453ZM14.1357 9.93164C13.9512 9.97559 13.7578 9.87891 13.7227 9.67676C13.6787 9.49219 13.7842 9.3252 13.96 9.27246L15.9814 8.73633C16.1748 8.6748 16.3594 8.78906 16.4033 8.96484C16.4473 9.14941 16.333 9.33398 16.166 9.37793L14.1357 9.93164ZM5.30273 19.6172C4.72266 19.6172 4.24805 19.1426 4.24805 18.5625C4.24805 17.9912 4.72266 17.5166 5.30273 17.5166C5.88281 17.5166 6.35742 17.9912 6.35742 18.5625C6.35742 19.1426 5.88281 19.6172 5.30273 19.6172Z" fill="#1C1C1E"/>
</g>
<defs>
<clipPath id="clip0_10_617">
<rect width="24" height="24" fill="white"/>
</clipPath>
</defs>
</svg>
