<svg width="24" height="24" viewBox="0 0 24 24" fill="none" xmlns="http://www.w3.org/2000/svg">
<g clip-path="url(#clip0_10_730)">
<path d="M11.9561 20.8125C12.1143 20.8125 12.3516 20.7598 12.5801 20.6367C17.6338 17.8857 19.3916 16.6113 19.3916 13.4121V6.77637C19.3916 5.72168 18.9873 5.34375 18.0996 4.96582C17.1328 4.55273 13.8457 3.41016 12.8965 3.08496C12.5977 2.98828 12.2637 2.92676 11.9561 2.92676C11.6572 2.92676 11.3145 3.00586 11.0244 3.08496C10.0752 3.35742 6.78809 4.56152 5.82129 4.96582C4.93359 5.33496 4.5293 5.72168 4.5293 6.77637V13.4121C4.5293 16.6113 6.28711 17.8682 11.3408 20.6367C11.5693 20.7598 11.8066 20.8125 11.9561 20.8125ZM11.9561 18.9492C11.833 18.9492 11.71 18.9053 11.4551 18.7471C7.44727 16.3037 6.19922 15.6445 6.19922 13.0869V7.05762C6.19922 6.74121 6.26074 6.61816 6.50684 6.5127C7.80762 5.99414 10.3301 5.15918 11.4902 4.70215C11.6924 4.63184 11.833 4.60547 11.9561 4.60547C12.0879 4.60547 12.2285 4.63184 12.4307 4.70215C13.5908 5.15918 16.0957 6.04688 17.4053 6.5127C17.6602 6.60938 17.7217 6.74121 17.7217 7.05762V13.0869C17.7217 15.6621 16.4209 16.3564 12.4658 18.7471C12.2109 18.9053 12.0879 18.9492 11.9561 18.9492ZM9.08203 15.0908C9.31055 15.0908 9.5127 15.0117 9.66211 14.8535L11.9648 12.5508L14.2676 14.8535C14.417 15.0029 14.6104 15.0908 14.8477 15.0908C15.2959 15.0908 15.6475 14.7305 15.6475 14.2822C15.6475 14.0625 15.5596 13.8779 15.4102 13.7197L13.0986 11.417L15.4102 9.08789C15.5771 8.92969 15.6562 8.74512 15.6562 8.53418C15.6562 8.08594 15.3047 7.73438 14.8564 7.73438C14.6367 7.73438 14.4521 7.81348 14.2852 7.98047L11.9648 10.292L9.64453 7.98926C9.49512 7.82227 9.31055 7.75195 9.08203 7.75195C8.63379 7.75195 8.28223 8.09473 8.28223 8.54297C8.28223 8.75391 8.37012 8.94727 8.51953 9.09668L10.8311 11.417L8.51953 13.7285C8.37012 13.8779 8.28223 14.0713 8.28223 14.2822C8.28223 14.7305 8.63379 15.0908 9.08203 15.0908Z" fill="#1C1C1E"/>
</g>
<defs>
<clipPath id="clip0_10_730">
<rect width="24" height="24" fill="white"/>
</clipPath>
</defs>
</svg>
