<svg width="24" height="24" viewBox="0 0 24 24" fill="none" xmlns="http://www.w3.org/2000/svg">
<g clip-path="url(#clip0_10_735)">
<path d="M11.9561 20.5928C12.1143 20.5928 12.3428 20.5312 12.5713 20.417C17.6074 17.8242 19.2773 16.4619 19.2773 13.3066V6.77637C19.2773 5.73926 18.873 5.36133 18.0029 5.00098C17.0361 4.59668 13.8193 3.46289 12.8789 3.14648C12.5889 3.05859 12.2637 2.99707 11.9561 2.99707C11.6572 2.99707 11.332 3.05859 11.042 3.14648C10.0928 3.44531 6.87598 4.60547 5.91797 5.00098C5.04785 5.35254 4.64355 5.73926 4.64355 6.77637V13.3066C4.64355 16.4619 6.38379 17.7012 11.3496 20.417C11.5781 20.54 11.8066 20.5928 11.9561 20.5928ZM8.96777 15.2402C8.50195 15.2402 8.13281 14.8623 8.13281 14.3965C8.13281 14.1768 8.2207 13.9658 8.3877 13.8076L10.7783 11.417L8.3877 9.01758C8.2207 8.85938 8.13281 8.65723 8.13281 8.4375C8.13281 7.96289 8.50195 7.60254 8.96777 7.60254C9.21387 7.60254 9.40723 7.68164 9.56543 7.84863L11.9648 10.2393L14.373 7.83984C14.5488 7.66406 14.7334 7.59375 14.9707 7.59375C15.4365 7.59375 15.8057 7.9541 15.8057 8.41992C15.8057 8.64844 15.7178 8.8418 15.5508 9.00879L13.1602 11.417L15.5508 13.7988C15.709 13.9658 15.7969 14.168 15.7969 14.3965C15.7969 14.8623 15.4277 15.2402 14.9531 15.2402C14.7158 15.2402 14.5137 15.1436 14.3467 14.9941L11.9648 12.6035L9.58301 14.9941C9.4248 15.1523 9.21387 15.2402 8.96777 15.2402Z" fill="#1C1C1E"/>
</g>
<defs>
<clipPath id="clip0_10_735">
<rect width="24" height="24" fill="white"/>
</clipPath>
</defs>
</svg>
