<svg width="24" height="24" viewBox="0 0 24 24" fill="none" xmlns="http://www.w3.org/2000/svg">
<g clip-path="url(#clip0_10_559)">
<path d="M11.9912 20.7773C16.9746 20.7773 21.0879 16.6641 21.0879 11.6895C21.0879 6.71484 16.9658 2.60156 11.9824 2.60156C7.00781 2.60156 2.90332 6.71484 2.90332 11.6895C2.90332 16.6641 7.0166 20.7773 11.9912 20.7773ZM11.9912 18.958C7.95703 18.958 4.73145 15.7236 4.73145 11.6895C4.73145 7.65527 7.95703 4.41211 11.9824 4.41211C16.0166 4.41211 19.2598 7.65527 19.2686 11.6895C19.2773 15.7236 16.0254 18.958 11.9912 18.958ZM7.33301 10.2568H16.6406C17.1592 10.2568 17.4316 9.94922 17.4316 9.43945V8.96484C17.4316 8.45508 17.1592 8.14746 16.6406 8.14746H7.33301C6.84082 8.14746 6.54199 8.45508 6.54199 8.96484V9.43945C6.54199 9.94922 6.82324 10.2568 7.33301 10.2568ZM9.61816 16.4795H14.3555C15.2695 16.4795 15.6475 15.9873 15.7793 15.082L16.3857 10.96H7.58789L8.19434 15.082C8.32617 15.9873 8.7041 16.4795 9.61816 16.4795ZM10.7344 15.2842C10.5059 15.2842 10.3301 15.0996 10.3301 14.8887C10.3301 14.7744 10.3828 14.6865 10.4531 14.6162L11.4287 13.6318L10.4531 12.6562C10.374 12.5771 10.3301 12.4893 10.3301 12.375C10.3301 12.1641 10.5059 11.9883 10.7344 11.9883C10.8398 11.9883 10.9277 12.0234 10.998 12.1025L11.9824 13.0869L12.9756 12.1025C13.0547 12.0234 13.1338 11.9795 13.2393 11.9795C13.4678 11.9795 13.6436 12.1553 13.6436 12.375C13.6436 12.4805 13.6084 12.5684 13.5205 12.6562L12.5449 13.6318L13.5205 14.6162C13.5908 14.6865 13.6348 14.7744 13.6348 14.8887C13.6348 15.0996 13.459 15.2842 13.2393 15.2842C13.1338 15.2842 13.0459 15.2314 12.9668 15.1699L11.9824 14.1855L11.0068 15.1699C10.9365 15.2402 10.8398 15.2842 10.7344 15.2842Z" fill="#1C1C1E"/>
</g>
<defs>
<clipPath id="clip0_10_559">
<rect width="24" height="24" fill="white"/>
</clipPath>
</defs>
</svg>
