<svg width="24" height="24" viewBox="0 0 24 24" fill="none" xmlns="http://www.w3.org/2000/svg">
<g clip-path="url(#clip0_10_339)">
<path d="M2.85059 7.62012H21.1494C22.1514 7.62012 22.6963 7.02246 22.6963 6.00293V5.07129C22.6963 4.05176 22.1514 3.4541 21.1494 3.4541H2.85059C1.88379 3.4541 1.29492 4.05176 1.29492 5.07129V6.00293C1.29492 7.02246 1.83984 7.62012 2.85059 7.62012ZM7.32422 19.8809H16.667C18.4775 19.8809 19.2158 18.8965 19.4971 17.1035L20.7451 8.91211H3.25488L4.49414 17.1035C4.77539 18.9053 5.51367 19.8809 7.32422 19.8809ZM9.53906 17.2266C9.1084 17.2266 8.76562 16.875 8.76562 16.4443C8.76562 16.2334 8.85352 16.0576 9.00293 15.9082L10.9014 13.9922L9.00293 12.085C8.85352 11.9355 8.76562 11.7598 8.76562 11.54C8.76562 11.1182 9.11719 10.7754 9.53906 10.7754C9.75 10.7754 9.91699 10.8545 10.0752 11.0039L11.9912 12.9199L13.916 11.0039C14.083 10.8457 14.25 10.7666 14.4521 10.7666C14.8828 10.7666 15.2256 11.1094 15.2256 11.54C15.2256 11.7598 15.1465 11.918 14.9971 12.0762L13.0811 13.9922L14.9883 15.8994C15.1377 16.0576 15.2256 16.2246 15.2256 16.4443C15.2256 16.875 14.874 17.2266 14.4521 17.2266C14.2236 17.2266 14.0566 17.1299 13.9072 16.9893L11.9912 15.082L10.084 16.9893C9.93457 17.1387 9.75 17.2266 9.53906 17.2266Z" fill="#1C1C1E"/>
</g>
<defs>
<clipPath id="clip0_10_339">
<rect width="24" height="24" fill="white"/>
</clipPath>
</defs>
</svg>
