<svg width="24" height="24" viewBox="0 0 24 24" fill="none" xmlns="http://www.w3.org/2000/svg">
<g clip-path="url(#clip0_10_344)">
<path d="M11.9912 20.7598C16.9746 20.7598 21.0879 16.6465 21.0879 11.6631C21.0879 6.68848 16.9658 2.5752 11.9824 2.5752C7.00781 2.5752 2.90332 6.68848 2.90332 11.6631C2.90332 16.6465 7.0166 20.7598 11.9912 20.7598ZM7.14844 10.1426C6.6123 10.1426 6.32227 9.82617 6.32227 9.29004V8.80664C6.32227 8.27051 6.63867 7.9541 7.14844 7.9541H16.8252C17.3613 7.9541 17.6514 8.27051 17.6514 8.80664V9.29004C17.6514 9.82617 17.3613 10.1426 16.8252 10.1426H7.14844ZM9.52148 16.6113C8.57227 16.6113 8.18555 16.1104 8.04492 15.1611L7.41211 10.8896H16.5615L15.9287 15.1611C15.7881 16.1016 15.4014 16.6113 14.4521 16.6113H9.52148ZM10.6816 15.3721C10.7959 15.3721 10.8926 15.3281 10.9717 15.2578L11.9824 14.2383L13.002 15.2578C13.0811 15.3193 13.1689 15.3721 13.292 15.3721C13.5117 15.3721 13.6963 15.1787 13.6963 14.9678C13.6963 14.8447 13.6523 14.7568 13.582 14.6777L12.5713 13.6582L13.582 12.6475C13.6699 12.5596 13.7051 12.4717 13.7051 12.3574C13.7051 12.1201 13.5205 11.9443 13.292 11.9443C13.1777 11.9443 13.0898 11.9971 13.0107 12.0674L11.9824 13.0869L10.9629 12.0674C10.8838 11.9971 10.7959 11.9531 10.6816 11.9531C10.4531 11.9531 10.2686 12.1289 10.2686 12.3574C10.2686 12.4805 10.3125 12.5684 10.3916 12.6475L11.4023 13.6582L10.3916 14.6777C10.3213 14.7568 10.2686 14.8447 10.2686 14.9678C10.2686 15.1787 10.4531 15.3721 10.6816 15.3721Z" fill="#1C1C1E"/>
</g>
<defs>
<clipPath id="clip0_10_344">
<rect width="24" height="24" fill="white"/>
</clipPath>
</defs>
</svg>
