<svg width="24" height="24" viewBox="0 0 24 24" fill="none" xmlns="http://www.w3.org/2000/svg">
<g clip-path="url(#clip0_10_568)">
<path d="M7.32422 19.8809H16.667C18.4775 19.8809 19.2861 18.9756 19.5586 17.1738L20.8418 8.66602H20.8682C22.0723 8.66602 22.7754 7.89258 22.7754 6.69727V5.42285C22.7754 4.22754 22.0723 3.4541 20.8682 3.4541H3.13184C1.97168 3.4541 1.22461 4.22754 1.22461 5.42285V6.69727C1.22461 7.89258 1.92773 8.66602 3.13184 8.66602H3.14941L4.43262 17.1738C4.71387 18.9844 5.51367 19.8809 7.32422 19.8809ZM3.46582 7.0752C3.06152 7.0752 2.88574 6.89062 2.88574 6.49512V5.625C2.88574 5.2207 3.06152 5.04492 3.46582 5.04492H20.543C20.9385 5.04492 21.1055 5.2207 21.1055 5.625V6.49512C21.1055 6.89062 20.9385 7.0752 20.543 7.0752H3.46582ZM7.4209 18.2021C6.68262 18.2021 6.27832 17.877 6.15527 17.0596L4.87207 8.66602H19.1191L17.8359 17.0596C17.7129 17.877 17.3086 18.2021 16.5791 18.2021H7.4209ZM9.56543 16.5674C9.76758 16.5674 9.94336 16.4883 10.084 16.3389L11.9912 14.4316L13.8984 16.3389C14.0479 16.4795 14.2148 16.5674 14.4346 16.5674C14.8389 16.5674 15.1816 16.2246 15.1816 15.8115C15.1816 15.5918 15.0938 15.4336 14.9531 15.2842L13.0547 13.3857L14.9531 11.4697C15.1113 11.3115 15.1904 11.1533 15.1904 10.9512C15.1904 10.5293 14.8477 10.1953 14.4346 10.1953C14.2324 10.1953 14.0742 10.2744 13.916 10.4238L11.9912 12.3398L10.084 10.4326C9.92578 10.2832 9.76758 10.2041 9.56543 10.2041C9.15234 10.2041 8.80957 10.5381 8.80957 10.9512C8.80957 11.1621 8.88867 11.3291 9.03809 11.4785L10.9365 13.3857L9.03809 15.2842C8.89746 15.4336 8.80957 15.6006 8.80957 15.8115C8.80957 16.2246 9.14355 16.5674 9.56543 16.5674Z" fill="#1C1C1E"/>
</g>
<defs>
<clipPath id="clip0_10_568">
<rect width="24" height="24" fill="white"/>
</clipPath>
</defs>
</svg>
