<svg width="24" height="24" viewBox="0 0 24 24" fill="none" xmlns="http://www.w3.org/2000/svg">
<g clip-path="url(#clip0_10_1594)">
<path d="M6.67383 19.7578H17.3174C19.2246 19.7578 20.209 18.7734 20.209 16.8926V6.19629C20.209 4.31543 19.2246 3.33105 17.3174 3.33105H6.67383C4.77539 3.33105 3.78223 4.30664 3.78223 6.19629V16.8926C3.78223 18.7734 4.77539 19.7578 6.67383 19.7578ZM13.248 6.8291C15.4541 6.8291 16.8428 8.40234 16.8428 10.5645V11.8389C16.8428 12.2871 16.5791 12.6211 16.1133 12.6211C15.665 12.6211 15.4014 12.2871 15.4014 11.8477V10.5645C15.4014 9.25488 14.5488 8.31445 13.1865 8.31445C11.8506 8.31445 11.0947 9.27246 11.0947 10.5645V13.2539L11.0508 14.2295L11.4287 13.7021L12.4307 12.6211C12.5625 12.4717 12.7471 12.4014 12.9316 12.4014C13.3359 12.4014 13.6436 12.7178 13.6436 13.0957C13.6436 13.2979 13.582 13.4648 13.4414 13.5967L10.9541 16.0488C10.7959 16.1982 10.6025 16.2949 10.3828 16.2949C10.1719 16.2949 9.96973 16.1982 9.81152 16.0488L7.3418 13.6055C7.19238 13.4736 7.13086 13.3066 7.13086 13.1133C7.13086 12.7266 7.44727 12.4102 7.84277 12.4102C8.03613 12.4102 8.21191 12.4893 8.33496 12.6299L9.21387 13.5439L9.74121 14.2295L9.70605 13.2539V10.5645C9.70605 8.40234 11.0508 6.8291 13.248 6.8291Z" fill="#1C1C1E"/>
</g>
<defs>
<clipPath id="clip0_10_1594">
<rect width="24" height="24" fill="white"/>
</clipPath>
</defs>
</svg>
