<svg width="24" height="24" viewBox="0 0 24 24" fill="none" xmlns="http://www.w3.org/2000/svg">
<g clip-path="url(#clip0_10_1589)">
<path d="M11.9912 20.7422C16.9746 20.7422 21.0879 16.6289 21.0879 11.6543C21.0879 6.67969 16.9658 2.56641 11.9824 2.56641C7.00781 2.56641 2.90332 6.67969 2.90332 11.6543C2.90332 16.6289 7.0166 20.7422 11.9912 20.7422ZM17.5898 11.6631C17.5898 11.9004 17.4932 12.0762 17.291 12.2783L14.7598 14.792C14.6191 14.9414 14.4346 15.0029 14.2324 15.0029C13.8281 15.0029 13.5293 14.6953 13.5293 14.2822C13.5293 14.0625 13.6348 13.8779 13.7754 13.7373L14.3379 13.1836L15.3574 12.3574L13.5205 12.4365H10.4443L8.60742 12.3574L9.62695 13.1836L10.1895 13.7373C10.3301 13.8779 10.4355 14.0625 10.4355 14.2822C10.4355 14.6953 10.1367 15.0029 9.73242 15.0029C9.53027 15.0029 9.3457 14.9414 9.20508 14.792L6.67383 12.2783C6.48047 12.0762 6.375 11.9004 6.375 11.6631C6.375 11.417 6.48047 11.2236 6.67383 11.0391L9.20508 8.52539C9.3457 8.38477 9.53027 8.30566 9.73242 8.30566C10.1367 8.30566 10.4355 8.62207 10.4355 9.03516C10.4355 9.26367 10.3301 9.43945 10.1895 9.58008L9.62695 10.125L8.59863 10.9688L10.4443 10.8809H13.5205L15.3662 10.9688L14.3379 10.125L13.7754 9.58008C13.6348 9.43945 13.5293 9.26367 13.5293 9.03516C13.5293 8.62207 13.8281 8.30566 14.2324 8.30566C14.4346 8.30566 14.6191 8.38477 14.7598 8.52539L17.291 11.0391C17.4932 11.2236 17.5898 11.417 17.5898 11.6631Z" fill="#1C1C1E"/>
</g>
<defs>
<clipPath id="clip0_10_1589">
<rect width="24" height="24" fill="white"/>
</clipPath>
</defs>
</svg>
