<svg width="24" height="24" viewBox="0 0 24 24" fill="none" xmlns="http://www.w3.org/2000/svg">
<g clip-path="url(#clip0_10_1787)">
<path d="M11.9912 20.1621C12.2197 20.1621 12.5537 19.9863 12.8262 19.8105C17.7393 16.6465 20.8857 12.9375 20.8857 9.18457C20.8857 5.94141 18.6445 3.69141 15.8408 3.69141C14.0918 3.69141 12.7822 4.6582 11.9912 6.09961C11.2178 4.6582 9.89941 3.69141 8.15039 3.69141C5.33789 3.69141 3.09668 5.94141 3.09668 9.18457C3.09668 12.9375 6.25195 16.6465 11.1562 19.8105C11.4287 19.9863 11.7627 20.1621 11.9912 20.1621ZM12.8086 15.0732C12.8086 15.5127 12.4395 15.8379 12 15.8379C11.5518 15.8379 11.1826 15.5127 11.1826 15.0732V12.1377L11.2529 10.7227L10.5674 11.4521L9.89941 12.1289C9.76758 12.2783 9.55664 12.375 9.35449 12.375C8.93262 12.375 8.625 12.085 8.625 11.6631C8.625 11.4346 8.71289 11.2676 8.88867 11.1094L11.376 8.83301C11.5869 8.63965 11.7627 8.55176 12 8.55176C12.2285 8.55176 12.4043 8.63965 12.624 8.83301L15.1113 11.1094C15.2783 11.2676 15.3662 11.4346 15.3662 11.6631C15.3662 12.085 15.0498 12.375 14.6367 12.375C14.4346 12.375 14.2236 12.2783 14.0918 12.1289L13.4326 11.4521L12.7383 10.7227L12.8086 12.1377V15.0732Z" fill="#1C1C1E"/>
</g>
<defs>
<clipPath id="clip0_10_1787">
<rect width="24" height="24" fill="white"/>
</clipPath>
</defs>
</svg>
