<svg width="24" height="24" viewBox="0 0 24 24" fill="none" xmlns="http://www.w3.org/2000/svg">
<g clip-path="url(#clip0_10_1789)">
<path d="M3.09668 9.18457C3.09668 12.9375 6.25195 16.6465 11.1562 19.8105C11.4287 19.9863 11.7627 20.1621 11.9912 20.1621C12.2197 20.1621 12.5537 19.9863 12.8262 19.8105C17.7393 16.6465 20.8857 12.9375 20.8857 9.18457C20.8857 5.94141 18.6445 3.69141 15.7705 3.69141C14.0918 3.69141 12.7822 4.45605 11.9912 5.61621C11.2178 4.46484 9.89941 3.69141 8.2207 3.69141C5.33789 3.69141 3.09668 5.94141 3.09668 9.18457ZM4.90723 9.17578C4.90723 6.96094 6.36621 5.45801 8.32617 5.45801C9.9082 5.45801 10.7959 6.41602 11.3496 7.25098C11.5957 7.61133 11.7627 7.72559 11.9912 7.72559C12.2285 7.72559 12.3779 7.60254 12.6328 7.25098C13.2305 6.43359 14.083 5.45801 15.6562 5.45801C17.625 5.45801 19.084 6.96094 19.084 9.17578C19.084 12.2695 15.8672 15.6973 12.1582 18.1582C12.0791 18.2109 12.0264 18.2461 11.9912 18.2461C11.9561 18.2461 11.9033 18.2109 11.833 18.1582C8.12402 15.6973 4.90723 12.2695 4.90723 9.17578ZM12.7734 15.1084V12.2695L12.7031 10.9072L13.3799 11.6104L14.0215 12.2695C14.1445 12.4102 14.3467 12.5068 14.54 12.5068C14.9355 12.5068 15.2344 12.2168 15.2344 11.8301C15.2344 11.6104 15.1553 11.4434 14.9883 11.2939L12.5889 9.09668C12.3867 8.91211 12.2109 8.83301 12 8.83301C11.7803 8.83301 11.6045 8.91211 11.4023 9.09668L9.01172 11.2939C8.84473 11.4434 8.75684 11.6104 8.75684 11.8301C8.75684 12.2168 9.05566 12.5068 9.45996 12.5068C9.64453 12.5068 9.84668 12.4102 9.97852 12.2695L10.6201 11.6104L11.2881 10.9072L11.2178 12.2695V15.1084C11.2178 15.5303 11.5781 15.8467 12 15.8467C12.4131 15.8467 12.7734 15.5303 12.7734 15.1084Z" fill="#1C1C1E"/>
</g>
<defs>
<clipPath id="clip0_10_1789">
<rect width="24" height="24" fill="white"/>
</clipPath>
</defs>
</svg>
