<svg width="24" height="24" viewBox="0 0 24 24" fill="none" xmlns="http://www.w3.org/2000/svg">
<g clip-path="url(#clip0_10_1806)">
<path d="M6.67383 19.8809H17.3174C19.2246 19.8809 20.209 18.8965 20.209 17.0156V6.31934C20.209 4.43848 19.2246 3.4541 17.3174 3.4541H6.67383C4.77539 3.4541 3.78223 4.42969 3.78223 6.31934V17.0156C3.78223 18.8965 4.77539 19.8809 6.67383 19.8809ZM6.78809 18.1318C5.97949 18.1318 5.53125 17.71 5.53125 16.8574V6.47754C5.53125 5.625 5.97949 5.20312 6.78809 5.20312H17.2031C18.0029 5.20312 18.46 5.625 18.46 6.47754V16.8574C18.46 17.71 18.0029 18.1318 17.2031 18.1318H6.78809ZM12.0088 16.0928C12.4658 16.0928 12.7998 15.7764 12.7998 15.3281V11.1885L12.7207 9.38672L13.5205 10.3799L14.4961 11.3994C14.6191 11.5488 14.8125 11.6279 15.0234 11.6279C15.4453 11.6279 15.7529 11.3291 15.7529 10.916C15.7529 10.7051 15.6826 10.5381 15.542 10.3887L12.6416 7.44434C12.4482 7.25098 12.2549 7.14551 12.0088 7.14551C11.7715 7.14551 11.5781 7.24219 11.3848 7.44434L8.48438 10.3887C8.33496 10.5381 8.27344 10.7051 8.27344 10.916C8.27344 11.3291 8.58105 11.6279 8.99414 11.6279C9.21387 11.6279 9.39844 11.54 9.53027 11.3994L10.5146 10.3711L11.2969 9.39551L11.2178 11.1885V15.3281C11.2178 15.7764 11.5605 16.0928 12.0088 16.0928Z" fill="#1C1C1E"/>
</g>
<defs>
<clipPath id="clip0_10_1806">
<rect width="24" height="24" fill="white"/>
</clipPath>
</defs>
</svg>
