<svg width="24" height="24" viewBox="0 0 24 24" fill="none" xmlns="http://www.w3.org/2000/svg">
<g clip-path="url(#clip0_10_1644)">
<path d="M6.67383 19.8809H17.3174C19.2246 19.8809 20.209 18.8965 20.209 17.0156V6.31934C20.209 4.43848 19.2246 3.4541 17.3174 3.4541H6.67383C4.77539 3.4541 3.78223 4.42969 3.78223 6.31934V17.0156C3.78223 18.8965 4.77539 19.8809 6.67383 19.8809ZM6.78809 18.1318C5.97949 18.1318 5.53125 17.71 5.53125 16.8574V6.47754C5.53125 5.625 5.97949 5.20312 6.78809 5.20312H17.2031C18.0029 5.20312 18.46 5.625 18.46 6.47754V16.8574C18.46 17.71 18.0029 18.1318 17.2031 18.1318H6.78809ZM16.5352 12.7002C16.5352 10.5908 15.0322 9.29004 12.9668 9.29004H10.3652L9.4248 9.3252L10.0752 8.82422L10.9717 7.97168C11.1035 7.85742 11.1826 7.68164 11.1826 7.49707C11.1826 7.11914 10.875 6.81152 10.5059 6.81152C10.3213 6.81152 10.1631 6.88184 10.0312 7.02246L7.69336 9.39551C7.54395 9.54492 7.45605 9.72949 7.45605 9.94043C7.45605 10.1514 7.54395 10.3359 7.69336 10.4854L10.04 12.876C10.1719 13.0078 10.3301 13.0693 10.5146 13.0693C10.8838 13.0693 11.1826 12.7705 11.1826 12.3926C11.1826 12.2168 11.1123 12.041 10.9805 11.918L9.92578 10.9424L9.4248 10.5732L10.3652 10.6172H12.9668C14.1973 10.6172 15.1289 11.3467 15.1289 12.6387C15.1289 13.9482 14.2236 14.7656 12.958 14.7656H11.7188C11.2969 14.7656 10.9805 15.0205 10.9805 15.4512C10.9805 15.8906 11.2969 16.1455 11.7363 16.1455H12.958C15.0322 16.1455 16.5352 14.8096 16.5352 12.7002Z" fill="#1C1C1E"/>
</g>
<defs>
<clipPath id="clip0_10_1644">
<rect width="24" height="24" fill="white"/>
</clipPath>
</defs>
</svg>
