<svg width="24" height="24" viewBox="0 0 24 24" fill="none" xmlns="http://www.w3.org/2000/svg">
<g clip-path="url(#clip0_10_1635)">
<path d="M11.9912 20.6455C16.9746 20.6455 21.0879 16.5322 21.0879 11.5576C21.0879 6.57422 16.9658 2.46094 11.9824 2.46094C7.00781 2.46094 2.90332 6.57422 2.90332 11.5576C2.90332 16.5322 7.0166 20.6455 11.9912 20.6455ZM7.24512 12.6387C7.24512 10.4502 8.81836 9.09668 10.9805 9.09668H13.6699L14.6543 9.14062L13.96 8.61328L13.0459 7.72559C12.9053 7.61133 12.8262 7.42676 12.8262 7.2334C12.8262 6.83789 13.1426 6.52148 13.5293 6.52148C13.7227 6.52148 13.8896 6.58301 14.0215 6.73242L16.4648 9.20215C16.6143 9.36035 16.7109 9.5625 16.7109 9.77344C16.7109 9.99316 16.6143 10.1865 16.4648 10.3535L14.0215 12.8408C13.8809 12.9727 13.7139 13.043 13.5205 13.043C13.1338 13.043 12.8262 12.7266 12.8262 12.3223C12.8262 12.1465 12.8877 11.9619 13.0371 11.8301L14.1182 10.8281L14.6543 10.4414L13.6699 10.4854H10.9805C9.68848 10.4854 8.73047 11.2412 8.73047 12.5859C8.73047 13.9482 9.6709 14.792 10.9805 14.792H12.2637C12.7031 14.792 13.0371 15.0557 13.0371 15.5127C13.0371 15.9697 12.7119 16.2334 12.2549 16.2334H10.9805C8.82715 16.2334 7.24512 14.8447 7.24512 12.6387Z" fill="#1C1C1E"/>
</g>
<defs>
<clipPath id="clip0_10_1635">
<rect width="24" height="24" fill="white"/>
</clipPath>
</defs>
</svg>
