<svg width="24" height="24" viewBox="0 0 24 24" fill="none" xmlns="http://www.w3.org/2000/svg">
<g clip-path="url(#clip0_10_1582)">
<path d="M6.67383 19.8809H17.3174C19.2246 19.8809 20.209 18.8965 20.209 17.0156V6.31934C20.209 4.43848 19.2246 3.4541 17.3174 3.4541H6.67383C4.77539 3.4541 3.78223 4.42969 3.78223 6.31934V17.0156C3.78223 18.8965 4.77539 19.8809 6.67383 19.8809ZM12.0352 6.04688C12.2725 6.04688 12.457 6.14355 12.6504 6.3457L15.1729 8.87695C15.3135 9.01758 15.3838 9.20215 15.3838 9.4043C15.3838 9.80859 15.0762 10.1074 14.6631 10.1074C14.4346 10.1074 14.2588 10.002 14.1182 9.86133L13.5645 9.29883L12.7295 8.2793L12.8174 10.1162V13.1924L12.7295 15.0293L13.5645 14.0098L14.1182 13.4473C14.2588 13.3066 14.4346 13.2012 14.6631 13.2012C15.0762 13.2012 15.3838 13.5 15.3838 13.9043C15.3838 14.1064 15.3135 14.291 15.1729 14.4316L12.6504 16.9629C12.457 17.1562 12.2725 17.2529 12.0352 17.2529C11.7891 17.2529 11.6045 17.1562 11.4111 16.9629L8.90625 14.4316C8.75684 14.291 8.68652 14.1064 8.68652 13.9043C8.68652 13.5 8.99414 13.2012 9.41602 13.2012C9.63574 13.2012 9.81152 13.3066 9.96094 13.4473L10.5059 14.0098L11.3408 15.0381L11.2529 13.1924V10.1162L11.3408 8.27051L10.5059 9.29883L9.96094 9.86133C9.81152 10.002 9.63574 10.1074 9.41602 10.1074C8.99414 10.1074 8.68652 9.80859 8.68652 9.4043C8.68652 9.20215 8.75684 9.01758 8.90625 8.87695L11.4111 6.3457C11.6045 6.14355 11.7891 6.04688 12.0352 6.04688Z" fill="#1C1C1E"/>
</g>
<defs>
<clipPath id="clip0_10_1582">
<rect width="24" height="24" fill="white"/>
</clipPath>
</defs>
</svg>
