<svg width="24" height="24" viewBox="0 0 24 24" fill="none" xmlns="http://www.w3.org/2000/svg">
<g clip-path="url(#clip0_10_1744)">
<path d="M19.251 4.24512C18.6797 4.24512 18.293 4.64062 18.293 5.21191C18.293 5.55469 18.3281 5.89746 18.3281 6.38965C18.3281 9.30762 17.2998 10.4941 14.4082 10.4941H8.73926L6.63867 10.626L9.21387 8.2793L11.1826 6.28418C11.3584 6.1084 11.4727 5.87109 11.4727 5.58984C11.4727 5.05371 11.0684 4.64941 10.5059 4.64941C10.2598 4.64941 10.0225 4.75488 9.81152 4.95703L4.01074 10.7402C3.80859 10.9424 3.69434 11.2061 3.69434 11.4785C3.69434 11.7422 3.80859 12.0059 4.01074 12.208L9.79395 17.9736C10.0225 18.2021 10.2598 18.2988 10.5059 18.2988C11.0684 18.2988 11.4727 17.9033 11.4727 17.3584C11.4727 17.0859 11.3584 16.8398 11.1826 16.6641L9.21387 14.6777L6.64746 12.3311L8.73926 12.4541H14.5312C18.5918 12.4541 20.3057 10.5732 20.3057 6.45117C20.3057 5.94141 20.2881 5.48438 20.2178 5.12402C20.1387 4.69336 19.8662 4.24512 19.251 4.24512Z" fill="#1C1C1E"/>
</g>
<defs>
<clipPath id="clip0_10_1744">
<rect width="24" height="24" fill="white"/>
</clipPath>
</defs>
</svg>
