<svg width="24" height="24" viewBox="0 0 24 24" fill="none" xmlns="http://www.w3.org/2000/svg">
<g clip-path="url(#clip0_10_1687)">
<path d="M11.9912 20.7422C16.9746 20.7422 21.0879 16.6289 21.0879 11.6543C21.0879 6.67969 16.9658 2.56641 11.9824 2.56641C7.00781 2.56641 2.90332 6.67969 2.90332 11.6543C2.90332 16.6289 7.0166 20.7422 11.9912 20.7422ZM7.74609 8.5166L10.0137 6.31055C10.1367 6.1875 10.3037 6.1084 10.4619 6.1084C10.8311 6.1084 11.0859 6.36328 11.0859 6.72363C11.0859 6.89941 11.0244 7.05762 10.9014 7.17188L9.96094 8.08594L9.65332 8.3584L10.1016 8.34961H15.7969C16.1484 8.34961 16.4209 8.62207 16.4209 8.98242C16.4209 9.34277 16.1484 9.60645 15.7969 9.60645H10.0928L9.65332 9.58887L9.96094 9.87891L10.9014 10.7842C11.0244 10.9072 11.0859 11.0654 11.0859 11.2324C11.0859 11.5928 10.8311 11.8477 10.4619 11.8477C10.3125 11.8477 10.1455 11.7773 10.0137 11.6631L7.74609 9.44824C7.49121 9.19336 7.49121 8.7627 7.74609 8.5166ZM16.2188 14.8096L13.9512 17.0332C13.8193 17.1475 13.6523 17.2266 13.4941 17.2266C13.1426 17.2266 12.8789 16.9629 12.8789 16.6025C12.8789 16.4355 12.9492 16.2861 13.0723 16.1631L14.0127 15.2402L14.3203 14.9766L13.8545 14.9854H8.16797C7.81641 14.9854 7.55273 14.7129 7.55273 14.3525C7.55273 13.9834 7.81641 13.7197 8.16797 13.7197H13.8633L14.3203 13.7373L14.0127 13.4561L13.0547 12.542C12.9404 12.4189 12.8789 12.2695 12.8789 12.1025C12.8789 11.7422 13.1338 11.4873 13.4941 11.4873C13.6611 11.4873 13.8281 11.5664 13.9512 11.6719L16.2188 13.8955C16.4736 14.1504 16.4824 14.5459 16.2188 14.8096Z" fill="#1C1C1E"/>
</g>
<defs>
<clipPath id="clip0_10_1687">
<rect width="24" height="24" fill="white"/>
</clipPath>
</defs>
</svg>
