<svg width="24" height="24" viewBox="0 0 24 24" fill="none" xmlns="http://www.w3.org/2000/svg">
<g clip-path="url(#clip0_10_1603)">
<path d="M11.9912 20.7422C16.9746 20.7422 21.0879 16.6289 21.0879 11.6543C21.0879 6.67969 16.9658 2.56641 11.9824 2.56641C7.00781 2.56641 2.90332 6.67969 2.90332 11.6543C2.90332 16.6289 7.0166 20.7422 11.9912 20.7422ZM11.9912 18.9316C7.95703 18.9316 4.73145 15.6885 4.73145 11.6543C4.73145 7.62012 7.95703 4.38574 11.9824 4.38574C16.0166 4.38574 19.2598 7.62012 19.2686 11.6543C19.2773 15.6885 16.0254 18.9316 11.9912 18.9316ZM10.7871 16.1895C12.8877 16.1895 14.1885 14.6777 14.1885 12.6123V10.0107L14.1533 9.07031L14.6543 9.72949L15.5068 10.6172C15.6211 10.749 15.7969 10.8281 15.9814 10.8281C16.3594 10.8281 16.667 10.5293 16.667 10.1514C16.667 9.9668 16.5967 9.80859 16.4648 9.67676L14.083 7.33887C13.9336 7.18945 13.749 7.10156 13.5381 7.10156C13.3271 7.10156 13.1426 7.18945 12.9932 7.33887L10.6025 9.68555C10.4707 9.81738 10.4092 9.97559 10.4092 10.1689C10.4092 10.5293 10.708 10.8281 11.0859 10.8281C11.2617 10.8281 11.4375 10.7666 11.5605 10.626L12.5361 9.58008L12.9053 9.07031L12.8613 10.0107V12.6123C12.8613 13.8428 12.1318 14.7744 10.8398 14.7744C9.53027 14.7744 8.71289 13.8691 8.71289 12.6035V11.373C8.71289 10.9512 8.45801 10.626 8.02734 10.626C7.58789 10.626 7.33301 10.9424 7.33301 11.3818V12.6035C7.33301 14.6777 8.66895 16.1895 10.7871 16.1895Z" fill="#1C1C1E"/>
</g>
<defs>
<clipPath id="clip0_10_1603">
<rect width="24" height="24" fill="white"/>
</clipPath>
</defs>
</svg>
