<svg width="24" height="24" viewBox="0 0 24 24" fill="none" xmlns="http://www.w3.org/2000/svg">
<g clip-path="url(#clip0_10_1786)">
<path d="M12 3.31348C11.4199 3.31348 11.0156 3.71777 11.0156 4.29785V15.1523L11.0947 17.0596L8.80957 14.5107L6.81445 12.5244C6.63867 12.3486 6.39258 12.2344 6.11133 12.2344C5.5752 12.2344 5.17969 12.6387 5.17969 13.1924C5.17969 13.4473 5.27637 13.6846 5.4873 13.8955L11.2705 19.6963C11.4639 19.8984 11.7275 20.0039 12 20.0039C12.2637 20.0039 12.5273 19.8984 12.7207 19.6963L18.5127 13.8955C18.7236 13.6846 18.8203 13.4473 18.8203 13.1924C18.8203 12.6387 18.416 12.2344 17.8799 12.2344C17.6074 12.2344 17.3613 12.3486 17.1855 12.5244L15.1816 14.5107L12.9053 17.0508L12.9756 15.1523V4.29785C12.9756 3.71777 12.5713 3.31348 12 3.31348Z" fill="#1C1C1E"/>
</g>
<defs>
<clipPath id="clip0_10_1786">
<rect width="24" height="24" fill="white"/>
</clipPath>
</defs>
</svg>
