<svg width="24" height="24" viewBox="0 0 24 24" fill="none" xmlns="http://www.w3.org/2000/svg">
<g clip-path="url(#clip0_10_1751)">
<path d="M12 20.9795C12.4131 20.9795 12.7734 20.6719 12.7734 20.25V3.08496C12.7734 2.66309 12.4131 2.34668 12 2.34668C11.5957 2.34668 11.2266 2.66309 11.2266 3.08496V20.25C11.2266 20.6719 11.5869 20.9795 12 20.9795ZM1.40039 16.9541L8.15918 12.8232C9.1084 12.2432 9.11719 11.0918 8.15918 10.5117L1.40039 6.38086C0.398438 5.77441 -0.585938 6.2666 -0.585938 7.42676V15.9082C-0.585938 17.0859 0.424805 17.543 1.40039 16.9541ZM22.5908 16.9541C23.5752 17.543 24.5859 17.0859 24.5859 15.9082V7.42676C24.5859 6.2666 23.5928 5.77441 22.5908 6.38086L15.8408 10.5117C14.874 11.0918 14.8828 12.2432 15.8408 12.8232L22.5908 16.9541Z" fill="#1C1C1E"/>
</g>
<defs>
<clipPath id="clip0_10_1751">
<rect width="24" height="24" fill="white"/>
</clipPath>
</defs>
</svg>
