<svg width="24" height="24" viewBox="0 0 24 24" fill="none" xmlns="http://www.w3.org/2000/svg">
<g clip-path="url(#clip0_10_1839)">
<path d="M11.9912 20.7598C16.9746 20.7598 21.0879 16.6465 21.0879 11.6631C21.0879 6.68848 16.9658 2.5752 11.9824 2.5752C7.00781 2.5752 2.90332 6.68848 2.90332 11.6631C2.90332 16.6465 7.0166 20.7598 11.9912 20.7598ZM12.6943 15.627C12.3164 15.627 12.0439 15.3457 12.0439 14.9854V13.2451H11.9297C10.1631 13.2451 9.08203 13.7637 8.32617 15.1787C8.1416 15.5215 7.9043 15.6006 7.64941 15.6006C7.32422 15.6006 7.05176 15.293 7.05176 14.6953C7.05176 11.1885 8.60742 9.06152 11.9297 9.06152H12.0439V7.33008C12.0439 6.96973 12.3164 6.66211 12.7031 6.66211C12.9668 6.66211 13.1338 6.77637 13.4062 7.03125L17.2295 10.582C17.4229 10.7578 17.4932 10.96 17.4932 11.1445C17.4932 11.3291 17.4229 11.5312 17.2295 11.707L13.4062 15.2842C13.1602 15.5127 12.958 15.627 12.6943 15.627Z" fill="#1C1C1E"/>
</g>
<defs>
<clipPath id="clip0_10_1839">
<rect width="24" height="24" fill="white"/>
</clipPath>
</defs>
</svg>
