<svg width="24" height="24" viewBox="0 0 24 24" fill="none" xmlns="http://www.w3.org/2000/svg">
<g clip-path="url(#clip0_10_1622)">
<path d="M11.9912 20.7422C16.9746 20.7422 21.0879 16.6289 21.0879 11.6543C21.0879 6.67969 16.9658 2.56641 11.9824 2.56641C7.00781 2.56641 2.90332 6.67969 2.90332 11.6543C2.90332 16.6289 7.0166 20.7422 11.9912 20.7422ZM16.7109 11.6455C16.7109 11.9092 16.6143 12.1113 16.4033 12.3135L13.3008 15.3633C13.1426 15.5127 12.9668 15.5918 12.7383 15.5918C12.3076 15.5918 12 15.2666 12 14.8271C12 14.6074 12.0879 14.4053 12.2373 14.2646L13.3447 13.21L14.3643 12.3926L12.4922 12.4805H8.05371C7.5791 12.4805 7.24512 12.1289 7.24512 11.6543C7.24512 11.1709 7.58789 10.8193 8.05371 10.8193H12.4922L14.3643 10.9072L13.3359 10.0898L12.2373 9.03516C12.0967 8.89453 12 8.69238 12 8.47266C12 8.0332 12.3076 7.7168 12.7383 7.7168C12.9668 7.7168 13.1426 7.77832 13.3008 7.93652L16.4033 10.9951C16.623 11.1973 16.7109 11.3994 16.7109 11.6455Z" fill="#1C1C1E"/>
</g>
<defs>
<clipPath id="clip0_10_1622">
<rect width="24" height="24" fill="white"/>
</clipPath>
</defs>
</svg>
