<svg width="24" height="24" viewBox="0 0 24 24" fill="none" xmlns="http://www.w3.org/2000/svg">
<g clip-path="url(#clip0_10_1762)">
<path d="M11.9912 20.7422C16.9746 20.7422 21.0879 16.6289 21.0879 11.6543C21.0879 6.67969 16.9658 2.56641 11.9824 2.56641C7.00781 2.56641 2.90332 6.67969 2.90332 11.6543C2.90332 16.6289 7.0166 20.7422 11.9912 20.7422ZM14.8389 14.0537C14.373 14.0537 14.0742 13.7373 14.0742 13.2275V11.7861L14.1973 10.4766L12.9844 11.8125L9.82031 14.9766C9.64453 15.1523 9.43359 15.2402 9.17871 15.2402C8.71289 15.2402 8.37012 14.915 8.37012 14.4229C8.37012 14.2031 8.4668 13.9834 8.63379 13.8252L11.8154 10.6436L13.1602 9.42188L11.9209 9.5625H10.3916C9.89062 9.5625 9.55664 9.26367 9.55664 8.79785C9.55664 8.33203 9.88184 8.0332 10.3828 8.0332H14.6543C15.2344 8.0332 15.5947 8.33203 15.5947 8.97363V13.21C15.5947 13.7109 15.2959 14.0537 14.8389 14.0537Z" fill="#1C1C1E"/>
</g>
<defs>
<clipPath id="clip0_10_1762">
<rect width="24" height="24" fill="white"/>
</clipPath>
</defs>
</svg>
