<svg width="24" height="24" viewBox="0 0 24 24" fill="none" xmlns="http://www.w3.org/2000/svg">
<g clip-path="url(#clip0_10_1641)">
<path d="M11.9912 20.7422C16.9746 20.7422 21.0879 16.6289 21.0879 11.6543C21.0879 6.67969 16.9658 2.56641 11.9824 2.56641C7.00781 2.56641 2.90332 6.67969 2.90332 11.6543C2.90332 16.6289 7.0166 20.7422 11.9912 20.7422ZM7.27148 11.6455C7.27148 11.3994 7.35938 11.1973 7.5791 10.9951L10.6816 7.93652C10.8398 7.77832 11.0156 7.7168 11.2354 7.7168C11.6748 7.7168 11.9824 8.0332 11.9824 8.47266C11.9824 8.69238 11.8857 8.89453 11.7451 9.03516L10.6465 10.0898L9.61816 10.9072L11.4902 10.8193H15.9287C16.3945 10.8193 16.7285 11.1709 16.7285 11.6543C16.7285 12.1289 16.3945 12.4805 15.9287 12.4805H11.4902L9.61816 12.3926L10.6377 13.21L11.7451 14.2646C11.8945 14.4053 11.9824 14.6074 11.9824 14.8271C11.9824 15.2666 11.6748 15.5918 11.2354 15.5918C11.0156 15.5918 10.8398 15.5127 10.6816 15.3633L7.5791 12.3135C7.36816 12.1113 7.27148 11.9092 7.27148 11.6455Z" fill="#1C1C1E"/>
</g>
<defs>
<clipPath id="clip0_10_1641">
<rect width="24" height="24" fill="white"/>
</clipPath>
</defs>
</svg>
