<svg width="24" height="24" viewBox="0 0 24 24" fill="none" xmlns="http://www.w3.org/2000/svg">
<g clip-path="url(#clip0_10_1638)">
<path d="M11.9912 20.7422C16.9746 20.7422 21.0879 16.6289 21.0879 11.6543C21.0879 6.67969 16.9658 2.56641 11.9824 2.56641C7.00781 2.56641 2.90332 6.67969 2.90332 11.6543C2.90332 16.6289 7.0166 20.7422 11.9912 20.7422ZM11.9912 18.9316C7.95703 18.9316 4.73145 15.6885 4.73145 11.6543C4.73145 7.62012 7.95703 4.38574 11.9824 4.38574C16.0166 4.38574 19.2598 7.62012 19.2686 11.6543C19.2773 15.6885 16.0254 18.9316 11.9912 18.9316ZM15.4014 12.1465C15.7705 11.9355 15.7617 11.3994 15.4014 11.1885L10.3389 8.2002C9.95215 7.98047 9.44238 8.16504 9.44238 8.5957V14.7305C9.44238 15.1611 9.92578 15.3721 10.3389 15.126L15.4014 12.1465Z" fill="#1C1C1E"/>
</g>
<defs>
<clipPath id="clip0_10_1638">
<rect width="24" height="24" fill="white"/>
</clipPath>
</defs>
</svg>
