<svg width="24" height="24" viewBox="0 0 24 24" fill="none" xmlns="http://www.w3.org/2000/svg">
<g clip-path="url(#clip0_10_1625)">
<path d="M11.9912 20.7422C16.9746 20.7422 21.0879 16.6289 21.0879 11.6543C21.0879 6.67969 16.9658 2.56641 11.9824 2.56641C7.00781 2.56641 2.90332 6.67969 2.90332 11.6543C2.90332 16.6289 7.0166 20.7422 11.9912 20.7422ZM11.9912 18.9316C7.95703 18.9316 4.73145 15.6885 4.73145 11.6543C4.73145 7.62012 7.95703 4.38574 11.9824 4.38574C16.0166 4.38574 19.2598 7.62012 19.2686 11.6543C19.2773 15.6885 16.0254 18.9316 11.9912 18.9316ZM8.18555 14.2822C8.18555 14.8271 8.47559 15.1787 8.98535 15.1699C9.48633 15.1611 9.78516 14.8271 9.78516 14.2822V12.0762C9.78516 11.373 10.1279 11.0479 10.7783 11.0479H12.9141V12.4102C12.9141 12.999 13.5732 13.2715 14.0742 12.832L16.2451 10.9336C16.7549 10.4941 16.7549 10.002 16.2451 9.5625L14.0742 7.66406C13.582 7.22461 12.9141 7.49707 12.9141 8.08594V9.44824H10.5938C8.97656 9.44824 8.18555 10.2393 8.18555 11.8389V14.2822Z" fill="#1C1C1E"/>
</g>
<defs>
<clipPath id="clip0_10_1625">
<rect width="24" height="24" fill="white"/>
</clipPath>
</defs>
</svg>
