<svg width="24" height="24" viewBox="0 0 24 24" fill="none" xmlns="http://www.w3.org/2000/svg">
<g clip-path="url(#clip0_10_1691)">
<path d="M6.67383 19.8809H17.3174C19.2246 19.8809 20.209 18.8965 20.209 17.0156V6.31934C20.209 4.43848 19.2246 3.4541 17.3174 3.4541H6.67383C4.77539 3.4541 3.78223 4.42969 3.78223 6.31934V17.0156C3.78223 18.8965 4.77539 19.8809 6.67383 19.8809ZM15.252 15.8994C14.9971 16.1543 14.5664 16.1543 14.3115 15.8994L12.1055 13.6318C11.9824 13.5 11.9121 13.333 11.9121 13.1748C11.9121 12.8145 12.167 12.5596 12.5273 12.5596C12.7031 12.5596 12.8613 12.6123 12.9756 12.7441L13.8896 13.6846L14.1709 13.9922L14.1533 13.5439V7.84863C14.1533 7.49707 14.417 7.22461 14.7861 7.22461C15.1377 7.22461 15.4102 7.48828 15.4102 7.84863V13.5352L15.4014 13.9834L15.6826 13.6846L16.5967 12.7441C16.7109 12.6211 16.8691 12.5596 17.0361 12.5596C17.4053 12.5596 17.6602 12.8145 17.6602 13.1748C17.6602 13.333 17.5723 13.5088 17.458 13.6318L15.252 15.8994ZM8.80078 7.42676C9.06445 7.1543 9.46875 7.17188 9.72363 7.42676L11.9385 9.69434C12.0527 9.80859 12.1318 9.98438 12.1318 10.1514C12.1318 10.5117 11.877 10.7666 11.5166 10.7666C11.3496 10.7666 11.1914 10.7051 11.0684 10.5908L10.1543 9.63281L9.87305 9.3252L9.89941 9.78223V15.4775C9.89941 15.8203 9.63574 16.0928 9.25781 16.0928C8.90625 16.0928 8.63379 15.8203 8.63379 15.4775V9.78223L8.64258 9.3252L8.37012 9.63281L7.44727 10.5732C7.33301 10.6963 7.1748 10.7666 7.0166 10.7666C6.64746 10.7666 6.38379 10.5029 6.38379 10.1514C6.38379 9.99316 6.47168 9.82617 6.57715 9.69434L8.80078 7.42676Z" fill="#1C1C1E"/>
</g>
<defs>
<clipPath id="clip0_10_1691">
<rect width="24" height="24" fill="white"/>
</clipPath>
</defs>
</svg>
