<svg width="24" height="24" viewBox="0 0 24 24" fill="none" xmlns="http://www.w3.org/2000/svg">
<g clip-path="url(#clip0_10_1662)">
<path d="M6.67383 19.8809H17.3174C19.2246 19.8809 20.209 18.8965 20.209 17.0156V6.31934C20.209 4.43848 19.2246 3.4541 17.3174 3.4541H6.67383C4.77539 3.4541 3.78223 4.42969 3.78223 6.31934V17.0156C3.78223 18.8965 4.77539 19.8809 6.67383 19.8809ZM16.7461 12.7441C16.7461 14.9414 15.1729 16.3389 13.0195 16.3389H11.7451C11.2881 16.3389 10.9629 16.0752 10.9629 15.6094C10.9629 15.1611 11.2881 14.8975 11.7275 14.8975H13.0195C14.3291 14.8975 15.2607 14.0449 15.2607 12.6826C15.2607 11.3467 14.3027 10.5908 13.0195 10.5908H10.3213L9.3457 10.5469L9.87305 10.9248L10.9629 11.9268C11.1035 12.0586 11.1738 12.2432 11.1738 12.4277C11.1738 12.832 10.8574 13.1396 10.4795 13.1396C10.2861 13.1396 10.1104 13.0781 9.97852 12.9375L7.53516 10.4502C7.37695 10.292 7.28027 10.0898 7.28027 9.87891C7.28027 9.66797 7.38574 9.46582 7.53516 9.30762L9.97852 6.83789C10.1104 6.68848 10.2773 6.62695 10.4707 6.62695C10.8574 6.62695 11.1738 6.94336 11.1738 7.33887C11.1738 7.53223 11.0947 7.70801 10.9541 7.83105L10.0312 8.70996L9.3457 9.2373L10.3213 9.19336H13.0195C15.1816 9.19336 16.7461 10.5469 16.7461 12.7441Z" fill="#1C1C1E"/>
</g>
<defs>
<clipPath id="clip0_10_1662">
<rect width="24" height="24" fill="white"/>
</clipPath>
</defs>
</svg>
