<svg width="24" height="24" viewBox="0 0 24 24" fill="none" xmlns="http://www.w3.org/2000/svg">
<g clip-path="url(#clip0_10_1724)">
<path d="M11.9912 20.7422C16.9746 20.7422 21.0879 16.6289 21.0879 11.6543C21.0879 6.67969 16.9658 2.56641 11.9824 2.56641C7.00781 2.56641 2.90332 6.67969 2.90332 11.6543C2.90332 16.6289 7.0166 20.7422 11.9912 20.7422ZM9.12598 9.21973C9.5918 9.21973 9.89062 9.54492 9.89062 10.0547V11.4961L9.76758 12.7969L10.9893 11.4697L14.1533 8.29688C14.3203 8.12109 14.5312 8.0332 14.7861 8.0332C15.252 8.0332 15.5947 8.3584 15.5947 8.85938C15.5947 9.07031 15.498 9.29004 15.3311 9.45703L12.1494 12.6299L10.8135 13.8604L12.0527 13.7197H13.5732C14.083 13.7197 14.4082 14.0186 14.4082 14.4756C14.4082 14.9414 14.083 15.2402 13.582 15.2402H9.31055C8.73047 15.2402 8.37012 14.9414 8.37012 14.3086V10.0635C8.37012 9.5625 8.66895 9.21973 9.12598 9.21973Z" fill="#1C1C1E"/>
</g>
<defs>
<clipPath id="clip0_10_1724">
<rect width="24" height="24" fill="white"/>
</clipPath>
</defs>
</svg>
