<svg width="24" height="24" viewBox="0 0 24 24" fill="none" xmlns="http://www.w3.org/2000/svg">
<g clip-path="url(#clip0_10_1590)">
<path d="M11.9912 20.7422C16.9746 20.7422 21.0879 16.6289 21.0879 11.6543C21.0879 6.67969 16.9658 2.56641 11.9824 2.56641C7.00781 2.56641 2.90332 6.67969 2.90332 11.6543C2.90332 16.6289 7.0166 20.7422 11.9912 20.7422ZM11.9912 18.9316C7.95703 18.9316 4.73145 15.6885 4.73145 11.6543C4.73145 7.62012 7.95703 4.38574 11.9824 4.38574C16.0166 4.38574 19.2598 7.62012 19.2686 11.6543C19.2773 15.6885 16.0254 18.9316 11.9912 18.9316ZM17.3701 11.6631C17.3701 11.4346 17.2734 11.25 17.0889 11.0742L14.6543 8.65723C14.5137 8.5166 14.3379 8.44629 14.1445 8.44629C13.7578 8.44629 13.4766 8.74512 13.4766 9.14062C13.4766 9.35156 13.5645 9.54492 13.7139 9.65918L14.2588 10.1953L15.252 11.0039L13.4766 10.9248H10.4883L8.72168 11.0039L9.70605 10.1953L10.2598 9.65918C10.4004 9.54492 10.4883 9.35156 10.4883 9.14062C10.4883 8.74512 10.207 8.44629 9.82031 8.44629C9.62695 8.44629 9.45117 8.5166 9.31055 8.65723L6.87598 11.0742C6.69141 11.25 6.59473 11.4346 6.59473 11.6631C6.59473 11.8916 6.69141 12.0674 6.87598 12.252L9.31055 14.6777C9.45117 14.8184 9.62695 14.8799 9.82031 14.8799C10.207 14.8799 10.4883 14.5898 10.4883 14.1943C10.4883 13.9834 10.4004 13.79 10.2598 13.6758L9.70605 13.1309L8.72168 12.3311L10.4883 12.4102H13.4766L15.2432 12.3311L14.2588 13.1309L13.7139 13.6758C13.5645 13.79 13.4766 13.9834 13.4766 14.1943C13.4766 14.5898 13.7578 14.8799 14.1445 14.8799C14.3379 14.8799 14.5137 14.8184 14.6543 14.6777L17.0889 12.252C17.2734 12.0674 17.3701 11.8916 17.3701 11.6631Z" fill="#1C1C1E"/>
</g>
<defs>
<clipPath id="clip0_10_1590">
<rect width="24" height="24" fill="white"/>
</clipPath>
</defs>
</svg>
