<svg width="24" height="24" viewBox="0 0 24 24" fill="none" xmlns="http://www.w3.org/2000/svg">
<g clip-path="url(#clip0_10_1695)">
<path d="M16.7812 20.0039C17.291 20.0039 17.7393 19.9951 18.0996 19.9248C18.5215 19.8457 18.9785 19.5732 18.9785 18.9756C18.9785 18.4043 18.5742 18.0439 18.0117 18.0439C17.6777 18.0439 17.3262 18.0703 16.8428 18.0703C14.0303 18.0703 12.8086 17.0947 12.8086 14.2471L12.8174 8.61328L12.7383 6.32812L14.3115 8.06836L17.0273 10.793C17.2031 10.9688 17.4492 11.083 17.7217 11.083C18.2578 11.083 18.6621 10.6787 18.6621 10.1162C18.6621 9.87012 18.5654 9.63281 18.3545 9.42188L12.5713 3.62109C12.3779 3.41895 12.1055 3.30469 11.8418 3.30469C11.5781 3.30469 11.3057 3.41895 11.1123 3.62109L5.3291 9.42188C5.11816 9.63281 5.02148 9.87012 5.02148 10.1162C5.02148 10.6787 5.41699 11.083 5.95312 11.083C6.23438 11.083 6.48047 10.9688 6.65625 10.793L9.37207 8.06836L10.9365 6.33691L10.8662 8.61328V14.3701C10.8662 18.3604 12.8174 20.0039 16.7812 20.0039Z" fill="#1C1C1E"/>
</g>
<defs>
<clipPath id="clip0_10_1695">
<rect width="24" height="24" fill="white"/>
</clipPath>
</defs>
</svg>
