<svg width="24" height="24" viewBox="0 0 24 24" fill="none" xmlns="http://www.w3.org/2000/svg">
<g clip-path="url(#clip0_10_1639)">
<path d="M6.67383 19.8809H17.3174C19.2246 19.8809 20.209 18.8965 20.209 17.0156V6.31934C20.209 4.43848 19.2246 3.4541 17.3174 3.4541H6.67383C4.77539 3.4541 3.78223 4.42969 3.78223 6.31934V17.0156C3.78223 18.8965 4.77539 19.8809 6.67383 19.8809ZM6.78809 18.1318C5.97949 18.1318 5.53125 17.71 5.53125 16.8574V6.47754C5.53125 5.625 5.97949 5.20312 6.78809 5.20312H17.2031C18.0029 5.20312 18.46 5.625 18.46 6.47754V16.8574C18.46 17.71 18.0029 18.1318 17.2031 18.1318H6.78809ZM7.46484 11.6455C7.46484 11.9004 7.57031 12.0938 7.76367 12.2783L10.7432 15.2139C10.8926 15.3633 11.0596 15.4336 11.2793 15.4336C11.6836 15.4336 11.9912 15.1172 11.9912 14.7041C11.9912 14.4932 11.9033 14.2998 11.7539 14.168L10.6904 13.1572L9.70605 12.3574L11.5078 12.4365H15.7969C16.2451 12.4365 16.5615 12.1025 16.5615 11.6543C16.5615 11.1973 16.2451 10.8633 15.7969 10.8633H11.5078L9.70605 10.9424L10.6992 10.1514L11.7539 9.12305C11.8945 8.99121 11.9912 8.80664 11.9912 8.58691C11.9912 8.17383 11.6836 7.86621 11.2793 7.86621C11.0596 7.86621 10.8926 7.93652 10.7432 8.07715L7.76367 11.0215C7.56152 11.2236 7.46484 11.4082 7.46484 11.6455Z" fill="#1C1C1E"/>
</g>
<defs>
<clipPath id="clip0_10_1639">
<rect width="24" height="24" fill="white"/>
</clipPath>
</defs>
</svg>
