<svg width="24" height="24" viewBox="0 0 24 24" fill="none" xmlns="http://www.w3.org/2000/svg">
<g clip-path="url(#clip0_10_1766)">
<path d="M6.67383 19.8809H17.3174C19.2246 19.8809 20.209 18.8965 20.209 17.0156V6.31934C20.209 4.43848 19.2246 3.4541 17.3174 3.4541H6.67383C4.77539 3.4541 3.78223 4.42969 3.78223 6.31934V17.0156C3.78223 18.8965 4.77539 19.8809 6.67383 19.8809ZM6.78809 18.1318C5.97949 18.1318 5.53125 17.71 5.53125 16.8574V6.47754C5.53125 5.625 5.97949 5.20312 6.78809 5.20312H17.2031C18.0029 5.20312 18.46 5.625 18.46 6.47754V16.8574C18.46 17.71 18.0029 18.1318 17.2031 18.1318H6.78809ZM9.25781 9.31641C8.80957 9.31641 8.52832 9.65039 8.52832 10.125V14.2119C8.52832 14.8184 8.87109 15.0996 9.4248 15.0996H13.5381C14.0127 15.0996 14.3203 14.8096 14.3203 14.3701C14.3203 13.9307 14.0127 13.6406 13.5293 13.6406H12.0439L10.8574 13.7812L12.1494 12.6035L15.2168 9.52734C15.375 9.37793 15.4717 9.16699 15.4717 8.95605C15.4717 8.49023 15.1465 8.18262 14.6895 8.18262C14.4521 8.18262 14.2588 8.26172 14.0918 8.42871L11.0332 11.4873L9.85547 12.7705L9.9873 11.5137V10.1162C9.9873 9.63281 9.69727 9.31641 9.25781 9.31641Z" fill="#1C1C1E"/>
</g>
<defs>
<clipPath id="clip0_10_1766">
<rect width="24" height="24" fill="white"/>
</clipPath>
</defs>
</svg>
