<svg width="24" height="24" viewBox="0 0 24 24" fill="none" xmlns="http://www.w3.org/2000/svg">
<g clip-path="url(#clip0_10_1711)">
<path d="M3.71191 5.84473C3.29883 6.24023 3.30762 6.85547 3.71191 7.24219L8.24707 11.6719C8.42285 11.8477 8.69531 11.9619 8.93262 11.9619C9.48633 11.9619 9.86426 11.5752 9.86426 11.0303C9.86426 10.7666 9.77637 10.5557 9.5918 10.3799L7.71094 8.56934L6.375 7.40918L8.23828 7.47949H19.6465C20.1914 7.47949 20.5869 7.08398 20.5869 6.53906C20.5869 5.99414 20.1914 5.60742 19.6465 5.60742H8.23828L6.375 5.66895L7.71094 4.51758L9.5918 2.70703C9.77637 2.53125 9.86426 2.31152 9.86426 2.04785C9.86426 1.51172 9.48633 1.125 8.93262 1.125C8.69531 1.125 8.42285 1.23926 8.24707 1.41504L3.71191 5.84473ZM20.2793 17.4814C20.6924 17.0859 20.6836 16.4707 20.2793 16.084L15.7529 11.6543C15.5684 11.4785 15.2959 11.3643 15.0586 11.3643C14.5137 11.3643 14.1357 11.751 14.1357 12.2959C14.1357 12.5508 14.2236 12.7705 14.3994 12.9463L16.2803 14.7568L17.6162 15.9082L15.7529 15.8467H4.34473C3.80859 15.8467 3.4043 16.2422 3.4043 16.7871C3.4043 17.3232 3.80859 17.7188 4.34473 17.7188H15.7529L17.6162 17.6572L16.2803 18.8086L14.3994 20.6191C14.2236 20.7949 14.1357 21.0146 14.1357 21.2695C14.1357 21.8145 14.5137 22.2012 15.0586 22.2012C15.2959 22.2012 15.5684 22.0869 15.7529 21.9111L20.2793 17.4814Z" fill="#1C1C1E"/>
</g>
<defs>
<clipPath id="clip0_10_1711">
<rect width="24" height="24" fill="white"/>
</clipPath>
</defs>
</svg>
