<svg width="24" height="24" viewBox="0 0 24 24" fill="none" xmlns="http://www.w3.org/2000/svg">
<g clip-path="url(#clip0_10_1573)">
<path d="M11.9912 20.7422C16.9746 20.7422 21.0879 16.6289 21.0879 11.6543C21.0879 6.67969 16.9658 2.56641 11.9824 2.56641C7.00781 2.56641 2.90332 6.67969 2.90332 11.6543C2.90332 16.6289 7.0166 20.7422 11.9912 20.7422ZM11.9912 18.9316C7.95703 18.9316 4.73145 15.6885 4.73145 11.6543C4.73145 7.62012 7.95703 4.38574 11.9824 4.38574C16.0166 4.38574 19.2598 7.62012 19.2686 11.6543C19.2773 15.6885 16.0254 18.9316 11.9912 18.9316ZM8.09766 12.0586C8.09766 14.2383 9.83789 15.9873 11.9912 15.9873C14.1445 15.9873 15.876 14.2383 15.876 12.0762C15.876 11.7158 15.5771 11.4258 15.2168 11.4258C14.8477 11.4258 14.5488 11.7158 14.5488 12.0762C14.5488 13.5088 13.4062 14.6514 11.9912 14.6514C10.5586 14.6514 9.4248 13.5088 9.4248 12.0762C9.4248 10.7227 10.4707 9.61523 11.7891 9.57129C11.8945 9.57129 12.0088 9.57129 12.0967 9.58008L11.3848 10.2744C11.2881 10.3799 11.2354 10.5205 11.2354 10.6787C11.2354 11.0303 11.5078 11.2852 11.8506 11.2852C12.0088 11.2852 12.1758 11.2061 12.2812 11.1006L13.9336 9.44824C14.1709 9.21094 14.1621 8.78906 13.9336 8.55176L12.2988 6.89062C12.1846 6.77637 12.0264 6.68848 11.8418 6.68848C11.4814 6.68848 11.2354 6.96094 11.2354 7.28613C11.2354 7.46191 11.3057 7.60254 11.4023 7.7168L11.9121 8.24414C11.8506 8.24414 11.7627 8.23535 11.6836 8.23535C9.77637 8.29688 8.09766 9.9668 8.09766 12.0586Z" fill="#1C1C1E"/>
</g>
<defs>
<clipPath id="clip0_10_1573">
<rect width="24" height="24" fill="white"/>
</clipPath>
</defs>
</svg>
