<svg width="24" height="24" viewBox="0 0 24 24" fill="none" xmlns="http://www.w3.org/2000/svg">
<g clip-path="url(#clip0_10_1831)">
<path d="M13.1689 19.8369C13.6523 19.8369 14.0303 19.6523 14.4961 19.2129L21.457 12.6826C21.7998 12.3574 21.9316 11.9795 21.9316 11.6543C21.9316 11.3203 21.7998 10.9512 21.457 10.626L14.4961 4.13965C13.9863 3.66504 13.6523 3.47168 13.1865 3.47168C12.4834 3.47168 11.9824 4.0166 11.9824 4.70215V7.83105H11.7627C5.69824 7.83105 2.88574 11.7246 2.88574 18.1055C2.88574 19.2217 3.36035 19.8018 3.97559 19.8018C4.44141 19.8018 4.87207 19.6523 5.21484 19.0107C6.59473 16.4443 8.55469 15.5039 11.7627 15.5039H11.9824V18.6504C11.9824 19.3359 12.4834 19.8369 13.1689 19.8369ZM13.7314 17.5693C13.6523 17.5693 13.5996 17.5166 13.5996 17.4287V14.1855C13.5996 13.9834 13.5117 13.8955 13.3096 13.8955H12.1846C8.15918 13.8955 5.59277 15.1699 4.53809 17.3672C4.51172 17.4199 4.48535 17.4463 4.4502 17.4463C4.41504 17.4463 4.38867 17.4199 4.38867 17.3584C4.5293 13.166 6.52441 9.43066 12.1846 9.43066H13.3096C13.5117 9.43066 13.5996 9.34277 13.5996 9.14062V5.81836C13.5996 5.73926 13.6523 5.68652 13.7314 5.68652C13.7842 5.68652 13.8369 5.71289 13.8809 5.75684L19.8838 11.4873C19.9453 11.5576 19.9717 11.6016 19.9717 11.6543C19.9717 11.707 19.9541 11.751 19.8838 11.8213L13.8721 17.499C13.8281 17.543 13.7754 17.5693 13.7314 17.5693Z" fill="#1C1C1E"/>
</g>
<defs>
<clipPath id="clip0_10_1831">
<rect width="24" height="24" fill="white"/>
</clipPath>
</defs>
</svg>
