<svg width="24" height="24" viewBox="0 0 24 24" fill="none" xmlns="http://www.w3.org/2000/svg">
<g clip-path="url(#clip0_10_1655)">
<path d="M11.9912 20.7422C16.9746 20.7422 21.0879 16.6289 21.0879 11.6543C21.0879 6.67969 16.9658 2.56641 11.9824 2.56641C7.00781 2.56641 2.90332 6.67969 2.90332 11.6543C2.90332 16.6289 7.0166 20.7422 11.9912 20.7422ZM11.9912 18.9316C7.95703 18.9316 4.73145 15.6885 4.73145 11.6543C4.73145 7.62012 7.95703 4.38574 11.9824 4.38574C16.0166 4.38574 19.2598 7.62012 19.2686 11.6543C19.2773 15.6885 16.0254 18.9316 11.9912 18.9316ZM7.45605 11.6543C7.45605 11.9004 7.55273 12.0938 7.74609 12.2871L10.7256 15.2227C10.875 15.3633 11.0508 15.4424 11.2617 15.4424C11.6748 15.4424 11.9736 15.126 11.9736 14.7129C11.9736 14.4932 11.8857 14.3086 11.7451 14.1768L10.6729 13.1572L9.68848 12.3662L11.4902 12.4453H15.7793C16.2275 12.4453 16.5439 12.1025 16.5439 11.6543C16.5439 11.1973 16.2275 10.8633 15.7793 10.8633H11.4902L9.69727 10.9512L10.6816 10.1514L11.7451 9.13184C11.877 9 11.9736 8.81543 11.9736 8.5957C11.9736 8.18262 11.6748 7.875 11.2617 7.875C11.0508 7.875 10.875 7.94531 10.7256 8.08594L7.74609 11.0303C7.54395 11.2236 7.45605 11.417 7.45605 11.6543Z" fill="#1C1C1E"/>
</g>
<defs>
<clipPath id="clip0_10_1655">
<rect width="24" height="24" fill="white"/>
</clipPath>
</defs>
</svg>
