<svg width="24" height="24" viewBox="0 0 24 24" fill="none" xmlns="http://www.w3.org/2000/svg">
<g clip-path="url(#clip0_10_1705)">
<path d="M11.9912 20.6455C16.9746 20.6455 21.0879 16.5322 21.0879 11.5576C21.0879 6.57422 16.9658 2.46094 11.9824 2.46094C7.00781 2.46094 2.90332 6.57422 2.90332 11.5576C2.90332 16.5322 7.0166 20.6455 11.9912 20.6455ZM16.7109 12.6387C16.7109 14.8447 15.1377 16.2334 12.9844 16.2334H11.71C11.2529 16.2334 10.9277 15.9697 10.9277 15.5127C10.9277 15.0557 11.2529 14.792 11.6924 14.792H12.9844C14.2939 14.792 15.2256 13.9482 15.2256 12.5859C15.2256 11.2412 14.2676 10.4854 12.9844 10.4854H10.2861L9.31055 10.4414L9.83789 10.8281L10.9277 11.8301C11.0684 11.9619 11.1387 12.1465 11.1387 12.3223C11.1387 12.7266 10.8223 13.043 10.4443 13.043C10.251 13.043 10.0752 12.9727 9.94336 12.8408L7.5 10.3535C7.3418 10.1865 7.24512 9.99316 7.24512 9.77344C7.24512 9.5625 7.35059 9.36035 7.5 9.20215L9.93457 6.73242C10.0664 6.58301 10.2422 6.52148 10.4355 6.52148C10.8223 6.52148 11.1387 6.83789 11.1387 7.2334C11.1387 7.42676 11.0596 7.61133 10.9189 7.72559L9.99609 8.61328L9.31055 9.14062L10.2861 9.09668H12.9844C15.1465 9.09668 16.7109 10.4502 16.7109 12.6387Z" fill="#1C1C1E"/>
</g>
<defs>
<clipPath id="clip0_10_1705">
<rect width="24" height="24" fill="white"/>
</clipPath>
</defs>
</svg>
