<svg width="24" height="24" viewBox="0 0 24 24" fill="none" xmlns="http://www.w3.org/2000/svg">
<g clip-path="url(#clip0_10_1583)">
<path d="M6.67383 19.8809H17.3174C19.2246 19.8809 20.209 18.8965 20.209 17.0156V6.31934C20.209 4.43848 19.2246 3.4541 17.3174 3.4541H6.67383C4.77539 3.4541 3.78223 4.42969 3.78223 6.31934V17.0156C3.78223 18.8965 4.77539 19.8809 6.67383 19.8809ZM6.78809 18.1318C5.97949 18.1318 5.53125 17.71 5.53125 16.8574V6.47754C5.53125 5.625 5.97949 5.20312 6.78809 5.20312H17.2031C18.0029 5.20312 18.46 5.625 18.46 6.47754V16.8574C18.46 17.71 18.0029 18.1318 17.2031 18.1318H6.78809ZM12.0176 6.2666C11.7891 6.2666 11.6045 6.36328 11.4199 6.54785L9.00293 8.98242C8.87109 9.12305 8.80078 9.29883 8.80078 9.49219C8.80078 9.87891 9.09961 10.1602 9.48633 10.1602C9.70605 10.1602 9.89062 10.0723 10.0137 9.92285L10.541 9.37793L11.3496 8.38477L11.2705 10.1602V13.1484L11.3496 14.915L10.541 13.9307L10.0137 13.377C9.89062 13.2363 9.70605 13.1484 9.48633 13.1484C9.09961 13.1484 8.80078 13.4297 8.80078 13.8164C8.80078 14.0098 8.87109 14.1855 9.00293 14.3262L11.4199 16.7607C11.6045 16.9453 11.7891 17.042 12.0176 17.042C12.2373 17.042 12.4131 16.9453 12.6064 16.7607L15.0322 14.3262C15.1641 14.1855 15.2256 14.0098 15.2256 13.8164C15.2256 13.4297 14.9355 13.1484 14.54 13.1484C14.3291 13.1484 14.1445 13.2363 14.0215 13.377L13.4854 13.9307L12.6855 14.915L12.7559 13.1484V10.1602L12.6855 8.39355L13.4854 9.37793L14.0215 9.92285C14.1445 10.0635 14.3291 10.1602 14.54 10.1602C14.9355 10.1602 15.2256 9.87891 15.2256 9.49219C15.2256 9.29883 15.1641 9.12305 15.0322 8.98242L12.6064 6.54785C12.4131 6.36328 12.2373 6.2666 12.0176 6.2666Z" fill="#1C1C1E"/>
</g>
<defs>
<clipPath id="clip0_10_1583">
<rect width="24" height="24" fill="white"/>
</clipPath>
</defs>
</svg>
