<svg width="24" height="24" viewBox="0 0 24 24" fill="none" xmlns="http://www.w3.org/2000/svg">
<g clip-path="url(#clip0_10_1832)">
<path d="M11.9912 20.7598C16.9746 20.7598 21.0879 16.6465 21.0879 11.6631C21.0879 6.68848 16.9658 2.5752 11.9824 2.5752C7.00781 2.5752 2.90332 6.68848 2.90332 11.6631C2.90332 16.6465 7.0166 20.7598 11.9912 20.7598ZM11.1387 15.6006C10.875 15.6006 10.6816 15.4951 10.4268 15.2666L6.6123 11.6895C6.41895 11.5137 6.34863 11.3115 6.34863 11.127C6.34863 10.9336 6.41895 10.7402 6.6123 10.5645L10.4268 7.00488C10.708 6.75 10.875 6.64453 11.1299 6.64453C11.5166 6.64453 11.7891 6.94336 11.7891 7.3125V9.04395H11.9121C15.2344 9.04395 16.7812 11.1709 16.7812 14.6777C16.7812 15.2754 16.5176 15.583 16.1836 15.583C15.9287 15.583 15.7002 15.5039 15.5156 15.1523C14.7598 13.7373 13.6787 13.2275 11.9121 13.2275H11.7891V14.959C11.7891 15.3281 11.5166 15.6006 11.1387 15.6006Z" fill="#1C1C1E"/>
</g>
<defs>
<clipPath id="clip0_10_1832">
<rect width="24" height="24" fill="white"/>
</clipPath>
</defs>
</svg>
