<svg width="24" height="24" viewBox="0 0 24 24" fill="none" xmlns="http://www.w3.org/2000/svg">
<g clip-path="url(#clip0_10_1595)">
<path d="M6.67383 19.7666H17.3174C19.2246 19.7666 20.209 18.7822 20.209 16.9014V6.20508C20.209 4.32422 19.2246 3.33984 17.3174 3.33984H6.67383C4.77539 3.33984 3.78223 4.32422 3.78223 6.20508V16.9014C3.78223 18.791 4.77539 19.7666 6.67383 19.7666ZM6.78809 18.0176C5.97949 18.0176 5.53125 17.5957 5.53125 16.7432V6.36328C5.53125 5.51074 5.97949 5.08887 6.78809 5.08887H17.2031C18.0029 5.08887 18.46 5.51074 18.46 6.36328V16.7432C18.46 17.5957 18.0029 18.0176 17.2031 18.0176H6.78809ZM12.8877 7.03125C10.7783 7.03125 9.47754 8.53418 9.47754 10.6084V13.21L9.52148 14.1504L9.01172 13.4912L8.15918 12.6035C8.04492 12.4717 7.87793 12.3926 7.68457 12.3926C7.30664 12.3926 7.00781 12.6914 7.00781 13.0693C7.00781 13.2539 7.06934 13.4121 7.20996 13.5352L9.58301 15.8818C9.73242 16.0312 9.92578 16.1191 10.1367 16.1191C10.3389 16.1191 10.5234 16.0312 10.6729 15.8818L13.0723 13.5352C13.2041 13.4033 13.2656 13.2451 13.2656 13.0518C13.2656 12.6914 12.9668 12.3838 12.5801 12.3838C12.4131 12.3838 12.2285 12.4541 12.1055 12.5947L11.1387 13.6406L10.7695 14.1504L10.8135 13.21V10.6084C10.8135 9.36914 11.543 8.44629 12.8262 8.44629C14.1445 8.44629 14.9619 9.35156 14.9619 10.6084V11.8477C14.9619 12.2695 15.208 12.5859 15.6475 12.5859C16.0869 12.5859 16.333 12.2695 16.333 11.8389V10.6084C16.333 8.54297 14.9971 7.03125 12.8877 7.03125Z" fill="#1C1C1E"/>
</g>
<defs>
<clipPath id="clip0_10_1595">
<rect width="24" height="24" fill="white"/>
</clipPath>
</defs>
</svg>
