<svg width="24" height="24" viewBox="0 0 24 24" fill="none" xmlns="http://www.w3.org/2000/svg">
<g clip-path="url(#clip0_10_1827)">
<path d="M10.8311 19.8369C11.5078 19.8369 12.0176 19.3359 12.0176 18.6504V15.5039H12.2373C15.4453 15.5039 17.4053 16.4443 18.7852 19.0107C19.1367 19.6523 19.5586 19.8018 20.0244 19.8018C20.6396 19.8018 21.1143 19.2217 21.1143 18.1055C21.1143 11.7246 18.293 7.83105 12.2373 7.83105H12.0176V4.70215C12.0176 4.0166 11.5078 3.47168 10.8135 3.47168C10.3477 3.47168 10.0137 3.66504 9.50391 4.13965L2.54297 10.626C2.2002 10.9512 2.06836 11.3203 2.06836 11.6543C2.06836 11.9795 2.2002 12.3574 2.54297 12.6826L9.50391 19.2129C9.96973 19.6523 10.3477 19.8369 10.8311 19.8369ZM10.2686 17.5693C10.2246 17.5693 10.1719 17.543 10.1191 17.499L4.11621 11.8213C4.0459 11.751 4.01953 11.707 4.01953 11.6543C4.01953 11.6016 4.0459 11.5576 4.11621 11.4873L10.1191 5.75684C10.1631 5.71289 10.2158 5.68652 10.2686 5.68652C10.3477 5.68652 10.4004 5.73926 10.4004 5.81836V9.14062C10.4004 9.34277 10.4883 9.43066 10.6904 9.43066H11.8154C17.4756 9.43066 19.4619 13.166 19.6113 17.3584C19.6113 17.4199 19.585 17.4463 19.541 17.4463C19.5059 17.4463 19.4883 17.4199 19.4619 17.3672C18.416 15.1699 15.8408 13.8955 11.8154 13.8955H10.6904C10.4883 13.8955 10.4004 13.9834 10.4004 14.1855V17.4287C10.4004 17.5166 10.3477 17.5693 10.2686 17.5693Z" fill="#1C1C1E"/>
</g>
<defs>
<clipPath id="clip0_10_1827">
<rect width="24" height="24" fill="white"/>
</clipPath>
</defs>
</svg>
