<svg width="24" height="24" viewBox="0 0 24 24" fill="none" xmlns="http://www.w3.org/2000/svg">
<g clip-path="url(#clip0_10_1800)">
<path d="M5.35547 8.44629L5.36426 17.2705C5.36426 17.8857 5.76855 18.3076 6.40137 18.3076H15.2344C15.832 18.3076 16.2451 17.8594 16.2451 17.332C16.2451 16.8135 15.7969 16.3828 15.2607 16.3828H12.1055L8.37891 16.5059L9.97852 15.0996L18.3193 6.75C18.5215 6.53906 18.6357 6.29297 18.6357 6.04688C18.6357 5.52832 18.1611 5.03613 17.625 5.03613C17.3789 5.03613 17.1328 5.1416 16.9219 5.34375L8.57227 13.6934L7.14844 15.293L7.29785 11.7246V8.41992C7.29785 7.875 6.86719 7.41797 6.33105 7.41797C5.80371 7.41797 5.35547 7.86621 5.35547 8.44629Z" fill="#1C1C1E"/>
</g>
<defs>
<clipPath id="clip0_10_1800">
<rect width="24" height="24" fill="white"/>
</clipPath>
</defs>
</svg>
