<svg width="24" height="24" viewBox="0 0 24 24" fill="none" xmlns="http://www.w3.org/2000/svg">
<g clip-path="url(#clip0_10_1598)">
<path d="M11.9912 20.7422C16.9746 20.7422 21.0879 16.6289 21.0879 11.6543C21.0879 6.67969 16.9658 2.56641 11.9824 2.56641C7.00781 2.56641 2.90332 6.67969 2.90332 11.6543C2.90332 16.6289 7.0166 20.7422 11.9912 20.7422ZM11.9912 18.9316C7.95703 18.9316 4.73145 15.6885 4.73145 11.6543C4.73145 7.62012 7.95703 4.38574 11.9824 4.38574C16.0166 4.38574 19.2598 7.62012 19.2686 11.6543C19.2773 15.6885 16.0254 18.9316 11.9912 18.9316ZM7.43848 12.7002C7.43848 14.8184 8.9502 16.1543 11.0156 16.1543H12.2461C12.6768 16.1543 12.9932 15.8994 12.9932 15.46C12.9932 15.0205 12.6768 14.7744 12.2549 14.7744H11.0156C9.75879 14.7744 8.85352 13.957 8.85352 12.6475C8.85352 11.3555 9.77637 10.626 11.0156 10.626H13.6172L14.5576 10.582L14.0479 10.9512L13.002 11.9268C12.8613 12.0498 12.791 12.2256 12.791 12.4014C12.791 12.7793 13.0986 13.0781 13.459 13.0781C13.6523 13.0781 13.8105 13.0166 13.9424 12.8848L16.2891 10.4941C16.4385 10.3359 16.5264 10.1514 16.5264 9.94922C16.5264 9.73828 16.4385 9.55371 16.2891 9.39551L13.9424 7.02246C13.8193 6.88184 13.6611 6.82031 13.4678 6.82031C13.0986 6.82031 12.7998 7.12793 12.7998 7.50586C12.7998 7.69043 12.8789 7.85742 13.0107 7.98047L13.8984 8.82422L14.5576 9.33398L13.6172 9.29883H11.0156C8.94141 9.29883 7.43848 10.5996 7.43848 12.7002Z" fill="#1C1C1E"/>
</g>
<defs>
<clipPath id="clip0_10_1598">
<rect width="24" height="24" fill="white"/>
</clipPath>
</defs>
</svg>
