<svg width="24" height="24" viewBox="0 0 24 24" fill="none" xmlns="http://www.w3.org/2000/svg">
<g clip-path="url(#clip0_10_1728)">
<path d="M11.9912 20.7422C16.9746 20.7422 21.0879 16.6289 21.0879 11.6543C21.0879 6.67969 16.9658 2.56641 11.9824 2.56641C7.00781 2.56641 2.90332 6.67969 2.90332 11.6543C2.90332 16.6289 7.0166 20.7422 11.9912 20.7422ZM11.9912 18.9316C7.95703 18.9316 4.73145 15.6885 4.73145 11.6543C4.73145 7.62012 7.95703 4.38574 11.9824 4.38574C16.0166 4.38574 19.2598 7.62012 19.2686 11.6543C19.2773 15.6885 16.0254 18.9316 11.9912 18.9316ZM14.7246 13.9658C15.1729 13.9658 15.4541 13.6318 15.4541 13.1572V9.07031C15.4541 8.46387 15.1113 8.18262 14.5576 8.18262H10.4443C9.96973 8.18262 9.66211 8.47266 9.66211 8.91211C9.66211 9.35156 9.96973 9.6416 10.4531 9.6416H11.9385L13.125 9.50098L11.833 10.6787L8.75684 13.7549C8.60742 13.9043 8.51074 14.1152 8.51074 14.3262C8.51074 14.792 8.83594 15.0996 9.29297 15.0996C9.53027 15.0996 9.72363 15.0205 9.89062 14.8535L12.9492 11.7949L14.127 10.5117L13.9951 11.7686V13.166C13.9951 13.6494 14.2852 13.9658 14.7246 13.9658Z" fill="#1C1C1E"/>
</g>
<defs>
<clipPath id="clip0_10_1728">
<rect width="24" height="24" fill="white"/>
</clipPath>
</defs>
</svg>
