<svg width="24" height="24" viewBox="0 0 24 24" fill="none" xmlns="http://www.w3.org/2000/svg">
<g clip-path="url(#clip0_10_1674)">
<path d="M6.67383 19.8633H17.3174C19.2246 19.8633 20.209 18.8789 20.209 16.998V6.30176C20.209 4.4209 19.2246 3.42773 17.3174 3.42773H6.67383C4.77539 3.42773 3.78223 4.41211 3.78223 6.30176V16.998C3.78223 18.8789 4.77539 19.8633 6.67383 19.8633ZM16.7461 12.7178C16.7461 14.9238 15.1729 16.3213 13.0195 16.3213H11.7451C11.2881 16.3213 10.9629 16.0488 10.9629 15.5918C10.9629 15.1436 11.2881 14.8799 11.7275 14.8799H13.0195C14.3291 14.8799 15.2607 14.0273 15.2607 12.665C15.2607 11.3291 14.3027 10.5732 13.0195 10.5732H10.3213L9.3457 10.5205L9.87305 10.9072L10.9629 11.9092C11.1035 12.041 11.1738 12.2256 11.1738 12.4102C11.1738 12.8057 10.8574 13.1221 10.4795 13.1221C10.2861 13.1221 10.1104 13.0605 9.97852 12.9199L7.53516 10.4326C7.37695 10.2656 7.28027 10.0723 7.28027 9.86133C7.28027 9.6416 7.38574 9.44824 7.53516 9.28125L9.97852 6.82031C10.1104 6.6709 10.2773 6.60059 10.4707 6.60059C10.8574 6.60059 11.1738 6.91699 11.1738 7.32129C11.1738 7.50586 11.0947 7.69043 10.9541 7.81348L10.0312 8.69238L9.3457 9.21973L10.3213 9.17578H13.0195C15.1816 9.17578 16.7461 10.5293 16.7461 12.7178Z" fill="#1C1C1E"/>
</g>
<defs>
<clipPath id="clip0_10_1674">
<rect width="24" height="24" fill="white"/>
</clipPath>
</defs>
</svg>
