<svg width="24" height="24" viewBox="0 0 24 24" fill="none" xmlns="http://www.w3.org/2000/svg">
<g clip-path="url(#clip0_10_1660)">
<path d="M4.88086 10.9512H9.75879C10.7695 10.9512 11.3584 10.3623 11.3584 9.35156V4.54395C11.3584 3.99023 10.9365 3.57715 10.374 3.57715C9.82031 3.57715 9.41602 3.98145 9.41602 4.54395V5.16797L9.60059 7.89258L7.57031 5.75684L5.05664 3.22559C4.87207 3.03223 4.63477 2.94434 4.37109 2.94434C3.77344 2.94434 3.34277 3.34863 3.34277 3.94629C3.34277 4.21875 3.44824 4.46484 3.6416 4.64941L6.16406 7.17188L8.2998 9.20215L5.55762 9.01758H4.88086C4.31836 9.01758 3.90527 9.41309 3.90527 9.97559C3.90527 10.5381 4.31836 10.9512 4.88086 10.9512ZM13.5732 19.8457C14.127 19.8457 14.5312 19.4414 14.5312 18.8789V18.167L14.3467 15.4512L16.377 17.5869L18.9434 20.1621C19.1191 20.3555 19.3652 20.4434 19.6201 20.4434C20.2178 20.4434 20.6484 20.0391 20.6484 19.4414C20.6484 19.1689 20.543 18.9316 20.3584 18.7383L17.7832 16.1719L15.6475 14.1416L18.3896 14.3262H19.1455C19.708 14.3262 20.1211 13.9219 20.1211 13.3682C20.1211 12.7969 19.708 12.3926 19.1455 12.3926H14.1885C13.1777 12.3926 12.5889 12.9814 12.5889 13.9922V18.8789C12.5889 19.4326 13.0107 19.8457 13.5732 19.8457Z" fill="#1C1C1E"/>
</g>
<defs>
<clipPath id="clip0_10_1660">
<rect width="24" height="24" fill="white"/>
</clipPath>
</defs>
</svg>
