<svg width="24" height="24" viewBox="0 0 24 24" fill="none" xmlns="http://www.w3.org/2000/svg">
<g clip-path="url(#clip0_10_1818)">
<path d="M6.67383 19.8809H17.3174C19.2246 19.8809 20.209 18.8965 20.209 17.0156V6.31934C20.209 4.43848 19.2246 3.4541 17.3174 3.4541H6.67383C4.77539 3.4541 3.78223 4.42969 3.78223 6.31934V17.0156C3.78223 18.8965 4.77539 19.8809 6.67383 19.8809ZM12.0264 6.96094C12.5098 6.96094 12.8613 7.29492 12.8613 7.76953V12.0498L12.7734 13.9307L13.5996 12.8936L14.6016 11.8389C14.7422 11.6895 14.9443 11.6016 15.1641 11.6016C15.6035 11.6016 15.9287 11.918 15.9287 12.3486C15.9287 12.5771 15.8584 12.7441 15.709 12.9111L12.6943 15.9697C12.4922 16.1719 12.29 16.2773 12.0264 16.2773C11.7803 16.2773 11.5869 16.1807 11.376 15.9697L8.36133 12.9111C8.20312 12.7441 8.13281 12.5771 8.13281 12.3486C8.13281 11.918 8.45801 11.6016 8.89746 11.6016C9.11719 11.6016 9.31934 11.6895 9.45996 11.8389L10.4707 12.9023L11.2881 13.9219L11.2002 12.0498V7.76953C11.2002 7.29492 11.5518 6.96094 12.0264 6.96094Z" fill="#1C1C1E"/>
</g>
<defs>
<clipPath id="clip0_10_1818">
<rect width="24" height="24" fill="white"/>
</clipPath>
</defs>
</svg>
