<svg width="24" height="24" viewBox="0 0 24 24" fill="none" xmlns="http://www.w3.org/2000/svg">
<g clip-path="url(#clip0_10_1654)">
<path d="M11.9912 20.751C16.9746 20.751 21.0879 16.6377 21.0879 11.6631C21.0879 6.67969 16.9658 2.56641 11.9824 2.56641C7.00781 2.56641 2.90332 6.67969 2.90332 11.6631C2.90332 16.6377 7.0166 20.751 11.9912 20.751ZM8.84473 8.82422C8.5459 8.47266 8.64258 7.98047 9.1084 7.62891C9.85547 7.03125 10.9102 6.66211 12.0088 6.66211C14.5312 6.66211 16.5264 8.34961 16.9658 10.7754H17.8008C18.249 10.7754 18.3633 11.2148 18.1084 11.5664L16.667 13.5615C16.4033 13.9307 15.9551 13.9131 15.7002 13.5615L14.25 11.5664C13.9863 11.2236 14.1094 10.7754 14.5576 10.7754H15.4541C15.0498 9.30762 13.6699 8.20898 12.0088 8.20898C11.2178 8.20898 10.6113 8.44629 9.99609 8.91211C9.58301 9.19336 9.15234 9.18457 8.84473 8.82422ZM5.88281 11.7246L7.31543 9.72949C7.58789 9.36035 8.02734 9.37793 8.28223 9.72949L9.74121 11.7246C9.99609 12.0674 9.88184 12.5068 9.43359 12.5068H8.57227C8.97656 13.9834 10.3564 15.082 12.0264 15.082C12.8174 15.082 13.4238 14.8359 14.0303 14.3789C14.4434 14.0889 14.8828 14.0977 15.1816 14.458C15.4893 14.8096 15.3926 15.3105 14.9268 15.6621C14.1797 16.2598 13.1162 16.6201 12.0264 16.6201C9.50391 16.6201 7.50879 14.9414 7.06934 12.5068H6.18164C5.7334 12.5068 5.61914 12.0674 5.88281 11.7246Z" fill="#1C1C1E"/>
</g>
<defs>
<clipPath id="clip0_10_1654">
<rect width="24" height="24" fill="white"/>
</clipPath>
</defs>
</svg>
