<svg width="24" height="24" viewBox="0 0 24 24" fill="none" xmlns="http://www.w3.org/2000/svg">
<g clip-path="url(#clip0_10_1649)">
<path d="M6.67383 19.8809H17.3174C19.2246 19.8809 20.209 18.8965 20.209 17.0156V6.31934C20.209 4.43848 19.2246 3.4541 17.3174 3.4541H6.67383C4.77539 3.4541 3.78223 4.42969 3.78223 6.31934V17.0156C3.78223 18.8965 4.77539 19.8809 6.67383 19.8809ZM7.30664 11.6455C7.30664 11.3994 7.39453 11.1973 7.61426 10.9951L10.7168 7.93652C10.875 7.77832 11.0508 7.7168 11.2705 7.7168C11.71 7.7168 12.0176 8.0332 12.0176 8.47266C12.0176 8.69238 11.9209 8.89453 11.7803 9.03516L10.6816 10.0898L9.65332 10.9072L11.5254 10.8193H15.9639C16.4297 10.8193 16.7637 11.1709 16.7637 11.6543C16.7637 12.1289 16.4297 12.4805 15.9639 12.4805H11.5254L9.65332 12.3926L10.6729 13.21L11.7803 14.2646C11.9297 14.4053 12.0176 14.6074 12.0176 14.8271C12.0176 15.2666 11.71 15.5918 11.2705 15.5918C11.0508 15.5918 10.875 15.5127 10.7168 15.3633L7.61426 12.3135C7.40332 12.1113 7.30664 11.9092 7.30664 11.6455Z" fill="#1C1C1E"/>
</g>
<defs>
<clipPath id="clip0_10_1649">
<rect width="24" height="24" fill="white"/>
</clipPath>
</defs>
</svg>
