<svg width="24" height="24" viewBox="0 0 24 24" fill="none" xmlns="http://www.w3.org/2000/svg">
<g clip-path="url(#clip0_10_1614)">
<path d="M11.9912 20.7422C16.9746 20.7422 21.0879 16.6289 21.0879 11.6543C21.0879 6.67969 16.9658 2.56641 11.9824 2.56641C7.00781 2.56641 2.90332 6.67969 2.90332 11.6543C2.90332 16.6289 7.0166 20.7422 11.9912 20.7422ZM11.9912 18.9316C7.95703 18.9316 4.73145 15.6885 4.73145 11.6543C4.73145 7.62012 7.95703 4.38574 11.9824 4.38574C16.0166 4.38574 19.2598 7.62012 19.2686 11.6543C19.2773 15.6885 16.0254 18.9316 11.9912 18.9316ZM11.9912 16.1016C12.4482 16.1016 12.7822 15.7764 12.7822 15.3369V11.1973L12.7031 9.38672L13.5029 10.3887L14.4785 11.4082C14.6104 11.5488 14.7949 11.6367 15.0146 11.6367C15.4277 11.6367 15.7354 11.3291 15.7354 10.9248C15.7354 10.7139 15.665 10.5381 15.5244 10.3887L12.624 7.45312C12.4395 7.25098 12.2373 7.1543 11.9912 7.1543C11.7539 7.1543 11.5693 7.25098 11.3672 7.45312L8.4668 10.3887C8.31738 10.5381 8.25586 10.7139 8.25586 10.9248C8.25586 11.3291 8.56348 11.6367 8.97656 11.6367C9.19629 11.6367 9.38086 11.5488 9.5127 11.4082L10.4971 10.3799L11.2881 9.39551L11.209 11.1973V15.3369C11.209 15.7764 11.543 16.1016 11.9912 16.1016Z" fill="#1C1C1E"/>
</g>
<defs>
<clipPath id="clip0_10_1614">
<rect width="24" height="24" fill="white"/>
</clipPath>
</defs>
</svg>
