<svg width="24" height="24" viewBox="0 0 24 24" fill="none" xmlns="http://www.w3.org/2000/svg">
<g clip-path="url(#clip0_10_1798)">
<path d="M11.9912 20.7422C16.9746 20.7422 21.0879 16.6289 21.0879 11.6543C21.0879 6.67969 16.9658 2.56641 11.9824 2.56641C7.00781 2.56641 2.90332 6.67969 2.90332 11.6543C2.90332 16.6289 7.0166 20.7422 11.9912 20.7422ZM11.9912 18.9316C7.95703 18.9316 4.73145 15.6885 4.73145 11.6543C4.73145 7.62012 7.95703 4.38574 11.9824 4.38574C16.0166 4.38574 19.2598 7.62012 19.2686 11.6543C19.2773 15.6885 16.0254 18.9316 11.9912 18.9316ZM11.9912 7.1543C11.543 7.1543 11.209 7.4707 11.209 7.91895V12.0586L11.2881 13.8516L10.4971 12.876L9.5127 11.8477C9.38086 11.707 9.19629 11.6191 8.97656 11.6191C8.56348 11.6191 8.25586 11.9268 8.25586 12.3311C8.25586 12.542 8.31738 12.7178 8.4668 12.8672L11.3672 15.8027C11.5693 16.0049 11.7539 16.1016 11.9912 16.1016C12.2373 16.1016 12.4395 15.9961 12.624 15.8027L15.5244 12.8672C15.665 12.7178 15.7354 12.542 15.7354 12.3311C15.7354 11.9268 15.4277 11.6191 15.0146 11.6191C14.7949 11.6191 14.6104 11.6982 14.4785 11.8477L13.5029 12.8672L12.7031 13.8604L12.7822 12.0586V7.91895C12.7822 7.4707 12.4482 7.1543 11.9912 7.1543Z" fill="#1C1C1E"/>
</g>
<defs>
<clipPath id="clip0_10_1798">
<rect width="24" height="24" fill="white"/>
</clipPath>
</defs>
</svg>
