<svg width="24" height="24" viewBox="0 0 24 24" fill="none" xmlns="http://www.w3.org/2000/svg">
<g clip-path="url(#clip0_10_1703)">
<path d="M16.1309 10.793C16.4561 10.8809 16.7109 10.8721 16.957 10.7227C17.2119 10.5645 17.3525 10.3535 17.4404 10.0371L18.1699 7.13672C18.2842 6.69727 18.0469 6.28418 17.6162 6.1875C17.2031 6.08203 16.7725 6.31055 16.6758 6.75879L16.3857 7.97168L14.1709 4.02539C13.7051 3.17285 12.8525 2.75098 12 2.75098C11.1475 2.75098 10.2949 3.17285 9.82031 4.02539L7.52637 8.1123C7.2627 8.56934 7.39453 9.04395 7.81641 9.28125C8.24707 9.52734 8.74805 9.38672 8.98535 8.95605L11.209 4.96582C11.3848 4.6582 11.6924 4.52637 12 4.52637C12.2988 4.52637 12.6064 4.6582 12.7734 4.96582L14.9619 8.87695L13.6787 8.49902C13.2393 8.36719 12.8174 8.60449 12.7031 9.03516C12.5889 9.44824 12.8174 9.85254 13.2568 9.97559L16.1309 10.793ZM5.27637 19.8721H9.73242C10.2246 19.8721 10.5938 19.5205 10.5938 19.0283C10.5938 18.5449 10.2246 18.1934 9.73242 18.1934H5.39062C4.85449 18.1934 4.49414 17.7627 4.49414 17.2793C4.49414 17.1299 4.53809 16.9365 4.62598 16.7783L6.63867 13.1572L6.92871 14.3701C7.02539 14.8184 7.46484 15.0557 7.87793 14.9414C8.2998 14.8359 8.53711 14.4316 8.42285 13.9922L7.69336 11.1006C7.61426 10.7754 7.46484 10.5557 7.21875 10.415C6.96387 10.2656 6.70898 10.248 6.38379 10.3447L3.50977 11.1533C3.07031 11.2764 2.8418 11.6982 2.95605 12.1025C3.07031 12.5244 3.49219 12.7793 3.92285 12.6387L5.20605 12.2607L3.08789 16.04C2.85938 16.4531 2.71875 16.875 2.71875 17.3232C2.71875 18.7383 3.67676 19.8721 5.27637 19.8721ZM14.373 21.876C14.6895 22.1924 15.1641 22.1748 15.4629 21.8672C15.7705 21.5684 15.7705 21.0762 15.4365 20.7598L14.4961 19.8721H18.7236C20.3145 19.8721 21.2725 18.7383 21.2725 17.3232C21.2725 16.875 21.1406 16.4619 20.9033 16.04L18.7324 12.1553C18.4863 11.707 17.9941 11.5928 17.5723 11.8301C17.1592 12.0762 17.0186 12.5771 17.2559 12.999L19.3652 16.7783C19.4531 16.9365 19.4971 17.1299 19.4971 17.2793C19.4971 17.7627 19.1367 18.1934 18.6006 18.1934H14.4961L15.4365 17.3057C15.7705 16.9893 15.7705 16.4971 15.4629 16.1895C15.1641 15.8906 14.6895 15.8818 14.3643 16.1982L12.2285 18.2725C11.9824 18.5098 11.877 18.7383 11.877 19.0283C11.877 19.3271 11.9824 19.5557 12.2285 19.793L14.373 21.876Z" fill="#1C1C1E"/>
</g>
<defs>
<clipPath id="clip0_10_1703">
<rect width="24" height="24" fill="white"/>
</clipPath>
</defs>
</svg>
