<svg width="24" height="24" viewBox="0 0 24 24" fill="none" xmlns="http://www.w3.org/2000/svg">
<g clip-path="url(#clip0_10_1585)">
<path d="M11.9912 20.7422C16.9746 20.7422 21.0879 16.6289 21.0879 11.6543C21.0879 6.67969 16.9658 2.56641 11.9824 2.56641C7.00781 2.56641 2.90332 6.67969 2.90332 11.6543C2.90332 16.6289 7.0166 20.7422 11.9912 20.7422ZM11.9912 18.9316C7.95703 18.9316 4.73145 15.6885 4.73145 11.6543C4.73145 7.62012 7.95703 4.38574 11.9824 4.38574C16.0166 4.38574 19.2598 7.62012 19.2686 11.6543C19.2773 15.6885 16.0254 18.9316 11.9912 18.9316ZM12 6.27539C11.7715 6.27539 11.5869 6.37207 11.4023 6.55664L8.98535 8.99121C8.85352 9.13184 8.7832 9.29883 8.7832 9.49219C8.7832 9.8877 9.08203 10.1689 9.47754 10.1689C9.68848 10.1689 9.87305 10.0811 9.99609 9.93164L10.5234 9.38672L11.332 8.39355L11.2617 10.1689V13.1484L11.332 14.9238L10.5234 13.9395L9.99609 13.3857C9.87305 13.2363 9.68848 13.1484 9.47754 13.1484C9.08203 13.1484 8.7832 13.4385 8.7832 13.8252C8.7832 14.0186 8.85352 14.1943 8.98535 14.3262L11.4023 16.7695C11.5869 16.9541 11.7715 17.042 12 17.042C12.2285 17.042 12.4043 16.9541 12.5889 16.7695L15.0146 14.3262C15.1465 14.1943 15.208 14.0186 15.208 13.8252C15.208 13.4385 14.918 13.1484 14.5312 13.1484C14.3115 13.1484 14.127 13.2451 14.0039 13.3857L13.4678 13.9395L12.668 14.915L12.7471 13.1484V10.1689L12.668 8.40234L13.4678 9.38672L14.0039 9.93164C14.127 10.0723 14.3115 10.1689 14.5312 10.1689C14.918 10.1689 15.208 9.8877 15.208 9.49219C15.208 9.29883 15.1465 9.13184 15.0146 8.99121L12.5889 6.55664C12.4043 6.37207 12.2285 6.27539 12 6.27539Z" fill="#1C1C1E"/>
</g>
<defs>
<clipPath id="clip0_10_1585">
<rect width="24" height="24" fill="white"/>
</clipPath>
</defs>
</svg>
