<svg width="24" height="24" viewBox="0 0 24 24" fill="none" xmlns="http://www.w3.org/2000/svg">
<g clip-path="url(#clip0_10_1578)">
<path d="M4.10742 11.5049C4.10742 12.085 4.51172 12.4805 5.10059 12.4805H13.2217L15.0674 12.3926L12.5273 14.7041L10.7607 16.4971C10.5762 16.6816 10.4619 16.9189 10.4619 17.2002C10.4619 17.7451 10.8662 18.1406 11.4199 18.1406C11.6836 18.1406 11.9209 18.0352 12.1406 17.8242L17.6689 12.2344C17.8184 12.085 17.9238 11.9092 17.9678 11.707V17.3057C17.9678 17.8506 18.3809 18.2461 18.9258 18.2461C19.4795 18.2461 19.8926 17.8506 19.8926 17.3057V5.71289C19.8926 5.16797 19.4795 4.76367 18.9258 4.76367C18.3809 4.76367 17.9678 5.16797 17.9678 5.71289V11.2939C17.9238 11.1006 17.8184 10.9248 17.6689 10.7754L12.1406 5.17676C11.9209 4.96582 11.6836 4.86035 11.4199 4.86035C10.8662 4.86035 10.4619 5.26465 10.4619 5.80078C10.4619 6.08203 10.5762 6.32812 10.7607 6.50391L12.5273 8.30566L15.0674 10.6084L13.2217 10.5205H5.10059C4.51172 10.5205 4.10742 10.9248 4.10742 11.5049Z" fill="#1C1C1E"/>
</g>
<defs>
<clipPath id="clip0_10_1578">
<rect width="24" height="24" fill="white"/>
</clipPath>
</defs>
</svg>
