<svg width="24" height="24" viewBox="0 0 24 24" fill="none" xmlns="http://www.w3.org/2000/svg">
<g clip-path="url(#clip0_10_1570)">
<path d="M11.9912 20.7422C16.9746 20.7422 21.0879 16.6289 21.0879 11.6543C21.0879 6.67969 16.9658 2.56641 11.9824 2.56641C7.00781 2.56641 2.90332 6.67969 2.90332 11.6543C2.90332 16.6289 7.0166 20.7422 11.9912 20.7422ZM11.9912 18.9316C7.95703 18.9316 4.73145 15.6885 4.73145 11.6543C4.73145 7.62012 7.95703 4.38574 11.9824 4.38574C16.0166 4.38574 19.2598 7.62012 19.2686 11.6543C19.2773 15.6885 16.0254 18.9316 11.9912 18.9316ZM15.876 12.0586C15.876 9.9668 14.1973 8.29688 12.2812 8.23535C12.2021 8.23535 12.1143 8.24414 12.0527 8.24414L12.5713 7.7168C12.668 7.60254 12.7383 7.46191 12.7383 7.28613C12.7383 6.96094 12.4834 6.68848 12.123 6.68848C11.9473 6.68848 11.7891 6.77637 11.666 6.89062L10.0312 8.55176C9.81152 8.78906 9.79395 9.21094 10.04 9.44824L11.6836 11.1006C11.7891 11.2061 11.9561 11.2852 12.1143 11.2852C12.4658 11.2852 12.7295 11.0303 12.7295 10.6787C12.7295 10.5205 12.6768 10.3799 12.5801 10.2744L11.877 9.58008C11.9648 9.57129 12.0703 9.57129 12.1758 9.57129C13.5029 9.61523 14.5488 10.7227 14.5488 12.0762C14.5488 13.5088 13.4062 14.6514 11.9824 14.6514C10.5586 14.6514 9.4248 13.5088 9.4248 12.0762C9.4248 11.7158 9.11719 11.4258 8.75684 11.4258C8.39648 11.4258 8.08887 11.7158 8.08887 12.0762C8.08887 14.2383 9.8291 15.9873 11.9824 15.9873C14.1357 15.9873 15.876 14.2383 15.876 12.0586Z" fill="#1C1C1E"/>
</g>
<defs>
<clipPath id="clip0_10_1570">
<rect width="24" height="24" fill="white"/>
</clipPath>
</defs>
</svg>
