<svg width="24" height="24" viewBox="0 0 24 24" fill="none" xmlns="http://www.w3.org/2000/svg">
<g clip-path="url(#clip0_10_1719)">
<path d="M6.20801 3.59473L1.77832 8.12988C1.60254 8.30566 1.48828 8.57812 1.48828 8.81543C1.48828 9.36914 1.875 9.74707 2.41992 9.74707C2.68359 9.74707 2.89453 9.65918 3.07031 9.47461L4.88086 7.59375L6.04102 6.25781L5.9707 8.12109V19.0811C5.9707 19.6348 6.36621 20.0303 6.91113 20.0303C7.45605 20.0303 7.84277 19.6348 7.84277 19.0811V8.12109L7.78125 6.25781L8.93262 7.59375L10.7432 9.47461C10.9189 9.65918 11.1387 9.74707 11.4023 9.74707C11.9385 9.74707 12.3252 9.36914 12.3252 8.81543C12.3252 8.57812 12.2109 8.30566 12.0352 8.12988L7.60547 3.59473C7.21875 3.19043 6.60352 3.18164 6.20801 3.59473ZM17.792 19.7227L22.2217 15.1875C22.3975 15.0029 22.5117 14.7305 22.5117 14.4932C22.5117 13.9482 22.125 13.5703 21.5801 13.5703C21.3164 13.5703 21.1055 13.6582 20.9297 13.834L19.1191 15.7148L17.959 17.0508L18.0293 15.1875V4.22754C18.0293 3.69141 17.6338 3.28711 17.0889 3.28711C16.5527 3.28711 16.1572 3.69141 16.1572 4.22754V15.1875L16.2188 17.0508L15.0674 15.7148L13.2568 13.834C13.0811 13.6582 12.8613 13.5703 12.6064 13.5703C12.0615 13.5703 11.6748 13.9482 11.6748 14.4932C11.6748 14.7305 11.7891 15.0029 11.9648 15.1875L16.3945 19.7227C16.7812 20.1357 17.3965 20.1445 17.792 19.7227Z" fill="#1C1C1E"/>
</g>
<defs>
<clipPath id="clip0_10_1719">
<rect width="24" height="24" fill="white"/>
</clipPath>
</defs>
</svg>
