<svg width="24" height="24" viewBox="0 0 24 24" fill="none" xmlns="http://www.w3.org/2000/svg">
<g clip-path="url(#clip0_10_1761)">
<path d="M19.04 4.61426C18.1348 3.71777 16.8867 3.5332 15.2783 3.5332H8.69531C7.10449 3.5332 5.85645 3.71777 4.95117 4.62305C4.0459 5.51953 3.87891 6.75879 3.87891 8.34961V14.9326C3.87891 16.5498 4.0459 17.7891 4.95117 18.6855C5.85645 19.5908 7.10449 19.7666 8.71289 19.7666H15.2783C16.8867 19.7666 18.1348 19.5908 19.04 18.6855C19.9453 17.7803 20.1123 16.5498 20.1123 14.9326V8.37598C20.1123 6.75879 19.9453 5.51953 19.04 4.61426ZM12.0088 6.96094C12.4834 6.96094 12.835 7.29492 12.835 7.76953V12.0498L12.7471 13.9307L13.5732 12.8936L14.584 11.8389C14.7246 11.6895 14.9268 11.6016 15.1465 11.6016C15.5859 11.6016 15.9111 11.918 15.9111 12.3486C15.9111 12.5771 15.8408 12.7441 15.6826 12.9111L12.668 15.9697C12.4658 16.1719 12.2725 16.2773 12.0088 16.2773C11.7539 16.2773 11.5605 16.1807 11.3496 15.9697L8.33496 12.9111C8.17676 12.7441 8.11523 12.5771 8.11523 12.3486C8.11523 11.918 8.43164 11.6016 8.87109 11.6016C9.09082 11.6016 9.29297 11.6895 9.43359 11.8389L10.4531 12.9023L11.2617 13.9219L11.1738 12.0498V7.76953C11.1738 7.29492 11.5342 6.96094 12.0088 6.96094Z" fill="#1C1C1E"/>
</g>
<defs>
<clipPath id="clip0_10_1761">
<rect width="24" height="24" fill="white"/>
</clipPath>
</defs>
</svg>
