<svg width="24" height="24" viewBox="0 0 24 24" fill="none" xmlns="http://www.w3.org/2000/svg">
<g clip-path="url(#clip0_10_1634)">
<path d="M20.3145 11.6455C20.3145 11.373 20.2002 11.1094 19.998 10.916L14.2236 5.1416C13.9951 4.92188 13.7578 4.8252 13.5117 4.8252C12.9492 4.8252 12.5449 5.2207 12.5449 5.75684C12.5449 6.03809 12.6592 6.27539 12.835 6.45117L14.8125 8.45508L17.3613 10.7842L15.3223 10.6611H4.66992C4.08105 10.6611 3.67676 11.0654 3.67676 11.6455C3.67676 12.2168 4.08105 12.6211 4.66992 12.6211H15.3223L17.3613 12.498L14.8125 14.8271L12.835 16.8311C12.6592 17.0068 12.5449 17.2441 12.5449 17.5254C12.5449 18.0615 12.9492 18.457 13.5117 18.457C13.7578 18.457 13.9951 18.3604 14.2061 18.1582L19.998 12.3662C20.2002 12.1729 20.3145 11.9092 20.3145 11.6455Z" fill="#1C1C1E"/>
</g>
<defs>
<clipPath id="clip0_10_1634">
<rect width="24" height="24" fill="white"/>
</clipPath>
</defs>
</svg>
