<svg width="24" height="24" viewBox="0 0 24 24" fill="none" xmlns="http://www.w3.org/2000/svg">
<g clip-path="url(#clip0_10_1609)">
<path d="M6.67383 19.7578H17.3174C19.2246 19.7578 20.209 18.7734 20.209 16.8926V6.19629C20.209 4.31543 19.2246 3.33105 17.3174 3.33105H6.67383C4.77539 3.33105 3.78223 4.30664 3.78223 6.19629V16.8926C3.78223 18.7734 4.77539 19.7578 6.67383 19.7578ZM7.28027 12.6211C7.28027 10.4238 8.85352 9.07031 11.0156 9.07031H13.7139L14.6895 9.11426L14.0039 8.58691L13.0811 7.70801C12.9404 7.58496 12.8613 7.40918 12.8613 7.21582C12.8613 6.81152 13.1777 6.50391 13.5645 6.50391C13.7578 6.50391 13.9248 6.56543 14.0566 6.71484L16.5 9.18457C16.6494 9.34277 16.7461 9.54492 16.7461 9.75586C16.7461 9.9668 16.6494 10.1689 16.5 10.3271L14.0566 12.8145C13.9248 12.9551 13.749 13.0166 13.5557 13.0166C13.1689 13.0166 12.8613 12.709 12.8613 12.3047C12.8613 12.1201 12.9229 11.9355 13.0723 11.8037L14.1533 10.8018L14.6895 10.4238L13.7139 10.4678H11.0156C9.72363 10.4678 8.76562 11.2236 8.76562 12.5596C8.76562 13.9219 9.70605 14.7744 11.0156 14.7744H12.3076C12.7383 14.7744 13.0723 15.0381 13.0723 15.4863C13.0723 15.9521 12.7471 16.2158 12.29 16.2158H11.0156C8.8623 16.2158 7.28027 14.8184 7.28027 12.6211Z" fill="#1C1C1E"/>
</g>
<defs>
<clipPath id="clip0_10_1609">
<rect width="24" height="24" fill="white"/>
</clipPath>
</defs>
</svg>
