<svg width="24" height="24" viewBox="0 0 24 24" fill="none" xmlns="http://www.w3.org/2000/svg">
<g clip-path="url(#clip0_10_1833)">
<path d="M11.9912 20.7422C16.9746 20.7422 21.0879 16.6289 21.0879 11.6543C21.0879 6.67969 16.9658 2.56641 11.9824 2.56641C7.00781 2.56641 2.90332 6.67969 2.90332 11.6543C2.90332 16.6289 7.0166 20.7422 11.9912 20.7422ZM11.9912 18.9316C7.95703 18.9316 4.73145 15.6885 4.73145 11.6543C4.73145 7.62012 7.95703 4.38574 11.9824 4.38574C16.0166 4.38574 19.2598 7.62012 19.2686 11.6543C19.2773 15.6885 16.0254 18.9316 11.9912 18.9316ZM11.2266 15.4336C11.5781 15.4336 11.8418 15.1611 11.8418 14.8096V13.1396H11.9648C13.6699 13.1396 14.7158 13.6318 15.4453 15.0029C15.6211 15.3281 15.8496 15.4072 16.0869 15.4072C16.4033 15.4072 16.6582 15.1084 16.6582 14.5459C16.6582 11.1709 15.1641 9.12305 11.9648 9.12305H11.8418V7.44434C11.8418 7.10156 11.5781 6.81152 11.2178 6.81152C10.9717 6.81152 10.8047 6.91699 10.541 7.16309L6.86719 10.582C6.68262 10.749 6.6123 10.9424 6.6123 11.1182C6.6123 11.2939 6.68262 11.4961 6.86719 11.6631L10.541 15.0996C10.7783 15.3193 10.9805 15.4336 11.2266 15.4336Z" fill="#1C1C1E"/>
</g>
<defs>
<clipPath id="clip0_10_1833">
<rect width="24" height="24" fill="white"/>
</clipPath>
</defs>
</svg>
