<svg width="24" height="24" viewBox="0 0 24 24" fill="none" xmlns="http://www.w3.org/2000/svg">
<g clip-path="url(#clip0_10_1593)">
<path d="M4.88086 14.959C5.56641 15.583 6.38379 15.0996 6.38379 14.2822V12.6035H11.0508V17.2705H9.35449C8.53711 17.2705 8.0625 18.0967 8.67773 18.7734L11.2529 21.5859C11.6748 22.0605 12.3164 22.0605 12.7383 21.5859L15.3047 18.7822C15.9287 18.0967 15.4541 17.2705 14.6279 17.2705H12.9492V12.6035H17.5986V14.2822C17.5986 15.0996 18.4248 15.583 19.1104 14.959L21.9141 12.3926C22.3887 11.9619 22.3799 11.3203 21.9141 10.9072L19.1016 8.33203C18.4248 7.7168 17.5986 8.19141 17.5986 9.00879V10.6963H12.9492V6.02051H14.6279C15.4541 6.02051 15.9287 5.19434 15.3047 4.50879L12.7295 1.69629C12.2988 1.22168 11.6572 1.24805 11.2441 1.71387L8.67773 4.52637C8.0625 5.19434 8.53711 6.02051 9.35449 6.02051H11.0508V10.6963H6.38379V9.00879C6.38379 8.19141 5.55762 7.7168 4.88965 8.33203L2.07715 10.8984C1.62012 11.3115 1.58496 11.9531 2.06836 12.3838L4.88086 14.959Z" fill="#1C1C1E"/>
</g>
<defs>
<clipPath id="clip0_10_1593">
<rect width="24" height="24" fill="white"/>
</clipPath>
</defs>
</svg>
