<svg width="24" height="24" viewBox="0 0 24 24" fill="none" xmlns="http://www.w3.org/2000/svg">
<g clip-path="url(#clip0_10_1685)">
<path d="M6.67383 19.8809H17.3174C19.2246 19.8809 20.209 18.8965 20.209 17.0156V6.31934C20.209 4.43848 19.2246 3.4541 17.3174 3.4541H6.67383C4.77539 3.4541 3.78223 4.42969 3.78223 6.31934V17.0156C3.78223 18.8965 4.77539 19.8809 6.67383 19.8809ZM6.78809 18.1318C5.97949 18.1318 5.53125 17.71 5.53125 16.8574V6.47754C5.53125 5.625 5.97949 5.20312 6.78809 5.20312H17.2031C18.0029 5.20312 18.46 5.625 18.46 6.47754V16.8574C18.46 17.71 18.0029 18.1318 17.2031 18.1318H6.78809ZM7.92188 8.63965C7.67578 8.87695 7.67578 9.29004 7.92188 9.52734L10.1104 11.6631C10.2246 11.7686 10.3916 11.8389 10.541 11.8389C10.8838 11.8389 11.1299 11.6016 11.1299 11.25C11.1299 11.0918 11.0684 10.9424 10.9541 10.8281L10.04 9.94043L9.74121 9.66797L10.1719 9.68555H15.665C16.0078 9.68555 16.2627 9.42188 16.2627 9.0791C16.2627 8.73633 16.0078 8.48145 15.665 8.48145H10.1807L9.75 8.49023L10.04 8.22656L10.9541 7.33887C11.0684 7.2334 11.1299 7.0752 11.1299 6.91699C11.1299 6.56543 10.8838 6.31934 10.541 6.31934C10.3828 6.31934 10.2158 6.39844 10.1104 6.5127L7.92188 8.63965ZM16.0693 14.6865C16.3242 14.4404 16.3154 14.0537 16.0693 13.8076L13.8896 11.6807C13.7842 11.5664 13.6084 11.4961 13.459 11.4961C13.1074 11.4961 12.8613 11.7334 12.8613 12.085C12.8613 12.2432 12.9229 12.3926 13.0371 12.5068L13.96 13.3857L14.2588 13.667L13.8193 13.6494H8.32617C7.99219 13.6494 7.7373 13.9043 7.7373 14.2471C7.7373 14.5898 7.99219 14.8535 8.32617 14.8535H13.8105L14.2588 14.8359L13.96 15.1084L13.0459 15.9961C12.9316 16.1104 12.8613 16.251 12.8613 16.418C12.8613 16.7607 13.1162 17.0156 13.459 17.0156C13.5996 17.0156 13.7666 16.9365 13.8896 16.8311L16.0693 14.6865Z" fill="#1C1C1E"/>
</g>
<defs>
<clipPath id="clip0_10_1685">
<rect width="24" height="24" fill="white"/>
</clipPath>
</defs>
</svg>
