<svg width="24" height="24" viewBox="0 0 24 24" fill="none" xmlns="http://www.w3.org/2000/svg">
<g clip-path="url(#clip0_10_1742)">
<path d="M19.251 18.7031C19.8662 18.7031 20.1387 18.2549 20.2178 17.8242C20.2881 17.4727 20.3057 17.0156 20.3057 16.4971C20.3057 12.375 18.5918 10.4941 14.5312 10.4941H8.73926L6.64746 10.6172L9.21387 8.2793L11.1826 6.28418C11.3584 6.1084 11.4727 5.8623 11.4727 5.58984C11.4727 5.05371 11.0684 4.64941 10.5059 4.64941C10.2598 4.64941 10.0225 4.75488 9.79395 4.97461L4.01074 10.7402C3.80859 10.9424 3.69434 11.2061 3.69434 11.4785C3.69434 11.7422 3.80859 12.0059 4.01074 12.208L9.81152 17.9912C10.0225 18.2021 10.2598 18.2988 10.5059 18.2988C11.0684 18.2988 11.4727 17.8945 11.4727 17.3584C11.4727 17.0859 11.3584 16.8398 11.1826 16.6641L9.21387 14.6777L6.63867 12.3311L8.73926 12.4541H14.4082C17.2998 12.4541 18.3281 13.6406 18.3281 16.5586C18.3281 17.0508 18.293 17.4023 18.293 17.7363C18.293 18.3076 18.6797 18.7031 19.251 18.7031Z" fill="#1C1C1E"/>
</g>
<defs>
<clipPath id="clip0_10_1742">
<rect width="24" height="24" fill="white"/>
</clipPath>
</defs>
</svg>
