<svg width="24" height="24" viewBox="0 0 24 24" fill="none" xmlns="http://www.w3.org/2000/svg">
<g clip-path="url(#clip0_10_1754)">
<path d="M11.9912 20.7422C16.9746 20.7422 21.0879 16.6289 21.0879 11.6543C21.0879 6.67969 16.9658 2.56641 11.9824 2.56641C7.00781 2.56641 2.90332 6.67969 2.90332 11.6543C2.90332 16.6289 7.0166 20.7422 11.9912 20.7422ZM11.9912 18.9316C7.95703 18.9316 4.73145 15.6885 4.73145 11.6543C4.73145 7.62012 7.95703 4.38574 11.9824 4.38574C16.0166 4.38574 19.2598 7.62012 19.2686 11.6543C19.2773 15.6885 16.0254 18.9316 11.9912 18.9316ZM9.24023 9.3252C8.80078 9.3252 8.51074 9.65918 8.51074 10.125V14.2119C8.51074 14.8271 8.85352 15.0996 9.40723 15.0996H13.5205C13.9951 15.0996 14.3115 14.8184 14.3115 14.3789C14.3115 13.9307 13.9951 13.6494 13.5117 13.6494H12.0264L10.8398 13.79L12.1318 12.6035L15.208 9.52734C15.3574 9.37793 15.4541 9.17578 15.4541 8.96484C15.4541 8.49023 15.1289 8.18262 14.6807 8.18262C14.4346 8.18262 14.2412 8.27051 14.083 8.42871L11.0156 11.4961L9.83789 12.7705L9.96973 11.5137V10.1162C9.96973 9.63281 9.67969 9.3252 9.24023 9.3252Z" fill="#1C1C1E"/>
</g>
<defs>
<clipPath id="clip0_10_1754">
<rect width="24" height="24" fill="white"/>
</clipPath>
</defs>
</svg>
