<svg width="24" height="24" viewBox="0 0 24 24" fill="none" xmlns="http://www.w3.org/2000/svg">
<g clip-path="url(#clip0_10_1763)">
<path d="M19.1367 4.5791C18.2227 3.67383 16.9746 3.48926 15.3662 3.48926H8.61621C7.02539 3.48926 5.77734 3.67383 4.87207 4.5791C3.9668 5.47559 3.7998 6.71484 3.7998 8.30566V15.0029C3.7998 16.6201 3.9668 17.8594 4.87207 18.7559C5.77734 19.6611 7.02539 19.8369 8.63379 19.8369H15.3662C16.9746 19.8369 18.2314 19.6611 19.1367 18.7559C20.0332 17.8506 20.2002 16.6201 20.2002 15.0029V8.33203C20.2002 6.71484 20.0332 5.47559 19.1367 4.5791ZM18.4512 8.08594V15.249C18.4512 16.1631 18.3369 16.9893 17.8535 17.4727C17.3613 17.9648 16.5264 18.0879 15.6123 18.0879H8.39648C7.48242 18.0879 6.63867 17.9561 6.15527 17.4727C5.67188 16.9893 5.54883 16.1631 5.54883 15.249V8.10352C5.54883 7.17188 5.67188 6.33691 6.15527 5.85352C6.63867 5.37012 7.48242 5.24707 8.41406 5.24707H15.6123C16.5264 5.24707 17.3613 5.37012 17.8535 5.85352C18.3369 6.3457 18.4512 7.17188 18.4512 8.08594ZM12.0176 7.14551C11.5605 7.14551 11.2266 7.4707 11.2266 7.91016V12.0498L11.3057 13.8516L10.5146 12.8672L9.53027 11.8389C9.40723 11.707 9.21387 11.6191 9.00293 11.6191C8.58105 11.6191 8.28223 11.918 8.28223 12.3223C8.28223 12.5332 8.34375 12.709 8.48438 12.8584L11.3936 15.7939C11.5869 15.9961 11.7715 16.0928 12.0176 16.0928C12.2637 16.0928 12.457 15.9961 12.6504 15.7939L15.542 12.8584C15.6914 12.709 15.7617 12.5332 15.7617 12.3223C15.7617 11.918 15.4453 11.6191 15.0322 11.6191C14.8213 11.6191 14.6279 11.6982 14.4961 11.8389L13.5205 12.8584L12.7207 13.8604L12.7998 12.0498V7.91016C12.7998 7.4707 12.4658 7.14551 12.0176 7.14551Z" fill="#1C1C1E"/>
</g>
<defs>
<clipPath id="clip0_10_1763">
<rect width="24" height="24" fill="white"/>
</clipPath>
</defs>
</svg>
