<svg width="24" height="24" viewBox="0 0 24 24" fill="none" xmlns="http://www.w3.org/2000/svg">
<g clip-path="url(#clip0_10_1791)">
<path d="M8.36133 19.9424C8.7832 19.9424 9.07324 19.7314 9.21387 19.3184C10.1367 16.5586 11.5693 15.4951 13.9248 15.4951L14.2061 15.5039V18.6504C14.2061 19.3359 14.7158 19.8369 15.4014 19.8369C15.876 19.8369 16.2539 19.6436 16.7197 19.2129L23.6807 12.6826C24.0234 12.3574 24.1553 11.9795 24.1553 11.6543C24.1553 11.3203 24.0322 10.9512 23.6807 10.626L16.7197 4.13086C16.21 3.66504 15.8848 3.47168 15.4102 3.47168C14.7158 3.47168 14.2061 4.0166 14.2061 4.70215V7.83105H13.9863C11.3145 7.83105 9.00293 9.33398 8.39648 12.542H8.30859C7.64941 9.05273 5.17969 7.83984 2.7627 7.83984H2.14746C0.855469 7.83984 0.28418 8.40234 0.28418 9.78223V13.8516C0.28418 14.9854 0.855469 15.5127 2.08594 15.5127H3.10547C5.38184 15.5127 6.8584 17.0684 7.51758 19.3096C7.64941 19.7314 7.93945 19.9424 8.36133 19.9424Z" fill="#1C1C1E"/>
</g>
<defs>
<clipPath id="clip0_10_1791">
<rect width="24" height="24" fill="white"/>
</clipPath>
</defs>
</svg>
