<svg width="24" height="24" viewBox="0 0 24 24" fill="none" xmlns="http://www.w3.org/2000/svg">
<g clip-path="url(#clip0_10_1611)">
<path d="M2.90332 13.6934L9.95215 20.751C11.3057 22.0957 12.6943 22.1045 14.0303 20.7686L21.1143 13.6846C22.4502 12.3486 22.4414 10.96 21.0967 9.60645L14.0479 2.55762C12.6943 1.2041 11.3057 1.19531 9.96973 2.54004L2.87695 9.62402C1.54102 10.96 1.5498 12.3486 2.90332 13.6934ZM8.03613 14.0537V11.8389C8.03613 10.1689 8.8623 9.34277 10.541 9.34277H13.0635V8.18262C13.0635 7.56738 13.6875 7.32129 14.1797 7.7168L16.4209 9.46582C16.9658 9.90527 16.9658 10.4502 16.4209 10.8896L14.1797 12.6475C13.6875 13.0342 13.0635 12.7793 13.0635 12.1729V11.0303H10.7344C10.0664 11.0303 9.71484 11.373 9.71484 12.0938V14.0537C9.71484 14.6338 9.39844 14.9766 8.87109 14.9854C8.34375 14.9941 8.03613 14.6338 8.03613 14.0537Z" fill="#1C1C1E"/>
</g>
<defs>
<clipPath id="clip0_10_1611">
<rect width="24" height="24" fill="white"/>
</clipPath>
</defs>
</svg>
