<svg width="24" height="24" viewBox="0 0 24 24" fill="none" xmlns="http://www.w3.org/2000/svg">
<g clip-path="url(#clip0_10_1651)">
<path d="M11.9912 20.7422C16.9746 20.7422 21.0879 16.6289 21.0879 11.6543C21.0879 6.67969 16.9658 2.56641 11.9824 2.56641C7.00781 2.56641 2.90332 6.67969 2.90332 11.6543C2.90332 16.6289 7.0166 20.7422 11.9912 20.7422ZM11.9912 18.9316C7.95703 18.9316 4.73145 15.6885 4.73145 11.6543C4.73145 7.62012 7.95703 4.38574 11.9824 4.38574C16.0166 4.38574 19.2598 7.62012 19.2686 11.6543C19.2773 15.6885 16.0254 18.9316 11.9912 18.9316ZM8.15918 11.584H11.0859C11.6133 11.584 11.9121 11.3291 11.9121 10.7578V7.82227C11.9121 7.44434 11.6133 7.14551 11.2441 7.14551C10.875 7.14551 10.5762 7.44434 10.5762 7.82227V8.2002L10.6816 9.43066L8.59863 7.25098C8.31738 6.95215 7.85156 6.95215 7.56152 7.24219C7.27148 7.53223 7.28027 8.00684 7.57031 8.2793L9.74121 10.3535L8.53711 10.248H8.15918C7.79004 10.248 7.49121 10.5469 7.49121 10.916C7.49121 11.2852 7.79004 11.584 8.15918 11.584ZM12.7207 16.1631C13.0898 16.1631 13.3975 15.8643 13.3975 15.4951V15.1172L13.292 13.8779L15.3662 16.0664C15.6475 16.3652 16.1221 16.3564 16.4121 16.0664C16.6934 15.7852 16.6934 15.3018 16.4033 15.0293L14.2324 12.9639L15.4365 13.0605L15.8057 13.0693C16.1836 13.0693 16.4824 12.7705 16.4824 12.3926C16.4824 12.0234 16.1836 11.7246 15.8057 11.7246H12.8789C12.3516 11.7246 12.0527 11.9795 12.0527 12.5508V15.4951C12.0527 15.8643 12.3516 16.1631 12.7207 16.1631Z" fill="#1C1C1E"/>
</g>
<defs>
<clipPath id="clip0_10_1651">
<rect width="24" height="24" fill="white"/>
</clipPath>
</defs>
</svg>
