<svg width="24" height="24" viewBox="0 0 24 24" fill="none" xmlns="http://www.w3.org/2000/svg">
<g clip-path="url(#clip0_10_1808)">
<path d="M11.9912 20.7422C16.9746 20.7422 21.0879 16.6289 21.0879 11.6543C21.0879 6.67969 16.9658 2.56641 11.9824 2.56641C7.00781 2.56641 2.90332 6.67969 2.90332 11.6543C2.90332 16.6289 7.0166 20.7422 11.9912 20.7422ZM11.9912 6.96094C12.4746 6.96094 12.8262 7.29492 12.8262 7.76953V12.0498L12.7383 13.9307L13.5645 12.8936L14.5664 11.8389C14.707 11.6895 14.9092 11.6016 15.1289 11.6016C15.5684 11.6016 15.8936 11.918 15.8936 12.3486C15.8936 12.5771 15.8232 12.7441 15.665 12.9111L12.6592 15.9697C12.457 16.1719 12.2549 16.2773 11.9912 16.2773C11.7451 16.2773 11.543 16.1807 11.3408 15.9697L8.31738 12.9111C8.16797 12.7441 8.09766 12.5771 8.09766 12.3486C8.09766 11.918 8.42285 11.6016 8.8623 11.6016C9.08203 11.6016 9.28418 11.6895 9.4248 11.8389L10.4355 12.9023L11.2529 13.9219L11.165 12.0498V7.76953C11.165 7.29492 11.5166 6.96094 11.9912 6.96094Z" fill="#1C1C1E"/>
</g>
<defs>
<clipPath id="clip0_10_1808">
<rect width="24" height="24" fill="white"/>
</clipPath>
</defs>
</svg>
