<svg width="24" height="24" viewBox="0 0 24 24" fill="none" xmlns="http://www.w3.org/2000/svg">
<g clip-path="url(#clip0_10_1845)">
<path d="M6.67383 19.8809H17.3174C19.2246 19.8809 20.209 18.8965 20.209 17.0156V6.31934C20.209 4.43848 19.2246 3.4541 17.3174 3.4541H6.67383C4.77539 3.4541 3.78223 4.42969 3.78223 6.31934V17.0156C3.78223 18.8965 4.77539 19.8809 6.67383 19.8809ZM6.78809 18.1318C5.97949 18.1318 5.53125 17.71 5.53125 16.8574V6.47754C5.53125 5.625 5.97949 5.20312 6.78809 5.20312H17.2031C18.0029 5.20312 18.46 5.625 18.46 6.47754V16.8574C18.46 17.71 18.0029 18.1318 17.2031 18.1318H6.78809ZM9.24902 13.957C9.69727 13.957 9.97852 13.6494 9.97852 13.166V11.7686L9.85547 10.5117L11.0244 11.7861L14.0918 14.8535C14.2588 15.0117 14.4521 15.0996 14.6895 15.0996C15.1377 15.0996 15.4717 14.792 15.4717 14.3174C15.4717 14.1064 15.3662 13.9043 15.2168 13.7549L12.1406 10.6787L10.8486 9.49219L12.0439 9.63281H13.5293C14.0039 9.63281 14.3203 9.35156 14.3203 8.90332C14.3203 8.46387 14.0127 8.18262 13.5293 8.18262H9.4248C8.87109 8.18262 8.52832 8.45508 8.52832 9.07031V13.1572C8.52832 13.6318 8.80957 13.957 9.24902 13.957Z" fill="#1C1C1E"/>
</g>
<defs>
<clipPath id="clip0_10_1845">
<rect width="24" height="24" fill="white"/>
</clipPath>
</defs>
</svg>
