<svg width="24" height="24" viewBox="0 0 24 24" fill="none" xmlns="http://www.w3.org/2000/svg">
<g clip-path="url(#clip0_10_1597)">
<path d="M11.9912 20.7422C16.9746 20.7422 21.0879 16.6289 21.0879 11.6543C21.0879 6.67969 16.9658 2.56641 11.9824 2.56641C7.00781 2.56641 2.90332 6.67969 2.90332 11.6543C2.90332 16.6289 7.0166 20.7422 11.9912 20.7422ZM11.9912 18.9316C7.95703 18.9316 4.73145 15.6885 4.73145 11.6543C4.73145 7.62012 7.95703 4.38574 11.9824 4.38574C16.0166 4.38574 19.2598 7.62012 19.2686 11.6543C19.2773 15.6885 16.0254 18.9316 11.9912 18.9316ZM12.8701 7.1543C10.7695 7.1543 9.46875 8.65723 9.46875 10.7227V13.3242L9.50391 14.2646L8.99414 13.6143L8.15039 12.7178C8.02734 12.5859 7.86035 12.5068 7.67578 12.5068C7.29785 12.5068 6.99023 12.8145 6.99023 13.1836C6.99023 13.3682 7.05176 13.5264 7.19238 13.6582L9.56543 15.9961C9.72363 16.1455 9.9082 16.2334 10.1191 16.2334C10.3213 16.2334 10.5146 16.1455 10.6641 15.9961L13.0547 13.6494C13.1865 13.5176 13.248 13.3594 13.248 13.1748C13.248 12.8057 12.9492 12.5068 12.5713 12.5068C12.3955 12.5068 12.2197 12.5771 12.0967 12.709L11.1211 13.7637L10.752 14.2646L10.7959 13.3242V10.7227C10.7959 9.49219 11.5254 8.56055 12.8174 8.56055C14.127 8.56055 14.9443 9.46582 14.9443 10.7314V11.9707C14.9443 12.3926 15.1904 12.709 15.6299 12.709C16.0693 12.709 16.3242 12.3926 16.3242 11.9531V10.7314C16.3242 8.66602 14.9883 7.1543 12.8701 7.1543Z" fill="#1C1C1E"/>
</g>
<defs>
<clipPath id="clip0_10_1597">
<rect width="24" height="24" fill="white"/>
</clipPath>
</defs>
</svg>
