<svg width="24" height="24" viewBox="0 0 24 24" fill="none" xmlns="http://www.w3.org/2000/svg">
<g clip-path="url(#clip0_10_1600)">
<path d="M6.67383 19.8545H17.3174C19.2246 19.8545 20.209 18.8701 20.209 16.9893V6.29297C20.209 4.41211 19.2246 3.42773 17.3174 3.42773H6.67383C4.77539 3.42773 3.78223 4.41211 3.78223 6.29297V16.9893C3.78223 18.8789 4.77539 19.8545 6.67383 19.8545ZM10.7695 16.3477C8.57227 16.3477 7.1748 14.7744 7.1748 12.6123V11.3379C7.1748 10.8896 7.44727 10.5557 7.9043 10.5557C8.35254 10.5557 8.61621 10.8896 8.61621 11.3291V12.6123C8.61621 13.9307 9.46875 14.8623 10.8311 14.8623C12.167 14.8623 12.9229 13.9043 12.9229 12.6211V9.92285L12.9668 8.94727L12.5889 9.47461L11.5869 10.5557C11.4551 10.7051 11.2705 10.7754 11.0859 10.7754C10.6816 10.7754 10.374 10.459 10.374 10.0811C10.374 9.87891 10.4355 9.71191 10.5762 9.58008L13.0635 7.12793C13.2217 6.97852 13.4238 6.88184 13.6348 6.88184C13.8457 6.88184 14.0479 6.97852 14.2061 7.12793L16.6758 9.57129C16.8252 9.70312 16.8867 9.87012 16.8867 10.0723C16.8867 10.4502 16.5791 10.7754 16.1748 10.7754C15.9814 10.7754 15.8057 10.6875 15.6826 10.5557L14.8037 9.63281L14.2764 8.94727L14.3203 9.92285V12.6211C14.3203 14.7744 12.9668 16.3477 10.7695 16.3477Z" fill="#1C1C1E"/>
</g>
<defs>
<clipPath id="clip0_10_1600">
<rect width="24" height="24" fill="white"/>
</clipPath>
</defs>
</svg>
