<svg width="24" height="24" viewBox="0 0 24 24" fill="none" xmlns="http://www.w3.org/2000/svg">
<g clip-path="url(#clip0_10_1807)">
<path d="M3.52734 19.7578H8.84473C10.4443 19.7578 11.1387 19.0635 11.1387 17.4814V15.6621H13.2568V18.6504C13.2568 19.3359 13.7666 19.8369 14.4521 19.8369C14.9268 19.8369 15.3047 19.6436 15.7705 19.2129L22.7314 12.6826C23.0742 12.3574 23.2061 11.9795 23.2061 11.6543C23.2061 11.3203 23.083 10.9512 22.7314 10.626L15.7705 4.13086C15.2607 3.66504 14.9355 3.47168 14.4609 3.47168C13.7666 3.47168 13.2568 4.0166 13.2568 4.70215V7.91016H7.86035C6.2168 7.91016 5.51367 8.62207 5.51367 10.2393V11.8916H3.52734C1.97168 11.8916 1.2334 12.6123 1.2334 14.1328V17.5254C1.2334 19.0547 1.9541 19.7578 3.52734 19.7578ZM15.0059 17.5693C14.9268 17.5693 14.874 17.5166 14.874 17.4287V14.1064C14.874 13.9043 14.7861 13.8164 14.584 13.8164H8.05371C7.52637 13.8164 7.2627 13.5264 7.2627 12.9463V10.3008C7.2627 9.71191 7.52637 9.43066 8.05371 9.43066H14.584C14.7861 9.43066 14.874 9.33398 14.874 9.14062V5.81836C14.874 5.73926 14.9355 5.68652 15.0059 5.68652C15.0674 5.68652 15.1113 5.71289 15.1553 5.75684L21.1582 11.4873C21.2285 11.5576 21.2549 11.6016 21.2549 11.6543C21.2549 11.707 21.2285 11.751 21.1582 11.8213L15.1553 17.499C15.1025 17.543 15.0586 17.5693 15.0059 17.5693ZM3.71191 18.1846C3.18457 18.1846 2.92969 17.8945 2.92969 17.3232V14.335C2.92969 13.7549 3.18457 13.4736 3.71191 13.4736H5.5752V13.834C5.5752 14.3877 5.75977 14.792 6.26953 15.1611L9.44238 17.2354V17.3232C9.44238 17.8945 9.1875 18.1846 8.66016 18.1846H3.71191Z" fill="#1C1C1E"/>
</g>
<defs>
<clipPath id="clip0_10_1807">
<rect width="24" height="24" fill="white"/>
</clipPath>
</defs>
</svg>
