<svg width="24" height="24" viewBox="0 0 24 24" fill="none" xmlns="http://www.w3.org/2000/svg">
<g clip-path="url(#clip0_10_1569)">
<path d="M11.9912 20.7598C16.9746 20.7598 21.0879 16.6465 21.0879 11.6631C21.0879 6.68848 16.9658 2.5752 11.9824 2.5752C7.00781 2.5752 2.90332 6.68848 2.90332 11.6631C2.90332 16.6465 7.0166 20.7598 11.9912 20.7598ZM16.0342 12.085C16.0342 14.3438 14.2236 16.1719 11.9824 16.1719C9.74121 16.1719 7.93066 14.3438 7.93066 12.1113C7.93066 11.7246 8.25586 11.417 8.625 11.417C9.01172 11.417 9.32812 11.7246 9.32812 12.1113C9.32812 13.5879 10.5059 14.7744 11.9824 14.7744C13.459 14.7744 14.6367 13.5879 14.6367 12.1113C14.6367 10.7051 13.5557 9.54492 12.1934 9.50977C12.0879 9.50098 11.9736 9.50098 11.8857 9.50977L12.6064 10.2305C12.7119 10.3359 12.7646 10.4854 12.7646 10.6436C12.7646 11.0215 12.4834 11.2852 12.123 11.2852C11.9561 11.2852 11.7803 11.1973 11.6748 11.0918L9.96094 9.36914C9.70605 9.12305 9.71484 8.68359 9.95215 8.4375L11.6572 6.71484C11.7715 6.58301 11.9473 6.49512 12.1318 6.49512C12.5098 6.49512 12.7734 6.78516 12.7734 7.11914C12.7734 7.3125 12.6943 7.46191 12.5977 7.56738L12.0703 8.12109C12.1318 8.1123 12.2285 8.10352 12.2988 8.1123C14.2939 8.17383 16.0342 9.91406 16.0342 12.085Z" fill="#1C1C1E"/>
</g>
<defs>
<clipPath id="clip0_10_1569">
<rect width="24" height="24" fill="white"/>
</clipPath>
</defs>
</svg>
