<svg width="24" height="24" viewBox="0 0 24 24" fill="none" xmlns="http://www.w3.org/2000/svg">
<g clip-path="url(#clip0_10_1720)">
<path d="M16.7549 3.4541H9.91699C9.32812 3.4541 8.95898 3.78809 8.96777 4.32422C8.97656 4.86914 9.32812 5.20312 9.91699 5.20312H16.6406C17.458 5.20312 17.8975 5.625 17.8975 6.47754V15.6094L16.6582 14.2559L15.9551 13.5615C15.5859 13.2012 15.0674 13.166 14.707 13.5439C14.3379 13.9043 14.3467 14.4316 14.7158 14.8008L17.7217 17.7979C18.3896 18.457 19.1543 18.457 19.8223 17.7979L22.8193 14.8008C23.1973 14.4316 23.2061 13.9043 22.8369 13.5439C22.4678 13.1748 21.958 13.1924 21.5801 13.5615L20.877 14.2559L19.6553 15.6006V6.31934C19.6553 4.42969 18.6533 3.4541 16.7549 3.4541ZM1.1543 9.79102C1.52344 10.1602 2.04199 10.1426 2.41113 9.77344L3.11426 9.0791L4.34473 7.73438V17.0156C4.34473 18.8965 5.33789 19.8809 7.23633 19.8809H14.083C14.6631 19.8809 15.0322 19.5469 15.0234 19.002C15.0234 18.4658 14.6631 18.1318 14.083 18.1318H7.35059C6.54199 18.1318 6.09375 17.71 6.09375 16.8574V7.72559L7.33301 9.0791L8.03613 9.77344C8.41406 10.1338 8.92383 10.1602 9.29297 9.79102C9.65332 9.42188 9.65332 8.90332 9.27539 8.53418L6.26953 5.53711C5.60156 4.87793 4.8457 4.87793 4.17773 5.53711L1.17188 8.53418C0.802734 8.90332 0.793945 9.42188 1.1543 9.79102Z" fill="#1C1C1E"/>
</g>
<defs>
<clipPath id="clip0_10_1720">
<rect width="24" height="24" fill="white"/>
</clipPath>
</defs>
</svg>
