<svg width="24" height="24" viewBox="0 0 24 24" fill="none" xmlns="http://www.w3.org/2000/svg">
<g clip-path="url(#clip0_10_1628)">
<path d="M6.67383 19.8809H17.3174C19.2246 19.8809 20.209 18.8965 20.209 17.0156V6.31934C20.209 4.43848 19.2246 3.4541 17.3174 3.4541H6.67383C4.77539 3.4541 3.78223 4.42969 3.78223 6.31934V17.0156C3.78223 18.8965 4.77539 19.8809 6.67383 19.8809ZM6.78809 18.1318C5.97949 18.1318 5.53125 17.71 5.53125 16.8574V6.47754C5.53125 5.625 5.97949 5.20312 6.78809 5.20312H17.2031C18.0029 5.20312 18.46 5.625 18.46 6.47754V16.8574C18.46 17.71 18.0029 18.1318 17.2031 18.1318H6.78809ZM16.5439 11.6455C16.5439 11.4082 16.4473 11.2236 16.2539 11.0215L13.2656 8.07715C13.1162 7.93652 12.9492 7.86621 12.7295 7.86621C12.3252 7.86621 12.0264 8.17383 12.0264 8.58691C12.0264 8.80664 12.1143 8.99121 12.2549 9.12305L13.3096 10.1514L14.3027 10.9424L12.501 10.8633H8.21191C7.77246 10.8633 7.44727 11.1973 7.44727 11.6543C7.44727 12.1025 7.76367 12.4365 8.21191 12.4365H12.501L14.3115 12.3574L13.3184 13.1572L12.2549 14.168C12.1055 14.2998 12.0264 14.4932 12.0264 14.7041C12.0264 15.1172 12.3252 15.4336 12.7295 15.4336C12.9492 15.4336 13.1162 15.3633 13.2656 15.2139L16.2539 12.2783C16.4385 12.0938 16.5439 11.9004 16.5439 11.6455Z" fill="#1C1C1E"/>
</g>
<defs>
<clipPath id="clip0_10_1628">
<rect width="24" height="24" fill="white"/>
</clipPath>
</defs>
</svg>
