<svg width="24" height="24" viewBox="0 0 24 24" fill="none" xmlns="http://www.w3.org/2000/svg">
<g clip-path="url(#clip0_10_1602)">
<path d="M11.9912 20.7246C16.9746 20.7246 21.0879 16.6113 21.0879 11.6367C21.0879 6.66211 16.9658 2.54883 11.9824 2.54883C7.00781 2.54883 2.90332 6.66211 2.90332 11.6367C2.90332 16.6113 7.0166 20.7246 11.9912 20.7246ZM10.7344 16.3564C8.53711 16.3564 7.13965 14.7744 7.13965 12.6211V11.3467C7.13965 10.8896 7.41211 10.5645 7.86914 10.5645C8.31738 10.5645 8.58105 10.8984 8.58105 11.3291V12.6211C8.58105 13.9307 9.43359 14.8711 10.7959 14.8711C12.1318 14.8711 12.8877 13.9131 12.8877 12.6211V9.92285L12.9316 8.94727L12.5537 9.4834L11.5518 10.5645C11.4199 10.7139 11.2354 10.7754 11.0508 10.7754C10.6465 10.7754 10.3389 10.4678 10.3389 10.0811C10.3389 9.8877 10.4004 9.71191 10.541 9.58008L13.0283 7.13672C13.1865 6.9873 13.3887 6.89062 13.5996 6.89062C13.8105 6.89062 14.0127 6.9873 14.1709 7.13672L16.6406 9.58008C16.79 9.71191 16.8516 9.87891 16.8516 10.0723C16.8516 10.459 16.5439 10.7754 16.1396 10.7754C15.9463 10.7754 15.7705 10.6963 15.6475 10.5557L14.7686 9.63281L14.2412 8.94727L14.2852 9.92285V12.6211C14.2852 14.7832 12.9316 16.3564 10.7344 16.3564Z" fill="#1C1C1E"/>
</g>
<defs>
<clipPath id="clip0_10_1602">
<rect width="24" height="24" fill="white"/>
</clipPath>
</defs>
</svg>
