<svg width="24" height="24" viewBox="0 0 24 24" fill="none" xmlns="http://www.w3.org/2000/svg">
<g clip-path="url(#clip0_10_1623)">
<path d="M11.9912 20.7422C16.9746 20.7422 21.0879 16.6289 21.0879 11.6543C21.0879 6.67969 16.9658 2.56641 11.9824 2.56641C7.00781 2.56641 2.90332 6.67969 2.90332 11.6543C2.90332 16.6289 7.0166 20.7422 11.9912 20.7422ZM8.02734 14.0537V11.8389C8.02734 10.1689 8.85352 9.34277 10.5322 9.34277H13.0547V8.18262C13.0547 7.56738 13.6787 7.32129 14.1709 7.7168L16.4121 9.46582C16.957 9.90527 16.957 10.4502 16.4121 10.8896L14.1709 12.6475C13.6787 13.0342 13.0547 12.7793 13.0547 12.1729V11.0303H10.7256C10.0576 11.0303 9.70605 11.373 9.70605 12.0938V14.0537C9.70605 14.6338 9.38965 14.9766 8.8623 14.9854C8.33496 14.9941 8.02734 14.6338 8.02734 14.0537Z" fill="#1C1C1E"/>
</g>
<defs>
<clipPath id="clip0_10_1623">
<rect width="24" height="24" fill="white"/>
</clipPath>
</defs>
</svg>
