<svg width="24" height="24" viewBox="0 0 24 24" fill="none" xmlns="http://www.w3.org/2000/svg">
<g clip-path="url(#clip0_10_1796)">
<path d="M5.35547 14.8975C5.35547 15.4775 5.80371 15.9258 6.33105 15.9258C6.86719 15.9258 7.29785 15.4688 7.29785 14.9238V11.6191L7.14844 8.05078L8.57227 9.65039L16.9219 18C17.1328 18.2021 17.3789 18.3076 17.625 18.3076C18.1611 18.3076 18.6357 17.8154 18.6357 17.2969C18.6357 17.0508 18.5215 16.8047 18.3193 16.5938L9.97852 8.24414L8.37891 6.83789L12.1055 6.96094H15.2607C15.7969 6.96094 16.2451 6.53027 16.2451 6.01172C16.2451 5.48438 15.832 5.03613 15.2344 5.03613H6.40137C5.76855 5.03613 5.36426 5.45801 5.36426 6.07324L5.35547 14.8975Z" fill="#1C1C1E"/>
</g>
<defs>
<clipPath id="clip0_10_1796">
<rect width="24" height="24" fill="white"/>
</clipPath>
</defs>
</svg>
