<svg width="24" height="24" viewBox="0 0 24 24" fill="none" xmlns="http://www.w3.org/2000/svg">
<g clip-path="url(#clip0_10_1722)">
<path d="M11.9912 20.7422C16.9746 20.7422 21.0879 16.6289 21.0879 11.6543C21.0879 6.67969 16.9658 2.56641 11.9824 2.56641C7.00781 2.56641 2.90332 6.67969 2.90332 11.6543C2.90332 16.6289 7.0166 20.7422 11.9912 20.7422ZM11.9912 18.9316C7.95703 18.9316 4.73145 15.6885 4.73145 11.6543C4.73145 7.62012 7.95703 4.38574 11.9824 4.38574C16.0166 4.38574 19.2598 7.62012 19.2686 11.6543C19.2773 15.6885 16.0254 18.9316 11.9912 18.9316ZM14.7334 9.3252C14.2852 9.3252 14.0039 9.63281 14.0039 10.1162V11.5137L14.127 12.7705L12.958 11.4961L9.89062 8.42871C9.72363 8.27051 9.53027 8.18262 9.29297 8.18262C8.83594 8.18262 8.51074 8.49023 8.51074 8.96484C8.51074 9.17578 8.61621 9.37793 8.76562 9.52734L11.8418 12.6035L13.1338 13.79L11.9385 13.6494H10.4531C9.97852 13.6494 9.66211 13.9307 9.66211 14.3789C9.66211 14.8184 9.96973 15.0996 10.4531 15.0996H14.5576C15.1113 15.0996 15.4541 14.8271 15.4541 14.2119V10.125C15.4541 9.65918 15.1729 9.3252 14.7334 9.3252Z" fill="#1C1C1E"/>
</g>
<defs>
<clipPath id="clip0_10_1722">
<rect width="24" height="24" fill="white"/>
</clipPath>
</defs>
</svg>
