<svg width="24" height="24" viewBox="0 0 24 24" fill="none" xmlns="http://www.w3.org/2000/svg">
<g clip-path="url(#clip0_10_1599)">
<path d="M14.54 3.23438C11.042 3.23438 8.63379 5.59863 8.63379 9.58008V15.1348L8.72168 17.165L7.42969 15.627L5.25 13.3945C5.07422 13.2188 4.85449 13.1133 4.56445 13.1133C4.01074 13.1133 3.61523 13.4912 3.61523 14.0713C3.61523 14.3086 3.72949 14.5811 3.92285 14.7744L8.87988 19.8193C9.07324 20.0215 9.33691 20.127 9.60938 20.127C9.87305 20.127 10.1367 20.0215 10.3389 19.8193L15.2959 14.7744C15.4893 14.5811 15.5947 14.3086 15.5947 14.0713C15.5947 13.4912 15.1992 13.1133 14.6455 13.1133C14.3555 13.1133 14.1445 13.2188 13.9688 13.3945L11.7891 15.627L10.4971 17.165L10.585 15.1348V9.53613C10.585 6.72363 12.1846 5.16797 14.4697 5.16797C16.7549 5.16797 18.4248 6.72363 18.4248 9.53613V11.5928C18.4248 12.1816 18.8643 12.5859 19.4004 12.5859C19.9453 12.5859 20.3848 12.1729 20.3848 11.5928V9.46582C20.3848 5.5459 18.0645 3.23438 14.54 3.23438Z" fill="#1C1C1E"/>
</g>
<defs>
<clipPath id="clip0_10_1599">
<rect width="24" height="24" fill="white"/>
</clipPath>
</defs>
</svg>
