<svg width="24" height="24" viewBox="0 0 24 24" fill="none" xmlns="http://www.w3.org/2000/svg">
<g clip-path="url(#clip0_10_1783)">
<path d="M11.9912 20.1621C12.2197 20.1621 12.5537 19.9863 12.8262 19.8105C17.7393 16.6465 20.8857 12.9375 20.8857 9.18457C20.8857 5.94141 18.6445 3.69141 15.8408 3.69141C14.0918 3.69141 12.7822 4.6582 11.9912 6.09961C11.2178 4.6582 9.89941 3.69141 8.15039 3.69141C5.33789 3.69141 3.09668 5.94141 3.09668 9.18457C3.09668 12.9375 6.25195 16.6465 11.1562 19.8105C11.4287 19.9863 11.7627 20.1621 11.9912 20.1621ZM12.8086 9.25488V12.1816L12.7383 13.5967L13.4326 12.876L14.0918 12.1904C14.2236 12.041 14.4346 11.9443 14.6367 11.9443C15.0498 11.9443 15.3662 12.2432 15.3662 12.6562C15.3662 12.8936 15.2783 13.0518 15.1113 13.21L12.624 15.4863C12.4043 15.6797 12.2285 15.7676 12 15.7676C11.7627 15.7676 11.5869 15.6797 11.376 15.4863L8.88867 13.21C8.71289 13.0518 8.625 12.8936 8.625 12.6562C8.625 12.2432 8.93262 11.9443 9.35449 11.9443C9.55664 11.9443 9.76758 12.041 9.89941 12.1904L10.5674 12.876L11.2529 13.5967L11.1826 12.1816V9.25488C11.1826 8.81543 11.5518 8.48145 12 8.48145C12.4395 8.48145 12.8086 8.81543 12.8086 9.25488Z" fill="#1C1C1E"/>
</g>
<defs>
<clipPath id="clip0_10_1783">
<rect width="24" height="24" fill="white"/>
</clipPath>
</defs>
</svg>
