<svg width="24" height="24" viewBox="0 0 24 24" fill="none" xmlns="http://www.w3.org/2000/svg">
<g clip-path="url(#clip0_10_1716)">
<path d="M11.9912 20.7422C16.9746 20.7422 21.0879 16.6289 21.0879 11.6543C21.0879 6.67969 16.9658 2.56641 11.9824 2.56641C7.00781 2.56641 2.90332 6.67969 2.90332 11.6543C2.90332 16.6289 7.0166 20.7422 11.9912 20.7422ZM15.2168 15.8994C14.9619 16.1543 14.5312 16.1543 14.2764 15.8994L12.0703 13.6318C11.9473 13.5 11.877 13.333 11.877 13.1748C11.877 12.8145 12.1318 12.5596 12.4922 12.5596C12.668 12.5596 12.8262 12.6123 12.9404 12.7441L13.8545 13.6846L14.1357 13.9922L14.1182 13.5439V7.84863C14.1182 7.49707 14.3818 7.22461 14.751 7.22461C15.1025 7.22461 15.375 7.48828 15.375 7.84863V13.5352L15.3662 13.9834L15.6475 13.6846L16.5615 12.7441C16.6758 12.6211 16.834 12.5596 17.001 12.5596C17.3701 12.5596 17.625 12.8145 17.625 13.1748C17.625 13.333 17.5371 13.5088 17.4229 13.6318L15.2168 15.8994ZM8.76562 7.42676C9.0293 7.1543 9.43359 7.17188 9.68848 7.42676L11.9033 9.69434C12.0176 9.80859 12.0967 9.98438 12.0967 10.1514C12.0967 10.5117 11.833 10.7666 11.4814 10.7666C11.3145 10.7666 11.1562 10.7051 11.0332 10.5908L10.1191 9.63281L9.83789 9.3252L9.85547 9.78223V15.4775C9.85547 15.8203 9.5918 16.0928 9.22266 16.0928C8.87109 16.0928 8.59863 15.8203 8.59863 15.4775V9.78223L8.60742 9.3252L8.33496 9.63281L7.41211 10.5732C7.29785 10.6963 7.13965 10.7666 6.97266 10.7666C6.6123 10.7666 6.34863 10.5029 6.34863 10.1514C6.34863 9.99316 6.43652 9.82617 6.54199 9.69434L8.76562 7.42676Z" fill="#1C1C1E"/>
</g>
<defs>
<clipPath id="clip0_10_1716">
<rect width="24" height="24" fill="white"/>
</clipPath>
</defs>
</svg>
