<svg width="24" height="24" viewBox="0 0 24 24" fill="none" xmlns="http://www.w3.org/2000/svg">
<g clip-path="url(#clip0_10_1566)">
<path d="M11.9912 20.7422C16.9746 20.7422 21.0879 16.6289 21.0879 11.6543C21.0879 6.67969 16.9658 2.56641 11.9824 2.56641C7.00781 2.56641 2.90332 6.67969 2.90332 11.6543C2.90332 16.6289 7.0166 20.7422 11.9912 20.7422ZM11.9912 18.9316C7.95703 18.9316 4.73145 15.6885 4.73145 11.6543C4.73145 7.62012 7.95703 4.38574 11.9824 4.38574C16.0166 4.38574 19.2598 7.62012 19.2686 11.6543C19.2773 15.6885 16.0254 18.9316 11.9912 18.9316ZM8.23828 11.7158C8.60742 11.7158 8.90625 11.417 8.90625 11.0479V10.6436L8.80957 9.4043L10.5498 11.2588C10.8311 11.5576 11.2969 11.5488 11.5869 11.2588C11.8682 10.9775 11.8682 10.5029 11.5781 10.2217L9.75 8.49023L10.9541 8.5957H11.3496C11.7188 8.5957 12.0176 8.29688 12.0176 7.92773C12.0176 7.55859 11.7188 7.25977 11.3496 7.25977H8.39648C7.86914 7.25977 7.57031 7.50586 7.57031 8.07715V11.0479C7.57031 11.417 7.86914 11.7158 8.23828 11.7158ZM12.6152 16.084H15.5684C16.0957 16.084 16.3945 15.8291 16.3945 15.2578V12.2959C16.3945 11.918 16.0957 11.6191 15.7266 11.6191C15.3486 11.6191 15.0498 11.918 15.0498 12.2959V12.6914L15.1553 13.9307L13.415 12.085C13.1338 11.7773 12.6592 11.7861 12.3779 12.0762C12.0879 12.3662 12.0879 12.8408 12.3867 13.1133L14.2148 14.8447L13.0107 14.7393H12.6152C12.2461 14.7393 11.9473 15.0381 11.9473 15.4072C11.9473 15.7852 12.2461 16.084 12.6152 16.084Z" fill="#1C1C1E"/>
</g>
<defs>
<clipPath id="clip0_10_1566">
<rect width="24" height="24" fill="white"/>
</clipPath>
</defs>
</svg>
