<svg width="24" height="24" viewBox="0 0 24 24" fill="none" xmlns="http://www.w3.org/2000/svg">
<g clip-path="url(#clip0_10_1636)">
<path d="M3.71191 14.5547C3.02637 14.5547 2.8418 15.0557 3.24609 15.6094L5.35547 18.5625C5.67188 19.0195 6.16406 19.0107 6.48047 18.5625L8.58984 15.6006C8.98535 15.0557 8.79199 14.5547 8.12402 14.5547H6.82324V8.07715C6.82324 6.61816 7.71094 5.68652 8.9502 5.68652C10.1895 5.68652 11.0947 6.60059 11.0947 8.07715V14.0977C11.0947 16.708 12.7559 18.4395 15.0498 18.4395C17.3877 18.4395 18.9873 16.7168 18.9873 14.0977V7.67285H20.2969C20.9648 7.67285 21.1494 7.17188 20.7627 6.62695L18.6533 3.65625C18.3369 3.2168 17.8447 3.20801 17.5195 3.65625L15.4102 6.61816C15.0146 7.17188 15.1992 7.67285 15.876 7.67285H17.1768V14.2295C17.1768 15.6885 16.2891 16.6201 15.0498 16.6201C13.8105 16.6201 12.9053 15.7061 12.9053 14.2295V8.20898C12.9053 5.59863 11.2441 3.87598 8.9502 3.87598C6.6123 3.87598 5.0127 5.58984 5.0127 8.20898V14.5547H3.71191Z" fill="#1C1C1E"/>
</g>
<defs>
<clipPath id="clip0_10_1636">
<rect width="24" height="24" fill="white"/>
</clipPath>
</defs>
</svg>
