<svg width="24" height="24" viewBox="0 0 24 24" fill="none" xmlns="http://www.w3.org/2000/svg">
<g clip-path="url(#clip0_10_1626)">
<path d="M6.67383 19.8809H17.3174C19.2246 19.8809 20.209 18.8965 20.209 17.0156V6.31934C20.209 4.43848 19.2246 3.4541 17.3174 3.4541H6.67383C4.77539 3.4541 3.78223 4.42969 3.78223 6.31934V17.0156C3.78223 18.8965 4.77539 19.8809 6.67383 19.8809ZM16.7461 11.6455C16.7461 11.9092 16.6494 12.1113 16.4385 12.3135L13.3359 15.3633C13.1777 15.5127 13.002 15.5918 12.7822 15.5918C12.3428 15.5918 12.0352 15.2666 12.0352 14.8271C12.0352 14.6074 12.123 14.4053 12.2725 14.2646L13.3799 13.21L14.3994 12.3926L12.5273 12.4805H8.08887C7.62305 12.4805 7.28906 12.1289 7.28906 11.6543C7.28906 11.1709 7.62305 10.8193 8.08887 10.8193H12.5273L14.3994 10.9072L13.3711 10.0898L12.2725 9.03516C12.1318 8.89453 12.0352 8.69238 12.0352 8.47266C12.0352 8.0332 12.3428 7.7168 12.7822 7.7168C13.002 7.7168 13.1777 7.77832 13.3359 7.93652L16.4385 10.9951C16.6582 11.1973 16.7461 11.3994 16.7461 11.6455Z" fill="#1C1C1E"/>
</g>
<defs>
<clipPath id="clip0_10_1626">
<rect width="24" height="24" fill="white"/>
</clipPath>
</defs>
</svg>
