<svg width="24" height="24" viewBox="0 0 24 24" fill="none" xmlns="http://www.w3.org/2000/svg">
<g clip-path="url(#clip0_10_1739)">
<path d="M19.04 4.61426C18.1348 3.71777 16.8867 3.5332 15.2783 3.5332H8.69531C7.10449 3.5332 5.85645 3.71777 4.95117 4.62305C4.0459 5.51953 3.87891 6.75879 3.87891 8.34961V14.9326C3.87891 16.5498 4.0459 17.7891 4.95117 18.6855C5.85645 19.5908 7.10449 19.7666 8.71289 19.7666H15.2783C16.8867 19.7666 18.1348 19.5908 19.04 18.6855C19.9453 17.7803 20.1123 16.5498 20.1123 14.9326V8.37598C20.1123 6.75879 19.9453 5.51953 19.04 4.61426ZM14.8564 14.0537C14.3818 14.0537 14.083 13.7373 14.083 13.2275V11.7861L14.2148 10.4766L12.9932 11.8125L9.8291 14.9766C9.65332 15.1523 9.45117 15.2402 9.19629 15.2402C8.72168 15.2402 8.37891 14.915 8.37891 14.4229C8.37891 14.2031 8.48438 13.9834 8.64258 13.8252L11.8242 10.6436L13.1689 9.42188L11.9297 9.5625H10.4092C9.89941 9.5625 9.57422 9.26367 9.57422 8.79785C9.57422 8.33203 9.89941 8.0332 10.4004 8.0332H14.6631C15.252 8.0332 15.6123 8.33203 15.6123 8.97363V13.21C15.6123 13.7109 15.3135 14.0537 14.8564 14.0537Z" fill="#1C1C1E"/>
</g>
<defs>
<clipPath id="clip0_10_1739">
<rect width="24" height="24" fill="white"/>
</clipPath>
</defs>
</svg>
