<svg width="24" height="24" viewBox="0 0 24 24" fill="none" xmlns="http://www.w3.org/2000/svg">
<g clip-path="url(#clip0_10_1794)">
<path d="M11.9912 20.7422C16.9746 20.7422 21.0879 16.6289 21.0879 11.6543C21.0879 6.67969 16.9658 2.56641 11.9824 2.56641C7.00781 2.56641 2.90332 6.67969 2.90332 11.6543C2.90332 16.6289 7.0166 20.7422 11.9912 20.7422ZM11.9912 18.9316C7.95703 18.9316 4.73145 15.6885 4.73145 11.6543C4.73145 7.62012 7.95703 4.38574 11.9824 4.38574C16.0166 4.38574 19.2598 7.62012 19.2686 11.6543C19.2773 15.6885 16.0254 18.9316 11.9912 18.9316ZM9.24023 13.9658C9.67969 13.9658 9.96973 13.6494 9.96973 13.166V11.7686L9.83789 10.5117L11.0156 11.7949L14.0742 14.8535C14.2412 15.0205 14.4346 15.0996 14.6719 15.0996C15.1289 15.0996 15.4541 14.792 15.4541 14.3262C15.4541 14.1152 15.3574 13.9043 15.208 13.7549L12.1318 10.6787L10.8398 9.50098L12.0264 9.6416H13.5117C13.9951 9.6416 14.3027 9.35156 14.3027 8.91211C14.3027 8.47266 13.9951 8.18262 13.5205 8.18262H9.40723C8.85352 8.18262 8.51074 8.46387 8.51074 9.07031V13.1572C8.51074 13.6318 8.80078 13.9658 9.24023 13.9658Z" fill="#1C1C1E"/>
</g>
<defs>
<clipPath id="clip0_10_1794">
<rect width="24" height="24" fill="white"/>
</clipPath>
</defs>
</svg>
