<svg width="24" height="24" viewBox="0 0 24 24" fill="none" xmlns="http://www.w3.org/2000/svg">
<g clip-path="url(#clip0_10_1706)">
<path d="M12 21.3047C15.3574 21.3047 17.5986 19.0635 17.5986 15.6885V14.1855C17.5986 13.6846 17.1943 13.2803 16.7021 13.2803C16.2012 13.2803 15.7969 13.6846 15.7969 14.1855V15.6885C15.7969 17.9736 14.2764 19.5029 12 19.5029C9.71484 19.5029 8.18555 17.9736 8.18555 15.6885V7.59375C8.18555 5.31738 9.71484 3.79688 12 3.79688C14.25 3.79688 15.7617 5.28223 15.7969 7.53223H14.5576C13.8896 7.53223 13.6963 8.0332 14.0918 8.57812L16.1572 11.4873C16.4736 11.9355 16.9658 11.9355 17.291 11.4873L19.3652 8.58691C19.7607 8.0332 19.5762 7.53223 18.8994 7.53223H17.5986C17.5723 4.20117 15.3311 1.98633 12 1.98633C8.63379 1.98633 6.38379 4.23633 6.38379 7.59375V15.6885C6.38379 19.0635 8.63379 21.3047 12 21.3047Z" fill="#1C1C1E"/>
</g>
<defs>
<clipPath id="clip0_10_1706">
<rect width="24" height="24" fill="white"/>
</clipPath>
</defs>
</svg>
