<svg width="24" height="24" viewBox="0 0 24 24" fill="none" xmlns="http://www.w3.org/2000/svg">
<g clip-path="url(#clip0_10_1784)">
<path d="M11.9912 20.7422C16.9746 20.7422 21.0879 16.6289 21.0879 11.6543C21.0879 6.67969 16.9658 2.56641 11.9824 2.56641C7.00781 2.56641 2.90332 6.67969 2.90332 11.6543C2.90332 16.6289 7.0166 20.7422 11.9912 20.7422ZM11.9912 18.9316C7.95703 18.9316 4.73145 15.6885 4.73145 11.6543C4.73145 7.62012 7.95703 4.38574 11.9824 4.38574C16.0166 4.38574 19.2598 7.62012 19.2686 11.6543C19.2773 15.6885 16.0254 18.9316 11.9912 18.9316ZM16.5264 11.6543C16.5264 11.417 16.4385 11.2236 16.2363 11.0303L13.248 8.08594C13.1074 7.94531 12.9316 7.875 12.7207 7.875C12.3076 7.875 12.0088 8.18262 12.0088 8.5957C12.0088 8.81543 12.1055 9 12.2373 9.13184L13.3008 10.1514L14.2852 10.9512L12.4922 10.8633H8.20312C7.75488 10.8633 7.43848 11.1973 7.43848 11.6543C7.43848 12.1025 7.75488 12.4453 8.20312 12.4453H12.4922L14.2939 12.3662L13.3096 13.1572L12.2373 14.1768C12.0879 14.3086 12.0088 14.4932 12.0088 14.7129C12.0088 15.126 12.3076 15.4424 12.7207 15.4424C12.9316 15.4424 13.1074 15.3633 13.248 15.2227L16.2363 12.2871C16.4297 12.0938 16.5264 11.9004 16.5264 11.6543Z" fill="#1C1C1E"/>
</g>
<defs>
<clipPath id="clip0_10_1784">
<rect width="24" height="24" fill="white"/>
</clipPath>
</defs>
</svg>
