<svg width="24" height="24" viewBox="0 0 24 24" fill="none" xmlns="http://www.w3.org/2000/svg">
<g clip-path="url(#clip0_10_1561)">
<path d="M6.67383 19.8809H17.3174C19.2246 19.8809 20.209 18.8965 20.209 17.0156V6.31934C20.209 4.43848 19.2246 3.4541 17.3174 3.4541H6.67383C4.77539 3.4541 3.78223 4.42969 3.78223 6.31934V17.0156C3.78223 18.8965 4.77539 19.8809 6.67383 19.8809ZM6.78809 18.1318C5.97949 18.1318 5.53125 17.71 5.53125 16.8574V6.47754C5.53125 5.625 5.97949 5.20312 6.78809 5.20312H17.2031C18.0029 5.20312 18.46 5.625 18.46 6.47754V16.8574C18.46 17.71 18.0029 18.1318 17.2031 18.1318H6.78809ZM8.44043 12.1465L13.5029 15.1172C13.916 15.3633 14.3994 15.1523 14.3994 14.7217V8.5957C14.3994 8.16504 13.8896 7.96289 13.5029 8.2002L8.44043 11.1797C8.08008 11.3906 8.07129 11.9268 8.44043 12.1465Z" fill="#1C1C1E"/>
</g>
<defs>
<clipPath id="clip0_10_1561">
<rect width="24" height="24" fill="white"/>
</clipPath>
</defs>
</svg>
