<svg width="24" height="24" viewBox="0 0 24 24" fill="none" xmlns="http://www.w3.org/2000/svg">
<g clip-path="url(#clip0_10_1608)">
<path d="M3.57129 15.0029C3.57129 18.5273 5.88281 20.8389 9.80273 20.8389H11.9297C12.5186 20.8389 12.9229 20.3994 12.9229 19.8633C12.9229 19.3271 12.5186 18.8877 11.9297 18.8877H9.87305C7.06055 18.8877 5.50488 17.2178 5.50488 14.9326C5.50488 12.6475 7.06055 11.0479 9.87305 11.0479H15.4365L17.4668 10.96L15.9287 12.252L13.6963 14.4316C13.5205 14.6074 13.415 14.8184 13.415 15.1084C13.415 15.6621 13.793 16.0576 14.373 16.0576C14.6104 16.0576 14.8828 15.9434 15.0762 15.7588L20.1123 10.793C20.3145 10.5996 20.4199 10.3359 20.4199 10.0723C20.4199 9.7998 20.3145 9.53613 20.1123 9.34277L15.0762 4.37695C14.8828 4.19238 14.6104 4.07812 14.373 4.07812C13.793 4.07812 13.415 4.47363 13.415 5.02734C13.415 5.31738 13.5205 5.53711 13.6963 5.7041L15.9287 7.88379L17.4668 9.18457L15.4365 9.08789H9.91699C5.93555 9.08789 3.57129 11.5049 3.57129 15.0029Z" fill="#1C1C1E"/>
</g>
<defs>
<clipPath id="clip0_10_1608">
<rect width="24" height="24" fill="white"/>
</clipPath>
</defs>
</svg>
