<svg width="24" height="24" viewBox="0 0 24 24" fill="none" xmlns="http://www.w3.org/2000/svg">
<g clip-path="url(#clip0_10_1586)">
<path d="M12 20.4082C12.2549 20.4082 12.5098 20.3115 12.7031 20.1094L17.2646 15.4688C17.4492 15.2842 17.5547 15.0205 17.5547 14.7832C17.5547 14.2295 17.168 13.8516 16.6318 13.8516C16.3594 13.8516 16.1484 13.9658 15.9727 14.1328L14.1357 16.0225L12.8613 17.5166L12.9404 15.5479V7.76074L12.8613 5.79199L14.1357 7.27734L15.9727 9.17578C16.1484 9.34277 16.3594 9.44824 16.6318 9.44824C17.168 9.44824 17.5547 9.0791 17.5547 8.52539C17.5547 8.28809 17.4492 8.02441 17.2646 7.83984L12.7031 3.19922C12.5098 2.99707 12.2549 2.90039 12 2.90039C11.7363 2.90039 11.4814 2.99707 11.2881 3.19922L6.72656 7.83984C6.54199 8.02441 6.43652 8.28809 6.43652 8.52539C6.43652 9.0791 6.82324 9.44824 7.35938 9.44824C7.64062 9.44824 7.85156 9.34277 8.01855 9.17578L9.85547 7.27734L11.1299 5.79199L11.0508 7.76074V15.5479L11.1299 17.5166L9.85547 16.0225L8.01855 14.1328C7.85156 13.9658 7.64062 13.8516 7.35938 13.8516C6.82324 13.8516 6.43652 14.2295 6.43652 14.7832C6.43652 15.0205 6.54199 15.2842 6.72656 15.4688L11.2881 20.1094C11.4814 20.3115 11.7363 20.4082 12 20.4082Z" fill="#1C1C1E"/>
</g>
<defs>
<clipPath id="clip0_10_1586">
<rect width="24" height="24" fill="white"/>
</clipPath>
</defs>
</svg>
