<svg width="24" height="24" viewBox="0 0 24 24" fill="none" xmlns="http://www.w3.org/2000/svg">
<g clip-path="url(#clip0_10_1740)">
<path d="M4.74023 4.24512C4.13379 4.24512 3.86133 4.69336 3.78223 5.12402C3.71191 5.48438 3.69434 5.94141 3.69434 6.45117C3.69434 10.5732 5.4082 12.4541 9.46875 12.4541H15.2607L17.3525 12.3311L14.7861 14.6777L12.8174 16.6641C12.6328 16.8398 12.5273 17.0859 12.5273 17.3584C12.5273 17.9033 12.9316 18.2988 13.4941 18.2988C13.7402 18.2988 13.9775 18.2021 14.2061 17.9736L19.9805 12.208C20.1914 12.0059 20.3057 11.7422 20.3057 11.4785C20.3057 11.2061 20.1914 10.9424 19.9805 10.7402L14.1885 4.95703C13.9775 4.75488 13.7402 4.64941 13.4941 4.64941C12.9316 4.64941 12.5273 5.05371 12.5273 5.58984C12.5273 5.87109 12.6416 6.1084 12.8174 6.28418L14.7861 8.2793L17.3613 10.626L15.2607 10.4941H9.5918C6.7002 10.4941 5.67188 9.30762 5.67188 6.38965C5.67188 5.89746 5.69824 5.55469 5.69824 5.21191C5.69824 4.64062 5.31152 4.24512 4.74023 4.24512Z" fill="#1C1C1E"/>
</g>
<defs>
<clipPath id="clip0_10_1740">
<rect width="24" height="24" fill="white"/>
</clipPath>
</defs>
</svg>
