<svg width="24" height="24" viewBox="0 0 24 24" fill="none" xmlns="http://www.w3.org/2000/svg">
<g clip-path="url(#clip0_10_1752)">
<path d="M6.67383 19.8809H17.3174C19.2246 19.8809 20.209 18.8965 20.209 17.0156V6.31934C20.209 4.43848 19.2246 3.4541 17.3174 3.4541H6.67383C4.77539 3.4541 3.78223 4.42969 3.78223 6.31934V17.0156C3.78223 18.8965 4.77539 19.8809 6.67383 19.8809ZM9.16113 9.21973C9.62695 9.21973 9.92578 9.54492 9.92578 10.0547V11.4961L9.80273 12.7969L11.0244 11.4697L14.1885 8.29688C14.3643 8.12109 14.5664 8.0332 14.8213 8.0332C15.2871 8.0332 15.6299 8.3584 15.6299 8.85938C15.6299 9.07031 15.5332 9.29004 15.3662 9.45703L12.1846 12.6299L10.8486 13.8604L12.0879 13.7197H13.6084C14.1182 13.7197 14.4434 14.0186 14.4434 14.4756C14.4434 14.9414 14.1182 15.2402 13.6172 15.2402H9.3457C8.76562 15.2402 8.40527 14.9414 8.40527 14.3086V10.0635C8.40527 9.5625 8.7041 9.21973 9.16113 9.21973Z" fill="#1C1C1E"/>
</g>
<defs>
<clipPath id="clip0_10_1752">
<rect width="24" height="24" fill="white"/>
</clipPath>
</defs>
</svg>
