<svg width="24" height="24" viewBox="0 0 24 24" fill="none" xmlns="http://www.w3.org/2000/svg">
<g clip-path="url(#clip0_10_1795)">
<path d="M8.58984 19.8369C9.27539 19.8369 9.78516 19.3359 9.78516 18.6504V17.1914L11.9385 19.2129C12.3955 19.6523 12.7822 19.8369 13.2568 19.8369C13.9424 19.8369 14.4521 19.3359 14.4521 18.6504V15.5039H14.6631C17.8799 15.5039 19.8398 16.4443 21.2109 19.0107C21.5625 19.6523 21.9932 19.8018 22.4502 19.8018C23.0654 19.8018 23.54 19.2217 23.54 18.1055C23.54 11.7246 20.7275 7.83105 14.6631 7.83105H14.4521V4.70215C14.4521 4.0166 13.9424 3.47168 13.2393 3.47168C12.7734 3.47168 12.4482 3.66504 11.9385 4.13965L9.78516 6.14355V4.70215C9.78516 4.0166 9.27539 3.47168 8.57227 3.47168C8.10645 3.47168 7.78125 3.66504 7.27148 4.13965L0.301758 10.626C-0.0498047 10.9512 -0.172852 11.3203 -0.172852 11.6543C-0.172852 11.9795 -0.0410156 12.3574 0.310547 12.6826L7.27148 19.2129C7.71973 19.6523 8.11523 19.8369 8.58984 19.8369ZM7.88672 17.499L1.88379 11.8213C1.81348 11.751 1.78711 11.707 1.78711 11.6543C1.78711 11.6016 1.81348 11.5576 1.88379 11.4873L7.88672 5.75684C7.93066 5.71289 7.97461 5.68652 8.02734 5.68652C8.10645 5.68652 8.15918 5.73926 8.15918 5.81836V7.64648L4.96875 10.626C4.62598 10.9512 4.49414 11.3203 4.49414 11.6543C4.49414 11.9795 4.62598 12.3574 4.96875 12.6826L8.15918 15.6797V17.4287C8.15918 17.5166 8.10645 17.5693 8.03613 17.5693C7.9834 17.5693 7.93066 17.543 7.88672 17.499ZM12.7031 17.5693C12.6504 17.5693 12.5977 17.543 12.5537 17.499L6.55078 11.8213C6.48047 11.751 6.4541 11.707 6.4541 11.6543C6.4541 11.6016 6.48047 11.5576 6.55078 11.4873L12.5537 5.75684C12.5977 5.71289 12.6416 5.68652 12.6943 5.68652C12.7734 5.68652 12.8262 5.73926 12.8262 5.81836V9.14062C12.8262 9.34277 12.9229 9.43066 13.1162 9.43066H14.2412C19.9102 9.43066 21.8965 13.166 22.0371 17.3584C22.0371 17.4199 22.0107 17.4463 21.9756 17.4463C21.9404 17.4463 21.9229 17.4199 21.8965 17.3672C20.8418 15.1699 18.2666 13.8955 14.2412 13.8955H13.1162C12.9229 13.8955 12.8262 13.9834 12.8262 14.1855V17.4287C12.8262 17.5166 12.7734 17.5693 12.7031 17.5693Z" fill="#1C1C1E"/>
</g>
<defs>
<clipPath id="clip0_10_1795">
<rect width="24" height="24" fill="white"/>
</clipPath>
</defs>
</svg>
