<svg width="24" height="24" viewBox="0 0 24 24" fill="none" xmlns="http://www.w3.org/2000/svg">
<g clip-path="url(#clip0_10_1788)">
<path d="M6.67383 19.8809H17.3174C19.2246 19.8809 20.209 18.8965 20.209 17.0156V6.31934C20.209 4.43848 19.2246 3.4541 17.3174 3.4541H6.67383C4.77539 3.4541 3.78223 4.42969 3.78223 6.31934V17.0156C3.78223 18.8965 4.77539 19.8809 6.67383 19.8809ZM12.0264 16.2773C11.5518 16.2773 11.2002 15.9434 11.2002 15.4688V11.1973L11.2881 9.31641L10.4707 10.3359L9.45996 11.3994C9.31934 11.5488 9.11719 11.6367 8.89746 11.6367C8.45801 11.6367 8.13281 11.3203 8.13281 10.8896C8.13281 10.6699 8.20312 10.4941 8.36133 10.3359L11.376 7.27734C11.5869 7.05762 11.7803 6.96094 12.0264 6.96094C12.29 6.96094 12.4922 7.06641 12.6943 7.27734L15.709 10.3359C15.8584 10.4941 15.9287 10.6699 15.9287 10.8896C15.9287 11.3203 15.6035 11.6367 15.1641 11.6367C14.9443 11.6367 14.7422 11.5576 14.6016 11.3994L13.5996 10.3447L12.7734 9.30762L12.8613 11.1973V15.4688C12.8613 15.9434 12.5098 16.2773 12.0264 16.2773Z" fill="#1C1C1E"/>
</g>
<defs>
<clipPath id="clip0_10_1788">
<rect width="24" height="24" fill="white"/>
</clipPath>
</defs>
</svg>
