<svg width="24" height="24" viewBox="0 0 24 24" fill="none" xmlns="http://www.w3.org/2000/svg">
<g clip-path="url(#clip0_10_1604)">
<path d="M9.45117 20.1621C12.958 20.1621 15.3662 17.7979 15.3662 13.8164V8.26172L15.2783 6.23145L16.5703 7.76074L18.75 9.99316C18.9258 10.1689 19.1367 10.2832 19.4268 10.2832C19.9805 10.2832 20.3848 9.90527 20.3848 9.3252C20.3848 9.0791 20.2705 8.80664 20.0771 8.62207L15.1113 3.57715C14.918 3.375 14.6543 3.26953 14.3906 3.26953C14.1182 3.26953 13.8545 3.375 13.6611 3.57715L8.7041 8.62207C8.51074 8.80664 8.39648 9.0791 8.39648 9.3252C8.39648 9.90527 8.80078 10.2832 9.3457 10.2832C9.63574 10.2832 9.85547 10.1689 10.0312 9.99316L12.2021 7.76074L13.5029 6.23145L13.4062 8.26172V13.8604C13.4062 16.6729 11.8066 18.2285 9.52148 18.2285C7.24512 18.2285 5.5752 16.6729 5.5752 13.8604V11.8037C5.5752 11.2148 5.13574 10.8105 4.59082 10.8105C4.05469 10.8105 3.61523 11.2236 3.61523 11.8037V13.9307C3.61523 17.8506 5.93555 20.1621 9.45117 20.1621Z" fill="#1C1C1E"/>
</g>
<defs>
<clipPath id="clip0_10_1604">
<rect width="24" height="24" fill="white"/>
</clipPath>
</defs>
</svg>
