<svg width="24" height="24" viewBox="0 0 24 24" fill="none" xmlns="http://www.w3.org/2000/svg">
<g clip-path="url(#clip0_10_1584)">
<path d="M11.9912 20.7422C16.9746 20.7422 21.0879 16.6289 21.0879 11.6543C21.0879 6.67969 16.9658 2.56641 11.9824 2.56641C7.00781 2.56641 2.90332 6.67969 2.90332 11.6543C2.90332 16.6289 7.0166 20.7422 11.9912 20.7422ZM12 6.04688C12.2373 6.04688 12.4219 6.14355 12.6152 6.3457L15.1377 8.87695C15.2783 9.01758 15.3486 9.20215 15.3486 9.4043C15.3486 9.80859 15.041 10.1074 14.6279 10.1074C14.3994 10.1074 14.2236 10.002 14.083 9.86133L13.5205 9.29883L12.6943 8.2793L12.7822 10.1162V13.1924L12.6943 15.0293L13.5205 14.0098L14.083 13.4473C14.2236 13.3066 14.3994 13.2012 14.6279 13.2012C15.041 13.2012 15.3486 13.5 15.3486 13.9043C15.3486 14.1064 15.2783 14.291 15.1377 14.4316L12.6152 16.9629C12.4219 17.1562 12.2373 17.2529 12 17.2529C11.7539 17.2529 11.5693 17.1562 11.376 16.9629L8.87109 14.4316C8.72168 14.291 8.65137 14.1064 8.65137 13.9043C8.65137 13.5 8.95898 13.2012 9.38086 13.2012C9.60059 13.2012 9.77637 13.3066 9.92578 13.4473L10.4707 14.0098L11.3057 15.0381L11.2178 13.1924V10.1162L11.3057 8.27051L10.4707 9.29883L9.92578 9.86133C9.77637 10.002 9.60059 10.1074 9.38086 10.1074C8.95898 10.1074 8.65137 9.80859 8.65137 9.4043C8.65137 9.20215 8.72168 9.01758 8.87109 8.87695L11.376 6.3457C11.5693 6.14355 11.7539 6.04688 12 6.04688Z" fill="#1C1C1E"/>
</g>
<defs>
<clipPath id="clip0_10_1584">
<rect width="24" height="24" fill="white"/>
</clipPath>
</defs>
</svg>
