<svg width="24" height="24" viewBox="0 0 24 24" fill="none" xmlns="http://www.w3.org/2000/svg">
<g clip-path="url(#clip0_10_1846)">
<path d="M11.9912 20.7422C16.9746 20.7422 21.0879 16.6289 21.0879 11.6543C21.0879 6.67969 16.9658 2.56641 11.9824 2.56641C7.00781 2.56641 2.90332 6.67969 2.90332 11.6543C2.90332 16.6289 7.0166 20.7422 11.9912 20.7422ZM11.9912 18.9316C7.95703 18.9316 4.73145 15.6885 4.73145 11.6543C4.73145 7.62012 7.95703 4.38574 11.9824 4.38574C16.0166 4.38574 19.2598 7.62012 19.2686 11.6543C19.2773 15.6885 16.0254 18.9316 11.9912 18.9316ZM12.6855 15.4512C12.9316 15.4512 13.125 15.3457 13.3711 15.126L17.0449 11.6807C17.2207 11.5137 17.291 11.3115 17.291 11.1445C17.291 10.96 17.2207 10.7666 17.0449 10.5996L13.3711 7.18066C13.0986 6.93457 12.9316 6.8291 12.6855 6.8291C12.3252 6.8291 12.0615 7.11914 12.0615 7.4707V9.14062H11.9473C8.74805 9.14062 7.25391 11.1885 7.25391 14.5635C7.25391 15.1348 7.50879 15.4336 7.8252 15.4336C8.0625 15.4336 8.29102 15.3545 8.4668 15.0205C9.19629 13.6494 10.2422 13.1572 11.9473 13.1572H12.0615V14.8359C12.0615 15.1875 12.3252 15.4512 12.6855 15.4512Z" fill="#1C1C1E"/>
</g>
<defs>
<clipPath id="clip0_10_1846">
<rect width="24" height="24" fill="white"/>
</clipPath>
</defs>
</svg>
