<svg width="24" height="24" viewBox="0 0 24 24" fill="none" xmlns="http://www.w3.org/2000/svg">
<g clip-path="url(#clip0_10_1653)">
<path d="M20.4199 15.0029C20.4199 11.5049 18.0645 9.08789 14.0742 9.08789H8.55469L6.52441 9.18457L8.0625 7.88379L10.2949 5.7041C10.4707 5.53711 10.585 5.31738 10.585 5.02734C10.585 4.47363 10.1982 4.07812 9.62695 4.07812C9.38086 4.07812 9.1084 4.19238 8.91504 4.37695L3.87891 9.34277C3.67676 9.53613 3.57129 9.7998 3.57129 10.0723C3.57129 10.3359 3.67676 10.5996 3.87891 10.793L8.91504 15.7588C9.1084 15.9434 9.38086 16.0576 9.62695 16.0576C10.1982 16.0576 10.585 15.6621 10.585 15.1084C10.585 14.8184 10.4707 14.6074 10.2949 14.4316L8.0625 12.252L6.52441 10.96L8.55469 11.0479H14.1182C16.9307 11.0479 18.4863 12.6475 18.4863 14.9326C18.4863 17.2178 16.9307 18.8877 14.1182 18.8877H12.0615C11.4814 18.8877 11.0684 19.3271 11.0684 19.8633C11.0684 20.3994 11.4814 20.8389 12.0703 20.8389H14.1885C18.1084 20.8389 20.4199 18.5273 20.4199 15.0029Z" fill="#1C1C1E"/>
</g>
<defs>
<clipPath id="clip0_10_1653">
<rect width="24" height="24" fill="white"/>
</clipPath>
</defs>
</svg>
