<svg width="24" height="24" viewBox="0 0 24 24" fill="none" xmlns="http://www.w3.org/2000/svg">
<g clip-path="url(#clip0_10_1591)">
<path d="M3.24609 11.6455C3.24609 11.9092 3.35156 12.1641 3.54492 12.3486L8.18555 16.9189C8.37012 17.1035 8.63379 17.209 8.87109 17.209C9.4248 17.209 9.80273 16.8223 9.80273 16.2861C9.80273 16.0049 9.69727 15.8027 9.52148 15.627L7.63184 13.79L6.1377 12.5156L8.10645 12.5947H15.8936L17.8623 12.5156L16.377 13.79L14.4785 15.627C14.3115 15.8027 14.2061 16.0049 14.2061 16.2861C14.2061 16.8223 14.5752 17.209 15.1289 17.209C15.3662 17.209 15.6299 17.1035 15.8145 16.9189L20.4551 12.3486C20.6572 12.1641 20.7539 11.9092 20.7539 11.6455C20.7539 11.3906 20.6572 11.1357 20.4551 10.9424L15.8145 6.38086C15.6299 6.19629 15.3662 6.09082 15.1289 6.09082C14.5752 6.09082 14.2061 6.47754 14.2061 7.01367C14.2061 7.29492 14.3115 7.49707 14.4785 7.67285L16.377 9.50977L17.8623 10.7842L15.8936 10.7051H8.10645L6.1377 10.7842L7.63184 9.50977L9.52148 7.67285C9.69727 7.49707 9.80273 7.29492 9.80273 7.01367C9.80273 6.47754 9.4248 6.09082 8.87109 6.09082C8.63379 6.09082 8.37012 6.19629 8.18555 6.38086L3.54492 10.9424C3.35156 11.1357 3.24609 11.3906 3.24609 11.6455Z" fill="#1C1C1E"/>
</g>
<defs>
<clipPath id="clip0_10_1591">
<rect width="24" height="24" fill="white"/>
</clipPath>
</defs>
</svg>
