<svg width="24" height="24" viewBox="0 0 24 24" fill="none" xmlns="http://www.w3.org/2000/svg">
<g clip-path="url(#clip0_10_1693)">
<path d="M11.9912 20.7422C16.9746 20.7422 21.0879 16.6289 21.0879 11.6543C21.0879 6.67969 16.9658 2.56641 11.9824 2.56641C7.00781 2.56641 2.90332 6.67969 2.90332 11.6543C2.90332 16.6289 7.0166 20.7422 11.9912 20.7422ZM11.9912 18.9316C7.95703 18.9316 4.73145 15.6885 4.73145 11.6543C4.73145 7.62012 7.95703 4.38574 11.9824 4.38574C16.0166 4.38574 19.2598 7.62012 19.2686 11.6543C19.2773 15.6885 16.0254 18.9316 11.9912 18.9316ZM15.085 15.7412L17.2119 13.5615C17.3262 13.4473 17.4053 13.2803 17.4053 13.1221C17.4053 12.7793 17.1592 12.5332 16.8076 12.5332C16.6494 12.5332 16.4912 12.5947 16.3857 12.709L15.5068 13.623L15.2344 13.9131L15.2432 13.4824V7.99805C15.2432 7.65527 14.9883 7.40039 14.6455 7.40039C14.3027 7.40039 14.0391 7.65527 14.0391 7.99805V13.4912L14.0566 13.9219L13.7842 13.623L12.8965 12.709C12.7822 12.5947 12.6328 12.5332 12.4746 12.5332C12.123 12.5332 11.8857 12.7793 11.8857 13.1221C11.8857 13.2715 11.9561 13.4385 12.0615 13.5615L14.1973 15.7412C14.417 15.9697 14.8389 16.0049 15.085 15.7412ZM8.88867 7.59375L6.75293 9.78223C6.64746 9.89648 6.56836 10.0635 6.56836 10.2129C6.56836 10.5469 6.82324 10.8018 7.16602 10.8018C7.32422 10.8018 7.47363 10.7402 7.58789 10.6172L8.47559 9.70312L8.73926 9.4043L8.73047 9.85254V15.3369C8.73047 15.6709 8.98535 15.9258 9.32812 15.9258C9.67969 15.9258 9.93457 15.6709 9.93457 15.3369V9.84375L9.91699 9.4043L10.1895 9.70312L11.0771 10.626C11.1914 10.7402 11.3408 10.8018 11.499 10.8018C11.8418 10.8018 12.0879 10.5557 12.0879 10.2129C12.0879 10.0547 12.0088 9.8877 11.9033 9.78223L9.76758 7.59375C9.53906 7.35645 9.16113 7.32129 8.88867 7.59375Z" fill="#1C1C1E"/>
</g>
<defs>
<clipPath id="clip0_10_1693">
<rect width="24" height="24" fill="white"/>
</clipPath>
</defs>
</svg>
