<svg width="24" height="24" viewBox="0 0 24 24" fill="none" xmlns="http://www.w3.org/2000/svg">
<g clip-path="url(#clip0_10_1821)">
<path d="M6.67383 19.8809H17.3174C19.2246 19.8809 20.209 18.8965 20.209 17.0156V6.31934C20.209 4.43848 19.2246 3.4541 17.3174 3.4541H6.67383C4.77539 3.4541 3.78223 4.42969 3.78223 6.31934V17.0156C3.78223 18.8965 4.77539 19.8809 6.67383 19.8809ZM6.78809 18.1318C5.97949 18.1318 5.53125 17.71 5.53125 16.8574V6.47754C5.53125 5.625 5.97949 5.20312 6.78809 5.20312H17.2031C18.0029 5.20312 18.46 5.625 18.46 6.47754V16.8574C18.46 17.71 18.0029 18.1318 17.2031 18.1318H6.78809ZM12.0088 7.14551C11.5605 7.14551 11.2178 7.4707 11.2178 7.91016V12.0498L11.2969 13.8516L10.5146 12.8672L9.53027 11.8389C9.39844 11.707 9.21387 11.6191 8.99414 11.6191C8.58105 11.6191 8.27344 11.918 8.27344 12.3223C8.27344 12.5332 8.33496 12.709 8.48438 12.8584L11.3848 15.7939C11.5781 15.9961 11.7715 16.0928 12.0088 16.0928C12.2549 16.0928 12.4482 15.9961 12.6416 15.7939L15.542 12.8584C15.6826 12.709 15.7529 12.5332 15.7529 12.3223C15.7529 11.918 15.4453 11.6191 15.0234 11.6191C14.8125 11.6191 14.6191 11.6982 14.4961 11.8389L13.5205 12.8584L12.7207 13.8604L12.7998 12.0498V7.91016C12.7998 7.4707 12.4658 7.14551 12.0088 7.14551Z" fill="#1C1C1E"/>
</g>
<defs>
<clipPath id="clip0_10_1821">
<rect width="24" height="24" fill="white"/>
</clipPath>
</defs>
</svg>
