<svg width="24" height="24" viewBox="0 0 24 24" fill="none" xmlns="http://www.w3.org/2000/svg">
<g clip-path="url(#clip0_10_1770)">
<path d="M18.6357 8.44629C18.6357 7.86621 18.1875 7.41797 17.6602 7.41797C17.124 7.41797 16.6934 7.875 16.6934 8.41992V11.7246L16.8428 15.293L15.4189 13.6934L7.06934 5.34375C6.8584 5.1416 6.6123 5.03613 6.36621 5.03613C5.83008 5.03613 5.35547 5.52832 5.35547 6.04688C5.35547 6.29297 5.46973 6.53906 5.67188 6.75L14.0127 15.0996L15.6123 16.5059L11.8857 16.3828H8.73047C8.19434 16.3828 7.74609 16.8135 7.74609 17.332C7.74609 17.8594 8.15918 18.3076 8.75684 18.3076H17.5898C18.2227 18.3076 18.627 17.8857 18.627 17.2705L18.6357 8.44629Z" fill="#1C1C1E"/>
</g>
<defs>
<clipPath id="clip0_10_1770">
<rect width="24" height="24" fill="white"/>
</clipPath>
</defs>
</svg>
