<svg width="24" height="24" viewBox="0 0 24 24" fill="none" xmlns="http://www.w3.org/2000/svg">
<g clip-path="url(#clip0_10_1552)">
<path d="M6.67383 19.8809H17.3174C19.2246 19.8809 20.209 18.8965 20.209 17.0156V6.31934C20.209 4.43848 19.2246 3.4541 17.3174 3.4541H6.67383C4.77539 3.4541 3.78223 4.42969 3.78223 6.31934V17.0156C3.78223 18.8965 4.77539 19.8809 6.67383 19.8809ZM6.78809 18.1318C5.97949 18.1318 5.53125 17.71 5.53125 16.8574V6.47754C5.53125 5.625 5.97949 5.20312 6.78809 5.20312H17.2031C18.0029 5.20312 18.46 5.625 18.46 6.47754V16.8574C18.46 17.71 18.0029 18.1318 17.2031 18.1318H6.78809ZM15.0498 14.3613C15.4805 14.3613 15.6826 13.8867 15.4365 13.4824L12.4922 8.45508C12.2637 8.07715 11.7451 8.08594 11.5254 8.45508L8.56348 13.4824C8.34375 13.8604 8.52832 14.3613 8.95898 14.3613H15.0498Z" fill="#1C1C1E"/>
</g>
<defs>
<clipPath id="clip0_10_1552">
<rect width="24" height="24" fill="white"/>
</clipPath>
</defs>
</svg>
