<svg width="24" height="24" viewBox="0 0 24 24" fill="none" xmlns="http://www.w3.org/2000/svg">
<g clip-path="url(#clip0_10_1646)">
<path d="M3.67676 11.6455C3.67676 11.9092 3.79102 12.1729 3.99316 12.3662L9.79395 18.1582C10.0049 18.3604 10.2334 18.457 10.4883 18.457C11.042 18.457 11.4463 18.0615 11.4463 17.5254C11.4463 17.2441 11.3408 17.0068 11.1562 16.8311L9.17871 14.8271L6.62988 12.498L8.67773 12.6211H19.3301C19.9102 12.6211 20.3145 12.2168 20.3145 11.6455C20.3145 11.0654 19.9102 10.6611 19.3301 10.6611H8.67773L6.63867 10.7842L9.17871 8.45508L11.1562 6.45117C11.3408 6.27539 11.4463 6.03809 11.4463 5.75684C11.4463 5.2207 11.042 4.8252 10.4883 4.8252C10.2334 4.8252 9.99609 4.92188 9.76758 5.1416L3.99316 10.916C3.79102 11.1094 3.67676 11.373 3.67676 11.6455Z" fill="#1C1C1E"/>
</g>
<defs>
<clipPath id="clip0_10_1646">
<rect width="24" height="24" fill="white"/>
</clipPath>
</defs>
</svg>
