<svg width="24" height="24" viewBox="0 0 24 24" fill="none" xmlns="http://www.w3.org/2000/svg">
<g clip-path="url(#clip0_10_1606)">
<path d="M6.67383 19.7666H17.3174C19.2246 19.7666 20.209 18.7822 20.209 16.9014V6.20508C20.209 4.32422 19.2246 3.33984 17.3174 3.33984H6.67383C4.77539 3.33984 3.78223 4.32422 3.78223 6.20508V16.9014C3.78223 18.791 4.77539 19.7666 6.67383 19.7666ZM6.78809 18.0176C5.97949 18.0176 5.53125 17.5957 5.53125 16.7432V6.36328C5.53125 5.51074 5.97949 5.08887 6.78809 5.08887H17.2031C18.0029 5.08887 18.46 5.51074 18.46 6.36328V16.7432C18.46 17.5957 18.0029 18.0176 17.2031 18.0176H6.78809ZM7.45605 12.5859C7.45605 14.6953 8.96777 16.0312 11.0332 16.0312H12.2549C12.6943 16.0312 13.0107 15.7764 13.0107 15.3457C13.0107 14.9062 12.6943 14.6602 12.2725 14.6602H11.0332C9.76758 14.6602 8.8623 13.834 8.8623 12.5244C8.8623 11.2412 9.79395 10.5029 11.0332 10.5029H13.6348L14.5664 10.459L14.0654 10.8281L13.0107 11.8037C12.8789 11.9268 12.8086 12.1113 12.8086 12.2783C12.8086 12.6562 13.1074 12.9639 13.4766 12.9639C13.6611 12.9639 13.8193 12.8936 13.9512 12.7705L16.2979 10.3711C16.4561 10.2217 16.5352 10.0371 16.5352 9.82617C16.5352 9.62402 16.4473 9.43066 16.2979 9.28125L13.96 6.9082C13.8281 6.76758 13.6699 6.70605 13.4854 6.70605C13.1162 6.70605 12.8174 7.00488 12.8174 7.38281C12.8174 7.56738 12.8965 7.74316 13.0195 7.85742L13.916 8.70996L14.5664 9.21973L13.6348 9.17578H11.0332C8.95898 9.17578 7.45605 10.4766 7.45605 12.5859Z" fill="#1C1C1E"/>
</g>
<defs>
<clipPath id="clip0_10_1606">
<rect width="24" height="24" fill="white"/>
</clipPath>
</defs>
</svg>
