<svg width="24" height="24" viewBox="0 0 24 24" fill="none" xmlns="http://www.w3.org/2000/svg">
<g clip-path="url(#clip0_10_1596)">
<path d="M11.9912 20.6455C16.9746 20.6455 21.0879 16.5322 21.0879 11.5576C21.0879 6.57422 16.9658 2.46094 11.9824 2.46094C7.00781 2.46094 2.90332 6.57422 2.90332 11.5576C2.90332 16.5322 7.0166 20.6455 11.9912 20.6455ZM13.2129 6.85547C15.4189 6.85547 16.8076 8.42871 16.8076 10.5908V11.8564C16.8076 12.3135 16.5439 12.6387 16.0781 12.6387C15.6299 12.6387 15.3662 12.3135 15.3662 11.874V10.5908C15.3662 9.27246 14.5137 8.34082 13.1514 8.34082C11.8154 8.34082 11.0596 9.29883 11.0596 10.582V13.2803L11.0156 14.2559L11.3936 13.7285L12.3955 12.6475C12.5273 12.498 12.7119 12.4277 12.8965 12.4277C13.3008 12.4277 13.6084 12.7441 13.6084 13.1221C13.6084 13.3154 13.5469 13.4912 13.4062 13.623L10.9189 16.0664C10.7607 16.2246 10.5674 16.3213 10.3477 16.3213C10.1367 16.3213 9.93457 16.2246 9.77637 16.0664L7.30664 13.6318C7.15723 13.5 7.0957 13.333 7.0957 13.1309C7.0957 12.7441 7.41211 12.4277 7.80762 12.4277C8.00098 12.4277 8.17676 12.5156 8.2998 12.6475L9.17871 13.5703L9.70605 14.2559L9.6709 13.2803V10.582C9.6709 8.41992 11.0156 6.85547 13.2129 6.85547Z" fill="#1C1C1E"/>
</g>
<defs>
<clipPath id="clip0_10_1596">
<rect width="24" height="24" fill="white"/>
</clipPath>
</defs>
</svg>
