<svg width="24" height="24" viewBox="0 0 24 24" fill="none" xmlns="http://www.w3.org/2000/svg">
<g clip-path="url(#clip0_10_1812)">
<path d="M13.248 19.8369C13.9336 19.8369 14.4434 19.3271 14.4434 18.6416V15.4951H14.6543C17.8711 15.4951 19.8311 16.4355 21.2021 19.0107C21.5449 19.6436 21.9844 19.793 22.4414 19.793C23.0654 19.793 23.5312 19.2129 23.5312 18.1055C23.5312 11.7246 20.7188 7.83105 14.6543 7.83105H14.4434V4.69336C14.4434 4.0166 13.9336 3.46289 13.2393 3.46289C12.7646 3.46289 12.4395 3.65625 11.9297 4.13086L4.95996 10.6172C4.63477 10.9248 4.49414 11.3027 4.49414 11.6455C4.49414 11.9795 4.63477 12.3662 4.96875 12.6738L11.9297 19.2129C12.3867 19.6436 12.7734 19.8369 13.248 19.8369ZM8.58984 19.8369C9.20508 19.8369 9.66211 19.4854 9.72363 19.0635V18.8086L4.07227 13.5967C3.50098 13.0781 3.14941 12.3926 3.14941 11.6543C3.14941 10.9248 3.4834 10.2393 4.07227 9.70312L9.72363 4.52637V4.27148C9.66211 3.84082 9.20508 3.47168 8.57227 3.47168C8.10645 3.47168 7.78125 3.66504 7.27148 4.13965L0.301758 10.626C-0.0410156 10.9512 -0.172852 11.3203 -0.172852 11.6543C-0.172852 11.9795 -0.0410156 12.3574 0.310547 12.6826L7.27148 19.2129C7.71973 19.6523 8.11523 19.8369 8.58984 19.8369Z" fill="#1C1C1E"/>
</g>
<defs>
<clipPath id="clip0_10_1812">
<rect width="24" height="24" fill="white"/>
</clipPath>
</defs>
</svg>
