<svg width="24" height="24" viewBox="0 0 24 24" fill="none" xmlns="http://www.w3.org/2000/svg">
<g clip-path="url(#clip0_10_1757)">
<path d="M12 20.9795C12.4131 20.9795 12.7734 20.6719 12.7734 20.25V3.08496C12.7734 2.66309 12.4131 2.34668 12 2.34668C11.5957 2.34668 11.2266 2.66309 11.2266 3.08496V20.25C11.2266 20.6719 11.5869 20.9795 12 20.9795ZM-0.972656 12.8232L5.77734 16.9541C6.70898 17.5166 7.77246 17.0859 7.77246 15.9082V7.42676C7.77246 6.2666 6.73535 5.80078 5.77734 6.38086L-0.972656 10.5117C-1.93945 11.0918 -1.92188 12.2432 -0.972656 12.8232ZM18.2139 16.9541L24.9727 12.8232C25.9219 12.2432 25.9307 11.0918 24.9727 10.5117L18.2139 6.38086C17.2646 5.80078 16.2188 6.2666 16.2188 7.42676V15.9082C16.2188 17.0859 17.2822 17.5166 18.2139 16.9541ZM0.205078 11.8213C0.0820312 11.7422 0.0205078 11.6191 0.205078 11.5049L5.9707 7.9541C6.05859 7.90137 6.24316 7.88379 6.24316 8.08594V15.249C6.24316 15.4424 6.06738 15.4512 5.9707 15.3809L0.205078 11.8213ZM18.0205 15.3809C17.9238 15.4424 17.748 15.4424 17.748 15.249V8.08594C17.748 7.88379 17.9414 7.90137 18.0205 7.9541L23.7861 11.5049C23.9707 11.6191 23.9092 11.751 23.7861 11.8213L18.0205 15.3809Z" fill="#1C1C1E"/>
</g>
<defs>
<clipPath id="clip0_10_1757">
<rect width="24" height="24" fill="white"/>
</clipPath>
</defs>
</svg>
