<svg width="24" height="24" viewBox="0 0 24 24" fill="none" xmlns="http://www.w3.org/2000/svg">
<g clip-path="url(#clip0_10_1699)">
<path d="M6.67383 19.8809H17.3174C19.2246 19.8809 20.209 18.8965 20.209 17.0156V6.31934C20.209 4.43848 19.2246 3.4541 17.3174 3.4541H6.67383C4.77539 3.4541 3.78223 4.42969 3.78223 6.31934V17.0156C3.78223 18.8965 4.77539 19.8809 6.67383 19.8809ZM7.78125 8.5166L10.0488 6.31055C10.1719 6.1875 10.3389 6.1084 10.4971 6.1084C10.8662 6.1084 11.1211 6.36328 11.1211 6.72363C11.1211 6.89941 11.0596 7.05762 10.9365 7.17188L9.99609 8.08594L9.68848 8.3584L10.1367 8.34961H15.832C16.1836 8.34961 16.4561 8.62207 16.4561 8.98242C16.4561 9.34277 16.1836 9.60645 15.832 9.60645H10.1367L9.68848 9.58887L9.99609 9.87891L10.9365 10.7842C11.0596 10.9072 11.1211 11.0654 11.1211 11.2324C11.1211 11.5928 10.8662 11.8477 10.4971 11.8477C10.3477 11.8477 10.1807 11.7773 10.0488 11.6631L7.78125 9.44824C7.52637 9.19336 7.52637 8.7627 7.78125 8.5166ZM16.2539 14.8096L13.9863 17.0332C13.8545 17.1475 13.6875 17.2266 13.5293 17.2266C13.1777 17.2266 12.9141 16.9629 12.9141 16.6025C12.9141 16.4355 12.9844 16.2861 13.1074 16.1631L14.0479 15.2402L14.3555 14.9766L13.8896 14.9854H8.20312C7.85156 14.9854 7.58789 14.7129 7.58789 14.3525C7.58789 13.9834 7.85156 13.7197 8.20312 13.7197H13.8984L14.3555 13.7373L14.0479 13.4561L13.0898 12.542C12.9756 12.4189 12.9141 12.2695 12.9141 12.1025C12.9141 11.7422 13.1689 11.4873 13.5293 11.4873C13.6963 11.4873 13.8721 11.5664 13.9863 11.6719L16.2539 13.8955C16.5088 14.1504 16.5176 14.5459 16.2539 14.8096Z" fill="#1C1C1E"/>
</g>
<defs>
<clipPath id="clip0_10_1699">
<rect width="24" height="24" fill="white"/>
</clipPath>
</defs>
</svg>
