<svg width="24" height="24" viewBox="0 0 24 24" fill="none" xmlns="http://www.w3.org/2000/svg">
<g clip-path="url(#clip0_10_1612)">
<path d="M11.9912 20.7422C16.9746 20.7422 21.0879 16.6289 21.0879 11.6543C21.0879 6.67969 16.9658 2.56641 11.9824 2.56641C7.00781 2.56641 2.90332 6.67969 2.90332 11.6543C2.90332 16.6289 7.0166 20.7422 11.9912 20.7422ZM11.9912 16.2773C11.5166 16.2773 11.165 15.9434 11.165 15.4688V11.1973L11.2529 9.31641L10.4355 10.3359L9.4248 11.3994C9.28418 11.5488 9.08203 11.6367 8.8623 11.6367C8.42285 11.6367 8.09766 11.3203 8.09766 10.8896C8.09766 10.6699 8.16797 10.4941 8.31738 10.3359L11.3408 7.27734C11.543 7.05762 11.7451 6.96094 11.9912 6.96094C12.2549 6.96094 12.457 7.06641 12.6592 7.27734L15.665 10.3359C15.8232 10.4941 15.8936 10.6699 15.8936 10.8896C15.8936 11.3203 15.5684 11.6367 15.1289 11.6367C14.9092 11.6367 14.707 11.5576 14.5664 11.3994L13.5645 10.3447L12.7383 9.30762L12.8262 11.1973V15.4688C12.8262 15.9434 12.4746 16.2773 11.9912 16.2773Z" fill="#1C1C1E"/>
</g>
<defs>
<clipPath id="clip0_10_1612">
<rect width="24" height="24" fill="white"/>
</clipPath>
</defs>
</svg>
