<svg width="24" height="24" viewBox="0 0 24 24" fill="none" xmlns="http://www.w3.org/2000/svg">
<g clip-path="url(#clip0_10_1758)">
<path d="M18.6357 14.8975L18.627 6.07324C18.627 5.45801 18.2227 5.03613 17.5898 5.03613H8.75684C8.15918 5.03613 7.74609 5.48438 7.74609 6.01172C7.74609 6.53027 8.19434 6.96094 8.73047 6.96094H11.8857L15.6123 6.83789L14.0127 8.24414L5.67188 16.5938C5.46973 16.8047 5.35547 17.0508 5.35547 17.2969C5.35547 17.8154 5.83008 18.3076 6.36621 18.3076C6.6123 18.3076 6.8584 18.2021 7.06934 18L15.4189 9.65039L16.8428 8.05078L16.6934 11.6191V14.9238C16.6934 15.4688 17.124 15.9258 17.6602 15.9258C18.1875 15.9258 18.6357 15.4775 18.6357 14.8975Z" fill="#1C1C1E"/>
</g>
<defs>
<clipPath id="clip0_10_1758">
<rect width="24" height="24" fill="white"/>
</clipPath>
</defs>
</svg>
