<svg width="24" height="24" viewBox="0 0 24 24" fill="none" xmlns="http://www.w3.org/2000/svg">
<g clip-path="url(#clip0_10_1828)">
<path d="M11.9912 20.7422C16.9746 20.7422 21.0879 16.6289 21.0879 11.6543C21.0879 6.67969 16.9658 2.56641 11.9824 2.56641C7.00781 2.56641 2.90332 6.67969 2.90332 11.6543C2.90332 16.6289 7.0166 20.7422 11.9912 20.7422ZM9.12598 14.0537C8.66895 14.0537 8.37012 13.7109 8.37012 13.21V8.97363C8.37012 8.33203 8.73047 8.0332 9.31055 8.0332H13.582C14.083 8.0332 14.4082 8.33203 14.4082 8.79785C14.4082 9.26367 14.083 9.5625 13.5732 9.5625H12.0439L10.8047 9.42188L12.1494 10.6436L15.3311 13.8252C15.498 13.9834 15.5947 14.2031 15.5947 14.4229C15.5947 14.915 15.252 15.2402 14.7861 15.2402C14.5312 15.2402 14.3203 15.1523 14.1445 14.9766L10.9805 11.8125L9.76758 10.4766L9.89062 11.7861V13.2275C9.89062 13.7373 9.5918 14.0537 9.12598 14.0537Z" fill="#1C1C1E"/>
</g>
<defs>
<clipPath id="clip0_10_1828">
<rect width="24" height="24" fill="white"/>
</clipPath>
</defs>
</svg>
