<svg width="24" height="24" viewBox="0 0 24 24" fill="none" xmlns="http://www.w3.org/2000/svg">
<g clip-path="url(#clip0_10_1697)">
<path d="M7.21875 20.0039C11.1826 20.0039 13.1338 18.3604 13.1338 14.3701V8.61328L13.0635 6.33691L14.6279 8.06836L17.3438 10.793C17.5195 10.9688 17.7656 11.083 18.0469 11.083C18.583 11.083 18.9785 10.6787 18.9785 10.1162C18.9785 9.87012 18.8818 9.63281 18.6797 9.42188L12.8877 3.62109C12.6943 3.41895 12.4219 3.30469 12.1582 3.30469C11.8945 3.30469 11.6221 3.41895 11.4287 3.62109L5.64551 9.42188C5.43457 9.63281 5.33789 9.87012 5.33789 10.1162C5.33789 10.6787 5.74219 11.083 6.27832 11.083C6.55078 11.083 6.79688 10.9688 6.97266 10.793L9.68848 8.06836L11.2617 6.32812L11.1826 8.61328L11.1914 14.2471C11.1914 17.0947 9.96973 18.0703 7.15723 18.0703C6.67383 18.0703 6.32227 18.0439 5.98828 18.0439C5.42578 18.0439 5.02148 18.4043 5.02148 18.9756C5.02148 19.5732 5.47852 19.8457 5.90039 19.9248C6.26074 19.9951 6.70898 20.0039 7.21875 20.0039Z" fill="#1C1C1E"/>
</g>
<defs>
<clipPath id="clip0_10_1697">
<rect width="24" height="24" fill="white"/>
</clipPath>
</defs>
</svg>
