<svg width="24" height="24" viewBox="0 0 24 24" fill="none" xmlns="http://www.w3.org/2000/svg">
<g clip-path="url(#clip0_10_1592)">
<path d="M3.43066 15.3633V19.2656C3.43066 19.8193 3.7998 20.2148 4.3623 20.2148H8.28223C9.16992 20.2148 9.44238 19.2568 8.84473 18.6592L7.56152 17.376L11.9912 12.9463L16.4209 17.3848L15.1465 18.6592C14.5488 19.2568 14.8213 20.2148 15.709 20.2148H19.6289C20.1826 20.2148 20.5605 19.8193 20.5605 19.2656V15.3633C20.5605 14.4668 19.5938 14.2119 19.0049 14.8008L17.7217 16.084L13.292 11.6455L17.7217 7.21582L19.0049 8.49023C19.5938 9.08789 20.5605 8.82422 20.5605 7.92773V4.02539C20.5605 3.48047 20.1826 3.08496 19.6289 3.08496H15.709C14.8213 3.08496 14.5488 4.03418 15.1465 4.64062L16.4297 5.91504L11.9912 10.3535L7.56152 5.91504L8.84473 4.64062C9.44238 4.03418 9.16992 3.08496 8.28223 3.08496H4.3623C3.7998 3.08496 3.43066 3.48047 3.43066 4.02539V7.92773C3.43066 8.82422 4.38867 9.08789 4.98633 8.49023L6.26953 7.20703L10.6992 11.6455L6.26074 16.084L4.98633 14.8008C4.38867 14.2119 3.43066 14.4668 3.43066 15.3633Z" fill="#1C1C1E"/>
</g>
<defs>
<clipPath id="clip0_10_1592">
<rect width="24" height="24" fill="white"/>
</clipPath>
</defs>
</svg>
