<svg width="24" height="24" viewBox="0 0 24 24" fill="none" xmlns="http://www.w3.org/2000/svg">
<g clip-path="url(#clip0_10_1621)">
<path d="M7.48242 18.3516C7.72852 18.3516 7.9834 18.2725 8.2207 18.1143L8.67773 17.8154C9.86426 17.0156 11.6045 15.2227 11.9824 14.291H12.0088C12.3867 15.2139 14.1182 17.0156 15.3135 17.8154L15.7705 18.1143C16.0078 18.2637 16.2627 18.3516 16.5176 18.3516C17.0449 18.3516 17.3701 17.9912 17.3701 17.499C17.3701 17.2002 17.2119 16.9014 16.9395 16.7256L16.2363 16.2773C14.9971 15.4688 12.8789 13.4209 12.8789 11.4346V8.2002H14.2061C14.874 8.2002 15.0674 7.69043 14.6719 7.1543L12.5625 4.18359C12.2461 3.73535 11.7539 3.73535 11.4287 4.18359L9.31934 7.14551C8.92383 7.69043 9.1084 8.2002 9.79395 8.2002H11.1123V11.4346C11.1123 13.4209 8.98535 15.46 7.75488 16.2773L7.05176 16.7256C6.7793 16.9014 6.62109 17.209 6.62109 17.5078C6.62109 17.9648 6.9375 18.3516 7.48242 18.3516Z" fill="#1C1C1E"/>
</g>
<defs>
<clipPath id="clip0_10_1621">
<rect width="24" height="24" fill="white"/>
</clipPath>
</defs>
</svg>
