<svg width="24" height="24" viewBox="0 0 24 24" fill="none" xmlns="http://www.w3.org/2000/svg">
<g clip-path="url(#clip0_10_1683)">
<path d="M4.74023 18.7031C5.31152 18.7031 5.69824 18.3076 5.69824 17.7363C5.69824 17.4023 5.67188 17.0508 5.67188 16.5586C5.67188 13.6406 6.7002 12.4541 9.5918 12.4541H15.2607L17.3613 12.3311L14.7861 14.6777L12.8174 16.6641C12.6416 16.8398 12.5273 17.0859 12.5273 17.3584C12.5273 17.8945 12.9316 18.2988 13.4941 18.2988C13.7402 18.2988 13.9775 18.2021 14.1885 17.9912L19.9805 12.208C20.1914 12.0059 20.3057 11.7422 20.3057 11.4785C20.3057 11.2061 20.1914 10.9424 19.9805 10.7402L14.2061 4.97461C13.9775 4.75488 13.7402 4.64941 13.4941 4.64941C12.9316 4.64941 12.5273 5.05371 12.5273 5.58984C12.5273 5.8623 12.6328 6.1084 12.8174 6.28418L14.7861 8.2793L17.3525 10.6172L15.2607 10.4941H9.46875C5.4082 10.4941 3.69434 12.375 3.69434 16.4971C3.69434 17.0156 3.71191 17.4727 3.78223 17.8242C3.86133 18.2549 4.13379 18.7031 4.74023 18.7031Z" fill="#1C1C1E"/>
</g>
<defs>
<clipPath id="clip0_10_1683">
<rect width="24" height="24" fill="white"/>
</clipPath>
</defs>
</svg>
