<svg width="24" height="24" viewBox="0 0 24 24" fill="none" xmlns="http://www.w3.org/2000/svg">
<g clip-path="url(#clip0_10_1804)">
<path d="M6.67383 19.8809H17.3174C19.2246 19.8809 20.209 18.8965 20.209 17.0156V6.31934C20.209 4.43848 19.2246 3.4541 17.3174 3.4541H6.67383C4.77539 3.4541 3.78223 4.42969 3.78223 6.31934V17.0156C3.78223 18.8965 4.77539 19.8809 6.67383 19.8809ZM6.78809 18.1318C5.97949 18.1318 5.53125 17.71 5.53125 16.8574V6.47754C5.53125 5.625 5.97949 5.20312 6.78809 5.20312H17.2031C18.0029 5.20312 18.46 5.625 18.46 6.47754V16.8574C18.46 17.71 18.0029 18.1318 17.2031 18.1318H6.78809ZM14.7422 13.957C15.1816 13.957 15.4717 13.6318 15.4717 13.1572V9.07031C15.4717 8.45508 15.1289 8.18262 14.5752 8.18262H10.4619C9.9873 8.18262 9.6709 8.46387 9.6709 8.90332C9.6709 9.35156 9.9873 9.63281 10.4707 9.63281H11.9561L13.1426 9.49219L11.8506 10.6787L8.77441 13.7549C8.625 13.9043 8.52832 14.1064 8.52832 14.3174C8.52832 14.792 8.85352 15.0996 9.30176 15.0996C9.54785 15.0996 9.74121 15.0117 9.89941 14.8535L12.9668 11.7861L14.1445 10.5117L14.0127 11.7686V13.166C14.0127 13.6494 14.3027 13.957 14.7422 13.957Z" fill="#1C1C1E"/>
</g>
<defs>
<clipPath id="clip0_10_1804">
<rect width="24" height="24" fill="white"/>
</clipPath>
</defs>
</svg>
