<svg width="24" height="24" viewBox="0 0 24 24" fill="none" xmlns="http://www.w3.org/2000/svg">
<g clip-path="url(#clip0_10_1677)">
<path d="M6.67383 19.8633H17.3174C19.2246 19.8633 20.209 18.8789 20.209 16.998V6.30176C20.209 4.4209 19.2246 3.42773 17.3174 3.42773H6.67383C4.77539 3.42773 3.78223 4.41211 3.78223 6.30176V16.998C3.78223 18.8789 4.77539 19.8633 6.67383 19.8633ZM6.78809 18.1055C5.97949 18.1055 5.53125 17.6836 5.53125 16.8398V6.45117C5.53125 5.60742 5.97949 5.18555 6.78809 5.18555H17.2031C18.0029 5.18555 18.46 5.60742 18.46 6.45117V16.8398C18.46 17.6836 18.0029 18.1055 17.2031 18.1055H6.78809ZM16.5352 12.6738C16.5352 10.5732 15.0322 9.27246 12.9668 9.27246H10.3652L9.4248 9.30762L10.0752 8.79785L10.9717 7.9541C11.1035 7.83105 11.1826 7.66406 11.1826 7.47949C11.1826 7.10156 10.875 6.79395 10.5059 6.79395C10.3213 6.79395 10.1631 6.85547 10.0312 6.99609L7.69336 9.37793C7.54395 9.52734 7.45605 9.71191 7.45605 9.92285C7.45605 10.125 7.54395 10.3184 7.69336 10.4678L10.04 12.8584C10.1719 12.9902 10.3301 13.0518 10.5146 13.0518C10.8838 13.0518 11.1826 12.7529 11.1826 12.375C11.1826 12.1992 11.1123 12.0234 10.9805 11.9004L9.92578 10.9248L9.4248 10.5557L10.3652 10.5996H12.9668C14.1973 10.5996 15.1289 11.3291 15.1289 12.6211C15.1289 13.9307 14.2236 14.748 12.958 14.748H11.7188C11.2969 14.748 10.9805 15.0029 10.9805 15.4336C10.9805 15.873 11.2969 16.1279 11.7363 16.1279H12.958C15.0322 16.1279 16.5352 14.792 16.5352 12.6738Z" fill="#1C1C1E"/>
</g>
<defs>
<clipPath id="clip0_10_1677">
<rect width="24" height="24" fill="white"/>
</clipPath>
</defs>
</svg>
