<svg width="24" height="24" viewBox="0 0 24 24" fill="none" xmlns="http://www.w3.org/2000/svg">
<g clip-path="url(#clip0_10_1825)">
<path d="M11.9912 20.7422C16.9746 20.7422 21.0879 16.6289 21.0879 11.6543C21.0879 6.67969 16.9658 2.56641 11.9824 2.56641C7.00781 2.56641 2.90332 6.67969 2.90332 11.6543C2.90332 16.6289 7.0166 20.7422 11.9912 20.7422ZM8.00977 11.584C7.61426 11.584 7.29785 11.2676 7.29785 10.8721C7.29785 10.4941 7.61426 10.1777 8.00977 10.1777H8.3877L9.63574 10.2832L7.39453 8.14746C7.08691 7.85742 7.07812 7.35645 7.38574 7.05762C7.68457 6.75879 8.17676 6.75879 8.4668 7.06641L10.6201 9.3252L10.5146 8.04199V7.65527C10.5146 7.26855 10.8311 6.95215 11.209 6.95215C11.6045 6.95215 11.9209 7.26855 11.9209 7.65527V10.7139C11.9209 11.3115 11.6045 11.584 11.0508 11.584H8.00977ZM12.7559 16.3477C12.3691 16.3477 12.0527 16.04 12.0527 15.6445V12.5859C12.0527 11.9883 12.3604 11.7158 12.9229 11.7158H15.9639C16.3594 11.7158 16.667 12.0322 16.667 12.4277C16.667 12.8057 16.3594 13.1221 15.9639 13.1221H15.5771L14.3291 13.0166L16.5791 15.1523C16.8867 15.4424 16.8955 15.9434 16.5879 16.2422C16.2891 16.541 15.7969 16.5498 15.498 16.2334L13.3447 13.9746L13.459 15.2578V15.6445C13.459 16.04 13.1426 16.3477 12.7559 16.3477Z" fill="#1C1C1E"/>
</g>
<defs>
<clipPath id="clip0_10_1825">
<rect width="24" height="24" fill="white"/>
</clipPath>
</defs>
</svg>
