<svg width="24" height="24" viewBox="0 0 24 24" fill="none" xmlns="http://www.w3.org/2000/svg">
<g clip-path="url(#clip0_10_1616)">
<path d="M12 20.0039C12.5713 20.0039 12.9756 19.5996 12.9756 19.0195V8.16504L12.9053 6.2666L15.1816 8.80664L17.1855 10.793C17.3613 10.9688 17.6074 11.083 17.8799 11.083C18.416 11.083 18.8203 10.6787 18.8203 10.125C18.8203 9.87012 18.7236 9.63281 18.5127 9.42188L12.7207 3.62109C12.5273 3.41895 12.2637 3.31348 12 3.31348C11.7275 3.31348 11.4639 3.41895 11.2705 3.62109L5.4873 9.42188C5.27637 9.63281 5.17969 9.87012 5.17969 10.125C5.17969 10.6787 5.5752 11.083 6.11133 11.083C6.39258 11.083 6.63867 10.9688 6.81445 10.793L8.80957 8.80664L11.0947 6.25781L11.0156 8.16504V19.0195C11.0156 19.5996 11.4199 20.0039 12 20.0039Z" fill="#1C1C1E"/>
</g>
<defs>
<clipPath id="clip0_10_1616">
<rect width="24" height="24" fill="white"/>
</clipPath>
</defs>
</svg>
