<svg width="24" height="24" viewBox="0 0 24 24" fill="none" xmlns="http://www.w3.org/2000/svg">
<g clip-path="url(#clip0_10_1689)">
<path d="M11.9912 20.7422C16.9746 20.7422 21.0879 16.6289 21.0879 11.6543C21.0879 6.67969 16.9658 2.56641 11.9824 2.56641C7.00781 2.56641 2.90332 6.67969 2.90332 11.6543C2.90332 16.6289 7.0166 20.7422 11.9912 20.7422ZM11.9912 18.9316C7.95703 18.9316 4.73145 15.6885 4.73145 11.6543C4.73145 7.62012 7.95703 4.38574 11.9824 4.38574C16.0166 4.38574 19.2598 7.62012 19.2686 11.6543C19.2773 15.6885 16.0254 18.9316 11.9912 18.9316ZM7.9043 8.63965C7.6582 8.87695 7.66699 9.29883 7.9043 9.53613L10.0928 11.6719C10.2158 11.7773 10.374 11.8477 10.5234 11.8477C10.8662 11.8477 11.1123 11.6104 11.1123 11.2588C11.1123 11.1006 11.0596 10.9512 10.9365 10.8369L10.0225 9.94922L9.72363 9.67676L10.1543 9.69434H15.6475C15.9902 9.69434 16.2451 9.43066 16.2451 9.08789C16.2451 8.74512 15.999 8.49023 15.6475 8.49023H10.1631L9.73242 8.49902L10.0225 8.22656L10.9365 7.33887C11.0596 7.2334 11.1123 7.08398 11.1123 6.92578C11.1123 6.57422 10.8662 6.32812 10.5234 6.32812C10.374 6.32812 10.207 6.40723 10.0928 6.5127L7.9043 8.63965ZM16.0605 14.6953C16.3154 14.4492 16.2979 14.0625 16.0605 13.8164L13.8721 11.6807C13.7666 11.5752 13.5908 11.4961 13.4414 11.4961C13.0898 11.4961 12.8525 11.7422 12.8525 12.085C12.8525 12.252 12.9053 12.3926 13.0195 12.5068L13.9424 13.3945L14.2412 13.6758L13.8018 13.6494H8.30859C7.97461 13.6494 7.71973 13.9043 7.71973 14.2559C7.71973 14.5986 7.97461 14.8535 8.30859 14.8535H13.8018L14.2412 14.8447L13.9424 15.1172L13.0283 16.0049C12.9141 16.1191 12.8525 16.2598 12.8525 16.4268C12.8525 16.7607 13.0986 17.0156 13.4414 17.0156C13.582 17.0156 13.749 16.9365 13.8721 16.8311L16.0605 14.6953Z" fill="#1C1C1E"/>
</g>
<defs>
<clipPath id="clip0_10_1689">
<rect width="24" height="24" fill="white"/>
</clipPath>
</defs>
</svg>
