<svg width="24" height="24" viewBox="0 0 24 24" fill="none" xmlns="http://www.w3.org/2000/svg">
<g clip-path="url(#clip0_10_1801)">
<path d="M14.4521 19.8369C14.9268 19.8369 15.3047 19.6436 15.7705 19.2129L22.7314 12.6826C23.0742 12.3574 23.2061 11.9795 23.2061 11.6543C23.2061 11.3203 23.083 10.9512 22.7314 10.626L15.7705 4.13086C15.2607 3.66504 14.9355 3.47168 14.4609 3.47168C13.7666 3.47168 13.2568 4.0166 13.2568 4.70215V7.91016H7.86035C6.2168 7.91016 5.51367 8.62207 5.51367 10.2393V11.8916H3.52734C1.97168 11.8916 1.2334 12.6123 1.2334 14.1328V17.5254C1.2334 19.0547 1.9541 19.7578 3.52734 19.7578H8.84473C10.4443 19.7578 11.1387 19.0635 11.1387 17.4814V15.6621H13.2568V18.6504C13.2568 19.3359 13.7666 19.8369 14.4521 19.8369ZM9.89941 17.5781L6.62109 16.1982C5.75977 15.8203 5.39062 15.3193 5.35547 14.5371C5.34668 14.3613 5.54883 14.3262 5.61914 14.502C5.87402 15.1963 6.51562 15.6621 7.59668 15.6621H10.0137V17.5254C10.0137 17.5869 9.96094 17.6045 9.89941 17.5781Z" fill="#1C1C1E"/>
</g>
<defs>
<clipPath id="clip0_10_1801">
<rect width="24" height="24" fill="white"/>
</clipPath>
</defs>
</svg>
