<svg width="24" height="24" viewBox="0 0 24 24" fill="none" xmlns="http://www.w3.org/2000/svg">
<g clip-path="url(#clip0_10_1617)">
<path d="M5.8125 8.80664L6.68262 7.68164L6.75293 7.72559C8.75684 9.00879 11.1123 11.9531 11.1123 14.0186V18.9404C11.1123 19.6084 11.4287 19.96 11.9912 19.96C12.5625 19.96 12.8789 19.6084 12.8789 18.9404V14.0186C12.8789 11.9531 15.2344 9.00879 17.2383 7.72559L17.2734 7.70801L18.0645 8.79785C18.46 9.35156 18.9785 9.20215 19.1895 8.56055L20.3408 5.10645C20.5166 4.5791 20.2266 4.18359 19.6816 4.19238L16.0342 4.22754C15.3662 4.23633 15.0762 4.68457 15.4629 5.2207L16.2188 6.25781C14.3115 7.55859 12.3516 10.0195 12.0088 11.3994H11.9824C11.6309 10.0107 9.67969 7.56738 7.78125 6.2666L8.51074 5.31738C8.92383 4.79004 8.64258 4.33301 7.96582 4.30664L4.32715 4.15723C3.78223 4.13965 3.4834 4.52637 3.6416 5.05371L4.6875 8.53418C4.88086 9.18457 5.39062 9.35156 5.8125 8.80664Z" fill="#1C1C1E"/>
</g>
<defs>
<clipPath id="clip0_10_1617">
<rect width="24" height="24" fill="white"/>
</clipPath>
</defs>
</svg>
