<svg width="24" height="24" viewBox="0 0 24 24" fill="none" xmlns="http://www.w3.org/2000/svg">
<g clip-path="url(#clip0_10_1713)">
<path d="M6.67383 19.8809H17.3174C19.2246 19.8809 20.209 18.8965 20.209 17.0156V6.31934C20.209 4.43848 19.2246 3.4541 17.3174 3.4541H6.67383C4.77539 3.4541 3.78223 4.42969 3.78223 6.31934V17.0156C3.78223 18.8965 4.77539 19.8809 6.67383 19.8809ZM6.78809 18.1318C5.97949 18.1318 5.53125 17.71 5.53125 16.8574V6.47754C5.53125 5.625 5.97949 5.20312 6.78809 5.20312H17.2031C18.0029 5.20312 18.46 5.625 18.46 6.47754V16.8574C18.46 17.71 18.0029 18.1318 17.2031 18.1318H6.78809ZM15.1025 15.7412L17.2295 13.5527C17.3438 13.4385 17.4229 13.2715 17.4229 13.1221C17.4229 12.7705 17.1768 12.5244 16.8252 12.5244C16.6582 12.5244 16.5088 12.5859 16.4033 12.7002L15.5156 13.6143L15.252 13.9131L15.2607 13.4736V7.98926C15.2607 7.64648 14.9971 7.3916 14.6543 7.3916C14.3115 7.3916 14.0566 7.65527 14.0566 7.98926V13.4824L14.0742 13.9131L13.793 13.6143L12.9141 12.7002C12.7998 12.5859 12.6504 12.5244 12.4922 12.5244C12.1406 12.5244 11.9033 12.7705 11.9033 13.1221C11.9033 13.2627 11.9736 13.4297 12.0791 13.5527L14.2148 15.7412C14.4346 15.9609 14.8477 15.9961 15.1025 15.7412ZM8.90625 7.58496L6.77051 9.77344C6.66504 9.89648 6.58594 10.0635 6.58594 10.2041C6.58594 10.5469 6.84082 10.793 7.18359 10.793C7.3418 10.793 7.48242 10.7314 7.59668 10.6172L8.48438 9.70312L8.75684 9.39551L8.74805 9.84375V15.3281C8.74805 15.6709 9.00293 15.917 9.3457 15.917C9.69727 15.917 9.95215 15.6621 9.95215 15.3281V9.83496L9.93457 9.39551L10.207 9.70312L11.0947 10.6172C11.209 10.7402 11.3584 10.793 11.5166 10.793C11.8594 10.793 12.1055 10.5469 12.1055 10.2041C12.1055 10.0547 12.0264 9.87891 11.9209 9.77344L9.78516 7.58496C9.55664 7.35645 9.16992 7.32129 8.90625 7.58496Z" fill="#1C1C1E"/>
</g>
<defs>
<clipPath id="clip0_10_1713">
<rect width="24" height="24" fill="white"/>
</clipPath>
</defs>
</svg>
