<svg width="24" height="24" viewBox="0 0 24 24" fill="none" xmlns="http://www.w3.org/2000/svg">
<g clip-path="url(#clip0_10_1819)">
<path d="M11.9912 20.7598C16.9746 20.7598 21.0879 16.6465 21.0879 11.6631C21.0879 6.68848 16.9658 2.5752 11.9824 2.5752C7.00781 2.5752 2.90332 6.68848 2.90332 11.6631C2.90332 16.6465 7.0166 20.7598 11.9912 20.7598ZM12.4395 15.3809C12.2109 15.3809 12.0088 15.2754 11.7627 15.0469L8.13281 11.6455C7.95703 11.4697 7.88672 11.2852 7.88672 11.1182C7.88672 10.9424 7.95703 10.7666 8.13281 10.5908L11.7627 7.19824C12.0264 6.96973 12.1934 6.85547 12.4307 6.85547C12.7822 6.85547 13.0459 7.1543 13.0459 7.48828V9.1582H13.1602C16.333 9.1582 17.8008 11.1797 17.8008 14.5107C17.8008 15.0645 17.5811 15.3633 17.2646 15.3633C17.0098 15.3633 16.79 15.2842 16.623 14.959C15.9111 13.5967 14.8652 13.1045 13.1602 13.1045H13.0459V14.7656C13.0459 15.1172 12.7822 15.3809 12.4395 15.3809ZM9.99609 15.3809C9.75 15.3809 9.57422 15.2754 9.32812 15.0469L5.69824 11.6455C5.51367 11.4785 5.45215 11.2852 5.45215 11.1182C5.45215 10.9424 5.51367 10.7578 5.68945 10.5908L9.32812 7.19824C9.58301 6.96094 9.75 6.85547 9.9873 6.85547C10.3301 6.85547 10.5498 7.05762 10.5762 7.28613V7.46191L7.68457 10.125C7.37695 10.3975 7.20996 10.749 7.20996 11.1182C7.20996 11.4873 7.38574 11.8477 7.68457 12.1201L10.5762 14.792V14.9678C10.5498 15.1787 10.3301 15.3809 9.99609 15.3809Z" fill="#1C1C1E"/>
</g>
<defs>
<clipPath id="clip0_10_1819">
<rect width="24" height="24" fill="white"/>
</clipPath>
</defs>
</svg>
