<svg width="24" height="24" viewBox="0 0 24 24" fill="none" xmlns="http://www.w3.org/2000/svg">
<g clip-path="url(#clip0_10_1631)">
<path d="M19.084 17.6836C19.084 17.3057 18.9346 17.0068 18.7236 16.585L13.3271 5.47559C12.9492 4.68457 12.5449 4.39453 12 4.39453C11.4551 4.39453 11.0508 4.68457 10.6729 5.47559L5.27637 16.585C5.07422 17.0068 4.91602 17.3145 4.91602 17.6924C4.91602 18.3955 5.46094 18.8965 6.32227 18.8965H17.6777C18.5479 18.8965 19.084 18.3867 19.084 17.6836ZM16.9395 17.0508C16.9395 17.1035 16.8955 17.1299 16.834 17.1299H7.16602C7.0957 17.1299 7.06055 17.1035 7.06055 17.0508C7.06055 17.0156 7.07812 16.9893 7.10449 16.9453L11.9033 6.87305C11.9297 6.8291 11.9561 6.79395 12 6.79395C12.0439 6.79395 12.0703 6.8291 12.0967 6.87305L16.8955 16.9453C16.9219 16.9893 16.9395 17.0156 16.9395 17.0508Z" fill="#1C1C1E"/>
</g>
<defs>
<clipPath id="clip0_10_1631">
<rect width="24" height="24" fill="white"/>
</clipPath>
</defs>
</svg>
