<svg width="24" height="24" viewBox="0 0 24 24" fill="none" xmlns="http://www.w3.org/2000/svg">
<g clip-path="url(#clip0_10_1571)">
<path d="M12.2549 10.0986C12.7295 10.0986 13.1074 9.7207 13.1074 9.2373C13.1074 9 13.0195 8.80664 12.8613 8.64844L10.4707 6.27539C10.9277 6.19629 11.4551 6.15234 12.0264 6.15234C15.4102 6.15234 18.1084 8.85938 18.1084 12.2783C18.1084 15.6709 15.3926 18.3955 12 18.3955C8.61621 18.3955 5.8916 15.6709 5.8916 12.2783C5.8916 11.751 5.54883 11.373 5.03906 11.373C4.51172 11.373 4.14258 11.751 4.14258 12.2783C4.14258 16.6377 7.64941 20.1445 12 20.1445C16.3594 20.1445 19.8574 16.6377 19.8574 12.2783C19.8574 7.91895 16.377 4.43848 12.0264 4.43848C11.6133 4.43848 11.1914 4.47363 10.7695 4.53516L12.8701 2.47852C13.0195 2.31152 13.1074 2.11816 13.1074 1.88086C13.1074 1.39746 12.7383 1.00195 12.2549 1.00195C12 1.00195 11.7979 1.08984 11.6396 1.26562L8.03613 4.93066C7.85156 5.10645 7.76367 5.33496 7.76367 5.57227C7.76367 5.81836 7.84277 6.0293 8.03613 6.22266L11.6484 9.85254C11.7979 10.0195 12 10.0986 12.2549 10.0986Z" fill="#1C1C1E"/>
</g>
<defs>
<clipPath id="clip0_10_1571">
<rect width="24" height="24" fill="white"/>
</clipPath>
</defs>
</svg>
