<svg width="24" height="24" viewBox="0 0 24 24" fill="none" xmlns="http://www.w3.org/2000/svg">
<g clip-path="url(#clip0_10_1601)">
<path d="M6.67383 19.8633H17.3174C19.2246 19.8633 20.209 18.8789 20.209 16.998V6.30176C20.209 4.4209 19.2246 3.42773 17.3174 3.42773H6.67383C4.77539 3.42773 3.78223 4.41211 3.78223 6.30176V16.998C3.78223 18.8789 4.77539 19.8633 6.67383 19.8633ZM6.78809 18.1055C5.97949 18.1055 5.53125 17.6836 5.53125 16.8398V6.45117C5.53125 5.60742 5.97949 5.18555 6.78809 5.18555H17.2031C18.0029 5.18555 18.46 5.60742 18.46 6.45117V16.8398C18.46 17.6836 18.0029 18.1055 17.2031 18.1055H6.78809ZM10.7959 16.1631C12.9053 16.1631 14.2061 14.6514 14.2061 12.5859V9.98438L14.1709 9.04395L14.6719 9.70312L15.5244 10.5908C15.6387 10.7227 15.8145 10.8018 15.999 10.8018C16.377 10.8018 16.6758 10.5029 16.6758 10.125C16.6758 9.94043 16.6143 9.78223 16.4736 9.65039L14.1006 7.3125C13.9512 7.16309 13.7578 7.0752 13.5557 7.0752C13.3447 7.0752 13.1602 7.16309 13.0107 7.3125L10.6113 9.65918C10.4883 9.79102 10.418 9.94922 10.418 10.1426C10.418 10.5029 10.7256 10.8018 11.1035 10.8018C11.2793 10.8018 11.4551 10.7402 11.5781 10.5996L12.5537 9.55371L12.9229 9.04395L12.8789 9.98438V12.5859C12.8789 13.8252 12.1406 14.748 10.8574 14.748C9.54785 14.748 8.72168 13.8428 8.72168 12.5771V11.3467C8.72168 10.9248 8.47559 10.5996 8.04492 10.5996C7.60547 10.5996 7.35059 10.916 7.35059 11.3555V12.5771C7.35059 14.6514 8.68652 16.1631 10.7959 16.1631Z" fill="#1C1C1E"/>
</g>
<defs>
<clipPath id="clip0_10_1601">
<rect width="24" height="24" fill="white"/>
</clipPath>
</defs>
</svg>
