<svg width="24" height="24" viewBox="0 0 24 24" fill="none" xmlns="http://www.w3.org/2000/svg">
<g clip-path="url(#clip0_10_1615)">
<path d="M10.0225 19.9336C10.5762 19.9336 10.9014 19.582 10.9014 18.9932V13.9131C11.9033 15.3018 13.5293 16.4092 15.5684 17.1123C16.1396 17.332 16.6143 17.042 16.7812 16.6377C16.9482 16.2422 16.8252 15.7412 16.2363 15.4688C13.125 14.1768 10.9014 12.2344 10.9014 9.07031V7.25977H12.2285C12.8965 7.25977 13.0898 6.75 12.6943 6.20508L10.585 3.24316C10.2686 2.79492 9.77637 2.79492 9.45996 3.24316L7.35059 6.20508C6.94629 6.75 7.13086 7.25977 7.81641 7.25977H9.14355V18.9932C9.14355 19.582 9.46875 19.9336 10.0225 19.9336Z" fill="#1C1C1E"/>
</g>
<defs>
<clipPath id="clip0_10_1615">
<rect width="24" height="24" fill="white"/>
</clipPath>
</defs>
</svg>
