<svg width="24" height="24" viewBox="0 0 24 24" fill="none" xmlns="http://www.w3.org/2000/svg">
<g clip-path="url(#clip0_10_1714)">
<path d="M11.9912 20.7422C16.9746 20.7422 21.0879 16.6289 21.0879 11.6543C21.0879 6.67969 16.9658 2.56641 11.9824 2.56641C7.00781 2.56641 2.90332 6.67969 2.90332 11.6543C2.90332 16.6289 7.0166 20.7422 11.9912 20.7422ZM11.9912 18.9316C7.95703 18.9316 4.73145 15.6885 4.73145 11.6543C4.73145 7.62012 7.95703 4.38574 11.9824 4.38574C16.0166 4.38574 19.2598 7.62012 19.2686 11.6543C19.2773 15.6885 16.0254 18.9316 11.9912 18.9316ZM8.95898 8.93848C9.24902 9.28125 9.66211 9.29004 10.0576 9.00879C10.6465 8.56055 11.2354 8.33203 12 8.33203C13.6084 8.33203 14.9443 9.38672 15.3311 10.8193H14.4609C14.0303 10.8193 13.916 11.2324 14.1621 11.5664L15.5684 13.4912C15.8057 13.8252 16.2275 13.8428 16.4912 13.4912L17.8711 11.5664C18.1172 11.2324 18.0029 10.8193 17.5723 10.8193H16.7725C16.3506 8.48145 14.4258 6.85547 12 6.85547C10.9453 6.85547 9.92578 7.21582 9.20508 7.78711C8.76562 8.12988 8.66895 8.5957 8.95898 8.93848ZM6.11133 11.7246C5.86523 12.0586 5.9707 12.4717 6.40137 12.4717H7.25391C7.67578 14.8096 9.5918 16.4355 12.0176 16.4355C13.0723 16.4355 14.0918 16.084 14.8125 15.5039C15.2607 15.1699 15.3486 14.6953 15.0674 14.3525C14.7686 14.0098 14.3555 14.001 13.96 14.2822C13.3711 14.7305 12.7822 14.9678 12.0176 14.9678C10.4092 14.9678 9.08203 13.9043 8.68652 12.4717H9.5127C9.94336 12.4717 10.0576 12.0586 9.81152 11.7246L8.41406 9.7998C8.16797 9.46582 7.74609 9.44824 7.49121 9.7998L6.11133 11.7246Z" fill="#1C1C1E"/>
</g>
<defs>
<clipPath id="clip0_10_1714">
<rect width="24" height="24" fill="white"/>
</clipPath>
</defs>
</svg>
