<svg width="24" height="24" viewBox="0 0 24 24" fill="none" xmlns="http://www.w3.org/2000/svg">
<g clip-path="url(#clip0_10_1736)">
<path d="M11.9912 20.7422C16.9746 20.7422 21.0879 16.6289 21.0879 11.6543C21.0879 6.67969 16.9658 2.56641 11.9824 2.56641C7.00781 2.56641 2.90332 6.67969 2.90332 11.6543C2.90332 16.6289 7.0166 20.7422 11.9912 20.7422ZM14.8389 9.21973C15.2959 9.21973 15.5947 9.5625 15.5947 10.0635V14.3086C15.5947 14.9414 15.2432 15.2402 14.6543 15.2402H10.3916C9.88184 15.2402 9.55664 14.9414 9.55664 14.4756C9.55664 14.0186 9.89062 13.7197 10.4004 13.7197H11.9209L13.1602 13.8604L11.8154 12.6299L8.63379 9.45703C8.47559 9.29004 8.37012 9.07031 8.37012 8.85938C8.37012 8.3584 8.71289 8.0332 9.17871 8.0332C9.44238 8.0332 9.64453 8.12109 9.82031 8.29688L12.9844 11.4697L14.2061 12.7969L14.0742 11.4961V10.0547C14.0742 9.54492 14.373 9.21973 14.8389 9.21973Z" fill="#1C1C1E"/>
</g>
<defs>
<clipPath id="clip0_10_1736">
<rect width="24" height="24" fill="white"/>
</clipPath>
</defs>
</svg>
