<svg width="24" height="24" viewBox="0 0 24 24" fill="none" xmlns="http://www.w3.org/2000/svg">
<g clip-path="url(#clip0_10_1647)">
<path d="M11.9912 20.7422C16.9746 20.7422 21.0879 16.6289 21.0879 11.6543C21.0879 6.67969 16.9658 2.56641 11.9824 2.56641C7.00781 2.56641 2.90332 6.67969 2.90332 11.6543C2.90332 16.6289 7.0166 20.7422 11.9912 20.7422ZM11.9912 18.9316C7.95703 18.9316 4.73145 15.6885 4.73145 11.6543C4.73145 7.62012 7.95703 4.38574 11.9824 4.38574C16.0166 4.38574 19.2598 7.62012 19.2686 11.6543C19.2773 15.6885 16.0254 18.9316 11.9912 18.9316ZM16.5264 12.7002C16.5264 10.5996 15.0146 9.29883 12.9492 9.29883H10.3477L9.40723 9.33398L10.0664 8.82422L10.9541 7.98047C11.0859 7.85742 11.165 7.69043 11.165 7.50586C11.165 7.12793 10.8662 6.82031 10.4883 6.82031C10.3037 6.82031 10.1455 6.88184 10.0137 7.02246L7.67578 9.39551C7.52637 9.55371 7.43848 9.73828 7.43848 9.94922C7.43848 10.1514 7.52637 10.3359 7.67578 10.4941L10.0225 12.8848C10.1543 13.0166 10.3125 13.0781 10.5059 13.0781C10.8662 13.0781 11.165 12.7793 11.165 12.4014C11.165 12.2256 11.1035 12.0498 10.9629 11.9268L9.91699 10.9512L9.40723 10.582L10.3477 10.626H12.9492C14.1885 10.626 15.1113 11.3555 15.1113 12.6475C15.1113 13.957 14.2061 14.7744 12.9492 14.7744H11.71C11.2881 14.7744 10.9629 15.0205 10.9629 15.46C10.9629 15.8994 11.2793 16.1543 11.7188 16.1543H12.9492C15.0146 16.1543 16.5264 14.8184 16.5264 12.7002Z" fill="#1C1C1E"/>
</g>
<defs>
<clipPath id="clip0_10_1647">
<rect width="24" height="24" fill="white"/>
</clipPath>
</defs>
</svg>
