<svg width="24" height="24" viewBox="0 0 24 24" fill="none" xmlns="http://www.w3.org/2000/svg">
<g clip-path="url(#clip0_10_1760)">
<path d="M6.67383 19.8809H17.3174C19.2246 19.8809 20.209 18.8965 20.209 17.0156V6.31934C20.209 4.43848 19.2246 3.4541 17.3174 3.4541H6.67383C4.77539 3.4541 3.78223 4.42969 3.78223 6.31934V17.0156C3.78223 18.8965 4.77539 19.8809 6.67383 19.8809ZM9.16113 14.0537C8.7041 14.0537 8.40527 13.7109 8.40527 13.21V8.97363C8.40527 8.33203 8.76562 8.0332 9.3457 8.0332H13.6172C14.1182 8.0332 14.4434 8.33203 14.4434 8.79785C14.4434 9.26367 14.1182 9.5625 13.6084 9.5625H12.0791L10.8398 9.42188L12.1846 10.6436L15.3662 13.8252C15.5332 13.9834 15.6299 14.2031 15.6299 14.4229C15.6299 14.915 15.2871 15.2402 14.8213 15.2402C14.5664 15.2402 14.3555 15.1523 14.1797 14.9766L11.0156 11.8125L9.80273 10.4766L9.92578 11.7861V13.2275C9.92578 13.7373 9.62695 14.0537 9.16113 14.0537Z" fill="#1C1C1E"/>
</g>
<defs>
<clipPath id="clip0_10_1760">
<rect width="24" height="24" fill="white"/>
</clipPath>
</defs>
</svg>
