<svg width="24" height="24" viewBox="0 0 24 24" fill="none" xmlns="http://www.w3.org/2000/svg">
<g clip-path="url(#clip0_10_1565)">
<path d="M11.9912 20.7422C16.9746 20.7422 21.0879 16.6289 21.0879 11.6543C21.0879 6.67969 16.9658 2.56641 11.9824 2.56641C7.00781 2.56641 2.90332 6.67969 2.90332 11.6543C2.90332 16.6289 7.0166 20.7422 11.9912 20.7422ZM7.9834 11.7158C7.58789 11.7158 7.2627 11.3994 7.2627 11.0039V7.83105C7.2627 7.22461 7.58789 6.95215 8.15918 6.95215H11.3057C11.71 6.95215 12.0264 7.26855 12.0264 7.67285C12.0264 8.06836 11.71 8.38477 11.3057 8.38477H10.8926L9.60938 8.2793L11.5518 10.1162C11.8682 10.4062 11.8682 10.9248 11.5605 11.2324C11.2529 11.54 10.7432 11.5488 10.4443 11.2236L8.59863 9.26367L8.7041 10.582V11.0039C8.7041 11.3994 8.3877 11.7158 7.9834 11.7158ZM12.6504 16.374C12.2549 16.374 11.9297 16.0576 11.9297 15.6533C11.9297 15.2578 12.2549 14.9414 12.6504 14.9414H13.0723L14.3467 15.0469L12.4043 13.21C12.0967 12.9199 12.0967 12.4014 12.4043 12.0938C12.7119 11.7861 13.2217 11.7773 13.5205 12.1025L15.3662 14.0625L15.252 12.7441V12.3223C15.252 11.9268 15.5771 11.6016 15.9727 11.6016C16.377 11.6016 16.6934 11.9268 16.6934 12.3223V15.4951C16.6934 16.1016 16.377 16.374 15.8057 16.374H12.6504Z" fill="#1C1C1E"/>
</g>
<defs>
<clipPath id="clip0_10_1565">
<rect width="24" height="24" fill="white"/>
</clipPath>
</defs>
</svg>
