<svg width="24" height="24" viewBox="0 0 24 24" fill="none" xmlns="http://www.w3.org/2000/svg">
<g clip-path="url(#clip0_10_1822)">
<path d="M11.9912 20.7422C16.9746 20.7422 21.0879 16.6289 21.0879 11.6543C21.0879 6.67969 16.9658 2.56641 11.9824 2.56641C7.00781 2.56641 2.90332 6.67969 2.90332 11.6543C2.90332 16.6289 7.0166 20.7422 11.9912 20.7422ZM11.9912 18.9316C7.95703 18.9316 4.73145 15.6885 4.73145 11.6543C4.73145 7.62012 7.95703 4.38574 11.9824 4.38574C16.0166 4.38574 19.2598 7.62012 19.2686 11.6543C19.2773 15.6885 16.0254 18.9316 11.9912 18.9316ZM12.4043 15.2139C12.7295 15.2139 12.9844 14.9678 12.9844 14.625V13.0254H13.0986C14.7422 13.0254 15.7617 13.5 16.4473 14.8096C16.6055 15.1172 16.8164 15.1963 17.0537 15.1963C17.3525 15.1963 17.5723 14.915 17.5723 14.3965C17.5723 11.1709 16.1572 9.22852 13.0986 9.22852H12.9844V7.62012C12.9844 7.29492 12.7295 7.01367 12.4043 7.01367C12.167 7.01367 12.0088 7.11914 11.7627 7.34766L8.26465 10.6084C8.08887 10.7754 8.02734 10.9424 8.02734 11.1182C8.02734 11.2764 8.08887 11.4521 8.26465 11.6191L11.7627 14.8975C11.9912 15.1172 12.1846 15.2139 12.4043 15.2139ZM10.0576 15.2139C10.3652 15.2139 10.5938 15.0293 10.6201 14.8271V14.6426L7.8252 12.0762C7.53516 11.8125 7.37695 11.4697 7.37695 11.1182C7.37695 10.7578 7.53516 10.4238 7.8252 10.1514L10.6201 7.60254V7.41797C10.5938 7.20703 10.3652 7.01367 10.0488 7.01367C9.82031 7.01367 9.66211 7.11035 9.41602 7.34766L5.91797 10.6084C5.74219 10.7666 5.68066 10.9424 5.68066 11.1182C5.68066 11.2764 5.74219 11.4521 5.91797 11.6191L9.41602 14.8975C9.65332 15.1172 9.82031 15.2139 10.0576 15.2139Z" fill="#1C1C1E"/>
</g>
<defs>
<clipPath id="clip0_10_1822">
<rect width="24" height="24" fill="white"/>
</clipPath>
</defs>
</svg>
