<svg width="24" height="24" viewBox="0 0 24 24" fill="none" xmlns="http://www.w3.org/2000/svg">
<g clip-path="url(#clip0_10_1550)">
<path d="M19.084 5.65137C19.084 4.93945 18.5479 4.43848 17.6777 4.43848L6.32227 4.42969C5.46094 4.42969 4.91602 4.93066 4.91602 5.64258C4.91602 6.01172 5.07422 6.31934 5.27637 6.74121L10.6729 17.8594C11.0508 18.6416 11.4551 18.9316 12 18.9316C12.5449 18.9316 12.9492 18.6416 13.3271 17.8594L18.7236 6.74121C18.9346 6.32812 19.084 6.02051 19.084 5.65137ZM16.9395 6.28418C16.9395 6.31934 16.9219 6.35449 16.8955 6.38965L12.0967 16.4531C12.0703 16.4971 12.0439 16.5322 12 16.5322C11.9561 16.5322 11.9297 16.4971 11.9033 16.4531L7.10449 6.38086C7.07812 6.3457 7.06055 6.31055 7.06055 6.27539C7.06055 6.22266 7.0957 6.19629 7.16602 6.19629L16.834 6.20508C16.8955 6.20508 16.9395 6.23145 16.9395 6.28418Z" fill="#1C1C1E"/>
</g>
<defs>
<clipPath id="clip0_10_1550">
<rect width="24" height="24" fill="white"/>
</clipPath>
</defs>
</svg>
