<svg width="24" height="24" viewBox="0 0 24 24" fill="none" xmlns="http://www.w3.org/2000/svg">
<g clip-path="url(#clip0_10_1814)">
<path d="M6.67383 19.8809H17.3174C19.2246 19.8809 20.209 18.8965 20.209 17.0156V6.31934C20.209 4.43848 19.2246 3.4541 17.3174 3.4541H6.67383C4.77539 3.4541 3.78223 4.42969 3.78223 6.31934V17.0156C3.78223 18.8965 4.77539 19.8809 6.67383 19.8809ZM6.78809 18.1318C5.97949 18.1318 5.53125 17.71 5.53125 16.8574V6.47754C5.53125 5.625 5.97949 5.20312 6.78809 5.20312H17.2031C18.0029 5.20312 18.46 5.625 18.46 6.47754V16.8574C18.46 17.71 18.0029 18.1318 17.2031 18.1318H6.78809ZM14.7422 9.31641C14.3027 9.31641 14.0127 9.63281 14.0127 10.1162V11.5137L14.1445 12.7705L12.9668 11.4873L9.9082 8.42871C9.74121 8.26172 9.54785 8.18262 9.31055 8.18262C8.85352 8.18262 8.52832 8.49023 8.52832 8.95605C8.52832 9.16699 8.625 9.37793 8.77441 9.52734L11.8506 12.6035L13.1426 13.7812L11.9561 13.6406H10.4707C9.9873 13.6406 9.67969 13.9307 9.67969 14.3701C9.67969 14.8096 9.9873 15.0996 10.4619 15.0996H14.5752C15.1289 15.0996 15.4717 14.8184 15.4717 14.2119V10.125C15.4717 9.65039 15.1816 9.31641 14.7422 9.31641Z" fill="#1C1C1E"/>
</g>
<defs>
<clipPath id="clip0_10_1814">
<rect width="24" height="24" fill="white"/>
</clipPath>
</defs>
</svg>
