<svg width="24" height="24" viewBox="0 0 24 24" fill="none" xmlns="http://www.w3.org/2000/svg">
<g clip-path="url(#clip0_10_1580)">
<path d="M6.03223 17.3057V11.707C6.07617 11.9092 6.18164 12.085 6.32227 12.2344L11.8594 17.8242C12.0703 18.0352 12.3164 18.1406 12.5713 18.1406C13.1338 18.1406 13.5381 17.7451 13.5381 17.2002C13.5381 16.9189 13.4238 16.6816 13.2393 16.4971L11.4727 14.7041L8.92383 12.3926L10.7783 12.4805H18.8994C19.4883 12.4805 19.8926 12.085 19.8926 11.5049C19.8926 10.9248 19.4883 10.5205 18.8994 10.5205H10.7783L8.93262 10.6084L11.4727 8.30566L13.2393 6.50391C13.415 6.32812 13.5381 6.08203 13.5381 5.80078C13.5381 5.26465 13.1338 4.86035 12.5713 4.86035C12.3164 4.86035 12.0703 4.96582 11.8594 5.17676L6.32227 10.7754C6.18164 10.9248 6.07617 11.1006 6.03223 11.2939V5.71289C6.03223 5.16797 5.61914 4.76367 5.06543 4.76367C4.52051 4.76367 4.10742 5.16797 4.10742 5.71289V17.3057C4.10742 17.8506 4.52051 18.2461 5.06543 18.2461C5.61914 18.2461 6.03223 17.8506 6.03223 17.3057Z" fill="#1C1C1E"/>
</g>
<defs>
<clipPath id="clip0_10_1580">
<rect width="24" height="24" fill="white"/>
</clipPath>
</defs>
</svg>
