<svg width="24" height="24" viewBox="0 0 24 24" fill="none" xmlns="http://www.w3.org/2000/svg">
<g clip-path="url(#clip0_10_1681)">
<path d="M2.90332 13.6934L9.95215 20.751C11.3057 22.0957 12.6943 22.1045 14.0303 20.7686L21.1143 13.6846C22.4502 12.3486 22.4414 10.96 21.0967 9.60645L14.0479 2.55762C12.6943 1.2041 11.3057 1.19531 9.96973 2.54004L2.87695 9.62402C1.54102 10.96 1.5498 12.3486 2.90332 13.6934ZM4.22168 12.542C3.6416 11.9619 3.62402 11.3643 4.23047 10.7578L11.1035 3.88477C11.71 3.27832 12.2988 3.2959 12.8877 3.88477L19.7695 10.7666C20.3496 11.3467 20.3672 11.9443 19.7607 12.5508L12.8965 19.4238C12.29 20.0215 11.6836 20.0039 11.1035 19.4326L4.22168 12.542ZM8.19434 14.2734C8.19434 14.8184 8.48438 15.1699 8.99414 15.1611C9.49512 15.1523 9.79395 14.8184 9.79395 14.2734V12.0674C9.79395 11.373 10.1279 11.0479 10.7871 11.0479L12.9229 11.0391V12.4014C12.9229 12.999 13.582 13.2627 14.083 12.832L16.2539 10.9336C16.7637 10.4854 16.7549 9.99316 16.2539 9.55371L14.083 7.65527C13.582 7.21582 12.9229 7.48828 12.9229 8.08594V9.43945H10.6025C8.98535 9.43945 8.19434 10.2305 8.19434 11.8301V14.2734Z" fill="#1C1C1E"/>
</g>
<defs>
<clipPath id="clip0_10_1681">
<rect width="24" height="24" fill="white"/>
</clipPath>
</defs>
</svg>
