<svg width="24" height="24" viewBox="0 0 24 24" fill="none" xmlns="http://www.w3.org/2000/svg">
<g clip-path="url(#clip0_10_1587)">
<path d="M6.67383 19.8809H17.3174C19.2246 19.8809 20.209 18.8965 20.209 17.0156V6.31934C20.209 4.43848 19.2246 3.4541 17.3174 3.4541H6.67383C4.77539 3.4541 3.78223 4.42969 3.78223 6.31934V17.0156C3.78223 18.8965 4.77539 19.8809 6.67383 19.8809ZM17.625 11.6631C17.625 11.9004 17.5283 12.0762 17.3262 12.2783L14.7949 14.792C14.6543 14.9414 14.4697 15.0029 14.2676 15.0029C13.8633 15.0029 13.5645 14.6953 13.5645 14.2822C13.5645 14.0625 13.6699 13.8779 13.8105 13.7373L14.373 13.1836L15.3926 12.3574L13.5557 12.4365H10.4795L8.64258 12.3574L9.66211 13.1836L10.2246 13.7373C10.3652 13.8779 10.4707 14.0625 10.4707 14.2822C10.4707 14.6953 10.1719 15.0029 9.76758 15.0029C9.56543 15.0029 9.38086 14.9414 9.24023 14.792L6.70898 12.2783C6.51562 12.0762 6.41895 11.9004 6.41895 11.6631C6.41895 11.417 6.51562 11.2236 6.70898 11.0391L9.24023 8.52539C9.38086 8.38477 9.56543 8.30566 9.76758 8.30566C10.1719 8.30566 10.4707 8.62207 10.4707 9.03516C10.4707 9.26367 10.374 9.43945 10.2246 9.58008L9.66211 10.125L8.63379 10.9688L10.4795 10.8809H13.5557L15.4014 10.9688L14.373 10.125L13.8105 9.58008C13.6699 9.43945 13.5645 9.26367 13.5645 9.03516C13.5645 8.62207 13.8633 8.30566 14.2676 8.30566C14.4697 8.30566 14.6543 8.38477 14.7949 8.52539L17.3262 11.0391C17.5283 11.2236 17.625 11.417 17.625 11.6631Z" fill="#1C1C1E"/>
</g>
<defs>
<clipPath id="clip0_10_1587">
<rect width="24" height="24" fill="white"/>
</clipPath>
</defs>
</svg>
