<svg width="24" height="24" viewBox="0 0 24 24" fill="none" xmlns="http://www.w3.org/2000/svg">
<g clip-path="url(#clip0_10_1824)">
<path d="M7.21875 3.30469C6.70898 3.30469 6.26074 3.32227 5.90039 3.38379C5.47852 3.46289 5.02148 3.74414 5.02148 4.3418C5.02148 4.91309 5.42578 5.27344 5.98828 5.27344C6.32227 5.27344 6.67383 5.23828 7.15723 5.23828C9.96973 5.23828 11.1914 6.22266 11.1914 9.07031L11.1826 14.7041L11.2617 16.9893L9.68848 15.249L6.97266 12.5244C6.79688 12.3486 6.55078 12.2344 6.27832 12.2344C5.74219 12.2344 5.33789 12.6387 5.33789 13.2012C5.33789 13.4473 5.43457 13.6846 5.64551 13.8955L11.4287 19.6875C11.6221 19.8896 11.8945 20.0039 12.1582 20.0039C12.4219 20.0039 12.6943 19.8896 12.8877 19.6875L18.6797 13.8955C18.8818 13.6846 18.9785 13.4473 18.9785 13.2012C18.9785 12.6387 18.583 12.2344 18.0469 12.2344C17.7656 12.2344 17.5195 12.3486 17.3438 12.5244L14.6279 15.249L13.0635 16.9805L13.1338 14.7041V8.94727C13.1338 4.95703 11.1826 3.30469 7.21875 3.30469Z" fill="#1C1C1E"/>
</g>
<defs>
<clipPath id="clip0_10_1824">
<rect width="24" height="24" fill="white"/>
</clipPath>
</defs>
</svg>
