<svg width="24" height="24" viewBox="0 0 24 24" fill="none" xmlns="http://www.w3.org/2000/svg">
<g clip-path="url(#clip0_10_1841)">
<path d="M16.7812 3.30469C12.8174 3.30469 10.8662 4.95703 10.8662 8.94727V14.7041L10.9365 16.9805L9.37207 15.249L6.65625 12.5244C6.48047 12.3486 6.23438 12.2344 5.95312 12.2344C5.41699 12.2344 5.02148 12.6387 5.02148 13.2012C5.02148 13.4473 5.11816 13.6846 5.3291 13.8955L11.1123 19.6875C11.3057 19.8896 11.5781 20.0039 11.8418 20.0039C12.1055 20.0039 12.3779 19.8896 12.5713 19.6875L18.3545 13.8955C18.5654 13.6846 18.6621 13.4473 18.6621 13.2012C18.6621 12.6387 18.2578 12.2344 17.7217 12.2344C17.4492 12.2344 17.2031 12.3486 17.0273 12.5244L14.3115 15.249L12.7383 16.9893L12.8174 14.7041L12.8086 9.07031C12.8086 6.22266 14.0303 5.23828 16.8428 5.23828C17.3262 5.23828 17.6777 5.27344 18.0117 5.27344C18.5742 5.27344 18.9785 4.91309 18.9785 4.3418C18.9785 3.74414 18.5215 3.46289 18.0996 3.38379C17.7393 3.32227 17.291 3.30469 16.7812 3.30469Z" fill="#1C1C1E"/>
</g>
<defs>
<clipPath id="clip0_10_1841">
<rect width="24" height="24" fill="white"/>
</clipPath>
</defs>
</svg>
