<svg width="24" height="24" viewBox="0 0 24 24" fill="none" xmlns="http://www.w3.org/2000/svg">
<g clip-path="url(#clip0_10_1575)">
<path d="M6.19922 17.6309C5.6543 17.6309 5.25879 18.0352 5.25879 18.5889C5.25879 19.1426 5.6543 19.5469 6.19922 19.5469H17.7832C18.3369 19.5469 18.7412 19.1426 18.7412 18.5889C18.7412 18.0352 18.3369 17.6309 17.7832 17.6309H12.2021C12.4043 17.5869 12.5801 17.4814 12.7295 17.332L18.3281 11.7949C18.5391 11.584 18.6445 11.3379 18.6445 11.083C18.6445 10.5293 18.2402 10.125 17.7041 10.125C17.4229 10.125 17.1768 10.2393 17.001 10.415L15.1992 12.1904L12.8877 14.7217L12.9756 12.876V4.76367C12.9756 4.16602 12.5801 3.77051 12 3.77051C11.4199 3.77051 11.0156 4.16602 11.0156 4.76367V12.876L11.1123 14.7305L8.80078 12.1904L7.00781 10.415C6.82324 10.2393 6.57715 10.125 6.30469 10.125C5.75977 10.125 5.36426 10.5293 5.36426 11.083C5.36426 11.3379 5.46973 11.584 5.68066 11.7949L11.2705 17.332C11.4199 17.4814 11.5957 17.5869 11.7891 17.6309H6.19922Z" fill="#1C1C1E"/>
</g>
<defs>
<clipPath id="clip0_10_1575">
<rect width="24" height="24" fill="white"/>
</clipPath>
</defs>
</svg>
