<svg width="24" height="24" viewBox="0 0 24 24" fill="none" xmlns="http://www.w3.org/2000/svg">
<g clip-path="url(#clip0_10_1670)">
<path d="M17.8096 4.5791C17.4316 4.5791 17.1328 4.7373 16.7109 4.93945L5.60156 10.3359C4.81934 10.7227 4.52051 11.1182 4.52051 11.6631C4.52051 12.208 4.81934 12.6123 5.60156 12.9902L16.7109 18.3867C17.1416 18.5977 17.4404 18.7471 17.8184 18.7471C18.5303 18.7471 19.0225 18.2109 19.0225 17.3408V5.98535C19.0225 5.12402 18.5215 4.5791 17.8096 4.5791ZM17.1768 6.73242C17.2207 6.73242 17.2559 6.76758 17.2559 6.8291L17.2646 16.4971C17.2646 16.5674 17.2295 16.6025 17.1768 16.6025C17.1504 16.6025 17.1152 16.585 17.0713 16.5674L6.99902 11.7598C6.95508 11.7422 6.91992 11.707 6.91992 11.6631C6.91992 11.6191 6.95508 11.5928 6.99902 11.5664L17.0713 6.76758C17.1064 6.75 17.1416 6.73242 17.1768 6.73242Z" fill="#1C1C1E"/>
</g>
<defs>
<clipPath id="clip0_10_1670">
<rect width="24" height="24" fill="white"/>
</clipPath>
</defs>
</svg>
