<svg width="24" height="24" viewBox="0 0 24 24" fill="none" xmlns="http://www.w3.org/2000/svg">
<g clip-path="url(#clip0_10_1802)">
<path d="M6.67383 19.8809H17.3174C19.2246 19.8809 20.209 18.8965 20.209 17.0156V6.31934C20.209 4.43848 19.2246 3.4541 17.3174 3.4541H6.67383C4.77539 3.4541 3.78223 4.42969 3.78223 6.31934V17.0156C3.78223 18.8965 4.77539 19.8809 6.67383 19.8809ZM14.874 14.0537C14.4082 14.0537 14.1094 13.7373 14.1094 13.2275V11.7861L14.2324 10.4766L13.0195 11.8125L9.85547 14.9766C9.67969 15.1523 9.46875 15.2402 9.21387 15.2402C8.74805 15.2402 8.40527 14.915 8.40527 14.4229C8.40527 14.2031 8.50195 13.9834 8.66895 13.8252L11.8506 10.6436L13.1953 9.42188L11.9561 9.5625H10.4268C9.92578 9.5625 9.5918 9.26367 9.5918 8.79785C9.5918 8.33203 9.91699 8.0332 10.418 8.0332H14.6895C15.2695 8.0332 15.6299 8.33203 15.6299 8.97363V13.21C15.6299 13.7109 15.3311 14.0537 14.874 14.0537Z" fill="#1C1C1E"/>
</g>
<defs>
<clipPath id="clip0_10_1802">
<rect width="24" height="24" fill="white"/>
</clipPath>
</defs>
</svg>
