<svg width="24" height="24" viewBox="0 0 24 24" fill="none" xmlns="http://www.w3.org/2000/svg">
<g clip-path="url(#clip0_10_1572)">
<path d="M11.9912 20.7598C16.9746 20.7598 21.0879 16.6465 21.0879 11.6631C21.0879 6.68848 16.9658 2.5752 11.9824 2.5752C7.00781 2.5752 2.90332 6.68848 2.90332 11.6631C2.90332 16.6465 7.0166 20.7598 11.9912 20.7598ZM7.93945 12.0762C7.93945 9.90527 9.67969 8.17383 11.666 8.10352C11.7451 8.10352 11.833 8.1123 11.8945 8.1123L11.3672 7.56738C11.2793 7.45312 11.2002 7.30371 11.2002 7.11914C11.2002 6.78516 11.4551 6.49512 11.8418 6.49512C12.0264 6.49512 12.1934 6.58301 12.3164 6.70605L14.0127 8.4375C14.25 8.68359 14.2676 9.12305 14.0127 9.36914L12.2988 11.083C12.1934 11.1973 12.0176 11.2764 11.8506 11.2764C11.4814 11.2764 11.2002 11.0215 11.2002 10.6436C11.2002 10.4766 11.2617 10.3271 11.3584 10.2305L12.0791 9.50098C11.9912 9.50098 11.877 9.50098 11.7803 9.50098C10.4092 9.54492 9.32812 10.6963 9.32812 12.1025C9.32812 13.5791 10.5059 14.7744 11.9912 14.7744C13.459 14.7744 14.6455 13.5879 14.6455 12.1025C14.6455 11.7246 14.9531 11.417 15.3486 11.417C15.7178 11.417 16.0342 11.7246 16.0342 12.1025C16.0342 14.3438 14.2324 16.1631 11.9912 16.1631C9.75 16.1631 7.93945 14.3438 7.93945 12.0762Z" fill="#1C1C1E"/>
</g>
<defs>
<clipPath id="clip0_10_1572">
<rect width="24" height="24" fill="white"/>
</clipPath>
</defs>
</svg>
