<svg width="24" height="24" viewBox="0 0 24 24" fill="none" xmlns="http://www.w3.org/2000/svg">
<g clip-path="url(#clip0_10_1588)">
<path d="M6.67383 19.8809H17.3174C19.2246 19.8809 20.209 18.8965 20.209 17.0156V6.31934C20.209 4.43848 19.2246 3.4541 17.3174 3.4541H6.67383C4.77539 3.4541 3.78223 4.42969 3.78223 6.31934V17.0156C3.78223 18.8965 4.77539 19.8809 6.67383 19.8809ZM6.78809 18.1318C5.97949 18.1318 5.53125 17.71 5.53125 16.8574V6.47754C5.53125 5.625 5.97949 5.20312 6.78809 5.20312H17.2031C18.0029 5.20312 18.46 5.625 18.46 6.47754V16.8574C18.46 17.71 18.0029 18.1318 17.2031 18.1318H6.78809ZM17.3877 11.6631C17.3877 11.4346 17.291 11.25 17.1064 11.0654L14.6631 8.64844C14.5312 8.50781 14.3555 8.44629 14.1621 8.44629C13.7754 8.44629 13.4854 8.74512 13.4854 9.13184C13.4854 9.35156 13.5732 9.53613 13.7227 9.65039L14.2764 10.1865L15.2607 10.9951L13.4941 10.916H10.5059L8.73047 10.9951L9.72363 10.1865L10.2686 9.65039C10.418 9.53613 10.5059 9.35156 10.5059 9.13184C10.5059 8.74512 10.2246 8.44629 9.8291 8.44629C9.64453 8.44629 9.46875 8.50781 9.32812 8.64844L6.89355 11.0654C6.70898 11.25 6.6123 11.4346 6.6123 11.6631C6.6123 11.8828 6.70898 12.0586 6.89355 12.252L9.32812 14.6777C9.46875 14.8096 9.64453 14.8711 9.8291 14.8711C10.2246 14.8711 10.5059 14.5811 10.5059 14.1855C10.5059 13.9746 10.4092 13.79 10.2686 13.667L9.72363 13.1309L8.73926 12.3311L10.5059 12.4014H13.4941L15.252 12.3311L14.2764 13.1309L13.7227 13.667C13.582 13.79 13.4854 13.9746 13.4854 14.1855C13.4854 14.5811 13.7754 14.8711 14.1621 14.8711C14.3555 14.8711 14.5312 14.8096 14.6631 14.6777L17.1064 12.252C17.291 12.0586 17.3877 11.8828 17.3877 11.6631Z" fill="#1C1C1E"/>
</g>
<defs>
<clipPath id="clip0_10_1588">
<rect width="24" height="24" fill="white"/>
</clipPath>
</defs>
</svg>
