<svg width="24" height="24" viewBox="0 0 24 24" fill="none" xmlns="http://www.w3.org/2000/svg">
<g clip-path="url(#clip0_10_1560)">
<path d="M6.19043 18.7471C6.55957 18.7471 6.86719 18.5977 7.28027 18.3867L18.3984 12.9902C19.1807 12.6123 19.4795 12.208 19.4795 11.6631C19.4795 11.1182 19.1807 10.7227 18.3984 10.3359L7.28027 4.93945C6.8584 4.7373 6.55957 4.5791 6.18164 4.5791C5.46973 4.5791 4.96875 5.12402 4.96875 5.98535L4.97754 17.3408C4.97754 18.2109 5.47852 18.7471 6.19043 18.7471ZM6.81445 16.6025C6.77051 16.6025 6.73535 16.5586 6.73535 16.4971V6.8291C6.73535 6.75879 6.77051 6.72363 6.81445 6.72363C6.84961 6.72363 6.88477 6.74121 6.91992 6.76758L17.001 11.5664C17.0361 11.5928 17.0713 11.6191 17.0713 11.6631C17.0713 11.707 17.0361 11.7422 17.001 11.7598L6.91992 16.5586C6.88477 16.585 6.84961 16.6025 6.81445 16.6025Z" fill="#1C1C1E"/>
</g>
<defs>
<clipPath id="clip0_10_1560">
<rect width="24" height="24" fill="white"/>
</clipPath>
</defs>
</svg>
