<svg width="24" height="24" viewBox="0 0 24 24" fill="none" xmlns="http://www.w3.org/2000/svg">
<g clip-path="url(#clip0_10_1772)">
<path d="M6.67383 19.8809H17.3174C19.2246 19.8809 20.209 18.8965 20.209 17.0156V6.31934C20.209 4.43848 19.2246 3.4541 17.3174 3.4541H6.67383C4.77539 3.4541 3.78223 4.42969 3.78223 6.31934V17.0156C3.78223 18.8965 4.77539 19.8809 6.67383 19.8809ZM14.874 9.21973C15.3311 9.21973 15.6299 9.5625 15.6299 10.0635V14.3086C15.6299 14.9414 15.2783 15.2402 14.6895 15.2402H10.4268C9.91699 15.2402 9.5918 14.9414 9.5918 14.4756C9.5918 14.0186 9.92578 13.7197 10.4355 13.7197H11.9561L13.1953 13.8604L11.8506 12.6299L8.66895 9.45703C8.51074 9.29004 8.40527 9.07031 8.40527 8.85938C8.40527 8.3584 8.74805 8.0332 9.22266 8.0332C9.47754 8.0332 9.67969 8.12109 9.85547 8.29688L13.0195 11.4697L14.2412 12.7969L14.1094 11.4961V10.0547C14.1094 9.54492 14.4082 9.21973 14.874 9.21973Z" fill="#1C1C1E"/>
</g>
<defs>
<clipPath id="clip0_10_1772">
<rect width="24" height="24" fill="white"/>
</clipPath>
</defs>
</svg>
