<svg width="24" height="24" viewBox="0 0 24 24" fill="none" xmlns="http://www.w3.org/2000/svg">
<g clip-path="url(#clip0_10_1690)">
<path d="M11.9912 20.7422C16.9746 20.7422 21.0879 16.6289 21.0879 11.6543C21.0879 6.67969 16.9658 2.56641 11.9824 2.56641C7.00781 2.56641 2.90332 6.67969 2.90332 11.6543C2.90332 16.6289 7.0166 20.7422 11.9912 20.7422ZM12.9668 9L16.4648 12.7178C16.7725 13.043 16.7812 13.5352 16.4912 13.8076C16.166 14.1328 15.6738 14.1328 15.375 13.8164L11.9912 10.2217L8.60742 13.8164C8.30859 14.1328 7.81641 14.1328 7.49121 13.8076C7.20996 13.5352 7.20996 13.043 7.52637 12.7178L11.0156 9C11.6045 8.36719 12.3779 8.36719 12.9668 9Z" fill="#1C1C1E"/>
</g>
<defs>
<clipPath id="clip0_10_1690">
<rect width="24" height="24" fill="white"/>
</clipPath>
</defs>
</svg>
