<svg width="24" height="24" viewBox="0 0 24 24" fill="none" xmlns="http://www.w3.org/2000/svg">
<g clip-path="url(#clip0_10_1733)">
<path d="M11.9912 20.7422C16.9746 20.7422 21.0879 16.6289 21.0879 11.6543C21.0879 6.67969 16.9658 2.56641 11.9824 2.56641C7.00781 2.56641 2.90332 6.67969 2.90332 11.6543C2.90332 16.6289 7.0166 20.7422 11.9912 20.7422ZM13.7666 16.0488C13.5029 16.3037 12.9756 16.2861 12.6943 16.0225L9.07324 12.6123C8.52832 12.1025 8.52832 11.2236 9.07324 10.7139L12.6943 7.30371C13.002 7.01367 13.4678 7.01367 13.7578 7.27734C14.0742 7.57617 14.0742 8.07715 13.7666 8.36719L10.2598 11.6543L13.7666 14.959C14.0654 15.249 14.083 15.7324 13.7666 16.0488Z" fill="#1C1C1E"/>
</g>
<defs>
<clipPath id="clip0_10_1733">
<rect width="24" height="24" fill="white"/>
</clipPath>
</defs>
</svg>
