<svg width="24" height="24" viewBox="0 0 24 24" fill="none" xmlns="http://www.w3.org/2000/svg">
<g clip-path="url(#clip0_10_1826)">
<path d="M6.67383 19.8809H17.3174C19.2246 19.8809 20.209 18.8965 20.209 17.0156V6.31934C20.209 4.43848 19.2246 3.4541 17.3174 3.4541H6.67383C4.77539 3.4541 3.78223 4.42969 3.78223 6.31934V17.0156C3.78223 18.8965 4.77539 19.8809 6.67383 19.8809ZM13.0107 14.5459C12.4131 15.1787 11.6484 15.1787 11.0508 14.5459L7.56152 10.8281C7.25391 10.5029 7.24512 10.0195 7.52637 9.72949C7.85156 9.4043 8.35254 9.4043 8.65137 9.7207L12.0352 13.3154L15.4189 9.7207C15.709 9.4043 16.2012 9.41309 16.5352 9.72949C16.8252 10.0107 16.8164 10.5029 16.5 10.8281L13.0107 14.5459Z" fill="#1C1C1E"/>
</g>
<defs>
<clipPath id="clip0_10_1826">
<rect width="24" height="24" fill="white"/>
</clipPath>
</defs>
</svg>
