<svg width="24" height="24" viewBox="0 0 24 24" fill="none" xmlns="http://www.w3.org/2000/svg">
<g clip-path="url(#clip0_10_1731)">
<path d="M6.67383 19.8809H17.3174C19.2246 19.8809 20.209 18.8965 20.209 17.0156V6.31934C20.209 4.43848 19.2246 3.4541 17.3174 3.4541H6.67383C4.77539 3.4541 3.78223 4.42969 3.78223 6.31934V17.0156C3.78223 18.8965 4.77539 19.8809 6.67383 19.8809ZM6.78809 18.1318C5.97949 18.1318 5.53125 17.71 5.53125 16.8574V6.47754C5.53125 5.625 5.97949 5.20312 6.78809 5.20312H17.2031C18.0029 5.20312 18.46 5.625 18.46 6.47754V16.8574C18.46 17.71 18.0029 18.1318 17.2031 18.1318H6.78809ZM13.7578 15.9785C14.0654 15.6797 14.0479 15.1963 13.7578 14.9238L10.2949 11.6543L13.7578 8.40234C14.0566 8.12109 14.0566 7.62891 13.7402 7.34766C13.459 7.0752 13.0107 7.08398 12.7031 7.37402L9.13477 10.7314C8.59863 11.2324 8.59863 12.1025 9.13477 12.5947L12.7031 15.9609C12.9756 16.2158 13.5029 16.2334 13.7578 15.9785Z" fill="#1C1C1E"/>
</g>
<defs>
<clipPath id="clip0_10_1731">
<rect width="24" height="24" fill="white"/>
</clipPath>
</defs>
</svg>
