<svg width="24" height="24" viewBox="0 0 24 24" fill="none" xmlns="http://www.w3.org/2000/svg">
<g clip-path="url(#clip0_10_1721)">
<path d="M6.67383 19.8809H17.3174C19.2246 19.8809 20.209 18.8965 20.209 17.0156V6.31934C20.209 4.43848 19.2246 3.4541 17.3174 3.4541H6.67383C4.77539 3.4541 3.78223 4.42969 3.78223 6.31934V17.0156C3.78223 18.8965 4.77539 19.8809 6.67383 19.8809ZM6.78809 18.1318C5.97949 18.1318 5.53125 17.71 5.53125 16.8574V6.47754C5.53125 5.625 5.97949 5.20312 6.78809 5.20312H17.2031C18.0029 5.20312 18.46 5.625 18.46 6.47754V16.8574C18.46 17.71 18.0029 18.1318 17.2031 18.1318H6.78809ZM10.0312 15.9785C10.2949 16.2334 10.8135 16.2158 11.0859 15.9609L14.6631 12.5947C15.1904 12.1025 15.1904 11.2324 14.6631 10.7314L11.0859 7.37402C10.7871 7.08398 10.3301 7.0752 10.0488 7.34766C9.74121 7.62891 9.73242 8.12109 10.0312 8.40234L13.5029 11.6543L10.0312 14.9238C9.74121 15.1963 9.72363 15.6797 10.0312 15.9785Z" fill="#1C1C1E"/>
</g>
<defs>
<clipPath id="clip0_10_1721">
<rect width="24" height="24" fill="white"/>
</clipPath>
</defs>
</svg>
