<svg width="24" height="24" viewBox="0 0 24 24" fill="none" xmlns="http://www.w3.org/2000/svg">
<g clip-path="url(#clip0_10_1676)">
<path d="M6.67383 19.8809H17.3174C19.2246 19.8809 20.209 18.8965 20.209 17.0156V6.31934C20.209 4.43848 19.2246 3.4541 17.3174 3.4541H6.67383C4.77539 3.4541 3.78223 4.42969 3.78223 6.31934V17.0156C3.78223 18.8965 4.77539 19.8809 6.67383 19.8809ZM6.78809 18.1318C5.97949 18.1318 5.53125 17.71 5.53125 16.8574V6.47754C5.53125 5.625 5.97949 5.20312 6.78809 5.20312H17.2031C18.0029 5.20312 18.46 5.625 18.46 6.47754V16.8574C18.46 17.71 18.0029 18.1318 17.2031 18.1318H6.78809ZM12.9404 14.458L16.3066 10.8809C16.5967 10.5645 16.6055 10.0986 16.333 9.83496C16.0254 9.52734 15.5508 9.51855 15.2695 9.82617L12.0088 13.2803L8.74805 9.82617C8.4668 9.51855 7.9834 9.51855 7.68457 9.83496C7.41211 10.1074 7.4209 10.5645 7.71094 10.8809L11.0771 14.458C11.6396 15.0645 12.3779 15.0645 12.9404 14.458Z" fill="#1C1C1E"/>
</g>
<defs>
<clipPath id="clip0_10_1676">
<rect width="24" height="24" fill="white"/>
</clipPath>
</defs>
</svg>
