<svg width="24" height="24" viewBox="0 0 24 24" fill="none" xmlns="http://www.w3.org/2000/svg">
<g clip-path="url(#clip0_10_1684)">
<path d="M12 16.4883C12.3076 16.4795 12.5889 16.3652 12.8174 16.1191L19.4971 9.28125C19.6904 9.08789 19.7959 8.8418 19.7959 8.55176C19.7959 7.97168 19.3389 7.50586 18.7588 7.50586C18.4775 7.50586 18.2051 7.62012 18.0029 7.82227L12.0088 13.9834L5.99707 7.82227C5.79492 7.62891 5.53125 7.50586 5.24121 7.50586C4.66113 7.50586 4.2041 7.97168 4.2041 8.55176C4.2041 8.8418 4.30957 9.08789 4.50293 9.28125L11.1914 16.1191C11.4287 16.3652 11.6924 16.4883 12 16.4883Z" fill="#1C1C1E"/>
</g>
<defs>
<clipPath id="clip0_10_1684">
<rect width="24" height="24" fill="white"/>
</clipPath>
</defs>
</svg>
