<svg width="24" height="24" viewBox="0 0 24 24" fill="none" xmlns="http://www.w3.org/2000/svg">
<g clip-path="url(#clip0_10_1664)">
<path d="M12.3867 18.9404C12.5537 19.3359 12.8965 19.5996 13.3008 19.5996C13.96 19.5996 14.417 19.1162 14.417 18.5186C14.417 18.1934 14.2324 17.7803 14.1094 17.4727L11.7363 11.6367L14.1094 5.80078C14.2324 5.49316 14.417 5.07129 14.417 4.75488C14.417 4.15723 13.96 3.67383 13.3008 3.67383C12.8965 3.67383 12.5537 3.9375 12.3867 4.32422L9.96973 10.2568C9.77637 10.7227 9.58301 11.1885 9.58301 11.6367C9.58301 12.0762 9.77637 12.542 9.96973 13.0166L12.3867 18.9404Z" fill="#1C1C1E"/>
</g>
<defs>
<clipPath id="clip0_10_1664">
<rect width="24" height="24" fill="white"/>
</clipPath>
</defs>
</svg>
