<svg width="24" height="24" viewBox="0 0 24 24" fill="none" xmlns="http://www.w3.org/2000/svg">
<g clip-path="url(#clip0_10_1686)">
<path d="M6.67383 19.8809H17.3174C19.2246 19.8809 20.209 18.8965 20.209 17.0156V6.31934C20.209 4.43848 19.2246 3.4541 17.3174 3.4541H6.67383C4.77539 3.4541 3.78223 4.42969 3.78223 6.31934V17.0156C3.78223 18.8965 4.77539 19.8809 6.67383 19.8809ZM13.0107 9L16.5 12.7178C16.8076 13.043 16.8164 13.5352 16.5264 13.8076C16.21 14.1328 15.709 14.1328 15.4102 13.8164L12.0264 10.2217L8.64258 13.8164C8.34375 14.1328 7.85156 14.1328 7.52637 13.8076C7.24512 13.5352 7.24512 13.043 7.56152 12.7178L11.0508 9C11.6396 8.36719 12.4131 8.36719 13.0107 9Z" fill="#1C1C1E"/>
</g>
<defs>
<clipPath id="clip0_10_1686">
<rect width="24" height="24" fill="white"/>
</clipPath>
</defs>
</svg>
