<svg width="24" height="24" viewBox="0 0 24 24" fill="none" xmlns="http://www.w3.org/2000/svg">
<g clip-path="url(#clip0_10_1737)">
<path d="M6.34863 11.6543C6.34863 11.9619 6.46289 12.2256 6.70898 12.4541L13.5469 19.1514C13.7402 19.3447 13.9863 19.4502 14.2764 19.4502C14.8564 19.4502 15.3223 18.9932 15.3223 18.4043C15.3223 18.1143 15.1992 17.8594 15.0059 17.6572L8.84473 11.6543L15.0059 5.65137C15.1992 5.44922 15.3223 5.18555 15.3223 4.9043C15.3223 4.31543 14.8564 3.8584 14.2764 3.8584C13.9863 3.8584 13.7402 3.96387 13.5469 4.15723L6.70898 10.8457C6.46289 11.083 6.34863 11.3467 6.34863 11.6543Z" fill="#1C1C1E"/>
</g>
<defs>
<clipPath id="clip0_10_1737">
<rect width="24" height="24" fill="white"/>
</clipPath>
</defs>
</svg>
