<svg width="24" height="24" viewBox="0 0 24 24" fill="none" xmlns="http://www.w3.org/2000/svg">
<g clip-path="url(#clip0_10_1710)">
<path d="M11.9912 20.7422C16.9746 20.7422 21.0879 16.6289 21.0879 11.6543C21.0879 6.67969 16.9658 2.56641 11.9824 2.56641C7.00781 2.56641 2.90332 6.67969 2.90332 11.6543C2.90332 16.6289 7.0166 20.7422 11.9912 20.7422ZM9.91699 16.1631C9.5918 15.8379 9.60938 15.3457 9.91699 15.0469L13.5205 11.6631L9.91699 8.2793C9.60059 7.98926 9.60938 7.47949 9.93457 7.17188C10.2246 6.89062 10.6992 6.9082 11.0156 7.19824L14.7334 10.6875C15.2959 11.2148 15.2959 12.1289 14.7334 12.6475L11.0156 16.1367C10.7344 16.4092 10.1895 16.418 9.91699 16.1631Z" fill="#1C1C1E"/>
</g>
<defs>
<clipPath id="clip0_10_1710">
<rect width="24" height="24" fill="white"/>
</clipPath>
</defs>
</svg>
