<svg width="24" height="24" viewBox="0 0 24 24" fill="none" xmlns="http://www.w3.org/2000/svg">
<g clip-path="url(#clip0_10_1661)">
<path d="M11.6133 18.9404L14.0303 13.0166C14.2324 12.542 14.417 12.0762 14.417 11.6367C14.417 11.1885 14.2324 10.7227 14.0303 10.2568L11.6133 4.32422C11.4463 3.9375 11.1035 3.67383 10.6992 3.67383C10.04 3.67383 9.58301 4.15723 9.58301 4.75488C9.58301 5.07129 9.76758 5.49316 9.89062 5.80078L12.2637 11.6367L9.89062 17.4727C9.76758 17.7803 9.58301 18.1934 9.58301 18.5186C9.58301 19.1162 10.04 19.5996 10.6992 19.5996C11.1035 19.5996 11.4463 19.3359 11.6133 18.9404Z" fill="#1C1C1E"/>
</g>
<defs>
<clipPath id="clip0_10_1661">
<rect width="24" height="24" fill="white"/>
</clipPath>
</defs>
</svg>
