<svg width="24" height="24" viewBox="0 0 24 24" fill="none" xmlns="http://www.w3.org/2000/svg">
<g clip-path="url(#clip0_10_1679)">
<path d="M11.9912 20.7422C16.9746 20.7422 21.0879 16.6289 21.0879 11.6543C21.0879 6.67969 16.9658 2.56641 11.9824 2.56641C7.00781 2.56641 2.90332 6.67969 2.90332 11.6543C2.90332 16.6289 7.0166 20.7422 11.9912 20.7422ZM12.9756 14.5459C12.3779 15.1787 11.6133 15.1787 11.0156 14.5459L7.52637 10.8281C7.21875 10.5029 7.20996 10.0195 7.49121 9.72949C7.81641 9.4043 8.31738 9.4043 8.61621 9.7207L12 13.3154L15.3838 9.7207C15.6738 9.4043 16.166 9.41309 16.5 9.72949C16.79 10.0107 16.7812 10.5029 16.4648 10.8281L12.9756 14.5459Z" fill="#1C1C1E"/>
</g>
<defs>
<clipPath id="clip0_10_1679">
<rect width="24" height="24" fill="white"/>
</clipPath>
</defs>
</svg>
