<svg width="24" height="24" viewBox="0 0 24 24" fill="none" xmlns="http://www.w3.org/2000/svg">
<g clip-path="url(#clip0_10_1741)">
<path d="M6.67383 19.8809H17.3174C19.2246 19.8809 20.209 18.8965 20.209 17.0156V6.31934C20.209 4.43848 19.2246 3.4541 17.3174 3.4541H6.67383C4.77539 3.4541 3.78223 4.42969 3.78223 6.31934V17.0156C3.78223 18.8965 4.77539 19.8809 6.67383 19.8809ZM13.8018 16.0488C13.5381 16.3037 13.0107 16.2861 12.7295 16.0225L9.1084 12.6123C8.56348 12.1025 8.56348 11.2236 9.1084 10.7139L12.7295 7.30371C13.0371 7.01367 13.5029 7.01367 13.793 7.27734C14.1094 7.57617 14.1094 8.07715 13.8105 8.36719L10.2949 11.6543L13.8105 14.959C14.1006 15.249 14.1182 15.7324 13.8018 16.0488Z" fill="#1C1C1E"/>
</g>
<defs>
<clipPath id="clip0_10_1741">
<rect width="24" height="24" fill="white"/>
</clipPath>
</defs>
</svg>
