<svg width="24" height="24" viewBox="0 0 24 24" fill="none" xmlns="http://www.w3.org/2000/svg">
<g clip-path="url(#clip0_10_1673)">
<path d="M11.9912 3.42773C11.71 3.42773 11.4639 3.55957 11.1738 3.78809L5.24121 8.58691C5.03027 8.7627 4.89844 9.02637 4.89844 9.35156C4.89844 9.94922 5.38184 10.3887 5.93555 10.3887C6.19043 10.3887 6.44531 10.292 6.7002 10.0898L12 5.81836L17.291 10.0898C17.5371 10.292 17.8008 10.3887 18.0557 10.3887C18.6094 10.3887 19.0928 9.94922 19.0928 9.35156C19.0928 9.02637 18.9609 8.7627 18.75 8.58691L12.8086 3.78809C12.5273 3.55957 12.2812 3.42773 11.9912 3.42773ZM11.9912 19.7139C12.2812 19.7139 12.5273 19.5908 12.8086 19.3623L18.75 14.5635C18.9609 14.3789 19.0928 14.1152 19.0928 13.7988C19.0928 13.1924 18.6094 12.7529 18.0557 12.7529C17.8008 12.7529 17.5371 12.8584 17.291 13.0605L12 17.332L6.7002 13.0605C6.44531 12.8584 6.19043 12.7529 5.93555 12.7529C5.38184 12.7529 4.89844 13.1924 4.89844 13.7988C4.89844 14.1152 5.03027 14.3789 5.24121 14.5635L11.1738 19.3535C11.4639 19.5908 11.71 19.7139 11.9912 19.7139Z" fill="#1C1C1E"/>
</g>
<defs>
<clipPath id="clip0_10_1673">
<rect width="24" height="24" fill="white"/>
</clipPath>
</defs>
</svg>
