<svg width="24" height="24" viewBox="0 0 24 24" fill="none" xmlns="http://www.w3.org/2000/svg">
<g clip-path="url(#clip0_10_1718)">
<path d="M6.67383 19.8809H17.3174C19.2246 19.8809 20.209 18.8965 20.209 17.0156V6.31934C20.209 4.43848 19.2246 3.4541 17.3174 3.4541H6.67383C4.77539 3.4541 3.78223 4.42969 3.78223 6.31934V17.0156C3.78223 18.8965 4.77539 19.8809 6.67383 19.8809ZM9.95215 16.1631C9.63574 15.8379 9.64453 15.3457 9.95215 15.0469L13.5557 11.6631L9.95215 8.2793C9.63574 7.98926 9.64453 7.47949 9.96973 7.17188C10.2598 6.89062 10.7344 6.9082 11.0508 7.19824L14.7686 10.6875C15.3311 11.2148 15.3311 12.1289 14.7686 12.6475L11.0508 16.1367C10.7695 16.4092 10.2246 16.418 9.95215 16.1631Z" fill="#1C1C1E"/>
</g>
<defs>
<clipPath id="clip0_10_1718">
<rect width="24" height="24" fill="white"/>
</clipPath>
</defs>
</svg>
