<svg width="24" height="24" viewBox="0 0 24 24" fill="none" xmlns="http://www.w3.org/2000/svg">
<g clip-path="url(#clip0_10_1671)">
<path d="M11.9912 20.7422C16.9746 20.7422 21.0879 16.6289 21.0879 11.6543C21.0879 6.67969 16.9658 2.56641 11.9824 2.56641C7.00781 2.56641 2.90332 6.67969 2.90332 11.6543C2.90332 16.6289 7.0166 20.7422 11.9912 20.7422ZM11.9912 18.9316C7.95703 18.9316 4.73145 15.6885 4.73145 11.6543C4.73145 7.62012 7.95703 4.38574 11.9824 4.38574C16.0166 4.38574 19.2598 7.62012 19.2686 11.6543C19.2773 15.6885 16.0254 18.9316 11.9912 18.9316ZM12.9229 9.09668C12.3604 8.49023 11.6221 8.49023 11.0596 9.09668L7.69336 12.6738C7.40332 12.9902 7.40332 13.4473 7.66699 13.7109C7.97461 14.0273 8.44922 14.0273 8.73047 13.7285L11.9912 10.2656L15.252 13.7285C15.5332 14.0273 16.0166 14.0273 16.3154 13.7109C16.5879 13.4473 16.5791 12.9814 16.2891 12.6738L12.9229 9.09668Z" fill="#1C1C1E"/>
</g>
<defs>
<clipPath id="clip0_10_1671">
<rect width="24" height="24" fill="white"/>
</clipPath>
</defs>
</svg>
