<svg width="24" height="24" viewBox="0 0 24 24" fill="none" xmlns="http://www.w3.org/2000/svg">
<g clip-path="url(#clip0_10_1682)">
<path d="M11.9912 20.7422C16.9746 20.7422 21.0879 16.6289 21.0879 11.6543C21.0879 6.67969 16.9658 2.56641 11.9824 2.56641C7.00781 2.56641 2.90332 6.67969 2.90332 11.6543C2.90332 16.6289 7.0166 20.7422 11.9912 20.7422ZM11.9912 18.9316C7.95703 18.9316 4.73145 15.6885 4.73145 11.6543C4.73145 7.62012 7.95703 4.38574 11.9824 4.38574C16.0166 4.38574 19.2598 7.62012 19.2686 11.6543C19.2773 15.6885 16.0254 18.9316 11.9912 18.9316ZM12.9229 14.4668L16.2891 10.8896C16.5791 10.5732 16.5879 10.1074 16.3154 9.83496C16.0078 9.53613 15.5332 9.52734 15.252 9.82617L11.9912 13.2891L8.73047 9.82617C8.44922 9.52734 7.96582 9.52734 7.66699 9.83496C7.40332 10.1162 7.40332 10.5732 7.69336 10.8809L11.0596 14.458C11.6221 15.0645 12.3604 15.0645 12.9229 14.4668Z" fill="#1C1C1E"/>
</g>
<defs>
<clipPath id="clip0_10_1682">
<rect width="24" height="24" fill="white"/>
</clipPath>
</defs>
</svg>
