<svg width="24" height="24" viewBox="0 0 24 24" fill="none" xmlns="http://www.w3.org/2000/svg">
<g clip-path="url(#clip0_10_1692)">
<path d="M4.50293 14.0625L11.1914 7.22461C11.4199 6.97852 11.6924 6.86426 12 6.86426C12.3076 6.86426 12.5889 6.9873 12.8174 7.22461L19.4971 14.0625C19.6904 14.2559 19.7959 14.502 19.7959 14.792C19.7959 15.3809 19.3389 15.8379 18.7588 15.8379C18.4775 15.8379 18.2051 15.7324 18.0029 15.5215L12.0088 9.36035L5.99707 15.5215C5.80371 15.7236 5.53125 15.8379 5.24121 15.8379C4.66113 15.8379 4.2041 15.3809 4.2041 14.792C4.2041 14.5107 4.30957 14.2559 4.50293 14.0625Z" fill="#1C1C1E"/>
</g>
<defs>
<clipPath id="clip0_10_1692">
<rect width="24" height="24" fill="white"/>
</clipPath>
</defs>
</svg>
