<svg width="24" height="24" viewBox="0 0 24 24" fill="none" xmlns="http://www.w3.org/2000/svg">
<g clip-path="url(#clip0_10_1727)">
<path d="M17.6514 11.6543C17.6426 11.3467 17.5283 11.083 17.291 10.8457L10.4531 4.15723C10.251 3.96387 10.0137 3.8584 9.72363 3.8584C9.13477 3.8584 8.67773 4.31543 8.67773 4.9043C8.67773 5.18555 8.79199 5.44922 8.99414 5.65137L15.1465 11.6543L8.99414 17.6572C8.79199 17.8594 8.67773 18.1143 8.67773 18.4043C8.67773 18.9932 9.13477 19.4502 9.72363 19.4502C10.0049 19.4502 10.251 19.3447 10.4531 19.1514L17.291 12.4541C17.5371 12.2256 17.6514 11.9619 17.6514 11.6543Z" fill="#1C1C1E"/>
</g>
<defs>
<clipPath id="clip0_10_1727">
<rect width="24" height="24" fill="white"/>
</clipPath>
</defs>
</svg>
