<svg width="24" height="24" viewBox="0 0 24 24" fill="none" xmlns="http://www.w3.org/2000/svg">
<g clip-path="url(#clip0_10_1709)">
<path d="M22.2744 10.5996H21.0439C20.5254 6.14355 16.6582 2.56641 12 2.56641C9.4248 2.56641 7.08691 3.69141 5.46973 5.44922C5.03906 5.87109 5.05664 6.43359 5.4082 6.75879C5.76855 7.09277 6.28711 7.09277 6.72656 6.68848C8.03613 5.27344 9.91699 4.38574 12 4.38574C15.709 4.38574 18.7061 7.10156 19.207 10.5996H17.8623C17.1855 10.5996 17.001 11.1006 17.3965 11.6455L19.4971 14.6162C19.8223 15.0557 20.3145 15.0645 20.6309 14.6162L22.7402 11.6543C23.1357 11.1006 22.96 10.5996 22.2744 10.5996ZM12.0088 13.1045C12.4922 13.1045 12.7646 12.832 12.7822 12.3223L12.9141 8.09473C12.9316 7.57617 12.5449 7.20703 12 7.20703C11.4551 7.20703 11.0771 7.56738 11.0947 8.08594L11.2178 12.3311C11.2354 12.832 11.5166 13.1045 12.0088 13.1045ZM1.72559 12.7178H2.96484C3.4834 17.1738 7.35059 20.751 12 20.751C14.5928 20.751 16.9307 19.6172 18.5479 17.8594C18.9697 17.4375 18.9521 16.875 18.6006 16.5498C18.2402 16.2158 17.7305 16.2158 17.2822 16.6289C15.9902 18.0439 14.1094 18.9316 12 18.9316C8.2998 18.9316 5.30273 16.2158 4.80176 12.7178H6.1377C6.80566 12.7178 6.99902 12.2168 6.60352 11.6719L4.49414 8.70117C4.17773 8.26172 3.68555 8.25293 3.36914 8.70117L1.25977 11.6631C0.855469 12.2168 1.04004 12.7178 1.72559 12.7178ZM12.0088 16.0225C12.5801 16.0225 13.0459 15.6094 13.0459 15.0557C13.0459 14.4932 12.5801 14.0889 12.0088 14.0889C11.4375 14.0889 10.9717 14.502 10.9717 15.0557C10.9717 15.6094 11.4463 16.0225 12.0088 16.0225Z" fill="#1C1C1E"/>
</g>
<defs>
<clipPath id="clip0_10_1709">
<rect width="24" height="24" fill="white"/>
</clipPath>
</defs>
</svg>
