<svg width="24" height="24" viewBox="0 0 24 24" fill="none" xmlns="http://www.w3.org/2000/svg">
<g clip-path="url(#clip0_10_1767)">
<path d="M12 5.68652C12.4922 5.68652 12.8262 5.34375 12.8262 4.81641V1.08105C12.8262 0.553711 12.4922 0.210938 12 0.210938C11.5078 0.210938 11.1738 0.553711 11.1738 1.08105V4.81641C11.1738 5.34375 11.5078 5.68652 12 5.68652ZM7.02539 22.0957C7.49121 22.0957 7.96582 21.832 8.37012 21.4453L11.7715 18.1846C11.8594 18.0967 11.9297 18.0527 12 18.0527C12.0703 18.0527 12.1318 18.0967 12.2285 18.1846L15.6299 21.4453C16.0342 21.832 16.5088 22.0957 16.9746 22.0957C17.6689 22.0957 18.1875 21.498 18.1875 20.8125C18.1875 20.417 18.0381 19.9863 17.8271 19.4502L13.4326 8.29688C13.0811 7.41797 12.6328 6.9873 12 6.9873C11.3584 6.9873 10.9189 7.40918 10.5586 8.29688L6.16406 19.4502C5.95312 19.9863 5.8125 20.417 5.8125 20.8125C5.8125 21.498 6.33105 22.0957 7.02539 22.0957Z" fill="#1C1C1E"/>
</g>
<defs>
<clipPath id="clip0_10_1767">
<rect width="24" height="24" fill="white"/>
</clipPath>
</defs>
</svg>
