<svg width="24" height="24" viewBox="0 0 24 24" fill="none" xmlns="http://www.w3.org/2000/svg">
<g clip-path="url(#clip0_10_1781)">
<path d="M3.50977 10.2656C2.16504 10.8809 2.44629 12.7617 3.98438 12.7705L10.5234 12.7969C10.6553 12.7969 10.6992 12.8496 10.6992 12.9814L10.7168 19.4766C10.7168 20.9883 12.6064 21.3311 13.2744 19.8721L19.9277 5.47559C20.6396 3.9375 19.4443 2.91797 17.9766 3.59473L3.50977 10.2656ZM5.60156 11.1885C5.53125 11.1885 5.50488 11.1094 5.58398 11.0654L17.9766 5.39648C18.082 5.35254 18.1436 5.41406 18.0908 5.51953L12.4131 17.877C12.3779 17.9648 12.29 17.9473 12.29 17.8682L12.3252 11.9531C12.3252 11.417 12.0703 11.1533 11.5166 11.1533L5.60156 11.1885Z" fill="#1C1C1E"/>
</g>
<defs>
<clipPath id="clip0_10_1781">
<rect width="24" height="24" fill="white"/>
</clipPath>
</defs>
</svg>
