<svg width="24" height="24" viewBox="0 0 24 24" fill="none" xmlns="http://www.w3.org/2000/svg">
<g clip-path="url(#clip0_10_1775)">
<path d="M16.667 12.5156L19.9277 5.47559C20.6396 3.9375 19.4443 2.91797 17.9766 3.59473L10.9717 6.8291L16.667 12.5156ZM19.0225 18.4307C19.2949 18.7031 19.7432 18.7031 20.0156 18.4307C20.2793 18.1582 20.2881 17.71 20.0156 17.4375L6.20801 3.63867C5.94434 3.36621 5.4873 3.36621 5.21484 3.63867C4.95117 3.90234 4.95117 4.36816 5.21484 4.63184L19.0225 18.4307ZM7.46484 8.4375L3.50977 10.2656C2.16504 10.8809 2.44629 12.7617 3.98438 12.7705L10.5234 12.7969C10.6553 12.7969 10.6992 12.8496 10.6992 12.9814L10.7168 19.4766C10.7168 20.9883 12.6064 21.3311 13.2744 19.8721L15.0498 16.04L7.46484 8.4375Z" fill="#1C1C1E"/>
</g>
<defs>
<clipPath id="clip0_10_1775">
<rect width="24" height="24" fill="white"/>
</clipPath>
</defs>
</svg>
