<svg width="24" height="24" viewBox="0 0 24 24" fill="none" xmlns="http://www.w3.org/2000/svg">
<g clip-path="url(#clip0_10_1773)">
<path d="M5.94434 20.7334C6.44531 20.7334 6.79688 20.5137 7.33301 19.9863L11.8682 15.4863C11.9121 15.4424 11.9561 15.4072 12 15.4072C12.0352 15.4072 12.0791 15.4424 12.123 15.4863L16.6582 19.9863C17.1943 20.5137 17.5459 20.7334 18.0469 20.7334C18.7148 20.7334 19.1631 20.2236 19.1631 19.5205C19.1631 19.1514 19.0225 18.7119 18.8643 18.2725L13.3799 3.36621C13.0635 2.51367 12.6152 2.06543 12 2.06543C11.3848 2.06543 10.9277 2.50488 10.6113 3.36621L5.12695 18.2725C4.96875 18.7119 4.82812 19.1514 4.82812 19.5205C4.82812 20.2236 5.27637 20.7334 5.94434 20.7334Z" fill="#1C1C1E"/>
</g>
<defs>
<clipPath id="clip0_10_1773">
<rect width="24" height="24" fill="white"/>
</clipPath>
</defs>
</svg>
