<svg width="24" height="24" viewBox="0 0 24 24" fill="none" xmlns="http://www.w3.org/2000/svg">
<g clip-path="url(#clip0_10_1769)">
<path d="M11.9912 20.7598C16.9746 20.7598 21.0879 16.6465 21.0879 11.6631C21.0879 6.68848 16.9658 2.5752 11.9824 2.5752C7.00781 2.5752 2.90332 6.68848 2.90332 11.6631C2.90332 16.6465 7.0166 20.7598 11.9912 20.7598ZM8.90625 16.1016C8.32617 16.6816 7.5791 16.1807 7.85156 15.4863L11.2705 6.78516C11.543 6.09961 12.4043 6.08203 12.6768 6.77637L16.0957 15.4863C16.377 16.1895 15.6211 16.6816 15.041 16.1016L12.2021 13.2627C12.0615 13.1221 11.8857 13.1221 11.7451 13.2627L8.90625 16.1016Z" fill="#1C1C1E"/>
</g>
<defs>
<clipPath id="clip0_10_1769">
<rect width="24" height="24" fill="white"/>
</clipPath>
</defs>
</svg>
