<svg width="24" height="24" viewBox="0 0 24 24" fill="none" xmlns="http://www.w3.org/2000/svg">
<g clip-path="url(#clip0_10_1777)">
<path d="M16.6494 12.5771L19.9277 5.47559C20.6396 3.9375 19.4443 2.91797 17.9766 3.59473L10.9189 6.84668L12.1406 8.06836L17.9766 5.39648C18.082 5.35254 18.1436 5.41406 18.0908 5.51953L15.4189 11.3467L16.6494 12.5771ZM18.9873 18.3867C19.2598 18.6592 19.708 18.6592 19.9717 18.3867C20.2354 18.1143 20.2529 17.6748 19.9717 17.3936L6.2168 3.63867C5.94434 3.36621 5.4873 3.36621 5.21484 3.63867C4.95117 3.90234 4.95117 4.36816 5.21484 4.63184L18.9873 18.3867ZM13.8545 14.7568L12.4131 17.877C12.3779 17.9648 12.29 17.9473 12.29 17.8682L12.3164 13.2275L10.251 11.1621L5.60156 11.1885C5.53125 11.1885 5.50488 11.1094 5.58398 11.0654L8.72168 9.63281L7.50879 8.41992L3.50977 10.2656C2.16504 10.8809 2.44629 12.7617 3.98438 12.7705L10.5234 12.7969C10.6553 12.7969 10.6992 12.8496 10.6992 12.9814L10.7168 19.4766C10.7168 20.9883 12.6064 21.3311 13.2744 19.8721L15.0762 15.9785L13.8545 14.7568Z" fill="#1C1C1E"/>
</g>
<defs>
<clipPath id="clip0_10_1777">
<rect width="24" height="24" fill="white"/>
</clipPath>
</defs>
</svg>
