<svg width="24" height="24" viewBox="0 0 24 24" fill="none" xmlns="http://www.w3.org/2000/svg">
<g clip-path="url(#clip0_10_1771)">
<path d="M11.9912 20.7422C16.9746 20.7422 21.0879 16.6289 21.0879 11.6543C21.0879 6.67969 16.9658 2.56641 11.9824 2.56641C7.00781 2.56641 2.90332 6.67969 2.90332 11.6543C2.90332 16.6289 7.0166 20.7422 11.9912 20.7422ZM11.9912 18.9316C7.95703 18.9316 4.73145 15.6885 4.73145 11.6543C4.73145 7.62012 7.95703 4.38574 11.9824 4.38574C16.0166 4.38574 19.2598 7.62012 19.2686 11.6543C19.2773 15.6885 16.0254 18.9316 11.9912 18.9316ZM9.0293 15.917L11.7627 13.1748C11.8945 13.043 12.0703 13.043 12.2021 13.1748L14.9355 15.917C15.498 16.4707 16.21 15.9961 15.9375 15.3281L12.6504 6.93457C12.3955 6.28418 11.5693 6.29297 11.3057 6.95215L8.02734 15.3281C7.76367 15.9873 8.4668 16.4707 9.0293 15.917Z" fill="#1C1C1E"/>
</g>
<defs>
<clipPath id="clip0_10_1771">
<rect width="24" height="24" fill="white"/>
</clipPath>
</defs>
</svg>
