<svg width="24" height="24" viewBox="0 0 24 24" fill="none" xmlns="http://www.w3.org/2000/svg">
<g clip-path="url(#clip0_10_1700)">
<path d="M8.50195 19.5908C9.07324 19.5908 9.45996 19.1865 9.45996 18.6328C9.45996 18.3428 9.3457 18.1318 9.16992 17.9561L6.9375 15.7764L5.39941 14.4844L7.42969 14.5723H18.3984C20.6045 14.5723 21.5449 13.5791 21.5449 11.3994V6.1875C21.5449 3.98145 20.6045 3.03223 18.3984 3.03223H13.5205C12.9316 3.03223 12.5186 3.47168 12.5186 4.0166C12.5186 4.55273 12.9316 4.99219 13.5117 4.99219H18.3545C19.2334 4.99219 19.6113 5.37012 19.6113 6.24902V11.3379C19.6113 12.2432 19.2334 12.6123 18.3545 12.6123H7.42969L5.39941 12.709L6.9375 11.4082L9.16992 9.2373C9.3457 9.06152 9.45996 8.8418 9.45996 8.55176C9.45996 8.00684 9.07324 7.60254 8.50195 7.60254C8.25586 7.60254 7.9834 7.7168 7.79004 7.91016L2.75391 12.8672C2.55176 13.0605 2.44629 13.3242 2.44629 13.5967C2.44629 13.8604 2.55176 14.124 2.75391 14.3174L7.79004 19.2832C7.9834 19.4766 8.25586 19.5908 8.50195 19.5908Z" fill="#1C1C1E"/>
</g>
<defs>
<clipPath id="clip0_10_1700">
<rect width="24" height="24" fill="white"/>
</clipPath>
</defs>
</svg>
