<svg width="24" height="24" viewBox="0 0 24 24" fill="none" xmlns="http://www.w3.org/2000/svg">
<g clip-path="url(#clip0_10_951)">
<path d="M18.0732 15.7939C18.3896 16.1719 18.9434 16.1895 19.3477 15.75C20.8154 14.1768 21.624 12.0234 21.624 9.70312C21.624 7.38281 20.7979 5.20312 19.3477 3.65625C18.9434 3.2168 18.3896 3.23438 18.0732 3.6123C17.7656 3.96387 17.8623 4.41211 18.2051 4.79883C19.3652 6.08203 20.0068 7.80469 20.0068 9.70312C20.0068 11.5928 19.3652 13.3154 18.2051 14.5986C17.8623 14.9854 17.7656 15.4336 18.0732 15.7939ZM5.91797 15.7939C6.22559 15.4336 6.12012 14.9854 5.78613 14.5986C4.62598 13.3154 3.98438 11.5928 3.98438 9.70312C3.98438 7.80469 4.62598 6.08203 5.78613 4.79883C6.12012 4.41211 6.22559 3.96387 5.91797 3.6123C5.60156 3.23438 5.04785 3.2168 4.64355 3.65625C3.19336 5.20312 2.36719 7.38281 2.36719 9.70312C2.36719 12.0234 3.17578 14.1768 4.64355 15.75C5.04785 16.1895 5.60156 16.1719 5.91797 15.7939ZM15.375 13.2363C15.6914 13.6143 16.2891 13.623 16.6582 13.1836C17.4229 12.2607 17.8535 11.0215 17.8535 9.70312C17.8535 8.37598 17.4229 7.13672 16.6582 6.22266C16.2891 5.77441 15.6914 5.79199 15.375 6.16113C15.0762 6.52148 15.1992 6.94336 15.4893 7.34766C15.9551 7.98047 16.2363 8.82422 16.2363 9.70312C16.2363 10.5732 15.9727 11.4346 15.4893 12.0498C15.1992 12.4541 15.0762 12.8848 15.375 13.2363ZM8.61621 13.2363C8.90625 12.8848 8.79199 12.4541 8.50195 12.0498C8.01855 11.4346 7.74609 10.5732 7.74609 9.70312C7.74609 8.82422 8.03613 7.98047 8.50195 7.34766C8.79199 6.94336 8.90625 6.52148 8.61621 6.16113C8.2998 5.79199 7.70215 5.77441 7.33301 6.22266C6.56836 7.13672 6.1377 8.37598 6.1377 9.70312C6.1377 11.0215 6.56836 12.2607 7.33301 13.1836C7.70215 13.623 8.2998 13.6143 8.61621 13.2363ZM11.9912 19.8809C12.4658 19.8809 12.7646 19.5381 12.7646 19.0195V11.2236C13.3184 10.9424 13.7051 10.3711 13.7051 9.70312C13.7051 8.74512 12.9492 7.98926 11.9912 7.98926C11.042 7.98926 10.2861 8.74512 10.2861 9.70312C10.2861 10.3711 10.6641 10.9512 11.2266 11.2236V19.0195C11.2266 19.5293 11.543 19.8809 11.9912 19.8809Z" fill="#1C1C1E"/>
</g>
<defs>
<clipPath id="clip0_10_951">
<rect width="24" height="24" fill="white"/>
</clipPath>
</defs>
</svg>
