<svg width="24" height="24" viewBox="0 0 24 24" fill="none" xmlns="http://www.w3.org/2000/svg">
<g clip-path="url(#clip0_10_974)">
<path d="M18.3281 18.6504C21.0703 18.6504 23.2324 16.6377 23.2324 14.124C23.2324 12.2607 22.1689 10.5996 20.4199 9.87012C20.4287 5.88867 17.5635 3.02344 13.8809 3.02344C11.543 3.02344 9.78516 4.23633 8.68652 5.82715C6.4541 5.22949 4.10742 6.89062 4.01953 9.36914C2.00684 9.72949 0.767578 11.54 0.767578 13.7373C0.767578 16.418 3.10547 18.6504 6.18164 18.6504H18.3281ZM8.80078 11.8916C8.80078 9.94043 10.3652 8.40234 12.1494 8.33203C12.2197 8.33203 12.29 8.34082 12.3516 8.34082L11.8857 7.84863C11.7891 7.76074 11.7275 7.61133 11.7275 7.45312C11.7275 7.1543 11.9648 6.89062 12.2988 6.89062C12.4658 6.89062 12.6152 6.96094 12.7207 7.0752L14.2412 8.63086C14.4609 8.8418 14.4697 9.24609 14.2412 9.46582L12.7031 11.0039C12.6064 11.1006 12.4482 11.1709 12.3076 11.1709C11.9824 11.1709 11.7363 10.9336 11.7363 10.5996C11.7363 10.459 11.7891 10.3271 11.8682 10.2305L12.5186 9.58008C12.4395 9.58008 12.3428 9.58008 12.2461 9.58008C11.0156 9.62402 10.0488 10.6523 10.0488 11.9092C10.0488 13.2363 11.1035 14.3086 12.4307 14.3086C13.7578 14.3086 14.8125 13.2363 14.8125 11.9092C14.8125 11.5752 15.0938 11.3027 15.4365 11.3027C15.7793 11.3027 16.0605 11.5752 16.0605 11.9092C16.0605 13.9219 14.4346 15.5566 12.4307 15.5566C10.418 15.5566 8.80078 13.9219 8.80078 11.8916Z" fill="#1C1C1E"/>
</g>
<defs>
<clipPath id="clip0_10_974">
<rect width="24" height="24" fill="white"/>
</clipPath>
</defs>
</svg>
