<svg width="24" height="24" viewBox="0 0 24 24" fill="none" xmlns="http://www.w3.org/2000/svg">
<g clip-path="url(#clip0_10_973)">
<path d="M18.3281 18.6592C21.0703 18.6592 23.2324 16.6465 23.2324 14.1328C23.2324 12.2607 22.1689 10.5996 20.4199 9.87012C20.4287 5.89746 17.5635 3.03223 13.8809 3.03223C11.543 3.03223 9.78516 4.23633 8.68652 5.83594C6.4541 5.23828 4.10742 6.89941 4.01953 9.37793C2.00684 9.73828 0.767578 11.54 0.767578 13.7461C0.767578 16.418 3.10547 18.6504 6.18164 18.6504L18.3281 18.6592ZM18.3281 16.9014H6.19043C4.09863 16.9014 2.54297 15.4424 2.54297 13.7461C2.54297 11.9883 3.62402 10.6875 5.41699 10.6875C5.54883 10.6875 5.60156 10.6172 5.59277 10.4941C5.54004 7.88379 7.41211 6.9873 9.30176 7.58496C9.41602 7.62012 9.48633 7.59375 9.53906 7.49707C10.4092 5.96777 11.6924 4.78125 13.8721 4.78125C16.6318 4.78125 18.6006 6.96973 18.7324 9.52734C18.7588 10.002 18.7236 10.5117 18.6885 10.9336C18.6709 11.0566 18.7236 11.127 18.8379 11.1445C20.4287 11.4521 21.457 12.5771 21.457 14.1328C21.457 15.6709 20.0947 16.9014 18.3281 16.9014ZM15.709 11.8652C15.709 9.99316 14.2061 8.50781 12.4834 8.44629C12.4219 8.44629 12.3428 8.44629 12.29 8.45508L12.7471 7.97168C12.835 7.88379 12.8965 7.75195 12.8965 7.59375C12.8965 7.30371 12.6768 7.05762 12.3516 7.05762C12.1934 7.05762 12.0439 7.12793 11.9473 7.24219L10.4795 8.72754C10.2773 8.93848 10.2686 9.31641 10.4795 9.52734L11.9648 11.0127C12.0527 11.1006 12.2021 11.1709 12.3428 11.1709C12.6504 11.1709 12.8965 10.9424 12.8965 10.626C12.8965 10.4854 12.8438 10.3623 12.7559 10.2656L12.1318 9.6416C12.2021 9.63281 12.2988 9.63281 12.3955 9.6416C13.582 9.67676 14.5225 10.6699 14.5225 11.8916C14.5225 13.166 13.5029 14.1943 12.2197 14.1943C10.9541 14.1943 9.92578 13.166 9.92578 11.8916C9.92578 11.5664 9.65332 11.3027 9.32812 11.3027C9.00293 11.3027 8.73926 11.5664 8.73926 11.8916C8.73926 13.8252 10.2949 15.3896 12.2197 15.3896C14.1533 15.3896 15.709 13.8252 15.709 11.8652Z" fill="#1C1C1E"/>
</g>
<defs>
<clipPath id="clip0_10_973">
<rect width="24" height="24" fill="white"/>
</clipPath>
</defs>
</svg>
