<svg width="24" height="24" viewBox="0 0 24 24" fill="none" xmlns="http://www.w3.org/2000/svg">
<g clip-path="url(#clip0_10_976)">
<path d="M18.3281 18.6592C21.0703 18.6592 23.2324 16.6465 23.2324 14.1328C23.2324 12.2607 22.1689 10.5996 20.4199 9.87012C20.4287 5.89746 17.5635 3.03223 13.8809 3.03223C11.543 3.03223 9.78516 4.23633 8.68652 5.83594C6.4541 5.23828 4.10742 6.89941 4.01953 9.37793C2.00684 9.73828 0.767578 11.54 0.767578 13.7461C0.767578 16.418 3.10547 18.6504 6.18164 18.6504L18.3281 18.6592ZM18.3281 16.9014H6.19043C4.09863 16.9014 2.54297 15.4424 2.54297 13.7461C2.54297 11.9883 3.62402 10.6875 5.41699 10.6875C5.54883 10.6875 5.60156 10.6172 5.59277 10.4941C5.54004 7.88379 7.41211 6.9873 9.30176 7.58496C9.41602 7.62012 9.48633 7.59375 9.53906 7.49707C10.4092 5.96777 11.6924 4.78125 13.8721 4.78125C16.6318 4.78125 18.6006 6.96973 18.7324 9.52734C18.7588 10.002 18.7236 10.5117 18.6885 10.9336C18.6709 11.0566 18.7236 11.127 18.8379 11.1445C20.4287 11.4521 21.457 12.5771 21.457 14.1328C21.457 15.6709 20.0947 16.9014 18.3281 16.9014ZM8.94141 11.8652C8.94141 13.8252 10.4971 15.3896 12.4307 15.3896C14.3643 15.3896 15.9199 13.8252 15.9199 11.8916C15.9199 11.5664 15.6475 11.3027 15.3223 11.3027C14.9971 11.3027 14.7246 11.5664 14.7246 11.8916C14.7246 13.166 13.7051 14.1943 12.4307 14.1943C11.1475 14.1943 10.1279 13.166 10.1279 11.8916C10.1279 10.6699 11.0771 9.67676 12.2637 9.6416C12.3516 9.63281 12.4482 9.63281 12.5273 9.6416L11.8945 10.2656C11.8154 10.3623 11.7627 10.4854 11.7627 10.626C11.7627 10.9424 12 11.1709 12.3076 11.1709C12.4482 11.1709 12.5977 11.1006 12.6943 11.0127L14.1709 9.52734C14.3818 9.31641 14.3818 8.93848 14.1709 8.72754L12.7119 7.24219C12.6064 7.12793 12.457 7.05762 12.2988 7.05762C11.9824 7.05762 11.7539 7.30371 11.7539 7.59375C11.7539 7.75195 11.8154 7.88379 11.9033 7.97168L12.3691 8.45508C12.3076 8.44629 12.2373 8.44629 12.167 8.44629C10.4531 8.50781 8.94141 9.99316 8.94141 11.8652Z" fill="#1C1C1E"/>
</g>
<defs>
<clipPath id="clip0_10_976">
<rect width="24" height="24" fill="white"/>
</clipPath>
</defs>
</svg>
