<svg width="24" height="24" viewBox="0 0 24 24" fill="none" xmlns="http://www.w3.org/2000/svg">
<g clip-path="url(#clip0_10_970)">
<path d="M18.3281 18.6504C21.0703 18.6504 23.2324 16.6377 23.2324 14.124C23.2324 12.2607 22.1689 10.5996 20.4199 9.87012C20.4287 5.88867 17.5635 3.02344 13.8809 3.02344C11.543 3.02344 9.78516 4.23633 8.68652 5.82715C6.4541 5.22949 4.10742 6.89062 4.01953 9.36914C2.00684 9.72949 0.767578 11.54 0.767578 13.7373C0.767578 16.418 3.10547 18.6504 6.18164 18.6504H18.3281ZM15.8584 11.8828C15.8584 13.9131 14.2324 15.5479 12.2197 15.5479C10.2158 15.5479 8.59863 13.9131 8.59863 11.9004C8.59863 11.5664 8.87988 11.2939 9.21387 11.2939C9.56543 11.2939 9.84668 11.5664 9.84668 11.9004C9.84668 13.2275 10.9014 14.2998 12.2197 14.2998C13.5557 14.2998 14.6104 13.2275 14.6104 11.9004C14.6104 10.6436 13.6348 9.61523 12.4043 9.58008C12.3164 9.57129 12.2197 9.57129 12.1406 9.57129L12.7822 10.2217C12.8701 10.3184 12.9229 10.4502 12.9229 10.5908C12.9229 10.9248 12.668 11.1621 12.3428 11.1621C12.2021 11.1621 12.0439 11.0918 11.9473 10.9951L10.418 9.45703C10.1895 9.2373 10.1982 8.83301 10.4092 8.62207L11.9297 7.06641C12.0352 6.96094 12.1934 6.88184 12.3516 6.88184C12.6855 6.88184 12.9229 7.14551 12.9229 7.44434C12.9229 7.60254 12.8613 7.75195 12.7734 7.83984L12.2988 8.33203C12.3604 8.33203 12.4395 8.32324 12.5098 8.33203C14.2852 8.39355 15.8584 9.93164 15.8584 11.8828Z" fill="#1C1C1E"/>
</g>
<defs>
<clipPath id="clip0_10_970">
<rect width="24" height="24" fill="white"/>
</clipPath>
</defs>
</svg>
