<svg width="24" height="24" viewBox="0 0 24 24" fill="none" xmlns="http://www.w3.org/2000/svg">
<g clip-path="url(#clip0_10_977)">
<path d="M11.9912 20.7598C16.9746 20.7598 21.0879 16.6465 21.0879 11.6631C21.0879 6.68848 16.9658 2.5752 11.9824 2.5752C7.00781 2.5752 2.90332 6.68848 2.90332 11.6631C2.90332 16.6465 7.0166 20.7598 11.9912 20.7598ZM6.22559 13.2539L9.19629 9.43945C9.40723 9.18457 9.61816 9.07031 9.84668 9.07031C10.0225 9.07031 10.1895 9.13184 10.3828 9.22852L14.1006 11.25L17.0537 9.67676C17.6689 9.36035 18.1787 9.95801 17.7568 10.5029L14.7686 14.3262C14.5664 14.5811 14.3467 14.7041 14.1182 14.7041C13.9424 14.7041 13.7754 14.6426 13.582 14.5371L9.86426 12.5156L6.92871 14.0889C6.33105 14.3965 5.76855 13.834 6.22559 13.2539Z" fill="#1C1C1E"/>
</g>
<defs>
<clipPath id="clip0_10_977">
<rect width="24" height="24" fill="white"/>
</clipPath>
</defs>
</svg>
