<svg width="24" height="24" viewBox="0 0 24 24" fill="none" xmlns="http://www.w3.org/2000/svg">
<g clip-path="url(#clip0_10_971)">
<path d="M11.9912 20.7422C16.9746 20.7422 21.0879 16.6289 21.0879 11.6543C21.0879 6.67969 16.9658 2.56641 11.9824 2.56641C7.00781 2.56641 2.90332 6.67969 2.90332 11.6543C2.90332 16.6289 7.0166 20.7422 11.9912 20.7422ZM11.9912 18.9316C7.95703 18.9316 4.73145 15.6885 4.73145 11.6543C4.73145 7.62012 7.95703 4.38574 11.9824 4.38574C16.0166 4.38574 19.2598 7.62012 19.2686 11.6543C19.2773 15.6885 16.0254 18.9316 11.9912 18.9316ZM6.44531 13.1924C6.00586 13.7549 6.55078 14.291 7.12207 14.001L9.95215 12.4893L13.5293 14.4316C13.7139 14.5283 13.8809 14.5898 14.0391 14.5898C14.2588 14.5898 14.4697 14.4668 14.6631 14.2295L17.5371 10.5469C17.9502 10.0283 17.4492 9.45703 16.8691 9.76465L14.0215 11.2676L10.4443 9.3252C10.2686 9.22852 10.0928 9.16699 9.93457 9.16699C9.70605 9.16699 9.50391 9.28125 9.31055 9.52734L6.44531 13.1924Z" fill="#1C1C1E"/>
</g>
<defs>
<clipPath id="clip0_10_971">
<rect width="24" height="24" fill="white"/>
</clipPath>
</defs>
</svg>
