<svg width="24" height="24" viewBox="0 0 24 24" fill="none" xmlns="http://www.w3.org/2000/svg">
<g clip-path="url(#clip0_10_987)">
<path d="M18.3281 18.6592C21.0703 18.6592 23.2324 16.6465 23.2324 14.1328C23.2324 12.2607 22.1689 10.5996 20.4199 9.87012C20.4287 5.89746 17.5635 3.03223 13.8809 3.03223C11.543 3.03223 9.78516 4.23633 8.68652 5.83594C6.4541 5.23828 4.10742 6.89941 4.01953 9.37793C2.00684 9.73828 0.767578 11.54 0.767578 13.7461C0.767578 16.418 3.10547 18.6504 6.18164 18.6504L18.3281 18.6592ZM18.3281 16.9014H6.19043C4.09863 16.9014 2.54297 15.4424 2.54297 13.7461C2.54297 11.9883 3.62402 10.6875 5.41699 10.6875C5.54883 10.6875 5.60156 10.6172 5.59277 10.4941C5.54004 7.88379 7.41211 6.9873 9.30176 7.58496C9.41602 7.62012 9.48633 7.59375 9.53906 7.49707C10.4092 5.96777 11.6924 4.78125 13.8721 4.78125C16.6318 4.78125 18.6006 6.96973 18.7324 9.52734C18.7588 10.002 18.7236 10.5117 18.6885 10.9336C18.6709 11.0566 18.7236 11.127 18.8379 11.1445C20.4287 11.4521 21.457 12.5771 21.457 14.1328C21.457 15.6709 20.0947 16.9014 18.3281 16.9014ZM6.46289 13.1924C6.02344 13.7461 6.56836 14.291 7.13086 13.9922L9.96094 12.4805L13.5469 14.4229C13.7227 14.5283 13.8896 14.5811 14.0479 14.5811C14.2764 14.5811 14.4873 14.4668 14.6807 14.2207L17.5547 10.5469C17.959 10.0195 17.4668 9.44824 16.8779 9.75586L14.0391 11.2588L10.4531 9.3252C10.2773 9.21973 10.1104 9.16699 9.94336 9.16699C9.72363 9.16699 9.52148 9.28125 9.32812 9.51855L6.46289 13.1924Z" fill="#1C1C1E"/>
</g>
<defs>
<clipPath id="clip0_10_987">
<rect width="24" height="24" fill="white"/>
</clipPath>
</defs>
</svg>
