<svg width="24" height="24" viewBox="0 0 24 24" fill="none" xmlns="http://www.w3.org/2000/svg">
<g clip-path="url(#clip0_10_999)">
<path d="M0.143555 15.2402C-0.796875 16.418 0.345703 17.5254 1.51465 16.8662L7.86035 13.3066L15.1377 17.2617C15.5156 17.4639 15.8584 17.5781 16.1836 17.5781C16.667 17.5781 17.0977 17.3496 17.502 16.8486L23.9004 8.81543C24.7266 7.76953 23.751 6.48633 22.5029 7.16309L16.166 10.749L8.87988 6.79395C8.50195 6.58301 8.15039 6.47754 7.83398 6.47754C7.35059 6.47754 6.92871 6.70605 6.52441 7.20703L0.143555 15.2402ZM2.34961 14.8975C2.25293 14.959 2.19141 14.8623 2.26172 14.7832L7.75488 8.31445C7.86914 8.17383 7.9834 8.15625 8.13281 8.23535L15.8936 12.4365C16.2363 12.6123 16.3506 12.5684 16.623 12.3926L21.6943 9.14062C21.7734 9.08789 21.8613 9.17578 21.791 9.25488L16.2715 15.7676C16.1572 15.9082 16.043 15.9258 15.8936 15.8467L8.12402 11.6719C7.78125 11.4873 7.67578 11.5312 7.40332 11.707L2.34961 14.8975Z" fill="#1C1C1E"/>
</g>
<defs>
<clipPath id="clip0_10_999">
<rect width="24" height="24" fill="white"/>
</clipPath>
</defs>
</svg>
