<svg width="24" height="24" viewBox="0 0 24 24" fill="none" xmlns="http://www.w3.org/2000/svg">
<g clip-path="url(#clip0_10_986)">
<path d="M18.3281 18.6504C21.0703 18.6504 23.2324 16.6377 23.2324 14.124C23.2324 12.2607 22.1689 10.5996 20.4199 9.87012C20.4287 5.88867 17.5635 3.02344 13.8809 3.02344C11.543 3.02344 9.78516 4.23633 8.68652 5.82715C6.4541 5.22949 4.10742 6.89062 4.01953 9.36914C2.00684 9.72949 0.767578 11.54 0.767578 13.7373C0.767578 16.418 3.10547 18.6504 6.18164 18.6504H18.3281ZM6.23438 13.2363L9.21387 9.43066C9.41602 9.17578 9.63574 9.05273 9.86426 9.05273C10.0312 9.05273 10.207 9.12305 10.3916 9.21973L14.1094 11.2324L17.0625 9.66797C17.6777 9.35156 18.1963 9.94922 17.7744 10.4941L14.7861 14.3174C14.5752 14.5723 14.3555 14.6865 14.127 14.6865C13.96 14.6865 13.7842 14.625 13.5996 14.5195L9.87305 12.5068L6.9375 14.0801C6.33984 14.3877 5.78613 13.8252 6.23438 13.2363Z" fill="#1C1C1E"/>
</g>
<defs>
<clipPath id="clip0_10_986">
<rect width="24" height="24" fill="white"/>
</clipPath>
</defs>
</svg>
