<svg width="24" height="24" viewBox="0 0 24 24" fill="none" xmlns="http://www.w3.org/2000/svg">
<g clip-path="url(#clip0_10_950)">
<path d="M6.09375 5.80957C7.08691 5.80957 7.87793 5.00977 7.87793 4.02539C7.87793 3.04102 7.08691 2.24121 6.09375 2.24121C5.10938 2.24121 4.31836 3.04102 4.31836 4.02539C4.31836 5.00977 5.10938 5.80957 6.09375 5.80957ZM1.99805 7.12793C1.99805 9.33398 3.94043 11.584 7.35059 12.6562C7.05176 13.5615 6.89355 14.4404 6.89355 15.2402C6.89355 15.7852 6.96387 16.3477 7.12207 16.8926C7.56152 16.2686 8.40527 15.8818 9.09082 15.8555C8.94141 15.3984 8.85352 14.8887 8.85352 14.3525C8.85352 13.9307 8.89746 13.4912 8.97656 13.0518C9.86426 13.21 10.8223 13.2979 11.8506 13.2979C12.8525 13.2979 13.8105 13.2188 14.7158 13.0518C14.7949 13.4912 14.8301 13.9307 14.8301 14.3525C14.8301 16.4268 13.6348 17.8594 12.0352 17.8682C12.0967 18.1406 12.1406 18.4219 12.1406 18.6855C12.1406 19.3184 11.9385 19.916 11.5605 20.4082C11.6396 20.417 11.7451 20.417 11.8418 20.417C14.7246 20.417 16.7988 18.2461 16.7988 15.2402C16.7988 14.4404 16.6318 13.5615 16.3418 12.6562C17.4492 12.3047 18.4336 11.8301 19.2598 11.2236C18.7148 10.9863 18.249 10.5732 17.9502 10.0547C17.3789 10.5996 16.6758 11.0391 15.8496 11.3643C15.1377 9.74707 14.0742 8.12109 12.8086 6.74121C13.9688 5.80078 15.2695 5.20312 16.5703 5.20312C17.6074 5.20312 18.4072 5.58105 18.8291 6.2666C19.2949 5.95898 19.8311 5.80078 20.3936 5.80078C20.8154 5.80078 21.2197 5.89746 21.5977 6.06445C21.167 4.27148 19.6025 3.17285 17.3965 3.17285C15.5068 3.17285 13.5557 4.22754 11.8506 5.7832C10.9365 4.93945 9.93457 4.24512 8.91504 3.7793C8.92383 3.8584 8.92383 3.94629 8.92383 4.02539C8.92383 4.52637 8.79199 5.00977 8.55469 5.43164C9.36328 5.68652 10.1543 6.13477 10.8926 6.74121C9.62695 8.1123 8.56348 9.73828 7.85156 11.3555C5.49609 10.415 4.53809 8.71875 4.53809 7.56738C4.53809 7.17188 4.59961 6.82031 4.73145 6.5127C3.85254 6.0293 3.29004 5.09766 3.26367 4.0957C2.42871 4.88672 1.99805 5.90625 1.99805 7.12793ZM20.3936 10.415C21.3779 10.415 22.1689 9.61523 22.1689 8.63086C22.1689 7.64648 21.3779 6.84668 20.3936 6.84668C19.4092 6.84668 18.6094 7.64648 18.6094 8.63086C18.6094 9.61523 19.4092 10.415 20.3936 10.415ZM11.8506 12.0322C10.9014 12.0322 10.0576 11.9443 9.31934 11.7861C9.8291 10.2832 10.7344 8.80664 11.8506 7.62891C12.9668 8.79785 13.8721 10.2744 14.3818 11.7861C13.6084 11.9531 12.7559 12.0322 11.8506 12.0322ZM9.31055 20.4697C10.2949 20.4697 11.0947 19.6787 11.0947 18.6855C11.0947 17.7012 10.2949 16.9102 9.31055 16.9102C8.32617 16.9102 7.52637 17.7012 7.52637 18.6855C7.52637 19.6699 8.32617 20.4697 9.31055 20.4697Z" fill="#1C1C1E"/>
</g>
<defs>
<clipPath id="clip0_10_950">
<rect width="24" height="24" fill="white"/>
</clipPath>
</defs>
</svg>
