<svg width="24" height="24" viewBox="0 0 24 24" fill="none" xmlns="http://www.w3.org/2000/svg">
<g clip-path="url(#clip0_10_1000)">
<path d="M18.3281 18.6592C21.0703 18.6592 23.2324 16.6465 23.2324 14.1328C23.2324 12.2607 22.1689 10.5996 20.4199 9.87012C20.4287 5.89746 17.5635 3.03223 13.8809 3.03223C11.543 3.03223 9.78516 4.23633 8.68652 5.83594C6.4541 5.23828 4.10742 6.89941 4.01953 9.37793C2.00684 9.73828 0.767578 11.54 0.767578 13.7461C0.767578 16.418 3.10547 18.6504 6.18164 18.6504L18.3281 18.6592ZM18.3281 16.9014H6.19043C4.09863 16.9014 2.54297 15.4424 2.54297 13.7461C2.54297 11.9883 3.62402 10.6875 5.41699 10.6875C5.54883 10.6875 5.60156 10.6172 5.59277 10.4941C5.54004 7.88379 7.41211 6.9873 9.30176 7.58496C9.41602 7.62012 9.48633 7.59375 9.53906 7.49707C10.4092 5.96777 11.6924 4.78125 13.8721 4.78125C16.6318 4.78125 18.6006 6.96973 18.7324 9.52734C18.7588 10.002 18.7236 10.5117 18.6885 10.9336C18.6709 11.0566 18.7236 11.127 18.8379 11.1445C20.4287 11.4521 21.457 12.5771 21.457 14.1328C21.457 15.6709 20.0947 16.9014 18.3281 16.9014ZM11.3584 15.0029C11.666 15.0029 11.9385 14.8535 12.1143 14.5723L15.5684 9.03516C15.665 8.87695 15.7705 8.6748 15.7705 8.46387C15.7705 8.04199 15.4014 7.72559 14.9619 7.72559C14.6895 7.72559 14.4346 7.875 14.2676 8.16504L11.3232 13.043L9.8291 11.1357C9.66211 10.9072 9.43359 10.7842 9.16113 10.7842C8.73047 10.7842 8.37891 11.127 8.37891 11.5664C8.37891 11.7686 8.44922 11.9619 8.59863 12.1465L10.5674 14.5811C10.7871 14.8711 11.042 15.0029 11.3584 15.0029Z" fill="#1C1C1E"/>
</g>
<defs>
<clipPath id="clip0_10_1000">
<rect width="24" height="24" fill="white"/>
</clipPath>
</defs>
</svg>
