<svg width="24" height="24" viewBox="0 0 24 24" fill="none" xmlns="http://www.w3.org/2000/svg">
<g clip-path="url(#clip0_10_975)">
<path d="M0.266602 11.6631C0.266602 14.625 1.37402 17.3408 3.30762 19.3711C3.65039 19.7402 4.14258 19.7139 4.43262 19.3887C4.72266 19.0811 4.66113 18.624 4.33594 18.2725C2.6748 16.5322 1.76953 14.2031 1.76953 11.6631C1.76953 9.12305 2.6748 6.79395 4.33594 5.05371C4.66113 4.70215 4.72266 4.24512 4.43262 3.92871C4.14258 3.6123 3.65039 3.58594 3.30762 3.95508C1.37402 5.97656 0.266602 8.70117 0.266602 11.6631ZM23.7246 11.6631C23.7246 8.70117 22.6172 5.97656 20.6836 3.95508C20.332 3.58594 19.8398 3.6123 19.5498 3.92871C19.2686 4.24512 19.3213 4.70215 19.6553 5.05371C21.3164 6.79395 22.2217 9.12305 22.2217 11.6631C22.2217 14.2031 21.3164 16.5322 19.6553 18.2725C19.3213 18.624 19.2686 19.0811 19.5498 19.3887C19.8398 19.7139 20.332 19.7402 20.6836 19.3711C22.6172 17.3408 23.7246 14.625 23.7246 11.6631ZM3.46582 11.6631C3.46582 13.7725 4.22168 15.7324 5.5752 17.2002C5.92676 17.5869 6.43652 17.5869 6.73535 17.2441C7.03418 16.9102 6.95508 16.4883 6.62109 16.1191C5.54883 14.915 4.96875 13.3594 4.96875 11.6631C4.96875 9.95801 5.54883 8.41113 6.62109 7.20703C6.95508 6.83789 7.03418 6.40723 6.73535 6.08203C6.43652 5.73047 5.92676 5.73926 5.5752 6.11719C4.22168 7.59375 3.46582 9.55371 3.46582 11.6631ZM20.5166 11.6631C20.5166 9.55371 19.7607 7.59375 18.416 6.11719C18.0645 5.73926 17.5459 5.73047 17.2471 6.08203C16.957 6.40723 17.0273 6.83789 17.3613 7.20703C18.4336 8.41113 19.0137 9.95801 19.0137 11.6631C19.0137 13.3594 18.4336 14.915 17.3613 16.1191C17.0273 16.4883 16.957 16.9102 17.2471 17.2441C17.5459 17.5869 18.0645 17.5869 18.416 17.2002C19.7607 15.7324 20.5166 13.7725 20.5166 11.6631ZM6.67383 11.6631C6.67383 12.8584 7.07812 13.9834 7.78125 14.8711C8.10645 15.2842 8.66016 15.293 8.96777 14.9414C9.25781 14.6162 9.15234 14.2207 8.8623 13.8164C8.41406 13.2275 8.16797 12.4805 8.16797 11.6631C8.16797 10.8457 8.41406 10.0986 8.8623 9.50977C9.15234 9.09668 9.25781 8.70117 8.96777 8.37598C8.66016 8.0332 8.10645 8.04199 7.78125 8.44629C7.07812 9.34277 6.67383 10.4678 6.67383 11.6631ZM17.3174 11.6631C17.3174 10.4678 16.9131 9.34277 16.2012 8.44629C15.8848 8.04199 15.3311 8.0332 15.0234 8.37598C14.7246 8.70117 14.8301 9.09668 15.1289 9.50977C15.5771 10.0986 15.8145 10.8457 15.8145 11.6631C15.8145 12.4805 15.5771 13.2275 15.1289 13.8164C14.8301 14.2207 14.7246 14.6162 15.0234 14.9414C15.3311 15.293 15.8848 15.2842 16.2012 14.8711C16.9131 13.9834 17.3174 12.8584 17.3174 11.6631ZM11.9912 13.8076C13.1514 13.8076 14.1357 12.832 14.1357 11.6543C14.1357 10.4766 13.1514 9.50977 11.9912 9.50977C10.8398 9.50977 9.84668 10.4766 9.84668 11.6543C9.84668 12.832 10.8398 13.8076 11.9912 13.8076Z" fill="#1C1C1E"/>
</g>
<defs>
<clipPath id="clip0_10_975">
<rect width="24" height="24" fill="white"/>
</clipPath>
</defs>
</svg>
