<svg width="24" height="24" viewBox="0 0 24 24" fill="none" xmlns="http://www.w3.org/2000/svg">
<g clip-path="url(#clip0_10_972)">
<path d="M14.4873 20.2324C14.7949 20.5752 15.3398 20.6191 15.709 20.2236C17.8359 17.9824 19.04 14.9678 19.04 11.6895C19.04 8.41113 17.8535 5.37891 15.709 3.15527C15.3398 2.75977 14.7949 2.79492 14.4873 3.1377C14.1797 3.48047 14.2324 3.95508 14.584 4.32422C16.4209 6.24023 17.4229 8.83301 17.4229 11.6895C17.4229 14.5371 16.4033 17.1211 14.584 19.0547C14.2324 19.4238 14.1797 19.8984 14.4873 20.2324ZM11.8594 17.7803C12.1758 18.1582 12.7295 18.1758 13.1338 17.7363C14.6016 16.1631 15.4102 14.0098 15.4102 11.6895C15.4102 9.36914 14.5928 7.18066 13.1338 5.64258C12.7295 5.20312 12.1758 5.2207 11.8594 5.59863C11.5518 5.9502 11.6484 6.39844 11.9912 6.78516C13.1602 8.05957 13.793 9.7998 13.793 11.6895C13.793 13.5791 13.1514 15.3018 11.9912 16.585C11.6484 16.9717 11.5518 17.4199 11.8594 17.7803ZM9.31055 15.2227C9.62695 15.6006 10.2158 15.6094 10.585 15.1699C11.3496 14.2471 11.7891 13.0078 11.7891 11.6895C11.7891 10.3623 11.3496 9.12305 10.585 8.20898C10.2158 7.76074 9.62695 7.77832 9.31055 8.15625C9.01172 8.50781 9.12598 8.92969 9.41602 9.33398C9.89941 9.95801 10.1719 10.8105 10.1719 11.6895C10.1719 12.5596 9.89941 13.4209 9.41602 14.0361C9.12598 14.4404 9.01172 14.8711 9.31055 15.2227ZM6.2959 12.9902C7.02539 12.9902 7.63184 12.3838 7.63184 11.6543C7.63184 10.916 7.03418 10.3184 6.2959 10.3184C5.56641 10.3184 4.95117 10.9424 4.95117 11.6719C4.95117 12.375 5.5752 12.9902 6.2959 12.9902Z" fill="#1C1C1E"/>
</g>
<defs>
<clipPath id="clip0_10_972">
<rect width="24" height="24" fill="white"/>
</clipPath>
</defs>
</svg>
