<svg width="24" height="24" viewBox="0 0 24 24" fill="none" xmlns="http://www.w3.org/2000/svg">
<g clip-path="url(#clip0_10_1004)">
<path d="M5.98828 8.10352H18.0029C18.8027 8.10352 19.5322 8.2793 20.1562 8.60449L18.2051 4.03418C17.6777 2.79492 16.6143 2.11816 15.1904 2.11816H8.80078C7.37695 2.11816 6.31348 2.79492 5.79492 4.03418L3.84375 8.60449C4.45898 8.2793 5.18848 8.10352 5.98828 8.10352ZM4.5293 20.7686H10.0225C10.3564 21.5332 11.1123 22.0693 11.9912 22.0693C12.8701 22.0693 13.626 21.5332 13.96 20.7686H19.4531C19.9189 20.7686 20.3057 20.3818 20.3057 19.9072C20.3057 19.4414 19.9189 19.0459 19.4531 19.0459H13.9424C13.7314 18.5625 13.3359 18.1758 12.8525 17.9648V15.7764H18.0029C19.9453 15.7764 21.2725 14.458 21.2725 12.5332C21.2725 10.5996 19.9453 9.27246 18.0029 9.27246H5.98828C4.0459 9.27246 2.71875 10.5996 2.71875 12.5332C2.71875 14.458 4.0459 15.7764 5.98828 15.7764H11.1299V17.9561C10.6465 18.1758 10.251 18.5625 10.0312 19.0459H4.5293C4.06348 19.0459 3.66797 19.4414 3.66797 19.9072C3.66797 20.3818 4.06348 20.7686 4.5293 20.7686ZM16.8867 12.5332C16.8867 11.9619 17.3789 11.4697 17.9502 11.4697C18.5215 11.4697 19.0137 11.9619 19.0137 12.5332C19.0137 13.1221 18.5215 13.5791 17.9502 13.5879C17.3789 13.5879 16.8867 13.1221 16.8867 12.5332Z" fill="#1C1C1E"/>
</g>
<defs>
<clipPath id="clip0_10_1004">
<rect width="24" height="24" fill="white"/>
</clipPath>
</defs>
</svg>
