<svg width="24" height="24" viewBox="0 0 24 24" fill="none" xmlns="http://www.w3.org/2000/svg">
<g clip-path="url(#clip0_10_1007)">
<path d="M4.40625 20.7686H9.89941C10.2246 21.5332 10.9893 22.0693 11.8682 22.0693C12.7383 22.0693 13.5029 21.5332 13.8369 20.7686H19.3213C19.7959 20.7686 20.1826 20.3818 20.1826 19.9072C20.1826 19.4414 19.7959 19.0459 19.3213 19.0459H13.8193C13.5996 18.5625 13.2129 18.1758 12.7295 17.9648V15.9785H17.6162C19.9189 15.9785 21.5889 14.3789 21.5889 12.1729C21.5889 11.54 21.4131 10.9512 21.1758 10.3975L18.4775 4.06055C17.9062 2.7334 16.79 2.02148 15.2695 2.02148H8.72168C7.20996 2.02148 6.08496 2.7334 5.51367 4.06055L2.82422 10.3623C2.5957 10.916 2.40234 11.5137 2.40234 12.1729C2.40234 14.3789 4.06348 15.9785 6.375 15.9785H11.0068V17.9561C10.5234 18.1758 10.1279 18.5625 9.9082 19.0459H4.40625C3.93164 19.0459 3.54492 19.4414 3.54492 19.9072C3.54492 20.3818 3.93164 20.7686 4.40625 20.7686ZM5.54004 8.4375L7.14844 4.49121C7.40332 3.8584 7.95703 3.52441 8.74805 3.52441H15.252C16.043 3.52441 16.5967 3.8584 16.8516 4.49121L18.4512 8.4375C18.1875 8.38477 17.8799 8.36719 17.5283 8.36719H6.46289C6.11133 8.36719 5.80371 8.38477 5.54004 8.4375ZM4.11621 12.1729C4.11621 10.9424 5.03906 10.0811 6.375 10.0811H17.6162C18.9521 10.0811 19.875 10.9424 19.875 12.1729C19.875 13.4736 19.0225 14.2646 17.6162 14.2646H6.375C5.03906 14.2646 4.11621 13.4033 4.11621 12.1729ZM16.4912 12.1729C16.4912 12.7705 16.9746 13.2539 17.5723 13.2451C18.1611 13.2451 18.6445 12.7617 18.6445 12.1729C18.6445 11.6016 18.1436 11.1006 17.5723 11.1006C16.9834 11.1006 16.4912 11.6016 16.4912 12.1729Z" fill="#1C1C1E"/>
</g>
<defs>
<clipPath id="clip0_10_1007">
<rect width="24" height="24" fill="white"/>
</clipPath>
</defs>
</svg>
