<svg width="24" height="24" viewBox="0 0 24 24" fill="none" xmlns="http://www.w3.org/2000/svg">
<g clip-path="url(#clip0_10_969)">
<path d="M14.6631 15.4424V17.2002H18.7852C21.5449 17.2002 23.2324 15.5654 23.2324 13.333C23.2324 11.4697 22.1689 9.9668 20.4199 9.27246C20.4287 5.2998 17.5635 2.43457 13.8809 2.43457C11.543 2.43457 9.78516 3.63867 8.68652 5.22949C6.58594 4.71094 4.10742 6.30176 4.01953 8.78027C2.00684 9.12305 0.767578 10.793 0.767578 12.9199C0.767578 15.2842 2.56934 17.2002 5.49609 17.2002H9.30176V15.4424H5.49609C3.58008 15.4424 2.54297 14.2998 2.54297 12.8848C2.54297 11.2412 3.62402 10.0898 5.41699 10.0898C5.54883 10.0898 5.60156 10.0195 5.59277 9.89648C5.54004 7.27734 7.41211 6.43359 9.30176 6.9873C9.41602 7.01367 9.48633 6.99609 9.53906 6.89941C10.3828 5.36133 11.6924 4.18359 13.8721 4.18359C16.6318 4.18359 18.6006 6.37207 18.7324 8.92969C18.7588 9.39551 18.7236 9.91406 18.6885 10.3359C18.6709 10.459 18.7236 10.5293 18.8379 10.5469C20.4463 10.8545 21.457 11.7861 21.457 13.2539C21.457 14.5371 20.5605 15.4424 18.75 15.4424H14.6631ZM11.9824 22.5791C12.2021 22.5791 12.3867 22.5 12.6064 22.2979L15.5596 19.5205C15.7178 19.3799 15.7969 19.2129 15.7969 19.002C15.7969 18.5889 15.4629 18.29 15.0586 18.29C14.8564 18.29 14.6543 18.3779 14.5049 18.5361L13.2832 19.7666L12.7207 20.417L12.8086 19.1162V11.5752C12.8086 11.1445 12.4395 10.7666 11.9824 10.7666C11.5342 10.7666 11.1562 11.1445 11.1562 11.5752V19.1162L11.2529 20.417L10.6816 19.7666L9.45996 18.5361C9.31055 18.3779 9.1084 18.29 8.90625 18.29C8.50195 18.29 8.17676 18.5889 8.17676 19.002C8.17676 19.2129 8.24707 19.3799 8.40527 19.5205L11.3584 22.2979C11.5781 22.5 11.7715 22.5791 11.9824 22.5791Z" fill="#1C1C1E"/>
</g>
<defs>
<clipPath id="clip0_10_969">
<rect width="24" height="24" fill="white"/>
</clipPath>
</defs>
</svg>
