<svg width="24" height="24" viewBox="0 0 24 24" fill="none" xmlns="http://www.w3.org/2000/svg">
<g clip-path="url(#clip0_10_990)">
<path d="M19.5674 18.4658C21.7207 17.9736 23.2324 16.2334 23.2324 14.1328C23.2324 12.2607 22.1689 10.6084 20.4199 9.87891C20.4287 5.89746 17.5635 3.03223 13.8809 3.03223C11.543 3.03223 9.78516 4.23633 8.68652 5.83594C8.11523 5.69531 7.50879 5.7041 6.94629 5.85352L8.58105 7.48828C8.80957 7.47949 9.06445 7.51465 9.30176 7.58496C9.41602 7.62012 9.48633 7.59375 9.53906 7.49707C10.4092 5.96777 11.6924 4.78125 13.8721 4.78125C16.6318 4.78125 18.6006 6.96973 18.7324 9.53613C18.7588 10.002 18.7236 10.5117 18.6885 10.9424C18.6709 11.0654 18.7236 11.127 18.8379 11.1533C20.4287 11.4609 21.457 12.5859 21.457 14.1328C21.457 15.6709 20.0947 16.9102 18.3281 16.9102H18.0117L19.5674 18.4658ZM18.3369 20.7773C18.6182 21.0498 19.0576 21.0498 19.3301 20.7773C19.6025 20.5049 19.6025 20.0654 19.3301 19.7842L4.52051 4.9834C4.23926 4.70215 3.78223 4.71973 3.51855 4.9834C3.25488 5.24707 3.26367 5.72168 3.51855 5.97656L18.3369 20.7773ZM6.18164 18.6592H14.6631L12.8965 16.9014H6.19043C4.09863 16.9014 2.54297 15.4424 2.54297 13.7461C2.54297 11.9883 3.62402 10.6875 5.41699 10.6875C5.54883 10.6875 5.60156 10.6172 5.59277 10.4941C5.59277 10.2041 5.62793 9.94922 5.69824 9.7207L4.25684 8.27051C4.11621 8.60449 4.03711 8.98242 4.01953 9.37793C2.00684 9.73828 0.767578 11.5488 0.767578 13.7461C0.767578 16.418 3.10547 18.6592 6.18164 18.6592Z" fill="#1C1C1E"/>
</g>
<defs>
<clipPath id="clip0_10_990">
<rect width="24" height="24" fill="white"/>
</clipPath>
</defs>
</svg>
