<svg width="24" height="24" viewBox="0 0 24 24" fill="none" xmlns="http://www.w3.org/2000/svg">
<g clip-path="url(#clip0_10_1002)">
<path d="M11.9912 20.7598C16.9746 20.7598 21.0879 16.6465 21.0879 11.6631C21.0879 6.68848 16.9658 2.5752 11.9824 2.5752C7.00781 2.5752 2.90332 6.68848 2.90332 11.6631C2.90332 16.6465 7.0166 20.7598 11.9912 20.7598ZM8.74805 15.0117C7.42969 15.0117 6.44531 14.1855 6.44531 12.7266C6.44531 11.6982 7.05176 10.8809 7.9043 10.5381C8.03613 9.6416 8.77441 8.99121 9.66211 8.95605C9.80273 8.93848 9.96973 8.93848 10.1279 8.96484C10.7256 8.14746 11.71 7.62891 12.7998 7.62891C14.6455 7.62891 16.0869 9.0791 16.1396 10.8633C16.1484 10.9688 16.1484 11.083 16.1484 11.2061C16.9395 11.417 17.5459 12.1465 17.5459 13.0693C17.5459 14.1504 16.7021 15.0117 15.6123 15.0117H8.74805Z" fill="#1C1C1E"/>
</g>
<defs>
<clipPath id="clip0_10_1002">
<rect width="24" height="24" fill="white"/>
</clipPath>
</defs>
</svg>
