<svg width="24" height="24" viewBox="0 0 24 24" fill="none" xmlns="http://www.w3.org/2000/svg">
<g clip-path="url(#clip0_10_997)">
<path d="M11.9912 20.7422C16.9746 20.7422 21.0879 16.6289 21.0879 11.6543C21.0879 6.67969 16.9658 2.56641 11.9824 2.56641C7.00781 2.56641 2.90332 6.67969 2.90332 11.6543C2.90332 16.6289 7.0166 20.7422 11.9912 20.7422ZM11.9912 18.9316C7.95703 18.9316 4.73145 15.6885 4.73145 11.6543C4.73145 7.62012 7.95703 4.38574 11.9824 4.38574C16.0166 4.38574 19.2598 7.62012 19.2686 11.6543C19.2773 15.6885 16.0254 18.9316 11.9912 18.9316ZM8.87109 14.8623H15.4805C16.5176 14.8623 17.335 14.0361 17.335 12.9902C17.335 12.1113 16.7461 11.4082 15.9902 11.1973C15.9902 11.0918 15.9902 10.9863 15.9814 10.8809C15.9375 9.1582 14.5488 7.76953 12.7646 7.76953C11.7188 7.76953 10.7783 8.27051 10.1982 9.05273C10.0488 9.02637 9.88184 9.02637 9.75 9.03516C8.89746 9.0791 8.19434 9.70312 8.0625 10.5645C7.24512 10.8984 6.65625 11.6807 6.65625 12.665C6.65625 14.0713 7.61426 14.8623 8.87109 14.8623Z" fill="#1C1C1E"/>
</g>
<defs>
<clipPath id="clip0_10_997">
<rect width="24" height="24" fill="white"/>
</clipPath>
</defs>
</svg>
