<svg width="24" height="24" viewBox="0 0 24 24" fill="none" xmlns="http://www.w3.org/2000/svg">
<g clip-path="url(#clip0_10_965)">
<path d="M14.6631 15.4424V17.2002H18.7852C21.5449 17.2002 23.2324 15.5654 23.2324 13.333C23.2324 11.4697 22.1689 9.9668 20.4199 9.27246C20.4287 5.2998 17.5635 2.43457 13.8809 2.43457C11.543 2.43457 9.78516 3.63867 8.68652 5.22949C6.58594 4.71094 4.10742 6.30176 4.01953 8.78027C2.00684 9.12305 0.767578 10.793 0.767578 12.9199C0.767578 15.2842 2.56934 17.2002 5.49609 17.2002H9.30176V15.4424H5.49609C3.58008 15.4424 2.54297 14.2998 2.54297 12.8848C2.54297 11.2412 3.62402 10.0898 5.41699 10.0898C5.54883 10.0898 5.60156 10.0195 5.59277 9.89648C5.54004 7.27734 7.41211 6.43359 9.30176 6.9873C9.41602 7.01367 9.48633 6.99609 9.53906 6.89941C10.3828 5.36133 11.6924 4.18359 13.8721 4.18359C16.6318 4.18359 18.6006 6.37207 18.7324 8.92969C18.7588 9.39551 18.7236 9.91406 18.6885 10.3359C18.6709 10.459 18.7236 10.5293 18.8379 10.5469C20.4463 10.8545 21.457 11.7861 21.457 13.2539C21.457 14.5371 20.5605 15.4424 18.75 15.4424H14.6631ZM11.9824 21.5947C12.4395 21.5947 12.8086 21.2256 12.8086 20.7861V12.6914L12.7207 11.127L13.2832 11.7773L14.5049 13.0078C14.6543 13.166 14.8564 13.2539 15.0586 13.2539C15.4629 13.2539 15.7969 12.9551 15.7969 12.542C15.7969 12.3311 15.7178 12.1641 15.5596 12.0234L12.6064 9.24609C12.3867 9.04395 12.2021 8.96484 11.9824 8.96484C11.7715 8.96484 11.5781 9.04395 11.3584 9.24609L8.40527 12.0234C8.24707 12.1641 8.17676 12.3311 8.17676 12.542C8.17676 12.9551 8.50195 13.2539 8.90625 13.2539C9.1084 13.2539 9.31055 13.166 9.45996 13.0078L10.6816 11.7773L11.2529 11.127L11.1562 12.6914V20.7861C11.1562 21.2256 11.5342 21.5947 11.9824 21.5947Z" fill="#1C1C1E"/>
</g>
<defs>
<clipPath id="clip0_10_965">
<rect width="24" height="24" fill="white"/>
</clipPath>
</defs>
</svg>
