<svg width="24" height="24" viewBox="0 0 24 24" fill="none" xmlns="http://www.w3.org/2000/svg">
<g clip-path="url(#clip0_10_967)">
<path d="M5.63672 17.2002H10.9453V11.8213C10.9453 11.25 11.4287 10.7842 12 10.7842C12.5713 10.7842 13.0459 11.25 13.0459 11.8213V17.2002H18.8643C21.4658 17.2002 23.2324 15.6006 23.2324 13.4033C23.2324 11.584 22.1689 9.98438 20.4199 9.27246C20.4287 5.2998 17.5635 2.43457 13.8809 2.43457C11.543 2.43457 9.78516 3.63867 8.68652 5.22949C6.58594 4.71094 4.10742 6.30176 4.01953 8.78027C2.00684 9.13184 0.767578 10.9072 0.767578 12.9902C0.767578 15.3193 2.70996 17.2002 5.63672 17.2002ZM12 22.5791C12.2109 22.5791 12.4131 22.5088 12.624 22.2979L15.5771 19.4502C15.7266 19.3008 15.8057 19.1426 15.8057 18.9316C15.8057 18.5186 15.4717 18.2197 15.0674 18.2197C14.8652 18.2197 14.6631 18.3076 14.5225 18.4658L13.3008 19.7666L12.7295 20.417L12.8174 19.1162V17.0859C12.8174 16.6465 12.4482 16.2773 12 16.2773C11.543 16.2773 11.1738 16.6465 11.1738 17.0859V19.1162L11.2617 20.417L10.6992 19.7666L9.46875 18.4658C9.32812 18.3076 9.11719 18.2197 8.91504 18.2197C8.51074 18.2197 8.18555 18.5186 8.18555 18.9316C8.18555 19.1426 8.27344 19.3008 8.42285 19.4502L11.376 22.2979C11.5869 22.5088 11.7803 22.5791 12 22.5791Z" fill="#1C1C1E"/>
</g>
<defs>
<clipPath id="clip0_10_967">
<rect width="24" height="24" fill="white"/>
</clipPath>
</defs>
</svg>
