<svg width="24" height="24" viewBox="0 0 24 24" fill="none" xmlns="http://www.w3.org/2000/svg">
<g clip-path="url(#clip0_10_998)">
<path d="M19.5674 18.4658C21.7207 17.9736 23.2324 16.2334 23.2324 14.1328C23.2324 12.2607 22.1689 10.5996 20.4199 9.87012C20.4287 5.89746 17.5635 3.03223 13.8809 3.03223C11.543 3.03223 9.78516 4.23633 8.68652 5.83594C8.12402 5.67773 7.50879 5.67773 6.9375 5.83594L19.5674 18.4658ZM18.3369 20.7773C18.6182 21.0498 19.0576 21.0498 19.3301 20.7773C19.5938 20.5049 19.6025 20.0566 19.3301 19.7842L4.52051 4.9834C4.23926 4.70215 3.78223 4.71973 3.51855 4.9834C3.25488 5.24707 3.26367 5.71289 3.51855 5.96777L18.3369 20.7773ZM6.18164 18.6592H14.6631L4.24805 8.27051C4.11621 8.60449 4.03711 8.97363 4.01953 9.37793C2.00684 9.73828 0.767578 11.54 0.767578 13.7461C0.767578 16.418 3.10547 18.6592 6.18164 18.6592Z" fill="#1C1C1E"/>
</g>
<defs>
<clipPath id="clip0_10_998">
<rect width="24" height="24" fill="white"/>
</clipPath>
</defs>
</svg>
