<svg width="24" height="24" viewBox="0 0 24 24" fill="none" xmlns="http://www.w3.org/2000/svg">
<g clip-path="url(#clip0_10_964)">
<path d="M5.63672 17.2002H11.1562V12.3135L11.2178 11.0566L10.708 11.6719L9.48633 12.9814C9.3457 13.1396 9.12598 13.2275 8.91504 13.2275C8.50195 13.2275 8.16797 12.9199 8.16797 12.498C8.16797 12.2783 8.25586 12.1113 8.40527 11.9619L11.3584 9.11426C11.5781 8.90332 11.7715 8.83301 12 8.83301C12.2197 8.83301 12.4219 8.90332 12.6328 9.11426L15.5859 11.9619C15.7441 12.1113 15.8232 12.2783 15.8232 12.498C15.8232 12.9199 15.4893 13.2275 15.0674 13.2275C14.8652 13.2275 14.6543 13.1396 14.5049 12.9814L13.2832 11.6719L12.7734 11.0566L12.8438 12.3135V17.2002H18.8643C21.4658 17.2002 23.2324 15.6006 23.2324 13.4033C23.2324 11.584 22.1689 9.98438 20.4199 9.27246C20.4287 5.2998 17.5635 2.43457 13.8809 2.43457C11.543 2.43457 9.78516 3.63867 8.68652 5.22949C6.58594 4.71094 4.10742 6.30176 4.01953 8.78027C2.00684 9.13184 0.767578 10.9072 0.767578 12.9902C0.767578 15.3193 2.70996 17.2002 5.63672 17.2002ZM12 21.7266C12.4482 21.7266 12.8174 21.3486 12.8174 20.918V16.8311C12.7998 17.2441 12.4482 17.6133 12 17.6133C11.543 17.6133 11.1914 17.2441 11.1738 16.8311V20.918C11.1738 21.3486 11.543 21.7266 12 21.7266Z" fill="#1C1C1E"/>
</g>
<defs>
<clipPath id="clip0_10_964">
<rect width="24" height="24" fill="white"/>
</clipPath>
</defs>
</svg>
