<svg width="24" height="24" viewBox="0 0 24 24" fill="none" xmlns="http://www.w3.org/2000/svg">
<g clip-path="url(#clip0_10_1006)">
<path d="M18.3281 18.6504C21.0703 18.6504 23.2324 16.6377 23.2324 14.124C23.2324 12.2607 22.1689 10.5996 20.4199 9.87012C20.4287 5.88867 17.5635 3.02344 13.8809 3.02344C11.543 3.02344 9.78516 4.23633 8.68652 5.82715C6.4541 5.22949 4.10742 6.89062 4.01953 9.36914C2.00684 9.72949 0.767578 11.54 0.767578 13.7373C0.767578 16.418 3.10547 18.6504 6.18164 18.6504H18.3281ZM7.06934 11.874C7.06934 10.3799 8.26465 9.17578 9.75 9.17578C10.8662 9.17578 11.8506 9.83496 12.2549 10.8633H16.2627C16.377 10.8633 16.4736 10.8984 16.5791 10.9951L17.2646 11.6982C17.3525 11.7949 17.3701 11.9619 17.2559 12.0762L15.9639 13.3682C15.8496 13.4912 15.6826 13.4824 15.5684 13.3682L14.8125 12.6123L13.7666 13.6758C13.6611 13.79 13.4941 13.7812 13.3711 13.6582L12.334 12.6387C11.8154 13.8691 10.875 14.5635 9.75 14.5635C8.27344 14.5635 7.06934 13.3594 7.06934 11.874ZM10.0137 11.8652C10.0137 11.417 9.65332 11.0566 9.19629 11.0566C8.74805 11.0566 8.37891 11.4082 8.37891 11.8652C8.37891 12.3135 8.74805 12.6826 9.19629 12.6826C9.65332 12.6826 10.0137 12.3135 10.0137 11.8652Z" fill="#1C1C1E"/>
</g>
<defs>
<clipPath id="clip0_10_1006">
<rect width="24" height="24" fill="white"/>
</clipPath>
</defs>
</svg>
