<svg width="24" height="24" viewBox="0 0 24 24" fill="none" xmlns="http://www.w3.org/2000/svg">
<g clip-path="url(#clip0_10_979)">
<path d="M18.3281 18.6592C21.0703 18.6592 23.2324 16.6465 23.2324 14.1328C23.2324 12.2607 22.1689 10.5996 20.4199 9.87012C20.4287 5.89746 17.5635 3.03223 13.8809 3.03223C11.543 3.03223 9.78516 4.23633 8.68652 5.83594C6.4541 5.23828 4.10742 6.89941 4.01953 9.37793C2.00684 9.73828 0.767578 11.54 0.767578 13.7461C0.767578 16.418 3.10547 18.6504 6.18164 18.6504L18.3281 18.6592ZM18.3281 16.9014H6.19043C4.09863 16.9014 2.54297 15.4424 2.54297 13.7461C2.54297 11.9883 3.62402 10.6875 5.41699 10.6875C5.54883 10.6875 5.60156 10.6172 5.59277 10.4941C5.54004 7.88379 7.41211 6.9873 9.30176 7.58496C9.41602 7.62012 9.48633 7.59375 9.53906 7.49707C10.4092 5.96777 11.6924 4.78125 13.8721 4.78125C16.6318 4.78125 18.6006 6.96973 18.7324 9.52734C18.7588 10.002 18.7236 10.5117 18.6885 10.9336C18.6709 11.0566 18.7236 11.127 18.8379 11.1445C20.4287 11.4521 21.457 12.5771 21.457 14.1328C21.457 15.6709 20.0947 16.9014 18.3281 16.9014ZM11.6924 12.9551L12.1934 12.4629C12.334 12.3047 12.3691 12.252 12.4482 12.1289C12.1406 12.1289 11.833 11.9883 11.5693 11.7334C10.998 11.1621 10.9893 10.3799 11.5693 9.7998L13.248 8.12109C13.8281 7.54102 14.6279 7.5498 15.1904 8.12109C15.7617 8.70117 15.7617 9.49219 15.1904 10.0635L14.5312 10.7139C14.6631 11.1182 14.6807 11.6016 14.4873 12.1025L15.8936 10.6875C16.8516 9.73828 16.8428 8.36719 15.8936 7.41797C14.9355 6.45996 13.5732 6.45117 12.6152 7.40918L10.8662 9.1582C9.9082 10.1162 9.91699 11.4785 10.875 12.4365C11.1475 12.7178 11.4639 12.876 11.6924 12.9551ZM8.48438 14.8184C9.43359 15.7852 10.7959 15.7764 11.7627 14.8184L13.5117 13.0781C14.4697 12.1289 14.4609 10.7666 13.5117 9.7998C13.2305 9.51855 12.9229 9.36035 12.6855 9.29004L12.1758 9.78223C12.0967 9.87012 11.9912 9.99316 11.877 10.1426C12.2109 10.0986 12.5273 10.2305 12.8086 10.5117C13.3711 11.0742 13.3887 11.8652 12.7998 12.4453L11.1211 14.124C10.5498 14.6953 9.75 14.6953 9.1875 14.124C8.61621 13.5439 8.60742 12.7529 9.1875 12.1816L9.84668 11.5225C9.71484 11.127 9.69727 10.6436 9.88184 10.1426L8.48438 11.54C7.52637 12.498 7.52637 13.8604 8.48438 14.8184Z" fill="#1C1C1E"/>
</g>
<defs>
<clipPath id="clip0_10_979">
<rect width="24" height="24" fill="white"/>
</clipPath>
</defs>
</svg>
