<svg width="24" height="24" viewBox="0 0 24 24" fill="none" xmlns="http://www.w3.org/2000/svg">
<g clip-path="url(#clip0_10_981)">
<path d="M18.3281 18.6504C21.0703 18.6504 23.2324 16.6377 23.2324 14.124C23.2324 12.2607 22.1689 10.5996 20.4199 9.87012C20.4287 5.88867 17.5635 3.02344 13.8809 3.02344C11.543 3.02344 9.78516 4.23633 8.68652 5.82715C6.4541 5.22949 4.10742 6.89062 4.01953 9.36914C2.00684 9.72949 0.767578 11.54 0.767578 13.7373C0.767578 16.418 3.10547 18.6504 6.18164 18.6504H18.3281ZM9.08203 14.7393V11.5664C9.08203 11.0039 9.30176 10.7139 9.75879 10.6699V9.75586C9.75879 8.25293 10.6641 7.24219 12 7.24219C13.3359 7.24219 14.2412 8.25293 14.2412 9.75586V10.6699C14.6982 10.7139 14.9268 11.0039 14.9268 11.5664V14.7393C14.9268 15.3633 14.6455 15.6445 14.0742 15.6445H9.93457C9.35449 15.6445 9.08203 15.3633 9.08203 14.7393ZM10.7344 10.6523H13.2744V9.66797C13.2744 8.77148 12.7646 8.18262 12 8.18262C11.2354 8.18262 10.7344 8.78027 10.7344 9.66797V10.6523Z" fill="#1C1C1E"/>
</g>
<defs>
<clipPath id="clip0_10_981">
<rect width="24" height="24" fill="white"/>
</clipPath>
</defs>
</svg>
