<svg width="24" height="24" viewBox="0 0 24 24" fill="none" xmlns="http://www.w3.org/2000/svg">
<g clip-path="url(#clip0_10_982)">
<path d="M18.3281 18.6592C21.0703 18.6592 23.2324 16.6465 23.2324 14.1328C23.2324 12.2607 22.1689 10.5996 20.4199 9.87012C20.4287 5.89746 17.5635 3.03223 13.8809 3.03223C11.543 3.03223 9.78516 4.23633 8.68652 5.83594C6.4541 5.23828 4.10742 6.89941 4.01953 9.37793C2.00684 9.73828 0.767578 11.54 0.767578 13.7461C0.767578 16.418 3.10547 18.6504 6.18164 18.6504L18.3281 18.6592ZM18.3281 16.9014H6.19043C4.09863 16.9014 2.54297 15.4424 2.54297 13.7461C2.54297 11.9883 3.62402 10.6875 5.41699 10.6875C5.54883 10.6875 5.60156 10.6172 5.59277 10.4941C5.54004 7.88379 7.41211 6.9873 9.30176 7.58496C9.41602 7.62012 9.48633 7.59375 9.53906 7.49707C10.4092 5.96777 11.6924 4.78125 13.8721 4.78125C16.6318 4.78125 18.6006 6.96973 18.7324 9.52734C18.7588 10.002 18.7236 10.5117 18.6885 10.9336C18.6709 11.0566 18.7236 11.127 18.8379 11.1445C20.4287 11.4521 21.457 12.5771 21.457 14.1328C21.457 15.6709 20.0947 16.9014 18.3281 16.9014ZM9.1875 14.6162C9.1875 15.2139 9.45117 15.4951 10.0137 15.4951H13.9951C14.5488 15.4951 14.8213 15.2139 14.8213 14.6162V11.5576C14.8213 11.0215 14.6016 10.7402 14.1533 10.6963V9.81738C14.1533 8.36719 13.2832 7.40039 12 7.40039C10.7168 7.40039 9.84668 8.36719 9.84668 9.81738V10.6963C9.40723 10.7402 9.1875 11.0215 9.1875 11.5576V14.6162ZM10.7783 10.6787V9.73828C10.7783 8.86816 11.2617 8.30566 12 8.30566C12.7383 8.30566 13.2305 8.86816 13.2305 9.73828V10.6787H10.7783Z" fill="#1C1C1E"/>
</g>
<defs>
<clipPath id="clip0_10_982">
<rect width="24" height="24" fill="white"/>
</clipPath>
</defs>
</svg>
