<svg width="24" height="24" viewBox="0 0 24 24" fill="none" xmlns="http://www.w3.org/2000/svg">
<g clip-path="url(#clip0_10_1001)">
<path d="M11.9912 20.7422C16.9746 20.7422 21.0879 16.6289 21.0879 11.6543C21.0879 6.67969 16.9658 2.56641 11.9824 2.56641C7.00781 2.56641 2.90332 6.67969 2.90332 11.6543C2.90332 16.6289 7.0166 20.7422 11.9912 20.7422ZM9.6709 9.86133C9.62695 9.52734 9.47754 9.22852 9.24902 9C9.99609 7.11914 11.1738 5.42285 12.7031 4.02539C12.7998 4.03418 12.9053 4.05176 13.0107 4.06055C11.9297 5.9502 11.2793 8.05078 11.1123 10.2305C10.6201 10.1426 10.1367 10.0195 9.6709 9.86133ZM5.66309 7.37402C6.86719 5.61621 8.77441 4.36816 10.9629 4.06055C9.74121 5.39648 8.77441 6.92578 8.12402 8.58691C7.86914 8.60449 7.64062 8.68359 7.44727 8.80664C6.80566 8.40234 6.20801 7.91895 5.66309 7.37402ZM14.8037 7.42676C14.7949 6.50391 14.9092 5.58105 15.1641 4.69336C16.79 5.44922 18.126 6.75879 18.8994 8.37598C18.0469 9.02637 17.0977 9.51855 16.0957 9.86133C15.832 9.54492 15.4453 9.34277 15.0146 9.33398C14.8828 8.70996 14.8125 8.07715 14.8037 7.42676ZM13.5996 7.42676C13.6084 8.24414 13.7051 9.05273 13.8896 9.82617C13.7578 9.97559 13.6523 10.1602 13.5996 10.3535C13.3711 10.3711 13.1514 10.3799 12.9229 10.3799C12.7207 10.3799 12.5098 10.3799 12.3076 10.3623C12.4482 8.49023 12.9668 6.67969 13.8369 5.05371C13.6699 5.81836 13.5908 6.61816 13.5996 7.42676ZM4.33594 11.6543C4.33594 10.5205 4.58203 9.44824 5.03906 8.47266C5.5752 8.98242 6.16406 9.43945 6.78809 9.82617C6.7793 9.89648 6.77051 9.95801 6.77051 10.0283C6.77051 10.5029 6.99902 10.9336 7.35938 11.1973C7.19238 12.0498 7.10449 12.9287 7.0957 13.8076C6.12012 13.333 5.19727 12.7266 4.34473 12.0059C4.33594 11.8916 4.33594 11.7686 4.33594 11.6543ZM19.6553 11.6543C19.6553 12.3486 19.5586 13.0254 19.3828 13.667C18.8906 13.9307 18.3896 14.1592 17.8799 14.3525C17.0889 13.623 16.4385 12.7793 15.9375 11.8477C16.166 11.6367 16.333 11.3555 16.3945 11.0303C17.4492 10.6875 18.4424 10.1953 19.3564 9.55371C19.5498 10.2217 19.6553 10.9248 19.6553 11.6543ZM8.2998 14.335C8.27344 13.3594 8.35254 12.3926 8.52832 11.4521C8.82715 11.3906 9.09961 11.2324 9.30176 11.0127C9.87305 11.1973 10.4619 11.3467 11.0684 11.4434C11.0771 12.5244 11.2002 13.5879 11.4287 14.625C11.2793 14.748 11.1562 14.8975 11.0684 15.0645C10.1279 14.9238 9.19629 14.6777 8.2998 14.335ZM12.9229 11.584C13.2041 11.584 13.4854 11.5752 13.7666 11.5488C13.9863 11.8916 14.3467 12.1289 14.7598 12.1992C15.2432 13.1396 15.8584 14.001 16.5967 14.7656C15.6475 15.0205 14.6719 15.1699 13.6963 15.2139C13.5117 14.748 13.0986 14.4053 12.6064 14.3262C12.4043 13.4297 12.29 12.5068 12.2812 11.5664C12.4922 11.584 12.7119 11.584 12.9229 11.584ZM4.63477 13.7549C5.41699 14.3086 6.26074 14.7744 7.12207 15.1611C7.1748 16.0752 7.31543 16.9805 7.55273 17.8682C6.16406 16.875 5.11816 15.4248 4.63477 13.7549ZM11.9912 19.3184C10.9717 19.3184 9.99609 19.1074 9.09961 18.7383C8.72168 17.7451 8.47559 16.708 8.37012 15.6445C9.22266 15.9346 10.1016 16.1455 10.9805 16.2686C11.1826 16.8047 11.6836 17.1826 12.2812 17.209C12.5713 17.8945 12.9229 18.5625 13.3271 19.1953C12.8965 19.2744 12.4482 19.3184 11.9912 19.3184ZM13.4062 16.7607C13.5029 16.6641 13.582 16.541 13.6436 16.418C14.9971 16.3652 16.333 16.1367 17.6338 15.7148C17.8184 15.8643 18.0029 15.9961 18.1875 16.1279C17.2822 17.376 16.0166 18.3428 14.5488 18.8701C14.1006 18.2021 13.7227 17.499 13.4062 16.7607Z" fill="#1C1C1E"/>
</g>
<defs>
<clipPath id="clip0_10_1001">
<rect width="24" height="24" fill="white"/>
</clipPath>
</defs>
</svg>
