<svg width="24" height="24" viewBox="0 0 24 24" fill="none" xmlns="http://www.w3.org/2000/svg">
<g clip-path="url(#clip0_10_983)">
<path d="M18.3281 18.6504C21.0703 18.6504 23.2324 16.6377 23.2324 14.124C23.2324 12.2607 22.1689 10.5996 20.4199 9.87012C20.4287 5.88867 17.5635 3.02344 13.8809 3.02344C11.543 3.02344 9.78516 4.23633 8.68652 5.82715C6.4541 5.22949 4.10742 6.89062 4.01953 9.36914C2.00684 9.72949 0.767578 11.54 0.767578 13.7373C0.767578 16.418 3.10547 18.6504 6.18164 18.6504H18.3281ZM12.5537 12.8936C11.2529 12.8848 10.2158 11.7246 10.207 10.3359C10.207 8.96484 11.2529 7.83105 12.5537 7.83105C13.8457 7.83105 14.8916 8.96484 14.8916 10.3359C14.8916 11.7246 13.8457 12.9111 12.5537 12.8936ZM7.64941 16.8311C8.33496 15.416 10.0225 13.9395 12.5537 13.9395C15.0762 13.9395 16.7637 15.416 17.4492 16.8311H7.64941Z" fill="#1C1C1E"/>
</g>
<defs>
<clipPath id="clip0_10_983">
<rect width="24" height="24" fill="white"/>
</clipPath>
</defs>
</svg>
