<svg width="24" height="24" viewBox="0 0 24 24" fill="none" xmlns="http://www.w3.org/2000/svg">
<g clip-path="url(#clip0_10_961)">
<path d="M11.9912 20.7598C16.9746 20.7598 21.0879 16.6465 21.0879 11.6631C21.0879 6.68848 16.9658 2.5752 11.9824 2.5752C7.00781 2.5752 2.90332 6.68848 2.90332 11.6631C2.90332 16.6465 7.0166 20.7598 11.9912 20.7598ZM8.15918 11.6631C8.15918 9.65918 8.74805 7.69922 9.81152 6.1084C10.04 5.75684 10.4707 5.66895 10.8047 5.89746C11.1475 6.12598 11.209 6.55664 10.9805 6.91699C10.0576 8.24414 9.56543 9.92285 9.56543 11.6631C9.56543 13.3945 10.0664 15.0908 10.9805 16.418C11.209 16.7783 11.1475 17.209 10.8047 17.4375C10.4795 17.6572 10.0488 17.5693 9.81152 17.2178C8.74805 15.6445 8.15918 13.6846 8.15918 11.6631ZM10.9805 11.6631C10.9805 10.1689 11.4111 8.74512 12.2021 7.6377C12.4395 7.30371 12.8438 7.21582 13.1777 7.44434C13.5117 7.65527 13.5908 8.10352 13.3447 8.48145C12.7471 9.34277 12.3955 10.4854 12.3955 11.6631C12.3955 12.8496 12.7471 13.9922 13.3447 14.8535C13.5908 15.2314 13.5117 15.6797 13.1777 15.8906C12.8438 16.1191 12.4395 16.0225 12.2021 15.6885C11.4111 14.5723 10.9805 13.1396 10.9805 11.6631ZM13.8105 11.6631C13.8105 10.7578 14.0918 9.83496 14.5752 9.1582C14.7949 8.85059 15.2168 8.7627 15.542 8.97363C15.9023 9.21094 15.9727 9.65918 15.7002 10.0459C15.4014 10.459 15.2256 11.0479 15.2256 11.6631C15.2256 12.2695 15.4014 12.8672 15.7002 13.2891C15.9639 13.6758 15.8936 14.1152 15.542 14.3525C15.2168 14.5635 14.7861 14.4844 14.5752 14.168C14.0918 13.5264 13.8105 12.6035 13.8105 11.6631Z" fill="#1C1C1E"/>
</g>
<defs>
<clipPath id="clip0_10_961">
<rect width="24" height="24" fill="white"/>
</clipPath>
</defs>
</svg>
