<svg width="24" height="24" viewBox="0 0 24 24" fill="none" xmlns="http://www.w3.org/2000/svg">
<g clip-path="url(#clip0_10_953)">
<path d="M11.9912 20.7422C16.9746 20.7422 21.0879 16.6289 21.0879 11.6543C21.0879 6.67969 16.9658 2.56641 11.9824 2.56641C7.00781 2.56641 2.90332 6.67969 2.90332 11.6543C2.90332 16.6289 7.0166 20.7422 11.9912 20.7422ZM11.9912 18.9316C7.95703 18.9316 4.73145 15.6885 4.73145 11.6543C4.73145 7.62012 7.95703 4.38574 11.9824 4.38574C16.0166 4.38574 19.2598 7.62012 19.2686 11.6543C19.2773 15.6885 16.0254 18.9316 11.9912 18.9316ZM15.709 11.6631C15.709 9.72949 15.1465 7.83984 14.1182 6.31055C13.8984 5.97656 13.4854 5.88867 13.1689 6.1084C12.8438 6.32812 12.7822 6.74121 13.0107 7.08398C13.8896 8.3584 14.373 9.97559 14.373 11.6631C14.373 13.333 13.8809 14.959 13.0107 16.2334C12.7822 16.585 12.8438 16.998 13.1689 17.2178C13.4854 17.4287 13.8896 17.332 14.1182 17.0068C15.1465 15.4951 15.709 13.6055 15.709 11.6631ZM12.9932 11.6631C12.9932 10.2217 12.5801 8.8418 11.8242 7.78711C11.6045 7.4707 11.209 7.38281 10.8926 7.60254C10.5762 7.80469 10.4971 8.22656 10.7344 8.58691C11.3145 9.41309 11.6484 10.5205 11.6484 11.6631C11.6484 12.8057 11.3145 13.9131 10.7344 14.7393C10.4971 15.0996 10.5762 15.5215 10.8926 15.7236C11.209 15.9346 11.6045 15.8555 11.8242 15.5391C12.5801 14.458 12.9932 13.0781 12.9932 11.6631ZM10.2773 11.6631C10.2773 10.7842 10.0049 9.89648 9.54785 9.24609C9.32812 8.95605 8.93262 8.87695 8.61621 9.07031C8.27344 9.29883 8.21191 9.7207 8.4668 10.0986C8.75684 10.4854 8.92383 11.0654 8.92383 11.6631C8.92383 12.2432 8.75684 12.8232 8.4668 13.2275C8.2207 13.5967 8.27344 14.0186 8.61621 14.2471C8.93262 14.4492 9.33691 14.3701 9.54785 14.0713C10.0049 13.4473 10.2773 12.5596 10.2773 11.6631Z" fill="#1C1C1E"/>
</g>
<defs>
<clipPath id="clip0_10_953">
<rect width="24" height="24" fill="white"/>
</clipPath>
</defs>
</svg>
