<svg width="24" height="24" viewBox="0 0 24 24" fill="none" xmlns="http://www.w3.org/2000/svg">
<g clip-path="url(#clip0_10_958)">
<path d="M11.9912 20.7422C16.9746 20.7422 21.0879 16.6289 21.0879 11.6543C21.0879 6.67969 16.9658 2.56641 11.9824 2.56641C7.00781 2.56641 2.90332 6.67969 2.90332 11.6543C2.90332 16.6289 7.0166 20.7422 11.9912 20.7422ZM11.9912 18.9316C7.95703 18.9316 4.73145 15.6885 4.73145 11.6543C4.73145 7.62012 7.95703 4.38574 11.9824 4.38574C16.0166 4.38574 19.2598 7.62012 19.2686 11.6543C19.2773 15.6885 16.0254 18.9316 11.9912 18.9316ZM8.30859 11.6631C8.30859 13.6055 8.87109 15.4951 9.89941 17.0068C10.1367 17.332 10.541 17.4287 10.8574 17.2178C11.1738 16.998 11.2441 16.585 11.0068 16.2334C10.1367 14.959 9.64453 13.333 9.64453 11.6631C9.64453 9.97559 10.1279 8.3584 11.0068 7.08398C11.2441 6.74121 11.1738 6.32812 10.8574 6.1084C10.5322 5.88867 10.1279 5.97656 9.89941 6.31055C8.87109 7.83984 8.30859 9.72949 8.30859 11.6631ZM11.0244 11.6631C11.0244 13.0781 11.4375 14.458 12.1934 15.5391C12.4219 15.8555 12.8174 15.9346 13.1338 15.7236C13.4502 15.5215 13.5205 15.0996 13.2832 14.7393C12.7031 13.9131 12.3779 12.8057 12.3779 11.6631C12.3779 10.5205 12.7031 9.41309 13.2832 8.58691C13.5205 8.22656 13.4502 7.80469 13.1338 7.60254C12.8174 7.38281 12.4219 7.4707 12.1934 7.78711C11.4375 8.8418 11.0244 10.2217 11.0244 11.6631ZM13.749 11.6631C13.749 12.5596 14.0127 13.4473 14.4785 14.0713C14.6895 14.3701 15.0938 14.4492 15.4014 14.2471C15.7441 14.0186 15.8057 13.5967 15.5508 13.2275C15.2695 12.8232 15.0938 12.2432 15.0938 11.6631C15.0938 11.0654 15.2695 10.4854 15.5508 10.0986C15.8057 9.7207 15.7529 9.29883 15.4014 9.07031C15.0938 8.87695 14.6982 8.95605 14.4785 9.24609C14.0127 9.89648 13.749 10.7842 13.749 11.6631Z" fill="#1C1C1E"/>
</g>
<defs>
<clipPath id="clip0_10_958">
<rect width="24" height="24" fill="white"/>
</clipPath>
</defs>
</svg>
