<svg width="24" height="24" viewBox="0 0 24 24" fill="none" xmlns="http://www.w3.org/2000/svg">
<g clip-path="url(#clip0_10_954)">
<path d="M16.4385 11.6631C16.4385 8.70117 15.3311 5.97656 13.3975 3.95508C13.0547 3.58594 12.5537 3.6123 12.2725 3.92871C11.9824 4.24512 12.0352 4.70215 12.3691 5.05371C14.0303 6.79395 14.9355 9.12305 14.9355 11.6631C14.9355 14.2031 14.0303 16.5322 12.3691 18.2725C12.0352 18.624 11.9824 19.0811 12.2725 19.3887C12.5537 19.7139 13.0547 19.7402 13.3975 19.3711C15.3311 17.3408 16.4385 14.625 16.4385 11.6631ZM13.2393 11.6631C13.2393 9.55371 12.4834 7.59375 11.1299 6.11719C10.7783 5.73926 10.2686 5.73047 9.96094 6.08203C9.6709 6.40723 9.75 6.83789 10.084 7.20703C11.1475 8.41113 11.7363 9.95801 11.7363 11.6631C11.7363 13.3594 11.1475 14.915 10.084 16.1191C9.75 16.4883 9.6709 16.9102 9.96094 17.2441C10.2686 17.5869 10.7783 17.5869 11.1299 17.2002C12.4834 15.7324 13.2393 13.7725 13.2393 11.6631ZM10.0312 11.6631C10.0312 10.4678 9.62695 9.34277 8.91504 8.44629C8.59863 8.04199 8.04492 8.0332 7.7373 8.37598C7.44727 8.70117 7.54395 9.09668 7.84277 9.50977C8.29102 10.0986 8.52832 10.8457 8.52832 11.6631C8.52832 12.4805 8.29102 13.2275 7.84277 13.8164C7.54395 14.2207 7.44727 14.6162 7.7373 14.9414C8.04492 15.293 8.59863 15.2842 8.91504 14.8711C9.62695 13.9834 10.0312 12.8584 10.0312 11.6631Z" fill="#1C1C1E"/>
</g>
<defs>
<clipPath id="clip0_10_954">
<rect width="24" height="24" fill="white"/>
</clipPath>
</defs>
</svg>
