<svg width="24" height="24" viewBox="0 0 24 24" fill="none" xmlns="http://www.w3.org/2000/svg">
<g clip-path="url(#clip0_10_978)">
<path d="M7.56152 11.6631C7.56152 14.625 8.66895 17.3408 10.6025 19.3711C10.9453 19.7402 11.4375 19.7139 11.7275 19.3887C12.0176 19.0811 11.9561 18.624 11.6309 18.2725C9.96973 16.5322 9.06445 14.2031 9.06445 11.6631C9.06445 9.12305 9.96973 6.79395 11.6309 5.05371C11.9561 4.70215 12.0176 4.24512 11.7275 3.92871C11.4375 3.6123 10.9453 3.58594 10.6025 3.95508C8.66895 5.97656 7.56152 8.70117 7.56152 11.6631ZM10.7607 11.6631C10.7607 13.7725 11.5166 15.7324 12.8701 17.2002C13.2217 17.5869 13.7314 17.5869 14.0303 17.2441C14.3291 16.9102 14.25 16.4883 13.916 16.1191C12.8438 14.915 12.2637 13.3594 12.2637 11.6631C12.2637 9.95801 12.8438 8.41113 13.916 7.20703C14.25 6.83789 14.3291 6.40723 14.0303 6.08203C13.7314 5.73047 13.2217 5.73926 12.8701 6.11719C11.5166 7.59375 10.7607 9.55371 10.7607 11.6631ZM13.9688 11.6631C13.9688 12.8584 14.373 13.9834 15.0762 14.8711C15.4014 15.2842 15.9551 15.293 16.2627 14.9414C16.5527 14.6162 16.4473 14.2207 16.1572 13.8164C15.709 13.2275 15.4629 12.4805 15.4629 11.6631C15.4629 10.8457 15.709 10.0986 16.1572 9.50977C16.4473 9.09668 16.5527 8.70117 16.2627 8.37598C15.9551 8.0332 15.4014 8.04199 15.0762 8.44629C14.373 9.34277 13.9688 10.4678 13.9688 11.6631Z" fill="#1C1C1E"/>
</g>
<defs>
<clipPath id="clip0_10_978">
<rect width="24" height="24" fill="white"/>
</clipPath>
</defs>
</svg>
