<svg width="24" height="24" viewBox="0 0 24 24" fill="none" xmlns="http://www.w3.org/2000/svg">
<g clip-path="url(#clip0_10_952)">
<path d="M11.9912 20.7598C16.9746 20.7598 21.0879 16.6465 21.0879 11.6631C21.0879 6.68848 16.9658 2.5752 11.9824 2.5752C7.00781 2.5752 2.90332 6.68848 2.90332 11.6631C2.90332 16.6465 7.0166 20.7598 11.9912 20.7598ZM15.8672 11.6631C15.8672 13.6846 15.2871 15.6445 14.2148 17.2178C13.9775 17.5693 13.5469 17.6572 13.2217 17.4375C12.8789 17.209 12.8174 16.7783 13.0459 16.418C13.96 15.0908 14.4609 13.3945 14.4609 11.6631C14.4609 9.92285 13.9688 8.24414 13.0459 6.91699C12.8174 6.55664 12.8789 6.12598 13.2217 5.89746C13.5557 5.66895 13.9863 5.75684 14.2148 6.1084C15.2871 7.69922 15.8672 9.65918 15.8672 11.6631ZM13.0459 11.6631C13.0459 13.1396 12.6152 14.5723 11.8242 15.6885C11.5957 16.0225 11.1826 16.1191 10.8486 15.8906C10.5146 15.6797 10.4355 15.2314 10.6816 14.8535C11.2881 13.9922 11.6309 12.8496 11.6309 11.6631C11.6309 10.4854 11.2881 9.34277 10.6816 8.48145C10.4355 8.10352 10.5146 7.65527 10.8486 7.44434C11.1826 7.21582 11.5957 7.30371 11.8242 7.6377C12.6152 8.74512 13.0459 10.1689 13.0459 11.6631ZM10.2158 11.6631C10.2158 12.6035 9.93457 13.5264 9.45117 14.168C9.24023 14.4844 8.80957 14.5635 8.48438 14.3525C8.13281 14.1152 8.0625 13.6758 8.32617 13.2891C8.625 12.8672 8.80078 12.2695 8.80078 11.6631C8.80078 11.0479 8.625 10.459 8.32617 10.0459C8.05371 9.65918 8.12402 9.21094 8.48438 8.97363C8.80957 8.7627 9.23145 8.85059 9.45117 9.1582C9.93457 9.83496 10.2158 10.7578 10.2158 11.6631Z" fill="#1C1C1E"/>
</g>
<defs>
<clipPath id="clip0_10_952">
<rect width="24" height="24" fill="white"/>
</clipPath>
</defs>
</svg>
