<svg width="24" height="24" viewBox="0 0 24 24" fill="none" xmlns="http://www.w3.org/2000/svg">
<g clip-path="url(#clip0_10_962)">
<path d="M19.4092 18.2197C19.6904 18.4922 20.1387 18.4834 20.4023 18.2197C20.6748 17.9385 20.6748 17.499 20.4023 17.2354L4.58203 1.41504C4.30957 1.14258 3.86133 1.13379 3.58887 1.41504C3.31641 1.67871 3.3252 2.13574 3.58887 2.39941L19.4092 18.2197ZM11.7539 7.05762C11.8594 7.04004 11.9824 7.03125 12.0967 7.03125C15.3398 7.09277 18.0732 8.34082 20.2354 10.5557C20.4199 10.7402 20.7012 10.7314 20.8857 10.5381L22.1162 9.29883C22.3008 9.12305 22.292 8.89453 22.1514 8.72754C19.998 6.14355 16.0869 4.24512 12 4.24512C11.1035 4.24512 10.207 4.33301 9.24023 4.53516L11.7539 7.05762ZM5.4873 5.87109C4.02832 6.62695 2.77148 7.61133 1.83984 8.72754C1.69922 8.89453 1.69922 9.12305 1.875 9.29883L3.10547 10.5381C3.29883 10.7314 3.58887 10.7314 3.77344 10.5293C4.87207 9.36914 6.12012 8.49023 7.53516 7.91016L5.4873 5.87109ZM18.0732 13.3682L18.5918 12.8496C18.7676 12.6826 18.7764 12.4717 18.627 12.2959C17.7217 11.1797 16.1748 10.2217 14.5049 9.7998L18.0732 13.3682ZM9.44238 9.80859C7.74609 10.2744 6.30469 11.1797 5.36426 12.2959C5.21484 12.4717 5.23242 12.6914 5.39941 12.8496L6.7793 14.2031C6.99023 14.4053 7.27148 14.3877 7.47363 14.168C8.51953 13.0254 10.1543 12.2432 11.833 12.1992L9.44238 9.80859ZM12 14.5811C10.7432 14.5811 9.60938 15.2402 9.00293 16.0664C8.89746 16.2246 8.94141 16.418 9.09961 16.5674L11.2529 18.6416C11.6045 18.9844 11.7891 19.0811 12 19.0811C12.2197 19.0811 12.4043 18.9756 12.7559 18.6416L14.9092 16.5674C15.0674 16.418 15.1025 16.1719 14.9619 15.9961C14.3467 15.2139 13.2393 14.5811 12 14.5811Z" fill="#1C1C1E"/>
</g>
<defs>
<clipPath id="clip0_10_962">
<rect width="24" height="24" fill="white"/>
</clipPath>
</defs>
</svg>
