<svg width="24" height="24" viewBox="0 0 24 24" fill="none" xmlns="http://www.w3.org/2000/svg">
<g clip-path="url(#clip0_10_963)">
<path d="M3.10547 10.5557C3.29004 10.7578 3.58008 10.749 3.77344 10.5381C5.94434 8.24414 8.80078 7.03125 11.9912 7.03125C15.208 7.03125 18.0732 8.24414 20.2354 10.5557C20.4199 10.7402 20.7012 10.7314 20.8857 10.5381L22.1162 9.29883C22.292 9.12305 22.292 8.89453 22.1514 8.72754C20.0332 6.11719 16.0869 4.24512 11.9912 4.24512C7.9043 4.24512 3.94922 6.1084 1.83984 8.72754C1.69922 8.89453 1.69922 9.12305 1.86621 9.29883L3.10547 10.5557ZM6.7793 14.2119C6.99023 14.4141 7.27148 14.3965 7.47363 14.1768C8.5459 13.0078 10.2598 12.1816 12 12.1904C13.749 12.1816 15.4629 13.0254 16.5615 14.2031C16.7461 14.4141 17.0098 14.4053 17.2119 14.2031L18.5918 12.8496C18.7588 12.6914 18.7764 12.4717 18.627 12.2959C17.2559 10.6348 14.751 9.43945 12 9.43945C9.24023 9.43945 6.73535 10.6348 5.36426 12.2959C5.21484 12.4717 5.23242 12.6826 5.39941 12.8496L6.7793 14.2119ZM12 19.0811C12.2109 19.0811 12.3955 18.9844 12.7559 18.6416L14.9092 16.5674C15.0674 16.418 15.1025 16.1719 14.9619 15.9961C14.3467 15.2139 13.2305 14.5811 12 14.5811C10.7344 14.5811 9.60059 15.2402 8.99414 16.0664C8.88867 16.2246 8.94141 16.418 9.09082 16.5674L11.2441 18.6416C11.5957 18.9756 11.7891 19.0811 12 19.0811Z" fill="#1C1C1E"/>
</g>
<defs>
<clipPath id="clip0_10_963">
<rect width="24" height="24" fill="white"/>
</clipPath>
</defs>
</svg>
