<svg width="24" height="24" viewBox="0 0 24 24" fill="none" xmlns="http://www.w3.org/2000/svg">
<g clip-path="url(#clip0_10_960)">
<path d="M12.0088 14.6514C12.624 14.6514 13.002 14.2646 13.0195 13.623C13.0547 10.749 13.1162 7.24219 13.1338 4.46484C13.1338 3.82324 12.6504 3.35742 12 3.35742C11.3496 3.35742 10.8662 3.82324 10.8662 4.46484C10.8926 7.24219 10.9541 10.749 10.9893 13.623C11.0068 14.2646 11.3848 14.6514 12.0088 14.6514ZM9.53906 4.47363C6.39258 5.04492 3.54492 6.62695 1.83984 8.72754C1.69922 8.88574 1.69922 9.12305 1.86621 9.29883L3.10547 10.5557C3.29883 10.749 3.58008 10.749 3.77344 10.5381C5.38184 8.83301 7.37695 7.73438 9.5918 7.29492L9.53906 4.47363ZM14.4434 4.48242L14.3906 7.30371C16.6143 7.72559 18.5918 8.8418 20.2354 10.5557C20.4199 10.7402 20.6924 10.7314 20.8857 10.5381L22.1162 9.29883C22.292 9.12305 22.292 8.88574 22.1514 8.72754C20.4287 6.63574 17.6074 5.01855 14.4434 4.48242ZM14.373 9.75586L14.3203 12.7002C15.1992 13.0342 15.9727 13.5703 16.5615 14.2031C16.7461 14.4053 17.001 14.3965 17.2119 14.1943L18.5918 12.8496C18.7588 12.6914 18.7676 12.4629 18.627 12.2959C17.6602 11.1357 16.1396 10.1777 14.373 9.75586ZM9.62695 9.75586C7.86035 10.1953 6.34863 11.1182 5.36426 12.2959C5.21484 12.4629 5.22363 12.6826 5.39941 12.8496L6.78809 14.2119C6.99902 14.4141 7.27148 14.3965 7.47363 14.168C8.04492 13.5439 8.81836 13.0254 9.6709 12.6914L9.62695 9.75586ZM12 19.125C12.8438 19.125 13.5293 18.457 13.5293 17.6221C13.5293 16.7871 12.8438 16.1191 12 16.1191C11.1562 16.1191 10.4619 16.7871 10.4619 17.6221C10.4619 18.457 11.1562 19.125 12 19.125Z" fill="#1C1C1E"/>
</g>
<defs>
<clipPath id="clip0_10_960">
<rect width="24" height="24" fill="white"/>
</clipPath>
</defs>
</svg>
