<svg width="24" height="24" viewBox="0 0 24 24" fill="none" xmlns="http://www.w3.org/2000/svg">
<g clip-path="url(#clip0_10_2365)">
<path d="M6.67383 19.8809H17.3174C19.2246 19.8809 20.209 18.8965 20.209 17.0156V6.31934C20.209 4.43848 19.2246 3.4541 17.3174 3.4541H6.67383C4.77539 3.4541 3.78223 4.42969 3.78223 6.31934V17.0156C3.78223 18.8965 4.77539 19.8809 6.67383 19.8809ZM6.78809 18.1318C5.97949 18.1318 5.53125 17.71 5.53125 16.8574V6.47754C5.53125 5.625 5.97949 5.20312 6.78809 5.20312H17.2031C18.0029 5.20312 18.46 5.625 18.46 6.47754V16.8574C18.46 17.71 18.0029 18.1318 17.2031 18.1318H6.78809ZM11.9824 9.58008C12.6504 9.58008 13.1338 9.14062 13.1338 8.56055C13.1338 7.92773 12.6592 7.4707 11.9824 7.4707C11.3584 7.4707 10.8662 7.92773 10.8662 8.56934C10.8662 9.14062 11.3584 9.58008 11.9824 9.58008ZM8.64258 12.4629H15.3574C15.8672 12.4629 16.2188 12.1641 16.2188 11.6719C16.2188 11.1709 15.8848 10.8721 15.3574 10.8721H8.64258C8.12402 10.8721 7.78125 11.1709 7.78125 11.6719C7.78125 12.1641 8.13281 12.4629 8.64258 12.4629ZM11.9824 15.8467C12.6504 15.8467 13.1338 15.3984 13.1338 14.8271C13.1338 14.1855 12.6592 13.7461 11.9824 13.7461C11.3584 13.7461 10.8662 14.1943 10.8662 14.8271C10.8662 15.3984 11.3584 15.8467 11.9824 15.8467Z" fill="#1C1C1E"/>
</g>
<defs>
<clipPath id="clip0_10_2365">
<rect width="24" height="24" fill="white"/>
</clipPath>
</defs>
</svg>
