<svg width="24" height="24" viewBox="0 0 24 24" fill="none" xmlns="http://www.w3.org/2000/svg">
<g clip-path="url(#clip0_10_2364)">
<path d="M6.67383 19.8809H17.3174C19.2246 19.8809 20.209 18.8965 20.209 17.0156V6.31934C20.209 4.43848 19.2246 3.4541 17.3174 3.4541H6.67383C4.77539 3.4541 3.78223 4.42969 3.78223 6.31934V17.0156C3.78223 18.8965 4.77539 19.8809 6.67383 19.8809ZM12.0088 9.50977C11.3496 9.50977 10.8398 9.04395 10.8398 8.44629C10.8398 7.77832 11.3496 7.30371 12.0088 7.30371C12.7119 7.30371 13.2041 7.77832 13.2041 8.44629C13.2041 9.04395 12.7119 9.50977 12.0088 9.50977ZM8.53711 12.498C8.00098 12.498 7.63184 12.1904 7.63184 11.6719C7.63184 11.1533 7.9834 10.8369 8.53711 10.8369H15.5156C16.0605 10.8369 16.4121 11.1533 16.4121 11.6719C16.4121 12.1904 16.0518 12.498 15.5156 12.498H8.53711ZM12.0088 16.0225C11.3496 16.0225 10.8398 15.5566 10.8398 14.9502C10.8398 14.2822 11.3496 13.8164 12.0088 13.8164C12.7119 13.8164 13.2041 14.2822 13.2041 14.9502C13.2041 15.5566 12.7119 16.0225 12.0088 16.0225Z" fill="#1C1C1E"/>
</g>
<defs>
<clipPath id="clip0_10_2364">
<rect width="24" height="24" fill="white"/>
</clipPath>
</defs>
</svg>
