<svg width="24" height="24" viewBox="0 0 24 24" fill="none" xmlns="http://www.w3.org/2000/svg">
<g clip-path="url(#clip0_10_2366)">
<path d="M11.9912 20.7422C16.9746 20.7422 21.0879 16.6289 21.0879 11.6543C21.0879 6.67969 16.9658 2.56641 11.9824 2.56641C7.00781 2.56641 2.90332 6.67969 2.90332 11.6543C2.90332 16.6289 7.0166 20.7422 11.9912 20.7422ZM11.9736 9.50977C11.3145 9.50977 10.8047 9.04395 10.8047 8.44629C10.8047 7.77832 11.3145 7.30371 11.9736 7.30371C12.6768 7.30371 13.1689 7.77832 13.1689 8.44629C13.1689 9.04395 12.668 9.50977 11.9736 9.50977ZM8.50195 12.498C7.96582 12.498 7.59668 12.1904 7.59668 11.6719C7.59668 11.1533 7.94824 10.8369 8.50195 10.8369H15.4805C16.0254 10.8369 16.377 11.1533 16.377 11.6719C16.377 12.1904 16.0166 12.498 15.4805 12.498H8.50195ZM11.9736 16.0225C11.3145 16.0225 10.8047 15.5566 10.8047 14.9502C10.8047 14.2822 11.3145 13.8164 11.9736 13.8164C12.6768 13.8164 13.1689 14.2822 13.1689 14.9502C13.1689 15.5566 12.668 16.0225 11.9736 16.0225Z" fill="#1C1C1E"/>
</g>
<defs>
<clipPath id="clip0_10_2366">
<rect width="24" height="24" fill="white"/>
</clipPath>
</defs>
</svg>
