<svg width="24" height="24" viewBox="0 0 24 24" fill="none" xmlns="http://www.w3.org/2000/svg">
<g clip-path="url(#clip0_10_2367)">
<path d="M11.9912 20.7422C16.9746 20.7422 21.0879 16.6289 21.0879 11.6543C21.0879 6.67969 16.9658 2.56641 11.9824 2.56641C7.00781 2.56641 2.90332 6.67969 2.90332 11.6543C2.90332 16.6289 7.0166 20.7422 11.9912 20.7422ZM11.9912 18.9316C7.95703 18.9316 4.73145 15.6885 4.73145 11.6543C4.73145 7.62012 7.95703 4.38574 11.9824 4.38574C16.0166 4.38574 19.2598 7.62012 19.2686 11.6543C19.2773 15.6885 16.0254 18.9316 11.9912 18.9316ZM11.9736 9.58887C12.6416 9.58887 13.1162 9.14062 13.1162 8.56934C13.1162 7.93652 12.6416 7.47949 11.9736 7.47949C11.3408 7.47949 10.8486 7.93652 10.8486 8.56934C10.8486 9.14941 11.3408 9.58887 11.9736 9.58887ZM8.63379 12.4629H15.3486C15.8584 12.4629 16.2012 12.1729 16.2012 11.6807C16.2012 11.1797 15.8672 10.8809 15.3486 10.8809H8.63379C8.10645 10.8809 7.76367 11.1797 7.76367 11.6807C7.76367 12.1729 8.12402 12.4629 8.63379 12.4629ZM11.9736 15.8555C12.6416 15.8555 13.1162 15.4072 13.1162 14.8271C13.1162 14.1943 12.6416 13.7461 11.9736 13.7461C11.3408 13.7461 10.8486 14.1943 10.8486 14.8359C10.8486 15.4072 11.3408 15.8555 11.9736 15.8555Z" fill="#1C1C1E"/>
</g>
<defs>
<clipPath id="clip0_10_2367">
<rect width="24" height="24" fill="white"/>
</clipPath>
</defs>
</svg>
