<svg width="24" height="24" viewBox="0 0 24 24" fill="none" xmlns="http://www.w3.org/2000/svg">
<g clip-path="url(#clip0_10_2368)">
<path d="M12 7.96289C12.8086 7.96289 13.4678 7.33008 13.4678 6.52148C13.4678 5.7041 12.8086 5.0625 12 5.0625C11.1914 5.0625 10.541 5.7041 10.541 6.52148C10.541 7.33008 11.1914 7.96289 12 7.96289ZM5.63672 12.665H18.3633C18.8994 12.665 19.3564 12.2168 19.3564 11.6631C19.3564 11.1182 18.8994 10.6611 18.3633 10.6611H5.63672C5.11816 10.6611 4.64355 11.1182 4.64355 11.6631C4.64355 12.2168 5.11816 12.665 5.63672 12.665ZM12 18.3516C12.8086 18.3516 13.4678 17.7188 13.4678 16.9014C13.4678 16.0928 12.8086 15.4512 12 15.4512C11.1914 15.4512 10.541 16.0928 10.541 16.9014C10.541 17.7188 11.1914 18.3516 12 18.3516Z" fill="#1C1C1E"/>
</g>
<defs>
<clipPath id="clip0_10_2368">
<rect width="24" height="24" fill="white"/>
</clipPath>
</defs>
</svg>
