<svg width="24" height="24" viewBox="0 0 24 24" fill="none" xmlns="http://www.w3.org/2000/svg">
<g clip-path="url(#clip0_10_2359)">
<path d="M6.67383 19.8809H17.3174C19.2246 19.8809 20.209 18.8965 20.209 17.0156V6.31934C20.209 4.43848 19.2246 3.4541 17.3174 3.4541H6.67383C4.77539 3.4541 3.78223 4.42969 3.78223 6.31934V17.0156C3.78223 18.8965 4.77539 19.8809 6.67383 19.8809ZM6.78809 18.1318C5.97949 18.1318 5.53125 17.71 5.53125 16.8574V6.47754C5.53125 5.625 5.97949 5.20312 6.78809 5.20312H17.2031C18.0029 5.20312 18.46 5.625 18.46 6.47754V16.8574C18.46 17.71 18.0029 18.1318 17.2031 18.1318H6.78809ZM8.82715 10.793H15.1553C15.6738 10.793 16.0254 10.5293 16.0254 10.0459C16.0254 9.54492 15.6914 9.28125 15.1553 9.28125H8.82715C8.2998 9.28125 7.96582 9.54492 7.96582 10.0459C7.96582 10.5293 8.31738 10.793 8.82715 10.793ZM8.82715 14.0537H15.1553C15.6738 14.0537 16.0254 13.79 16.0254 13.3066C16.0254 12.8057 15.6914 12.5332 15.1553 12.5332H8.82715C8.2998 12.5332 7.96582 12.8057 7.96582 13.3066C7.96582 13.79 8.31738 14.0537 8.82715 14.0537Z" fill="#1C1C1E"/>
</g>
<defs>
<clipPath id="clip0_10_2359">
<rect width="24" height="24" fill="white"/>
</clipPath>
</defs>
</svg>
