<svg width="24" height="24" viewBox="0 0 24 24" fill="none" xmlns="http://www.w3.org/2000/svg">
<g clip-path="url(#clip0_10_2360)">
<path d="M11.9912 20.7422C16.9746 20.7422 21.0879 16.6289 21.0879 11.6543C21.0879 6.67969 16.9658 2.56641 11.9824 2.56641C7.00781 2.56641 2.90332 6.67969 2.90332 11.6543C2.90332 16.6289 7.0166 20.7422 11.9912 20.7422ZM8.7041 10.7666C8.15918 10.7666 7.78125 10.4854 7.78125 9.97559C7.78125 9.45703 8.1416 9.17578 8.7041 9.17578H15.2607C15.8145 9.17578 16.1748 9.45703 16.1748 9.97559C16.1748 10.4854 15.8057 10.7666 15.2607 10.7666H8.7041ZM8.7041 14.1592C8.15918 14.1592 7.78125 13.8867 7.78125 13.3682C7.78125 12.8496 8.1416 12.5684 8.7041 12.5684H15.2607C15.8145 12.5684 16.1748 12.8496 16.1748 13.3682C16.1748 13.8867 15.8057 14.1592 15.2607 14.1592H8.7041Z" fill="#1C1C1E"/>
</g>
<defs>
<clipPath id="clip0_10_2360">
<rect width="24" height="24" fill="white"/>
</clipPath>
</defs>
</svg>
