<svg width="24" height="24" viewBox="0 0 24 24" fill="none" xmlns="http://www.w3.org/2000/svg">
<g clip-path="url(#clip0_10_2358)">
<path d="M6.67383 19.8809H17.3174C19.2246 19.8809 20.209 18.8965 20.209 17.0156V6.31934C20.209 4.43848 19.2246 3.4541 17.3174 3.4541H6.67383C4.77539 3.4541 3.78223 4.42969 3.78223 6.31934V17.0156C3.78223 18.8965 4.77539 19.8809 6.67383 19.8809ZM8.73926 10.7666C8.19434 10.7666 7.81641 10.4854 7.81641 9.97559C7.81641 9.45703 8.17676 9.17578 8.73926 9.17578H15.2959C15.8496 9.17578 16.21 9.45703 16.21 9.97559C16.21 10.4854 15.8408 10.7666 15.2959 10.7666H8.73926ZM8.73926 14.1592C8.19434 14.1592 7.81641 13.8867 7.81641 13.3682C7.81641 12.8496 8.17676 12.5684 8.73926 12.5684H15.2959C15.8496 12.5684 16.21 12.8496 16.21 13.3682C16.21 13.8867 15.8408 14.1592 15.2959 14.1592H8.73926Z" fill="#1C1C1E"/>
</g>
<defs>
<clipPath id="clip0_10_2358">
<rect width="24" height="24" fill="white"/>
</clipPath>
</defs>
</svg>
