<svg width="24" height="24" viewBox="0 0 24 24" fill="none" xmlns="http://www.w3.org/2000/svg">
<g clip-path="url(#clip0_10_2363)">
<path d="M6.7002 9.78223H17.291C17.8184 9.78223 18.2842 9.3252 18.2842 8.78027C18.2842 8.22656 17.8184 7.77832 17.291 7.77832H6.7002C6.18164 7.77832 5.70703 8.22656 5.70703 8.78027C5.70703 9.3252 6.18164 9.78223 6.7002 9.78223ZM6.7002 15.5566H17.291C17.8184 15.5566 18.2842 15.0996 18.2842 14.5547C18.2842 14.0098 17.8184 13.5527 17.291 13.5527H6.7002C6.18164 13.5527 5.70703 14.0098 5.70703 14.5547C5.70703 15.0996 6.18164 15.5566 6.7002 15.5566Z" fill="#1C1C1E"/>
</g>
<defs>
<clipPath id="clip0_10_2363">
<rect width="24" height="24" fill="white"/>
</clipPath>
</defs>
</svg>
