<svg width="24" height="24" viewBox="0 0 24 24" fill="none" xmlns="http://www.w3.org/2000/svg">
<g clip-path="url(#clip0_10_2362)">
<path d="M11.9912 20.7422C16.9746 20.7422 21.0879 16.6289 21.0879 11.6543C21.0879 6.67969 16.9658 2.56641 11.9824 2.56641C7.00781 2.56641 2.90332 6.67969 2.90332 11.6543C2.90332 16.6289 7.0166 20.7422 11.9912 20.7422ZM11.9912 18.9316C7.95703 18.9316 4.73145 15.6885 4.73145 11.6543C4.73145 7.62012 7.95703 4.38574 11.9824 4.38574C16.0166 4.38574 19.2598 7.62012 19.2686 11.6543C19.2773 15.6885 16.0254 18.9316 11.9912 18.9316ZM8.81836 10.8018H15.1465C15.6562 10.8018 16.0078 10.5381 16.0078 10.0547C16.0078 9.55371 15.6738 9.28125 15.1465 9.28125H8.81836C8.28223 9.28125 7.94824 9.55371 7.94824 10.0547C7.94824 10.5381 8.2998 10.8018 8.81836 10.8018ZM8.81836 14.0625H15.1465C15.6562 14.0625 16.0078 13.7988 16.0078 13.3066C16.0078 12.8145 15.6738 12.542 15.1465 12.542H8.81836C8.28223 12.542 7.94824 12.8145 7.94824 13.3066C7.94824 13.7988 8.2998 14.0625 8.81836 14.0625Z" fill="#1C1C1E"/>
</g>
<defs>
<clipPath id="clip0_10_2362">
<rect width="24" height="24" fill="white"/>
</clipPath>
</defs>
</svg>
