<svg width="24" height="24" viewBox="0 0 24 24" fill="none" xmlns="http://www.w3.org/2000/svg">
<g clip-path="url(#clip0_10_2385)">
<path d="M11.7627 18.2461C12.123 18.2461 12.3779 18.0439 12.3779 17.6924C12.3779 17.5342 12.3428 17.4375 12.2285 17.1914C11.2266 15.4863 10.6816 13.667 10.6816 11.6719C10.6816 9.73828 11.2002 7.83984 12.2285 6.13477C12.3428 5.88867 12.3779 5.79199 12.3779 5.63379C12.3779 5.2998 12.123 5.08008 11.7627 5.08008C11.3848 5.08008 11.0859 5.26465 10.7432 5.73926C9.48633 7.37402 8.8623 9.42188 8.8623 11.6631C8.8623 13.9131 9.47754 15.917 10.7432 17.5869C11.0771 18.0703 11.3848 18.2461 11.7627 18.2461ZM21.6592 18.2461C22.0371 18.2461 22.3447 18.0703 22.6787 17.5869C23.9531 15.917 24.5596 13.9131 24.5596 11.6631C24.5596 9.42188 23.9268 7.37402 22.6787 5.73926C22.3447 5.25586 22.0371 5.08008 21.6592 5.08008C21.2988 5.08008 21.0439 5.2998 21.0439 5.63379C21.0439 5.79199 21.0791 5.88867 21.1934 6.13477C22.2217 7.83984 22.7402 9.73828 22.7402 11.6719C22.7402 13.667 22.1953 15.4863 21.1934 17.1914C21.0791 17.4375 21.0439 17.5342 21.0439 17.6924C21.0439 18.0264 21.2988 18.2461 21.6592 18.2461ZM0.802734 18.2373C2.63965 18.2373 3.49219 17.4727 3.92285 15.4336L4.88965 10.8105H6.46289C7.00781 10.8105 7.37695 10.5117 7.37695 9.99316C7.37695 9.53613 7.06934 9.26367 6.6123 9.26367H5.22363L5.45215 8.15625C5.67188 7.10156 5.99707 6.68848 6.91113 6.68848C7.06055 6.68848 7.19238 6.67969 7.29785 6.6709C7.78125 6.60938 8.01855 6.36328 8.01855 5.9502C8.01855 5.36133 7.55273 5.08887 6.59473 5.08887C4.78418 5.08887 3.87891 5.92383 3.47461 7.88379L3.18457 9.26367H2.1123C1.55859 9.26367 1.18945 9.5625 1.18945 10.0723C1.18945 10.5381 1.49707 10.8105 1.96289 10.8105H2.85938L1.93652 15.1611C1.70801 16.2422 1.37402 16.6377 0.477539 16.6377C0.363281 16.6377 0.240234 16.6377 0.152344 16.6465C-0.322266 16.7168 -0.568359 16.9893 -0.568359 17.3848C-0.568359 17.9648 -0.102539 18.2373 0.802734 18.2373ZM13.9072 16.0928C14.25 16.0928 14.4697 15.9785 14.7422 15.5742L16.6406 12.8408H16.6758L18.6182 15.627C18.8818 15.9873 19.1016 16.0928 19.4004 16.0928C19.9189 16.0928 20.2705 15.75 20.2705 15.2754C20.2705 15.0732 20.209 14.8887 20.0684 14.6953L17.8359 11.6543L20.0508 8.69238C20.209 8.48145 20.2793 8.29688 20.2793 8.06836C20.2793 7.59375 19.9102 7.27734 19.4443 7.27734C19.0664 7.27734 18.8555 7.46191 18.627 7.80469L16.8164 10.4854H16.7725L14.9443 7.7959C14.7158 7.44434 14.4873 7.27734 14.0742 7.27734C13.5732 7.27734 13.1953 7.65527 13.1953 8.1123C13.1953 8.39355 13.2832 8.57812 13.4238 8.7627L15.5684 11.6367L13.3184 14.7217C13.1426 14.9414 13.0986 15.126 13.0986 15.3457C13.0986 15.7764 13.459 16.0928 13.9072 16.0928Z" fill="#1C1C1E"/>
</g>
<defs>
<clipPath id="clip0_10_2385">
<rect width="24" height="24" fill="white"/>
</clipPath>
</defs>
</svg>
