<svg width="24" height="24" viewBox="0 0 24 24" fill="none" xmlns="http://www.w3.org/2000/svg">
<g clip-path="url(#clip0_10_2347)">
<path d="M11.9912 20.7422C16.9746 20.7422 21.0879 16.6289 21.0879 11.6543C21.0879 6.67969 16.9658 2.56641 11.9824 2.56641C7.00781 2.56641 2.90332 6.67969 2.90332 11.6543C2.90332 16.6289 7.0166 20.7422 11.9912 20.7422ZM11.9912 18.9316C7.95703 18.9316 4.73145 15.6885 4.73145 11.6543C4.73145 7.62012 7.95703 4.38574 11.9824 4.38574C16.0166 4.38574 19.2598 7.62012 19.2686 11.6543C19.2773 15.6885 16.0254 18.9316 11.9912 18.9316ZM9.77637 15.2139C9.96094 15.2139 10.1104 15.1699 10.251 15.0996L15.3311 12.498C15.7266 12.2959 15.9023 12.0586 15.9023 11.6719C15.9023 11.3027 15.709 11.0303 15.3311 10.8369L10.251 8.14746C10.1016 8.06836 9.96094 8.0332 9.76758 8.0332C9.30176 8.0332 8.95898 8.37598 8.95898 8.82422C8.95898 9.20215 9.14355 9.43945 9.57422 9.63281L13.6172 11.6104V11.6719L9.57422 13.6055C9.13477 13.7988 8.95898 14.0273 8.95898 14.4141C8.95898 14.8711 9.31055 15.2139 9.77637 15.2139Z" fill="#1C1C1E"/>
</g>
<defs>
<clipPath id="clip0_10_2347">
<rect width="24" height="24" fill="white"/>
</clipPath>
</defs>
</svg>
