<svg width="24" height="24" viewBox="0 0 24 24" fill="none" xmlns="http://www.w3.org/2000/svg">
<g clip-path="url(#clip0_10_2349)">
<path d="M6.7002 17.7012C7.00781 17.7012 7.23633 17.6133 7.48242 17.499L17.1328 13.166C17.8008 12.8584 18.249 12.4014 18.249 11.6982C18.249 10.9951 17.8096 10.5381 17.1328 10.2305L7.48242 5.80957C7.25391 5.69531 7.03418 5.61621 6.74414 5.61621C6.15527 5.61621 5.74219 6.04688 5.74219 6.64453C5.74219 7.16309 6.00586 7.46191 6.50684 7.68164L15.5332 11.584V11.6807L6.50684 15.6094C5.97949 15.8291 5.74219 16.1367 5.74219 16.6641C5.74219 17.2705 6.12891 17.7012 6.7002 17.7012Z" fill="#1C1C1E"/>
</g>
<defs>
<clipPath id="clip0_10_2349">
<rect width="24" height="24" fill="white"/>
</clipPath>
</defs>
</svg>
