<svg width="24" height="24" viewBox="0 0 24 24" fill="none" xmlns="http://www.w3.org/2000/svg">
<g clip-path="url(#clip0_10_2390)">
<path d="M6.67383 19.8809H17.3174C19.2246 19.8809 20.209 18.8965 20.209 17.0156V6.31934C20.209 4.43848 19.2246 3.4541 17.3174 3.4541H6.67383C4.77539 3.4541 3.78223 4.42969 3.78223 6.31934V17.0156C3.78223 18.8965 4.77539 19.8809 6.67383 19.8809ZM6.78809 18.1318C5.97949 18.1318 5.53125 17.71 5.53125 16.8574V6.47754C5.53125 5.625 5.97949 5.20312 6.78809 5.20312H17.2031C18.0029 5.20312 18.46 5.625 18.46 6.47754V16.8574C18.46 17.71 18.0029 18.1318 17.2031 18.1318H6.78809ZM9.79395 15.2051C9.97852 15.2051 10.1191 15.1699 10.2686 15.0908L15.3486 12.4893C15.7354 12.2871 15.9199 12.0498 15.9199 11.6631C15.9199 11.2939 15.7266 11.0303 15.3486 10.8281L10.2686 8.13867C10.1104 8.06836 9.97852 8.02441 9.77637 8.02441C9.31055 8.02441 8.97656 8.36719 8.97656 8.82422C8.97656 9.19336 9.15234 9.43066 9.5918 9.63281L13.6348 11.6016V11.6631L9.5918 13.6055C9.15234 13.7988 8.97656 14.0273 8.97656 14.4053C8.97656 14.8623 9.31934 15.2051 9.79395 15.2051Z" fill="#1C1C1E"/>
</g>
<defs>
<clipPath id="clip0_10_2390">
<rect width="24" height="24" fill="white"/>
</clipPath>
</defs>
</svg>
