<svg width="24" height="24" viewBox="0 0 24 24" fill="none" xmlns="http://www.w3.org/2000/svg">
<g clip-path="url(#clip0_10_2343)">
<path d="M11.9912 20.7422C16.9746 20.7422 21.0879 16.6289 21.0879 11.6543C21.0879 6.67969 16.9658 2.56641 11.9824 2.56641C7.00781 2.56641 2.90332 6.67969 2.90332 11.6543C2.90332 16.6289 7.0166 20.7422 11.9912 20.7422ZM9.68848 15.3545C9.1875 15.3545 8.82715 14.9941 8.82715 14.5107C8.82715 14.1064 9.01172 13.8691 9.47754 13.6758L13.6611 11.6631V11.6016L9.47754 9.5625C9.02051 9.36035 8.82715 9.10547 8.82715 8.70996C8.82715 8.23535 9.17871 7.875 9.6709 7.875C9.88184 7.875 10.0225 7.91895 10.1895 7.99805L15.4629 10.793C15.8672 11.0039 16.0605 11.2764 16.0605 11.6631C16.0605 12.0762 15.876 12.3223 15.4629 12.5244L10.1895 15.2314C10.0312 15.3105 9.88184 15.3545 9.68848 15.3545Z" fill="#1C1C1E"/>
</g>
<defs>
<clipPath id="clip0_10_2343">
<rect width="24" height="24" fill="white"/>
</clipPath>
</defs>
</svg>
