<svg width="24" height="24" viewBox="0 0 24 24" fill="none" xmlns="http://www.w3.org/2000/svg">
<g clip-path="url(#clip0_10_2384)">
<path d="M6.67383 19.8809H17.3174C19.2246 19.8809 20.209 18.8965 20.209 17.0156V6.31934C20.209 4.43848 19.2246 3.4541 17.3174 3.4541H6.67383C4.77539 3.4541 3.78223 4.42969 3.78223 6.31934V17.0156C3.78223 18.8965 4.77539 19.8809 6.67383 19.8809ZM9.72363 15.3545C9.22266 15.3545 8.8623 14.9941 8.8623 14.5107C8.8623 14.1064 9.04688 13.8691 9.5127 13.6758L13.6963 11.6631V11.6016L9.5127 9.5625C9.05566 9.36035 8.8623 9.10547 8.8623 8.70996C8.8623 8.23535 9.22266 7.875 9.70605 7.875C9.91699 7.875 10.0576 7.91895 10.2246 7.99805L15.498 10.793C15.9023 11.0039 16.0957 11.2764 16.0957 11.6631C16.0957 12.0762 15.9111 12.3223 15.498 12.5244L10.2246 15.2314C10.0664 15.3105 9.91699 15.3545 9.72363 15.3545Z" fill="#1C1C1E"/>
</g>
<defs>
<clipPath id="clip0_10_2384">
<rect width="24" height="24" fill="white"/>
</clipPath>
</defs>
</svg>
