<svg width="24" height="24" viewBox="0 0 24 24" fill="none" xmlns="http://www.w3.org/2000/svg">
<g clip-path="url(#clip0_10_2356)">
<path d="M11.9912 20.7422C16.9746 20.7422 21.0879 16.6289 21.0879 11.6543C21.0879 6.67969 16.9658 2.56641 11.9824 2.56641C7.00781 2.56641 2.90332 6.67969 2.90332 11.6543C2.90332 16.6289 7.0166 20.7422 11.9912 20.7422ZM14.3379 15.4072C14.1357 15.4072 13.9863 15.3633 13.8193 15.2842L8.4668 12.542C8.05371 12.3398 7.86035 12.085 7.86035 11.6631C7.86035 11.2764 8.0625 10.9863 8.4668 10.7666L13.8193 7.94531C13.9951 7.86621 14.1357 7.82227 14.3467 7.82227C14.8477 7.82227 15.208 8.19141 15.208 8.6748C15.208 9.0791 15.0146 9.34277 14.5488 9.54492L10.3213 11.6016V11.6631L14.5488 13.6846C15.0234 13.8867 15.208 14.1328 15.208 14.5459C15.208 15.0381 14.8389 15.4072 14.3379 15.4072Z" fill="#1C1C1E"/>
</g>
<defs>
<clipPath id="clip0_10_2356">
<rect width="24" height="24" fill="white"/>
</clipPath>
</defs>
</svg>
