<svg width="24" height="24" viewBox="0 0 24 24" fill="none" xmlns="http://www.w3.org/2000/svg">
<g clip-path="url(#clip0_10_2357)">
<path d="M11.9912 20.7422C16.9746 20.7422 21.0879 16.6289 21.0879 11.6543C21.0879 6.67969 16.9658 2.56641 11.9824 2.56641C7.00781 2.56641 2.90332 6.67969 2.90332 11.6543C2.90332 16.6289 7.0166 20.7422 11.9912 20.7422ZM11.9912 18.9316C7.95703 18.9316 4.73145 15.6885 4.73145 11.6543C4.73145 7.62012 7.95703 4.38574 11.9824 4.38574C16.0166 4.38574 19.2598 7.62012 19.2686 11.6543C19.2773 15.6885 16.0254 18.9316 11.9912 18.9316ZM14.2236 15.2578C14.707 15.2578 15.0586 14.915 15.0586 14.4404C15.0586 14.0537 14.8828 13.8164 14.4346 13.623L10.3564 11.6719V11.6104L14.4346 9.62402C14.874 9.42188 15.0586 9.17578 15.0586 8.79785C15.0586 8.33203 14.7158 7.98926 14.2412 7.98926C14.0303 7.98926 13.8984 8.02441 13.7402 8.10352L8.59863 10.8193C8.20312 11.0215 8.00977 11.2939 8.00977 11.6719C8.00977 12.0674 8.19434 12.3135 8.59863 12.5156L13.7402 15.1436C13.8896 15.2227 14.0303 15.2578 14.2236 15.2578Z" fill="#1C1C1E"/>
</g>
<defs>
<clipPath id="clip0_10_2357">
<rect width="24" height="24" fill="white"/>
</clipPath>
</defs>
</svg>
