<svg width="24" height="24" viewBox="0 0 24 24" fill="none" xmlns="http://www.w3.org/2000/svg">
<g clip-path="url(#clip0_10_2386)">
<path d="M17.2998 17.7012C17.8623 17.7012 18.249 17.2705 18.249 16.6641C18.249 16.1367 18.0117 15.8291 17.4844 15.6094L8.45801 11.6807V11.584L17.4844 7.68164C17.9941 7.46191 18.249 7.16309 18.249 6.64453C18.249 6.04688 17.8359 5.61621 17.2471 5.61621C16.9658 5.61621 16.7461 5.69531 16.5088 5.80957L6.86719 10.2305C6.19043 10.5381 5.74219 10.9951 5.74219 11.6982C5.74219 12.4014 6.19043 12.8584 6.86719 13.166L16.5088 17.499C16.7549 17.6133 16.9922 17.7012 17.2998 17.7012Z" fill="#1C1C1E"/>
</g>
<defs>
<clipPath id="clip0_10_2386">
<rect width="24" height="24" fill="white"/>
</clipPath>
</defs>
</svg>
