<svg width="24" height="24" viewBox="0 0 24 24" fill="none" xmlns="http://www.w3.org/2000/svg">
<g clip-path="url(#clip0_10_2354)">
<path d="M6.67383 19.8809H17.3174C19.2246 19.8809 20.209 18.8965 20.209 17.0156V6.31934C20.209 4.43848 19.2246 3.4541 17.3174 3.4541H6.67383C4.77539 3.4541 3.78223 4.42969 3.78223 6.31934V17.0156C3.78223 18.8965 4.77539 19.8809 6.67383 19.8809ZM6.78809 18.1318C5.97949 18.1318 5.53125 17.71 5.53125 16.8574V6.47754C5.53125 5.625 5.97949 5.20312 6.78809 5.20312H17.2031C18.0029 5.20312 18.46 5.625 18.46 6.47754V16.8574C18.46 17.71 18.0029 18.1318 17.2031 18.1318H6.78809ZM14.2412 15.2578C14.7246 15.2578 15.0762 14.9062 15.0762 14.4404C15.0762 14.0449 14.9004 13.8076 14.4434 13.6143L10.374 11.6631V11.6016L14.4434 9.61523C14.8916 9.41309 15.0762 9.17578 15.0762 8.78906C15.0762 8.32324 14.7246 7.98047 14.25 7.98047C14.0479 7.98047 13.916 8.01562 13.749 8.09473L8.60742 10.8105C8.2207 11.0127 8.02734 11.2852 8.02734 11.6631C8.02734 12.0586 8.21191 12.3047 8.60742 12.5068L13.749 15.1348C13.9072 15.2139 14.0479 15.2578 14.2412 15.2578Z" fill="#1C1C1E"/>
</g>
<defs>
<clipPath id="clip0_10_2354">
<rect width="24" height="24" fill="white"/>
</clipPath>
</defs>
</svg>
