<svg width="24" height="24" viewBox="0 0 24 24" fill="none" xmlns="http://www.w3.org/2000/svg">
<g clip-path="url(#clip0_10_2351)">
<path d="M6.67383 19.8809H17.3174C19.2246 19.8809 20.209 18.8965 20.209 17.0156V6.31934C20.209 4.43848 19.2246 3.4541 17.3174 3.4541H6.67383C4.77539 3.4541 3.78223 4.42969 3.78223 6.31934V17.0156C3.78223 18.8965 4.77539 19.8809 6.67383 19.8809ZM14.373 15.4072C14.1709 15.4072 14.0215 15.3633 13.8545 15.2842L8.51074 12.542C8.08887 12.3398 7.89551 12.085 7.89551 11.6631C7.89551 11.2764 8.09766 10.9863 8.51074 10.7666L13.8545 7.94531C14.0303 7.86621 14.1709 7.82227 14.3818 7.82227C14.8828 7.82227 15.2432 8.19141 15.2432 8.6748C15.2432 9.0791 15.0498 9.34277 14.584 9.54492L10.3564 11.6016V11.6631L14.584 13.6846C15.0586 13.8867 15.2432 14.1328 15.2432 14.5459C15.2432 15.0381 14.874 15.4072 14.373 15.4072Z" fill="#1C1C1E"/>
</g>
<defs>
<clipPath id="clip0_10_2351">
<rect width="24" height="24" fill="white"/>
</clipPath>
</defs>
</svg>
