<svg width="24" height="24" viewBox="0 0 24 24" fill="none" xmlns="http://www.w3.org/2000/svg">
<g clip-path="url(#clip0_10_2372)">
<path d="M6.91113 19.9688C7.25391 19.9688 7.44727 19.8369 7.70215 19.459L12.791 11.8916L17.7041 4.63184C17.8359 4.43848 17.8975 4.27148 17.8975 4.06934C17.8975 3.65625 17.5459 3.34863 17.124 3.34863C16.7549 3.34863 16.5615 3.47168 16.2891 3.86719L11.332 11.2412L6.30469 18.668C6.17285 18.8525 6.10254 19.0195 6.10254 19.248C6.10254 19.6875 6.47168 19.9688 6.91113 19.9688ZM4.30957 8.45508H9.13477C9.53906 8.45508 9.85547 8.13867 9.85547 7.73438C9.85547 7.33887 9.53906 7.01367 9.13477 7.01367H4.30957C3.91406 7.01367 3.58887 7.33887 3.58887 7.73438C3.58887 8.13867 3.91406 8.45508 4.30957 8.45508ZM14.1357 16.1016C14.1357 16.5059 14.4609 16.8223 14.8564 16.8223H16.5527V18.5186C16.5527 18.9229 16.8779 19.248 17.2734 19.248C17.6777 19.248 17.9941 18.9229 17.9941 18.5186V16.8223H19.6816C20.0859 16.8223 20.4111 16.5059 20.4111 16.1016C20.4111 15.7061 20.0859 15.3809 19.6816 15.3809H17.9941V13.6934C17.9941 13.2891 17.6689 12.9727 17.2734 12.9727C16.8691 12.9727 16.5527 13.2979 16.5527 13.6934V15.3809H14.8564C14.4609 15.3809 14.1357 15.7061 14.1357 16.1016Z" fill="#1C1C1E"/>
</g>
<defs>
<clipPath id="clip0_10_2372">
<rect width="24" height="24" fill="white"/>
</clipPath>
</defs>
</svg>
