<svg width="24" height="24" viewBox="0 0 24 24" fill="none" xmlns="http://www.w3.org/2000/svg">
<g clip-path="url(#clip0_10_2380)">
<path d="M6.67383 19.8809H17.3174C19.2246 19.8809 20.209 18.8965 20.209 17.0156V6.31934C20.209 4.43848 19.2246 3.4541 17.3174 3.4541H6.67383C4.77539 3.4541 3.78223 4.42969 3.78223 6.31934V17.0156C3.78223 18.8965 4.77539 19.8809 6.67383 19.8809ZM8.57227 12.5332C8.01855 12.5332 7.62305 12.208 7.62305 11.6719C7.62305 11.1357 8.00098 10.793 8.57227 10.793H15.4805C16.0518 10.793 16.4209 11.1357 16.4209 11.6719C16.4209 12.208 16.0342 12.5332 15.4805 12.5332H8.57227Z" fill="#1C1C1E"/>
</g>
<defs>
<clipPath id="clip0_10_2380">
<rect width="24" height="24" fill="white"/>
</clipPath>
</defs>
</svg>
