<svg width="24" height="24" viewBox="0 0 24 24" fill="none" xmlns="http://www.w3.org/2000/svg">
<g clip-path="url(#clip0_10_2375)">
<path d="M6.31348 15.9346C5.94434 16.3037 5.92676 16.9629 6.32227 17.3408C6.7002 17.7363 7.36816 17.7188 7.7373 17.3496L12 13.0869L16.2627 17.3496C16.6406 17.7275 17.291 17.7363 17.6689 17.3408C18.0645 16.9629 18.0557 16.3037 17.6777 15.9258L13.415 11.6631L17.6777 7.40918C18.0557 7.02246 18.0645 6.37207 17.6689 5.99414C17.291 5.59863 16.6406 5.60742 16.2627 5.98535L12 10.248L7.7373 5.98535C7.36816 5.61621 6.7002 5.59863 6.32227 5.99414C5.92676 6.37207 5.94434 7.03125 6.31348 7.40039L10.5762 11.6631L6.31348 15.9346Z" fill="#1C1C1E"/>
</g>
<defs>
<clipPath id="clip0_10_2375">
<rect width="24" height="24" fill="white"/>
</clipPath>
</defs>
</svg>
