<svg width="24" height="24" viewBox="0 0 24 24" fill="none" xmlns="http://www.w3.org/2000/svg">
<g clip-path="url(#clip0_10_2371)">
<path d="M11.9912 20.7422C16.9746 20.7422 21.0879 16.6289 21.0879 11.6543C21.0879 6.67969 16.9658 2.56641 11.9824 2.56641C7.00781 2.56641 2.90332 6.67969 2.90332 11.6543C2.90332 16.6289 7.0166 20.7422 11.9912 20.7422ZM11.9912 18.9316C7.95703 18.9316 4.73145 15.6885 4.73145 11.6543C4.73145 7.62012 7.95703 4.38574 11.9824 4.38574C16.0166 4.38574 19.2598 7.62012 19.2686 11.6543C19.2773 15.6885 16.0254 18.9316 11.9912 18.9316ZM9.1084 15.3457C9.33691 15.3457 9.53906 15.2666 9.68848 15.1084L11.9912 12.8057L14.2939 15.1084C14.4434 15.2578 14.6367 15.3457 14.874 15.3457C15.3223 15.3457 15.6738 14.9941 15.6738 14.5459C15.6738 14.3262 15.5859 14.1328 15.4365 13.9834L13.125 11.6719L15.4365 9.35156C15.6035 9.18457 15.6826 9.00879 15.6826 8.79785C15.6826 8.34961 15.3311 7.99805 14.8828 7.99805C14.6631 7.99805 14.4785 8.06836 14.3115 8.23535L11.9912 10.5469L9.6709 8.24414C9.52148 8.08594 9.33691 8.00684 9.1084 8.00684C8.66016 8.00684 8.30859 8.34961 8.30859 8.79785C8.30859 9.01758 8.39648 9.21094 8.55469 9.36035L10.8574 11.6719L8.55469 13.9922C8.39648 14.1328 8.30859 14.335 8.30859 14.5459C8.30859 14.9941 8.66016 15.3457 9.1084 15.3457Z" fill="#1C1C1E"/>
</g>
<defs>
<clipPath id="clip0_10_2371">
<rect width="24" height="24" fill="white"/>
</clipPath>
</defs>
</svg>
