<svg width="24" height="24" viewBox="0 0 24 24" fill="none" xmlns="http://www.w3.org/2000/svg">
<g clip-path="url(#clip0_10_2361)">
<path d="M11.9912 20.7422C16.9746 20.7422 21.0879 16.6289 21.0879 11.6543C21.0879 6.67969 16.9658 2.56641 11.9824 2.56641C7.00781 2.56641 2.90332 6.67969 2.90332 11.6543C2.90332 16.6289 7.0166 20.7422 11.9912 20.7422ZM8.99414 15.4863C8.52832 15.4863 8.15918 15.1172 8.15918 14.6426C8.15918 14.4316 8.24707 14.2207 8.41406 14.0625L10.8047 11.6631L8.41406 9.27246C8.24707 9.11426 8.15918 8.90332 8.15918 8.69238C8.15918 8.21777 8.52832 7.85742 8.99414 7.85742C9.24023 7.85742 9.43359 7.93652 9.5918 8.09473L11.9912 10.4854L14.3994 8.08594C14.5752 7.91895 14.7598 7.83984 14.9971 7.83984C15.4629 7.83984 15.832 8.20898 15.832 8.6748C15.832 8.89453 15.7441 9.08789 15.5771 9.26367L13.1865 11.6631L15.5771 14.0537C15.7354 14.2207 15.8232 14.4229 15.8232 14.6426C15.8232 15.1172 15.4541 15.4863 14.9795 15.4863C14.7422 15.4863 14.54 15.3984 14.373 15.2402L11.9912 12.8584L9.60938 15.2402C9.45117 15.4072 9.24023 15.4863 8.99414 15.4863Z" fill="#1C1C1E"/>
</g>
<defs>
<clipPath id="clip0_10_2361">
<rect width="24" height="24" fill="white"/>
</clipPath>
</defs>
</svg>
