<svg width="24" height="24" viewBox="0 0 24 24" fill="none" xmlns="http://www.w3.org/2000/svg">
<g clip-path="url(#clip0_10_2355)">
<path d="M4.9248 15.4248H7.28027L6.5332 19.125C6.51562 19.2217 6.49805 19.3623 6.49805 19.459C6.49805 19.9775 6.84961 20.2676 7.37695 20.2676C7.92188 20.2676 8.29102 19.9863 8.40527 19.4238L9.20508 15.4248H13.0107L12.2637 19.125C12.2461 19.2217 12.2285 19.3623 12.2285 19.459C12.2285 19.9775 12.5801 20.2676 13.0986 20.2676C13.6523 20.2676 14.0215 19.9863 14.127 19.4238L14.9355 15.4248H17.7129C18.3457 15.4248 18.7588 15.0117 18.7588 14.4053C18.7588 13.9219 18.4248 13.5703 17.915 13.5703H15.3047L16.1484 9.39551H18.8818C19.5059 9.39551 19.9189 8.97363 19.9189 8.36719C19.9189 7.88379 19.5938 7.52344 19.0752 7.52344H16.5176L17.1855 4.21875C17.2031 4.14844 17.2207 4.00781 17.2207 3.88477C17.2207 3.375 16.8604 3.06738 16.333 3.06738C15.7266 3.06738 15.4365 3.39258 15.3223 3.9375L14.6016 7.52344H10.7959L11.4551 4.21875C11.4727 4.14844 11.4902 4.00781 11.4902 3.88477C11.4902 3.375 11.1299 3.06738 10.6025 3.06738C10.0049 3.06738 9.69727 3.38379 9.5918 3.9375L8.8623 7.52344H6.28711C5.6543 7.52344 5.25 7.9541 5.25 8.56934C5.25 9.06152 5.5752 9.39551 6.09375 9.39551H8.49316L7.64941 13.5703H5.11816C4.49414 13.5703 4.08105 13.9922 4.08105 14.6074C4.08105 15.0996 4.41504 15.4248 4.9248 15.4248ZM9.57422 13.5703L10.418 9.39551H14.2236L13.3887 13.5703H9.57422Z" fill="#1C1C1E"/>
</g>
<defs>
<clipPath id="clip0_10_2355">
<rect width="24" height="24" fill="white"/>
</clipPath>
</defs>
</svg>
