<svg width="24" height="24" viewBox="0 0 24 24" fill="none" xmlns="http://www.w3.org/2000/svg">
<g clip-path="url(#clip0_10_2353)">
<path d="M11.9912 20.7422C16.9746 20.7422 21.0879 16.6289 21.0879 11.6543C21.0879 6.67969 16.9658 2.56641 11.9824 2.56641C7.00781 2.56641 2.90332 6.67969 2.90332 11.6543C2.90332 16.6289 7.0166 20.7422 11.9912 20.7422ZM11.9912 18.9316C7.95703 18.9316 4.73145 15.6885 4.73145 11.6543C4.73145 7.62012 7.95703 4.38574 11.9824 4.38574C16.0166 4.38574 19.2598 7.62012 19.2686 11.6543C19.2773 15.6885 16.0254 18.9316 11.9912 18.9316ZM9.75 15.9082C10.1543 15.9082 10.3916 15.7061 10.4707 15.3193L10.8311 13.6318H12.2812L11.9648 15.1611C11.877 15.5742 12.1494 15.9082 12.5625 15.9082C12.9756 15.9082 13.2393 15.7061 13.3184 15.3105L13.6699 13.623H14.4609C14.8564 13.623 15.1465 13.333 15.1465 12.9375C15.1465 12.5947 14.9092 12.3486 14.5752 12.3486H13.9336L14.2676 10.7754H15.0586C15.4629 10.7754 15.7441 10.4854 15.7441 10.0986C15.7441 9.74707 15.5068 9.50977 15.1729 9.50977H14.5137L14.8125 8.05957C14.8916 7.65527 14.6016 7.32129 14.1885 7.32129C13.793 7.32129 13.5381 7.51465 13.4678 7.90137L13.1338 9.50977H11.6748L11.9736 8.05957C12.0615 7.66406 11.7715 7.32129 11.3584 7.32129C10.9541 7.32129 10.708 7.51465 10.6289 7.90137L10.2949 9.50977H9.50391C9.1084 9.50977 8.81836 9.7998 8.81836 10.1865C8.81836 10.5293 9.05566 10.7754 9.38965 10.7754H10.04L9.71484 12.3486H8.90625C8.50195 12.3486 8.2207 12.6387 8.2207 13.0342C8.2207 13.377 8.45801 13.623 8.79199 13.623H9.45117L9.13477 15.1611C9.05566 15.5742 9.33691 15.9082 9.75 15.9082ZM10.9893 12.498L11.3584 10.6699H12.9932L12.6152 12.498H10.9893Z" fill="#1C1C1E"/>
</g>
<defs>
<clipPath id="clip0_10_2353">
<rect width="24" height="24" fill="white"/>
</clipPath>
</defs>
</svg>
