<svg width="24" height="24" viewBox="0 0 24 24" fill="none" xmlns="http://www.w3.org/2000/svg">
<g clip-path="url(#clip0_10_2348)">
<path d="M6.67383 19.8809H17.3174C19.2246 19.8809 20.209 18.8965 20.209 17.0156V6.31934C20.209 4.43848 19.2246 3.4541 17.3174 3.4541H6.67383C4.77539 3.4541 3.78223 4.42969 3.78223 6.31934V17.0156C3.78223 18.8965 4.77539 19.8809 6.67383 19.8809ZM6.78809 18.1318C5.97949 18.1318 5.53125 17.71 5.53125 16.8574V6.47754C5.53125 5.625 5.97949 5.20312 6.78809 5.20312H17.2031C18.0029 5.20312 18.46 5.625 18.46 6.47754V16.8574C18.46 17.71 18.0029 18.1318 17.2031 18.1318H6.78809ZM9.76758 15.8994C10.1719 15.8994 10.4092 15.7061 10.4883 15.3105L10.8398 13.623H12.29L11.9736 15.1523C11.8945 15.5654 12.167 15.8994 12.5801 15.8994C12.9932 15.8994 13.248 15.6973 13.3271 15.3105L13.6875 13.6143H14.4785C14.874 13.6143 15.1553 13.3242 15.1553 12.9287C15.1553 12.5859 14.918 12.3486 14.584 12.3486H13.9512L14.2764 10.7754H15.0762C15.4717 10.7754 15.7617 10.4766 15.7617 10.0898C15.7617 9.74707 15.5244 9.50098 15.1904 9.50098H14.5312L14.8301 8.05957C14.9092 7.65527 14.6104 7.3125 14.2061 7.3125C13.8105 7.3125 13.5557 7.50586 13.4766 7.89258L13.1514 9.50098H11.6924L11.9912 8.05957C12.0703 7.66406 11.7891 7.3125 11.3672 7.3125C10.9717 7.3125 10.7256 7.50586 10.6465 7.89258L10.3125 9.50098H9.5127C9.11719 9.50098 8.83594 9.79102 8.83594 10.1865C8.83594 10.5293 9.07324 10.7754 9.39844 10.7754H10.0576L9.73242 12.3486H8.91504C8.51953 12.3486 8.23828 12.6387 8.23828 13.0254C8.23828 13.3682 8.4668 13.6143 8.80078 13.6143H9.46875L9.15234 15.1523C9.06445 15.5654 9.35449 15.8994 9.76758 15.8994ZM10.998 12.4893L11.376 10.6611H13.0107L12.6328 12.4893H10.998Z" fill="#1C1C1E"/>
</g>
<defs>
<clipPath id="clip0_10_2348">
<rect width="24" height="24" fill="white"/>
</clipPath>
</defs>
</svg>
