<svg width="24" height="24" viewBox="0 0 24 24" fill="none" xmlns="http://www.w3.org/2000/svg">
<g clip-path="url(#clip0_10_2350)">
<path d="M11.9912 20.7422C16.9746 20.7422 21.0879 16.6289 21.0879 11.6543C21.0879 6.67969 16.9658 2.56641 11.9824 2.56641C7.00781 2.56641 2.90332 6.67969 2.90332 11.6543C2.90332 16.6289 7.0166 20.7422 11.9912 20.7422ZM9.66211 16.0752C9.22266 16.0752 8.92383 15.7236 9.01172 15.293L9.3457 13.7021H8.66016C8.30859 13.7021 8.0625 13.4473 8.0625 13.0869C8.0625 12.6738 8.36133 12.375 8.7832 12.375H9.61816L9.95215 10.7402H9.27539C8.93262 10.7402 8.68652 10.4854 8.68652 10.125C8.68652 9.71191 8.98535 9.4043 9.40723 9.4043H10.2246L10.5674 7.75195C10.6465 7.34766 10.9102 7.13672 11.332 7.13672C11.7627 7.13672 12.0615 7.49707 11.9736 7.91895L11.666 9.4043H13.1689L13.5205 7.75195C13.5996 7.34766 13.8633 7.13672 14.2764 7.13672C14.707 7.13672 15.0146 7.48828 14.9355 7.91895L14.6279 9.4043H15.3047C15.6562 9.4043 15.9023 9.66797 15.9023 10.0283C15.9023 10.4414 15.6035 10.7402 15.1816 10.7402H14.3555L14.0215 12.375H14.6807C15.0322 12.375 15.2783 12.6211 15.2783 12.9814C15.2783 13.3945 14.9795 13.7021 14.5576 13.7021H13.7402L13.3799 15.4512C13.292 15.8643 13.0283 16.0752 12.5889 16.0752C12.1582 16.0752 11.8682 15.7236 11.9561 15.293L12.2812 13.7021H10.7871L10.418 15.46C10.3301 15.8643 10.084 16.0752 9.66211 16.0752ZM10.9453 12.5244H12.6416L13.0371 10.626H11.332L10.9453 12.5244Z" fill="#1C1C1E"/>
</g>
<defs>
<clipPath id="clip0_10_2350">
<rect width="24" height="24" fill="white"/>
</clipPath>
</defs>
</svg>
