<svg width="24" height="24" viewBox="0 0 24 24" fill="none" xmlns="http://www.w3.org/2000/svg">
<g clip-path="url(#clip0_10_2346)">
<path d="M6.67383 19.8809H17.3174C19.2246 19.8809 20.209 18.8965 20.209 17.0156V6.31934C20.209 4.43848 19.2246 3.4541 17.3174 3.4541H6.67383C4.77539 3.4541 3.78223 4.42969 3.78223 6.31934V17.0156C3.78223 18.8965 4.77539 19.8809 6.67383 19.8809ZM9.69727 16.0752C9.25781 16.0752 8.95898 15.7236 9.04688 15.293L9.38086 13.7021H8.69531C8.34375 13.7021 8.09766 13.4473 8.09766 13.0869C8.09766 12.6738 8.39648 12.375 8.81836 12.375H9.65332L9.9873 10.7402H9.31055C8.96777 10.7402 8.72168 10.4854 8.72168 10.125C8.72168 9.71191 9.02051 9.4043 9.44238 9.4043H10.2598L10.6025 7.75195C10.6816 7.34766 10.9453 7.13672 11.3672 7.13672C11.7979 7.13672 12.0967 7.49707 12.0088 7.91895L11.7012 9.4043H13.2041L13.5557 7.75195C13.6348 7.34766 13.8984 7.13672 14.3115 7.13672C14.7422 7.13672 15.0498 7.48828 14.9707 7.91895L14.6631 9.4043H15.3398C15.6914 9.4043 15.9375 9.66797 15.9375 10.0283C15.9375 10.4414 15.6387 10.7402 15.2168 10.7402H14.3906L14.0566 12.375H14.7158C15.0674 12.375 15.3135 12.6211 15.3135 12.9814C15.3135 13.3945 15.0146 13.7021 14.5928 13.7021H13.7754L13.415 15.4512C13.3359 15.8643 13.0635 16.0752 12.624 16.0752C12.1934 16.0752 11.9033 15.7236 11.9912 15.293L12.3164 13.7021H10.8223L10.4531 15.46C10.3652 15.8643 10.1191 16.0752 9.69727 16.0752ZM10.9805 12.5244H12.6768L13.0723 10.626H11.376L10.9805 12.5244Z" fill="#1C1C1E"/>
</g>
<defs>
<clipPath id="clip0_10_2346">
<rect width="24" height="24" fill="white"/>
</clipPath>
</defs>
</svg>
