<svg width="24" height="24" viewBox="0 0 24 24" fill="none" xmlns="http://www.w3.org/2000/svg">
<g clip-path="url(#clip0_10_2391)">
<path d="M6.42773 19.9248C6.81445 20.1533 7.36816 20.0918 7.67578 19.6436L17.7832 4.63184C18.1172 4.13965 17.9414 3.59473 17.5371 3.35742C17.1592 3.14648 16.6494 3.22559 16.3242 3.70898L6.2168 18.6768C5.87402 19.1777 6.02344 19.6875 6.42773 19.9248ZM6.7002 11.6543C8.71289 11.6543 9.94336 10.0635 9.94336 7.50586C9.94336 4.93066 8.7041 3.38379 6.7002 3.38379C4.70508 3.38379 3.45703 4.93945 3.45703 7.50586C3.45703 10.0723 4.69629 11.6543 6.7002 11.6543ZM6.7002 10.2041C5.74219 10.2041 5.19727 9.2373 5.19727 7.50586C5.19727 5.80078 5.75098 4.83398 6.7002 4.83398C7.64941 4.83398 8.20312 5.79199 8.20312 7.50586C8.20312 9.2373 7.6582 10.2041 6.7002 10.2041ZM17.291 19.9336C19.3037 19.9336 20.5342 18.3428 20.5342 15.7852C20.5342 13.21 19.2861 11.6631 17.291 11.6631C15.2871 11.6631 14.0391 13.2188 14.0391 15.7852C14.0391 18.3516 15.2783 19.9336 17.291 19.9336ZM17.291 18.4834C16.333 18.4834 15.7881 17.5166 15.7881 15.7852C15.7881 14.0801 16.3418 13.1133 17.291 13.1133C18.2402 13.1133 18.7852 14.0713 18.7852 15.7852C18.7852 17.5166 18.2402 18.4834 17.291 18.4834Z" fill="#1C1C1E"/>
</g>
<defs>
<clipPath id="clip0_10_2391">
<rect width="24" height="24" fill="white"/>
</clipPath>
</defs>
</svg>
