<svg width="24" height="24" viewBox="0 0 24 24" fill="none" xmlns="http://www.w3.org/2000/svg">
<g clip-path="url(#clip0_10_2373)">
<path d="M11.9912 20.7598C16.9746 20.7598 21.0879 16.6465 21.0879 11.6631C21.0879 6.68848 16.9658 2.5752 11.9824 2.5752C7.00781 2.5752 2.90332 6.68848 2.90332 11.6631C2.90332 16.6465 7.0166 20.7598 11.9912 20.7598ZM9.46875 10.6611C9.06445 10.6611 8.75684 10.3359 8.75684 9.94043C8.75684 9.53613 9.06445 9.21973 9.46875 9.21973H11.2793V7.42676C11.2793 7.02246 11.5957 6.71484 12 6.70605C12.4043 6.70605 12.7207 7.02246 12.7207 7.42676V9.21973H14.5225C14.9268 9.21973 15.2344 9.53613 15.2344 9.94043C15.2344 10.3359 14.9268 10.6611 14.5225 10.6611H12.7207V12.4453C12.7207 12.8408 12.4043 13.1572 12 13.1572C11.5957 13.166 11.2793 12.8408 11.2793 12.4453V10.6611H9.46875ZM9.49512 16.0488C9.08203 16.0488 8.75684 15.7148 8.75684 15.3369C8.75684 14.9326 9.08203 14.6074 9.49512 14.6074H14.4961C14.9092 14.6074 15.2344 14.9326 15.2344 15.3369C15.2344 15.7148 14.9092 16.0488 14.4961 16.0488H9.49512Z" fill="#1C1C1E"/>
</g>
<defs>
<clipPath id="clip0_10_2373">
<rect width="24" height="24" fill="white"/>
</clipPath>
</defs>
</svg>
