<svg width="24" height="24" viewBox="0 0 24 24" fill="none" xmlns="http://www.w3.org/2000/svg">
<g clip-path="url(#clip0_10_2376)">
<path d="M12.7207 12.0059L17.7041 4.63184C17.8359 4.43848 17.8975 4.27148 17.8975 4.06934C17.8975 3.65625 17.5459 3.34863 17.124 3.34863C16.7549 3.34863 16.5615 3.47168 16.2891 3.86719L11.3232 11.2676L6.30469 18.668C6.17285 18.8525 6.10254 19.0195 6.10254 19.248C6.10254 19.6875 6.47168 19.9688 6.91113 19.9688C7.25391 19.9688 7.44727 19.8369 7.70215 19.459L12.7207 12.0059ZM3.58887 7.76953C3.58887 8.17383 3.91406 8.49023 4.30957 8.49023H5.99707V10.1777C5.99707 10.5908 6.33105 10.9072 6.71777 10.8984C7.13086 10.8984 7.44727 10.582 7.44727 10.1777V8.49023H9.13477C9.53906 8.49023 9.85547 8.17383 9.85547 7.76953C9.85547 7.37402 9.53906 7.04883 9.13477 7.04883H7.44727V5.35254C7.44727 4.95703 7.12207 4.63184 6.71777 4.63184C6.32227 4.63184 5.99707 4.95703 5.99707 5.35254V7.04883H4.30957C3.91406 7.04883 3.58887 7.37402 3.58887 7.76953ZM14.1357 16.1367C14.1357 16.541 14.4609 16.8662 14.8564 16.8662H19.6816C20.0859 16.8662 20.4111 16.541 20.4111 16.1367C20.4111 15.7412 20.0859 15.416 19.6816 15.416H14.8564C14.4609 15.416 14.1357 15.7412 14.1357 16.1367Z" fill="#1C1C1E"/>
</g>
<defs>
<clipPath id="clip0_10_2376">
<rect width="24" height="24" fill="white"/>
</clipPath>
</defs>
</svg>
