<svg width="24" height="24" viewBox="0 0 24 24" fill="none" xmlns="http://www.w3.org/2000/svg">
<g clip-path="url(#clip0_10_2377)">
<path d="M6.67383 19.8809H17.3174C19.2246 19.8809 20.209 18.8965 20.209 17.0156V6.31934C20.209 4.43848 19.2246 3.4541 17.3174 3.4541H6.67383C4.77539 3.4541 3.78223 4.42969 3.78223 6.31934V17.0156C3.78223 18.8965 4.77539 19.8809 6.67383 19.8809ZM7.77246 11.6631C7.77246 11.1445 8.1416 10.7842 8.65137 10.7842H11.1562V8.2793C11.1562 7.76953 11.5078 7.40918 12.0176 7.40918C12.5273 7.40918 12.8965 7.76953 12.8965 8.2793V10.7842H15.4014C15.9023 10.7842 16.2715 11.1445 16.2715 11.6631C16.2715 12.1641 15.9023 12.5244 15.4014 12.5244H12.8965V15.0293C12.8965 15.5303 12.5273 15.8994 12.0176 15.8994C11.5078 15.8994 11.1562 15.5303 11.1562 15.0293V12.5244H8.65137C8.1416 12.5244 7.77246 12.1641 7.77246 11.6631Z" fill="#1C1C1E"/>
</g>
<defs>
<clipPath id="clip0_10_2377">
<rect width="24" height="24" fill="white"/>
</clipPath>
</defs>
</svg>
