<svg width="24" height="24" viewBox="0 0 24 24" fill="none" xmlns="http://www.w3.org/2000/svg">
<g clip-path="url(#clip0_10_2388)">
<path d="M6.51562 9.34277C6.51562 9.90527 6.94629 10.3447 7.51758 10.3447H10.9893V13.7109C10.9893 14.2734 11.4287 14.7041 11.9912 14.7041C12.5625 14.7041 12.9932 14.2734 12.9932 13.7109V10.3447H16.4824C17.0449 10.3447 17.4844 9.90527 17.4844 9.34277C17.4844 8.77148 17.0449 8.34082 16.4824 8.34082H12.9932V4.99219C12.9932 4.43848 12.5625 4.00781 11.9912 4.00781C11.4287 4.00781 10.9893 4.43848 10.9893 4.99219V8.34082H7.51758C6.94629 8.34082 6.51562 8.77148 6.51562 9.34277ZM6.51562 18.3076C6.51562 18.8789 6.95508 19.3096 7.51758 19.3096H16.4824C17.0449 19.3096 17.4844 18.8789 17.4844 18.3076C17.4844 17.7363 17.0449 17.3057 16.4824 17.3057H7.51758C6.95508 17.3057 6.51562 17.7363 6.51562 18.3076Z" fill="#1C1C1E"/>
</g>
<defs>
<clipPath id="clip0_10_2388">
<rect width="24" height="24" fill="white"/>
</clipPath>
</defs>
</svg>
