<svg width="24" height="24" viewBox="0 0 24 24" fill="none" xmlns="http://www.w3.org/2000/svg">
<g clip-path="url(#clip0_10_2382)">
<path d="M11.9912 20.7422C16.9746 20.7422 21.0879 16.6289 21.0879 11.6543C21.0879 6.67969 16.9658 2.56641 11.9824 2.56641C7.00781 2.56641 2.90332 6.67969 2.90332 11.6543C2.90332 16.6289 7.0166 20.7422 11.9912 20.7422ZM11.9912 18.9316C7.95703 18.9316 4.73145 15.6885 4.73145 11.6543C4.73145 7.62012 7.95703 4.38574 11.9824 4.38574C16.0166 4.38574 19.2598 7.62012 19.2686 11.6543C19.2773 15.6885 16.0254 18.9316 11.9912 18.9316ZM9.56543 10.6699H11.3145V12.3926C11.3145 12.7705 11.6133 13.0781 12 13.0781C12.3867 13.0781 12.6855 12.7793 12.6855 12.4014V10.6699H14.4258C14.8125 10.6699 15.1113 10.3711 15.1113 9.98438C15.1113 9.59766 14.8125 9.29883 14.4258 9.29883H12.6855V7.57617C12.6855 7.18945 12.3867 6.89062 12 6.89062C11.6133 6.89062 11.3145 7.18945 11.3145 7.57617V9.29883H9.56543C9.17871 9.29883 8.87988 9.59766 8.87988 9.98438C8.87988 10.3711 9.17871 10.6699 9.56543 10.6699ZM9.5918 15.8643H14.3994C14.7949 15.8643 15.1113 15.5391 15.1113 15.1787C15.1113 14.8008 14.7949 14.4844 14.3994 14.4844H9.5918C9.19629 14.4844 8.87988 14.8008 8.87988 15.1787C8.87988 15.5391 9.19629 15.8643 9.5918 15.8643Z" fill="#1C1C1E"/>
</g>
<defs>
<clipPath id="clip0_10_2382">
<rect width="24" height="24" fill="white"/>
</clipPath>
</defs>
</svg>
