<svg width="24" height="24" viewBox="0 0 24 24" fill="none" xmlns="http://www.w3.org/2000/svg">
<g clip-path="url(#clip0_10_2345)">
<path d="M8.20312 19.749H16.21C16.8076 19.749 17.2207 19.3799 17.2207 18.8086C17.2207 18.2461 16.8076 17.8682 16.21 17.8682H9.23145V17.7803L13.6875 12.6475C14.0127 12.3223 14.1797 11.9619 14.1797 11.5928C14.1797 11.2236 14.0127 10.8545 13.6875 10.5381L9.24023 5.53711V5.44922H16.21C16.8164 5.44922 17.2295 5.07129 17.2295 4.50879C17.2295 3.9375 16.8164 3.56836 16.21 3.56836H8.2207C7.28906 3.56836 6.7793 4.21875 6.7793 4.93066C6.7793 5.33496 6.94629 5.75684 7.28906 6.09082L12.1846 11.5312V11.6367L7.28027 17.2266C6.9375 17.5605 6.77051 17.9824 6.77051 18.3867C6.77051 19.0986 7.28027 19.749 8.20312 19.749Z" fill="#1C1C1E"/>
</g>
<defs>
<clipPath id="clip0_10_2345">
<rect width="24" height="24" fill="white"/>
</clipPath>
</defs>
</svg>
