<svg width="24" height="24" viewBox="0 0 24 24" fill="none" xmlns="http://www.w3.org/2000/svg">
<g clip-path="url(#clip0_10_2344)">
<path d="M5.98828 19.4326C7.02539 19.4326 7.54395 18.7734 7.84277 17.8682L11.666 5.73926H20.6221C21.2373 5.73926 21.6504 5.34375 21.6504 4.75488C21.6504 4.1748 21.2373 3.78809 20.6221 3.78809H11.6133C10.5146 3.78809 10.0225 4.20996 9.72363 5.17676L6.11133 17.0156H5.92676L4.35352 11.4785C4.19531 10.9072 3.8877 10.626 3.35156 10.626C2.7627 10.626 2.34961 11.0391 2.34961 11.584C2.34961 11.7949 2.39355 11.9707 2.45508 12.1641L4.23047 17.9385C4.51172 18.8262 5.02148 19.4326 5.98828 19.4326ZM13.3535 17.7715C13.7227 17.7715 13.916 17.6396 14.2061 17.2266L16.0605 14.5547H16.1045L17.9502 17.2266C18.2314 17.6396 18.4336 17.7715 18.8027 17.7715C19.3037 17.7715 19.6641 17.4375 19.6641 16.9629C19.6641 16.7432 19.6025 16.5586 19.4355 16.3564L17.2207 13.3506L19.4531 10.3359C19.6201 10.1162 19.6816 9.93164 19.6816 9.7207C19.6816 9.27246 19.3301 8.93848 18.8467 8.93848C18.4775 8.93848 18.2666 9.07031 18.0117 9.45703L16.2275 12.1465H16.1748L14.3291 9.45703C14.0654 9.06152 13.8545 8.93848 13.4766 8.93848C12.9932 8.93848 12.6152 9.29004 12.6152 9.75586C12.6152 9.99316 12.6768 10.1602 12.8613 10.3975L14.9883 13.3154L12.7471 16.3916C12.5889 16.6113 12.5273 16.7607 12.5273 16.998C12.5273 17.4375 12.8789 17.7715 13.3535 17.7715Z" fill="#1C1C1E"/>
</g>
<defs>
<clipPath id="clip0_10_2344">
<rect width="24" height="24" fill="white"/>
</clipPath>
</defs>
</svg>
