<svg width="24" height="24" viewBox="0 0 24 24" fill="none" xmlns="http://www.w3.org/2000/svg">
<g clip-path="url(#clip0_10_1109)">
<path d="M2.46387 14.9854C2.46387 18.0879 4.4502 20.6279 6.99902 20.6279H9.89062C11.0771 21.2344 12.4834 21.5859 14.0303 21.5859H15.2607C16.4033 21.5859 17.3789 21.5156 18.0117 21.3574C19.3037 21.0322 20.1211 20.1182 20.1211 18.9668C20.1211 18.7559 20.0947 18.5713 20.0332 18.3779C20.6396 17.9121 20.9824 17.2178 20.9824 16.4619C20.9824 16.1104 20.9121 15.7676 20.7891 15.4775C21.1934 15.0469 21.4307 14.4316 21.4307 13.79C21.4307 13.3594 21.3252 12.9375 21.1494 12.6035C21.3955 12.2256 21.5361 11.7246 21.5361 11.1797C21.5361 9.77344 20.4639 8.69238 19.0752 8.69238H15.8057C15.6211 8.69238 15.498 8.60449 15.5068 8.4375C15.5508 7.52344 16.9746 5.35254 16.9746 3.56836C16.9746 2.25879 16.0518 1.30078 14.7773 1.30078C13.8545 1.30078 13.2217 1.78418 12.6152 2.93555C11.5254 5.04492 10.1982 6.89062 8.23828 9.29883H6.66504C4.27441 9.29883 2.46387 11.8301 2.46387 14.9854ZM7.93945 14.915C7.93945 13.0518 8.35254 11.8564 9.54785 10.2656C10.875 8.48145 12.7207 6.3457 14.0479 3.69141C14.3291 3.1377 14.5225 2.99707 14.8037 2.99707C15.1377 2.99707 15.3574 3.24316 15.3574 3.66504C15.3574 4.96582 13.8633 7.14551 13.8633 8.56934C13.8633 9.63281 14.7158 10.3096 15.876 10.3096H19.0312C19.541 10.3096 19.9189 10.6963 19.9189 11.2061C19.9189 11.5664 19.8047 11.8037 19.4971 12.1025C19.2686 12.3311 19.2334 12.665 19.4355 12.9023C19.6904 13.2539 19.7959 13.4912 19.7959 13.79C19.7959 14.1504 19.6289 14.458 19.2773 14.7129C18.9785 14.9326 18.873 15.2842 19.0488 15.6357C19.2334 15.9961 19.3301 16.1719 19.3301 16.4531C19.3301 16.875 19.0576 17.1914 18.5127 17.4814C18.2227 17.6396 18.1436 17.9561 18.2666 18.2285C18.4512 18.6768 18.4775 18.7646 18.4688 18.958C18.4688 19.3359 18.1963 19.6348 17.6074 19.7842C17.0889 19.9072 16.2627 19.9688 15.1729 19.96L14.0391 19.9512C10.4004 19.916 7.93945 17.8682 7.93945 14.915ZM4.06348 14.9854C4.06348 12.7529 5.20605 10.9688 6.52441 10.9072C6.75293 10.9072 6.98145 10.9072 7.20996 10.9072C6.58594 12.1201 6.31348 13.3945 6.31348 14.915C6.31348 16.5322 6.87598 17.9561 7.9043 19.0635C7.5791 19.0635 7.23633 19.0635 6.90234 19.0635C5.36426 19.002 4.06348 17.1914 4.06348 14.9854Z" fill="#1C1C1E"/>
</g>
<defs>
<clipPath id="clip0_10_1109">
<rect width="24" height="24" fill="white"/>
</clipPath>
</defs>
</svg>
