<svg width="24" height="24" viewBox="0 0 24 24" fill="none" xmlns="http://www.w3.org/2000/svg">
<g clip-path="url(#clip0_10_1102)">
<path d="M8.45801 18.29C8.45801 20.1885 9.43359 21.1816 11.3232 21.1816H20.6924C22.582 21.1816 23.5576 20.1885 23.5576 18.29V5.03613C23.5576 3.12891 22.582 2.13574 20.6924 2.13574H11.3232C9.43359 2.13574 8.45801 3.12891 8.45801 5.03613V18.29ZM10.207 18.1758V5.1416C10.207 4.33301 10.6289 3.89355 11.4814 3.89355H20.5342C21.3867 3.89355 21.8086 4.33301 21.8086 5.1416V18.1758C21.8086 18.9844 21.3867 19.4238 20.5342 19.4238H11.4814C10.6289 19.4238 10.207 18.9844 10.207 18.1758ZM11.2529 7.41797V15.1699C11.2529 15.5566 11.5166 15.75 11.8682 15.75C12.8174 15.75 15.2607 14.3438 15.2607 11.2939C15.2607 8.24414 12.8174 6.84668 11.8682 6.84668C11.5166 6.84668 11.2529 7.03125 11.2529 7.41797ZM0.670898 10.2744C0.196289 10.8105 0.503906 11.5312 1.20703 11.5312H2.70996V15.1348C2.70996 15.5918 3.07031 15.9258 3.52734 15.9258C3.97559 15.9258 4.33594 15.5918 4.33594 15.1348V11.5312H5.8125C6.55957 11.5312 6.83203 10.793 6.36621 10.2744L4.05469 7.64648C3.73828 7.29492 3.29004 7.29492 2.98242 7.64648L0.670898 10.2744ZM15.9463 11.2939C15.9463 12.5244 16.9922 13.5176 18.3809 13.5176C19.6816 13.5176 20.7627 12.5244 20.7627 11.2939C20.7627 10.0635 19.6816 9.07031 18.3809 9.07031C16.9922 9.07031 15.9551 10.0635 15.9463 11.2939Z" fill="#1C1C1E"/>
</g>
<defs>
<clipPath id="clip0_10_1102">
<rect width="24" height="24" fill="white"/>
</clipPath>
</defs>
</svg>
