<svg width="24" height="24" viewBox="0 0 24 24" fill="none" xmlns="http://www.w3.org/2000/svg">
<g clip-path="url(#clip0_10_1151)">
<path d="M8.45801 18.29C8.45801 20.1885 9.43359 21.1816 11.3232 21.1816H20.6924C22.582 21.1816 23.5576 20.1885 23.5576 18.29V5.03613C23.5576 3.12891 22.582 2.13574 20.6924 2.13574H11.3232C9.43359 2.13574 8.45801 3.12891 8.45801 5.03613V18.29ZM10.207 18.1758V5.1416C10.207 4.33301 10.6289 3.89355 11.4814 3.89355H20.5342C21.3867 3.89355 21.8086 4.33301 21.8086 5.1416V18.1758C21.8086 18.9844 21.3867 19.4238 20.5342 19.4238H11.4814C10.6289 19.4238 10.207 18.9844 10.207 18.1758ZM20.7627 7.41797C20.7627 7.03125 20.499 6.84668 20.1475 6.84668C19.1982 6.84668 16.7549 8.24414 16.7549 11.2939C16.7549 14.3438 19.1982 15.75 20.1475 15.75C20.499 15.75 20.7627 15.5566 20.7627 15.1699V7.41797ZM0.670898 10.2744C0.196289 10.8105 0.503906 11.5312 1.20703 11.5312H2.70996V15.1348C2.70996 15.5918 3.07031 15.9258 3.52734 15.9258C3.97559 15.9258 4.33594 15.5918 4.33594 15.1348V11.5312H5.8125C6.55957 11.5312 6.83203 10.793 6.36621 10.2744L4.05469 7.64648C3.73828 7.29492 3.29004 7.29492 2.98242 7.64648L0.670898 10.2744ZM16.0693 11.2939C16.0605 10.0635 15.0234 9.07031 13.6348 9.07031C12.334 9.07031 11.2529 10.0635 11.2529 11.2939C11.2529 12.5244 12.334 13.5176 13.6348 13.5176C15.0234 13.5176 16.0781 12.5244 16.0693 11.2939Z" fill="#1C1C1E"/>
</g>
<defs>
<clipPath id="clip0_10_1151">
<rect width="24" height="24" fill="white"/>
</clipPath>
</defs>
</svg>
