<svg width="24" height="24" viewBox="0 0 24 24" fill="none" xmlns="http://www.w3.org/2000/svg">
<g clip-path="url(#clip0_10_1058)">
<path d="M5.44336 16.1982C5.44336 18.7559 7.00781 20.3379 9.50391 20.3379C11.3584 20.3379 12.7383 19.4766 13.6084 17.8857L14.3906 16.4707C16.1045 13.3066 19.2246 12.6826 19.2246 8.30566C19.2246 4.12207 16.5 1.32715 12.4043 1.32715C8.24707 1.32715 5.44336 4.14844 5.44336 8.3584V16.1982ZM7.00781 16.1279V8.3584C7.00781 5.07129 9.16992 2.88281 12.4043 2.88281C15.5596 2.88281 17.6602 5.0625 17.6602 8.30566C17.6602 11.9268 14.8125 12.5508 12.9756 15.8203L12.2549 17.0771C11.6396 18.1846 10.7959 18.7471 9.57422 18.7471C7.97461 18.7471 7.00781 17.7539 7.00781 16.1279ZM8.89746 12.7969C9.29297 12.7969 9.60938 12.4805 9.60938 12.085V10.2832H11.6221C12.1846 10.2832 12.5537 10.6172 12.5537 11.127C12.5537 11.3994 12.4131 11.7422 12.2109 11.9883L11.2178 13.2363C11.0859 13.3945 11.0244 13.5703 11.0244 13.7373C11.0244 14.124 11.3496 14.4404 11.7363 14.4404C11.9561 14.4404 12.1582 14.3262 12.3164 14.1328L13.3975 12.7617C13.7666 12.2959 14.0039 11.6191 14.0039 11.0654C14.0039 9.74707 13.0459 8.86816 11.5957 8.86816H9.60938V8.31445C9.60938 6.68848 10.7168 5.625 12.3955 5.625C14.0303 5.625 15.085 6.67969 15.085 8.29688C15.085 8.68359 15.4102 9.00879 15.7969 9.00879C16.1836 9.00879 16.5088 8.68359 16.5088 8.29688C16.5088 5.84473 14.8652 4.20996 12.3955 4.20996C9.88184 4.20996 8.19434 5.85352 8.19434 8.31445V12.085C8.19434 12.4805 8.50195 12.7969 8.89746 12.7969Z" fill="#1C1C1E"/>
</g>
<defs>
<clipPath id="clip0_10_1058">
<rect width="24" height="24" fill="white"/>
</clipPath>
</defs>
</svg>
