<svg width="24" height="24" viewBox="0 0 24 24" fill="none" xmlns="http://www.w3.org/2000/svg">
<g clip-path="url(#clip0_10_1091)">
<path d="M5.44336 16.1982C5.44336 18.7559 7.00781 20.3379 9.50391 20.3379C11.3584 20.3379 12.7383 19.4766 13.6084 17.8857L14.3906 16.4707C16.1045 13.3066 19.2246 12.6826 19.2246 8.30566C19.2246 4.12207 16.5 1.32715 12.4043 1.32715C8.24707 1.32715 5.44336 4.14844 5.44336 8.3584V16.1982ZM8.00098 12.3486V8.07715C8.00098 5.59863 9.71484 3.92871 12.3955 3.92871C15.0322 3.92871 16.6934 5.58105 16.6934 8.05957C16.6934 8.44629 16.377 8.7627 15.999 8.7627C15.6123 8.7627 15.2959 8.44629 15.2959 8.05957C15.2959 6.40723 14.2061 5.32617 12.3955 5.32617C10.5322 5.32617 9.39844 6.41602 9.39844 8.07715V9.09668H11.7891C13.248 9.09668 14.2236 9.98438 14.2236 11.3115C14.2236 11.874 13.9775 12.5508 13.5996 13.0254L12.5098 14.4141C12.3516 14.6074 12.1494 14.7129 11.9385 14.7129C11.5605 14.7129 11.2441 14.4141 11.2441 14.0361C11.2441 13.8604 11.3057 13.6846 11.4287 13.5352L12.4307 12.2695C12.6504 12.0059 12.791 11.6543 12.791 11.373C12.791 10.8457 12.4043 10.4854 11.8154 10.4854H9.39844V12.3486C9.39844 12.7354 9.09082 13.043 8.7041 13.043C8.30859 13.043 8.00098 12.7354 8.00098 12.3486Z" fill="#1C1C1E"/>
</g>
<defs>
<clipPath id="clip0_10_1091">
<rect width="24" height="24" fill="white"/>
</clipPath>
</defs>
</svg>
