<svg width="24" height="24" viewBox="0 0 24 24" fill="none" xmlns="http://www.w3.org/2000/svg">
<g clip-path="url(#clip0_10_1077)">
<path d="M18.9346 19.4414C19.2158 19.7139 19.6465 19.7314 19.9277 19.4414C20.2178 19.1426 20.2002 18.7207 19.9277 18.4482L5.02148 3.55078C4.74902 3.27832 4.29199 3.26953 4.01953 3.55078C3.75586 3.81445 3.75586 4.27148 4.01953 4.53516L18.9346 19.4414ZM12.0088 4.05176C10.4707 4.05176 9.08203 4.31543 7.79004 4.74609L9.21387 6.16992C10.1016 5.92383 11.0156 5.77441 12.0088 5.77441C17.5986 5.77441 22.0371 10.6348 22.0371 11.6631C22.0371 12.3574 20.6309 14.1416 18.3896 15.5479L19.708 16.875C22.4678 15.0645 24.0762 12.7002 24.0762 11.6631C24.0762 9.86133 19.2246 4.05176 12.0088 4.05176ZM12.0088 19.2832C13.626 19.2832 15.1113 19.002 16.4561 18.5361L15.0322 17.1123C14.083 17.3936 13.0811 17.5605 12.0088 17.5605C6.40137 17.5605 1.96289 12.8936 1.96289 11.6631C1.96289 11.0742 3.44824 9.18457 5.83008 7.70801L4.48535 6.36328C1.62012 8.19141 -0.0761719 10.6172 -0.0761719 11.6631C-0.0761719 13.4648 4.88086 19.2832 12.0088 19.2832ZM16.377 13.3418C16.6055 12.832 16.7285 12.252 16.7285 11.6631C16.7285 9.03516 14.6279 6.95215 12.0088 6.95215C11.4023 6.95215 10.8398 7.0752 10.3213 7.28613L16.377 13.3418ZM12.0088 16.3828C12.6768 16.3828 13.3096 16.2246 13.8809 15.9521L7.70215 9.77344C7.4209 10.3447 7.27148 10.9863 7.27148 11.6719C7.28027 14.2295 9.37207 16.3828 12.0088 16.3828Z" fill="#1C1C1E"/>
</g>
<defs>
<clipPath id="clip0_10_1077">
<rect width="24" height="24" fill="white"/>
</clipPath>
</defs>
</svg>
