<svg width="24" height="24" viewBox="0 0 24 24" fill="none" xmlns="http://www.w3.org/2000/svg">
<g clip-path="url(#clip0_10_1067)">
<path d="M11.9912 20.7598C16.9746 20.7598 21.0879 16.6465 21.0879 11.6631C21.0879 6.68848 16.9658 2.5752 11.9824 2.5752C7.00781 2.5752 2.90332 6.68848 2.90332 11.6631C2.90332 16.6465 7.0166 20.7598 11.9912 20.7598ZM11.9912 15.627C8.28223 15.627 5.69824 12.6035 5.69824 11.6719C5.69824 10.7402 8.26465 7.70801 11.9912 7.70801C15.7266 7.70801 18.2754 10.7402 18.2754 11.6719C18.2754 12.6035 15.7354 15.627 11.9912 15.627ZM11.9912 14.2383C13.4062 14.2383 14.5576 13.0693 14.5576 11.6719C14.5576 10.2393 13.4062 9.10547 11.9912 9.10547C10.5586 9.10547 9.40723 10.2393 9.40723 11.6719C9.40723 13.0693 10.5586 14.2383 11.9912 14.2383ZM12 12.7969C11.376 12.7969 10.8574 12.2783 10.8574 11.6719C10.8574 11.0654 11.376 10.5469 12 10.5469C12.5977 10.5469 13.1162 11.0654 13.1162 11.6719C13.1162 12.2783 12.5977 12.7969 12 12.7969Z" fill="#1C1C1E"/>
</g>
<defs>
<clipPath id="clip0_10_1067">
<rect width="24" height="24" fill="white"/>
</clipPath>
</defs>
</svg>
