<svg width="24" height="24" viewBox="0 0 24 24" fill="none" xmlns="http://www.w3.org/2000/svg">
<g clip-path="url(#clip0_10_1084)">
<path d="M12 19.2041C19.1367 19.2041 23.9531 13.4473 23.9531 11.6631C23.9531 9.8877 19.1279 4.13086 12 4.13086C4.96875 4.13086 0.046875 9.8877 0.046875 11.6631C0.046875 13.4473 4.95996 19.2041 12 19.2041ZM12.0088 16.4619C9.32812 16.4619 7.19238 14.2734 7.18359 11.6719C7.1748 8.98242 9.32812 6.87305 12.0088 6.87305C14.6719 6.87305 16.8252 8.99121 16.8252 11.6719C16.8252 14.2734 14.6719 16.4619 12.0088 16.4619ZM12.0088 13.4561C12.9932 13.4561 13.8105 12.6475 13.8105 11.6719C13.8105 10.6875 12.9932 9.87012 12.0088 9.87012C11.0068 9.87012 10.1982 10.6875 10.1982 11.6719C10.1982 12.6475 11.0068 13.4561 12.0088 13.4561Z" fill="#1C1C1E"/>
</g>
<defs>
<clipPath id="clip0_10_1084">
<rect width="24" height="24" fill="white"/>
</clipPath>
</defs>
</svg>
