<svg width="24" height="24" viewBox="0 0 24 24" fill="none" xmlns="http://www.w3.org/2000/svg">
<g clip-path="url(#clip0_10_1080)">
<path d="M11.9912 20.7422C16.9746 20.7422 21.0879 16.6289 21.0879 11.6543C21.0879 6.67969 16.9658 2.56641 11.9824 2.56641C7.00781 2.56641 2.90332 6.67969 2.90332 11.6543C2.90332 16.6289 7.0166 20.7422 11.9912 20.7422ZM11.9912 18.9316C7.95703 18.9316 4.73145 15.6885 4.73145 11.6543C4.73145 7.62012 7.95703 4.38574 11.9824 4.38574C16.0166 4.38574 19.2598 7.62012 19.2686 11.6543C19.2773 15.6885 16.0254 18.9316 11.9912 18.9316ZM11.9912 15.4688C15.5859 15.4688 18.0293 12.5684 18.0293 11.6631C18.0293 10.7666 15.5859 7.85742 11.9912 7.85742C8.40527 7.85742 5.93555 10.7666 5.93555 11.6631C5.93555 12.5684 8.42285 15.4688 11.9912 15.4688ZM11.9912 14.1328C10.6201 14.1328 9.5127 13.0078 9.50391 11.6631C9.50391 10.292 10.6201 9.19336 11.9912 9.19336C13.3535 9.19336 14.4609 10.292 14.4609 11.6631C14.4609 13.0078 13.3535 14.1328 11.9912 14.1328ZM12 12.7441C12.5801 12.7441 13.0723 12.2432 13.0723 11.6631C13.0723 11.083 12.5801 10.582 12 10.582C11.3936 10.582 10.9014 11.083 10.9014 11.6631C10.9014 12.2432 11.3936 12.7441 12 12.7441Z" fill="#1C1C1E"/>
</g>
<defs>
<clipPath id="clip0_10_1080">
<rect width="24" height="24" fill="white"/>
</clipPath>
</defs>
</svg>
