<svg width="24" height="24" viewBox="0 0 24 24" fill="none" xmlns="http://www.w3.org/2000/svg">
<g clip-path="url(#clip0_10_1085)">
<path d="M12.0088 19.2832C19.2246 19.2832 24.0762 13.4648 24.0762 11.6631C24.0762 9.86133 19.207 4.05176 12.0088 4.05176C4.89844 4.05176 -0.0761719 9.86133 -0.0761719 11.6631C-0.0761719 13.4648 4.88086 19.2832 12.0088 19.2832ZM12.0088 17.5605C6.40137 17.5605 1.96289 12.8936 1.96289 11.6631C1.96289 10.6348 6.40137 5.77441 12.0088 5.77441C17.5898 5.77441 22.0371 10.6348 22.0371 11.6631C22.0371 12.8936 17.5898 17.5605 12.0088 17.5605ZM12.0088 16.3828C14.6279 16.3828 16.7285 14.2295 16.7285 11.6631C16.7285 9.03516 14.6279 6.95215 12.0088 6.95215C9.37207 6.95215 7.2627 9.03516 7.27148 11.6631C7.28906 14.2295 9.37207 16.3828 12.0088 16.3828ZM12 13.1836C11.1562 13.1836 10.4707 12.498 10.4707 11.6631C10.4707 10.8281 11.1562 10.1426 12 10.1426C12.8438 10.1426 13.5293 10.8281 13.5293 11.6631C13.5293 12.498 12.8438 13.1836 12 13.1836Z" fill="#1C1C1E"/>
</g>
<defs>
<clipPath id="clip0_10_1085">
<rect width="24" height="24" fill="white"/>
</clipPath>
</defs>
</svg>
