<svg width="24" height="24" viewBox="0 0 24 24" fill="none" xmlns="http://www.w3.org/2000/svg">
<g clip-path="url(#clip0_10_1072)">
<path d="M3.63281 7.08398C1.93652 7.97168 2.81543 11.0039 4.72266 11.0039C6.41895 11.0039 12.123 6.94336 14.7773 6.94336C15.709 6.94336 16.5176 7.32129 17.3877 8.1123L19.6465 10.1865C20.4727 10.9424 21.6768 10.0459 21.123 9.12305C20.7275 8.48145 20.1562 7.62012 18.8291 6.14355C17.3438 4.50879 16.043 3.55078 14.0391 3.55078C11.4902 3.55078 7.45605 5.08887 3.63281 7.08398ZM19.3477 14.7217C20.2002 13.8076 18.917 12.5332 17.959 13.4824C16.8252 14.6074 14.8916 15.293 12.7559 15.293C10.3916 15.293 8.15039 14.748 5.98828 13.5703C4.81055 12.9375 3.94922 14.625 5.15332 15.2666C5.56641 15.4863 5.98828 15.6885 6.41016 15.873C6.18164 16.2686 5.88281 16.708 5.63672 16.9629C4.88965 17.7451 6.00586 18.7295 6.74414 17.9209C7.16602 17.4639 7.53516 16.8398 7.78125 16.3828C8.36133 16.5762 8.9502 16.7256 9.53906 16.8486C9.38086 17.5078 9.1875 18.1055 9.05566 18.4043C8.61621 19.3975 10.0049 19.9512 10.4268 18.9229C10.6553 18.3516 10.8311 17.6045 10.9277 17.0684C11.5342 17.1387 12.1494 17.1738 12.7559 17.1738C12.8438 17.1738 12.9229 17.1738 13.0107 17.165C13.0547 17.8154 13.0283 18.4307 13.0107 18.7383C12.9404 19.8281 14.4434 19.8633 14.4697 18.7559C14.4873 18.2197 14.4434 17.5781 14.3906 17.0596C15.0762 16.9629 15.7266 16.8047 16.3418 16.5938C16.6318 17.3145 16.7285 17.9473 16.79 18.2637C16.9834 19.3359 18.4512 18.8789 18.2139 17.9121C18.0469 17.2266 17.8535 16.5586 17.625 16.0312C18.293 15.6709 18.873 15.2314 19.3477 14.7217Z" fill="#1C1C1E"/>
</g>
<defs>
<clipPath id="clip0_10_1072">
<rect width="24" height="24" fill="white"/>
</clipPath>
</defs>
</svg>
