<svg width="24" height="24" viewBox="0 0 24 24" fill="none" xmlns="http://www.w3.org/2000/svg">
<g clip-path="url(#clip0_10_1073)">
<path d="M6.35742 3.66504C3.79102 3.66504 1.77832 6.46875 1.51465 10.7051C1.93652 9.90527 2.72754 9.42188 3.76465 9.42188C5.32031 9.42188 6.33984 10.5029 6.33984 12.1113C6.33984 13.7373 5.32031 14.8096 3.76465 14.8096C2.82422 14.8096 2.06836 14.4141 1.62891 13.7285C2.14746 17.332 4.01953 19.6523 6.35742 19.6523C9.1084 19.6523 11.2266 16.418 11.2266 11.6543C11.2266 6.89062 9.1084 3.66504 6.35742 3.66504ZM17.6074 3.66504C15.0498 3.66504 13.0371 6.46875 12.7646 10.7051C13.1865 9.90527 13.9863 9.42188 15.0146 9.42188C16.5703 9.42188 17.5898 10.5029 17.5898 12.1113C17.5898 13.7373 16.5703 14.8096 15.0146 14.8096C14.0742 14.8096 13.3271 14.4141 12.8789 13.7285C13.3975 17.332 15.2695 19.6523 17.6074 19.6523C20.3584 19.6523 22.4766 16.418 22.4766 11.6543C22.4766 6.89062 20.3584 3.66504 17.6074 3.66504ZM3.05273 11.7949C3.36914 11.8564 3.66797 11.5664 3.74707 11.1621C3.82617 10.7754 3.63281 10.3887 3.29883 10.3271C2.99121 10.2744 2.66602 10.5557 2.5957 10.96C2.52539 11.3643 2.72754 11.7334 3.05273 11.7949ZM14.3027 11.7949C14.6191 11.8564 14.9268 11.5664 15.0059 11.1621C15.0762 10.7754 14.8828 10.3799 14.5576 10.3271C14.25 10.2744 13.916 10.5557 13.8457 10.96C13.7754 11.3643 13.9863 11.7334 14.3027 11.7949Z" fill="#1C1C1E"/>
</g>
<defs>
<clipPath id="clip0_10_1073">
<rect width="24" height="24" fill="white"/>
</clipPath>
</defs>
</svg>
