<svg width="24" height="24" viewBox="0 0 24 24" fill="none" xmlns="http://www.w3.org/2000/svg">
<g clip-path="url(#clip0_10_1074)">
<path d="M6.38379 19.8281C9.20508 19.8281 11.3672 16.5234 11.3672 11.6543C11.3672 6.77637 9.20508 3.48926 6.38379 3.48926C3.5625 3.48926 1.40039 6.77637 1.40039 11.6543C1.40039 16.5234 3.5625 19.8281 6.38379 19.8281ZM17.6074 19.8281C20.4287 19.8281 22.5908 16.5234 22.5908 11.6543C22.5908 6.77637 20.4287 3.48926 17.6074 3.48926C14.7949 3.48926 12.624 6.77637 12.624 11.6543C12.624 16.5234 14.7949 19.8281 17.6074 19.8281ZM4.61719 14.6777C6.09375 14.6777 7.07812 13.6582 7.07812 12.1113C7.07812 10.582 6.09375 9.54492 4.61719 9.54492C4.01074 9.54492 3.49219 9.7207 3.08789 10.0283C3.43945 7.02246 4.79297 5.0625 6.38379 5.05371C8.26465 5.04492 9.79395 7.7168 9.79395 11.6543C9.79395 15.5654 8.26465 18.2549 6.38379 18.2637C4.97754 18.2725 3.76465 16.752 3.25488 14.3174C3.63281 14.5547 4.08984 14.6777 4.61719 14.6777ZM15.8408 14.6777C17.3086 14.6777 18.3018 13.6582 18.3018 12.1113C18.3018 10.582 17.3086 9.54492 15.8408 9.54492C15.2256 9.54492 14.707 9.7207 14.2939 10.0283C14.6543 7.02246 16.0078 5.0625 17.6074 5.0625C19.4795 5.0625 21.0088 7.73438 21.0088 11.6543C21.0088 15.5742 19.4795 18.2549 17.6074 18.2549C16.2012 18.2549 14.9795 16.7432 14.4697 14.3174C14.8477 14.5547 15.3135 14.6777 15.8408 14.6777ZM3.92285 11.8037C3.61523 11.751 3.41309 11.3818 3.4834 10.9951C3.5625 10.6084 3.87012 10.3359 4.16895 10.3887C4.48535 10.4502 4.66992 10.8193 4.59082 11.1973C4.52051 11.584 4.23047 11.8564 3.92285 11.8037ZM15.1465 11.8037C14.8301 11.7422 14.6367 11.3818 14.707 10.9951C14.7861 10.6084 15.0762 10.3359 15.3838 10.3887C15.709 10.4414 15.8936 10.8193 15.8145 11.1973C15.7354 11.584 15.4541 11.8564 15.1465 11.8037Z" fill="#1C1C1E"/>
</g>
<defs>
<clipPath id="clip0_10_1074">
<rect width="24" height="24" fill="white"/>
</clipPath>
</defs>
</svg>
