<svg width="24" height="24" viewBox="0 0 24 24" fill="none" xmlns="http://www.w3.org/2000/svg">
<g clip-path="url(#clip0_10_1057)">
<path d="M11.9912 20.7422C16.9746 20.7422 21.0879 16.6289 21.0879 11.6543C21.0879 6.67969 16.9658 2.56641 11.9824 2.56641C7.00781 2.56641 2.90332 6.67969 2.90332 11.6543C2.90332 16.6289 7.0166 20.7422 11.9912 20.7422ZM11.9912 18.9316C7.95703 18.9316 4.73145 15.6885 4.73145 11.6543C4.73145 7.62012 7.95703 4.38574 11.9824 4.38574C16.0166 4.38574 19.2598 7.62012 19.2686 11.6543C19.2773 15.6885 16.0254 18.9316 11.9912 18.9316ZM9.44238 10.8457C9.96094 10.8457 10.4004 10.3887 10.4004 9.74707C10.4004 9.10547 9.96094 8.64844 9.44238 8.64844C8.93262 8.64844 8.50195 9.10547 8.50195 9.74707C8.50195 10.3887 8.93262 10.8457 9.44238 10.8457ZM14.5664 10.8457C15.085 10.8457 15.5244 10.3887 15.5244 9.74707C15.5244 9.10547 15.085 8.64844 14.5664 8.64844C14.0479 8.64844 13.626 9.10547 13.626 9.74707C13.626 10.3887 14.0479 10.8457 14.5664 10.8457ZM8.90625 14.1592C8.90625 14.748 10.1455 15.9697 11.9824 15.9697C13.8281 15.9697 15.0674 14.748 15.0674 14.1592C15.0674 13.9482 14.8564 13.8428 14.6631 13.9395C14.0215 14.2734 13.2656 14.6689 11.9824 14.6689C10.708 14.6689 9.95215 14.2734 9.31055 13.9395C9.11719 13.8428 8.90625 13.9482 8.90625 14.1592Z" fill="#1C1C1E"/>
</g>
<defs>
<clipPath id="clip0_10_1057">
<rect width="24" height="24" fill="white"/>
</clipPath>
</defs>
</svg>
