<svg width="24" height="24" viewBox="0 0 24 24" fill="none" xmlns="http://www.w3.org/2000/svg">
<g clip-path="url(#clip0_10_1055)">
<path d="M11.9912 20.7422C16.9746 20.7422 21.0879 16.6289 21.0879 11.6543C21.0879 6.67969 16.9658 2.56641 11.9824 2.56641C7.00781 2.56641 2.90332 6.67969 2.90332 11.6543C2.90332 16.6289 7.0166 20.7422 11.9912 20.7422ZM9.33691 10.793C8.79199 10.793 8.34375 10.3096 8.34375 9.6416C8.34375 8.95605 8.79199 8.48145 9.33691 8.48145C9.87305 8.48145 10.3301 8.95605 10.3301 9.6416C10.3301 10.3096 9.87305 10.793 9.33691 10.793ZM14.6807 10.793C14.1357 10.793 13.6963 10.3096 13.6963 9.6416C13.6963 8.95605 14.1357 8.48145 14.6807 8.48145C15.2168 8.48145 15.6826 8.95605 15.6826 9.6416C15.6826 10.3096 15.2168 10.793 14.6807 10.793ZM8.76562 14.2383C8.76562 14.0186 8.98535 13.9131 9.19629 14.0098C9.86426 14.3613 10.6465 14.7656 11.9824 14.7656C13.3271 14.7656 14.1094 14.3525 14.7773 14.0098C14.9795 13.9131 15.208 14.0186 15.208 14.2383C15.208 14.8535 13.916 16.1367 11.9824 16.1367C10.0576 16.1367 8.76562 14.8535 8.76562 14.2383Z" fill="#1C1C1E"/>
</g>
<defs>
<clipPath id="clip0_10_1055">
<rect width="24" height="24" fill="white"/>
</clipPath>
</defs>
</svg>
