<svg width="24" height="24" viewBox="0 0 24 24" fill="none" xmlns="http://www.w3.org/2000/svg">
<g clip-path="url(#clip0_10_1098)">
<path d="M11.9824 4.37695C12.7471 4.37695 13.4766 4.5 14.1621 4.71094L14.8564 3.04102C13.9512 2.7334 12.9844 2.56641 11.9824 2.56641C10.9893 2.56641 10.0137 2.7334 9.1084 3.04102L9.81152 4.71094C10.4971 4.5 11.2266 4.37695 11.9824 4.37695ZM18.4424 8.28809L20.1035 7.59375C19.2246 5.84473 17.792 4.4209 16.043 3.5332L15.3574 5.20312C16.6758 5.87988 17.7568 6.96094 18.4424 8.28809ZM8.61621 5.20312L7.92188 3.54199C6.18164 4.4209 4.74902 5.85352 3.87012 7.59375L5.54004 8.28809C6.22559 6.96973 7.29785 5.88867 8.61621 5.20312ZM9.44238 10.8457C9.96094 10.8457 10.4004 10.3887 10.4004 9.74707C10.4004 9.10547 9.96094 8.64844 9.44238 8.64844C8.93262 8.64844 8.50195 9.10547 8.50195 9.74707C8.50195 10.3887 8.93262 10.8457 9.44238 10.8457ZM14.5664 10.8457C15.085 10.8457 15.5244 10.3887 15.5244 9.74707C15.5244 9.10547 15.085 8.64844 14.5664 8.64844C14.0479 8.64844 13.626 9.10547 13.626 9.74707C13.626 10.3887 14.0479 10.8457 14.5664 10.8457ZM19.2686 11.6543C19.2686 12.4102 19.1455 13.1484 18.9434 13.834L20.6045 14.5283C20.9121 13.623 21.0879 12.6562 21.0879 11.6543C21.0879 10.6523 20.9121 9.68555 20.6045 8.78027L18.9346 9.47461C19.1543 10.1602 19.2686 10.8984 19.2686 11.6543ZM4.73145 11.6543C4.73145 10.8984 4.8457 10.1602 5.05664 9.4834L3.36914 8.78027C3.07031 9.68555 2.90332 10.6523 2.90332 11.6543C2.90332 12.6562 3.07031 13.6143 3.37793 14.5195L5.05664 13.8252C4.8457 13.1484 4.73145 12.4102 4.73145 11.6543ZM8.90625 14.1592C8.90625 14.748 10.1455 15.9697 11.9824 15.9697C13.8281 15.9697 15.0674 14.748 15.0674 14.1592C15.0674 13.9482 14.8564 13.8428 14.6631 13.9395C14.0215 14.2734 13.2656 14.6689 11.9824 14.6689C10.708 14.6689 9.95215 14.2734 9.31055 13.9395C9.11719 13.8428 8.90625 13.9482 8.90625 14.1592ZM15.3574 18.1055L16.043 19.7754C17.792 18.8877 19.2246 17.4551 20.1035 15.7148L18.4512 15.0205C17.7656 16.3477 16.6758 17.4199 15.3574 18.1055ZM5.54883 15.0205L3.87891 15.7148C4.75781 17.4551 6.18164 18.8877 7.93066 19.7666L8.61621 18.0967C7.29785 17.4111 6.22559 16.3389 5.54883 15.0205ZM11.9912 18.9229C11.2266 18.9229 10.4971 18.8086 9.81152 18.5889L9.11719 20.2676C10.0225 20.5752 10.998 20.7422 11.9912 20.7422C12.9932 20.7422 13.96 20.5752 14.8652 20.2764L14.1621 18.5977C13.4766 18.8086 12.7471 18.9229 11.9912 18.9229Z" fill="#1C1C1E"/>
</g>
<defs>
<clipPath id="clip0_10_1098">
<rect width="24" height="24" fill="white"/>
</clipPath>
</defs>
</svg>
