<svg width="24" height="24" viewBox="0 0 24 24" fill="none" xmlns="http://www.w3.org/2000/svg">
<g clip-path="url(#clip0_10_1121)">
<path d="M11.9912 20.7422C16.9746 20.7422 21.0879 16.6289 21.0879 11.6543C21.0879 6.67969 16.9658 2.56641 11.9824 2.56641C7.00781 2.56641 2.90332 6.67969 2.90332 11.6543C2.90332 16.6289 7.0166 20.7422 11.9912 20.7422ZM11.209 17.6133C10.8574 17.6133 10.6377 17.3936 10.6377 17.0068V10.1602C10.6377 9.94043 10.5586 9.78223 10.374 9.65039L9.06445 8.64844C8.77441 8.42871 8.64258 8.2002 8.61621 7.85742L8.49316 6.03809C8.4668 5.68652 8.66016 5.4668 8.98535 5.44922C9.30176 5.42285 9.50391 5.625 9.53027 5.96777L9.65332 7.80469L10.4531 8.38477C10.7432 8.5957 10.9365 8.66602 11.332 8.66602H12.0703C14.0742 8.66602 14.9619 9.11426 14.9619 10.7139V13.1748C14.9619 13.5176 14.7686 13.7285 14.4521 13.7285C14.1357 13.7285 13.9336 13.5176 13.9336 13.1748V10.5908C13.9336 10.415 13.8281 10.2832 13.6787 10.2832C13.5205 10.2832 13.4238 10.4062 13.4238 10.5908V17.0068C13.4238 17.3936 13.2217 17.6133 12.8613 17.6133C12.5098 17.6133 12.29 17.3936 12.29 17.0068V13.1572C12.29 12.9814 12.1846 12.8584 12.0264 12.8584C11.8682 12.8584 11.7715 12.9727 11.7715 13.1572V17.0068C11.7715 17.3936 11.5605 17.6133 11.209 17.6133ZM12.0703 8.09473C11.4551 8.09473 10.9277 7.57617 10.9277 6.96094C10.9277 6.31934 11.4375 5.80078 12.0703 5.80078C12.7119 5.80078 13.2305 6.31934 13.2305 6.96094C13.2305 7.56738 12.7031 8.09473 12.0703 8.09473Z" fill="#1C1C1E"/>
</g>
<defs>
<clipPath id="clip0_10_1121">
<rect width="24" height="24" fill="white"/>
</clipPath>
</defs>
</svg>
