<svg width="24" height="24" viewBox="0 0 24 24" fill="none" xmlns="http://www.w3.org/2000/svg">
<g clip-path="url(#clip0_10_1075)">
<path d="M12 5.44922C13.1689 5.44922 14.1094 4.48242 14.1094 3.34863C14.1094 2.17969 13.1689 1.23047 12 1.23047C10.8223 1.23047 9.89941 2.17969 9.89941 3.34863C9.89941 4.5 10.8223 5.44922 12 5.44922ZM7.22754 14.4053C7.22754 15.0293 7.58789 15.3809 8.12402 15.3809C8.64258 15.3809 9.01172 15.0293 9.01172 14.4053V10.1074C9.01172 9.8877 9.13477 9.73828 9.31934 9.73828C9.50391 9.73828 9.62695 9.8877 9.62695 10.1074V21.1201C9.62695 21.8057 10.0488 22.1836 10.6289 22.1836C11.2002 22.1836 11.6221 21.8057 11.6221 21.1201V14.6426C11.6221 14.3613 11.7715 14.1943 12 14.1943C12.2197 14.1943 12.3691 14.3613 12.3691 14.6426V21.1201C12.3691 21.8057 12.7998 22.1836 13.3711 22.1836C13.9424 22.1836 14.3643 21.8057 14.3643 21.1201V10.1074C14.3643 9.8877 14.4873 9.73828 14.6719 9.73828C14.8564 9.73828 14.9795 9.8877 14.9795 10.1074V14.4053C14.9795 15.0293 15.3486 15.3809 15.876 15.3809C16.4033 15.3809 16.7637 15.0293 16.7637 14.4053V10.0371C16.7637 7.6377 15.0762 6.32812 12 6.32812C8.91504 6.32812 7.22754 7.6377 7.22754 10.0371V14.4053Z" fill="#1C1C1E"/>
</g>
<defs>
<clipPath id="clip0_10_1075">
<rect width="24" height="24" fill="white"/>
</clipPath>
</defs>
</svg>
