<svg width="24" height="24" viewBox="0 0 24 24" fill="none" xmlns="http://www.w3.org/2000/svg">
<g clip-path="url(#clip0_10_1078)">
<path d="M11.9912 20.7422C16.9746 20.7422 21.0879 16.6289 21.0879 11.6543C21.0879 6.67969 16.9658 2.56641 11.9824 2.56641C7.00781 2.56641 2.90332 6.67969 2.90332 11.6543C2.90332 16.6289 7.0166 20.7422 11.9912 20.7422ZM11.9912 18.9316C7.95703 18.9316 4.73145 15.6885 4.73145 11.6543C4.73145 7.62012 7.95703 4.38574 11.9824 4.38574C16.0166 4.38574 19.2598 7.62012 19.2686 11.6543C19.2773 15.6885 16.0254 18.9316 11.9912 18.9316ZM11.1826 17.5342C11.5342 17.5342 11.7627 17.3145 11.7627 16.9102V13.4209C11.7627 13.2363 11.8418 13.1309 11.9912 13.1309C12.1143 13.1309 12.1934 13.2363 12.1934 13.4209V16.9102C12.1934 17.3145 12.4395 17.5342 12.7822 17.5342C13.1338 17.5342 13.3535 17.3145 13.3535 16.9102V10.8281C13.3535 10.6787 13.4414 10.582 13.5557 10.582C13.6699 10.582 13.749 10.6787 13.749 10.8281V13.2803C13.749 13.6406 13.9688 13.8516 14.2852 13.8516C14.5928 13.8516 14.8037 13.6406 14.8037 13.2803V10.9424C14.8037 9.4043 13.9424 8.96484 12 8.96484H11.2705C10.9189 8.96484 10.752 8.90332 10.4883 8.70996L9.74121 8.17383L9.62695 6.45996C9.60938 6.09082 9.37207 5.89746 9.06445 5.91504C8.74805 5.94141 8.5459 6.15234 8.57227 6.53027L8.67773 8.25293C8.7041 8.61328 8.87109 8.8418 9.12598 9.02637L10.374 9.97559C10.5322 10.0986 10.6025 10.2305 10.6025 10.4238V16.9102C10.6025 17.3145 10.8486 17.5342 11.1826 17.5342ZM12 8.46387C12.624 8.46387 13.1338 7.93652 13.1338 7.33887C13.1338 6.70605 12.624 6.19629 12 6.19629C11.3672 6.19629 10.8662 6.70605 10.8662 7.33887C10.8662 7.93652 11.3672 8.46387 12 8.46387Z" fill="#1C1C1E"/>
</g>
<defs>
<clipPath id="clip0_10_1078">
<rect width="24" height="24" fill="white"/>
</clipPath>
</defs>
</svg>
