<svg width="24" height="24" viewBox="0 0 24 24" fill="none" xmlns="http://www.w3.org/2000/svg">
<g clip-path="url(#clip0_10_1132)">
<path d="M11.9912 20.7422C16.9746 20.7422 21.0879 16.6289 21.0879 11.6543C21.0879 6.67969 16.9658 2.56641 11.9824 2.56641C7.00781 2.56641 2.90332 6.67969 2.90332 11.6543C2.90332 16.6289 7.0166 20.7422 11.9912 20.7422ZM11.9912 18.9316C7.95703 18.9316 4.73145 15.6885 4.73145 11.6543C4.73145 7.62012 7.95703 4.38574 11.9824 4.38574C16.0166 4.38574 19.2598 7.62012 19.2686 11.6543C19.2773 15.6885 16.0254 18.9316 11.9912 18.9316ZM12.4395 7.9541C13.0723 7.9541 13.582 7.43555 13.582 6.8291C13.582 6.19629 13.0723 5.68652 12.4395 5.68652C11.8154 5.68652 11.3232 6.19629 11.3232 6.8291C11.3232 7.43555 11.8154 7.9541 12.4395 7.9541ZM14.0039 16.8574C14.2939 16.8574 14.5576 16.6641 14.5576 16.3389C14.5576 16.207 14.5312 16.0928 14.4521 15.9434L13.4502 13.9395C13.3447 13.7109 13.2393 13.5703 13.1338 13.4209L12.5537 12.5771L12.6064 12.4365C12.791 11.918 12.8613 11.5752 12.8965 11.0654L12.9932 9.71191C13.0547 8.95605 12.6152 8.34961 11.7979 8.34961C11.2529 8.34961 10.7695 8.63086 10.2422 9.12305L9.4248 9.89648C9.15234 10.1514 9.08203 10.3623 9.04688 10.6963L8.9502 11.8477C8.91504 12.1992 9.12598 12.4277 9.45117 12.4541C9.75 12.4717 9.96973 12.2871 10.0049 11.9092L10.1016 10.6875L10.541 10.3271C10.6641 10.2305 10.7959 10.292 10.7871 10.459L10.6992 11.4873C10.6553 12.0586 10.9365 12.4805 11.2266 12.832L12.2109 14.0625C12.3076 14.1855 12.334 14.2383 12.3867 14.3438L13.459 16.5059C13.5732 16.7432 13.7666 16.8574 14.0039 16.8574ZM14.3027 11.4082H15.5068C15.876 11.4082 16.0957 11.1973 16.0957 10.8721C16.0957 10.5557 15.876 10.3447 15.5068 10.3447H14.2412L13.4414 9.45703L13.3447 10.8457L13.6699 11.1797C13.8457 11.3555 14.0039 11.4082 14.3027 11.4082ZM9.35449 16.8574C9.53027 16.8574 9.67969 16.7959 9.77637 16.6729L11.332 14.8535C11.5078 14.6514 11.5342 14.6162 11.5781 14.4316L11.6572 14.1064L10.7695 12.9814L10.5146 14.1855L9.08203 15.8555C8.96777 15.9873 8.84473 16.1367 8.84473 16.3477C8.84473 16.6553 9.06445 16.8574 9.35449 16.8574Z" fill="#1C1C1E"/>
</g>
<defs>
<clipPath id="clip0_10_1132">
<rect width="24" height="24" fill="white"/>
</clipPath>
</defs>
</svg>
