<svg width="24" height="24" viewBox="0 0 24 24" fill="none" xmlns="http://www.w3.org/2000/svg">
<g clip-path="url(#clip0_10_1146)">
<path d="M2.90332 13.6934L9.95215 20.751C11.3057 22.0957 12.6943 22.1045 14.0303 20.7686L21.1143 13.6846C22.4502 12.3486 22.4414 10.96 21.0967 9.60645L14.0479 2.55762C12.6943 1.2041 11.3057 1.19531 9.96973 2.54004L2.87695 9.62402C1.54102 10.96 1.5498 12.3486 2.90332 13.6934ZM4.22168 12.542C3.6416 11.9619 3.62402 11.3643 4.23047 10.7578L11.1035 3.88477C11.71 3.27832 12.2988 3.2959 12.8877 3.88477L19.7695 10.7666C20.3496 11.3467 20.3672 11.9443 19.7607 12.5508L12.8965 19.4238C12.29 20.0215 11.6836 20.0039 11.1035 19.4326L4.22168 12.542ZM12.4482 7.94531C13.0811 7.94531 13.5908 7.43555 13.5908 6.8291C13.5908 6.1875 13.0811 5.68652 12.4482 5.68652C11.8242 5.68652 11.332 6.1875 11.332 6.8291C11.332 7.43555 11.8242 7.94531 12.4482 7.94531ZM14.0127 16.8486C14.3027 16.8486 14.5664 16.6641 14.5664 16.3301C14.5664 16.1982 14.54 16.084 14.4609 15.9346L13.459 13.9307C13.3535 13.7109 13.248 13.5615 13.1426 13.4121L12.5625 12.5684L12.6064 12.4365C12.7998 11.9092 12.8701 11.5752 12.9053 11.0654L13.002 9.71191C13.0635 8.94727 12.624 8.34961 11.7979 8.34961C11.2617 8.34961 10.7783 8.62207 10.251 9.12305L9.43359 9.8877C9.16113 10.1426 9.09082 10.3535 9.05566 10.6963L8.95898 11.8389C8.92383 12.1904 9.13477 12.4277 9.45996 12.4453C9.75879 12.4717 9.97852 12.2871 10.0137 11.9004L10.1104 10.6875L10.5498 10.3184C10.6729 10.2217 10.8047 10.2832 10.7959 10.4502L10.708 11.4785C10.6641 12.0586 10.9453 12.4717 11.2354 12.8232L12.2197 14.0625C12.3076 14.1768 12.3428 14.2383 12.3955 14.335L13.4678 16.4971C13.582 16.7344 13.7754 16.8486 14.0127 16.8486ZM14.3115 11.3994H15.5156C15.8848 11.3994 16.1045 11.1885 16.1045 10.8633C16.1045 10.5557 15.8848 10.3359 15.5156 10.3359H14.25L13.4502 9.44824L13.3535 10.8457L13.6787 11.1709C13.8545 11.3467 14.0127 11.3994 14.3115 11.3994ZM9.36328 16.8574C9.53027 16.8574 9.68848 16.7871 9.78516 16.6641L11.3408 14.8447C11.5166 14.6426 11.543 14.6162 11.5869 14.4316L11.6572 14.1064L10.7695 12.9814L10.5234 14.1855L9.09082 15.8467C8.97656 15.9873 8.85352 16.1279 8.85352 16.3389C8.85352 16.6553 9.07324 16.8574 9.36328 16.8574Z" fill="#1C1C1E"/>
</g>
<defs>
<clipPath id="clip0_10_1146">
<rect width="24" height="24" fill="white"/>
</clipPath>
</defs>
</svg>
