<svg width="24" height="24" viewBox="0 0 24 24" fill="none" xmlns="http://www.w3.org/2000/svg">
<g clip-path="url(#clip0_10_1141)">
<path d="M2.90332 13.6934L9.95215 20.751C11.3057 22.0957 12.6943 22.1045 14.0303 20.7686L21.1143 13.6846C22.4502 12.3486 22.4414 10.96 21.0967 9.60645L14.0479 2.55762C12.6943 1.2041 11.3057 1.19531 9.96973 2.54004L2.87695 9.62402C1.54102 10.96 1.5498 12.3486 2.90332 13.6934ZM12.4482 7.72559C11.833 7.72559 11.3145 7.21582 11.3145 6.5918C11.3145 5.9502 11.8242 5.43164 12.4482 5.43164C13.0898 5.43164 13.5996 5.9502 13.5996 6.5918C13.5996 7.20703 13.0811 7.72559 12.4482 7.72559ZM14.0918 17.0859C13.8545 17.0859 13.6787 16.9629 13.5645 16.7344L12.4395 14.4668C12.3779 14.3613 12.334 14.291 12.2373 14.1768L11.2002 12.876C10.9102 12.5068 10.6201 12.085 10.6729 11.4873L10.7607 10.3271C10.7695 10.1514 10.6113 10.0547 10.4707 10.1777L9.93457 10.6348L9.8291 11.9355C9.80273 12.2871 9.60059 12.4805 9.29297 12.4629C8.97656 12.4365 8.7832 12.208 8.80957 11.8652L8.91504 10.6611C8.9502 10.3184 9.0293 10.0986 9.29297 9.85254L10.1631 9.05273C10.7168 8.54297 11.2002 8.24414 11.7627 8.24414C12.5625 8.24414 13.0371 8.80664 12.9844 9.63281L12.8877 11.0566C12.8525 11.5752 12.7471 11.9268 12.5713 12.4805L12.5098 12.6475L13.1426 13.5439C13.248 13.6934 13.3535 13.8516 13.459 14.0889L14.5137 16.1895C14.5928 16.3389 14.6279 16.4531 14.6279 16.585C14.6279 16.875 14.3906 17.0859 14.0918 17.0859ZM14.3994 11.3555C14.0918 11.3555 13.9512 11.3027 13.7754 11.1357L13.4414 10.8018L13.5293 9.47461L14.3115 10.3359H15.6738C16.0166 10.3359 16.2451 10.5381 16.2451 10.8457C16.2451 11.1621 16.0254 11.3555 15.6738 11.3555H14.3994ZM9.20508 17.0947C8.91504 17.0947 8.72168 16.8838 8.72168 16.5938C8.72168 16.3916 8.82715 16.2598 8.9502 16.1104L10.4707 14.3525L10.708 13.166L11.5781 14.2559L11.499 14.5723C11.4639 14.7568 11.4463 14.7744 11.2529 14.9941L9.61816 16.9014C9.5127 17.0244 9.36328 17.0947 9.20508 17.0947Z" fill="#1C1C1E"/>
</g>
<defs>
<clipPath id="clip0_10_1141">
<rect width="24" height="24" fill="white"/>
</clipPath>
</defs>
</svg>
