<svg width="24" height="24" viewBox="0 0 24 24" fill="none" xmlns="http://www.w3.org/2000/svg">
<g clip-path="url(#clip0_10_1110)">
<path d="M21.5361 8.92969C21.5361 5.82715 19.5498 3.28711 17.001 3.28711H14.1094C12.9229 2.68066 11.5166 2.3291 9.96973 2.3291H8.73926C7.59668 2.3291 6.62109 2.39941 5.98828 2.55762C4.69629 2.87402 3.87891 3.79688 3.87891 4.94824C3.87891 5.15039 3.91406 5.34375 3.9668 5.52832C3.36035 6.00293 3.01758 6.68848 3.01758 7.44434C3.01758 7.7959 3.08789 8.13867 3.21094 8.42871C2.80664 8.85938 2.56934 9.4834 2.56934 10.125C2.56934 10.5469 2.6748 10.9775 2.85059 11.3115C2.60449 11.6807 2.46387 12.1816 2.46387 12.7354C2.46387 14.1416 3.53613 15.2227 4.9248 15.2227H8.19434C8.37891 15.2227 8.50195 15.3105 8.49316 15.4775C8.44922 16.3828 7.02539 18.5625 7.02539 20.3467C7.02539 21.6562 7.94824 22.6143 9.22266 22.6143C10.1455 22.6143 10.7783 22.1309 11.3848 20.9795C12.4834 18.8701 13.8018 17.0244 15.7617 14.6074H17.335C19.7256 14.6074 21.5361 12.085 21.5361 8.92969ZM16.0605 9C16.0605 10.8633 15.6475 12.0498 14.4521 13.6494C13.125 15.4248 11.2793 17.5693 9.95215 20.2236C9.6709 20.7773 9.47754 20.9092 9.20508 20.9092C8.87109 20.9092 8.65137 20.6719 8.65137 20.25C8.65137 18.9492 10.1367 16.7695 10.1367 15.3369C10.1367 14.2822 9.28418 13.5967 8.12402 13.5967H4.96875C4.45898 13.5967 4.08105 13.2188 4.08105 12.709C4.08105 12.3486 4.2041 12.1113 4.50293 11.8125C4.73145 11.5752 4.7666 11.2412 4.56445 11.0127C4.30957 10.6523 4.2041 10.4238 4.2041 10.125C4.2041 9.76465 4.37109 9.45703 4.72266 9.19336C5.02148 8.98242 5.12695 8.62207 4.95117 8.27051C4.7666 7.91895 4.66992 7.73438 4.66992 7.46191C4.66992 7.04004 4.94238 6.71484 5.4873 6.4248C5.77734 6.2666 5.85645 5.95898 5.7334 5.67773C5.54883 5.22949 5.52246 5.15039 5.53125 4.95703C5.53125 4.5791 5.80371 4.28027 6.39258 4.13086C6.91113 3.99902 7.7373 3.94629 8.82715 3.95508L9.96094 3.96387C13.5996 3.99902 16.0605 6.03809 16.0605 9ZM19.9453 8.92969C19.9453 11.1621 18.7939 12.9463 17.4756 12.999C17.2471 13.0078 17.0186 13.0078 16.79 13.0078C17.4141 11.7861 17.6865 10.5205 17.6865 9C17.6865 7.38281 17.124 5.95898 16.1045 4.84277C16.4297 4.84277 16.7637 4.85156 17.0977 4.85156C18.6357 4.91309 19.9453 6.71484 19.9453 8.92969Z" fill="#1C1C1E"/>
</g>
<defs>
<clipPath id="clip0_10_1110">
<rect width="24" height="24" fill="white"/>
</clipPath>
</defs>
</svg>
