<svg width="24" height="24" viewBox="0 0 24 24" fill="none" xmlns="http://www.w3.org/2000/svg">
<g clip-path="url(#clip0_10_1046)">
<path d="M10.9893 2.53125C7.04297 2.53125 4.80176 5.00098 4.80176 9.21094V10.96C4.80176 12.5508 5.56641 13.5703 6.48047 13.5703C6.7002 13.5703 6.83203 13.4385 6.83203 13.2275V12.4717C6.83203 12.1377 6.99023 11.9707 7.19238 11.9707C7.40332 11.9707 7.56152 12.1377 7.56152 12.4717V12.9639C7.56152 13.9219 8.18555 14.5547 9.02051 14.5547C9.41602 14.5547 9.60059 14.3877 9.60059 14.0449V13.0078C9.60059 12.6738 9.75879 12.5068 9.96094 12.5068C10.1719 12.5068 10.3389 12.6738 10.3389 13.0078V13.9658C10.3389 15.0205 10.9453 15.5566 11.7803 15.5566C12.1494 15.5566 12.3604 15.3721 12.3604 15.0469V13.0078C12.3604 12.6738 12.5186 12.5068 12.7207 12.5068C12.9316 12.5068 13.0898 12.6738 13.0898 13.0078V19.7314C13.0898 20.4258 13.5469 20.8916 14.1445 20.8916C14.7861 20.8916 15.2256 20.4258 15.2256 19.7314V9.97559C15.2256 9.74707 15.3574 9.63281 15.498 9.63281C15.6387 9.63281 15.7441 9.71191 15.8408 9.92285L17.1152 12.9551C17.3174 13.4385 17.6426 13.6846 18.1084 13.6846C18.7588 13.6846 19.1982 13.2363 19.1982 12.665C19.1982 12.4541 19.1543 12.2695 19.1016 12.1201L17.6074 7.7168C16.3594 4.06055 13.9512 2.53125 10.9893 2.53125Z" fill="#1C1C1E"/>
</g>
<defs>
<clipPath id="clip0_10_1046">
<rect width="24" height="24" fill="white"/>
</clipPath>
</defs>
</svg>
