<svg width="24" height="24" viewBox="0 0 24 24" fill="none" xmlns="http://www.w3.org/2000/svg">
<g clip-path="url(#clip0_10_1079)">
<path d="M5.37305 14.7041C5.37305 18.6504 8.02734 21.0059 11.6045 21.0059C14.2852 21.0059 16.0254 19.916 17.2207 17.7275C18.0732 16.3652 18.6709 14.4932 19.1631 12.876C19.4268 12.041 19.7871 10.9863 19.8135 10.5205C19.8486 9.99316 19.5059 9.61523 18.9785 9.58008C18.3721 9.53613 17.9941 9.8877 17.6162 10.6787L16.3857 13.3242C16.2715 13.5879 16.1484 13.6758 16.0078 13.6758C15.8496 13.6758 15.7354 13.5879 15.7354 13.2979V4.00781C15.7354 3.43652 15.2871 2.98828 14.7158 2.98828C14.1533 2.98828 13.7051 3.43652 13.7051 4.00781V10.7666C13.4766 10.6875 13.2305 10.6172 12.9756 10.5645V2.75977C12.9756 2.18848 12.5273 1.74023 11.9561 1.74023C11.3936 1.74023 10.9453 2.18848 10.9453 2.75977V10.4678C10.6816 10.4941 10.4268 10.5293 10.1719 10.5732V3.48926C10.1719 2.92676 9.72363 2.47852 9.16113 2.47852C8.58984 2.47852 8.1416 2.92676 8.1416 3.48926V11.1709C7.87793 11.2939 7.63184 11.4346 7.40332 11.584V6.23145C7.40332 5.66895 6.95508 5.2207 6.39258 5.2207C5.82129 5.2207 5.37305 5.66895 5.37305 6.23145V14.7041Z" fill="#1C1C1E"/>
</g>
<defs>
<clipPath id="clip0_10_1079">
<rect width="24" height="24" fill="white"/>
</clipPath>
</defs>
</svg>
