<svg width="24" height="24" viewBox="0 0 24 24" fill="none" xmlns="http://www.w3.org/2000/svg">
<g clip-path="url(#clip0_10_1041)">
<path d="M8.97656 2.92676C9.08203 2.92676 9.16992 2.85645 9.19629 2.74219C9.41602 1.4502 9.41602 1.44141 10.7168 1.2041C10.8398 1.17773 10.9189 1.10742 10.9189 0.993164C10.9189 0.870117 10.8398 0.799805 10.7256 0.773438C9.41602 0.509766 9.44238 0.509766 9.19629 -0.755859C9.16992 -0.870117 9.09082 -0.94043 8.97656 -0.94043C8.8623 -0.94043 8.7832 -0.870117 8.76562 -0.755859C8.51074 0.518555 8.5459 0.527344 7.23633 0.773438C7.11328 0.799805 7.03418 0.878906 7.03418 0.993164C7.03418 1.09863 7.10449 1.17773 7.22754 1.2041C8.5459 1.46777 8.52832 1.45898 8.76562 2.74219C8.7832 2.85645 8.8623 2.92676 8.97656 2.92676ZM15.0938 5.27344C15.252 5.27344 15.375 5.16797 15.3838 4.99219C15.6387 2.9707 15.7266 2.90918 17.8008 2.5752C17.9854 2.54883 18.0908 2.45215 18.0908 2.28516C18.0908 2.13574 17.9854 2.03027 17.8359 2.00391C15.7354 1.59082 15.6387 1.61719 15.3838 -0.413086C15.375 -0.588867 15.252 -0.694336 15.0938 -0.694336C14.9443 -0.694336 14.8301 -0.588867 14.8125 -0.421875C14.5488 1.64355 14.4873 1.70508 12.3691 2.00391C12.2197 2.02148 12.1143 2.13574 12.1143 2.28516C12.1143 2.44336 12.2197 2.54883 12.3691 2.5752C14.4873 2.99707 14.54 2.97949 14.8125 5.01855C14.8301 5.16797 14.9531 5.27344 15.0938 5.27344ZM13.1074 6.64453L11.5605 5.10645C11.1562 4.70215 10.5234 4.71094 10.1279 5.10645C10.1016 5.12402 10.0928 5.1416 10.0752 5.16797L13.0107 8.1123C12.958 7.58496 12.9844 7.09277 13.1074 6.64453ZM8.42285 19.9951C11.2178 22.79 14.7598 22.5703 17.2822 20.0479C19.1807 18.1494 19.6377 16.1543 18.9434 13.7549C18.5742 12.1904 17.6777 10.4502 16.8779 8.95605C16.4824 8.18262 15.9902 7.18066 15.6826 6.8291C15.3311 6.43359 14.8213 6.40723 14.417 6.75C13.9688 7.14551 13.9424 7.67285 14.2324 8.49902L15.2344 11.2324C15.3398 11.4961 15.3135 11.6543 15.2256 11.751C15.1113 11.8652 14.9619 11.8828 14.751 11.6719L8.18555 5.10645C7.78125 4.70215 7.14844 4.70215 6.75293 5.10645C6.34863 5.50195 6.34863 6.14355 6.75293 6.53906L11.5342 11.3203C11.3145 11.4258 11.0947 11.5488 10.875 11.6982L5.34668 6.17871C4.95117 5.77441 4.31836 5.77441 3.91406 6.17871C3.50977 6.57422 3.50977 7.20703 3.91406 7.61133L9.37207 13.0693C9.20508 13.2627 9.04688 13.4736 8.89746 13.6846L3.8877 8.6748C3.49219 8.2793 2.85059 8.27051 2.45508 8.6748C2.05078 9.07031 2.05957 9.71191 2.45508 10.1074L7.88672 15.5391C7.78125 15.8203 7.71094 16.0928 7.64941 16.3564L3.87012 12.5684C3.47461 12.1729 2.8418 12.1729 2.4375 12.5684C2.0332 12.9727 2.0332 13.6055 2.4375 14.0098L8.42285 19.9951ZM20.6572 20.0479C22.5557 18.1494 23.0127 16.1543 22.3184 13.7549C21.9404 12.1904 21.0527 10.4502 20.2529 8.95605C19.8486 8.17383 19.3564 7.17188 19.0488 6.8291C18.7061 6.43359 18.1963 6.40723 17.792 6.75C17.625 6.89062 17.5107 7.05762 17.458 7.24219C17.6777 7.66406 17.8975 8.10352 18.126 8.52539C18.8906 9.97559 19.8311 11.8125 20.1914 13.4824C21 16.374 20.3496 18.8086 18.1963 20.9531C17.8096 21.3398 17.4053 21.6738 16.9834 21.9551C18.3018 21.7881 19.585 21.1289 20.6572 20.0479ZM3.8877 22.9043C4.03711 22.9043 4.11621 22.8164 4.14258 22.6758C4.44141 20.9531 4.44141 20.918 6.23438 20.584C6.38379 20.5576 6.46289 20.4785 6.46289 20.3379C6.46289 20.1885 6.38379 20.1094 6.24316 20.083C4.43262 19.7227 4.47656 19.6963 4.14258 17.9912C4.11621 17.8506 4.03711 17.7627 3.8877 17.7627C3.75586 17.7627 3.66797 17.8506 3.6416 17.9912C3.30762 19.7051 3.36035 19.7402 1.5498 20.083C1.40918 20.1094 1.32129 20.1885 1.32129 20.3379C1.32129 20.4785 1.40918 20.5576 1.5498 20.584C3.36035 20.9443 3.33398 20.9619 3.6416 22.6758C3.66797 22.8164 3.75586 22.9043 3.8877 22.9043Z" fill="#1C1C1E"/>
</g>
<defs>
<clipPath id="clip0_10_1041">
<rect width="24" height="24" fill="white"/>
</clipPath>
</defs>
</svg>
