<svg width="24" height="24" viewBox="0 0 24 24" fill="none" xmlns="http://www.w3.org/2000/svg">
<g clip-path="url(#clip0_10_1037)">
<path d="M9.72363 18.2373C12.5098 21.0234 16.0518 20.8125 18.583 18.29C20.4814 16.3916 20.9385 14.3877 20.2354 11.9971C19.8662 10.4326 18.9697 8.68359 18.1787 7.18945C17.7744 6.41602 17.2822 5.42285 16.9746 5.07129C16.623 4.66699 16.1133 4.64941 15.7178 4.99219C15.2607 5.3877 15.2432 5.90625 15.5244 6.73242L16.5264 9.47461C16.6318 9.73828 16.6143 9.89648 16.5176 9.99316C16.4033 10.1074 16.2539 10.1162 16.0518 9.91406L9.48633 3.34863C9.08203 2.94434 8.44922 2.94434 8.04492 3.33984C7.64941 3.74414 7.64941 4.37695 8.04492 4.78125L12.8262 9.5625C12.6152 9.66797 12.3867 9.79102 12.167 9.94043L6.64746 4.41211C6.24316 4.0166 5.61035 4.0166 5.20605 4.41211C4.81055 4.81641 4.81055 5.44922 5.20605 5.84473L10.6641 11.3027C10.4971 11.5049 10.3389 11.707 10.1895 11.918L5.18848 6.91699C4.78418 6.5127 4.15137 6.5127 3.74707 6.91699C3.35156 7.3125 3.35156 7.9541 3.74707 8.34961L9.17871 13.7812C9.08203 14.0537 9.00293 14.3262 8.9502 14.5898L5.1709 10.8105C4.7666 10.415 4.13379 10.4062 3.72949 10.8105C3.33398 11.2061 3.33398 11.8477 3.72949 12.2432L9.72363 18.2373Z" fill="#1C1C1E"/>
</g>
<defs>
<clipPath id="clip0_10_1037">
<rect width="24" height="24" fill="white"/>
</clipPath>
</defs>
</svg>
