<svg width="24" height="24" viewBox="0 0 24 24" fill="none" xmlns="http://www.w3.org/2000/svg">
<g clip-path="url(#clip0_10_1056)">
<path d="M7.93066 -0.00878906C5.3291 -0.00878906 3.21094 2.10059 3.21094 4.70215C3.21094 5.75684 3.58008 6.80273 4.18652 7.59375C4.35352 7.82227 4.57324 7.91895 4.79297 7.91895C5.32031 7.91895 5.7334 7.32129 5.3291 6.79395C4.88086 6.22266 4.59961 5.48438 4.59961 4.70215C4.59961 2.86523 6.09375 1.38867 7.93066 1.38867C9.69727 1.38867 11.1387 2.76855 11.2266 4.52637C11.2266 4.5791 11.2354 4.63184 11.2354 4.71094C11.2705 5.12402 11.543 5.35254 11.8945 5.35254C12.2812 5.35254 12.5889 5.09766 12.6064 4.71973C12.6152 4.64062 12.6152 4.53516 12.6064 4.41211C12.4658 1.93359 10.4092 -0.00878906 7.93066 -0.00878906ZM16.667 19.5996C20.376 18.2549 21.6416 15.1611 20.2002 11.2061L19.6025 9.5625C19.0576 8.06836 17.9854 7.37402 17.1328 7.69043C16.9219 7.76074 16.8516 7.92773 16.9219 8.12988L17.1768 8.8418C17.291 9.14941 17.1943 9.36914 17.0098 9.43066C16.8164 9.50098 16.6055 9.4043 16.4912 9.08789L16.3154 8.62207C15.9902 7.72559 15.1904 7.33887 14.4082 7.62891C14.0391 7.76074 13.9248 7.98926 14.0391 8.30566L14.3906 9.28125C14.5049 9.59766 14.4082 9.80859 14.2236 9.87012C14.0215 9.94922 13.8193 9.85254 13.6963 9.52734L13.3711 8.63086C13.0107 7.6377 12.2549 7.34766 11.4727 7.62891C11.1211 7.76074 10.9893 7.99805 11.1035 8.30566L11.7979 10.2217C11.9121 10.5381 11.8154 10.749 11.6309 10.8193C11.4375 10.8896 11.2266 10.793 11.1123 10.4766L8.80957 4.15723C8.57227 3.50684 7.9834 3.22559 7.4209 3.42773C6.82324 3.64746 6.56836 4.22754 6.80566 4.88672L10.1455 14.0537C10.2246 14.2646 10.1367 14.4229 10.0049 14.4756C9.87305 14.5195 9.74121 14.4756 9.58301 14.3086L7.3418 11.9004C6.99023 11.5225 6.60352 11.3906 6.16406 11.5576C5.54883 11.7773 5.29395 12.3486 5.4873 12.8848C5.55762 13.0781 5.66309 13.2363 5.75977 13.3682L8.67773 16.9893C11.1035 19.9951 13.8896 20.6104 16.667 19.5996Z" fill="#1C1C1E"/>
</g>
<defs>
<clipPath id="clip0_10_1056">
<rect width="24" height="24" fill="white"/>
</clipPath>
</defs>
</svg>
