<svg width="24" height="24" viewBox="0 0 24 24" fill="none" xmlns="http://www.w3.org/2000/svg">
<g clip-path="url(#clip0_10_1144)">
<path d="M16.8076 16.1279L17.8799 17.1914C18.0732 16.8047 18.2578 16.374 18.416 15.9258L19.9893 11.5225C20.1035 11.2061 20.1562 10.8896 20.1562 10.5996C20.1475 9.65039 19.4707 8.86816 18.3721 8.86816C17.7744 8.86816 17.2119 9.21973 16.9131 9.90527L16.4385 11.0566C16.4209 11.0918 16.4033 11.1094 16.3682 11.1094C16.3242 11.1094 16.3066 11.083 16.3066 11.0391V4.28906C16.3066 3.17285 15.5771 2.45215 14.4961 2.45215C14.1621 2.45215 13.8545 2.56641 13.6172 2.75977C13.4414 1.87207 12.8174 1.33594 11.9121 1.33594C11.0332 1.33594 10.3916 1.88965 10.207 2.74219C9.9873 2.55762 9.70605 2.45215 9.40723 2.45215C8.39648 2.45215 7.70215 3.15527 7.70215 4.20117V5.01855C7.48242 4.80762 7.16602 4.69336 6.83203 4.69336C6.41016 4.69336 6.0498 4.86035 5.82129 5.1416L6.92871 6.24902V6.19629C6.95508 6.08203 7.03418 6.01172 7.16602 6.01172C7.48242 6.01172 7.71973 6.24902 7.71973 6.57422V7.04004L8.9502 8.27051V4.4209C8.9502 4.08691 9.16113 3.8584 9.48633 3.8584C9.80273 3.8584 10.04 4.08691 10.04 4.4209V9.35156L11.3584 10.6699V3.30469C11.3584 2.97949 11.5869 2.74219 11.9033 2.74219C12.2197 2.74219 12.4482 2.97949 12.4482 3.30469V10.6436C12.4482 11.0039 12.7383 11.2939 13.0986 11.2939C13.4678 11.2939 13.7666 11.0039 13.7666 10.6436V4.4209C13.7666 4.08691 13.9863 3.8584 14.3115 3.8584C14.6279 3.8584 14.8564 4.08691 14.8564 4.4209V13.1836C14.8564 13.623 15.1641 13.9834 15.6035 13.9834C15.9551 13.9746 16.2715 13.8164 16.4824 13.3506L17.7217 10.5645C17.8887 10.2041 18.1611 10.0635 18.4512 10.1602C18.75 10.2568 18.8555 10.5645 18.7148 10.96L17.0889 15.4512C17.001 15.6885 16.9043 15.917 16.8076 16.1279ZM18.2051 20.9707C18.4688 21.2344 18.9258 21.2432 19.1895 20.9707C19.4619 20.6895 19.4619 20.2588 19.1895 19.9775L3.4834 4.28027C3.21094 4.00781 2.7627 4.00781 2.48145 4.28027C2.21777 4.54395 2.21777 5.00977 2.48145 5.27344L18.2051 20.9707ZM11.6572 21.1025C13.2129 21.1025 14.5488 20.6982 15.6387 19.8984L14.5664 18.835C13.7314 19.3535 12.7383 19.5908 11.6133 19.5908C8.4668 19.5908 6.54199 17.5869 6.54199 14.0625V10.8193L5.10938 9.38672V14.2207C5.10938 18.4746 7.72852 21.1025 11.6572 21.1025Z" fill="#1C1C1E"/>
</g>
<defs>
<clipPath id="clip0_10_1144">
<rect width="24" height="24" fill="white"/>
</clipPath>
</defs>
</svg>
