<svg width="24" height="24" viewBox="0 0 24 24" fill="none" xmlns="http://www.w3.org/2000/svg">
<g clip-path="url(#clip0_10_1116)">
<path d="M16.7109 8.97363C16.7637 5.51074 13.9512 2.91797 9.60938 2.88281L8.34375 2.87402C7.15723 2.86523 6.26074 2.95312 5.7334 3.08496C4.94238 3.28711 4.23926 3.7793 4.23926 4.67578C4.23926 5.01855 4.32715 5.28223 4.44141 5.48438C4.50293 5.58984 4.48535 5.66895 4.39746 5.71289C3.7998 5.97656 3.34277 6.53027 3.34277 7.26855C3.34277 7.67285 3.46582 8.05078 3.65918 8.32324C3.74707 8.4375 3.72949 8.54297 3.58887 8.63086C3.16699 8.89453 2.87695 9.43066 2.87695 10.0459C2.87695 10.4854 3.01758 10.9424 3.25488 11.1797C3.37793 11.2939 3.36035 11.373 3.22852 11.4873C2.92969 11.751 2.7627 12.1904 2.7627 12.709C2.7627 13.6582 3.49219 14.4141 4.45898 14.4141H7.72852C8.51953 14.4141 9.03809 14.8184 9.03809 15.4512C9.03809 16.6816 7.47363 18.9668 7.47363 20.6279C7.47363 21.5244 8.05371 22.0781 8.83594 22.0781C9.5127 22.0781 9.87305 21.6299 10.2598 20.874C11.6396 18.1934 13.4766 16.0225 14.8828 14.1504C16.1045 12.5332 16.6758 11.1445 16.7109 8.97363ZM21.29 8.89453C21.29 6.08203 19.541 3.76172 17.2031 3.76172H15.6299C17.2646 5.00977 18.0469 6.87305 18.0117 8.99121C17.9766 11.2764 17.1592 12.9287 16.2979 14.0713H17.5547C19.6729 14.0713 21.29 11.8037 21.29 8.89453Z" fill="#1C1C1E"/>
</g>
<defs>
<clipPath id="clip0_10_1116">
<rect width="24" height="24" fill="white"/>
</clipPath>
</defs>
</svg>
