<svg width="24" height="24" viewBox="0 0 24 24" fill="none" xmlns="http://www.w3.org/2000/svg">
<g clip-path="url(#clip0_10_1096)">
<path d="M21.29 12.7178C21.29 9.75586 19.7607 7.35645 16.1045 6.1084L11.7012 4.60547C11.5518 4.55273 11.3672 4.51758 11.1562 4.51758C10.585 4.51758 10.1367 4.94824 10.1367 5.60742C10.1367 6.07324 10.3916 6.38965 10.8662 6.5918L13.8984 7.875C14.1094 7.96289 14.1973 8.07715 14.1973 8.20898C14.1973 8.34961 14.0742 8.49023 13.8545 8.49023H4.08984C3.39551 8.49023 2.92969 8.92969 2.92969 9.5625C2.92969 10.1602 3.39551 10.6172 4.08984 10.6172H10.8135C11.1475 10.6172 11.3145 10.7842 11.3145 10.9951C11.3145 11.1885 11.1475 11.3555 10.8135 11.3555H8.77441C8.44922 11.3555 8.26465 11.5576 8.26465 11.9355C8.26465 12.7617 8.80078 13.377 9.85547 13.377H10.8135C11.1562 13.377 11.3145 13.5352 11.3145 13.7549C11.3145 13.9482 11.1475 14.1152 10.8135 14.1152H9.77637C9.44238 14.1152 9.2666 14.2998 9.2666 14.6953C9.2666 15.5303 9.9082 16.1455 10.8574 16.1455H11.3496C11.6924 16.1455 11.8594 16.3125 11.8594 16.5234C11.8594 16.7168 11.6924 16.8838 11.3496 16.8838H10.5938C10.3828 16.8838 10.2598 17.0068 10.2598 17.2354C10.2598 18.1406 11.2705 18.9141 12.8613 18.9141H14.6104C18.8203 18.9141 21.29 16.6641 21.29 12.7178Z" fill="#1C1C1E"/>
</g>
<defs>
<clipPath id="clip0_10_1096">
<rect width="24" height="24" fill="white"/>
</clipPath>
</defs>
</svg>
