<svg width="24" height="24" viewBox="0 0 24 24" fill="none" xmlns="http://www.w3.org/2000/svg">
<g clip-path="url(#clip0_10_1119)">
<path d="M11.6572 21.1553C14.918 21.1553 17.1943 19.415 18.416 15.9873L19.9893 11.584C20.1035 11.2588 20.1562 10.9512 20.1562 10.6611C20.1562 9.65918 19.4092 8.9209 18.416 8.9209C17.7832 8.9209 17.2119 9.28125 16.9131 9.9668L16.4385 11.1182C16.4209 11.1533 16.4033 11.1709 16.3682 11.1709C16.3242 11.1709 16.3066 11.1445 16.3066 11.1006V4.35059C16.3066 3.23438 15.5771 2.51367 14.4961 2.51367C14.1621 2.51367 13.8545 2.61914 13.6172 2.82129C13.4414 1.93359 12.8174 1.38867 11.9121 1.38867C11.0332 1.38867 10.3916 1.94238 10.207 2.80371C9.9873 2.61035 9.70605 2.51367 9.40723 2.51367C8.39648 2.51367 7.70215 3.2168 7.70215 4.2627V5.08008C7.48242 4.86914 7.16602 4.75488 6.83203 4.75488C5.82129 4.75488 5.10938 5.51074 5.10938 6.58301V14.2822C5.10938 18.5361 7.72852 21.1553 11.6572 21.1553ZM11.6133 19.6523C8.4668 19.6523 6.54199 17.6484 6.54199 14.124V6.75C6.54199 6.41602 6.75293 6.1875 7.06934 6.1875C7.39453 6.1875 7.62305 6.41602 7.62305 6.75V11.2764C7.62305 11.6543 7.93066 11.918 8.28223 11.918C8.64258 11.918 8.9502 11.6543 8.9502 11.2764V4.48242C8.9502 4.14844 9.16113 3.91992 9.48633 3.91992C9.80273 3.91992 10.04 4.14844 10.04 4.48242V10.8105C10.04 11.1885 10.3389 11.4609 10.6904 11.4609C11.0508 11.4609 11.3584 11.1885 11.3584 10.8105V3.36621C11.3584 3.04102 11.5869 2.79492 11.9033 2.79492C12.2197 2.79492 12.4482 3.04102 12.4482 3.36621V10.7051C12.4482 11.0654 12.7383 11.3467 13.0986 11.3467C13.4678 11.3467 13.7666 11.0654 13.7666 10.7051V4.48242C13.7666 4.14844 13.9863 3.91992 14.3115 3.91992C14.6279 3.91992 14.8564 4.14844 14.8564 4.48242V13.2451C14.8564 13.7549 15.1816 14.0449 15.6035 14.0361C15.9551 14.0361 16.2715 13.8779 16.4824 13.4121L17.748 10.5732C17.8975 10.2305 18.1963 10.125 18.4688 10.2217C18.7676 10.3359 18.8643 10.626 18.7236 11.0039L17.0889 15.5127C15.999 18.501 14.1621 19.6523 11.6133 19.6523Z" fill="#1C1C1E"/>
</g>
<defs>
<clipPath id="clip0_10_1119">
<rect width="24" height="24" fill="white"/>
</clipPath>
</defs>
</svg>
