<svg width="24" height="24" viewBox="0 0 24 24" fill="none" xmlns="http://www.w3.org/2000/svg">
<g clip-path="url(#clip0_10_1060)">
<path d="M2.85059 15.2051C3.20215 15.1963 3.46582 14.9238 3.47461 14.5635C3.5625 10.7578 5.52246 7.92773 8.52832 6.8291L11.1562 14.0537C11.2354 14.2646 11.1475 14.4229 11.0156 14.4756C10.8838 14.5195 10.752 14.4756 10.5938 14.3086L8.35254 11.9004C8.00098 11.5225 7.61426 11.3906 7.1748 11.5576C6.55957 11.7773 6.30469 12.3486 6.49805 12.8848C6.57715 13.0781 6.67383 13.2363 6.7793 13.3682L9.68848 16.9893C12.1143 19.9951 14.9004 20.6104 17.6777 19.5996C21.3867 18.2549 22.6523 15.1611 21.2109 11.2061L20.6133 9.5625C20.0684 8.06836 18.9961 7.37402 18.1436 7.69043C17.9326 7.76074 17.8623 7.92773 17.9326 8.12988L18.1963 8.8418C18.3105 9.14941 18.2139 9.36914 18.0293 9.43066C17.8271 9.50098 17.6162 9.4043 17.502 9.08789L17.3262 8.62207C17.001 7.72559 16.21 7.33887 15.4189 7.62891C15.0498 7.76074 14.9355 7.98926 15.0498 8.30566L15.4014 9.28125C15.5156 9.59766 15.4277 9.80859 15.2432 9.87012C15.0322 9.94922 14.8301 9.85254 14.7158 9.52734L14.3818 8.63086C14.0215 7.6377 13.2656 7.34766 12.4834 7.62891C12.1318 7.76074 12 7.99805 12.1143 8.30566L12.8086 10.2217C12.9229 10.5381 12.8262 10.749 12.6504 10.8193C12.4482 10.8896 12.2373 10.793 12.123 10.4766L9.82031 4.15723C9.58301 3.50684 8.99414 3.22559 8.43164 3.42773C7.83398 3.64746 7.5791 4.22754 7.81641 4.88672L8.08008 5.60742C4.59082 6.89062 2.2002 10.2568 2.2002 14.5459C2.2002 14.9062 2.50781 15.2139 2.85059 15.2051Z" fill="#1C1C1E"/>
</g>
<defs>
<clipPath id="clip0_10_1060">
<rect width="24" height="24" fill="white"/>
</clipPath>
</defs>
</svg>
