<svg width="24" height="24" viewBox="0 0 24 24" fill="none" xmlns="http://www.w3.org/2000/svg">
<g clip-path="url(#clip0_10_1047)">
<path d="M11.0068 2.17969C7.06055 2.17969 4.51172 4.74609 4.51172 9.04395V11.1621C4.51172 13.2451 5.53125 14.502 7.23633 14.5371C7.46484 15.1963 8.05371 15.5918 8.80957 15.5918C9.06445 15.5918 9.30176 15.5566 9.53027 15.4775C9.79395 16.1982 10.3916 16.6377 11.1738 16.6377C11.3408 16.6377 11.5166 16.6113 11.6836 16.5586V19.1865C11.6836 20.3994 12.4834 21.208 13.626 21.208C14.7949 21.208 15.6035 20.3994 15.6035 19.1865V12.2432C15.6035 12.1992 15.6299 12.1641 15.6738 12.1641C15.7002 12.1641 15.7266 12.1816 15.7441 12.2168L16.2275 13.377C16.5527 14.0273 17.0889 14.3789 17.7305 14.3789C18.6973 14.3789 19.4971 13.7549 19.4883 12.7002C19.4971 12.4014 19.4355 12.0322 19.3213 11.707L17.748 7.30371C16.5352 3.91992 14.2412 2.1709 11.0068 2.17969ZM10.9629 3.69141C13.4502 3.69141 15.2959 4.87793 16.377 7.80469L17.9941 12.1729C18.0381 12.2871 18.0557 12.3838 18.0557 12.5156C18.0557 12.7793 17.8623 13.0078 17.5459 13.0078C17.291 13.0078 17.1328 12.8584 17.0273 12.6035L15.7705 9.90527C15.5596 9.45703 15.2607 9.29883 14.9268 9.29883C14.5137 9.29883 14.1885 9.62402 14.1885 10.0986V19.2744C14.1885 19.6084 13.96 19.8369 13.6436 19.8369C13.3184 19.8369 13.0986 19.6084 13.0986 19.2744V12.832C13.0986 12.4717 12.7998 12.1992 12.4482 12.1992C12.0967 12.1992 11.8066 12.4717 11.8066 12.832V15.1172C11.666 15.1699 11.4902 15.2139 11.3408 15.2139C10.9541 15.2139 10.7168 14.959 10.7168 14.5547V12.4805C10.7168 12.1113 10.418 11.8477 10.0664 11.8477C9.73242 11.8477 9.43359 12.1113 9.43359 12.4805V14.0801C9.30176 14.1328 9.11719 14.1768 8.96777 14.1768C8.58105 14.1768 8.34375 13.9219 8.34375 13.5176V12.1377C8.34375 11.7686 8.03613 11.5049 7.68457 11.5049C7.35059 11.5049 7.05176 11.7686 7.05176 12.1377V13.0166C6.33984 13.0166 5.95312 12.3311 5.95312 11.1006V9.19336C5.95312 5.68652 7.83398 3.69141 10.9629 3.69141Z" fill="#1C1C1E"/>
</g>
<defs>
<clipPath id="clip0_10_1047">
<rect width="24" height="24" fill="white"/>
</clipPath>
</defs>
</svg>
