<svg width="24" height="24" viewBox="0 0 24 24" fill="none" xmlns="http://www.w3.org/2000/svg">
<g clip-path="url(#clip0_10_1050)">
<path d="M13.0107 20.874C16.957 20.874 19.1982 18.4043 19.1982 14.1943V12.4453C19.1982 10.8545 18.4336 9.83496 17.5195 9.83496C17.2998 9.83496 17.168 9.9668 17.168 10.1777V10.9336C17.168 11.2676 17.0098 11.4346 16.8076 11.4346C16.5967 11.4346 16.4385 11.2764 16.4385 10.9336V10.4414C16.4385 9.4834 15.8145 8.85059 14.9795 8.85059C14.584 8.85059 14.3994 9.02637 14.3994 9.36035V10.3975C14.3994 10.7314 14.2412 10.8984 14.0391 10.8984C13.8281 10.8984 13.6611 10.7402 13.6611 10.3975V9.43945C13.6611 8.38477 13.0547 7.84863 12.2197 7.84863C11.8506 7.84863 11.6396 8.0332 11.6396 8.3584V10.3975C11.6396 10.7314 11.4814 10.8984 11.2793 10.8984C11.0684 10.8984 10.9102 10.7314 10.9102 10.3975V3.67383C10.9102 2.97949 10.4531 2.51367 9.85547 2.51367C9.21387 2.51367 8.77441 2.97949 8.77441 3.67383V13.4385C8.77441 13.6582 8.64258 13.7725 8.50195 13.7725C8.36133 13.7725 8.25586 13.6934 8.15918 13.4824L6.88477 10.4502C6.68262 9.97559 6.35742 9.7207 5.8916 9.7207C5.24121 9.7207 4.80176 10.1689 4.80176 10.7402C4.80176 10.9512 4.8457 11.1357 4.89844 11.2852L6.39258 15.6885C7.64062 19.3447 10.0488 20.874 13.0107 20.874Z" fill="#1C1C1E"/>
</g>
<defs>
<clipPath id="clip0_10_1050">
<rect width="24" height="24" fill="white"/>
</clipPath>
</defs>
</svg>
