<svg width="24" height="24" viewBox="0 0 24 24" fill="none" xmlns="http://www.w3.org/2000/svg">
<g clip-path="url(#clip0_10_1064)">
<path d="M8.00098 -0.00878906C5.39941 -0.00878906 3.28125 2.10059 3.28125 4.70215C3.28125 5.75684 3.65039 6.80273 4.25684 7.59375C4.42383 7.82227 4.64355 7.91895 4.86328 7.91895C5.39062 7.91895 5.80371 7.32129 5.39941 6.79395C4.95117 6.22266 4.66992 5.48438 4.66992 4.70215C4.66992 2.86523 6.16406 1.38867 8.00098 1.38867C9.76758 1.38867 11.209 2.76855 11.2969 4.52637C11.2969 4.5791 11.3057 4.63184 11.3057 4.71094C11.3408 5.12402 11.6133 5.35254 11.9648 5.35254C12.3516 5.35254 12.6592 5.09766 12.6768 4.71973C12.6855 4.64062 12.6855 4.53516 12.6768 4.41211C12.5361 1.93359 10.4795 -0.00878906 8.00098 -0.00878906ZM16.4033 20.0303C20.1123 18.6768 21.6328 15.3896 20.165 11.3555L19.4443 9.36914C18.7236 7.40918 17.3438 6.57422 15.7266 7.12793C15.2871 6.5918 14.6016 6.40723 13.8809 6.6709C13.6436 6.75879 13.4326 6.87305 13.248 7.02246C12.7559 6.44238 12.0439 6.23145 11.3057 6.50391C11.1562 6.55664 10.998 6.64453 10.8574 6.75L9.95215 4.28027C9.53906 3.1377 8.51074 2.6543 7.43848 3.04102C6.33984 3.43652 5.85645 4.48242 6.26953 5.625L8.64258 12.1465C8.66016 12.1904 8.65137 12.2256 8.60742 12.2432C8.58105 12.252 8.55469 12.2432 8.52832 12.2168L7.67578 11.2939C7.14844 10.793 6.52441 10.6436 5.91797 10.8633C5.0127 11.1973 4.47656 12.0586 4.83691 13.043C4.93359 13.333 5.12695 13.6582 5.33789 13.9219L8.32617 17.5166C10.6201 20.2852 13.3711 21.1377 16.4033 20.0303ZM15.9287 18.5889C13.5908 19.4414 11.4551 18.958 9.44238 16.5762L6.42773 13.0342C6.34863 12.9375 6.2959 12.8496 6.24316 12.7266C6.15527 12.4717 6.26074 12.1904 6.55957 12.085C6.79688 11.9971 6.99902 12.085 7.19238 12.2959L9.29297 14.3965C9.64453 14.748 9.97852 14.792 10.2949 14.6777C10.6816 14.5371 10.8662 14.124 10.708 13.6758L7.57031 5.05371C7.45605 4.7373 7.58789 4.44727 7.89551 4.33301C8.19434 4.22754 8.47559 4.36816 8.58984 4.67578L10.7959 10.7402C10.9189 11.0742 11.2969 11.2324 11.6309 11.1094C11.9561 10.9863 12.1318 10.626 12.0176 10.292L11.2354 8.14746C11.3408 8.04199 11.499 7.94531 11.6396 7.89258C12 7.76074 12.3076 7.91895 12.4482 8.29688L13.1602 10.248C13.2832 10.5996 13.6523 10.7402 13.9863 10.6172C14.3027 10.5029 14.4873 10.1602 14.3643 9.80859L13.8193 8.31445C13.9248 8.20898 14.083 8.1123 14.2236 8.05957C14.584 7.92773 14.8916 8.08594 15.0322 8.46387L15.5068 9.75586C15.6299 10.1074 16.0078 10.2568 16.3418 10.1338C16.6582 10.0195 16.8516 9.66797 16.7197 9.31641L16.4209 8.49023C17.0889 8.25293 17.6865 8.7627 18.1084 9.91406L18.7588 11.707C19.9629 15.0029 18.873 17.5166 15.9287 18.5889Z" fill="#1C1C1E"/>
</g>
<defs>
<clipPath id="clip0_10_1064">
<rect width="24" height="24" fill="white"/>
</clipPath>
</defs>
</svg>
