<svg width="24" height="24" viewBox="0 0 24 24" fill="none" xmlns="http://www.w3.org/2000/svg">
<g clip-path="url(#clip0_10_1042)">
<path d="M9.25781 2.88281C9.36328 2.88281 9.44238 2.82129 9.46875 2.69824C9.68848 1.41504 9.68848 1.40625 10.9893 1.16895C11.1211 1.13379 11.1914 1.06348 11.1914 0.949219C11.1914 0.834961 11.1211 0.764648 10.998 0.738281C9.68848 0.474609 9.71484 0.46582 9.46875 -0.791016C9.44238 -0.914062 9.37207 -0.984375 9.25781 -0.984375C9.14355 -0.984375 9.06445 -0.905273 9.04688 -0.791016C8.7832 0.483398 8.81836 0.492188 7.50879 0.738281C7.38574 0.755859 7.31543 0.84375 7.31543 0.949219C7.31543 1.05469 7.38574 1.13379 7.50879 1.16895C8.81836 1.42383 8.80957 1.41504 9.04688 2.69824C9.06445 2.8125 9.14355 2.88281 9.25781 2.88281ZM15.375 5.22949C15.5332 5.22949 15.6475 5.12402 15.665 4.95703C15.9111 2.92676 15.999 2.86523 18.0732 2.53125C18.2578 2.51367 18.3633 2.41699 18.3633 2.24121C18.3633 2.10059 18.2578 1.98633 18.1084 1.96875C16.0166 1.55566 15.9111 1.57324 15.665 -0.457031C15.6475 -0.624023 15.5332 -0.729492 15.375 -0.729492C15.2256 -0.729492 15.1113 -0.624023 15.0938 -0.46582C14.8213 1.6084 14.7686 1.66113 12.6504 1.96875C12.501 1.97754 12.3867 2.10059 12.3867 2.24121C12.3867 2.4082 12.4922 2.51367 12.6504 2.53125C14.7686 2.95312 14.8213 2.94434 15.0938 4.97461C15.1113 5.12402 15.2256 5.22949 15.375 5.22949ZM9.38086 4.40332C9.24023 4.52637 9.14355 4.68457 9.07324 4.84277C8.34375 4.33301 7.47363 4.4209 6.80566 5.08887C6.56836 5.32617 6.42773 5.61621 6.40137 5.92383C5.64551 5.42285 4.82812 5.48438 4.18652 6.12598C3.5625 6.74121 3.50098 7.58496 3.97559 8.32324C3.68555 8.34082 3.41309 8.48145 3.20215 8.68359C2.49023 9.4043 2.49902 10.3887 3.2373 11.127L3.81738 11.6982C3.50977 11.707 3.21094 11.8564 2.97363 12.0938C2.26172 12.8057 2.28809 13.8428 3.04395 14.5986L8.48438 20.0391C10.8926 22.4473 13.7402 22.9307 16.2012 21.6211C17.6953 21.5684 19.1631 20.9004 20.4375 19.6348C22.7314 17.332 23.1094 14.4844 21.5537 11.1973L19.5498 6.96973C19.1631 6.15234 18.5127 5.66895 17.7129 5.67773C17.2822 5.67773 16.5527 5.90625 16.2363 6.58301C15.6123 6.1875 14.8477 6.24023 14.2588 6.71484L11.9561 4.4209C11.165 3.62109 10.1631 3.64746 9.38086 4.40332ZM14.1533 9.87891L10.0576 5.7832C10.084 5.68652 10.1367 5.60742 10.2158 5.52832C10.4531 5.29102 10.7871 5.30859 11.042 5.55469L13.6611 8.18262C13.6787 8.33203 13.7227 8.49023 13.7842 8.64844L14.2588 9.7998C14.2764 9.83496 14.2764 9.86133 14.25 9.8877C14.2236 9.91406 14.1885 9.90527 14.1533 9.87891ZM16.8867 19.248C14.6631 21.4717 11.877 21.4189 9.38965 18.9229L4.16895 13.7109C3.94043 13.4736 3.92285 13.1572 4.15137 12.9287C4.37988 12.7002 4.70508 12.7002 4.94238 12.9375L8.1416 16.1367C8.40527 16.4092 8.81836 16.3828 9.06445 16.1367C9.31934 15.8818 9.3457 15.4688 9.07324 15.2051L4.27441 10.4062C4.03711 10.1689 4.02832 9.85254 4.25684 9.62402C4.47656 9.39551 4.81055 9.39551 5.03906 9.63281L9.52148 14.1064C9.78516 14.3789 10.1982 14.3525 10.4443 14.1064C10.6904 13.8516 10.7256 13.4473 10.4531 13.1748L5.18848 7.91016C4.95996 7.68164 4.95117 7.34766 5.1709 7.11914C5.39941 6.89941 5.72461 6.9082 5.96191 7.14551L11.1475 12.3311C11.4023 12.5859 11.8154 12.5771 12.0703 12.3223C12.3252 12.0674 12.3428 11.6543 12.0791 11.3906L7.68457 6.99609C7.44727 6.75879 7.43848 6.44238 7.66699 6.21387C7.89551 5.98535 8.2207 5.99414 8.44922 6.22266L14.6455 12.4189C15.0059 12.7793 15.4453 12.7529 15.7354 12.4541C15.9814 12.208 16.0957 11.8652 15.9111 11.3906L14.8037 8.49023C14.6719 8.13867 14.8037 7.85742 15.0674 7.73438C15.3574 7.60254 15.6299 7.73438 15.7969 8.10352L17.8271 12.4453C19.1719 15.3281 18.6885 17.4375 16.8867 19.248ZM19.1016 11.8389L17.2207 7.875C17.2031 7.80469 17.1943 7.73438 17.1943 7.65527C17.1943 7.3916 17.3965 7.14551 17.7393 7.14551C17.9502 7.14551 18.1699 7.29492 18.2842 7.54102L20.2793 11.8037C21.624 14.6777 21.1494 16.7959 19.3389 18.5977C19.2861 18.6416 19.2422 18.6943 19.1895 18.7383C20.3584 16.7432 20.332 14.4316 19.1016 11.8389ZM4.06348 22.9043C4.2041 22.9043 4.29199 22.8164 4.30957 22.6758C4.61719 20.9531 4.6084 20.918 6.40137 20.584C6.55078 20.5576 6.63867 20.4785 6.63867 20.3379C6.63867 20.1885 6.55078 20.1094 6.41016 20.083C4.6084 19.7227 4.64355 19.6963 4.30957 17.9912C4.29199 17.8506 4.2041 17.7627 4.06348 17.7627C3.93164 17.7627 3.84375 17.8506 3.81738 17.9912C3.4834 19.7051 3.53613 19.7402 1.72559 20.083C1.58496 20.1094 1.49707 20.1885 1.49707 20.3379C1.49707 20.4785 1.58496 20.5576 1.72559 20.584C3.53613 20.9443 3.50098 20.9619 3.81738 22.6758C3.84375 22.8164 3.93164 22.9043 4.06348 22.9043Z" fill="#1C1C1E"/>
</g>
<defs>
<clipPath id="clip0_10_1042">
<rect width="24" height="24" fill="white"/>
</clipPath>
</defs>
</svg>
