<svg width="24" height="24" viewBox="0 0 24 24" fill="none" xmlns="http://www.w3.org/2000/svg">
<g clip-path="url(#clip0_10_1093)">
<path d="M21.624 12.6387C21.624 9.4043 19.8838 7.11035 16.4912 5.89746L12.0879 4.32422C11.7715 4.20996 11.4023 4.14844 11.1035 4.15723C10.0488 4.14844 9.4248 4.94824 9.4248 5.91504C9.4248 6.55664 9.77637 7.09277 10.4268 7.41797L11.5781 7.90137C11.6133 7.91895 11.6396 7.93652 11.6396 7.97168C11.6396 8.01562 11.6045 8.0332 11.5518 8.0332H4.6084C3.39551 8.0332 2.58691 8.85059 2.58691 10.0107C2.58691 11.1533 3.39551 11.9619 4.6084 11.9619H7.24512C7.19238 12.1289 7.16602 12.3047 7.16602 12.4717C7.16602 13.2539 7.59668 13.8516 8.31738 14.1152C8.24707 14.3438 8.20312 14.5811 8.20312 14.8359C8.20312 15.5918 8.60742 16.1807 9.25781 16.4092C9.30176 18.1143 10.5498 19.1338 12.6416 19.1338H14.7598C19.0488 19.1338 21.624 16.585 21.624 12.6387ZM20.1035 12.6826C20.1035 15.8115 18.1084 17.6924 14.6104 17.6924H12.7031C11.4727 17.6924 10.7871 17.3057 10.7871 16.5938H11.6572C12.0352 16.5938 12.2988 16.2949 12.2988 15.9521C12.2988 15.6094 12.0352 15.3018 11.6572 15.3018H10.2773C9.88184 15.3018 9.62695 15.0645 9.62695 14.6777C9.62695 14.5283 9.66211 14.3438 9.72363 14.2119H11.3232C11.6836 14.2119 11.9473 13.9131 11.9473 13.5791C11.9473 13.2275 11.6836 12.9287 11.3232 12.9287H9.24023C8.83594 12.9287 8.58984 12.6914 8.58984 12.3047C8.58984 12.1553 8.625 11.9707 8.68652 11.8389H10.9717C11.3232 11.8389 11.6045 11.5488 11.6045 11.1973C11.6045 10.8457 11.3232 10.5469 10.9717 10.5469H4.52051C4.18652 10.5469 3.95801 10.3271 3.95801 10.002C3.95801 9.68555 4.18652 9.45703 4.52051 9.45703H13.6963C14.1797 9.45703 14.4961 9.13184 14.4961 8.71875C14.4961 8.38477 14.3467 8.08594 13.8984 7.875L11.2002 6.61816C10.9365 6.5127 10.7871 6.35449 10.7871 6.09961C10.7871 5.7832 11.0156 5.58984 11.2793 5.58984C11.4199 5.58984 11.5166 5.60742 11.6309 5.65137L15.999 7.26855C18.917 8.34961 20.1035 10.1953 20.1035 12.6826Z" fill="#1C1C1E"/>
</g>
<defs>
<clipPath id="clip0_10_1093">
<rect width="24" height="24" fill="white"/>
</clipPath>
</defs>
</svg>
