<svg width="24" height="24" viewBox="0 0 24 24" fill="none" xmlns="http://www.w3.org/2000/svg">
<g clip-path="url(#clip0_10_1052)">
<path d="M2.70996 12.7441C2.70996 16.6904 5.17969 18.9316 9.38965 18.9316H11.1387C12.7295 18.9316 13.749 18.167 13.749 17.2529C13.749 17.0332 13.6172 16.9014 13.4062 16.9014H12.6504C12.3164 16.9014 12.1494 16.7432 12.1494 16.541C12.1494 16.3301 12.3076 16.1719 12.6504 16.1719H13.1426C14.1006 16.1719 14.7334 15.5479 14.7334 14.7129C14.7334 14.3174 14.5576 14.1328 14.2236 14.1328H13.1865C12.8525 14.1328 12.6855 13.9746 12.6855 13.7725C12.6855 13.5615 12.8438 13.3945 13.1865 13.3945H14.1445C15.1992 13.3945 15.7354 12.7881 15.7354 11.9531C15.7354 11.584 15.5508 11.373 15.2256 11.373H13.1865C12.8525 11.373 12.6855 11.2148 12.6855 11.0127C12.6855 10.8018 12.8525 10.6436 13.1865 10.6436H19.9102C20.6045 10.6436 21.0703 10.1865 21.0703 9.58887C21.0703 8.94727 20.6045 8.50781 19.9102 8.50781H10.1455C9.92578 8.50781 9.81152 8.37598 9.81152 8.22656C9.81152 8.09473 9.89062 7.98926 10.1016 7.89258L13.1338 6.61816C13.6084 6.41602 13.8633 6.09082 13.8633 5.625C13.8633 4.97461 13.415 4.53516 12.8438 4.53516C12.6328 4.53516 12.4482 4.5791 12.2988 4.63184L7.89551 6.12598C4.23926 7.37402 2.70996 9.78223 2.70996 12.7441Z" fill="#1C1C1E"/>
</g>
<defs>
<clipPath id="clip0_10_1052">
<rect width="24" height="24" fill="white"/>
</clipPath>
</defs>
</svg>
