<svg width="24" height="24" viewBox="0 0 24 24" fill="none" xmlns="http://www.w3.org/2000/svg">
<g clip-path="url(#clip0_10_1043)">
<path d="M6.7793 3.8584C7.11328 3.7793 7.35059 3.42773 7.27148 3.10254L6.75293 0.685547C6.67383 0.342773 6.33984 0.131836 5.99707 0.202148C5.6543 0.263672 5.42578 0.606445 5.49609 0.949219L6.02344 3.35742C6.09375 3.7002 6.42773 3.9375 6.7793 3.8584ZM3.36035 4.79883C3.61523 5.04492 4.01953 5.04492 4.25684 4.79883C4.49414 4.54395 4.50293 4.14844 4.25684 3.90234L2.49902 2.14453C2.24414 1.88965 1.85742 1.89844 1.61133 2.14453C1.35645 2.39941 1.34766 2.78613 1.61133 3.04102L3.36035 4.79883ZM10.2422 19.9951C13.0371 22.79 16.5703 22.5703 19.1016 20.0479C21 18.1494 21.457 16.1543 20.7627 13.7549C20.3936 12.1904 19.4883 10.4502 18.6973 8.95605C18.293 8.18262 17.8008 7.18066 17.4932 6.8291C17.1504 6.43359 16.6318 6.40723 16.2363 6.75C15.7793 7.14551 15.7617 7.67285 16.0518 8.49902L17.0537 11.2324C17.1504 11.4961 17.1328 11.6543 17.0361 11.751C16.9219 11.8652 16.7725 11.8828 16.5703 11.6719L10.0049 5.10645C9.60059 4.70215 8.96777 4.70215 8.56348 5.10645C8.16797 5.50195 8.16797 6.14355 8.56348 6.53906L13.3447 11.3203C13.1338 11.4258 12.9053 11.5488 12.6855 11.6982L7.16602 6.17871C6.76172 5.77441 6.12891 5.77441 5.7334 6.17871C5.3291 6.57422 5.3291 7.20703 5.7334 7.61133L11.1826 13.0693C11.0156 13.2627 10.8574 13.4736 10.708 13.6846L5.70703 8.6748C5.30273 8.2793 4.66992 8.27051 4.26562 8.6748C3.87012 9.07031 3.87012 9.71191 4.27441 10.1074L9.70605 15.5391C9.60059 15.8203 9.53027 16.0928 9.46875 16.3564L5.68945 12.5684C5.28516 12.1729 4.65234 12.1729 4.25684 12.5684C3.85254 12.9727 3.85254 13.6055 4.25684 14.0098L10.2422 19.9951ZM14.918 6.64453L13.3799 5.10645C12.9756 4.70215 12.334 4.71094 11.9385 5.10645C11.9209 5.12402 11.9033 5.1416 11.8857 5.16797L14.8301 8.1123C14.7773 7.58496 14.8037 7.09277 14.918 6.64453ZM2.45508 7.80469C2.78906 7.875 3.13184 7.65527 3.19336 7.3125C3.26367 6.96973 3.05273 6.64453 2.70996 6.57422L0.28418 6.04688C-0.0849609 5.96777 -0.427734 6.20508 -0.480469 6.57422C-0.533203 6.9082 -0.313477 7.22461 0.0205078 7.29492L2.45508 7.80469ZM22.4678 20.0479C24.3662 18.1494 24.832 16.1543 24.1377 13.7549C23.7598 12.1904 22.8633 10.4502 22.0635 8.95605C21.668 8.17383 21.1758 7.17188 20.8594 6.8291C20.5166 6.43359 20.0068 6.40723 19.6025 6.75C19.4355 6.89062 19.3301 7.05762 19.2686 7.24219C19.4971 7.66406 19.7168 8.10352 19.9453 8.52539C20.71 9.97559 21.6416 11.8125 22.0107 13.4824C22.8105 16.374 22.1689 18.8086 20.0068 20.9531C19.6289 21.3398 19.2158 21.6738 18.8027 21.9551C20.1211 21.7881 21.3955 21.1289 22.4678 20.0479Z" fill="#1C1C1E"/>
</g>
<defs>
<clipPath id="clip0_10_1043">
<rect width="24" height="24" fill="white"/>
</clipPath>
</defs>
</svg>
