<svg width="24" height="24" viewBox="0 0 24 24" fill="none" xmlns="http://www.w3.org/2000/svg">
<g clip-path="url(#clip0_10_1045)">
<path d="M18.7324 18.5186C21.0264 16.2246 21.4131 13.377 19.8486 10.0811L17.8447 5.8623C17.6953 5.55469 17.5195 5.29102 17.3174 5.08887C16.6055 4.37695 15.5596 4.39453 14.8477 5.09766C14.4082 5.53711 14.25 6.20508 14.5225 6.89062L15.0059 8.04199C15.0234 8.07715 15.0146 8.1123 14.9971 8.12988C14.9619 8.16504 14.9268 8.15625 14.9004 8.12109L10.1279 3.34863C9.33691 2.56641 8.31738 2.56641 7.54395 3.33105C7.31543 3.56836 7.1748 3.86719 7.13965 4.1748C6.39258 3.66504 5.5752 3.72656 4.93359 4.36816C4.30957 4.9834 4.24805 5.83594 4.72266 6.56543C4.43262 6.5918 4.16016 6.72363 3.94922 6.93457C3.2373 7.64648 3.24609 8.63086 3.98438 9.36914L4.55566 9.94922C4.25684 9.95801 3.95801 10.0986 3.7207 10.3359C3 11.0479 3.02637 12.085 3.79102 12.8496L9.23145 18.29C12.2461 21.2959 15.9463 21.3047 18.7324 18.5186ZM17.6338 17.4902C15.4014 19.7227 12.624 19.6611 10.1367 17.1738L4.91602 11.9531C4.67871 11.7158 4.66992 11.3994 4.89844 11.1797C5.11816 10.9512 5.45215 10.9512 5.68066 11.1797L8.88867 14.3877C9.15234 14.6514 9.55664 14.625 9.80273 14.3789C10.0576 14.124 10.084 13.7197 9.82031 13.4473L5.02148 8.64844C4.78418 8.41113 4.7666 8.09473 4.99512 7.875C5.22363 7.64648 5.54883 7.64648 5.78613 7.875L10.2686 12.3574C10.5322 12.6211 10.9365 12.5947 11.1826 12.3486C11.4375 12.0938 11.4639 11.6895 11.2002 11.4258L5.93555 6.15234C5.69824 5.92383 5.68945 5.58984 5.91797 5.37012C6.1377 5.1416 6.47168 5.15039 6.7002 5.3877L11.8945 10.5732C12.1494 10.8281 12.5537 10.8193 12.8086 10.5645C13.0635 10.3096 13.0811 9.89648 12.8262 9.6416L8.42285 5.23828C8.19434 5.00977 8.18555 4.68457 8.41406 4.45605C8.64258 4.22754 8.95898 4.23633 9.19629 4.47363L15.3926 10.6699C15.7529 11.0303 16.1836 10.9951 16.4824 10.7051C16.7285 10.4502 16.8428 10.1074 16.6582 9.63281L15.5508 6.73242C15.4189 6.38086 15.542 6.09961 15.8057 5.97656C16.1045 5.84473 16.377 5.97656 16.5439 6.3457L18.5742 10.6963C19.9189 13.5703 19.4355 15.6885 17.6338 17.4902Z" fill="#1C1C1E"/>
</g>
<defs>
<clipPath id="clip0_10_1045">
<rect width="24" height="24" fill="white"/>
</clipPath>
</defs>
</svg>
