<svg width="24" height="24" viewBox="0 0 24 24" fill="none" xmlns="http://www.w3.org/2000/svg">
<g clip-path="url(#clip0_10_1051)">
<path d="M12.9932 21.1729C16.9395 21.1729 19.4883 18.6064 19.4883 14.3086V12.1904C19.4883 10.1074 18.4775 8.85059 16.7637 8.81543C16.5352 8.15625 15.9551 7.75195 15.1904 7.75195C14.9355 7.75195 14.6982 7.7959 14.4697 7.86621C14.2061 7.1543 13.6172 6.71484 12.8262 6.71484C12.6592 6.71484 12.4922 6.74121 12.3164 6.79395V4.16602C12.3164 2.95312 11.5166 2.14453 10.374 2.14453C9.20508 2.14453 8.39648 2.95312 8.39648 4.16602V11.1006C8.39648 11.1533 8.37012 11.1885 8.32617 11.1885C8.2998 11.1885 8.27344 11.1709 8.26465 11.1357L7.77246 9.97559C7.45605 9.3252 6.91992 8.97363 6.27832 8.97363C5.31152 8.97363 4.51172 9.59766 4.51172 10.6523C4.50293 10.9512 4.57324 11.3203 4.67871 11.6455L6.26074 16.0488C7.47363 19.4326 9.75879 21.1729 12.9932 21.1729ZM13.0371 19.6523C10.5498 19.6523 8.7041 18.4746 7.63184 15.5479L6.00586 11.1797C5.9707 11.0654 5.94434 10.9688 5.94434 10.8369C5.94434 10.5645 6.1377 10.3359 6.46289 10.3359C6.70898 10.3359 6.86719 10.4941 6.98145 10.749L8.22949 13.4473C8.44043 13.8955 8.73926 14.0449 9.08203 14.0449C9.49512 14.0449 9.81152 13.7285 9.81152 13.2539V4.06934C9.81152 3.74414 10.04 3.50684 10.3652 3.50684C10.6816 3.50684 10.9014 3.74414 10.9014 4.06934V10.5205C10.9014 10.8721 11.2002 11.1533 11.5518 11.1533C11.9033 11.1533 12.1934 10.8721 12.1934 10.5205V8.23535C12.334 8.17383 12.5098 8.13867 12.668 8.13867C13.0459 8.13867 13.2832 8.39355 13.2832 8.78906V10.8721C13.2832 11.2412 13.5908 11.4961 13.9336 11.4961C14.2764 11.4961 14.5664 11.2412 14.5664 10.8721V9.27246C14.707 9.21973 14.8828 9.17578 15.041 9.17578C15.4189 9.17578 15.6562 9.43066 15.6562 9.83496V11.2148C15.6562 11.584 15.9639 11.8477 16.3154 11.8477C16.6582 11.8477 16.957 11.584 16.957 11.2148V10.3359C17.6602 10.3359 18.0557 11.0215 18.0557 12.252V14.1592C18.0557 17.666 16.166 19.6523 13.0371 19.6523Z" fill="#1C1C1E"/>
</g>
<defs>
<clipPath id="clip0_10_1051">
<rect width="24" height="24" fill="white"/>
</clipPath>
</defs>
</svg>
