<svg width="24" height="24" viewBox="0 0 24 24" fill="none" xmlns="http://www.w3.org/2000/svg">
<g clip-path="url(#clip0_10_1114)">
<path d="M15.5596 19.5996C19.2686 18.2549 20.5342 15.1611 19.0928 11.2061L18.4951 9.5625C17.9502 8.06836 16.8779 7.37402 16.0254 7.68164C15.8145 7.76074 15.7441 7.92773 15.8145 8.12109L16.0781 8.83301C16.1924 9.14941 16.0957 9.36035 15.9111 9.43066C15.709 9.50098 15.498 9.4043 15.3838 9.08789L15.208 8.62207C14.8828 7.72559 14.0918 7.33887 13.3008 7.62891C12.9316 7.76074 12.8174 7.98926 12.9316 8.30566L13.2832 9.28125C13.3975 9.59766 13.3096 9.7998 13.125 9.87012C12.9229 9.94043 12.7119 9.85254 12.5977 9.52734L12.2637 8.63086C11.9033 7.6377 11.1475 7.34766 10.3652 7.62891C10.0137 7.76074 9.88184 7.99805 9.99609 8.30566L10.6904 10.2217C10.8047 10.5381 10.708 10.749 10.5322 10.8105C10.3301 10.8896 10.1191 10.793 10.0049 10.4766L7.70215 4.14844C7.46484 3.49805 6.87598 3.22559 6.31348 3.42773C5.71582 3.64746 5.46094 4.22754 5.69824 4.87793L9.03809 14.0537C9.11719 14.2646 9.0293 14.4229 8.89746 14.4756C8.77441 14.5195 8.63379 14.4756 8.47559 14.3086L6.23438 11.9004C5.88281 11.5225 5.49609 11.3906 5.05664 11.5488C4.44141 11.7773 4.18652 12.3486 4.37988 12.8848C4.45898 13.0781 4.55566 13.2363 4.66113 13.3682L7.57031 16.9893C9.99609 19.9951 12.7822 20.6104 15.5596 19.5996Z" fill="#1C1C1E"/>
</g>
<defs>
<clipPath id="clip0_10_1114">
<rect width="24" height="24" fill="white"/>
</clipPath>
</defs>
</svg>
