<svg width="24" height="24" viewBox="0 0 24 24" fill="none" xmlns="http://www.w3.org/2000/svg">
<g clip-path="url(#clip0_10_1048)">
<path d="M9.84668 2.64551C10.6553 2.64551 11.3145 1.99512 11.3145 1.18652C11.3145 0.386719 10.6553 -0.263672 9.84668 -0.263672C9.04688 -0.263672 8.39648 0.386719 8.39648 1.18652C8.39648 1.99512 9.04688 2.64551 9.84668 2.64551ZM18.583 2.64551C19.3916 2.64551 20.0508 1.99512 20.0508 1.18652C20.0508 0.386719 19.3916 -0.263672 18.583 -0.263672C17.792 -0.263672 17.1328 0.386719 17.1328 1.18652C17.1328 1.99512 17.792 2.64551 18.583 2.64551ZM5.38184 6.8291C6.19922 6.8291 6.84082 6.17871 6.84082 5.37012C6.84082 4.57031 6.19922 3.91992 5.38184 3.91992C4.58203 3.91992 3.94043 4.57031 3.94043 5.37012C3.94043 6.17871 4.58203 6.8291 5.38184 6.8291ZM14.3643 6.8291C15.1729 6.8291 15.832 6.17871 15.832 5.37012C15.832 4.57031 15.1729 3.91992 14.3643 3.91992C13.5645 3.91992 12.9141 4.57031 12.9141 5.37012C12.9141 6.17871 13.5645 6.8291 14.3643 6.8291ZM18.583 6.8291C19.3916 6.8291 20.0508 6.17871 20.0508 5.37012C20.0508 4.57031 19.3916 3.91992 18.583 3.91992C17.792 3.91992 17.1328 4.57031 17.1328 5.37012C17.1328 6.17871 17.792 6.8291 18.583 6.8291ZM13.002 22.8164C16.9482 22.8164 19.1895 20.3467 19.1895 16.1367V14.3877C19.1895 12.7969 18.4248 11.7773 17.5195 11.7773C17.291 11.7773 17.168 11.9004 17.168 12.1201V12.876C17.168 13.21 17.001 13.377 16.8076 13.377C16.5967 13.377 16.4297 13.21 16.4297 12.876V12.3838C16.4297 11.4258 15.8145 10.793 14.9795 10.793C14.584 10.793 14.3994 10.96 14.3994 11.3027V12.3398C14.3994 12.6738 14.2324 12.8408 14.0391 12.8408C13.8193 12.8408 13.6611 12.6738 13.6611 12.3398V11.3818C13.6611 10.3271 13.0459 9.79102 12.2197 9.79102C11.8418 9.79102 11.6396 9.97559 11.6396 10.3008V12.3398C11.6396 12.6738 11.4727 12.8408 11.2793 12.8408C11.0684 12.8408 10.9014 12.6738 10.9014 12.3398V5.60742C10.9014 4.92188 10.4443 4.45605 9.84668 4.45605C9.21387 4.45605 8.77441 4.91309 8.77441 5.60742V15.3721C8.77441 15.6006 8.63379 15.7148 8.49316 15.7148C8.36133 15.7148 8.24707 15.6357 8.15918 15.4248L6.87598 12.3926C6.67383 11.9092 6.35742 11.6631 5.8916 11.6631C5.23242 11.6631 4.79297 12.1113 4.79297 12.6826C4.79297 12.8936 4.83691 13.0693 4.88965 13.2275L6.39258 17.6309C7.64062 21.2871 10.04 22.8164 13.002 22.8164Z" fill="#1C1C1E"/>
</g>
<defs>
<clipPath id="clip0_10_1048">
<rect width="24" height="24" fill="white"/>
</clipPath>
</defs>
</svg>
