<svg width="24" height="24" viewBox="0 0 24 24" fill="none" xmlns="http://www.w3.org/2000/svg">
<g clip-path="url(#clip0_10_1054)">
<path d="M2.48145 15.2578C2.83301 15.249 3.09668 14.9678 3.10547 14.6162C3.19336 10.8018 5.16211 7.96289 8.17676 6.87305L10.0928 12.1465C10.1104 12.1904 10.1016 12.2256 10.0576 12.2432C10.0312 12.252 10.0049 12.2432 9.97852 12.2168L9.11719 11.2939C8.59863 10.793 7.97461 10.6436 7.36816 10.8633C6.46289 11.1973 5.92676 12.0586 6.28711 13.043C6.38379 13.333 6.56836 13.6582 6.78809 13.9219L9.77637 17.5166C12.0703 20.2852 14.8213 21.1377 17.8535 20.0303C21.5625 18.6768 23.083 15.3896 21.6152 11.3555L20.8945 9.36914C20.1738 7.40918 18.7939 6.57422 17.1768 7.12793C16.7285 6.5918 16.0518 6.40723 15.3311 6.6709C15.0938 6.75879 14.8828 6.87305 14.6982 7.02246C14.2061 6.44238 13.4941 6.23145 12.7559 6.50391C12.5977 6.55664 12.4482 6.64453 12.3076 6.75L11.4023 4.28027C10.9893 3.1377 9.96094 2.6543 8.88867 3.04102C7.79004 3.43652 7.30664 4.48242 7.71973 5.625L7.72852 5.65137C4.23047 6.92578 1.83105 10.292 1.83105 14.5898C1.83105 14.959 2.13867 15.2666 2.48145 15.2578ZM17.3789 18.5889C15.041 19.4414 12.9053 18.958 10.8926 16.5762L7.87793 13.0342C7.79883 12.9375 7.74609 12.8496 7.69336 12.7266C7.60547 12.4717 7.71094 12.1904 8.00977 12.085C8.24707 11.9971 8.44922 12.085 8.64258 12.2959L10.7432 14.3965C11.0947 14.748 11.4287 14.792 11.7451 14.6777C12.1318 14.5371 12.3164 14.124 12.1582 13.6758L9.02051 5.05371C8.90625 4.7373 9.03809 4.44727 9.3457 4.33301C9.64453 4.22754 9.92578 4.36816 10.04 4.67578L12.2461 10.7402C12.3691 11.0742 12.7471 11.2324 13.0811 11.1094C13.4062 10.9863 13.582 10.626 13.4678 10.292L12.6855 8.14746C12.791 8.04199 12.9492 7.94531 13.0898 7.89258C13.4502 7.76074 13.7578 7.91895 13.8984 8.29688L14.6104 10.248C14.7334 10.5996 15.1025 10.7402 15.4365 10.6172C15.7529 10.5029 15.9375 10.1602 15.8145 9.80859L15.2695 8.31445C15.375 8.20898 15.5332 8.1123 15.6738 8.05957C16.0342 7.92773 16.3418 8.08594 16.4824 8.46387L16.957 9.75586C17.0801 10.1074 17.458 10.2568 17.792 10.1338C18.1084 10.0195 18.3018 9.66797 18.1699 9.31641L17.8711 8.49023C18.5391 8.25293 19.1367 8.7627 19.5586 9.91406L20.209 11.707C21.4131 15.0029 20.3232 17.5166 17.3789 18.5889Z" fill="#1C1C1E"/>
</g>
<defs>
<clipPath id="clip0_10_1054">
<rect width="24" height="24" fill="white"/>
</clipPath>
</defs>
</svg>
