<svg width="24" height="24" viewBox="0 0 24 24" fill="none" xmlns="http://www.w3.org/2000/svg">
<g clip-path="url(#clip0_10_1044)">
<path d="M7.00781 3.8584C7.3418 3.7793 7.5791 3.42773 7.5 3.10254L6.98145 0.685547C6.90234 0.342773 6.56836 0.131836 6.22559 0.202148C5.88281 0.263672 5.6543 0.606445 5.72461 0.949219L6.25195 3.35742C6.32227 3.7002 6.65625 3.9375 7.00781 3.8584ZM3.58887 4.79883C3.84375 5.04492 4.24805 5.04492 4.48535 4.79883C4.72266 4.54395 4.73145 4.14844 4.48535 3.90234L2.72754 2.14453C2.47266 1.88965 2.08594 1.89844 1.83984 2.14453C1.58496 2.39941 1.57617 2.78613 1.83984 3.04102L3.58887 4.79883ZM11.1387 4.40332C11.0068 4.53516 10.9014 4.68457 10.8398 4.84277C10.1016 4.33301 9.24023 4.4209 8.56348 5.08887C8.32617 5.32617 8.18555 5.61621 8.15918 5.92383C7.41211 5.42285 6.58594 5.48438 5.94434 6.12598C5.3291 6.74121 5.25879 7.58496 5.74219 8.32324C5.45215 8.34082 5.17969 8.48145 4.96875 8.68359C4.24805 9.4043 4.26562 10.3887 4.99512 11.127L5.5752 11.6982C5.27637 11.707 4.96875 11.8564 4.73145 12.0938C4.01953 12.8057 4.0459 13.8428 4.81055 14.5986L10.251 20.0391C12.6504 22.4473 15.498 22.9307 17.959 21.6211C19.4531 21.5684 20.9209 20.9004 22.1953 19.6348C24.498 17.332 24.8848 14.4756 23.3203 11.1973L21.3164 6.96973C20.9209 6.15234 20.2705 5.66895 19.4795 5.67773C19.0488 5.67773 18.3105 5.90625 18.0029 6.58301C17.3789 6.1875 16.6055 6.24023 16.0166 6.71484L13.7227 4.4209C12.9229 3.62109 11.9209 3.64746 11.1387 4.40332ZM15.9199 9.87891L11.8242 5.7832C11.8506 5.69531 11.9033 5.60742 11.9736 5.52832C12.2197 5.29102 12.5537 5.30859 12.8086 5.55469L15.4189 8.17383C15.4365 8.33203 15.4805 8.49023 15.542 8.64844L16.0254 9.7998C16.0342 9.83496 16.0342 9.86133 16.0166 9.8877C15.9814 9.91406 15.9463 9.90527 15.9199 9.87891ZM2.68359 7.80469C3.01758 7.875 3.36035 7.65527 3.42188 7.3125C3.49219 6.96973 3.28125 6.64453 2.93848 6.57422L0.512695 6.04688C0.143555 5.96777 -0.199219 6.20508 -0.251953 6.57422C-0.295898 6.9082 -0.0849609 7.22461 0.249023 7.29492L2.68359 7.80469ZM18.6445 19.248C16.4209 21.4717 13.6436 21.4189 11.1475 18.9229L5.93555 13.7109C5.69824 13.4736 5.68066 13.1572 5.90918 12.9287C6.1377 12.7002 6.46289 12.7002 6.7002 12.9375L9.89941 16.1367C10.1719 16.4092 10.5762 16.3828 10.8223 16.1367C11.0771 15.8818 11.1035 15.4688 10.8398 15.2051L6.03223 10.4062C5.80371 10.1689 5.78613 9.85254 6.01465 9.62402C6.24316 9.39551 6.56836 9.39551 6.80566 9.63281L11.2793 14.1064C11.5518 14.3789 11.9561 14.3525 12.2021 14.1064C12.457 13.8516 12.4834 13.4473 12.2197 13.1748L6.95508 7.91016C6.71777 7.68164 6.70898 7.34766 6.9375 7.11914C7.15723 6.89941 7.48242 6.9082 7.71973 7.14551L12.9053 12.3311C13.1689 12.5859 13.5732 12.5771 13.8281 12.3223C14.083 12.0674 14.1006 11.6543 13.8457 11.3906L9.44238 6.99609C9.20508 6.75879 9.20508 6.44238 9.4248 6.21387C9.65332 5.98535 9.97852 5.99414 10.207 6.22266L16.4121 12.4189C16.7637 12.7793 17.2031 12.7529 17.4932 12.4541C17.748 12.208 17.8535 11.8652 17.6689 11.3906L16.5615 8.49023C16.4297 8.13867 16.5615 7.85742 16.8252 7.73438C17.1152 7.60254 17.3877 7.73438 17.5547 8.10352L19.5938 12.4453C20.9385 15.3281 20.4551 17.4375 18.6445 19.248ZM20.8682 11.8389L18.9873 7.89258C18.9697 7.81348 18.9521 7.74316 18.9521 7.65527C18.9521 7.3916 19.1631 7.14551 19.4971 7.14551C19.7168 7.14551 19.9277 7.29492 20.042 7.54102L22.0371 11.8037C23.3906 14.6777 22.9072 16.7959 21.0967 18.5977C21.0527 18.6504 21 18.6943 20.9473 18.7471C22.1162 16.752 22.0986 14.4316 20.8682 11.8389Z" fill="#1C1C1E"/>
</g>
<defs>
<clipPath id="clip0_10_1044">
<rect width="24" height="24" fill="white"/>
</clipPath>
</defs>
</svg>
