<svg width="24" height="24" viewBox="0 0 24 24" fill="none" xmlns="http://www.w3.org/2000/svg">
<g clip-path="url(#clip0_10_1053)">
<path d="M2.36719 12.6387C2.36719 16.585 4.93359 19.1338 9.23145 19.1338H11.3496C13.4326 19.1338 14.6895 18.1143 14.7246 16.4092C15.3838 16.1807 15.7881 15.5918 15.7881 14.8359C15.7881 14.5811 15.7441 14.3438 15.665 14.1152C16.3857 13.8516 16.8252 13.2539 16.8252 12.4717C16.8252 12.3047 16.7988 12.1289 16.7461 11.9619H19.374C20.5869 11.9619 21.3955 11.1533 21.3955 10.0107C21.3955 8.85059 20.5869 8.0332 19.374 8.0332H12.4307C12.3867 8.0332 12.3516 8.01562 12.3516 7.97168C12.3516 7.93652 12.3691 7.91895 12.4043 7.90137L13.5645 7.41797C14.2148 7.09277 14.5664 6.55664 14.5664 5.91504C14.5664 4.94824 13.9424 4.14844 12.8877 4.15723C12.5889 4.14844 12.2197 4.20996 11.8945 4.32422L7.49121 5.89746C4.10742 7.11035 2.3584 9.4043 2.36719 12.6387ZM3.8877 12.6826C3.8877 10.1953 5.06543 8.34961 7.99219 7.26855L12.3604 5.65137C12.4746 5.60742 12.5713 5.58984 12.7031 5.58984C12.9756 5.58984 13.2041 5.7832 13.2041 6.09961C13.2041 6.35449 13.0459 6.5127 12.791 6.61816L10.0928 7.875C9.64453 8.08594 9.49512 8.38477 9.49512 8.71875C9.49512 9.13184 9.81152 9.45703 10.2861 9.45703H19.4619C19.7959 9.45703 20.0244 9.68555 20.0244 10.002C20.0244 10.3271 19.7959 10.5469 19.4619 10.5469H13.0195C12.6592 10.5469 12.3867 10.8457 12.3867 11.1973C12.3867 11.5488 12.6592 11.8389 13.0195 11.8389H15.3047C15.3662 11.9707 15.4014 12.1553 15.4014 12.3047C15.4014 12.6914 15.1465 12.9287 14.7422 12.9287H12.668C12.2988 12.9287 12.0352 13.2275 12.0352 13.5791C12.0352 13.9131 12.2988 14.2119 12.668 14.2119H14.2676C14.3203 14.3438 14.3643 14.5283 14.3643 14.6777C14.3643 15.0645 14.1094 15.3018 13.7051 15.3018H12.3252C11.9561 15.3018 11.6924 15.6094 11.6924 15.9521C11.6924 16.2949 11.9561 16.5938 12.3252 16.5938H13.2041C13.2041 17.3057 12.5186 17.6924 11.2881 17.6924H9.38086C5.87402 17.6924 3.8877 15.8115 3.8877 12.6826Z" fill="#1C1C1E"/>
</g>
<defs>
<clipPath id="clip0_10_1053">
<rect width="24" height="24" fill="white"/>
</clipPath>
</defs>
</svg>
