<svg width="24" height="24" viewBox="0 0 24 24" fill="none" xmlns="http://www.w3.org/2000/svg">
<g clip-path="url(#clip0_10_1123)">
<path d="M7.28906 14.9414C7.23633 18.4043 10.0488 20.9883 14.3818 21.0234L15.6475 21.0322C16.834 21.0498 17.7393 20.9619 18.2666 20.8213C19.0576 20.6279 19.752 20.127 19.752 19.2393C19.752 18.8877 19.6729 18.6328 19.5586 18.4307C19.4971 18.3252 19.5059 18.2373 19.6025 18.2021C20.2002 17.9297 20.6484 17.376 20.6484 16.6465C20.6484 16.2334 20.5342 15.8643 20.3408 15.5918C20.2529 15.4688 20.2705 15.3633 20.4111 15.2842C20.833 15.0117 21.1143 14.4844 21.1143 13.8691C21.1143 13.4297 20.9824 12.9639 20.7363 12.7266C20.6221 12.6123 20.6396 12.5332 20.7715 12.4189C21.0615 12.1641 21.2373 11.7158 21.2373 11.2061C21.2373 10.2568 20.499 9.49219 19.541 9.49219H16.2715C15.4805 9.49219 14.9619 9.09668 14.9619 8.45508C14.9619 7.2334 16.5176 4.94824 16.5176 3.28711C16.5176 2.39062 15.9375 1.83691 15.1553 1.83691C14.4785 1.83691 14.127 2.28516 13.7314 3.03223C12.3516 5.71289 10.5234 7.89258 9.1084 9.75586C7.88672 11.3818 7.32422 12.7617 7.28906 14.9414ZM2.70996 15.0117C2.70996 17.833 4.45898 20.1533 6.78809 20.1533H8.37012C6.73535 18.8965 5.95312 17.042 5.98828 14.915C6.02344 12.6387 6.83203 10.9863 7.70215 9.84375H6.44531C4.32715 9.84375 2.70996 12.1025 2.70996 15.0117Z" fill="#1C1C1E"/>
</g>
<defs>
<clipPath id="clip0_10_1123">
<rect width="24" height="24" fill="white"/>
</clipPath>
</defs>
</svg>
