<svg width="24" height="24" viewBox="0 0 24 24" fill="none" xmlns="http://www.w3.org/2000/svg">
<g clip-path="url(#clip0_10_1124)">
<path d="M15.6826 20.0303C19.3916 18.6768 20.9121 15.3896 19.4443 11.3555L18.7148 9.36914C18.0029 7.40918 16.623 6.57422 15.0059 7.12793C14.5576 6.58301 13.8809 6.40723 13.1602 6.6709C12.9229 6.75879 12.7119 6.87305 12.5186 7.02246C12.0352 6.44238 11.3232 6.23145 10.585 6.50391C10.4268 6.55664 10.2773 6.64453 10.1279 6.75L9.23145 4.28027C8.81836 3.1377 7.78125 2.6543 6.70898 3.04102C5.61914 3.43652 5.12695 4.47363 5.54883 5.61621L7.92188 12.1377C7.93945 12.1904 7.93066 12.2256 7.88672 12.2432C7.86035 12.252 7.8252 12.2432 7.79883 12.2168L6.94629 11.2939C6.42773 10.793 5.80371 10.6436 5.19727 10.8633C4.29199 11.1973 3.75586 12.0586 4.11621 13.043C4.21289 13.3242 4.39746 13.6582 4.61719 13.9219L7.60547 17.5166C9.89941 20.2852 12.6416 21.1377 15.6826 20.0303ZM15.208 18.5889C12.8701 19.4414 10.7344 18.958 8.72168 16.5762L5.70703 13.0342C5.62793 12.9375 5.56641 12.8496 5.52246 12.7266C5.43457 12.4717 5.54004 12.1904 5.83887 12.085C6.07617 11.9971 6.27832 12.085 6.46289 12.2871L8.57227 14.3965C8.91504 14.748 9.24902 14.792 9.57422 14.6777C9.96094 14.5283 10.1455 14.124 9.9873 13.6758L6.84961 5.04492C6.73535 4.7373 6.86719 4.43848 7.16602 4.33301C7.47363 4.22754 7.75488 4.36816 7.86914 4.67578L10.0752 10.7314C10.1982 11.0654 10.5762 11.2236 10.9102 11.1094C11.2354 10.9863 11.4111 10.626 11.2881 10.292L10.5059 8.14746C10.6201 8.04199 10.7695 7.94531 10.9189 7.89258C11.2793 7.76074 11.5869 7.91895 11.7275 8.29688L12.4395 10.248C12.5625 10.5908 12.9316 10.7402 13.2568 10.6172C13.5732 10.5029 13.7666 10.1602 13.6436 9.80859L13.0986 8.31445C13.2041 8.20898 13.3535 8.1123 13.5029 8.05957C13.8633 7.92773 14.1709 8.08594 14.3115 8.46387L14.7773 9.75586C14.9092 10.1074 15.2871 10.248 15.6123 10.1338C15.9375 10.0195 16.1309 9.66797 15.999 9.31641L15.7002 8.49023C16.3594 8.25293 16.9658 8.7627 17.3877 9.91406L18.0381 11.707C19.2422 15.0029 18.1436 17.5166 15.208 18.5889Z" fill="#1C1C1E"/>
</g>
<defs>
<clipPath id="clip0_10_1124">
<rect width="24" height="24" fill="white"/>
</clipPath>
</defs>
</svg>
