<svg width="24" height="24" viewBox="0 0 24 24" fill="none" xmlns="http://www.w3.org/2000/svg">
<g clip-path="url(#clip0_10_1040)">
<path d="M9.85547 2.72461C10.6641 2.72461 11.3145 2.06543 11.3145 1.25684C11.3145 0.457031 10.6641 -0.193359 9.85547 -0.193359C9.05566 -0.193359 8.40527 0.457031 8.40527 1.25684C8.40527 2.06543 9.05566 2.72461 9.85547 2.72461ZM18.8203 2.72461C19.6289 2.72461 20.2793 2.06543 20.2793 1.25684C20.2793 0.457031 19.6289 -0.193359 18.8203 -0.193359C18.0205 -0.193359 17.3613 0.457031 17.3613 1.25684C17.3613 2.06543 18.0205 2.72461 18.8203 2.72461ZM5.16211 6.89941C5.97949 6.89941 6.62109 6.24902 6.62109 5.44043C6.62109 4.64062 5.97949 3.99023 5.16211 3.99023C4.3623 3.99023 3.7207 4.64062 3.7207 5.44043C3.7207 6.24902 4.3623 6.89941 5.16211 6.89941ZM14.5928 6.89941C15.4014 6.89941 16.0605 6.24902 16.0605 5.44043C16.0605 4.64062 15.4014 3.99023 14.5928 3.99023C13.8018 3.99023 13.1426 4.64062 13.1426 5.44043C13.1426 6.24902 13.8018 6.89941 14.5928 6.89941ZM18.8203 6.89941C19.6289 6.89941 20.2793 6.24902 20.2793 5.44043C20.2793 4.64062 19.6289 3.99023 18.8203 3.99023C18.0205 3.99023 17.3613 4.64062 17.3613 5.44043C17.3613 6.24902 18.0205 6.89941 18.8203 6.89941ZM12.4746 23.1855C16.4209 23.1855 18.9697 20.6104 18.9697 16.3213V14.2031C18.9697 12.1113 17.959 10.8633 16.2451 10.8281C16.0166 10.1689 15.4365 9.76465 14.6719 9.76465C14.417 9.76465 14.1797 9.80859 13.9512 9.87891C13.6875 9.16699 13.0986 8.72754 12.3076 8.72754C12.1406 8.72754 11.9736 8.75391 11.7979 8.80664V6.17871C11.7979 4.95703 10.998 4.14844 9.85547 4.14844C8.68652 4.14844 7.87793 4.95703 7.87793 6.17871V13.1133C7.87793 13.166 7.85156 13.2012 7.80762 13.2012C7.78125 13.2012 7.75488 13.1748 7.74609 13.1396L7.25391 11.9883C6.9375 11.3379 6.40137 10.9863 5.75977 10.9863C4.79297 10.9863 3.99316 11.6104 3.99316 12.665C3.98438 12.9639 4.05469 13.333 4.16016 13.6582L5.74219 18.0615C6.94629 21.4453 9.24023 23.1855 12.4746 23.1855ZM12.5186 21.665C10.0312 21.665 8.18555 20.4873 7.11328 17.5605L5.4873 13.1924C5.45215 13.0781 5.42578 12.9814 5.42578 12.8408C5.42578 12.5771 5.61914 12.3486 5.94434 12.3486C6.19043 12.3486 6.34863 12.5068 6.46289 12.7617L7.71094 15.46C7.92188 15.9082 8.2207 16.0576 8.56348 16.0576C8.97656 16.0576 9.29297 15.7412 9.29297 15.2666V6.08203C9.29297 5.75684 9.52148 5.51953 9.83789 5.51953C10.1631 5.51953 10.3828 5.75684 10.3828 6.08203V12.5332C10.3828 12.8848 10.6816 13.166 11.0332 13.166C11.3848 13.166 11.6748 12.8848 11.6748 12.5332V10.248C11.8154 10.1865 11.9912 10.1514 12.1494 10.1514C12.5273 10.1514 12.7646 10.4062 12.7646 10.8018V12.8848C12.7646 13.2539 13.0723 13.5088 13.415 13.5088C13.7578 13.5088 14.0479 13.2539 14.0479 12.8848V11.2852C14.1885 11.2236 14.3643 11.1885 14.5225 11.1885C14.9004 11.1885 15.1377 11.4434 15.1377 11.8389V13.2275C15.1377 13.5967 15.4453 13.8604 15.7969 13.8604C16.1396 13.8604 16.4385 13.5967 16.4385 13.2275V12.3486C17.1416 12.3486 17.5371 13.0342 17.5371 14.2646V16.1719C17.5371 19.6699 15.6475 21.665 12.5186 21.665Z" fill="#1C1C1E"/>
</g>
<defs>
<clipPath id="clip0_10_1040">
<rect width="24" height="24" fill="white"/>
</clipPath>
</defs>
</svg>
