<svg width="24" height="24" viewBox="0 0 24 24" fill="none" xmlns="http://www.w3.org/2000/svg">
<g clip-path="url(#clip0_10_1117)">
<path d="M5.44336 16.1982C5.44336 18.7559 7.00781 20.3379 9.50391 20.3379C11.3584 20.3379 12.7383 19.4766 13.6084 17.8857L14.3906 16.4707C16.1045 13.3066 19.2246 12.6826 19.2246 8.30566C19.2246 4.12207 16.5 1.32715 12.4043 1.32715C8.24707 1.32715 5.44336 4.14844 5.44336 8.3584V16.1982ZM7.00781 16.1279V8.3584C7.00781 5.07129 9.16992 2.88281 12.4043 2.88281C15.5596 2.88281 17.6602 5.0625 17.6602 8.30566C17.6602 11.9268 14.8125 12.5508 12.9756 15.8203L12.2549 17.0771C11.6396 18.1846 10.7959 18.7471 9.57422 18.7471C7.97461 18.7471 7.00781 17.7539 7.00781 16.1279ZM8.32617 13.6406C8.32617 14.5459 9.02051 15.1523 10.0488 15.1523C11.3936 15.1436 12.3076 14.0537 12.3076 12.6475C12.3076 10.0283 9.74121 9.74707 9.75 7.93652C9.75 6.60059 10.8135 5.625 12.3955 5.625C14.0303 5.625 15.085 6.67969 15.085 8.29688C15.085 8.68359 15.4102 9.00879 15.7969 9.00879C16.1836 9.00879 16.5088 8.68359 16.5088 8.29688C16.5088 5.84473 14.8652 4.20996 12.3955 4.20996C9.96094 4.20996 8.32617 5.76562 8.32617 7.93652C8.32617 9.86133 10.0488 10.4766 10.0488 11.3027C10.0488 12.2256 8.32617 12.041 8.32617 13.6406Z" fill="#1C1C1E"/>
</g>
<defs>
<clipPath id="clip0_10_1117">
<rect width="24" height="24" fill="white"/>
</clipPath>
</defs>
</svg>
