<svg width="24" height="24" viewBox="0 0 24 24" fill="none" xmlns="http://www.w3.org/2000/svg">
<g clip-path="url(#clip0_10_1113)">
<path d="M17.7393 16.9277C17.8447 16.7168 17.9414 16.4883 18.0205 16.2422C18.4424 15.1611 18.8203 14.001 19.1631 12.876C19.4268 12.041 19.7871 10.9863 19.8135 10.5205C19.8486 9.99316 19.5059 9.61523 18.9785 9.58008C18.3721 9.53613 17.9941 9.8877 17.6162 10.6787L16.3857 13.3242C16.2715 13.5879 16.1484 13.6758 16.0078 13.6758C15.8496 13.6758 15.7354 13.5879 15.7354 13.2979V4.00781C15.7354 3.43652 15.2871 2.98828 14.7158 2.98828C14.1533 2.98828 13.7051 3.43652 13.7051 4.00781V10.7666C13.4766 10.6875 13.2305 10.6172 12.9756 10.5645V2.75977C12.9756 2.18848 12.5273 1.74023 11.9561 1.74023C11.3936 1.74023 10.9453 2.18848 10.9453 2.75977V9.87891C10.8311 9.8877 10.7959 9.8877 10.7168 9.90527L17.7393 16.9277ZM8.1416 7.33887L10.1719 9.36914V3.48926C10.1719 2.92676 9.72363 2.47852 9.16113 2.47852C8.58984 2.47852 8.1416 2.92676 8.1416 3.48926V7.33887ZM17.959 20.6631C18.2402 20.9355 18.6973 20.9355 18.9521 20.6631C19.2246 20.3818 19.2158 19.9424 18.9521 19.6787L3.95801 4.69336C3.67676 4.41211 3.22852 4.4209 2.95605 4.69336C2.69238 4.95703 2.69238 5.42285 2.95605 5.68652L17.959 20.6631ZM6.11133 5.31738L7.40332 6.60059V6.23145C7.40332 5.66895 6.95508 5.2207 6.39258 5.2207C6.27832 5.2207 6.19043 5.25586 6.11133 5.31738ZM11.6045 21.0059C13.2217 21.0059 14.5225 20.6016 15.5508 19.8105L5.37305 9.62402V14.7041C5.37305 18.6504 8.02734 21.0059 11.6045 21.0059Z" fill="#1C1C1E"/>
</g>
<defs>
<clipPath id="clip0_10_1113">
<rect width="24" height="24" fill="white"/>
</clipPath>
</defs>
</svg>
