<svg width="24" height="24" viewBox="0 0 24 24" fill="none" xmlns="http://www.w3.org/2000/svg">
<g clip-path="url(#clip0_10_1061)">
<path d="M2.85938 20.6191L6.55957 19.9072C8.63379 19.5029 9.55664 18.3604 9.55664 16.1631V15.0732V13.3154V5.69531C9.55664 3.70898 8.17676 2.39062 6.11133 2.39062C4.32715 2.39062 2.88574 3.57715 2.39355 5.44043L-0.638672 16.9277C-1.31543 19.4941 0.222656 21.1289 2.85938 20.6191ZM21.1318 20.6191C23.7686 21.1289 25.3066 19.4941 24.6299 16.9277L21.5977 5.44043C21.1055 3.57715 19.6641 2.39062 17.8799 2.39062C15.8145 2.39062 14.4346 3.70898 14.4346 5.69531V13.3154L12.8613 12.9814V3.7002C12.8613 3.22559 12.4746 2.83887 12 2.83887C11.5254 2.83887 11.1387 3.22559 11.1387 3.7002V12.9814L9.56543 13.3154V15.0732L12 14.5547L14.4346 15.0732V16.1631C14.4346 18.3604 15.3574 19.5029 17.4316 19.9072L21.1318 20.6191ZM7.83398 5.73047V13.0254L5.50488 10.9248C5.1709 10.626 4.59082 10.6436 4.2832 10.9863C3.9668 11.3379 4.00195 11.9004 4.35352 12.1992L6.35742 13.9922L3.94043 14.5107C3.49219 14.5986 3.18457 15.0645 3.27246 15.5215C3.36914 15.9785 3.84375 16.2861 4.30078 16.1895L7.83398 15.4424V16.1631C7.83398 17.4902 7.44727 17.9648 6.24316 18.2021L2.56055 18.9141C1.46191 19.1338 0.767578 18.4219 1.06641 17.2705L4.08105 5.84473C4.35352 4.81641 5.16211 4.12207 6.10254 4.12207C7.13086 4.12207 7.83398 4.77246 7.83398 5.73047ZM16.1572 5.73047C16.1572 4.77246 16.8604 4.12207 17.8887 4.12207C18.8291 4.12207 19.6377 4.81641 19.9102 5.84473L22.9248 17.2705C23.2236 18.4219 22.5293 19.1338 21.4307 18.9141L17.748 18.2021C16.5439 17.9648 16.1572 17.4902 16.1572 16.1631V15.4424L19.6904 16.1895C20.1475 16.2861 20.6221 15.9785 20.7188 15.5215C20.8066 15.0645 20.499 14.5986 20.0508 14.5107L17.6338 13.9922L19.6377 12.1992C19.9893 11.9004 20.0244 11.3379 19.708 10.9863C19.4004 10.6436 18.8203 10.626 18.4863 10.9248L16.1572 13.0254V5.73047Z" fill="#1C1C1E"/>
</g>
<defs>
<clipPath id="clip0_10_1061">
<rect width="24" height="24" fill="white"/>
</clipPath>
</defs>
</svg>
