<svg width="24" height="24" viewBox="0 0 24 24" fill="none" xmlns="http://www.w3.org/2000/svg">
<g clip-path="url(#clip0_10_1059)">
<path d="M3.18457 20.3818L6.67383 19.7051C8.625 19.3359 9.49512 18.2637 9.49512 16.1895V15.1348L11.9912 14.5986L14.4873 15.1348H14.4961V16.1895C14.4961 18.2637 15.3662 19.3359 17.3174 19.7051L20.8066 20.3818C23.2852 20.8652 24.709 19.3271 24.1025 16.9102L21.2373 5.4668C20.7979 3.70898 19.418 2.59277 17.7393 2.59277C15.7969 2.59277 14.4961 3.83203 14.4961 5.69531V13.3682L15.5596 13.5967L18.4863 10.9688C18.8203 10.6611 19.3916 10.6787 19.6992 11.0215C20.0156 11.3818 19.9805 11.9443 19.6289 12.2432L17.625 14.0361L20.042 14.5547C20.4902 14.6426 20.7979 15.1084 20.71 15.5654C20.6221 16.0225 20.1387 16.3301 19.6816 16.2334L14.4961 15.1348V13.3682L12.8525 13.0166V3.7002C12.8525 3.22559 12.4658 2.83887 11.9912 2.83887C11.5166 2.83887 11.1299 3.22559 11.1299 3.7002V13.0166L9.49512 13.3682V15.1348V13.3682V5.69531C9.49512 3.83203 8.18555 2.59277 6.25195 2.59277C4.57324 2.59277 3.19336 3.70898 2.75391 5.4668L-0.111328 16.9102C-0.717773 19.3271 0.706055 20.8652 3.18457 20.3818ZM9.48633 13.3682V15.1348L4.29199 16.2334C3.84375 16.3301 3.36035 16.0225 3.27246 15.5654C3.17578 15.1084 3.4834 14.6426 3.94043 14.5547L6.34863 14.0361L4.34473 12.2432C3.99316 11.9443 3.95801 11.3818 4.27441 11.0215C4.59082 10.6787 5.16211 10.6611 5.49609 10.9688L8.41406 13.5967L9.48633 13.3682Z" fill="#1C1C1E"/>
</g>
<defs>
<clipPath id="clip0_10_1059">
<rect width="24" height="24" fill="white"/>
</clipPath>
</defs>
</svg>
