<svg width="24" height="24" viewBox="0 0 24 24" fill="none" xmlns="http://www.w3.org/2000/svg">
<g clip-path="url(#clip0_10_1065)">
<path d="M1.16309 10.96C4.55566 15.1787 7.71973 17.3584 11.9912 17.3584C16.2715 17.3584 19.4268 15.1787 22.8281 10.96C23.8213 9.72949 23.373 8.52539 22.1514 8.37598C19.1807 8.0332 18.3018 5.97656 15.6299 5.97656C13.5293 5.97656 12.2812 7.59375 11.9912 7.59375C11.71 7.59375 10.4619 5.97656 8.36133 5.97656C5.68945 5.97656 4.81055 8.0332 1.83984 8.37598C0.618164 8.52539 0.169922 9.7207 1.16309 10.96ZM3.2373 10.6436C2.72754 10.3359 3.03516 9.73828 3.51855 9.95801C4.73145 10.5293 5.97949 10.4678 7.59668 10.3008C8.02734 10.2393 8.4668 10.1777 8.89746 10.1777C10.2686 10.1777 11.0068 10.6611 11.4814 10.9424C11.7891 11.127 11.877 11.1621 12 11.1621C12.1143 11.1621 12.2021 11.127 12.5186 10.9424C13.002 10.6699 13.7227 10.1777 15.0938 10.1777C15.5244 10.1777 15.9639 10.2393 16.3945 10.3008C18.0205 10.5205 19.2773 10.5205 20.4814 9.95801C20.9648 9.73828 21.2725 10.3359 20.7627 10.6436C18.7148 11.8916 16.3857 11.4873 15.4629 11.4785C13.4326 11.4697 13.2041 12.5508 12 12.5508C10.7871 12.5508 10.5586 11.4697 8.52832 11.4785C7.61426 11.4873 5.26758 11.9092 3.2373 10.6436Z" fill="#1C1C1E"/>
</g>
<defs>
<clipPath id="clip0_10_1065">
<rect width="24" height="24" fill="white"/>
</clipPath>
</defs>
</svg>
