<svg width="24" height="24" viewBox="0 0 24 24" fill="none" xmlns="http://www.w3.org/2000/svg">
<g clip-path="url(#clip0_10_1066)">
<path d="M1.26855 11.3555C4.50293 15.2578 7.63184 17.3936 12 17.3936C16.377 17.3936 19.4971 15.2578 22.7314 11.3555C23.8477 10.0107 23.5137 8.44629 21.791 8.23535C19.3389 7.9541 18.46 5.94141 15.7266 5.94141C13.582 5.94141 12.3164 7.52344 12 7.52344C11.6836 7.52344 10.418 5.94141 8.27344 5.94141C5.54004 5.94141 4.66113 7.9541 2.20898 8.23535C0.495117 8.44629 0.161133 10.0107 1.26855 11.3555ZM11.4814 10.9688C10.998 10.6875 10.2422 10.1953 8.85352 10.1953C8.41406 10.1953 7.97461 10.2568 7.52637 10.3096C5.83887 10.4941 4.01074 10.4414 2.29688 9.65039C2.34082 9.6416 2.34082 9.6416 2.34082 9.6416L3 9.50977C5.74219 8.99121 6.68262 7.50586 8.37012 7.50586C9.24023 7.50586 9.86426 7.93652 10.4707 8.38477C11.0859 8.82422 11.499 9.08789 12 9.08789C12.5098 9.08789 12.9141 8.82422 13.5293 8.38477C14.1445 7.93652 14.7598 7.50586 15.6299 7.50586C17.3174 7.50586 18.2578 8.99121 21 9.50977L21.6592 9.6416L21.7119 9.65039C20.0156 10.4502 18.1875 10.5029 16.4912 10.3096C16.043 10.248 15.5947 10.1953 15.1553 10.1953C13.7578 10.1953 13.002 10.6875 12.5186 10.9688C12.2549 11.127 12.1143 11.1885 12 11.1885C11.8857 11.1885 11.7451 11.127 11.4814 10.9688ZM12 12.6211C13.2393 12.6211 13.459 11.6191 15.2432 11.6191C16.8779 11.6279 18.873 12.2695 21.3867 10.8105C18.9521 13.3066 16.0605 15.8291 12 15.8291C7.93945 15.8291 5.04785 13.2979 2.61328 10.8018C5.12695 12.2607 7.12207 11.6279 8.75684 11.6191C10.541 11.6191 10.7607 12.6211 12 12.6211Z" fill="#1C1C1E"/>
</g>
<defs>
<clipPath id="clip0_10_1066">
<rect width="24" height="24" fill="white"/>
</clipPath>
</defs>
</svg>
