<svg width="24" height="24" viewBox="0 0 24 24" fill="none" xmlns="http://www.w3.org/2000/svg">
<g clip-path="url(#clip0_10_1068)">
<path d="M-0.621094 11.3379C-0.621094 14.2295 2.34961 16.4355 6.03223 16.4355C8.625 16.4355 10.7344 15.5303 11.9912 13.8779C13.2568 15.5303 15.3574 16.4355 17.959 16.4355C21.6416 16.4355 24.6123 14.2295 24.6123 11.3379C24.6123 10.3184 24.3047 9.65039 23.6631 9.65039C23.4258 9.65039 23.1885 9.7998 23.0391 10.0283C22.5996 10.6611 21.8438 11.0127 20.9121 11.0127C18.3018 11.0127 17.5459 7.7959 14.3115 7.7959C13.3359 7.7959 12.5361 8.12109 11.9912 8.71875C11.4551 8.12109 10.6553 7.7959 9.6709 7.7959C6.43652 7.7959 5.68945 11.0127 3.07031 11.0127C2.2002 11.0127 1.46191 10.6699 0.943359 10.0107C0.767578 9.79102 0.547852 9.65039 0.328125 9.65039C-0.322266 9.65039 -0.621094 10.3184 -0.621094 11.3379Z" fill="#1C1C1E"/>
</g>
<defs>
<clipPath id="clip0_10_1068">
<rect width="24" height="24" fill="white"/>
</clipPath>
</defs>
</svg>
