<svg width="24" height="24" viewBox="0 0 24 24" fill="none" xmlns="http://www.w3.org/2000/svg">
<g clip-path="url(#clip0_10_1069)">
<path d="M6.28711 16.8223C8.63379 16.8223 10.6553 16.0664 12 14.7129C13.3447 16.0664 15.3662 16.8223 17.7129 16.8223C21.6064 16.8223 24.6299 14.4404 24.6299 11.3818C24.6299 10.0459 24.0674 9.24609 23.0742 9.24609C22.6611 9.24609 22.3008 9.43066 21.9756 9.79102C21.624 10.1777 21.1055 10.4326 20.499 10.4326C18.3809 10.4326 17.7129 7.40918 14.1885 7.40918C13.3271 7.40918 12.5625 7.67285 12 8.14746C11.4375 7.67285 10.6729 7.40918 9.81152 7.40918C6.28711 7.40918 5.61914 10.4326 3.50098 10.4326C2.89453 10.4326 2.37598 10.1777 2.02441 9.79102C1.69922 9.43066 1.33887 9.24609 0.925781 9.24609C-0.0673828 9.24609 -0.629883 10.0459 -0.629883 11.3818C-0.629883 14.4404 2.39355 16.8223 6.28711 16.8223ZM6.28711 15.1523C3.42188 15.1523 1.16309 13.5615 1.04004 11.5312C1.03125 11.3115 1.21582 11.2764 1.35645 11.373C1.88379 11.8213 2.6748 12.0586 3.50098 12.0586C5.08301 12.0586 6.14648 11.2061 7.00781 10.4678C7.9043 9.70312 8.625 9.0791 9.81152 9.0791C10.6113 9.0791 11.209 9.43066 11.543 9.98438C11.8242 10.3359 12.1758 10.3359 12.457 9.98438C12.791 9.43066 13.3887 9.0791 14.1885 9.0791C15.375 9.0791 16.0957 9.70312 16.9922 10.4678C17.8535 11.2061 18.917 12.0586 20.499 12.0586C21.3252 12.0586 22.1162 11.8125 22.6611 11.3467C22.8105 11.2412 22.9688 11.2676 22.96 11.5312C22.8369 13.5615 20.5781 15.1523 17.7129 15.1523C15.1465 15.1523 13.2568 14.124 12.5098 12.5508C12.2637 12.0938 11.7363 12.085 11.4902 12.5508C10.752 14.124 8.8623 15.1523 6.28711 15.1523Z" fill="#1C1C1E"/>
</g>
<defs>
<clipPath id="clip0_10_1069">
<rect width="24" height="24" fill="white"/>
</clipPath>
</defs>
</svg>
