<svg width="24" height="24" viewBox="0 0 24 24" fill="none" xmlns="http://www.w3.org/2000/svg">
<g clip-path="url(#clip0_10_1071)">
<path d="M7.0166 20.1797C7.76367 20.1797 8.51953 19.9248 9.1875 19.4678C9.87305 19.9336 10.7695 20.2588 12 20.2588C13.2393 20.2588 14.127 19.9336 14.8125 19.4678C15.4805 19.9248 16.2451 20.1797 16.9834 20.1797C19.418 20.1797 21.0264 18.624 21.0264 16.2949C21.0264 14.0713 19.4092 12.4277 17.1064 12.208C16.2891 10.1162 15.6562 7.86621 15.1729 5.7832C14.7422 3.91113 13.6875 2.91797 12 2.91797C10.3125 2.91797 9.25781 3.91113 8.82715 5.7832C8.35254 7.86621 7.71973 10.1162 6.89355 12.208C4.59961 12.4277 2.97363 14.0713 2.97363 16.2949C2.97363 18.624 4.59082 20.1797 7.0166 20.1797ZM8.48438 17.0068C8.05371 16.5498 7.75488 16.2949 7.27148 16.2949C6.59473 16.2949 6.18164 16.7871 6.18164 17.3496C6.18164 17.9033 6.62109 18.3955 7.31543 18.3955C7.52637 18.3955 7.71973 18.334 7.9043 18.2285C7.93945 18.2725 7.97461 18.3252 8.01855 18.3691C7.70215 18.5186 7.37695 18.5889 7.03418 18.5889C5.68945 18.5889 4.6875 17.666 4.6875 16.3652C4.6875 14.4844 6.33105 13.5264 8.13281 13.8516C9.19629 11.4873 9.78516 8.55176 10.4004 6.07324C10.6465 5.09766 11.1211 4.55273 12 4.55273C12.8789 4.55273 13.3623 5.09766 13.5996 6.07324C14.2236 8.55176 14.8125 11.4873 15.8672 13.8516C17.6777 13.5264 19.3125 14.4844 19.3125 16.3652C19.3125 17.666 18.3193 18.5889 16.9746 18.5889C16.623 18.5889 16.2979 18.5186 15.9902 18.3691C16.0254 18.3252 16.0693 18.2725 16.1045 18.2285C16.2803 18.334 16.4824 18.3955 16.6934 18.3955C17.3789 18.3955 17.8271 17.9033 17.8271 17.3496C17.8271 16.7871 17.4053 16.2949 16.7373 16.2949C16.2451 16.2949 15.9463 16.5498 15.5156 17.0068C14.4961 18.0967 13.4941 18.5977 12 18.5977C10.5059 18.5977 9.50391 18.0967 8.48438 17.0068Z" fill="#1C1C1E"/>
</g>
<defs>
<clipPath id="clip0_10_1071">
<rect width="24" height="24" fill="white"/>
</clipPath>
</defs>
</svg>
