<svg width="24" height="24" viewBox="0 0 24 24" fill="none" xmlns="http://www.w3.org/2000/svg">
<g clip-path="url(#clip0_10_1070)">
<path d="M2.97363 16.2949C2.97363 18.624 4.59082 20.1797 7.0166 20.1797C7.79004 20.1797 8.61621 19.9072 9.20508 19.4502C8.69531 19.1689 8.27344 18.791 7.81641 18.2021C7.59668 18.3076 7.32422 18.3691 7.06934 18.3691C6.33105 18.3691 5.83008 17.9297 5.83008 17.3057C5.83008 16.708 6.27832 16.3037 6.92871 16.3037C7.49121 16.3037 7.87793 16.6377 8.30859 17.0947C9.16992 18.0352 10.0312 19.1426 12 19.1426C13.9775 19.1426 14.8301 18.0352 15.7002 17.0947C16.1221 16.6377 16.5088 16.3037 17.0713 16.3037C17.7217 16.3037 18.1787 16.708 18.1787 17.3057C18.1787 17.9297 17.6777 18.3691 16.9395 18.3691C16.6758 18.3691 16.4121 18.3076 16.1924 18.2021C15.7266 18.791 15.3135 19.1689 14.8037 19.4502C15.3838 19.9072 16.21 20.1797 16.9834 20.1797C19.418 20.1797 21.0264 18.624 21.0264 16.2949C21.0264 14.0713 19.4092 12.4277 17.1064 12.208C16.2188 10.1162 15.5771 7.86621 15.1025 5.7832C14.6719 3.91113 13.6875 2.91797 12 2.91797C10.3125 2.91797 9.33691 3.91113 8.89746 5.7832C8.42285 7.86621 7.79004 10.1162 6.89355 12.208C4.59961 12.4277 2.97363 14.0713 2.97363 16.2949Z" fill="#1C1C1E"/>
</g>
<defs>
<clipPath id="clip0_10_1070">
<rect width="24" height="24" fill="white"/>
</clipPath>
</defs>
</svg>
