<svg width="24" height="24" viewBox="0 0 24 24" fill="none" xmlns="http://www.w3.org/2000/svg">
<g clip-path="url(#clip0_10_1138)">
<path d="M8.64258 11.5752C10.5586 11.5752 12.1846 9.87012 12.1846 7.66406C12.1846 5.51074 10.5498 3.8584 8.64258 3.8584C6.72656 3.8584 5.08301 5.53711 5.0918 7.68164C5.0918 9.87012 6.71777 11.5752 8.64258 11.5752ZM17.8184 12.1377C18.1348 12.1377 18.4072 11.9795 18.6006 11.6982L22.5645 5.52832C22.6787 5.34375 22.7842 5.13281 22.7842 4.93066C22.7842 4.49121 22.3887 4.19238 21.9756 4.19238C21.7119 4.19238 21.4658 4.35059 21.2812 4.64062L17.7832 10.2305L16.1572 8.16504C15.9463 7.88379 15.7354 7.7959 15.4717 7.7959C15.041 7.7959 14.6982 8.14746 14.6982 8.57812C14.6982 8.78906 14.7773 8.99121 14.9268 9.17578L17.001 11.6982C17.2383 11.9971 17.4932 12.1377 17.8184 12.1377ZM3.1582 19.749H14.1094C15.5596 19.749 16.0605 19.3096 16.0605 18.501C16.0605 16.2422 13.1953 13.1309 8.63379 13.1309C4.08105 13.1309 1.20703 16.2422 1.20703 18.501C1.20703 19.3096 1.70801 19.749 3.1582 19.749Z" fill="#1C1C1E"/>
</g>
<defs>
<clipPath id="clip0_10_1138">
<rect width="24" height="24" fill="white"/>
</clipPath>
</defs>
</svg>
