<svg width="24" height="24" viewBox="0 0 24 24" fill="none" xmlns="http://www.w3.org/2000/svg">
<g clip-path="url(#clip0_10_1118)">
<path d="M11.9912 20.7422C16.9746 20.7422 21.0879 16.6289 21.0879 11.6543C21.0879 6.67969 16.9658 2.56641 11.9824 2.56641C7.00781 2.56641 2.90332 6.67969 2.90332 11.6543C2.90332 16.6289 7.0166 20.7422 11.9912 20.7422ZM11.9912 18.9316C7.95703 18.9316 4.73145 15.6885 4.73145 11.6543C4.73145 7.62012 7.95703 4.38574 11.9824 4.38574C16.0166 4.38574 19.2598 7.62012 19.2686 11.6543C19.2773 15.6885 16.0254 18.9316 11.9912 18.9316ZM14.1797 11.2236C15.085 11.2236 15.8496 10.4062 15.8496 9.36914C15.8496 8.34961 15.085 7.56738 14.1797 7.56738C13.2656 7.56738 12.501 8.36719 12.501 9.36914C12.5098 10.4062 13.2656 11.2236 14.1797 11.2236ZM9.36328 11.3115C10.1543 11.3115 10.8311 10.6084 10.8311 9.69434C10.8311 8.81543 10.1543 8.12988 9.36328 8.12988C8.58105 8.12988 7.9043 8.82422 7.9043 9.70312C7.9043 10.6084 8.57227 11.3115 9.36328 11.3115ZM7.06934 15.0908H10.1895C9.75879 14.458 10.2422 13.2012 11.1738 12.4717C10.708 12.1729 10.1191 11.9443 9.36328 11.9443C7.50879 11.9443 6.30469 13.3154 6.30469 14.4404C6.30469 14.8535 6.50684 15.0908 7.06934 15.0908ZM11.5781 15.0908H16.7637C17.4492 15.0908 17.6865 14.8799 17.6865 14.4932C17.6865 13.4297 16.333 11.9619 14.1797 11.9619C12.0176 11.9619 10.6553 13.4297 10.6553 14.4932C10.6553 14.8799 10.9014 15.0908 11.5781 15.0908Z" fill="#1C1C1E"/>
</g>
<defs>
<clipPath id="clip0_10_1118">
<rect width="24" height="24" fill="white"/>
</clipPath>
</defs>
</svg>
