<svg width="24" height="24" viewBox="0 0 24 24" fill="none" xmlns="http://www.w3.org/2000/svg">
<g clip-path="url(#clip0_10_1153)">
<path d="M7.53516 2.3291H16.2451C16.1836 1.53809 15.7178 1.11621 14.8652 1.11621H8.91504C8.0625 1.11621 7.59668 1.53809 7.53516 2.3291ZM5.99707 4.88672H17.7217C17.5986 4.05176 17.1768 3.56836 16.2275 3.56836H7.49121C6.55078 3.56836 6.12012 4.05176 5.99707 4.88672ZM6.99023 22.1484H17.2295C18.917 22.1484 19.9014 21.1641 19.9014 19.2832V9.20215C19.9014 7.32129 18.9082 6.33691 17.0098 6.33691H6.99023C5.0918 6.33691 4.09863 7.32129 4.09863 9.20215V19.2832C4.09863 21.1641 5.0918 22.1484 6.99023 22.1484ZM9.16113 16.5322C7.5791 16.5322 6.375 17.3848 5.84766 18.3955V9.36035C5.84766 8.50781 6.2959 8.09473 7.10449 8.09473H16.8955C17.7041 8.09473 18.1523 8.50781 18.1523 9.36035V18.1143C17.4932 17.2441 16.2979 16.541 14.7158 16.541C12.2285 16.541 10.6553 18.3164 10.6553 19.7139C10.6553 20.0127 10.7256 20.2412 10.8398 20.3906H9.72363C9.65332 20.1797 9.61816 19.9424 9.61816 19.6963C9.61816 18.6943 10.1016 17.71 10.9277 16.9541C10.4619 16.6816 9.86426 16.5322 9.16113 16.5322ZM14.7158 15.5391C15.7705 15.5391 16.6494 14.6074 16.6494 13.4033C16.6494 12.2168 15.7705 11.3203 14.7158 11.3203C13.6787 11.3203 12.7734 12.2432 12.7822 13.4121C12.7822 14.6074 13.6699 15.5391 14.7158 15.5391ZM9.16113 15.6533C10.0752 15.6533 10.8486 14.8359 10.8486 13.79C10.8486 12.7529 10.0752 11.9795 9.16113 11.9795C8.24707 11.9795 7.46484 12.7705 7.47363 13.79C7.47363 14.8359 8.24707 15.6533 9.16113 15.6533Z" fill="#1C1C1E"/>
</g>
<defs>
<clipPath id="clip0_10_1153">
<rect width="24" height="24" fill="white"/>
</clipPath>
</defs>
</svg>
