<svg width="24" height="24" viewBox="0 0 24 24" fill="none" xmlns="http://www.w3.org/2000/svg">
<g clip-path="url(#clip0_10_1104)">
<path d="M16.5879 11.7422C18.7148 11.7422 20.4375 9.87012 20.4375 7.56738C20.4375 5.2998 18.7236 3.48926 16.5879 3.48926C14.4785 3.48926 12.7383 5.32617 12.7383 7.58496C12.7471 9.87891 14.4697 11.7422 16.5879 11.7422ZM6.40137 11.9443C8.25586 11.9443 9.75 10.3008 9.75 8.27051C9.75 6.29297 8.25586 4.69336 6.40137 4.69336C4.56445 4.69336 3.04395 6.31934 3.05273 8.2793C3.05273 10.3096 4.55566 11.9443 6.40137 11.9443ZM16.5879 10.2041C15.375 10.2041 14.3467 9.06152 14.3467 7.57617C14.3467 6.14355 15.3662 5.02734 16.5879 5.02734C17.8184 5.02734 18.8291 6.12598 18.8291 7.56738C18.8291 9.04395 17.8096 10.2041 16.5879 10.2041ZM6.40137 10.4238C5.4082 10.4238 4.56445 9.47461 4.56445 8.2793C4.56445 7.13672 5.39941 6.20508 6.40137 6.20508C7.4209 6.20508 8.24707 7.11914 8.24707 8.27051C8.24707 9.47461 7.40332 10.4238 6.40137 10.4238ZM1.56738 20.0215H8.39648C7.91309 19.7402 7.58789 19.0986 7.64941 18.5186H1.48828C1.32129 18.5186 1.25098 18.4395 1.25098 18.29C1.25098 16.2773 3.60645 14.3613 6.39258 14.3613C7.37695 14.3613 8.36133 14.6074 9.11719 15.0293C9.41602 14.5986 9.78516 14.2295 10.2686 13.9131C9.15234 13.2275 7.76367 12.8584 6.39258 12.8584C2.6748 12.8584 -0.331055 15.5127 -0.331055 18.4307C-0.331055 19.4854 0.301758 20.0215 1.56738 20.0215ZM11.1123 20.0215H22.0635C23.584 20.0215 24.3223 19.5381 24.3223 18.501C24.3223 16.084 21.2988 12.8672 16.5879 12.8672C11.877 12.8672 8.85352 16.084 8.85352 18.501C8.85352 19.5381 9.5918 20.0215 11.1123 20.0215ZM10.8311 18.4834C10.6289 18.4834 10.5498 18.4131 10.5498 18.2549C10.5498 16.9102 12.7207 14.4053 16.5879 14.4053C20.4551 14.4053 22.626 16.9102 22.626 18.2549C22.626 18.4131 22.5469 18.4834 22.3359 18.4834H10.8311Z" fill="#1C1C1E"/>
</g>
<defs>
<clipPath id="clip0_10_1104">
<rect width="24" height="24" fill="white"/>
</clipPath>
</defs>
</svg>
