<svg width="24" height="24" viewBox="0 0 24 24" fill="none" xmlns="http://www.w3.org/2000/svg">
<g clip-path="url(#clip0_10_1081)">
<path d="M7.67578 2.3291H16.1045C16.043 1.53809 15.5771 1.11621 14.7246 1.11621H9.05566C8.20312 1.11621 7.7373 1.53809 7.67578 2.3291ZM6.14648 4.88672H17.5811C17.458 4.05176 17.0361 3.56836 16.0869 3.56836H7.63184C6.69141 3.56836 6.26953 4.05176 6.14648 4.88672ZM6.99023 22.1484H17.2295C18.917 22.1484 19.9014 21.1641 19.9014 19.2832V9.20215C19.9014 7.32129 18.9082 6.33691 17.0098 6.33691H6.99023C5.0918 6.33691 4.09863 7.32129 4.09863 9.20215V19.2832C4.09863 21.1641 5.0918 22.1484 6.99023 22.1484ZM14.5576 15.4688C13.5117 15.4688 12.6152 14.5371 12.6152 13.3506C12.6152 12.1729 13.5117 11.2588 14.5576 11.2588C15.6123 11.2588 16.4912 12.1553 16.4912 13.333C16.4912 14.5371 15.6123 15.4688 14.5576 15.4688ZM8.99414 15.583C8.08008 15.583 7.30664 14.7744 7.29785 13.7285C7.29785 12.709 8.08008 11.9092 8.99414 11.9092C9.9082 11.9092 10.6816 12.6914 10.6816 13.7197C10.6816 14.7744 9.91699 15.583 8.99414 15.583ZM6.98145 20.373C6.01465 20.373 5.77734 20.1182 5.77734 19.1953V18.1143C6.24316 17.2529 7.38574 16.3564 8.99414 16.3564C9.75879 16.3564 10.3477 16.5498 10.8574 16.875C9.70605 17.7363 9.14355 19.7139 9.66211 20.373H6.98145ZM11.0859 20.373C10.8486 20.373 10.585 20.1357 10.585 19.6875C10.585 18.0791 12.1143 16.374 14.5576 16.374C16.3682 16.374 17.7129 17.3057 18.2139 18.2109V19.1953C18.2139 20.1357 17.9678 20.373 17.2295 20.373H11.0859Z" fill="#1C1C1E"/>
</g>
<defs>
<clipPath id="clip0_10_1081">
<rect width="24" height="24" fill="white"/>
</clipPath>
</defs>
</svg>
