<svg width="24" height="24" viewBox="0 0 24 24" fill="none" xmlns="http://www.w3.org/2000/svg">
<g clip-path="url(#clip0_10_1145)">
<path d="M8.72168 11.5752C10.6377 11.5752 12.2637 9.87012 12.2637 7.66406C12.2637 5.51074 10.6289 3.8584 8.72168 3.8584C6.80566 3.8584 5.16211 5.53711 5.1709 7.68164C5.1709 9.87012 6.79688 11.5752 8.72168 11.5752ZM16.1396 11.4082C16.3682 11.4082 16.5615 11.3203 16.7197 11.1621L19.0137 8.85938L21.3252 11.1621C21.4746 11.3203 21.668 11.4082 21.9053 11.4082C22.3535 11.4082 22.7051 11.0479 22.7051 10.5996C22.7051 10.3799 22.6172 10.1953 22.459 10.0371L20.1562 7.72559L22.4678 5.40527C22.6348 5.24707 22.7139 5.0625 22.7139 4.85156C22.7139 4.40332 22.3535 4.05176 21.9053 4.05176C21.6855 4.05176 21.5098 4.12207 21.3428 4.28906L19.0137 6.60938L16.7021 4.29785C16.5527 4.13965 16.3682 4.06934 16.1396 4.06934C15.6914 4.06934 15.3398 4.41211 15.3398 4.86035C15.3398 5.07129 15.4189 5.26465 15.5771 5.41406L17.8887 7.72559L15.5771 10.0459C15.4189 10.1953 15.3398 10.3887 15.3398 10.5996C15.3398 11.0479 15.6914 11.4082 16.1396 11.4082ZM3.2373 19.749H14.1885C15.6387 19.749 16.1396 19.3096 16.1396 18.501C16.1396 16.2422 13.2744 13.1309 8.71289 13.1309C4.16016 13.1309 1.28613 16.2422 1.28613 18.501C1.28613 19.3096 1.78711 19.749 3.2373 19.749Z" fill="#1C1C1E"/>
</g>
<defs>
<clipPath id="clip0_10_1145">
<rect width="24" height="24" fill="white"/>
</clipPath>
</defs>
</svg>
