<svg width="24" height="24" viewBox="0 0 24 24" fill="none" xmlns="http://www.w3.org/2000/svg">
<g clip-path="url(#clip0_10_1136)">
<path d="M12 11.8477C14.127 11.8477 15.8496 9.9668 15.8496 7.66406C15.8496 5.39648 14.127 3.59473 12 3.59473C9.88184 3.59473 8.15039 5.42285 8.15039 7.68164C8.15918 9.97559 9.87305 11.8477 12 11.8477ZM12 10.3096C10.7871 10.3096 9.75879 9.1582 9.75879 7.68164C9.75 6.24023 10.7783 5.13281 12 5.13281C13.2305 5.13281 14.2412 6.22266 14.2412 7.66406C14.2412 9.14062 13.2217 10.3096 12 10.3096ZM2.9209 9.98438C3.43066 10.3711 4.0459 10.1426 4.0459 9.50098V8.41113H6.28711C6.7002 8.41113 7.02539 8.08594 7.02539 7.66406C7.02539 7.25977 6.7002 6.92578 6.28711 6.92578H4.0459V5.8623C4.0459 5.19434 3.41309 4.99219 2.9209 5.37012L0.495117 7.19824C0.161133 7.44434 0.152344 7.91016 0.495117 8.16504L2.9209 9.98438ZM17.7129 8.41113H19.9541V9.50098C19.9541 10.1426 20.5693 10.3711 21.0879 9.98438L23.5137 8.16504C23.8477 7.91016 23.8389 7.44434 23.5137 7.19824L21.0879 5.37012C20.5869 4.99219 19.9541 5.19434 19.9541 5.8623V6.92578H17.7129C17.2998 6.92578 16.9746 7.25977 16.9746 7.66406C16.9746 8.08594 17.2998 8.41113 17.7129 8.41113ZM6.52441 20.0215H17.4756C18.9961 20.0215 19.7256 19.5381 19.7256 18.501C19.7256 16.084 16.7109 12.8672 12 12.8672C7.28906 12.8672 4.26562 16.084 4.26562 18.501C4.26562 19.5381 5.00391 20.0215 6.52441 20.0215ZM6.24316 18.4834C6.04102 18.4834 5.96191 18.4131 5.96191 18.2549C5.96191 16.9102 8.13281 14.4053 12 14.4053C15.8672 14.4053 18.0381 16.9102 18.0381 18.2549C18.0381 18.4131 17.959 18.4834 17.748 18.4834H6.24316Z" fill="#1C1C1E"/>
</g>
<defs>
<clipPath id="clip0_10_1136">
<rect width="24" height="24" fill="white"/>
</clipPath>
</defs>
</svg>
