<svg width="24" height="24" viewBox="0 0 24 24" fill="none" xmlns="http://www.w3.org/2000/svg">
<g clip-path="url(#clip0_10_1105)">
<path d="M19.8311 8.8418C20.4023 8.8418 20.71 8.52539 20.71 7.9541V5.81836C20.71 3.9375 19.7256 2.95312 17.8184 2.95312H15.6826C15.1113 2.95312 14.7949 3.26074 14.7949 3.83203C14.7949 4.39453 15.1113 4.70215 15.6826 4.70215H17.7041C18.5039 4.70215 18.9609 5.12402 18.9609 5.97656V7.9541C18.9609 8.52539 19.2686 8.8418 19.8311 8.8418ZM4.16016 8.8418C4.73145 8.8418 5.03027 8.52539 5.03027 7.9541V5.97656C5.03027 5.12402 5.47852 4.70215 6.28711 4.70215H8.30859C8.87988 4.70215 9.19629 4.39453 9.19629 3.83203C9.19629 3.26074 8.87988 2.95312 8.30859 2.95312H6.17285C4.27441 2.95312 3.28125 3.92871 3.28125 5.81836V7.9541C3.28125 8.52539 3.59766 8.8418 4.16016 8.8418ZM12 11.3291C13.3535 11.3379 14.4521 10.1777 14.4521 8.64844C14.4521 7.21582 13.3535 6.0293 12 6.0293C10.6377 6.0293 9.54785 7.21582 9.54785 8.64844C9.54785 10.1777 10.6377 11.3203 12 11.3291ZM7.7373 16.4971H16.2627C16.6846 16.4971 16.8955 16.207 16.8955 15.8203C16.8955 14.7744 15.3486 12.085 12 12.085C8.65137 12.085 7.10449 14.7744 7.10449 15.8203C7.10449 16.207 7.31543 16.4971 7.7373 16.4971ZM6.17285 20.3818H8.30859C8.87988 20.3818 9.19629 20.0654 9.19629 19.5029C9.19629 18.9404 8.87988 18.624 8.30859 18.624H6.28711C5.47852 18.624 5.03027 18.2109 5.03027 17.3584V15.3809C5.03027 14.8096 4.72266 14.4932 4.16016 14.4932C3.58887 14.4932 3.28125 14.8096 3.28125 15.3809V17.5166C3.28125 19.3975 4.27441 20.3818 6.17285 20.3818ZM15.6826 20.3818H17.8184C19.7256 20.3818 20.71 19.3975 20.71 17.5166V15.3809C20.71 14.8096 20.3936 14.4932 19.8311 14.4932C19.2598 14.4932 18.9609 14.8096 18.9609 15.3809V17.3584C18.9609 18.2109 18.5039 18.624 17.7041 18.624H15.6826C15.1113 18.624 14.7949 18.9404 14.7949 19.5029C14.7949 20.0654 15.1113 20.3818 15.6826 20.3818Z" fill="#1C1C1E"/>
</g>
<defs>
<clipPath id="clip0_10_1105">
<rect width="24" height="24" fill="white"/>
</clipPath>
</defs>
</svg>
