<svg width="24" height="24" viewBox="0 0 24 24" fill="none" xmlns="http://www.w3.org/2000/svg">
<g clip-path="url(#clip0_10_1126)">
<path d="M11.9912 20.7598C16.9746 20.7598 21.0879 16.6465 21.0879 11.6631C21.0879 6.68848 16.9658 2.5752 11.9824 2.5752C7.00781 2.5752 2.90332 6.68848 2.90332 11.6631C2.90332 16.6465 7.0166 20.7598 11.9912 20.7598ZM14.2676 11.2324C13.3184 11.2324 12.5273 10.3799 12.5273 9.30762C12.5186 8.25293 13.3184 7.42676 14.2676 7.42676C15.1992 7.42676 15.999 8.23535 15.999 9.29883C15.999 10.3799 15.208 11.2324 14.2676 11.2324ZM9.2666 11.3203C8.44922 11.3203 7.74609 10.582 7.74609 9.6416C7.7373 8.73633 8.44922 8.00684 9.2666 8.00684C10.084 8.00684 10.7871 8.71875 10.7871 9.6416C10.7871 10.582 10.084 11.3203 9.2666 11.3203ZM6.87598 15.2402C6.2959 15.2402 6.07617 14.9941 6.07617 14.5635C6.07617 13.4033 7.33301 11.9795 9.2666 11.9795C10.04 11.9795 10.6553 12.208 11.1387 12.5156C10.1719 13.2715 9.6709 14.5811 10.1191 15.2402H6.87598ZM11.5693 15.2402C10.8574 15.2402 10.6025 15.0205 10.6025 14.625C10.6025 13.5176 12.0176 11.9883 14.2676 11.9883C16.5 11.9883 17.915 13.5176 17.915 14.625C17.915 15.0205 17.6689 15.2402 16.9482 15.2402H11.5693Z" fill="#1C1C1E"/>
</g>
<defs>
<clipPath id="clip0_10_1126">
<rect width="24" height="24" fill="white"/>
</clipPath>
</defs>
</svg>
