<svg width="24" height="24" viewBox="0 0 24 24" fill="none" xmlns="http://www.w3.org/2000/svg">
<g clip-path="url(#clip0_10_1108)">
<path d="M11.9912 20.7422C16.9746 20.7422 21.0879 16.6289 21.0879 11.6543C21.0879 6.67969 16.9658 2.56641 11.9824 2.56641C7.00781 2.56641 2.90332 6.67969 2.90332 11.6543C2.90332 16.6289 7.0166 20.7422 11.9912 20.7422ZM11.9912 14.6953C9.5127 14.6953 7.58789 15.583 6.65625 16.6025C5.46094 15.3105 4.73145 13.5703 4.73145 11.6543C4.73145 7.62012 7.95703 4.38574 11.9824 4.38574C16.0166 4.38574 19.2598 7.62012 19.2686 11.6543C19.2686 13.5703 18.5391 15.3105 17.335 16.6113C16.4033 15.583 14.4785 14.6953 11.9912 14.6953ZM11.9912 13.2539C13.6963 13.2715 15.0234 11.8125 15.0234 9.93164C15.0234 8.15625 13.6875 6.6709 11.9912 6.6709C10.3037 6.6709 8.95898 8.15625 8.96777 9.93164C8.97656 11.8125 10.2949 13.2451 11.9912 13.2539Z" fill="#1C1C1E"/>
</g>
<defs>
<clipPath id="clip0_10_1108">
<rect width="24" height="24" fill="white"/>
</clipPath>
</defs>
</svg>
