<svg width="24" height="24" viewBox="0 0 24 24" fill="none" xmlns="http://www.w3.org/2000/svg">
<g clip-path="url(#clip0_10_1120)">
<path d="M12.0088 11.5752C13.9336 11.5752 15.5596 9.87012 15.5596 7.66406C15.5596 5.51074 13.9248 3.8584 12.0088 3.8584C10.0928 3.8584 8.45801 5.53711 8.4668 7.68164C8.4668 9.87012 10.084 11.5752 12.0088 11.5752ZM1.83105 11.7773C3.50977 11.7773 4.9248 10.2832 4.9248 8.36719C4.9248 6.48633 3.50098 5.05371 1.83105 5.05371C0.169922 5.05371 -1.2627 6.5127 -1.25391 8.38477C-1.25391 10.2832 0.161133 11.7773 1.83105 11.7773ZM22.1602 11.7773C23.8301 11.7773 25.2451 10.2832 25.2451 8.38477C25.2539 6.5127 23.8213 5.05371 22.1602 5.05371C20.499 5.05371 19.0664 6.48633 19.0664 8.36719C19.0664 10.2832 20.4902 11.7773 22.1602 11.7773ZM-3.01172 19.7578H3.58008C2.63965 18.4131 3.65918 15.7588 5.64551 14.1943C4.67871 13.5703 3.41309 13.1133 1.83105 13.1133C-2.09766 13.1133 -4.6377 16.0049 -4.6377 18.3867C-4.6377 19.2568 -4.19824 19.7578 -3.01172 19.7578ZM27.0029 19.7578C28.1895 19.7578 28.6289 19.2568 28.6289 18.3867C28.6289 16.0049 26.0889 13.1133 22.1602 13.1133C20.5781 13.1133 19.3213 13.5703 18.3545 14.1943C20.3408 15.7588 21.3604 18.4131 20.4199 19.7578H27.0029ZM6.52441 19.749H17.4844C18.9346 19.749 19.4355 19.3096 19.4355 18.501C19.4355 16.2422 16.5615 13.1309 12.0088 13.1309C7.44727 13.1309 4.58203 16.2422 4.58203 18.501C4.58203 19.3096 5.08301 19.749 6.52441 19.749Z" fill="#1C1C1E"/>
</g>
<defs>
<clipPath id="clip0_10_1120">
<rect width="24" height="24" fill="white"/>
</clipPath>
</defs>
</svg>
