<svg width="24" height="24" viewBox="0 0 24 24" fill="none" xmlns="http://www.w3.org/2000/svg">
<g clip-path="url(#clip0_10_1133)">
<path d="M12 11.5752C13.9248 11.5752 15.5508 9.87012 15.5508 7.66406C15.5508 5.51074 13.916 3.8584 12 3.8584C10.0928 3.8584 8.44922 5.53711 8.45801 7.68164C8.45801 9.87012 10.0752 11.5752 12 11.5752ZM2.9209 9.98438C3.43066 10.3711 4.0459 10.1426 4.0459 9.50098V8.41113H6.28711C6.7002 8.41113 7.02539 8.08594 7.02539 7.66406C7.02539 7.25977 6.7002 6.92578 6.28711 6.92578H4.0459V5.8623C4.0459 5.19434 3.41309 4.99219 2.9209 5.37012L0.495117 7.19824C0.161133 7.44434 0.152344 7.91016 0.495117 8.16504L2.9209 9.98438ZM17.7129 8.41113H19.9541V9.50098C19.9541 10.1426 20.5693 10.3711 21.0879 9.98438L23.5137 8.16504C23.8477 7.91016 23.8389 7.44434 23.5137 7.19824L21.0879 5.37012C20.5869 4.99219 19.9541 5.19434 19.9541 5.8623V6.92578H17.7129C17.2998 6.92578 16.9746 7.25977 16.9746 7.66406C16.9746 8.08594 17.2998 8.41113 17.7129 8.41113ZM6.52441 19.749H17.4756C18.9258 19.749 19.4268 19.3096 19.4268 18.501C19.4268 16.2422 16.5527 13.1309 12 13.1309C7.43848 13.1309 4.57324 16.2422 4.57324 18.501C4.57324 19.3096 5.07422 19.749 6.52441 19.749Z" fill="#1C1C1E"/>
</g>
<defs>
<clipPath id="clip0_10_1133">
<rect width="24" height="24" fill="white"/>
</clipPath>
</defs>
</svg>
