<svg width="24" height="24" viewBox="0 0 24 24" fill="none" xmlns="http://www.w3.org/2000/svg">
<g clip-path="url(#clip0_10_1150)">
<path d="M18.4512 9.45703C18.9434 9.45703 19.251 9.18457 19.2773 8.82422C19.2773 8.78906 19.2773 8.74512 19.2773 8.71875C19.3125 8.26172 19.6201 7.96289 20.1914 7.59375C21.0615 7.02246 21.6152 6.5127 21.6152 5.50195C21.6152 4.04297 20.2969 3.19922 18.7324 3.19922C17.2295 3.19922 16.2012 3.88477 15.9287 4.71094C15.876 4.86035 15.8408 5.01855 15.8408 5.17676C15.8408 5.59863 16.1748 5.8623 16.5791 5.8623C17.0977 5.8623 17.2119 5.59863 17.4756 5.2998C17.7656 4.86035 18.1348 4.60547 18.6533 4.60547C19.3477 4.60547 19.7959 5.00098 19.7959 5.58984C19.7959 6.12598 19.4268 6.41602 18.6885 6.93457C18.0645 7.36523 17.6074 7.81348 17.6074 8.60449V8.70117C17.6074 9.20215 17.915 9.45703 18.4512 9.45703ZM9.82031 11.5752C11.7363 11.5752 13.3623 9.87012 13.3623 7.66406C13.3623 5.51074 11.7275 3.8584 9.82031 3.8584C7.9043 3.8584 6.26074 5.53711 6.26953 7.68164C6.26953 9.87012 7.89551 11.5752 9.82031 11.5752ZM18.4424 12.1641C19.0049 12.1641 19.4707 11.751 19.4707 11.1885C19.4707 10.6348 19.0137 10.2217 18.4424 10.2217C17.8711 10.2217 17.4053 10.6348 17.4053 11.1885C17.4053 11.7422 17.8711 12.1641 18.4424 12.1641ZM4.33594 19.749H15.2871C16.7373 19.749 17.2383 19.3096 17.2383 18.501C17.2383 16.2422 14.373 13.1309 9.81152 13.1309C5.25879 13.1309 2.38477 16.2422 2.38477 18.501C2.38477 19.3096 2.88574 19.749 4.33594 19.749Z" fill="#1C1C1E"/>
</g>
<defs>
<clipPath id="clip0_10_1150">
<rect width="24" height="24" fill="white"/>
</clipPath>
</defs>
</svg>
