<svg width="24" height="24" viewBox="0 0 24 24" fill="none" xmlns="http://www.w3.org/2000/svg">
<g clip-path="url(#clip0_10_1148)">
<path d="M4.47656 19.8809H19.5146C21.4219 19.8809 22.415 18.8965 22.415 17.0156V6.31934C22.415 4.43848 21.4219 3.4541 19.5146 3.4541H4.47656C2.57812 3.4541 1.58496 4.42969 1.58496 6.31934V17.0156C1.58496 18.8965 2.57812 19.8809 4.47656 19.8809ZM12 13.21C10.3213 13.1924 9.02051 11.7949 9.01172 9.94922C9.00293 8.2002 10.3301 6.74121 12 6.74121C13.6699 6.74121 14.9795 8.2002 14.9795 9.94922C14.9795 11.7949 13.6699 13.2275 12 13.21ZM6.2959 18.2109C7.00781 16.1191 9.27539 14.6338 12 14.6338C14.7246 14.6338 16.9922 16.1191 17.6953 18.2109H6.2959Z" fill="#1C1C1E"/>
</g>
<defs>
<clipPath id="clip0_10_1148">
<rect width="24" height="24" fill="white"/>
</clipPath>
</defs>
</svg>
