<svg width="24" height="24" viewBox="0 0 24 24" fill="none" xmlns="http://www.w3.org/2000/svg">
<g clip-path="url(#clip0_10_1125)">
<path d="M11.9912 20.7422C16.9746 20.7422 21.0879 16.6289 21.0879 11.6543C21.0879 6.67969 16.9658 2.56641 11.9824 2.56641C7.00781 2.56641 2.90332 6.67969 2.90332 11.6543C2.90332 16.6289 7.0166 20.7422 11.9912 20.7422ZM11.9824 13.0869C10.2598 13.0781 8.92383 11.6367 8.92383 9.72949C8.90625 7.93652 10.2686 6.44238 11.9824 6.44238C13.6963 6.44238 15.041 7.93652 15.041 9.72949C15.041 11.6367 13.7051 13.1045 11.9824 13.0869ZM11.9824 19.2393C10.0137 19.2393 7.92188 18.4219 6.59473 16.998C7.60547 15.4863 9.60938 14.6074 11.9824 14.6074C14.3291 14.6074 16.3506 15.4688 17.3701 16.998C16.043 18.4219 13.9512 19.2393 11.9824 19.2393Z" fill="#1C1C1E"/>
</g>
<defs>
<clipPath id="clip0_10_1125">
<rect width="24" height="24" fill="white"/>
</clipPath>
</defs>
</svg>
