<svg width="24" height="24" viewBox="0 0 24 24" fill="none" xmlns="http://www.w3.org/2000/svg">
<g clip-path="url(#clip0_10_1162)">
<path d="M11.9912 20.7422C16.9746 20.7422 21.0879 16.6289 21.0879 11.6543C21.0879 6.67969 16.9658 2.56641 11.9824 2.56641C7.00781 2.56641 2.90332 6.67969 2.90332 11.6543C2.90332 16.6289 7.0166 20.7422 11.9912 20.7422ZM11.9912 18.9316C7.95703 18.9316 4.73145 15.6885 4.73145 11.6543C4.73145 7.62012 7.95703 4.38574 11.9824 4.38574C16.0166 4.38574 19.2598 7.62012 19.2686 11.6543C19.2773 15.6885 16.0254 18.9316 11.9912 18.9316ZM11.9912 11.3555C13.2217 11.3643 14.2148 10.3096 14.2148 8.9209C14.2148 7.62012 13.2217 6.53906 11.9912 6.53906C10.752 6.53906 9.75879 7.62012 9.75879 8.9209C9.75879 10.3096 10.752 11.3467 11.9912 11.3555ZM8.10645 16.0488H15.8672C16.2451 16.0488 16.4385 15.7852 16.4385 15.4336C16.4385 14.4844 15.0322 12.041 11.9912 12.041C8.94141 12.041 7.53516 14.4844 7.53516 15.4336C7.53516 15.7852 7.72852 16.0488 8.10645 16.0488Z" fill="#1C1C1E"/>
</g>
<defs>
<clipPath id="clip0_10_1162">
<rect width="24" height="24" fill="white"/>
</clipPath>
</defs>
</svg>
