<svg width="24" height="24" viewBox="0 0 24 24" fill="none" xmlns="http://www.w3.org/2000/svg">
<g clip-path="url(#clip0_10_1128)">
<path d="M11.9912 20.7598C16.9746 20.7598 21.0879 16.6465 21.0879 11.6631C21.0879 6.68848 16.9658 2.5752 11.9824 2.5752C7.00781 2.5752 2.90332 6.68848 2.90332 11.6631C2.90332 16.6465 7.0166 20.7598 11.9912 20.7598ZM11.9912 11.3555C10.708 11.3555 9.6709 10.2744 9.6709 8.82422C9.6709 7.47949 10.708 6.35449 11.9912 6.35449C13.2656 6.35449 14.3027 7.47949 14.3027 8.82422C14.3027 10.2744 13.2656 11.3643 11.9912 11.3555ZM7.96582 16.2422C7.55273 16.2422 7.35938 15.9697 7.35938 15.6006C7.35938 14.6162 8.81836 12.0762 11.9912 12.0762C15.1553 12.0762 16.6143 14.6162 16.6143 15.6006C16.6143 15.9697 16.4209 16.2422 16.0166 16.2422H7.96582Z" fill="#1C1C1E"/>
</g>
<defs>
<clipPath id="clip0_10_1128">
<rect width="24" height="24" fill="white"/>
</clipPath>
</defs>
</svg>
