<svg width="24" height="24" viewBox="0 0 24 24" fill="none" xmlns="http://www.w3.org/2000/svg">
<g clip-path="url(#clip0_10_1158)">
<path d="M12 11.8477C14.127 11.8477 15.8496 9.9668 15.8496 7.66406C15.8496 5.39648 14.127 3.59473 12 3.59473C9.88184 3.59473 8.1416 5.42285 8.15039 7.68164C8.15918 9.97559 9.87305 11.8477 12 11.8477ZM12 10.3096C10.7871 10.3096 9.75879 9.1582 9.75879 7.68164C9.75 6.24023 10.7783 5.13281 12 5.13281C13.2305 5.13281 14.2412 6.22266 14.2412 7.66406C14.2412 9.14062 13.2217 10.3096 12 10.3096ZM6.51562 20.0215H17.4756C18.9961 20.0215 19.7256 19.5381 19.7256 18.501C19.7256 16.084 16.7109 12.8672 12 12.8672C7.28906 12.8672 4.26562 16.084 4.26562 18.501C4.26562 19.5381 4.99512 20.0215 6.51562 20.0215ZM6.24316 18.4834C6.03223 18.4834 5.95312 18.4131 5.95312 18.2549C5.95312 16.9102 8.12402 14.4053 12 14.4053C15.8672 14.4053 18.0381 16.9102 18.0381 18.2549C18.0381 18.4131 17.959 18.4834 17.748 18.4834H6.24316Z" fill="#1C1C1E"/>
</g>
<defs>
<clipPath id="clip0_10_1158">
<rect width="24" height="24" fill="white"/>
</clipPath>
</defs>
</svg>
