<svg width="24" height="24" viewBox="0 0 24 24" fill="none" xmlns="http://www.w3.org/2000/svg">
<g clip-path="url(#clip0_10_1143)">
<path d="M12 11.7422C14.127 11.7422 15.8496 9.87012 15.8496 7.56738C15.8496 5.2998 14.1357 3.48926 12 3.48926C9.89062 3.48926 8.15039 5.32617 8.15039 7.58496C8.15918 9.87891 9.87305 11.7422 12 11.7422ZM1.80469 11.9443C3.65918 11.9443 5.15332 10.3008 5.15332 8.27051C5.15332 6.29297 3.65918 4.69336 1.80469 4.69336C-0.0322266 4.69336 -1.55273 6.31934 -1.54395 8.2793C-1.54395 10.3096 -0.0410156 11.9443 1.80469 11.9443ZM22.1953 11.9443C24.0322 11.9443 25.5352 10.3096 25.5439 8.2793C25.5527 6.31934 24.0322 4.69336 22.1953 4.69336C20.3408 4.69336 18.8379 6.29297 18.8379 8.27051C18.8379 10.3008 20.3408 11.9443 22.1953 11.9443ZM12 10.2041C10.7871 10.2041 9.75879 9.06152 9.75879 7.57617C9.75879 6.14355 10.7783 5.02734 12 5.02734C13.2305 5.02734 14.2412 6.12598 14.2412 7.56738C14.2412 9.04395 13.2217 10.2041 12 10.2041ZM1.80469 10.4238C0.811523 10.4238 -0.0322266 9.47461 -0.0322266 8.2793C-0.0322266 7.13672 0.802734 6.20508 1.80469 6.20508C2.82422 6.20508 3.65039 7.11914 3.65039 8.27051C3.65039 9.47461 2.80664 10.4238 1.80469 10.4238ZM22.1953 10.4238C21.1846 10.4238 20.3496 9.47461 20.3496 8.27051C20.3496 7.11914 21.1758 6.20508 22.1953 6.20508C23.1885 6.20508 24.0322 7.13672 24.0322 8.2793C24.0322 9.47461 23.1885 10.4238 22.1953 10.4238ZM-3.0293 20.0215H3.7998C3.31641 19.7402 2.99121 19.0986 3.05273 18.5186H-3.1084C-3.27539 18.5186 -3.3457 18.4395 -3.3457 18.29C-3.3457 16.2773 -0.990234 14.3613 1.7959 14.3613C2.78027 14.3613 3.76465 14.6074 4.52051 15.0293C4.81934 14.5986 5.18848 14.2295 5.67188 13.9131C4.55566 13.2275 3.16699 12.8584 1.7959 12.8584C-1.92188 12.8584 -4.92773 15.5127 -4.92773 18.4307C-4.92773 19.4854 -4.29492 20.0215 -3.0293 20.0215ZM27.0293 20.0215C28.2949 20.0215 28.9277 19.4854 28.9277 18.4307C28.9277 15.5127 25.9131 12.8584 22.1953 12.8584C20.833 12.8584 19.4355 13.2275 18.3281 13.9131C18.8115 14.2295 19.1807 14.5986 19.4707 15.0293C20.2266 14.6074 21.2197 14.3613 22.1953 14.3613C24.9814 14.3613 27.3457 16.2773 27.3457 18.29C27.3457 18.4395 27.2754 18.5186 27.1084 18.5186H20.9385C21 19.0986 20.6836 19.7402 20.2002 20.0215H27.0293ZM6.52441 20.0215H17.4756C18.9961 20.0215 19.7256 19.5381 19.7256 18.501C19.7256 16.084 16.7109 12.8672 12 12.8672C7.28906 12.8672 4.26562 16.084 4.26562 18.501C4.26562 19.5381 5.00391 20.0215 6.52441 20.0215ZM6.24316 18.4834C6.04102 18.4834 5.96191 18.4131 5.96191 18.2549C5.96191 16.9102 8.13281 14.4053 12 14.4053C15.8672 14.4053 18.0381 16.9102 18.0381 18.2549C18.0381 18.4131 17.959 18.4834 17.748 18.4834H6.24316Z" fill="#1C1C1E"/>
</g>
<defs>
<clipPath id="clip0_10_1143">
<rect width="24" height="24" fill="white"/>
</clipPath>
</defs>
</svg>
