<svg width="24" height="24" viewBox="0 0 24 24" fill="none" xmlns="http://www.w3.org/2000/svg">
<g clip-path="url(#clip0_10_1092)">
<path d="M6.67383 19.8809H17.3174C19.2246 19.8809 20.209 18.8965 20.209 17.0156V6.31934C20.209 4.43848 19.2246 3.4541 17.3174 3.4541H6.67383C4.77539 3.4541 3.78223 4.42969 3.78223 6.31934V17.0156C3.78223 18.8965 4.77539 19.8809 6.67383 19.8809ZM5.53125 16.8574V6.47754C5.53125 5.625 5.97949 5.20312 6.78809 5.20312H17.2031C18.0029 5.20312 18.46 5.625 18.46 6.47754V16.8574C18.46 17.5166 18.1787 17.9209 17.6777 18.0703C16.8867 16.04 14.6631 14.6426 12 14.6426C9.33691 14.6426 7.10449 16.04 6.31348 18.0703C5.80371 17.9297 5.53125 17.5254 5.53125 16.8574ZM12 13.2363C13.6787 13.2451 14.9883 11.8213 14.9883 9.95801C14.9883 8.20898 13.6699 6.74121 12 6.74121C10.3213 6.74121 8.99414 8.20898 9.00293 9.95801C9.01172 11.8213 10.3125 13.2188 12 13.2363Z" fill="#1C1C1E"/>
</g>
<defs>
<clipPath id="clip0_10_1092">
<rect width="24" height="24" fill="white"/>
</clipPath>
</defs>
</svg>
