<svg width="24" height="24" viewBox="0 0 24 24" fill="none" xmlns="http://www.w3.org/2000/svg">
<g clip-path="url(#clip0_10_1086)">
<path d="M4.47656 19.8809H19.5146C21.4219 19.8809 22.415 18.8965 22.415 17.0156V6.31934C22.415 4.43848 21.4219 3.4541 19.5146 3.4541H4.47656C2.57812 3.4541 1.58496 4.42969 1.58496 6.31934V17.0156C1.58496 18.8965 2.57812 19.8809 4.47656 19.8809ZM4.59082 18.1318C3.78223 18.1318 3.33398 17.71 3.33398 16.8574V6.47754C3.33398 5.625 3.78223 5.20312 4.59082 5.20312H19.4004C20.209 5.20312 20.6572 5.625 20.6572 6.47754V16.8574C20.6572 17.71 20.209 18.1318 19.4004 18.1318H4.59082ZM5.76855 15.2314H10.4443C11.2705 15.2314 11.666 14.8271 11.666 14.0361V9.29883C11.666 8.50781 11.2705 8.10352 10.4443 8.10352H5.76855C4.95117 8.10352 4.54688 8.49902 4.54688 9.29883V14.0361C4.54688 14.8271 4.95117 15.2314 5.76855 15.2314ZM16.1572 15.1436C16.7109 15.1436 17.2295 15.0908 17.5635 14.9502C17.8008 14.8535 17.9414 14.7041 17.9414 14.4756C17.9414 14.2471 17.7744 14.0713 17.5547 14.0713C17.4668 14.0713 17.3877 14.0889 17.2822 14.1064C17.0273 14.1504 16.7812 14.2559 16.2539 14.2559C14.6104 14.2559 13.6172 13.2803 13.6172 11.6807C13.6172 10.1162 14.6279 9.04395 16.1309 9.04395C17.6074 9.04395 18.6094 9.9668 18.6094 11.3643C18.6094 12.1904 18.3545 12.7002 17.9678 12.7002C17.7393 12.7002 17.6426 12.6035 17.6426 12.3574V10.2744C17.6426 10.0107 17.4492 9.80859 17.1943 9.80859C17.001 9.80859 16.8252 9.94043 16.7725 10.1074V10.1689C16.5615 9.94043 16.2803 9.80859 15.8936 9.80859C14.9883 9.80859 14.3467 10.5908 14.3467 11.6807C14.3467 12.7969 14.9883 13.5527 15.9199 13.5527C16.3242 13.5527 16.6758 13.3857 16.9219 13.0693C17.1152 13.377 17.4668 13.5615 17.8887 13.5615C18.8467 13.5615 19.4883 12.665 19.4883 11.3115C19.4883 9.45703 18.1084 8.17383 16.1309 8.17383C14.0742 8.17383 12.668 9.58887 12.668 11.6719C12.668 13.7549 14.0654 15.1436 16.1572 15.1436ZM8.10645 12.3398C7.36816 12.3398 6.7793 11.707 6.7793 10.8809C6.7793 10.0986 7.36816 9.46582 8.10645 9.46582C8.84473 9.46582 9.43359 10.0986 9.43359 10.8809C9.43359 11.707 8.84473 12.3398 8.10645 12.3398ZM16.0518 12.6562C15.6123 12.6562 15.3398 12.2871 15.3398 11.6543C15.3398 11.0391 15.6123 10.6787 16.0605 10.6787C16.5088 10.6787 16.79 11.0391 16.79 11.6367C16.79 12.2695 16.5088 12.6562 16.0518 12.6562ZM5.5752 14.3701C5.84766 13.623 6.79688 12.9551 8.10645 12.9551C9.41602 12.9551 10.3652 13.623 10.6377 14.3701H5.5752Z" fill="#1C1C1E"/>
</g>
<defs>
<clipPath id="clip0_10_1086">
<rect width="24" height="24" fill="white"/>
</clipPath>
</defs>
</svg>
