<svg width="24" height="24" viewBox="0 0 24 24" fill="none" xmlns="http://www.w3.org/2000/svg">
<g clip-path="url(#clip0_10_1089)">
<path d="M6.22559 2.72461H17.7744C17.7129 1.93359 17.2471 1.51172 16.3945 1.51172H7.60547C6.75293 1.51172 6.28711 1.93359 6.22559 2.72461ZM4.50293 5.28223H19.5059C19.3828 4.44727 18.9521 3.96387 18.0117 3.96387H5.98828C5.04785 3.96387 4.62598 4.44727 4.50293 5.28223ZM5.36426 21.832H18.6182C20.5166 21.832 21.5186 20.8477 21.5186 18.9668V9.59766C21.5186 7.7168 20.5166 6.73242 18.6182 6.73242H5.36426C3.45703 6.73242 2.47266 7.70801 2.47266 9.59766V18.9668C2.47266 20.8477 3.45703 21.832 5.36426 21.832ZM5.47852 20.0742C4.66992 20.0742 4.22168 19.6611 4.22168 18.8086V9.75586C4.22168 8.90332 4.66992 8.48145 5.47852 8.48145H18.5039C19.3125 8.48145 19.7607 8.90332 19.7607 9.75586V18.8086C19.7607 19.6611 19.3125 20.0742 18.5039 20.0742H17.168C16.4297 18.2549 14.4082 17.0068 11.9912 17.0068C9.58301 17.0068 7.56152 18.2549 6.82324 20.0742H5.47852ZM11.9912 15.7148C13.5293 15.7324 14.7334 14.4229 14.7334 12.7266C14.7334 11.1182 13.5293 9.79102 11.9912 9.79102C10.4619 9.79102 9.24902 11.1182 9.25781 12.7266C9.2666 14.4229 10.4531 15.6973 11.9912 15.7148Z" fill="#1C1C1E"/>
</g>
<defs>
<clipPath id="clip0_10_1089">
<rect width="24" height="24" fill="white"/>
</clipPath>
</defs>
</svg>
