<svg width="24" height="24" viewBox="0 0 24 24" fill="none" xmlns="http://www.w3.org/2000/svg">
<g clip-path="url(#clip0_10_1088)">
<path d="M6.375 2.72461H17.7744C17.7129 1.93359 17.2471 1.51172 16.3945 1.51172H7.74609C6.90234 1.51172 6.42773 1.93359 6.375 2.72461ZM4.50293 5.28223H19.5059C19.3828 4.44727 18.9521 3.96387 18.0117 3.96387H5.98828C5.04785 3.96387 4.62598 4.44727 4.50293 5.28223ZM5.36426 21.832H18.6182C20.5166 21.832 21.5186 20.8477 21.5186 18.9668V9.59766C21.5186 7.7168 20.5166 6.73242 18.6182 6.73242H5.36426C3.45703 6.73242 2.47266 7.70801 2.47266 9.59766V18.9668C2.47266 20.8477 3.45703 21.832 5.36426 21.832ZM11.9912 15.6973C10.4619 15.6885 9.27539 14.4141 9.2666 12.7266C9.2666 11.127 10.4707 9.7998 11.9912 9.7998C13.5205 9.7998 14.7158 11.127 14.7158 12.7266C14.7158 14.4141 13.5293 15.7148 11.9912 15.6973ZM6.84082 20.127C7.53516 18.29 9.56543 17.0068 11.9912 17.0068C14.4258 17.0068 16.4473 18.29 17.1504 20.127H6.84082Z" fill="#1C1C1E"/>
</g>
<defs>
<clipPath id="clip0_10_1088">
<rect width="24" height="24" fill="white"/>
</clipPath>
</defs>
</svg>
