<svg width="24" height="24" viewBox="0 0 24 24" fill="none" xmlns="http://www.w3.org/2000/svg">
<g clip-path="url(#clip0_10_1528)">
<path d="M19.1367 4.5791C18.2227 3.67383 16.9746 3.48926 15.3662 3.48926H8.61621C7.02539 3.48926 5.77734 3.67383 4.87207 4.5791C3.9668 5.47559 3.7998 6.71484 3.7998 8.30566V15.0029C3.7998 16.6201 3.9668 17.8594 4.87207 18.7559C5.77734 19.6611 7.02539 19.8369 8.63379 19.8369H15.3662C16.9746 19.8369 18.2314 19.6611 19.1367 18.7559C20.0332 17.8506 20.2002 16.6201 20.2002 15.0029V8.33203C20.2002 6.71484 20.0332 5.47559 19.1367 4.5791ZM18.4512 8.08594V15.249C18.4512 16.1631 18.3369 16.9893 17.8535 17.4727C17.3613 17.9648 16.5264 18.0879 15.6123 18.0879H8.39648C7.48242 18.0879 6.63867 17.9561 6.15527 17.4727C5.67188 16.9893 5.54883 16.1631 5.54883 15.249V8.10352C5.54883 7.17188 5.67188 6.33691 6.15527 5.85352C6.63867 5.37012 7.48242 5.24707 8.41406 5.24707H15.6123C16.5264 5.24707 17.3613 5.37012 17.8535 5.85352C18.3369 6.3457 18.4512 7.17188 18.4512 8.08594Z" fill="#1C1C1E"/>
</g>
<defs>
<clipPath id="clip0_10_1528">
<rect width="24" height="24" fill="white"/>
</clipPath>
</defs>
</svg>
