<svg width="24" height="24" viewBox="0 0 24 24" fill="none" xmlns="http://www.w3.org/2000/svg">
<g clip-path="url(#clip0_10_1539)">
<path d="M12 0.782227C6.99902 0.782227 3.80859 3.86719 3.80859 8.8418V14.4668C3.80859 19.4414 6.99902 22.5264 12 22.5264C17.001 22.5264 20.1914 19.4414 20.1914 14.4668V8.8418C20.1914 3.86719 17.001 0.782227 12 0.782227ZM12 2.55762C15.9199 2.55762 18.4248 4.85156 18.4248 8.60449V14.7041C18.4248 18.4482 15.9199 20.7422 12 20.7422C8.07129 20.7422 5.5752 18.4482 5.5752 14.7041V8.60449C5.5752 4.85156 8.07129 2.55762 12 2.55762Z" fill="#1C1C1E"/>
</g>
<defs>
<clipPath id="clip0_10_1539">
<rect width="24" height="24" fill="white"/>
</clipPath>
</defs>
</svg>
