<svg width="24" height="24" viewBox="0 0 24 24" fill="none" xmlns="http://www.w3.org/2000/svg">
<g clip-path="url(#clip0_10_1535)">
<path d="M0.28418 11.6543C0.28418 16.9189 3.91406 20.3906 9.37207 20.3906H14.6279C20.0947 20.3906 23.7158 16.9189 23.7158 11.6543C23.7158 6.38965 20.0947 2.91797 14.6279 2.91797H9.37207C3.91406 2.91797 0.28418 6.38965 0.28418 11.6543ZM2.1123 11.6543C2.1123 7.47949 4.91602 4.7373 9.14355 4.7373H14.8652C19.084 4.7373 21.8877 7.47949 21.8877 11.6543C21.8877 15.8291 19.084 18.5713 14.8652 18.5713H9.14355C4.91602 18.5713 2.1123 15.8291 2.1123 11.6543Z" fill="#1C1C1E"/>
</g>
<defs>
<clipPath id="clip0_10_1535">
<rect width="24" height="24" fill="white"/>
</clipPath>
</defs>
</svg>
