<svg width="24" height="24" viewBox="0 0 24 24" fill="none" xmlns="http://www.w3.org/2000/svg">
<g clip-path="url(#clip0_10_1531)">
<path d="M2.95605 17.6836C2.95605 19.8369 6.65625 21.4365 11.9912 21.4365C17.335 21.4365 21.0352 19.8369 21.0352 17.6836C21.0352 17.3584 20.8945 16.9189 20.6748 16.5234L12.9844 2.68945C12.7295 2.23242 12.3604 2.0918 11.9912 2.0918C11.6309 2.0918 11.2617 2.23242 11.0068 2.68945L3.30762 16.5234C3.09668 16.9189 2.95605 17.3584 2.95605 17.6836ZM4.70508 17.6748C4.70508 17.5869 4.78418 17.4111 4.88965 17.209L11.833 4.72852C11.8682 4.64941 11.9297 4.61426 11.9912 4.61426C12.0615 4.61426 12.123 4.64941 12.1582 4.72852L19.1016 17.209C19.207 17.4111 19.2861 17.5869 19.2861 17.6748C19.2861 18.6768 15.9639 19.7666 11.9912 19.7666C8.02734 19.7666 4.70508 18.6768 4.70508 17.6748Z" fill="#1C1C1E"/>
</g>
<defs>
<clipPath id="clip0_10_1531">
<rect width="24" height="24" fill="white"/>
</clipPath>
</defs>
</svg>
