<svg width="24" height="24" viewBox="0 0 24 24" fill="none" xmlns="http://www.w3.org/2000/svg">
<g clip-path="url(#clip0_10_1514)">
<path d="M4.29199 17.3057L10.4268 20.7246C11.4814 21.3223 12.4922 21.3311 13.5645 20.7246L19.6992 17.3057C20.5518 16.8223 20.9912 16.3213 20.9912 15.0645V8.04199C20.9912 6.84668 20.5518 6.3457 19.752 5.89746L13.6523 2.47852C12.5449 1.85449 11.4199 1.86328 10.3389 2.47852L4.23926 5.89746C3.43945 6.3457 3 6.84668 3 8.04199V15.0645C3 16.3213 3.43945 16.8223 4.29199 17.3057ZM5.28516 15.8818C4.81934 15.6094 4.66113 15.3545 4.66113 14.8975V8.23535C4.66113 7.81348 4.81934 7.55859 5.25 7.32129L11.0684 4.03418C11.7012 3.68262 12.2812 3.67383 12.9141 4.03418L18.7412 7.32129C19.1631 7.55859 19.3301 7.81348 19.3301 8.23535V14.8975C19.3301 15.3545 19.1719 15.6094 18.7061 15.8818L12.9141 19.1338C12.2637 19.5029 11.71 19.4854 11.0684 19.1338L5.28516 15.8818Z" fill="#1C1C1E"/>
</g>
<defs>
<clipPath id="clip0_10_1514">
<rect width="24" height="24" fill="white"/>
</clipPath>
</defs>
</svg>
