<svg width="24" height="24" viewBox="0 0 24 24" fill="none" xmlns="http://www.w3.org/2000/svg">
<g clip-path="url(#clip0_10_1515)">
<path d="M9.31055 20.3115H14.6895C15.832 20.3115 16.4561 19.9336 17.0625 19.2568L20.2617 15.6621C20.8682 14.9766 21.0264 14.5371 21.0264 13.6055V9.76465C21.0264 8.83301 20.8682 8.39355 20.2617 7.70801L17.0625 4.11328C16.4561 3.44531 15.832 3.05859 14.6895 3.05859H9.31055C8.16797 3.05859 7.55273 3.44531 6.9375 4.11328L3.74707 7.70801C3.13184 8.39355 2.97363 8.83301 2.97363 9.76465V13.6055C2.97363 14.5371 3.13184 14.9766 3.74707 15.6621L6.9375 19.2568C7.55273 19.9336 8.16797 20.3115 9.31055 20.3115Z" fill="#1C1C1E"/>
</g>
<defs>
<clipPath id="clip0_10_1515">
<rect width="24" height="24" fill="white"/>
</clipPath>
</defs>
</svg>
