<svg width="24" height="24" viewBox="0 0 24 24" fill="none" xmlns="http://www.w3.org/2000/svg">
<g clip-path="url(#clip0_10_1507)">
<path d="M3 16.5234C2.53418 17.3232 2.70117 18.167 3.51855 18.5273L11.2529 21.8936C11.7363 22.1045 12.2549 22.1045 12.7559 21.8936L20.4814 18.5273C21.2988 18.167 21.4658 17.3232 21 16.5234L12.9932 2.68945C12.7295 2.23242 12.3604 2.0918 12 2.0918C11.6396 2.0918 11.2705 2.23242 11.0068 2.68945L3 16.5234ZM4.66113 16.8398L11.209 5.66016V20.2588L4.79297 17.3145C4.6084 17.2266 4.54688 17.0508 4.66113 16.8398ZM19.3389 16.8398C19.4531 17.0508 19.3916 17.2266 19.207 17.3145L12.791 20.2588V5.66016L19.3389 16.8398Z" fill="#1C1C1E"/>
</g>
<defs>
<clipPath id="clip0_10_1507">
<rect width="24" height="24" fill="white"/>
</clipPath>
</defs>
</svg>
