<svg width="24" height="24" viewBox="0 0 24 24" fill="none" xmlns="http://www.w3.org/2000/svg">
<g clip-path="url(#clip0_10_1521)">
<path d="M4.4502 18.29C4.4502 20.1885 5.43457 21.1816 7.31543 21.1816H16.6846C18.5742 21.1816 19.5498 20.1885 19.5498 18.29V5.03613C19.5498 3.12891 18.5742 2.13574 16.6846 2.13574H7.31543C5.43457 2.13574 4.4502 3.12891 4.4502 5.03613V18.29ZM6.19922 18.1758V5.1416C6.19922 4.33301 6.62109 3.89355 7.47363 3.89355H16.5264C17.3789 3.89355 17.8008 4.33301 17.8008 5.1416V18.1758C17.8008 18.9844 17.3789 19.4238 16.5264 19.4238H7.47363C6.62109 19.4238 6.19922 18.9844 6.19922 18.1758Z" fill="#1C1C1E"/>
</g>
<defs>
<clipPath id="clip0_10_1521">
<rect width="24" height="24" fill="white"/>
</clipPath>
</defs>
</svg>
