<svg width="24" height="24" viewBox="0 0 24 24" fill="none" xmlns="http://www.w3.org/2000/svg">
<g clip-path="url(#clip0_10_1512)">
<path d="M12 20.7773C12.5625 20.7773 12.8525 20.3994 13.3711 19.7051L18.5742 12.7617C18.8555 12.3838 18.9873 12.0322 18.9873 11.6543C18.9873 11.2764 18.8555 10.9248 18.5742 10.5469L13.3711 3.60352C12.8525 2.90918 12.5625 2.53125 12 2.53125C11.4375 2.53125 11.1475 2.90918 10.6289 3.60352L5.42578 10.5469C5.14453 10.9248 5.0127 11.2764 5.0127 11.6543C5.0127 12.0322 5.14453 12.3838 5.42578 12.7617L10.6289 19.7051C11.1475 20.3994 11.4375 20.7773 12 20.7773ZM12 18.5273C11.9561 18.5273 11.9385 18.501 11.9121 18.4658L7.02539 11.8828C6.94629 11.7949 6.9375 11.7246 6.9375 11.6543C6.9375 11.584 6.94629 11.5137 7.02539 11.417L11.9121 4.84277C11.9385 4.80762 11.9561 4.78125 12 4.78125C12.0439 4.78125 12.0615 4.80762 12.0879 4.84277L16.9746 11.417C17.0537 11.5137 17.0625 11.584 17.0625 11.6543C17.0625 11.7246 17.0537 11.7949 16.9746 11.8828L12.0879 18.4658C12.0615 18.501 12.0439 18.5273 12 18.5273Z" fill="#1C1C1E"/>
</g>
<defs>
<clipPath id="clip0_10_1512">
<rect width="24" height="24" fill="white"/>
</clipPath>
</defs>
</svg>
