<svg width="24" height="24" viewBox="0 0 24 24" fill="none" xmlns="http://www.w3.org/2000/svg">
<g clip-path="url(#clip0_10_1543)">
<path d="M6.68262 19.3447H8.56348C8.73047 19.3447 8.85352 19.3887 8.97656 19.5117L10.3125 20.8389C11.4639 21.9902 12.5361 21.9814 13.6787 20.8389L15.0146 19.5117C15.1377 19.3887 15.2607 19.3447 15.4277 19.3447H17.3086C18.9258 19.3447 19.6904 18.5889 19.6904 16.9629V15.082C19.6904 14.915 19.7432 14.792 19.8574 14.6689L21.1846 13.333C22.3359 12.1904 22.3271 11.1182 21.1846 9.9668L19.8574 8.63086C19.7344 8.50781 19.6904 8.38477 19.6904 8.21777V6.33691C19.6904 4.71973 18.9346 3.95508 17.3086 3.95508H15.4277C15.2607 3.95508 15.1377 3.91113 15.0146 3.78809L13.6787 2.46094C12.5273 1.30957 11.4639 1.31836 10.3125 2.46094L8.97656 3.78809C8.85352 3.91113 8.73047 3.95508 8.56348 3.95508H6.68262C5.06543 3.95508 4.30078 4.70215 4.30078 6.33691V8.21777C4.30078 8.38477 4.25684 8.50781 4.13379 8.63086L2.80664 9.9668C1.65527 11.1182 1.66406 12.1904 2.80664 13.333L4.13379 14.6689C4.25684 14.792 4.30078 14.915 4.30078 15.082V16.9629C4.30078 18.5801 5.06543 19.3447 6.68262 19.3447ZM6.81445 17.7363C6.04102 17.7363 5.91797 17.6045 5.91797 16.8311V14.5459C5.91797 14.2822 5.83887 14.0801 5.64551 13.8955L4.03711 12.2871C3.4834 11.7334 3.4834 11.5752 4.03711 11.0215L5.64551 9.41309C5.83887 9.21973 5.91797 9.02637 5.91797 8.7627V6.46875C5.91797 5.68652 6.03223 5.57227 6.81445 5.57227H9.1084C9.37207 5.57227 9.56543 5.49316 9.75 5.2998L11.3584 3.69141C11.9209 3.1377 12.0791 3.1377 12.6328 3.69141L14.2412 5.2998C14.4258 5.49316 14.6279 5.57227 14.8828 5.57227H17.1768C17.9502 5.57227 18.0732 5.69531 18.0732 6.46875V8.7627C18.082 9.02637 18.1611 9.21973 18.3457 9.41309L19.9629 11.0215C20.5078 11.5752 20.5078 11.7334 19.9629 12.2871L18.3457 13.8955C18.1611 14.0801 18.082 14.2822 18.082 14.5459L18.0732 16.8311C18.0732 17.6045 17.9502 17.7363 17.1768 17.7363H14.8828C14.6279 17.7363 14.4258 17.8066 14.2412 18L12.6328 19.6172C12.0791 20.1621 11.9209 20.1621 11.3584 19.6172L9.75 18C9.56543 17.8066 9.37207 17.7363 9.1084 17.7363H6.81445Z" fill="#1C1C1E"/>
</g>
<defs>
<clipPath id="clip0_10_1543">
<rect width="24" height="24" fill="white"/>
</clipPath>
</defs>
</svg>
