<svg width="24" height="24" viewBox="0 0 24 24" fill="none" xmlns="http://www.w3.org/2000/svg">
<g clip-path="url(#clip0_10_1537)">
<path d="M6.68262 19.3535H8.56348C8.73926 19.3535 8.85352 19.3887 8.97656 19.5205L10.3125 20.8477C11.4639 21.999 12.5361 21.9902 13.6787 20.8477L15.0146 19.5205C15.1377 19.3887 15.2607 19.3535 15.4277 19.3535H17.3086C18.9258 19.3535 19.6904 18.5889 19.6904 16.9629V15.082C19.6904 14.915 19.7432 14.792 19.8662 14.6689L21.1934 13.333C22.3447 12.1904 22.3359 11.1182 21.1934 9.97559L19.8662 8.63086C19.7432 8.50781 19.6904 8.39355 19.6904 8.22656V6.3457C19.6904 4.72852 18.9346 3.95508 17.3086 3.95508H15.4277C15.2607 3.95508 15.1377 3.91113 15.0146 3.78809L13.6787 2.46094C12.5361 1.30957 11.4639 1.30957 10.3125 2.46094L8.97656 3.78809C8.8623 3.91113 8.73926 3.95508 8.56348 3.95508H6.68262C5.06543 3.95508 4.30078 4.71094 4.30078 6.3457V8.22656C4.30078 8.39355 4.25684 8.50781 4.13379 8.63086L2.80664 9.97559C1.65527 11.1182 1.66406 12.1904 2.80664 13.333L4.13379 14.6689C4.25684 14.792 4.30078 14.915 4.30078 15.082V16.9629C4.30078 18.5801 5.06543 19.3535 6.68262 19.3535Z" fill="#1C1C1E"/>
</g>
<defs>
<clipPath id="clip0_10_1537">
<rect width="24" height="24" fill="white"/>
</clipPath>
</defs>
</svg>
