<svg width="24" height="24" viewBox="0 0 24 24" fill="none" xmlns="http://www.w3.org/2000/svg">
<g clip-path="url(#clip0_10_1508)">
<path d="M11.9912 20.5928C12.1494 20.5928 12.3779 20.5312 12.6064 20.417C17.6426 17.8242 19.3125 16.4619 19.3125 13.3066V6.77637C19.3125 5.73926 18.9082 5.36133 18.0381 5.00098C17.0713 4.59668 13.8545 3.46289 12.9141 3.14648C12.624 3.05859 12.2988 2.99707 11.9912 2.99707C11.6924 2.99707 11.3672 3.05859 11.0771 3.14648C10.1279 3.44531 6.91113 4.60547 5.95312 5.00098C5.08301 5.35254 4.67871 5.73926 4.67871 6.77637V13.3066C4.67871 16.4619 6.41895 17.7012 11.3848 20.417C11.6133 20.54 11.8418 20.5928 11.9912 20.5928Z" fill="#1C1C1E"/>
</g>
<defs>
<clipPath id="clip0_10_1508">
<rect width="24" height="24" fill="white"/>
</clipPath>
</defs>
</svg>
